<svg width="16" height="16" viewBox="0 0 16 16" fill="none" xmlns="http://www.w3.org/2000/svg">
    <path fill-rule="evenodd" clip-rule="evenodd"
        d="M11.46 1H4.54C4.053 1 3.814 1.031 3.628 1.125C3.411 1.236 3.236 1.412 3.125 1.628C3.031 1.814 3 2.053 3 2.54V3.888C3 4.266 3.007 4.454 3.05 4.632C3.094 4.815 3.167 4.991 3.265 5.152C3.361 5.308 3.489 5.446 3.756 5.713L5.661 7.618C5.757 7.714 5.834 7.791 5.895 7.858C5.931 7.897 5.963 7.921 5.973 7.954C5.983 7.984 5.983 8.016 5.973 8.046C5.963 8.079 5.931 8.103 5.895 8.142L5.661 8.382L3.756 10.287C3.489 10.554 3.361 10.692 3.265 10.848C3.167 11.009 3.094 11.185 3.05 11.368C3.007 11.546 3 11.734 3 12.112V13.46C3 13.947 3.031 14.186 3.125 14.372C3.236 14.588 3.411 14.764 3.628 14.875C3.814 14.969 4.053 15 4.54 15H11.46C11.947 15 12.186 14.969 12.372 14.875C12.589 14.764 12.764 14.589 12.875 14.372C12.969 14.186 13 13.947 13 13.46V12.112C13 11.734 12.993 11.546 12.95 11.368C12.906 11.185 12.833 11.009 12.735 10.848C12.639 10.692 12.511 10.554 12.244 10.287L10.339 8.382C10.243 8.286 10.166 8.209 10.105 8.142C10.069 8.103 10.037 8.079 10.027 8.046C10.017 8.016 10.017 7.984 10.027 7.954C10.037 7.921 10.069 7.897 10.105 7.858L10.339 7.618L12.244 5.713C12.511 5.446 12.639 5.308 12.735 5.152C12.833 4.991 12.906 4.815 12.95 4.632C12.993 4.454 13 4.266 13 3.888V2.54C13 2.053 12.969 1.814 12.875 1.628C12.764 1.411 12.589 1.236 12.372 1.125C12.186 1.031 11.947 1 11.46 1Z"
        fill="#303233" />
</svg>
