<svg width="16" height="16" viewBox="0 0 16 16" fill="none" xmlns="http://www.w3.org/2000/svg">
    <path fill-rule="evenodd" clip-rule="evenodd"
        d="M11.8119 1.44123C9.35419 0.519591 6.64581 0.519591 4.18812 1.44123L3.12886 1.83845C2.29947 2.14947 1.75 2.94235 1.75 3.82815V7.68777C1.75 9.75032 2.9257 11.4487 4.13987 12.6613C5.36539 13.8852 6.73179 14.7173 7.33308 15.0552C7.74988 15.2893 8.25012 15.2893 8.66692 15.0552C9.26822 14.7173 10.6346 13.8852 11.8601 12.6613C13.0743 11.4487 14.25 9.75032 14.25 7.68777V3.82815C14.25 2.94235 13.7005 2.14947 12.8711 1.83845L11.8119 1.44123ZM10.2803 6.53033C10.5732 6.23744 10.5732 5.76256 10.2803 5.46967C9.98744 5.17678 9.51256 5.17678 9.21967 5.46967L8 6.68934L6.78033 5.46967C6.48744 5.17678 6.01256 5.17678 5.71967 5.46967C5.42678 5.76256 5.42678 6.23744 5.71967 6.53033L6.93934 7.75L5.71967 8.96967C5.42678 9.26256 5.42678 9.73744 5.71967 10.0303C6.01256 10.3232 6.48744 10.3232 6.78033 10.0303L8 8.81066L9.21967 10.0303C9.51256 10.3232 9.98744 10.3232 10.2803 10.0303C10.5732 9.73744 10.5732 9.26256 10.2803 8.96967L9.06066 7.75L10.2803 6.53033Z"
        fill="#303233" />
</svg>
