<svg width="16" height="16" viewBox="0 0 16 16" fill="none" xmlns="http://www.w3.org/2000/svg">
    <g clip-path="url(#clip0_4017_191)">
        <path fill-rule="evenodd" clip-rule="evenodd"
            d="M0.46967 0.46967C0.762563 0.176777 1.23744 0.176777 1.53033 0.46967L15.5303 14.4697C15.8232 14.7626 15.8232 15.2374 15.5303 15.5303C15.2374 15.8232 14.7626 15.8232 14.4697 15.5303L7.68934 8.75H4.5C4.08579 8.75 3.75 8.41421 3.75 8C3.75 7.58579 4.08579 7.25 4.5 7.25H6.18934L4.20498 5.26564C2.82493 5.41283 1.75 6.58088 1.75 8C1.75 9.51878 2.98122 10.75 4.5 10.75H5.9C6.31421 10.75 6.65 11.0858 6.65 11.5C6.65 11.9142 6.31421 12.25 5.9 12.25H4.5C2.15279 12.25 0.25 10.3472 0.25 8C0.25 6.19132 1.37983 4.64652 2.97221 4.03287L0.46967 1.53033C0.176777 1.23744 0.176777 0.762563 0.46967 0.46967ZM10.1 5.25C9.68579 5.25 9.35 4.91421 9.35 4.5C9.35 4.08579 9.68579 3.75 10.1 3.75H11.5C13.8472 3.75 15.75 5.65279 15.75 8C15.75 9.17523 15.272 10.2402 14.5016 11.0088C14.2084 11.3013 13.7335 11.3008 13.441 11.0075C13.1484 10.7143 13.149 10.2394 13.4422 9.94687C13.9421 9.44821 14.25 8.76077 14.25 8C14.25 6.48122 13.0188 5.25 11.5 5.25H10.1ZM10.743 8C10.743 7.58579 11.0788 7.25 11.493 7.25H11.5C11.9142 7.25 12.25 7.58579 12.25 8C12.25 8.41422 11.9142 8.75 11.5 8.75H11.493C11.0788 8.75 10.743 8.41422 10.743 8Z"
            fill="#303233" />
    </g>
    <defs>
        <clipPath id="clip0_4017_191">
            <rect width="16" height="16" fill="white" />
        </clipPath>
    </defs>
</svg>
