<svg width="16" height="16" viewBox="0 0 16 16" fill="none" xmlns="http://www.w3.org/2000/svg">
    <path
        d="M12.5304 5.19702C12.8233 4.90412 12.8233 4.42925 12.5304 4.13636C12.2375 3.84346 11.7626 3.84346 11.4698 4.13636L8.13642 7.46969C7.84352 7.76258 7.84352 8.23746 8.13642 8.53035L11.4698 11.8637C11.7626 12.1566 12.2375 12.1566 12.5304 11.8637C12.8233 11.5708 12.8233 11.0959 12.5304 10.803L9.72741 8.00002L12.5304 5.19702Z"
        fill="#303233" />
    <path
        d="M7.86366 5.19702C8.15656 4.90412 8.15656 4.42925 7.86366 4.13636C7.57077 3.84346 7.0959 3.84346 6.803 4.13636L3.46967 7.46969C3.32902 7.61034 3.25 7.80111 3.25 8.00002C3.25 8.19893 3.32902 8.3897 3.46967 8.53035L6.803 11.8637C7.0959 12.1566 7.57077 12.1566 7.86366 11.8637C8.15656 11.5708 8.15656 11.0959 7.86366 10.803L5.06066 8.00002L7.86366 5.19702Z"
        fill="#303233" />
</svg>
