<svg width="16" height="16" viewBox="0 0 16 16" fill="none" xmlns="http://www.w3.org/2000/svg">
    <path fill-rule="evenodd" clip-rule="evenodd"
        d="M8 1C4.13401 1 1 4.13401 1 8C1 11.866 4.13401 15 8 15C11.866 15 15 11.866 15 8C15 4.13401 11.866 1 8 1ZM5.99503 5.25C5.58356 5.25 5.25 5.58579 5.25 6C5.25 6.41421 5.58356 6.75 5.99503 6.75H6.00497C6.41644 6.75 6.75 6.41421 6.75 6C6.75 5.58579 6.41644 5.25 6.00497 5.25H5.99503ZM9.99503 5.25C9.58356 5.25 9.25 5.58579 9.25 6C9.25 6.41421 9.58356 6.75 9.99503 6.75H10.005C10.4164 6.75 10.75 6.41421 10.75 6C10.75 5.58579 10.4164 5.25 10.005 5.25H9.99503ZM5.5 10.5C5.5 9.11929 6.61929 8 8 8C9.38071 8 10.5 9.11929 10.5 10.5C10.5 11.8807 9.38071 13 8 13C6.61929 13 5.5 11.8807 5.5 10.5Z"
        fill="#303233" />
</svg>
