<svg width="16" height="16" viewBox="0 0 16 16" fill="none" xmlns="http://www.w3.org/2000/svg">
    <path fill-rule="evenodd" clip-rule="evenodd"
        d="M2.94444 2C2.69396 2 2.45374 2.0995 2.27662 2.27662C2.0995 2.45374 2 2.69396 2 2.94444V13.2929L4.14645 11.1464C4.24021 11.0527 4.36739 11 4.5 11H13.0556C13.306 11 13.5463 10.9005 13.7234 10.7234C13.9005 10.5463 14 10.306 14 10.0556V2.94444C14 2.69396 13.9005 2.45374 13.7234 2.27662C13.5463 2.0995 13.306 2 13.0556 2H2.94444ZM1.56951 1.56951C1.93417 1.20486 2.42875 1 2.94444 1H13.0556C13.5713 1 14.0658 1.20486 14.4305 1.56951C14.7951 1.93417 15 2.42875 15 2.94444V10.0556C15 10.5713 14.7951 11.0658 14.4305 11.4305C14.0658 11.7951 13.5713 12 13.0556 12H4.70711L1.85355 14.8536C1.71055 14.9966 1.4955 15.0393 1.30866 14.9619C1.12182 14.8845 1 14.7022 1 14.5V2.94444C1 2.42875 1.20486 1.93417 1.56951 1.56951Z"
        fill="#303233" />
</svg>
