<svg width="16" height="16" viewBox="0 0 16 16" fill="none" xmlns="http://www.w3.org/2000/svg">
    <path
        d="M11.1414 1.00015C10.1205 0.991267 9.13707 1.38413 8.40295 2.09389L7.31411 3.17738C7.02051 3.46957 7.01937 3.94444 7.31155 4.23804C7.60374 4.53164 8.07861 4.53278 8.37221 4.2406L9.4492 3.16879C9.90013 2.73466 10.5029 2.49465 11.1283 2.50009C11.7554 2.50555 12.3555 2.75734 12.7992 3.20148C13.2429 3.64564 13.4947 4.24664 13.5002 4.87508C13.5056 5.50149 13.2658 6.1049 12.8325 6.55625L10.9517 8.43897C10.7091 8.68191 10.4172 8.86973 10.0958 8.98974C9.77442 9.10975 9.43103 9.15916 9.08892 9.13464C8.74681 9.11011 8.41393 9.01222 8.11287 8.84757C7.8118 8.68292 7.54957 8.45534 7.344 8.18024C7.09606 7.84843 6.62608 7.78045 6.29427 8.02839C5.96246 8.27633 5.89447 8.74632 6.14242 9.07812C6.4767 9.52548 6.90324 9.89569 7.39312 10.1636C7.88301 10.4315 8.42477 10.5909 8.98166 10.6308C9.53854 10.6707 10.0975 10.5903 10.6205 10.395C11.1436 10.1997 11.6185 9.894 12.0131 9.4989L13.8987 7.61154L13.9078 7.60216C14.6168 6.86733 15.009 5.88331 15.0001 4.86206C14.9912 3.8408 14.582 2.86374 13.8604 2.14135C13.1387 1.41894 12.1623 1.00903 11.1414 1.00015Z"
        fill="#303233" />
    <path
        d="M7.0186 5.3692C6.46171 5.32928 5.90278 5.40971 5.37971 5.60503C4.85669 5.80033 4.38171 6.10601 3.98713 6.5011L2.10152 8.38846L2.09247 8.39784C1.38347 9.13267 0.991282 10.1167 1.00015 11.1379C1.00901 12.1592 1.41822 13.1363 2.13988 13.8586C2.86157 14.5811 3.83799 14.991 4.85889 14.9999C5.87979 15.0087 6.86326 14.616 7.59739 13.9062L8.68141 12.8211C8.97415 12.528 8.97391 12.0532 8.68087 11.7604C8.38783 11.4677 7.91296 11.4679 7.62021 11.7609L6.55031 12.8319C6.09946 13.2656 5.49703 13.5053 4.87193 13.4999C4.24481 13.4945 3.64477 13.2427 3.20108 12.7985C2.75737 12.3544 2.50555 11.7534 2.50009 11.1249C2.49465 10.4985 2.73443 9.89509 3.16772 9.44374L5.04852 7.56103C5.29113 7.31809 5.58304 7.13027 5.90444 7.01026C6.22583 6.89025 6.56923 6.84084 6.91134 6.86536C7.25345 6.88989 7.58633 6.98778 7.88739 7.15243C8.18845 7.31708 8.45068 7.54466 8.65625 7.81976C8.9042 8.15157 9.37418 8.21956 9.70599 7.97161C10.0378 7.72367 10.1058 7.25369 9.85784 6.92188C9.52355 6.47452 9.09702 6.10431 8.60713 5.83639C8.11724 5.56847 7.57548 5.40913 7.0186 5.3692Z"
        fill="#303233" />
</svg>
