<svg width="24" height="24" viewBox="0 0 24 24" fill="none" xmlns="http://www.w3.org/2000/svg">
    <path
        d="M17.2071 1.79289C16.8166 1.40237 16.1834 1.40237 15.7929 1.79289C15.4024 2.18342 15.4024 2.81658 15.7929 3.20711L17.5858 5L15.7929 6.79289C15.4024 7.18342 15.4024 7.81658 15.7929 8.20711C16.1834 8.59763 16.8166 8.59763 17.2071 8.20711L19 6.41421L20.7929 8.20711C21.1834 8.59763 21.8166 8.59763 22.2071 8.20711C22.5976 7.81658 22.5976 7.18342 22.2071 6.79289L20.4142 5L22.2071 3.20711C22.5976 2.81658 22.5976 2.18342 22.2071 1.79289C21.8166 1.40237 21.1834 1.40237 20.7929 1.79289L19 3.58579L17.2071 1.79289Z"
        fill="#303233" />
    <path
        d="M2 6C2 3.79086 3.79086 2 6 2H12C12.5523 2 13 2.44772 13 3C13 3.55228 12.5523 4 12 4H6C4.89543 4 4 4.89543 4 6V18C4 18.7021 4.36182 19.3198 4.90917 19.6766L14.5858 10C15.3668 9.21895 16.6332 9.21895 17.4142 10L21.1213 13.7071C21.6839 14.2697 22 15.0328 22 15.8284V18C22 20.2091 20.2091 22 18 22H6C3.79086 22 2 20.2091 2 18V6Z"
        fill="#303233" />
    <path
        d="M6 9C6 7.34315 7.34315 6 9 6C10.6569 6 12 7.34315 12 9C12 10.6569 10.6569 12 9 12C7.34315 12 6 10.6569 6 9Z"
        fill="#303233" />
</svg>
