<svg width="16" height="16" viewBox="0 0 16 16" fill="none" xmlns="http://www.w3.org/2000/svg">
    <path fill-rule="evenodd" clip-rule="evenodd"
        d="M8.33009 2.75H4.67104C4.13611 2.74999 3.69119 2.74998 3.32806 2.77859C2.95027 2.80836 2.59666 2.87256 2.26185 3.03706C1.74674 3.29015 1.32283 3.69657 1.05543 4.20263C0.84959 4.59219 0.790019 5.01191 0.766656 5.46104C0.745138 5.87469 1.06303 6.22747 1.47668 6.24899C1.89034 6.27051 2.24311 5.95262 2.26463 5.53896C2.28458 5.15548 2.33051 5.00023 2.38167 4.90341C2.49776 4.6837 2.68578 4.50005 2.92331 4.38334C3.01632 4.33764 3.15665 4.29675 3.44587 4.27396C3.74308 4.25054 4.12857 4.25 4.70056 4.25H8.30056C8.87255 4.25 9.25804 4.25054 9.55525 4.27396C9.84447 4.29675 9.9848 4.33764 10.0778 4.38334C10.3153 4.50005 10.5034 4.6837 10.6195 4.90341C10.662 4.98397 10.7029 5.10936 10.726 5.38235C10.7499 5.66494 10.7506 6.03284 10.7506 6.58572V7.97096C10.7502 7.98061 10.75 7.99029 10.75 7.99999C10.75 8.0097 10.7502 8.01938 10.7506 8.02903V9.41429C10.7506 9.96717 10.7499 10.3351 10.726 10.6176C10.7029 10.8906 10.662 11.016 10.6195 11.0966C10.5034 11.3163 10.3153 11.5 10.0778 11.6167C9.99081 11.6594 9.86146 11.6983 9.60617 11.7217C9.34295 11.7458 9.00153 11.7496 8.5 11.75C8.08578 11.7503 7.75025 12.0863 7.75056 12.5005C7.75087 12.9147 8.08691 13.2503 8.50113 13.25C8.98794 13.2496 9.39973 13.2469 9.74302 13.2155C10.0942 13.1833 10.4247 13.1175 10.7393 12.9629C11.2544 12.7098 11.6783 12.3034 11.9457 11.7974C12.1211 11.4654 12.1893 11.1145 12.2206 10.7443C12.244 10.4688 12.2491 10.1457 12.2502 9.77337L13.1763 10.6722C13.2888 10.7814 13.4062 10.8954 13.5106 10.9802C13.6032 11.0555 13.8181 11.2239 14.1193 11.2469C14.4453 11.2718 14.7701 11.1446 14.9912 10.8934C15.1972 10.6593 15.2272 10.3796 15.2379 10.2623C15.2501 10.129 15.25 9.9663 15.25 9.81255V6.18744C15.25 6.03369 15.2501 5.87099 15.2379 5.73765C15.2272 5.62038 15.1972 5.3407 14.9912 5.10661C14.7701 4.85537 14.4453 4.72818 14.1193 4.75307C13.8181 4.77609 13.6032 4.94449 13.5106 5.01976C13.4062 5.10456 13.2888 5.21855 13.1763 5.32779L12.2502 6.22662C12.2491 5.85434 12.244 5.53121 12.2206 5.25571C12.1893 4.88552 12.1211 4.53462 11.9457 4.20263C11.6783 3.69657 11.2544 3.29015 10.7393 3.03706C10.4045 2.87256 10.0508 2.80836 9.67306 2.77859C9.30993 2.74998 8.86501 2.74999 8.33009 2.75ZM13.75 6.86134L12.5768 7.99999L13.75 9.13865V6.86134Z"
        fill="#303233" />
    <path
        d="M6 7.25H1.5C1.08579 7.25 0.75 7.58579 0.75 8C0.75 8.41421 1.08579 8.75 1.5 8.75H4.18934L0.96967 11.9697C0.676777 12.2626 0.676777 12.7374 0.96967 13.0303C1.26256 13.3232 1.73744 13.3232 2.03033 13.0303L5.25 9.81066V12.5C5.25 12.9142 5.58579 13.25 6 13.25C6.41421 13.25 6.75 12.9142 6.75 12.5V8C6.75 7.89831 6.72976 7.80134 6.69309 7.71291C6.65649 7.62445 6.60224 7.54158 6.53033 7.46967C6.45842 7.39776 6.37555 7.34351 6.28709 7.30691C6.19866 7.27024 6.10169 7.25 6 7.25Z"
        fill="#303233" />
</svg>
