<svg width="24" height="24" viewBox="0 0 24 24" fill="none" xmlns="http://www.w3.org/2000/svg">
    <path fill-rule="evenodd" clip-rule="evenodd"
        d="M6.19849 8.05097C4.6647 9.33109 3.59442 10.832 3.05425 11.6873C2.98048 11.8041 2.94878 11.8554 2.92767 11.896C2.91569 11.9191 2.9125 11.9285 2.90963 11.9405C2.90937 11.9422 2.90887 11.946 2.90831 11.9519C2.90711 11.9646 2.90625 11.9813 2.90625 12C2.90625 12.0187 2.90711 12.0354 2.90831 12.0481C2.90887 12.054 2.90937 12.0578 2.90963 12.0595C2.9125 12.0715 2.91569 12.0809 2.92767 12.104C2.94878 12.1446 2.98048 12.1959 3.05425 12.3127C3.59442 13.168 4.6647 14.6689 6.19849 15.949C7.73051 17.2277 9.67978 18.25 12.0004 18.25C14.321 18.25 16.2703 17.2277 17.8023 15.949C19.3361 14.6689 20.4064 13.168 20.9466 12.3127C21.0203 12.1959 21.052 12.1446 21.0731 12.104C21.0851 12.0809 21.0883 12.0715 21.0912 12.0595C21.0914 12.0578 21.0919 12.054 21.0925 12.0481C21.0937 12.0354 21.0946 12.0187 21.0946 12C21.0946 11.9813 21.0937 11.9646 21.0925 11.9519C21.0919 11.946 21.0914 11.9422 21.0912 11.9405C21.0883 11.9285 21.0851 11.9191 21.0731 11.896C21.052 11.8554 21.0203 11.8041 20.9466 11.6873C20.4064 10.832 19.3361 9.33109 17.8023 8.05097C16.2703 6.77233 14.321 5.75 12.0004 5.75C9.67978 5.75 7.73051 6.77233 6.19849 8.05097ZM5.23734 6.89936C6.93786 5.48009 9.21602 4.25 12.0004 4.25C14.7848 4.25 17.0629 5.48009 18.7635 6.89936C20.4622 8.31717 21.6296 9.95967 22.2148 10.8863C22.2221 10.8978 22.2294 10.9094 22.2367 10.921C22.3554 11.1082 22.4868 11.3154 22.5541 11.609C22.608 11.8442 22.608 12.1558 22.5541 12.391C22.4868 12.6846 22.3554 12.8918 22.2367 13.079C22.2294 13.0906 22.2221 13.1022 22.2148 13.1137C21.6296 14.0403 20.4622 15.6828 18.7635 17.1006C17.0629 18.5199 14.7848 19.75 12.0004 19.75C9.21602 19.75 6.93786 18.5199 5.23734 17.1006C3.53859 15.6828 2.37123 14.0403 1.786 13.1137C1.77875 13.1022 1.77143 13.0906 1.76406 13.079C1.64538 12.8918 1.51398 12.6846 1.44668 12.391C1.39277 12.1558 1.39277 11.8442 1.44668 11.609C1.51398 11.3154 1.64538 11.1082 1.76406 10.921C1.77143 10.9094 1.77875 10.8978 1.786 10.8863C2.37123 9.95967 3.53859 8.31717 5.23734 6.89936ZM12.0004 9.75C10.7578 9.75 9.7504 10.7574 9.7504 12C9.7504 13.2426 10.7578 14.25 12.0004 14.25C13.243 14.25 14.2504 13.2426 14.2504 12C14.2504 10.7574 13.243 9.75 12.0004 9.75ZM8.2504 12C8.2504 9.92893 9.92934 8.25 12.0004 8.25C14.0715 8.25 15.7504 9.92893 15.7504 12C15.7504 14.0711 14.0715 15.75 12.0004 15.75C9.92934 15.75 8.2504 14.0711 8.2504 12Z"
        fill="#303233" />
</svg>
