<svg width="16" height="16" viewBox="0 0 16 16" fill="none" xmlns="http://www.w3.org/2000/svg">
    <g clip-path="url(#clip0_7858_15)">
        <path fill-rule="evenodd" clip-rule="evenodd"
            d="M1.5 0.75C1.08579 0.75 0.75 1.08579 0.75 1.5V11.5C0.75 13.5711 2.42893 15.25 4.5 15.25H11.5C13.5711 15.25 15.25 13.5711 15.25 11.5V1.5C15.25 1.08579 14.9142 0.75 14.5 0.75H1.5ZM5.375 2.75C3.92525 2.75 2.75 3.92525 2.75 5.375C2.75 6.82475 3.92525 8 5.375 8C6.82475 8 8 6.82475 8 5.375C8 3.92525 6.82475 2.75 5.375 2.75ZM9.5 5.75C9.08579 5.75 8.75 6.08579 8.75 6.5V9.5C8.75 9.91421 9.08579 10.25 9.5 10.25H12.5C12.9142 10.25 13.25 9.91421 13.25 9.5V6.5C13.25 6.08579 12.9142 5.75 12.5 5.75H9.5ZM6.75 8.75C6.98607 8.75 7.20836 8.86115 7.35 9.05L9.6 12.05C9.77045 12.2773 9.79787 12.5813 9.67082 12.8354C9.54378 13.0895 9.28408 13.25 9 13.25H4.5C4.21593 13.25 3.95623 13.0895 3.82918 12.8354C3.70214 12.5813 3.72956 12.2773 3.9 12.05L6.15 9.05C6.29165 8.86115 6.51394 8.75 6.75 8.75Z"
            fill="#303233" />
    </g>
    <defs>
        <clipPath id="clip0_7858_15">
            <rect width="16" height="16" fill="white" />
        </clipPath>
    </defs>
</svg>
