<svg width="16" height="16" viewBox="0 0 16 16" fill="none" xmlns="http://www.w3.org/2000/svg">
    <path
        d="M2.62794 2.03424C2.46883 1.96262 2.31995 1.8956 2.19637 1.8528C2.08073 1.81274 1.88109 1.7528 1.66569 1.81274C1.41346 1.88292 1.20887 2.06756 1.11328 2.3113C1.03164 2.51945 1.07086 2.72417 1.09889 2.8433C1.12884 2.9706 1.18029 3.12556 1.23527 3.29115L2.63223 7.5H7.00065C7.27679 7.5 7.50065 7.72386 7.50065 8C7.50065 8.27614 7.27679 8.5 7.00065 8.5H2.64754L1.23994 12.7047C1.18435 12.8707 1.13237 13.0259 1.10202 13.1534C1.07366 13.2725 1.03375 13.4776 1.11516 13.6863C1.21042 13.9305 1.41503 14.1156 1.6675 14.1861C1.88325 14.2463 2.08334 14.1862 2.19907 14.1461C2.32291 14.1032 2.47216 14.036 2.63177 13.9641L13.8096 8.9341C13.9652 8.86412 14.1114 8.79833 14.2237 8.73514C14.3297 8.67549 14.5038 8.56725 14.6016 8.36938C14.7167 8.1366 14.7167 7.86347 14.6016 7.63069C14.5038 7.43282 14.3297 7.32458 14.2237 7.26493C14.1114 7.20175 13.9652 7.13595 13.8097 7.06598L2.62794 2.03424Z"
        fill="#303233" />
</svg>
