<svg width="16" height="16" viewBox="0 0 16 16" fill="none" xmlns="http://www.w3.org/2000/svg">
    <path fill-rule="evenodd" clip-rule="evenodd"
        d="M9.46967 1.96968C9.76256 1.67678 10.2374 1.67678 10.5303 1.96968L14.0303 5.46968C14.3232 5.76257 14.3232 6.23744 14.0303 6.53034L10.5303 10.0303C10.2374 10.3232 9.76256 10.3232 9.46967 10.0303C9.17678 9.73744 9.17678 9.26257 9.46967 8.96968L11.6893 6.75L8.9 6.74999C7.76752 6.74999 6.96327 6.75057 6.33388 6.80199C5.71325 6.8527 5.329 6.94908 5.02453 7.10422C4.413 7.4158 3.91582 7.91299 3.60423 8.52452C3.44909 8.82899 3.35271 9.21324 3.30201 9.83387C3.25058 10.4633 3.25 11.2675 3.25 12.4V12.5C3.25 12.9142 2.91421 13.25 2.5 13.25C2.08579 13.25 1.75 12.9142 1.75 12.5L1.75 12.367C1.74999 11.2748 1.74999 10.4093 1.80699 9.71172C1.86527 8.99833 1.98688 8.39471 2.26772 7.84353C2.72312 6.94976 3.44978 6.2231 4.34355 5.76771C4.89472 5.48687 5.49835 5.36526 6.21173 5.30698C6.90935 5.24998 7.77485 5.24998 8.86699 5.24999L11.6893 5.25L9.46967 3.03034C9.17678 2.73744 9.17678 2.26257 9.46967 1.96968Z"
        fill="#303233" />
</svg>
