<svg width="16" height="16" viewBox="0 0 16 16" fill="none" xmlns="http://www.w3.org/2000/svg">
    <g clip-path="url(#clip0_53_5383)">
        <path fill-rule="evenodd" clip-rule="evenodd"
            d="M15.25 8C15.25 12.0041 12.0041 15.25 8 15.25C3.99594 15.25 0.75 12.0041 0.75 8C0.75 3.99594 3.99594 0.75 8 0.75C12.0041 0.75 15.25 3.99594 15.25 8ZM6 8C6 8.55228 5.55228 9 5 9C4.44772 9 4 8.55228 4 8C4 7.44772 4.44772 7 5 7C5.55228 7 6 7.44772 6 8ZM8 9C8.55228 9 9 8.55228 9 8C9 7.44772 8.55228 7 8 7C7.44772 7 7 7.44772 7 8C7 8.55228 7.44772 9 8 9ZM11 9C11.5523 9 12 8.55228 12 8C12 7.44772 11.5523 7 11 7C10.4477 7 10 7.44772 10 8C10 8.55228 10.4477 9 11 9Z"
            fill="#303233" />
    </g>
    <defs>
        <clipPath id="clip0_53_5383">
            <rect width="16" height="16" fill="white" />
        </clipPath>
    </defs>
</svg>
