<svg width="24" height="24" viewBox="0 0 24 24" fill="none" xmlns="http://www.w3.org/2000/svg">
    <path fill-rule="evenodd" clip-rule="evenodd"
        d="M23 12C23 18.0751 18.0751 23 12 23C5.92487 23 1 18.0751 1 12C1 5.92487 5.92487 1 12 1C18.0751 1 23 5.92487 23 12ZM9 8C9.55228 8 10 8.44772 10 9V15C10 15.5523 9.55228 16 9 16C8.44772 16 8 15.5523 8 15V9C8 8.44772 8.44772 8 9 8ZM15 8C15.5523 8 16 8.44772 16 9V15C16 15.5523 15.5523 16 15 16C14.4477 16 14 15.5523 14 15V9C14 8.44772 14.4477 8 15 8Z"
        fill="#303233" />
</svg>
