<svg width="24" height="24" viewBox="0 0 24 24" fill="none" xmlns="http://www.w3.org/2000/svg">
    <path fill-rule="evenodd" clip-rule="evenodd"
        d="M14.4697 3.46967C14.7626 3.17678 15.2374 3.17678 15.5303 3.46967L20.5303 8.46967C20.8232 8.76256 20.8232 9.23744 20.5303 9.53033L15.5303 14.5303C15.2374 14.8232 14.7626 14.8232 14.4697 14.5303C14.1768 14.2374 14.1768 13.7626 14.4697 13.4697L18.1893 9.75H13.6C11.9075 9.75 10.6832 9.75058 9.72029 9.82925C8.76615 9.90721 8.13493 10.0581 7.61655 10.3222C6.6287 10.8256 5.82555 11.6287 5.32222 12.6166C5.05809 13.1349 4.90721 13.7662 4.82925 14.7203C4.75058 15.6832 4.75 16.9075 4.75 18.6V20C4.75 20.4142 4.41421 20.75 4 20.75C3.58579 20.75 3.25 20.4142 3.25 20V18.5661C3.25 16.9146 3.24999 15.6292 3.33424 14.5981C3.41977 13.5512 3.59588 12.7006 3.98571 11.9356C4.63285 10.6655 5.66547 9.63285 6.93556 8.98571C7.70065 8.59587 8.55124 8.41977 9.59814 8.33424C10.6292 8.24999 11.9146 8.25 13.5661 8.25H18.1893L14.4697 4.53033C14.1768 4.23744 14.1768 3.76256 14.4697 3.46967Z"
        fill="#303233" />
</svg>
