<svg width="16" height="16" viewBox="0 0 16 16" fill="none" xmlns="http://www.w3.org/2000/svg">
    <g clip-path="url(#clip0_3961_157)">
        <path fill-rule="evenodd" clip-rule="evenodd"
            d="M9.5 5.25C7.98122 5.25 6.75 6.48122 6.75 8C6.75 9.51878 7.98122 10.75 9.5 10.75C11.0188 10.75 12.25 9.51878 12.25 8C12.25 6.48122 11.0188 5.25 9.5 5.25ZM8.25 8C8.25 7.30964 8.80964 6.75 9.5 6.75C10.1904 6.75 10.75 7.30964 10.75 8C10.75 8.69036 10.1904 9.25 9.5 9.25C8.80964 9.25 8.25 8.69036 8.25 8Z"
            fill="#303233" />
        <path fill-rule="evenodd" clip-rule="evenodd"
            d="M3.25778 12.7489C2.84658 12.7444 2.50548 12.7237 2.20182 12.6316C1.32292 12.365 0.635132 11.6772 0.36852 10.7983C0.249277 10.4052 0.249615 9.94934 0.250052 9.35993L0.250105 4.16955C0.250095 3.63539 0.250086 3.18955 0.279845 2.82531C0.310883 2.44543 0.377994 2.08877 0.549838 1.75151C0.81349 1.23406 1.23419 0.813368 1.75163 0.549716C2.08889 0.377872 2.44555 0.310761 2.82544 0.279723C3.18967 0.249964 3.63552 0.249973 4.16967 0.249983L9.36005 0.24993C9.94946 0.249493 10.4053 0.249155 10.7984 0.368398C11.6773 0.63501 12.3651 1.3228 12.6317 2.2017C12.7238 2.50539 12.7446 2.84653 12.749 3.25778C12.9017 3.26217 13.0435 3.26902 13.1747 3.27974C13.5546 3.31078 13.9112 3.37789 14.2485 3.54973C14.7659 3.81338 15.1866 4.23408 15.4503 4.75153C15.6221 5.08879 15.6892 5.44545 15.7203 5.82533C15.75 6.18955 15.75 6.63538 15.75 7.16951V11.8305C15.75 12.3646 15.75 12.8105 15.7203 13.1747C15.6892 13.5546 15.6221 13.9112 15.4503 14.2485C15.1866 14.7659 14.7659 15.1866 14.2485 15.4503C13.9112 15.6221 13.5546 15.6892 13.1747 15.7203C12.8105 15.75 12.3646 15.75 11.8305 15.75H7.16955C6.63542 15.75 6.18955 15.75 5.82533 15.7203C5.44545 15.6892 5.08879 15.6221 4.75153 15.4503C4.23408 15.1866 3.81338 14.7659 3.54973 14.2485C3.37789 13.9112 3.31078 13.5546 3.27974 13.1747C3.26902 13.0434 3.26216 12.9016 3.25778 12.7489ZM9.25011 1.74998C10.0025 1.74998 10.2124 1.75812 10.363 1.80381C10.7625 1.925 11.0751 2.23763 11.1963 2.63713C11.2296 2.7471 11.243 2.88869 11.2478 3.25H7.16957C6.63541 3.24999 6.18956 3.24998 5.82533 3.27974C5.44545 3.31078 5.08879 3.37789 4.75153 3.54973C4.23408 3.81338 3.81338 4.23408 3.54973 4.75153C3.37789 5.08879 3.31078 5.44545 3.27974 5.82533C3.24998 6.18956 3.24999 6.63541 3.25 7.16957V11.2476C2.88878 11.2429 2.74721 11.2295 2.63725 11.1962C2.23775 11.075 1.92512 10.7623 1.80393 10.3628C1.75825 10.2122 1.75011 10.0023 1.75011 9.24998V4.19998C1.75011 3.62756 1.75069 3.24334 1.77486 2.94746C1.79832 2.66034 1.8402 2.52306 1.88635 2.4325C2.00619 2.19729 2.19742 2.00607 2.43262 1.88623C2.52318 1.84008 2.66046 1.7982 2.94758 1.77474C3.24346 1.75057 3.62768 1.74998 4.20011 1.74998H9.25011ZM5.94748 4.77476C5.66036 4.79822 5.52307 4.8401 5.43251 4.88624C5.19731 5.00608 5.00608 5.19731 4.88624 5.43251C4.8401 5.52307 4.79822 5.66036 4.77476 5.94748C4.75058 6.24336 4.75 6.62757 4.75 7.2V11.8C4.75 12.3724 4.75058 12.7566 4.77476 13.0525C4.79822 13.3396 4.8401 13.4769 4.88624 13.5675C4.92292 13.6395 4.96629 13.7073 5.01556 13.7703C6.02752 12.3943 7.65855 11.5 9.49948 11.5C11.3407 11.5 12.972 12.3946 13.9839 13.771C14.0334 13.7078 14.0769 13.6397 14.1138 13.5675C14.1599 13.4769 14.2018 13.3396 14.2252 13.0525C14.2494 12.7566 14.25 12.3724 14.25 11.8V7.2C14.25 6.62757 14.2494 6.24336 14.2252 5.94748C14.2018 5.66036 14.1599 5.52307 14.1138 5.43251C13.9939 5.19731 13.8027 5.00608 13.5675 4.88624C13.4769 4.8401 13.3396 4.79822 13.0525 4.77476C12.7566 4.75058 12.3724 4.75 11.8 4.75H7.2C6.62757 4.75 6.24336 4.75058 5.94748 4.77476ZM7.2 14.25C6.95905 14.25 6.75144 14.2499 6.56974 14.248C7.3094 13.4782 8.34897 13 9.49948 13C10.65 13 11.6896 13.4783 12.4292 14.248C12.2478 14.2499 12.0405 14.25 11.8 14.25H7.2Z"
            fill="#303233" />
    </g>
    <defs>
        <clipPath id="clip0_3961_157">
            <rect width="16" height="16" fill="white" />
        </clipPath>
    </defs>
</svg>
