<svg width="24" height="24" viewBox="0 0 24 24" fill="none" xmlns="http://www.w3.org/2000/svg">
    <path
        d="M11.995 16.75C10.5408 16.7487 9.39093 16.1662 8.62142 15.6066C8.23481 15.3254 7.93597 15.0443 7.73199 14.8314C7.62969 14.7247 7.55036 14.6342 7.4949 14.5681C7.46742 14.5354 7.44573 14.5085 7.42994 14.4886L7.40992 14.463L7.40387 14.4551L7.40149 14.4519L7.40069 14.4509L7.39998 14.4499C7.15153 14.1186 7.2187 13.6485 7.55004 13.4C7.88037 13.1523 8.34853 13.2182 8.59765 13.5469L8.60478 13.556L8.60553 13.5569C8.6129 13.5662 8.62572 13.5822 8.64386 13.6038C8.6802 13.6471 8.73758 13.7128 8.81497 13.7936C8.97037 13.9557 9.20278 14.1746 9.50367 14.3935C10.1084 14.8333 10.9568 15.25 12 15.25C13.0433 15.25 13.8917 14.8333 14.4964 14.3935C14.7973 14.1746 15.0297 13.9557 15.1851 13.7936C15.2625 13.7128 15.3199 13.6471 15.3562 13.6038C15.3744 13.5822 15.3872 13.5662 15.3946 13.5569L15.3953 13.556L15.4025 13.5469C15.6516 13.2182 16.1197 13.1523 16.4501 13.4C16.7814 13.6485 16.8486 14.1186 16.6001 14.4499L16.5986 14.4519L16.5962 14.4551L16.5902 14.463L16.5702 14.4886C16.5544 14.5085 16.5327 14.5354 16.5052 14.5681C16.4497 14.6342 16.3704 14.7247 16.2681 14.8314C16.0641 15.0443 15.7653 15.3254 15.3787 15.6066C14.6092 16.1662 13.4493 16.7487 11.995 16.75Z"
        fill="#303233" />
    <path
        d="M14.9917 7.75C14.3059 7.75 13.75 8.30964 13.75 9C13.75 9.69036 14.3059 10.25 14.9917 10.25H15.0083C15.6941 10.25 16.25 9.69036 16.25 9C16.25 8.30964 15.6941 7.75 15.0083 7.75H14.9917Z"
        fill="#303233" />
    <path fill-rule="evenodd" clip-rule="evenodd"
        d="M1.25 12C1.25 6.06294 6.06294 1.25 12 1.25C17.9371 1.25 22.75 6.06294 22.75 12C22.75 17.9371 17.9371 22.75 12 22.75C6.06294 22.75 1.25 17.9371 1.25 12ZM12 2.75C6.89137 2.75 2.75 6.89137 2.75 12C2.75 17.1086 6.89137 21.25 12 21.25C17.1086 21.25 21.25 17.1086 21.25 12C21.25 6.89137 17.1086 2.75 12 2.75Z"
        fill="#303233" />
    <path fill-rule="evenodd" clip-rule="evenodd"
        d="M7.25 9C7.25 8.58579 7.58579 8.25 8 8.25H10C10.4142 8.25 10.75 8.58579 10.75 9C10.75 9.41421 10.4142 9.75 10 9.75H8C7.58579 9.75 7.25 9.41421 7.25 9Z"
        fill="#303233" />
</svg>
