<svg width="16" height="16" viewBox="0 0 16 16" fill="none" xmlns="http://www.w3.org/2000/svg">
    <path
        d="M7.46967 6.96967C7.76256 6.67678 8.23744 6.67678 8.53033 6.96967L10.5303 8.96967C10.8232 9.26256 10.8232 9.73744 10.5303 10.0303C10.2374 10.3232 9.76256 10.3232 9.46967 10.0303L8.75 9.31066V11.5C8.75 11.9142 8.41421 12.25 8 12.25C7.58579 12.25 7.25 11.9142 7.25 11.5V9.31066L6.53033 10.0303C6.23744 10.3232 5.76256 10.3232 5.46967 10.0303C5.17678 9.73744 5.17678 9.26256 5.46967 8.96967L7.46967 6.96967Z"
        fill="#303233" />
    <path fill-rule="evenodd" clip-rule="evenodd"
        d="M2.75 1.75C1.64543 1.75 0.75 2.64543 0.75 3.75C0.75 4.68192 1.38739 5.46497 2.25 5.68699L2.25 10.9103C2.24999 11.4306 2.24998 11.8659 2.27906 12.2218C2.30942 12.5934 2.37516 12.9439 2.54428 13.2758C2.80314 13.7838 3.21619 14.1969 3.72423 14.4557C4.05614 14.6248 4.40662 14.6906 4.77817 14.7209C5.13408 14.75 5.56945 14.75 6.08972 14.75H9.91028C10.4305 14.75 10.8659 14.75 11.2218 14.7209C11.5934 14.6906 11.9439 14.6248 12.2758 14.4557C12.7838 14.1969 13.1969 13.7838 13.4557 13.2758C13.6248 12.9439 13.6906 12.5934 13.7209 12.2218C13.75 11.8659 13.75 11.4305 13.75 10.9103V5.68699C14.6126 5.46497 15.25 4.68192 15.25 3.75C15.25 2.64543 14.3546 1.75 13.25 1.75H2.75ZM12.25 5.75H3.75V10.88C3.75 11.4384 3.75058 11.8121 3.77408 12.0997C3.79685 12.3785 3.83737 12.5096 3.88079 12.5948C3.99584 12.8206 4.17942 13.0042 4.40521 13.1192C4.49043 13.1626 4.62153 13.2031 4.90032 13.2259C5.18786 13.2494 5.56157 13.25 6.12 13.25H9.88C10.4384 13.25 10.8121 13.2494 11.0997 13.2259C11.3785 13.2031 11.5096 13.1626 11.5948 13.1192C11.8206 13.0042 12.0042 12.8206 12.1192 12.5948C12.1626 12.5096 12.2031 12.3785 12.2259 12.0997C12.2494 11.8121 12.25 11.4384 12.25 10.88V5.75ZM2.25 3.75C2.25 3.47386 2.47386 3.25 2.75 3.25H13.25C13.5261 3.25 13.75 3.47386 13.75 3.75C13.75 4.02614 13.5261 4.25 13.25 4.25H2.75C2.47386 4.25 2.25 4.02614 2.25 3.75Z"
        fill="#303233" />
</svg>
