<svg width="24" height="24" viewBox="0 0 24 24" fill="none" xmlns="http://www.w3.org/2000/svg">
    <path fill-rule="evenodd" clip-rule="evenodd"
        d="M8.7679 1.25H15.2321C16.0449 1.24999 16.7006 1.24999 17.2315 1.29336C17.7781 1.33803 18.2582 1.43239 18.7025 1.65873C19.4081 2.01825 19.9818 2.59193 20.3413 3.29754C20.5676 3.74175 20.662 4.2219 20.7066 4.76853C20.75 5.29944 20.75 5.95505 20.75 6.76788V17.2321C20.75 18.045 20.75 18.7006 20.7066 19.2315C20.662 19.7781 20.5676 20.2582 20.3413 20.7025C19.9818 21.4081 19.4081 21.9817 18.7025 22.3413C18.2582 22.5676 17.7781 22.662 17.2315 22.7066C16.7006 22.75 16.045 22.75 15.2321 22.75H8.76788C7.95505 22.75 7.29944 22.75 6.76853 22.7066C6.2219 22.662 5.74175 22.5676 5.29754 22.3413C4.59193 21.9817 4.01825 21.4081 3.65873 20.7025C3.43239 20.2582 3.33803 19.7781 3.29336 19.2315C3.24999 18.7006 3.24999 18.045 3.25 17.2321V6.7679C3.24999 5.95506 3.24999 5.29944 3.29336 4.76853C3.33803 4.2219 3.43239 3.74175 3.65873 3.29754C4.01825 2.59193 4.59193 2.01825 5.29754 1.65873C5.74175 1.43239 6.2219 1.33803 6.76853 1.29336C7.29944 1.24999 7.95506 1.24999 8.7679 1.25ZM12 8.25C12.4142 8.25 12.75 8.58579 12.75 9V11.25H15C15.4142 11.25 15.75 11.5858 15.75 12C15.75 12.4142 15.4142 12.75 15 12.75H12.75V15C12.75 15.4142 12.4142 15.75 12 15.75C11.5858 15.75 11.25 15.4142 11.25 15V12.75H9C8.58579 12.75 8.25 12.4142 8.25 12C8.25 11.5858 8.58579 11.25 9 11.25H11.25V9C11.25 8.58579 11.5858 8.25 12 8.25Z"
        fill="#303233" />
</svg>
