<svg width="24" height="24" viewBox="0 0 24 24" fill="none" xmlns="http://www.w3.org/2000/svg">
    <path
        d="M9.75049 12C9.75049 10.7574 10.7578 9.75 12.0005 9.75C13.2431 9.75 14.2505 10.7574 14.2505 12C14.2505 13.2426 13.2431 14.25 12.0005 14.25C10.7578 14.25 9.75049 13.2426 9.75049 12Z"
        fill="#303233" />
    <path fill-rule="evenodd" clip-rule="evenodd"
        d="M12.0004 4.25C9.21602 4.25 6.93786 5.48009 5.23734 6.89936C3.53859 8.31717 2.37123 9.95967 1.786 10.8863L1.76406 10.921C1.64538 11.1082 1.51398 11.3154 1.44668 11.609C1.39277 11.8442 1.39277 12.1558 1.44668 12.391C1.51398 12.6846 1.64538 12.8918 1.76406 13.079L1.786 13.1137C2.37123 14.0403 3.53859 15.6828 5.23734 17.1006C6.93786 18.5199 9.21602 19.75 12.0004 19.75C14.7848 19.75 17.0629 18.5199 18.7635 17.1006C20.4622 15.6828 21.6296 14.0403 22.2148 13.1137L22.2367 13.079C22.3554 12.8918 22.4868 12.6846 22.5541 12.391C22.608 12.1558 22.608 11.8442 22.5541 11.609C22.4868 11.3154 22.3554 11.1082 22.2367 10.921L22.2148 10.8863C21.6296 9.95967 20.4622 8.31717 18.7635 6.89936C17.0629 5.48009 14.7848 4.25 12.0004 4.25ZM12.0005 8.25C9.92942 8.25 8.25049 9.92893 8.25049 12C8.25049 14.0711 9.92942 15.75 12.0005 15.75C14.0716 15.75 15.7505 14.0711 15.7505 12C15.7505 9.92893 14.0716 8.25 12.0005 8.25Z"
        fill="#303233" />
</svg>
