<svg width="24" height="24" viewBox="0 0 24 24" fill="none" xmlns="http://www.w3.org/2000/svg">
    <path fill-rule="evenodd" clip-rule="evenodd"
        d="M8 2C8.55228 2 9 2.44772 9 3V3.2413C9.00001 4.04627 9.00002 4.71063 8.95581 5.25183C8.90988 5.81392 8.81132 6.33063 8.56403 6.81596C8.18053 7.56861 7.56861 8.18053 6.81596 8.56403C6.33063 8.81132 5.81392 8.90988 5.25183 8.95581C4.71063 9.00002 4.04627 9.00001 3.2413 9H3C2.44772 9 2 8.55228 2 8C2 7.44772 2.44772 7 3 7H3.2C4.05658 7 4.63887 6.99922 5.08896 6.96245C5.52738 6.92663 5.75158 6.8617 5.90798 6.78201C6.28431 6.59027 6.59027 6.28431 6.78201 5.90798C6.8617 5.75158 6.92663 5.52738 6.96245 5.08896C6.99922 4.63887 7 4.05658 7 3.2V3C7 2.44772 7.44772 2 8 2ZM16 2C16.5523 2 17 2.44772 17 3V3.2C17 4.05658 17.0008 4.63887 17.0376 5.08896C17.0734 5.52738 17.1383 5.75158 17.218 5.90798C17.4097 6.2843 17.7157 6.59027 18.092 6.78201C18.2484 6.8617 18.4726 6.92663 18.911 6.96245C19.3611 6.99922 19.9434 7 20.8 7H21C21.5523 7 22 7.44772 22 8C22 8.55228 21.5523 9 21 9H20.7587C19.9537 9.00001 19.2894 9.00002 18.7482 8.95581C18.1861 8.90988 17.6694 8.81132 17.184 8.56403C16.4314 8.18053 15.8195 7.56861 15.436 6.81596C15.1887 6.33063 15.0901 5.81392 15.0442 5.25183C15 4.71063 15 4.04626 15 3.24128V3C15 2.44772 15.4477 2 16 2ZM2 16C2 15.4477 2.44772 15 3 15H3.24128C4.04626 15 4.71063 15 5.25183 15.0442C5.81392 15.0901 6.33063 15.1887 6.81596 15.436C7.56861 15.8195 8.18053 16.4314 8.56403 17.184C8.81132 17.6694 8.90988 18.1861 8.95581 18.7482C9.00002 19.2894 9.00001 19.9537 9 20.7587V21C9 21.5523 8.55228 22 8 22C7.44772 22 7 21.5523 7 21V20.8C7 19.9434 6.99922 19.3611 6.96245 18.911C6.92663 18.4726 6.8617 18.2484 6.78201 18.092C6.59027 17.7157 6.28431 17.4097 5.90798 17.218C5.75158 17.1383 5.52738 17.0734 5.08896 17.0376C4.63887 17.0008 4.05658 17 3.2 17H3C2.44772 17 2 16.5523 2 16ZM20.7587 15H21C21.5523 15 22 15.4477 22 16C22 16.5523 21.5523 17 21 17H20.8C19.9434 17 19.3611 17.0008 18.911 17.0376C18.4726 17.0734 18.2484 17.1383 18.092 17.218C17.7157 17.4097 17.4097 17.7157 17.218 18.092C17.1383 18.2484 17.0734 18.4726 17.0376 18.911C17.0008 19.3611 17 19.9434 17 20.8V21C17 21.5523 16.5523 22 16 22C15.4477 22 15 21.5523 15 21V20.7587C15 19.9537 15 19.2894 15.0442 18.7482C15.0901 18.1861 15.1887 17.6694 15.436 17.184C15.8195 16.4314 16.4314 15.8195 17.184 15.436C17.6694 15.1887 18.1861 15.0901 18.7482 15.0442C19.2894 15 19.9537 15 20.7587 15Z"
        fill="#303233" />
</svg>
