<svg width="16" height="16" viewBox="0 0 16 16" fill="none" xmlns="http://www.w3.org/2000/svg">
    <g clip-path="url(#clip0_8974_55)">
        <path
            d="M13.5005 7.5C13.7764 7.50024 14.0005 7.72401 14.0005 8C14.0007 9.53591 13.4145 11.0723 12.2426 12.2441C11.646 12.8408 11.1689 13.2834 10.7895 13.6123H12.8891C13.1652 13.6124 13.3891 13.8362 13.3891 14.1123C13.3891 14.3883 13.1651 14.6122 12.8891 14.6123H9.22214C9.08956 14.6123 8.96237 14.5596 8.86862 14.4658C8.77488 14.3721 8.72216 14.2449 8.72214 14.1123V10.4453C8.72228 10.1693 8.94612 9.94536 9.22214 9.94531C9.4982 9.94531 9.722 10.1693 9.72214 10.4453V13.2002C10.1099 12.8926 10.6911 12.3816 11.5356 11.5371C12.5122 10.5605 13.0007 9.27999 13.0005 8C13.0005 7.72386 13.2243 7.5 13.5005 7.5Z"
            fill="#303233" />
        <path
            d="M6.7778 1.38965C7.05378 1.38966 7.27754 1.61374 7.2778 1.88965V5.55664C7.2778 5.83278 7.05394 6.05663 6.7778 6.05664C6.50166 6.05664 6.2778 5.83278 6.2778 5.55664V2.80176C5.89002 3.10941 5.30892 3.62122 4.46433 4.46582C2.51183 6.41845 2.51175 9.58453 4.46433 11.5371C5.15661 12.2294 6.00023 12.6754 6.88815 12.877C7.15732 12.938 7.32595 13.2054 7.26511 13.4746C7.20404 13.7438 6.93662 13.9134 6.66745 13.8525C5.60086 13.6105 4.58692 13.0737 3.7573 12.2441C1.41419 9.90104 1.41428 6.10195 3.7573 3.75879C4.35405 3.16204 4.83097 2.71864 5.21042 2.38965H3.11081C2.8348 2.38948 2.6108 2.16569 2.61081 1.88965C2.61101 1.61377 2.83493 1.38981 3.11081 1.38965H6.7778Z"
            fill="#303233" />
        <path fill-rule="evenodd" clip-rule="evenodd"
            d="M13.0005 0C14.6571 0.00024479 16.0005 1.3433 16.0005 3C16.0005 4.6567 14.6571 5.99976 13.0005 6C11.3436 6 10.0005 4.65685 10.0005 3C10.0005 1.34315 11.3436 0 13.0005 0ZM13.0005 4.125C12.7934 4.125 12.6255 4.29289 12.6255 4.5C12.6255 4.70711 12.7934 4.87598 13.0005 4.87598C13.2074 4.87573 13.3755 4.70793 13.3755 4.50098C13.3755 4.29402 13.2074 4.12524 13.0005 4.125ZM13.0005 1.125C12.7934 1.125 12.6255 1.29289 12.6255 1.5V3C12.6255 3.20711 12.7934 3.375 13.0005 3.375C13.2074 3.37476 13.3755 3.20696 13.3755 3V1.5C13.3755 1.29304 13.2074 1.12524 13.0005 1.125Z"
            fill="#303233" />
    </g>
    <defs>
        <clipPath id="clip0_8974_55">
            <rect width="16" height="16" fill="white" />
        </clipPath>
    </defs>
</svg>
