<svg width="16" height="16" viewBox="0 0 16 16" fill="none" xmlns="http://www.w3.org/2000/svg">
    <path fill-rule="evenodd" clip-rule="evenodd"
        d="M8 1C4.13401 1 1 4.13401 1 8C1 11.866 4.13401 15 8 15C11.866 15 15 11.866 15 8C15 4.13401 11.866 1 8 1ZM5.99528 5.25C5.58381 5.25 5.25024 5.58579 5.25024 6C5.25024 6.41421 5.58381 6.75 5.99528 6.75H6.00521C6.41668 6.75 6.75024 6.41421 6.75024 6C6.75024 5.58579 6.41668 5.25 6.00521 5.25H5.99528ZM9.99528 5.25C9.58381 5.25 9.25024 5.58579 9.25024 6C9.25024 6.41421 9.58381 6.75 9.99528 6.75H10.0052C10.4167 6.75 10.7502 6.41421 10.7502 6C10.7502 5.58579 10.4167 5.25 10.0052 5.25H9.99528ZM3.50024 9C3.50024 8.72386 3.7241 8.5 4.00024 8.5H12.0002C12.2764 8.5 12.5002 8.72386 12.5002 9C12.5002 9.91754 11.9401 10.798 11.144 11.4279C10.3366 12.0668 9.22806 12.5 8.00024 12.5C6.77242 12.5 5.6639 12.0668 4.8565 11.4279C4.0604 10.798 3.50024 9.91754 3.50024 9Z"
        fill="#303233" />
</svg>
