<svg width="24" height="24" viewBox="0 0 24 24" fill="none" xmlns="http://www.w3.org/2000/svg">
    <path
        d="M4.00003 1C3.44775 0.999982 3.00002 1.44768 3 1.99997C2.99998 2.55225 3.44768 2.99998 3.99997 3L6.9537 3.0001C6.39518 3.49986 5.72698 4.13108 4.92893 4.92913C1.02369 8.83437 1.02369 15.166 4.92893 19.0713C6.31149 20.4538 8.00086 21.3482 9.77873 21.7516C10.3173 21.8738 10.853 21.5362 10.9752 20.9976C11.0974 20.459 10.7599 19.9234 10.2213 19.8012C8.80057 19.4788 7.45114 18.765 6.34315 17.6571C3.21895 14.5329 3.21895 9.46754 6.34315 6.34334C7.52152 5.16497 8.38306 4.38647 9 3.87449V8C9 8.55228 9.44772 9 10 9C10.5523 9 11 8.55228 11 8V2.00019C11 1.44792 10.5523 1.00021 10 1.00019L4.00003 1Z"
        fill="#303233" />
    <path
        d="M20 12C20 14.0474 19.219 16.0948 17.6569 17.6569C16.4785 18.8352 15.6169 19.6137 15 20.1257L15 16C15 15.4477 14.5523 15 14 15C13.4477 15 13 15.4477 13 16L13 22C13 22.2652 13.1054 22.5196 13.2929 22.7071C13.4804 22.8946 13.7348 23 14 23H20C20.5523 23 21 22.5523 21 22C21 21.4477 20.5523 21 20 21H17.0464C17.6049 20.5003 18.2731 19.8691 19.0711 19.0711C21.0237 17.1184 22 14.5592 22 12C22 11.4477 21.5523 11 21 11C20.4477 11 20 11.4477 20 12Z"
        fill="#303233" />
    <path d="M13 3.24561V3.20386C12.9997 3.21782 12.9997 3.23173 13 3.24561Z" fill="#303233" />
    <path
        d="M19 1C19.5523 1 20 1.44772 20 2V4H22C22.5523 4 23 4.44772 23 5C23 5.55228 22.5523 6 22 6H20V8C20 8.55228 19.5523 9 19 9C18.4477 9 18 8.55228 18 8V6H16C15.4477 6 15 5.55228 15 5C15 4.44772 15.4477 4 16 4H18V2C18 1.44772 18.4477 1 19 1Z"
        fill="#303233" />
</svg>
