<svg width="24" height="24" viewBox="0 0 24 24" fill="none" xmlns="http://www.w3.org/2000/svg">
    <path
        d="M12 3C9.23858 3 7 5.23858 7 8C7 10.7614 9.23858 13 12 13C14.7614 13 17 10.7614 17 8C17 5.23858 14.7614 3 12 3Z"
        fill="#303233" />
    <path
        d="M11.9999 14C7.80492 14 4.28257 16.8692 3.28353 20.7507C3.20647 21.0501 3.27222 21.3683 3.46163 21.6127C3.65104 21.857 3.94281 22 4.25196 22H19.7479C20.057 22 20.3488 21.857 20.5382 21.6127C20.7276 21.3683 20.7934 21.0501 20.7163 20.7507C19.7173 16.8692 16.1949 14 11.9999 14Z"
        fill="#303233" />
</svg>
