<svg width="16" height="16" viewBox="0 0 16 16" fill="none" xmlns="http://www.w3.org/2000/svg">
    <g clip-path="url(#clip0_3062_188)">
        <path fill-rule="evenodd" clip-rule="evenodd"
            d="M8 0.75C3.99594 0.75 0.75 3.99594 0.75 8C0.75 12.0041 3.99594 15.25 8 15.25C12.0041 15.25 15.25 12.0041 15.25 8C15.25 3.99594 12.0041 0.75 8 0.75ZM6.80001 5.25001L6.77979 5.25H6.77977C6.65762 5.24997 6.52517 5.24994 6.41053 5.25931C6.28078 5.26991 6.10935 5.29615 5.93252 5.38625C5.69732 5.50609 5.50609 5.69732 5.38625 5.93252C5.29615 6.10935 5.26991 6.28078 5.25931 6.41053C5.24994 6.52517 5.24997 6.65762 5.25 6.77977V6.77979L5.25001 6.80001V9.20001L5.25 9.22022V9.22024C5.24997 9.3424 5.24994 9.47484 5.25931 9.58948C5.26991 9.71924 5.29615 9.89067 5.38625 10.0675C5.50609 10.3027 5.69732 10.4939 5.93252 10.6138C6.10935 10.7039 6.28078 10.7301 6.41053 10.7407C6.52518 10.7501 6.65763 10.75 6.77979 10.75L6.80001 10.75H9.20001L9.22022 10.75C9.34238 10.75 9.47483 10.7501 9.58948 10.7407C9.71924 10.7301 9.89067 10.7039 10.0675 10.6138C10.3027 10.4939 10.4939 10.3027 10.6138 10.0675C10.7039 9.89067 10.7301 9.71924 10.7407 9.58948C10.7501 9.47483 10.75 9.34238 10.75 9.22022L10.75 9.20001V6.80001L10.75 6.77979C10.75 6.65763 10.7501 6.52518 10.7407 6.41053C10.7301 6.28078 10.7039 6.10935 10.6138 5.93252C10.4939 5.69732 10.3027 5.50609 10.0675 5.38625C9.89067 5.29615 9.71924 5.26991 9.58948 5.25931C9.47484 5.24994 9.3424 5.24997 9.22024 5.25H9.22022L9.20001 5.25001H6.80001Z"
            fill="#303233" />
    </g>
    <defs>
        <clipPath id="clip0_3062_188">
            <rect width="16" height="16" fill="white" />
        </clipPath>
    </defs>
</svg>
