<svg width="24" height="24" viewBox="0 0 24 24" fill="none" xmlns="http://www.w3.org/2000/svg">
    <path fill-rule="evenodd" clip-rule="evenodd"
        d="M5.99951 2.25C3.92844 2.25 2.24951 3.92893 2.24951 6C2.24951 8.07107 3.92844 9.75 5.99951 9.75C8.07058 9.75 9.74951 8.07107 9.74951 6C9.74951 3.92893 8.07058 2.25 5.99951 2.25Z"
        fill="#303233" />
    <path fill-rule="evenodd" clip-rule="evenodd"
        d="M12.5605 8.76072C13.2564 7.75554 14.7422 7.75554 15.4381 8.76072L22.5296 19.0039C23.3331 20.1646 22.5024 21.75 21.0907 21.75L2.86818 21.75C1.47046 21.75 0.636775 20.1923 1.41209 19.0293L5.54357 12.8321C6.23626 11.793 7.76306 11.793 8.45575 12.8321L9.08666 13.7784L12.5605 8.76072Z"
        fill="#303233" />
</svg>
