<svg width="16" height="16" viewBox="0 0 16 16" fill="none" xmlns="http://www.w3.org/2000/svg">
    <g clip-path="url(#clip0_53_7170)">
        <path fill-rule="evenodd" clip-rule="evenodd"
            d="M1.532 4.723L1.527 4.732C1.03 5.714 0.75 6.824 0.75 8C0.75 12.004 3.996 15.25 8 15.25C12.004 15.25 15.25 12.004 15.25 8C15.25 4.584 12.887 1.719 9.707 0.953003C9.692 0.949003 9.677 0.945001 9.662 0.942001C9.128 0.816001 8.572 0.75 8 0.75C5.176 0.75 2.728 2.365 1.532 4.723ZM10.19 2.682L10.069 4.487C10.053 4.725 10.024 4.842 9.982 4.944C9.922 5.089 9.832 5.218 9.717 5.324L9.715 5.325C9.633 5.4 9.534 5.467 9.318 5.562L6.858 6.657L6.304 7.395C6.09 7.679 5.953 7.79 5.816 7.86C5.814 7.862 5.811 7.863 5.809 7.864C5.608 7.963 5.382 7.998 5.16 7.962C5.008 7.938 4.842 7.872 4.552 7.666L2.531 6.222C2.348 6.782 2.25 7.379 2.25 8C2.25 11.176 4.824 13.75 8 13.75C11.176 13.75 13.75 11.176 13.75 8C13.75 5.599 12.279 3.543 10.19 2.682ZM9.271 8.286L8.665 8.081C8.359 7.979 8.198 7.963 8.056 7.978C8.052 7.978 8.049 7.978 8.046 7.979C7.842 8.002 7.65 8.081 7.491 8.209C7.489 8.211 7.488 8.212 7.486 8.213C7.375 8.304 7.272 8.428 7.128 8.718L6.776 9.422C6.701 9.571 6.673 9.651 6.654 9.73L6.653 9.735C6.628 9.846 6.62 9.957 6.63 10.068C6.637 10.149 6.653 10.233 6.707 10.392L7.17 11.781C7.257 12.043 7.325 12.163 7.406 12.261C7.409 12.264 7.411 12.267 7.414 12.27C7.528 12.405 7.676 12.511 7.842 12.575C7.96 12.622 8.098 12.65 8.375 12.65H9.672C9.884 12.65 9.99 12.633 10.086 12.604C10.221 12.564 10.348 12.496 10.457 12.407C10.459 12.405 10.46 12.404 10.462 12.403C10.54 12.338 10.611 12.26 10.729 12.083L11.527 10.886C11.761 10.536 11.825 10.333 11.836 10.162C11.852 9.906 11.776 9.654 11.624 9.451C11.521 9.314 11.357 9.179 10.969 9.014C10.971 9.015 9.271 8.286 9.271 8.286ZM8.38 9.568L8.16 10.007L8.541 11.149H9.548L10.126 10.284L8.708 9.677L8.38 9.568ZM8.712 2.294C8.479 2.265 8.241 2.25 8 2.25C5.988 2.25 4.217 3.284 3.19 4.85L5.24 6.314L5.694 5.708L5.84 5.536C5.889 5.49 5.944 5.446 6.002 5.409L6.187 5.313L8.582 4.248L8.712 2.294Z"
            fill="#303233" />
    </g>
    <defs>
        <clipPath id="clip0_53_7170">
            <rect width="16" height="16" fill="white" />
        </clipPath>
    </defs>
</svg>
