<svg width="16" height="16" viewBox="0 0 16 16" fill="none" xmlns="http://www.w3.org/2000/svg">
    <path
        d="M8 1.5C8.27614 1.5 8.5 1.72386 8.5 2V8.79272L10.9796 6.3131C11.1749 6.11784 11.4915 6.11784 11.6867 6.3131C11.882 6.50837 11.882 6.82495 11.6867 7.02021L8.36131 10.3456C8.27029 10.4408 8.14206 10.5 8 10.5C7.90626 10.5 7.81855 10.4742 7.74358 10.4293C7.70843 10.4084 7.67571 10.383 7.64628 10.3535L4.31295 7.02021C4.11769 6.82495 4.11769 6.50837 4.31295 6.3131C4.50821 6.11784 4.8248 6.11784 5.02006 6.3131L7.5 8.79305V2C7.5 1.72386 7.72386 1.5 8 1.5Z"
        fill="#303233" />
    <path
        d="M14 12C14 11.7239 13.7761 11.5 13.5 11.5C13.2239 11.5 13 11.7239 13 12C13 12.5523 12.5523 13 12 13H4C3.44772 13 3 12.5523 3 12C3 11.7239 2.77614 11.5 2.5 11.5C2.22386 11.5 2 11.7239 2 12C2 13.1046 2.89543 14 4 14H12C13.1046 14 14 13.1046 14 12Z"
        fill="#303233" />
</svg>
