<svg width="16" height="16" viewBox="0 0 16 16" fill="none" xmlns="http://www.w3.org/2000/svg">
    <path
        d="M8 1.25C8.41421 1.25 8.75 1.58579 8.75 2V8.18918L10.8028 6.13634C11.0957 5.84345 11.5706 5.84345 11.8635 6.13634C12.1564 6.42923 12.1564 6.90411 11.8635 7.197L8.53017 10.5303C8.23727 10.8232 7.7624 10.8232 7.46951 10.5303L4.13617 7.197C3.84328 6.90411 3.84328 6.42923 4.13617 6.13634C4.42907 5.84345 4.90394 5.84345 5.19683 6.13634L7.25 8.18951V2C7.25 1.58579 7.58579 1.25 8 1.25Z"
        fill="#303233" />
    <path
        d="M2.75 10C2.75 9.58579 2.41421 9.25 2 9.25C1.58579 9.25 1.25 9.58579 1.25 10V10.8304C1.24999 11.3646 1.24998 11.8104 1.27974 12.1747C1.31078 12.5546 1.37789 12.9112 1.54973 13.2485C1.81338 13.7659 2.23408 14.1866 2.75153 14.4503C3.08879 14.6221 3.44545 14.6892 3.82533 14.7203C4.18957 14.75 4.63542 14.75 5.16957 14.75H10.8304C11.3646 14.75 11.8104 14.75 12.1747 14.7203C12.5546 14.6892 12.9112 14.6221 13.2485 14.4503C13.7659 14.1866 14.1866 13.7659 14.4503 13.2485C14.6221 12.9112 14.6892 12.5546 14.7203 12.1747C14.75 11.8105 14.75 11.3646 14.75 10.8305V10C14.75 9.58579 14.4142 9.25 14 9.25C13.5858 9.25 13.25 9.58579 13.25 10V10.8C13.25 11.3724 13.2494 11.7566 13.2252 12.0525C13.2018 12.3396 13.1599 12.4769 13.1138 12.5675C12.9939 12.8027 12.8027 12.9939 12.5675 13.1138C12.4769 13.1599 12.3396 13.2018 12.0525 13.2252C11.7566 13.2494 11.3724 13.25 10.8 13.25H5.2C4.62757 13.25 4.24336 13.2494 3.94748 13.2252C3.66036 13.2018 3.52307 13.1599 3.43251 13.1138C3.19731 12.9939 3.00608 12.8027 2.88624 12.5675C2.8401 12.4769 2.79822 12.3396 2.77476 12.0525C2.75058 11.7566 2.75 11.3724 2.75 10.8V10Z"
        fill="#303233" />
</svg>
