<svg width="24" height="24" viewBox="0 0 24 24" fill="none" xmlns="http://www.w3.org/2000/svg">
    <path fill-rule="evenodd" clip-rule="evenodd"
        d="M6 1C4.34315 1 3 2.34315 3 4V20C3 21.6569 4.34315 23 6 23H18C19.6569 23 21 21.6569 21 20V6.32843C21 5.79799 20.7893 5.28929 20.4142 4.91421L17.0858 1.58579C16.7107 1.21071 16.202 1 15.6716 1H6ZM16.4268 3.42678C16.2693 3.26929 16 3.38083 16 3.60356V5.75001C16 5.88808 16.1119 6.00001 16.25 6.00001H18.3964C18.6192 6.00001 18.7307 5.73072 18.5732 5.57323L16.4268 3.42678Z"
        fill="#303233" />
</svg>
