<svg width="16" height="16" viewBox="0 0 16 16" fill="none" xmlns="http://www.w3.org/2000/svg">
    <path fill-rule="evenodd" clip-rule="evenodd"
        d="M1 1.5C1 1.22386 1.22386 1 1.5 1H14.5C14.7761 1 15 1.22386 15 1.5V11.5C15 13.433 13.433 15 11.5 15H4.5C2.567 15 1 13.433 1 11.5V1.5ZM2 2V11.5C2 12.8807 3.11929 14 4.5 14H11.5C12.8807 14 14 12.8807 14 11.5V2H2Z"
        fill="#303233" />
    <path
        d="M8 8C8.85517 8 9.54845 7.32843 9.54845 6.5C9.54845 5.67157 8.85517 5 8 5C7.14483 5 6.45156 5.67157 6.45156 6.5C6.45156 7.32843 7.14483 8 8 8Z"
        fill="#303233" />
    <path
        d="M10.6346 11C10.8673 11 11.0493 10.8013 10.988 10.5837C10.6296 9.31077 9.42762 8.375 8 8.375C6.57239 8.375 5.37037 9.31077 5.01199 10.5837C4.95074 10.8013 5.13263 11 5.36545 11H10.6346Z"
        fill="#303233" />
</svg>
