<svg width="24" height="24" viewBox="0 0 24 24" fill="none" xmlns="http://www.w3.org/2000/svg">
    <path fill-rule="evenodd" clip-rule="evenodd"
        d="M4.03981 2.82082C4.05093 2.82582 4.06206 2.83083 4.07318 2.83584L20.8235 10.3735C21.0517 10.4761 21.2806 10.579 21.4591 10.6795C21.6249 10.7728 21.9451 10.9663 22.1275 11.3352C22.3347 11.7542 22.3347 12.2459 22.1275 12.6649C21.9451 13.0338 21.6249 13.2272 21.4591 13.3206C21.2806 13.421 21.0517 13.524 20.8236 13.6266L4.04553 21.1767C3.81136 21.2821 3.57809 21.3872 3.38141 21.4553C3.20112 21.5178 2.83742 21.6322 2.435 21.5199C1.98055 21.3931 1.61226 21.0598 1.44078 20.6203C1.28894 20.2311 1.36659 19.8578 1.41078 19.6722C1.45899 19.4697 1.54025 19.2271 1.62182 18.9835L3.94721 12.0373L1.62617 5.04432C1.62232 5.03274 1.61848 5.02117 1.61463 5.00959C1.53395 4.76664 1.45351 4.52442 1.40593 4.32219C1.36225 4.13652 1.28586 3.76389 1.43813 3.37566C1.6102 2.93693 1.97845 2.60457 2.43247 2.47824C2.83423 2.36645 3.1971 2.48052 3.37733 2.54295C3.57365 2.61095 3.80638 2.71573 4.03981 2.82082ZM3.66783 4.8466L5.71022 11H10.5013C11.0536 11 11.5013 11.4477 11.5013 12C11.5013 12.5523 11.0536 13 10.5013 13H5.73401L3.67511 19.1502L19.5644 12L3.66783 4.8466Z"
        fill="#303233" />
</svg>
