<svg width="16" height="16" viewBox="0 0 16 16" fill="none" xmlns="http://www.w3.org/2000/svg">
    <g clip-path="url(#clip0_53_8699)">
        <path
            d="M10.7909 1.51505C11.811 0.494982 13.4649 0.494984 14.4849 1.51505C15.505 2.53512 15.505 4.18899 14.4849 5.20906L11.6637 8.03032C11.3708 8.32321 10.8959 8.32321 10.603 8.03032C10.3101 7.73742 10.3101 7.26255 10.603 6.96966L13.4243 4.14839C13.8586 3.71411 13.8586 3.01 13.4243 2.57571C12.99 2.14143 12.2859 2.14143 11.8516 2.57571L9.03033 5.39698C8.73743 5.68987 8.26256 5.68987 7.96967 5.39697C7.67678 5.10408 7.67678 4.62921 7.96967 4.33631L10.7909 1.51505Z"
            fill="#303233" />
        <path fill-rule="evenodd" clip-rule="evenodd"
            d="M5.62835 6.68852L1.95312 10.3637C1.86083 10.456 1.79422 10.5708 1.75988 10.6967L0.776445 14.3027C0.705628 14.5623 0.779375 14.84 0.969687 15.0303C1.16 15.2207 1.4377 15.2944 1.69736 15.2236L5.30329 14.2401C5.42921 14.2058 5.54399 14.1392 5.63628 14.0469L9.31151 10.3717L13.4702 14.5303C13.7631 14.8232 14.2379 14.8232 14.5308 14.5303C14.8237 14.2374 14.8237 13.7626 14.5308 13.4697L2.53082 1.46967C2.23793 1.17678 1.76305 1.17678 1.47016 1.46967C1.17726 1.76256 1.17726 2.23744 1.47016 2.53033L5.62835 6.68852ZM6.68901 7.74918L3.15462 11.2836L2.56893 13.4311L4.71646 12.8454L8.25085 9.31102L6.68901 7.74918Z"
            fill="#303233" />
    </g>
    <defs>
        <clipPath id="clip0_53_8699">
            <rect width="16" height="16" fill="white" />
        </clipPath>
    </defs>
</svg>
