<svg width="24" height="24" viewBox="0 0 24 24" fill="none" xmlns="http://www.w3.org/2000/svg">
    <path fill-rule="evenodd" clip-rule="evenodd"
        d="M4.00305 5.01529C4.00018 5.00584 4 5.00027 4 5.00027C4 5.00027 3.99998 4.99479 4.00305 4.98471C4.00645 4.97356 4.01483 4.95155 4.03507 4.91857C4.07752 4.84943 4.16408 4.74547 4.32624 4.61768C4.65642 4.35747 5.19616 4.0794 5.95227 3.82736C7.45402 3.32678 9.59229 3 12 3C12.3258 3 12.6472 3.00599 12.9632 3.01763C13.5151 3.03797 13.979 2.60704 13.9993 2.05513C14.0197 1.50322 13.5887 1.03932 13.0368 1.01899C12.6962 1.00644 12.3502 1 12 1C9.43715 1 7.07541 1.3448 5.31981 1.93C4.44724 2.22085 3.66896 2.58923 3.08829 3.04685C2.51889 3.49559 2 4.14805 2 5V19C2 19.8519 2.51889 20.5044 3.08829 20.9531C3.66896 21.4108 4.44724 21.7791 5.31981 22.07C7.07541 22.6552 9.43715 23 12 23C14.5629 23 16.9246 22.6552 18.6802 22.07C19.5528 21.7791 20.331 21.4108 20.9117 20.9531C21.4811 20.5044 22 19.8519 22 19V12C22 11.4477 21.5523 11 21 11C20.4477 11 20 11.4477 20 12C20 12 19.9999 12.0057 19.9969 12.0153C19.9935 12.0264 19.9852 12.0485 19.9649 12.0814C19.9225 12.1506 19.8359 12.2545 19.6738 12.3823C19.3436 12.6425 18.8038 12.9206 18.0477 13.1726C16.546 13.6732 14.4077 14 12 14C9.59229 14 7.45402 13.6732 5.95227 13.1726C5.19616 12.9206 4.65642 12.6425 4.32624 12.3823C4.16408 12.2545 4.07752 12.1506 4.03507 12.0814C4.01483 12.0485 4.00645 12.0264 4.00305 12.0153C4.00018 12.0058 4 12.0003 4 12.0003V7.5266C4.40123 7.73177 4.84666 7.91229 5.31981 8.07C7.07541 8.6552 9.43715 9 12 9C12.3502 9 12.6962 8.99356 13.0368 8.98101C13.5887 8.96068 14.0197 8.49678 13.9993 7.94487C13.979 7.39296 13.5151 6.96203 12.9632 6.98237C12.6472 6.99401 12.3258 7 12 7C9.59229 7 7.45402 6.67322 5.95227 6.17264C5.19616 5.9206 4.65642 5.64253 4.32624 5.38232C4.16408 5.25453 4.07752 5.15057 4.03507 5.08143C4.01483 5.04845 4.00645 5.02644 4.00305 5.01529ZM20 14.5266V19C20 19 20 19.0052 19.9969 19.0153C19.9935 19.0264 19.9852 19.0485 19.9649 19.0814C19.9225 19.1506 19.8359 19.2545 19.6738 19.3823C19.3436 19.6425 18.8038 19.9206 18.0477 20.1726C16.546 20.6732 14.4077 21 12 21C9.59229 21 7.45402 20.6732 5.95227 20.1726C5.19616 19.9206 4.65642 19.6425 4.32624 19.3823C4.16408 19.2545 4.07752 19.1506 4.03507 19.0814C4.01483 19.0485 4.00645 19.0264 4.00305 19.0153C4.00017 19.0058 4 19.0003 4 19.0003V14.5266C4.40123 14.7318 4.84666 14.9123 5.31981 15.07C7.07541 15.6552 9.43715 16 12 16C14.5629 16 16.9246 15.6552 18.6802 15.07C19.1533 14.9123 19.5988 14.7318 20 14.5266Z"
        fill="#303233" />
    <path
        d="M20 2C20 1.44772 19.5523 1 19 1C18.4477 1 18 1.44772 18 2V4H16C15.4477 4 15 4.44772 15 5C15 5.55228 15.4477 6 16 6H18V8C18 8.55228 18.4477 9 19 9C19.5523 9 20 8.55228 20 8V6H22C22.5523 6 23 5.55228 23 5C23 4.44772 22.5523 4 22 4H20V2Z"
        fill="#303233" />
</svg>
