<svg width="16" height="16" viewBox="0 0 16 16" fill="none" xmlns="http://www.w3.org/2000/svg">
    <g clip-path="url(#clip0_2529_90)">
        <path fill-rule="evenodd" clip-rule="evenodd"
            d="M0.646447 0.646447C0.841709 0.451184 1.15829 0.451184 1.35355 0.646447L7.75257 7.04546C7.82643 7.08881 7.8882 7.15057 7.93155 7.22444L15.3536 14.6464C15.5488 14.8417 15.5488 15.1583 15.3536 15.3536C15.1583 15.5488 14.8417 15.5488 14.6464 15.3536L8 8.70711V12.688C8 13.026 7.992 13.246 7.959 13.386C7.926 13.529 7.868 13.633 7.8 13.713C7.627 13.914 7.368 14.023 7.103 14.002C6.997 13.994 6.883 13.961 6.758 13.884C6.636 13.808 6.475 13.658 6.236 13.419L4.124 11.307C4.10137 11.2844 4.08279 11.2648 4.06665 11.2478C4.03143 11.2107 4.0078 11.1858 3.979 11.168L3.975 11.166C3.962 11.158 3.947 11.151 3.932 11.148C3.931 11.1475 3.93 11.1473 3.929 11.147C3.928 11.1468 3.927 11.1465 3.926 11.146C3.89355 11.1379 3.85972 11.1389 3.80969 11.1404C3.78572 11.1412 3.75803 11.142 3.725 11.142H2.567C2.072 11.142 1.828 11.112 1.639 11.016L1.637 11.015C1.417 10.903 1.239 10.725 1.127 10.505C1.031 10.316 1 10.071 1 9.576V6.37601C1 5.88001 1.03 5.63601 1.127 5.44701C1.239 5.22601 1.417 5.049 1.636 4.937C1.826 4.84 2.071 4.80901 2.567 4.80901H3.725C3.75757 4.80901 3.78504 4.80971 3.80896 4.81032C3.86069 4.81163 3.89581 4.81253 3.93 4.80501C3.946 4.80001 3.962 4.793 3.979 4.784C3.99708 4.77195 4.01349 4.75749 4.03207 4.73918L0.646447 1.35355C0.451184 1.15829 0.451184 0.841709 0.646447 0.646447ZM4.73704 5.44415C4.63913 5.53778 4.57366 5.59089 4.504 5.63501C4.50296 5.63553 4.50166 5.63631 4.50036 5.63709C4.49916 5.63781 4.49796 5.63853 4.497 5.63901C4.395 5.70101 4.284 5.747 4.167 5.776C4.165 5.777 4.163 5.777 4.16 5.778C4.056 5.802 3.946 5.80901 3.725 5.80901H2.567C2.42712 5.80901 2.31495 5.80901 2.223 5.813C2.20721 5.81383 2.19257 5.81398 2.17897 5.81411C2.1435 5.81445 2.11513 5.81472 2.092 5.82701C2.06 5.84301 2.034 5.868 2.018 5.899C2.00629 5.92389 2.00583 5.95253 2.00525 5.98884C2.00503 6.00214 2.0048 6.01646 2.004 6.032C2 6.124 2 6.23601 2 6.37601V9.576C2 9.716 2 9.827 2.004 9.92C2.00483 9.93579 2.00497 9.95035 2.0051 9.96383C2.00544 9.99903 2.00571 10.0269 2.018 10.05L2.019 10.052C2.034 10.083 2.059 10.108 2.09 10.124C2.11385 10.1363 2.14239 10.1366 2.1779 10.1369C2.19153 10.137 2.20619 10.1372 2.222 10.138C2.31496 10.142 2.42689 10.142 2.5668 10.142H3.725C3.947 10.142 4.059 10.149 4.164 10.175C4.283 10.203 4.396 10.251 4.501 10.315C4.592 10.371 4.676 10.444 4.833 10.601L6.943 12.712C6.962 12.73 6.981 12.749 6.999 12.767C7 12.741 7 12.714 7 12.688V7.70711L4.73704 5.44415Z"
            fill="#303233" />
        <path
            d="M6.99941 3.20581L6.8516 3.35356C6.65634 3.54882 6.33976 3.54882 6.14449 3.35356C5.94923 3.15829 5.94923 2.84171 6.14449 2.64645L6.24996 2.54098C6.38018 2.41074 6.50068 2.29022 6.60463 2.20319C6.69978 2.12353 6.87109 1.99065 7.10073 1.97257C7.36666 1.95165 7.62654 2.05929 7.79979 2.26213C7.94939 2.43729 7.97656 2.65239 7.98751 2.776C7.99948 2.91105 7.99947 3.08146 7.99945 3.26565L7.99945 4C7.99945 4.27614 7.77559 4.5 7.49945 4.5C7.22331 4.5 6.99945 4.27614 6.99945 4L6.99941 3.20581Z"
            fill="#303233" />
        <path
            d="M13.4664 3.20902C13.3057 2.98446 12.9934 2.9327 12.7688 3.0934C12.5442 3.25411 12.4925 3.56643 12.6532 3.79099C13.5008 4.97536 14 6.42822 14 8.00001C14 8.84308 13.8564 9.65132 13.5929 10.402C13.5015 10.6626 13.6385 10.9479 13.8991 11.0394C14.1597 11.1309 14.445 10.9938 14.5365 10.7332C14.8369 9.87751 15 8.95736 15 8.00001C15 6.21304 14.4316 4.55782 13.4664 3.20902Z"
            fill="#303233" />
        <path
            d="M10.9108 5.14353C10.7534 4.91666 10.4419 4.86036 10.215 5.01779C9.98812 5.17522 9.93183 5.48675 10.0893 5.71363C10.5075 6.31631 10.7647 7.03984 10.7986 7.82269C10.8106 8.09858 11.0439 8.31255 11.3198 8.30061C11.5956 8.28867 11.8096 8.05534 11.7977 7.77946C11.7554 6.80231 11.4337 5.897 10.9108 5.14353Z"
            fill="#303233" />
    </g>
    <defs>
        <clipPath id="clip0_2529_90">
            <rect width="16" height="16" fill="white" />
        </clipPath>
    </defs>
</svg>
