<svg width="24" height="24" viewBox="0 0 24 24" fill="none" xmlns="http://www.w3.org/2000/svg">
    <path fill-rule="evenodd" clip-rule="evenodd"
        d="M2.91167 5.36756C5.12941 2.84833 8.37564 1.25 12.0002 1.25C15.6247 1.25 18.8709 2.84833 21.0887 5.36756C21.3624 5.67846 21.3322 6.15238 21.0213 6.42608C20.7104 6.69978 20.2365 6.66961 19.9628 6.35871C18.016 4.14728 15.1733 2.75 12.0002 2.75C8.82707 2.75 5.98433 4.14728 4.03755 6.35871C3.76385 6.66961 3.28994 6.69978 2.97903 6.42608C2.66813 6.15238 2.63797 5.67846 2.91167 5.36756ZM2.0918 14.2187C2.0918 8.74316 6.52871 4.30469 12.0017 4.30469C17.4747 4.30469 21.9116 8.74316 21.9116 14.2187C21.9116 16.3199 20.2085 18.0233 18.108 18.0233C16.0074 18.0233 14.3043 16.3199 14.3043 14.2187C14.3043 12.9455 13.2725 11.914 12.0007 11.914C10.7289 11.914 9.69705 12.9455 9.69705 14.2187C9.69705 17.2327 11.2821 19.8767 13.6663 21.3635C14.0177 21.5827 14.125 22.0453 13.9058 22.3968C13.6866 22.7483 13.224 22.8555 12.8725 22.6363C10.0679 20.8873 8.19705 17.7722 8.19705 14.2187C8.19705 12.1174 9.90015 10.414 12.0007 10.414C14.1013 10.414 15.8043 12.1174 15.8043 14.2187C15.8043 15.4918 16.8362 16.5233 18.108 16.5233C19.3798 16.5233 20.4116 15.4918 20.4116 14.2187C20.4116 9.57104 16.6458 5.80469 12.0017 5.80469C7.35768 5.80469 3.5918 9.57104 3.5918 14.2187C3.5918 15.2907 3.71175 16.3355 3.93281 17.3439C4.02151 17.7485 3.76542 18.1484 3.36082 18.2371C2.95622 18.3258 2.55631 18.0697 2.46761 17.6651C2.22437 16.5556 2.0918 15.4031 2.0918 14.2187ZM11.9989 8.85938C9.04104 8.85938 6.64258 11.2582 6.64258 14.2187C6.64258 16.6648 7.4096 18.9287 8.7143 20.7906C8.952 21.1298 8.8697 21.5975 8.53048 21.8352C8.19125 22.0729 7.72357 21.9906 7.48587 21.6514C6.01082 19.5464 5.14258 16.9838 5.14258 14.2187C5.14258 10.4304 8.21196 7.35938 11.9989 7.35938C15.7857 7.35938 18.8551 10.4304 18.8551 14.2187C18.8551 14.6329 18.5193 14.9687 18.1051 14.9687C17.6909 14.9687 17.3551 14.6329 17.3551 14.2187C17.3551 11.2582 14.9567 8.85938 11.9989 8.85938ZM12.001 13.4688C12.4152 13.4688 12.751 13.8045 12.751 14.2188C12.751 17.1792 15.1494 19.5781 18.1073 19.5781C18.1609 19.5781 18.2029 19.5752 18.2652 19.571C18.3001 19.5687 18.3413 19.5659 18.3945 19.5629C18.8081 19.54 19.162 19.8566 19.185 20.2702C19.208 20.6838 18.8913 21.0377 18.4777 21.0606C18.4613 21.0615 18.4403 21.063 18.416 21.0646C18.3338 21.0701 18.2139 21.0781 18.1073 21.0781C14.3204 21.0781 11.251 18.007 11.251 14.2188C11.251 13.8045 11.5868 13.4688 12.001 13.4688Z"
        fill="#303233" />
</svg>
