<svg width="16" height="16" viewBox="0 0 16 16" fill="none" xmlns="http://www.w3.org/2000/svg">
    <path
        d="M8.5 8C8.5 7.72386 8.27614 7.5 8 7.5C7.72386 7.5 7.5 7.72386 7.5 8V9.5H6C5.72386 9.5 5.5 9.72386 5.5 10C5.5 10.2761 5.72386 10.5 6 10.5H7.5V12C7.5 12.2761 7.72386 12.5 8 12.5C8.27614 12.5 8.5 12.2761 8.5 12V10.5H10C10.2761 10.5 10.5 10.2761 10.5 10C10.5 9.72386 10.2761 9.5 10 9.5H8.5V8Z"
        fill="#303233" />
    <path fill-rule="evenodd" clip-rule="evenodd"
        d="M5.5 0.5C5.77614 0.5 6 0.723858 6 1V2H10V1C10 0.723858 10.2239 0.5 10.5 0.5C10.7761 0.5 11 0.723858 11 1V2H13.0556C14.091 2 15 2.78388 15 3.83333V13.1667C15 14.2161 14.091 15 13.0556 15H2.94444C1.90899 15 1 14.2161 1 13.1667V3.83333C1 2.78388 1.90899 2 2.94444 2H5V1C5 0.723858 5.22386 0.5 5.5 0.5ZM10 3V3.5C10 3.77614 10.2239 4 10.5 4C10.7761 4 11 3.77614 11 3.5V3H13.0556C13.6156 3 14 3.41002 14 3.83333V5H2V3.83333C2 3.41002 2.38441 3 2.94444 3H5V3.5C5 3.77614 5.22386 4 5.5 4C5.77614 4 6 3.77614 6 3.5V3H10ZM2 6H14V13.1667C14 13.59 13.6156 14 13.0556 14H2.94444C2.38441 14 2 13.59 2 13.1667V6Z"
        fill="#303233" />
</svg>
