<svg width="16" height="16" viewBox="0 0 16 16" fill="none" xmlns="http://www.w3.org/2000/svg">
    <g clip-path="url(#clip0_53_7273)">
        <path
            d="M8 0.25C7.48305 0.25 6.97745 0.300683 6.48804 0.397503C6.21715 0.451094 6.04099 0.714139 6.09458 0.985031C6.14817 1.25592 6.41122 1.43208 6.68211 1.37849C7.10795 1.29425 7.54856 1.25 8 1.25C8.45144 1.25 8.89205 1.29425 9.31789 1.37849C9.58878 1.43208 9.85183 1.25592 9.90542 0.985031C9.95901 0.714139 9.78285 0.451094 9.51196 0.397503C9.02255 0.300683 8.51695 0.25 8 0.25Z"
            fill="#303233" />
        <path
            d="M12.3064 1.55567C12.0769 1.40204 11.7664 1.46353 11.6127 1.69299C11.4591 1.92246 11.5206 2.23301 11.7501 2.38664C12.4864 2.87958 13.1204 3.51363 13.6134 4.24995C13.767 4.47941 14.0775 4.54089 14.307 4.38727C14.5365 4.23365 14.598 3.92309 14.4443 3.69363C13.8787 2.84869 13.1513 2.12134 12.3064 1.55567Z"
            fill="#303233" />
        <path
            d="M4.24995 2.38664C4.47941 2.23301 4.54089 1.92246 4.38727 1.69299C4.23365 1.46353 3.92309 1.40204 3.69363 1.55567C2.84869 2.12134 2.12134 2.84869 1.55567 3.69363C1.40204 3.92309 1.46353 4.23365 1.69299 4.38727C1.92246 4.54089 2.23301 4.47941 2.38664 4.24995C2.87958 3.51363 3.51363 2.87958 4.24995 2.38664Z"
            fill="#303233" />
        <path
            d="M1.37849 6.68211C1.43208 6.41122 1.25592 6.14817 0.985031 6.09458C0.714139 6.04099 0.451094 6.21715 0.397503 6.48804C0.300683 6.97745 0.25 7.48305 0.25 8C0.25 8.51695 0.300683 9.02255 0.397503 9.51196C0.451094 9.78285 0.714139 9.95901 0.985031 9.90542C1.25592 9.85183 1.43208 9.58878 1.37849 9.31789C1.29425 8.89205 1.25 8.45144 1.25 8C1.25 7.54856 1.29425 7.10795 1.37849 6.68211Z"
            fill="#303233" />
        <path
            d="M15.6025 6.48804C15.5489 6.21715 15.2859 6.04099 15.015 6.09458C14.7441 6.14817 14.5679 6.41122 14.6215 6.68211C14.7058 7.10795 14.75 7.54856 14.75 8C14.75 8.45144 14.7058 8.89205 14.6215 9.31789C14.5679 9.58878 14.7441 9.85183 15.015 9.90542C15.2859 9.95901 15.5489 9.78285 15.6025 9.51196C15.6993 9.02255 15.75 8.51695 15.75 8C15.75 7.48305 15.6993 6.97745 15.6025 6.48804Z"
            fill="#303233" />
        <path
            d="M2.38664 11.7501C2.23301 11.5206 1.92246 11.4591 1.69299 11.6127C1.46353 11.7664 1.40204 12.0769 1.55567 12.3064C2.12134 13.1513 2.84869 13.8787 3.69363 14.4443C3.92309 14.598 4.23365 14.5365 4.38727 14.307C4.54089 14.0775 4.47941 13.767 4.24995 13.6134C3.51363 13.1204 2.87958 12.4864 2.38664 11.7501Z"
            fill="#303233" />
        <path
            d="M14.4443 12.3064C14.598 12.0769 14.5365 11.7664 14.307 11.6127C14.0775 11.4591 13.767 11.5206 13.6134 11.7501C13.1204 12.4864 12.4864 13.1204 11.7501 13.6134C11.5206 13.767 11.4591 14.0775 11.6127 14.307C11.7664 14.5365 12.0769 14.598 12.3064 14.4443C13.1513 13.8787 13.8787 13.1513 14.4443 12.3064Z"
            fill="#303233" />
        <path
            d="M6.68211 14.6215C6.41122 14.5679 6.14817 14.7441 6.09458 15.015C6.04099 15.2859 6.21715 15.5489 6.48804 15.6025C6.97745 15.6993 7.48305 15.75 8 15.75C8.51695 15.75 9.02255 15.6993 9.51196 15.6025C9.78285 15.5489 9.95901 15.2859 9.90542 15.015C9.85183 14.7441 9.58878 14.5679 9.31789 14.6215C8.89205 14.7058 8.45144 14.75 8 14.75C7.54856 14.75 7.10795 14.7058 6.68211 14.6215Z"
            fill="#303233" />
        <path
            d="M5.45235 7.75206H7.58879C7.58879 7.97175 7.57964 8.1713 7.56133 8.35071C7.54302 8.53012 7.50641 8.69671 7.45149 8.85049C7.3746 9.06652 7.27025 9.25874 7.13843 9.42717C7.00662 9.59193 6.85101 9.73107 6.6716 9.84457C6.49585 9.95441 6.3018 10.0386 6.08944 10.0972C5.87707 10.1558 5.65373 10.1851 5.41939 10.1851C5.09719 10.1851 4.80244 10.132 4.53516 10.0258C4.27154 9.91963 4.04453 9.77134 3.85414 9.58095C3.66374 9.38689 3.51545 9.15622 3.40927 8.88894C3.30309 8.61799 3.25 8.31959 3.25 7.99372C3.25 7.67151 3.30126 7.37677 3.40378 7.10948C3.50996 6.83854 3.65825 6.60787 3.84864 6.41747C4.0427 6.22708 4.2752 6.07879 4.54614 5.97261C4.81709 5.86643 5.11916 5.81334 5.45235 5.81334C5.8844 5.81334 6.26335 5.90671 6.58922 6.09344C6.91509 6.28017 7.17322 6.56942 7.36361 6.9612L6.34207 7.38409C6.24688 7.15708 6.12239 6.99415 5.96861 6.89529C5.81849 6.79643 5.6464 6.747 5.45235 6.747C5.29124 6.747 5.14479 6.77813 5.01298 6.84037C4.88117 6.89895 4.76766 6.985 4.67246 7.0985C4.58093 7.20834 4.5077 7.34198 4.45278 7.49943C4.40152 7.65687 4.37589 7.83262 4.37589 8.02667C4.37589 8.20242 4.39786 8.36535 4.44179 8.51547C4.48939 8.66559 4.55896 8.79557 4.6505 8.90541C4.74203 9.01526 4.85554 9.1013 4.99101 9.16354C5.12648 9.22213 5.28392 9.25142 5.46333 9.25142C5.56951 9.25142 5.67203 9.24043 5.77089 9.21847C5.86975 9.19284 5.95762 9.15439 6.03451 9.10313C6.11507 9.04821 6.18097 8.97864 6.23223 8.89443C6.28349 8.81022 6.31827 8.7077 6.33658 8.58687H5.45235V7.75206Z"
            fill="#303233" />
        <path d="M9.34563 5.92867V10.0697H8.26917V5.92867H9.34563Z" fill="#303233" />
        <path
            d="M11.2872 6.84037H12.5833V5.92867H10.2107V10.0697H11.2872V8.44407H12.468V7.53238H11.2872V6.84037Z"
            fill="#303233" />
    </g>
    <defs>
        <clipPath id="clip0_53_7273">
            <rect width="16" height="16" fill="white" />
        </clipPath>
    </defs>
</svg>
