<svg width="24" height="24" viewBox="0 0 24 24" fill="none" xmlns="http://www.w3.org/2000/svg">
    <path
        d="M7.75 4C7.75 3.58579 7.41421 3.25 7 3.25C6.58579 3.25 6.25 3.58579 6.25 4V18.1893L3.53033 15.4697C3.23744 15.1768 2.76256 15.1768 2.46967 15.4697C2.17678 15.7626 2.17678 16.2374 2.46967 16.5303L6.46967 20.5303C6.76256 20.8232 7.23744 20.8232 7.53033 20.5303L11.5303 16.5303C11.8232 16.2374 11.8232 15.7626 11.5303 15.4697C11.2374 15.1768 10.7626 15.1768 10.4697 15.4697L7.75 18.1893V4Z"
        fill="#303233" />
    <path
        d="M13 11.25C12.5858 11.25 12.25 11.5858 12.25 12C12.25 12.4142 12.5858 12.75 13 12.75H21C21.4142 12.75 21.75 12.4142 21.75 12C21.75 11.5858 21.4142 11.25 21 11.25H13Z"
        fill="#303233" />
    <path
        d="M12.25 8C12.25 7.58579 12.5858 7.25 13 7.25H17C17.4142 7.25 17.75 7.58579 17.75 8C17.75 8.41421 17.4142 8.75 17 8.75H13C12.5858 8.75 12.25 8.41421 12.25 8Z"
        fill="#303233" />
    <path
        d="M13 3.25C12.5858 3.25 12.25 3.58579 12.25 4C12.25 4.41421 12.5858 4.75 13 4.75H14C14.4142 4.75 14.75 4.41421 14.75 4C14.75 3.58579 14.4142 3.25 14 3.25H13Z"
        fill="#303233" />
</svg>
