<svg width="24" height="24" viewBox="0 0 24 24" fill="none" xmlns="http://www.w3.org/2000/svg">
    <path fill-rule="evenodd" clip-rule="evenodd"
        d="M13.0558 1.88959C13.1168 1.34068 13.6112 0.945135 14.1601 1.00611C16.4148 1.2566 18.5174 2.26631 20.1226 3.86946C21.7277 5.4726 22.7401 7.5739 22.9934 9.82834C23.0551 10.3772 22.6602 10.8721 22.1113 10.9337C21.5625 10.9954 21.0676 10.6005 21.0059 10.0517C20.8033 8.24812 19.9934 6.56708 18.7092 5.28456C17.4251 4.00204 15.743 3.19427 13.9392 2.99389C13.3903 2.93291 12.9948 2.4385 13.0558 1.88959ZM5.90502 4.66222C5.62124 4.51868 5.2861 4.51868 5.00232 4.66222C4.8956 4.7162 4.76256 4.83146 4.17554 5.41848L4.0179 5.57612C3.45769 6.13633 3.30668 6.29836 3.18597 6.51324C3.04606 6.7623 2.92884 7.21305 2.92969 7.49872C2.93045 7.75293 2.96798 7.90602 3.13324 8.48827C3.94884 11.3618 5.48744 14.0736 7.75177 16.3379C10.0161 18.6023 12.7279 20.1409 15.6014 20.9565C16.1837 21.1217 16.3368 21.1593 16.591 21.16C16.8767 21.1609 17.3274 21.0436 17.5765 20.9037C17.7914 20.783 17.9534 20.632 18.5136 20.0718L18.6712 19.9142C19.2582 19.3271 19.3735 19.1941 19.4275 19.0874C19.571 18.8036 19.571 18.4685 19.4275 18.1847C19.3735 18.078 19.2583 17.9449 18.6712 17.3579L18.4764 17.163C18.0907 16.7773 18.0039 16.6984 17.9382 16.6556C17.6067 16.4401 17.1795 16.4401 16.848 16.6556C16.7823 16.6984 16.6955 16.7773 16.3098 17.163C16.3022 17.1707 16.2944 17.1785 16.2864 17.1865C16.1967 17.2766 16.0831 17.3906 15.9466 17.4883C15.4597 17.837 14.7976 17.9499 14.2226 17.7823C14.0622 17.7355 13.9302 17.6719 13.8275 17.6224C13.8193 17.6185 13.8114 17.6146 13.8037 17.6109C12.2537 16.8667 10.802 15.8527 9.51953 14.5702C8.23706 13.2877 7.22297 11.836 6.4788 10.2861C6.47507 10.2783 6.47124 10.2704 6.46733 10.2622C6.41782 10.1595 6.35419 10.0275 6.30744 9.86716C6.13981 9.29213 6.25271 8.63006 6.60141 8.14307C6.69911 8.00664 6.81314 7.89302 6.9032 7.80329C6.91122 7.79529 6.91906 7.78749 6.92667 7.77987C7.31238 7.39416 7.39136 7.30744 7.43409 7.24171C7.64959 6.91026 7.64959 6.48297 7.4341 6.15152C7.39136 6.08579 7.31238 5.99906 6.92667 5.61335L6.7318 5.41848C6.14478 4.83146 6.01174 4.7162 5.90502 4.66222ZM4.09963 2.87752C4.95097 2.44691 5.95637 2.44691 6.80771 2.87752C7.2403 3.09632 7.61586 3.47284 8.0503 3.90839C8.08188 3.94005 8.11377 3.97202 8.14601 4.00427L8.34088 4.19914C8.36213 4.22038 8.38318 4.2414 8.40402 4.2622C8.69068 4.54838 8.93761 4.79489 9.11085 5.06134C9.75734 6.05568 9.75734 7.33755 9.11085 8.33189C8.93761 8.59834 8.69068 8.84484 8.40403 9.13102C8.38318 9.15182 8.36213 9.17284 8.34088 9.19409C8.28328 9.25169 8.25389 9.28124 8.23342 9.30289L8.23235 9.30827C8.23198 9.31044 8.23151 9.31426 8.23151 9.31426C8.23481 9.32157 8.23927 9.33124 8.24542 9.34431C8.25503 9.36473 8.26632 9.38827 8.28176 9.42041C8.92958 10.7697 9.81307 12.0353 10.9337 13.156C12.0544 14.2766 13.32 15.1601 14.6693 15.808C14.7014 15.8234 14.725 15.8347 14.7454 15.8443C14.7585 15.8504 14.7681 15.8549 14.7754 15.8582C14.7754 15.8582 14.7793 15.8577 14.7814 15.8574L14.7868 15.8563C14.8085 15.8358 14.838 15.8064 14.8956 15.7488C14.9169 15.7276 14.9379 15.7065 14.9587 15.6857C15.2449 15.399 15.4914 15.1521 15.7578 14.9789C16.7522 14.3324 18.034 14.3324 19.0284 14.9789C19.2948 15.1521 19.5413 15.399 19.8275 15.6857C19.8483 15.7065 19.8693 15.7276 19.8906 15.7488L20.0854 15.9437C20.1177 15.9759 20.1497 16.0078 20.1813 16.0394C20.6169 16.4738 20.9934 16.8494 21.2122 17.282C21.6428 18.1333 21.6428 19.1387 21.2122 19.9901C20.9934 20.4227 20.6169 20.7982 20.1813 21.2327C20.1497 21.2643 20.1177 21.2961 20.0854 21.3284L19.9278 21.486C19.905 21.5089 19.8824 21.5314 19.8601 21.5538C19.3948 22.0195 19.0381 22.3767 18.556 22.6475C18.006 22.9564 17.2158 23.1619 16.585 23.16C16.0332 23.1584 15.6307 23.044 15.1117 22.8965C15.0931 22.8912 15.0743 22.8858 15.0554 22.8805C11.8621 21.9741 8.84919 20.2638 6.33755 17.7522C3.82592 15.2405 2.11557 12.2276 1.20923 9.03436C1.20386 9.01543 1.19853 8.99666 1.19323 8.97804C1.04573 8.45903 0.931342 8.05656 0.9297 7.50467C0.927823 6.8739 1.13333 6.08366 1.44226 5.53372C1.71306 5.05165 2.07021 4.69486 2.53594 4.2296C2.55828 4.20729 2.58086 4.18474 2.60369 4.1619L2.76132 4.00427C2.79357 3.97202 2.82546 3.94005 2.85704 3.90839C3.29148 3.47284 3.66703 3.09632 4.09963 2.87752ZM13.0682 5.80851C13.1739 5.26644 13.6991 4.91275 14.2412 5.01851C15.4132 5.24718 16.4904 5.82042 17.3348 6.66483C18.1792 7.50924 18.7525 8.58642 18.9812 9.75851C19.0869 10.3006 18.7332 10.8257 18.1912 10.9315C17.6491 11.0373 17.1239 10.6836 17.0182 10.1415C16.8657 9.36011 16.4836 8.64198 15.9206 8.07904C15.3577 7.5161 14.6396 7.13395 13.8582 6.98149C13.3161 6.87574 12.9624 6.35057 13.0682 5.80851Z"
        fill="#303233" />
</svg>
