<svg width="24" height="24" viewBox="0 0 24 24" fill="none" xmlns="http://www.w3.org/2000/svg">
    <path fill-rule="evenodd" clip-rule="evenodd"
        d="M2.25 3C2.25 2.58579 2.58579 2.25 3 2.25H21C21.4142 2.25 21.75 2.58579 21.75 3V17C21.75 19.6234 19.6234 21.75 17 21.75H7C4.37665 21.75 2.25 19.6234 2.25 17V3ZM3.75 3.75V17C3.75 18.7949 5.20507 20.25 7 20.25H17C18.7949 20.25 20.25 18.7949 20.25 17V3.75H3.75Z"
        fill="#303233" />
    <path fill-rule="evenodd" clip-rule="evenodd"
        d="M8.5 6.75C7.5335 6.75 6.75 7.5335 6.75 8.5C6.75 9.4665 7.5335 10.25 8.5 10.25C9.4665 10.25 10.25 9.4665 10.25 8.5C10.25 7.5335 9.4665 6.75 8.5 6.75ZM5.25 8.5C5.25 6.70507 6.70507 5.25 8.5 5.25C10.2949 5.25 11.75 6.70507 11.75 8.5C11.75 10.2949 10.2949 11.75 8.5 11.75C6.70507 11.75 5.25 10.2949 5.25 8.5Z"
        fill="#303233" />
    <path fill-rule="evenodd" clip-rule="evenodd"
        d="M13.25 10C13.25 9.58579 13.5858 9.25 14 9.25H18C18.4142 9.25 18.75 9.58579 18.75 10V14C18.75 14.4142 18.4142 14.75 18 14.75H14C13.5858 14.75 13.25 14.4142 13.25 14V10ZM14.75 10.75V13.25H17.25V10.75H14.75Z"
        fill="#303233" />
    <path fill-rule="evenodd" clip-rule="evenodd"
        d="M10 13.25C10.2361 13.25 10.4584 13.3611 10.6 13.55L13.6 17.55C13.7705 17.7773 13.7979 18.0813 13.6708 18.3354C13.5438 18.5895 13.2841 18.75 13 18.75H7C6.71593 18.75 6.45623 18.5895 6.32918 18.3354C6.20214 18.0813 6.22956 17.7773 6.4 17.55L9.4 13.55C9.54165 13.3611 9.76394 13.25 10 13.25ZM8.5 17.25H11.5L10 15.25L8.5 17.25Z"
        fill="#303233" />
</svg>
