<svg width="16" height="16" viewBox="0 0 16 16" fill="none" xmlns="http://www.w3.org/2000/svg">
    <path
        d="M5 1H4.94508C4.35667 0.999996 3.88461 0.999992 3.50289 1.03118C3.11067 1.06323 2.77 1.13067 2.45603 1.29065C1.95426 1.54631 1.54631 1.95426 1.29065 2.45603C1.13067 2.77 1.06323 3.11067 1.03118 3.50289C0.999992 3.88461 0.999996 4.35666 1 4.94508V5C1 5.27614 1.22386 5.5 1.5 5.5C1.77614 5.5 2 5.27614 2 5V4.96667C2 4.35169 2.00039 3.92053 2.02786 3.58432C2.05485 3.25394 2.10548 3.05952 2.18166 2.91002C2.34145 2.59641 2.59641 2.34145 2.91002 2.18166C3.05952 2.10548 3.25394 2.05485 3.58432 2.02786C3.92053 2.00039 4.35169 2 4.96667 2H5C5.27614 2 5.5 1.77614 5.5 1.5C5.5 1.22386 5.27614 1 5 1Z"
        fill="#303233" />
    <path
        d="M11.0333 2C11.6483 2 12.0795 2.00039 12.4157 2.02786C12.7461 2.05485 12.9405 2.10548 13.09 2.18166C13.4036 2.34145 13.6586 2.59641 13.8183 2.91002C13.8945 3.05952 13.9451 3.25394 13.9721 3.58432C13.9996 3.92053 14 4.35169 14 4.96667V5C14 5.27614 14.2239 5.5 14.5 5.5C14.7761 5.5 15 5.27614 15 5V4.94507C15 4.35666 15 3.88461 14.9688 3.50289C14.9368 3.11067 14.8693 2.77 14.7094 2.45603C14.4537 1.95426 14.0457 1.54631 13.544 1.29065C13.23 1.13067 12.8893 1.06323 12.4971 1.03118C12.1154 0.999992 11.6433 0.999996 11.0549 1H11C10.7239 1 10.5 1.22386 10.5 1.5C10.5 1.77614 10.7239 2 11 2H11.0333Z"
        fill="#303233" />
    <path
        d="M2 11C2 10.7239 1.77614 10.5 1.5 10.5C1.22386 10.5 1 10.7239 1 11V11.0549C0.999996 11.6433 0.999992 12.1154 1.03118 12.4971C1.06323 12.8893 1.13067 13.23 1.29065 13.544C1.54631 14.0457 1.95426 14.4537 2.45603 14.7094C2.77 14.8693 3.11067 14.9368 3.50289 14.9688C3.88461 15 4.35666 15 4.94507 15H5C5.27614 15 5.5 14.7761 5.5 14.5C5.5 14.2239 5.27614 14 5 14H4.96667C4.35169 14 3.92053 13.9996 3.58432 13.9721C3.25394 13.9451 3.05952 13.8945 2.91002 13.8183C2.59641 13.6586 2.34145 13.4036 2.18166 13.09C2.10548 12.9405 2.05485 12.7461 2.02786 12.4157C2.00039 12.0795 2 11.6483 2 11.0333V11Z"
        fill="#303233" />
    <path fill-rule="evenodd" clip-rule="evenodd"
        d="M9.66054 7.5H13.3395C13.6169 7.49999 13.8547 7.49998 14.0504 7.51597C14.2564 7.5328 14.4591 7.56982 14.6537 7.66894C14.9453 7.81754 15.1825 8.05466 15.3311 8.34632C15.4302 8.54085 15.4672 8.74364 15.484 8.94965C15.5 9.14526 15.5 9.38311 15.5 9.66052V13.3394C15.5 13.6169 15.5 13.8547 15.484 14.0504C15.4672 14.2564 15.4302 14.4591 15.3311 14.6537C15.1825 14.9453 14.9453 15.1825 14.6537 15.3311C14.4591 15.4302 14.2564 15.4672 14.0504 15.484C13.8547 15.5 13.6169 15.5 13.3395 15.5H9.66055C9.38313 15.5 9.14526 15.5 8.94965 15.484C8.74364 15.4672 8.54085 15.4302 8.34632 15.3311C8.05466 15.1825 7.81754 14.9453 7.66894 14.6537C7.56982 14.4591 7.5328 14.2564 7.51597 14.0504C7.49998 13.8547 7.49999 13.6169 7.5 13.3395V9.66054C7.49999 9.38312 7.49998 9.14526 7.51597 8.94965C7.5328 8.74364 7.56982 8.54085 7.66894 8.34632C7.81754 8.05466 8.05466 7.81754 8.34632 7.66894C8.54085 7.56982 8.74364 7.5328 8.94965 7.51597C9.14526 7.49998 9.38312 7.49999 9.66054 7.5ZM9.5 11.5C9.5 10.3954 10.3954 9.5 11.5 9.5C12.6046 9.5 13.5 10.3954 13.5 11.5C13.5 12.6046 12.6046 13.5 11.5 13.5C10.3954 13.5 9.5 12.6046 9.5 11.5Z"
        fill="#303233" />
</svg>
