<svg width="24" height="24" viewBox="0 0 24 24" fill="none" xmlns="http://www.w3.org/2000/svg">
    <path fill-rule="evenodd" clip-rule="evenodd"
        d="M3.86667 4C2.21959 4 1 5.40925 1 7V10H8C9.65685 10 11 11.3431 11 13V20H14.1333C15.7804 20 17 18.5908 17 17V15.618L21.5528 17.8944C21.8628 18.0494 22.2309 18.0329 22.5257 17.8507C22.8205 17.6684 23 17.3466 23 17V7C23 6.65342 22.8205 6.33156 22.5257 6.14935C22.2309 5.96714 21.8628 5.95058 21.5528 6.10557L17 8.38197V7C17 5.40925 15.7804 4 14.1333 4H3.86667ZM8.70922 12.295C8.80405 12.3904 8.87568 12.5001 8.92412 12.6172C8.97265 12.7343 8.9996 12.8625 9 12.997L9 13V13.0007V19C9 19.5523 8.55229 20 8 20C7.44771 20 7 19.5523 7 19V15.4142L2.70711 19.7071C2.31658 20.0976 1.68342 20.0976 1.29289 19.7071C0.902369 19.3166 0.902369 18.6834 1.29289 18.2929L5.58579 14H2C1.44772 14 1 13.5523 1 13C1 12.4477 1.44772 12 2 12H7.99983H8C8.27506 12 8.52419 12.1111 8.70498 12.2908L8.70922 12.295Z"
        fill="#303233" />
</svg>
