<svg width="24" height="24" viewBox="0 0 24 24" fill="none" xmlns="http://www.w3.org/2000/svg">
    <path fill-rule="evenodd" clip-rule="evenodd"
        d="M19.4126 4.29978C19.1786 4.31825 18.8681 4.36911 18.3698 4.45215L11.1698 5.65215C10.7988 5.714 10.5751 5.75194 10.4088 5.79276C10.3319 5.81164 10.2858 5.82688 10.2579 5.83788C10.2331 5.8477 10.2245 5.85346 10.2232 5.8543L10.2231 5.85434C10.1446 5.90658 10.0824 5.97997 10.0438 6.06604L10.0438 6.06611C10.0431 6.06748 10.0389 6.07695 10.0333 6.10308C10.027 6.13238 10.0196 6.18031 10.0136 6.25931C10.0007 6.43009 10 6.65692 10 7.03311V18C10 20.2091 8.20914 22 6 22C3.79086 22 2 20.2091 2 18C2 15.7909 3.79086 14 6 14C6.72857 14 7.41165 14.1948 8 14.5351V7.03311L8 7.00075C7.99998 6.66736 7.99996 6.36385 8.01927 6.10849C8.04016 5.83235 8.08731 5.541 8.21901 5.24742C8.41206 4.81708 8.72291 4.45013 9.11566 4.18896C9.3836 4.01078 9.66323 3.91638 9.93217 3.85038C10.1809 3.78935 10.4803 3.73947 10.8091 3.68468L10.841 3.67937L18.041 2.47937L18.0802 2.47284L18.0802 2.47284C18.5274 2.39828 18.9244 2.33209 19.2552 2.30598C19.605 2.27838 19.9863 2.28444 20.3705 2.42713C20.9184 2.63065 21.3777 3.01975 21.6686 3.52679C21.8725 3.88227 21.9411 4.25737 21.9714 4.60693C22 4.93755 22 5.34008 22 5.79344L22 5.83311V16C22 18.2091 20.2091 20 18 20C15.7909 20 14 18.2091 14 16C14 13.7909 15.7909 12 18 12C18.7286 12 19.4117 12.1948 20 12.5351V5.83311C20 5.32795 19.9991 5.01329 19.9789 4.7795C19.9624 4.58929 19.9378 4.53017 19.9337 4.5219C19.933 4.52041 19.9329 4.52057 19.9337 4.52191C19.8755 4.4205 19.7837 4.34268 19.6741 4.30198C19.6749 4.30227 19.6753 4.30237 19.6752 4.30234L19.6741 4.30195C19.6653 4.29931 19.6029 4.28476 19.4126 4.29978ZM20 16C20 14.8954 19.1046 14 18 14C16.8954 14 16 14.8954 16 16C16 17.1046 16.8954 18 18 18C19.1046 18 20 17.1046 20 16ZM6 16C7.10457 16 8 16.8954 8 18C8 19.1046 7.10457 20 6 20C4.89543 20 4 19.1046 4 18C4 16.8954 4.89543 16 6 16Z"
        fill="#303233" />
</svg>
