<svg width="16" height="16" viewBox="0 0 16 16" fill="none" xmlns="http://www.w3.org/2000/svg">
    <path
        d="M3 5C3 3.34315 4.34315 2 6 2C7.65685 2 9 3.34315 9 5C9 6.65685 7.65685 8 6 8C4.34315 8 3 6.65685 3 5Z"
        fill="#303233" />
    <path
        d="M0.609607 13.4005C1.11925 10.8899 3.33816 9 5.9996 9C8.66103 9 10.8799 10.8899 11.3896 13.4005C11.4194 13.5476 11.3817 13.7003 11.2867 13.8164C11.1917 13.9326 11.0496 14 10.8996 14H1.09961C0.949566 14 0.80745 13.9326 0.712488 13.8164C0.617526 13.7003 0.579758 13.5476 0.609607 13.4005Z"
        fill="#303233" />
    <path
        d="M10.3964 5.39645C10.5917 5.20118 10.9083 5.20118 11.1036 5.39645L12.5 6.79289L13.8964 5.39645C14.0917 5.20118 14.4083 5.20118 14.6036 5.39645C14.7988 5.59171 14.7988 5.90829 14.6036 6.10355L13.2071 7.5L14.6036 8.89645C14.7988 9.09171 14.7988 9.40829 14.6036 9.60355C14.4083 9.79882 14.0917 9.79882 13.8964 9.60355L12.5 8.20711L11.1036 9.60355C10.9083 9.79882 10.5917 9.79882 10.3964 9.60355C10.2012 9.40829 10.2012 9.09171 10.3964 8.89645L11.7929 7.5L10.3964 6.10355C10.2012 5.90829 10.2012 5.59171 10.3964 5.39645Z"
        fill="#303233" />
</svg>
