<svg width="16" height="16" viewBox="0 0 16 16" fill="none" xmlns="http://www.w3.org/2000/svg">
    <path
        d="M6.87109 4.75L7 4.75C7.41422 4.75 7.75 5.08579 7.75 5.5C7.75 5.91422 7.41422 6.25 7 6.25H6.9C6.46759 6.25 6.18838 6.25059 5.97588 6.26795C5.77213 6.28459 5.69659 6.31285 5.65951 6.33175C5.51839 6.40365 5.40365 6.51839 5.33175 6.65951C5.31285 6.69659 5.28459 6.77213 5.26795 6.97588C5.25059 7.18838 5.25 7.46759 5.25 7.9V8.1C5.25 8.53242 5.25059 8.81162 5.26795 9.02413C5.28459 9.22787 5.31285 9.30341 5.33175 9.34049C5.40365 9.48162 5.51839 9.59635 5.65951 9.66826C5.69659 9.68715 5.77213 9.71541 5.97588 9.73206C6.18838 9.74942 6.46759 9.75 6.9 9.75H7C7.41422 9.75 7.75 10.0858 7.75 10.5C7.75 10.9142 7.41422 11.25 7 11.25H6.8711C6.47574 11.25 6.13466 11.25 5.85373 11.2271C5.55722 11.2028 5.26231 11.1494 4.97852 11.0048C4.55516 10.7891 4.21095 10.4448 3.99524 10.0215C3.85064 9.7377 3.79715 9.44278 3.77293 9.14627C3.74998 8.86534 3.74999 8.52427 3.75 8.12891V7.87109C3.74999 7.47573 3.74998 7.13466 3.77293 6.85373C3.79715 6.55722 3.85064 6.26231 3.99524 5.97852C4.21095 5.55516 4.55516 5.21095 4.97852 4.99524C5.26231 4.85064 5.55722 4.79715 5.85373 4.77293C6.13466 4.74998 6.47573 4.74999 6.87109 4.75Z"
        fill="#303233" />
    <path
        d="M11.5 4.75L11.3711 4.75C10.9757 4.74999 10.6347 4.74998 10.3537 4.77293C10.0572 4.79715 9.76231 4.85064 9.47852 4.99524C9.05516 5.21095 8.71095 5.55516 8.49524 5.97852C8.35064 6.26231 8.29715 6.55722 8.27293 6.85373C8.24998 7.13466 8.24999 7.47573 8.25 7.87109V8.12891C8.24999 8.52427 8.24998 8.86534 8.27293 9.14627C8.29715 9.44278 8.35064 9.7377 8.49524 10.0215C8.71095 10.4448 9.05516 10.7891 9.47852 11.0048C9.76231 11.1494 10.0572 11.2028 10.3537 11.2271C10.6347 11.25 10.9757 11.25 11.3711 11.25H11.5C11.9142 11.25 12.25 10.9142 12.25 10.5C12.25 10.0858 11.9142 9.75 11.5 9.75H11.4C10.9676 9.75 10.6884 9.74942 10.4759 9.73206C10.2721 9.71541 10.1966 9.68715 10.1595 9.66826C10.0184 9.59635 9.90365 9.48162 9.83175 9.34049C9.81285 9.30341 9.78459 9.22787 9.76795 9.02413C9.75058 8.81162 9.75 8.53242 9.75 8.1V7.9C9.75 7.46759 9.75058 7.18838 9.76795 6.97588C9.78459 6.77213 9.81285 6.69659 9.83175 6.65951C9.90365 6.51839 10.0184 6.40365 10.1595 6.33175C10.1966 6.31285 10.2721 6.28459 10.4759 6.26795C10.6884 6.25059 10.9676 6.25 11.4 6.25H11.5C11.9142 6.25 12.25 5.91422 12.25 5.5C12.25 5.08579 11.9142 4.75 11.5 4.75Z"
        fill="#303233" />
    <path fill-rule="evenodd" clip-rule="evenodd"
        d="M11.3304 2.25H4.66957C4.13542 2.24999 3.68956 2.24998 3.32533 2.27974C2.94545 2.31078 2.58879 2.37789 2.25153 2.54973C1.73408 2.81339 1.31339 3.23408 1.04973 3.75153C0.87789 4.08879 0.810779 4.44545 0.779741 4.82533C0.749982 5.18956 0.74999 5.6354 0.75 6.16954V9.83044C0.74999 10.3646 0.749982 10.8104 0.779741 11.1747C0.810779 11.5546 0.87789 11.9112 1.04973 12.2485C1.31339 12.7659 1.73408 13.1866 2.25153 13.4503C2.58879 13.6221 2.94545 13.6892 3.32533 13.7203C3.68955 13.75 4.13538 13.75 4.66951 13.75H11.3305C11.8646 13.75 12.3105 13.75 12.6747 13.7203C13.0546 13.6892 13.4112 13.6221 13.7485 13.4503C14.2659 13.1866 14.6866 12.7659 14.9503 12.2485C15.1221 11.9112 15.1892 11.5546 15.2203 11.1747C15.25 10.8105 15.25 10.3646 15.25 9.8305V6.16955C15.25 5.63542 15.25 5.18955 15.2203 4.82533C15.1892 4.44545 15.1221 4.08879 14.9503 3.75153C14.6866 3.23408 14.2659 2.81339 13.7485 2.54973C13.4112 2.37789 13.0546 2.31078 12.6747 2.27974C12.3104 2.24998 11.8646 2.24999 11.3304 2.25ZM2.93251 3.88624C3.02307 3.8401 3.16036 3.79822 3.44748 3.77476C3.74336 3.75058 4.12757 3.75 4.7 3.75H11.3C11.8724 3.75 12.2566 3.75058 12.5525 3.77476C12.8396 3.79822 12.9769 3.8401 13.0675 3.88624C13.3027 4.00609 13.4939 4.19731 13.6138 4.43251C13.6599 4.52307 13.7018 4.66036 13.7252 4.94748C13.7494 5.24336 13.75 5.62757 13.75 6.2V9.8C13.75 10.3724 13.7494 10.7566 13.7252 11.0525C13.7018 11.3396 13.6599 11.4769 13.6138 11.5675C13.4939 11.8027 13.3027 11.9939 13.0675 12.1138C12.9769 12.1599 12.8396 12.2018 12.5525 12.2252C12.2566 12.2494 11.8724 12.25 11.3 12.25H4.7C4.12757 12.25 3.74336 12.2494 3.44748 12.2252C3.16036 12.2018 3.02307 12.1599 2.93251 12.1138C2.69731 11.9939 2.50609 11.8027 2.38624 11.5675C2.3401 11.4769 2.29822 11.3396 2.27476 11.0525C2.25058 10.7566 2.25 10.3724 2.25 9.8V6.2C2.25 5.62757 2.25058 5.24336 2.27476 4.94748C2.29822 4.66036 2.3401 4.52307 2.38624 4.43251C2.50609 4.19731 2.69731 4.00609 2.93251 3.88624Z"
        fill="#303233" />
</svg>
