<svg width="24" height="24" viewBox="0 0 24 24" fill="none" xmlns="http://www.w3.org/2000/svg">
    <path
        d="M9 13C9 12.4477 9.44771 12 10 12H14C14.5523 12 15 12.4477 15 13C15 13.5523 14.5523 14 14 14H10C9.44771 14 9 13.5523 9 13Z"
        fill="#303233" />
    <path fill-rule="evenodd" clip-rule="evenodd"
        d="M4 2C2.34315 2 1 3.34315 1 5C1 6.30622 1.83481 7.41746 3 7.82929L3 16.2413C2.99999 17.0463 2.99998 17.7106 3.04419 18.2518C3.09012 18.8139 3.18868 19.3306 3.43597 19.816C3.81947 20.5686 4.43139 21.1805 5.18404 21.564C5.66937 21.8113 6.18608 21.9099 6.74817 21.9558C7.28936 22 7.95372 22 8.75868 22H15.2413C16.0462 22 16.7106 22 17.2518 21.9558C17.8139 21.9099 18.3306 21.8113 18.816 21.564C19.5686 21.1805 20.1805 20.5686 20.564 19.816C20.8113 19.3306 20.9099 18.8139 20.9558 18.2518C21 17.7106 21 17.0463 21 16.2413V7.82929C22.1652 7.41746 23 6.30622 23 5C23 3.34315 21.6569 2 20 2H4ZM19 8H5V16.2C5 17.0566 5.00078 17.6389 5.03755 18.089C5.07337 18.5274 5.1383 18.7516 5.21799 18.908C5.40973 19.2843 5.7157 19.5903 6.09202 19.782C6.24842 19.8617 6.47262 19.9266 6.91104 19.9625C7.36113 19.9992 7.94342 20 8.8 20H15.2C16.0566 20 16.6389 19.9992 17.089 19.9625C17.5274 19.9266 17.7516 19.8617 17.908 19.782C18.2843 19.5903 18.5903 19.2843 18.782 18.908C18.8617 18.7516 18.9266 18.5274 18.9624 18.089C18.9992 17.6389 19 17.0566 19 16.2V8ZM3 5C3 4.44772 3.44772 4 4 4H20C20.5523 4 21 4.44772 21 5C21 5.55228 20.5523 6 20 6H4C3.44772 6 3 5.55228 3 5Z"
        fill="#303233" />
</svg>
