<svg width="16" height="16" viewBox="0 0 16 16" fill="none" xmlns="http://www.w3.org/2000/svg">
    <path
        d="M8.5 5C8.5 4.72386 8.27614 4.5 8 4.5C7.72386 4.5 7.5 4.72386 7.5 5V10C7.5 10.2761 7.72386 10.5 8 10.5C8.27614 10.5 8.5 10.2761 8.5 10V5Z"
        fill="#303233" />
    <path fill-rule="evenodd" clip-rule="evenodd"
        d="M11.7241 1.67531C9.323 0.774897 6.677 0.774897 4.2759 1.67531L3.21664 2.07253C2.48482 2.34696 2 3.04656 2 3.82815V7.68777C2 9.65296 3.12153 11.2909 4.31654 12.4844C5.5191 13.6854 6.8634 14.5045 7.45554 14.8372C7.79629 15.0286 8.20371 15.0286 8.54446 14.8372C9.1366 14.5045 10.4809 13.6854 11.6835 12.4844C12.8785 11.2909 14 9.65296 14 7.68777V3.82815C14 3.04656 13.5152 2.34696 12.7834 2.07253L11.7241 1.67531ZM4.62702 2.61164C6.80173 1.79612 9.19827 1.79612 11.373 2.61164L12.4322 3.00886C12.7737 3.13693 13 3.46341 13 3.82815V7.68777C13 9.26354 12.0951 10.6599 10.9768 11.7768C9.86606 12.8861 8.61014 13.6533 8.05463 13.9654C8.01807 13.9859 7.98193 13.9859 7.94537 13.9654C7.38986 13.6533 6.13394 12.8861 5.02318 11.7768C3.90487 10.6599 3 9.26354 3 7.68777V3.82815C3 3.46341 3.22625 3.13693 3.56777 3.00886L4.62702 2.61164Z"
        fill="#303233" />
</svg>
