<svg width="16" height="16" viewBox="0 0 16 16" fill="none" xmlns="http://www.w3.org/2000/svg">
    <g clip-path="url(#clip0_1445_156)">
        <path fill-rule="evenodd" clip-rule="evenodd"
            d="M8 0.75C3.99594 0.75 0.75 3.99594 0.75 8C0.75 12.0041 3.99594 15.25 8 15.25C12.0041 15.25 15.25 12.0041 15.25 8C15.25 3.99594 12.0041 0.75 8 0.75ZM5.99557 5C5.44573 5 5 5.44772 5 6C5 6.55228 5.44573 7 5.99557 7H6.00443C6.55427 7 7 6.55228 7 6C7 5.44772 6.55427 5 6.00443 5H5.99557ZM9.99557 5C9.44573 5 9 5.44772 9 6C9 6.55228 9.44573 7 9.99557 7H10.0044C10.5543 7 11 6.55228 11 6C11 5.44772 10.5543 5 10.0044 5H9.99557ZM5.25 10.5C5.25 8.98122 6.48122 7.75 8 7.75C9.51878 7.75 10.75 8.98122 10.75 10.5C10.75 12.0188 9.51878 13.25 8 13.25C6.48122 13.25 5.25 12.0188 5.25 10.5Z"
            fill="#303233" />
    </g>
    <defs>
        <clipPath id="clip0_1445_156">
            <rect width="16" height="16" fill="white" />
        </clipPath>
    </defs>
</svg>
