<svg width="24" height="24" viewBox="0 0 24 24" fill="none" xmlns="http://www.w3.org/2000/svg">
    <path fill-rule="evenodd" clip-rule="evenodd"
        d="M15.0879 6.6543C15.2682 6.64007 15.5012 6.6373 15.751 6.70899L15.8594 6.74512L16 6.80469C16.2754 6.93536 16.5124 7.13557 16.6865 7.38574L16.7676 7.51465L16.8213 7.61524C16.933 7.84976 16.9678 8.08056 16.9834 8.26074C17.0004 8.45725 17 8.69145 17 8.91699V14C16.9999 15.3806 15.8806 16.5 14.5 16.5C13.1194 16.5 12.0001 15.3806 12 14C12.0001 12.6194 13.1194 11.5 14.5 11.5C14.6712 11.5 14.8385 11.517 15 11.5498V8.91699C15 8.82598 14.9996 8.74827 14.999 8.68067C14.9324 8.69121 14.857 8.70482 14.7676 8.71973L11.167 9.31934C11.102 9.33017 11.0476 9.33938 11 9.34766V15C10.9999 16.3806 9.88062 17.5 8.5 17.5C7.11938 17.5 6.00015 16.3806 6 15C6.00015 13.6194 7.11938 12.5 8.5 12.5C8.6712 12.5 8.83847 12.517 9 12.5498V9.5166C9 9.35126 8.99906 9.17144 9.01074 9.0166C9.02342 8.84916 9.0546 8.6391 9.15332 8.41895C9.28845 8.11789 9.50648 7.86049 9.78125 7.67774C9.98208 7.5443 10.1837 7.47947 10.3467 7.43945C10.4975 7.40245 10.6748 7.37387 10.8379 7.34668L14.4385 6.74609C14.6611 6.709 14.8912 6.66985 15.0879 6.6543ZM8.5 14.5C8.22395 14.5 8.00015 14.724 8 15C8.00015 15.276 8.22395 15.5 8.5 15.5C8.77605 15.5 8.99985 15.276 9 15C8.99985 14.724 8.77605 14.5 8.5 14.5ZM14.5 13.5C14.2239 13.5 14.0001 13.724 14 14C14.0001 14.276 14.224 14.5 14.5 14.5C14.7761 14.5 14.9999 14.276 15 14C14.9999 13.724 14.7761 13.5 14.5 13.5Z"
        fill="#303233" />
    <path fill-rule="evenodd" clip-rule="evenodd"
        d="M15.2412 1C16.0462 0.999988 16.7108 0.999729 17.252 1.04395C17.814 1.08987 18.3311 1.18827 18.8164 1.43555C19.5689 1.81902 20.181 2.43109 20.5645 3.18359C20.8117 3.6689 20.9101 4.18599 20.9561 4.74805C21.0003 5.28924 21 5.95383 21 6.75879V17.2412C21 18.0462 21.0003 18.7108 20.9561 19.252C20.9101 19.814 20.8117 20.3311 20.5645 20.8164C20.181 21.5689 19.5689 22.181 18.8164 22.5645C18.3311 22.8117 17.814 22.9101 17.252 22.9561C16.7108 23.0003 16.0462 23 15.2412 23H8.75879C7.95383 23 7.28924 23.0003 6.74805 22.9561C6.18599 22.9101 5.6689 22.8117 5.18359 22.5645C4.43109 22.181 3.81902 21.5689 3.43555 20.8164C3.18827 20.3311 3.08987 19.814 3.04395 19.252C2.99973 18.7108 2.99999 18.0462 3 17.2412V6.75879C2.99999 5.95382 2.99973 5.28924 3.04395 4.74805C3.08988 4.18599 3.18827 3.6689 3.43555 3.18359C3.81902 2.43109 4.43109 1.81902 5.18359 1.43555C5.6689 1.18827 6.18599 1.08988 6.74805 1.04395C7.28924 0.999729 7.95382 0.999988 8.75879 1H15.2412ZM8.79981 3C7.94342 3 7.36117 3.00035 6.91113 3.03711C6.47272 3.07293 6.2482 3.13808 6.0918 3.21777C5.71555 3.40951 5.40951 3.71555 5.21777 4.0918C5.13808 4.2482 5.07293 4.47272 5.03711 4.91113C5.00035 5.36117 5 5.94342 5 6.79981V17.2002C5 18.0566 5.00035 18.6388 5.03711 19.0889C5.07293 19.5273 5.13808 19.7518 5.21777 19.9082C5.40951 20.2845 5.71555 20.5905 6.0918 20.7822C6.2482 20.8619 6.47272 20.9271 6.91113 20.9629C7.36117 20.9997 7.94342 21 8.79981 21H15.2002C16.0566 21 16.6388 20.9997 17.0889 20.9629C17.5273 20.9271 17.7518 20.8619 17.9082 20.7822C18.2845 20.5905 18.5905 20.2845 18.7822 19.9082C18.8619 19.7518 18.9271 19.5273 18.9629 19.0889C18.9997 18.6388 19 18.0566 19 17.2002V6.79981C19 5.94342 18.9997 5.36117 18.9629 4.91113C18.9271 4.47272 18.8619 4.2482 18.7822 4.0918C18.5905 3.71554 18.2845 3.40951 17.9082 3.21777C17.7518 3.13808 17.5273 3.07293 17.0889 3.03711C16.6388 3.00035 16.0566 3 15.2002 3H8.79981Z"
        fill="#303233" />
</svg>
