<svg width="24" height="24" viewBox="0 0 24 24" fill="none" xmlns="http://www.w3.org/2000/svg">
    <path fill-rule="evenodd" clip-rule="evenodd"
        d="M6 3C4.34315 3 3 4.34315 3 6V7C3 8.65685 4.34315 10 6 10H18C19.6569 10 21 8.65685 21 7V6C21 4.34315 19.6569 3 18 3H6ZM5 6C5 5.44772 5.44772 5 6 5H18C18.5523 5 19 5.44772 19 6V7C19 7.55228 18.5523 8 18 8H6C5.44772 8 5 7.55228 5 7V6Z"
        fill="#303233" />
    <path
        d="M4 20C3.44772 20 3 20.4477 3 21C3 21.5523 3.44772 22 4 22H10C10.5523 22 11 21.5523 11 21C11 20.4477 10.5523 20 10 20H4Z"
        fill="#303233" />
    <path
        d="M3 17C3 16.4477 3.44772 16 4 16H10C10.5523 16 11 16.4477 11 17C11 17.5523 10.5523 18 10 18H4C3.44772 18 3 17.5523 3 17Z"
        fill="#303233" />
    <path
        d="M4 12C3.44772 12 3 12.4477 3 13C3 13.5523 3.44772 14 4 14H10C10.5523 14 11 13.5523 11 13C11 12.4477 10.5523 12 10 12H4Z"
        fill="#303233" />
    <path
        d="M19 15.4142L21.2929 17.7071C21.6834 18.0976 22.3166 18.0976 22.7071 17.7071C23.0976 17.3166 23.0976 16.6834 22.7071 16.2929L18.7071 12.2929C18.3166 11.9024 17.6834 11.9024 17.2929 12.2929L13.2929 16.2929C12.9024 16.6834 12.9024 17.3166 13.2929 17.7071C13.6834 18.0976 14.3166 18.0976 14.7071 17.7071L17 15.4142V21C17 21.5523 17.4477 22 18 22C18.5523 22 19 21.5523 19 21V15.4142Z"
        fill="#303233" />
</svg>
