<svg width="24" height="24" viewBox="0 0 24 24" fill="none" xmlns="http://www.w3.org/2000/svg">
    <path
        d="M21.5306 2.46967C20.1331 1.07221 17.8674 1.0722 16.4699 2.46966L12.2636 6.67594C11.9707 6.96883 11.9707 7.44371 12.2636 7.7366C12.5565 8.02949 13.0314 8.0295 13.3243 7.7366L17.5306 3.53033C18.3422 2.71865 19.6582 2.71865 20.4699 3.53033C21.2816 4.342 21.2816 5.65799 20.4699 6.46967L16.2636 10.6759C15.9707 10.9688 15.9707 11.4437 16.2636 11.7366C16.5565 12.0295 17.0314 12.0295 17.3243 11.7366L21.5306 7.53033C22.928 6.13287 22.928 3.86713 21.5306 2.46967Z"
        fill="#303233" />
    <path fill-rule="evenodd" clip-rule="evenodd"
        d="M2.47016 2.46967C2.76305 2.17678 3.23793 2.17678 3.53082 2.46967L21.5308 20.4697C21.8237 20.7626 21.8237 21.2374 21.5308 21.5303C21.2379 21.8232 20.7631 21.8232 20.4702 21.5303L14.0003 15.0604L8.03035 21.0303C7.93806 21.1226 7.82328 21.1892 7.69736 21.2236L2.19736 22.7236C1.9377 22.7944 1.66 22.7206 1.46969 22.5303C1.27937 22.34 1.20563 22.0623 1.27644 21.8027L2.77644 16.3027C2.81079 16.1767 2.8774 16.062 2.96969 15.9697L8.93959 9.99976L2.47016 3.53033C2.17726 3.23744 2.17726 2.76256 2.47016 2.46967ZM10.0002 11.0604L12.9396 13.9998L7.11052 19.8288L3.06893 20.9311L4.17118 16.8895L10.0002 11.0604Z"
        fill="#303233" />
</svg>
