<svg width="24" height="24" viewBox="0 0 24 24" fill="none" xmlns="http://www.w3.org/2000/svg">
    <path
        d="M17.6931 6.71291C17.6568 6.62511 17.603 6.5428 17.5319 6.47126L17.5303 6.46967L17.5287 6.46808C17.3931 6.33329 17.2063 6.25 17 6.25H7C6.58579 6.25 6.25 6.58579 6.25 7C6.25 7.41421 6.58579 7.75 7 7.75H15.1893L6.46967 16.4697C6.17678 16.7626 6.17678 17.2374 6.46967 17.5303C6.76256 17.8232 7.23744 17.8232 7.53033 17.5303L16.25 8.81066V17C16.25 17.4142 16.5858 17.75 17 17.75C17.4142 17.75 17.75 17.4142 17.75 17V7C17.75 6.89831 17.7298 6.80134 17.6931 6.71291Z"
        fill="#303233" />
</svg>
