<svg width="36" height="24" viewBox="0 0 36 24" fill="none" xmlns="http://www.w3.org/2000/svg">
    <path fill-rule="evenodd" clip-rule="evenodd"
        d="M3.30078 11.973C3.30078 10.4144 3.56204 9.1982 4.08456 8.32432C4.6161 7.44144 5.52601 7 6.81429 7C8.10258 7 9.00799 7.44144 9.53051 8.32432C10.062 9.1982 10.3278 10.4144 10.3278 11.973C10.3278 13.5495 10.062 14.7838 9.53051 15.6757C9.00799 16.5586 8.10258 17 6.81429 17C5.52601 17 4.6161 16.5586 4.08456 15.6757C3.56204 14.7838 3.30078 13.5495 3.30078 11.973ZM8.81429 11.973C8.81429 11.2432 8.76474 10.6261 8.66565 10.1216C8.57556 9.61712 8.38637 9.20721 8.09808 8.89189C7.80979 8.56757 7.38186 8.40541 6.81429 8.40541C6.24673 8.40541 5.8188 8.56757 5.53051 8.89189C5.24222 9.20721 5.04853 9.61712 4.94943 10.1216C4.85934 10.6261 4.81429 11.2432 4.81429 11.973C4.81429 12.7297 4.85934 13.3649 4.94943 13.8784C5.03952 14.3919 5.22871 14.8063 5.517 15.1216C5.81429 15.4369 6.24673 15.5946 6.81429 15.5946C7.38186 15.5946 7.80979 15.4369 8.09808 15.1216C8.39537 14.8063 8.58907 14.3919 8.67916 13.8784C8.76925 13.3649 8.81429 12.7297 8.81429 11.973Z"
        fill="#303233" />
    <path
        d="M17.5566 8.38791H22.1272V7.02356H16.124V12.7675H17.5975C17.734 12.3855 17.9522 12.0853 18.2524 11.867C18.5617 11.6396 18.9391 11.5259 19.3848 11.5259C20.0215 11.5259 20.5036 11.7033 20.831 12.058C21.1585 12.4037 21.3222 12.9039 21.3222 13.5588C21.3222 14.2046 21.1585 14.7231 20.831 15.1142C20.5127 15.5053 20.0306 15.7008 19.3848 15.7008C18.8664 15.7008 18.4343 15.578 18.0887 15.3325C17.743 15.0778 17.5202 14.7367 17.4202 14.3092H15.9057C16.024 15.1187 16.3832 15.7691 16.9836 16.2602C17.5839 16.7514 18.3797 16.997 19.3712 16.997C20.117 16.997 20.7446 16.8469 21.254 16.5467C21.7724 16.2466 22.159 15.8373 22.4137 15.3188C22.6775 14.7913 22.8093 14.191 22.8093 13.5179C22.8093 12.963 22.7047 12.4355 22.4955 11.9352C22.2954 11.435 21.9543 11.0211 21.4723 10.6937C20.9993 10.3662 20.3808 10.2025 19.6168 10.2025C19.1893 10.2025 18.7845 10.2889 18.4025 10.4617C18.0296 10.6345 17.7476 10.8483 17.5566 11.103V8.38791Z"
        fill="#303233" />
    <path
        d="M25.4705 9.71967C25.7633 9.42678 26.2382 9.42678 26.5311 9.71967L29.0008 12.1893L31.4705 9.71967C31.7633 9.42678 32.2382 9.42678 32.5311 9.71967C32.824 10.0126 32.824 10.4874 32.5311 10.7803L30.0614 13.25L32.5311 15.7197C32.824 16.0126 32.824 16.4874 32.5311 16.7803C32.2382 17.0732 31.7633 17.0732 31.4705 16.7803L29.0008 14.3107L26.5311 16.7803C26.2382 17.0732 25.7633 17.0732 25.4705 16.7803C25.1776 16.4874 25.1776 16.0126 25.4705 15.7197L27.9401 13.25L25.4705 10.7803C25.1776 10.4874 25.1776 10.0126 25.4705 9.71967Z"
        fill="#303233" />
    <path
        d="M13.0008 17C13.415 17 13.7508 16.6642 13.7508 16.25C13.7508 15.8358 13.415 15.5 13.0008 15.5C12.5866 15.5 12.2508 15.8358 12.2508 16.25C12.2508 16.6642 12.5866 17 13.0008 17Z"
        fill="#303233" />
</svg>
