<svg width="16" height="16" viewBox="0 0 16 16" fill="none" xmlns="http://www.w3.org/2000/svg">
    <path fill-rule="evenodd" clip-rule="evenodd"
        d="M2.75 5C2.75 3.20507 4.20507 1.75 6 1.75C7.79493 1.75 9.25 3.20507 9.25 5C9.25 6.79493 7.79493 8.25 6 8.25C4.20507 8.25 2.75 6.79493 2.75 5ZM6 3.25C5.0335 3.25 4.25 4.0335 4.25 5C4.25 5.9665 5.0335 6.75 6 6.75C6.9665 6.75 7.75 5.9665 7.75 5C7.75 4.0335 6.9665 3.25 6 3.25Z"
        fill="#303233" />
    <path
        d="M5.99974 10.25C3.9445 10.25 2.22848 11.7096 1.83477 13.6492C1.75237 14.0551 1.35649 14.3174 0.950557 14.235C0.544622 14.1526 0.282346 13.7567 0.364746 13.3508C0.897571 10.7259 3.21706 8.75 5.99974 8.75C8.78241 8.75 11.1019 10.7259 11.6347 13.3508C11.7171 13.7567 11.4549 14.1526 11.0489 14.235C10.643 14.3174 10.2471 14.0551 10.1647 13.6492C9.77099 11.7096 8.05498 10.25 5.99974 10.25Z"
        fill="#303233" />
    <path
        d="M10.2197 5.21967C10.5126 4.92678 10.9874 4.92678 11.2803 5.21967L12.5 6.43934L13.7197 5.21967C14.0126 4.92678 14.4874 4.92678 14.7803 5.21967C15.0732 5.51256 15.0732 5.98744 14.7803 6.28033L13.5607 7.5L14.7803 8.71967C15.0732 9.01256 15.0732 9.48744 14.7803 9.78033C14.4874 10.0732 14.0126 10.0732 13.7197 9.78033L12.5 8.56066L11.2803 9.78033C10.9874 10.0732 10.5126 10.0732 10.2197 9.78033C9.92678 9.48744 9.92678 9.01256 10.2197 8.71967L11.4393 7.5L10.2197 6.28033C9.92678 5.98744 9.92678 5.51256 10.2197 5.21967Z"
        fill="#303233" />
</svg>
