<svg width="16" height="16" viewBox="0 0 16 16" fill="none" xmlns="http://www.w3.org/2000/svg">
    <path
        d="M2.67076 3.67085C2.78015 3.56146 2.92853 3.5 3.08324 3.5H12.9127C13.0674 3.5 13.2157 3.56146 13.3251 3.67085C13.4345 3.78025 13.496 3.92862 13.496 4.08333V11.9167C13.496 12.0714 13.4345 12.2197 13.3251 12.3291C13.2157 12.4385 13.0674 12.5 12.9127 12.5H9.7499C9.33569 12.5 8.9999 12.8358 8.9999 13.25C8.9999 13.6642 9.33569 14 9.7499 14H12.9127C13.4652 14 13.9951 13.7805 14.3858 13.3898C14.7765 12.9991 14.996 12.4692 14.996 11.9167V4.08333C14.996 3.5308 14.7765 3.00089 14.3858 2.61019C13.9951 2.21949 13.4652 2 12.9127 2H3.08324C2.5307 2 2.0008 2.21949 1.6101 2.61019C1.2194 3.00089 0.999904 3.5308 0.999904 4.08333V5.25C0.999904 5.66421 1.33569 6 1.7499 6C2.16412 6 2.4999 5.66421 2.4999 5.25V4.08333C2.4999 3.92862 2.56136 3.78025 2.67076 3.67085Z"
        fill="#303233" />
    <path
        d="M1.83281 7.2046C1.42113 7.15881 1.05029 7.45542 1.0045 7.8671C0.958713 8.27877 1.25532 8.64962 1.667 8.6954C2.85163 8.82716 3.95616 9.3581 4.79898 10.2009C5.64181 11.0437 6.17275 12.1483 6.3045 13.3329C6.35029 13.7446 6.72113 14.0412 7.13281 13.9954C7.54448 13.9496 7.84109 13.5788 7.79531 13.1671C7.62591 11.644 6.94327 10.2239 5.85964 9.14026C4.77601 8.05663 3.3559 7.374 1.83281 7.2046Z"
        fill="#303233" />
    <path
        d="M1.89978 9.91513C1.49392 9.83236 1.0978 10.0943 1.01503 10.5001C0.932258 10.906 1.19417 11.3021 1.60003 11.3849C2.09649 11.4861 2.55222 11.7311 2.91049 12.0894C3.26877 12.4477 3.51378 12.9034 3.61503 13.3999C3.6978 13.8057 4.09392 14.0676 4.49978 13.9849C4.90564 13.9021 5.16755 13.506 5.08478 13.1001C4.92474 12.3154 4.53746 11.5951 3.97115 11.0287C3.40485 10.4624 2.6845 10.0752 1.89978 9.91513Z"
        fill="#303233" />
    <path
        d="M1.75 12.5C1.33579 12.5 1 12.8358 1 13.25C1 13.6642 1.33579 14 1.75 14H1.75667C2.17088 14 2.50667 13.6642 2.50667 13.25C2.50667 12.8358 2.17088 12.5 1.75667 12.5H1.75Z"
        fill="#303233" />
</svg>
