<svg width="24" height="24" viewBox="0 0 24 24" fill="none" xmlns="http://www.w3.org/2000/svg">
    <g clip-path="url(#clip0_53_7004)">
        <path fill-rule="evenodd" clip-rule="evenodd"
            d="M1.53033 0.46967C1.23744 0.176777 0.762563 0.176777 0.46967 0.46967C0.176777 0.762563 0.176777 1.23744 0.46967 1.53033L3.27156 4.33222C1.9863 5.72586 1.25 7.63418 1.25 9.48C1.25 11.2599 1.93945 12.9161 2.91465 14.3699C3.89044 15.8245 5.17929 17.1177 6.45 18.1886C7.72352 19.262 8.99937 20.1293 9.9679 20.7285C10.4527 21.0284 10.8637 21.2632 11.163 21.4247C11.312 21.5052 11.437 21.5695 11.5318 21.6153C11.5781 21.6378 11.624 21.6591 11.665 21.6763C11.6846 21.6845 11.7124 21.6958 11.7435 21.7064C11.7588 21.7116 11.7838 21.7197 11.8143 21.7272C11.8338 21.732 11.9067 21.75 12 21.75C12.0951 21.75 12.1691 21.7314 12.1884 21.7265C12.219 21.7188 12.2448 21.7104 12.2601 21.7052C12.2913 21.6944 12.3195 21.6829 12.3397 21.6743C12.3819 21.6564 12.4296 21.6342 12.4786 21.6103C12.5786 21.5617 12.711 21.4932 12.8693 21.4072C13.1872 21.2347 13.6236 20.9839 14.1364 20.6637C15.0309 20.1051 16.1685 19.3287 17.3198 18.3804L22.4697 23.5303C22.7626 23.8232 23.2374 23.8232 23.5303 23.5303C23.8232 23.2374 23.8232 22.7626 23.5303 22.4697L1.53033 0.46967ZM16.2539 17.3146L4.33334 5.394C3.33416 6.5011 2.75 8.02198 2.75 9.48C2.75 10.8669 3.28832 12.2343 4.16035 13.5342C5.03178 14.8334 6.20959 16.0243 7.41667 17.0417C8.62093 18.0566 9.83397 18.8818 10.7571 19.4529C11.2182 19.7381 11.6037 19.958 11.8756 20.1048C11.9206 20.1291 11.9621 20.1512 12 20.1711C12.046 20.147 12.0973 20.1196 12.1537 20.089C12.4437 19.9315 12.8539 19.6961 13.3419 19.3913C14.1664 18.8765 15.2033 18.17 16.2539 17.3146Z"
            fill="#303233" />
        <path
            d="M12.5709 5.4101C13.2443 4.61961 14.3746 3.75 16.1111 3.75C19.1016 3.75 21.25 6.63854 21.25 9.48C21.25 11.0329 20.5747 12.5606 19.5168 13.9922C19.2707 14.3253 19.3412 14.7949 19.6743 15.0411C20.0074 15.2873 20.4771 15.2167 20.7232 14.8836C21.8879 13.3075 22.75 11.4709 22.75 9.48C22.75 6.06646 20.165 2.25 16.1111 2.25C14.2479 2.25 12.9021 3.01766 12.0001 3.84467C11.2626 3.16817 10.2258 2.52931 8.8441 2.32058C8.43453 2.2587 8.05236 2.54056 7.99048 2.95013C7.92861 3.35969 8.21046 3.74187 8.62003 3.80375C9.94291 4.0036 10.8521 4.73273 11.4291 5.4101C11.5716 5.57738 11.7803 5.67375 12 5.67375C12.2197 5.67375 12.4284 5.57738 12.5709 5.4101Z"
            fill="#303233" />
    </g>
    <defs>
        <clipPath id="clip0_53_7004">
            <rect width="24" height="24" fill="white" />
        </clipPath>
    </defs>
</svg>
