<svg width="24" height="24" viewBox="0 0 24 24" fill="none" xmlns="http://www.w3.org/2000/svg">
    <path
        d="M3.25 6C3.25 5.58579 3.58579 5.25 4 5.25H20C20.4142 5.25 20.75 5.58579 20.75 6C20.75 6.41421 20.4142 6.75 20 6.75H4C3.58579 6.75 3.25 6.41421 3.25 6Z"
        fill="#303233" />
    <path
        d="M3.25 18.75C3.25 18.3358 3.58579 18 4 18H8C8.41421 18 8.75 18.3358 8.75 18.75C8.75 19.1642 8.41421 19.5 8 19.5H4C3.58579 19.5 3.25 19.1642 3.25 18.75Z"
        fill="#303233" />
    <path
        d="M4 12C3.58579 12 3.25 12.3358 3.25 12.75C3.25 13.1642 3.58579 13.5 4 13.5H14C14.4142 13.5 14.75 13.1642 14.75 12.75C14.75 12.3358 14.4142 12 14 12H4Z"
        fill="#303233" />
</svg>
