<svg width="24" height="24" viewBox="0 0 24 24" fill="none" xmlns="http://www.w3.org/2000/svg">
    <path fill-rule="evenodd" clip-rule="evenodd"
        d="M5.45926 4.3986C5.75216 4.6915 5.75216 5.16637 5.45926 5.45926C1.84691 9.07161 1.84691 14.9284 5.45926 18.5407C5.75216 18.8336 5.75216 19.3085 5.45926 19.6014C5.16637 19.8943 4.6915 19.8943 4.3986 19.6014C0.200466 15.4033 0.200466 8.59674 4.3986 4.3986C4.6915 4.10571 5.16637 4.10571 5.45926 4.3986ZM18.5407 4.39865C18.8336 4.10575 19.3085 4.10575 19.6014 4.39865C23.7995 8.59678 23.7995 15.4033 19.6014 19.6014C19.3085 19.8943 18.8336 19.8943 18.5407 19.6014C18.2478 19.3086 18.2478 18.8337 18.5407 18.5408C22.1531 14.9284 22.1531 9.07166 18.5407 5.45931C18.2478 5.16641 18.2478 4.69154 18.5407 4.39865ZM8.28769 7.22699C8.58058 7.51989 8.58058 7.99476 8.28769 8.28765C6.23744 10.3379 6.23744 13.662 8.28769 15.7123C8.58058 16.0052 8.58058 16.48 8.28769 16.7729C7.9948 17.0658 7.51992 17.0658 7.22703 16.7729C4.59099 14.1369 4.59099 9.86303 7.22703 7.22699C7.51992 6.9341 7.9948 6.9341 8.28769 7.22699ZM15.7123 7.22703C16.0052 6.93414 16.4801 6.93414 16.773 7.22703C19.409 9.86307 19.409 14.1369 16.773 16.773C16.4801 17.0659 16.0052 17.0659 15.7123 16.773C15.4194 16.4801 15.4194 16.0052 15.7123 15.7123C17.7626 13.6621 17.7626 10.3379 15.7123 8.28769C15.4194 7.9948 15.4194 7.51992 15.7123 7.22703ZM12 10.75C11.3096 10.75 10.75 11.3096 10.75 12C10.75 12.6904 11.3096 13.25 12 13.25C12.6904 13.25 13.25 12.6904 13.25 12C13.25 11.3096 12.6904 10.75 12 10.75ZM9.25 12C9.25 10.4812 10.4812 9.25 12 9.25C13.5188 9.25 14.75 10.4812 14.75 12C14.75 13.5188 13.5188 14.75 12 14.75C10.4812 14.75 9.25 13.5188 9.25 12Z"
        fill="#303233" />
</svg>
