<svg width="16" height="16" viewBox="0 0 16 16" fill="none" xmlns="http://www.w3.org/2000/svg">
    <path
        d="M8.00003 4.5V8.99998L4.81797 12.182C5.6323 12.9963 6.75728 13.5 7.99989 13.5C10.4852 13.5 12.4999 11.4853 12.4999 9C12.4999 6.51476 10.4852 4.50007 8.00003 4.5Z"
        fill="#303233" />
    <path fill-rule="evenodd" clip-rule="evenodd"
        d="M8 3.5C4.96243 3.5 2.5 5.96243 2.5 9C2.5 12.0376 4.96243 14.5 8 14.5C11.0376 14.5 13.5 12.0376 13.5 9C13.5 5.96243 11.0376 3.5 8 3.5ZM1.5 9C1.5 5.41015 4.41015 2.5 8 2.5C11.5899 2.5 14.5 5.41015 14.5 9C14.5 12.5899 11.5899 15.5 8 15.5C4.41015 15.5 1.5 12.5899 1.5 9Z"
        fill="#303233" />
    <path fill-rule="evenodd" clip-rule="evenodd"
        d="M6.1665 1C6.1665 0.723858 6.39036 0.5 6.6665 0.5H9.33317C9.60931 0.5 9.83317 0.723858 9.83317 1C9.83317 1.27614 9.60931 1.5 9.33317 1.5H6.6665C6.39036 1.5 6.1665 1.27614 6.1665 1Z"
        fill="#303233" />
    <path fill-rule="evenodd" clip-rule="evenodd"
        d="M12.832 2.51818C13.0273 2.32292 13.3438 2.32292 13.5391 2.51818L14.4819 3.46099C14.6772 3.65625 14.6772 3.97283 14.4819 4.1681C14.2866 4.36336 13.9701 4.36336 13.7748 4.1681L12.832 3.22529C12.6367 3.03003 12.6367 2.71344 12.832 2.51818Z"
        fill="#303233" />
</svg>
