<svg width="16" height="16" viewBox="0 0 16 16" fill="none" xmlns="http://www.w3.org/2000/svg">
    <path
        d="M5.00025 7.97341C4.73983 7.88157 4.60318 7.596 4.69502 7.33559C5.18465 5.94725 6.50045 5 7.99647 5C8.99684 5 9.92031 5.42365 10.5686 6.12582L10.6621 5.64465C10.7107 5.39444 10.9381 5.22435 11.186 5.24111L11.2483 5.24925C11.4985 5.29789 11.6686 5.52526 11.6518 5.77315L11.6437 5.83546L11.3064 7.57071C11.2578 7.82092 11.0304 7.99101 10.7825 7.97426L10.7202 7.96611L8.98493 7.62881C8.71387 7.57612 8.53684 7.31367 8.58953 7.04261C8.63817 6.79239 8.86554 6.62231 9.11343 6.63906L9.17574 6.6472L9.80056 6.76872C9.33937 6.28831 8.69417 5.99998 7.99647 5.99998C6.92779 5.99998 5.98773 6.67674 5.63807 7.66818C5.54623 7.92859 5.26067 8.06525 5.00025 7.97341Z"
        fill="#303233" />
    <path
        d="M11.2975 9.66442C11.3893 9.404 11.2527 9.11844 10.9923 9.02659C10.7318 8.93475 10.4463 9.07141 10.3544 9.33182C10.0048 10.3233 9.06471 11 7.99604 11C7.29832 11 6.6531 10.7117 6.19191 10.2312L6.81708 10.3528L6.87939 10.3609C7.12728 10.3777 7.35465 10.2076 7.40329 9.95739C7.45597 9.68632 7.27895 9.42387 7.00788 9.37118L5.27263 9.03388L5.21032 9.02574C4.96243 9.00898 4.73506 9.17907 4.68642 9.42928L4.34912 11.1645L4.34098 11.2268C4.32423 11.4747 4.49431 11.7021 4.74452 11.7507L4.80683 11.7589C5.05472 11.7756 5.28209 11.6056 5.33073 11.3553L5.42398 10.8743C6.07232 11.5764 6.99573 12 7.99604 12C9.49205 12 10.8079 11.0528 11.2975 9.66442Z"
        fill="#303233" />
    <path fill-rule="evenodd" clip-rule="evenodd"
        d="M3 1.75C1.75735 1.75 0.749991 2.75737 0.75 4.00002L0.750056 12C0.750065 13.2427 1.75742 14.25 3.00006 14.25H13.0001C14.2427 14.25 15.2501 13.2426 15.2501 12V5C15.2501 3.75736 14.2427 2.75 13.0001 2.75H9.20712C8.82072 2.75 8.45015 2.59649 8.17694 2.32324C7.80997 1.9562 7.3122 1.75 6.79318 1.75H3ZM2.25015 5C2.25015 4.58579 2.58594 4.25 3.00015 4.25H13.0002C13.4144 4.25 13.7502 4.58579 13.7502 5V12C13.7502 12.4142 13.4144 12.75 13.0002 12.75H3.00015C2.58594 12.75 2.25015 12.4142 2.25015 12V5Z"
        fill="#303233" />
</svg>
