<svg width="24" height="24" viewBox="0 0 24 24" fill="none" xmlns="http://www.w3.org/2000/svg">
    <path fill-rule="evenodd" clip-rule="evenodd"
        d="M12.7674 3.54703C12.316 3.19595 11.684 3.19595 11.2326 3.54703L4.23257 8.99148C3.92809 9.2283 3.75 9.59243 3.75 9.97817V20C3.75 20.3315 3.8817 20.6495 4.11612 20.8839C4.35054 21.1183 4.66848 21.25 5 21.25H19C19.3315 21.25 19.6495 21.1183 19.8839 20.8839C20.1183 20.6495 20.25 20.3315 20.25 20V9.97817C20.25 9.59243 20.0719 9.2283 19.7674 8.99148L12.7674 3.54703ZM10.3117 2.363C11.3047 1.59063 12.6953 1.59063 13.6883 2.363L20.6883 7.80745C21.3582 8.32845 21.75 9.12954 21.75 9.97817V20C21.75 20.7293 21.4603 21.4288 20.9445 21.9445C20.4288 22.4603 19.7293 22.75 19 22.75H5C4.27065 22.75 3.57118 22.4603 3.05546 21.9445C2.53973 21.4288 2.25 20.7293 2.25 20V9.97817C2.25 9.12954 2.6418 8.32845 3.31166 7.80745L10.3117 2.363Z"
        fill="#303233" />
</svg>
