<svg width="16" height="16" viewBox="0 0 16 16" fill="none" xmlns="http://www.w3.org/2000/svg">
    <path
        d="M5.77853 1H10.2215C10.7808 0.999996 11.231 0.999992 11.5954 1.02976C11.9702 1.06039 12.298 1.125 12.6009 1.2793C13.083 1.52497 13.475 1.91698 13.7207 2.39915C13.875 2.70198 13.9396 3.02979 13.9702 3.40464C14 3.76899 14 4.21918 14 4.77851V10.5H10.5C9.67157 10.5 9 11.1716 9 12C9 12.8284 9.67157 13.5 10.5 13.5H13.7684C13.7536 13.5339 13.7377 13.5675 13.7207 13.6009C13.475 14.083 13.083 14.475 12.6009 14.7207C12.298 14.875 11.9702 14.9396 11.5954 14.9702C11.231 15 10.7808 15 10.2215 15H5.77851C5.21918 15 4.76899 15 4.40464 14.9702C4.02979 14.9396 3.70198 14.875 3.39915 14.7207C2.91698 14.475 2.52497 14.083 2.2793 13.6009C2.125 13.298 2.06039 12.9702 2.02976 12.5954C1.99999 12.231 2 11.7808 2 11.2215V4.77853C2 4.21919 1.99999 3.769 2.02976 3.40464C2.06039 3.02979 2.125 2.70198 2.2793 2.39915C2.52497 1.91698 2.91698 1.52497 3.39915 1.2793C3.70198 1.125 4.02979 1.06039 4.40464 1.02976C4.76899 0.999992 5.21919 0.999996 5.77853 1Z"
        fill="#303233" />
    <path
        d="M10.5 11.5C10.2239 11.5 10 11.7239 10 12C10 12.2761 10.2239 12.5 10.5 12.5H14.5C14.7761 12.5 15 12.2761 15 12C15 11.7239 14.7761 11.5 14.5 11.5H10.5Z"
        fill="#303233" />
</svg>
