<svg width="24" height="24" viewBox="0 0 24 24" fill="none" xmlns="http://www.w3.org/2000/svg">
    <path
        d="M3.5 2C2.11929 2 1 3.11929 1 4.5C1 5.88071 2.11929 7 3.5 7H20.5C21.8807 7 23 5.88071 23 4.5C23 3.11929 21.8807 2 20.5 2H3.5Z"
        fill="#303233" />
    <path fill-rule="evenodd" clip-rule="evenodd"
        d="M3.29289 8.29289C3.48043 8.10536 3.73478 8 4 8H20C20.5523 8 21 8.44772 21 9V16.2413C21 17.0463 21 17.7106 20.9558 18.2518C20.9099 18.8139 20.8113 19.3306 20.564 19.816C20.1805 20.5686 19.5686 21.1805 18.816 21.564C18.3306 21.8113 17.8139 21.9099 17.2518 21.9558C16.7106 22 16.0463 22 15.2413 22H8.75873C7.95375 22 7.28937 22 6.74818 21.9558C6.18608 21.9099 5.66937 21.8113 5.18404 21.564C4.43139 21.1805 3.81947 20.5686 3.43598 19.816C3.18868 19.3306 3.09012 18.8139 3.04419 18.2518C2.99998 17.7106 2.99999 17.0463 3 16.2413V9C3 8.73478 3.10536 8.48043 3.29289 8.29289ZM9 13C9 12.4477 9.44772 12 10 12H14C14.5523 12 15 12.4477 15 13C15 13.5523 14.5523 14 14 14H10C9.44772 14 9 13.5523 9 13Z"
        fill="#303233" />
</svg>
