<svg width="24" height="24" viewBox="0 0 24 24" fill="none" xmlns="http://www.w3.org/2000/svg">
    <path
        d="M14 4C14 3.44772 14.4477 3 15 3H20C20.5523 3 21 3.44772 21 4V9C21 9.55228 20.5523 10 20 10C19.4477 10 19 9.55228 19 9V6.41421L5.70711 19.7071C5.31658 20.0976 4.68342 20.0976 4.29289 19.7071C3.90237 19.3166 3.90237 18.6834 4.29289 18.2929L17.5858 5H15C14.4477 5 14 4.55228 14 4Z"
        fill="#303233" />
    <path
        d="M21 15C21 14.4477 20.5523 14 20 14C19.4477 14 19 14.4477 19 15V17.5858L15.7071 14.2929C15.3166 13.9024 14.6834 13.9024 14.2929 14.2929C13.9024 14.6834 13.9024 15.3166 14.2929 15.7071L17.5858 19H15C14.4477 19 14 19.4477 14 20C14 20.5523 14.4477 21 15 21H20C20.5523 21 21 20.5523 21 20V15Z"
        fill="#303233" />
    <path
        d="M5.70711 4.29289C5.31658 3.90237 4.68342 3.90237 4.29289 4.29289C3.90237 4.68342 3.90237 5.31658 4.29289 5.70711L8.29289 9.70711C8.68342 10.0976 9.31658 10.0976 9.70711 9.70711C10.0976 9.31658 10.0976 8.68342 9.70711 8.29289L5.70711 4.29289Z"
        fill="#303233" />
</svg>
