<svg width="24" height="24" viewBox="0 0 24 24" fill="none" xmlns="http://www.w3.org/2000/svg">
    <g clip-path="url(#clip0_53_4149)">
        <path
            d="M7.7587 2H8C8.55229 2 9 2.44772 9 3C9 3.55229 8.55229 4 8 4H7.8C6.94342 4 6.36113 4.00078 5.91104 4.03755C5.47262 4.07337 5.24842 4.1383 5.09202 4.21799C4.7157 4.40973 4.40973 4.7157 4.21799 5.09202C4.1383 5.24842 4.07337 5.47262 4.03755 5.91104C4.00078 6.36113 4 6.94342 4 7.8V8C4 8.55229 3.55229 9 3 9C2.44772 9 2 8.55229 2 8V7.7587C1.99999 6.95374 1.99998 6.28937 2.04419 5.74818C2.09012 5.18608 2.18868 4.66937 2.43598 4.18404C2.81947 3.43139 3.43139 2.81947 4.18404 2.43598C4.66937 2.18868 5.18608 2.09012 5.74818 2.04419C6.28937 1.99998 6.95374 1.99999 7.7587 2Z"
            fill="#303233" />
        <path
            d="M18.089 4.03755C17.6389 4.00078 17.0566 4 16.2 4H16C15.4477 4 15 3.55229 15 3C15 2.44772 15.4477 2 16 2H16.2413C17.0463 1.99999 17.7106 1.99998 18.2518 2.04419C18.8139 2.09012 19.3306 2.18868 19.816 2.43598C20.5686 2.81947 21.1805 3.43139 21.564 4.18404C21.8113 4.66937 21.9099 5.18608 21.9558 5.74818C22 6.28936 22 6.95372 22 7.75868V8C22 8.55229 21.5523 9 21 9C20.4477 9 20 8.55229 20 8V7.8C20 6.94342 19.9992 6.36113 19.9624 5.91104C19.9266 5.47262 19.8617 5.24842 19.782 5.09202C19.5903 4.7157 19.2843 4.40974 18.908 4.21799C18.7516 4.1383 18.5274 4.07337 18.089 4.03755Z"
            fill="#303233" />
        <path
            d="M3 15C3.55229 15 4 15.4477 4 16V16.2C4 17.0566 4.00078 17.6389 4.03755 18.089C4.07337 18.5274 4.1383 18.7516 4.21799 18.908C4.40974 19.2843 4.7157 19.5903 5.09202 19.782C5.24842 19.8617 5.47262 19.9266 5.91104 19.9624C6.36113 19.9992 6.94342 20 7.8 20H8C8.55229 20 9 20.4477 9 21C9 21.5523 8.55229 22 8 22H7.75868C6.95372 22 6.28937 22 5.74818 21.9558C5.18608 21.9099 4.66937 21.8113 4.18404 21.564C3.43139 21.1805 2.81947 20.5686 2.43598 19.816C2.18868 19.3306 2.09012 18.8139 2.04419 18.2518C1.99998 17.7106 1.99999 17.0463 2 16.2413V16C2 15.4477 2.44772 15 3 15Z"
            fill="#303233" />
        <path fill-rule="evenodd" clip-rule="evenodd"
            d="M18 15C16.3431 15 15 16.3431 15 18C15 19.6569 16.3431 21 18 21C19.6569 21 21 19.6569 21 18C21 16.3431 19.6569 15 18 15ZM17 18C17 17.4477 17.4477 17 18 17C18.5523 17 19 17.4477 19 18C19 18.5523 18.5523 19 18 19C17.4477 19 17 18.5523 17 18Z"
            fill="#303233" />
        <path fill-rule="evenodd" clip-rule="evenodd"
            d="M15.3639 12H20.6361C21.0252 12 21.3753 12 21.6666 12.0238C21.9786 12.0492 22.3101 12.1069 22.635 12.2725C23.1054 12.5122 23.4878 12.8946 23.7275 13.365C23.8931 13.6899 23.9508 14.0214 23.9762 14.3334C24 14.6247 24 14.9748 24 15.3639V20.6361C24 21.0252 24 21.3753 23.9762 21.6666C23.9508 21.9786 23.8931 22.3101 23.7275 22.635C23.4878 23.1054 23.1054 23.4878 22.635 23.7275C22.3101 23.8931 21.9786 23.9508 21.6666 23.9762C21.3753 24 21.0252 24 20.6361 24H15.3639C14.9748 24 14.6247 24 14.3334 23.9762C14.0214 23.9508 13.6899 23.8931 13.365 23.7275C12.8946 23.4878 12.5122 23.1054 12.2725 22.635C12.1069 22.3101 12.0492 21.9786 12.0238 21.6666C12 21.3753 12 21.0252 12 20.6361V15.3639C12 14.9748 12 14.6247 12.0238 14.3334C12.0492 14.0214 12.1069 13.6899 12.2725 13.365C12.5122 12.8946 12.8946 12.5122 13.365 12.2725C13.6899 12.1069 14.0214 12.0492 14.3334 12.0238C14.6247 12 14.9748 12 15.3639 12ZM14.2808 14.0513C14.2756 14.0532 14.2734 14.0543 14.273 14.0545C14.1789 14.1024 14.1024 14.1789 14.0545 14.273C14.0543 14.2734 14.0532 14.2756 14.0513 14.2808C14.0494 14.2862 14.0462 14.2962 14.0423 14.3125C14.0343 14.3467 14.0247 14.4031 14.0171 14.4962C14.0008 14.6962 14 14.9635 14 15.4V20.6C14 21.0365 14.0008 21.3038 14.0171 21.5038C14.0247 21.5969 14.0343 21.6533 14.0423 21.6875C14.0462 21.7038 14.0494 21.7138 14.0513 21.7192L14.0535 21.7248L14.0545 21.727C14.1024 21.8211 14.1789 21.8976 14.273 21.9455C14.2734 21.9457 14.2756 21.9468 14.2808 21.9487C14.2862 21.9506 14.2962 21.9538 14.3125 21.9577C14.3467 21.9657 14.4031 21.9753 14.4962 21.9829C14.6962 21.9992 14.9635 22 15.4 22H20.6C21.0365 22 21.3038 21.9992 21.5038 21.9829C21.5969 21.9753 21.6533 21.9657 21.6875 21.9577C21.7038 21.9538 21.7138 21.9506 21.7192 21.9487C21.7244 21.9468 21.7266 21.9457 21.727 21.9455C21.8211 21.8976 21.8976 21.8211 21.9455 21.727L21.9462 21.7255L21.9487 21.7192C21.9506 21.7138 21.9538 21.7038 21.9577 21.6875C21.9657 21.6533 21.9753 21.5969 21.9829 21.5038C21.9992 21.3038 22 21.0365 22 20.6V15.4C22 14.9635 21.9992 14.6962 21.9829 14.4962C21.9753 14.4031 21.9657 14.3467 21.9577 14.3125C21.9538 14.2962 21.9506 14.2862 21.9487 14.2808C21.9468 14.2756 21.9457 14.2734 21.9455 14.273C21.8976 14.1789 21.8211 14.1024 21.727 14.0545C21.7268 14.0544 21.7261 14.0541 21.7248 14.0535C21.7236 14.053 21.7218 14.0522 21.7192 14.0513C21.7138 14.0494 21.7038 14.0462 21.6875 14.0423C21.6533 14.0343 21.5969 14.0247 21.5038 14.0171C21.3038 14.0008 21.0365 14 20.6 14H15.4C14.9635 14 14.6962 14.0008 14.4962 14.0171C14.4031 14.0247 14.3467 14.0343 14.3125 14.0423C14.2962 14.0462 14.2862 14.0494 14.2808 14.0513Z"
            fill="#303233" />
    </g>
    <defs>
        <clipPath id="clip0_53_4149">
            <rect width="24" height="24" fill="white" />
        </clipPath>
    </defs>
</svg>
