<svg width="16" height="16" viewBox="0 0 16 16" fill="none" xmlns="http://www.w3.org/2000/svg">
    <path fill-rule="evenodd" clip-rule="evenodd"
        d="M3 1C3.27614 1 3.5 1.22386 3.5 1.5L3.5 4.5C3.5 4.77614 3.27614 5 3 5C2.72386 5 2.5 4.77614 2.5 4.5L2.5 1.5C2.5 1.22386 2.72386 1 3 1ZM8 1C8.27614 1 8.5 1.22386 8.5 1.5V4.06301C9.36261 4.28503 10 5.06808 10 6C10 7.10457 9.10457 8 8 8C6.89543 8 6 7.10457 6 6C6 5.06808 6.63739 4.28503 7.5 4.06301V1.5C7.5 1.22386 7.72386 1 8 1ZM13 1C13.2761 1 13.5 1.22386 13.5 1.5V6C13.5 6.27614 13.2761 6.5 13 6.5C12.7239 6.5 12.5 6.27614 12.5 6V1.5C12.5 1.22386 12.7239 1 13 1ZM8 5C7.44772 5 7 5.44771 7 6C7 6.55228 7.44772 7 8 7C8.55228 7 9 6.55228 9 6C9 5.44771 8.55229 5 8 5ZM3 8C2.44771 8 2 8.44771 2 9C2 9.55228 2.44772 10 3 10C3.55228 10 4 9.55228 4 9C4 8.44772 3.55229 8 3 8ZM1 9C1 7.89543 1.89543 7 3 7C4.10457 7 5 7.89543 5 9C5 9.93192 4.36261 10.715 3.5 10.937V14.5C3.5 14.7761 3.27614 15 3 15C2.72386 15 2.5 14.7761 2.5 14.5V10.937C1.63739 10.715 1 9.93192 1 9ZM13 9.5C12.4477 9.5 12 9.94772 12 10.5C12 11.0523 12.4477 11.5 13 11.5C13.5523 11.5 14 11.0523 14 10.5C14 9.94771 13.5523 9.5 13 9.5ZM11 10.5C11 9.39543 11.8954 8.5 13 8.5C14.1046 8.5 15 9.39543 15 10.5C15 11.4319 14.3626 12.215 13.5 12.437V14.5C13.5 14.7761 13.2761 15 13 15C12.7239 15 12.5 14.7761 12.5 14.5V12.437C11.6374 12.215 11 11.4319 11 10.5ZM8 10C8.27614 10 8.5 10.2239 8.5 10.5V14.5C8.5 14.7761 8.27614 15 8 15C7.72386 15 7.5 14.7761 7.5 14.5V10.5C7.5 10.2239 7.72386 10 8 10Z"
        fill="#303233" />
</svg>
