<svg width="24" height="24" viewBox="0 0 24 24" fill="none" xmlns="http://www.w3.org/2000/svg">
    <path
        d="M4.47353 2H19.5265C19.7365 1.99998 19.9412 1.99996 20.1152 2.01184C20.3056 2.02483 20.5313 2.0553 20.7654 2.15225C21.2554 2.35523 21.6448 2.74458 21.8478 3.23464C21.9447 3.46868 21.9752 3.69441 21.9882 3.88478C22 4.05882 22 4.26338 22 4.47337V4.52648C22 4.73647 22 4.94119 21.9882 5.11523C21.9752 5.3056 21.9447 5.53133 21.8478 5.76537C21.6448 6.25543 21.2554 6.64478 20.7654 6.84776C20.5313 6.94471 20.3056 6.97518 20.1152 6.98817C19.9411 7.00005 19.7365 7.00003 19.5265 7.00001H4.47353C4.26348 7.00003 4.05886 7.00005 3.88478 6.98817C3.69441 6.97518 3.46868 6.94471 3.23464 6.84776C2.74458 6.64478 2.35523 6.25543 2.15225 5.76537C2.0553 5.53133 2.02483 5.3056 2.01184 5.11523C1.99996 4.94117 1.99998 4.73658 2 4.52657V4.47353C1.99998 4.26352 1.99996 4.05884 2.01184 3.88478C2.02483 3.69441 2.0553 3.46868 2.15225 3.23464C2.35523 2.74458 2.74458 2.35523 3.23464 2.15225C3.46868 2.0553 3.69441 2.02483 3.88478 2.01184C4.05884 1.99996 4.26352 1.99998 4.47353 2Z"
        fill="#303233" />
    <path
        d="M4.47353 9H19.5265C19.7365 8.99998 19.9411 8.99996 20.1152 9.01184C20.3056 9.02483 20.5313 9.0553 20.7654 9.15225C21.2554 9.35523 21.6448 9.74458 21.8478 10.2346C21.9447 10.4687 21.9752 10.6944 21.9882 10.8848C22 11.0588 22 11.2634 22 11.4734V11.5265C22 11.7365 22 11.9412 21.9882 12.1152C21.9752 12.3056 21.9447 12.5313 21.8478 12.7654C21.6448 13.2554 21.2554 13.6448 20.7654 13.8478C20.5313 13.9447 20.3056 13.9752 20.1152 13.9882C19.9411 14 19.7365 14 19.5265 14H4.47353C4.26348 14 4.05886 14 3.88478 13.9882C3.69441 13.9752 3.46868 13.9447 3.23464 13.8478C2.74458 13.6448 2.35523 13.2554 2.15225 12.7654C2.0553 12.5313 2.02483 12.3056 2.01184 12.1152C1.99996 11.9412 1.99998 11.7366 2 11.5266V11.4735C1.99998 11.2635 1.99996 11.0588 2.01184 10.8848C2.02483 10.6944 2.0553 10.4687 2.15225 10.2346C2.35523 9.74458 2.74458 9.35523 3.23464 9.15225C3.46868 9.0553 3.69441 9.02483 3.88478 9.01184C4.05886 8.99996 4.26349 8.99998 4.47353 9Z"
        fill="#303233" />
    <path
        d="M4.47353 16C4.2635 16 4.05885 16 3.88478 16.0118C3.69441 16.0248 3.46868 16.0553 3.23464 16.1522C2.74458 16.3552 2.35523 16.7446 2.15225 17.2346C2.0553 17.4687 2.02483 17.6944 2.01184 17.8848C1.99996 18.0588 1.99998 18.2634 2 18.4734V18.5265C1.99998 18.7365 1.99996 18.9412 2.01184 19.1152C2.02483 19.3056 2.0553 19.5313 2.15225 19.7654C2.35523 20.2554 2.74458 20.6448 3.23464 20.8478C3.46868 20.9447 3.69441 20.9752 3.88478 20.9882C4.05886 21 4.26348 21 4.47353 21H19.5265C19.7365 21 19.9411 21 20.1152 20.9882C20.3056 20.9752 20.5313 20.9447 20.7654 20.8478C21.2554 20.6448 21.6448 20.2554 21.8478 19.7654C21.9447 19.5313 21.9752 19.3056 21.9882 19.1152C22 18.9412 22 18.7366 22 18.5266V18.4735C22 18.2635 22 18.0588 21.9882 17.8848C21.9752 17.6944 21.9447 17.4687 21.8478 17.2346C21.6448 16.7446 21.2554 16.3552 20.7654 16.1522C20.5313 16.0553 20.3056 16.0248 20.1152 16.0118C19.9412 16 19.7365 16 19.5265 16H4.47353Z"
        fill="#303233" />
</svg>
