<svg width="16" height="16" viewBox="0 0 16 16" fill="none" xmlns="http://www.w3.org/2000/svg">
    <path
        d="M3 1.75C1.75735 1.75 0.749991 2.75737 0.75 4.00002L0.750056 12C0.750065 13.2427 1.75742 14.25 3.00006 14.25H9.25C9.66421 14.25 10 13.9142 10 13.5C10 13.0858 9.66421 12.75 9.25 12.75L9.24829 12.75H3.00015C2.58594 12.75 2.25015 12.4142 2.25015 12V5C2.25015 4.58579 2.58594 4.25 3.00015 4.25H13.0002C13.4144 4.25 13.7502 4.58579 13.7502 5V7.98477L13.75 8C13.75 8.41421 14.0858 8.75 14.5 8.75C14.9142 8.75 15.2501 8.41421 15.2501 8V5C15.2501 3.75736 14.2427 2.75 13.0001 2.75H9.20712C8.82072 2.75 8.45015 2.59649 8.17694 2.32324C7.80997 1.9562 7.3122 1.75 6.79318 1.75H3Z"
        fill="#303233" />
    <path
        d="M10.5 11C10.5 10.5858 10.8358 10.25 11.25 10.25H15.25C15.6642 10.25 16 10.5858 16 11C16 11.4142 15.6642 11.75 15.25 11.75H11.25C10.8358 11.75 10.5 11.4142 10.5 11Z"
        fill="#303233" />
</svg>
