<svg width="24" height="24" viewBox="0 0 24 24" fill="none" xmlns="http://www.w3.org/2000/svg">
    <path fill-rule="evenodd" clip-rule="evenodd"
        d="M8 2.25C8.41421 2.25 8.75 2.58579 8.75 3V3.2321C8.75001 4.04494 8.75001 4.70056 8.70664 5.23147C8.66197 5.77811 8.56762 6.25825 8.34127 6.70246C7.98175 7.40807 7.40807 7.98175 6.70246 8.34127C6.25825 8.56762 5.77811 8.66197 5.23147 8.70664C4.70056 8.75001 4.04494 8.75001 3.2321 8.75H3C2.58579 8.75 2.25 8.41421 2.25 8C2.25 7.58579 2.58579 7.25 3 7.25H3.2C4.05245 7.25 4.64669 7.24942 5.10932 7.21162C5.5632 7.17454 5.82396 7.1054 6.02148 7.00476C6.44484 6.78905 6.78905 6.44484 7.00476 6.02148C7.1054 5.82396 7.17454 5.5632 7.21162 5.10932C7.24942 4.64669 7.25 4.05245 7.25 3.2V3C7.25 2.58579 7.58579 2.25 8 2.25ZM16 2.25C16.4142 2.25 16.75 2.58579 16.75 3V3.2C16.75 4.05245 16.7506 4.64669 16.7884 5.10932C16.8255 5.5632 16.8946 5.82396 16.9952 6.02148C17.2109 6.44484 17.5552 6.78905 17.9785 7.00476C18.176 7.1054 18.4368 7.17454 18.8907 7.21162C19.3533 7.24942 19.9475 7.25 20.8 7.25H21C21.4142 7.25 21.75 7.58579 21.75 8C21.75 8.41421 21.4142 8.75 21 8.75H20.7679C19.9551 8.75001 19.2994 8.75001 18.7685 8.70664C18.2219 8.66197 17.7418 8.56762 17.2975 8.34127C16.5919 7.98175 16.0183 7.40807 15.6587 6.70246C15.4324 6.25825 15.338 5.77811 15.2934 5.23147C15.25 4.70056 15.25 4.04495 15.25 3.23212V3C15.25 2.58579 15.5858 2.25 16 2.25ZM2.25 16C2.25 15.5858 2.58579 15.25 3 15.25H3.23212C4.04495 15.25 4.70056 15.25 5.23147 15.2934C5.77811 15.338 6.25825 15.4324 6.70246 15.6587C7.40807 16.0183 7.98175 16.5919 8.34127 17.2975C8.56762 17.7418 8.66197 18.2219 8.70664 18.7685C8.75001 19.2994 8.75001 19.9551 8.75 20.7679V21C8.75 21.4142 8.41421 21.75 8 21.75C7.58579 21.75 7.25 21.4142 7.25 21V20.8C7.25 19.9475 7.24942 19.3533 7.21162 18.8907C7.17454 18.4368 7.1054 18.176 7.00476 17.9785C6.78905 17.5552 6.44484 17.211 6.02148 16.9952C5.82396 16.8946 5.5632 16.8255 5.10932 16.7884C4.64669 16.7506 4.05245 16.75 3.2 16.75H3C2.58579 16.75 2.25 16.4142 2.25 16ZM20.7679 15.25H21C21.4142 15.25 21.75 15.5858 21.75 16C21.75 16.4142 21.4142 16.75 21 16.75H20.8C19.9475 16.75 19.3533 16.7506 18.8907 16.7884C18.4368 16.8255 18.176 16.8946 17.9785 16.9952C17.5552 17.211 17.2109 17.5552 16.9952 17.9785C16.8946 18.176 16.8255 18.4368 16.7884 18.8907C16.7506 19.3533 16.75 19.9475 16.75 20.8V21C16.75 21.4142 16.4142 21.75 16 21.75C15.5858 21.75 15.25 21.4142 15.25 21V20.7679C15.25 19.955 15.25 19.2994 15.2934 18.7685C15.338 18.2219 15.4324 17.7418 15.6587 17.2975C16.0183 16.5919 16.5919 16.0183 17.2975 15.6587C17.7418 15.4324 18.2219 15.338 18.7685 15.2934C19.2994 15.25 19.955 15.25 20.7679 15.25Z"
        fill="#303233" />
</svg>
