<svg width="16" height="16" viewBox="0 0 16 16" fill="none" xmlns="http://www.w3.org/2000/svg">
    <path
        d="M7.0556 8.59723C6.55702 8.59723 6.15283 9.00141 6.15283 9.5C6.15283 9.99859 6.55702 10.4028 7.0556 10.4028C7.55419 10.4028 7.95838 9.99859 7.95838 9.5C7.95838 9.00141 7.55419 8.59723 7.0556 8.59723Z"
        fill="#303233" />
    <path
        d="M9.50005 8.59723C9.00146 8.59723 8.59727 9.00141 8.59727 9.5C8.59727 9.99859 9.00146 10.4028 9.50005 10.4028C9.99864 10.4028 10.4028 9.9986 10.4028 9.5C10.4028 9.00141 9.99864 8.59723 9.50005 8.59723Z"
        fill="#303233" />
    <path
        d="M11.9445 8.59723C11.4459 8.59723 11.0417 9.00141 11.0417 9.5C11.0417 9.9986 11.4459 10.4028 11.9445 10.4028C12.4431 10.4028 12.8473 9.9986 12.8473 9.5C12.8473 9.00141 12.4431 8.59723 11.9445 8.59723Z"
        fill="#303233" />
    <path fill-rule="evenodd" clip-rule="evenodd"
        d="M3.09983 2.75C2.7515 2.74999 2.44599 2.74997 2.19339 2.77061C1.92523 2.79252 1.6513 2.84138 1.3857 2.97671C0.994325 3.17613 0.676125 3.49433 0.476709 3.8857C0.341378 4.1513 0.292523 4.42523 0.270613 4.69339C0.249974 4.94599 0.249987 5.25146 0.250001 5.59979V7.40018C0.249987 7.7485 0.249974 8.05401 0.270613 8.30662C0.292523 8.57478 0.341378 8.8487 0.476709 9.1143C0.676125 9.50568 0.994325 9.82388 1.3857 10.0233C1.6513 10.1586 1.92523 10.2075 2.19339 10.2294C2.446 10.25 2.75148 10.25 3.09981 10.25L3.25001 10.25L3.25 10.5721C3.24999 10.8907 3.24997 11.1736 3.26915 11.4083C3.28959 11.6585 3.3355 11.9191 3.46496 12.1732C3.65405 12.5442 3.95576 12.846 4.32685 13.035C4.58093 13.1645 4.84154 13.2104 5.09173 13.2309C5.3264 13.25 5.60934 13.25 5.92793 13.25H13.0721C13.3907 13.25 13.6736 13.25 13.9083 13.2309C14.1585 13.2104 14.4191 13.1645 14.6732 13.035C15.0442 12.846 15.346 12.5442 15.535 12.1732C15.6645 11.9191 15.7104 11.6585 15.7309 11.4083C15.75 11.1736 15.75 10.8907 15.75 10.5721L15.75 8.42791C15.7501 8.10932 15.7501 7.8264 15.7309 7.59173C15.7105 7.34154 15.6645 7.08093 15.5351 6.82686C15.346 6.45576 15.0443 6.15405 14.6732 5.96496C14.4191 5.8355 14.1585 5.78959 13.9083 5.76915C13.6736 5.74997 13.3907 5.74999 13.0721 5.75H12.75V5.59985C12.75 5.2515 12.75 4.94601 12.7294 4.69339C12.7075 4.42523 12.6586 4.1513 12.5233 3.8857C12.3239 3.49433 12.0057 3.17613 11.6143 2.97671C11.3487 2.84138 11.0748 2.79252 10.8066 2.77061C10.554 2.74997 10.2485 2.74999 9.90022 2.75H3.09983ZM11.25 5.75V5.628C11.25 5.24319 11.2494 4.99969 11.2344 4.81553C11.22 4.64014 11.1964 4.58559 11.1868 4.56669C11.1312 4.45755 11.0425 4.36883 10.9333 4.31322C10.9144 4.30359 10.8599 4.27996 10.6845 4.26563C10.5003 4.25059 10.2568 4.25 9.872 4.25H3.128C2.74319 4.25 2.49969 4.25059 2.31553 4.26563C2.14014 4.27996 2.08559 4.30359 2.06669 4.31322C1.95755 4.36883 1.86883 4.45755 1.81322 4.56669C1.80359 4.58559 1.77996 4.64014 1.76563 4.81553C1.75059 4.99969 1.75 5.24319 1.75 5.628V7.372C1.75 7.75681 1.75059 8.00031 1.76563 8.18447C1.77996 8.35987 1.80359 8.41442 1.81322 8.43332C1.86883 8.54245 1.95755 8.63118 2.06669 8.68679C2.08559 8.69642 2.14014 8.72004 2.31554 8.73437C2.49969 8.74942 2.74319 8.75 3.128 8.75H3.25004L3.25005 8.42793C3.25003 8.10934 3.25002 7.8264 3.26919 7.59173C3.28963 7.34154 3.33555 7.08093 3.46501 6.82685C3.65409 6.45576 3.9558 6.15405 4.3269 5.96496C4.58098 5.8355 4.84159 5.78959 5.09178 5.76915C5.32645 5.74997 5.60938 5.74999 5.92797 5.75L11.25 5.75ZM5.00789 7.30147C5.01526 7.29772 5.0565 7.27703 5.21392 7.26416C5.38011 7.25059 5.60097 7.25 5.9556 7.25H13.0445C13.3991 7.25 13.62 7.25059 13.7862 7.26416C13.9436 7.27703 13.9848 7.29772 13.9922 7.30147C14.0811 7.34675 14.1533 7.41899 14.1986 7.50784C14.2023 7.51521 14.223 7.55645 14.2359 7.71388C14.2495 7.88006 14.25 8.10094 14.25 8.45556L14.25 10.5444C14.25 10.8991 14.2494 11.1199 14.2358 11.2861C14.223 11.4436 14.2023 11.4848 14.1985 11.4922C14.1533 11.581 14.081 11.6533 13.9922 11.6985C13.9848 11.7023 13.9436 11.723 13.7861 11.7358C13.6199 11.7494 13.3991 11.75 13.0444 11.75H5.95556C5.60093 11.75 5.38006 11.7494 5.21388 11.7358C5.05645 11.723 5.01521 11.7023 5.00784 11.6985C4.91899 11.6533 4.84675 11.581 4.80147 11.4922C4.79772 11.4848 4.77703 11.4436 4.76416 11.2861C4.75059 11.1199 4.75 10.8991 4.75 10.5444L4.75005 8.45556C4.75005 8.10093 4.75063 7.88006 4.76421 7.71388C4.77707 7.55645 4.79776 7.51521 4.80152 7.50784C4.84679 7.41899 4.91903 7.34675 5.00789 7.30147Z"
        fill="#303233" />
</svg>
