<svg width="16" height="16" viewBox="0 0 16 16" fill="none" xmlns="http://www.w3.org/2000/svg">
    <path
        d="M11.0001 3.25C11.4143 3.25 11.7501 3.58579 11.7501 4V6C11.7501 6.41421 11.4143 6.75 11.0001 6.75C10.5858 6.75 10.2501 6.41421 10.2501 6V4C10.2501 3.58579 10.5858 3.25 11.0001 3.25Z"
        fill="#303233" />
    <path
        d="M9.75006 4C9.75006 3.58579 9.41427 3.25 9.00006 3.25C8.58584 3.25 8.25006 3.58579 8.25006 4V6C8.25006 6.41421 8.58584 6.75 9.00006 6.75C9.41427 6.75 9.75006 6.41421 9.75006 6V4Z"
        fill="#303233" />
    <path
        d="M7.00006 3.25C7.41427 3.25 7.75006 3.58579 7.75006 4V6C7.75006 6.41421 7.41427 6.75 7.00006 6.75C6.58584 6.75 6.25006 6.41421 6.25006 6V4C6.25006 3.58579 6.58584 3.25 7.00006 3.25Z"
        fill="#303233" />
    <path
        d="M5.75006 5C5.75006 4.58579 5.41427 4.25 5.00006 4.25C4.58584 4.25 4.25006 4.58579 4.25006 5V6C4.25006 6.41421 4.58584 6.75 5.00006 6.75C5.41427 6.75 5.75006 6.41421 5.75006 6V5Z"
        fill="#303233" />
    <path fill-rule="evenodd" clip-rule="evenodd"
        d="M10.4246 15.25C10.9423 15.25 11.3759 15.25 11.7305 15.2209C12.1008 15.1905 12.4506 15.1246 12.7819 14.9551C13.2885 14.6958 13.6998 14.2823 13.9574 13.7745C14.1256 13.4429 14.1909 13.0928 14.2211 12.7216C14.2501 12.3658 14.2501 11.9305 14.2501 11.4102V4.5898C14.2501 4.06945 14.2501 3.6342 14.2211 3.27844C14.1909 2.90716 14.1256 2.55706 13.9574 2.22545C13.6998 1.71769 13.2885 1.30423 12.7819 1.04491C12.4506 0.875347 12.1008 0.809473 11.7305 0.779077C11.3759 0.749976 10.9423 0.749985 10.4246 0.749996L6.30318 0.749967C5.89821 0.749717 5.57542 0.749518 5.26336 0.824779C4.98846 0.891076 4.72577 1.0004 4.48492 1.14866C4.21163 1.3169 3.98387 1.54598 3.6976 1.83389L2.82781 2.70763C2.54101 2.99539 2.31311 3.22405 2.14584 3.49826C1.99851 3.73977 1.89 4.00296 1.82423 4.27816C1.74959 4.59048 1.74978 4.91356 1.75003 5.32086L1.75006 11.4102C1.75005 11.9305 1.75004 12.3658 1.77897 12.7216C1.80917 13.0928 1.87455 13.4429 2.04275 13.7745C2.3003 14.2823 2.71159 14.6958 3.21824 14.9551C3.54951 15.1246 3.89928 15.1905 4.26963 15.2209C4.6242 15.25 5.05784 15.25 5.57554 15.25H10.4246ZM5.61503 2.28297C5.7316 2.25486 5.86415 2.25 6.37479 2.25H10.3942C10.9502 2.25 11.3219 2.25059 11.6078 2.27405C11.8848 2.29679 12.0145 2.33718 12.0984 2.38016C12.3223 2.49474 12.5049 2.67791 12.6196 2.90398C12.663 2.9895 12.7034 3.12099 12.7261 3.40004C12.7495 3.68775 12.7501 4.06163 12.7501 4.62V11.38C12.7501 11.9384 12.7495 12.3122 12.7261 12.6C12.7034 12.879 12.663 13.0105 12.6196 13.096C12.5049 13.3221 12.3223 13.5052 12.0984 13.6198C12.0145 13.6628 11.8848 13.7032 11.6078 13.7259C11.3219 13.7494 10.9502 13.75 10.3942 13.75H5.60632C5.05031 13.75 4.67823 13.7494 4.39233 13.7259C4.11528 13.7032 3.98565 13.6628 3.90168 13.6198C3.67781 13.5052 3.49518 13.3221 3.38051 13.096C3.33713 13.0105 3.29673 12.879 3.27403 12.6C3.25063 12.3122 3.25006 11.9384 3.25006 11.38V5.39234C3.25006 4.87984 3.25483 4.7453 3.28315 4.62683C3.31248 4.50409 3.36084 4.38685 3.42638 4.27942C3.48951 4.17593 3.58044 4.07778 3.94128 3.7153L4.71013 2.94295C5.07112 2.58032 5.16865 2.4892 5.27126 2.42603C5.37777 2.36046 5.49379 2.31221 5.61503 2.28297Z"
        fill="#303233" />
</svg>
