<svg width="24" height="24" viewBox="0 0 24 24" fill="none" xmlns="http://www.w3.org/2000/svg">
    <path
        d="M8.7587 1H15.2413C16.0463 0.999988 16.7106 0.999979 17.2518 1.0442C17.8139 1.09012 18.3306 1.18868 18.816 1.43598C19.5686 1.81947 20.1805 2.43139 20.564 3.18404C20.8113 3.66938 20.9099 4.18608 20.9558 4.74818C21 5.28937 21 5.95372 21 6.75868V14.7574L20.1213 13.8787C18.9497 12.7071 17.0503 12.7071 15.8787 13.8787L12.8787 16.8787C11.7071 18.0503 11.7071 19.9497 12.8787 21.1213C13.4645 21.7071 14.2322 22 15 22C15 22.3506 15.0602 22.6872 15.1707 23H8.75868C7.95372 23 7.28937 23 6.74818 22.9558C6.18608 22.9099 5.66938 22.8113 5.18404 22.564C4.43139 22.1805 3.81947 21.5686 3.43598 20.816C3.18868 20.3306 3.09012 19.8139 3.0442 19.2518C2.99998 18.7106 2.99999 18.0463 3 17.2413V6.7587C2.99999 5.95375 2.99998 5.28936 3.0442 4.74818C3.09012 4.18608 3.18868 3.66938 3.43598 3.18404C3.81947 2.43139 4.43139 1.81947 5.18404 1.43598C5.66938 1.18868 6.18608 1.09012 6.74818 1.0442C7.28936 0.999979 7.95375 0.999988 8.7587 1Z"
        fill="#303233" />
    <path
        d="M19 22C19 22.5523 18.5523 23 18 23C17.4477 23 17 22.5523 17 22V18.4142L15.7071 19.7071C15.3166 20.0976 14.6834 20.0976 14.2929 19.7071C13.9024 19.3166 13.9024 18.6834 14.2929 18.2929L17.2929 15.2929C17.6834 14.9024 18.3166 14.9024 18.7071 15.2929L21.7071 18.2929C22.0976 18.6834 22.0976 19.3166 21.7071 19.7071C21.3166 20.0976 20.6834 20.0976 20.2929 19.7071L19 18.4142V22Z"
        fill="#303233" />
</svg>
