<svg width="24" height="24" viewBox="0 0 24 24" fill="none" xmlns="http://www.w3.org/2000/svg">
    <path
        d="M5.5725 6.70004C7.20709 5.03263 9.48197 4 11.9998 4C14.5177 4 16.7926 5.03263 18.4272 6.70004C18.8138 7.09443 19.4469 7.10072 19.8413 6.7141C20.2357 6.32748 20.242 5.69434 19.8554 5.29996C17.8601 3.26464 15.0768 2 11.9998 2C8.92291 2 6.13955 3.26464 4.1443 5.29996C3.75768 5.69434 3.76397 6.32748 4.15835 6.7141C4.55274 7.10072 5.18587 7.09443 5.5725 6.70004Z"
        fill="#303233" />
    <path
        d="M8.27272 9.66691C9.18969 8.6424 10.5191 8 11.9998 8C13.4805 8 14.8099 8.6424 15.7269 9.66691C16.0952 10.0784 16.7274 10.1135 17.1389 9.74513C17.5505 9.37681 17.5855 8.74461 17.2171 8.33309C15.9368 6.9026 14.0731 6 11.9998 6C9.92654 6 8.06277 6.9026 6.78245 8.33309C6.41413 8.74461 6.44915 9.37681 6.86067 9.74513C7.2722 10.1135 7.9044 10.0784 8.27272 9.66691Z"
        fill="#303233" />
    <path
        d="M12 17C13.5105 17 14.9608 17.2576 16.3094 17.7313C16.3542 17.747 16.3767 17.7549 16.412 17.7705C16.7326 17.9118 16.9788 18.2591 17.0058 18.6084C17.0088 18.647 17.0088 18.6811 17.0088 18.7494C17.0088 18.9821 17.0088 19.0985 17.0185 19.1965C17.1122 20.1457 17.8631 20.8966 18.8123 20.9903C18.9103 21 19.0267 21 19.2594 21H19.5044C19.965 21 20.1952 21 20.3868 20.9622C21.1829 20.8053 21.8053 20.1829 21.9622 19.3868C22 19.1952 22 18.965 22 18.5044V18.3062C22 17.831 22 17.5933 21.9493 17.3209C21.8358 16.7119 21.3933 15.9583 20.9166 15.5624C20.7035 15.3854 20.5589 15.3048 20.2698 15.1435C17.822 13.7781 15.0019 13 12 13C8.99812 13 6.17797 13.7781 3.73021 15.1435C3.4411 15.3048 3.29654 15.3854 3.0834 15.5624C2.60675 15.9583 2.16421 16.7119 2.05074 17.3209C2 17.5933 2 17.831 2 18.3062V18.5044C2 18.965 2 19.1952 2.03776 19.3868C2.19469 20.1829 2.81709 20.8053 3.61321 20.9622C3.80476 21 4.03504 21 4.4956 21H4.74057C4.97332 21 5.0897 21 5.18773 20.9903C6.13689 20.8966 6.8878 20.1457 6.98152 19.1965C6.9912 19.0985 6.9912 18.9821 6.9912 18.7494C6.9912 18.6811 6.9912 18.647 6.99418 18.6084C7.02122 18.2591 7.2674 17.9118 7.58798 17.7705C7.62334 17.7549 7.64576 17.747 7.69059 17.7313C9.03919 17.2576 10.4895 17 12 17Z"
        fill="#303233" />
</svg>
