<svg width="16" height="16" viewBox="0 0 16 16" fill="none" xmlns="http://www.w3.org/2000/svg">
    <g clip-path="url(#clip0_53_5494)">
        <path
            d="M5 7.25C4.58579 7.25 4.25 7.58579 4.25 8C4.25 8.41421 4.58579 8.75 5 8.75H11C11.4142 8.75 11.75 8.41421 11.75 8C11.75 7.58579 11.4142 7.25 11 7.25H5Z"
            fill="#303233" />
        <path fill-rule="evenodd" clip-rule="evenodd"
            d="M2.94444 0.75C1.73249 0.75 0.75 1.73249 0.75 2.94444V13.0556C0.75 14.2675 1.73249 15.25 2.94444 15.25H13.0556C14.2675 15.25 15.25 14.2675 15.25 13.0556V2.94444C15.25 1.73249 14.2675 0.75 13.0556 0.75H2.94444ZM2.25 2.94444C2.25 2.56091 2.56091 2.25 2.94444 2.25H13.0556C13.4391 2.25 13.75 2.56091 13.75 2.94444V13.0556C13.75 13.4391 13.4391 13.75 13.0556 13.75H2.94444C2.56091 13.75 2.25 13.4391 2.25 13.0556V2.94444Z"
            fill="#303233" />
    </g>
    <defs>
        <clipPath id="clip0_53_5494">
            <rect width="16" height="16" fill="white" />
        </clipPath>
    </defs>
</svg>
