<svg width="16" height="16" viewBox="0 0 16 16" fill="none" xmlns="http://www.w3.org/2000/svg">
    <path
        d="M3 5C3 3.34315 4.34315 2 6 2C7.65685 2 9 3.34315 9 5C9 6.65685 7.65685 8 6 8C4.34315 8 3 6.65685 3 5Z"
        fill="#303233" />
    <path
        d="M0.609607 13.4005C1.11925 10.8899 3.33816 9 5.9996 9C8.66103 9 10.8799 10.8899 11.3896 13.4005C11.4194 13.5476 11.3817 13.7003 11.2867 13.8164C11.1917 13.9326 11.0496 14 10.8996 14H1.09961C0.949566 14 0.80745 13.9326 0.712488 13.8164C0.617526 13.7003 0.579758 13.5476 0.609607 13.4005Z"
        fill="#303233" />
    <path
        d="M12.5 5C12.7761 5 13 5.22386 13 5.5V7H14.5C14.7761 7 15 7.22386 15 7.5C15 7.77614 14.7761 8 14.5 8H13V9.5C13 9.77614 12.7761 10 12.5 10C12.2239 10 12 9.77614 12 9.5V8H10.5C10.2239 8 10 7.77614 10 7.5C10 7.22386 10.2239 7 10.5 7H12V5.5C12 5.22386 12.2239 5 12.5 5Z"
        fill="#303233" />
</svg>
