<svg width="16" height="16" viewBox="0 0 16 16" fill="none" xmlns="http://www.w3.org/2000/svg">
    <g clip-path="url(#clip0_53_9770)">
        <path
            d="M3.24639 2.14359C3.60184 1.93092 3.71758 1.47037 3.50491 1.11492C3.29224 0.759469 2.83169 0.643724 2.47624 0.856394C1.38878 1.50704 0.738207 2.72453 0.750162 4.00698C0.754023 4.42118 1.09293 4.75382 1.50712 4.74996C1.92132 4.74609 2.25396 4.40719 2.2501 3.993C2.24283 3.21381 2.64048 2.50611 3.24639 2.14359Z"
            fill="#303233" />
        <path
            d="M13.5238 0.856398C13.1683 0.643728 12.7078 0.759474 12.4951 1.11492C12.2824 1.47037 12.3982 1.93092 12.7536 2.14359C13.3595 2.50612 13.7572 3.21382 13.7499 3.993C13.746 4.4072 14.0787 4.7461 14.4929 4.74996C14.9071 4.75382 15.246 4.42118 15.2498 4.00698C15.2618 2.72454 14.6112 1.50704 13.5238 0.856398Z"
            fill="#303233" />
        <path
            d="M4.56461 2.1335C5.47939 1.24524 6.71552 0.75 7.99997 0.75C9.28443 0.75 10.5206 1.24524 11.4353 2.1335C12.3509 3.02248 12.8694 4.23298 12.8694 5.5C12.8694 7.42248 13.3666 8.69155 13.884 9.49895L13.893 9.51308C14.1374 9.89441 14.3322 10.1984 14.4636 10.4199C14.5295 10.5309 14.591 10.6402 14.6372 10.7389C14.6602 10.7881 14.6869 10.8504 14.708 10.9192C14.7253 10.9756 14.7601 11.1017 14.7471 11.2568C14.7389 11.3534 14.7181 11.5263 14.6159 11.7049C14.5147 11.8818 14.3776 11.9874 14.3004 12.043C14.1172 12.1749 13.9098 12.2046 13.8434 12.2141L13.8392 12.2147C13.7357 12.2296 13.6191 12.2369 13.5028 12.2413C13.2718 12.25 12.9525 12.25 12.5571 12.25H3.44294C3.04753 12.25 2.72813 12.25 2.49718 12.2413C2.38088 12.2369 2.26423 12.2296 2.16072 12.2147L2.1565 12.2141C2.09016 12.2046 1.88273 12.1749 1.6995 12.043C1.62239 11.9874 1.48525 11.8818 1.38406 11.7049C1.28186 11.5263 1.261 11.3534 1.25286 11.2568C1.2398 11.1017 1.27468 10.9756 1.29197 10.9192C1.31308 10.8504 1.33975 10.7881 1.36277 10.7389C1.4089 10.6402 1.47041 10.5309 1.5363 10.4199C1.66779 10.1983 1.86236 9.89472 2.10679 9.51328L2.11598 9.49895C2.63338 8.69155 3.13052 7.42248 3.13052 5.5C3.13052 4.23298 3.64908 3.02248 4.56461 2.1335Z"
            fill="#303233" />
        <path
            d="M5.43578 13.7559C5.70867 13.4443 6.1825 13.4129 6.49412 13.6858C6.89512 14.0369 7.42115 14.25 8.00001 14.25C8.57887 14.25 9.1049 14.0369 9.5059 13.6858C9.81752 13.4129 10.2914 13.4443 10.5642 13.7559C10.8371 14.0675 10.8057 14.5413 10.4941 14.8142C9.82909 15.3966 8.95481 15.75 8.00001 15.75C7.04521 15.75 6.17093 15.3966 5.5059 14.8142C5.19429 14.5413 5.16289 14.0675 5.43578 13.7559Z"
            fill="#303233" />
    </g>
    <defs>
        <clipPath id="clip0_53_9770">
            <rect width="16" height="16" fill="white" />
        </clipPath>
    </defs>
</svg>
