<svg width="24" height="24" viewBox="0 0 24 24" fill="none" xmlns="http://www.w3.org/2000/svg">
    <path fill-rule="evenodd" clip-rule="evenodd"
        d="M7.01785 3.43913C6.66313 3.25971 6.24421 3.25971 5.88949 3.43913C5.7381 3.5157 5.57189 3.66858 4.99876 4.24171L4.84113 4.39934C4.28856 4.95191 4.1091 5.13963 3.96801 5.3908C3.80697 5.67747 3.67871 6.17066 3.67969 6.49946C3.68057 6.79336 3.72874 6.97873 3.89274 7.55653C4.71968 10.4701 6.27975 13.2195 8.57499 15.5147C10.8702 17.81 13.6197 19.37 16.5332 20.197C17.111 20.361 17.2964 20.4091 17.5902 20.41C17.9191 20.411 18.4122 20.2827 18.6989 20.1217C18.9501 19.9806 19.1378 19.8012 19.6904 19.2486L19.848 19.0909C20.4211 18.5178 20.574 18.3516 20.6506 18.2002C20.83 17.8455 20.83 17.4266 20.6506 17.0719C20.574 16.9205 20.4211 16.7543 19.848 16.1811L19.6531 15.9863C19.2765 15.6096 19.1677 15.5066 19.0745 15.446C18.6602 15.1766 18.126 15.1766 17.7117 15.446C17.6185 15.5066 17.5097 15.6096 17.1331 15.9863C17.1258 15.9936 17.1184 16.0009 17.1111 16.0083C17.0189 16.1007 16.9197 16.2001 16.8011 16.285C16.3765 16.5891 15.7939 16.6884 15.2925 16.5423C15.1529 16.5016 15.0384 16.4465 14.9339 16.3961C14.9265 16.3926 14.9192 16.389 14.9119 16.3855C13.387 15.6534 11.9586 14.6557 10.6963 13.3934C9.43406 12.1311 8.4363 10.7027 7.70417 9.17785C7.70066 9.17055 7.69713 9.16321 7.69357 9.15582C7.64324 9.05127 7.58816 8.93685 7.54745 8.7972C7.4013 8.29583 7.50065 7.71322 7.80468 7.28862C7.88964 7.16997 7.98905 7.07079 8.08142 6.97864C8.08881 6.97127 8.09616 6.96394 8.10345 6.95665C8.48013 6.57997 8.58306 6.47122 8.64369 6.37798C8.91306 5.96367 8.91306 5.42956 8.64369 5.01525C8.58306 4.92201 8.48013 4.81326 8.10345 4.43658L7.90858 4.24171C7.33545 3.66858 7.16924 3.5157 7.01785 3.43913ZM5.21247 2.10061C5.99286 1.70589 6.91448 1.70588 7.69487 2.10061C8.09002 2.30047 8.4371 2.6481 8.88557 3.09729C8.91306 3.12483 8.94094 3.15275 8.96924 3.18105L9.16411 3.37592C9.18274 3.39455 9.20113 3.41291 9.21925 3.43102C9.51488 3.72634 9.74301 3.95423 9.90126 4.19761C10.4939 5.10909 10.4939 6.28414 9.90125 7.19561C9.74301 7.439 9.51488 7.66689 9.21925 7.96221C9.20112 7.98032 9.18274 7.99868 9.16411 8.01731C9.10367 8.07774 9.07095 8.1106 9.04682 8.13639C9.03619 8.14775 9.03046 8.15433 9.02749 8.15788L9.02487 8.16109L9.02426 8.1619C8.98827 8.21217 8.97021 8.31807 8.98751 8.37741C8.98833 8.38021 8.98972 8.38533 8.99785 8.40404C9.00885 8.42934 9.02432 8.46184 9.05639 8.52861C9.71625 9.90298 10.6161 11.1918 11.757 12.3327C12.8979 13.4736 14.1867 14.3735 15.5611 15.0333C15.6279 15.0654 15.6604 15.0809 15.6857 15.0919C15.7038 15.0997 15.7091 15.1013 15.712 15.1021C15.7713 15.1194 15.8775 15.1014 15.9278 15.0655L15.9286 15.0648L15.9318 15.0622C15.9354 15.0592 15.942 15.0535 15.9533 15.0429C15.9791 15.0188 16.012 14.986 16.0724 14.9256C16.091 14.907 16.1094 14.8886 16.1275 14.8705C16.4228 14.5748 16.6507 14.3467 16.8941 14.1885C17.8056 13.5958 18.9806 13.5958 19.8921 14.1885C20.1355 14.3467 20.3634 14.5748 20.6587 14.8704C20.6768 14.8886 20.6952 14.907 20.7138 14.9256L20.9087 15.1205C20.937 15.1488 20.9649 15.1766 20.9924 15.2041C21.4416 15.6526 21.7892 15.9997 21.9891 16.3948C22.3838 17.1752 22.3838 18.0968 21.9891 18.8772C21.7892 19.2724 21.4416 19.6195 20.9924 20.0679C20.9649 20.0954 20.937 20.1233 20.9087 20.1516L20.751 20.3092C20.732 20.3283 20.7131 20.3472 20.6945 20.3658C20.2184 20.8422 19.8848 21.176 19.4336 21.4295C18.9212 21.7173 18.1734 21.9118 17.5858 21.91C17.0688 21.9085 16.6963 21.8026 16.17 21.6531C16.1547 21.6488 16.1392 21.6444 16.1236 21.64C12.9703 20.745 9.99505 19.0561 7.51433 16.5754C5.03361 14.0947 3.34473 11.1194 2.44973 7.9661C2.44531 7.9505 2.44092 7.93504 2.43656 7.91971C2.28706 7.39342 2.18124 7.02087 2.1797 6.50393C2.17795 5.91629 2.37242 5.16849 2.66022 4.65616C2.91371 4.20492 3.24755 3.87128 3.72391 3.39522C3.74254 3.3766 3.76139 3.35775 3.78047 3.33868L3.9381 3.18105C3.9664 3.15275 3.99428 3.12483 4.02177 3.09729C4.47024 2.6481 4.81732 2.30047 5.21247 2.10061Z"
        fill="#303233" />
</svg>
