<svg width="16" height="16" viewBox="0 0 16 16" fill="none" xmlns="http://www.w3.org/2000/svg">
    <path fill-rule="evenodd" clip-rule="evenodd"
        d="M11.3304 1.75H4.66957C4.13542 1.74999 3.68956 1.74998 3.32533 1.77974C2.94545 1.81078 2.58879 1.87789 2.25153 2.04973C1.73408 2.31339 1.31339 2.73408 1.04973 3.25153C0.877889 3.58879 0.810778 3.94545 0.77974 4.32533C0.749982 4.68956 0.74999 5.1354 0.75 5.66955V10.3304C0.74999 10.8646 0.749982 11.3104 0.77974 11.6747C0.810778 12.0546 0.877889 12.4112 1.04973 12.7485C1.31339 13.2659 1.73408 13.6866 2.25153 13.9503C2.58879 14.1221 2.94545 14.1892 3.32533 14.2203C3.68955 14.25 4.13538 14.25 4.66951 14.25H11.3305C11.8646 14.25 12.3105 14.25 12.6747 14.2203C13.0546 14.1892 13.4112 14.1221 13.7485 13.9503C14.2659 13.6866 14.6866 13.2659 14.9503 12.7485C15.1221 12.4112 15.1892 12.0546 15.2203 11.6747C15.25 11.3105 15.25 10.8646 15.25 10.3305V5.66955C15.25 5.13542 15.25 4.68955 15.2203 4.32533C15.1892 3.94545 15.1221 3.58879 14.9503 3.25153C14.6866 2.73408 14.2659 2.31339 13.7485 2.04973C13.4112 1.87789 13.0546 1.81078 12.6747 1.77974C12.3104 1.74998 11.8646 1.74999 11.3304 1.75ZM3.05886 4.64344C3.39385 4.39981 3.86292 4.47387 4.10654 4.80886L5.49999 6.72485L6.89344 4.80886C7.13707 4.47387 7.60613 4.39981 7.94112 4.64344C8.27611 4.88707 8.35017 5.35613 8.10654 5.69112L6.42737 7.99999L8.10654 10.3089C8.35017 10.6439 8.27611 11.1129 7.94112 11.3565C7.60613 11.6002 7.13707 11.5261 6.89344 11.1911L5.49999 9.27513L4.10654 11.1911C3.86292 11.5261 3.39385 11.6002 3.05886 11.3565C2.72387 11.1129 2.64981 10.6439 2.89344 10.3089L4.57262 7.99999L2.89344 5.69112C2.64981 5.35613 2.72387 4.88707 3.05886 4.64344ZM9.5 4.5C9.91421 4.5 10.25 4.83579 10.25 5.25V10H12.5C12.9142 10 13.25 10.3358 13.25 10.75C13.25 11.1642 12.9142 11.5 12.5 11.5H9.5C9.08579 11.5 8.75 11.1642 8.75 10.75V5.25C8.75 4.83579 9.08579 4.5 9.5 4.5Z"
        fill="#303233" />
</svg>
