<svg width="16" height="16" viewBox="0 0 16 16" fill="none" xmlns="http://www.w3.org/2000/svg">
    <path fill-rule="evenodd" clip-rule="evenodd"
        d="M10.2215 1H5.77853C5.21919 0.999995 4.769 0.999992 4.40464 1.02976C4.02979 1.06039 3.70198 1.125 3.39915 1.2793C2.91698 1.52497 2.52497 1.91698 2.2793 2.39915C2.125 2.70198 2.06039 3.02979 2.02976 3.40464C1.99999 3.769 2 4.21919 2 4.77853V11.2215C2 11.7808 1.99999 12.231 2.02976 12.5954C2.06039 12.9702 2.125 13.298 2.2793 13.6009C2.52497 14.083 2.91698 14.475 3.39915 14.7207C3.70198 14.875 4.02979 14.9396 4.40464 14.9702C4.76899 15 5.21918 15 5.77851 15H10.2215C10.4589 15 10.6766 15 10.8764 14.9977L9.43934 13.5607C8.85355 12.9749 8.85355 12.0251 9.43934 11.4393C9.86138 11.0173 10.4723 10.8993 11 11.0854V10.5C11 9.67157 11.6716 9 12.5 9C13.3284 9 14 9.67157 14 10.5V4.77851C14 4.21918 14 3.76899 13.9702 3.40464C13.9396 3.02979 13.875 2.70198 13.7207 2.39915C13.475 1.91698 13.083 1.52497 12.6009 1.2793C12.298 1.125 11.9702 1.06039 11.5954 1.02976C11.231 0.999992 10.7808 0.999995 10.2215 1Z"
        fill="#303233" />
    <path fill-rule="evenodd" clip-rule="evenodd"
        d="M12.5 10C12.7761 10 13 10.2239 13 10.5V13.2929L14.1464 12.1464C14.3417 11.9512 14.6583 11.9512 14.8536 12.1464C15.0488 12.3417 15.0488 12.6583 14.8536 12.8536L12.8536 14.8536C12.6583 15.0488 12.3417 15.0488 12.1464 14.8536L10.1464 12.8536C9.95119 12.6583 9.95118 12.3417 10.1464 12.1464C10.3417 11.9512 10.6583 11.9512 10.8536 12.1464L12 13.2929V10.5C12 10.2239 12.2239 10 12.5 10Z"
        fill="#303233" />
</svg>
