<svg width="16" height="16" viewBox="0 0 16 16" fill="none" xmlns="http://www.w3.org/2000/svg">
    <path fill-rule="evenodd" clip-rule="evenodd"
        d="M1 3.75C1 2.50736 2.00736 1.5 3.25 1.5H12.75C13.9926 1.5 15 2.50736 15 3.75V5.25C15 6.49264 13.9926 7.5 12.75 7.5H3.25C2.00736 7.5 1 6.49264 1 5.25V3.75ZM11.5 4.5C11.5 4.22386 11.7239 4 12 4H12.0067C12.2828 4 12.5067 4.22386 12.5067 4.5C12.5067 4.77614 12.2828 5 12.0067 5H12C11.7239 5 11.5 4.77614 11.5 4.5Z"
        fill="#303233" />
    <path fill-rule="evenodd" clip-rule="evenodd"
        d="M1 10.75C1 9.50736 2.00736 8.5 3.25 8.5H12.75C13.9926 8.5 15 9.50736 15 10.75V12.25C15 13.4926 13.9926 14.5 12.75 14.5H3.25C2.00736 14.5 1 13.4926 1 12.25V10.75ZM11.5 11.5C11.5 11.2239 11.7239 11 12 11H12.0067C12.2828 11 12.5067 11.2239 12.5067 11.5C12.5067 11.7761 12.2828 12 12.0067 12H12C11.7239 12 11.5 11.7761 11.5 11.5Z"
        fill="#303233" />
</svg>
