<svg width="24" height="24" viewBox="0 0 24 24" fill="none" xmlns="http://www.w3.org/2000/svg">
    <path
        d="M12.8321 1.4453C12.6466 1.1671 12.3344 1 12.0001 1C11.6657 1 11.3535 1.1671 11.168 1.4453L10.0001 3.19722C9.84688 3.42699 9.53644 3.48908 9.30668 3.3359L7.55475 2.16795C7.211 1.93878 6.76171 1.9446 6.42401 2.18258C6.0863 2.42057 5.92971 2.84173 6.02991 3.24254L7.02991 7.24254C7.03524 7.26384 7.04122 7.28483 7.04784 7.3055C7.0163 7.53248 7 7.76434 7 8C7 10.7614 9.23858 13 12 13C14.7614 13 17 10.7614 17 8C17 7.76442 16.9837 7.53264 16.9522 7.30574C16.9588 7.28499 16.9649 7.26392 16.9702 7.24254L17.9702 3.24254C18.0704 2.84173 17.9138 2.42057 17.5761 2.18258C17.2384 1.9446 16.7891 1.93878 16.4454 2.16795L14.6934 3.3359C14.4637 3.48908 14.1532 3.42699 14.0001 3.19722L12.8321 1.4453Z"
        fill="#303233" />
    <path
        d="M3.28353 20.7507C4.28257 16.8692 7.80492 14 11.9999 14C16.1949 14 19.7173 16.8692 20.7163 20.7507C20.7934 21.0501 20.7276 21.3683 20.5382 21.6127C20.3488 21.857 20.057 22 19.7479 22H4.25196C3.94281 22 3.65104 21.857 3.46163 21.6127C3.27222 21.3683 3.20647 21.0501 3.28353 20.7507Z"
        fill="#303233" />
</svg>
