<svg width="16" height="16" viewBox="0 0 16 16" fill="none" xmlns="http://www.w3.org/2000/svg">
    <g clip-path="url(#clip0_53_8755)">
        <path fill-rule="evenodd" clip-rule="evenodd"
            d="M12.6456 2.25C12.5006 2.25 12.357 2.27857 12.223 2.33407C12.089 2.38957 11.9673 2.47092 11.8647 2.57347L3.15462 11.2836L2.56893 13.4311L4.71646 12.8454L13.4266 4.1353C13.5291 4.03275 13.6105 3.91101 13.666 3.77702C13.7215 3.64303 13.75 3.49942 13.75 3.35439C13.75 3.20935 13.7215 3.06574 13.666 2.93176C13.6105 2.79777 13.5291 2.67602 13.4266 2.57347C13.324 2.47092 13.2023 2.38957 13.0683 2.33407C12.9343 2.27857 12.7907 2.25 12.6456 2.25ZM11.649 0.948247C11.965 0.817364 12.3036 0.75 12.6456 0.75C12.9876 0.75 13.3263 0.817364 13.6423 0.948247C13.9583 1.07913 14.2454 1.27097 14.4872 1.51281C14.729 1.75465 14.9209 2.04175 15.0518 2.35773C15.1827 2.67371 15.25 3.01238 15.25 3.35439C15.25 3.6964 15.1827 4.03506 15.0518 4.35104C14.9209 4.66702 14.729 4.95413 14.4872 5.19596L5.63628 14.0469C5.54399 14.1392 5.42921 14.2058 5.30329 14.2401L1.69736 15.2236C1.4377 15.2944 1.16 15.2206 0.969687 15.0303C0.779375 14.84 0.705628 14.5623 0.776445 14.3027L1.75988 10.6967C1.79422 10.5708 1.86083 10.456 1.95312 10.3637L10.8041 1.51281C11.0459 1.27097 11.333 1.07913 11.649 0.948247Z"
            fill="#303233" />
    </g>
    <defs>
        <clipPath id="clip0_53_8755">
            <rect width="16" height="16" fill="white" />
        </clipPath>
    </defs>
</svg>
