<svg width="24" height="24" viewBox="0 0 24 24" fill="none" xmlns="http://www.w3.org/2000/svg">
    <path
        d="M12.5303 10.4697C12.2374 10.1768 11.7626 10.1768 11.4697 10.4697L8.46967 13.4697C8.17678 13.7626 8.17678 14.2374 8.46967 14.5303C8.76256 14.8232 9.23744 14.8232 9.53033 14.5303L11.25 12.8107V17C11.25 17.4142 11.5858 17.75 12 17.75C12.4142 17.75 12.75 17.4142 12.75 17V12.8107L14.4697 14.5303C14.7626 14.8232 15.2374 14.8232 15.5303 14.5303C15.8232 14.2374 15.8232 13.7626 15.5303 13.4697L12.5303 10.4697Z"
        fill="#303233" />
    <path fill-rule="evenodd" clip-rule="evenodd"
        d="M1.25 5C1.25 3.48122 2.48122 2.25 4 2.25H20C21.5188 2.25 22.75 3.48122 22.75 5C22.75 6.25878 21.9043 7.32002 20.75 7.64648V16.2321C20.75 17.045 20.75 17.7006 20.7066 18.2315C20.662 18.7781 20.5676 19.2583 20.3413 19.7025C19.9818 20.4081 19.4081 20.9818 18.7025 21.3413C18.2582 21.5676 17.7781 21.662 17.2315 21.7066C16.7006 21.75 16.045 21.75 15.2321 21.75H8.76788C7.95505 21.75 7.29944 21.75 6.76853 21.7066C6.22189 21.662 5.74175 21.5676 5.29754 21.3413C4.59193 20.9818 4.01825 20.4081 3.65873 19.7025C3.43238 19.2583 3.33803 18.7781 3.29336 18.2315C3.24999 17.7006 3.24999 17.045 3.25 16.2321L3.25 7.64648C2.09575 7.32002 1.25 6.25878 1.25 5ZM4.75 7.75H19.25V16.2C19.25 17.0525 19.2494 17.6467 19.2116 18.1093C19.1745 18.5632 19.1054 18.824 19.0048 19.0215C18.789 19.4448 18.4448 19.7891 18.0215 20.0048C17.824 20.1054 17.5632 20.1745 17.1093 20.2116C16.6467 20.2494 16.0525 20.25 15.2 20.25H8.8C7.94755 20.25 7.35331 20.2494 6.89068 20.2116C6.4368 20.1745 6.17604 20.1054 5.97852 20.0048C5.55516 19.7891 5.21095 19.4448 4.99524 19.0215C4.8946 18.824 4.82546 18.5632 4.78838 18.1093C4.75058 17.6467 4.75 17.0525 4.75 16.2V7.75ZM4 3.75C3.30964 3.75 2.75 4.30964 2.75 5C2.75 5.69036 3.30964 6.25 4 6.25H20C20.6904 6.25 21.25 5.69036 21.25 5C21.25 4.30964 20.6904 3.75 20 3.75H4Z"
        fill="#303233" />
</svg>
