<svg width="16" height="16" viewBox="0 0 16 16" fill="none" xmlns="http://www.w3.org/2000/svg">
    <path
        d="M7.46967 0.96967C7.76256 0.676777 8.23744 0.676777 8.53033 0.96967L11.0303 3.46967C11.3232 3.76256 11.3232 4.23744 11.0303 4.53033C10.7374 4.82322 10.2626 4.82322 9.96967 4.53033L8.75 3.31066V10C8.75 10.4142 8.41421 10.75 8 10.75C7.58579 10.75 7.25 10.4142 7.25 10V3.31066L6.03033 4.53033C5.73744 4.82322 5.26256 4.82322 4.96967 4.53033C4.67678 4.23744 4.67678 3.76256 4.96967 3.46967L7.46967 0.96967Z"
        fill="#303233" />
    <path
        d="M3.25 8C3.25 7.58579 3.58579 7.25 4 7.25H4.33366C4.74787 7.25 5.08366 6.91421 5.08366 6.5C5.08366 6.08579 4.74787 5.75 4.33366 5.75H4C2.75736 5.75 1.75 6.75736 1.75 8V13C1.75 14.2426 2.75736 15.25 4 15.25H12C13.2426 15.25 14.25 14.2426 14.25 13V8C14.25 6.75736 13.2426 5.75 12 5.75H11.667C11.2528 5.75 10.917 6.08579 10.917 6.5C10.917 6.91421 11.2528 7.25 11.667 7.25H12C12.4142 7.25 12.75 7.58579 12.75 8V13C12.75 13.4142 12.4142 13.75 12 13.75H4C3.58579 13.75 3.25 13.4142 3.25 13V8Z"
        fill="#303233" />
</svg>
