<svg width="24" height="24" viewBox="0 0 24 24" fill="none" xmlns="http://www.w3.org/2000/svg">
    <path
        d="M8 11C7.44772 11 7 11.4477 7 12C7 12.5523 7.44772 13 8 13H16C16.5523 13 17 12.5523 17 12C17 11.4477 16.5523 11 16 11H8Z"
        fill="#303233" />
    <path fill-rule="evenodd" clip-rule="evenodd"
        d="M12 3C17.553 3 22 7.064 22 12C22 16.936 17.554 20.999 12.002 21C10.625 21.005 9.263 20.747 7.986 20.245C7.765 20.157 7.525 20.115 7.291 20.162L3.196 20.981C2.84 21.052 2.473 20.924 2.238 20.648C2.003 20.371 1.936 19.989 2.064 19.649L3.085 16.926C3.219 16.569 3.129 16.176 2.952 15.838C2.341 14.672 2 13.371 2 12C2 7.064 6.447 3 12 3ZM12 19C16.387 19 20 15.9 20 12C20 8.1 16.387 5 12 5C7.613 5 4 8.1 4 12C4 13.04 4.26 14.025 4.723 14.91C5.164 15.751 5.291 16.739 4.958 17.628L4.568 18.667L6.899 18.2C7.51 18.078 8.14 18.156 8.719 18.384C9.761 18.794 10.873 19.004 11.997 19H12Z"
        fill="#303233" />
</svg>
