<svg width="16" height="16" viewBox="0 0 16 16" fill="none" xmlns="http://www.w3.org/2000/svg">
    <path fill-rule="evenodd" clip-rule="evenodd"
        d="M9.626 1.19L9.614 1.187L9.611 1.186C9.094 1.064 8.554 1 8 1C4.134 1 1 4.134 1 8C1 11.866 4.134 15 8 15C11.866 15 15 11.866 15 8C15 4.694 12.708 1.923 9.626 1.19ZM8.246 9.27699L8.252 9.26401L8.797 9.44299L10.48 10.164L10.5 10.173L10.487 10.193L9.682 11.399L8.361 11.4L8.356 11.386L7.89 9.98801L8.246 9.27699ZM8.977 2.07899C8.659 2.02699 8.333 2 8 2C5.814 2 3.901 3.169 2.852 4.916L5.276 6.647L5.293 6.659L5.894 5.858L6.001 5.729C6.005 5.725 6.009 5.721 6.012 5.718C6.051 5.681 6.093 5.648 6.137 5.619L6.291 5.53999L8.81 4.42L8.821 4.41499L8.822 4.40401L8.977 2.07899Z"
        fill="#303233" />
</svg>
