<svg width="24" height="24" viewBox="0 0 24 24" fill="none" xmlns="http://www.w3.org/2000/svg">
    <path
        d="M4 8C4 5.23858 6.23858 3 9 3C11.7614 3 14 5.23858 14 8C14 10.7614 11.7614 13 9 13C6.23858 13 4 10.7614 4 8Z"
        fill="#303233" />
    <path
        d="M0.283525 20.7507C1.28257 16.8692 4.80492 14 8.99993 14C13.1949 14 16.7173 16.8692 17.7163 20.7507C17.7934 21.0501 17.7276 21.3683 17.5382 21.6127C17.3488 21.857 17.057 22 16.7479 22H1.25196C0.942809 22 0.651038 21.857 0.461627 21.6127C0.272217 21.3683 0.206466 21.0501 0.283525 20.7507Z"
        fill="#303233" />
    <path
        d="M20.7071 15.7071L23.7071 12.7071C24.0976 12.3166 24.0976 11.6834 23.7071 11.2929L20.7071 8.29289C20.3166 7.90237 19.6834 7.90237 19.2929 8.29289C18.9024 8.68342 18.9024 9.31658 19.2929 9.70711L20.5858 11H17C16.4477 11 16 11.4477 16 12C16 12.5523 16.4477 13 17 13H20.5858L19.2929 14.2929C18.9024 14.6834 18.9024 15.3166 19.2929 15.7071C19.6834 16.0976 20.3166 16.0976 20.7071 15.7071Z"
        fill="#303233" />
</svg>
