<svg width="24" height="24" viewBox="0 0 24 24" fill="none" xmlns="http://www.w3.org/2000/svg">
    <path fill-rule="evenodd" clip-rule="evenodd"
        d="M9.125 11.125V12H8.58974C7.84982 12 7.25 12.5664 7.25 13.265V16.485C7.25 17.1836 7.84982 17.75 8.58974 17.75H15.4103C16.1502 17.75 16.75 17.1836 16.75 16.485V13.265C16.75 12.5664 16.1502 12 15.4103 12H14.875V11.125C14.875 10.3625 14.5721 9.63124 14.0329 9.09207C13.4938 8.5529 12.7625 8.25 12 8.25C11.2375 8.25 10.5062 8.5529 9.96707 9.09207C9.4279 9.63124 9.125 10.3625 9.125 11.125ZM12 9C11.4364 9 10.8959 9.22388 10.4974 9.6224C10.0989 10.0209 9.875 10.5614 9.875 11.125V12H14.125V11.125C14.125 10.5614 13.9011 10.0209 13.5026 9.6224C13.1041 9.22388 12.5636 9 12 9Z"
        fill="#303233" />
    <path fill-rule="evenodd" clip-rule="evenodd"
        d="M4 2.25C2.48122 2.25 1.25 3.48122 1.25 5V19C1.25 20.5188 2.48122 21.75 4 21.75H20C21.5188 21.75 22.75 20.5188 22.75 19V7C22.75 5.48122 21.5188 4.25 20 4.25H13.8284C13.2317 4.25 12.6594 4.01295 12.2374 3.59099L11.409 2.76256C11.0808 2.43437 10.6357 2.25 10.1716 2.25H4ZM2.75 7C2.75 6.30964 3.30964 5.75 4 5.75H20C20.6904 5.75 21.25 6.30964 21.25 7V19C21.25 19.6904 20.6904 20.25 20 20.25H4C3.30964 20.25 2.75 19.6904 2.75 19V7Z"
        fill="#303233" />
</svg>
