<svg width="16" height="16" viewBox="0 0 16 16" fill="none" xmlns="http://www.w3.org/2000/svg">
    <g clip-path="url(#clip0_107_379)">
        <path
            d="M0.75 2C0.75 1.30964 1.30964 0.75 2 0.75H4C4.69036 0.75 5.25 1.30964 5.25 2V4C5.25 4.69036 4.69036 5.25 4 5.25H2C1.30964 5.25 0.75 4.69036 0.75 4V2Z"
            fill="#303233" />
        <path
            d="M5.75 2C5.75 1.30964 6.30964 0.75 7 0.75H9C9.69036 0.75 10.25 1.30964 10.25 2V4C10.25 4.69036 9.69036 5.25 9 5.25H7C6.30964 5.25 5.75 4.69036 5.75 4V2Z"
            fill="#303233" />
        <path
            d="M12 0.75C11.3096 0.75 10.75 1.30964 10.75 2V4C10.75 4.69036 11.3096 5.25 12 5.25H14C14.6904 5.25 15.25 4.69036 15.25 4V2C15.25 1.30964 14.6904 0.75 14 0.75H12Z"
            fill="#303233" />
        <path
            d="M0.75 7C0.75 6.30964 1.30964 5.75 2 5.75H4C4.69036 5.75 5.25 6.30964 5.25 7V9C5.25 9.69036 4.69036 10.25 4 10.25H2C1.30964 10.25 0.75 9.69036 0.75 9V7Z"
            fill="#303233" />
        <path
            d="M7 5.75C6.30964 5.75 5.75 6.30964 5.75 7V9C5.75 9.69036 6.30964 10.25 7 10.25H9C9.69036 10.25 10.25 9.69036 10.25 9V7C10.25 6.30964 9.69036 5.75 9 5.75H7Z"
            fill="#303233" />
        <path
            d="M10.75 7C10.75 6.30964 11.3096 5.75 12 5.75H14C14.6904 5.75 15.25 6.30964 15.25 7V9C15.25 9.69036 14.6904 10.25 14 10.25H12C11.3096 10.25 10.75 9.69036 10.75 9V7Z"
            fill="#303233" />
        <path
            d="M2 10.75C1.30964 10.75 0.75 11.3096 0.75 12V14C0.75 14.6904 1.30964 15.25 2 15.25H4C4.69036 15.25 5.25 14.6904 5.25 14V12C5.25 11.3096 4.69036 10.75 4 10.75H2Z"
            fill="#303233" />
        <path
            d="M5.75 12C5.75 11.3096 6.30964 10.75 7 10.75H9C9.69036 10.75 10.25 11.3096 10.25 12V14C10.25 14.6904 9.69036 15.25 9 15.25H7C6.30964 15.25 5.75 14.6904 5.75 14V12Z"
            fill="#303233" />
        <path
            d="M12 10.75C11.3096 10.75 10.75 11.3096 10.75 12V14C10.75 14.6904 11.3096 15.25 12 15.25H14C14.6904 15.25 15.25 14.6904 15.25 14V12C15.25 11.3096 14.6904 10.75 14 10.75H12Z"
            fill="#303233" />
    </g>
    <defs>
        <clipPath id="clip0_107_379">
            <rect width="16" height="16" fill="white" />
        </clipPath>
    </defs>
</svg>
