<svg width="24" height="24" viewBox="0 0 24 24" fill="none" xmlns="http://www.w3.org/2000/svg">
    <path
        d="M4.25 8C4.25 5.37665 6.37665 3.25 9 3.25C11.6234 3.25 13.75 5.37665 13.75 8C13.75 10.6234 11.6234 12.75 9 12.75C6.37665 12.75 4.25 10.6234 4.25 8Z"
        fill="#303233" />
    <path
        d="M15.25 8C15.25 9.53489 14.6968 10.9405 13.7788 12.0284C13.6008 12.2393 13.6754 12.5712 13.9445 12.6323C14.284 12.7093 14.6373 12.75 15 12.75C17.6234 12.75 19.75 10.6234 19.75 8C19.75 5.37665 17.6234 3.25 15 3.25C14.6373 3.25 14.284 3.29067 13.9445 3.3677C13.6754 3.42875 13.6008 3.76071 13.7788 3.97158C14.6968 5.05945 15.25 6.46511 15.25 8Z"
        fill="#303233" />
    <path
        d="M19.8389 21.75C19.4597 21.75 19.1432 21.4661 19.0731 21.0934C18.5711 18.4251 17.0352 16.1217 14.8973 14.6153C14.7378 14.5029 14.8049 14.25 15 14.25C19.0781 14.25 22.503 17.0393 23.4743 20.8131C23.5321 21.0376 23.4827 21.2763 23.3407 21.4595C23.1986 21.6428 22.9798 21.75 22.7479 21.75H19.8389Z"
        fill="#303233" />
    <path
        d="M8.99992 14.25C4.92175 14.25 1.49693 17.0393 0.525632 20.8131C0.467838 21.0376 0.517151 21.2763 0.659209 21.4595C0.801267 21.6428 1.0201 21.75 1.25196 21.75H16.7479C16.9798 21.75 17.1986 21.6428 17.3406 21.4595C17.4827 21.2763 17.532 21.0376 17.4742 20.8131C16.5029 17.0393 13.0781 14.25 8.99992 14.25Z"
        fill="#303233" />
</svg>
