<svg width="24" height="24" viewBox="0 0 24 24" fill="none" xmlns="http://www.w3.org/2000/svg">
    <path
        d="M8.82462 1.27974C9.18885 1.24998 9.6347 1.24999 10.1689 1.25H13.8297C14.3639 1.24999 14.8097 1.24998 15.174 1.27974C15.5538 1.31078 15.9105 1.37789 16.2478 1.54973C16.7647 1.81312 17.1851 2.23325 17.4488 2.74999H6.54981C6.81351 2.23325 7.23388 1.81312 7.75082 1.54973C8.08808 1.37789 8.44473 1.31078 8.82462 1.27974Z"
        fill="#303233" />
    <path
        d="M7.16982 4.25C6.63568 4.24999 6.18983 4.24998 5.8256 4.27974C5.44572 4.31078 5.08906 4.37789 4.7518 4.54973C4.23486 4.81313 3.81448 5.23325 3.55078 5.75H20.4498C20.1861 5.23325 19.7657 4.81313 19.2487 4.54973C18.9115 4.37789 18.5548 4.31078 18.1749 4.27974C17.8107 4.24998 17.3649 4.24999 16.8307 4.25H7.16982Z"
        fill="#303233" />
    <path fill-rule="evenodd" clip-rule="evenodd"
        d="M5.16957 7.25H18.8304C19.3646 7.24999 19.8104 7.24998 20.1747 7.27974C20.5546 7.31078 20.9112 7.37789 21.2485 7.54973C21.7659 7.81339 22.1866 8.23408 22.4503 8.75153C22.6221 9.08879 22.6892 9.44545 22.7203 9.82533C22.75 10.1896 22.75 10.6354 22.75 11.1695V18.8305C22.75 19.3646 22.75 19.8104 22.7203 20.1747C22.6892 20.5546 22.6221 20.9112 22.4503 21.2485C22.1866 21.7659 21.7659 22.1866 21.2485 22.4503C20.9112 22.6221 20.5546 22.6892 20.1747 22.7203C19.8105 22.75 19.3646 22.75 18.8305 22.75H5.16955C4.63544 22.75 4.18954 22.75 3.82533 22.7203C3.44545 22.6892 3.08879 22.6221 2.75153 22.4503C2.23408 22.1866 1.81339 21.7659 1.54973 21.2485C1.37789 20.9112 1.31078 20.5546 1.27974 20.1747C1.24998 19.8104 1.24999 19.3646 1.25 18.8305V11.1696C1.24999 10.6354 1.24998 10.1896 1.27974 9.82533C1.31078 9.44545 1.37789 9.08879 1.54973 8.75153C1.81339 8.23408 2.23408 7.81339 2.75153 7.54973C3.08879 7.37789 3.44545 7.31078 3.82533 7.27974C4.18956 7.24998 4.63542 7.24999 5.16957 7.25ZM12.75 12C12.75 11.5858 12.4142 11.25 12 11.25C11.5858 11.25 11.25 11.5858 11.25 12V14.25H9C8.58579 14.25 8.25 14.5858 8.25 15C8.25 15.4142 8.58579 15.75 9 15.75H11.25V18C11.25 18.4142 11.5858 18.75 12 18.75C12.4142 18.75 12.75 18.4142 12.75 18V15.75H15C15.4142 15.75 15.75 15.4142 15.75 15C15.75 14.5858 15.4142 14.25 15 14.25H12.75V12Z"
        fill="#303233" />
</svg>
