<svg width="24" height="24" viewBox="0 0 24 24" fill="none" xmlns="http://www.w3.org/2000/svg">
    <path fill-rule="evenodd" clip-rule="evenodd"
        d="M12 1.25C6.06294 1.25 1.25 6.06294 1.25 12C1.25 17.9371 6.06294 22.75 12 22.75C17.9371 22.75 22.75 17.9371 22.75 12C22.75 6.06294 17.9371 1.25 12 1.25ZM14.9917 7.75C14.3059 7.75 13.75 8.30964 13.75 9C13.75 9.69035 14.3059 10.25 14.9917 10.25H15.0083C15.6941 10.25 16.25 9.69035 16.25 9C16.25 8.30964 15.6941 7.75 15.0083 7.75H14.9917ZM8.62142 14.3934C9.39093 13.8338 10.5408 13.2513 11.995 13.25C13.4493 13.2513 14.6092 13.8338 15.3787 14.3934C15.7653 14.6746 16.0641 14.9557 16.2681 15.1685C16.3704 15.2753 16.4497 15.3658 16.5052 15.4319C16.5327 15.4646 16.5544 15.4914 16.5702 15.5114L16.5902 15.537L16.5962 15.5449L16.5986 15.548L16.6001 15.5501C16.8486 15.8814 16.7814 16.3515 16.4501 16.6C16.1197 16.8477 15.6516 16.7817 15.4025 16.4531L15.3953 16.444L15.3946 16.443C15.3872 16.4337 15.3744 16.4178 15.3562 16.3962C15.3199 16.3529 15.2625 16.2871 15.1851 16.2064C15.0297 16.0442 14.7973 15.8253 14.4964 15.6065C13.8917 15.1667 13.0433 14.75 12 14.75C10.9568 14.75 10.1084 15.1667 9.50367 15.6065C9.20278 15.8253 8.97037 16.0442 8.81497 16.2064C8.73758 16.2871 8.6802 16.3529 8.64386 16.3962C8.62572 16.4178 8.6129 16.4337 8.60553 16.443L8.60478 16.444L8.59765 16.4531C8.34853 16.7817 7.88037 16.8477 7.55004 16.6C7.2187 16.3515 7.15153 15.8814 7.39998 15.5501L7.40069 15.5491L7.40149 15.548L7.40387 15.5449L7.40992 15.537L7.42994 15.5114C7.44573 15.4914 7.46742 15.4646 7.4949 15.4319C7.55036 15.3658 7.62969 15.2753 7.73199 15.1685C7.93597 14.9557 8.23481 14.6746 8.62142 14.3934ZM7.75 9C7.75 8.30964 8.30594 7.75 8.99172 7.75H9.00828C9.69406 7.75 10.25 8.30964 10.25 9C10.25 9.69035 9.69406 10.25 9.00828 10.25H8.99172C8.30594 10.25 7.75 9.69035 7.75 9Z"
        fill="#303233" />
</svg>
