<svg width="24" height="24" viewBox="0 0 24 24" fill="none" xmlns="http://www.w3.org/2000/svg">
    <g clip-path="url(#clip0_53_3328)">
        <path
            d="M10.229 4.1996C11.547 3.90137 12.9192 3.9419 14.2173 4.31739C15.5155 4.69289 16.6974 5.39112 17.6527 6.34693C17.6601 6.35432 17.6676 6.3616 17.6752 6.36875L20.4755 9H17C16.4477 9 16 9.44772 16 10C16 10.5523 16.4477 11 17 11H23C23.1407 11 23.2747 10.9709 23.3962 10.9185C23.5172 10.8663 23.6299 10.7893 23.7262 10.6875C23.7347 10.6785 23.7431 10.6693 23.7513 10.6599C23.9176 10.4708 24 10.2352 24 10L24 9.99652V4C24 3.44772 23.5523 3 23 3C22.4477 3 22 3.44772 22 4V7.68813L19.0559 4.92169C17.8637 3.73276 16.3906 2.86403 14.7731 2.39615C13.1503 1.92678 11.4352 1.87613 9.78761 2.24891C8.14003 2.6217 6.61373 3.40577 5.35114 4.52798C4.08855 5.65018 3.13081 7.07394 2.56729 8.6664C2.38305 9.18705 2.65576 9.75847 3.17641 9.94272C3.69705 10.127 4.26848 9.85424 4.45272 9.3336C4.90353 8.05963 5.66973 6.92062 6.6798 6.02286C7.68987 5.12509 8.91091 4.49783 10.229 4.1996Z"
            fill="#303233" />
        <path
            d="M0.602897 13.0819C0.485759 13.1325 0.376517 13.2065 0.282369 13.3036C0.267214 13.3192 0.252565 13.3353 0.238447 13.3519C0.166575 13.4362 0.111043 13.5294 0.0717263 13.6274C0.0287631 13.7343 0.00374138 13.8504 0.000387539 13.9719C0.000127427 13.9813 -1.73085e-06 13.9906 1.75132e-08 14V20C1.75132e-08 20.5523 0.447715 21 1 21C1.55228 21 2 20.5523 2 20V16.3119L4.94411 19.0783C6.13627 20.2672 7.6094 21.136 9.22695 21.6038C10.8497 22.0732 12.5648 22.1239 14.2124 21.7511C15.86 21.3783 17.3863 20.5942 18.6489 19.472C19.9115 18.3498 20.8692 16.9261 21.4327 15.3336C21.617 14.8129 21.3442 14.2415 20.8236 14.0573C20.303 13.873 19.7315 14.1458 19.5473 14.6664C19.0965 15.9404 18.3303 17.0794 17.3202 17.9771C16.3101 18.8749 15.0891 19.5022 13.771 19.8004C12.453 20.0986 11.0808 20.0581 9.78267 19.6826C8.48451 19.3071 7.30262 18.6089 6.34729 17.6531C6.3399 17.6457 6.3324 17.6384 6.32478 17.6312L3.52455 15H7C7.55228 15 8 14.5523 8 14C8 13.4477 7.55228 13 7 13H1C0.858899 13 0.724625 13.0292 0.602897 13.0819Z"
            fill="#303233" />
    </g>
    <defs>
        <clipPath id="clip0_53_3328">
            <rect width="24" height="24" fill="white" />
        </clipPath>
    </defs>
</svg>
