<svg width="24" height="24" viewBox="0 0 24 24" fill="none" xmlns="http://www.w3.org/2000/svg">
    <path fill-rule="evenodd" clip-rule="evenodd"
        d="M7.40691 2.28128C9.60054 1.24463 12.0803 0.980531 14.4431 1.53193C16.8059 2.08333 18.9126 3.41779 20.4208 5.31833C21.929 7.21887 22.7499 9.57372 22.75 12V13C22.75 13.9946 22.3549 14.9484 21.6517 15.6517C20.9484 16.3549 19.9946 16.75 19 16.75C18.0054 16.75 17.0516 16.3549 16.3484 15.6517C16.1206 15.4239 15.9251 15.1698 15.7649 14.8966C14.8964 16.0238 13.533 16.75 12 16.75C9.37666 16.75 7.25001 14.6234 7.25001 12C7.25001 9.37665 9.37666 7.25001 12 7.25001C13.2572 7.25001 14.4004 7.73843 15.25 8.53588V8.00001C15.25 7.58579 15.5858 7.25001 16 7.25001C16.4142 7.25001 16.75 7.58579 16.75 8.00001V13C16.75 13.5967 16.9871 14.169 17.409 14.591C17.831 15.013 18.4033 15.25 19 15.25C19.5967 15.25 20.169 15.013 20.591 14.591C21.013 14.169 21.25 13.5967 21.25 13V12.0001C21.25 12 21.25 12.0001 21.25 12.0001C21.2499 9.91237 20.5435 7.88608 19.2458 6.25074C17.9481 4.61539 16.1353 3.46714 14.1022 2.99268C12.0691 2.51822 9.93535 2.74547 8.04781 3.63747C6.16026 4.52947 4.62998 6.03376 3.70577 7.90575C2.78157 9.77773 2.5178 11.9073 2.95737 13.9482C3.39693 15.9891 4.51396 17.8213 6.12684 19.1469C7.73972 20.4724 9.75359 21.2134 11.841 21.2493C13.9284 21.2852 15.9665 20.6139 17.624 19.3446C17.9529 19.0927 18.4236 19.1551 18.6755 19.484C18.9273 19.8129 18.8649 20.2836 18.536 20.5355C16.6097 22.0106 14.2411 22.7908 11.8152 22.749C9.3893 22.7073 7.04886 21.8462 5.17444 20.3057C3.30001 18.7652 2.00183 16.6359 1.49099 14.264C0.980149 11.8922 1.28669 9.41726 2.36076 7.24171C3.43484 5.06616 5.21328 3.31793 7.40691 2.28128ZM15.25 12C15.25 10.2051 13.7949 8.75001 12 8.75001C10.2051 8.75001 8.75001 10.2051 8.75001 12C8.75001 13.7949 10.2051 15.25 12 15.25C13.7949 15.25 15.25 13.7949 15.25 12Z"
        fill="#303233" />
</svg>
