<svg width="16" height="16" viewBox="0 0 16 16" fill="none" xmlns="http://www.w3.org/2000/svg">
    <g clip-path="url(#clip0_53_6514)">
        <path fill-rule="evenodd" clip-rule="evenodd"
            d="M8 0.75C3.99594 0.75 0.75 3.99594 0.75 8C0.75 12.0041 3.99594 15.25 8 15.25C12.0041 15.25 15.25 12.0041 15.25 8C15.25 3.99594 12.0041 0.75 8 0.75ZM7.25 5.5C7.25 5.08579 7.58579 4.75 8 4.75H8.00667C8.42088 4.75 8.75667 5.08579 8.75667 5.5C8.75667 5.91421 8.42088 6.25 8.00667 6.25H8C7.58579 6.25 7.25 5.91421 7.25 5.5ZM8 7.25C8.41421 7.25 8.75 7.58579 8.75 8V10.5C8.75 10.9142 8.41421 11.25 8 11.25C7.58579 11.25 7.25 10.9142 7.25 10.5V8C7.25 7.58579 7.58579 7.25 8 7.25Z"
            fill="#303233" />
    </g>
    <defs>
        <clipPath id="clip0_53_6514">
            <rect width="16" height="16" fill="white" />
        </clipPath>
    </defs>
</svg>
