<svg width="24" height="24" viewBox="0 0 24 24" fill="none" xmlns="http://www.w3.org/2000/svg">
    <path fill-rule="evenodd" clip-rule="evenodd"
        d="M11.3014 2.31202C11.6068 2.4446 11.7883 2.76265 11.747 3.09302L10.8524 10.25L17.3246 10.25C17.5712 10.25 17.8048 10.2499 17.9925 10.2669C18.1723 10.2832 18.4688 10.324 18.7209 10.5278C19.0197 10.7692 19.1909 11.1347 19.1851 11.5188C19.1802 11.8429 19.0218 12.0968 18.9192 12.2454C18.812 12.4005 18.6625 12.58 18.5046 12.7693L9.57896 23.4801C9.36581 23.7359 9.00956 23.8205 8.70415 23.688C8.39874 23.5554 8.21729 23.2373 8.25858 22.907L9.1532 15.75L2.68096 15.75C2.43444 15.75 2.20081 15.7501 2.01305 15.7331C1.83324 15.7168 1.53675 15.6759 1.28465 15.4722C0.985838 15.2308 0.814662 14.8653 0.820455 14.4811C0.825342 14.1571 0.98379 13.9032 1.08639 13.7546C1.19354 13.5995 1.34312 13.42 1.50095 13.2307L10.4266 2.51986C10.6398 2.26408 10.996 2.17944 11.3014 2.31202ZM9.94129 5.44534L2.67241 14.168C2.64834 14.1969 2.62563 14.2241 2.6042 14.2499C2.63773 14.25 2.67322 14.25 2.71083 14.25H10.0028C10.2179 14.25 10.4227 14.3424 10.5651 14.5036C10.7074 14.6649 10.7737 14.8796 10.747 15.093L10.0643 20.5547L17.3332 11.832C17.3572 11.8031 17.38 11.7758 17.4014 11.7501C17.3679 11.75 17.3324 11.75 17.2948 11.75H10.0028C9.78767 11.75 9.5829 11.6576 9.44053 11.4963C9.29816 11.3351 9.2319 11.1204 9.25858 10.907L9.94129 5.44534Z"
        fill="#303233" />
    <path fill-rule="evenodd" clip-rule="evenodd"
        d="M14.9141 6.75L14.7462 8.09303C14.6949 8.50404 14.32 8.79559 13.909 8.74421C13.498 8.69283 13.2064 8.31799 13.2578 7.90697L13.7908 3.64346C13.9617 2.2761 15.124 1.25 16.502 1.25C17.88 1.25 19.0424 2.2761 19.2133 3.64346L19.7462 7.90697C19.7976 8.31799 19.5061 8.69283 19.0951 8.74421C18.684 8.79559 18.3092 8.50404 18.2578 8.09303L18.0899 6.75H14.9141ZM15.2792 3.82951C15.3563 3.2128 15.8805 2.75 16.502 2.75C17.1235 2.75 17.6478 3.2128 17.7249 3.82951L17.9024 5.25H15.1016L15.2792 3.82951Z"
        fill="#303233" />
</svg>
