<svg width="24" height="24" viewBox="0 0 24 24" fill="none" xmlns="http://www.w3.org/2000/svg">
    <path fill-rule="evenodd" clip-rule="evenodd"
        d="M20 15.25C20.4142 15.25 20.75 15.5858 20.75 16V18.25H23C23.4142 18.25 23.75 18.5858 23.75 19C23.75 19.4142 23.4142 19.75 23 19.75H20.75V22C20.75 22.4142 20.4142 22.75 20 22.75C19.5858 22.75 19.25 22.4142 19.25 22V19.75H17C16.5858 19.75 16.25 19.4142 16.25 19C16.25 18.5858 16.5858 18.25 17 18.25H19.25V16C19.25 15.5858 19.5858 15.25 20 15.25Z"
        fill="#303233" />
    <path fill-rule="evenodd" clip-rule="evenodd"
        d="M6.7679 0.25L12 0.25C14.0711 0.25 15.75 1.92893 15.75 4C15.75 4.41421 15.4142 4.75 15 4.75C14.5858 4.75 14.25 4.41421 14.25 4C14.25 2.75736 13.2426 1.75 12 1.75H6.8C5.94755 1.75 5.35331 1.75058 4.89068 1.78838C4.4368 1.82547 4.17604 1.8946 3.97852 1.99524C3.55516 2.21095 3.21095 2.55516 2.99524 2.97852C2.8946 3.17604 2.82547 3.4368 2.78838 3.89068C2.75058 4.35331 2.75 4.94755 2.75 5.8V12.2C2.75 13.0525 2.75058 13.6467 2.78838 14.1093C2.82547 14.5632 2.8946 14.824 2.99524 15.0215C3.21095 15.4448 3.55516 15.7891 3.97852 16.0048C4.32501 16.1813 4.80746 16.24 6.00521 16.2483C6.41942 16.2512 6.75286 16.5893 6.74998 17.0035C6.7471 17.4177 6.40899 17.7512 5.99479 17.7483C4.86269 17.7404 4.01245 17.7055 3.29754 17.3413C2.59193 16.9818 2.01825 16.4081 1.65873 15.7025C1.43239 15.2582 1.33803 14.7781 1.29336 14.2315C1.24999 13.7006 1.24999 13.0449 1.25 12.2321V5.7679C1.24999 4.95506 1.24999 4.29944 1.29336 3.76853C1.33803 3.2219 1.43239 2.74175 1.65873 2.29754C2.01825 1.59193 2.59193 1.01825 3.29754 0.658726C3.74175 0.432385 4.2219 0.338026 4.76853 0.293364C5.29944 0.249987 5.95506 0.249993 6.7679 0.25Z"
        fill="#303233" />
    <path fill-rule="evenodd" clip-rule="evenodd"
        d="M13.8857 6.25H17.1143C17.982 6.24999 18.6817 6.24998 19.2471 6.29921C19.8296 6.34993 20.3397 6.45718 20.8066 6.71385C21.4302 7.05667 21.9433 7.56984 22.2861 8.19342C22.5428 8.6603 22.6501 9.17037 22.7008 9.75287C22.75 10.3183 22.75 11.018 22.75 11.8857V12C22.75 12.4142 22.4142 12.75 22 12.75C21.5858 12.75 21.25 12.4142 21.25 12V11.92C21.25 11.01 21.2493 10.3757 21.2064 9.88298C21.1644 9.39997 21.0861 9.12417 20.9717 8.91605C20.766 8.5419 20.4581 8.234 20.0839 8.02831C19.8758 7.9139 19.6 7.83561 19.117 7.79356C18.6243 7.75066 17.99 7.75 17.08 7.75H13.92C13.01 7.75 12.3757 7.75066 11.883 7.79356C11.4 7.83561 11.1242 7.9139 10.9161 8.02831C10.5419 8.234 10.234 8.5419 10.0283 8.91605C9.9139 9.12417 9.83561 9.39997 9.79356 9.88298C9.75066 10.3757 9.75 11.01 9.75 11.92V18.08C9.75 18.99 9.75066 19.6243 9.79356 20.117C9.83561 20.6 9.9139 20.8758 10.0283 21.0839C10.234 21.4581 10.5419 21.766 10.9161 21.9717C11.1242 22.0861 11.4 22.1644 11.883 22.2064C12.3757 22.2493 13.01 22.25 13.92 22.25H14C14.4142 22.25 14.75 22.5858 14.75 23C14.75 23.4142 14.4142 23.75 14 23.75H13.8856C13.018 23.75 12.3183 23.75 11.7529 23.7008C11.1704 23.6501 10.6603 23.5428 10.1934 23.2861C9.56984 22.9433 9.05667 22.4302 8.71385 21.8066C8.45718 21.3397 8.34993 20.8296 8.29921 20.2471C8.24999 19.6817 8.24999 18.982 8.25 18.1143V11.8857C8.24999 11.018 8.24999 10.3183 8.29921 9.75287C8.34993 9.17037 8.45718 8.6603 8.71385 8.19342C9.05667 7.56984 9.56984 7.05667 10.1934 6.71385C10.6603 6.45718 11.1704 6.34993 11.7529 6.29921C12.3183 6.24998 13.018 6.24999 13.8857 6.25Z"
        fill="#303233" />
</svg>
