<svg width="16" height="16" viewBox="0 0 16 16" fill="none" xmlns="http://www.w3.org/2000/svg">
    <path
        d="M8.53033 1.46967C8.23744 1.17678 7.76256 1.17678 7.46967 1.46967L4.46967 4.46967C4.17678 4.76256 4.17678 5.23744 4.46967 5.53033C4.76256 5.82322 5.23744 5.82322 5.53033 5.53033L8 3.06066L10.4697 5.53033C10.7626 5.82322 11.2374 5.82322 11.5303 5.53033C11.8232 5.23744 11.8232 4.76256 11.5303 4.46967L8.53033 1.46967Z"
        fill="#303233" />
    <path
        d="M5.53033 10.4697C5.23744 10.1768 4.76256 10.1768 4.46967 10.4697C4.17678 10.7626 4.17678 11.2374 4.46967 11.5303L7.46967 14.5303C7.76256 14.8232 8.23744 14.8232 8.53033 14.5303L11.5303 11.5303C11.8232 11.2374 11.8232 10.7626 11.5303 10.4697C11.2374 10.1768 10.7626 10.1768 10.4697 10.4697L8 12.9393L5.53033 10.4697Z"
        fill="#303233" />
</svg>
