<svg width="16" height="16" viewBox="0 0 16 16" fill="none" xmlns="http://www.w3.org/2000/svg">
    <path
        d="M5.5 8C5.22386 8 5 8.22386 5 8.5C5 8.77614 5.22386 9 5.5 9H10.5C10.7761 9 11 8.77614 11 8.5C11 8.22386 10.7761 8 10.5 8H5.5Z"
        fill="#303233" />
    <path fill-rule="evenodd" clip-rule="evenodd"
        d="M1 4.00001C0.999992 2.89544 1.89543 2 3 2H6.79318C7.24589 2 7.68006 2.17986 8.00015 2.5C8.32024 2.82014 8.75441 3 9.20712 3H13.0001C14.1046 3 15.0001 3.89543 15.0001 5V12C15.0001 13.1046 14.1046 14 13.0001 14H3.00006C1.89549 14 1.00006 13.1046 1.00006 12L1 4.00001ZM2.00015 5C2.00015 4.44772 2.44787 4 3.00015 4H13.0002C13.5524 4 14.0002 4.44772 14.0002 5V12C14.0002 12.5523 13.5524 13 13.0002 13H3.00015C2.44787 13 2.00015 12.5523 2.00015 12V5Z"
        fill="#303233" />
</svg>
