<svg width="16" height="16" viewBox="0 0 16 16" fill="none" xmlns="http://www.w3.org/2000/svg">
    <path fill-rule="evenodd" clip-rule="evenodd"
        d="M8 1C8.27614 1 8.5 1.22386 8.5 1.5C8.5 1.77614 8.27614 2 8 2C6.24066 2 4.66748 2.21988 3.55078 2.56348C2.98938 2.73622 2.57128 2.93204 2.30469 3.12598C2.02736 3.32778 2 3.46049 2 3.5C2 3.53951 2.02736 3.67222 2.30469 3.87402C2.57128 4.06796 2.98938 4.26378 3.55078 4.43652C4.66748 4.78012 6.24066 5 8 5C8.27614 5 8.5 5.22386 8.5 5.5C8.5 5.77614 8.27614 6 8 6C6.16958 6 4.49266 5.7728 3.25684 5.39258C2.77953 5.24572 2.35089 5.07019 2 4.86621V8C2 8.03951 2.02736 8.17222 2.30469 8.37402C2.57128 8.56796 2.98938 8.76378 3.55078 8.93652C4.66748 9.28012 6.24066 9.5 8 9.5C9.75934 9.5 11.3325 9.28012 12.4492 8.93652C13.0106 8.76378 13.4287 8.56796 13.6953 8.37402C13.9726 8.17222 14 8.03951 14 8C14 7.72386 14.2239 7.5 14.5 7.5C14.7761 7.5 15 7.72386 15 8V12.5C15 13.0128 14.6635 13.406 14.2832 13.6826C13.892 13.9672 13.358 14.2034 12.7432 14.3926C11.5073 14.7728 9.83042 15 8 15C6.16958 15 4.49266 14.7728 3.25684 14.3926C2.64197 14.2034 2.10804 13.9672 1.7168 13.6826C1.3365 13.406 1 13.0128 1 12.5V3.5C1 2.98724 1.3365 2.59404 1.7168 2.31738C2.10804 2.03276 2.64197 1.79661 3.25684 1.60742C4.49266 1.2272 6.16958 1 8 1ZM14 9.36621C13.6491 9.57019 13.2205 9.74572 12.7432 9.89258C11.5073 10.2728 9.83042 10.5 8 10.5C6.16958 10.5 4.49266 10.2728 3.25684 9.89258C2.77953 9.74572 2.35089 9.57019 2 9.36621V12.5C2 12.5395 2.02736 12.6722 2.30469 12.874C2.57128 13.068 2.98938 13.2638 3.55078 13.4365C4.66748 13.7801 6.24066 14 8 14C9.75934 14 11.3325 13.7801 12.4492 13.4365C13.0106 13.2638 13.4287 13.068 13.6953 12.874C13.9726 12.6722 14 12.5395 14 12.5V9.36621Z"
        fill="#303233" />
    <path fill-rule="evenodd" clip-rule="evenodd"
        d="M13 0C14.6566 0.00024479 16 1.3433 16 3C16 4.6567 14.6566 5.99976 13 6C11.3431 6 10 4.65685 10 3C10 1.34315 11.3431 0 13 0ZM13 4.125C12.7929 4.125 12.625 4.29289 12.625 4.5C12.625 4.70711 12.7929 4.87598 13 4.87598C13.2069 4.87573 13.375 4.70793 13.375 4.50098C13.375 4.29402 13.2069 4.12524 13 4.125ZM13 1.125C12.7929 1.125 12.625 1.29289 12.625 1.5V3C12.625 3.20711 12.7929 3.375 13 3.375C13.2069 3.37476 13.375 3.20696 13.375 3V1.5C13.375 1.29304 13.2069 1.12524 13 1.125Z"
        fill="#303233" />
</svg>
