<svg width="24" height="24" viewBox="0 0 24 24" fill="none" xmlns="http://www.w3.org/2000/svg">
    <g clip-path="url(#clip0_53_2394)">
        <path fill-rule="evenodd" clip-rule="evenodd"
            d="M1.87868 4.87868C2.44129 4.31607 3.20435 4 4 4H5C5.26522 4 5.51957 4.10536 5.70711 4.29289L16.7071 15.2929C16.8946 15.4804 17 15.7348 17 16V17C17 17.7957 16.6839 18.5587 16.1213 19.1213C15.5587 19.6839 14.7957 20 14 20H4C3.20435 20 2.44129 19.6839 1.87868 19.1213C1.31607 18.5587 1 17.7956 1 17V7C1 6.20435 1.31607 5.44129 1.87868 4.87868ZM9.57612 4.61732C9.7309 4.24364 10.0955 4 10.5 4H14C14.7956 4 15.5587 4.31607 16.1213 4.87868C16.6839 5.44129 17 6.20435 17 7V8.38197L21.5528 6.10557C21.8628 5.95058 22.2309 5.96714 22.5257 6.14935C22.8205 6.33156 23 6.65342 23 7V16.5C23 16.9045 22.7564 17.2691 22.3827 17.4239C22.009 17.5787 21.5789 17.4931 21.2929 17.2071L9.79289 5.70711C9.5069 5.42111 9.42134 4.99099 9.57612 4.61732Z"
            fill="#303233" />
        <path fill-rule="evenodd" clip-rule="evenodd"
            d="M0.292893 0.292893C0.683417 -0.0976311 1.31658 -0.0976311 1.70711 0.292893L23.7071 22.2929C24.0976 22.6834 24.0976 23.3166 23.7071 23.7071C23.3166 24.0976 22.6834 24.0976 22.2929 23.7071L0.292893 1.70711C-0.0976311 1.31658 -0.0976311 0.683417 0.292893 0.292893Z"
            fill="#303233" />
    </g>
    <defs>
        <clipPath id="clip0_53_2394">
            <rect width="24" height="24" fill="white" />
        </clipPath>
    </defs>
</svg>
