<svg width="24" height="24" viewBox="0 0 24 24" fill="none" xmlns="http://www.w3.org/2000/svg">
    <path
        d="M2.75 2V2.001C2.75 2.41521 2.41421 2.751 2 2.751C1.58579 2.751 1.25 2.41521 1.25 2.001V2C1.25 1.58579 1.58579 1.25 2 1.25C2.41421 1.25 2.75 1.58579 2.75 2Z"
        fill="#303233" />
    <path
        d="M22.5303 2.53033L19.5303 5.53033C19.2374 5.82322 18.7626 5.82322 18.4697 5.53033C18.1768 5.23744 18.1768 4.76256 18.4697 4.46967L21.4697 1.46967C21.7626 1.17678 22.2374 1.17678 22.5303 1.46967C22.8232 1.76256 22.8232 2.23744 22.5303 2.53033Z"
        fill="#303233" />
    <path
        d="M12 3C9.23858 3 7 5.23858 7 8C7 10.7614 9.23858 13 12 13C14.7614 13 17 10.7614 17 8C17 5.23858 14.7614 3 12 3Z"
        fill="#303233" />
    <path
        d="M11.9999 14C7.80492 14 4.28257 16.8692 3.28352 20.7507C3.20647 21.0501 3.27222 21.3683 3.46163 21.6127C3.65104 21.857 3.94281 22 4.25196 22H19.7479C20.057 22 20.3488 21.857 20.5382 21.6127C20.7276 21.3683 20.7934 21.0501 20.7163 20.7507C19.7173 16.8692 16.1949 14 11.9999 14Z"
        fill="#303233" />
    <path
        d="M22.5303 7.53033C22.8232 7.23744 22.8232 6.76256 22.5303 6.46967C22.2374 6.17678 21.7626 6.17678 21.4697 6.46967L18.4697 9.46967C18.1768 9.76256 18.1768 10.2374 18.4697 10.5303C18.7626 10.8232 19.2374 10.8232 19.5303 10.5303L22.5303 7.53033Z"
        fill="#303233" />
    <path
        d="M6.53033 12.4697C6.82322 12.7626 6.82322 13.2374 6.53033 13.5303L2.53033 17.5303C2.23744 17.8232 1.76256 17.8232 1.46967 17.5303C1.17678 17.2374 1.17678 16.7626 1.46967 16.4697L5.46967 12.4697C5.76256 12.1768 6.23744 12.1768 6.53033 12.4697Z"
        fill="#303233" />
    <path
        d="M22.5303 12.5303C22.8232 12.2374 22.8232 11.7626 22.5303 11.4697C22.2374 11.1768 21.7626 11.1768 21.4697 11.4697L19.4697 13.4697C19.1768 13.7626 19.1768 14.2374 19.4697 14.5303C19.7626 14.8232 20.2374 14.8232 20.5303 14.5303L22.5303 12.5303Z"
        fill="#303233" />
    <path
        d="M5.03033 8.96967C5.32322 9.26256 5.32322 9.73744 5.03033 10.0303L2.53033 12.5303C2.23744 12.8232 1.76256 12.8232 1.46967 12.5303C1.17678 12.2374 1.17678 11.7626 1.46967 11.4697L3.96967 8.96967C4.26256 8.67678 4.73744 8.67678 5.03033 8.96967Z"
        fill="#303233" />
    <path
        d="M7.53033 2.53033C7.82322 2.23744 7.82322 1.76256 7.53033 1.46967C7.23744 1.17678 6.76256 1.17678 6.46967 1.46967L1.46967 6.46967C1.17678 6.76256 1.17678 7.23744 1.46967 7.53033C1.76256 7.82322 2.23744 7.82322 2.53033 7.53033L7.53033 2.53033Z"
        fill="#303233" />
    <path
        d="M22.75 17.001V17C22.75 16.5858 22.4142 16.25 22 16.25C21.5858 16.25 21.25 16.5858 21.25 17V17.001C21.25 17.4152 21.5858 17.751 22 17.751C22.4142 17.751 22.75 17.4152 22.75 17.001Z"
        fill="#303233" />
</svg>
