<svg width="24" height="24" viewBox="0 0 24 24" fill="none" xmlns="http://www.w3.org/2000/svg">
    <path
        d="M8.7679 1.25H15.2321C16.0449 1.24999 16.7006 1.24999 17.2315 1.29336C17.7781 1.33803 18.2582 1.43239 18.7025 1.65873C19.4081 2.01825 19.9817 2.59193 20.3413 3.29754C20.5676 3.74176 20.662 4.2219 20.7066 4.76853C20.75 5.29944 20.75 5.95505 20.75 6.76788V15.75H20.25V15C20.25 13.7574 19.2426 12.75 18 12.75C16.7574 12.75 15.75 13.7574 15.75 15V15.75H15C13.7574 15.75 12.75 16.7574 12.75 18C12.75 19.2426 13.7574 20.25 15 20.25H15.75V21C15.75 21.7009 16.0705 22.327 16.5729 22.7396C16.1815 22.75 15.7372 22.75 15.2322 22.75H8.76788C7.95505 22.75 7.29944 22.75 6.76853 22.7066C6.2219 22.662 5.74176 22.5676 5.29754 22.3413C4.59193 21.9817 4.01825 21.4081 3.65873 20.7025C3.43239 20.2582 3.33803 19.7781 3.29336 19.2315C3.24999 18.7006 3.24999 18.0449 3.25 17.2321V6.76789C3.24999 5.95505 3.24999 5.29944 3.29336 4.76853C3.33803 4.2219 3.43239 3.74176 3.65873 3.29754C4.01825 2.59193 4.59193 2.01825 5.29754 1.65873C5.74176 1.43239 6.2219 1.33803 6.76853 1.29336C7.29944 1.24999 7.95506 1.24999 8.7679 1.25Z"
        fill="#303233" />
    <path
        d="M18.75 15C18.75 14.5858 18.4142 14.25 18 14.25C17.5858 14.25 17.25 14.5858 17.25 15V17.25H15C14.5858 17.25 14.25 17.5858 14.25 18C14.25 18.4142 14.5858 18.75 15 18.75H17.25V21C17.25 21.4142 17.5858 21.75 18 21.75C18.4142 21.75 18.75 21.4142 18.75 21V18.75H21C21.4142 18.75 21.75 18.4142 21.75 18C21.75 17.5858 21.4142 17.25 21 17.25H18.75V15Z"
        fill="#303233" />
</svg>
