<svg width="16" height="16" viewBox="0 0 16 16" fill="none" xmlns="http://www.w3.org/2000/svg">
    <path fill-rule="evenodd" clip-rule="evenodd"
        d="M3.93414 2.86966C4.22703 3.16256 4.22703 3.63743 3.93414 3.93032C1.68862 6.17584 1.68862 9.81654 3.93414 12.0621C4.22703 12.3549 4.22703 12.8298 3.93414 13.1227C3.64124 13.4156 3.16637 13.4156 2.87348 13.1227C0.0421748 10.2914 0.0421748 5.70096 2.87348 2.86966C3.16637 2.57677 3.64124 2.57677 3.93414 2.86966ZM12.0659 2.86969C12.3588 2.5768 12.8336 2.5768 13.1265 2.86969C15.9578 5.70099 15.9578 10.2914 13.1265 13.1227C12.8336 13.4156 12.3588 13.4156 12.0659 13.1227C11.773 12.8298 11.773 12.355 12.0659 12.0621C14.3114 9.81657 14.3114 6.17587 12.0659 3.93035C11.773 3.63746 11.773 3.16259 12.0659 2.86969ZM5.77261 4.70812C6.06551 5.00101 6.06551 5.47589 5.77261 5.76878C4.54246 6.99893 4.54246 8.9934 5.77261 10.2236C6.06551 10.5164 6.06551 10.9913 5.77261 11.2842C5.47972 11.5771 5.00485 11.5771 4.71195 11.2842C2.89602 9.46827 2.89602 6.52406 4.71195 4.70812C5.00485 4.41523 5.47972 4.41523 5.77261 4.70812ZM10.2274 4.70814C10.5203 4.41525 10.9952 4.41525 11.288 4.70814C13.104 6.52408 13.104 9.4683 11.288 11.2842C10.9952 11.5771 10.5203 11.5771 10.2274 11.2842C9.93449 10.9913 9.93449 10.5165 10.2274 10.2236C11.4575 8.99342 11.4575 6.99895 10.2274 5.7688C9.93449 5.47591 9.93449 5.00103 10.2274 4.70814ZM5.95 7.99619C5.95 6.864 6.86782 5.94619 8 5.94619C9.13218 5.94619 10.05 6.864 10.05 7.99619C10.05 9.12837 9.13218 10.0462 8 10.0462C6.86782 10.0462 5.95 9.12837 5.95 7.99619Z"
        fill="#303233" />
</svg>
