<svg width="24" height="24" viewBox="0 0 24 24" fill="none" xmlns="http://www.w3.org/2000/svg">
    <path fill-rule="evenodd" clip-rule="evenodd"
        d="M8.7679 1.25H15.2321C16.0449 1.24999 16.7006 1.24999 17.2315 1.29336C17.7781 1.33803 18.2582 1.43239 18.7025 1.65873C19.4081 2.01825 19.9817 2.59193 20.3413 3.29754C20.5676 3.74176 20.662 4.2219 20.7066 4.76853C20.75 5.29944 20.75 5.95505 20.75 6.76788V11.25H23C23.4142 11.25 23.75 11.5858 23.75 12C23.75 12.4142 23.4142 12.75 23 12.75H1C0.585786 12.75 0.25 12.4142 0.25 12C0.25 11.5858 0.585786 11.25 1 11.25H3.25V6.76789C3.24999 5.95505 3.24999 5.29944 3.29336 4.76853C3.33803 4.2219 3.43239 3.74176 3.65873 3.29754C4.01825 2.59193 4.59193 2.01825 5.29754 1.65873C5.74175 1.43239 6.2219 1.33803 6.76853 1.29336C7.29944 1.24999 7.95507 1.24999 8.7679 1.25ZM4.75 11.25H19.25V6.8C19.25 5.94755 19.2494 5.35331 19.2116 4.89068C19.1745 4.43681 19.1054 4.17604 19.0048 3.97852C18.789 3.55516 18.4448 3.21095 18.0215 2.99524C17.824 2.8946 17.5632 2.82547 17.1093 2.78838C16.6467 2.75058 16.0525 2.75 15.2 2.75H8.8C7.94755 2.75 7.35331 2.75058 6.89068 2.78838C6.4368 2.82547 6.17604 2.8946 5.97852 2.99524C5.55516 3.21095 5.21095 3.55516 4.99524 3.97852C4.8946 4.17604 4.82547 4.43681 4.78838 4.89068C4.75058 5.35331 4.75 5.94755 4.75 6.8V11.25Z"
        fill="#303233" />
    <path
        d="M20 19.25C20.4142 19.25 20.75 19.5858 20.75 20C20.75 21.5188 19.5188 22.75 18 22.75C17.5858 22.75 17.25 22.4142 17.25 22C17.25 21.5858 17.5858 21.25 18 21.25C18.6904 21.25 19.25 20.6904 19.25 20C19.25 19.5858 19.5858 19.25 20 19.25Z"
        fill="#303233" />
    <path
        d="M4 19.25C4.41421 19.25 4.75 19.5858 4.75 20C4.75 20.6904 5.30964 21.25 6 21.25C6.41421 21.25 6.75 21.5858 6.75 22C6.75 22.4142 6.41421 22.75 6 22.75C4.48122 22.75 3.25 21.5188 3.25 20C3.25 19.5858 3.58579 19.25 4 19.25Z"
        fill="#303233" />
    <path
        d="M4.75 15C4.75 14.5858 4.41421 14.25 4 14.25C3.58579 14.25 3.25 14.5858 3.25 15V16C3.25 16.4142 3.58579 16.75 4 16.75C4.41421 16.75 4.75 16.4142 4.75 16V15Z"
        fill="#303233" />
    <path
        d="M20 14.25C20.4142 14.25 20.75 14.5858 20.75 15V16C20.75 16.4142 20.4142 16.75 20 16.75C19.5858 16.75 19.25 16.4142 19.25 16V15C19.25 14.5858 19.5858 14.25 20 14.25Z"
        fill="#303233" />
    <path
        d="M10 21.25C9.58579 21.25 9.25 21.5858 9.25 22C9.25 22.4142 9.58579 22.75 10 22.75H14C14.4142 22.75 14.75 22.4142 14.75 22C14.75 21.5858 14.4142 21.25 14 21.25H10Z"
        fill="#303233" />
</svg>
