<svg width="24" height="24" viewBox="0 0 24 24" fill="none" xmlns="http://www.w3.org/2000/svg">
    <path
        d="M2.82135 19.9602C2.71626 20.1936 2.61148 20.4264 2.54348 20.6227C2.48105 20.8029 2.36698 21.1658 2.47877 21.5676C2.6051 22.0216 2.93746 22.3898 3.37619 22.5619C3.76442 22.7142 4.13705 22.6378 4.32272 22.5941C4.52495 22.5465 4.76717 22.4661 5.01012 22.3854L11.0006 20.3971V13.4981C11.0006 12.9458 11.4483 12.4981 12.0006 12.4981C12.5528 12.4981 13.0006 12.9458 13.0006 13.4981V20.3751L18.984 22.3782C19.2276 22.4598 19.4702 22.541 19.6727 22.5892C19.8583 22.6334 20.2316 22.7111 20.6208 22.5592C21.0604 22.3878 21.3936 22.0195 21.5205 21.565C21.6328 21.1626 21.5183 20.7989 21.4558 20.6186C21.3877 20.4219 21.2827 20.1887 21.1773 19.9545L13.6271 3.17645C13.5245 2.9483 13.4216 2.71943 13.3211 2.5409C13.2278 2.37509 13.0343 2.05494 12.6654 1.87252C12.2464 1.66536 11.7548 1.66536 11.3357 1.87252C10.9668 2.05494 10.7734 2.3751 10.68 2.54091C10.5796 2.71945 10.4766 2.9483 10.374 3.17648L2.82135 19.9602Z"
        fill="#303233" />
</svg>
