<svg width="24" height="24" viewBox="0 0 24 24" fill="none" xmlns="http://www.w3.org/2000/svg">
    <path fill-rule="evenodd" clip-rule="evenodd"
        d="M19 2.92157C18.7271 2.92157 18.4568 2.97533 18.2046 3.07978C17.9525 3.18423 17.7233 3.33733 17.5303 3.53033L4.17118 16.8895L3.06893 20.9311L7.11052 19.8288L20.4697 6.46967C20.6627 6.27667 20.8158 6.04754 20.9202 5.79538C21.0247 5.54321 21.0784 5.27294 21.0784 5C21.0784 4.72705 21.0247 4.45678 20.9202 4.20462C20.8158 3.95245 20.6627 3.72333 20.4697 3.53033C20.2767 3.33733 20.0476 3.18423 19.7954 3.07978C19.5432 2.97533 19.273 2.92157 19 2.92157ZM17.6306 1.69396C18.0648 1.51413 18.5301 1.42157 19 1.42157C19.4699 1.42157 19.9353 1.51413 20.3694 1.69396C20.8036 1.87379 21.1981 2.13738 21.5303 2.46967C21.8626 2.80195 22.1262 3.19644 22.3061 3.63059C22.4859 4.06475 22.5784 4.53007 22.5784 5C22.5784 5.46992 22.4859 5.93524 22.3061 6.3694C22.1262 6.80356 21.8626 7.19804 21.5303 7.53033L8.03035 21.0303C7.93806 21.1226 7.82328 21.1892 7.69736 21.2236L2.19736 22.7236C1.9377 22.7944 1.66 22.7206 1.46969 22.5303C1.27937 22.34 1.20563 22.0623 1.27644 21.8027L2.77644 16.3027C2.81079 16.1767 2.8774 16.062 2.96969 15.9697L16.4697 2.46967C16.802 2.13738 17.1965 1.87379 17.6306 1.69396Z"
        fill="#303233" />
</svg>
