<svg width="16" height="16" viewBox="0 0 16 16" fill="none" xmlns="http://www.w3.org/2000/svg">
    <g clip-path="url(#clip0_3668_60)">
        <path
            d="M9.53033 4.46967C9.23744 4.17678 8.76257 4.17678 8.46967 4.46967C8.17678 4.76256 8.17678 5.23743 8.46967 5.53033L9.68935 6.75001H7.49999C5.42893 6.75001 3.75 8.42894 3.75 10.5C3.75 10.9142 4.08579 11.25 4.5 11.25C4.91421 11.25 5.25 10.9142 5.25 10.5C5.25 9.25737 6.25735 8.25001 7.49999 8.25001H9.68933L8.46967 9.46967C8.17678 9.76256 8.17678 10.2374 8.46967 10.5303C8.76256 10.8232 9.23743 10.8232 9.53033 10.5303L12.0303 8.03034C12.171 7.88969 12.25 7.69893 12.25 7.50001C12.25 7.3011 12.171 7.11034 12.0303 6.96968L9.53033 4.46967Z"
            fill="#303233" />
        <path fill-rule="evenodd" clip-rule="evenodd"
            d="M8 0.25C3.71979 0.25 0.25 3.71979 0.25 8C0.25 12.2802 3.71979 15.75 8 15.75C12.2802 15.75 15.75 12.2802 15.75 8C15.75 3.71979 12.2802 0.25 8 0.25ZM1.75 8C1.75 4.54822 4.54822 1.75 8 1.75C11.4518 1.75 14.25 4.54822 14.25 8C14.25 11.4518 11.4518 14.25 8 14.25C4.54822 14.25 1.75 11.4518 1.75 8Z"
            fill="#303233" />
    </g>
    <defs>
        <clipPath id="clip0_3668_60">
            <rect width="16" height="16" fill="white" />
        </clipPath>
    </defs>
</svg>
