<svg width="16" height="16" viewBox="0 0 16 16" fill="none" xmlns="http://www.w3.org/2000/svg">
    <path
        d="M8 8.5C8.85517 8.5 9.54845 7.82843 9.54845 7C9.54845 6.17157 8.85517 5.5 8 5.5C7.14483 5.5 6.45156 6.17157 6.45156 7C6.45156 7.82843 7.14483 8.5 8 8.5Z"
        fill="#303233" />
    <path
        d="M10.6346 11.5C10.8673 11.5 11.0493 11.3013 10.988 11.0837C10.6296 9.81077 9.42762 8.875 8 8.875C6.57239 8.875 5.37037 9.81077 5.01199 11.0837C4.95074 11.3013 5.13263 11.5 5.36545 11.5H10.6346Z"
        fill="#303233" />
    <path fill-rule="evenodd" clip-rule="evenodd"
        d="M3 1.75C1.75735 1.75 0.749991 2.75737 0.75 4.00002L0.750056 12C0.750065 13.2427 1.75742 14.25 3.00006 14.25H13.0001C14.2427 14.25 15.2501 13.2426 15.2501 12V5C15.2501 3.75736 14.2427 2.75 13.0001 2.75H9.20712C8.82072 2.75 8.45015 2.59649 8.17694 2.32324C7.80997 1.9562 7.3122 1.75 6.79318 1.75H3ZM2.25015 5C2.25015 4.58579 2.58594 4.25 3.00015 4.25H13.0002C13.4144 4.25 13.7502 4.58579 13.7502 5V12C13.7502 12.4142 13.4144 12.75 13.0002 12.75H3.00015C2.58594 12.75 2.25015 12.4142 2.25015 12V5Z"
        fill="#303233" />
</svg>
