<svg width="24" height="24" viewBox="0 0 24 24" fill="none" xmlns="http://www.w3.org/2000/svg">
    <path fill-rule="evenodd" clip-rule="evenodd"
        d="M11.3545 1.77565C11.7628 1.58095 12.2372 1.58095 12.6456 1.77565C12.9986 1.94397 13.1932 2.2362 13.2914 2.39653C13.3929 2.56229 13.4971 2.77345 13.5986 2.97926C13.6038 2.98975 13.6089 3.00022 13.6141 3.01068L15.7543 7.34647L20.5763 8.05128C20.8033 8.08441 21.0362 8.1184 21.2252 8.16383C21.4079 8.20778 21.7458 8.30283 22.0147 8.58667C22.3258 8.91504 22.4721 9.36625 22.4129 9.81469C22.3617 10.2023 22.1439 10.4776 22.0217 10.6204C21.8954 10.768 21.7267 10.9322 21.5624 11.0922L18.0745 14.4894L18.8975 19.2876C18.9364 19.5139 18.9762 19.746 18.9916 19.9398C19.0064 20.1272 19.0207 20.4781 18.834 20.8218C18.6181 21.2194 18.2342 21.4982 17.7893 21.5807C17.4047 21.652 17.0755 21.5299 16.9018 21.4578C16.7223 21.3833 16.5139 21.2737 16.3107 21.1668L12 18.8999L7.68936 21.1668C7.4862 21.2737 7.27778 21.3833 7.09823 21.4578C6.9246 21.5299 6.59531 21.652 6.21071 21.5807C5.76584 21.4982 5.38196 21.2194 5.16601 20.8218C4.97931 20.4781 4.99365 20.1272 5.00849 19.9398C5.02383 19.746 5.06369 19.5139 5.10254 19.2876L5.9255 14.4894L2.46283 11.1167C2.45447 11.1086 2.4461 11.1004 2.43771 11.0923C2.27334 10.9322 2.10469 10.768 1.97838 10.6204C1.85618 10.4776 1.63833 10.2023 1.58714 9.81469C1.52792 9.36625 1.67422 8.91504 1.98531 8.58667C2.25423 8.30283 2.59214 8.20778 2.7749 8.16383C2.96381 8.1184 3.19672 8.08441 3.42371 8.05128C3.4353 8.04959 3.44687 8.0479 3.45842 8.04621L8.24576 7.34647L10.386 3.01068C10.3911 3.00022 10.3963 2.98973 10.4015 2.97923C10.503 2.77343 10.6072 2.56228 10.7087 2.39653C10.8068 2.23621 11.0014 1.94397 11.3545 1.77565ZM12 4.25925L9.99269 8.3259C9.98885 8.33367 9.98448 8.34273 9.97956 8.35291C9.93191 8.45156 9.83325 8.65582 9.67679 8.82422C9.54472 8.96637 9.38633 9.08155 9.21039 9.16336C9.00195 9.26029 8.77722 9.29117 8.66869 9.30609C8.65749 9.30762 8.64753 9.30899 8.63895 9.31025L4.14844 9.9666L7.39633 13.13C7.40255 13.1361 7.40982 13.1431 7.418 13.1509C7.49725 13.2268 7.66134 13.3839 7.77331 13.585C7.86783 13.7547 7.92847 13.9412 7.95186 14.1341C7.97956 14.3626 7.93924 14.5862 7.91977 14.6942C7.91776 14.7053 7.91597 14.7152 7.9145 14.7238L7.14821 19.1917L11.1622 17.0807C11.1699 17.0767 11.1788 17.0719 11.1887 17.0666C11.2854 17.0147 11.4855 16.9073 11.7113 16.863C11.902 16.8256 12.0981 16.8256 12.2887 16.863C12.5145 16.9073 12.7147 17.0147 12.8113 17.0666C12.8213 17.0719 12.8302 17.0767 12.8378 17.0807L16.8518 19.1917L16.0855 14.7238C16.0841 14.7152 16.0823 14.7053 16.0803 14.6942C16.0608 14.5862 16.0205 14.3626 16.0482 14.1341C16.0716 13.9412 16.1322 13.7547 16.2267 13.585C16.3387 13.3839 16.5028 13.2268 16.5821 13.1509C16.5902 13.1431 16.5975 13.1361 16.6037 13.13L19.8516 9.9666L15.3611 9.31025C15.3525 9.30899 15.3426 9.30762 15.3314 9.30609C15.2228 9.29117 14.9981 9.26029 14.7897 9.16336C14.6137 9.08155 14.4553 8.96637 14.3233 8.82422C14.1668 8.65583 14.0681 8.45157 14.0205 8.35291C14.0156 8.34273 14.0112 8.33367 14.0074 8.3259L12 4.25925Z"
        fill="#303233" />
</svg>
