<svg width="16" height="16" viewBox="0 0 16 16" fill="none" xmlns="http://www.w3.org/2000/svg">
    <path fill-rule="evenodd" clip-rule="evenodd"
        d="M8 1C4.13401 1 1 4.13401 1 8C1 11.866 4.13401 15 8 15C11.866 15 15 11.866 15 8C15 4.13401 11.866 1 8 1ZM3.20158 4.39731C4.29635 2.9415 6.03823 2 8 2C8.40808 2 8.80664 2.04074 9.19184 2.11837L8.66652 4.74499C8.58022 5.1765 8.30879 5.54834 7.92411 5.76205L6.36111 6.63039C5.76642 6.96077 5.88346 7.84862 6.54344 8.01361L9.40986 8.73022C10.1458 8.91421 10.6286 9.61872 10.5345 10.3715L10.5072 10.5898C10.4691 10.8941 10.3388 11.1793 10.1337 11.4072L7.80307 13.9968C7.69877 13.9935 7.59515 13.9874 7.49227 13.9788L7.22227 9.65893C7.19509 9.22406 6.88946 8.85684 6.46675 8.75116L5.2868 8.45618C4.78927 8.33179 4.38976 7.96184 4.22758 7.4753L3.20158 4.39731Z"
        fill="#303233" />
</svg>
