<svg width="16" height="16" viewBox="0 0 16 16" fill="none" xmlns="http://www.w3.org/2000/svg">
    <path
        d="M3.75 1.75C2.64543 1.75 1.75 2.64543 1.75 3.75C1.75 4.85457 2.64543 5.75 3.75 5.75H12.25C13.3546 5.75 14.25 4.85457 14.25 3.75C14.25 2.64543 13.3546 1.75 12.25 1.75H3.75Z"
        fill="#303233" />
    <path
        d="M2.5 6.75C2.08579 6.75 1.75 7.08579 1.75 7.5C1.75 7.91421 2.08579 8.25 2.5 8.25H7.5C7.91421 8.25 8.25 7.91421 8.25 7.5C8.25 7.08579 7.91421 6.75 7.5 6.75H2.5Z"
        fill="#303233" />
    <path
        d="M1.75 10C1.75 9.58579 2.08579 9.25 2.5 9.25H7.5C7.91421 9.25 8.25 9.58579 8.25 10C8.25 10.4142 7.91421 10.75 7.5 10.75H2.5C2.08579 10.75 1.75 10.4142 1.75 10Z"
        fill="#303233" />
    <path
        d="M2.5 11.75C2.08579 11.75 1.75 12.0858 1.75 12.5C1.75 12.9142 2.08579 13.25 2.5 13.25H7.5C7.91421 13.25 8.25 12.9142 8.25 12.5C8.25 12.0858 7.91421 11.75 7.5 11.75H2.5Z"
        fill="#303233" />
    <path
        d="M12.75 9.31066L13.7197 10.2803C14.0126 10.5732 14.4874 10.5732 14.7803 10.2803C15.0732 9.98744 15.0732 9.51256 14.7803 9.21967L12.5303 6.96967C12.2374 6.67678 11.7626 6.67678 11.4697 6.96967L9.21967 9.21967C8.92678 9.51256 8.92678 9.98744 9.21967 10.2803C9.51256 10.5732 9.98744 10.5732 10.2803 10.2803L11.25 9.31066V12.5C11.25 12.9142 11.5858 13.25 12 13.25C12.4142 13.25 12.75 12.9142 12.75 12.5V9.31066Z"
        fill="#303233" />
</svg>
