<svg width="16" height="16" viewBox="0 0 16 16" fill="none" xmlns="http://www.w3.org/2000/svg">
    <path
        d="M6 8C6 6.89543 6.89543 6 8 6C9.10457 6 10 6.89543 10 8C10 9.10457 9.10457 10 8 10C6.89543 10 6 9.10457 6 8Z"
        fill="#303233" />
    <path fill-rule="evenodd" clip-rule="evenodd"
        d="M13.635 1.77248C13.3388 1.62159 13.0187 1.55868 12.6543 1.52891C12.3004 1.49999 11.8633 1.5 11.3214 1.5L4.6786 1.5C4.1367 1.5 3.69963 1.49999 3.34569 1.52891C2.98126 1.55869 2.66117 1.62159 2.36502 1.77249C1.89462 2.01217 1.51217 2.39462 1.27248 2.86503C1.12159 3.16117 1.05868 3.48127 1.02891 3.84569C0.999991 4.19963 0.999995 4.6367 1 5.17859V10.8214C0.999995 11.3633 0.999991 11.8004 1.02891 12.1543C1.05868 12.5187 1.12159 12.8388 1.27248 13.135C1.51217 13.6054 1.89462 13.9878 2.36502 14.2275C2.66117 14.3784 2.98126 14.4413 3.34569 14.4711C3.69961 14.5 4.13667 14.5 4.67853 14.5L11.3214 14.5C11.8633 14.5 12.3004 14.5 12.6543 14.4711C13.0187 14.4413 13.3388 14.3784 13.635 14.2275C14.1054 13.9878 14.4878 13.6054 14.7275 13.135C14.8784 12.8388 14.9413 12.5187 14.9711 12.1543C15 11.8004 15 11.3633 15 10.8215V5.17858C15 4.63672 15 4.19961 14.9711 3.84569C14.9413 3.48126 14.8784 3.16117 14.7275 2.86502C14.4878 2.39462 14.1054 2.01217 13.635 1.77248ZM8 5C6.34315 5 5 6.34315 5 8C5 9.65685 6.34314 11 8 11C9.65685 11 11 9.65685 11 8C11 6.34315 9.65685 5 8 5Z"
        fill="#303233" />
</svg>
