<svg width="16" height="16" viewBox="0 0 16 16" fill="none" xmlns="http://www.w3.org/2000/svg">
    <path fill-rule="evenodd" clip-rule="evenodd"
        d="M1.94956 0.749867L2.00022 0.749971H14.0002L14.0509 0.749867C14.227 0.749331 14.4429 0.748674 14.6384 0.801083C15.1561 0.939783 15.5604 1.3441 15.6991 1.86174C15.7515 2.05733 15.7509 2.27319 15.7503 2.44931L15.7502 2.49997L15.7503 2.55063C15.7509 2.72675 15.7515 2.94261 15.6991 3.1382C15.5604 3.65584 15.1561 4.06016 14.6384 4.19886C14.4429 4.25127 14.227 4.25061 14.0509 4.25008L14.0002 4.24997H2.00022L1.94956 4.25008C1.77344 4.25061 1.55758 4.25127 1.36199 4.19886C0.844349 4.06016 0.440027 3.65584 0.301327 3.1382C0.248918 2.94261 0.249575 2.72675 0.250111 2.55063L0.250215 2.49997L0.250111 2.44931C0.249575 2.27319 0.248918 2.05733 0.301327 1.86174C0.440027 1.3441 0.844349 0.939783 1.36199 0.801083C1.55758 0.748674 1.77344 0.749331 1.94956 0.749867ZM1.75302 2.25278L1.75263 2.26066C1.7504 2.30966 1.75022 2.37693 1.75022 2.49997C1.75022 2.62302 1.7504 2.69028 1.75263 2.73928L1.75302 2.74716L1.76091 2.74756C1.80991 2.74979 1.87717 2.74997 2.00022 2.74997H14.0002C14.1233 2.74997 14.1905 2.74979 14.2395 2.74756L14.2474 2.74716L14.2478 2.73928C14.25 2.69028 14.2502 2.62302 14.2502 2.49997C14.2502 2.37693 14.25 2.30966 14.2478 2.26066L14.2474 2.25278L14.2395 2.25239C14.1905 2.25015 14.1233 2.24997 14.0002 2.24997H2.00022C1.87717 2.24997 1.80991 2.25015 1.76091 2.25239L1.75302 2.25278Z"
        fill="#303233" />
    <path fill-rule="evenodd" clip-rule="evenodd"
        d="M1.94956 5.74987L2.00022 5.74997H14.0002L14.0509 5.74987C14.227 5.74933 14.4429 5.74867 14.6384 5.80108C15.1561 5.93978 15.5604 6.3441 15.6991 6.86174C15.7515 7.05733 15.7509 7.27319 15.7503 7.44931L15.7502 7.49997L15.7503 7.55063C15.7509 7.72675 15.7515 7.94261 15.6991 8.1382C15.5604 8.65584 15.1561 9.06016 14.6384 9.19886C14.4429 9.25127 14.227 9.25061 14.0509 9.25008L14.0002 9.24997H2.00022L1.94956 9.25008C1.77344 9.25061 1.55758 9.25127 1.36199 9.19886C0.844349 9.06016 0.440027 8.65584 0.301327 8.1382C0.248918 7.94261 0.249575 7.72675 0.250111 7.55063L0.250215 7.49997L0.250111 7.44931C0.249575 7.27319 0.248918 7.05733 0.301327 6.86174C0.440027 6.3441 0.844349 5.93978 1.36199 5.80108C1.55758 5.74867 1.77344 5.74933 1.94956 5.74987ZM1.75302 7.25278L1.75263 7.26066C1.7504 7.30966 1.75022 7.37693 1.75022 7.49997C1.75022 7.62302 1.7504 7.69028 1.75263 7.73928L1.75302 7.74716L1.76091 7.74756C1.80991 7.74979 1.87717 7.74997 2.00022 7.74997H14.0002C14.1233 7.74997 14.1905 7.74979 14.2395 7.74756L14.2474 7.74716L14.2478 7.73928C14.25 7.69028 14.2502 7.62302 14.2502 7.49997C14.2502 7.37693 14.25 7.30966 14.2478 7.26066L14.2474 7.25278L14.2395 7.25239C14.1905 7.25015 14.1233 7.24997 14.0002 7.24997H2.00022C1.87717 7.24997 1.80991 7.25015 1.76091 7.25239L1.75302 7.25278Z"
        fill="#303233" />
    <path fill-rule="evenodd" clip-rule="evenodd"
        d="M2.00022 10.75L1.94956 10.7499C1.77344 10.7493 1.55757 10.7487 1.36199 10.8011C0.844349 10.9398 0.440027 11.3441 0.301327 11.8617C0.248918 12.0573 0.249575 12.2732 0.250111 12.4493L0.250215 12.5L0.250111 12.5506C0.249575 12.7268 0.248918 12.9426 0.301327 13.1382C0.440027 13.6558 0.844349 14.0602 1.36199 14.1989C1.55758 14.2513 1.77344 14.2506 1.94956 14.2501L2.00022 14.25H14.0002L14.0509 14.2501C14.227 14.2506 14.4429 14.2513 14.6384 14.1989C15.1561 14.0602 15.5604 13.6558 15.6991 13.1382C15.7515 12.9426 15.7509 12.7268 15.7503 12.5506L15.7502 12.5L15.7503 12.4493C15.7509 12.2732 15.7515 12.0573 15.6991 11.8617C15.5604 11.3441 15.1561 10.9398 14.6384 10.8011C14.4429 10.7487 14.227 10.7493 14.0509 10.7499L14.0002 10.75H2.00022ZM1.75263 12.2607L1.75302 12.2528L1.76091 12.2524C1.80991 12.2502 1.87717 12.25 2.00022 12.25H14.0002C14.1233 12.25 14.1905 12.2502 14.2395 12.2524L14.2474 12.2528L14.2478 12.2607C14.25 12.3097 14.2502 12.3769 14.2502 12.5C14.2502 12.623 14.25 12.6903 14.2478 12.7393L14.2474 12.7472L14.2395 12.7476C14.1905 12.7498 14.1233 12.75 14.0002 12.75H2.00022C1.87717 12.75 1.80991 12.7498 1.76091 12.7476L1.75302 12.7472L1.75263 12.7393C1.7504 12.6903 1.75022 12.623 1.75022 12.5C1.75022 12.3769 1.7504 12.3097 1.75263 12.2607Z"
        fill="#303233" />
</svg>
