<svg width="24" height="24" viewBox="0 0 24 24" fill="none" xmlns="http://www.w3.org/2000/svg">
<path d="M12.0001 0.25C18.4894 0.250033 23.7501 5.51067 23.7501 12C23.7501 12.2943 23.7381 12.5861 23.7169 12.875C23.2855 12.3573 22.7879 11.8974 22.2364 11.5078C21.9795 6.07552 17.4959 1.75003 12.0001 1.75C6.33914 1.75 1.75006 6.33908 1.75006 12C1.75006 17.4956 6.07505 21.979 11.5069 22.2363C11.8965 22.788 12.3572 23.2853 12.8751 23.7168C12.5861 23.7381 12.2944 23.75 12.0001 23.75C5.51072 23.75 0.250061 18.4893 0.250061 12C0.250061 5.51065 5.51072 0.25 12.0001 0.25ZM8.00006 7C8.41425 7.00003 8.75006 7.33581 8.75006 7.75V14.1895L10.4698 12.4697C10.7627 12.1769 11.2375 12.1768 11.5303 12.4697C11.6885 12.6279 11.7578 12.8389 11.7452 13.0459C11.5331 13.3157 11.3383 13.5994 11.1631 13.8965L8.53033 16.5303C8.23745 16.8232 7.76268 16.8231 7.46979 16.5303L4.46979 13.5303C4.17689 13.2374 4.17689 12.7626 4.46979 12.4697C4.76268 12.1769 5.23745 12.1768 5.53033 12.4697L7.25006 14.1895V7.75C7.25006 7.33579 7.58585 7 8.00006 7ZM16.0001 7.25C16.1017 7.25001 16.1988 7.26998 16.2872 7.30664C16.3756 7.34324 16.4584 7.39782 16.5303 7.46973L19.3077 10.2471C18.9458 10.1752 18.5745 10.1286 18.1964 10.1094L17.7999 10.0996C17.5551 10.0996 17.3132 10.1124 17.0743 10.1348L16.7501 9.81055V10.1729C16.2318 10.2436 15.7302 10.3657 15.2501 10.5342V9.81055L13.8965 11.1631C13.5995 11.3382 13.3157 11.533 13.046 11.7451C12.839 11.7578 12.628 11.6884 12.4698 11.5303C12.1769 11.2374 12.1769 10.7626 12.4698 10.4697L15.4698 7.46973C15.5417 7.39783 15.6245 7.34324 15.713 7.30664C15.8013 7.27 15.8984 7.25 16.0001 7.25Z" fill="#303233"/>
</svg>
