<svg width="24" height="24" viewBox="0 0 24 24" fill="none" xmlns="http://www.w3.org/2000/svg">
    <path fill-rule="evenodd" clip-rule="evenodd"
        d="M4.25 8C4.25 5.37665 6.37665 3.25 9 3.25C11.6234 3.25 13.75 5.37665 13.75 8C13.75 10.6234 11.6234 12.75 9 12.75C6.37665 12.75 4.25 10.6234 4.25 8ZM9 4.75C7.20507 4.75 5.75 6.20507 5.75 8C5.75 9.79493 7.20507 11.25 9 11.25C10.7949 11.25 12.25 9.79493 12.25 8C12.25 6.20507 10.7949 4.75 9 4.75Z"
        fill="#303233" />
    <path
        d="M9.0001 15.75C5.62292 15.75 2.78333 18.0598 1.97846 21.1869C1.87522 21.5881 1.46633 21.8296 1.06519 21.7263C0.664051 21.6231 0.42256 21.2142 0.525807 20.8131C1.49711 17.0393 4.92192 14.25 9.0001 14.25C13.0783 14.25 16.5031 17.0393 17.4744 20.8131C17.5776 21.2142 17.3361 21.6231 16.935 21.7263C16.5339 21.8296 16.125 21.5881 16.0217 21.1869C15.2169 18.0598 12.3773 15.75 9.0001 15.75Z"
        fill="#303233" />
    <path
        d="M20.5303 15.5303L23.5303 12.5303C23.8232 12.2374 23.8232 11.7626 23.5303 11.4697L20.5303 8.46967C20.2374 8.17678 19.7626 8.17678 19.4697 8.46967C19.1768 8.76256 19.1768 9.23744 19.4697 9.53033L21.1893 11.25H17C16.5858 11.25 16.25 11.5858 16.25 12C16.25 12.4142 16.5858 12.75 17 12.75H21.1893L19.4697 14.4697C19.1768 14.7626 19.1768 15.2374 19.4697 15.5303C19.7626 15.8232 20.2374 15.8232 20.5303 15.5303Z"
        fill="#303233" />
</svg>
