<svg width="16" height="16" viewBox="0 0 16 16" fill="none" xmlns="http://www.w3.org/2000/svg">
    <path fill-rule="evenodd" clip-rule="evenodd"
        d="M8 4.75C6.20507 4.75 4.75 6.20507 4.75 8C4.75 9.79492 6.20507 11.25 8 11.25C9.79493 11.25 11.25 9.79493 11.25 8C11.25 6.20507 9.79493 4.75 8 4.75ZM6.25 8C6.25 7.0335 7.0335 6.25 8 6.25C8.9665 6.25 9.75 7.0335 9.75 8C9.75 8.9665 8.9665 9.75 8 9.75C7.0335 9.75 6.25 8.9665 6.25 8Z"
        fill="#303233" />
    <path fill-rule="evenodd" clip-rule="evenodd"
        d="M13.7485 1.54973C13.4112 1.37789 13.0546 1.31078 12.6747 1.27974C12.3104 1.24998 11.8646 1.24999 11.3305 1.25L4.66957 1.25C4.13541 1.24999 3.68956 1.24998 3.32533 1.27974C2.94545 1.31078 2.58879 1.37789 2.25153 1.54974C1.73408 1.81339 1.31338 2.23408 1.04973 2.75153C0.877889 3.08879 0.810778 3.44545 0.77974 3.82533C0.749982 4.18956 0.74999 4.63541 0.75 5.16956V10.8304C0.74999 11.3646 0.749982 11.8104 0.77974 12.1747C0.810778 12.5546 0.877889 12.9112 1.04973 13.2485C1.31338 13.7659 1.73408 14.1866 2.25153 14.4503C2.58879 14.6221 2.94545 14.6892 3.32533 14.7203C3.68955 14.75 4.13538 14.75 4.66951 14.75L11.3305 14.75C11.8646 14.75 12.3105 14.75 12.6747 14.7203C13.0546 14.6892 13.4112 14.6221 13.7485 14.4503C14.2659 14.1866 14.6866 13.7659 14.9503 13.2485C15.1221 12.9112 15.1892 12.5546 15.2203 12.1747C15.25 11.8105 15.25 11.3646 15.25 10.8305V5.16955C15.25 4.63542 15.25 4.18955 15.2203 3.82533C15.1892 3.44545 15.1221 3.08879 14.9503 2.75153C14.6866 2.23408 14.2659 1.81338 13.7485 1.54973ZM11.3 2.75C11.8724 2.75 12.2566 2.75058 12.5525 2.77476C12.8396 2.79822 12.9769 2.8401 13.0675 2.88624C13.3027 3.00609 13.4939 3.19731 13.6138 3.43251C13.6599 3.52307 13.7018 3.66036 13.7252 3.94748C13.7494 4.24336 13.75 4.62757 13.75 5.2V10.8C13.75 11.3724 13.7494 11.7566 13.7252 12.0525C13.7018 12.3396 13.6599 12.4769 13.6138 12.5675C13.4939 12.8027 13.3027 12.9939 13.0675 13.1138C12.9769 13.1599 12.8396 13.2018 12.5525 13.2252C12.2566 13.2494 11.8724 13.25 11.3 13.25L4.7 13.25C4.12757 13.25 3.74336 13.2494 3.44748 13.2252C3.16036 13.2018 3.02307 13.1599 2.93251 13.1138C2.69731 12.9939 2.50608 12.8027 2.38624 12.5675C2.3401 12.4769 2.29822 12.3396 2.27476 12.0525C2.25058 11.7566 2.25 11.3724 2.25 10.8V5.2C2.25 4.62757 2.25058 4.24336 2.27476 3.94748C2.29822 3.66036 2.3401 3.52308 2.38624 3.43252C2.50608 3.19731 2.69731 3.00609 2.93251 2.88624C3.02307 2.8401 3.16036 2.79822 3.44748 2.77476C3.74336 2.75059 4.12757 2.75 4.7 2.75L11.3 2.75Z"
        fill="#303233" />
</svg>
