<svg width="24" height="24" viewBox="0 0 24 24" fill="none" xmlns="http://www.w3.org/2000/svg">
    <path fill-rule="evenodd" clip-rule="evenodd"
        d="M1.25 5.5C1.25 3.42893 2.92893 1.75 5 1.75H19C21.0711 1.75 22.75 3.42893 22.75 5.5V7.5C22.75 9.57107 21.0711 11.25 19 11.25H5C2.92893 11.25 1.25 9.57107 1.25 7.5V5.5ZM17.25 6.5C17.25 6.08579 17.5858 5.75 18 5.75H18.01C18.4242 5.75 18.76 6.08579 18.76 6.5C18.76 6.91421 18.4242 7.25 18.01 7.25H18C17.5858 7.25 17.25 6.91421 17.25 6.5Z"
        fill="#303233" />
    <path fill-rule="evenodd" clip-rule="evenodd"
        d="M1.25 16.5C1.25 14.4289 2.92893 12.75 5 12.75H19C21.0711 12.75 22.75 14.4289 22.75 16.5V18.5C22.75 20.5711 21.0711 22.25 19 22.25H5C2.92893 22.25 1.25 20.5711 1.25 18.5V16.5ZM17.25 17.5C17.25 17.0858 17.5858 16.75 18 16.75H18.01C18.4242 16.75 18.76 17.0858 18.76 17.5C18.76 17.9142 18.4242 18.25 18.01 18.25H18C17.5858 18.25 17.25 17.9142 17.25 17.5Z"
        fill="#303233" />
</svg>
