<svg width="16" height="16" viewBox="0 0 16 16" fill="none" xmlns="http://www.w3.org/2000/svg">
    <path fill-rule="evenodd" clip-rule="evenodd"
        d="M5.76942 0.75H10.2306C10.7821 0.74999 11.2411 0.749982 11.6157 0.780592C12.006 0.812481 12.3704 0.881295 12.7143 1.05655C13.2436 1.32619 13.6738 1.75645 13.9435 2.28565C14.1187 2.6296 14.1875 2.99397 14.2194 3.38428C14.25 3.75893 14.25 4.21787 14.25 4.7694V11.2306C14.25 11.7821 14.25 12.2411 14.2194 12.6157C14.1875 13.006 14.1187 13.3704 13.9435 13.7143C13.6738 14.2436 13.2436 14.6738 12.7143 14.9435C12.3704 15.1187 12.006 15.1875 11.6157 15.2194C11.2411 15.25 10.7821 15.25 10.2306 15.25H5.7694C5.21787 15.25 4.75893 15.25 4.38428 15.2194C3.99397 15.1875 3.6296 15.1187 3.28565 14.9435C2.75645 14.6738 2.32619 14.2436 2.05655 13.7143C1.8813 13.3704 1.81248 13.006 1.78059 12.6157C1.74998 12.2411 1.74999 11.7821 1.75 11.2306V4.76942C1.74999 4.21789 1.74998 3.75893 1.78059 3.38428C1.81248 2.99397 1.8813 2.6296 2.05655 2.28565C2.32619 1.75645 2.75645 1.32619 3.28565 1.05655C3.6296 0.881295 3.99397 0.812481 4.38428 0.780592C4.75893 0.749982 5.21789 0.74999 5.76942 0.75ZM5.25 8C5.25 7.58579 5.58579 7.25 6 7.25H7.25V6C7.25 5.58579 7.58579 5.25 8 5.25C8.41421 5.25 8.75 5.58579 8.75 6V7.25H10C10.4142 7.25 10.75 7.58579 10.75 8C10.75 8.41421 10.4142 8.75 10 8.75H8.75V10C8.75 10.4142 8.41421 10.75 8 10.75C7.58579 10.75 7.25 10.4142 7.25 10V8.75H6C5.58579 8.75 5.25 8.41421 5.25 8Z"
        fill="#303233" />
</svg>
