<svg width="24" height="24" viewBox="0 0 24 24" fill="none" xmlns="http://www.w3.org/2000/svg">
    <path fill-rule="evenodd" clip-rule="evenodd"
        d="M5.63604 4.22182C6.02656 4.61234 6.02656 5.24551 5.63604 5.63603C2.12132 9.15075 2.12132 14.8492 5.63604 18.364C6.02656 18.7545 6.02656 19.3876 5.63604 19.7782C5.24551 20.1687 4.61235 20.1687 4.22183 19.7782C-0.0739417 15.4824 -0.0739417 8.51759 4.22183 4.22182C4.61235 3.83129 5.24551 3.83129 5.63604 4.22182ZM18.364 4.22186C18.7545 3.83134 19.3876 3.83134 19.7782 4.22186C24.0739 8.51763 24.0739 15.4824 19.7782 19.7782C19.3876 20.1687 18.7545 20.1687 18.364 19.7782C17.9734 19.3877 17.9734 18.7545 18.364 18.364C21.8787 14.8493 21.8787 9.1508 18.364 5.63608C17.9734 5.24555 17.9734 4.61239 18.364 4.22186ZM8.46447 7.05021C8.85499 7.44073 8.85499 8.0739 8.46447 8.46442C6.51184 10.417 6.51184 13.5829 8.46447 15.5355C8.85499 15.926 8.85499 16.5592 8.46447 16.9497C8.07394 17.3402 7.44078 17.3402 7.05025 16.9497C4.31658 14.216 4.31658 9.78388 7.05025 7.05021C7.44078 6.65969 8.07394 6.65969 8.46447 7.05021ZM15.5355 7.05024C15.9261 6.65972 16.5592 6.65972 16.9497 7.05024C19.6834 9.78392 19.6834 14.2161 16.9497 16.9497C16.5592 17.3403 15.9261 17.3403 15.5355 16.9497C15.145 16.5592 15.145 15.926 15.5355 15.5355C17.4882 13.5829 17.4882 10.4171 15.5355 8.46446C15.145 8.07393 15.145 7.44077 15.5355 7.05024Z"
        fill="#303233" />
    <path fill-rule="evenodd" clip-rule="evenodd"
        d="M11.6382 9.29288C11.6447 9.29704 11.651 9.30109 11.6571 9.30501L14.0174 10.8223C14.0227 10.8258 14.0283 10.8294 14.0341 10.8331C14.1049 10.8785 14.2065 10.9437 14.2913 11.0098C14.3835 11.0817 14.5743 11.2418 14.6891 11.5135C14.8205 11.8245 14.8205 12.1755 14.6891 12.4865C14.5743 12.7582 14.3835 12.9183 14.2913 12.9901C14.2065 13.0563 14.1049 13.1214 14.0341 13.1669C14.0283 13.1706 14.0227 13.1742 14.0174 13.1776L11.6571 14.695C11.651 14.6989 11.6447 14.7029 11.6382 14.7071C11.5559 14.7601 11.4446 14.8317 11.3418 14.8853C11.2386 14.939 10.9874 15.0622 10.6609 15.0389C10.2993 15.0131 9.96666 14.8315 9.74935 14.5412C9.5532 14.2792 9.52103 14.0012 9.51041 13.8854C9.49982 13.77 9.49992 13.6377 9.49999 13.5397C9.49999 13.5321 9.5 13.5246 9.5 13.5173V10.4827C9.5 10.4754 9.49999 10.4679 9.49999 10.4602C9.49992 10.3623 9.49982 10.23 9.51041 10.1146C9.52103 9.99876 9.5532 9.72078 9.74935 9.45877C9.96666 9.16851 10.2993 8.98692 10.6609 8.96109C10.9874 8.93777 11.2386 9.06103 11.3418 9.11471C11.4446 9.16824 11.5559 9.23985 11.6382 9.29288Z"
        fill="#303233" />
</svg>
