<svg width="16" height="16" viewBox="0 0 16 16" fill="none" xmlns="http://www.w3.org/2000/svg">
    <g clip-path="url(#clip0_53_5870)">
        <path fill-rule="evenodd" clip-rule="evenodd"
            d="M7 0.25C3.27208 0.25 0.25 3.27208 0.25 7C0.25 7.89648 0.425163 8.7539 0.743828 9.53855C0.768998 9.60052 0.784298 9.63833 0.794916 9.66597L0.790709 9.69289L0.778277 9.76827L0.379583 12.1604C0.361883 12.2663 0.341272 12.3897 0.333121 12.4977C0.324179 12.6162 0.320268 12.8125 0.4099 13.0215C0.519466 13.277 0.723031 13.4805 0.978485 13.5901C1.18746 13.6797 1.38383 13.6758 1.5023 13.6669C1.61026 13.6587 1.73362 13.6381 1.83957 13.6204L4.23173 13.2217L4.3071 13.2093L4.33403 13.2051C4.36167 13.2157 4.39948 13.231 4.46145 13.2562C5.055 13.4972 5.6902 13.6562 6.35245 13.7193C7.31298 14.955 8.81359 15.75 10.4999 15.75C11.1969 15.75 11.8639 15.6138 12.4744 15.3659L12.5206 15.3472L12.5453 15.3513L14.3411 15.6506C14.4185 15.6635 14.5192 15.6804 14.6091 15.6872C14.7092 15.6947 14.8922 15.6997 15.0899 15.6149C15.3258 15.5138 15.5137 15.3259 15.6148 15.0901C15.6996 14.8923 15.6946 14.7093 15.687 14.6092C15.6802 14.5193 15.6634 14.4186 15.6505 14.3412L15.3511 12.5454L15.3471 12.5207L15.3658 12.4745C15.6137 11.864 15.7499 11.197 15.7499 10.5C15.7499 8.81381 14.9549 7.31326 13.7194 6.35272C13.3936 2.92845 10.5096 0.25 7 0.25ZM13.6052 8.39712C13.0566 11.0039 11.0037 13.0567 8.3969 13.6053C8.99664 14.0122 9.7205 14.25 10.4999 14.25C11.0001 14.25 11.4756 14.1525 11.9099 13.9761L11.9322 13.967C12.0031 13.9379 12.1132 13.8928 12.2185 13.8692C12.3118 13.8483 12.3961 13.8389 12.4917 13.8389C12.5992 13.8389 12.7065 13.8572 12.7726 13.8684L12.7919 13.8717L14.0875 14.0876L13.8716 12.792L13.8683 12.7727C13.857 12.7066 13.8388 12.5993 13.8388 12.4919C13.8388 12.3962 13.8481 12.312 13.8691 12.2186C13.8927 12.1133 13.9378 12.0032 13.9669 11.9323L13.976 11.9101C14.1524 11.4758 14.2499 11.0002 14.2499 10.5C14.2499 9.72067 14.0122 8.99685 13.6052 8.39712ZM1.75 7C1.75 4.10051 4.10051 1.75 7 1.75C9.8995 1.75 12.25 4.10051 12.25 7C12.25 9.8995 9.8995 12.25 7 12.25C6.30029 12.25 5.63431 12.1135 5.02587 11.8664L4.99567 11.8541C4.89742 11.8139 4.77188 11.7626 4.65385 11.7362C4.54733 11.7123 4.45335 11.7019 4.34418 11.7019C4.22363 11.7018 4.1022 11.7224 4.01111 11.7378L3.98513 11.7421L1.91241 12.0876L2.25787 10.0149L2.26224 9.98889C2.27763 9.8978 2.29815 9.77637 2.29814 9.65582C2.29812 9.54665 2.28771 9.45267 2.26384 9.34615C2.23738 9.2281 2.18607 9.10258 2.14591 9.00434L2.13359 8.97413C1.88649 8.36569 1.75 7.69971 1.75 7Z"
            fill="#303233" />
    </g>
    <defs>
        <clipPath id="clip0_53_5870">
            <rect width="16" height="16" fill="white" />
        </clipPath>
    </defs>
</svg>
