<svg width="16" height="16" viewBox="0 0 16 16" fill="none" xmlns="http://www.w3.org/2000/svg">
    <path fill-rule="evenodd" clip-rule="evenodd"
        d="M8 1C4.13401 1 1 4.13401 1 8C1 11.866 4.13401 15 8 15C11.866 15 15 11.866 15 8C15 4.13401 11.866 1 8 1ZM9.05871 8.51393C9.05752 8.5702 9.08044 8.63898 9.1263 8.77655L9.72264 10.5656C9.79966 10.7966 9.83817 10.9122 9.81508 11.0042C9.79487 11.0847 9.74462 11.1544 9.67463 11.199C9.59469 11.25 9.4729 11.25 9.22932 11.25H6.77224C6.52866 11.25 6.40687 11.25 6.32693 11.199C6.25695 11.1544 6.20669 11.0847 6.18648 11.0042C6.16339 10.9122 6.2019 10.7966 6.27893 10.5656L6.87527 8.77655C6.92112 8.63898 6.94405 8.5702 6.94286 8.51393C6.9416 8.45476 6.93369 8.42374 6.90644 8.37119C6.88053 8.32123 6.81125 8.25677 6.67271 8.12785C6.2901 7.77182 6.05078 7.26386 6.05078 6.7C6.05078 5.62304 6.92383 4.75 8.00078 4.75C9.07774 4.75 9.95078 5.62304 9.95078 6.7C9.95078 7.26386 9.71146 7.77182 9.32886 8.12785C9.19032 8.25676 9.12103 8.32124 9.09513 8.37119C9.06788 8.42374 9.05996 8.45476 9.05871 8.51393Z"
        fill="#303233" />
</svg>
