<svg width="16" height="16" viewBox="0 0 16 16" fill="none" xmlns="http://www.w3.org/2000/svg">
    <path fill-rule="evenodd" clip-rule="evenodd"
        d="M4.36733 2.09661C4.11266 1.9678 3.8119 1.9678 3.55722 2.09661C3.44715 2.15228 3.32782 2.26272 2.9287 2.66184L2.81856 2.77198C2.43321 3.15734 2.30508 3.29097 2.20453 3.46996C2.08998 3.67388 1.99931 4.02256 2 4.25645C2.00063 4.46562 2.03531 4.59824 2.14977 5.00153C2.72867 7.04111 3.82078 8.96581 5.42749 10.5725C7.03419 12.1792 8.95889 13.2713 10.9985 13.8502C11.4018 13.9647 11.5344 13.9994 11.7436 14C11.9774 14.0007 12.3261 13.91 12.53 13.7955C12.709 13.6949 12.8427 13.5668 13.228 13.1814L13.3382 13.0713C13.7373 12.6722 13.8477 12.5529 13.9034 12.4428C14.0322 12.1881 14.0322 11.8873 13.9034 11.6327C13.8477 11.5226 13.7373 11.4033 13.3382 11.0042L13.202 10.868C12.9397 10.6057 12.8616 10.5314 12.7938 10.4874C12.4963 10.294 12.1129 10.294 11.8154 10.4874C11.7476 10.5314 11.6695 10.6057 11.4072 10.868C11.4021 10.873 11.3971 10.8781 11.392 10.8832C11.3273 10.948 11.2594 11.0161 11.1782 11.0742C10.8876 11.2823 10.4881 11.3505 10.1449 11.2504C10.0493 11.2225 9.97102 11.1849 9.89774 11.1496C9.89267 11.1472 9.88762 11.1447 9.88259 11.1423C8.81954 10.6319 7.82371 9.93632 6.94369 9.05631C6.06368 8.17629 5.36809 7.18046 4.85769 6.11741C4.85528 6.11238 4.85285 6.10734 4.85041 6.10227C4.81514 6.02898 4.77747 5.95072 4.7496 5.85512C4.64955 5.51189 4.71766 5.11245 4.9258 4.82177C4.98395 4.74057 5.05202 4.67265 5.11683 4.60798C5.12191 4.60291 5.12697 4.59786 5.13201 4.59282C5.39434 4.33049 5.46856 4.2524 5.51264 4.1846C5.70604 3.88715 5.70604 3.50368 5.51264 3.20623C5.46856 3.13843 5.39434 3.06033 5.13201 2.798L4.99585 2.66184C4.59673 2.26272 4.4774 2.15228 4.36733 2.09661ZM3.10587 1.20426C3.64433 0.931913 4.28022 0.931913 4.81868 1.20426C5.09119 1.3421 5.33099 1.58225 5.64592 1.89764C5.66465 1.9164 5.68366 1.93544 5.70295 1.95473L5.83911 2.09089C5.85182 2.1036 5.86435 2.11611 5.8767 2.12845C6.08427 2.33582 6.24188 2.49328 6.35102 2.66113C6.75991 3.29003 6.75991 4.10079 6.35102 4.72969C6.24189 4.89754 6.08427 5.055 5.8767 5.26236C5.86435 5.2747 5.85182 5.28722 5.83911 5.29993C5.74863 5.39041 5.743 5.39817 5.73885 5.40396C5.70941 5.44508 5.69549 5.52672 5.70964 5.57527C5.71055 5.5784 5.71191 5.58294 5.7179 5.59673C5.7258 5.61491 5.73684 5.63807 5.75917 5.68459C6.22139 6.6473 6.85168 7.55008 7.6508 8.3492C8.44992 9.14832 9.3527 9.77861 10.3154 10.2408C10.3619 10.2632 10.3851 10.2742 10.4033 10.2821C10.4171 10.2881 10.4216 10.2894 10.4247 10.2904C10.4733 10.3045 10.5549 10.2906 10.596 10.2612C10.6018 10.257 10.6096 10.2514 10.7001 10.1609C10.7128 10.1482 10.7253 10.1357 10.7376 10.1233C10.945 9.91573 11.1025 9.75812 11.2703 9.64898C11.8992 9.24009 12.71 9.24009 13.3389 9.64898C13.5067 9.75811 13.6642 9.91573 13.8715 10.1233C13.8839 10.1356 13.8964 10.1482 13.9091 10.1609L14.0453 10.297C14.0646 10.3163 14.0836 10.3353 14.1024 10.3541C14.4177 10.669 14.6579 10.9088 14.7957 11.1813C15.0681 11.7198 15.0681 12.3557 14.7957 12.8941C14.6579 13.1666 14.4177 13.4064 14.1024 13.7214C14.0836 13.7401 14.0646 13.7591 14.0453 13.7784L13.9351 13.8885C13.9222 13.9015 13.9095 13.9142 13.8968 13.9268C13.563 14.2608 13.3321 14.4919 13.0198 14.6673C12.6654 14.8664 12.147 15.0012 11.7406 15C11.3827 14.9989 11.1253 14.9258 10.7568 14.8211C10.7464 14.8182 10.736 14.8152 10.7254 14.8122C8.52601 14.188 6.45074 13.01 4.72038 11.2796C2.99002 9.54926 1.81203 7.47399 1.18777 5.27458C1.18478 5.26404 1.18182 5.25359 1.17887 5.24324C1.07419 4.8747 1.00107 4.61727 1.00001 4.25943C0.998798 3.85298 1.13362 3.33456 1.33268 2.9802C1.50813 2.66786 1.73916 2.43696 2.07316 2.10315C2.08578 2.09054 2.09854 2.07779 2.11146 2.06488L2.2216 1.95473C2.24089 1.93544 2.2599 1.91641 2.27864 1.89764C2.59356 1.58225 2.83336 1.3421 3.10587 1.20426Z"
        fill="#303233" />
</svg>
