<svg width="24" height="24" viewBox="0 0 24 24" fill="none" xmlns="http://www.w3.org/2000/svg">
    <g clip-path="url(#clip0_53_9510)">
        <path fill-rule="evenodd" clip-rule="evenodd"
            d="M1.70711 0.292893C1.31658 -0.0976311 0.683417 -0.0976311 0.292893 0.292893C-0.0976311 0.683417 -0.0976311 1.31658 0.292893 1.70711L22.2929 23.7071C22.6834 24.0976 23.3166 24.0976 23.7071 23.7071C24.0976 23.3166 24.0976 22.6834 23.7071 22.2929L22.0279 20.6137C22.2368 20.3717 22.4172 20.1042 22.564 19.816C22.8113 19.3306 22.9099 18.8139 22.9558 18.2518C23 17.7106 23 17.0463 23 16.2413V7.75868C23 6.95372 23 6.28937 22.9558 5.74818C22.9099 5.18608 22.8113 4.66937 22.564 4.18404C22.1805 3.43139 21.5686 2.81947 20.816 2.43598C20.3306 2.18868 19.8139 2.09012 19.2518 2.0442C18.7106 1.99998 18.0463 1.99999 17.2413 2H6.7587C5.95375 1.99999 5.28936 1.99998 4.74818 2.0442C4.36463 2.07553 4.00221 2.13138 3.65648 2.24226L1.70711 0.292893ZM9.24261 7.8284L10.7066 9.29237C11.0982 9.10495 11.5369 9 12 9C13.6569 9 15 10.3431 15 12C15 12.4631 14.895 12.9018 14.7076 13.2934L16.1716 14.7574C16.6951 13.967 17 13.0191 17 12C17 9.23858 14.7614 7 12 7C10.9809 7 10.033 7.30488 9.24261 7.8284Z"
            fill="#303233" />
        <path
            d="M7 12C7 11.7598 7.01694 11.5235 7.04969 11.2923L1.09029 5.33295C1.07059 5.46864 1.05573 5.60698 1.0442 5.74818C0.999979 6.28936 0.999988 6.95371 1 7.75867V16.2413C0.999988 17.0463 0.999979 17.7106 1.0442 18.2518C1.09012 18.8139 1.18868 19.3306 1.43598 19.816C1.81947 20.5686 2.43139 21.1805 3.18404 21.564C3.66938 21.8113 4.18608 21.9099 4.74818 21.9558C5.28937 22 5.95372 22 6.75868 22H17.2413C17.42 22 17.5918 22 17.7569 21.9995L12.7077 16.9503C12.4765 16.9831 12.2402 17 12 17C9.23858 17 7 14.7614 7 12Z"
            fill="#303233" />
    </g>
    <defs>
        <clipPath id="clip0_53_9510">
            <rect width="24" height="24" fill="white" />
        </clipPath>
    </defs>
</svg>
