<svg width="16" height="16" viewBox="0 0 16 16" fill="none" xmlns="http://www.w3.org/2000/svg">
    <g clip-path="url(#clip0_53_7012)">
        <path fill-rule="evenodd" clip-rule="evenodd"
            d="M1.35355 0.646447C1.15829 0.451184 0.841709 0.451184 0.646447 0.646447C0.451184 0.841709 0.451184 1.15829 0.646447 1.35355L3.05533 3.76243C2.38276 4.53628 2 5.56582 2 6.564C2 7.56589 2.38802 8.4936 2.93039 9.30216C3.47317 10.1113 4.18851 10.8285 4.89111 11.4207C5.59559 12.0144 6.30097 12.4939 6.83631 12.8251C7.10431 12.9909 7.33187 13.1209 7.49807 13.2106C7.58077 13.2553 7.65072 13.2913 7.70435 13.3172C7.7305 13.3299 7.75725 13.3423 7.78182 13.3526C7.79348 13.3575 7.81093 13.3646 7.83081 13.3714C7.84058 13.3747 7.85686 13.38 7.87692 13.3849C7.88969 13.3881 7.93803 13.4 8 13.4C8.06302 13.4 8.11194 13.3877 8.12458 13.3845C8.14466 13.3795 8.16148 13.374 8.17123 13.3707C8.19114 13.3638 8.20872 13.3566 8.22064 13.3516C8.24576 13.3409 8.2734 13.328 8.3008 13.3147C8.35693 13.2874 8.43048 13.2494 8.51767 13.2021C8.69283 13.1071 8.93266 12.9693 9.21424 12.7937C9.68673 12.499 10.2833 12.0936 10.8925 11.5996L14.6464 15.3536C14.8417 15.5488 15.1583 15.5488 15.3536 15.3536C15.5488 15.1583 15.5488 14.8417 15.3536 14.6464L1.35355 0.646447ZM10.1812 10.8883L3.76475 4.47185C3.28091 5.05474 3 5.8251 3 6.564C3 7.30389 3.28726 8.03907 3.76086 8.74509C4.23406 9.45052 4.87538 10.0996 5.53556 10.656C6.19386 11.2108 6.85737 11.6622 7.36244 11.9747C7.61464 12.1307 7.82518 12.2508 7.97313 12.3307L8 12.3451L8.0408 12.3231C8.19747 12.2381 8.41985 12.1106 8.68502 11.9452C9.11026 11.68 9.63961 11.321 10.1812 10.8883Z"
            fill="#303233" />
        <path
            d="M8.38062 4.3823C8.7401 3.96031 9.33937 3.5 10.2611 3.5C11.8439 3.5 13 5.03457 13 6.564C13 7.39255 12.6395 8.21475 12.0639 8.99371C11.8998 9.2158 11.9468 9.52887 12.1689 9.69298C12.391 9.85708 12.704 9.81008 12.8681 9.58799C13.5149 8.71268 14 7.68456 14 6.564C14 4.65318 12.5528 2.5 10.2611 2.5C9.24941 2.5 8.50764 2.90157 8.00008 3.34704C7.58867 2.98579 7.02178 2.65227 6.27733 2.5398C6.00428 2.49855 5.7495 2.68645 5.70825 2.9595C5.667 3.23254 5.8549 3.48733 6.12795 3.52858C6.82856 3.63442 7.31106 4.02035 7.61938 4.3823C7.71438 4.49382 7.8535 4.55806 8 4.55806C8.1465 4.55806 8.28562 4.49382 8.38062 4.3823Z"
            fill="#303233" />
    </g>
    <defs>
        <clipPath id="clip0_53_7012">
            <rect width="16" height="16" fill="white" />
        </clipPath>
    </defs>
</svg>
