<svg width="16" height="16" viewBox="0 0 16 16" fill="none" xmlns="http://www.w3.org/2000/svg">
    <path
        d="M3.57243 6.27283C4.2639 4.50223 5.98607 3.25 7.99888 3.25C9.30997 3.25 10.4958 3.7802 11.3561 4.63969L11.3613 4.64493L12.4663 5.75H11.2783C10.8641 5.75 10.5283 6.08579 10.5283 6.5C10.5283 6.91421 10.8641 7.25 11.2783 7.25H14.2783C14.6925 7.25 15.0283 6.91421 15.0283 6.5V3.5C15.0283 3.08579 14.6925 2.75 14.2783 2.75C13.8641 2.75 13.5283 3.08579 13.5283 3.5V4.69066L12.427 3.58936L12.4225 3.58477C11.292 2.45211 9.7267 1.75 7.99888 1.75C5.34771 1.75 3.08387 3.40041 2.1752 5.72717C2.02452 6.113 2.21515 6.54794 2.60099 6.69862C2.98682 6.8493 3.42175 6.65866 3.57243 6.27283Z"
        fill="#303233" />
    <path
        d="M4.71875 10.25H3.53136L4.63806 11.3567C5.49861 12.2182 6.68609 12.75 7.99888 12.75C10.0117 12.75 11.7338 11.4978 12.4253 9.72717C12.576 9.34134 13.0109 9.1507 13.3968 9.30138C13.7826 9.45206 13.9732 9.887 13.8226 10.2728C12.9139 12.5996 10.65 14.25 7.99888 14.25C6.272 14.25 4.70751 13.5487 3.57712 12.4171L2.46875 11.3087V12.5C2.46875 12.9142 2.13296 13.25 1.71875 13.25C1.30454 13.25 0.96875 12.9142 0.96875 12.5V9.5C0.96875 9.08579 1.30454 8.75 1.71875 8.75H4.71875C5.13296 8.75 5.46875 9.08579 5.46875 9.5C5.46875 9.91421 5.13296 10.25 4.71875 10.25Z"
        fill="#303233" />
</svg>
