<svg width="16" height="16" viewBox="0 0 16 16" fill="none" xmlns="http://www.w3.org/2000/svg">
    <g clip-path="url(#clip0_53_4299)">
        <path
            d="M8.33044 0.75H7.66957C7.13543 0.749991 6.68955 0.749983 6.32533 0.779741C5.94545 0.810779 5.58879 0.87789 5.25153 1.04973C4.82073 1.26924 4.457 1.59759 4.19511 2H11.8049C11.543 1.59759 11.1793 1.26924 10.7485 1.04973C10.4112 0.87789 10.0546 0.810779 9.67467 0.779741C9.31045 0.749983 8.86457 0.749991 8.33044 0.75Z"
            fill="#303233" />
        <path fill-rule="evenodd" clip-rule="evenodd"
            d="M6.00006 8.5C6.00006 7.67157 6.67163 7 7.50006 7C8.32848 7 9.00006 7.67157 9.00006 8.5C9.00006 9.32843 8.32848 10 7.50006 10C6.67163 10 6.00006 9.32843 6.00006 8.5Z"
            fill="#303233" />
        <path fill-rule="evenodd" clip-rule="evenodd"
            d="M4.66957 4.75H11.3304C11.8646 4.74999 12.3104 4.74998 12.6747 4.77974C13.0546 4.81078 13.4112 4.87789 13.7485 5.04973C14.2659 5.31338 14.6866 5.73408 14.9503 6.25153C15.1221 6.58879 15.1892 6.94545 15.2203 7.32533C15.25 7.68955 15.25 8.13538 15.25 8.66951V11.3305C15.25 11.8646 15.25 12.3105 15.2203 12.6747C15.1892 13.0546 15.1221 13.4112 14.9503 13.7485C14.6866 14.2659 14.2659 14.6866 13.7485 14.9503C13.4112 15.1221 13.0546 15.1892 12.6747 15.2203C12.3105 15.25 11.8646 15.25 11.3305 15.25H4.66955C4.13542 15.25 3.68955 15.25 3.32533 15.2203C2.94545 15.1892 2.58879 15.1221 2.25153 14.9503C1.73408 14.6866 1.31339 14.2659 1.04973 13.7485C0.877889 13.4112 0.810778 13.0546 0.77974 12.6747C0.749982 12.3104 0.74999 11.8646 0.75 11.3304V8.66957C0.74999 8.13542 0.749982 7.68956 0.77974 7.32533C0.810778 6.94545 0.877889 6.58879 1.04973 6.25153C1.31339 5.73408 1.73408 5.31338 2.25153 5.04973C2.58879 4.87789 2.94545 4.81078 3.32533 4.77974C3.68956 4.74998 4.13541 4.74999 4.66957 4.75ZM3.44748 6.27476C3.16036 6.29822 3.02307 6.3401 2.93251 6.38624C2.69731 6.50608 2.50608 6.69731 2.38624 6.93251C2.3401 7.02307 2.29822 7.16036 2.27476 7.44748C2.25058 7.74336 2.25 8.12757 2.25 8.7V11.3C2.25 11.8724 2.25058 12.2566 2.27476 12.5525C2.29822 12.8396 2.3401 12.9769 2.38624 13.0675C2.48999 13.2711 2.64725 13.4418 2.84022 13.5617C2.86835 13.5184 2.90141 13.4773 2.9394 13.4393L4.74832 11.4411C5.30157 10.8878 6.19855 10.8878 6.75179 11.4411L7.50006 12.1893L10.7483 8.94106C11.3016 8.38781 12.1985 8.38781 12.7518 8.94106L13.75 9.93927V8.7C13.75 8.12757 13.7494 7.74336 13.7252 7.44748C13.7018 7.16036 13.6599 7.02307 13.6138 6.93251C13.4939 6.69731 13.3027 6.50608 13.0675 6.38624C12.9769 6.3401 12.8396 6.29822 12.5525 6.27476C12.2566 6.25058 11.8724 6.25 11.3 6.25H4.7C4.12757 6.25 3.74336 6.25058 3.44748 6.27476Z"
            fill="#303233" />
        <path
            d="M9.83071 2.75H6.16984C5.6357 2.74999 5.18983 2.74998 4.8256 2.77974C4.44572 2.81078 4.08906 2.87789 3.7518 3.04973C3.321 3.26924 2.95727 3.59759 2.69538 4H13.3052C13.0433 3.59759 12.6795 3.26924 12.2487 3.04973C11.9115 2.87789 11.5548 2.81078 11.1749 2.77974C10.8107 2.74998 10.3649 2.74999 9.83071 2.75Z"
            fill="#303233" />
    </g>
    <defs>
        <clipPath id="clip0_53_4299">
            <rect width="16" height="16" fill="white" />
        </clipPath>
    </defs>
</svg>
