<svg width="24" height="24" viewBox="0 0 24 24" fill="none" xmlns="http://www.w3.org/2000/svg">
    <path fill-rule="evenodd" clip-rule="evenodd"
        d="M12 1.25C6.06294 1.25 1.25 6.06294 1.25 12C1.25 17.9371 6.06294 22.75 12 22.75C17.9371 22.75 22.75 17.9371 22.75 12C22.75 6.06294 17.9371 1.25 12 1.25ZM20.2527 7.81759C19.2332 5.81005 17.5028 4.22439 15.3929 3.39206L8.68951 6.74375C8.42015 6.87843 8.25 7.15374 8.25 7.4549C8.25 7.89401 8.60597 8.24998 9.04508 8.24998H13.5C13.9142 8.24998 14.25 8.58577 14.25 8.99998C14.25 9.4142 13.9142 9.74998 13.5 9.74998H8.5C8.08579 9.74998 7.75 10.0858 7.75 10.5V13.9188C7.75 14.2417 7.95657 14.5283 8.26283 14.6304L10.2372 15.2885C10.5039 15.3774 10.6985 15.608 10.7413 15.8859L11.3963 20.1438C11.5108 20.8876 12.2516 21.3624 12.9752 21.1556L13.4205 21.0284C13.7674 20.9293 14.0546 20.6851 14.2082 20.3587L17.2229 13.9525C17.4473 13.4756 17.3484 12.9091 16.9757 12.5364L15.4697 11.0303C15.2414 10.802 15.1848 10.4533 15.3292 10.1646C15.4736 9.87583 15.7865 9.71187 16.1061 9.75752L18.179 10.0537C18.7117 10.1297 19.2332 9.85648 19.4738 9.37524L20.2527 7.81759Z"
        fill="#303233" />
</svg>
