<svg width="16" height="16" viewBox="0 0 16 16" fill="none" xmlns="http://www.w3.org/2000/svg">
    <path fill-rule="evenodd" clip-rule="evenodd"
        d="M11 1.5C11.2761 1.5 11.5 1.72386 11.5 2V14C11.5 14.2761 11.2761 14.5 11 14.5C10.7239 14.5 10.5 14.2761 10.5 14V2C10.5 1.72386 10.7239 1.5 11 1.5ZM8 3.5C8.27614 3.5 8.5 3.72386 8.5 4V12C8.5 12.2761 8.27614 12.5 8 12.5C7.72386 12.5 7.5 12.2761 7.5 12V4C7.5 3.72386 7.72386 3.5 8 3.5ZM2 6C2.27614 6 2.5 6.22386 2.5 6.5V9.5C2.5 9.77614 2.27614 10 2 10C1.72386 10 1.5 9.77614 1.5 9.5V6.5C1.5 6.22386 1.72386 6 2 6ZM14 6C14.2761 6 14.5 6.22386 14.5 6.5V9.5C14.5 9.77614 14.2761 10 14 10C13.7239 10 13.5 9.77614 13.5 9.5V6.5C13.5 6.22386 13.7239 6 14 6ZM5 7C5.27614 7 5.5 7.22386 5.5 7.5V8.5C5.5 8.77614 5.27614 9 5 9C4.72386 9 4.5 8.77614 4.5 8.5V7.5C4.5 7.22386 4.72386 7 5 7Z"
        fill="#303233" />
</svg>
