<svg width="24" height="24" viewBox="0 0 24 24" fill="none" xmlns="http://www.w3.org/2000/svg">
    <path
        d="M8.7587 1H15.2413C16.0463 0.999988 16.7106 0.999979 17.2518 1.0442C17.8139 1.09012 18.3306 1.18868 18.816 1.43598C19.5686 1.81947 20.1805 2.43139 20.564 3.18404C20.8113 3.66938 20.9099 4.18608 20.9558 4.74818C21 5.28937 21 5.95372 21 6.75868V11.0703C20.5338 10.8332 20.0313 10.6653 19.508 10.5756C18.2864 10.366 17.0301 10.5956 15.9615 11.2236C14.893 11.8516 14.0811 12.8375 13.6698 14.0067C13.12 15.5697 13.9413 17.2824 15.5043 17.8322C15.5437 17.8461 15.5832 17.8591 15.6227 17.8712C15.6074 18.2267 15.6555 18.591 15.7747 18.9487C15.843 19.1537 15.9313 19.3463 16.0367 19.5253C15.7904 19.9608 15.6499 20.464 15.6499 21C15.6499 21.7652 15.9363 22.4634 16.4079 22.9934C16.057 23 15.669 23 15.2413 23H8.75868C7.95372 23 7.28937 23 6.74818 22.9558C6.18608 22.9099 5.66938 22.8113 5.18404 22.564C4.43139 22.1805 3.81947 21.5686 3.43598 20.816C3.18868 20.3306 3.09012 19.8139 3.0442 19.2518C2.99998 18.7106 2.99999 18.0463 3 17.2413V6.75869C2.99999 5.95373 2.99998 5.28936 3.0442 4.74818C3.09012 4.18608 3.18868 3.66938 3.43598 3.18404C3.81947 2.43139 4.43139 1.81947 5.18404 1.43598C5.66938 1.18868 6.18608 1.09012 6.74818 1.0442C7.28936 0.999979 7.95375 0.999988 8.7587 1Z"
        fill="#303233" />
    <path
        d="M17.9882 14.6721C18.2424 14.5227 18.5412 14.4681 18.8317 14.518C19.1223 14.5678 19.3858 14.7189 19.5757 14.9444C19.7656 15.1699 19.8695 15.4554 19.869 15.7502V15.7517C19.869 15.9703 19.6918 16.2714 19.1902 16.6059C18.9698 16.7528 18.7422 16.8673 18.5659 16.9457C18.4791 16.9842 18.4082 17.0125 18.3613 17.0304C18.338 17.0393 18.3208 17.0455 18.3109 17.049L18.3016 17.0523C17.7795 17.228 17.4977 17.7932 17.672 18.3162C17.8467 18.8402 18.413 19.1233 18.9369 18.9487C18.409 17.365 18.9381 18.9483 18.9381 18.9483L18.9396 18.9478L18.9431 18.9466L18.9525 18.9434L18.981 18.9334C19.004 18.9252 19.0352 18.9139 19.0733 18.8994C19.1494 18.8704 19.2541 18.8284 19.3781 18.7733C19.6233 18.6643 19.9579 18.4978 20.2996 18.27C20.9219 17.8551 21.8686 17.0324 21.869 15.7526C21.87 14.9857 21.5997 14.2431 21.1058 13.6564C20.6117 13.0695 19.9259 12.6765 19.1699 12.5468C18.4138 12.4171 17.6362 12.5592 16.9748 12.9478C16.3135 13.3365 15.811 13.9467 15.5564 14.6704C15.3732 15.1914 15.647 15.7623 16.1679 15.9456C16.6889 16.1288 17.2598 15.8551 17.4431 15.3341C17.5409 15.056 17.734 14.8215 17.9882 14.6721Z"
        fill="#303233" />
    <path
        d="M18.6498 20C18.0975 20 17.6498 20.4477 17.6498 21C17.6498 21.5523 18.0975 22 18.6498 22H18.6598C19.2121 22 19.6598 21.5523 19.6598 21C19.6598 20.4477 19.2121 20 18.6598 20H18.6498Z"
        fill="#303233" />
</svg>
