<svg width="24" height="24" viewBox="0 0 24 24" fill="none" xmlns="http://www.w3.org/2000/svg">
    <path fill-rule="evenodd" clip-rule="evenodd"
        d="M17.4249 3.23335C13.9272 1.92173 10.0728 1.92173 6.57514 3.23335L5.03441 3.81112C3.96107 4.21362 3.25 5.23971 3.25 6.38603V12C3.25 14.8673 4.88625 17.2553 6.62617 18.993C8.37744 20.742 10.3348 21.9346 11.1969 22.419C11.6995 22.7014 12.3005 22.7014 12.8031 22.419C13.6652 21.9346 15.6226 20.742 17.3738 18.993C19.1138 17.2553 20.75 14.8673 20.75 12V6.38603C20.75 5.23971 20.0389 4.21362 18.9656 3.81112L17.4249 3.23335ZM10.0303 8.96967C9.73744 8.67678 9.26256 8.67678 8.96967 8.96967C8.67678 9.26256 8.67678 9.73744 8.96967 10.0303L10.9393 12L8.96967 13.9697C8.67678 14.2626 8.67678 14.7374 8.96967 15.0303C9.26256 15.3232 9.73744 15.3232 10.0303 15.0303L12 13.0607L13.9697 15.0303C14.2626 15.3232 14.7374 15.3232 15.0303 15.0303C15.3232 14.7374 15.3232 14.2626 15.0303 13.9697L13.0607 12L15.0303 10.0303C15.3232 9.73744 15.3232 9.26256 15.0303 8.96967C14.7374 8.67678 14.2626 8.67678 13.9697 8.96967L12 10.9393L10.0303 8.96967Z"
        fill="#303233" />
</svg>
