<svg width="16" height="16" viewBox="0 0 16 16" fill="none" xmlns="http://www.w3.org/2000/svg">
    <path fill-rule="evenodd" clip-rule="evenodd"
        d="M10.1667 1C7.49736 1 5.3334 3.16396 5.3334 5.83333C5.3334 6.05333 5.34813 6.27015 5.37672 6.48281C5.39833 6.64355 5.41258 6.75013 5.42023 6.82938C5.42645 6.89376 5.42577 6.91889 5.42577 6.91889C5.42352 6.93412 5.42179 6.9432 5.42061 6.94857L5.41933 6.9539L5.41892 6.95527L5.41842 6.9566L5.4162 6.96162C5.41371 6.96696 5.40917 6.97605 5.40068 6.99125C5.39935 6.9933 5.39 7.00705 5.35973 7.04029C5.32024 7.08366 5.26536 7.13871 5.17589 7.22818L1.48497 10.9191L1.46094 10.9431C1.36023 11.0435 1.25684 11.1466 1.18018 11.2717C1.11316 11.381 1.06378 11.5002 1.03384 11.6249C0.999589 11.7676 0.999815 11.9136 1.00004 12.0558L1.00007 12.0898L1.00007 13.3623C1.00006 13.5492 1.00005 13.7185 1.01157 13.8595C1.02394 14.0109 1.05203 14.1732 1.13328 14.3327C1.25046 14.5626 1.43744 14.7496 1.66742 14.8668C1.8269 14.948 1.9892 14.9761 2.14056 14.9885C2.2816 15 2.45087 15 2.63779 15H4.38896C4.6651 15 4.88896 14.7761 4.88896 14.5V13.5556H5.8334C6.10955 13.5556 6.3334 13.3317 6.3334 13.0556V12.1111H7.27785C7.41046 12.1111 7.53763 12.0584 7.6314 11.9647L8.77189 10.8242C8.86136 10.7347 8.91642 10.6798 8.95978 10.6403C8.99302 10.6101 9.00677 10.6007 9.00882 10.5994C9.02402 10.5909 9.03311 10.5864 9.03845 10.5839L9.04347 10.5817L9.0448 10.5812L9.04616 10.5807L9.05149 10.5795C9.05687 10.5783 9.06595 10.5765 9.08118 10.5743C9.08118 10.5743 9.10632 10.5736 9.17069 10.5798C9.24994 10.5875 9.35652 10.6017 9.51726 10.6233C9.72992 10.6519 9.94674 10.6667 10.1667 10.6667C12.8361 10.6667 15.0001 8.50271 15.0001 5.83333C15.0001 3.16396 12.8361 1 10.1667 1ZM10.1665 5.33334C9.89036 5.33334 9.6665 5.5572 9.6665 5.83334C9.6665 6.10949 9.89036 6.33334 10.1665 6.33334H10.1737C10.4499 6.33334 10.6737 6.10949 10.6737 5.83334C10.6737 5.5572 10.4499 5.33334 10.1737 5.33334H10.1665Z"
        fill="#303233" />
    <path d="M5.40068 6.99125C5.40057 6.99146 5.4008 6.99105 5.40068 6.99125V6.99125Z"
        fill="#303233" />
</svg>
