<svg width="16" height="16" viewBox="0 0 16 16" fill="none" xmlns="http://www.w3.org/2000/svg">
    <g clip-path="url(#clip0_53_7084)">
        <path fill-rule="evenodd" clip-rule="evenodd"
            d="M0.75 8C0.75 3.99594 3.99594 0.75 8 0.75C12.0041 0.75 15.25 3.99594 15.25 8V12.75C15.25 14.1307 14.1307 15.25 12.75 15.25C11.3693 15.25 10.25 14.1307 10.25 12.75V11.25C10.25 9.86929 11.3693 8.75 12.75 8.75C13.1056 8.75 13.4438 8.82422 13.75 8.95802V8C13.75 4.82436 11.1756 2.25 8 2.25C4.82436 2.25 2.25 4.82436 2.25 8V8.95802C2.55623 8.82422 2.89445 8.75 3.25 8.75C4.63071 8.75 5.75 9.86929 5.75 11.25V12.75C5.75 14.1307 4.63071 15.25 3.25 15.25C1.86929 15.25 0.75 14.1307 0.75 12.75V8ZM13.75 11.25C13.75 10.6977 13.3023 10.25 12.75 10.25C12.1977 10.25 11.75 10.6977 11.75 11.25V12.75C11.75 13.3023 12.1977 13.75 12.75 13.75C13.3023 13.75 13.75 13.3023 13.75 12.75V11.25ZM2.25 11.25C2.25 10.6977 2.69772 10.25 3.25 10.25C3.80228 10.25 4.25 10.6977 4.25 11.25V12.75C4.25 13.3023 3.80228 13.75 3.25 13.75C2.69772 13.75 2.25 13.3023 2.25 12.75V11.25Z"
            fill="#303233" />
    </g>
    <defs>
        <clipPath id="clip0_53_7084">
            <rect width="16" height="16" fill="white" />
        </clipPath>
    </defs>
</svg>
