<svg width="24" height="24" viewBox="0 0 24 24" fill="none" xmlns="http://www.w3.org/2000/svg">
    <path
        d="M8.7679 1.25H15.2321C16.0449 1.24999 16.7006 1.24999 17.2315 1.29336C17.7781 1.33803 18.2582 1.43239 18.7025 1.65873C19.4081 2.01825 19.9817 2.59193 20.3413 3.29754C20.5676 3.74176 20.662 4.2219 20.7066 4.76853C20.75 5.29944 20.75 5.95505 20.75 6.76788V15.568L19.591 14.409C18.7123 13.5303 17.2877 13.5303 16.409 14.409L13.409 17.409C12.5303 18.2877 12.5303 19.7123 13.409 20.591C14.0421 21.224 14.9585 21.401 15.75 21.1219V22C15.75 22.2626 15.795 22.5147 15.8777 22.7491C15.6751 22.75 15.4611 22.75 15.2349 22.75H8.76788C7.95505 22.75 7.29944 22.75 6.76853 22.7066C6.2219 22.662 5.74176 22.5676 5.29754 22.3413C4.59193 21.9817 4.01825 21.4081 3.65873 20.7025C3.43239 20.2582 3.33803 19.7781 3.29336 19.2315C3.24999 18.7006 3.24999 18.045 3.25 17.2321V6.7679C3.24999 5.95506 3.24999 5.29944 3.29336 4.76853C3.33803 4.2219 3.43239 3.74176 3.65873 3.29754C4.01825 2.59193 4.59193 2.01825 5.29754 1.65873C5.74176 1.43239 6.2219 1.33803 6.76853 1.29336C7.29944 1.24999 7.95506 1.24999 8.7679 1.25Z"
        fill="#303233" />
    <path
        d="M18.75 22C18.75 22.4142 18.4142 22.75 18 22.75C17.5858 22.75 17.25 22.4142 17.25 22V17.8107L15.5303 19.5303C15.2374 19.8232 14.7626 19.8232 14.4697 19.5303C14.1768 19.2374 14.1768 18.7626 14.4697 18.4697L17.4697 15.4697C17.7626 15.1768 18.2374 15.1768 18.5303 15.4697L21.5303 18.4697C21.8232 18.7626 21.8232 19.2374 21.5303 19.5303C21.2374 19.8232 20.7626 19.8232 20.4697 19.5303L18.75 17.8107V22Z"
        fill="#303233" />
</svg>
