<svg width="16" height="16" viewBox="0 0 16 16" fill="none" xmlns="http://www.w3.org/2000/svg">
    <path
        d="M3 1C1.89543 1 0.999992 1.89544 1 3.00001L1.00001 3.99467C1 3.99644 1 3.99822 1 4V10C1 11.1046 1.89543 12 3 12H5.5C5.77614 12 6 11.7761 6 11.5C6 11.2239 5.77614 11 5.5 11H3C2.44772 11 2 10.5523 2 10L2.00015 4C2.00015 3.44772 2.44787 3 3.00015 3L12 3C12.4346 3 12.8057 3.27755 12.9432 3.66662C13.0353 3.92698 13.3209 4.06344 13.5813 3.97142C13.8416 3.8794 13.9781 3.59373 13.8861 3.33338C13.6117 2.55726 12.8716 2 12 2H9.20712C8.75441 2 8.32024 1.82014 8.00015 1.5C7.68006 1.17986 7.24589 1 6.79318 1H3Z"
        fill="#303233" />
    <path fill-rule="evenodd" clip-rule="evenodd"
        d="M11.1982 5.5H11.8018C12.3528 5.5 12.7972 5.49999 13.1569 5.52986C13.5273 5.56062 13.8524 5.62563 14.1524 5.78147C14.609 6.01866 14.9813 6.39096 15.2185 6.84756C15.3744 7.14757 15.4394 7.47267 15.4701 7.84308C15.5 8.20277 15.5 8.64719 15.5 9.19819V11.8018C15.5 12.3528 15.5 12.7972 15.4701 13.1569C15.4394 13.5273 15.3744 13.8524 15.2185 14.1524C14.9813 14.609 14.609 14.9813 14.1524 15.2185C13.8524 15.3744 13.5273 15.4394 13.1569 15.4701C12.7972 15.5 12.3528 15.5 11.8018 15.5H11.1982C10.6472 15.5 10.2028 15.5 9.84308 15.4701C9.47267 15.4394 9.14757 15.3744 8.84756 15.2185C8.39096 14.9813 8.01866 14.609 7.78147 14.1524C7.62563 13.8524 7.56062 13.5273 7.52986 13.1569C7.49999 12.7972 7.5 12.3528 7.5 11.8018V9.19823C7.5 8.64722 7.49999 8.20277 7.52986 7.84308C7.56062 7.47267 7.62563 7.14757 7.78147 6.84756C8.01866 6.39096 8.39096 6.01866 8.84756 5.78147C9.14757 5.62563 9.47267 5.56062 9.84308 5.52986C10.2028 5.49999 10.6472 5.5 11.1982 5.5ZM11.22 6.5C10.6421 6.5 10.2393 6.5004 9.92584 6.52643C9.61839 6.55196 9.44201 6.59955 9.30854 6.66888C9.03457 6.81119 8.81119 7.03457 8.66888 7.30854C8.59955 7.44201 8.55196 7.61839 8.52643 7.92584C8.5004 8.23928 8.5 8.64212 8.5 9.22V11.78C8.5 12.3579 8.5004 12.7607 8.52643 13.0742C8.55196 13.3816 8.59955 13.558 8.66888 13.6915C8.81119 13.9654 9.03457 14.1888 9.30854 14.3311C9.44201 14.4005 9.61839 14.448 9.92584 14.4736C10.2393 14.4996 10.6421 14.5 11.22 14.5H11.78C12.3579 14.5 12.7607 14.4996 13.0742 14.4736C13.3816 14.448 13.558 14.4005 13.6915 14.3311C13.9654 14.1888 14.1888 13.9654 14.3311 13.6915C14.4005 13.558 14.448 13.3816 14.4736 13.0742C14.4996 12.7607 14.5 12.3579 14.5 11.78V9.22C14.5 8.64212 14.4996 8.23928 14.4736 7.92584C14.448 7.61839 14.4005 7.44201 14.3311 7.30854C14.1888 7.03457 13.9654 6.81119 13.6915 6.66888C13.558 6.59955 13.3816 6.55196 13.0742 6.52643C12.7607 6.5004 12.3579 6.5 11.78 6.5H11.22Z"
        fill="#303233" />
</svg>
