<svg width="16" height="16" viewBox="0 0 16 16" fill="none" xmlns="http://www.w3.org/2000/svg">
    <path
        d="M7.99989 6C7.63522 6 7.28548 6.14487 7.02762 6.40273C6.76976 6.66059 6.62489 7.01033 6.62489 7.375V7.5H9.37489V7.375C9.37489 7.01033 9.23002 6.66059 8.97216 6.40273C8.7143 6.14487 8.36456 6 7.99989 6Z"
        fill="#303233" />
    <path fill-rule="evenodd" clip-rule="evenodd"
        d="M3 1.75C1.75735 1.75 0.749991 2.75737 0.75 4.00002L0.750056 12C0.750065 13.2427 1.75742 14.25 3.00006 14.25H13.0001C14.2427 14.25 15.2501 13.2426 15.2501 12V5C15.2501 3.75736 14.2427 2.75 13.0001 2.75H9.20712C8.82072 2.75 8.45015 2.59649 8.17694 2.32324C7.80997 1.9562 7.3122 1.75 6.79318 1.75H3ZM5.87489 7.375V7.5H5.75298C5.19138 7.5 4.74989 7.92768 4.74989 8.43939V10.5606C4.74989 11.0723 5.19138 11.5 5.75298 11.5H10.2468C10.8084 11.5 11.2499 11.0723 11.2499 10.5606V8.43939C11.2499 7.92768 10.8084 7.5 10.2468 7.5H10.1249V7.375C10.1249 6.81141 9.90101 6.27091 9.50249 5.8724C9.10398 5.47388 8.56348 5.25 7.99989 5.25C7.43631 5.25 6.8958 5.47388 6.49729 5.8724C6.09877 6.27091 5.87489 6.81141 5.87489 7.375Z"
        fill="#303233" />
</svg>
