<svg width="16" height="16" viewBox="0 0 16 16" fill="none" xmlns="http://www.w3.org/2000/svg">
    <path
        d="M2.25 5.5C2.25 5.08579 2.58579 4.75 3 4.75H13C13.4142 4.75 13.75 5.08579 13.75 5.5C13.75 5.91421 13.4142 6.25 13 6.25H3C2.58579 6.25 2.25 5.91421 2.25 5.5Z"
        fill="#303233" />
    <path
        d="M4.25 8C4.25 7.58579 4.58579 7.25 5 7.25H11C11.4142 7.25 11.75 7.58579 11.75 8C11.75 8.41421 11.4142 8.75 11 8.75H5C4.58579 8.75 4.25 8.41421 4.25 8Z"
        fill="#303233" />
    <path
        d="M7 9.75C6.58579 9.75 6.25 10.0858 6.25 10.5C6.25 10.9142 6.58579 11.25 7 11.25H9C9.41421 11.25 9.75 10.9142 9.75 10.5C9.75 10.0858 9.41421 9.75 9 9.75H7Z"
        fill="#303233" />
</svg>
