<svg width="16" height="16" viewBox="0 0 16 16" fill="none" xmlns="http://www.w3.org/2000/svg">
    <path d="M3 5.73868V4.5H5.31412V11.5H3.93141V5.73868H3Z" fill="#303233" />
    <path
        d="M8.53033 6.21967C8.23744 5.92678 7.76256 5.92678 7.46967 6.21967C7.17678 6.51256 7.17678 6.98744 7.46967 7.28033L8.93934 8.75L7.46967 10.2197C7.17678 10.5126 7.17678 10.9874 7.46967 11.2803C7.76256 11.5732 8.23744 11.5732 8.53033 11.2803L10 9.81066L11.4697 11.2803C11.7626 11.5732 12.2374 11.5732 12.5303 11.2803C12.8232 10.9874 12.8232 10.5126 12.5303 10.2197L11.0607 8.75L12.5303 7.28033C12.8232 6.98744 12.8232 6.51256 12.5303 6.21967C12.2374 5.92678 11.7626 5.92678 11.4697 6.21967L10 7.68934L8.53033 6.21967Z"
        fill="#303233" />
</svg>
