<svg width="16" height="16" viewBox="0 0 16 16" fill="none" xmlns="http://www.w3.org/2000/svg">
    <g clip-path="url(#clip0_53_2384)">
        <path fill-rule="evenodd" clip-rule="evenodd"
            d="M0.96967 0.96967C1.26256 0.676777 1.73744 0.676777 2.03033 0.96967L15.0303 13.9697C15.3232 14.2626 15.3232 14.7374 15.0303 15.0303C14.7374 15.3232 14.2626 15.3232 13.9697 15.0303L11.325 12.3857C10.8306 12.9462 10.107 13.3 9.3 13.3H3.45C1.95883 13.3 0.75 12.0912 0.75 10.6V5.4C0.75 4.42655 1.26515 3.57343 2.03771 3.09837L0.96967 2.03033C0.676777 1.73744 0.676777 1.26256 0.96967 0.96967ZM3.17176 4.23242C2.64319 4.35791 2.25 4.83304 2.25 5.4V10.6C2.25 11.2627 2.78726 11.8 3.45 11.8H9.3C9.69177 11.8 10.0406 11.612 10.2599 11.3205L3.17176 4.23242Z"
            fill="#303233" />
        <path fill-rule="evenodd" clip-rule="evenodd"
            d="M9.60554 4.22406C9.318 4.20057 8.94429 4.19998 8.38586 4.19998H6.63086C6.21665 4.19998 5.88086 3.8642 5.88086 3.44998C5.88086 3.03577 6.21665 2.69998 6.63086 2.69998L8.41617 2.69998C8.93642 2.69997 9.37179 2.69996 9.72769 2.72904C10.0992 2.7594 10.4497 2.82515 10.7816 2.99426C11.2897 3.25312 11.7027 3.66617 11.9616 4.17421C12.1307 4.50612 12.1964 4.85661 12.2268 5.22815C12.2497 5.50891 12.2546 5.83912 12.2556 6.22144L13.1763 5.32779C13.2888 5.21855 13.4062 5.10456 13.5106 5.01976C13.6032 4.94449 13.8181 4.77609 14.1193 4.75307C14.4453 4.72818 14.7701 4.85537 14.9912 5.10661C15.1972 5.3407 15.2272 5.62037 15.2379 5.73765C15.2501 5.87099 15.25 6.03368 15.25 6.18744V9.81255C15.25 9.9663 15.2501 10.129 15.2379 10.2623C15.2272 10.3796 15.1972 10.6593 14.9912 10.8934C14.7701 11.1446 14.4453 11.2718 14.1193 11.2469C13.8181 11.2239 13.6032 11.0555 13.5106 10.9802C13.4062 10.8954 13.2888 10.7814 13.1763 10.6722L10.9776 8.53818C10.8321 8.39694 10.75 8.20279 10.75 7.99999C10.75 7.96853 10.752 7.93728 10.7559 7.9064V6.56998C10.7559 6.01156 10.7553 5.63784 10.7318 5.3503C10.709 5.07152 10.6685 4.94041 10.6251 4.85519C10.51 4.6294 10.3264 4.44582 10.1006 4.33077C10.0154 4.28736 9.88433 4.24684 9.60554 4.22406ZM12.5768 7.99999L13.75 6.86134V9.13865L12.5768 7.99999Z"
            fill="#303233" />
    </g>
    <defs>
        <clipPath id="clip0_53_2384">
            <rect width="16" height="16" fill="white" />
        </clipPath>
    </defs>
</svg>
