<svg width="24" height="24" viewBox="0 0 24 24" fill="none" xmlns="http://www.w3.org/2000/svg">
    <path
        d="M3.11612 3.11612C3.35054 2.8817 3.66848 2.75 4 2.75H13C13.3315 2.75 13.6495 2.8817 13.8839 3.11612C14.1183 3.35054 14.25 3.66848 14.25 4V6C14.25 6.41421 14.5858 6.75 15 6.75C15.4142 6.75 15.75 6.41421 15.75 6V4C15.75 3.27065 15.4603 2.57118 14.9445 2.05546C14.4288 1.53973 13.7293 1.25 13 1.25H4C3.27065 1.25 2.57118 1.53973 2.05546 2.05546C1.53973 2.57118 1.25 3.27065 1.25 4V13C1.25 13.7293 1.53973 14.4288 2.05546 14.9445C2.57118 15.4603 3.27065 15.75 4 15.75H6C6.41421 15.75 6.75 15.4142 6.75 15C6.75 14.5858 6.41421 14.25 6 14.25H4C3.66848 14.25 3.35054 14.1183 3.11612 13.8839C2.8817 13.6495 2.75 13.3315 2.75 13V4C2.75 3.66848 2.8817 3.35054 3.11612 3.11612Z"
        fill="#303233" />
    <path fill-rule="evenodd" clip-rule="evenodd"
        d="M11 8.25C9.48122 8.25 8.25 9.48122 8.25 11V20C8.25 21.5188 9.48122 22.75 11 22.75H20C21.5188 22.75 22.75 21.5188 22.75 20V11C22.75 9.48122 21.5188 8.25 20 8.25H11ZM9.75 11C9.75 10.3096 10.3096 9.75 11 9.75H20C20.6904 9.75 21.25 10.3096 21.25 11V20C21.25 20.6904 20.6904 21.25 20 21.25H11C10.3096 21.25 9.75 20.6904 9.75 20V11Z"
        fill="#303233" />
</svg>
