<svg width="16" height="16" viewBox="0 0 16 16" fill="none" xmlns="http://www.w3.org/2000/svg">
    <path
        d="M8 14.5C4.96243 14.5 2.5 12.0749 2.5 9.08333V5.47222C2.5 4.87391 2.99249 4.38889 3.6 4.38889C4.20751 4.38889 4.7 4.87391 4.7 5.47222V3.30556C4.7 2.70725 5.19249 2.22222 5.8 2.22222C6.40751 2.22222 6.9 2.70725 6.9 3.30556V2.58333C6.9 1.98502 7.39249 1.5 8 1.5C8.60751 1.5 9.1 1.98502 9.1 2.58333V3.30556C9.1 2.70725 9.59249 2.22222 10.2 2.22222C10.8075 2.22222 11.3 2.70725 11.3 3.30556V7.63889C11.3 7.04058 11.7925 6.55556 12.4 6.55556C13.0075 6.55556 13.5 7.04058 13.5 7.63889V9.08333C13.5 12.0749 11.0376 14.5 8 14.5Z"
        fill="#F8E48E" />
    <path fill-rule="evenodd" clip-rule="evenodd"
        d="M8 2.25C8.20414 2.25 8.35 2.40999 8.35 2.58333V7.27778C8.35 7.69199 8.68579 8.02778 9.1 8.02778C9.51421 8.02778 9.85 7.69199 9.85 7.27778V3.30556C9.85 3.13221 9.99586 2.97222 10.2 2.97222C10.4041 2.97222 10.55 3.13221 10.55 3.30556V9.44444C10.55 9.85866 10.8858 10.1944 11.3 10.1944C11.7142 10.1944 12.05 9.85866 12.05 9.44444V7.63889C12.05 7.46555 12.1959 7.30556 12.4 7.30556C12.6041 7.30556 12.75 7.46555 12.75 7.63889V9.08333C12.75 11.6499 10.6342 13.75 8 13.75C5.36581 13.75 3.25 11.6499 3.25 9.08333V5.47222C3.25 5.29888 3.39586 5.13889 3.6 5.13889C3.80414 5.13889 3.95 5.29888 3.95 5.47222V7.27778C3.95 7.69199 4.28579 8.02778 4.7 8.02778C5.11421 8.02778 5.45 7.69199 5.45 7.27778V3.30556C5.45 3.13222 5.59586 2.97222 5.8 2.97222C6.00414 2.97222 6.15 3.13221 6.15 3.30556V7.27778C6.15 7.69199 6.48579 8.02778 6.9 8.02778C7.31421 8.02778 7.65 7.69199 7.65 7.27778V2.58333C7.65 2.40999 7.79586 2.25 8 2.25ZM6.44606 1.58749C6.77752 1.08117 7.35365 0.75 8 0.75C8.64635 0.75 9.22248 1.08117 9.55394 1.58749C9.75567 1.51288 9.97352 1.47222 10.2 1.47222C11.2109 1.47222 12.05 2.28228 12.05 3.30556V5.83849C12.1635 5.81686 12.2806 5.80556 12.4 5.80556C13.4109 5.80556 14.25 6.61561 14.25 7.63889V9.08333C14.25 12.4998 11.4409 15.25 8 15.25C4.55906 15.25 1.75 12.4998 1.75 9.08333V5.47222C1.75 4.44895 2.58911 3.63889 3.6 3.63889C3.71943 3.63889 3.83646 3.6502 3.95 3.67183V3.30556C3.95 2.28228 4.78911 1.47222 5.8 1.47222C6.02648 1.47222 6.24433 1.51288 6.44606 1.58749Z"
        fill="#EB9F14" />
</svg>
