<svg width="24" height="24" viewBox="0 0 24 24" fill="none" xmlns="http://www.w3.org/2000/svg">
    <path fill-rule="evenodd" clip-rule="evenodd"
        d="M6.15939 6.10958C6.45233 6.40243 6.45241 6.8773 6.15956 7.17024C5.00605 8.32413 4.22058 9.79415 3.90247 11.3944C3.58436 12.9947 3.74789 14.6533 4.3724 16.1607C4.9969 17.668 6.05432 18.9563 7.41097 19.8627C8.76762 20.7691 10.3626 21.2529 11.9941 21.2529C13.6257 21.2529 15.2207 20.7691 16.5773 19.8627C17.934 18.9563 18.9914 17.668 19.6159 16.1607C20.2404 14.6533 20.4039 12.9947 20.0858 11.3944C19.7677 9.79415 18.9822 8.32413 17.8287 7.17024C17.5359 6.8773 17.536 6.40243 17.8289 6.10958C18.1218 5.81674 18.5967 5.81682 18.8896 6.10976C20.2528 7.47344 21.1811 9.21073 21.557 11.102C21.933 12.9932 21.7397 14.9534 21.0017 16.7348C20.2636 18.5162 19.0139 20.0388 17.4106 21.11C15.8073 22.1812 13.9224 22.7529 11.9941 22.7529C10.0659 22.7529 8.18098 22.1812 6.57767 21.11C4.97436 20.0388 3.72467 18.5162 2.98662 16.7348C2.24858 14.9534 2.05531 12.9932 2.43126 11.102C2.8072 9.21073 3.73549 7.47344 5.09873 6.10976C5.39157 5.81682 5.86645 5.81674 6.15939 6.10958Z"
        fill="#303233" />
    <path fill-rule="evenodd" clip-rule="evenodd"
        d="M11.9991 2.25C12.4134 2.25 12.7491 2.58579 12.7491 3V13C12.7491 13.4142 12.4134 13.75 11.9991 13.75C11.5849 13.75 11.2491 13.4142 11.2491 13V3C11.2491 2.58579 11.5849 2.25 11.9991 2.25Z"
        fill="#303233" />
</svg>
