<svg width="16" height="16" viewBox="0 0 16 16" fill="none" xmlns="http://www.w3.org/2000/svg">
    <path fill-rule="evenodd" clip-rule="evenodd"
        d="M1.35648 3.08175C0.577413 2.16104 1.23185 0.75 2.43795 0.75H13.5631C14.7692 0.75 15.4237 2.16104 14.6446 3.08175L10.2505 8.27473V13.9607C10.2505 14.766 9.40304 15.2898 8.68273 14.9296L6.34939 13.763C5.98238 13.5794 5.75054 13.2043 5.75054 12.794V8.27473L1.35648 3.08175ZM2.61762 2.25L6.99421 7.42233C7.15972 7.61793 7.25054 7.86587 7.25054 8.1221V12.5365L8.75054 13.2865V8.1221C8.75054 7.86587 8.84136 7.61794 9.00687 7.42233L13.3835 2.25H2.61762Z"
        fill="#303233" />
</svg>
