<svg width="16" height="16" viewBox="0 0 16 16" fill="none" xmlns="http://www.w3.org/2000/svg">
    <path
        d="M12 4C11.7239 4 11.5 4.22386 11.5 4.5C11.5 4.77614 11.7239 5 12 5H12.0067C12.2828 5 12.5067 4.77614 12.5067 4.5C12.5067 4.22386 12.2828 4 12.0067 4H12Z"
        fill="#303233" />
    <path fill-rule="evenodd" clip-rule="evenodd"
        d="M3.25 1.5C2.00736 1.5 1 2.50736 1 3.75V5.25C1 6.49264 2.00736 7.5 3.25 7.5H12.75C13.9926 7.5 15 6.49264 15 5.25V3.75C15 2.50736 13.9926 1.5 12.75 1.5H3.25ZM2 3.75C2 3.05964 2.55964 2.5 3.25 2.5H12.75C13.4404 2.5 14 3.05964 14 3.75V5.25C14 5.94036 13.4404 6.5 12.75 6.5H3.25C2.55964 6.5 2 5.94036 2 5.25V3.75Z"
        fill="#303233" />
    <path
        d="M12 11C11.7239 11 11.5 11.2239 11.5 11.5C11.5 11.7761 11.7239 12 12 12H12.0067C12.2828 12 12.5067 11.7761 12.5067 11.5C12.5067 11.2239 12.2828 11 12.0067 11H12Z"
        fill="#303233" />
    <path fill-rule="evenodd" clip-rule="evenodd"
        d="M1 10.75C1 9.50736 2.00736 8.5 3.25 8.5H12.75C13.9926 8.5 15 9.50736 15 10.75V12.25C15 13.4926 13.9926 14.5 12.75 14.5H3.25C2.00736 14.5 1 13.4926 1 12.25V10.75ZM3.25 9.5C2.55964 9.5 2 10.0596 2 10.75V12.25C2 12.9404 2.55964 13.5 3.25 13.5H12.75C13.4404 13.5 14 12.9404 14 12.25V10.75C14 10.0596 13.4404 9.5 12.75 9.5H3.25Z"
        fill="#303233" />
</svg>
