<svg width="16" height="16" viewBox="0 0 16 16" fill="none" xmlns="http://www.w3.org/2000/svg">
    <path fill-rule="evenodd" clip-rule="evenodd"
        d="M1.85346 3.51333C3.35357 1.82236 5.54906 0.75 7.99899 0.75C10.4489 0.75 12.6444 1.82236 14.1445 3.51333C14.4194 3.82318 14.3911 4.29721 14.0812 4.57209C13.7713 4.84698 13.2973 4.81863 13.0224 4.50877C11.7947 3.12479 10.0017 2.25 7.99899 2.25C5.99628 2.25 4.20332 3.12479 2.97556 4.50877C2.70067 4.81863 2.22664 4.84698 1.91679 4.57209C1.60693 4.29721 1.57858 3.82318 1.85346 3.51333ZM1.25 9.44216C1.25 5.73274 4.2775 2.73554 8 2.73554C11.7225 2.73554 14.75 5.73275 14.75 9.44216C14.75 10.9583 13.5132 12.1777 11.9998 12.1777C10.4864 12.1777 9.24956 10.9583 9.24956 9.44216C9.24956 8.76497 8.6949 8.20662 7.99933 8.20662C7.30376 8.20662 6.74911 8.76497 6.74911 9.44216C6.74911 11.3042 7.73551 12.9405 9.22504 13.8622C9.57726 14.0802 9.6861 14.5424 9.46813 14.8947C9.25016 15.2469 8.78792 15.3557 8.4357 15.1378C6.52638 13.9562 5.24911 11.8491 5.24911 9.44216C5.24911 7.926 6.48592 6.70662 7.99933 6.70662C9.51275 6.70662 10.7496 7.926 10.7496 9.44216C10.7496 10.1194 11.3042 10.6777 11.9998 10.6777C12.6953 10.6777 13.25 10.1194 13.25 9.44216C13.25 6.5715 10.9044 4.23554 8 4.23554C5.09556 4.23554 2.75 6.5715 2.75 9.44216C2.75 10.1189 2.82629 10.7788 2.96711 11.4162C3.05647 11.8206 2.80102 12.2209 2.39656 12.3103C1.9921 12.3996 1.59179 12.1442 1.50243 11.7397C1.33911 11.0005 1.25 10.2321 1.25 9.44216ZM7.99806 6.22108C6.19817 6.22108 4.74828 7.66813 4.74828 9.44216C4.74828 10.975 5.23239 12.3934 6.05691 13.5611C6.29584 13.8994 6.21524 14.3674 5.87688 14.6063C5.53852 14.8453 5.07053 14.7647 4.83161 14.4263C3.83532 13.0154 3.24828 11.2967 3.24828 9.44216C3.24828 6.82948 5.37999 4.72108 7.99806 4.72108C10.6161 4.72108 12.7478 6.82948 12.7478 9.44216C12.7478 9.85638 12.4121 10.1922 11.9978 10.1922C11.5836 10.1922 11.2478 9.85638 11.2478 9.44216C11.2478 7.66813 9.79796 6.22108 7.99806 6.22108ZM7.99941 8.69216C8.41363 8.69216 8.74941 9.02795 8.74941 9.44216C8.74941 11.2162 10.1993 12.6632 11.9992 12.6632C12.0263 12.6632 12.0439 12.662 12.0768 12.6598C12.0992 12.6583 12.1288 12.6563 12.1733 12.6538C12.5869 12.631 12.9407 12.9478 12.9635 13.3614C12.9863 13.775 12.6695 14.1287 12.2559 14.1515C12.2492 14.1519 12.2391 14.1526 12.2263 14.1534C12.1744 14.1569 12.0793 14.1632 11.9992 14.1632C9.38112 14.1632 7.24941 12.0548 7.24941 9.44216C7.24941 9.02795 7.5852 8.69216 7.99941 8.69216Z"
        fill="#303233" />
</svg>
