<svg width="24" height="24" viewBox="0 0 24 24" fill="none" xmlns="http://www.w3.org/2000/svg">
    <path fill-rule="evenodd" clip-rule="evenodd"
        d="M18.7738 23.4742L18.54 22.9484C18.4568 22.7608 18.3161 22.6044 18.1383 22.5018C17.9604 22.3992 17.7545 22.3554 17.5503 22.3769L16.9783 22.4378C16.808 22.4557 16.6362 22.4239 16.4837 22.3462C16.3311 22.2685 16.2044 22.1482 16.1187 22C16.033 21.8518 15.9922 21.6819 16.0012 21.5109C16.0102 21.34 16.0686 21.1753 16.1694 21.0369L16.508 20.5716C16.6288 20.4055 16.6939 20.2054 16.6938 20C16.6939 19.7946 16.6288 19.5945 16.508 19.4284L16.1694 18.9631C16.0686 18.8247 16.0102 18.66 16.0012 18.4891C15.9922 18.3181 16.033 18.1482 16.1187 18C16.2043 17.8517 16.331 17.7314 16.4836 17.6537C16.6362 17.576 16.808 17.5442 16.9783 17.5622L17.552 17.6231C17.7563 17.6446 17.9621 17.6008 18.14 17.4982C18.3172 17.3953 18.4572 17.2389 18.54 17.0516L18.7738 16.5258C18.8433 16.3693 18.9567 16.2363 19.1003 16.143C19.2439 16.0496 19.4115 16 19.5827 16C19.754 16 19.9215 16.0496 20.0651 16.143C20.2087 16.2363 20.3221 16.3693 20.3916 16.5258L20.6272 17.0516C20.71 17.2389 20.85 17.3953 21.0272 17.4982C21.2051 17.6008 21.4109 17.6446 21.6152 17.6231L22.1872 17.5622C22.3574 17.5442 22.5293 17.576 22.6818 17.6537C22.8344 17.7314 22.9612 17.8517 23.0467 18C23.1324 18.1482 23.1732 18.3181 23.1642 18.4891C23.1552 18.66 23.0968 18.8247 22.996 18.9631L22.6574 19.4284C22.5366 19.5945 22.4716 19.7946 22.4716 20C22.4706 20.2059 22.535 20.4069 22.6556 20.5738L22.9943 21.0391C23.095 21.1775 23.1534 21.3422 23.1624 21.5132C23.1714 21.6841 23.1306 21.854 23.0449 22.0022C22.9594 22.1505 22.8326 22.2708 22.6801 22.3485C22.5275 22.4262 22.3556 22.458 22.1854 22.44L21.6134 22.3791C21.4091 22.3577 21.2033 22.4014 21.0254 22.504C20.8486 22.6063 20.7086 22.7619 20.6254 22.9484L20.3916 23.4742C20.3221 23.6307 20.2087 23.7637 20.0651 23.857C19.9215 23.9504 19.754 24 19.5827 24C19.4115 24 19.2439 23.9504 19.1003 23.857C18.9567 23.7637 18.8433 23.6307 18.7738 23.4742ZM19.5867 21.3333C20.323 21.3333 20.92 20.7364 20.92 20C20.92 19.2636 20.323 18.6667 19.5867 18.6667C18.8503 18.6667 18.2533 19.2636 18.2533 20C18.2533 20.7364 18.8503 21.3333 19.5867 21.3333Z"
        fill="#303233" />
    <path fill-rule="evenodd" clip-rule="evenodd"
        d="M2 3C2 2.44772 2.44772 2 3 2H21C21.5523 2 22 2.44772 22 3V13C22 13.5523 21.5523 14 21 14C20.4477 14 20 13.5523 20 13V4H4V17C4 18.6569 5.34315 20 7 20H13C13.5523 20 14 20.4477 14 21C14 21.5523 13.5523 22 13 22H7C4.23858 22 2 19.7614 2 17V3Z"
        fill="#303233" />
    <path
        d="M10.9999 12C12.1044 12 12.9999 11.1046 12.9999 10C12.9999 8.89543 12.1044 8 10.9999 8C9.8953 8 8.99986 8.89543 8.99986 10C8.99986 11.1046 9.8953 12 10.9999 12Z"
        fill="#303233" />
    <path
        d="M14.4027 16C14.7033 16 14.9383 15.735 14.8592 15.4449C14.3963 13.7477 12.8438 12.5 10.9999 12.5C9.15592 12.5 7.60337 13.7477 7.14048 15.4449C7.06138 15.735 7.2963 16 7.59702 16H14.4027Z"
        fill="#303233" />
    <path
        d="M12.8805 11.6472C13.2662 11.2073 13.4999 10.631 13.4999 10C13.4999 9.36905 13.2662 8.79269 12.8805 8.35278C12.7633 8.21912 12.8221 8 12.9999 8C14.1044 8 14.9999 8.89543 14.9999 10C14.9999 11.1046 14.1044 12 12.9999 12C12.8221 12 12.7633 11.7809 12.8805 11.6472Z"
        fill="#303233" />
    <path
        d="M15.9157 16C15.6629 16 15.4527 15.8104 15.3994 15.5633C15.1562 14.4365 14.5251 13.5023 13.661 12.8699C13.5204 12.7669 13.5912 12.5396 13.7623 12.5726C15.2611 12.8618 16.4618 13.9877 16.8592 15.4449C16.9384 15.735 16.7034 16 16.4027 16H15.9157Z"
        fill="#303233" />
</svg>
