<svg width="24" height="24" viewBox="0 0 24 24" fill="none" xmlns="http://www.w3.org/2000/svg">
    <path
        d="M22.4419 1.55806C22.1979 1.31398 21.8021 1.31398 21.5581 1.55806L18.5581 4.55806C18.314 4.80214 18.314 5.19786 18.5581 5.44194C18.8021 5.68602 19.1979 5.68602 19.4419 5.44194L22.4419 2.44194C22.686 2.19786 22.686 1.80214 22.4419 1.55806Z"
        fill="#303233" />
    <path
        d="M22.4419 7.44194C22.686 7.19786 22.686 6.80214 22.4419 6.55806C22.1979 6.31398 21.8021 6.31398 21.5581 6.55806L18.5581 9.55806C18.314 9.80214 18.314 10.1979 18.5581 10.4419C18.8021 10.686 19.1979 10.686 19.4419 10.4419L22.4419 7.44194Z"
        fill="#303233" />
    <path
        d="M6.44194 12.5581C6.68602 12.8021 6.68602 13.1979 6.44194 13.4419L2.44194 17.4419C2.19786 17.686 1.80214 17.686 1.55806 17.4419C1.31398 17.1979 1.31398 16.8021 1.55806 16.5581L5.55806 12.5581C5.80214 12.314 6.19786 12.314 6.44194 12.5581Z"
        fill="#303233" />
    <path
        d="M22.4419 12.4419C22.686 12.1979 22.686 11.8021 22.4419 11.5581C22.1979 11.314 21.8021 11.314 21.5581 11.5581L19.5581 13.5581C19.314 13.8021 19.314 14.1979 19.5581 14.4419C19.8021 14.686 20.1979 14.686 20.4419 14.4419L22.4419 12.4419Z"
        fill="#303233" />
    <path
        d="M4.94194 9.05806C5.18602 9.30214 5.18602 9.69786 4.94194 9.94194L2.44194 12.4419C2.19786 12.686 1.80214 12.686 1.55806 12.4419C1.31398 12.1979 1.31398 11.8021 1.55806 11.5581L4.05806 9.05806C4.30214 8.81398 4.69786 8.81398 4.94194 9.05806Z"
        fill="#303233" />
    <path
        d="M7.44194 2.44194C7.68602 2.19786 7.68602 1.80214 7.44194 1.55806C7.19786 1.31398 6.80214 1.31398 6.55806 1.55806L1.55806 6.55806C1.31398 6.80214 1.31398 7.19786 1.55806 7.44194C1.80214 7.68602 2.19786 7.68602 2.44194 7.44194L7.44194 2.44194Z"
        fill="#303233" />
    <path
        d="M2.625 2.001C2.625 2.34618 2.34518 2.626 2 2.626C1.65482 2.626 1.375 2.34618 1.375 2.001C1.375 1.65582 1.65482 1.375 2 1.375C2.34518 1.375 2.625 1.65582 2.625 2.001Z"
        fill="#303233" />
    <path
        d="M17.625 2C17.625 1.65482 17.3452 1.375 17 1.375C16.6548 1.375 16.375 1.65482 16.375 2C16.375 2.34518 16.6548 2.626 17 2.626C17.3452 2.626 17.625 2.34518 17.625 2Z"
        fill="#303233" />
    <path
        d="M22 16.375C22.3452 16.375 22.625 16.6548 22.625 17V17.001C22.625 17.3462 22.3452 17.626 22 17.626C21.6548 17.626 21.375 17.3462 21.375 17.001V17C21.375 16.6548 21.6548 16.375 22 16.375Z"
        fill="#303233" />
    <path fill-rule="evenodd" clip-rule="evenodd"
        d="M7.25 8C7.25 5.37665 9.37665 3.25 12 3.25C14.6234 3.25 16.75 5.37665 16.75 8C16.75 10.6234 14.6234 12.75 12 12.75C9.37665 12.75 7.25 10.6234 7.25 8ZM12 4.75C10.2051 4.75 8.75 6.20507 8.75 8C8.75 9.79493 10.2051 11.25 12 11.25C13.7949 11.25 15.25 9.79493 15.25 8C15.25 6.20507 13.7949 4.75 12 4.75Z"
        fill="#303233" />
    <path
        d="M12.0001 15.75C8.62292 15.75 5.78333 18.0598 4.97846 21.1869C4.87522 21.5881 4.46633 21.8296 4.06519 21.7263C3.66405 21.6231 3.42256 21.2142 3.52581 20.8131C4.49711 17.0393 7.92192 14.25 12.0001 14.25C16.0783 14.25 19.5031 17.0393 20.4744 20.8131C20.5776 21.2142 20.3361 21.6231 19.935 21.7263C19.5339 21.8296 19.125 21.5881 19.0217 21.1869C18.2169 18.0598 15.3773 15.75 12.0001 15.75Z"
        fill="#303233" />
</svg>
