<svg width="16" height="16" viewBox="0 0 16 16" fill="none" xmlns="http://www.w3.org/2000/svg">
    <g clip-path="url(#clip0_53_4810)">
        <path
            d="M9.08295 0.254583C8.67127 0.208849 8.30046 0.505507 8.25473 0.917188C8.20899 1.32887 8.50565 1.69968 8.91733 1.74541C10.2798 1.89677 11.5502 2.50688 12.5201 3.47557C13.4901 4.44427 14.1018 5.71397 14.2548 7.0762C14.3011 7.48782 14.6723 7.78401 15.0839 7.73776C15.4955 7.69151 15.7917 7.32033 15.7455 6.9087C15.5544 5.20831 14.7908 3.62341 13.5801 2.41425C12.3694 1.20508 10.7836 0.44351 9.08295 0.254583Z"
            fill="#303233" />
        <path
            d="M9.14376 3.28274C8.73721 3.20343 8.34334 3.4687 8.26402 3.87525C8.1847 4.28179 8.44997 4.67567 8.85652 4.75499C9.44717 4.87022 9.98999 5.15909 10.4155 5.58462C10.841 6.01014 11.1299 6.55297 11.2452 7.14362C11.3245 7.55017 11.7183 7.81544 12.1249 7.73612C12.5314 7.6568 12.7967 7.26293 12.7174 6.85638C12.545 5.97271 12.1128 5.16059 11.4762 4.52396C10.8396 3.88733 10.0274 3.45515 9.14376 3.28274Z"
            fill="#303233" />
        <path fill-rule="evenodd" clip-rule="evenodd"
            d="M4.93152 0.981175C4.32211 0.672942 3.60244 0.672942 2.99304 0.981175C2.68305 1.13796 2.41475 1.40703 2.11363 1.70902L1.88537 1.93737C1.56184 2.26052 1.30749 2.51458 1.11471 2.85776C0.894526 3.24973 0.748671 3.81059 0.750009 4.26017C0.751177 4.65297 0.832858 4.94031 0.935582 5.30169L0.947273 5.34284C1.58287 7.58221 2.78233 9.69513 4.5436 11.4564C6.30487 13.2177 8.4178 14.4171 10.6572 15.0527L10.6983 15.0644C11.0597 15.1671 11.347 15.2488 11.7398 15.25C12.1894 15.2513 12.7503 15.1055 13.1422 14.8853C13.4854 14.6925 13.7395 14.4382 14.0626 14.1146L14.291 13.8864C14.593 13.5853 14.862 13.317 15.0188 13.007C15.3271 12.3976 15.3271 11.6779 15.0188 11.0685C14.862 10.7585 14.593 10.4902 14.291 10.1891L14.0405 9.93871C13.8422 9.73996 13.6661 9.56353 13.4751 9.43939C12.7634 8.97662 11.8458 8.97662 11.134 9.43939C10.9431 9.56352 10.767 9.73996 10.5686 9.9387L10.5233 9.98411L10.4737 10.0335L10.4697 10.0375L10.4236 10.0155C9.48599 9.56528 8.60647 8.95132 7.82758 8.17243C7.04868 7.39353 6.43472 6.51401 5.98454 5.57639L5.96254 5.5303L5.96646 5.52632L6.01589 5.47671L6.0613 5.43136C6.26003 5.233 6.43648 5.05689 6.56061 4.86596C7.02338 4.1542 7.02338 3.23662 6.56061 2.52486C6.43647 2.33393 6.26004 2.15783 6.0613 1.95947L5.81092 1.70902C5.50981 1.40704 5.2415 1.13796 4.93152 0.981175ZM3.67006 2.3197C3.85379 2.22677 4.07077 2.22677 4.2545 2.3197C4.3199 2.35278 4.40606 2.4256 4.81907 2.83862L4.95523 2.97478C5.22658 3.24613 5.27685 3.30221 5.30305 3.3425C5.44257 3.55709 5.44257 3.83374 5.30304 4.04833C5.27685 4.08861 5.22659 4.14469 4.95523 4.41605L4.93867 4.43256C4.87612 4.49486 4.79343 4.57722 4.72253 4.67623C4.46972 5.02929 4.38806 5.50819 4.50959 5.92509C4.5435 6.04142 4.58973 6.13727 4.6242 6.20874L4.63232 6.22562C5.15476 7.31375 5.86668 8.33285 6.76691 9.23308C7.66715 10.1333 8.68625 10.8452 9.77438 11.3677L9.79125 11.3758C9.86272 11.4103 9.95859 11.4565 10.0749 11.4904C10.4918 11.6119 10.9707 11.5303 11.3238 11.2775C11.4228 11.2066 11.5051 11.1239 11.5674 11.0613L11.584 11.0448C11.8553 10.7734 11.9114 10.7231 11.9517 10.697C12.1663 10.5574 12.4429 10.5574 12.6575 10.697C12.6978 10.7231 12.7539 10.7734 13.0252 11.0448L13.1614 11.1809C13.5744 11.5939 13.6472 11.6801 13.6803 11.7455C13.7732 11.9292 13.7732 12.1462 13.6803 12.3299C13.6472 12.3954 13.5744 12.4815 13.1614 12.8945L13.0512 13.0047C12.6582 13.3977 12.5503 13.4973 12.4076 13.5775C12.2413 13.6709 11.935 13.7506 11.7443 13.75C11.5748 13.7495 11.4745 13.7255 11.0667 13.6097C9.0671 13.0422 7.18005 11.9715 5.60426 10.3957C4.02848 8.81995 2.95783 6.9329 2.39028 4.93327C2.27455 4.52553 2.25051 4.42519 2.25 4.25571C2.24943 4.06495 2.32907 3.75871 2.4225 3.5924C2.50266 3.4497 2.60233 3.34176 2.99534 2.94876L3.10548 2.83862C3.5185 2.4256 3.60465 2.35278 3.67006 2.3197Z"
            fill="#303233" />
    </g>
    <defs>
        <clipPath id="clip0_53_4810">
            <rect width="16" height="16" fill="white" />
        </clipPath>
    </defs>
</svg>
