<svg width="24" height="24" viewBox="0 0 24 24" fill="none" xmlns="http://www.w3.org/2000/svg">
    <path fill-rule="evenodd" clip-rule="evenodd"
        d="M6 2C3.79086 2 2 3.79086 2 6V18C2 20.2091 3.79086 22 6 22H18C20.2091 22 22 20.2091 22 18V6C22 3.79086 20.2091 2 18 2H6ZM4 6C4 4.89543 4.89543 4 6 4H18C19.1046 4 20 4.89543 20 6V18C20 18.4914 19.8228 18.9414 19.5288 19.2895C18.4183 16.2053 15.4665 14 11.9997 14C8.53301 14 5.58136 16.205 4.4707 19.289C4.17701 18.9409 4 18.4911 4 18V6ZM6.34107 20H17.6582C16.8346 17.6696 14.6121 16 11.9997 16C9.38722 16 7.16474 17.6696 6.34107 20ZM9.99966 9C9.99966 7.89543 10.8951 7 11.9997 7C13.1042 7 13.9997 7.89543 13.9997 9C13.9997 10.1046 13.1042 11 11.9997 11C10.8951 11 9.99966 10.1046 9.99966 9ZM11.9997 5C9.79052 5 7.99966 6.79086 7.99966 9C7.99966 11.2091 9.79052 13 11.9997 13C14.2088 13 15.9997 11.2091 15.9997 9C15.9997 6.79086 14.2088 5 11.9997 5Z"
        fill="#303233" />
</svg>
