<svg width="16" height="16" viewBox="0 0 16 16" fill="none" xmlns="http://www.w3.org/2000/svg">
    <path fill-rule="evenodd" clip-rule="evenodd"
        d="M6.99939 0.916451C7.19465 0.721189 7.51123 0.721189 7.70649 0.916451L9.00061 2.21057C9.19587 2.40583 9.19587 2.72241 9.00061 2.91768L7.70649 4.21179C7.51123 4.40706 7.19465 4.40706 6.99939 4.21179C6.80413 4.01653 6.80413 3.69995 6.99939 3.50469L7.47771 3.02637C4.96174 3.28752 3 5.41437 3 7.99942C3 9.66113 3.81012 11.1336 5.05913 12.0436C5.28232 12.2062 5.33143 12.5189 5.16883 12.7421C5.00622 12.9653 4.69347 13.0144 4.47028 12.8518C2.97404 11.7617 2 9.99428 2 7.99942C2 4.88669 4.37031 2.32758 7.40443 2.0286L6.99939 1.62356C6.80413 1.4283 6.80413 1.11171 6.99939 0.916451ZM10.8312 3.25672C10.9938 3.03353 11.3065 2.98442 11.5297 3.14703C13.026 4.23714 14 6.00455 14 7.99942C14 11.1121 11.6297 13.6712 8.59557 13.9702L9.00061 14.3753C9.19587 14.5705 9.19587 14.8871 9.00061 15.0824C8.80535 15.2776 8.48877 15.2776 8.29351 15.0824L6.99939 13.7883C6.80413 13.593 6.80413 13.2764 6.99939 13.0812L8.29351 11.787C8.48877 11.5918 8.80535 11.5918 9.00061 11.787C9.19587 11.9823 9.19587 12.2989 9.00061 12.4941L8.52229 12.9725C11.0383 12.7113 13 10.5845 13 7.99942C13 6.3377 12.1899 4.86525 10.9409 3.95526C10.7177 3.79266 10.6686 3.47991 10.8312 3.25672Z"
        fill="#303233" />
</svg>
