<svg width="24" height="24" viewBox="0 0 24 24" fill="none" xmlns="http://www.w3.org/2000/svg">
    <path fill-rule="evenodd" clip-rule="evenodd"
        d="M7.30009 2.05525C9.54474 0.994489 12.0822 0.72425 14.4999 1.28847C16.9176 1.85269 19.0734 3.21819 20.6166 5.16293C22.1599 7.10767 22.9999 9.51727 23 11.9999V13C23 14.0609 22.5786 15.0783 21.8284 15.8284C21.0783 16.5786 20.0609 17 19 17C17.9391 17 16.9217 16.5786 16.1716 15.8284C16.0128 15.6696 15.8687 15.4989 15.7403 15.3183C14.8244 16.3499 13.4881 17 12 17C9.23859 17 7.00001 14.7614 7.00001 12C7.00001 9.23858 9.23859 7.00001 12 7.00001C13.1256 7.00001 14.1644 7.37195 15 7.99964C15.0002 7.44752 15.4478 7.00001 16 7.00001C16.5523 7.00001 17 7.44772 17 8.00001V13C17 13.5304 17.2107 14.0391 17.5858 14.4142C17.9609 14.7893 18.4696 15 19 15C19.5304 15 20.0392 14.7893 20.4142 14.4142C20.7893 14.0391 21 13.5304 21 13V12.0001C21 12 21 12.0001 21 12.0001C20.9999 9.96882 20.3126 7.99728 19.05 6.40615C17.7873 4.815 16.0235 3.69777 14.0454 3.23614C12.0673 2.7745 9.99115 2.99561 8.15462 3.8635C6.3181 4.73139 4.82917 6.19503 3.92994 8.01642C3.03072 9.83781 2.77408 11.9098 3.20176 13.8956C3.62944 15.8813 4.71629 17.664 6.28558 18.9537C7.85487 20.2434 9.8143 20.9644 11.8453 20.9993C13.8762 21.0342 15.8593 20.3811 17.472 19.1461C17.9105 18.8103 18.5382 18.8935 18.874 19.332C19.2097 19.7705 19.1265 20.3982 18.688 20.7339C16.7169 22.2434 14.2932 23.0417 11.8109 22.999C9.32859 22.9563 6.93372 22.0752 5.0157 20.4988C3.09768 18.9225 1.76932 16.7437 1.24659 14.3167C0.723873 11.8897 1.03754 9.35718 2.13659 7.13104C3.23565 4.90489 5.05545 3.116 7.30009 2.05525ZM15 12C15 10.3432 13.6569 9.00001 12 9.00001C10.3432 9.00001 9.00001 10.3432 9.00001 12C9.00001 13.6569 10.3432 15 12 15C13.6569 15 15 13.6569 15 12Z"
        fill="#303233" />
</svg>
