<svg width="16" height="16" viewBox="0 0 16 16" fill="none" xmlns="http://www.w3.org/2000/svg">
    <path
        d="M1.94956 0.749867L2.00022 0.749971H14.0002L14.0509 0.749867C14.227 0.749331 14.4429 0.748674 14.6384 0.801083C15.1561 0.939783 15.5604 1.3441 15.6991 1.86174C15.7515 2.05733 15.7509 2.27319 15.7503 2.44931L15.7502 2.49997L15.7503 2.55063C15.7509 2.72675 15.7515 2.94261 15.6991 3.1382C15.5604 3.65584 15.1561 4.06016 14.6384 4.19886C14.4429 4.25127 14.227 4.25061 14.0509 4.25008L14.0002 4.24997H2.00022L1.94956 4.25008C1.77344 4.25061 1.55758 4.25127 1.36199 4.19886C0.844349 4.06016 0.440027 3.65584 0.301327 3.1382C0.248918 2.94261 0.249575 2.72675 0.250111 2.55063L0.250215 2.49997L0.250111 2.44931C0.249575 2.27319 0.248918 2.05733 0.301327 1.86174C0.440027 1.3441 0.844349 0.939783 1.36199 0.801083C1.55758 0.748674 1.77344 0.749331 1.94956 0.749867Z"
        fill="#303233" />
    <path
        d="M1.94956 5.74987L2.00022 5.74997H14.0002L14.0509 5.74987C14.227 5.74933 14.4429 5.74867 14.6384 5.80108C15.1561 5.93978 15.5604 6.3441 15.6991 6.86174C15.7515 7.05733 15.7509 7.27319 15.7503 7.44931L15.7502 7.49997L15.7503 7.55063C15.7509 7.72675 15.7515 7.94261 15.6991 8.1382C15.5604 8.65584 15.1561 9.06016 14.6384 9.19886C14.4429 9.25127 14.227 9.25061 14.0509 9.25008L14.0002 9.24997H2.00022L1.94956 9.25008C1.77344 9.25061 1.55758 9.25127 1.36199 9.19886C0.844349 9.06016 0.440027 8.65584 0.301327 8.1382C0.248918 7.94261 0.249575 7.72675 0.250111 7.55063L0.250215 7.49997L0.250111 7.44931C0.249575 7.27319 0.248918 7.05733 0.301327 6.86174C0.440027 6.3441 0.844349 5.93978 1.36199 5.80108C1.55758 5.74867 1.77344 5.74933 1.94956 5.74987Z"
        fill="#303233" />
    <path
        d="M2.00022 10.75L1.94956 10.7499C1.77344 10.7493 1.55757 10.7487 1.36199 10.8011C0.844349 10.9398 0.440027 11.3441 0.301327 11.8617C0.248918 12.0573 0.249575 12.2732 0.250111 12.4493L0.250215 12.5L0.250111 12.5506C0.249575 12.7268 0.248918 12.9426 0.301327 13.1382C0.440027 13.6558 0.844349 14.0602 1.36199 14.1989C1.55758 14.2513 1.77344 14.2506 1.94956 14.2501L2.00022 14.25H14.0002L14.0509 14.2501C14.227 14.2506 14.4429 14.2513 14.6384 14.1989C15.1561 14.0602 15.5604 13.6558 15.6991 13.1382C15.7515 12.9426 15.7509 12.7268 15.7503 12.5506L15.7502 12.5L15.7503 12.4493C15.7509 12.2732 15.7515 12.0573 15.6991 11.8617C15.5604 11.3441 15.1561 10.9398 14.6384 10.8011C14.4429 10.7487 14.227 10.7493 14.0509 10.7499L14.0002 10.75H2.00022Z"
        fill="#303233" />
</svg>
