<svg width="16" height="16" viewBox="0 0 16 16" fill="none" xmlns="http://www.w3.org/2000/svg">
    <path
        d="M8.00002 0.75C7.17556 0.75 6.37211 0.956118 5.66095 1.34002C5.45264 1.45247 5.30965 1.65667 5.2752 1.89087C5.24076 2.12507 5.3189 2.36179 5.48601 2.52945L12.0475 9.11269C12.2938 9.35977 12.6779 9.40443 12.9743 9.22044C13.2707 9.03644 13.4011 8.67239 13.2889 8.34206C13.0428 7.61748 12.8695 6.70013 12.8695 5.55C12.8695 4.27281 12.3533 3.05055 11.4387 2.1514C10.5246 1.25267 9.28741 0.75 8.00002 0.75Z"
        fill="#303233" />
    <path
        d="M3.27822 4.33888L1.46967 2.53033C1.17678 2.23744 1.17678 1.76256 1.46967 1.46967C1.76256 1.17678 2.23744 1.17678 2.53033 1.46967L14.5303 13.4697C14.8232 13.7626 14.8232 14.2374 14.5303 14.5303C14.2374 14.8232 13.7626 14.8232 13.4697 14.5303L11.1893 12.25H3.44289C3.0475 12.25 2.72812 12.25 2.49718 12.2413C2.38088 12.2369 2.26423 12.2296 2.16072 12.2147L2.1565 12.2141C2.09016 12.2046 1.88273 12.1749 1.6995 12.043C1.62239 11.9874 1.48525 11.8818 1.38406 11.7049C1.28186 11.5263 1.261 11.3534 1.25286 11.2568C1.2398 11.1017 1.27468 10.9756 1.29197 10.9192C1.31308 10.8504 1.33975 10.7881 1.36277 10.7389C1.4089 10.6402 1.47041 10.5309 1.5363 10.4199C1.66778 10.1983 1.86244 9.89459 2.10686 9.51317L2.11598 9.49895C2.63338 8.69155 3.13052 7.42248 3.13052 5.5C3.13052 5.10503 3.18095 4.71525 3.27822 4.33888Z"
        fill="#303233" />
    <path
        d="M5.43578 13.7559C5.70867 13.4443 6.1825 13.4129 6.49412 13.6858C6.89512 14.0369 7.42115 14.25 8.00001 14.25C8.57887 14.25 9.1049 14.0369 9.5059 13.6858C9.81752 13.4129 10.2914 13.4443 10.5642 13.7559C10.8371 14.0675 10.8057 14.5413 10.4941 14.8142C9.82909 15.3966 8.95481 15.75 8.00001 15.75C7.04521 15.75 6.17093 15.3966 5.5059 14.8142C5.19429 14.5413 5.16289 14.0675 5.43578 13.7559Z"
        fill="#303233" />
</svg>
