<svg width="24" height="24" viewBox="0 0 24 24" fill="none" xmlns="http://www.w3.org/2000/svg">
    <path fill-rule="evenodd" clip-rule="evenodd"
        d="M12 1.25C6.06294 1.25 1.25 6.06294 1.25 12C1.25 17.9371 6.06294 22.75 12 22.75C17.9371 22.75 22.75 17.9371 22.75 12C22.75 6.06294 17.9371 1.25 12 1.25ZM12.75 7C12.75 6.58579 12.4142 6.25 12 6.25C11.5858 6.25 11.25 6.58579 11.25 7V12C11.25 12.4142 11.5858 12.75 12 12.75C12.4142 12.75 12.75 12.4142 12.75 12V7ZM8.59962 9.45002C8.84843 9.11886 8.78167 8.6487 8.45051 8.39989C8.11935 8.15108 7.64919 8.21785 7.40038 8.54901C6.67823 9.51018 6.25 10.7062 6.25 12C6.25 15.1756 8.82436 17.75 12 17.75C15.1756 17.75 17.75 15.1756 17.75 12C17.75 10.7062 17.3218 9.51018 16.5996 8.54901C16.3508 8.21785 15.8807 8.15108 15.5495 8.39989C15.2183 8.6487 15.1516 9.11886 15.4004 9.45002C15.9341 10.1603 16.25 11.0422 16.25 12C16.25 14.3472 14.3472 16.25 12 16.25C9.65279 16.25 7.75 14.3472 7.75 12C7.75 11.0422 8.06595 10.1603 8.59962 9.45002Z"
        fill="#303233" />
</svg>
