<svg width="16" height="16" viewBox="0 0 16 16" fill="none" xmlns="http://www.w3.org/2000/svg">
    <path fill-rule="evenodd" clip-rule="evenodd"
        d="M10.5568 3.49998C10.8743 3.49983 11.1142 3.49972 11.3456 3.55526C11.5496 3.60425 11.7447 3.68506 11.9237 3.79472C12.1265 3.91903 12.2961 4.08875 12.5205 4.31336C12.5323 4.32522 12.5443 4.33723 12.5565 4.34939L14.7358 6.5287C14.9222 6.71507 15.083 6.87585 15.2046 7.0191C15.3329 7.1703 15.4468 7.33454 15.5124 7.53648C15.6103 7.83774 15.6103 8.16226 15.5124 8.46353C15.4468 8.66547 15.3329 8.8297 15.2046 8.9809C15.083 9.12416 14.9222 9.28494 14.7358 9.47132L12.5565 11.6506C12.5443 11.6628 12.5323 11.6748 12.5205 11.6866C12.2961 11.9113 12.1265 12.081 11.9237 12.2053C11.7447 12.3149 11.5496 12.3957 11.3456 12.4447C11.1142 12.5003 10.8743 12.5002 10.5568 12.5C10.5401 12.5 10.5231 12.5 10.5059 12.5H3.87934C3.47686 12.5 3.14468 12.5 2.87409 12.4779C2.59304 12.4549 2.33469 12.4057 2.09202 12.282C1.7157 12.0903 1.40973 11.7843 1.21799 11.408C1.09434 11.1653 1.04506 10.907 1.0221 10.6259C0.999989 10.3553 0.999994 10.0231 1 9.62065V6.37935C0.999994 5.97687 0.999989 5.64469 1.0221 5.37409C1.04506 5.09304 1.09434 4.83469 1.21799 4.59202C1.40973 4.2157 1.7157 3.90973 2.09202 3.71799C2.33469 3.59434 2.59304 3.54506 2.87409 3.5221C3.14469 3.49999 3.47687 3.49999 3.87935 3.5L10.5059 3.5C10.5231 3.5 10.5401 3.49999 10.5568 3.49998Z"
        fill="#303233" />
</svg>
