<svg width="24" height="24" viewBox="0 0 24 24" fill="none" xmlns="http://www.w3.org/2000/svg">
    <path fill-rule="evenodd" clip-rule="evenodd"
        d="M15.2413 1H8.7587C7.95374 0.999988 7.28937 0.999978 6.74818 1.04419C6.18608 1.09012 5.66937 1.18868 5.18404 1.43598C4.43139 1.81947 3.81947 2.43139 3.43598 3.18404C3.18868 3.66937 3.09012 4.18608 3.04419 4.74818C2.99998 5.28937 2.99999 5.95372 3 6.75869V17.2413C2.99999 18.0463 2.99998 18.7106 3.04419 19.2518C3.09012 19.8139 3.18868 20.3306 3.43598 20.816C3.81947 21.5686 4.43139 22.1805 5.18404 22.564C5.66937 22.8113 6.18608 22.9099 6.74818 22.9558C7.28936 23 7.95372 23 8.75868 23H14.2574L12.3787 21.1213C11.2071 19.9497 11.2071 18.0503 12.3787 16.8787C13.5095 15.7478 15.3186 15.7085 16.4966 16.7608L18.8787 14.3787C19.4645 13.7929 20.2322 13.5 21 13.5V6.75868C21 5.95372 21 5.28936 20.9558 4.74818C20.9099 4.18608 20.8113 3.66937 20.564 3.18404C20.1805 2.43139 19.5686 1.81947 18.816 1.43598C18.3306 1.18868 17.8139 1.09012 17.2518 1.04419C16.7106 0.999978 16.0463 0.999988 15.2413 1Z"
        fill="#303233" />
    <path fill-rule="evenodd" clip-rule="evenodd"
        d="M21.7071 15.7929C22.0976 16.1834 22.0976 16.8166 21.7071 17.2071L17.2071 21.7071C16.8166 22.0976 16.1834 22.0976 15.7929 21.7071L13.7929 19.7071C13.4024 19.3166 13.4024 18.6834 13.7929 18.2929C14.1834 17.9024 14.8166 17.9024 15.2071 18.2929L16.5 19.5858L20.2929 15.7929C20.6834 15.4024 21.3166 15.4024 21.7071 15.7929Z"
        fill="#303233" />
</svg>
