<svg width="24" height="24" viewBox="0 0 24 24" fill="none" xmlns="http://www.w3.org/2000/svg">
    <path
        d="M8.79692 16.6041C8.46474 17.0423 7.84049 17.1303 7.40006 16.7999C6.95823 16.4686 6.86869 15.8418 7.20006 15.3999L7.20107 15.3986L7.20222 15.3971L7.20496 15.3934L7.21217 15.384L7.23347 15.3568C7.25071 15.335 7.27407 15.3061 7.30342 15.2711C7.36207 15.2013 7.44506 15.1066 7.55151 14.9955C7.76358 14.7742 8.07349 14.4828 8.47439 14.1912C9.27233 13.6109 10.4745 12.9999 12.0001 12.9999C13.5256 12.9999 14.7278 13.6109 15.5257 14.1912C15.9266 14.4828 16.2365 14.7742 16.4486 14.9955C16.5551 15.1066 16.6381 15.2013 16.6967 15.2711C16.7261 15.3061 16.7494 15.335 16.7666 15.3568L16.7879 15.384L16.7952 15.3934L16.7979 15.3971L16.799 15.3986L16.8001 15.3999C17.1314 15.8418 17.0419 16.4686 16.6001 16.7999C16.1596 17.1303 15.5354 17.0423 15.2032 16.6041L15.1986 16.5982C15.1926 16.5907 15.1813 16.5766 15.1647 16.5569C15.1316 16.5174 15.0779 16.4558 15.0046 16.3793C14.8573 16.2256 14.636 16.0171 14.3494 15.8087C13.7723 15.389 12.9745 14.9999 12.0001 14.9999C11.0256 14.9999 10.2278 15.389 9.65073 15.8087C9.36413 16.0171 9.14278 16.2256 8.99548 16.3793C8.92225 16.4558 8.86852 16.5174 8.83537 16.5569C8.81883 16.5766 8.80751 16.5907 8.80156 16.5982L8.79692 16.6041Z"
        fill="#303233" />
    <path
        d="M10.7754 9.87149C11.1242 9.44326 11.0597 8.81338 10.6315 8.46461C10.2033 8.11585 9.57341 8.18027 9.22464 8.6085C8.99479 8.89072 8.72717 8.99999 8.50002 8.99999C8.28289 8.99999 8.02123 8.89903 7.76371 8.5944C7.40716 8.17263 6.7762 8.11976 6.35443 8.47631C5.93266 8.83286 5.87979 9.46381 6.23634 9.88558C6.79882 10.551 7.58716 11 8.50002 11C9.40287 11 10.2153 10.5593 10.7754 9.87149Z"
        fill="#303233" />
    <path
        d="M17.7754 9.87149C18.1242 9.44326 18.0597 8.81338 17.6315 8.46461C17.2033 8.11585 16.5734 8.18027 16.2246 8.6085C15.9948 8.89072 15.7272 8.99999 15.5 8.99999C15.2829 8.99999 15.0212 8.89903 14.7637 8.5944C14.4072 8.17263 13.7762 8.11976 13.3544 8.47631C12.9327 8.83286 12.8798 9.46381 13.2363 9.88558C13.7988 10.551 14.5872 11 15.5 11C16.4029 11 17.2153 10.5593 17.7754 9.87149Z"
        fill="#303233" />
    <path fill-rule="evenodd" clip-rule="evenodd"
        d="M1 12C1 5.92487 5.92487 1 12 1C18.0751 1 23 5.92487 23 12C23 18.0751 18.0751 23 12 23C5.92487 23 1 18.0751 1 12ZM12 3C7.02944 3 3 7.02944 3 12C3 16.9706 7.02944 21 12 21C16.9706 21 21 16.9706 21 12C21 7.02944 16.9706 3 12 3Z"
        fill="#303233" />
</svg>
