<svg width="16" height="16" viewBox="0 0 16 16" fill="none" xmlns="http://www.w3.org/2000/svg">
    <g clip-path="url(#clip0_2186_1212)">
        <path fill-rule="evenodd" clip-rule="evenodd"
            d="M8 0.75C3.99594 0.75 0.75 3.99594 0.75 8C0.75 12.0041 3.99594 15.25 8 15.25C12.0041 15.25 15.25 12.0041 15.25 8C15.25 7.97311 15.2499 7.94624 15.2496 7.91939C15.2471 7.69278 15.1423 7.47943 14.9644 7.33898C14.7865 7.19852 14.5547 7.14603 14.3337 7.19616C14.1788 7.23131 14.0169 7.25002 13.8498 7.25002C12.6486 7.25002 11.6748 6.27624 11.6748 5.07502C11.6748 4.66083 11.339 4.32505 10.9249 4.32502C9.7237 4.32494 8.75 3.35119 8.75 2.15002C8.75 1.98294 8.7687 1.82114 8.80382 1.66626C8.85394 1.44525 8.80144 1.21343 8.66099 1.03557C8.52053 0.85772 8.30719 0.752913 8.08058 0.75044C8.05375 0.750147 8.02689 0.75 8 0.75ZM6.25 6.25C6.25 6.80228 5.80228 7.25 5.25 7.25C4.69772 7.25 4.25 6.80228 4.25 6.25C4.25 5.69772 4.69772 5.25 5.25 5.25C5.80228 5.25 6.25 5.69772 6.25 6.25ZM6.75 10.25C6.75 10.8023 6.30228 11.25 5.75 11.25C5.19772 11.25 4.75 10.8023 4.75 10.25C4.75 9.69772 5.19772 9.25 5.75 9.25C6.30228 9.25 6.75 9.69772 6.75 10.25ZM8.25 8.75C8.80228 8.75 9.25 8.30228 9.25 7.75C9.25 7.19772 8.80228 6.75 8.25 6.75C7.69772 6.75 7.25 7.19772 7.25 7.75C7.25 8.30228 7.69772 8.75 8.25 8.75ZM10.75 10.75C10.75 11.3023 10.3023 11.75 9.75 11.75C9.19772 11.75 8.75 11.3023 8.75 10.75C8.75 10.1977 9.19772 9.75 9.75 9.75C10.3023 9.75 10.75 10.1977 10.75 10.75Z"
            fill="#303233" />
    </g>
    <defs>
        <clipPath id="clip0_2186_1212">
            <rect width="16" height="16" fill="white" />
        </clipPath>
    </defs>
</svg>
