<svg width="24" height="24" viewBox="0 0 24 24" fill="none" xmlns="http://www.w3.org/2000/svg">
    <g clip-path="url(#clip0_2655_140)">
        <path
            d="M16.5 0.5C17.0523 0.5 17.5 0.947715 17.5 1.5V3H19C19.5523 3 20 3.44772 20 4C20 4.55228 19.5523 5 19 5H17.5V6.5C17.5 7.05228 17.0523 7.5 16.5 7.5C15.9477 7.5 15.5 7.05228 15.5 6.5V5H14C13.4477 5 13 4.55228 13 4C13 3.44772 13.4477 3 14 3H15.5V1.5C15.5 0.947715 15.9477 0.5 16.5 0.5Z"
            fill="#303233" />
        <path fill-rule="evenodd" clip-rule="evenodd"
            d="M8.35251 6.14132C8.90556 4.59278 11.0956 4.59277 11.6486 6.14132L13.283 10.7176L17.8592 12.352C19.4078 12.905 19.4078 15.095 17.8592 15.648L13.283 17.2824L11.6486 21.8587C11.0956 23.4072 8.90556 23.4072 8.35251 21.8587L6.71813 17.2824L2.14188 15.648C0.593336 15.095 0.593327 12.905 2.14188 12.352L6.71813 10.7176L8.35251 6.14132ZM10.0006 7.47321L8.60162 11.3902C8.39994 11.955 7.95551 12.3994 7.39081 12.6011L3.47377 14L7.39081 15.3989C7.95552 15.6006 8.39994 16.045 8.60162 16.6098L10.0006 20.5268L11.3995 16.6098C11.6012 16.045 12.0456 15.6006 12.6103 15.3989L16.5273 14L12.6103 12.6011C12.0456 12.3994 11.6012 11.955 11.3995 11.3902L10.0006 7.47321Z"
            fill="#303233" />
        <path
            d="M22 7C22 6.44772 21.5523 6 21 6C20.4477 6 20 6.44772 20 7V7.5H19.5C18.9477 7.5 18.5 7.94772 18.5 8.5C18.5 9.05229 18.9477 9.5 19.5 9.5H20V10C20 10.5523 20.4477 11 21 11C21.5523 11 22 10.5523 22 10V9.5H22.5C23.0523 9.5 23.5 9.05229 23.5 8.5C23.5 7.94772 23.0523 7.5 22.5 7.5H22V7Z"
            fill="#303233" />
    </g>
    <defs>
        <clipPath id="clip0_2655_140">
            <rect width="24" height="24" fill="white" />
        </clipPath>
    </defs>
</svg>
