<svg width="16" height="16" viewBox="0 0 16 16" fill="none" xmlns="http://www.w3.org/2000/svg">
    <path fill-rule="evenodd" clip-rule="evenodd"
        d="M13.9996 1.25L10 1.25C9.58579 1.25 9.25 1.58579 9.25 2C9.25 2.41421 9.58579 2.75 10 2.75H12.1892L6.21966 8.71968C5.92677 9.01257 5.92678 9.48745 6.21968 9.78034C6.51257 10.0732 6.98745 10.0732 7.28034 9.78032L13.25 3.81053V6C13.25 6.41421 13.5858 6.75 14 6.75C14.4142 6.75 14.75 6.41421 14.75 6V2C14.75 1.58579 14.4138 1.25 13.9996 1.25ZM1.25 5.5C1.25 4.25736 2.25736 3.25 3.5 3.25H10.5C11.7426 3.25 12.75 4.25736 12.75 5.5V12.5C12.75 13.7426 11.7426 14.75 10.5 14.75H3.5C2.25736 14.75 1.25 13.7426 1.25 12.5V5.5Z"
        fill="#303233" />
</svg>
