<svg width="24" height="24" viewBox="0 0 24 24" fill="none" xmlns="http://www.w3.org/2000/svg">
    <path
        d="M3 3.25C1.48122 3.25 0.25 4.48122 0.25 6V9.25H23.75V6C23.75 4.48122 22.5188 3.25 21 3.25H3Z"
        fill="#303233" />
    <path fill-rule="evenodd" clip-rule="evenodd"
        d="M23.75 10.75H0.25V18C0.25 19.5188 1.48122 20.75 3 20.75H21C22.5188 20.75 23.75 19.5188 23.75 18V10.75ZM5 13.25C4.58579 13.25 4.25 13.5858 4.25 14C4.25 14.4142 4.58579 14.75 5 14.75H13C13.4142 14.75 13.75 14.4142 13.75 14C13.75 13.5858 13.4142 13.25 13 13.25H5ZM16.25 14C16.25 13.5858 16.5858 13.25 17 13.25H19C19.4142 13.25 19.75 13.5858 19.75 14C19.75 14.4142 19.4142 14.75 19 14.75H17C16.5858 14.75 16.25 14.4142 16.25 14Z"
        fill="#303233" />
</svg>
