<svg width="16" height="16" viewBox="0 0 16 16" fill="none" xmlns="http://www.w3.org/2000/svg">
    <g clip-path="url(#clip0_53_2767)">
        <path fill-rule="evenodd" clip-rule="evenodd"
            d="M3.25 0.75C1.86929 0.75 0.75 1.86929 0.75 3.25V12.75C0.75 14.1307 1.86929 15.25 3.25 15.25H12.75C14.1307 15.25 15.25 14.1307 15.25 12.75V3.25C15.25 1.86929 14.1307 0.75 12.75 0.75H3.25ZM7.99963 9.25C10.6105 9.25 12.7762 11.1558 13.1815 13.6522C13.0508 13.7149 12.9043 13.75 12.7496 13.75H3.24963C3.09495 13.75 2.94847 13.7149 2.81773 13.6522C3.22305 11.1558 5.38877 9.25 7.99963 9.25ZM7.99963 3.25C6.48084 3.25 5.24963 4.48122 5.24963 6C5.24963 7.51878 6.48084 8.75 7.99963 8.75C9.51841 8.75 10.7496 7.51878 10.7496 6C10.7496 4.48122 9.51841 3.25 7.99963 3.25Z"
            fill="#303233" />
    </g>
    <defs>
        <clipPath id="clip0_53_2767">
            <rect width="16" height="16" fill="white" />
        </clipPath>
    </defs>
</svg>
