<svg width="16" height="16" viewBox="0 0 16 16" fill="none" xmlns="http://www.w3.org/2000/svg">
    <path
        d="M13.8536 2.14645C13.9015 2.19439 13.9377 2.24964 13.9621 2.30861C13.9861 2.36669 13.9996 2.4303 14 2.497L14 2.5V5.5C14 5.77614 13.7761 6 13.5 6C13.2239 6 13 5.77614 13 5.5V3.70711L3.85355 12.8536C3.65829 13.0488 3.34171 13.0488 3.14645 12.8536C2.95118 12.6583 2.95118 12.3417 3.14645 12.1464L12.2929 3H10.5C10.2239 3 10 2.77614 10 2.5C10 2.22386 10.2239 2 10.5 2H13.4999C13.5677 2 13.6324 2.01349 13.6914 2.03794C13.7504 2.06234 13.8056 2.09851 13.8536 2.14645Z"
        fill="#303233" />
    <path
        d="M14 13.4995V10.5C14 10.2239 13.7761 10 13.5 10C13.2239 10 13 10.2239 13 10.5V12.2929L10.3536 9.64645C10.1583 9.45118 9.84171 9.45118 9.64645 9.64645C9.45118 9.84171 9.45118 10.1583 9.64645 10.3536L12.2929 13H10.5C10.2239 13 10 13.2239 10 13.5C10 13.7761 10.2239 14 10.5 14H13.4995L13.503 14C13.5697 13.9996 13.6333 13.9861 13.6914 13.9621C13.7504 13.9377 13.8056 13.9015 13.8536 13.8536C13.9015 13.8056 13.9377 13.7504 13.9621 13.6914C13.9861 13.6333 13.9996 13.5697 14 13.503L14 13.4995Z"
        fill="#303233" />
    <path
        d="M3.85355 3.14645C3.65829 2.95118 3.34171 2.95118 3.14645 3.14645C2.95118 3.34171 2.95118 3.65829 3.14645 3.85355L5.64645 6.35355C5.84171 6.54882 6.15829 6.54882 6.35355 6.35355C6.54882 6.15829 6.54882 5.84171 6.35355 5.64645L3.85355 3.14645Z"
        fill="#303233" />
</svg>
