<svg width="24" height="24" viewBox="0 0 24 24" fill="none" xmlns="http://www.w3.org/2000/svg">
    <path fill-rule="evenodd" clip-rule="evenodd"
        d="M0 5C0 3.34315 1.34315 2 3 2H9.17157C9.70201 2 10.2107 2.21071 10.5858 2.58579L11.4142 3.41421C11.7893 3.78929 12.298 4 12.8284 4H17C18.3062 4 19.4175 4.83481 19.8293 6H20.8195C22.6733 6 24.0835 7.6646 23.7787 9.4932L22.112 19.4932C21.8709 20.9398 20.6194 22 19.1528 22H3C1.34315 22 0 20.6569 0 19V5ZM11.5932 10.9999L11.6441 11.0009L11.6945 11.0049L11.7433 11.0119L11.7911 11.0199L11.8382 11.0319L11.8831 11.0449L11.904 11.0519L11.9154 11.0559L11.9276 11.0609L11.9445 11.0679L11.9577 11.0729L11.9697 11.0789L11.9828 11.0849L11.9995 11.0929L12.04 11.1149L12.0792 11.1389L12.0911 11.1459C12.1506 11.1869 12.206 11.2349 12.2538 11.2929C12.3028 11.3499 12.3408 11.4129 12.3714 11.4789L12.3763 11.4919L12.3935 11.5349L12.4085 11.5789L12.4137 11.5969L12.4175 11.6109L12.4214 11.6239L12.4242 11.6379L12.4283 11.6559L12.4313 11.6689L12.4327 11.6789L12.4369 11.7029L12.4425 11.7499L12.4442 11.7639C12.4473 11.8079 12.4483 11.8519 12.446 11.8979L12.4419 11.9489L12.4349 11.9999L11.6429 16.9999C11.5555 17.5519 11.0366 17.9999 10.4846 17.9999C9.93256 17.9999 9.55552 17.5519 9.64295 16.9999L10.0525 14.4139L6.23798 17.7069C5.78621 18.0969 5.15221 18.0969 4.82398 17.7069C4.49575 17.3169 4.59617 16.6829 5.04794 16.2929L8.86249 12.9999H6.27649C5.72449 12.9999 5.34745 12.5519 5.43488 11.9999C5.52231 11.4479 6.04126 10.9999 6.59326 10.9999H11.5932Z"
        fill="#303233" />
</svg>
