<svg width="24" height="24" viewBox="0 0 24 24" fill="none" xmlns="http://www.w3.org/2000/svg">
    <path fill-rule="evenodd" clip-rule="evenodd"
        d="M5.31981 1.93C7.07541 1.3448 9.43715 1 12 1C14.5629 1 16.9246 1.3448 18.6802 1.93C19.5528 2.22085 20.331 2.58923 20.9117 3.04685C21.4811 3.49559 22 4.14805 22 5V10C22 10.8494 21.4868 11.502 20.9179 11.9528C20.897 11.9694 20.8757 11.986 20.8542 12.0023C20.8736 12.0171 20.8928 12.0319 20.9117 12.0469C21.4811 12.4956 22 13.1481 22 14V19C22 19.8494 21.4868 20.502 20.9179 20.9528C20.3391 21.4115 19.5629 21.7802 18.6917 22.071C16.9389 22.6562 14.5768 23 12 23C9.42324 23 7.06109 22.6562 5.30833 22.071C4.43712 21.7802 3.66091 21.4115 3.08206 20.9528C2.51319 20.502 2 19.8494 2 19V14C2 13.1481 2.51889 12.4956 3.08829 12.0469C3.10724 12.0319 3.1264 12.0171 3.14577 12.0023C3.12428 11.986 3.10304 11.9694 3.08206 11.9528C2.51319 11.502 2 10.8494 2 10V5C2 4.14805 2.51889 3.49559 3.08829 3.04685C3.66896 2.58923 4.44724 2.22085 5.31981 1.93ZM5.30591 13.0702C4.87894 13.2516 4.55311 13.4389 4.32624 13.6177C4.16408 13.7455 4.07752 13.8494 4.03507 13.9186C4.01483 13.9515 4.00645 13.9736 4.00305 13.9847C3.99998 13.9948 4 13.9999 4 13.9999C4 13.9999 3.99998 14.0052 4.00305 14.0153C4.00645 14.0264 4.01483 14.0485 4.03507 14.0814C4.07752 14.1506 4.16408 14.2545 4.32624 14.3823C4.65642 14.6425 5.19616 14.9206 5.95227 15.1726C7.45402 15.6732 9.59229 16 12 16C14.4077 16 16.546 15.6732 18.0477 15.1726C18.8038 14.9206 19.3436 14.6425 19.6738 14.3823C19.8359 14.2545 19.9225 14.1506 19.9649 14.0814C19.9852 14.0485 19.9935 14.0264 19.9969 14.0153C20 14.0052 20 14 20 14C20 14 20.0001 13.9951 19.9969 13.9847C19.9935 13.9736 19.9852 13.9515 19.9649 13.9186C19.9225 13.8494 19.8359 13.7455 19.6738 13.6177C19.4469 13.4389 19.1211 13.2516 18.6941 13.0702L18.6917 13.071C16.9389 13.6562 14.5768 14 12 14C9.42324 14 7.06109 13.6562 5.30833 13.071L5.30591 13.0702ZM4.00305 4.98471C3.99998 4.99479 4 4.99994 4 4.99994C4 4.99994 3.99998 5.00521 4.00305 5.01529C4.00645 5.02644 4.01483 5.04845 4.03507 5.08143C4.07752 5.15057 4.16408 5.25453 4.32624 5.38232C4.65642 5.64253 5.19616 5.9206 5.95227 6.17264C7.45402 6.67322 9.59229 7 12 7C14.4077 7 16.546 6.67322 18.0477 6.17264C18.8038 5.9206 19.3436 5.64253 19.6738 5.38232C19.8359 5.25453 19.9225 5.15057 19.9649 5.08143C19.9852 5.04845 19.9935 5.02644 19.9969 5.01529C20 5.00521 20 5 20 5C20 5 20.0001 4.99506 19.9969 4.98471C19.9935 4.97356 19.9852 4.95155 19.9649 4.91857C19.9225 4.84943 19.8359 4.74547 19.6738 4.61768C19.3436 4.35747 18.8038 4.0794 18.0477 3.82736C16.546 3.32678 14.4077 3 12 3C9.59229 3 7.45402 3.32678 5.95227 3.82736C5.19616 4.0794 4.65642 4.35747 4.32624 4.61768C4.16408 4.74547 4.07752 4.84943 4.03507 4.91857C4.01483 4.95155 4.00645 4.97356 4.00305 4.98471Z"
        fill="#303233" />
</svg>
