<svg width="16" height="16" viewBox="0 0 16 16" fill="none" xmlns="http://www.w3.org/2000/svg">
    <path
        d="M1 4.00001C0.999992 2.89544 1.89543 2 3 2H6.79318C7.24589 2 7.68006 2.17986 8.00015 2.5C8.32024 2.82014 8.75441 3 9.20712 3H13.0001C14.1046 3 15.0001 3.89543 15.0001 5L15 8C15 8.27614 14.7761 8.5 14.5 8.5C14.2239 8.5 14 8.27614 14 8L14.0002 7.98756V5C14.0002 4.44772 13.5524 4 13.0002 4H3.00015C2.44787 4 2.00015 4.44772 2.00015 5V12C2.00015 12.5523 2.44787 13 3.00015 13H9.4986L9.5 13C9.77614 13 10 13.2239 10 13.5C10 13.7761 9.77614 14 9.5 14H3.00006C1.89549 14 1.00006 13.1046 1.00006 12L1 4.00001Z"
        fill="#303233" />
    <path fill-rule="evenodd" clip-rule="evenodd"
        d="M12.9356 14.9655L12.7724 14.5986C12.7143 14.4677 12.6161 14.3585 12.4921 14.2869C12.3679 14.2153 12.2243 14.1848 12.0818 14.1998L11.6826 14.2422C11.5638 14.2547 11.444 14.2325 11.3375 14.1783C11.2311 14.1241 11.1426 14.0402 11.0828 13.9368C11.0231 13.8333 10.9946 13.7148 11.0009 13.5955C11.0071 13.4762 11.0479 13.3613 11.1182 13.2647L11.3545 12.94C11.4388 12.8241 11.4842 12.6845 11.4841 12.5412C11.4842 12.3979 11.4388 12.2583 11.3545 12.1424L11.1182 11.8176C11.0479 11.7211 11.0071 11.6062 11.0009 11.4869C10.9946 11.3676 11.0231 11.249 11.0828 11.1456C11.1425 11.0421 11.231 10.9582 11.3375 10.9039C11.4439 10.8497 11.5638 10.8275 11.6826 10.8401L12.083 10.8826C12.2255 10.8976 12.3692 10.8671 12.4933 10.7955C12.6169 10.7236 12.7146 10.6145 12.7724 10.4838L12.9356 10.1169C12.9841 10.0077 13.0632 9.91488 13.1634 9.84976C13.2636 9.78463 13.3805 9.74998 13.5 9.75C13.6195 9.74998 13.7364 9.78463 13.8366 9.84976C13.9368 9.91488 14.0159 10.0077 14.0644 10.1169L14.2288 10.4838C14.2866 10.6145 14.3843 10.7236 14.5079 10.7955C14.6321 10.8671 14.7757 10.8976 14.9182 10.8826L15.3174 10.8401C15.4362 10.8275 15.5561 10.8497 15.6625 10.9039C15.769 10.9582 15.8575 11.0421 15.9172 11.1456C15.9769 11.249 16.0054 11.3676 15.9991 11.4869C15.9929 11.6062 15.9521 11.7211 15.8818 11.8176L15.6455 12.1424C15.5612 12.2583 15.5158 12.3979 15.5159 12.5412C15.5151 12.6849 15.5601 12.8251 15.6442 12.9416L15.8806 13.2663C15.9509 13.3628 15.9916 13.4778 15.9979 13.5971C16.0042 13.7163 15.9757 13.8349 15.9159 13.9383C15.8562 14.0418 15.7678 14.1258 15.6613 14.18C15.5548 14.2342 15.4349 14.2564 15.3161 14.2438L14.917 14.2013C14.7745 14.1863 14.6308 14.2168 14.5067 14.2885C14.3833 14.3599 14.2856 14.4684 14.2276 14.5986L14.0644 14.9655C14.0159 15.0747 13.9368 15.1675 13.8366 15.2326C13.7364 15.2977 13.6195 15.3324 13.5 15.3324C13.3805 15.3324 13.2636 15.2977 13.1634 15.2326C13.0632 15.1675 12.9841 15.0747 12.9356 14.9655ZM13.5028 13.4716C14.0166 13.4716 14.4332 13.055 14.4332 12.5412C14.4332 12.0273 14.0166 11.6108 13.5028 11.6108C12.9889 11.6108 12.5724 12.0273 12.5724 12.5412C12.5724 13.055 12.9889 13.4716 13.5028 13.4716Z"
        fill="#303233" />
</svg>
