<svg width="24" height="24" viewBox="0 0 24 24" fill="none" xmlns="http://www.w3.org/2000/svg">
    <path fill-rule="evenodd" clip-rule="evenodd"
        d="M12 1.25C6.06294 1.25 1.25 6.06294 1.25 12C1.25 17.9371 6.06294 22.75 12 22.75C17.9371 22.75 22.75 17.9371 22.75 12C22.75 6.06294 17.9371 1.25 12 1.25ZM2.75 12C2.75 6.89137 6.89137 2.75 12 2.75C12.3981 2.75 12.7903 2.77515 13.1751 2.82394L8.01869 5.40214C7.24115 5.79091 6.75 6.58561 6.75 7.45493C6.75 7.92106 6.88896 8.35474 7.12772 8.7168C6.59391 9.1282 6.25 9.77394 6.25 10.5V13.9189C6.25 14.8873 6.86972 15.7472 7.78849 16.0534L9.32836 16.5667L9.91378 20.3719C9.95106 20.6143 10.0186 20.8437 10.1117 21.0571C5.90868 20.1853 2.75 16.4615 2.75 12ZM15.8377 20.4188C19.0309 18.9608 21.25 15.7396 21.25 12C21.25 11.2188 21.1531 10.4601 20.9708 9.73547L20.8155 10.0461C20.3082 11.0607 19.2331 11.6552 18.1131 11.5555C18.8695 12.3751 19.0581 13.5755 18.5801 14.5912L15.8377 20.4188ZM20.2527 7.8176C19.2333 5.81007 17.5029 4.22441 15.3929 3.39208L8.68951 6.74378C8.42015 6.87846 8.25 7.15377 8.25 7.45493C8.25 7.89404 8.60597 8.25001 9.04508 8.25001H13.5C13.9142 8.25001 14.25 8.5858 14.25 9.00001C14.25 9.41423 13.9142 9.75001 13.5 9.75001H8.5C8.08579 9.75001 7.75 10.0858 7.75 10.5V13.9189C7.75 14.2417 7.95657 14.5283 8.26283 14.6304L10.2372 15.2885C10.5039 15.3774 10.6985 15.6081 10.7413 15.886L11.3963 20.1438C11.5108 20.8876 12.2516 21.3624 12.9752 21.1557L13.4205 21.0284C13.7674 20.9293 14.0546 20.6852 14.2082 20.3588L17.2229 13.9525C17.4473 13.4756 17.3484 12.9091 16.9757 12.5364L15.4697 11.0303C15.2414 10.8021 15.1848 10.4533 15.3292 10.1646C15.4736 9.87586 15.7865 9.7119 16.1061 9.75755L18.179 10.0537C18.7117 10.1298 19.2332 9.85651 19.4738 9.37527L20.2527 7.8176Z"
        fill="#303233" />
</svg>
