<svg width="16" height="16" viewBox="0 0 16 16" fill="none" xmlns="http://www.w3.org/2000/svg">
    <g clip-path="url(#clip0_110_838)">
        <path fill-rule="evenodd" clip-rule="evenodd"
            d="M10.1667 2.25C9.75245 2.25 9.41667 1.91421 9.41667 1.5C9.41667 1.08579 9.75245 0.75 10.1667 0.75H14.5C14.9142 0.75 15.25 1.08579 15.25 1.5V5.83333C15.25 6.24755 14.9142 6.58333 14.5 6.58333C14.0858 6.58333 13.75 6.24755 13.75 5.83333V3.31066L9.97477 7.08589C9.68188 7.37878 9.20701 7.37878 8.91411 7.08589C8.62122 6.79299 8.62122 6.31812 8.91411 6.02523L12.6893 2.25H10.1667ZM7.08589 8.91411C7.37878 9.20701 7.37878 9.68188 7.08589 9.97477L3.31066 13.75H5.83333C6.24755 13.75 6.58333 14.0858 6.58333 14.5C6.58333 14.9142 6.24755 15.25 5.83333 15.25H1.5C1.30109 15.25 1.11032 15.171 0.96967 15.0303C0.829018 14.8897 0.75 14.6989 0.75 14.5L0.75 10.1667C0.75 9.75245 1.08579 9.41667 1.5 9.41667C1.91421 9.41667 2.25 9.75245 2.25 10.1667L2.25 12.6893L6.02523 8.91411C6.31812 8.62122 6.79299 8.62122 7.08589 8.91411Z"
            fill="#303233" />
    </g>
    <defs>
        <clipPath id="clip0_110_838">
            <rect width="16" height="16" fill="white" />
        </clipPath>
    </defs>
</svg>
