<svg width="24" height="24" viewBox="0 0 24 24" fill="none" xmlns="http://www.w3.org/2000/svg">
    <path fill-rule="evenodd" clip-rule="evenodd"
        d="M12 2.75C6.89137 2.75 2.75 6.89137 2.75 12C2.75 17.1086 6.89137 21.25 12 21.25C17.1086 21.25 21.25 17.1086 21.25 12C21.25 6.89137 17.1086 2.75 12 2.75ZM1.25 12C1.25 6.06294 6.06294 1.25 12 1.25C17.9371 1.25 22.75 6.06294 22.75 12C22.75 17.9371 17.9371 22.75 12 22.75C6.06294 22.75 1.25 17.9371 1.25 12ZM8.25 10C8.25 7.92893 9.92893 6.25 12 6.25C14.0711 6.25 15.75 7.92893 15.75 10C15.75 11.0843 15.2888 12.0621 14.5541 12.7457C14.497 12.7989 14.4519 12.8409 14.4157 12.8752C14.4237 12.8995 14.4328 12.9266 14.4431 12.9575L15.3684 15.7334C15.4208 15.8905 15.4747 16.0521 15.5078 16.1922C15.5434 16.3429 15.5796 16.5616 15.5187 16.8044C15.4409 17.1141 15.2476 17.3822 14.9785 17.5539C14.7674 17.6885 14.5485 17.7233 14.3942 17.7372C14.2508 17.7501 14.0805 17.75 13.9149 17.75H10.0851C9.91952 17.75 9.74917 17.7501 9.60582 17.7372C9.4515 17.7233 9.23257 17.6885 9.02153 17.5539C8.75237 17.3822 8.5591 17.1141 8.48135 16.8044C8.42039 16.5616 8.45659 16.3429 8.49223 16.1922C8.52533 16.0521 8.57923 15.8905 8.6316 15.7335L9.55692 12.9575C9.56724 12.9266 9.57626 12.8995 9.58429 12.8752C9.54805 12.8409 9.50302 12.7989 9.44589 12.7457C8.71118 12.0621 8.25 11.0843 8.25 10ZM12 7.75C10.7574 7.75 9.75 8.75736 9.75 10C9.75 10.6506 10.0252 11.2358 10.4677 11.6476L10.4786 11.6577C10.5758 11.7482 10.6661 11.8322 10.7361 11.9033C10.7996 11.9678 10.9065 12.0798 10.9822 12.2258C11.017 12.2929 11.058 12.3815 11.0861 12.4916C11.1142 12.6018 11.1207 12.6992 11.1223 12.7748C11.1254 12.9244 11.0956 13.0536 11.0711 13.1434C11.0481 13.2275 11.0158 13.3243 10.9846 13.4178L10.0625 16.1842C10.0548 16.2073 10.0475 16.2292 10.0406 16.25C10.0625 16.25 10.0855 16.25 10.1099 16.25H13.8901C13.9145 16.25 13.9375 16.25 13.9594 16.25C13.9525 16.2292 13.9452 16.2073 13.9375 16.1842L13.0154 13.4178C12.9842 13.3243 12.9519 13.2275 12.9289 13.1434C12.9044 13.0536 12.8746 12.9244 12.8777 12.7748C12.8793 12.6992 12.8858 12.6018 12.9139 12.4916C12.942 12.3815 12.983 12.2929 13.0178 12.2258C13.0935 12.0798 13.2004 11.9678 13.2639 11.9033C13.3339 11.8322 13.4242 11.7482 13.5214 11.6577L13.5323 11.6476C13.9748 11.2358 14.25 10.6506 14.25 10C14.25 8.75736 13.2426 7.75 12 7.75Z"
        fill="#303233" />
</svg>
