<svg width="24" height="24" viewBox="0 0 24 24" fill="none" xmlns="http://www.w3.org/2000/svg">
    <path fill-rule="evenodd" clip-rule="evenodd"
        d="M6.7679 2.25H17.2321C18.0449 2.24999 18.7006 2.24999 19.2315 2.29336C19.7781 2.33803 20.2582 2.43239 20.7025 2.65873C21.4081 3.01825 21.9818 3.59193 22.3413 4.29754C22.5676 4.74176 22.662 5.2219 22.7066 5.76854C22.75 6.29945 22.75 6.95506 22.75 7.76788V12C22.75 12.4142 22.4142 12.75 22 12.75C21.5858 12.75 21.25 12.4142 21.25 12V9.75H2.75V16.2C2.75 17.0525 2.75058 17.6467 2.78838 18.1093C2.82547 18.5632 2.8946 18.824 2.99524 19.0215C3.21095 19.4448 3.55516 19.789 3.97852 20.0048C4.17604 20.1054 4.43681 20.1745 4.89068 20.2116C5.35331 20.2494 5.94755 20.25 6.8 20.25H14C14.4142 20.25 14.75 20.5858 14.75 21C14.75 21.4142 14.4142 21.75 14 21.75H6.76787C5.95504 21.75 5.29944 21.75 4.76853 21.7066C4.22189 21.662 3.74175 21.5676 3.29754 21.3413C2.59193 20.9817 2.01825 20.4081 1.65873 19.7025C1.43239 19.2582 1.33803 18.7781 1.29336 18.2315C1.24999 17.7006 1.24999 17.0449 1.25 16.2321V7.7679C1.24999 6.95506 1.24999 6.29944 1.29336 5.76853C1.33803 5.2219 1.43239 4.74175 1.65873 4.29754C2.01825 3.59193 2.59193 3.01825 3.29754 2.65873C3.74176 2.43239 4.2219 2.33803 4.76853 2.29336C5.29944 2.24999 5.95506 2.24999 6.7679 2.25ZM2.75 8.25H21.25V7.8C21.25 6.94756 21.2494 6.35332 21.2116 5.89069C21.1745 5.43681 21.1054 5.17604 21.0048 4.97852C20.7891 4.55516 20.4448 4.21095 20.0215 3.99524C19.824 3.8946 19.5632 3.82547 19.1093 3.78838C18.6467 3.75058 18.0525 3.75 17.2 3.75H6.8C5.94755 3.75 5.35331 3.75058 4.89068 3.78838C4.43681 3.82547 4.17604 3.8946 3.97852 3.99524C3.55516 4.21095 3.21095 4.55516 2.99524 4.97852C2.8946 5.17604 2.82547 5.4368 2.78838 5.89068C2.75058 6.35331 2.75 6.94755 2.75 7.8V8.25ZM17.4697 15.4697C17.7626 15.1768 18.2374 15.1768 18.5303 15.4697L20.5 17.4393L22.4697 15.4697C22.7626 15.1768 23.2374 15.1768 23.5303 15.4697C23.8232 15.7626 23.8232 16.2374 23.5303 16.5303L21.5607 18.5L23.5303 20.4697C23.8232 20.7626 23.8232 21.2374 23.5303 21.5303C23.2374 21.8232 22.7626 21.8232 22.4697 21.5303L20.5 19.5607L18.5303 21.5303C18.2374 21.8232 17.7626 21.8232 17.4697 21.5303C17.1768 21.2374 17.1768 20.7626 17.4697 20.4697L19.4393 18.5L17.4697 16.5303C17.1768 16.2374 17.1768 15.7626 17.4697 15.4697Z"
        fill="#303233" />
</svg>
