<svg width="16" height="16" viewBox="0 0 16 16" fill="none" xmlns="http://www.w3.org/2000/svg">
    <path fill-rule="evenodd" clip-rule="evenodd"
        d="M5.484 8.205L5.68 7.999C5.627 7.942 5.554 7.865 5.484 7.795L3.579 5.89C3.291 5.602 3.155 5.451 3.052 5.283C2.94 5.099 2.857 4.899 2.807 4.69C2.761 4.499 2.75 4.296 2.75 3.888V2.54C2.75 1.992 2.796 1.724 2.903 1.514C3.037 1.251 3.251 1.037 3.514 0.903L3.515 0.902C3.724 0.796 3.992 0.75 4.54 0.75H11.46C12.008 0.75 12.276 0.797 12.486 0.903C12.749 1.037 12.964 1.251 13.098 1.514C13.204 1.724 13.25 1.992 13.25 2.54V3.888C13.25 4.296 13.239 4.498 13.193 4.69C13.143 4.899 13.06 5.099 12.948 5.283C12.845 5.451 12.709 5.602 12.421 5.89L10.516 7.795L10.32 8.001C10.373 8.058 10.446 8.135 10.516 8.205L12.421 10.11C12.709 10.398 12.845 10.549 12.948 10.717C13.06 10.901 13.143 11.101 13.193 11.31C13.239 11.502 13.25 11.704 13.25 12.112V13.46C13.25 14.008 13.203 14.276 13.097 14.486C12.963 14.749 12.749 14.964 12.486 15.098C12.276 15.204 12.008 15.25 11.46 15.25H4.54C3.992 15.25 3.724 15.204 3.515 15.098L3.514 15.097C3.251 14.963 3.037 14.749 2.903 14.486C2.796 14.276 2.75 14.008 2.75 13.46V12.112C2.75 11.704 2.761 11.501 2.807 11.31C2.857 11.101 2.94 10.901 3.052 10.717C3.155 10.549 3.291 10.398 3.579 10.11L5.484 8.205ZM7.46965 6.28033C7.76254 6.57322 8.23741 6.57322 8.53031 6.28033L10.5303 4.28033C10.7448 4.06583 10.809 3.74324 10.6929 3.46299C10.5768 3.18273 10.3033 3 9.99998 3L5.99998 3C5.69663 3 5.42315 3.18273 5.30707 3.46299C5.19098 3.74324 5.25515 4.06583 5.46965 4.28033L7.46965 6.28033Z"
        fill="#303233" />
</svg>
