<svg width="24" height="24" viewBox="0 0 24 24" fill="none" xmlns="http://www.w3.org/2000/svg">
    <path fill-rule="evenodd" clip-rule="evenodd"
        d="M4.98542 2.25C3.47469 2.25 2.25 3.47469 2.25 4.98542V19.0146C2.25 20.5253 3.47469 21.75 4.98542 21.75H19.0146C20.5253 21.75 21.75 20.5253 21.75 19.0146V4.98542C21.75 3.47469 20.5253 2.25 19.0146 2.25H4.98542ZM9.91603 7.37596C9.68588 7.22254 9.38997 7.20823 9.14611 7.33875C8.90224 7.46926 8.75 7.7234 8.75 8V16C8.75 16.2766 8.90224 16.5307 9.14611 16.6613C9.38997 16.7918 9.68588 16.7775 9.91603 16.624L15.916 12.624C16.1247 12.4849 16.25 12.2508 16.25 12C16.25 11.7492 16.1247 11.5151 15.916 11.376L9.91603 7.37596Z"
        fill="#303233" />
</svg>
