<svg width="24" height="24" viewBox="0 0 24 24" fill="none" xmlns="http://www.w3.org/2000/svg">
    <path
        d="M12.5303 5.46967C12.2374 5.17678 11.7626 5.17678 11.4697 5.46967L6.46967 10.4697C6.17678 10.7626 6.17678 11.2374 6.46967 11.5303C6.76256 11.8232 7.23744 11.8232 7.53033 11.5303L12 7.06066L16.4697 11.5303C16.7626 11.8232 17.2374 11.8232 17.5303 11.5303C17.8232 11.2374 17.8232 10.7626 17.5303 10.4697L12.5303 5.46967Z"
        fill="#303233" />
    <path
        d="M17.5303 17.4697L12.5303 12.4697C12.2374 12.1768 11.7626 12.1768 11.4697 12.4697L6.46967 17.4697C6.17678 17.7626 6.17678 18.2374 6.46967 18.5303C6.76256 18.8232 7.23744 18.8232 7.53033 18.5303L12 14.0607L16.4697 18.5303C16.7626 18.8232 17.2374 18.8232 17.5303 18.5303C17.8232 18.2374 17.8232 17.7626 17.5303 17.4697Z"
        fill="#303233" />
</svg>
