<svg width="24" height="24" viewBox="0 0 24 24" fill="none" xmlns="http://www.w3.org/2000/svg">
    <path
        d="M21.7073 2.29289C20.2123 0.797798 17.7882 0.797796 16.2931 2.29289L12.0868 6.49916C11.6963 6.88969 11.6963 7.52285 12.0868 7.91338C12.4774 8.3039 13.1105 8.3039 13.501 7.91338L17.7073 3.7071C18.4214 2.99306 19.5791 2.99306 20.2931 3.7071C21.0072 4.42115 21.0072 5.57885 20.2931 6.29289L16.0868 10.4992C15.6963 10.8897 15.6963 11.5229 16.0868 11.9134C16.4774 12.3039 17.1105 12.3039 17.501 11.9134L21.7073 7.70711C23.2024 6.21201 23.2024 3.78799 21.7073 2.29289Z"
        fill="#303233" />
    <path fill-rule="evenodd" clip-rule="evenodd"
        d="M2.29338 2.29289C2.68391 1.90237 3.31707 1.90237 3.7076 2.29289L21.7076 20.2929C22.0981 20.6834 22.0981 21.3166 21.7076 21.7071C21.3171 22.0976 20.6839 22.0976 20.2934 21.7071L14.0003 15.414L8.20713 21.2071C8.08407 21.3302 7.93104 21.419 7.76314 21.4648L2.26314 22.9648C1.91693 23.0592 1.54667 22.9609 1.29292 22.7071C1.03917 22.4534 0.940838 22.0831 1.03526 21.7369L2.53526 16.2369C2.58105 16.069 2.66986 15.916 2.79292 15.7929L8.58605 9.99977L2.29338 3.70711C1.90286 3.31658 1.90286 2.68342 2.29338 2.29289ZM10.0003 11.414L12.586 13.9998L6.9807 19.6051L3.42524 20.5748L4.39491 17.0193L10.0003 11.414Z"
        fill="#303233" />
</svg>
