<svg width="16" height="16" viewBox="0 0 16 16" fill="none" xmlns="http://www.w3.org/2000/svg">
    <path fill-rule="evenodd" clip-rule="evenodd"
        d="M8 2C11.887 2 15 4.712 15 8C15 11.288 11.887 14 8.001 14C6.98 14.003 5.971 13.811 5.032 13.436C4.93 13.395 4.82 13.377 4.712 13.398L1.593 13.991C1.414 14.025 1.231 13.959 1.115 13.819C0.999 13.679 0.968 13.486 1.035 13.317L1.838 11.279C1.908 11.1 1.866 10.901 1.767 10.736C1.276 9.91399 1 8.984 1 8C1 4.712 4.113 2 8 2ZM11.0204 6.35355C11.2156 6.15829 11.2156 5.84171 11.0204 5.64645C10.8251 5.45118 10.5085 5.45118 10.3133 5.64645L7.00016 8.95956L5.68705 7.64645C5.49179 7.45118 5.1752 7.45118 4.97994 7.64645C4.78468 7.84171 4.78468 8.15829 4.97994 8.35355L6.64661 10.0202C6.74038 10.114 6.86755 10.1667 7.00016 10.1667C7.13277 10.1667 7.25995 10.114 7.35372 10.0202L11.0204 6.35355Z"
        fill="#303233" />
</svg>
