<svg width="16" height="16" viewBox="0 0 16 16" fill="none" xmlns="http://www.w3.org/2000/svg">
    <path fill-rule="evenodd" clip-rule="evenodd"
        d="M5.68 7.999L5.484 8.205L3.579 10.11C3.291 10.398 3.155 10.549 3.052 10.717C2.94 10.901 2.857 11.101 2.807 11.31C2.761 11.501 2.75 11.704 2.75 12.112V13.46C2.75 14.008 2.796 14.276 2.903 14.486C3.037 14.749 3.251 14.963 3.514 15.097L3.515 15.098C3.724 15.204 3.992 15.25 4.54 15.25H11.46C12.008 15.25 12.276 15.204 12.486 15.098C12.749 14.964 12.963 14.749 13.097 14.486C13.203 14.276 13.25 14.008 13.25 13.46V12.112C13.25 11.704 13.239 11.502 13.193 11.31C13.143 11.101 13.06 10.901 12.948 10.717C12.845 10.549 12.709 10.398 12.421 10.11L10.516 8.205C10.446 8.135 10.373 8.058 10.32 8.001L10.516 7.795L12.421 5.89C12.709 5.602 12.845 5.451 12.948 5.283C13.06 5.099 13.143 4.899 13.193 4.69C13.239 4.498 13.25 4.296 13.25 3.888V2.54C13.25 1.992 13.204 1.724 13.098 1.514C12.964 1.251 12.749 1.037 12.486 0.903C12.276 0.797 12.008 0.75 11.46 0.75H4.54C3.992 0.75 3.724 0.796 3.515 0.902L3.514 0.903C3.251 1.037 3.037 1.251 2.903 1.514C2.796 1.724 2.75 1.992 2.75 2.54V3.888C2.75 4.296 2.761 4.499 2.807 4.69C2.857 4.899 2.94 5.099 3.052 5.283C3.155 5.451 3.291 5.602 3.579 5.89L5.484 7.795C5.554 7.865 5.627 7.942 5.68 7.999Z"
        fill="#303233" />
</svg>
