<svg width="24" height="24" viewBox="0 0 24 24" fill="none" xmlns="http://www.w3.org/2000/svg">
    <path fill-rule="evenodd" clip-rule="evenodd"
        d="M11.6406 3.23293C11.3288 2.86781 10.861 2.67405 10.3823 2.71172C9.95368 2.74546 9.64424 2.99217 9.4973 3.11518C9.33259 3.25308 9.1447 3.44103 8.95354 3.63224L5.76153 6.82426C5.6689 6.91689 5.6225 6.96295 5.58738 6.995L5.58472 6.99741L5.58114 6.99758C5.53365 6.99975 5.46826 6.99999 5.33726 6.99999L3.56811 6.99999C3.31572 6.99996 3.06993 6.99993 2.86178 7.01694C2.63318 7.03562 2.36345 7.07968 2.09202 7.21798C1.7157 7.40973 1.40974 7.71569 1.21799 8.09201C1.07969 8.36344 1.03563 8.63317 1.01695 8.86176C0.999943 9.06992 0.999973 9.3157 1 9.56808L1 14.4319C0.999973 14.6843 0.999943 14.9301 1.01695 15.1382C1.03563 15.3668 1.07969 15.6366 1.21799 15.908C1.40974 16.2843 1.7157 16.5903 2.09202 16.782C2.36345 16.9203 2.63318 16.9644 2.86178 16.983C3.06994 17.0001 3.31574 17 3.56812 17L5.33726 17C5.46826 17 5.53365 17.0002 5.58114 17.0024L5.58472 17.0026L5.58738 17.005C5.6225 17.037 5.6689 17.0831 5.76153 17.1757L8.95355 20.3678C9.14469 20.559 9.3326 20.7469 9.4973 20.8848C9.64424 21.0078 9.95368 21.2545 10.3823 21.2883C10.861 21.3259 11.3288 21.1322 11.6406 20.7671C11.9199 20.4401 11.9642 20.0469 11.9811 19.856C12.0001 19.642 12 19.3762 12 19.1059V4.89413C12 4.62375 12.0001 4.35799 11.9811 4.14402C11.9642 3.95313 11.9199 3.55988 11.6406 3.23293ZM7.17574 8.23847L10 5.41421V18.5858L7.17574 15.7615L7.13972 15.7254C7.00579 15.5907 6.83715 15.4212 6.63079 15.2947C6.45185 15.1851 6.25676 15.1042 6.05268 15.0553C5.81736 14.9988 5.57822 14.9994 5.38832 14.9999L5.33726 15H3.60001C3.30348 15 3.14122 14.9992 3.02464 14.9897L3.01145 14.9885L3.01031 14.9754C3.00078 14.8588 3.00001 14.6965 3.00001 14.4V9.59999C3.00001 9.30347 3.00078 9.14121 3.01031 9.02463L3.01145 9.01144L3.02464 9.0103C3.14122 9.00077 3.30348 8.99999 3.60001 8.99999H5.33726L5.3883 9.00009C5.57821 9.00059 5.81735 9.00123 6.05268 8.94473C6.25676 8.89574 6.45185 8.81493 6.63079 8.70527C6.83714 8.57882 7.00579 8.40927 7.13972 8.27463L7.17574 8.23847Z"
        fill="#303233" />
    <path
        d="M20.5606 4.41605C20.238 3.96771 19.6131 3.86572 19.1648 4.18824C18.7165 4.51075 18.6145 5.13565 18.937 5.58398C20.236 7.38976 21.0009 9.60409 21.0009 12C21.0009 14.3959 20.236 16.6103 18.937 18.416C18.6145 18.8644 18.7165 19.4893 19.1648 19.8118C19.6131 20.1343 20.238 20.0323 20.5606 19.584C22.0962 17.4493 23.0009 14.8288 23.0009 12C23.0009 9.17121 22.0962 6.55074 20.5606 4.41605Z"
        fill="#303233" />
    <path
        d="M16.5664 7.42792C16.2504 6.97494 15.6271 6.86387 15.1741 7.17983C14.7211 7.49579 14.61 8.11914 14.926 8.57211C15.6036 9.54357 16.0009 10.7239 16.0009 12C16.0009 13.2761 15.6036 14.4565 14.926 15.4279C14.61 15.8809 14.7211 16.5042 15.1741 16.8202C15.6271 17.1362 16.2504 17.0251 16.5664 16.5721C17.4705 15.2759 18.0009 13.6984 18.0009 12C18.0009 10.3016 17.4705 8.72412 16.5664 7.42792Z"
        fill="#303233" />
</svg>
