<svg width="16" height="16" viewBox="0 0 16 16" fill="none" xmlns="http://www.w3.org/2000/svg">
    <path fill-rule="evenodd" clip-rule="evenodd"
        d="M8 2.25C6.98182 2.25 5.96957 2.27471 4.96388 2.32356L4.82597 2.33019C3.86078 2.37636 3.14621 2.41055 2.4912 2.76646C1.95104 3.05997 1.43202 3.5914 1.15136 4.13835C0.811039 4.80155 0.793843 5.51271 0.770634 6.47256L0.767303 6.60896C0.755789 7.07131 0.75 7.53501 0.75 8C0.75 8.46499 0.755789 8.92869 0.767303 9.39104L0.770634 9.52744C0.793843 10.4873 0.811039 11.1985 1.15136 11.8617C1.43202 12.4086 1.95104 12.94 2.4912 13.2335C3.14621 13.5895 3.86078 13.6236 4.82597 13.6698L4.96388 13.6764C5.96957 13.7253 6.98182 13.75 8 13.75C9.01818 13.75 10.0304 13.7253 11.0361 13.6764L11.174 13.6698C12.1392 13.6236 12.8538 13.5895 13.5088 13.2335C14.049 12.94 14.568 12.4086 14.8486 11.8617C15.189 11.1985 15.2062 10.4873 15.2294 9.52744L15.2327 9.39104C15.2442 8.92869 15.25 8.46499 15.25 8C15.25 7.53501 15.2442 7.07131 15.2327 6.60896L15.2294 6.47256C15.2062 5.51271 15.189 4.80155 14.8486 4.13835C14.568 3.5914 14.049 3.05997 13.5088 2.76646C12.8538 2.41055 12.1392 2.37636 11.174 2.33019L11.0361 2.32356C10.0304 2.27471 9.01818 2.25 8 2.25ZM5.45235 7.75208H7.58879C7.58879 7.97177 7.57964 8.17131 7.56133 8.35072C7.54302 8.53013 7.50641 8.69673 7.45149 8.85051C7.3746 9.06653 7.27025 9.25876 7.13843 9.42718C7.00662 9.59195 6.85101 9.73108 6.6716 9.84458C6.49585 9.95443 6.3018 10.0386 6.08944 10.0972C5.87707 10.1558 5.65373 10.1851 5.41939 10.1851C5.09719 10.1851 4.80244 10.132 4.53516 10.0258C4.27154 9.91964 4.04453 9.77136 3.85414 9.58096C3.66374 9.38691 3.51545 9.15624 3.40927 8.88895C3.30309 8.61801 3.25 8.3196 3.25 7.99373C3.25 7.67153 3.30126 7.37678 3.40378 7.1095C3.50996 6.83855 3.65825 6.60788 3.84864 6.41749C4.0427 6.2271 4.2752 6.07881 4.54614 5.97263C4.81709 5.86645 5.11916 5.81335 5.45235 5.81335C5.8844 5.81335 6.26335 5.90672 6.58922 6.09345C6.91509 6.28019 7.17322 6.56944 7.36361 6.96121L6.34207 7.38411C6.24688 7.1571 6.12239 6.99416 5.96861 6.89531C5.81849 6.79645 5.6464 6.74702 5.45235 6.74702C5.29124 6.74702 5.14479 6.77814 5.01298 6.84038C4.88117 6.89897 4.76766 6.98501 4.67246 7.09852C4.58093 7.20836 4.5077 7.342 4.45278 7.49944C4.40152 7.65688 4.37589 7.83263 4.37589 8.02669C4.37589 8.20244 4.39786 8.36537 4.44179 8.51549C4.48939 8.66561 4.55896 8.79559 4.6505 8.90543C4.74203 9.01527 4.85554 9.10132 4.99101 9.16356C5.12648 9.22214 5.28392 9.25143 5.46333 9.25143C5.56951 9.25143 5.67203 9.24045 5.77089 9.21848C5.86975 9.19285 5.95762 9.15441 6.03451 9.10315C6.11507 9.04822 6.18097 8.97866 6.23223 8.89444C6.28349 8.81023 6.31827 8.70771 6.33658 8.58689H5.45235V7.75208ZM9.34563 5.92869V10.0698H8.26917V5.92869H9.34563ZM11.2872 6.84038H12.5833V5.92869H10.2107V10.0698H11.2872V8.44409H12.468V7.53239H11.2872V6.84038Z"
        fill="#303233" />
</svg>
