<svg width="16" height="16" viewBox="0 0 16 16" fill="none" xmlns="http://www.w3.org/2000/svg">
    <path fill-rule="evenodd" clip-rule="evenodd"
        d="M8 1.25C5.65279 1.25 3.75 3.15279 3.75 5.5V6.36732C3.57911 6.40912 3.41309 6.46741 3.25153 6.54973C2.73408 6.81338 2.31339 7.23408 2.04973 7.75153C1.87789 8.08879 1.81078 8.44545 1.77974 8.82533C1.74998 9.18956 1.74999 9.6354 1.75 10.1696V10.8304C1.74999 11.3646 1.74998 11.8104 1.77974 12.1747C1.81078 12.5546 1.87789 12.9112 2.04973 13.2485C2.31339 13.7659 2.73408 14.1866 3.25153 14.4503C3.58879 14.6221 3.94545 14.6892 4.32533 14.7203C4.68956 14.75 5.13539 14.75 5.66953 14.75H10.3304C10.8646 14.75 11.3104 14.75 11.6747 14.7203C12.0546 14.6892 12.4112 14.6221 12.7485 14.4503C13.2659 14.1866 13.6866 13.7659 13.9503 13.2485C14.1221 12.9112 14.1892 12.5546 14.2203 12.1747C14.25 11.8105 14.25 11.3646 14.25 10.8305V10.1695C14.25 9.63542 14.25 9.18955 14.2203 8.82533C14.1892 8.44545 14.1221 8.08879 13.9503 7.75153C13.6866 7.23408 13.2659 6.81338 12.7485 6.54973C12.5869 6.46741 12.4209 6.40912 12.25 6.36732V5.5C12.25 3.15279 10.3472 1.25 8 1.25ZM10.75 6.25061V5.5C10.75 3.98122 9.51878 2.75 8 2.75C6.48122 2.75 5.25 3.98122 5.25 5.5V6.25061C5.38331 6.24999 5.52312 6.25 5.66957 6.25H10.3304C10.4769 6.25 10.6167 6.24999 10.75 6.25061Z"
        fill="#303233" />
</svg>
