<svg width="24" height="24" viewBox="0 0 24 24" fill="none" xmlns="http://www.w3.org/2000/svg">
    <path
        d="M12 0.25C11.0054 0.25 10.0516 0.645088 9.34835 1.34835C8.64509 2.05161 8.25 3.00544 8.25 4V12C8.25 12.9946 8.64509 13.9484 9.34835 14.6517C10.0516 15.3549 11.0054 15.75 12 15.75C12.9946 15.75 13.9484 15.3549 14.6517 14.6517C15.3549 13.9484 15.75 12.9946 15.75 12V4C15.75 3.00544 15.3549 2.05161 14.6517 1.34835C13.9484 0.645088 12.9946 0.25 12 0.25Z"
        fill="#303233" />
    <path
        d="M5.75 10C5.75 9.58579 5.41421 9.25 5 9.25C4.58579 9.25 4.25 9.58579 4.25 10V12C4.25 14.0554 5.06652 16.0267 6.51992 17.4801C7.79547 18.7556 9.46988 19.5406 11.25 19.7136V22.25H8C7.58579 22.25 7.25 22.5858 7.25 23C7.25 23.4142 7.58579 23.75 8 23.75H16C16.4142 23.75 16.75 23.4142 16.75 23C16.75 22.5858 16.4142 22.25 16 22.25H12.75V19.7136C14.5301 19.5406 16.2045 18.7556 17.4801 17.4801C18.9335 16.0267 19.75 14.0554 19.75 12V10C19.75 9.58579 19.4142 9.25 19 9.25C18.5858 9.25 18.25 9.58579 18.25 10V12C18.25 13.6576 17.5915 15.2473 16.4194 16.4194C15.2473 17.5915 13.6576 18.25 12 18.25C10.3424 18.25 8.75268 17.5915 7.58058 16.4194C6.40848 15.2473 5.75 13.6576 5.75 12V10Z"
        fill="#303233" />
</svg>
