<svg width="24" height="24" viewBox="0 0 24 24" fill="none" xmlns="http://www.w3.org/2000/svg">
    <path fill-rule="evenodd" clip-rule="evenodd"
        d="M23 12C23 18.0751 18.0751 23 12 23C5.92487 23 1 18.0751 1 12C1 5.92487 5.92487 1 12 1C18.0751 1 23 5.92487 23 12ZM13.7071 11.7071L15 10.4142V16C15 16.5523 15.4477 17 16 17C16.5523 17 17 16.5523 17 16V10.4142L18.2929 11.7071C18.6834 12.0976 19.3166 12.0976 19.7071 11.7071C20.0976 11.3166 20.0976 10.6834 19.7071 10.2929L16.7085 7.29427L16.6961 7.28204C16.6037 7.19245 16.4984 7.1242 16.3862 7.0773C16.2674 7.02751 16.1369 7 16 7C15.7307 7 15.4863 7.10642 15.3065 7.27951L15.2913 7.29448L12.2929 10.2929C11.9024 10.6834 11.9024 11.3166 12.2929 11.7071C12.6834 12.0976 13.3166 12.0976 13.7071 11.7071ZM8 7C8.55228 7 9 7.44772 9 8V13.5858L10.2929 12.2929C10.6834 11.9024 11.3166 11.9024 11.7071 12.2929C12.0976 12.6834 12.0976 13.3166 11.7071 13.7071L8.70711 16.7071C8.31658 17.0976 7.68342 17.0976 7.29289 16.7071L4.29289 13.7071C3.90237 13.3166 3.90237 12.6834 4.29289 12.2929C4.68342 11.9024 5.31658 11.9024 5.70711 12.2929L7 13.5858V8C7 7.44772 7.44772 7 8 7Z"
        fill="#303233" />
</svg>
