<svg width="16" height="16" viewBox="0 0 16 16" fill="none" xmlns="http://www.w3.org/2000/svg">
    <path fill-rule="evenodd" clip-rule="evenodd"
        d="M9.626 1.19L9.614 1.187L9.611 1.186C9.094 1.064 8.554 1 8 1C4.134 1 1 4.134 1 8C1 11.866 4.134 15 8 15C11.866 15 15 11.866 15 8C15 4.694 12.708 1.923 9.626 1.19ZM9.963 2.328L9.82 4.47C9.807 4.667 9.786 4.764 9.751 4.849C9.705 4.96 9.636 5.059 9.547 5.14V5.14101C9.479 5.20301 9.395 5.255 9.216 5.334L6.697 6.455L6.104 7.245C5.926 7.481 5.817 7.579 5.703 7.638L5.698 7.64C5.544 7.716 5.37 7.743 5.2 7.716C5.074 7.695 4.939 7.634 4.697 7.463L2.406 5.826C2.144 6.5 2 7.233 2 8C2 11.314 4.686 14 8 14C11.314 14 14 11.314 14 8C14 5.373 12.312 3.141 9.963 2.328ZM9.172 8.515L8.586 8.319C8.332 8.233 8.199 8.215 8.08 8.226C8.078 8.227 8.074 8.22701 8.074 8.22701C7.918 8.24501 7.77 8.30601 7.647 8.40401L7.644 8.407C7.552 8.483 7.471 8.58899 7.351 8.82899L6.999 9.533C6.937 9.657 6.913 9.722 6.898 9.787L6.897 9.78999C6.877 9.87599 6.872 9.96101 6.879 10.046C6.885 10.113 6.9 10.181 6.944 10.313L7.407 11.702C7.479 11.919 7.532 12.02 7.599 12.102C7.601 12.104 7.602 12.106 7.604 12.108C7.692 12.212 7.806 12.294 7.934 12.343C8.032 12.381 8.146 12.4 8.375 12.4H9.672C9.846 12.4 9.934 12.389 10.013 12.365C10.117 12.334 10.215 12.282 10.299 12.213L10.302 12.21C10.366 12.157 10.423 12.091 10.521 11.945L11.319 10.747C11.515 10.455 11.577 10.289 11.586 10.146C11.598 9.95 11.54 9.757 11.424 9.601C11.338 9.486 11.196 9.382 10.871 9.244L9.172 8.515ZM8.246 9.27699L8.252 9.26401L8.797 9.44299L10.48 10.164L10.5 10.173L10.487 10.193L9.682 11.399L8.361 11.4L8.356 11.386L7.89 9.98801L8.246 9.27699ZM8.977 2.07899C8.659 2.02699 8.333 2 8 2C5.814 2 3.901 3.169 2.852 4.916L5.276 6.647L5.293 6.659L5.894 5.858L6.001 5.729C6.005 5.725 6.009 5.721 6.012 5.718C6.051 5.681 6.093 5.648 6.137 5.619L6.291 5.53999L8.81 4.42L8.821 4.41499L8.822 4.40401L8.977 2.07899Z"
        fill="#303233" />
</svg>
