<svg width="16" height="16" viewBox="0 0 16 16" fill="none" xmlns="http://www.w3.org/2000/svg">
    <path fill-rule="evenodd" clip-rule="evenodd"
        d="M4.28577 2.78418C3.81373 2.77292 3.36393 2.98459 3.07172 3.3555C2.84831 3.63909 2.79552 3.97999 2.77307 4.23176C2.74996 4.49099 2.74998 4.8193 2.75 5.19113V10.8089C2.74998 11.1807 2.74996 11.509 2.77307 11.7682C2.79552 12.02 2.84831 12.3609 3.07172 12.6445C3.36393 13.0154 3.81373 13.2271 4.28577 13.2158C4.6467 13.2072 4.94302 13.0306 5.15133 12.8874C5.3658 12.74 5.61876 12.5307 5.90526 12.2937L9.30675 9.47996C9.47771 9.33857 9.64069 9.20378 9.76705 9.07961C9.903 8.94601 10.0552 8.77002 10.146 8.52935C10.2747 8.18818 10.2747 7.81182 10.146 7.47065C10.0552 7.22998 9.903 7.05399 9.76705 6.9204C9.6407 6.79623 9.47772 6.66144 9.30677 6.52006C9.3 6.51446 9.29322 6.50885 9.28642 6.50323L5.90526 3.70631C5.61877 3.46929 5.3658 3.26001 5.15133 3.11259C4.94302 2.9694 4.6467 2.79279 4.28577 2.78418ZM4.30164 4.34872C4.4541 4.45352 4.65494 4.61873 4.97455 4.88311L8.33033 7.65904C8.52907 7.82344 8.64094 7.91682 8.71569 7.99028C8.71917 7.9937 8.72243 7.99694 8.72546 8C8.72243 8.00306 8.71917 8.00631 8.71569 8.00973C8.64094 8.08319 8.52907 8.17656 8.33033 8.34096L4.97455 11.1169C4.65494 11.3813 4.4541 11.5465 4.30164 11.6513C4.29058 11.6589 4.28032 11.6658 4.27082 11.672C4.26957 11.6607 4.26834 11.6484 4.26715 11.6351C4.25072 11.4508 4.25 11.1907 4.25 10.7759V5.22407C4.25 4.80929 4.25072 4.54923 4.26715 4.36495C4.26834 4.35158 4.26957 4.33929 4.27082 4.328C4.28032 4.33423 4.29058 4.34112 4.30164 4.34872Z"
        fill="#303233" />
    <path fill-rule="evenodd" clip-rule="evenodd"
        d="M12.4993 2.75C12.085 2.75 11.7493 3.08579 11.7493 3.5V12.5006C11.7493 12.9148 12.085 13.2506 12.4993 13.2506C12.9135 13.2506 13.2493 12.9148 13.2493 12.5006V3.5C13.2493 3.08579 12.9135 2.75 12.4993 2.75Z"
        fill="#303233" />
</svg>
