<svg width="24" height="24" viewBox="0 0 24 24" fill="none" xmlns="http://www.w3.org/2000/svg">
    <path fill-rule="evenodd" clip-rule="evenodd"
        d="M8.16957 1.25H15.8304C16.3646 1.24999 16.8104 1.24998 17.1747 1.27974C17.5546 1.31078 17.9112 1.37789 18.2485 1.54973C18.7659 1.81338 19.1866 2.23408 19.4503 2.75153C19.6221 3.08879 19.6892 3.44545 19.7203 3.82533C19.75 4.18956 19.75 4.6354 19.75 5.16955V18.8305C19.75 19.3646 19.75 19.8104 19.7203 20.1747C19.6892 20.5546 19.6221 20.9112 19.4503 21.2485C19.1866 21.7659 18.7659 22.1866 18.2485 22.4503C17.9112 22.6221 17.5546 22.6892 17.1747 22.7203C16.8104 22.75 16.3646 22.75 15.8305 22.75H8.16955C7.6354 22.75 7.18956 22.75 6.82533 22.7203C6.44545 22.6892 6.08879 22.6221 5.75153 22.4503C5.23408 22.1866 4.81339 21.7659 4.54973 21.2485C4.37789 20.9112 4.31078 20.5546 4.27974 20.1747C4.24998 19.8104 4.24999 19.3646 4.25 18.8304V5.16957C4.24999 4.63541 4.24998 4.18956 4.27974 3.82533C4.31078 3.44545 4.37789 3.08879 4.54973 2.75153C4.81338 2.23408 5.23408 1.81338 5.75153 1.54973C6.08879 1.37789 6.44545 1.31078 6.82533 1.27974C7.18956 1.24998 7.63541 1.24999 8.16957 1.25ZM6.94748 2.77476C6.66036 2.79822 6.52307 2.8401 6.43251 2.88624C6.19731 3.00608 6.00608 3.19731 5.88624 3.43251C5.8401 3.52307 5.79822 3.66036 5.77476 3.94748C5.75058 4.24336 5.75 4.62757 5.75 5.2V18.8C5.75 19.3724 5.75058 19.7566 5.77476 20.0525C5.79822 20.3396 5.8401 20.4769 5.88624 20.5675C6.00608 20.8027 6.19731 20.9939 6.43251 21.1138C6.52307 21.1599 6.66036 21.2018 6.94748 21.2252C7.24336 21.2494 7.62757 21.25 8.2 21.25H15.8C16.3724 21.25 16.7566 21.2494 17.0525 21.2252C17.3396 21.2018 17.4769 21.1599 17.5675 21.1138C17.8027 20.9939 17.9939 20.8027 18.1138 20.5675C18.1599 20.4769 18.2018 20.3396 18.2252 20.0525C18.2494 19.7566 18.25 19.3724 18.25 18.8V5.2C18.25 4.62757 18.2494 4.24336 18.2252 3.94748C18.2018 3.66036 18.1599 3.52307 18.1138 3.43251C17.9939 3.19731 17.8027 3.00608 17.5675 2.88624C17.4769 2.8401 17.3396 2.79822 17.0525 2.77476C16.7566 2.75058 16.3724 2.75 15.8 2.75H8.2C7.62757 2.75 7.24336 2.75058 6.94748 2.77476ZM10.75 17.5C10.75 16.8096 11.3096 16.25 12 16.25C12.6904 16.25 13.25 16.8096 13.25 17.5C13.25 18.1904 12.6904 18.75 12 18.75C11.3096 18.75 10.75 18.1904 10.75 17.5Z"
        fill="#303233" />
</svg>
