<svg width="24" height="24" viewBox="0 0 24 24" fill="none" xmlns="http://www.w3.org/2000/svg">
    <path fill-rule="evenodd" clip-rule="evenodd"
        d="M18.2027 2.25H6.79734C5.97082 2.24999 5.30417 2.24999 4.76462 2.29479C4.20901 2.34093 3.72135 2.43844 3.27135 2.6722C2.58643 3.02798 2.02798 3.58643 1.6722 4.27135C1.43844 4.72135 1.34093 5.20901 1.29479 5.76462C1.24999 6.30417 1.24999 6.97081 1.25 7.79733V16.2027C1.24999 17.0292 1.24999 17.6958 1.29479 18.2354C1.34093 18.791 1.43844 19.2787 1.6722 19.7287C2.02798 20.4136 2.58643 20.972 3.27135 21.3278C3.72135 21.5616 4.20901 21.6591 4.76462 21.7052C5.30417 21.75 5.97082 21.75 6.79734 21.75H18.2027C19.0292 21.75 19.6958 21.75 20.2354 21.7052C20.791 21.6591 21.2787 21.5616 21.7287 21.3278C22.4136 20.972 22.972 20.4136 23.3278 19.7287C23.5616 19.2787 23.6591 18.791 23.7052 18.2354C23.75 17.6958 23.75 17.0292 23.75 16.2027V7.79734C23.75 6.97082 23.75 6.30417 23.7052 5.76462C23.6591 5.20901 23.5616 4.72135 23.3278 4.27135C22.972 3.58643 22.4136 3.02798 21.7287 2.6722C21.2787 2.43844 20.791 2.34093 20.2354 2.29479C19.6958 2.24999 19.0292 2.24999 18.2027 2.25ZM3.96281 4.00332C4.16302 3.89932 4.42759 3.82795 4.88876 3.78965C5.35892 3.7506 5.96318 3.75 6.83 3.75H18.17C19.0368 3.75 19.6411 3.7506 20.1112 3.78965C20.5724 3.82795 20.837 3.89932 21.0372 4.00332C21.4481 4.21679 21.7832 4.55186 21.9967 4.96281C22.1007 5.16302 22.1721 5.42759 22.2104 5.88876C22.2494 6.35892 22.25 6.96318 22.25 7.83V14.25H2.75V7.83C2.75 6.96318 2.7506 6.35892 2.78965 5.88876C2.82795 5.42759 2.89932 5.16302 3.00332 4.96281C3.21679 4.55186 3.55186 4.21679 3.96281 4.00332ZM2.75 15.75V16.17C2.75 17.0368 2.7506 17.6411 2.78965 18.1112C2.82795 18.5724 2.89932 18.837 3.00332 19.0372C3.21679 19.4481 3.55186 19.7832 3.96281 19.9967C4.16302 20.1007 4.42759 20.1721 4.88876 20.2104C5.35892 20.2494 5.96318 20.25 6.83 20.25H8.25V15.75H2.75ZM15.25 20.25H9.75V15.75H15.25V20.25ZM16.75 20.25H18.17C19.0368 20.25 19.6411 20.2494 20.1112 20.2104C20.5724 20.1721 20.837 20.1007 21.0372 19.9967C21.4481 19.7832 21.7832 19.4481 21.9967 19.0372C22.1007 18.837 22.1721 18.5724 22.2104 18.1112C22.2494 17.6411 22.25 17.0368 22.25 16.17V15.75H16.75V20.25Z"
        fill="#303233" />
</svg>
