<svg width="16" height="16" viewBox="0 0 16 16" fill="none" xmlns="http://www.w3.org/2000/svg">
    <path fill-rule="evenodd" clip-rule="evenodd"
        d="M1.0001 5.5C1.0001 5.75981 1.19826 5.97334 1.45168 5.99769C3.37985 6.21369 5.17744 7.07862 6.54949 8.45066C7.9209 9.82207 8.78565 11.6186 9.00216 13.5458C9.02527 13.8005 9.23938 14 9.5001 14H13.1668C13.653 14 14.1193 13.8068 14.4631 13.463C14.8069 13.1192 15.0001 12.6529 15.0001 12.1667V3.83333C15.0001 3.3471 14.8069 2.88079 14.4631 2.53697C14.1193 2.19315 13.653 2 13.1668 2H2.83343C2.3472 2 1.88089 2.19315 1.53707 2.53697C1.19325 2.88079 1.0001 3.3471 1.0001 3.83333V5.5Z"
        fill="#303233" />
    <path
        d="M1.00316 8.14473C1.03369 7.87028 1.28092 7.67254 1.55537 7.70306C3.02205 7.86619 4.38957 8.52354 5.43306 9.56704C6.47656 10.6105 7.13391 11.978 7.29703 13.4447C7.32756 13.7192 7.12982 13.9664 6.85537 13.9969C6.58092 14.0275 6.33369 13.8297 6.30316 13.5553C6.16513 12.3142 5.60891 11.1571 4.72595 10.2741C3.843 9.39119 2.68587 8.83496 1.44483 8.69694C1.17038 8.66641 0.972638 8.41918 1.00316 8.14473Z"
        fill="#303233" />
    <path
        d="M1.01018 10.8001C1.06536 10.5295 1.32944 10.3549 1.60001 10.4101C2.3367 10.5603 3.01294 10.9239 3.54457 11.4555C4.07621 11.9872 4.43977 12.6634 4.59001 13.4001C4.6452 13.6707 4.47059 13.9347 4.20001 13.9899C3.92944 14.0451 3.66536 13.8705 3.61018 13.5999C3.49913 13.0554 3.23042 12.5556 2.83747 12.1626C2.44452 11.7697 1.94469 11.501 1.40018 11.3899C1.12961 11.3347 0.955001 11.0707 1.01018 10.8001Z"
        fill="#303233" />
    <path
        d="M1.50012 13C1.22398 13 1.00012 13.2239 1.00012 13.5C1.00012 13.7761 1.22398 14 1.50012 14H1.50679C1.78293 14 2.00679 13.7761 2.00679 13.5C2.00679 13.2239 1.78293 13 1.50679 13H1.50012Z"
        fill="#303233" />
</svg>
