<svg width="16" height="16" viewBox="0 0 16 16" fill="none" xmlns="http://www.w3.org/2000/svg">
    <g clip-path="url(#clip0_2188_1470)">
        <path fill-rule="evenodd" clip-rule="evenodd"
            d="M8 0.75C3.99594 0.75 0.75 3.99594 0.75 8C0.75 12.0041 3.99594 15.25 8 15.25C12.0041 15.25 15.25 12.0041 15.25 8C15.25 3.99594 12.0041 0.75 8 0.75ZM8.75 4.5C8.75 4.08579 8.41421 3.75 8 3.75C7.58579 3.75 7.25 4.08579 7.25 4.5V8C7.25 8.41421 7.58579 8.75 8 8.75C8.41421 8.75 8.75 8.41421 8.75 8V4.5ZM5.79962 6.35016C6.04843 6.019 5.98167 5.54885 5.65051 5.30004C5.31934 5.05123 4.84919 5.11799 4.60038 5.44915C4.0666 6.15961 3.75 7.04391 3.75 8C3.75 10.3472 5.65279 12.25 8 12.25C10.3472 12.25 12.25 10.3472 12.25 8C12.25 7.04391 11.9334 6.1596 11.3996 5.44915C11.1508 5.11799 10.6807 5.05123 10.3495 5.30004C10.0183 5.54885 9.95157 6.019 10.2004 6.35016C10.5457 6.80975 10.75 7.37993 10.75 8C10.75 9.51878 9.51878 10.75 8 10.75C6.48122 10.75 5.25 9.51878 5.25 8C5.25 7.37993 5.45432 6.80975 5.79962 6.35016Z"
            fill="#303233" />
    </g>
    <defs>
        <clipPath id="clip0_2188_1470">
            <rect width="16" height="16" fill="white" />
        </clipPath>
    </defs>
</svg>
