<svg width="24" height="24" viewBox="0 0 24 24" fill="none" xmlns="http://www.w3.org/2000/svg">
    <path fill-rule="evenodd" clip-rule="evenodd"
        d="M6.7587 3L17.2413 3H17.2413C18.0463 2.99999 18.7106 2.99998 19.2518 3.0442C19.8139 3.09012 20.3306 3.18868 20.816 3.43598C21.5686 3.81947 22.1805 4.43139 22.564 5.18404C22.8113 5.66938 22.9099 6.18608 22.9558 6.74818C23 7.28937 23 7.95372 23 8.75868L23 15.2413C23 16.0463 23 16.7106 22.9558 17.2518C22.9099 17.8139 22.8113 18.3306 22.564 18.816C22.1805 19.5686 21.5686 20.1805 20.816 20.564C20.3306 20.8113 19.8139 20.9099 19.2518 20.9558C18.7106 21 18.0463 21 17.2413 21L6.75868 21C5.95372 21 5.28937 21 4.74818 20.9558C4.18608 20.9099 3.66938 20.8113 3.18404 20.564C2.43139 20.1805 1.81947 19.5686 1.43598 18.816C1.18868 18.3306 1.09012 17.8139 1.0442 17.2518C0.999979 16.7106 0.999988 16.0463 1 15.2413V15.2413L1 8.75869V8.75867C0.999988 7.95371 0.999979 7.28936 1.0442 6.74818C1.09012 6.18608 1.18868 5.66938 1.43598 5.18404C1.81947 4.43139 2.43139 3.81947 3.18404 3.43598C3.66938 3.18868 4.18608 3.09012 4.74818 3.0442C5.28936 2.99998 5.95373 2.99999 6.75869 3H6.7587ZM9.16146 7L10 7C10.5523 7 11 7.44772 11 8C11 8.55229 10.5523 9 10 9L9.2 9C8.62345 9 8.25118 9.00078 7.96784 9.02393C7.69618 9.04612 7.59546 9.0838 7.54601 9.109C7.35785 9.20487 7.20487 9.35785 7.109 9.54601C7.0838 9.59546 7.04612 9.69618 7.02393 9.96784C7.00078 10.2512 7 10.6234 7 11.2L7 12.8C7 13.3766 7.00078 13.7488 7.02393 14.0322C7.04612 14.3038 7.0838 14.4045 7.109 14.454C7.20487 14.6422 7.35785 14.7951 7.54601 14.891C7.59546 14.9162 7.69618 14.9539 7.96784 14.9761C8.25118 14.9992 8.62345 15 9.2 15H10C10.5523 15 11 15.4477 11 16C11 16.5523 10.5523 17 10 17H9.16148H9.16145C8.6343 17 8.17954 17 7.80497 16.9694C7.40963 16.9371 7.01641 16.8658 6.63803 16.673C6.07354 16.3854 5.6146 15.9265 5.32698 15.362C5.13419 14.9836 5.06287 14.5904 5.03057 14.195C4.99997 13.8205 4.99998 13.3657 5 12.8386V12.8385L5 11.1615V11.1614C4.99998 10.6343 4.99997 10.1795 5.03057 9.80497C5.06287 9.40963 5.13419 9.01641 5.32698 8.63803C5.6146 8.07354 6.07354 7.6146 6.63803 7.32698C7.01641 7.13419 7.40963 7.06287 7.80497 7.03057C8.17954 6.99997 8.63429 6.99998 9.16142 7H9.16146ZM17.1615 7H18C18.5523 7 19 7.44772 19 8C19 8.55229 18.5523 9 18 9H17.2C16.6234 9 16.2512 9.00078 15.9678 9.02393C15.6962 9.04612 15.5955 9.0838 15.546 9.109C15.3578 9.20487 15.2049 9.35785 15.109 9.54601C15.0838 9.59546 15.0461 9.69618 15.0239 9.96784C15.0008 10.2512 15 10.6234 15 11.2V12.8C15 13.3766 15.0008 13.7488 15.0239 14.0322C15.0461 14.3038 15.0838 14.4045 15.109 14.454C15.2049 14.6422 15.3578 14.7951 15.546 14.891C15.5955 14.9162 15.6962 14.9539 15.9678 14.9761C16.2512 14.9992 16.6234 15 17.2 15L18 15C18.5523 15 19 15.4477 19 16C19 16.5523 18.5523 17 18 17L17.1615 17H17.1614C16.6343 17 16.1795 17 15.805 16.9694C15.4096 16.9371 15.0164 16.8658 14.638 16.673C14.0735 16.3854 13.6146 15.9265 13.327 15.362C13.1342 14.9836 13.0629 14.5904 13.0306 14.195C13 13.8205 13 13.3657 13 12.8385V11.1615C13 10.6343 13 10.1795 13.0306 9.80497C13.0629 9.40963 13.1342 9.01641 13.327 8.63803C13.6146 8.07354 14.0735 7.6146 14.638 7.32698C15.0164 7.13419 15.4096 7.06287 15.805 7.03057C16.1795 6.99997 16.6343 6.99998 17.1614 7H17.1615Z"
        fill="#303233" />
</svg>
