<svg width="16" height="16" viewBox="0 0 16 16" fill="none" xmlns="http://www.w3.org/2000/svg">
    <g clip-path="url(#clip0_53_7008)">
        <path fill-rule="evenodd" clip-rule="evenodd"
            d="M1.53033 0.46967C1.23744 0.176777 0.762563 0.176777 0.46967 0.46967C0.176777 0.762563 0.176777 1.23744 0.46967 1.53033L2.71815 3.77881C2.09802 4.57439 1.75 5.58248 1.75 6.564C1.75 7.63139 2.1632 8.60723 2.72278 9.44143C3.28294 10.2765 4.01679 11.0107 4.73 11.6118C5.44602 12.2153 6.16187 12.7018 6.70477 13.0377C6.97673 13.2059 7.20854 13.3384 7.3793 13.4306C7.46408 13.4764 7.53749 13.5142 7.59547 13.5422C7.62346 13.5558 7.65462 13.5703 7.68493 13.5831C7.69914 13.5891 7.72264 13.5987 7.75044 13.6081C7.76406 13.6127 7.78762 13.6204 7.817 13.6276C7.83566 13.6322 7.90762 13.65 8 13.65C8.09398 13.65 8.1667 13.6317 8.18511 13.6271C8.21449 13.6197 8.23889 13.6118 8.25244 13.6071C8.28016 13.5976 8.30373 13.5879 8.31816 13.5818C8.34893 13.5687 8.38091 13.5537 8.41014 13.5395C8.47059 13.5101 8.54757 13.4703 8.63689 13.4218C8.81667 13.3243 9.06086 13.184 9.34655 13.0058C9.77999 12.7354 10.3169 12.3729 10.8738 11.9345L14.4697 15.5303C14.7626 15.8232 15.2374 15.8232 15.5303 15.5303C15.8232 15.2374 15.8232 14.7626 15.5303 14.4697L1.53033 0.46967ZM9.80488 10.8655L3.79117 4.85183C3.44707 5.35566 3.25 5.9719 3.25 6.564C3.25 7.23839 3.51207 7.92544 3.96847 8.60583C4.42428 9.28532 5.04709 9.91739 5.69667 10.4648C6.34343 11.0099 6.99647 11.4543 7.49398 11.7621C7.69333 11.8854 7.86561 11.9855 8 12.0603C8.1449 11.9797 8.33365 11.8697 8.55271 11.7331C8.91373 11.5079 9.35046 11.2144 9.80488 10.8655Z"
            fill="#303233" />
        <path
            d="M8.57093 4.54441C8.89931 4.15893 9.43461 3.75 10.2611 3.75C11.6666 3.75 12.75 5.12992 12.75 6.564C12.75 7.31955 12.4206 8.09027 11.8628 8.84513C11.6167 9.17827 11.6872 9.64788 12.0203 9.89404C12.3534 10.1402 12.823 10.0697 13.0692 9.73656C13.7338 8.83716 14.25 7.75756 14.25 6.564C14.25 4.55783 12.73 2.25 10.2611 2.25C9.28041 2.25 8.53535 2.60297 8.00016 3.02238C7.57687 2.69052 7.02031 2.39921 6.31467 2.2926C5.9051 2.23073 5.52293 2.51259 5.46105 2.92215C5.39918 3.33172 5.68104 3.7139 6.0906 3.77577C6.71414 3.86997 7.14657 4.21279 7.42907 4.54441C7.57156 4.71169 7.78025 4.80806 8 4.80806C8.21975 4.80806 8.42844 4.71169 8.57093 4.54441Z"
            fill="#303233" />
    </g>
    <defs>
        <clipPath id="clip0_53_7008">
            <rect width="16" height="16" fill="white" />
        </clipPath>
    </defs>
</svg>
