<svg width="24" height="24" viewBox="0 0 24 24" fill="none" xmlns="http://www.w3.org/2000/svg">
    <path
        d="M15 1.25C15.4142 1.25 15.75 1.58579 15.75 2V3.5C15.75 3.91421 15.4142 4.25 15 4.25C14.5858 4.25 14.25 3.91421 14.25 3.5V2C14.25 1.58579 14.5858 1.25 15 1.25Z"
        fill="#303233" />
    <path
        d="M9.46967 3.46967C9.76256 3.17678 10.2374 3.17678 10.5303 3.46967L11.5303 4.46967C11.8232 4.76256 11.8232 5.23744 11.5303 5.53033C11.2374 5.82322 10.7626 5.82322 10.4697 5.53033L9.46967 4.53033C9.17678 4.23744 9.17678 3.76256 9.46967 3.46967Z"
        fill="#303233" />
    <path
        d="M20.5303 3.46967C20.8232 3.76256 20.8232 4.23744 20.5303 4.53033L19.5303 5.53033C19.2374 5.82322 18.7626 5.82322 18.4697 5.53033C18.1768 5.23744 18.1768 4.76256 18.4697 4.46967L19.4697 3.46967C19.7626 3.17678 20.2374 3.17678 20.5303 3.46967Z"
        fill="#303233" />
    <path
        d="M19.75 9C19.75 8.58579 20.0858 8.25 20.5 8.25H22C22.4142 8.25 22.75 8.58579 22.75 9C22.75 9.41421 22.4142 9.75 22 9.75H20.5C20.0858 9.75 19.75 9.41421 19.75 9Z"
        fill="#303233" />
    <path
        d="M18.4697 12.4697C18.7626 12.1768 19.2374 12.1768 19.5303 12.4697L20.5303 13.4697C20.8232 13.7626 20.8232 14.2374 20.5303 14.5303C20.2374 14.8232 19.7626 14.8232 19.4697 14.5303L18.4697 13.5303C18.1768 13.2374 18.1768 12.7626 18.4697 12.4697Z"
        fill="#303233" />
    <path fill-rule="evenodd" clip-rule="evenodd"
        d="M12.9591 7.24987C13.3105 7.13566 13.6892 7.13566 14.0406 7.24987C14.2865 7.32974 14.4795 7.46643 14.6425 7.60483C14.7937 7.73318 14.9609 7.90041 15.143 8.08248L15.9173 8.85684C16.0994 9.0389 16.2667 9.2061 16.395 9.35731C16.5334 9.52033 16.6701 9.71339 16.75 9.95922C16.8642 10.3107 16.8642 10.6893 16.75 11.0408C16.6701 11.2866 16.5334 11.4797 16.395 11.6427C16.2667 11.7939 16.0994 11.9611 15.9174 12.1431L6.64302 21.4175C6.46096 21.5996 6.29375 21.7668 6.14254 21.8952C5.97952 22.0336 5.78646 22.1703 5.54063 22.2501C5.18915 22.3643 4.81054 22.3643 4.45907 22.2501C4.21324 22.1703 4.02018 22.0336 3.85715 21.8952C3.70596 21.7668 3.53876 21.5996 3.35671 21.4175L2.58235 20.6432C2.40027 20.4611 2.23304 20.2939 2.10467 20.1427C1.96628 19.9797 1.82959 19.7866 1.74971 19.5408C1.63551 19.1893 1.63551 18.8107 1.74971 18.4592C1.82959 18.2134 1.96628 18.0203 2.10467 17.8573C2.23303 17.7061 2.40026 17.5389 2.58233 17.3569L11.8567 8.0825C12.0387 7.90042 12.2059 7.73319 12.3572 7.60483C12.5202 7.46643 12.7132 7.32974 12.9591 7.24987ZM13 12.9392L14.8381 11.101C15.0449 10.8943 15.1677 10.7707 15.2515 10.6719C15.3027 10.6117 15.3201 10.5822 15.3244 10.574C15.3394 10.5258 15.3394 10.4742 15.3244 10.426C15.3201 10.4178 15.3027 10.3884 15.2515 10.3281C15.1677 10.2293 15.0449 10.1057 14.8381 9.89896L14.1009 9.1617C13.8941 8.95494 13.7705 8.83218 13.6718 8.74833C13.6115 8.69716 13.5821 8.67975 13.5738 8.67542C13.5256 8.66048 13.4741 8.66048 13.4259 8.67542C13.4176 8.67975 13.3882 8.69716 13.3279 8.74833C13.2292 8.83218 13.1056 8.95494 12.8988 9.1617L11.0606 10.9999L13 12.9392ZM9.99998 12.0605L11.9393 13.9999L5.60089 20.3383C5.39413 20.5451 5.27054 20.6678 5.17178 20.7517C5.1115 20.8028 5.08206 20.8203 5.07384 20.8246C5.02564 20.8395 4.97405 20.8395 4.92586 20.8246C4.91763 20.8203 4.8882 20.8028 4.82792 20.7517C4.72915 20.6678 4.60557 20.5451 4.39881 20.3383L3.66155 19.601C3.45479 19.3943 3.33203 19.2707 3.24818 19.1719C3.19701 19.1116 3.17959 19.0822 3.17526 19.074C3.16033 19.0258 3.16033 18.9742 3.17526 18.926C3.17959 18.9178 3.19701 18.8884 3.24818 18.8281C3.33203 18.7293 3.45479 18.6057 3.66155 18.399L9.99998 12.0605Z"
        fill="#303233" />
</svg>
