<svg width="16" height="16" viewBox="0 0 16 16" fill="none" xmlns="http://www.w3.org/2000/svg">
    <g clip-path="url(#clip0_2243_284)">
        <path
            d="M6.25 6.25C6.25 5.69772 6.69772 5.25 7.25 5.25V7.25C6.69772 7.25 6.25 6.80228 6.25 6.25Z"
            fill="#303233" />
        <path
            d="M8.75 10.75V8.75H9.25C9.80228 8.75 10.25 9.19772 10.25 9.75C10.25 10.3023 9.80228 10.75 9.25 10.75H8.75Z"
            fill="#303233" />
        <path fill-rule="evenodd" clip-rule="evenodd"
            d="M8 0.75C3.99594 0.75 0.75 3.99594 0.75 8C0.75 12.0041 3.99594 15.25 8 15.25C12.0041 15.25 15.25 12.0041 15.25 8C15.25 3.99594 12.0041 0.75 8 0.75ZM8.75 3.5V3.75H10.5C10.9142 3.75 11.25 4.08579 11.25 4.5C11.25 4.91421 10.9142 5.25 10.5 5.25H8.75V7.25H9.25C10.6307 7.25 11.75 8.36929 11.75 9.75C11.75 11.1307 10.6307 12.25 9.25 12.25H8.75V12.5C8.75 12.9142 8.41421 13.25 8 13.25C7.58579 13.25 7.25 12.9142 7.25 12.5V12.25H5.5C5.08579 12.25 4.75 11.9142 4.75 11.5C4.75 11.0858 5.08579 10.75 5.5 10.75H7.25V8.75C5.86929 8.75 4.75 7.63071 4.75 6.25C4.75 4.86929 5.86929 3.75 7.25 3.75V3.5C7.25 3.08579 7.58579 2.75 8 2.75C8.41421 2.75 8.75 3.08579 8.75 3.5Z"
            fill="#303233" />
    </g>
    <defs>
        <clipPath id="clip0_2243_284">
            <rect width="16" height="16" fill="white" />
        </clipPath>
    </defs>
</svg>
