<svg width="16" height="16" viewBox="0 0 16 16" fill="none" xmlns="http://www.w3.org/2000/svg">
    <path
        d="M7.42124 7.35741C7.69642 7.33438 7.90083 7.09264 7.8778 6.81746C7.85477 6.54228 7.61303 6.33787 7.33785 6.3609C5.6136 6.5052 4.0481 7.208 2.82347 8.28679C2.61626 8.46933 2.59626 8.78528 2.77879 8.99249C2.96132 9.1997 3.27727 9.2197 3.48448 9.03717C4.55357 8.0954 5.91825 7.4832 7.42124 7.35741Z"
        fill="#303233" />
    <path
        d="M7.99928 10.6667C7.17256 10.6667 6.41401 10.9527 5.81522 11.4315C5.59956 11.604 5.28491 11.569 5.11245 11.3533C4.93998 11.1377 4.97499 10.823 5.19066 10.6506C5.96033 10.035 6.93747 9.66667 7.99928 9.66667C9.04523 9.66667 10.0091 10.0241 10.7734 10.6232C10.9907 10.7936 11.0288 11.1079 10.8584 11.3252C10.6881 11.5425 10.3738 11.5806 10.1564 11.4102C9.56192 10.9442 8.81371 10.6667 7.99928 10.6667Z"
        fill="#303233" />
    <path
        d="M7.99935 13C7.72321 13 7.49935 13.2239 7.49935 13.5C7.49935 13.7761 7.72321 14 7.99935 14H8.00602C8.28216 14 8.50602 13.7761 8.50602 13.5C8.50602 13.2239 8.28216 13 8.00602 13H7.99935Z"
        fill="#303233" />
    <path fill-rule="evenodd" clip-rule="evenodd"
        d="M12.5 3C12.7113 3 12.8998 3.13284 12.9709 3.33183L13.4163 4.57915C13.5004 4.81445 13.6856 4.99962 13.9208 5.08366L15.1682 5.52913C15.3672 5.6002 15.5 5.78869 15.5 6C15.5 6.21131 15.3672 6.3998 15.1682 6.47087L13.9208 6.91634C13.6856 7.00038 13.5004 7.18555 13.4163 7.42085L12.9709 8.66817C12.8998 8.86716 12.7113 9 12.5 9C12.2887 9 12.1002 8.86716 12.0291 8.66817L11.5837 7.42085C11.4996 7.18555 11.3145 7.00038 11.0792 6.91634L9.83183 6.47087C9.63284 6.3998 9.5 6.21131 9.5 6C9.5 5.78869 9.63284 5.6002 9.83183 5.52913L11.0792 5.08366C11.3145 4.99962 11.4996 4.81445 11.5837 4.57915L12.0291 3.33183C12.1002 3.13284 12.2887 3 12.5 3Z"
        fill="#303233" />
    <path fill-rule="evenodd" clip-rule="evenodd"
        d="M0.459076 5.93187C2.44557 4.11152 5.09417 3 8.00124 3C8.35349 3 8.70207 3.01633 9.04624 3.04829C9.32119 3.07382 9.52339 3.31742 9.49786 3.59238C9.47233 3.86734 9.22873 4.06954 8.95377 4.044C8.6403 4.01489 8.32257 4 8.00124 4C5.35396 4 2.94401 5.01113 1.13468 6.66914C0.93109 6.8557 0.614808 6.8419 0.428245 6.63831C0.241683 6.43472 0.255486 6.11844 0.459076 5.93187Z"
        fill="#303233" />
</svg>
