<svg width="24" height="24" viewBox="0 0 24 24" fill="none" xmlns="http://www.w3.org/2000/svg">
    <g clip-path="url(#clip0_53_9504)">
        <path fill-rule="evenodd" clip-rule="evenodd"
            d="M1.53033 0.46967C1.23744 0.176777 0.762563 0.176777 0.46967 0.46967C0.176777 0.762563 0.176777 1.23744 0.46967 1.53033L22.4697 23.5303C22.7626 23.8232 23.2374 23.8232 23.5303 23.5303C23.8232 23.2374 23.8232 22.7626 23.5303 22.4697L21.6818 20.6212C21.9452 20.3517 22.1681 20.0424 22.3413 19.7025C22.5677 19.2582 22.662 18.7781 22.7067 18.2315C22.7501 17.7006 22.7501 17.045 22.7501 16.2321V7.76788C22.7501 6.95505 22.7501 6.29944 22.7067 5.76853C22.662 5.2219 22.5677 4.74175 22.3413 4.29754C21.9818 3.59193 21.4081 3.01825 20.7025 2.65873C20.2583 2.43239 19.7782 2.33803 19.2315 2.29336C18.7006 2.24999 18.045 2.24999 17.2322 2.25H6.76797C5.95513 2.24999 5.29951 2.24999 4.7686 2.29336C4.33991 2.32839 3.95212 2.39398 3.59048 2.52982L1.53033 0.46967ZM15.8472 14.7865L20.6211 19.5604C20.7739 19.4016 20.9035 19.2203 21.0048 19.0215C21.1055 18.824 21.1746 18.5632 21.2117 18.1093C21.2495 17.6467 21.2501 17.0525 21.2501 16.2V7.8C21.2501 6.94755 21.2495 6.35331 21.2117 5.89068C21.1746 5.4368 21.1055 5.17604 21.0048 4.97852C20.7891 4.55516 20.4449 4.21095 20.0215 3.99524C19.824 3.8946 19.5633 3.82547 19.1094 3.78838C18.6468 3.75058 18.0525 3.75 17.2001 3.75H6.80007C5.94762 3.75 5.35338 3.75058 4.89075 3.78838L4.8523 3.79164L9.2135 8.15284C9.99615 7.58518 10.9597 7.25 12 7.25C14.6234 7.25 16.75 9.37665 16.75 12C16.75 13.0403 16.4148 14.0038 15.8472 14.7865ZM14.7668 13.7062C15.0734 13.2103 15.25 12.6264 15.25 12C15.25 10.2051 13.7949 8.75 12 8.75C11.3736 8.75 10.7897 8.92662 10.2938 9.23318L14.7668 13.7062Z"
            fill="#303233" />
        <path
            d="M2 6.75C2.41421 6.75 2.75 7.08579 2.75 7.5V16.2C2.75 17.0525 2.75058 17.6467 2.78838 18.1093C2.82547 18.5632 2.8946 18.824 2.99524 19.0215C3.21095 19.4448 3.55516 19.789 3.97852 20.0048C4.17604 20.1054 4.4368 20.1745 4.89068 20.2116C5.35331 20.2494 5.94755 20.25 6.8 20.25H15.5C15.9142 20.25 16.25 20.5858 16.25 21C16.25 21.4142 15.9142 21.75 15.5 21.75H6.76788C5.95505 21.75 5.29944 21.75 4.76853 21.7066C4.2219 21.662 3.74175 21.5676 3.29754 21.3413C2.59193 20.9817 2.01825 20.4081 1.65873 19.7025C1.43239 19.2582 1.33803 18.7781 1.29336 18.2315C1.24999 17.7006 1.24999 17.0449 1.25 16.2321L1.25 7.5C1.25 7.08579 1.58579 6.75 2 6.75Z"
            fill="#303233" />
        <path
            d="M8.75 12C8.75 11.5858 8.41421 11.25 8 11.25C7.58579 11.25 7.25 11.5858 7.25 12C7.25 14.6234 9.37665 16.75 12 16.75C12.4142 16.75 12.75 16.4142 12.75 16C12.75 15.5858 12.4142 15.25 12 15.25C10.2051 15.25 8.75 13.7949 8.75 12Z"
            fill="#303233" />
    </g>
    <defs>
        <clipPath id="clip0_53_9504">
            <rect width="24" height="24" fill="white" />
        </clipPath>
    </defs>
</svg>
