<svg width="16" height="16" viewBox="0 0 16 16" fill="none" xmlns="http://www.w3.org/2000/svg">
    <path fill-rule="evenodd" clip-rule="evenodd"
        d="M6 7.5V8H5.84615C5.37397 8 5 8.34795 5 8.76738V10.7326C5 11.152 5.37397 11.5 5.84615 11.5H10.1538C10.626 11.5 11 11.152 11 10.7326V8.76738C11 8.34795 10.626 8 10.1538 8H10V7.5C10 6.96957 9.78929 6.46086 9.41421 6.08579C9.03914 5.71071 8.53043 5.5 8 5.5C7.46957 5.5 6.96086 5.71071 6.58579 6.08579C6.21071 6.46086 6 6.96957 6 7.5ZM8 6C7.60218 6 7.22064 6.15804 6.93934 6.43934C6.65804 6.72064 6.5 7.10218 6.5 7.5V8H9.5V7.5C9.5 7.10218 9.34196 6.72064 9.06066 6.43934C8.77936 6.15804 8.39782 6 8 6Z"
        fill="#303233" />
    <path fill-rule="evenodd" clip-rule="evenodd"
        d="M1 4.00001C0.999992 2.89544 1.89543 2 3 2H6.79318C7.24589 2 7.68006 2.17986 8.00015 2.5C8.32024 2.82014 8.75441 3 9.20712 3H13.0001C14.1046 3 15.0001 3.89543 15.0001 5V12C15.0001 13.1046 14.1046 14 13.0001 14H3.00006C1.89549 14 1.00006 13.1046 1.00006 12L1 4.00001ZM2.00015 5C2.00015 4.44772 2.44787 4 3.00015 4H13.0002C13.5524 4 14.0002 4.44772 14.0002 5V12C14.0002 12.5523 13.5524 13 13.0002 13H3.00015C2.44787 13 2.00015 12.5523 2.00015 12V5Z"
        fill="#303233" />
</svg>
