<svg width="24" height="24" viewBox="0 0 24 24" fill="none" xmlns="http://www.w3.org/2000/svg">
    <path
        d="M11.5303 1.46967C11.2374 1.17678 10.7626 1.17678 10.4697 1.46967C10.1768 1.76256 10.1768 2.23744 10.4697 2.53033L12.1893 4.25H9C4.71979 4.25 1.25 7.71979 1.25 12C1.25 15.0927 3.06159 17.7608 5.67818 19.0038C6.05232 19.1815 6.49971 19.0223 6.67745 18.6482C6.85518 18.274 6.69596 17.8267 6.32182 17.6489C4.20852 16.645 2.75 14.4921 2.75 12C2.75 8.54822 5.54822 5.75 9 5.75H12.1893L10.4697 7.46967C10.1768 7.76256 10.1768 8.23744 10.4697 8.53033C10.7626 8.82322 11.2374 8.82322 11.5303 8.53033L14.5303 5.53033C14.8232 5.23744 14.8232 4.76256 14.5303 4.46967L11.5303 1.46967Z"
        fill="#303233" />
    <path
        d="M15 19.75C19.2802 19.75 22.75 16.2802 22.75 12C22.75 11.5858 22.4142 11.25 22 11.25C21.5858 11.25 21.25 11.5858 21.25 12C21.25 15.4518 18.4518 18.25 15 18.25H11.8107L13.5303 16.5303C13.8232 16.2374 13.8232 15.7626 13.5303 15.4697C13.2374 15.1768 12.7626 15.1768 12.4697 15.4697L9.46967 18.4697C9.17678 18.7626 9.17678 19.2374 9.46967 19.5303L12.4697 22.5303C12.7626 22.8232 13.2374 22.8232 13.5303 22.5303C13.8232 22.2374 13.8232 21.7626 13.5303 21.4697L11.8107 19.75H15Z"
        fill="#303233" />
    <path fill-rule="evenodd" clip-rule="evenodd"
        d="M20.5 8.75C22.2949 8.75 23.75 7.29493 23.75 5.5C23.75 3.70507 22.2949 2.25 20.5 2.25C18.7051 2.25 17.25 3.70507 17.25 5.5C17.25 7.29493 18.7051 8.75 20.5 8.75ZM20.88 3.75H19.75V4.5H20.13V7.25H20.88V3.75Z"
        fill="#303233" />
</svg>
