<svg width="16" height="16" viewBox="0 0 16 16" fill="none" xmlns="http://www.w3.org/2000/svg">
    <path fill-rule="evenodd" clip-rule="evenodd"
        d="M6.5 1.5C5.11929 1.5 4 2.61929 4 4V10.5C4 12.7091 5.79086 14.5 8 14.5C10.2091 14.5 12 12.7091 12 10.5V3.5C12 3.22386 12.2239 3 12.5 3C12.7761 3 13 3.22386 13 3.5V10.5C13 13.2614 10.7614 15.5 8 15.5C5.23858 15.5 3 13.2614 3 10.5V4C3 2.067 4.567 0.5 6.5 0.5C8.433 0.5 10 2.067 10 4V10.4556C10 11.5602 9.10457 12.4556 8 12.4556C6.89543 12.4556 6 11.5602 6 10.4556L6 4.5C6 4.22386 6.22386 4 6.5 4C6.77614 4 7 4.22386 7 4.5L7 10.4556C7 11.0079 7.44771 11.4556 8 11.4556C8.55228 11.4556 9 11.0079 9 10.4556V4C9 2.61929 7.88071 1.5 6.5 1.5Z"
        fill="#303233" />
</svg>
