<svg width="24" height="24" viewBox="0 0 24 24" fill="none" xmlns="http://www.w3.org/2000/svg">
    <path
        d="M15.2002 1C15.4585 1 15.7024 1.00262 15.9326 1.00391C15.9549 1.00242 15.9773 1 16 1C16.0266 1 16.053 1.00186 16.0791 1.00391C16.5217 1.00772 16.9113 1.01611 17.252 1.04395C17.814 1.08987 18.3311 1.18827 18.8164 1.43555C19.5689 1.81902 20.181 2.43109 20.5645 3.18359C20.8117 3.6689 20.9101 4.18599 20.9561 4.74805C21.001 5.29843 21 5.97632 21 6.7998V17.2002C21 18.0237 21.001 18.7016 20.9561 19.252C20.9101 19.814 20.8117 20.3311 20.5645 20.8164C20.181 21.5689 19.5689 22.181 18.8164 22.5645C18.3311 22.8117 17.814 22.9101 17.252 22.9561C16.9113 22.9839 16.5217 22.9923 16.0791 22.9961C16.053 22.9981 16.0266 23 16 23C15.9773 23 15.9549 22.9976 15.9326 22.9961C15.7024 22.9974 15.4585 23 15.2002 23H8.79981C8.54115 23 8.29688 22.9974 8.06641 22.9961C8.04442 22.9975 8.02235 23 8 23C7.97303 23 7.94636 22.9982 7.91992 22.9961C7.47773 22.9923 7.08845 22.9839 6.74805 22.9561C6.18599 22.9101 5.6689 22.8117 5.1836 22.5645C4.43109 22.181 3.81902 21.5689 3.43555 20.8164C3.18827 20.3311 3.08988 19.814 3.04395 19.252C2.99898 18.7016 3 18.0237 3 17.2002V6.7998C3 5.97632 2.99898 5.29843 3.04395 4.74805C3.08988 4.18599 3.18827 3.6689 3.43555 3.18359C3.81902 2.43109 4.43109 1.81902 5.1836 1.43555C5.6689 1.18827 6.18599 1.08987 6.74805 1.04395C7.08845 1.01613 7.47773 1.00773 7.91992 1.00391C7.94636 1.00181 7.97303 1 8 1C8.02235 1 8.04442 1.00246 8.06641 1.00391C8.29688 1.00262 8.54115 1 8.79981 1H15.2002ZM9 21H15V13H9V21ZM5.00391 18C5.00704 18.4455 5.01313 18.7953 5.03711 19.0889C5.07293 19.5273 5.13809 19.7518 5.21778 19.9082C5.40951 20.2845 5.71555 20.5905 6.0918 20.7822C6.2482 20.8619 6.47272 20.9271 6.91113 20.9629C6.94015 20.9653 6.96985 20.9657 7 20.9678V18H5.00391ZM17 20.9678C17.0302 20.9657 17.0599 20.9653 17.0889 20.9629C17.5273 20.9271 17.7518 20.8619 17.9082 20.7822C18.2845 20.5905 18.5905 20.2845 18.7822 19.9082C18.8619 19.7518 18.9271 19.5273 18.9629 19.0889C18.9869 18.7953 18.993 18.4455 18.9961 18H17V20.9678ZM17 16H19V13H17V16ZM5 16H7V13H5V16ZM9 11H15V3H9V11ZM17 11H19V8H17V11ZM5 11H7V8H5V11ZM17 6H18.9961C18.993 5.55454 18.9869 5.20469 18.9629 4.91113C18.9271 4.47272 18.8619 4.2482 18.7822 4.0918C18.5905 3.71554 18.2845 3.40951 17.9082 3.21777C17.7518 3.13808 17.5273 3.07293 17.0889 3.03711C17.0598 3.03474 17.0302 3.03333 17 3.03125V6ZM6.91113 3.03711C6.47272 3.07293 6.2482 3.13808 6.0918 3.21777C5.71555 3.40951 5.40951 3.71554 5.21778 4.0918C5.13809 4.2482 5.07293 4.47272 5.03711 4.91113C5.01313 5.20469 5.00704 5.55454 5.00391 6H7V3.03125C6.96982 3.03333 6.94017 3.03474 6.91113 3.03711Z"
        fill="#303233" />
</svg>
