<svg width="24" height="24" viewBox="0 0 24 24" fill="none" xmlns="http://www.w3.org/2000/svg">
    <path fill-rule="evenodd" clip-rule="evenodd"
        d="M2.25 3C2.25 2.58579 2.58579 2.25 3 2.25H21C21.4142 2.25 21.75 2.58579 21.75 3V14C21.75 14.4142 21.4142 14.75 21 14.75C20.5858 14.75 20.25 14.4142 20.25 14V3.75H3.75V17C3.75 18.7949 5.20507 20.25 7 20.25H13C13.4142 20.25 13.75 20.5858 13.75 21C13.75 21.4142 13.4142 21.75 13 21.75H7C4.37665 21.75 2.25 19.6234 2.25 17V3Z"
        fill="#303233" />
    <path
        d="M10.9999 12C12.1044 12 12.9999 11.1046 12.9999 10C12.9999 8.89543 12.1044 8 10.9999 8C9.8953 8 8.99986 8.89543 8.99986 10C8.99986 11.1046 9.8953 12 10.9999 12Z"
        fill="#303233" />
    <path
        d="M14.4027 16C14.7033 16 14.9383 15.735 14.8592 15.4449C14.3963 13.7477 12.8438 12.5 10.9999 12.5C9.15592 12.5 7.60337 13.7477 7.14048 15.4449C7.06138 15.735 7.2963 16 7.59702 16H14.4027Z"
        fill="#303233" />
    <path
        d="M12.8805 11.6472C13.2662 11.2073 13.4999 10.631 13.4999 10C13.4999 9.36905 13.2662 8.79269 12.8805 8.35278C12.7633 8.21912 12.8221 8 12.9999 8C14.1044 8 14.9999 8.89543 14.9999 10C14.9999 11.1046 14.1044 12 12.9999 12C12.8221 12 12.7633 11.7809 12.8805 11.6472Z"
        fill="#303233" />
    <path
        d="M15.9157 16C15.6629 16 15.4527 15.8104 15.3994 15.5633C15.1562 14.4365 14.5251 13.5023 13.661 12.8699C13.5204 12.7669 13.5912 12.5396 13.7623 12.5726C15.2611 12.8618 16.4618 13.9877 16.8592 15.4449C16.9384 15.735 16.7034 16 16.4027 16H15.9157Z"
        fill="#303233" />
    <path fill-rule="evenodd" clip-rule="evenodd"
        d="M16.4697 17.4697C16.7626 17.1768 17.2374 17.1768 17.5303 17.4697L19.5 19.4393L21.4697 17.4697C21.7626 17.1768 22.2374 17.1768 22.5303 17.4697C22.8232 17.7626 22.8232 18.2374 22.5303 18.5303L20.5607 20.5L22.5303 22.4697C22.8232 22.7626 22.8232 23.2374 22.5303 23.5303C22.2374 23.8232 21.7626 23.8232 21.4697 23.5303L19.5 21.5607L17.5303 23.5303C17.2374 23.8232 16.7626 23.8232 16.4697 23.5303C16.1768 23.2374 16.1768 22.7626 16.4697 22.4697L18.4393 20.5L16.4697 18.5303C16.1768 18.2374 16.1768 17.7626 16.4697 17.4697Z"
        fill="#303233" />
</svg>
