<svg width="24" height="24" viewBox="0 0 24 24" fill="none" xmlns="http://www.w3.org/2000/svg">
    <g clip-path="url(#clip0_53_9512)">
        <path fill-rule="evenodd" clip-rule="evenodd"
            d="M1.53033 0.46967C1.23744 0.176777 0.762563 0.176777 0.46967 0.46967C0.176777 0.762563 0.176777 1.23744 0.46967 1.53033L22.4697 23.5303C22.7626 23.8232 23.2374 23.8232 23.5303 23.5303C23.8232 23.2374 23.8232 22.7626 23.5303 22.4697L21.6818 20.6211C21.9452 20.3517 22.1681 20.0424 22.3413 19.7025C22.5676 19.2582 22.662 18.7781 22.7066 18.2315C22.75 17.7006 22.75 17.045 22.75 16.2321V7.76788C22.75 6.95505 22.75 6.29944 22.7066 5.76853C22.662 5.2219 22.5676 4.74176 22.3413 4.29754C21.9817 3.59193 21.4081 3.01825 20.7025 2.65873C20.2582 2.43239 19.7781 2.33803 19.2315 2.29336C18.7006 2.24999 18.0449 2.24999 17.2321 2.25H6.76789C5.95506 2.24999 5.29944 2.24999 4.76853 2.29336C4.33986 2.32839 3.95209 2.39397 3.59046 2.5298L1.53033 0.46967ZM9.21346 8.1528L10.2939 9.23327C10.7898 8.92684 11.3743 8.75 12 8.75C13.7949 8.75 15.25 10.2051 15.25 12C15.25 12.6257 15.0732 13.2102 14.7667 13.7061L15.8472 14.7865C16.4151 14.0038 16.75 13.041 16.75 12C16.75 9.37665 14.6234 7.25 12 7.25C10.959 7.25 9.99619 7.58488 9.21346 8.1528Z"
            fill="#303233" />
        <path
            d="M1.49817 4.67882C1.38355 5.01515 1.32555 5.37457 1.29336 5.76853C1.24999 6.29944 1.24999 6.95505 1.25 7.76788V16.2321C1.24999 17.0449 1.24999 17.7006 1.29336 18.2315C1.33803 18.7781 1.43239 19.2582 1.65873 19.7025C2.01825 20.4081 2.59193 20.9817 3.29754 21.3413C3.74176 21.5676 4.2219 21.662 4.76853 21.7066C5.29944 21.75 5.95505 21.75 6.76788 21.75H17.2321C17.7312 21.75 18.1713 21.75 18.5593 21.74L13.3691 16.5497C12.9356 16.68 12.476 16.75 12 16.75C9.37665 16.75 7.25 14.6234 7.25 12C7.25 11.524 7.32 11.0644 7.45027 10.6309L1.49817 4.67882Z"
            fill="#303233" />
    </g>
    <defs>
        <clipPath id="clip0_53_9512">
            <rect width="24" height="24" fill="white" />
        </clipPath>
    </defs>
</svg>
