<svg width="24" height="24" viewBox="0 0 24 24" fill="none" xmlns="http://www.w3.org/2000/svg">
    <path fill-rule="evenodd" clip-rule="evenodd"
        d="M12.0579 2.87736C14.5611 0.374214 18.6195 0.374213 21.1226 2.87736C23.6258 5.38051 23.6258 9.43891 21.1226 11.9421L19.5925 13.4722C19.202 13.8627 18.5689 13.8627 18.1783 13.4722C17.7878 13.0816 17.7878 12.4485 18.1783 12.0579L19.7084 10.5278C21.4305 8.80575 21.4305 6.01367 19.7084 4.29157C17.9863 2.56948 15.1943 2.56948 13.4722 4.29157L11.9421 5.82167C11.5515 6.2122 10.9184 6.2122 10.5278 5.82167C10.1373 5.43115 10.1373 4.79798 10.5278 4.40746L12.0579 2.87736ZM16.4939 7.50607C16.8844 7.8966 16.8844 8.52976 16.4939 8.92029L8.92031 16.4939C8.52979 16.8844 7.89662 16.8844 7.5061 16.4939C7.11557 16.1034 7.11557 15.4702 7.5061 15.0797L15.0797 7.50607C15.4702 7.11555 16.1034 7.11555 16.4939 7.50607ZM5.82167 10.5278C6.2122 10.9184 6.2122 11.5515 5.82167 11.9421L4.29157 13.4722C2.56948 15.1943 2.56948 17.9863 4.29157 19.7084C6.01367 21.4305 8.80575 21.4305 10.5278 19.7084L12.0579 18.1783C12.4485 17.7878 13.0816 17.7878 13.4722 18.1783C13.8627 18.5689 13.8627 19.202 13.4722 19.5925L11.9421 21.1226C9.43891 23.6258 5.38051 23.6258 2.87736 21.1226C0.374213 18.6195 0.374214 14.5611 2.87736 12.0579L4.40746 10.5278C4.79798 10.1373 5.43115 10.1373 5.82167 10.5278Z"
        fill="#303233" />
</svg>
