<svg width="16" height="16" viewBox="0 0 16 16" fill="none" xmlns="http://www.w3.org/2000/svg">
    <path
        d="M11.3304 1.75H4.66957C4.13542 1.74999 3.68956 1.74998 3.32533 1.77974C2.94545 1.81078 2.58879 1.87789 2.25153 2.04973C1.73408 2.31339 1.31339 2.73408 1.04973 3.25153C0.877889 3.58879 0.810778 3.94545 0.77974 4.32533C0.749982 4.68956 0.74999 5.13541 0.75 5.66955V8.33044C0.74999 8.86458 0.749982 9.31044 0.77974 9.67467C0.810778 10.0546 0.877889 10.4112 1.04973 10.7485C1.31339 11.2659 1.73408 11.6866 2.25153 11.9503C2.58879 12.1221 2.94545 12.1892 3.32533 12.2203C3.68955 12.25 4.13538 12.25 4.66951 12.25H11.3305C11.8646 12.25 12.3105 12.25 12.6747 12.2203C13.0546 12.1892 13.4112 12.1221 13.7485 11.9503C14.2659 11.6866 14.6866 11.2659 14.9503 10.7485C15.1221 10.4112 15.1892 10.0546 15.2203 9.67467C15.25 9.31045 15.25 8.86462 15.25 8.3305V5.66955C15.25 5.13542 15.25 4.68955 15.2203 4.32533C15.1892 3.94545 15.1221 3.58879 14.9503 3.25153C14.6866 2.73408 14.2659 2.31339 13.7485 2.04973C13.4112 1.87789 13.0546 1.81078 12.6747 1.77974C12.3104 1.74998 11.8646 1.74999 11.3304 1.75Z"
        fill="#303233" />
    <path
        d="M5.35187 14.9124C6.15197 14.4876 7.05016 14.25 8.00015 14.25C8.95014 14.25 9.84833 14.4876 10.6484 14.9124C11.0143 15.1067 11.4683 14.9676 11.6626 14.6017C11.8568 14.2359 11.7177 13.7818 11.3519 13.5876C10.3434 13.0521 9.20458 12.75 8.00015 12.75C6.79572 12.75 5.65692 13.0521 4.64843 13.5876C4.28259 13.7818 4.14349 14.2359 4.33774 14.6017C4.53199 14.9676 4.98603 15.1067 5.35187 14.9124Z"
        fill="#303233" />
</svg>
