<svg width="16" height="16" viewBox="0 0 16 16" fill="none" xmlns="http://www.w3.org/2000/svg">
    <path
        d="M2.2591 2.2591C2.425 2.0932 2.65 2 2.88462 2H9.11539C9.35 2 9.575 2.0932 9.7409 2.2591C9.9068 2.425 10 2.65 10 2.88462V3.63575C10 3.91189 10.2239 4.13575 10.5 4.13575C10.7761 4.13575 11 3.91189 11 3.63575V2.88462C11 2.38478 10.8014 1.90543 10.448 1.55199C10.0946 1.19856 9.61522 1 9.11539 1H2.88462C2.38478 1 1.90542 1.19856 1.55199 1.55199C1.19856 1.90542 1 2.38478 1 2.88462V9.11539C1 9.61522 1.19856 10.0946 1.55199 10.448C1.90543 10.8014 2.38478 11 2.88462 11H3.57692C3.85307 11 4.07692 10.7761 4.07692 10.5C4.07692 10.2239 3.85307 10 3.57692 10H2.88462C2.65 10 2.425 9.9068 2.2591 9.7409C2.0932 9.575 2 9.35 2 9.11539V2.88462C2 2.65 2.0932 2.425 2.2591 2.2591Z"
        fill="#303233" />
    <path fill-rule="evenodd" clip-rule="evenodd"
        d="M6.88462 5C5.84377 5 5 5.84377 5 6.88462V13.1154C5 14.1562 5.84377 15 6.88462 15H13.1154C14.1562 15 15 14.1562 15 13.1154V6.88462C15 5.84377 14.1562 5 13.1154 5H6.88462ZM6 6.88462C6 6.39606 6.39606 6 6.88462 6H13.1154C13.6039 6 14 6.39606 14 6.88462V13.1154C14 13.6039 13.6039 14 13.1154 14H6.88462C6.39606 14 6 13.6039 6 13.1154V6.88462Z"
        fill="#303233" />
</svg>
