<svg width="16" height="16" viewBox="0 0 16 16" fill="none" xmlns="http://www.w3.org/2000/svg">
    <path
        d="M6.5 9.75C8.29493 9.75 9.75 8.29493 9.75 6.5C9.75 4.70507 8.29493 3.25 6.5 3.25C4.70507 3.25 3.25 4.70507 3.25 6.5C3.25 8.29493 4.70507 9.75 6.5 9.75Z"
        fill="#303233" />
    <path fill-rule="evenodd" clip-rule="evenodd"
        d="M1.25 6.5C1.25 3.6005 3.6005 1.25 6.5 1.25C9.3995 1.25 11.75 3.6005 11.75 6.5C11.75 7.67925 11.3612 8.76769 10.7048 9.64413L14.5303 13.4697C14.8232 13.7626 14.8232 14.2374 14.5303 14.5303C14.2374 14.8232 13.7625 14.8232 13.4696 14.5303L9.64413 10.7048C8.76769 11.3612 7.67925 11.75 6.5 11.75C3.6005 11.75 1.25 9.3995 1.25 6.5ZM6.5 2.75C4.42893 2.75 2.75 4.42893 2.75 6.5C2.75 8.57107 4.42893 10.25 6.5 10.25C8.57107 10.25 10.25 8.57107 10.25 6.5C10.25 4.42893 8.57107 2.75 6.5 2.75Z"
        fill="#303233" />
</svg>
