<svg width="24" height="24" viewBox="0 0 24 24" fill="none" xmlns="http://www.w3.org/2000/svg">
    <path fill-rule="evenodd" clip-rule="evenodd"
        d="M10 1C5.02944 1 1 5.02944 1 10C1 11.1953 1.23355 12.3385 1.65844 13.3847C1.692 13.4674 1.7124 13.5178 1.72656 13.5546L1.72095 13.5905C1.7165 13.6182 1.71119 13.6501 1.70437 13.691L1.17278 16.8805C1.14918 17.0218 1.1217 17.1863 1.11083 17.3303C1.09891 17.4882 1.09369 17.7501 1.2132 18.0287C1.35929 18.3693 1.63071 18.6407 1.97131 18.7868C2.24995 18.9063 2.51177 18.9011 2.66973 18.8892C2.8137 18.8783 2.97818 18.8508 3.11945 18.8272L6.30898 18.2956C6.34992 18.2888 6.38181 18.2835 6.40947 18.2791L6.44537 18.2734C6.48222 18.2876 6.53263 18.308 6.61527 18.3416C7.56497 18.7273 8.59464 18.9553 9.67063 18.9941C10.7929 21.3622 13.2051 23 15.9998 23C16.9291 23 17.8184 22.8184 18.6324 22.4878L18.694 22.4629L18.727 22.4683L21.1214 22.8674C21.2246 22.8847 21.3588 22.9071 21.4787 22.9162C21.6122 22.9262 21.8562 22.9329 22.1199 22.8199C22.4343 22.685 22.6848 22.4345 22.8197 22.1201C22.9328 21.8564 22.9261 21.6124 22.916 21.4789C22.9069 21.3591 22.8845 21.2249 22.8672 21.1217L22.4681 18.7272L22.4627 18.6942L22.4876 18.6326C22.8182 17.8186 22.9998 16.9293 22.9998 16C22.9998 13.2053 21.3621 10.7932 18.9941 9.67091C18.8209 4.8528 14.8604 1 10 1ZM18.8072 11.8619C18.0759 15.3384 15.3382 18.076 11.8617 18.8072C12.7612 20.1307 14.279 21 15.9998 21C16.6667 21 17.3008 20.87 17.8799 20.6348L17.9095 20.6227C18.0041 20.5839 18.1509 20.5237 18.2913 20.4922C18.4157 20.4643 18.528 20.4519 18.6556 20.4519C18.7988 20.4518 18.9419 20.4762 19.0301 20.4912L19.0558 20.4955L20.7833 20.7834L20.4953 19.056L20.491 19.0303C20.476 18.9421 20.4517 18.799 20.4517 18.6558C20.4517 18.5282 20.4641 18.4159 20.492 18.2915C20.5235 18.1511 20.5837 18.0043 20.6225 17.9097L20.6346 17.8801C20.8698 17.301 20.9998 16.6669 20.9998 16C20.9998 14.2792 20.1305 12.7615 18.8072 11.8619ZM3 10C3 6.13401 6.13401 3 10 3C13.866 3 17 6.13401 17 10C17 13.866 13.866 17 10 17C9.06705 17 8.17908 16.818 7.36783 16.4885L7.32756 16.4721C7.19656 16.4186 7.02919 16.3502 6.8718 16.3149C6.72978 16.283 6.60447 16.2692 6.45891 16.2691C6.29818 16.2691 6.13626 16.2965 6.01481 16.317L5.98018 16.3228L3.21655 16.7834L3.67716 14.0198L3.68298 13.9852C3.70351 13.8637 3.73087 13.7018 3.73085 13.5411C3.73083 13.3955 3.71695 13.2702 3.68512 13.1282C3.64984 12.9708 3.58143 12.8035 3.52788 12.6725L3.51145 12.6322C3.18198 11.8209 3 10.933 3 10Z"
        fill="#303233" />
</svg>
