<svg width="16" height="16" viewBox="0 0 16 16" fill="none" xmlns="http://www.w3.org/2000/svg">
    <path
        d="M8 2C6.34315 2 5 3.34315 5 5C5 6.65685 6.34315 8 8 8C9.65685 8 11 6.65685 11 5C11 3.34315 9.65685 2 8 2Z"
        fill="#303233" />
    <path
        d="M7.9996 9C5.33816 9 3.11925 10.8899 2.60961 13.4005C2.57976 13.5476 2.61753 13.7003 2.71249 13.8164C2.80745 13.9326 2.94957 14 3.09961 14H12.8996C13.0496 14 13.1917 13.9326 13.2867 13.8164C13.3817 13.7003 13.4194 13.5476 13.3896 13.4005C12.8799 10.8899 10.661 9 7.9996 9Z"
        fill="#303233" />
</svg>
