<svg width="16" height="16" viewBox="0 0 16 16" fill="none" xmlns="http://www.w3.org/2000/svg">
    <path fill-rule="evenodd" clip-rule="evenodd"
        d="M1.07418 3.26394C1.35547 2.92376 1.77914 2.73456 2.21956 2.75099C2.57992 2.76443 2.86744 2.95186 3.05704 3.09164C3.25515 3.23769 3.48767 3.4437 3.74809 3.67441C3.75625 3.68164 3.76443 3.68889 3.77264 3.69617L7.10043 6.64409C7.1066 6.64955 7.11276 6.65501 7.11892 6.66046C7.25796 6.7836 7.39532 6.90524 7.50247 7.01781C7.61959 7.14085 7.75381 7.30607 7.83294 7.53068C7.93996 7.83444 7.93996 8.16556 7.83294 8.46932C7.75381 8.69393 7.61959 8.85915 7.50247 8.9822C7.39532 9.09476 7.25797 9.2164 7.11893 9.33953C7.11277 9.34499 7.1066 9.35045 7.10043 9.35592L3.74809 12.3256C3.48768 12.5563 3.25516 12.7623 3.05704 12.9084C2.86744 13.0481 2.57992 13.2356 2.21956 13.249C1.77914 13.2654 1.35547 13.0762 1.07418 12.7361C0.84376 12.4574 0.793207 12.1172 0.772063 11.883C0.74996 11.6382 0.74998 11.3279 0.750001 10.9808L0.750003 5.05208C0.750003 5.04108 0.750002 5.03011 0.750001 5.01918C0.74998 4.67207 0.74996 4.36184 0.772063 4.11702C0.793207 3.88281 0.84376 3.54261 1.07418 3.26394ZM2.25813 4.36948C2.25046 4.5294 2.25 4.7443 2.25 5.05208V10.9479C2.25 11.2557 2.25046 11.4706 2.25813 11.6305C2.38363 11.5298 2.54579 11.3867 2.778 11.181L6.10579 8.23311C6.22757 8.12523 6.3073 8.05413 6.36383 8C6.3073 7.94587 6.22757 7.87477 6.10579 7.76689L2.778 4.81897C2.54579 4.61326 2.38363 4.47024 2.25813 4.36948ZM8.40751 3.26394C8.6888 2.92376 9.11248 2.73456 9.55289 2.75099C9.91325 2.76443 10.2008 2.95186 10.3904 3.09164C10.5885 3.23769 10.821 3.4437 11.0814 3.67441L14.4523 6.66047C14.5913 6.7836 14.7287 6.90524 14.8358 7.01781C14.9529 7.14085 15.0871 7.30607 15.1663 7.53068C15.2733 7.83444 15.2733 8.16556 15.1663 8.46932C15.0871 8.69393 14.9529 8.85915 14.8358 8.9822C14.7287 9.09476 14.5913 9.2164 14.4523 9.33953L11.0815 12.3256C10.821 12.5563 10.5885 12.7623 10.3904 12.9084C10.2008 13.0481 9.91325 13.2356 9.55289 13.249C9.11248 13.2654 8.68881 13.0762 8.40751 12.7361C8.17709 12.4574 8.12654 12.1172 8.1054 11.883C8.08329 11.6382 8.08331 11.3279 8.08333 10.9808V5.01916C8.08331 4.67206 8.08329 4.36183 8.1054 4.11702C8.12654 3.88281 8.17709 3.54261 8.40751 3.26394ZM9.59146 4.36948C9.5838 4.5294 9.58334 4.7443 9.58334 5.05208V10.9479C9.58334 11.2557 9.5838 11.4706 9.59146 11.6305C9.71697 11.5298 9.87912 11.3867 10.1113 11.181L13.4391 8.23311C13.5609 8.12523 13.6406 8.05413 13.6972 8C13.6406 7.94587 13.5609 7.87477 13.4391 7.76689L10.1113 4.81897C9.87912 4.61326 9.71697 4.47024 9.59146 4.36948Z"
        fill="#303233" />
</svg>
