<svg width="24" height="24" viewBox="0 0 24 24" fill="none" xmlns="http://www.w3.org/2000/svg">
    <path fill-rule="evenodd" clip-rule="evenodd"
        d="M15.2321 1.25H8.7679C7.95506 1.24999 7.29944 1.24999 6.76853 1.29336C6.2219 1.33803 5.74175 1.43239 5.29754 1.65873C4.59193 2.01825 4.01825 2.59193 3.65873 3.29754C3.43239 3.74175 3.33803 4.2219 3.29336 4.76853C3.24999 5.29944 3.24999 5.95505 3.25 6.76789V17.2321C3.24999 18.0449 3.24999 18.7006 3.29336 19.2315C3.33803 19.7781 3.43239 20.2582 3.65873 20.7025C4.01825 21.4081 4.59193 21.9817 5.29754 22.3413C5.74175 22.5676 6.2219 22.662 6.76853 22.7066C7.29944 22.75 7.95505 22.75 8.76788 22.75H15.2321C16.045 22.75 16.7006 22.75 17.2315 22.7066C17.7781 22.662 18.2582 22.5676 18.7025 22.3413C19.4081 21.9817 19.9817 21.4081 20.3413 20.7025C20.5676 20.2582 20.662 19.7781 20.7066 19.2315C20.75 18.7006 20.75 18.045 20.75 17.2321V6.76788C20.75 5.95505 20.75 5.29944 20.7066 4.76853C20.662 4.2219 20.5676 3.74175 20.3413 3.29754C19.9817 2.59193 19.4081 2.01825 18.7025 1.65873C18.2582 1.43239 17.7781 1.33803 17.2315 1.29336C16.7006 1.24999 16.0449 1.24999 15.2321 1.25ZM11.212 9.45658C11.5171 9.27729 11.8758 9.21175 12.2245 9.27157C12.5733 9.33139 12.8896 9.51271 13.1175 9.78341C13.3454 10.0541 13.4701 10.3967 13.4695 10.7506V10.7517C13.4695 11.103 13.1961 11.4694 12.6794 11.8139C12.4438 11.9709 12.2029 12.0919 12.0179 12.1741C11.9265 12.2148 11.8514 12.2448 11.8008 12.264C11.7756 12.2736 11.7567 12.2805 11.7452 12.2846L11.7336 12.2886L11.7325 12.289C11.3405 12.4206 11.1289 12.8447 11.2597 13.2372C11.3907 13.6301 11.8164 13.8422 12.2093 13.7112L12.2105 13.7108L12.2134 13.7098L12.2217 13.707L12.2477 13.6979C12.2691 13.6903 12.2985 13.6796 12.3348 13.6657C12.4073 13.6381 12.5078 13.5979 12.6271 13.5448C12.8637 13.4397 13.1849 13.2796 13.5114 13.062C14.1187 12.6571 14.9693 11.8995 14.9695 10.7521C14.9704 10.0443 14.7209 9.35894 14.265 8.81741C13.809 8.27571 13.176 7.91287 12.4781 7.79316C11.7802 7.67346 11.0625 7.8046 10.452 8.16338C9.84156 8.52215 9.37777 9.0854 9.1428 9.75336C9.00535 10.1441 9.21068 10.5723 9.60142 10.7097C9.99216 10.8472 10.4203 10.6419 10.5578 10.2511C10.6752 9.91733 10.907 9.63586 11.212 9.45658ZM12.0003 15.25C11.5861 15.25 11.2503 15.5858 11.2503 16C11.2503 16.4142 11.5861 16.75 12.0003 16.75H12.0103C12.4245 16.75 12.7603 16.4142 12.7603 16C12.7603 15.5858 12.4245 15.25 12.0103 15.25H12.0003Z"
        fill="#303233" />
</svg>
