<svg width="16" height="16" viewBox="0 0 16 16" fill="none" xmlns="http://www.w3.org/2000/svg">
    <g clip-path="url(#clip0_53_10159)">
        <path fill-rule="evenodd" clip-rule="evenodd"
            d="M15.25 8C15.25 12.0041 12.0041 15.25 8 15.25C3.99594 15.25 0.75 12.0041 0.75 8C0.75 3.99594 3.99594 0.75 8 0.75C12.0041 0.75 15.25 3.99594 15.25 8ZM8.53033 4.96967C8.82322 5.26256 8.82322 5.73744 8.53033 6.03033L7.31066 7.25H10.5C10.9142 7.25 11.25 7.58579 11.25 8C11.25 8.41421 10.9142 8.75 10.5 8.75H7.31066L8.53033 9.96967C8.82322 10.2626 8.82322 10.7374 8.53033 11.0303C8.23744 11.3232 7.76256 11.3232 7.46967 11.0303L4.96967 8.53033C4.89776 8.45842 4.84351 8.37555 4.80691 8.28709C4.77024 8.19866 4.75 8.10169 4.75 8C4.75 7.80806 4.82322 7.61612 4.96967 7.46967L7.46967 4.96967C7.76256 4.67678 8.23744 4.67678 8.53033 4.96967Z"
            fill="#303233" />
    </g>
    <defs>
        <clipPath id="clip0_53_10159">
            <rect width="16" height="16" fill="white" />
        </clipPath>
    </defs>
</svg>
