<svg width="24" height="24" viewBox="0 0 24 24" fill="none" xmlns="http://www.w3.org/2000/svg">
    <path
        d="M12.5303 3.46967C12.2374 3.17678 11.7626 3.17678 11.4697 3.46967L7.46967 7.46967C7.17678 7.76256 7.17678 8.23744 7.46967 8.53033C7.76256 8.82322 8.23744 8.82322 8.53033 8.53033L12 5.06066L15.4697 8.53033C15.7626 8.82322 16.2374 8.82322 16.5303 8.53033C16.8232 8.23744 16.8232 7.76256 16.5303 7.46967L12.5303 3.46967Z"
        fill="#303233" />
    <path
        d="M8.53033 15.4697C8.23744 15.1768 7.76256 15.1768 7.46967 15.4697C7.17678 15.7626 7.17678 16.2374 7.46967 16.5303L11.4697 20.5303C11.7626 20.8232 12.2374 20.8232 12.5303 20.5303L16.5303 16.5303C16.8232 16.2374 16.8232 15.7626 16.5303 15.4697C16.2374 15.1768 15.7626 15.1768 15.4697 15.4697L12 18.9393L8.53033 15.4697Z"
        fill="#303233" />
</svg>
