<svg width="24" height="24" viewBox="0 0 24 24" fill="none" xmlns="http://www.w3.org/2000/svg">
    <path fill-rule="evenodd" clip-rule="evenodd"
        d="M12.6241 1.58397C12.485 1.37533 12.2508 1.25 12 1.25C11.7493 1.25 11.5151 1.37533 11.376 1.58397L10.2081 3.3359C9.97829 3.68055 9.51264 3.77368 9.16799 3.54391L7.41607 2.37596C7.15825 2.20409 6.82128 2.20845 6.568 2.38694C6.31473 2.56543 6.19728 2.8813 6.27243 3.1819L7.27243 7.1819C7.28087 7.21566 7.29153 7.2484 7.30422 7.27999C7.26851 7.51479 7.25 7.75523 7.25 8C7.25 10.6234 9.37665 12.75 12 12.75C14.6234 12.75 16.75 10.6234 16.75 8C16.75 7.75528 16.7315 7.51489 16.6958 7.28014C16.7085 7.24851 16.7192 7.21572 16.7276 7.1819L17.7276 3.1819C17.8028 2.8813 17.6854 2.56543 17.4321 2.38694C17.1788 2.20845 16.8418 2.20409 16.584 2.37596L14.8321 3.54391C14.4874 3.77368 14.0218 3.68055 13.792 3.3359L12.6241 1.58397ZM8.75947 7.75H15.2405C15.2468 7.83251 15.25 7.91588 15.25 8C15.25 9.79493 13.7949 11.25 12 11.25C10.2051 11.25 8.75 9.79493 8.75 8C8.75 7.91588 8.7532 7.83251 8.75947 7.75Z"
        fill="#303233" />
    <path
        d="M12.0001 15.75C8.62292 15.75 5.78333 18.0598 4.97846 21.1869C4.87522 21.5881 4.46633 21.8296 4.06519 21.7263C3.66405 21.6231 3.42256 21.2142 3.52581 20.8131C4.49711 17.0393 7.92192 14.25 12.0001 14.25C16.0783 14.25 19.5031 17.0393 20.4744 20.8131C20.5776 21.2142 20.3361 21.6231 19.935 21.7263C19.5339 21.8296 19.125 21.5881 19.0217 21.1869C18.2169 18.0598 15.3773 15.75 12.0001 15.75Z"
        fill="#303233" />
</svg>
