<svg width="24" height="24" viewBox="0 0 24 24" fill="none" xmlns="http://www.w3.org/2000/svg">
    <path fill-rule="evenodd" clip-rule="evenodd"
        d="M12 3.25C17.407 3.25 21.75 7.19299 21.75 12C21.75 16.806 17.408 20.749 12.001 20.75C10.657 20.754 9.32503 20.503 8.07803 20.012C7.81203 19.907 7.52303 19.86 7.24203 19.916L3.14704 20.735C2.88004 20.789 2.60504 20.693 2.42904 20.486C2.25204 20.278 2.20204 19.992 2.29804 19.737L3.31904 17.013C3.47804 16.59 3.38304 16.123 3.17304 15.722C2.58104 14.591 2.25004 13.33 2.25004 12C2.25004 7.19299 6.59303 3.25 12 3.25ZM8 11.25C7.58579 11.25 7.25 11.5858 7.25 12C7.25 12.4142 7.58579 12.75 8 12.75H16C16.4142 12.75 16.75 12.4142 16.75 12C16.75 11.5858 16.4142 11.25 16 11.25H8Z"
        fill="#303233" />
</svg>
