<svg width="24" height="24" viewBox="0 0 24 24" fill="none" xmlns="http://www.w3.org/2000/svg">
    <path
        d="M17.2929 1.29289C17.6834 0.902369 18.3166 0.902369 18.7071 1.29289L22.7071 5.29289C23.0976 5.68342 23.0976 6.31658 22.7071 6.70711C22.3166 7.09763 21.6834 7.09763 21.2929 6.70711L19 4.41421V10C19 10.5523 18.5523 11 18 11C17.4477 11 17 10.5523 17 10V4.41421L14.7071 6.70711C14.3166 7.09763 13.6834 7.09763 13.2929 6.70711C12.9024 6.31658 12.9024 5.68342 13.2929 5.29289L17.2929 1.29289Z"
        fill="#303233" />
    <path
        d="M21 8.82917C21.1328 8.876 21.2683 8.91321 21.4052 8.94078C21.7903 9.89763 22 10.9283 22 12C22 16.936 17.554 20.999 12.002 21C10.625 21.005 9.263 20.747 7.986 20.245C7.765 20.157 7.525 20.115 7.291 20.162L3.196 20.981C2.84 21.052 2.473 20.924 2.238 20.648C2.003 20.371 1.936 19.989 2.064 19.649L3.085 16.926C3.219 16.569 3.129 16.176 2.952 15.838C2.341 14.672 2 13.371 2 12C2 7.064 6.447 3 12 3C12.2468 3 12.4914 3.00803 12.7336 3.0238L11.8787 3.87868C10.7071 5.05025 10.7071 6.94975 11.8787 8.12132C12.7228 8.9654 13.9447 9.20135 15 8.82917V10C15 11.6569 16.3431 13 18 13C19.6569 13 21 11.6569 21 10V8.82917Z"
        fill="#303233" />
</svg>
