<svg width="16" height="16" viewBox="0 0 16 16" fill="none" xmlns="http://www.w3.org/2000/svg">
    <path fill-rule="evenodd" clip-rule="evenodd"
        d="M4.6786 2H11.3214C11.8633 2 12.3004 1.99999 12.6543 2.02891C13.0187 2.05868 13.3388 2.12159 13.635 2.27248C14.1054 2.51217 14.4878 2.89462 14.7275 3.36502C14.8784 3.66117 14.9413 3.98126 14.9711 4.34569C15 4.69961 15 5.13672 15 5.67858V10.3215C15 10.8633 15 11.3004 14.9711 11.6543C14.9413 12.0187 14.8784 12.3388 14.7275 12.635C14.4878 13.1054 14.1054 13.4878 13.635 13.7275C13.3388 13.8784 13.0187 13.9413 12.6543 13.9711C12.3004 14 11.8633 14 11.3214 14H4.67853C4.13667 14 3.69961 14 3.34569 13.9711C2.98126 13.9413 2.66117 13.8784 2.36502 13.7275C1.89462 13.4878 1.51217 13.1054 1.27248 12.635C1.12159 12.3388 1.05868 12.0187 1.02891 11.6543C0.999992 11.3004 0.999995 10.8633 1 10.3214V5.67859C0.999995 5.1367 0.999992 4.69963 1.02891 4.34569C1.05868 3.98126 1.12159 3.66117 1.27248 3.36502C1.51217 2.89462 1.89462 2.51217 2.36502 2.27248C2.66117 2.12159 2.98126 2.05868 3.34569 2.02891C3.69963 1.99999 4.1367 2 4.6786 2ZM10.5 8.5C10.5 8.22386 10.7239 8 11 8H12C12.2761 8 12.5 8.22386 12.5 8.5C12.5 8.77614 12.2761 9 12 9H11C10.7239 9 10.5 8.77614 10.5 8.5ZM3.5 11C3.5 10.7239 3.72386 10.5 4 10.5H5C5.27614 10.5 5.5 10.7239 5.5 11C5.5 11.2761 5.27614 11.5 5 11.5H4C3.72386 11.5 3.5 11.2761 3.5 11ZM7.5 10.5C7.22386 10.5 7 10.7239 7 11C7 11.2761 7.22386 11.5 7.5 11.5H12C12.2761 11.5 12.5 11.2761 12.5 11C12.5 10.7239 12.2761 10.5 12 10.5H7.5ZM3.5 8.5C3.5 8.22386 3.72386 8 4 8H8.5C8.77614 8 9 8.22386 9 8.5C9 8.77614 8.77614 9 8.5 9H4C3.72386 9 3.5 8.77614 3.5 8.5Z"
        fill="#303233" />
</svg>
