<svg width="16" height="16" viewBox="0 0 16 16" fill="none" xmlns="http://www.w3.org/2000/svg">
    <path fill-rule="evenodd" clip-rule="evenodd"
        d="M6.99645 1.14645C7.19171 0.951184 7.50829 0.951184 7.70355 1.14645L9.65355 3.09645C9.84881 3.29171 9.84881 3.60829 9.65355 3.80355L7.70355 5.75355C7.50829 5.94882 7.19171 5.94882 6.99645 5.75355C6.80118 5.55829 6.80118 5.24171 6.99645 5.04645L8.09289 3.95H6.05C3.81325 3.95 2 5.76325 2 8C2 9.61485 2.94509 11.01 4.31455 11.6605C4.56397 11.779 4.67012 12.0773 4.55163 12.3267C4.43314 12.5761 4.13488 12.6823 3.88545 12.5638C2.18047 11.7538 1 10.0153 1 8C1 5.21096 3.26096 2.95 6.05 2.95H8.09289L6.99645 1.85355C6.80118 1.65829 6.80118 1.34171 6.99645 1.14645ZM11.4484 3.67331C11.5669 3.42389 11.8651 3.31774 12.1145 3.43623C13.8195 4.24618 15 5.98473 15 8C15 10.789 12.739 13.05 9.95 13.05H7.90711L9.00355 14.1464C9.19882 14.3417 9.19882 14.6583 9.00355 14.8536C8.80829 15.0488 8.49171 15.0488 8.29645 14.8536L6.34645 12.9036C6.15118 12.7083 6.15118 12.3917 6.34645 12.1964L8.29645 10.2464C8.49171 10.0512 8.80829 10.0512 9.00355 10.2464C9.19882 10.4417 9.19882 10.7583 9.00355 10.9536L7.90711 12.05H9.95C12.1868 12.05 14 10.2368 14 8C14 6.38515 13.0549 4.99005 11.6855 4.33949C11.436 4.221 11.3299 3.92274 11.4484 3.67331Z"
        fill="#303233" />
</svg>
