<svg width="24" height="24" viewBox="0 0 24 24" fill="none" xmlns="http://www.w3.org/2000/svg">
    <path
        d="M6.7587 4H12.2413C13.0463 3.99999 13.7106 3.99998 14.2518 4.04419C14.8139 4.09012 15.3306 4.18868 15.816 4.43598C16.5686 4.81947 17.1805 5.43139 17.564 6.18404C17.8113 6.66937 17.9099 7.18608 17.9558 7.74818C17.9968 8.25013 17.9998 8.85803 18 9.5858L19.9536 7.63221C20.1447 7.44104 20.3326 7.25305 20.4973 7.11519C20.6442 6.99217 20.9537 6.74547 21.3823 6.71173C21.861 6.67406 22.3288 6.86782 22.6406 7.23294C22.9198 7.55988 22.9642 7.95314 22.9811 8.14403C23.0001 8.35797 23 8.6237 23 8.89404L23 12C23 12.5523 22.5523 13 22 13C21.4477 13 21 12.5523 21 12V9.41422L17.7071 12.7071C17.4211 12.9931 16.991 13.0787 16.6173 12.9239C16.2436 12.7691 16 12.4045 16 12V9.8C16 8.94342 15.9992 8.36113 15.9624 7.91104C15.9266 7.47262 15.8617 7.24842 15.782 7.09202C15.5903 6.7157 15.2843 6.40973 14.908 6.21799C14.7516 6.1383 14.5274 6.07337 14.089 6.03755C13.6389 6.00078 13.0566 6 12.2 6H6.8C5.94342 6 5.36113 6.00078 4.91104 6.03755C4.47262 6.07337 4.24842 6.1383 4.09202 6.21799C3.7157 6.40973 3.40973 6.7157 3.21799 7.09202C3.1383 7.24842 3.07337 7.47262 3.03755 7.91104C3.00078 8.36113 3 8.94342 3 9.8V14.2C3 15.0566 3.00078 15.6389 3.03755 16.089C3.07337 16.5274 3.1383 16.7516 3.21799 16.908C3.40973 17.2843 3.7157 17.5903 4.09202 17.782C4.24842 17.8617 4.47262 17.9266 4.91104 17.9624C5.36113 17.9992 5.94342 18 6.8 18H11C11.5523 18 12 18.4477 12 19C12 19.5523 11.5523 20 11 20H6.75873C5.95377 20 5.28937 20 4.74818 19.9558C4.18608 19.9099 3.66937 19.8113 3.18404 19.564C2.43139 19.1805 1.81947 18.5686 1.43598 17.816C1.18868 17.3306 1.09012 16.8139 1.04419 16.2518C0.999978 15.7106 0.999988 15.0463 1 14.2413V9.7587C0.999988 8.95374 0.999978 8.28937 1.04419 7.74818C1.09012 7.18608 1.18868 6.66937 1.43598 6.18404C1.81947 5.43139 2.43139 4.81947 3.18404 4.43598C3.66937 4.18868 4.18608 4.09012 4.74818 4.04419C5.28937 3.99998 5.95374 3.99999 6.7587 4Z"
        fill="#303233" />
    <path fill-rule="evenodd" clip-rule="evenodd"
        d="M14 19C14 16.2386 16.2386 14 19 14C21.7614 14 24 16.2386 24 19C24 21.7614 21.7614 24 19 24C16.2386 24 14 21.7614 14 19ZM19 16C17.3431 16 16 17.3431 16 19C16 19.4632 16.105 19.9018 16.2924 20.2935L20.2935 16.2924C19.9018 16.105 19.4632 16 19 16ZM21.7077 17.7066L17.7066 21.7077C18.0983 21.8951 18.5369 22 19 22C20.6569 22 22 20.6569 22 19C22 18.5369 21.8951 18.0983 21.7077 17.7066Z"
        fill="#303233" />
</svg>
