<svg width="24" height="24" viewBox="0 0 24 24" fill="none" xmlns="http://www.w3.org/2000/svg">
    <path
        d="M1.75 12C1.75 6.89137 5.89137 2.75 11 2.75C16.1086 2.75 20.25 6.89137 20.25 12C20.25 12.5203 20.2071 13.03 20.1248 13.5259C20.0571 13.9346 20.3334 14.3208 20.742 14.3886C21.1506 14.4564 21.5368 14.18 21.6046 13.7714C21.7003 13.1947 21.75 12.6029 21.75 12C21.75 6.06294 16.9371 1.25 11 1.25C5.06294 1.25 0.25 6.06294 0.25 12C0.25 17.9371 5.06294 22.75 11 22.75C12.1223 22.75 13.2058 22.5778 14.2247 22.2577C14.6199 22.1336 14.8397 21.7126 14.7155 21.3175C14.5914 20.9223 14.1704 20.7025 13.7753 20.8267C12.9001 21.1015 11.9681 21.25 11 21.25C5.89137 21.25 1.75 17.1086 1.75 12Z"
        fill="#303233" />
    <path
        d="M11 5.25C11.4142 5.25 11.75 5.58579 11.75 6V11.5986L14.416 13.376C14.7607 13.6057 14.8538 14.0714 14.624 14.416C14.3943 14.7607 13.9286 14.8538 13.584 14.624L10.584 12.624C10.3753 12.4849 10.25 12.2508 10.25 12V6C10.25 5.58579 10.5858 5.25 11 5.25Z"
        fill="#303233" />
    <path
        d="M17.6646 15.8292C17.9187 15.7021 18.2227 15.7296 18.45 15.9L22.45 18.9C22.6389 19.0416 22.75 19.2639 22.75 19.5C22.75 19.7361 22.6389 19.9584 22.45 20.1L18.45 23.1C18.2227 23.2705 17.9187 23.2979 17.6646 23.1708C17.4105 23.0438 17.25 22.7841 17.25 22.5V16.5C17.25 16.2159 17.4105 15.9562 17.6646 15.8292Z"
        fill="#303233" />
</svg>
