<svg width="16" height="16" viewBox="0 0 16 16" fill="none" xmlns="http://www.w3.org/2000/svg">
    <path fill-rule="evenodd" clip-rule="evenodd"
        d="M9.51599 0.5H6.48401C6.26469 0.499994 6.07543 0.499989 5.91881 0.510676C5.75389 0.521928 5.58894 0.54668 5.42598 0.614182C5.05843 0.766423 4.76642 1.05843 4.61418 1.42598C4.54668 1.58894 4.52193 1.7539 4.51068 1.91881C4.5088 1.94633 4.50725 1.97486 4.50597 2.00438C4.2775 2.01104 4.08879 2.02769 3.91641 2.06907C3.00229 2.28853 2.28856 3.00226 2.0691 3.91638C1.99977 4.20518 1.99987 4.53984 2.00001 5.03053V11.9695C1.99987 12.4601 1.99977 12.7948 2.0691 13.0836C2.28856 13.9977 3.00229 14.7115 3.91641 14.9309C4.20521 15.0003 4.53987 15.0002 5.03055 15H10.9695C11.4602 15.0002 11.7948 15.0003 12.0836 14.9309C12.9978 14.7115 13.7115 13.9977 13.931 13.0836C14.0003 12.7948 14.0002 12.4601 14 11.9695V5.03052C14.0002 4.53984 14.0003 4.20518 13.931 3.91638C13.7115 3.00226 12.9978 2.28853 12.0836 2.06907C11.9113 2.02769 11.7225 2.01104 11.494 2.00438C11.4928 1.97486 11.4912 1.94633 11.4893 1.91881C11.4781 1.7539 11.4533 1.58894 11.3858 1.42598C11.2336 1.05843 10.9416 0.766422 10.574 0.614182C10.4111 0.54668 10.2461 0.521928 10.0812 0.510676C9.92457 0.499989 9.73531 0.499994 9.51599 0.5ZM5.80866 1.53806C5.82947 1.52944 5.87288 1.51613 5.98688 1.50836C6.10537 1.50027 6.26019 1.5 6.5 1.5H9.5C9.73981 1.5 9.89463 1.50027 10.0131 1.50836C10.1271 1.51613 10.1705 1.52944 10.1913 1.53806C10.3139 1.58881 10.4112 1.68615 10.4619 1.80866C10.4706 1.82947 10.4839 1.87288 10.4916 1.98688C10.4997 2.10537 10.5 2.26019 10.5 2.5C10.5 2.73981 10.4997 2.89463 10.4916 3.01312C10.4839 3.12712 10.4706 3.17054 10.4619 3.19134C10.4112 3.31386 10.3139 3.41119 10.1913 3.46194C10.1705 3.47056 10.1271 3.48387 10.0131 3.49165C9.89463 3.49973 9.73981 3.5 9.5 3.5H6.5C6.26019 3.5 6.10537 3.49973 5.98688 3.49165C5.87288 3.48387 5.82947 3.47056 5.80866 3.46194C5.68614 3.41119 5.58881 3.31386 5.53806 3.19134C5.52944 3.17054 5.51613 3.12712 5.50836 3.01312C5.50027 2.89463 5.5 2.73981 5.5 2.5C5.5 2.26019 5.50027 2.10537 5.50836 1.98688C5.51613 1.87288 5.52944 1.82947 5.53806 1.80866C5.58881 1.68615 5.68614 1.58881 5.80866 1.53806Z"
        fill="#303233" />
</svg>
