<svg width="16" height="16" viewBox="0 0 16 16" fill="none" xmlns="http://www.w3.org/2000/svg">
    <path
        d="M7.6786 1H8.32141C8.86329 0.999995 9.30038 0.999992 9.65431 1.02891C10.0187 1.05868 10.3388 1.12159 10.635 1.27248C10.9768 1.44663 11.2721 1.69614 11.5 2H4.5C4.7279 1.69614 5.02325 1.44663 5.36503 1.27248C5.66117 1.12159 5.98127 1.05868 6.34569 1.02891C6.69963 0.999992 7.13671 0.999995 7.6786 1Z"
        fill="#303233" />
    <path
        d="M9.82141 3H6.1786C5.63671 3 5.19963 2.99999 4.84569 3.02891C4.48127 3.05868 4.16117 3.12159 3.86503 3.27248C3.52325 3.44663 3.2279 3.69614 3 4H13C12.7721 3.69614 12.4768 3.44663 12.135 3.27248C11.8388 3.12159 11.5187 3.05868 11.1543 3.02891C10.8004 2.99999 10.3633 3 9.82141 3Z"
        fill="#303233" />
    <path fill-rule="evenodd" clip-rule="evenodd"
        d="M4.6786 5H11.3214C11.8633 4.99999 12.3004 4.99999 12.6543 5.02891C13.0187 5.05868 13.3388 5.12159 13.635 5.27248C14.1054 5.51217 14.4878 5.89462 14.7275 6.36502C14.8784 6.66117 14.9413 6.98126 14.9711 7.34569C15 7.69961 15 8.13667 15 8.67853V11.3214C15 11.8633 15 12.3004 14.9711 12.6543C14.9413 13.0187 14.8784 13.3388 14.7275 13.635C14.4878 14.1054 14.1054 14.4878 13.635 14.7275C13.3388 14.8784 13.0187 14.9413 12.6543 14.9711C12.3004 15 11.8633 15 11.3215 15H4.67858C4.13672 15 3.69961 15 3.34569 14.9711C2.98126 14.9413 2.66117 14.8784 2.36502 14.7275C1.89462 14.4878 1.51217 14.1054 1.27248 13.635C1.12159 13.3388 1.05868 13.0187 1.02891 12.6543C0.999991 12.3004 0.999995 11.8633 1 11.3214V8.6786C0.999995 8.13671 0.999991 7.69963 1.02891 7.34569C1.05868 6.98126 1.12159 6.66117 1.27248 6.36502C1.51217 5.89462 1.89462 5.51217 2.36502 5.27248C2.66117 5.12159 2.98126 5.05868 3.34569 5.02891C3.69963 4.99999 4.1367 4.99999 4.6786 5ZM8.5 8C8.5 7.72386 8.27614 7.5 8 7.5C7.72386 7.5 7.5 7.72386 7.5 8V9.5H6C5.72386 9.5 5.5 9.72386 5.5 10C5.5 10.2761 5.72386 10.5 6 10.5H7.5V12C7.5 12.2761 7.72386 12.5 8 12.5C8.27614 12.5 8.5 12.2761 8.5 12V10.5H10C10.2761 10.5 10.5 10.2761 10.5 10C10.5 9.72386 10.2761 9.5 10 9.5H8.5V8Z"
        fill="#303233" />
</svg>
