<svg width="24" height="24" viewBox="0 0 24 24" fill="none" xmlns="http://www.w3.org/2000/svg">
    <path fill-rule="evenodd" clip-rule="evenodd"
        d="M15 15.75C18.728 15.75 21.75 12.728 21.75 9C21.75 5.272 18.728 2.25 15 2.25C11.272 2.25 8.25 5.272 8.25 9C8.25 9.308 8.271 9.61 8.31 9.907C8.354 10.229 8.394 10.388 8.379 10.489C8.374 10.525 8.368 10.544 8.35 10.576C8.304 10.658 8.211 10.728 8.049 10.891L2.938 16.001C2.702 16.237 2.592 16.362 2.508 16.5C2.412 16.657 2.341 16.827 2.298 17.006C2.261 17.163 2.25 17.329 2.25 17.663V19.4C2.25 20.144 2.296 20.51 2.441 20.794C2.609 21.124 2.876 21.391 3.205 21.559C3.49 21.704 3.856 21.75 4.6 21.75H6.337C6.671 21.75 6.837 21.739 6.994 21.702C7.173 21.659 7.344 21.588 7.5 21.492C7.638 21.408 7.763 21.298 7.999 21.062L13.109 15.951C13.272 15.789 13.342 15.696 13.424 15.65C13.455 15.632 13.475 15.626 13.51 15.621C13.612 15.606 13.771 15.646 14.093 15.69C14.39 15.729 14.692 15.75 15 15.75ZM15 14.25C14.76 14.25 14.524 14.234 14.293 14.203C13.746 14.129 13.471 14.111 13.298 14.136C13.048 14.172 12.913 14.217 12.692 14.341C12.532 14.43 12.364 14.575 12.049 14.891L6.938 20.001C6.828 20.111 6.781 20.174 6.717 20.213C6.695 20.227 6.67 20.237 6.644 20.243C6.571 20.261 6.493 20.25 6.337 20.25H4.6C4.39 20.25 4.223 20.25 4.084 20.244C3.998 20.24 3.936 20.248 3.887 20.223C3.84 20.199 3.801 20.161 3.777 20.114C3.752 20.064 3.76 20.002 3.756 19.916C3.75 19.777 3.75 19.61 3.75 19.4V17.663C3.75 17.507 3.739 17.429 3.757 17.356C3.763 17.33 3.773 17.306 3.787 17.284C3.826 17.219 3.889 17.172 3.999 17.062L9.109 11.951C9.425 11.636 9.57 11.468 9.659 11.308C9.783 11.087 9.828 10.952 9.864 10.702C9.889 10.529 9.871 10.254 9.797 9.707C9.766 9.476 9.75 9.24 9.75 9C9.75 6.101 12.101 3.75 15 3.75C17.899 3.75 20.25 6.101 20.25 9C20.25 11.899 17.899 14.25 15 14.25Z"
        fill="#303233" />
    <path fill-rule="evenodd" clip-rule="evenodd"
        d="M14.25 9C14.25 8.58579 14.5858 8.25 15 8.25H15.01C15.4242 8.25 15.76 8.58579 15.76 9C15.76 9.41421 15.4242 9.75 15.01 9.75H15C14.5858 9.75 14.25 9.41421 14.25 9Z"
        fill="#303233" />
</svg>
