<svg width="24" height="24" viewBox="0 0 24 24" fill="none" xmlns="http://www.w3.org/2000/svg">
    <path
        d="M5.25 8.75C5.25 5.43629 7.93629 2.75 11.25 2.75C13.6922 2.75 15.7952 4.20919 16.7317 6.30642C16.854 6.58032 17.1278 6.755 17.4277 6.75054C17.4518 6.75018 17.4759 6.75 17.5 6.75C20.1234 6.75 22.25 8.87665 22.25 11.5C22.25 14.1234 20.1234 16.25 17.5 16.25C17.0858 16.25 16.75 16.5858 16.75 17C16.75 17.4142 17.0858 17.75 17.5 17.75C20.9518 17.75 23.75 14.9518 23.75 11.5C23.75 8.17958 21.1607 5.46392 17.8911 5.26204C16.6364 2.87776 14.134 1.25 11.25 1.25C7.22034 1.25 3.93294 4.42798 3.75738 8.41436C1.73647 8.96081 0.25 10.8063 0.25 13C0.25 15.6234 2.37665 17.75 5 17.75H6.5C6.91421 17.75 7.25 17.4142 7.25 17C7.25 16.5858 6.91421 16.25 6.5 16.25H5C3.20507 16.25 1.75 14.7949 1.75 13C1.75 11.3416 2.99278 9.97236 4.59745 9.77461C4.98497 9.72685 5.27102 9.38976 5.25509 8.99963C5.25171 8.91689 5.25 8.83367 5.25 8.75Z"
        fill="#303233" />
    <path
        d="M12 12.25C12.4142 12.25 12.75 12.5858 12.75 13V21.1893L14.4697 19.4697C14.7626 19.1768 15.2374 19.1768 15.5303 19.4697C15.8232 19.7626 15.8232 20.2374 15.5303 20.5303L12.5303 23.5303C12.4584 23.6022 12.3755 23.6565 12.2871 23.6931C12.1987 23.7298 12.1017 23.75 12 23.75C11.9871 23.75 11.9742 23.7497 11.9614 23.749C11.8738 23.7446 11.7901 23.7251 11.7129 23.6931C11.6245 23.6565 11.5416 23.6022 11.4697 23.5303L8.46967 20.5303C8.17678 20.2374 8.17678 19.7626 8.46967 19.4697C8.76256 19.1768 9.23744 19.1768 9.53033 19.4697L11.25 21.1893V13C11.25 12.5858 11.5858 12.25 12 12.25Z"
        fill="#303233" />
</svg>
