<svg width="16" height="16" viewBox="0 0 16 16" fill="none" xmlns="http://www.w3.org/2000/svg">
    <path fill-rule="evenodd" clip-rule="evenodd"
        d="M2.75 5C2.75 3.20507 4.20507 1.75 6 1.75C7.79493 1.75 9.25 3.20507 9.25 5C9.25 6.79493 7.79493 8.25 6 8.25C4.20507 8.25 2.75 6.79493 2.75 5ZM6 3.25C5.0335 3.25 4.25 4.0335 4.25 5C4.25 5.9665 5.0335 6.75 6 6.75C6.9665 6.75 7.75 5.9665 7.75 5C7.75 4.0335 6.9665 3.25 6 3.25Z"
        fill="#303233" />
    <path
        d="M5.99974 10.25C3.9445 10.25 2.22848 11.7096 1.83477 13.6492C1.75237 14.0551 1.35649 14.3174 0.950557 14.235C0.544622 14.1526 0.282346 13.7567 0.364746 13.3508C0.897571 10.7259 3.21706 8.75 5.99974 8.75C8.78241 8.75 11.1019 10.7259 11.6347 13.3508C11.7171 13.7567 11.4549 14.1526 11.0489 14.235C10.643 14.3174 10.2471 14.0551 10.1647 13.6492C9.77099 11.7096 8.05498 10.25 5.99974 10.25Z"
        fill="#303233" />
    <path
        d="M10.4697 7.46967C10.1768 7.76256 10.1768 8.23744 10.4697 8.53033L12.4697 10.5303C12.7626 10.8232 13.2374 10.8232 13.5303 10.5303C13.8232 10.2374 13.8232 9.76256 13.5303 9.46967L12.8107 8.75H15C15.4142 8.75 15.75 8.41421 15.75 8C15.75 7.58579 15.4142 7.25 15 7.25H12.8107L13.5303 6.53033C13.8232 6.23744 13.8232 5.76256 13.5303 5.46967C13.2374 5.17678 12.7626 5.17678 12.4697 5.46967L10.4697 7.46967Z"
        fill="#303233" />
</svg>
