<svg width="16" height="16" viewBox="0 0 16 16" fill="none" xmlns="http://www.w3.org/2000/svg">
    <path
        d="M4.51682 3.83526C5.49638 2.85502 6.84788 2.25 8.34211 2.25C11.3288 2.25 13.75 4.6712 13.75 7.65789C13.75 10.2306 11.9528 12.3853 9.54456 12.9318C9.14062 13.0235 8.88746 13.4252 8.97912 13.8292C9.07078 14.2331 9.47255 14.4863 9.87649 14.3946C12.9529 13.6965 15.25 10.9464 15.25 7.65789C15.25 3.84277 12.1572 0.75 8.34211 0.75C6.43389 0.75 4.70519 1.52471 3.4558 2.77497C3.05707 3.17397 2.63323 3.65774 2.25 4.11864V2.18421C2.25 1.77 1.91421 1.43421 1.5 1.43421C1.08579 1.43421 0.75 1.77 0.75 2.18421V6.28947C0.75 6.70369 1.08579 7.03947 1.5 7.03947H5.60526C6.01948 7.03947 6.35526 6.70369 6.35526 6.28947C6.35526 5.87526 6.01948 5.53947 5.60526 5.53947H3.02634C3.48355 4.96986 4.03164 4.32078 4.51682 3.83526Z"
        fill="#303233" />
    <path
        d="M5.10284 9.92544H7.5406V9H4.13978V12.2202H5.14798C5.20818 12.0447 5.30849 11.9042 5.44894 11.7989C5.58939 11.6936 5.76495 11.6409 5.97562 11.6409C6.27156 11.6409 6.49477 11.7237 6.64525 11.8892C6.80074 12.0497 6.87849 12.2855 6.87849 12.5964C6.87849 12.9024 6.80325 13.1482 6.65277 13.3338C6.50229 13.5194 6.27908 13.6122 5.98314 13.6122C5.73736 13.6122 5.53421 13.552 5.3737 13.4316C5.21821 13.3112 5.11789 13.1507 5.07274 12.9501H4.04949C4.09463 13.4115 4.28775 13.7852 4.62883 14.0711C4.96992 14.357 5.42637 14.5 5.99819 14.5C6.60512 14.5 7.07161 14.3244 7.39764 13.9733C7.7287 13.6222 7.89422 13.1582 7.89422 12.5814C7.89422 12.2704 7.83654 11.9795 7.72117 11.7086C7.6058 11.4327 7.42021 11.207 7.1644 11.0315C6.90859 10.8559 6.58004 10.7681 6.17876 10.7681C5.95806 10.7681 5.7499 10.8108 5.55428 10.896C5.35865 10.9763 5.20818 11.0816 5.10284 11.212V9.92544Z"
        fill="#303233" />
    <path d="M1 9.01505V9.98564H1.72982V14.5H2.81327V9.01505H1Z" fill="#303233" />
</svg>
