<svg width="24" height="24" viewBox="0 0 24 24" fill="none" xmlns="http://www.w3.org/2000/svg">
    <path
        d="M4 2.25C2.48122 2.25 1.25 3.48122 1.25 5V12.75H8C9.24264 12.75 10.25 13.7574 10.25 15V21.75H20C21.5188 21.75 22.75 20.5188 22.75 19V7C22.75 5.48122 21.5188 4.25 20 4.25H13.8284C13.2317 4.25 12.6594 4.01295 12.2374 3.59099L11.409 2.76256C11.0808 2.43437 10.6357 2.25 10.1716 2.25H4Z"
        fill="#303233" />
    <path
        d="M1.25 15C1.25 15.4142 1.58579 15.75 2 15.75H6.18934L1.46967 20.4697C1.17678 20.7626 1.17678 21.2374 1.46967 21.5303C1.76256 21.8232 2.23744 21.8232 2.53033 21.5303L7.25 16.8107V21C7.25 21.4142 7.58579 21.75 8 21.75C8.41421 21.75 8.75 21.4142 8.75 21V15C8.75 14.5858 8.41421 14.25 8 14.25H2C1.58579 14.25 1.25 14.5858 1.25 15Z"
        fill="#303233" />
</svg>
