<svg width="16" height="16" viewBox="0 0 16 16" fill="none" xmlns="http://www.w3.org/2000/svg">
    <path fill-rule="evenodd" clip-rule="evenodd"
        d="M4.66957 2.75H8.33044C8.86459 2.74999 9.31044 2.74998 9.67467 2.77974C10.0546 2.81078 10.4112 2.87789 10.7485 3.04973C11.2659 3.31338 11.6866 3.73408 11.9503 4.25153C12.1221 4.58879 12.1892 4.94545 12.2203 5.32533C12.2406 5.57468 12.2471 5.86229 12.2491 6.19029L13.3722 5.06719C14.0651 4.37423 15.25 4.86501 15.25 5.845V8.00003C15.25 8.41424 14.9142 8.75003 14.5 8.75003C14.0858 8.75003 13.75 8.41424 13.75 8.00003V6.81069L12.0303 8.53036C11.7374 8.82325 11.2626 8.82325 10.9697 8.53036C10.823 8.38365 10.7497 8.19128 10.75 7.99899M10.75 7.99899V6.7C10.75 6.12757 10.7494 5.74336 10.7252 5.44748C10.7018 5.16036 10.6599 5.02307 10.6138 4.93251C10.4939 4.69731 10.3027 4.50608 10.0675 4.38624C9.97693 4.3401 9.83965 4.29822 9.55252 4.27476C9.25664 4.25058 8.87243 4.25 8.3 4.25H4.7C4.12757 4.25 3.74336 4.25058 3.44748 4.27476C3.16036 4.29822 3.02307 4.3401 2.93251 4.38624C2.69731 4.50608 2.50608 4.69731 2.38624 4.93251C2.3401 5.02307 2.29822 5.16036 2.27476 5.44748C2.25058 5.74336 2.25 6.12757 2.25 6.7V9.3C2.25 9.87243 2.25058 10.2566 2.27476 10.5525C2.29822 10.8396 2.3401 10.9769 2.38624 11.0675C2.50608 11.3027 2.69731 11.4939 2.93251 11.6138C3.02307 11.6599 3.16036 11.7018 3.44748 11.7252C3.74336 11.7494 4.12757 11.75 4.7 11.75H7.5C7.91422 11.75 8.25 12.0858 8.25 12.5C8.25 12.9142 7.91422 13.25 7.5 13.25H4.66955C4.13542 13.25 3.68955 13.25 3.32533 13.2203C2.94545 13.1892 2.58879 13.1221 2.25153 12.9503C1.73408 12.6866 1.31339 12.2659 1.04973 11.7485C0.877889 11.4112 0.810778 11.0546 0.77974 10.6747C0.749982 10.3104 0.74999 9.8646 0.75 9.33045V6.66957C0.74999 6.13542 0.749982 5.68956 0.77974 5.32533C0.810778 4.94545 0.877889 4.58879 1.04973 4.25153C1.31339 3.73408 1.73408 3.31338 2.25153 3.04973C2.58879 2.87789 2.94545 2.81078 3.32533 2.77974C3.68956 2.74998 4.13542 2.74999 4.66957 2.75"
        fill="#303233" />
    <path fill-rule="evenodd" clip-rule="evenodd"
        d="M12.5 9.25C10.7051 9.25 9.25 10.7051 9.25 12.5C9.25 14.2949 10.7051 15.75 12.5 15.75C14.2949 15.75 15.75 14.2949 15.75 12.5C15.75 10.7051 14.2949 9.25 12.5 9.25ZM10.75 12.5C10.75 11.5335 11.5335 10.75 12.5 10.75C12.7061 10.75 12.9038 10.7856 13.0874 10.851L10.851 13.0874C10.7856 12.9038 10.75 12.7061 10.75 12.5ZM11.9112 14.1485C12.0952 14.2142 12.2934 14.25 12.5 14.25C13.4665 14.25 14.25 13.4665 14.25 12.5C14.25 12.2934 14.2142 12.0952 14.1485 11.9112L11.9112 14.1485Z"
        fill="#303233" />
</svg>
