<svg width="16" height="16" viewBox="0 0 16 16" fill="none" xmlns="http://www.w3.org/2000/svg">
    <path
        d="M8.40002 0.7C8.30559 0.574097 8.1574 0.5 8.00002 0.5C7.84264 0.5 7.69445 0.574097 7.60002 0.7L6.60077 2.03234C6.45578 2.22565 6.19329 2.28762 5.97716 2.17955L4.72363 1.55279C4.53795 1.45995 4.31423 1.4915 4.16147 1.63206C4.0087 1.77262 3.95868 1.99295 4.03578 2.1857L5.02049 4.64748C5.00696 4.7631 5 4.88074 5 5C5 6.65685 6.34315 8 8 8C9.65685 8 11 6.65685 11 5C11 4.88076 10.993 4.76315 10.9795 4.64755L11.9643 2.1857C12.0414 1.99295 11.9913 1.77262 11.8386 1.63206C11.6858 1.4915 11.4621 1.45995 11.2764 1.55279L10.0229 2.17955C9.80675 2.28762 9.54426 2.22565 9.39927 2.03234L8.40002 0.7Z"
        fill="#303233" />
    <path
        d="M2.60961 13.4005C3.11925 10.8899 5.33816 9 7.9996 9C10.661 9 12.8799 10.8899 13.3896 13.4005C13.4194 13.5476 13.3817 13.7003 13.2867 13.8164C13.1917 13.9326 13.0496 14 12.8996 14H3.09961C2.94957 14 2.80745 13.9326 2.71249 13.8164C2.61753 13.7003 2.57976 13.5476 2.60961 13.4005Z"
        fill="#303233" />
</svg>
