<svg width="16" height="16" viewBox="0 0 16 16" fill="none" xmlns="http://www.w3.org/2000/svg">
    <g clip-path="url(#clip0_53_2735)">
        <path fill-rule="evenodd" clip-rule="evenodd"
            d="M3.25 0.75C1.86929 0.75 0.75 1.86929 0.75 3.25V12.75C0.75 14.1307 1.86929 15.25 3.25 15.25H12.75C14.1307 15.25 15.25 14.1307 15.25 12.75V3.25C15.25 1.86929 14.1307 0.75 12.75 0.75H3.25ZM2.25 3.25C2.25 2.69772 2.69772 2.25 3.25 2.25H12.75C13.3023 2.25 13.75 2.69772 13.75 3.25V12.75C13.75 13.1476 13.518 13.4909 13.182 13.6521C12.7767 11.1558 10.611 9.25 8.00012 9.25C5.38925 9.25 3.22351 11.1558 2.81821 13.6522C2.4821 13.4911 2.25 13.1476 2.25 12.75V3.25ZM4.32513 13.75H11.6751C11.3277 12.0383 9.81434 10.75 8.00012 10.75C6.1859 10.75 4.67258 12.0383 4.32513 13.75ZM6.75012 6C6.75012 5.30964 7.30976 4.75 8.00012 4.75C8.69047 4.75 9.25012 5.30964 9.25012 6C9.25012 6.69036 8.69047 7.25 8.00012 7.25C7.30976 7.25 6.75012 6.69036 6.75012 6ZM8.00012 3.25C6.48133 3.25 5.25012 4.48122 5.25012 6C5.25012 7.51878 6.48133 8.75 8.00012 8.75C9.5189 8.75 10.7501 7.51878 10.7501 6C10.7501 4.48122 9.5189 3.25 8.00012 3.25Z"
            fill="#303233" />
    </g>
    <defs>
        <clipPath id="clip0_53_2735">
            <rect width="16" height="16" fill="white" />
        </clipPath>
    </defs>
</svg>
