<svg width="16" height="16" viewBox="0 0 16 16" fill="none" xmlns="http://www.w3.org/2000/svg">
    <path
        d="M6.5 8C6.22386 8 6 8.22386 6 8.5C6 8.77614 6.22386 9 6.5 9H9.5C9.77614 9 10 8.77614 10 8.5C10 8.22386 9.77614 8 9.5 8H6.5Z"
        fill="#303233" />
    <path fill-rule="evenodd" clip-rule="evenodd"
        d="M2.75 2C1.7835 2 1 2.7835 1 3.75C1 4.63162 1.65193 5.36097 2.5 5.48228L2.5 10.9013C2.49999 11.4293 2.49999 11.8559 2.52823 12.2015C2.55732 12.5576 2.61887 12.8715 2.76703 13.1623C3.00192 13.6233 3.37673 13.9981 3.83772 14.233C4.12852 14.3811 4.44244 14.4427 4.79853 14.4718C5.14412 14.5 5.57068 14.5 6.09859 14.5H9.90136C10.4293 14.5 10.8559 14.5 11.2015 14.4718C11.5576 14.4427 11.8715 14.3811 12.1623 14.233C12.6233 13.9981 12.9981 13.6233 13.233 13.1623C13.3811 12.8715 13.4427 12.5576 13.4718 12.2015C13.5 11.8559 13.5 11.4293 13.5 10.9014V5.48228C14.3481 5.36097 15 4.63162 15 3.75C15 2.7835 14.2165 2 13.25 2H2.75ZM12.5 5.5H3.5V10.88C3.5 11.4343 3.50039 11.82 3.52491 12.12C3.54895 12.4143 3.59367 12.582 3.65804 12.7083C3.79706 12.9811 4.01888 13.2029 4.29171 13.342C4.41804 13.4063 4.58571 13.4511 4.87996 13.4751C5.18004 13.4996 5.5657 13.5 6.12 13.5H9.88C10.4343 13.5 10.82 13.4996 11.12 13.4751C11.4143 13.4511 11.582 13.4063 11.7083 13.342C11.9811 13.2029 12.2029 12.9811 12.342 12.7083C12.4063 12.582 12.4511 12.4143 12.4751 12.12C12.4996 11.82 12.5 11.4343 12.5 10.88V5.5ZM2 3.75C2 3.33579 2.33579 3 2.75 3H13.25C13.6642 3 14 3.33579 14 3.75C14 4.16421 13.6642 4.5 13.25 4.5H2.75C2.33579 4.5 2 4.16421 2 3.75Z"
        fill="#303233" />
</svg>
