<svg width="24" height="24" viewBox="0 0 24 24" fill="none" xmlns="http://www.w3.org/2000/svg">
    <path fill-rule="evenodd" clip-rule="evenodd"
        d="M1 4C1 2.34315 2.34315 1 4 1H6C6.55228 1 7 1.44772 7 2C7 2.55228 6.55228 3 6 3H4C3.44772 3 3 3.44772 3 4V6C3 6.55228 2.55228 7 2 7C1.44772 7 1 6.55228 1 6V4ZM9 2C9 1.44772 9.44772 1 10 1H14C14.5523 1 15 1.44772 15 2C15 2.55228 14.5523 3 14 3H10C9.44772 3 9 2.55228 9 2ZM17 2C17 1.44772 17.4477 1 18 1H20C21.6569 1 23 2.34315 23 4V6C23 6.55228 22.5523 7 22 7C21.4477 7 21 6.55228 21 6V4C21 3.44772 20.5523 3 20 3H18C17.4477 3 17 2.55228 17 2ZM2 9C2.55228 9 3 9.44772 3 10V14C3 14.5523 2.55228 15 2 15C1.44772 15 1 14.5523 1 14V10C1 9.44772 1.44772 9 2 9ZM22 9C22.5523 9 23 9.44772 23 10V14C23 14.5523 22.5523 15 22 15C21.4477 15 21 14.5523 21 14V10C21 9.44772 21.4477 9 22 9ZM2 17C2.55228 17 3 17.4477 3 18V20C3 20.5523 3.44772 21 4 21H6C6.55228 21 7 21.4477 7 22C7 22.5523 6.55228 23 6 23H4C2.34315 23 1 21.6569 1 20L1 18C1 17.4477 1.44772 17 2 17ZM22 17C22.5523 17 23 17.4477 23 18V20C23 21.6569 21.6569 23 20 23H18C17.4477 23 17 22.5523 17 22C17 21.4477 17.4477 21 18 21H20C20.5523 21 21 20.5523 21 20V18C21 17.4477 21.4477 17 22 17ZM9 22C9 21.4477 9.44772 21 10 21H14C14.5523 21 15 21.4477 15 22C15 22.5523 14.5523 23 14 23H10C9.44772 23 9 22.5523 9 22Z"
        fill="#303233" />
</svg>
