<svg width="16" height="16" viewBox="0 0 16 16" fill="none" xmlns="http://www.w3.org/2000/svg">
    <path fill-rule="evenodd" clip-rule="evenodd"
        d="M11.7195 3.03411C12.1129 3.02473 12.4877 3.20112 12.7312 3.51021C12.907 3.7333 12.9556 4.01092 12.9773 4.25396C12.9994 4.50188 12.9993 4.82047 12.9993 5.20023V10.7998C12.9993 11.1795 12.9994 11.4981 12.9773 11.746C12.9556 11.9891 12.907 12.2667 12.7312 12.4898C12.4877 12.7989 12.1129 12.9753 11.7195 12.9659C11.4356 12.9591 11.1907 12.8196 10.9896 12.6814C10.7845 12.5404 10.539 12.3373 10.2464 12.0953L6.85704 9.29154C6.68153 9.14638 6.52602 9.01775 6.40751 8.90129C6.28253 8.77847 6.15947 8.63262 6.08724 8.44113C5.98001 8.15682 5.98001 7.84318 6.08724 7.55887C6.15947 7.36738 6.28253 7.22153 6.40751 7.09871C6.52602 6.98225 6.68155 6.85361 6.85706 6.70844L10.2464 3.90474C10.539 3.66267 10.7845 3.4596 10.9896 3.31861C11.1907 3.18039 11.4356 3.04088 11.7195 3.03411Z"
        fill="#303233" />
    <path fill-rule="evenodd" clip-rule="evenodd"
        d="M3.5 3C3.77614 3 4 3.22386 4 3.5V12.5006C4 12.7768 3.77614 13.0006 3.5 13.0006C3.22386 13.0006 3 12.7768 3 12.5006V3.5C3 3.22386 3.22386 3 3.5 3Z"
        fill="#303233" />
</svg>
