<svg width="16" height="16" viewBox="0 0 16 16" fill="none" xmlns="http://www.w3.org/2000/svg">
    <path fill-rule="evenodd" clip-rule="evenodd"
        d="M4.66957 1.25H11.3304C11.8646 1.24999 12.3104 1.24998 12.6747 1.27974C13.0546 1.31078 13.4112 1.37789 13.7485 1.54973C14.2659 1.81339 14.6866 2.23408 14.9503 2.75153C15.1221 3.08879 15.1892 3.44545 15.2203 3.82534C15.25 4.18957 15.25 4.63541 15.25 5.16955V7C15.25 7.41421 14.9142 7.75 14.5 7.75C14.0858 7.75 13.75 7.41421 13.75 7V6.75H2.25V10.8C2.25 11.3724 2.25058 11.7566 2.27476 12.0525C2.29822 12.3396 2.3401 12.4769 2.38624 12.5675C2.50608 12.8027 2.69731 12.9939 2.93251 13.1138C3.02307 13.1599 3.16036 13.2018 3.44748 13.2252C3.74336 13.2494 4.12757 13.25 4.7 13.25H8C8.41421 13.25 8.75 13.5858 8.75 14C8.75 14.4142 8.41421 14.75 8 14.75H4.66959C4.13543 14.75 3.68957 14.75 3.32533 14.7203C2.94544 14.6892 2.58879 14.6221 2.25153 14.4503C1.73408 14.1866 1.31338 13.7659 1.04973 13.2485C0.877889 12.9112 0.810778 12.5546 0.77974 12.1747C0.749981 11.8104 0.74999 11.3646 0.75 10.8304V5.16957C0.74999 4.63541 0.749981 4.18956 0.77974 3.82533C0.810778 3.44545 0.877889 3.08879 1.04973 2.75153C1.31338 2.23408 1.73408 1.81338 2.25153 1.54973C2.58879 1.37789 2.94545 1.31078 3.32533 1.27974C3.68956 1.24998 4.13541 1.24999 4.66957 1.25ZM2.25 5.25H13.75V5.2C13.75 4.62758 13.7494 4.24337 13.7252 3.94748C13.7018 3.66035 13.6599 3.52307 13.6138 3.43251C13.4939 3.19731 13.3027 3.00609 13.0675 2.88624C12.9769 2.8401 12.8396 2.79822 12.5525 2.77476C12.2566 2.75058 11.8724 2.75 11.3 2.75H4.7C4.12757 2.75 3.74336 2.75058 3.44748 2.77476C3.16036 2.79822 3.02307 2.8401 2.93251 2.88624C2.69731 3.00608 2.50608 3.19731 2.38624 3.43251C2.3401 3.52307 2.29822 3.66036 2.27476 3.94748C2.25058 4.24336 2.25 4.62757 2.25 5.2V5.25ZM12.3613 10.3007L14.1993 12.1387C14.2324 12.0148 14.25 11.8845 14.25 11.75C14.25 10.9216 13.5784 10.25 12.75 10.25C12.6155 10.25 12.4852 10.2676 12.3613 10.3007ZM13.1387 13.1993L11.3007 11.3613C11.2676 11.4852 11.25 11.6155 11.25 11.75C11.25 12.5784 11.9216 13.25 12.75 13.25C12.8845 13.25 13.0148 13.2324 13.1387 13.1993ZM10.6287 9.62868C11.1708 9.08661 11.9218 8.75 12.75 8.75C14.4069 8.75 15.75 10.0931 15.75 11.75C15.75 12.5782 15.4134 13.3292 14.8713 13.8713C14.3292 14.4134 13.5782 14.75 12.75 14.75C11.0931 14.75 9.75 13.4069 9.75 11.75C9.75 10.9218 10.0866 10.1708 10.6287 9.62868Z"
        fill="#303233" />
</svg>
