<svg width="24" height="24" viewBox="0 0 24 24" fill="none" xmlns="http://www.w3.org/2000/svg">
    <path
        d="M19.4126 4.29978C19.1786 4.31825 18.8681 4.36911 18.3698 4.45216L11.1698 5.65216C10.7988 5.714 10.5751 5.75195 10.4088 5.79276C10.3319 5.81164 10.2858 5.82689 10.2579 5.83789C10.2331 5.8477 10.2232 5.8543 10.2232 5.8543C10.1446 5.90654 10.0824 5.97997 10.0438 6.06604C10.0438 6.06604 10.0389 6.07695 10.0333 6.10309C10.027 6.13238 10.0196 6.18031 10.0136 6.25931C10.0007 6.43009 10 6.65692 10 7.03311V18L10 18.0023C9.99876 20.2104 8.20838 22 6 22C3.79086 22 2 20.2091 2 18C2 15.7909 3.79086 14 6 14C6.72858 14 7.41165 14.1948 8 14.5351L8 7.00075C7.99998 6.66736 7.99996 6.36385 8.01928 6.10849C8.04016 5.83235 8.08731 5.54101 8.21901 5.24743C8.41206 4.81709 8.72292 4.45014 9.11566 4.18896C9.3836 4.01079 9.66323 3.91638 9.93218 3.85039C10.1809 3.78935 10.4803 3.73948 10.8091 3.68469L18.0802 2.47284C18.5274 2.39829 18.9244 2.33209 19.2552 2.30598C19.605 2.27838 19.9863 2.28444 20.3705 2.42713C20.9184 2.63065 21.3777 3.01975 21.6686 3.52679C21.8725 3.88227 21.9411 4.25737 21.9714 4.60693C22 4.93755 22 5.34008 22 5.79344V16C22 18.2091 20.2091 20 18 20C15.7909 20 14 18.2091 14 16C14 13.7909 15.7909 12 18 12C18.7286 12 19.4117 12.1948 20 12.5351V5.83311C20 5.32795 19.9991 5.01329 19.9789 4.7795C19.9624 4.5893 19.9378 4.53017 19.9337 4.5219C19.8756 4.42049 19.7837 4.34269 19.6741 4.30198C19.6653 4.29934 19.6029 4.28476 19.4126 4.29978Z"
        fill="#303233" />
</svg>
