<svg width="16" height="16" viewBox="0 0 16 16" fill="none" xmlns="http://www.w3.org/2000/svg">
    <path
        d="M6.46967 6.46967C6.60621 6.33313 6.79269 6.25 7 6.25C7.41421 6.25 7.75 6.58579 7.75 7C7.75 7.41421 7.41421 7.75 7 7.75C6.58579 7.75 6.25 7.41421 6.25 7C6.25 6.79269 6.33313 6.60621 6.46967 6.46967Z"
        fill="black" />
    <path fill-rule="evenodd" clip-rule="evenodd"
        d="M7.03027 0.96967C6.73738 0.676777 6.26251 0.676777 5.96961 0.96967L3.99997 2.93931L2.03033 0.96967C1.73744 0.676777 1.26256 0.676777 0.96967 0.96967C0.676777 1.26256 0.676777 1.73744 0.96967 2.03033L2.93931 3.99997L2.21083 4.72845C1.83312 5.10615 1.51785 5.4214 1.28134 5.7C1.03467 5.99056 0.829932 6.29021 0.712964 6.6502C0.533504 7.20252 0.533504 7.79748 0.712964 8.3498C0.829932 8.70979 1.03467 9.00944 1.28134 9.3C1.51785 9.5786 1.83312 9.89386 2.21083 10.2716L3.72839 11.7891C4.10608 12.1668 4.42135 12.4821 4.69994 12.7186C4.9905 12.9653 5.29015 13.17 5.65015 13.287C6.20246 13.4664 6.79742 13.4664 7.34974 13.287C7.70973 13.17 8.00938 12.9653 8.29995 12.7186C8.57855 12.4821 8.89381 12.1668 9.27151 11.7891L13.0303 8.03033C13.3232 7.73744 13.3232 7.26256 13.0303 6.96967L7.03027 0.96967ZM2.93931 3.99997L4.96942 6.03008C4.8289 6.32382 4.75 6.65292 4.75 7C4.75 8.24264 5.75736 9.25 7 9.25C8.24264 9.25 9.25 8.24264 9.25 7C9.25 5.75736 8.24264 4.75 7 4.75C6.65292 4.75 6.32382 4.8289 6.03008 4.96942L3.99997 2.93931L2.93931 3.99997Z"
        fill="black" />
    <path
        d="M13.6709 9.66468C13.5438 9.41056 13.2841 9.25002 13 9.25C12.716 9.24998 12.4562 9.41049 12.3292 9.66459L10.3292 13.6646C10.2129 13.8971 10.2254 14.1732 10.362 14.3943C10.4987 14.6154 10.7401 14.75 11 14.75H14.9993C15.2593 14.75 15.5007 14.6154 15.6373 14.3943C15.774 14.1733 15.7864 13.8972 15.6702 13.6647L13.6709 9.66468Z"
        fill="black" />
</svg>
