<svg width="16" height="16" viewBox="0 0 16 16" fill="none" xmlns="http://www.w3.org/2000/svg">
    <path fill-rule="evenodd" clip-rule="evenodd"
        d="M15 8C15 11.866 11.866 15 8 15C4.13401 15 1 11.866 1 8C1 4.13401 4.13401 1 8 1C11.866 1 15 4.13401 15 8ZM8.00015 9.5C6.11031 9.5 4.46536 10.5485 3.61523 12.0955C4.71029 13.2674 6.26967 14 8.00015 14C9.73063 14 11.29 13.2674 12.3851 12.0955C11.5349 10.5485 9.88999 9.5 8.00015 9.5ZM8.00015 3.5C6.61944 3.5 5.50015 4.61929 5.50015 6C5.50015 7.38071 6.61944 8.5 8.00015 8.5C9.38086 8.5 10.5002 7.38071 10.5002 6C10.5002 4.61929 9.38086 3.5 8.00015 3.5Z"
        fill="#303233" />
</svg>
