<svg width="16" height="16" viewBox="0 0 16 16" fill="none" xmlns="http://www.w3.org/2000/svg">
    <path fill-rule="evenodd" clip-rule="evenodd"
        d="M11.3214 2H4.6786C4.1367 2 3.69963 1.99999 3.34569 2.02891C2.98126 2.05868 2.66117 2.12159 2.36502 2.27248C1.89462 2.51217 1.51217 2.89462 1.27248 3.36502C1.12159 3.66117 1.05868 3.98126 1.02891 4.34569C0.999991 4.69963 0.999995 5.1367 1 5.67859V10.3214C0.999995 10.8633 0.999991 11.3004 1.02891 11.6543C1.05868 12.0187 1.12159 12.3388 1.27248 12.635C1.51217 13.1054 1.89462 13.4878 2.36502 13.7275C2.66117 13.8784 2.98126 13.9413 3.34569 13.9711C3.69961 14 4.13667 14 4.67853 14H11.3214C11.8633 14 12.3004 14 12.6543 13.9711C13.0187 13.9413 13.3388 13.8784 13.635 13.7275C14.1054 13.4878 14.4878 13.1054 14.7275 12.635C14.8784 12.3388 14.9413 12.0187 14.9711 11.6543C15 11.3004 15 10.8633 15 10.3215V5.67858C15 5.13672 15 4.69961 14.9711 4.34569C14.9413 3.98126 14.8784 3.66117 14.7275 3.36502C14.4878 2.89462 14.1054 2.51217 13.635 2.27248C13.3388 2.12159 13.0187 2.05868 12.6543 2.02891C12.3004 1.99999 11.8633 2 11.3214 2ZM3.20592 4.84561C3.42925 4.68319 3.74195 4.73256 3.90437 4.95589L5.5 7.14988L7.09564 4.95589C7.25806 4.73256 7.57076 4.68319 7.79409 4.84561C8.01742 5.00803 8.06679 5.32073 7.90437 5.54406L6.11825 7.99997L7.90437 10.4559C8.06679 10.6792 8.01742 10.9919 7.79409 11.1543C7.57076 11.3168 7.25806 11.2674 7.09564 11.0441L5.5 8.85007L3.90437 11.0441C3.74195 11.2674 3.42925 11.3168 3.20592 11.1543C2.98259 10.9919 2.93322 10.6792 3.09564 10.4559L4.88176 7.99997L3.09564 5.54406C2.93322 5.32073 2.98259 5.00803 3.20592 4.84561ZM9.5 4.75C9.77614 4.75 10 4.97386 10 5.25V10.25H12.5C12.7761 10.25 13 10.4739 13 10.75C13 11.0261 12.7761 11.25 12.5 11.25H9.5C9.22386 11.25 9 11.0261 9 10.75V5.25C9 4.97386 9.22386 4.75 9.5 4.75Z"
        fill="#303233" />
</svg>
