<svg width="24" height="24" viewBox="0 0 24 24" fill="none" xmlns="http://www.w3.org/2000/svg">
    <path fill-rule="evenodd" clip-rule="evenodd"
        d="M2.47009 2.46967C2.76298 2.17678 3.23785 2.17678 3.53075 2.46967L7.18067 6.1196C7.23156 6.15861 7.27812 6.20475 7.31878 6.25771L17.7334 16.6723C17.7927 16.7159 17.8464 16.769 17.8922 16.8311L21.5307 20.4697C21.8236 20.7626 21.8236 21.2374 21.5307 21.5303C21.2379 21.8232 20.763 21.8232 20.4701 21.5303L17.1787 18.239C15.7304 19.1185 13.9944 19.75 12.0004 19.75C9.21604 19.75 6.93787 18.5199 5.23735 17.1006C3.5386 15.6828 2.37124 14.0403 1.78601 13.1137C1.77876 13.1022 1.77144 13.0906 1.76407 13.079C1.64538 12.8918 1.51396 12.6845 1.44666 12.3909C1.39276 12.1557 1.39278 11.8441 1.44671 11.6089C1.51404 11.3152 1.64586 11.1074 1.7649 10.9197C1.77233 10.9079 1.77971 10.8963 1.78703 10.8847C2.40675 9.90371 3.68761 8.10639 5.56997 6.63022L2.47009 3.53033C2.17719 3.23744 2.17719 2.76256 2.47009 2.46967ZM6.63931 7.69955C4.87372 9.04176 3.64953 10.745 3.05518 11.6858C2.98111 11.8031 2.94911 11.8548 2.92781 11.8958C2.91566 11.9191 2.91246 11.9287 2.90963 11.9404C2.90963 11.9404 2.90887 11.946 2.90832 11.9518C2.90711 11.9646 2.90625 11.9813 2.90625 12C2.90625 12.0187 2.90711 12.0353 2.90831 12.0481C2.90886 12.054 2.90962 12.0595 2.90962 12.0595C2.9125 12.0715 2.91569 12.0809 2.92767 12.104C2.94878 12.1446 2.98049 12.1959 3.05426 12.3127C3.59443 13.168 4.66472 14.6689 6.1985 15.949C7.73052 17.2277 9.67979 18.25 12.0004 18.25C13.5264 18.25 14.8905 17.8085 16.0821 17.1424L14.0684 15.1286C13.4757 15.521 12.7644 15.75 12.0004 15.75C9.92935 15.75 8.25042 14.0711 8.25042 12C8.25042 11.236 8.47942 10.5247 8.8718 9.93204L6.63931 7.69955ZM9.96955 11.0298C9.82895 11.3235 9.75041 11.6524 9.75041 12C9.75041 13.2426 10.7578 14.25 12.0004 14.25C12.3481 14.25 12.6769 14.1715 12.9706 14.0309L9.96955 11.0298ZM12.0004 5.75C11.6061 5.75 11.2235 5.77942 10.8526 5.83425C10.4429 5.89484 10.0616 5.61177 10.001 5.20201C9.94043 4.79225 10.2235 4.41097 10.6333 4.35038C11.0752 4.28504 11.5311 4.25 12.0004 4.25C14.7848 4.25 17.063 5.48009 18.7635 6.89936C20.4622 8.31717 21.6296 9.95967 22.2148 10.8863C22.2221 10.8978 22.2294 10.9094 22.2368 10.921C22.3555 11.1082 22.4869 11.3155 22.5542 11.6092C22.6081 11.8444 22.6081 12.156 22.5541 12.3912C22.4868 12.6849 22.3547 12.8931 22.2355 13.0811C22.228 13.0928 22.2206 13.1045 22.2132 13.1162C21.8995 13.6127 21.423 14.3078 20.7915 15.0619C20.5256 15.3795 20.0526 15.4214 19.735 15.1555C19.4174 14.8896 19.3755 14.4166 19.6415 14.099C20.2214 13.4064 20.6592 12.7676 20.9451 12.315C21.0194 12.1975 21.0515 12.1455 21.073 12.1043C21.0852 12.0808 21.0884 12.0712 21.0912 12.0596C21.0912 12.0596 21.092 12.0541 21.0925 12.0482C21.0937 12.0354 21.0946 12.0188 21.0946 12.0001C21.0946 11.9814 21.0937 11.9647 21.0925 11.9519C21.092 11.946 21.0912 11.9405 21.0912 11.9405C21.0883 11.9285 21.0851 11.9191 21.0732 11.896C21.0521 11.8554 21.0203 11.8041 20.9466 11.6873C20.4064 10.832 19.3361 9.33109 17.8023 8.05097C16.2703 6.77233 14.321 5.75 12.0004 5.75Z"
        fill="#303233" />
</svg>
