<svg width="16" height="16" viewBox="0 0 16 16" fill="none" xmlns="http://www.w3.org/2000/svg">
    <path fill-rule="evenodd" clip-rule="evenodd"
        d="M5 1.5C5.27614 1.5 5.5 1.72386 5.5 2L5.5 8.05001C6.64112 8.28164 7.5 9.29052 7.5 10.5C7.5 11.7095 6.64112 12.7184 5.5 12.95L5.5 14C5.5 14.2761 5.27614 14.5 5 14.5C4.72386 14.5 4.5 14.2761 4.5 14L4.5 12.95C3.35888 12.7184 2.5 11.7095 2.5 10.5C2.5 9.29052 3.35888 8.28164 4.5 8.05001L4.5 2C4.5 1.72386 4.72386 1.5 5 1.5ZM11 1.5C11.2761 1.5 11.5 1.72386 11.5 2V3.05001C12.6411 3.28164 13.5 4.29052 13.5 5.5C13.5 6.70948 12.6411 7.71836 11.5 7.94999V14C11.5 14.2761 11.2761 14.5 11 14.5C10.7239 14.5 10.5 14.2761 10.5 14V7.94999C9.35888 7.71836 8.5 6.70948 8.5 5.5C8.5 4.29052 9.35888 3.28164 10.5 3.05001V2C10.5 1.72386 10.7239 1.5 11 1.5ZM11 4C10.1716 4 9.5 4.67157 9.5 5.5C9.5 6.32843 10.1716 7 11 7C11.8284 7 12.5 6.32843 12.5 5.5C12.5 4.67157 11.8284 4 11 4ZM5 9C4.17157 9 3.5 9.67157 3.5 10.5C3.5 11.3284 4.17157 12 5 12C5.82843 12 6.5 11.3284 6.5 10.5C6.5 9.67157 5.82843 9 5 9Z"
        fill="#303233" />
</svg>
