<svg width="24" height="24" viewBox="0 0 24 24" fill="none" xmlns="http://www.w3.org/2000/svg">
    <path fill-rule="evenodd" clip-rule="evenodd"
        d="M6.7679 1.25H17.2321C18.0449 1.24999 18.7006 1.24999 19.2315 1.29336C19.7781 1.33803 20.2582 1.43239 20.7025 1.65873C21.4081 2.01825 21.9817 2.59193 22.3413 3.29754C22.5676 3.74175 22.662 4.2219 22.7066 4.76853C22.75 5.29944 22.75 5.95505 22.75 6.76788V17.2321C22.75 18.045 22.75 18.7006 22.7066 19.2315C22.662 19.7781 22.5676 20.2582 22.3413 20.7025C21.9817 21.4081 21.4081 21.9817 20.7025 22.3413C20.2582 22.5676 19.7781 22.662 19.2315 22.7066C18.7006 22.75 18.045 22.75 17.2321 22.75H6.76788C5.95505 22.75 5.29944 22.75 4.76853 22.7066C4.2219 22.662 3.74175 22.5676 3.29754 22.3413C2.59193 21.9817 2.01825 21.4081 1.65873 20.7025C1.43239 20.2582 1.33803 19.7781 1.29336 19.2315C1.24999 18.7006 1.24999 18.0449 1.25 17.2321V6.7679C1.24999 5.95506 1.24999 5.29944 1.29336 4.76853C1.33803 4.2219 1.43239 3.74175 1.65873 3.29754C2.01825 2.59193 2.59193 2.01825 3.29754 1.65873C3.74175 1.43239 4.2219 1.33803 4.76853 1.29336C5.29944 1.24999 5.95506 1.24999 6.7679 1.25ZM2.75 7.75V11.25H6.25V7.75H2.75ZM6.25 6.25H2.75054C2.75225 5.68053 2.7593 5.24665 2.78838 4.89068C2.82547 4.4368 2.8946 4.17604 2.99524 3.97852C3.21095 3.55516 3.55516 3.21095 3.97852 2.99524C4.17604 2.8946 4.4368 2.82547 4.89068 2.78838C5.24665 2.7593 5.68053 2.75225 6.25 2.75054V6.25ZM7.75 11.25H16.25V2.75H7.75V11.25ZM17.75 2.75054V6.25H21.2495C21.2478 5.68053 21.2407 5.24665 21.2116 4.89068C21.1745 4.4368 21.1054 4.17604 21.0048 3.97852C20.789 3.55516 20.4448 3.21095 20.0215 2.99524C19.824 2.8946 19.5632 2.82547 19.1093 2.78838C18.7534 2.7593 18.3195 2.75225 17.75 2.75054ZM21.25 7.75H17.75V11.25H21.25V7.75ZM21.25 12.75H17.75V16.25H21.25V12.75ZM21.2495 17.75H17.75V21.2495C18.3195 21.2478 18.7534 21.2407 19.1093 21.2116C19.5632 21.1745 19.824 21.1054 20.0215 21.0048C20.4448 20.789 20.789 20.4448 21.0048 20.0215C21.1054 19.824 21.1745 19.5632 21.2116 19.1093C21.2407 18.7534 21.2478 18.3195 21.2495 17.75ZM16.25 21.25V12.75H7.75V21.25H16.25ZM6.25 21.2495V17.75H2.75054C2.75225 18.3195 2.7593 18.7534 2.78838 19.1093C2.82547 19.5632 2.8946 19.824 2.99524 20.0215C3.21095 20.4448 3.55516 20.789 3.97852 21.0048C4.17604 21.1054 4.4368 21.1745 4.89068 21.2116C5.24665 21.2407 5.68053 21.2478 6.25 21.2495ZM2.75 16.25H6.25V12.75H2.75V16.25Z"
        fill="#303233" />
</svg>
