<svg width="16" height="16" viewBox="0 0 16 16" fill="none" xmlns="http://www.w3.org/2000/svg">
    <g clip-path="url(#clip0_155_190)">
        <path fill-rule="evenodd" clip-rule="evenodd"
            d="M4.1 0.75C4.51421 0.75 4.85 1.08579 4.85 1.5V4.09879L4.85 4.1L4.85 4.10121V9.82C4.85 10.1964 4.85058 10.4336 4.86522 10.6128C4.87914 10.7832 4.90195 10.834 4.90995 10.8497C4.96268 10.9532 5.04682 11.0373 5.15031 11.0901C5.166 11.098 5.21684 11.1209 5.38724 11.1348C5.56639 11.1494 5.80359 11.15 6.18 11.15L11.8993 11.15H11.9007H14.5C14.9142 11.15 15.25 11.4858 15.25 11.9C15.25 12.3142 14.9142 12.65 14.5 12.65H12.65V14.5C12.65 14.9142 12.3142 15.25 11.9 15.25C11.4858 15.25 11.15 14.9142 11.15 14.5V12.65L6.15195 12.65C5.8119 12.65 5.51271 12.65 5.26509 12.6298C5.00193 12.6083 4.73171 12.5603 4.46932 12.4266C4.08359 12.23 3.76998 11.9164 3.57344 11.5307C3.43974 11.2683 3.3917 10.9981 3.3702 10.7349C3.34997 10.4873 3.34998 10.1881 3.35 9.84803L3.35 4.85H1.5C1.08579 4.85 0.75 4.51421 0.75 4.1C0.75 3.68579 1.08579 3.35 1.5 3.35H3.35V1.5C3.35 1.08579 3.68579 0.75 4.1 0.75ZM10.6128 4.86522C10.4336 4.85058 10.1964 4.85 9.82 4.85H6.7C6.28579 4.85 5.95 4.51421 5.95 4.1C5.95 3.68579 6.28579 3.35 6.7 3.35L9.84803 3.35C10.1881 3.34998 10.4873 3.34997 10.7349 3.3702C10.9981 3.3917 11.2683 3.43974 11.5307 3.57344C11.9164 3.76998 12.23 4.08359 12.4266 4.46932C12.5603 4.73171 12.6083 5.00193 12.6298 5.26509C12.65 5.51271 12.65 5.8119 12.65 6.15195V9.3C12.65 9.71421 12.3142 10.05 11.9 10.05C11.4858 10.05 11.15 9.71421 11.15 9.3V6.18C11.15 5.80359 11.1494 5.56639 11.1348 5.38724C11.1209 5.21684 11.098 5.166 11.0901 5.1503C11.0373 5.04682 10.9532 4.96268 10.8497 4.90995C10.834 4.90195 10.7832 4.87914 10.6128 4.86522Z"
            fill="#303233" />
    </g>
    <defs>
        <clipPath id="clip0_155_190">
            <rect width="16" height="16" fill="white" />
        </clipPath>
    </defs>
</svg>
