<svg width="16" height="16" viewBox="0 0 16 16" fill="none" xmlns="http://www.w3.org/2000/svg">
    <g clip-path="url(#clip0_53_9937)">
        <path fill-rule="evenodd" clip-rule="evenodd"
            d="M15.25 8C15.25 12.0041 12.0041 15.25 8 15.25C3.99594 15.25 0.75 12.0041 0.75 8C0.75 3.99594 3.99594 0.75 8 0.75C12.0041 0.75 15.25 3.99594 15.25 8ZM5.75 4.99536C6.16421 4.99536 6.5 5.33115 6.5 5.74536V8.43934L6.71967 8.21967C7.01256 7.92678 7.48744 7.92678 7.78033 8.21967C8.07322 8.51256 8.07322 8.98744 7.78033 9.28033L6.28213 10.7785C6.27605 10.7847 6.26986 10.7907 6.26358 10.7966C6.19752 10.8587 6.12295 10.9066 6.04378 10.9403C5.95356 10.9787 5.85426 11 5.75 11C5.6457 11 5.54638 10.9787 5.45614 10.9402C5.37699 10.9066 5.30246 10.8587 5.23642 10.7966C5.23012 10.7907 5.22393 10.7846 5.21783 10.7785L3.71967 9.28033C3.42678 8.98744 3.42678 8.51256 3.71967 8.21967C4.01256 7.92678 4.48744 7.92678 4.78033 8.21967L5 8.43934V5.74536C5 5.33115 5.33579 4.99536 5.75 4.99536ZM9.5 10.25V7.56066L9.28033 7.78033C8.98744 8.07322 8.51256 8.07322 8.21967 7.78033C7.92678 7.48744 7.92678 7.01256 8.21967 6.71967L9.71967 5.21967C9.79158 5.14776 9.87445 5.09351 9.96291 5.05691C10.0513 5.02024 10.1483 5 10.25 5C10.3517 5 10.4487 5.02024 10.5371 5.05691C10.6255 5.09351 10.7084 5.14776 10.7803 5.21967L12.2803 6.71967C12.5732 7.01256 12.5732 7.48744 12.2803 7.78033C11.9874 8.07322 11.5126 8.07322 11.2197 7.78033L11 7.56066V10.25C11 10.6642 10.6642 11 10.25 11C9.83579 11 9.5 10.6642 9.5 10.25Z"
            fill="#303233" />
    </g>
    <defs>
        <clipPath id="clip0_53_9937">
            <rect width="16" height="16" fill="white" />
        </clipPath>
    </defs>
</svg>
