<svg width="24" height="24" viewBox="0 0 24 24" fill="none" xmlns="http://www.w3.org/2000/svg">
    <path
        d="M10.0118 3C10.7931 3 11.0208 3.00643 11.2242 3.05526C11.4283 3.10426 11.6234 3.18506 11.8024 3.29472C11.9807 3.40402 12.1463 3.56048 12.6988 4.11299L20.2929 11.7071C20.6834 12.0976 21.3166 12.0976 21.7071 11.7071C22.0976 11.3166 22.0976 10.6834 21.7071 10.2929L14.041 2.62671C13.5922 2.1775 13.2531 1.83807 12.8474 1.58944C12.4895 1.37013 12.0993 1.20851 11.6911 1.11052C11.2284 0.999439 10.7487 0.999668 10.1137 0.99997L6 1C5.44772 1 5 1.44772 5 2C5 2.55229 5.44772 3 6 3H10.0118Z"
        fill="#303233" />
    <path fill-rule="evenodd" clip-rule="evenodd"
        d="M9.6912 5.11052C9.22851 4.99944 8.74872 4.99967 8.11372 4.99997L6.16152 5C5.63438 4.99998 5.1796 4.99997 4.80504 5.03057C4.40969 5.06287 4.01647 5.13419 3.63809 5.32698C3.07361 5.6146 2.61466 6.07354 2.32704 6.63803C2.13425 7.01641 2.06293 7.40963 2.03063 7.80497C2.00003 8.17955 2.00004 8.63431 2.00006 9.16146L2.00003 11.1137C1.99973 11.7487 1.9995 12.2284 2.11058 12.6911C2.20857 13.0993 2.37019 13.4895 2.5895 13.8474C2.83813 14.2531 3.17756 14.5922 3.62678 15.041L9.60586 21.02C10.0571 21.4712 10.4379 21.8521 10.7753 22.1386C11.1287 22.4386 11.4999 22.6934 11.9494 22.8395C12.6323 23.0614 13.3679 23.0614 14.0507 22.8395C14.5003 22.6934 14.8714 22.4386 15.2248 22.1386C15.5622 21.8521 15.943 21.4713 16.3941 21.0202L18.0201 19.3942C18.4713 18.943 18.8521 18.5622 19.1386 18.2247C19.4386 17.8713 19.6935 17.5002 19.8395 17.0507C20.0614 16.3678 20.0614 15.6322 19.8395 14.9493C19.6935 14.4998 19.4386 14.1287 19.1386 13.7753C18.8521 13.4378 18.4713 13.057 18.0201 12.6058L12.041 6.62671C11.5922 6.1775 11.2531 5.83806 10.8474 5.58944C10.4895 5.37013 10.0993 5.20851 9.6912 5.11052ZM8.01184 7C8.79321 7 9.02091 7.00643 9.22431 7.05526C9.42839 7.10426 9.62347 7.18506 9.80242 7.29472C9.98078 7.40402 10.1463 7.56048 10.6988 8.11299L16.5777 13.9918C17.0646 14.4787 17.3866 14.8019 17.6139 15.0696C17.8336 15.3284 17.9054 15.4689 17.9374 15.5674C18.0288 15.8486 18.0288 16.1514 17.9374 16.4326C17.9054 16.5311 17.8336 16.6716 17.6139 16.9304C17.3866 17.1981 17.0646 17.5213 16.5777 18.0082L15.0082 19.5776C14.5214 20.0645 14.1982 20.3866 13.9304 20.6139C13.6716 20.8336 13.5311 20.9054 13.4327 20.9374C13.1515 21.0287 12.8486 21.0287 12.5674 20.9374C12.469 20.9054 12.3285 20.8336 12.0697 20.6139C11.802 20.3866 11.4788 20.0645 10.9919 19.5776L5.11306 13.6988C4.56055 13.1463 4.40408 12.9807 4.29478 12.8024C4.18513 12.6234 4.10432 12.4283 4.05532 12.2243C4.00649 12.0208 4.00006 11.7931 4.00006 11.0118V9.2C4.00006 8.62345 4.00084 8.25117 4.02399 7.96784C4.04619 7.69617 4.08386 7.59546 4.10906 7.54601C4.20493 7.35785 4.35791 7.20487 4.54607 7.109C4.59552 7.0838 4.69624 7.04612 4.9679 7.02393C5.25124 7.00078 5.62351 7 6.20006 7H8.01184Z"
        fill="#303233" />
</svg>
