<svg width="16" height="16" viewBox="0 0 16 16" fill="none" xmlns="http://www.w3.org/2000/svg">
    <path
        d="M9.73959 2.10199C9.79591 1.83165 9.62242 1.56684 9.35208 1.51052C9.08174 1.4542 8.81693 1.62769 8.76061 1.89803L6.26061 13.898C6.20429 14.1684 6.37779 14.4332 6.64812 14.4895C6.91846 14.5458 7.18327 14.3723 7.23959 14.102L9.73959 2.10199Z"
        fill="#303233" />
    <path
        d="M5.10355 5.10356C5.29882 4.9083 5.29882 4.59172 5.10355 4.39645C4.90829 4.20119 4.59171 4.20119 4.39645 4.39645L1.14645 7.64645C1.05268 7.74022 1 7.8674 1 8.00001C1 8.13262 1.05268 8.25979 1.14645 8.35356L4.39645 11.6036C4.59171 11.7988 4.90829 11.7988 5.10355 11.6036C5.29882 11.4083 5.29882 11.0917 5.10355 10.8965L2.20711 8.00001L5.10355 5.10356Z"
        fill="#303233" />
    <path
        d="M11.6036 4.39645C11.4083 4.20119 11.0917 4.20119 10.8964 4.39645C10.7012 4.59172 10.7012 4.9083 10.8964 5.10356L13.7929 8.00001L10.8964 10.8965C10.7012 11.0917 10.7012 11.4083 10.8964 11.6036C11.0917 11.7988 11.4083 11.7988 11.6036 11.6036L14.8536 8.35356C14.9473 8.25979 15 8.13262 15 8.00001C15 7.8674 14.9473 7.74022 14.8536 7.64645L11.6036 4.39645Z"
        fill="#303233" />
</svg>
