<svg width="16" height="16" viewBox="0 0 16 16" fill="none" xmlns="http://www.w3.org/2000/svg">
    <path fill-rule="evenodd" clip-rule="evenodd"
        d="M7.30072 1.05018C7.09043 0.999695 6.87285 0.999824 6.59776 0.999988L3.58533 1.00001C3.23406 0.999999 2.94047 0.999993 2.70054 1.0196C2.45018 1.04005 2.21456 1.08432 1.99157 1.19794C1.64988 1.37204 1.37207 1.64985 1.19797 1.99154C1.08435 2.21453 1.04008 2.45015 1.01963 2.70051C1.00002 2.94044 1.00003 3.23403 1.00004 3.5853L1.00002 6.59772C0.999855 6.87282 0.999726 7.0904 1.05021 7.30069C1.0947 7.48598 1.16807 7.66312 1.26764 7.8256C1.38064 8.01 1.53458 8.16375 1.72921 8.35816L6.82414 13.4531C7.20216 13.8311 7.50735 14.1363 7.77474 14.3633C8.05016 14.5971 8.31821 14.7772 8.63134 14.8789C9.12821 15.0404 9.66344 15.0404 10.1603 14.8789C10.4735 14.7772 10.7415 14.5971 11.0169 14.3633C11.2843 14.1363 11.5895 13.8311 11.9675 13.4531L13.4531 11.9675C13.8311 11.5895 14.1363 11.2843 14.3633 11.0169C14.5971 10.7415 14.7772 10.4734 14.879 10.1603C15.0404 9.66341 15.0404 9.12818 14.879 8.63131C14.7772 8.31818 14.5971 8.05013 14.3633 7.77471C14.1363 7.50732 13.8311 7.20214 13.4531 6.82413L8.35819 1.72918C8.16379 1.53455 8.01003 1.38061 7.82563 1.26761C7.66315 1.16804 7.48601 1.09467 7.30072 1.05018ZM5.5 4.5C4.94771 4.5 4.5 4.94772 4.5 5.5C4.5 6.05228 4.94771 6.5 5.5 6.5C6.05228 6.5 6.5 6.05228 6.5 5.5C6.5 4.94771 6.05228 4.5 5.5 4.5Z"
        fill="#303233" />
</svg>
