<svg width="24" height="24" viewBox="0 0 24 24" fill="none" xmlns="http://www.w3.org/2000/svg">
    <path
        d="M15.2413 0.999999H8.7587C7.95374 0.999986 7.28937 0.999976 6.74818 1.04419C6.18608 1.09012 5.66937 1.18868 5.18404 1.43597C4.43139 1.81947 3.81947 2.43139 3.43598 3.18404C3.18868 3.66937 3.09012 4.18608 3.04419 4.74817C2.99998 5.28937 2.99999 5.95372 3 6.75868V17.2413C2.99999 18.0463 2.99998 18.7106 3.04419 19.2518C3.09012 19.8139 3.18868 20.3306 3.43598 20.816C3.81947 21.5686 4.43139 22.1805 5.18404 22.564C5.66937 22.8113 6.18608 22.9099 6.74818 22.9558C7.28937 23 7.95372 23 8.75868 23H14C14.5523 23 15 22.5523 15 22C15 21.4477 14.5523 21 14 21H8.8C7.94342 21 7.36113 20.9992 6.91104 20.9624C6.47262 20.9266 6.24842 20.8617 6.09202 20.782C5.7157 20.5903 5.40973 20.2843 5.21799 19.908C5.1383 19.7516 5.07337 19.5274 5.03755 19.089C5.00078 18.6389 5 18.0566 5 17.2V6.8C5 5.94342 5.00078 5.36113 5.03755 4.91104C5.07337 4.47262 5.1383 4.24842 5.21799 4.09202C5.40973 3.71569 5.7157 3.40973 6.09202 3.21799C6.24842 3.1383 6.47262 3.07337 6.91104 3.03755C7.36113 3.00078 7.94342 3 8.8 3H15.2C16.0566 3 16.6389 3.00078 17.089 3.03755C17.5274 3.07337 17.7516 3.1383 17.908 3.21799C18.2843 3.40973 18.5903 3.71569 18.782 4.09202C18.8617 4.24842 18.9266 4.47262 18.9624 4.91104C18.9992 5.36113 19 5.94342 19 6.8V9.5C19 10.0523 19.4477 10.5 20 10.5C20.5523 10.5 21 10.0523 21 9.5V6.75868C21 5.95372 21 5.28936 20.9558 4.74817C20.9099 4.18608 20.8113 3.66937 20.564 3.18404C20.1805 2.43139 19.5686 1.81947 18.816 1.43597C18.3306 1.18868 17.8139 1.09012 17.2518 1.04419C16.7106 0.999976 16.0463 0.999986 15.2413 0.999999Z"
        fill="#303233" />
    <path
        d="M17.9882 14.6721C18.2424 14.5227 18.5412 14.4681 18.8317 14.518C19.1223 14.5678 19.3858 14.7189 19.5757 14.9444C19.7656 15.1699 19.8695 15.4554 19.869 15.7502V15.7517C19.869 15.9703 19.6918 16.2714 19.1902 16.6059C18.9698 16.7528 18.7422 16.8673 18.5659 16.9457C18.4791 16.9842 18.4082 17.0125 18.3613 17.0304C18.338 17.0393 18.3208 17.0455 18.3109 17.049L18.3016 17.0523C17.7795 17.228 17.4977 17.7932 17.672 18.3162C17.8467 18.8402 18.413 19.1233 18.9369 18.9487C18.8338 18.6393 18.7709 18.4507 18.7366 18.3477C18.8018 18.5431 18.9381 18.9483 18.9381 18.9483L18.9396 18.9478L18.9431 18.9466L18.9525 18.9434L18.981 18.9334C19.004 18.9252 19.0352 18.9139 19.0733 18.8994C19.1494 18.8704 19.2541 18.8284 19.3781 18.7733C19.6233 18.6643 19.9579 18.4978 20.2996 18.27C20.9219 17.8551 21.8686 17.0324 21.869 15.7526C21.87 14.9857 21.5997 14.2431 21.1058 13.6564C20.6117 13.0695 19.9259 12.6764 19.1699 12.5468C18.4138 12.4171 17.6362 12.5592 16.9748 12.9478C16.3135 13.3365 15.811 13.9467 15.5564 14.6704C15.3732 15.1914 15.647 15.7623 16.1679 15.9456C16.6889 16.1288 17.2598 15.8551 17.4431 15.3341C17.5409 15.056 17.734 14.8215 17.9882 14.6721Z"
        fill="#303233" />
    <path
        d="M18.6498 20C18.0975 20 17.6498 20.4477 17.6498 21C17.6498 21.5523 18.0975 22 18.6498 22H18.6598C19.2121 22 19.6598 21.5523 19.6598 21C19.6598 20.4477 19.2121 20 18.6598 20H18.6498Z"
        fill="#303233" />
</svg>
