<svg width="16" height="16" viewBox="0 0 16 16" fill="none" xmlns="http://www.w3.org/2000/svg">
    <path
        d="M6.5 8C6.5 7.17157 7.17157 6.5 8 6.5C8.82843 6.5 9.5 7.17157 9.5 8C9.5 8.82843 8.82843 9.5 8 9.5C7.17157 9.5 6.5 8.82843 6.5 8Z"
        fill="#303233" />
    <path fill-rule="evenodd" clip-rule="evenodd"
        d="M10.2306 0.75H5.76942C5.21789 0.74999 4.75893 0.749982 4.38428 0.780592C3.99397 0.812481 3.6296 0.881295 3.28565 1.05655C2.75645 1.32619 2.32619 1.75645 2.05655 2.28565C1.8813 2.6296 1.81248 2.99397 1.78059 3.38428C1.74998 3.75893 1.74999 4.21787 1.75 4.76941V11.2306C1.74999 11.7821 1.74998 12.2411 1.78059 12.6157C1.81248 13.006 1.8813 13.3704 2.05655 13.7143C2.32619 14.2436 2.75645 14.6738 3.28565 14.9435C3.6296 15.1187 3.99397 15.1875 4.38428 15.2194C4.75893 15.25 5.21787 15.25 5.7694 15.25H10.2306C10.7821 15.25 11.2411 15.25 11.6157 15.2194C12.006 15.1875 12.3704 15.1187 12.7143 14.9435C13.2436 14.6738 13.6738 14.2436 13.9435 13.7143C14.1187 13.3704 14.1875 13.006 14.2194 12.6157C14.25 12.2411 14.25 11.7821 14.25 11.2306V4.7694C14.25 4.21787 14.25 3.75893 14.2194 3.38428C14.1875 2.99397 14.1187 2.6296 13.9435 2.28565C13.6738 1.75645 13.2436 1.32619 12.7143 1.05655C12.3704 0.881295 12.006 0.812481 11.6157 0.780592C11.2411 0.749982 10.7821 0.74999 10.2306 0.75ZM8 5C6.34315 5 5 6.34315 5 8C5 9.65685 6.34315 11 8 11C8.55636 11 9.07734 10.8486 9.52398 10.5846L10.2197 11.2803C10.5126 11.5732 10.9874 11.5732 11.2803 11.2803C11.5732 10.9874 11.5732 10.5126 11.2803 10.2197L10.5846 9.52398C10.8486 9.07734 11 8.55636 11 8C11 6.34315 9.65685 5 8 5Z"
        fill="#303233" />
</svg>
