<svg width="16" height="16" viewBox="0 0 16 16" fill="none" xmlns="http://www.w3.org/2000/svg">
    <path fill-rule="evenodd" clip-rule="evenodd"
        d="M8 2C4.68629 2 2 4.68629 2 8C2 11.3137 4.68629 14 8 14C11.3137 14 14 11.3137 14 8C14 4.68629 11.3137 2 8 2ZM1 8C1 4.13401 4.13401 1 8 1C11.866 1 15 4.13401 15 8C15 11.866 11.866 15 8 15C4.13401 15 1 11.866 1 8ZM5.55 6.7C5.55 5.3469 6.6469 4.25 8 4.25C9.3531 4.25 10.45 5.3469 10.45 6.7C10.45 7.40842 10.1487 8.04723 9.66869 8.49389C9.63449 8.5257 9.60703 8.5513 9.58457 8.57248C9.58914 8.58629 9.5942 8.60146 9.59986 8.61843L10.2014 10.423C10.2354 10.5249 10.2706 10.6304 10.2922 10.722C10.3156 10.8208 10.3396 10.9652 10.2992 11.1259C10.2479 11.3303 10.1204 11.5073 9.94273 11.6206C9.80306 11.7096 9.6584 11.7325 9.55734 11.7416C9.46358 11.75 9.35233 11.75 9.24495 11.75H6.75505C6.64767 11.75 6.53642 11.75 6.44266 11.7416C6.3416 11.7325 6.19694 11.7096 6.05727 11.6206C5.87963 11.5073 5.75207 11.3303 5.70075 11.1259C5.66041 10.9652 5.68444 10.8208 5.70778 10.722C5.72943 10.6304 5.76464 10.5249 5.79861 10.423L6.40014 8.61843C6.4058 8.60146 6.41086 8.58629 6.41543 8.57248C6.39298 8.5513 6.36551 8.5257 6.33131 8.49388C5.85132 8.04723 5.55 7.40842 5.55 6.7ZM9.55397 8.47324C9.55398 8.47325 9.55411 8.47378 9.55431 8.47481L9.55397 8.47324ZM8 5.25C7.19919 5.25 6.55 5.89919 6.55 6.7C6.55 7.1193 6.72732 7.49641 7.01254 7.76181L7.01967 7.76845C7.08277 7.82716 7.14165 7.88195 7.18735 7.92837C7.22872 7.9704 7.29938 8.04433 7.34952 8.141C7.37236 8.18504 7.3995 8.2436 7.41809 8.31647C7.43668 8.38933 7.44091 8.45374 7.44196 8.50334C7.44406 8.60238 7.42432 8.68769 7.40825 8.7465C7.39323 8.80152 7.37215 8.86471 7.35194 8.92533L6.75249 10.7237C6.74946 10.7327 6.74654 10.7415 6.74372 10.75C6.75266 10.75 6.7619 10.75 6.77146 10.75H9.22854C9.2381 10.75 9.24734 10.75 9.25628 10.75C9.25346 10.7415 9.25053 10.7327 9.24751 10.7237L8.64807 8.92536C8.62786 8.86474 8.60678 8.80153 8.59175 8.7465C8.57568 8.68769 8.55594 8.60238 8.55804 8.50334C8.55909 8.45374 8.56331 8.38934 8.58191 8.31647C8.6005 8.2436 8.62764 8.18504 8.65048 8.141C8.70062 8.04433 8.77128 7.97039 8.81265 7.92837C8.85834 7.88195 8.91721 7.82718 8.98029 7.76849L8.98746 7.76181C9.27268 7.49641 9.45 7.1193 9.45 6.7C9.45 5.89919 8.80081 5.25 8 5.25ZM9.32218 10.9677C9.32216 10.9677 9.32203 10.9669 9.32187 10.9655L9.32218 10.9677ZM9.48146 10.7441C9.48286 10.7438 9.48361 10.7437 9.48363 10.7437L9.48146 10.7441ZM6.51637 10.7437C6.5164 10.7437 6.51714 10.7438 6.51853 10.7441L6.51637 10.7437ZM6.67813 10.9655C6.67797 10.9669 6.67784 10.9677 6.67782 10.9677L6.67813 10.9655Z"
        fill="#303233" />
</svg>
