<svg width="24" height="24" viewBox="0 0 24 24" fill="none" xmlns="http://www.w3.org/2000/svg">
    <path fill-rule="evenodd" clip-rule="evenodd"
        d="M8 6C6.34315 6 5 7.34315 5 9C5 10.6569 6.34315 12 8 12C9.65685 12 11 10.6569 11 9C11 7.34315 9.65685 6 8 6ZM7 9C7 8.44772 7.44772 8 8 8C8.55229 8 9 8.44772 9 9C9 9.55229 8.55229 10 8 10C7.44772 10 7 9.55229 7 9Z"
        fill="#303233" />
    <path fill-rule="evenodd" clip-rule="evenodd"
        d="M5 2C2.79086 2 1 3.79086 1 6V18C1 20.2091 2.79086 22 5 22H19C21.2091 22 23 20.2091 23 18V6C23 3.79086 21.2091 2 19 2H5ZM21 13.5858V6C21 4.89543 20.1046 4 19 4H5C3.89543 4 3 4.89543 3 6V17.5858L6.58579 14C7.36684 13.219 8.63317 13.219 9.41421 14L11 15.5858L15.5858 11C16.3668 10.219 17.6332 10.219 18.4142 11L21 13.5858ZM3.80805 19.6062C4.14093 19.8536 4.55337 20 5 20H6.58579L9.58579 17L8 15.4142L3.80805 19.6062ZM9.41421 20H19C20.1046 20 21 19.1046 21 18V16.4142L17 12.4142L9.41421 20Z"
        fill="#303233" />
</svg>
