<svg width="24" height="24" viewBox="0 0 24 24" fill="none" xmlns="http://www.w3.org/2000/svg">
    <path fill-rule="evenodd" clip-rule="evenodd"
        d="M10.1667 2.75C8.55584 2.75 7.25 4.05584 7.25 5.66667V16.5C7.25 19.1234 9.37665 21.25 12 21.25C14.6234 21.25 16.75 19.1234 16.75 16.5V5.25581C16.75 4.8416 17.0858 4.50581 17.5 4.50581C17.9142 4.50581 18.25 4.8416 18.25 5.25581V16.5C18.25 19.9518 15.4518 22.75 12 22.75C8.54822 22.75 5.75 19.9518 5.75 16.5V5.66667C5.75 3.22741 7.72741 1.25 10.1667 1.25C12.6059 1.25 14.5833 3.22741 14.5833 5.66667V16.4457C14.5833 17.8725 13.4267 19.0291 12 19.0291C10.5733 19.0291 9.41667 17.8725 9.41667 16.4457V6.65116C9.41667 6.23695 9.75245 5.90116 10.1667 5.90116C10.5809 5.90116 10.9167 6.23695 10.9167 6.65116V16.4457C10.9167 17.044 11.4017 17.5291 12 17.5291C12.5983 17.5291 13.0833 17.044 13.0833 16.4457V5.66667C13.0833 4.05584 11.7775 2.75 10.1667 2.75Z"
        fill="#303233" />
</svg>
