<svg width="24" height="24" viewBox="0 0 24 24" fill="none" xmlns="http://www.w3.org/2000/svg">
    <path fill-rule="evenodd" clip-rule="evenodd"
        d="M12 1.25C6.06294 1.25 1.25 6.06294 1.25 12C1.25 17.9371 6.06294 22.75 12 22.75C17.9371 22.75 22.75 17.9371 22.75 12C22.75 6.06294 17.9371 1.25 12 1.25ZM11.25 8C11.25 7.58579 11.5858 7.25 12 7.25H12.01C12.4242 7.25 12.76 7.58579 12.76 8C12.76 8.41421 12.4242 8.75 12.01 8.75H12C11.5858 8.75 11.25 8.41421 11.25 8ZM12 11.25C12.4142 11.25 12.75 11.5858 12.75 12V16C12.75 16.4142 12.4142 16.75 12 16.75C11.5858 16.75 11.25 16.4142 11.25 16V12C11.25 11.5858 11.5858 11.25 12 11.25Z"
        fill="#303233" />
</svg>
