<svg width="16" height="16" viewBox="0 0 16 16" fill="none" xmlns="http://www.w3.org/2000/svg">
    <path fill-rule="evenodd" clip-rule="evenodd"
        d="M7.56964 1.72699C7.84188 1.59719 8.15816 1.59719 8.4304 1.72699C8.64602 1.82979 8.7773 2.01442 8.86496 2.15761C8.95417 2.30331 9.04913 2.49573 9.15596 2.71219L10.2709 4.97097C10.3073 5.04467 10.3259 5.08195 10.3408 5.1083L10.342 5.11043L10.3444 5.11092C10.374 5.11694 10.4152 5.12314 10.4965 5.13503L12.9912 5.49965C13.2299 5.53454 13.4422 5.56555 13.6082 5.60548C13.7715 5.64473 13.9875 5.71269 14.1518 5.88606C14.3592 6.10497 14.4567 6.40578 14.4172 6.70474C14.3859 6.9415 14.2509 7.1233 14.1417 7.25086C14.0307 7.38063 13.877 7.53029 13.7042 7.69864L11.9003 9.4556C11.8414 9.51303 11.8116 9.54227 11.7911 9.56458L11.7894 9.56639L11.7897 9.56883C11.7932 9.59893 11.8 9.64009 11.814 9.72122L12.2395 12.2024C12.2803 12.4404 12.3166 12.6519 12.3301 12.8222C12.3434 12.9896 12.3457 13.2162 12.2317 13.4262C12.0877 13.6912 11.8318 13.8771 11.5352 13.9321C11.3003 13.9756 11.0855 13.9034 10.9304 13.839C10.7726 13.7735 10.5826 13.6736 10.3689 13.5612L8.13966 12.3889C8.06682 12.3506 8.02981 12.3313 8.00226 12.3187L8.00002 12.3177L7.99778 12.3187C7.97023 12.3313 7.93322 12.3506 7.86038 12.3889L5.63113 13.5612C5.41741 13.6736 5.22745 13.7735 5.06961 13.839C4.91451 13.9034 4.69975 13.9756 4.46484 13.9321C4.16826 13.8771 3.91234 13.6912 3.76837 13.4262C3.65434 13.2162 3.65667 12.9896 3.66992 12.8222C3.68341 12.6519 3.71971 12.4404 3.76054 12.2024L4.18609 9.72122C4.2 9.64009 4.20688 9.59893 4.21034 9.56883L4.21062 9.56639L4.20896 9.56458C4.18846 9.54227 4.15869 9.51303 4.09972 9.4556L2.29586 7.69864C2.123 7.53029 1.96933 7.38063 1.8583 7.25086C1.74917 7.1233 1.6141 6.9415 1.58283 6.70474C1.54335 6.40578 1.64089 6.10497 1.84828 5.88606C2.01253 5.71269 2.22858 5.64473 2.39179 5.60548C2.55786 5.56555 2.77011 5.53454 3.00889 5.49966L5.5035 5.13503C5.58482 5.12314 5.62602 5.11694 5.65567 5.11092L5.65807 5.11043L5.65928 5.1083C5.67415 5.08195 5.69274 5.04467 5.72912 4.97097L6.84407 2.7122C6.95091 2.49574 7.04587 2.30332 7.13508 2.15761C7.22275 2.01442 7.35402 1.82979 7.56964 1.72699Z"
        fill="#303233" />
</svg>
