<svg width="16" height="16" viewBox="0 0 16 16" fill="none" xmlns="http://www.w3.org/2000/svg">
    <path fill-rule="evenodd" clip-rule="evenodd"
        d="M1.75 8C1.75 6.75736 2.75736 5.75 4 5.75H12C13.2426 5.75 14.25 6.75736 14.25 8V13C14.25 14.2426 13.2426 15.25 12 15.25H4C2.75736 15.25 1.75 14.2426 1.75 13V8ZM8.53033 0.96967C8.23744 0.676777 7.76256 0.676777 7.46967 0.96967L4.96967 3.46967C4.67678 3.76256 4.67678 4.23744 4.96967 4.53033C5.26256 4.82322 5.73744 4.82322 6.03033 4.53033L7.25 3.31066V10C7.25 10.4142 7.58579 10.75 8 10.75C8.41421 10.75 8.75 10.4142 8.75 10V3.31066L9.96967 4.53033C10.2626 4.82322 10.7374 4.82322 11.0303 4.53033C11.3232 4.23744 11.3232 3.76256 11.0303 3.46967L8.53033 0.96967Z"
        fill="#303233" />
</svg>
