<svg width="24" height="24" viewBox="0 0 24 24" fill="none" xmlns="http://www.w3.org/2000/svg">
    <path
        d="M6.34119 6.34511C7.79015 4.89514 9.78959 4 12 4C16.4183 4 20 7.58172 20 12C20 15.806 17.3412 18.9934 13.7787 19.8018C13.2401 19.924 12.9026 20.4597 13.0248 20.9983C13.147 21.5369 13.6827 21.8744 14.2213 21.7522C18.6747 20.7416 22 16.7603 22 12C22 6.47715 17.5228 2 12 2C9.2376 2 6.73522 3.12139 4.92649 4.93138C4.28685 5.57146 3.60188 6.36248 3 7.09444V4C3 3.44772 2.55228 3 2 3C1.44772 3 1 3.44772 1 4V10C1 10.5523 1.44772 11 2 11H8C8.55228 11 9 10.5523 9 10C9 9.44772 8.55228 9 8 9H4.03079C4.72302 8.13128 5.58346 7.10335 6.34119 6.34511Z"
        fill="#303233" />
    <path
        d="M6.96777 15.3461H10.5136V14H5.56695V18.684H7.03343C7.12098 18.4286 7.2669 18.2243 7.47119 18.0711C7.67547 17.9179 7.93083 17.8413 8.23726 17.8413C8.66772 17.8413 8.99239 17.9617 9.21127 18.2025C9.43744 18.4359 9.55053 18.7788 9.55053 19.2312C9.55053 19.6762 9.44109 20.0337 9.22221 20.3037C9.00333 20.5736 8.67867 20.7086 8.24821 20.7086C7.8907 20.7086 7.59522 20.6211 7.36175 20.446C7.13557 20.2709 6.98966 20.0374 6.92399 19.7456H5.43562C5.50128 20.4168 5.78218 20.9603 6.2783 21.3762C6.77442 21.7921 7.43836 22 8.27009 22C9.1529 22 9.83143 21.7446 10.3057 21.2339C10.7872 20.7232 11.028 20.0483 11.028 19.2093C11.028 18.757 10.9441 18.3338 10.7762 17.9398C10.6084 17.5385 10.3385 17.2102 9.9664 16.9549C9.59431 16.6995 9.11642 16.5718 8.53275 16.5718C8.21173 16.5718 7.90894 16.6338 7.6244 16.7579C7.33986 16.8746 7.12098 17.0278 6.96777 17.2175V15.3461Z"
        fill="#303233" />
    <path d="M1 14.0219V15.4337H2.06156V22H3.63748V14.0219H1Z" fill="#303233" />
</svg>
