<svg width="24" height="24" viewBox="0 0 24 24" fill="none" xmlns="http://www.w3.org/2000/svg">
    <path fill-rule="evenodd" clip-rule="evenodd"
        d="M12.0001 3.75C9.41237 3.75 7.07394 4.81163 5.39426 6.52503C5.1043 6.82082 4.62945 6.82554 4.33366 6.53557C4.03787 6.24561 4.03315 5.77076 4.32311 5.47497C6.27328 3.48564 8.99308 2.25 12.0001 2.25C15.0072 2.25 17.727 3.48564 19.6771 5.47497C19.9671 5.77076 19.9624 6.24561 19.6666 6.53557C19.3708 6.82554 18.8959 6.82082 18.606 6.52503C16.9263 4.81163 14.5879 3.75 12.0001 3.75ZM12.0001 7.75C10.4453 7.75 9.04911 8.42493 8.08673 9.50019C7.81048 9.80883 7.33634 9.8351 7.02769 9.55885C6.71905 9.28261 6.69278 8.80846 6.96903 8.49981C8.20393 7.12008 10.0009 6.25 12.0001 6.25C13.9993 6.25 15.7963 7.12008 17.0312 8.49981C17.3074 8.80846 17.2811 9.28261 16.9725 9.55885C16.6638 9.8351 16.1897 9.80883 15.9135 9.50019C14.9511 8.42493 13.5549 7.75 12.0001 7.75ZM12 13.75C9.12932 13.75 6.43457 14.4937 4.09563 15.7985C3.80678 15.9596 3.71705 16.0112 3.56259 16.1394C3.2207 16.4233 2.8695 17.0214 2.7881 17.4583C2.75256 17.6491 2.75005 17.8123 2.75005 18.3062V18.5044C2.75005 19.0006 2.75362 19.1401 2.77365 19.2417C2.87173 19.7393 3.26073 20.1283 3.7583 20.2264C3.85992 20.2464 3.99946 20.25 4.49565 20.25H4.74061C4.99126 20.25 5.06208 20.2491 5.11408 20.2439C5.7073 20.1854 6.17662 19.7161 6.2352 19.1228C6.24033 19.0708 6.24125 19 6.24125 18.7494L6.24124 18.7369C6.24121 18.6804 6.24118 18.6188 6.24647 18.5505C6.29483 17.9257 6.71214 17.3369 7.28561 17.0842C7.34777 17.0568 7.39377 17.0406 7.43662 17.0256L7.44211 17.0237C8.86948 16.5223 10.4038 16.25 12 16.25C13.5963 16.25 15.1306 16.5223 16.558 17.0237L16.5635 17.0256C16.6063 17.0406 16.6523 17.0568 16.7145 17.0842C17.2879 17.3369 17.7053 17.9257 17.7536 18.5505C17.7589 18.6188 17.7589 18.6804 17.7588 18.7369L17.7588 18.7494C17.7588 19 17.7598 19.0708 17.7649 19.1228C17.8235 19.7161 18.2928 20.1854 18.886 20.2439C18.938 20.2491 19.0088 20.25 19.2595 20.25H19.5044C20.0006 20.25 20.1402 20.2464 20.2418 20.2264C20.7394 20.1283 21.1284 19.7393 21.2264 19.2417C21.2465 19.1401 21.25 19.0006 21.25 18.5044V18.3062C21.25 17.8123 21.2475 17.6491 21.212 17.4583C21.1306 17.0214 20.7794 16.4233 20.4375 16.1394C20.283 16.0112 20.1933 15.9596 19.9045 15.7985C17.5655 14.4937 14.8708 13.75 12 13.75ZM3.36488 14.4885C5.92146 13.0624 8.86701 12.25 12 12.25C15.1331 12.25 18.0786 13.0624 20.6352 14.4885L20.6518 14.4978C20.9323 14.6542 21.1292 14.764 21.3958 14.9854C22.0072 15.4932 22.5411 16.4023 22.6866 17.1836C22.7502 17.5249 22.7501 17.8273 22.7501 18.2578C22.75 18.2738 22.75 18.2899 22.75 18.3062V18.5044C22.75 18.5289 22.7501 18.5532 22.7501 18.577C22.7503 18.9663 22.7504 19.2666 22.6981 19.5318C22.4824 20.6265 21.6266 21.4823 20.5319 21.6981C20.2667 21.7504 19.9664 21.7502 19.5771 21.75C19.5532 21.75 19.529 21.75 19.5044 21.75H19.2595C19.2471 21.75 19.2349 21.75 19.2228 21.75C19.026 21.7501 18.8744 21.7501 18.7386 21.7367C17.4335 21.6078 16.401 20.5753 16.2722 19.2702C16.2588 19.1345 16.2588 18.9829 16.2588 18.7861C16.2588 18.774 16.2588 18.7618 16.2588 18.7494C16.2588 18.713 16.2588 18.6946 16.2586 18.6805C16.2584 18.6696 16.2581 18.667 16.2581 18.6663C16.2524 18.5926 16.1773 18.4866 16.1097 18.4568C16.1044 18.4545 16.1026 18.4538 16.1 18.4529L16.0874 18.4483L16.0609 18.4389C14.7911 17.9929 13.4247 17.75 12 17.75C10.5754 17.75 9.20904 17.9929 7.9392 18.4389L7.91268 18.4483L7.90006 18.4529C7.89744 18.4538 7.89571 18.4545 7.89044 18.4568C7.82276 18.4866 7.7477 18.5926 7.74199 18.6663C7.74197 18.6666 7.74191 18.6672 7.74184 18.6688C7.74174 18.6708 7.74162 18.6743 7.74151 18.6805C7.74127 18.6946 7.74125 18.713 7.74125 18.7494C7.74125 18.7618 7.74125 18.774 7.74125 18.7861C7.7413 18.9829 7.74134 19.1345 7.72794 19.2702C7.59907 20.5753 6.56657 21.6078 5.26147 21.7367C5.12574 21.7501 4.97411 21.7501 4.77729 21.75C4.76524 21.75 4.75301 21.75 4.74061 21.75H4.49565C4.47109 21.75 4.44687 21.75 4.42299 21.75C4.03374 21.7502 3.73343 21.7504 3.46821 21.6981C2.37354 21.4823 1.51774 20.6265 1.30196 19.5318C1.24968 19.2666 1.24983 18.9663 1.25002 18.577C1.25003 18.5532 1.25005 18.529 1.25005 18.5044V18.3062C1.25005 18.2899 1.25004 18.2738 1.25004 18.2578C1.24995 17.8273 1.24989 17.5249 1.31347 17.1836C1.45903 16.4023 1.99289 15.4932 2.60429 14.9854C2.8709 14.764 3.06782 14.6542 3.34828 14.4978L3.36488 14.4885Z"
        fill="#303233" />
</svg>
