<svg width="24" height="24" viewBox="0 0 24 24" fill="none" xmlns="http://www.w3.org/2000/svg">
    <g clip-path="url(#clip0_3668_63)">
        <path
            d="M14.7071 7.29289C14.3166 6.90237 13.6834 6.90237 13.2929 7.29289C12.9024 7.68342 12.9024 8.31658 13.2929 8.70711L14.5858 10H11C8.23858 10 6 12.2386 6 15C6 15.5523 6.44772 16 7 16C7.55228 16 8 15.5523 8 15C8 13.3431 9.34315 12 11 12H14.5858L13.2929 13.2929C12.9024 13.6834 12.9024 14.3166 13.2929 14.7071C13.6834 15.0976 14.3166 15.0976 14.7071 14.7071L17.7071 11.7071C18.0976 11.3166 18.0976 10.6834 17.7071 10.2929L14.7071 7.29289Z"
            fill="#303233" />
        <path fill-rule="evenodd" clip-rule="evenodd"
            d="M12 0C5.37258 0 0 5.37258 0 12C0 18.6274 5.37258 24 12 24C18.6274 24 24 18.6274 24 12C24 5.37258 18.6274 0 12 0ZM2 12C2 6.47715 6.47715 2 12 2C17.5228 2 22 6.47715 22 12C22 17.5228 17.5228 22 12 22C6.47715 22 2 17.5228 2 12Z"
            fill="#303233" />
    </g>
    <defs>
        <clipPath id="clip0_3668_63">
            <rect width="24" height="24" fill="white" />
        </clipPath>
    </defs>
</svg>
