<svg width="16" height="16" viewBox="0 0 16 16" fill="none" xmlns="http://www.w3.org/2000/svg">
    <path fill-rule="evenodd" clip-rule="evenodd"
        d="M11.3214 2H4.6786C4.1367 2 3.69963 1.99999 3.34569 2.02891C2.98126 2.05868 2.66117 2.12159 2.36502 2.27248C1.89462 2.51217 1.51217 2.89462 1.27248 3.36502C1.12159 3.66117 1.05868 3.98126 1.02891 4.34569C0.999991 4.69963 0.999995 5.1367 1 5.67859V10.3214C0.999995 10.8633 0.999991 11.3004 1.02891 11.6543C1.05868 12.0187 1.12159 12.3388 1.27248 12.635C1.51217 13.1054 1.89462 13.4878 2.36502 13.7275C2.66117 13.8784 2.98126 13.9413 3.34569 13.9711C3.69961 14 4.13667 14 4.67853 14H11.3214C11.8633 14 12.3004 14 12.6543 13.9711C13.0187 13.9413 13.3388 13.8784 13.635 13.7275C14.1054 13.4878 14.4878 13.1054 14.7275 12.635C14.8784 12.3388 14.9413 12.0187 14.9711 11.6543C15 11.3004 15 10.8633 15 10.3215V5.67858C15 5.13672 15 4.69961 14.9711 4.34569C14.9413 3.98126 14.8784 3.66117 14.7275 3.36502C14.4878 2.89462 14.1054 2.51217 13.635 2.27248C13.3388 2.12159 13.0187 2.05868 12.6543 2.02891C12.3004 1.99999 11.8633 2 11.3214 2ZM2.81901 3.16349C2.95069 3.0964 3.12454 3.05031 3.42712 3.02559C3.73554 3.00039 4.1317 3 4.7 3H11.3C11.8683 3 12.2645 3.00039 12.5729 3.02559C12.8755 3.05031 13.0493 3.0964 13.181 3.16349C13.4632 3.3073 13.6927 3.53677 13.8365 3.81901C13.9036 3.95069 13.9497 4.12454 13.9744 4.42712C13.9996 4.73554 14 5.1317 14 5.7V10.3C14 10.8683 13.9996 11.2645 13.9744 11.5729C13.9497 11.8755 13.9036 12.0493 13.8365 12.181C13.6927 12.4632 13.4632 12.6927 13.181 12.8365C13.0493 12.9036 12.8755 12.9497 12.5729 12.9744C12.2645 12.9996 11.8683 13 11.3 13H4.7C4.1317 13 3.73554 12.9996 3.42712 12.9744C3.12454 12.9497 2.95069 12.9036 2.81901 12.8365C2.53677 12.6927 2.3073 12.4632 2.16349 12.181C2.0964 12.0493 2.05031 11.8755 2.02559 11.5729C2.00039 11.2645 2 10.8683 2 10.3V5.7C2 5.1317 2.00039 4.73554 2.02559 4.42712C2.05031 4.12454 2.0964 3.95069 2.16349 3.81901C2.3073 3.53677 2.53677 3.3073 2.81901 3.16349Z"
        fill="#303233" />
    <path fill-rule="evenodd" clip-rule="evenodd"
        d="M3.5 11C3.5 10.7239 3.72386 10.5 4 10.5H5C5.27614 10.5 5.5 10.7239 5.5 11C5.5 11.2761 5.27614 11.5 5 11.5H4C3.72386 11.5 3.5 11.2761 3.5 11Z"
        fill="#303233" />
    <path fill-rule="evenodd" clip-rule="evenodd"
        d="M10.5 8.5C10.5 8.22386 10.7239 8 11 8H12C12.2761 8 12.5 8.22386 12.5 8.5C12.5 8.77614 12.2761 9 12 9H11C10.7239 9 10.5 8.77614 10.5 8.5Z"
        fill="#303233" />
    <path fill-rule="evenodd" clip-rule="evenodd"
        d="M7 11C7 10.7239 7.22386 10.5 7.5 10.5H12C12.2761 10.5 12.5 10.7239 12.5 11C12.5 11.2761 12.2761 11.5 12 11.5H7.5C7.22386 11.5 7 11.2761 7 11Z"
        fill="#303233" />
    <path fill-rule="evenodd" clip-rule="evenodd"
        d="M3.5 8.5C3.5 8.22386 3.72386 8 4 8H8.5C8.77614 8 9 8.22386 9 8.5C9 8.77614 8.77614 9 8.5 9H4C3.72386 9 3.5 8.77614 3.5 8.5Z"
        fill="#303233" />
</svg>
