<svg width="16" height="16" viewBox="0 0 16 16" fill="none" xmlns="http://www.w3.org/2000/svg">
    <path fill-rule="evenodd" clip-rule="evenodd"
        d="M6.75 5C6.75 2.92893 8.42893 1.25 10.5 1.25C12.5711 1.25 14.25 2.92893 14.25 5C14.25 7.07107 12.5711 8.75 10.5 8.75C8.42893 8.75 6.75 7.07107 6.75 5ZM10.5 2.75C9.25736 2.75 8.25 3.75736 8.25 5C8.25 6.24264 9.25736 7.25 10.5 7.25C11.7426 7.25 12.75 6.24264 12.75 5C12.75 3.75736 11.7426 2.75 10.5 2.75Z"
        fill="#303233" />
    <path fill-rule="evenodd" clip-rule="evenodd"
        d="M4 2.75C4.31264 2.75 4.59248 2.94393 4.70225 3.23666L7.70225 11.2367C7.78862 11.467 7.75656 11.725 7.61645 11.9272C7.47634 12.1294 7.24599 12.25 7 12.25H1C0.75402 12.25 0.523672 12.1294 0.38356 11.9272C0.243449 11.725 0.211386 11.467 0.297757 11.2367L3.29776 3.23666C3.40753 2.94393 3.68737 2.75 4 2.75ZM5.91775 10.75L4 5.636L2.08225 10.75H5.91775Z"
        fill="#303233" />
    <path fill-rule="evenodd" clip-rule="evenodd"
        d="M10 9.25C9.58579 9.25 9.25 9.58579 9.25 10V14C9.25 14.4142 9.58579 14.75 10 14.75H15C15.4142 14.75 15.75 14.4142 15.75 14V10C15.75 9.58579 15.4142 9.25 15 9.25H10ZM10.75 13.25V10.75H14.25V13.25H10.75Z"
        fill="#303233" />
</svg>
