<svg width="16" height="16" viewBox="0 0 16 16" fill="none" xmlns="http://www.w3.org/2000/svg">
    <path fill-rule="evenodd" clip-rule="evenodd"
        d="M2.53082 1.46967C2.23793 1.17678 1.76305 1.17678 1.47016 1.46967C1.17726 1.76256 1.17726 2.23744 1.47016 2.53033L3.41757 4.47774C3.40458 4.48818 3.39165 4.49864 3.37876 4.50911C2.22829 5.44396 1.44001 6.52445 1.04502 7.13337L1.02839 7.15888C0.951213 7.27694 0.840051 7.447 0.784138 7.6845C0.738621 7.87784 0.738621 8.12215 0.784138 8.31549C0.840051 8.55299 0.951213 8.72305 1.02839 8.84111L1.04502 8.86662C1.44001 9.47554 2.22829 10.556 3.37876 11.4909C4.53144 12.4275 6.08906 13.25 8 13.25C9.26457 13.25 10.3744 12.8898 11.3146 12.3747L13.4702 14.5303C13.7631 14.8232 14.2379 14.8232 14.5308 14.5303C14.8237 14.2374 14.8237 13.7626 14.5308 13.4697L2.53082 1.46967ZM9.34117 10.4013L8.17734 9.23751C8.11941 9.24574 8.0602 9.25 8 9.25C7.30964 9.25 6.75 8.69035 6.75 8C6.75 7.93979 6.75426 7.88058 6.76248 7.82265L5.59865 6.65882C5.37659 7.05558 5.25 7.513 5.25 8C5.25 9.51878 6.48122 10.75 8 10.75C8.48699 10.75 8.94442 10.6234 9.34117 10.4013Z"
        fill="#303233" />
    <path
        d="M8.00024 2.75C7.67865 2.75 7.36612 2.77338 7.06309 2.817C6.78036 2.8577 6.5453 3.05545 6.45683 3.32705C6.36835 3.59864 6.44183 3.89691 6.64634 4.09632L7.83451 5.2549C7.88925 5.25165 7.94444 5.25 8 5.25C9.51878 5.25 10.75 6.48122 10.75 8C10.75 8.03219 10.7494 8.06426 10.7484 8.09618L12.9016 10.1958C13.0499 10.3404 13.2513 10.4172 13.4581 10.4081C13.665 10.3991 13.8589 10.3049 13.9939 10.1479C14.4167 9.65623 14.7368 9.20265 14.9491 8.87606L14.9541 8.86827L14.971 8.84247C15.0484 8.72401 15.1601 8.55328 15.2161 8.31569C15.2616 8.12234 15.2616 7.87796 15.2161 7.6846C15.1602 7.44706 15.049 7.27697 14.9718 7.15889L14.9552 7.13337C14.5602 6.52446 13.7719 5.44396 12.6215 4.50912C11.4688 3.57247 9.91118 2.75 8.00024 2.75Z"
        fill="#303233" />
</svg>
