<svg width="24" height="24" viewBox="0 0 24 24" fill="none" xmlns="http://www.w3.org/2000/svg">
    <path fill-rule="evenodd" clip-rule="evenodd"
        d="M12 8.75C9.12932 8.75 6.43457 9.49375 4.09563 10.7985C3.80678 10.9596 3.71705 11.0112 3.56259 11.1394C3.2207 11.4233 2.8695 12.0214 2.7881 12.4583C2.75256 12.6491 2.75005 12.8123 2.75005 13.3062V13.5044C2.75005 14.0006 2.75362 14.1401 2.77365 14.2417C2.87173 14.7393 3.26073 15.1283 3.7583 15.2264C3.85992 15.2464 3.99946 15.25 4.49565 15.25H4.74061C4.99126 15.25 5.06208 15.2491 5.11408 15.2439C5.7073 15.1854 6.17662 14.7161 6.2352 14.1228C6.24033 14.0708 6.24125 14 6.24125 13.7494L6.24124 13.7369C6.24121 13.6804 6.24118 13.6188 6.24647 13.5505C6.29483 12.9257 6.71214 12.3369 7.28561 12.0842C7.34777 12.0568 7.39377 12.0406 7.43662 12.0256L7.44211 12.0237C8.86948 11.5223 10.4038 11.25 12 11.25C13.5963 11.25 15.1306 11.5223 16.558 12.0237L16.5635 12.0256C16.6063 12.0406 16.6523 12.0568 16.7145 12.0842C17.2879 12.3369 17.7053 12.9257 17.7536 13.5505C17.7589 13.6188 17.7589 13.6804 17.7588 13.7369L17.7588 13.7494C17.7588 14 17.7598 14.0708 17.7649 14.1228C17.8235 14.7161 18.2928 15.1854 18.886 15.2439C18.938 15.2491 19.0088 15.25 19.2595 15.25H19.5044C20.0006 15.25 20.1402 15.2464 20.2418 15.2264C20.7394 15.1283 21.1284 14.7393 21.2264 14.2417C21.2465 14.1401 21.25 14.0006 21.25 13.5044V13.3062C21.25 12.8123 21.2475 12.6491 21.212 12.4583C21.1306 12.0214 20.7794 11.4233 20.4375 11.1394C20.283 11.0112 20.1933 10.9596 19.9045 10.7985C17.5655 9.49375 14.8708 8.75 12 8.75ZM3.36488 9.48853C5.92146 8.06238 8.86701 7.25 12 7.25C15.1331 7.25 18.0786 8.06237 20.6352 9.48853L20.6518 9.49778C20.9323 9.65421 21.1292 9.76404 21.3958 9.98545C22.0072 10.4932 22.5411 11.4023 22.6866 12.1836C22.7502 12.5249 22.7501 12.8273 22.7501 13.2578C22.75 13.2738 22.75 13.2899 22.75 13.3062V13.5044C22.75 13.5289 22.7501 13.5532 22.7501 13.577C22.7503 13.9663 22.7504 14.2666 22.6981 14.5318C22.4824 15.6265 21.6266 16.4823 20.5319 16.6981C20.2667 16.7504 19.9664 16.7502 19.5771 16.75C19.5532 16.75 19.529 16.75 19.5044 16.75H19.2595C19.2471 16.75 19.2349 16.75 19.2228 16.75C19.026 16.7501 18.8744 16.7501 18.7386 16.7367C17.4335 16.6078 16.401 15.5753 16.2722 14.2702C16.2588 14.1345 16.2588 13.9829 16.2588 13.7861C16.2588 13.774 16.2588 13.7618 16.2588 13.7494C16.2588 13.713 16.2588 13.6946 16.2586 13.6805C16.2584 13.6696 16.2581 13.6663 16.2581 13.6663C16.2524 13.5926 16.1773 13.4866 16.1097 13.4568C16.1044 13.4545 16.1026 13.4538 16.1 13.4529L16.0874 13.4483L16.0609 13.4389C14.7911 12.9929 13.4247 12.75 12 12.75C10.5754 12.75 9.20904 12.9929 7.9392 13.4389L7.91268 13.4483L7.90006 13.4529C7.89744 13.4538 7.89571 13.4545 7.89044 13.4568C7.82276 13.4866 7.7477 13.5926 7.74199 13.6663L7.74184 13.6688C7.74174 13.6708 7.74162 13.6743 7.74151 13.6805C7.74127 13.6946 7.74125 13.713 7.74125 13.7494C7.74125 13.7618 7.74125 13.774 7.74125 13.7861C7.7413 13.9829 7.74134 14.1345 7.72794 14.2702C7.59907 15.5753 6.56657 16.6078 5.26147 16.7367C5.12574 16.7501 4.97411 16.7501 4.77729 16.75C4.76524 16.75 4.75301 16.75 4.74061 16.75H4.49565C4.47109 16.75 4.44687 16.75 4.42299 16.75C4.03374 16.7502 3.73343 16.7504 3.46821 16.6981C2.37354 16.4823 1.51774 15.6265 1.30196 14.5318C1.24968 14.2666 1.24983 13.9663 1.25002 13.577C1.25003 13.5532 1.25005 13.529 1.25005 13.5044V13.3062C1.25005 13.2899 1.25004 13.2738 1.25004 13.2578C1.24995 12.8273 1.24989 12.5249 1.31347 12.1836C1.45903 11.4023 1.99289 10.4932 2.60429 9.98545C2.8709 9.76404 3.06782 9.65422 3.34828 9.49779L3.36488 9.48853Z"
        fill="#303233" />
</svg>
