<svg width="24" height="24" viewBox="0 0 24 24" fill="none" xmlns="http://www.w3.org/2000/svg">
    <path
        d="M18.2071 2.29289C17.8166 1.90237 17.1834 1.90237 16.7929 2.29289C16.4024 2.68342 16.4024 3.31658 16.7929 3.70711L18.5858 5.5H13C12.4477 5.5 12 5.94772 12 6.5C12 7.05228 12.4477 7.5 13 7.5H18.5858L16.7929 9.29289C16.4024 9.68342 16.4024 10.3166 16.7929 10.7071C17.1834 11.0976 17.8166 11.0976 18.2071 10.7071L21.7071 7.20711C22.0976 6.81658 22.0976 6.18342 21.7071 5.79289L18.2071 2.29289Z"
        fill="#303233" />
    <path
        d="M11.2266 12.8632C10.0251 11.6616 9.07627 10.303 8.38028 8.85335C8.32041 8.72866 8.29048 8.66632 8.26748 8.58743C8.18576 8.30707 8.24446 7.96281 8.41447 7.72538C8.46231 7.65857 8.51947 7.60142 8.63378 7.4871C8.98338 7.1375 9.15819 6.96269 9.27247 6.78692C9.70347 6.12403 9.70347 5.26944 9.27247 4.60655C9.15819 4.43078 8.98338 4.25597 8.63378 3.90637L8.43891 3.7115C7.90747 3.18006 7.64174 2.91433 7.35636 2.76999C6.7888 2.48292 6.11854 2.48292 5.55098 2.76999C5.2656 2.91433 4.99987 3.18006 4.46843 3.7115L4.3108 3.86913C3.78118 4.39875 3.51636 4.66357 3.31411 5.0236C3.08969 5.42311 2.92833 6.0436 2.9297 6.50182C2.93092 6.91476 3.01103 7.19698 3.17123 7.76142C4.0322 10.7948 5.65668 13.6572 8.04466 16.0452C10.4326 18.4332 13.295 20.0576 16.3284 20.9186C16.8928 21.0788 17.1751 21.1589 17.588 21.1601C18.0462 21.1615 18.6667 21.0001 19.0662 20.7757C19.4263 20.5735 19.6911 20.3087 20.2207 19.779L20.3783 19.6214C20.9098 19.09 21.1755 18.8242 21.3198 18.5389C21.6069 17.9713 21.6069 17.301 21.3198 16.7335C21.1755 16.4481 20.9098 16.1824 20.3783 15.6509L20.1835 15.4561C19.8339 15.1064 19.6591 14.9316 19.4833 14.8174C18.8204 14.3864 17.9658 14.3864 17.3029 14.8174C17.1271 14.9316 16.9523 15.1064 16.6027 15.4561C16.4884 15.5704 16.4313 15.6275 16.3644 15.6754C16.127 15.8454 15.7828 15.9041 15.5024 15.8224C15.4235 15.7994 15.3612 15.7694 15.2365 15.7096C13.7869 15.0136 12.4282 14.0648 11.2266 12.8632Z"
        fill="#303233" />
</svg>
