<svg width="16" height="16" viewBox="0 0 16 16" fill="none" xmlns="http://www.w3.org/2000/svg">
    <path
        d="M4.33998 3.65855C5.36452 2.6333 6.77888 2 8.34211 2C11.4669 2 14 4.53313 14 7.65789C14 10.3499 12.1194 12.6039 9.59988 13.1756C9.33059 13.2367 9.16182 13.5045 9.22292 13.7738C9.28403 14.0431 9.55187 14.2119 9.82117 14.1508C12.7862 13.478 15 10.8271 15 7.65789C15 3.98084 12.0192 1 8.34211 1C6.50289 1 4.83706 1.74643 3.63263 2.95168C3.08065 3.50405 2.47585 4.22594 2 4.82135V2.18421C2 1.90807 1.77614 1.68421 1.5 1.68421C1.22386 1.68421 1 1.90807 1 2.18421V6.28947C1 6.56562 1.22386 6.78947 1.5 6.78947H5.60526C5.88141 6.78947 6.10526 6.56562 6.10526 6.28947C6.10526 6.01333 5.88141 5.78947 5.60526 5.78947H2.50945C2.57486 5.70581 2.64415 5.61781 2.71663 5.52665C3.19606 4.92352 3.80341 4.19548 4.33998 3.65855Z"
        fill="#303233" />
    <path
        d="M4.75903 9.75239H7.27955V9H3.96902V12.1676H4.7816C4.85684 11.9569 4.97722 11.7914 5.14275 11.671C5.31329 11.5456 5.52146 11.4829 5.76724 11.4829C6.11836 11.4829 6.3842 11.5807 6.56478 11.7763C6.74535 11.9669 6.83564 12.2428 6.83564 12.604C6.83564 12.9601 6.74535 13.246 6.56478 13.4617C6.38922 13.6774 6.12337 13.7852 5.76724 13.7852C5.48133 13.7852 5.24307 13.7175 5.05246 13.5821C4.86186 13.4416 4.73897 13.2535 4.68379 13.0178H3.84863C3.91384 13.4642 4.11197 13.8228 4.44303 14.0937C4.77408 14.3646 5.21298 14.5 5.75971 14.5C6.17102 14.5 6.51712 14.4172 6.79802 14.2517C7.08393 14.0862 7.29711 13.8605 7.43755 13.5746C7.58302 13.2836 7.65575 12.9526 7.65575 12.5814C7.65575 12.2754 7.59806 11.9845 7.4827 11.7086C7.37235 11.4327 7.18425 11.2045 6.9184 11.0239C6.65757 10.8434 6.31649 10.7531 5.89515 10.7531C5.6594 10.7531 5.43619 10.8007 5.22551 10.896C5.01986 10.9913 4.86437 11.1092 4.75903 11.2497V9.75239Z"
        fill="#303233" />
    <path d="M1 9.01505V9.79754H1.69973V14.5H2.56498V9.01505H1Z" fill="#303233" />
</svg>
