<svg width="24" height="24" viewBox="0 0 24 24" fill="none" xmlns="http://www.w3.org/2000/svg">
    <path fill-rule="evenodd" clip-rule="evenodd"
        d="M15.2321 1.25H8.7679H8.76789C7.95505 1.24999 7.29944 1.24999 6.76853 1.29336C6.2219 1.33803 5.74175 1.43239 5.29754 1.65873C4.59193 2.01825 4.01825 2.59193 3.65873 3.29754C3.43239 3.74175 3.33803 4.2219 3.29336 4.76853C3.24999 5.29944 3.24999 5.95505 3.25 6.76789V6.7679V17.2321V17.2321C3.24999 18.0449 3.24999 18.7006 3.29336 19.2315C3.33803 19.7781 3.43239 20.2582 3.65873 20.7025C4.01825 21.4081 4.59193 21.9817 5.29754 22.3413C5.74175 22.5676 6.2219 22.662 6.76853 22.7066C7.29944 22.75 7.95505 22.75 8.76788 22.75H15.2321C16.045 22.75 16.7006 22.75 17.2315 22.7066C17.7781 22.662 18.2582 22.5676 18.7025 22.3413C19.4081 21.9817 19.9817 21.4081 20.3413 20.7025C20.5676 20.2582 20.662 19.7781 20.7066 19.2315C20.75 18.7006 20.75 18.045 20.75 17.2321V6.76788C20.75 5.95505 20.75 5.29944 20.7066 4.76853C20.662 4.2219 20.5676 3.74175 20.3413 3.29754C19.9817 2.59193 19.4081 2.01825 18.7025 1.65873C18.2582 1.43239 17.7781 1.33803 17.2315 1.29336C16.7006 1.24999 16.045 1.24999 15.2321 1.25H15.2321ZM12.75 8.5C12.75 8.08579 13.0858 7.75 13.5 7.75C13.9142 7.75 14.25 8.08579 14.25 8.5V14C14.25 15.2426 13.2426 16.25 12 16.25C10.7574 16.25 9.75 15.2426 9.75 14V10C9.75 9.58579 9.41421 9.25 9 9.25C8.58579 9.25 8.25 9.58579 8.25 10V14C8.25 16.0711 9.92893 17.75 12 17.75C14.0711 17.75 15.75 16.0711 15.75 14V8.5C15.75 7.25736 14.7426 6.25 13.5 6.25C12.2574 6.25 11.25 7.25736 11.25 8.5V14C11.25 14.4142 11.5858 14.75 12 14.75C12.4142 14.75 12.75 14.4142 12.75 14V8.5Z"
        fill="#303233" />
</svg>
