<svg width="16" height="16" viewBox="0 0 16 16" fill="none" xmlns="http://www.w3.org/2000/svg">
    <path
        d="M3 5C3 3.34315 4.34315 2 6 2C7.65685 2 9 3.34315 9 5C9 6.65685 7.65685 8 6 8C4.34315 8 3 6.65685 3 5Z"
        fill="#303233" />
    <path
        d="M0.609607 13.4005C1.11925 10.8899 3.33816 9 5.9996 9C8.66103 9 10.8799 10.8899 11.3896 13.4005C11.4194 13.5476 11.3817 13.7003 11.2867 13.8164C11.1917 13.9326 11.0496 14 10.8996 14H1.09961C0.949566 14 0.80745 13.9326 0.712488 13.8164C0.617526 13.7003 0.579758 13.5476 0.609607 13.4005Z"
        fill="#303233" />
    <path
        d="M13.3536 5.64645C13.1583 5.45118 12.8417 5.45118 12.6464 5.64645L10.6464 7.64645C10.4512 7.84171 10.4512 8.15829 10.6464 8.35355C10.8417 8.54882 11.1583 8.54882 11.3536 8.35355L12.5 7.20711V10C12.5 10.2761 12.7239 10.5 13 10.5C13.2761 10.5 13.5 10.2761 13.5 10V7.20711L14.6464 8.35355C14.8417 8.54882 15.1583 8.54882 15.3536 8.35355C15.5488 8.15829 15.5488 7.84171 15.3536 7.64645L13.3536 5.64645Z"
        fill="#303233" />
</svg>
