<svg width="16" height="16" viewBox="0 0 16 16" fill="none" xmlns="http://www.w3.org/2000/svg">
    <g clip-path="url(#clip0_53_7149)">
        <path fill-rule="evenodd" clip-rule="evenodd"
            d="M8 0.75C3.99594 0.75 0.75 3.99594 0.75 8C0.75 12.0041 3.99594 15.25 8 15.25C12.0041 15.25 15.25 12.0041 15.25 8C15.25 3.99594 12.0041 0.75 8 0.75ZM7.7355 2.25598C4.68264 2.3942 2.25 4.91301 2.25 8C2.25 10.6719 4.07247 12.9182 6.54216 13.5636L6.05183 11.1747L5.19611 10.8894C4.48151 10.6512 3.99951 9.98249 3.99951 9.22924V7.04999C3.99951 6.57068 4.19221 6.13638 4.50436 5.82032C4.3892 5.58671 4.32451 5.32375 4.32451 5.04569C4.32451 4.38121 4.69994 3.77376 5.29427 3.47659L7.7355 2.25598ZM11.0713 12.8619C12.6812 11.8428 13.75 10.0462 13.75 8C13.75 7.76335 13.7357 7.53004 13.7079 7.30089C13.4264 7.68053 13.0036 7.92848 12.5401 7.99202C12.8182 8.47897 12.8507 9.08079 12.6039 9.60527L11.0713 12.8619ZM13.0692 5.2836C12.4468 4.12459 11.4385 3.20365 10.2163 2.69265L5.96509 4.81823C5.87893 4.86131 5.82451 4.94937 5.82451 5.04569C5.82451 5.18614 5.93837 5.29999 6.07882 5.29999H8.97451C9.38873 5.29999 9.72451 5.63578 9.72451 6.04999C9.72451 6.46421 9.38873 6.79999 8.97451 6.79999H5.74951C5.61144 6.79999 5.49951 6.91192 5.49951 7.04999V9.22924C5.49951 9.33684 5.56837 9.43238 5.67045 9.46641L6.93668 9.88848C7.19073 9.97316 7.38035 10.1869 7.4342 10.4492L8.04356 13.418C8.07033 13.5484 8.19463 13.635 8.32625 13.6149L8.98438 13.5142C9.06669 13.5016 9.13733 13.4489 9.17278 13.3735L11.2466 8.96658C11.2915 8.87119 11.2718 8.7579 11.1972 8.68335L10.0692 7.55533C9.84091 7.32705 9.78432 6.97833 9.92869 6.68958C10.0731 6.40084 10.386 6.23688 10.7056 6.28253L12.2671 6.5056C12.3736 6.52082 12.4779 6.46617 12.526 6.36992L13.0692 5.2836Z"
            fill="#303233" />
    </g>
    <defs>
        <clipPath id="clip0_53_7149">
            <rect width="16" height="16" fill="white" />
        </clipPath>
    </defs>
</svg>
