<svg width="24" height="24" viewBox="0 0 24 24" fill="none" xmlns="http://www.w3.org/2000/svg">
    <path fill-rule="evenodd" clip-rule="evenodd"
        d="M16.6948 3.1028C16.2429 2.95597 15.7562 2.95597 15.3043 3.1028C15.0934 3.1713 14.8602 3.30681 14.513 3.60152C14.1591 3.90193 13.7385 4.3217 13.1358 4.92448L7.06021 11L12.9995 16.9394L19.0751 10.8638C19.6779 10.261 20.0977 9.84044 20.3981 9.48658C20.6928 9.13942 20.8283 8.90615 20.8968 8.69532C21.0436 8.24343 21.0436 7.75664 20.8968 7.30475C20.8283 7.09392 20.6928 6.86065 20.3981 6.51349C20.0977 6.15963 19.6779 5.73903 19.0751 5.13625L18.8633 4.92448C18.2606 4.3217 17.84 3.90193 17.4861 3.60152C17.1389 3.30681 16.9057 3.1713 16.6948 3.1028ZM20.1585 11.9017C20.7333 11.327 21.1968 10.8634 21.5416 10.4573C21.8965 10.0392 22.1693 9.63301 22.3234 9.15885C22.5681 8.40569 22.5681 7.59438 22.3234 6.84122C22.1693 6.36706 21.8965 5.96083 21.5416 5.54272C21.1968 5.13664 20.7332 4.67305 20.1585 4.09828L19.9013 3.84109C19.3265 3.26633 18.8629 2.80275 18.4569 2.45802C18.0387 2.10307 17.6325 1.83028 17.1584 1.67621C16.4052 1.4315 15.5939 1.4315 14.8407 1.67621C14.3666 1.83028 13.9603 2.10307 13.5422 2.45802C13.1361 2.80276 12.6726 3.26635 12.0978 3.84113L3.84064 12.0983C3.26586 12.673 2.80227 13.1366 2.45753 13.5427C2.10258 13.9608 1.82979 14.3671 1.67573 14.8412C1.43101 15.5944 1.43101 16.4057 1.67573 17.1588C1.82979 17.633 2.10258 18.0392 2.45753 18.4573C2.80227 18.8634 3.26586 19.327 3.84064 19.9018L4.53196 20.5931C4.54925 20.6104 4.56632 20.6275 4.58318 20.6444C4.87902 20.9405 5.11189 21.1737 5.3911 21.3448C5.63715 21.4956 5.9054 21.6067 6.186 21.6741C6.50442 21.7505 6.83394 21.7503 7.25256 21.7501C7.27642 21.75 7.30057 21.75 7.32503 21.75H8.67406C8.69852 21.75 8.72267 21.75 8.74654 21.7501C8.79325 21.7501 8.83886 21.7501 8.88347 21.75H20.9995C21.4138 21.75 21.7495 21.4142 21.7495 21C21.7495 20.5858 21.4138 20.25 20.9995 20.25H11.8102L20.1585 11.9017ZM11.9389 18L5.99955 12.0607L4.92399 13.1363C4.32121 13.739 3.90144 14.1596 3.60104 14.5135C3.30632 14.8606 3.17081 15.0939 3.10231 15.3047C2.95548 15.7566 2.95548 16.2434 3.10231 16.6953C3.17081 16.9062 3.30632 17.1394 3.60104 17.4866C3.90144 17.8404 4.32121 18.261 4.92399 18.8638L5.59262 19.5324C5.96376 19.9036 6.06631 19.9993 6.17485 20.0658C6.28669 20.1344 6.40862 20.1849 6.53617 20.2155C6.65995 20.2452 6.80015 20.25 7.32503 20.25H8.67406C9.19894 20.25 9.33914 20.2452 9.46293 20.2155C9.59047 20.1849 9.7124 20.1344 9.82424 20.0658C9.93279 19.9993 10.0353 19.9036 10.4065 19.5324L11.9389 18Z"
        fill="#303233" />
</svg>
