<svg width="16" height="16" viewBox="0 0 16 16" fill="none" xmlns="http://www.w3.org/2000/svg">
    <path fill-rule="evenodd" clip-rule="evenodd"
        d="M7.72287 15.6662L7.72484 15.6675C7.89178 15.7775 8.10822 15.7775 8.27516 15.6675L8.27713 15.6662L8.28127 15.6634L8.29595 15.6536C8.30852 15.6452 8.32662 15.6329 8.34987 15.617C8.39637 15.5852 8.46351 15.5386 8.54836 15.478C8.718 15.3569 8.95869 15.1797 9.24678 14.9529C9.82216 14.4999 10.5907 13.8458 11.361 13.042C12.8804 11.4563 14.5 9.19176 14.5 6.68182C14.5 4.97414 13.8138 3.33757 12.5942 2.13182C11.3748 0.926264 9.72207 0.25 8 0.25C6.27793 0.25 4.62525 0.926264 3.40583 2.13182C2.18622 3.33757 1.5 4.97414 1.5 6.68182C1.5 9.19176 3.11957 11.4563 4.63899 13.042C5.40928 13.8458 6.17784 14.4999 6.75322 14.9529C7.04131 15.1797 7.282 15.3569 7.45164 15.478C7.53649 15.5386 7.60363 15.5852 7.65013 15.617C7.67338 15.6329 7.69148 15.6452 7.70405 15.6536L7.71873 15.6634L7.72287 15.6662ZM6 6.75C6 5.64543 6.89543 4.75 8 4.75C9.10457 4.75 10 5.64543 10 6.75C10 7.85457 9.10457 8.75 8 8.75C6.89543 8.75 6 7.85457 6 6.75Z"
        fill="#303233" />
</svg>
