<svg width="16" height="16" viewBox="0 0 16 16" fill="none" xmlns="http://www.w3.org/2000/svg">
    <path fill-rule="evenodd" clip-rule="evenodd"
        d="M6.33935 0.750001H9.6607C9.96395 0.749986 10.2353 0.749973 10.4607 0.768389C10.7016 0.788074 10.9554 0.832478 11.2035 0.958908C11.5641 1.14267 11.8573 1.43588 12.0411 1.79652C12.1675 2.04465 12.2119 2.29841 12.2316 2.53933C12.25 2.76475 12.25 3.03609 12.25 3.33936V3.75611C12.4206 3.76028 12.5778 3.76728 12.7219 3.77906C13.0935 3.80942 13.4439 3.87517 13.7759 4.04429C14.2839 4.30314 14.6969 4.71619 14.9558 5.22423C15.1249 5.55614 15.1907 5.90662 15.221 6.27817C15.2501 6.63407 15.2501 7.06943 15.2501 7.58967L15.2501 8.99629C15.2505 9.50565 15.2507 9.89831 15.1581 10.2441C14.9086 11.1752 14.1813 11.9046 13.2489 12.1544C12.9616 12.2314 12.6413 12.2464 12.2435 12.2493C12.2408 12.3224 12.237 12.3919 12.2316 12.4575C12.2119 12.6984 12.1676 12.9523 12.0411 13.2005C11.8574 13.5609 11.5643 13.8544 11.2035 14.0383C10.9573 14.1637 10.7052 14.2093 10.4634 14.23C10.2301 14.2499 9.94935 14.25 9.63334 14.25H6.36667C6.05065 14.25 5.76989 14.2499 5.53662 14.23C5.29478 14.2093 5.04272 14.1637 4.79652 14.0383C4.43568 13.8544 4.14256 13.5609 3.95891 13.2005C3.83244 12.9523 3.78806 12.6984 3.76839 12.4575C3.76303 12.3919 3.75923 12.3224 3.75654 12.2493C3.35881 12.2464 3.03858 12.2314 2.75127 12.1544C1.81886 11.9046 1.09157 11.1752 0.842086 10.2441C0.749425 9.8983 0.749694 9.50564 0.750042 8.99627L0.750085 7.58969C0.750074 7.06944 0.750065 6.63407 0.779143 6.27817C0.8095 5.90663 0.875249 5.55614 1.04437 5.22423C1.30323 4.71619 1.71627 4.30314 2.22431 4.04429C2.55623 3.87517 2.90671 3.80942 3.27826 3.77906C3.42236 3.76729 3.57949 3.76028 3.75 3.75611L3.75 3.33936C3.74998 3.03607 3.74997 2.76475 3.76839 2.53933C3.78807 2.29841 3.83248 2.04465 3.95891 1.79652C4.14266 1.43588 4.43588 1.14267 4.79652 0.958908C5.04465 0.832478 5.29841 0.788074 5.53933 0.768389C5.76473 0.749973 6.0361 0.749986 6.33935 0.750001ZM10.75 3.36667V3.75H5.25V3.36667C5.25 3.0276 5.25059 2.8184 5.26341 2.66148C5.2753 2.5159 5.29408 2.48007 5.29542 2.47751C5.33536 2.39911 5.39921 2.33531 5.47761 2.29536C5.48017 2.29402 5.5159 2.2753 5.66148 2.26341C5.8184 2.25059 6.0276 2.25 6.36667 2.25H9.63334C9.97241 2.25 10.1816 2.25059 10.3385 2.26341C10.4841 2.2753 10.5199 2.29408 10.5225 2.29542C10.6009 2.33536 10.6647 2.39921 10.7046 2.47761C10.706 2.48017 10.7247 2.5159 10.7366 2.66148C10.7494 2.8184 10.75 3.0276 10.75 3.36667ZM5.29542 9.47751C5.33536 9.39911 5.39911 9.33537 5.47751 9.29542C5.48006 9.29408 5.5159 9.2753 5.66148 9.26341C5.8184 9.25059 6.0276 9.25 6.36667 9.25H9.63334C9.97241 9.25 10.1816 9.25059 10.3385 9.26341C10.4841 9.2753 10.5199 9.29408 10.5225 9.29542C10.6009 9.33537 10.6647 9.39921 10.7046 9.47761C10.706 9.48017 10.7247 9.5159 10.7366 9.66148C10.7494 9.8184 10.75 10.0276 10.75 10.3667V11.63C10.75 11.9691 10.7494 12.1784 10.7366 12.3354C10.7247 12.4812 10.7059 12.517 10.7046 12.5195C10.6645 12.5981 10.6005 12.662 10.5223 12.7018C10.5181 12.704 10.4811 12.723 10.3358 12.7354C10.18 12.7487 9.97071 12.75 9.63334 12.75H6.36667C6.02929 12.75 5.82001 12.7487 5.66419 12.7354C5.51894 12.723 5.48171 12.7039 5.47751 12.7017C5.39931 12.6619 5.33541 12.598 5.29536 12.5194C5.29406 12.5169 5.27531 12.4812 5.26341 12.3354C5.25058 12.1784 5.25 11.9691 5.25 11.63V10.3667C5.25 10.0276 5.25059 9.8184 5.26341 9.66148C5.2753 9.5159 5.29408 9.48007 5.29542 9.47751ZM9.25 6.5C9.25 6.08579 9.58579 5.75 10 5.75H12C12.4142 5.75 12.75 6.08579 12.75 6.5C12.75 6.91421 12.4142 7.25 12 7.25H10C9.58579 7.25 9.25 6.91421 9.25 6.5Z"
        fill="#303233" />
</svg>
