<svg width="16" height="16" viewBox="0 0 16 16" fill="none" xmlns="http://www.w3.org/2000/svg">
    <path fill-rule="evenodd" clip-rule="evenodd"
        d="M2.75 5C2.75 3.20507 4.20507 1.75 6 1.75C7.79493 1.75 9.25 3.20507 9.25 5C9.25 6.79493 7.79493 8.25 6 8.25C4.20507 8.25 2.75 6.79493 2.75 5ZM6 3.25C5.0335 3.25 4.25 4.0335 4.25 5C4.25 5.9665 5.0335 6.75 6 6.75C6.9665 6.75 7.75 5.9665 7.75 5C7.75 4.0335 6.9665 3.25 6 3.25Z"
        fill="#303233" />
    <path
        d="M10.6493 1.815C10.2434 1.7326 9.84754 1.99488 9.76514 2.40081C9.68274 2.80675 9.94501 3.20262 10.3509 3.28502C11.1494 3.4471 11.7501 4.15424 11.7501 5C11.7501 5.84577 11.1494 6.5529 10.3509 6.71498C9.94501 6.79738 9.68274 7.19326 9.76514 7.59919C9.84754 8.00513 10.2434 8.2674 10.6493 8.185C12.1331 7.88381 13.2501 6.5732 13.2501 5C13.2501 3.42681 12.1331 2.11619 10.6493 1.815Z"
        fill="#303233" />
    <path
        d="M11.1494 8.8651C10.7435 8.78267 10.3476 9.04491 10.2651 9.45084C10.1827 9.85677 10.445 10.2527 10.8509 10.3351C12.5147 10.673 13.827 11.9854 14.1647 13.6492C14.2471 14.0551 14.643 14.3174 15.0489 14.235C15.4549 14.1526 15.7171 13.7567 15.6347 13.3508C15.1772 11.0966 13.4035 9.32286 11.1494 8.8651Z"
        fill="#303233" />
    <path
        d="M1.83477 13.6492C2.22848 11.7096 3.9445 10.25 5.99974 10.25C8.05498 10.25 9.77099 11.7096 10.1647 13.6492C10.2471 14.0551 10.643 14.3174 11.0489 14.235C11.4549 14.1526 11.7171 13.7567 11.6347 13.3508C11.1019 10.7259 8.78241 8.75 5.99974 8.75C3.21706 8.75 0.897571 10.7259 0.364746 13.3508C0.282346 13.7567 0.544622 14.1526 0.950557 14.235C1.35649 14.3174 1.75237 14.0551 1.83477 13.6492Z"
        fill="#303233" />
</svg>
