<svg width="16" height="16" viewBox="0 0 16 16" fill="none" xmlns="http://www.w3.org/2000/svg">
    <path
        d="M5.19732 3.46967C4.90443 3.17678 4.42956 3.17678 4.13666 3.46967C3.84377 3.76256 3.84377 4.23744 4.13666 4.53033L7.47 7.86366C7.61065 8.00432 7.80141 8.08333 8.00033 8.08333C8.19924 8.08333 8.39 8.00432 8.53066 7.86366L11.864 4.53033C12.1569 4.23744 12.1569 3.76256 11.864 3.46967C11.5711 3.17678 11.0962 3.17678 10.8033 3.46967L8.00033 6.27267L5.19732 3.46967Z"
        fill="#303233" />
    <path
        d="M5.19732 8.13633C4.90443 7.84344 4.42956 7.84344 4.13666 8.13633C3.84377 8.42923 3.84377 8.9041 4.13666 9.19699L7.47 12.5303C7.76289 12.8232 8.23776 12.8232 8.53066 12.5303L11.864 9.19699C12.1569 8.9041 12.1569 8.42923 11.864 8.13633C11.5711 7.84344 11.0962 7.84344 10.8033 8.13633L8.00033 10.9393L5.19732 8.13633Z"
        fill="#303233" />
</svg>
