<svg width="24" height="24" viewBox="0 0 24 24" fill="none" xmlns="http://www.w3.org/2000/svg">
    <path fill-rule="evenodd" clip-rule="evenodd"
        d="M3.25583 12C4.09587 12.9663 5.2819 13.6672 6.68518 14.1505C6.83957 14.2037 6.99598 14.254 7.15412 14.3016C7.06344 13.5277 7.01562 12.7601 7.00022 12.0208C6.99993 12.0069 6.99993 11.9931 7.00022 11.9792C7.01562 11.2399 7.06344 10.4723 7.15412 9.69839C6.99597 9.74595 6.83957 9.79627 6.68518 9.84945C5.2819 10.3328 4.09587 11.0337 3.25583 12ZM9.23502 9.23502C9.09276 10.1532 9.01999 11.0895 9.00023 12C9.01999 12.9105 9.09277 13.8468 9.23502 14.765C10.1532 14.9072 11.0895 14.98 12 14.9998C12.9105 14.98 13.8468 14.9072 14.765 14.765C14.9072 13.8468 14.98 12.9105 14.9998 12C14.98 11.0895 14.9072 10.1532 14.765 9.23502C13.8468 9.09276 12.9105 9.01999 12 9.00023C11.0895 9.01999 10.1532 9.09276 9.23502 9.23502ZM14.3016 7.15412C13.5277 7.06344 12.7601 7.01562 12.0208 7.00022C12.0069 6.99993 11.9931 6.99993 11.9792 7.00022C11.2399 7.01562 10.4723 7.06344 9.69839 7.15412C9.74595 6.99597 9.79627 6.83957 9.84945 6.68518C10.3328 5.2819 11.0337 4.09587 12 3.25583C12.9663 4.09587 13.6672 5.2819 14.1505 6.68518C14.2037 6.83957 14.254 6.99597 14.3016 7.15412ZM16.8459 9.69839C16.9366 10.4723 16.9844 11.2399 16.9998 11.9792C17.0001 11.9931 17.0001 12.0069 16.9998 12.0208C16.9844 12.7601 16.9366 13.5277 16.8459 14.3016C17.004 14.254 17.1604 14.2037 17.3148 14.1505C18.7181 13.6672 19.9041 12.9663 20.7442 12C19.9041 11.0337 18.7181 10.3328 17.3148 9.84945C17.1604 9.79627 17.004 9.74596 16.8459 9.69839ZM20.5606 14.7856C19.7601 15.3173 18.8771 15.7277 17.9662 16.0415C17.4782 16.2096 16.9776 16.3516 16.4706 16.4706C16.3516 16.9775 16.2096 17.4782 16.0415 17.9661C15.7277 18.8771 15.3173 19.7601 14.7856 20.5606C17.5156 19.6729 19.6729 17.5156 20.5606 14.7856ZM12 20.7442C12.9663 19.9041 13.6672 18.7181 14.1505 17.3148C14.2037 17.1604 14.254 17.004 14.3016 16.8459C13.5277 16.9366 12.7601 16.9844 12.0208 16.9998C12.0069 17.0001 11.9931 17.0001 11.9792 16.9998C11.2399 16.9844 10.4723 16.9366 9.69839 16.8459C9.74596 17.004 9.79628 17.1604 9.84946 17.3148C10.3328 18.7181 11.0337 19.9041 12 20.7442ZM7.52936 16.4706C7.02245 16.3516 6.52182 16.2096 6.03385 16.0415C5.12289 15.7277 4.23987 15.3173 3.43939 14.7856C4.32712 17.5156 6.4844 19.6729 9.21439 20.5606C8.68267 19.7601 8.27226 18.8771 7.95848 17.9662C7.79041 17.4782 7.64837 16.9776 7.52936 16.4706ZM3.43938 9.21439C4.23987 8.68267 5.12289 8.27225 6.03385 7.95848C6.52182 7.79041 7.02245 7.64837 7.52935 7.52936C7.64837 7.02245 7.79041 6.52182 7.95848 6.03385C8.27225 5.12289 8.68267 4.23987 9.21439 3.43938C6.4844 4.32711 4.32711 6.4844 3.43938 9.21439ZM14.7856 3.43938C15.3173 4.23987 15.7277 5.12289 16.0415 6.03385C16.2096 6.52182 16.3516 7.02245 16.4706 7.52936C16.9776 7.64837 17.4782 7.79041 17.9662 7.95848C18.8771 8.27225 19.7601 8.68268 20.5606 9.2144C19.6729 6.4844 17.5156 4.32711 14.7856 3.43938ZM1 12C1 5.92487 5.92487 1 12 1C18.0751 1 23 5.92487 23 12C23 18.0751 18.0751 23 12 23C5.92487 23 1 18.0751 1 12Z"
        fill="#303233" />
</svg>
