<svg width="16" height="16" viewBox="0 0 16 16" fill="none" xmlns="http://www.w3.org/2000/svg">
    <path fill-rule="evenodd" clip-rule="evenodd"
        d="M3.21151 3.75H12.7885C13.1562 3.74999 13.4763 3.74997 13.7406 3.77157C14.0204 3.79443 14.303 3.84519 14.5761 3.98434C14.9806 4.19046 15.3095 4.51937 15.5157 4.92392C15.6548 5.19701 15.7056 5.47958 15.7284 5.75941C15.75 6.02369 15.75 6.34383 15.75 6.71153V9.28847C15.75 9.65617 15.75 9.97631 15.7284 10.2406C15.7056 10.5204 15.6548 10.803 15.5157 11.0761C15.3095 11.4806 14.9806 11.8095 14.5761 12.0157C14.303 12.1548 14.0204 12.2056 13.7406 12.2284C13.4763 12.25 13.1562 12.25 12.7885 12.25H3.21151C2.84382 12.25 2.52369 12.25 2.25941 12.2284C1.97958 12.2056 1.69701 12.1548 1.42392 12.0157C1.01937 11.8095 0.690465 11.4806 0.484338 11.0761C0.345192 10.803 0.294429 10.5204 0.271566 10.2406C0.249974 9.97632 0.249986 9.65618 0.250001 9.2885V6.71151C0.249986 6.34382 0.249974 6.02368 0.271566 5.75941C0.294429 5.47958 0.345192 5.19701 0.484337 4.92392C0.690465 4.51937 1.01937 4.19047 1.42392 3.98434C1.69701 3.84519 1.97958 3.79443 2.25941 3.77157C2.52368 3.74997 2.84382 3.74999 3.21151 3.75ZM3.575 8C3.575 7.48914 3.98914 7.075 4.5 7.075C5.01086 7.075 5.425 7.48914 5.425 8C5.425 8.51086 5.01086 8.925 4.5 8.925C3.98914 8.925 3.575 8.51086 3.575 8ZM7.075 8C7.075 7.48914 7.48914 7.075 8 7.075C8.51086 7.075 8.925 7.48914 8.925 8C8.925 8.51086 8.51086 8.925 8 8.925C7.48914 8.925 7.075 8.51086 7.075 8ZM10.575 8C10.575 7.48914 10.9891 7.075 11.5 7.075C12.0109 7.075 12.425 7.48914 12.425 8C12.425 8.51086 12.0109 8.925 11.5 8.925C10.9891 8.925 10.575 8.51086 10.575 8Z"
        fill="#303233" />
</svg>
