<svg width="16" height="16" viewBox="0 0 16 16" fill="none" xmlns="http://www.w3.org/2000/svg">
    <path fill-rule="evenodd" clip-rule="evenodd"
        d="M10.2306 0.75H5.76942C5.21789 0.74999 4.75893 0.749982 4.38428 0.780592C3.99397 0.812481 3.6296 0.881295 3.28565 1.05655C2.75645 1.32619 2.32619 1.75645 2.05655 2.28565C1.8813 2.6296 1.81248 2.99397 1.78059 3.38428C1.74998 3.75893 1.74999 4.21787 1.75 4.76941V11.2306C1.74999 11.7821 1.74998 12.2411 1.78059 12.6157C1.81248 13.006 1.8813 13.3704 2.05655 13.7143C2.32619 14.2436 2.75645 14.6738 3.28565 14.9435C3.6296 15.1187 3.99397 15.1875 4.38428 15.2194C4.75893 15.25 5.21787 15.25 5.7694 15.25H10.2306C10.7821 15.25 11.2411 15.25 11.6157 15.2194C12.006 15.1875 12.3704 15.1187 12.7143 14.9435C13.2436 14.6738 13.6738 14.2436 13.9435 13.7143C14.1187 13.3704 14.1875 13.006 14.2194 12.6157C14.25 12.2411 14.25 11.7821 14.25 11.2306V4.7694C14.25 4.21787 14.25 3.75893 14.2194 3.38428C14.1875 2.99397 14.1187 2.6296 13.9435 2.28565C13.6738 1.75645 13.2436 1.32619 12.7143 1.05655C12.3704 0.881295 12.006 0.812481 11.6157 0.780592C11.2411 0.749982 10.7821 0.74999 10.2306 0.75ZM7.54602 6.85763C7.38802 6.94762 7.26603 7.08862 7.20503 7.25662C7.06403 7.64562 6.63403 7.84761 6.24504 7.70662C5.85504 7.56562 5.65404 7.13462 5.79504 6.74563C5.97604 6.24563 6.33204 5.82364 6.80203 5.55464C7.26603 5.29064 7.81102 5.19364 8.34002 5.28164C8.87301 5.37064 9.35601 5.64064 9.704 6.04163C10.058 6.45063 10.251 6.96762 10.25 7.50162C10.25 8.13261 9.907 8.65761 9.452 9.0366C8.91201 9.4856 8.23702 9.7116 8.23702 9.7116C7.84402 9.84159 7.41902 9.6296 7.28803 9.2366C7.15803 8.84361 7.37003 8.41861 7.76302 8.28761C7.76302 8.28761 8.16802 8.15361 8.49201 7.88361C8.61401 7.78262 8.75001 7.66862 8.75001 7.49962C8.75001 7.32562 8.68601 7.15762 8.57101 7.02462C8.44902 6.88462 8.28002 6.79163 8.09402 6.76063C7.90502 6.72963 7.71102 6.76363 7.54602 6.85763ZM7.99512 10.25C7.5809 10.25 7.24512 10.5858 7.24512 11C7.24512 11.4142 7.5809 11.75 7.99512 11.75H8.00012C8.41433 11.75 8.75012 11.4142 8.75012 11C8.75012 10.5858 8.41433 10.25 8.00012 10.25H7.99512Z"
        fill="#303233" />
</svg>
