<svg width="24" height="24" viewBox="0 0 24 24" fill="none" xmlns="http://www.w3.org/2000/svg">
    <path
        d="M17.4697 1.21967C17.7626 0.926777 18.2374 0.926777 18.5303 1.21967L22.7803 5.46967C23.0732 5.76256 23.0732 6.23744 22.7803 6.53033C22.4874 6.82322 22.0126 6.82322 21.7197 6.53033L18.75 3.56066V10C18.75 10.4142 18.4142 10.75 18 10.75C17.5858 10.75 17.25 10.4142 17.25 10V3.56066L14.2803 6.53033C13.9874 6.82322 13.5126 6.82322 13.2197 6.53033C12.9268 6.23744 12.9268 5.76256 13.2197 5.46967L17.4697 1.21967Z"
        fill="#303233" />
    <path
        d="M12.159 7.59099C11.2803 6.71231 11.2803 5.28769 12.159 4.40901L13.2472 3.32084C12.839 3.2741 12.4228 3.25 12 3.25C6.59303 3.25 2.25004 7.19299 2.25004 12C2.25004 13.33 2.58104 14.591 3.17304 15.722C3.38304 16.123 3.47804 16.59 3.31904 17.013L2.29804 19.737C2.20204 19.992 2.25204 20.278 2.42904 20.486C2.60504 20.693 2.88004 20.789 3.14704 20.735L7.24203 19.916C7.52303 19.86 7.81203 19.907 8.07803 20.012C9.32503 20.503 10.657 20.754 12.001 20.75C17.408 20.749 21.75 16.806 21.75 12C21.75 10.2907 21.2009 8.6906 20.25 7.33822V10C20.25 11.2426 19.2426 12.25 18 12.25C16.7574 12.25 15.75 11.2426 15.75 10V7.18198L15.341 7.59099C14.4623 8.46967 13.0377 8.46967 12.159 7.59099Z"
        fill="#303233" />
</svg>
