<svg width="24" height="24" viewBox="0 0 24 24" fill="none" xmlns="http://www.w3.org/2000/svg">
    <path
        d="M4 2C2.34315 2 1 3.34315 1 5V19C1 20.6569 2.34315 22 4 22H12C12.5523 22 13 21.5523 13 21C13 20.4477 12.5523 20 12 20H4C3.44772 20 3 19.5523 3 19V7C3 6.44772 3.44772 6 4 6H20C20.5523 6 21 6.44772 21 7V11C21 11.5523 21.4477 12 22 12C22.5523 12 23 11.5523 23 11V7C23 5.34315 21.6569 4 20 4H13.8284C13.298 4 12.7893 3.78929 12.4142 3.41421L11.5858 2.58579C11.2107 2.21071 10.702 2 10.1716 2H4Z"
        fill="#303233" />
    <path fill-rule="evenodd" clip-rule="evenodd"
        d="M14 18C14 15.2386 16.2386 13 19 13C21.7614 13 24 15.2386 24 18C24 20.7614 21.7614 23 19 23C16.2386 23 14 20.7614 14 18ZM19 15C17.3431 15 16 16.3431 16 18C16 18.4632 16.105 18.9018 16.2924 19.2935L20.2935 15.2924C19.9018 15.105 19.4632 15 19 15ZM19 21C18.5369 21 18.0983 20.8951 17.7066 20.7077L21.7077 16.7066C21.8951 17.0983 22 17.5369 22 18C22 19.6569 20.6569 21 19 21Z"
        fill="#303233" />
</svg>
