<svg width="16" height="16" viewBox="0 0 16 16" fill="none" xmlns="http://www.w3.org/2000/svg">
    <g clip-path="url(#clip0_271_297)">
        <path
            d="M12.75 13.25C12.75 13.6642 12.4142 14 12 14C11.5858 14 11.25 13.6642 11.25 13.25V4.56066L9.28033 6.53033C8.98744 6.82322 8.51256 6.82322 8.21967 6.53033C7.92678 6.23744 7.92678 5.76256 8.21967 5.46967L11.4697 2.21967C11.7624 1.9269 12.2371 1.92676 12.53 2.21934L15.784 5.46934C16.0771 5.76206 16.0774 6.23693 15.7847 6.53C15.4919 6.82308 15.0171 6.82337 14.724 6.53066L12.75 4.55909V13.25Z"
            fill="#303233" />
        <path
            d="M4.75 2.75C4.75 2.33579 4.41421 2 4 2C3.58579 2 3.25 2.33579 3.25 2.75V11.4393L1.28033 9.46967C0.987437 9.17678 0.512563 9.17678 0.21967 9.46967C-0.0732233 9.76256 -0.0732233 10.2374 0.21967 10.5303L3.46967 13.7803C3.76244 14.0731 4.23706 14.0732 4.53 13.7807L7.784 10.5307C8.07708 10.2379 8.07737 9.76307 7.78466 9.47C7.49194 9.17692 7.01707 9.17663 6.724 9.46934L4.75 11.4409V2.75Z"
            fill="#303233" />
    </g>
    <defs>
        <clipPath id="clip0_271_297">
            <rect width="16" height="16" fill="white" />
        </clipPath>
    </defs>
</svg>
