<svg width="24" height="24" viewBox="0 0 24 24" fill="none" xmlns="http://www.w3.org/2000/svg">
    <path fill-rule="evenodd" clip-rule="evenodd"
        d="M4 2C2.34315 2 1 3.34315 1 5V19C1 20.6569 2.34315 22 4 22H20C21.6569 22 23 20.6569 23 19V7C23 5.34315 21.6569 4 20 4H13.8284C13.298 4 12.7893 3.78929 12.4142 3.41421L11.5858 2.58579C11.2107 2.21071 10.702 2 10.1716 2H4ZM17.2929 10.7071C16.9024 10.3166 16.9024 9.68342 17.2929 9.29289C17.6834 8.90237 18.3166 8.90237 18.7071 9.29289L21.7071 12.2929C22.0976 12.6834 22.0976 13.3166 21.7071 13.7071L18.7071 16.7071C18.3166 17.0976 17.6834 17.0976 17.2929 16.7071C16.9024 16.3166 16.9024 15.6834 17.2929 15.2929L18.5858 14H11C10.4477 14 10 13.5523 10 13C10 12.4477 10.4477 12 11 12H18.5858L17.2929 10.7071Z"
        fill="#303233" />
</svg>
