<svg width="24" height="24" viewBox="0 0 24 24" fill="none" xmlns="http://www.w3.org/2000/svg">
    <path
        d="M16.0001 5C16.5523 5 17.0001 5.44772 17.0001 6V9C17.0001 9.55228 16.5523 10 16.0001 10C15.4478 10 15.0001 9.55228 15.0001 9V6C15.0001 5.44772 15.4478 5 16.0001 5Z"
        fill="#303233" />
    <path
        d="M14.0001 6C14.0001 5.44772 13.5523 5 13.0001 5C12.4478 5 12.0001 5.44772 12.0001 6V9C12.0001 9.55228 12.4478 10 13.0001 10C13.5523 10 14.0001 9.55228 14.0001 9V6Z"
        fill="#303233" />
    <path
        d="M10.0001 5C10.5523 5 11.0001 5.44772 11.0001 6V9C11.0001 9.55228 10.5523 10 10.0001 10C9.44778 10 9.00006 9.55228 9.00006 9V6C9.00006 5.44772 9.44778 5 10.0001 5Z"
        fill="#303233" />
    <path
        d="M8.00006 8C8.00006 7.44772 7.55235 7 7.00006 7C6.44778 7 6.00006 7.44772 6.00006 8V9C6.00006 9.55228 6.44778 10 7.00006 10C7.55235 10 8.00006 9.55228 8.00006 9V8Z"
        fill="#303233" />
    <path fill-rule="evenodd" clip-rule="evenodd"
        d="M15.2414 23C16.0463 23 16.7107 23 17.2519 22.9558C17.814 22.9099 18.3307 22.8113 18.816 22.564C19.5687 22.1805 20.1806 21.5686 20.5641 20.816C20.8114 20.3306 20.9099 19.8139 20.9559 19.2518C21.0001 18.7107 21.0001 18.0463 21.0001 17.2414V6.7587C21.0001 5.95378 21.0001 5.28935 20.9559 4.74818C20.9099 4.18608 20.8114 3.66938 20.5641 3.18404C20.1806 2.43139 19.5687 1.81947 18.816 1.43598C18.3307 1.18869 17.814 1.09012 17.2519 1.0442C16.7107 0.999978 16.0463 0.999989 15.2414 1L8.8864 0.99997C8.25141 0.999668 7.77161 0.999439 7.30892 1.11052C6.90078 1.20851 6.5106 1.37013 6.15271 1.58944C5.74698 1.83807 5.40788 2.1775 4.95908 2.62672L3.62678 3.95902C3.17757 4.40781 2.83812 4.74693 2.5895 5.15265C2.37019 5.51054 2.20857 5.90071 2.11058 6.30886C1.9995 6.77155 1.99973 7.25134 2.00003 7.88633L2.00006 17.2413C2.00005 18.0463 2.00004 18.7106 2.04425 19.2518C2.09018 19.8139 2.18874 20.3306 2.43604 20.816C2.81953 21.5686 3.43145 22.1805 4.1841 22.564C4.66943 22.8113 5.18614 22.9099 5.74823 22.9558C6.28942 23 6.95378 23 7.75874 23H15.2414ZM7.77581 3.05526C7.97922 3.00643 8.20692 3 8.98829 3H15.2001C16.0566 3 16.6389 3.00078 17.089 3.03755C17.5274 3.07337 17.7516 3.1383 17.908 3.21799C18.2844 3.40974 18.5903 3.7157 18.7821 4.09202C18.8618 4.24842 18.9267 4.47262 18.9625 4.91104C18.9993 5.36113 19.0001 5.94342 19.0001 6.8V17.2C19.0001 18.0566 18.9993 18.6389 18.9625 19.089C18.9267 19.5274 18.8618 19.7516 18.7821 19.908C18.5903 20.2843 18.2844 20.5903 17.908 20.782C17.7516 20.8617 17.5274 20.9266 17.089 20.9625C16.6389 20.9992 16.0566 21 15.2001 21H7.8011H7.80006C6.94348 21 6.36119 20.9992 5.9111 20.9625C5.47268 20.9266 5.24848 20.8617 5.09208 20.782C4.71576 20.5903 4.4098 20.2843 4.21805 19.908C4.13836 19.7516 4.07343 19.5274 4.03761 19.089C4.00084 18.6389 4.00006 18.0566 4.00006 17.2V7.98823C4.00006 7.20686 4.00649 6.97916 4.05532 6.77575C4.10431 6.57168 4.18512 6.37659 4.29478 6.19765C4.40408 6.01929 4.56054 5.85373 5.11305 5.30122L6.30128 4.113C6.85379 3.56048 7.01934 3.40402 7.1977 3.29472C7.37665 3.18506 7.57174 3.10426 7.77581 3.05526Z"
        fill="#303233" />
</svg>
