<svg width="24" height="24" viewBox="0 0 24 24" fill="none" xmlns="http://www.w3.org/2000/svg">
    <path fill-rule="evenodd" clip-rule="evenodd"
        d="M6 1.25C4.48122 1.25 3.25 2.48122 3.25 4V20C3.25 21.5188 4.48122 22.75 6 22.75H18C19.5188 22.75 20.75 21.5188 20.75 20V6.32487C20.75 5.86074 20.5656 5.41563 20.2374 5.08744L16.9126 1.76256C16.5844 1.43437 16.1393 1.25 15.6751 1.25H6ZM4.75 20V4C4.75 3.30965 5.30964 2.75 6 2.75H13.5C13.9142 2.75 14.25 3.08579 14.25 3.5V7C14.25 7.41422 14.5858 7.75 15 7.75H18.5C18.9142 7.75 19.25 8.08579 19.25 8.5V20C19.25 20.6904 18.6904 21.25 18 21.25L6 21.25C5.30964 21.25 4.75 20.6904 4.75 20ZM15.75 3.20355C15.75 2.98083 16.0193 2.86929 16.1768 3.02678L18.9732 5.82323C19.1307 5.98072 19.0192 6.25 18.7964 6.25H16C15.8619 6.25 15.75 6.13807 15.75 6V3.20355Z"
        fill="#303233" />
</svg>
