<svg width="16" height="16" viewBox="0 0 16 16" fill="none" xmlns="http://www.w3.org/2000/svg">
    <path fill-rule="evenodd" clip-rule="evenodd"
        d="M1.13374 1.71967C1.42663 1.42678 1.9015 1.42678 2.1944 1.71967L14.1944 13.7197C14.4873 14.0126 14.4873 14.4874 14.1944 14.7803C13.9015 15.0732 13.4266 15.0732 13.1337 14.7803L10.1213 11.7679C10.0793 11.7463 10.0388 11.7205 10.0003 11.6903C9.85521 11.5766 9.70034 11.475 9.5371 11.387C9.06647 11.1345 8.53885 11.0009 8.00059 11.0009C7.32604 11.0009 6.6682 11.2107 6.1183 11.6014C6.10192 11.6131 6.08524 11.6239 6.06829 11.6341C6.03483 11.6588 6.00186 11.6842 5.9694 11.7101C5.64591 11.9688 5.17395 11.9163 4.91525 11.5928C4.65655 11.2693 4.70907 10.7974 5.03256 10.5387C5.81056 9.91647 6.78977 9.5334 7.85549 9.50208L6.25337 7.89996C5.27575 8.16779 4.38834 8.65573 3.64778 9.30809C3.33697 9.58189 2.86304 9.55189 2.58924 9.24107C2.31544 8.93026 2.34545 8.45633 2.65626 8.18253C3.3612 7.56154 4.1758 7.06113 5.06759 6.71418L3.67539 5.32198C2.80519 5.74408 2.00562 6.28989 1.29968 6.93679C0.99429 7.21663 0.519868 7.19593 0.240024 6.89054C-0.0398199 6.58516 -0.0191146 6.11074 0.286271 5.83089C0.972565 5.202 1.73623 4.65576 2.56154 4.20813L1.13374 2.78033C0.840844 2.48744 0.840844 2.01256 1.13374 1.71967ZM7.99735 4.33508C7.62234 4.33508 7.24936 4.35633 6.88004 4.3982C6.46846 4.44487 6.09698 4.14904 6.05032 3.73747C6.00366 3.32589 6.29948 2.95441 6.71106 2.90775C7.13628 2.85954 7.56567 2.83508 7.99735 2.83508C10.7771 2.83508 13.4613 3.84925 15.5466 5.68736C15.8573 5.96126 15.8872 6.43519 15.6133 6.74592C15.3394 7.05665 14.8655 7.08651 14.5547 6.81261C12.7435 5.216 10.4119 4.33508 7.99735 4.33508ZM9.48931 7.02692C9.61252 6.63145 10.033 6.41075 10.4285 6.53396C11.4339 6.84723 12.3761 7.35632 13.1974 8.04039C13.5157 8.30549 13.5588 8.7784 13.2937 9.09668C13.0286 9.41495 12.5557 9.45805 12.2374 9.19296C11.5685 8.63583 10.8012 8.22121 9.98227 7.96606C9.5868 7.84285 9.3661 7.42238 9.48931 7.02692ZM7.2474 13.5833C7.2474 13.1691 7.58319 12.8333 7.9974 12.8333H8.00407C8.41828 12.8333 8.75407 13.1691 8.75407 13.5833C8.75407 13.9975 8.41828 14.3333 8.00407 14.3333H7.9974C7.58319 14.3333 7.2474 13.9975 7.2474 13.5833Z"
        fill="#303233" />
</svg>
