<svg width="16" height="16" viewBox="0 0 16 16" fill="none" xmlns="http://www.w3.org/2000/svg">
    <path
        d="M6 4.5C6.27614 4.5 6.5 4.72386 6.5 5V9C6.5 9.27614 6.27614 9.5 6 9.5C5.72386 9.5 5.5 9.27614 5.5 9V5C5.5 4.72386 5.72386 4.5 6 4.5Z"
        fill="#303233" />
    <path
        d="M10.5 5C10.5 4.72386 10.2761 4.5 10 4.5C9.72386 4.5 9.5 4.72386 9.5 5V9C9.5 9.27614 9.72386 9.5 10 9.5C10.2761 9.5 10.5 9.27614 10.5 9V5Z"
        fill="#303233" />
    <path fill-rule="evenodd" clip-rule="evenodd"
        d="M4.2759 1.67531C6.677 0.774897 9.323 0.774897 11.7241 1.67531L12.7834 2.07253C13.5152 2.34696 14 3.04656 14 3.82815V7.68777C14 9.65296 12.8785 11.2909 11.6835 12.4844C10.4809 13.6854 9.1366 14.5045 8.54446 14.8372C8.20371 15.0286 7.79629 15.0286 7.45554 14.8372C6.8634 14.5045 5.5191 13.6854 4.31654 12.4844C3.12153 11.2909 2 9.65296 2 7.68777V3.82815C2 3.04656 2.48482 2.34696 3.21664 2.07253L4.2759 1.67531ZM11.373 2.61164C9.19827 1.79612 6.80173 1.79612 4.62702 2.61164L3.56777 3.00886C3.22625 3.13693 3 3.46341 3 3.82815V7.68777C3 9.26354 3.90487 10.6599 5.02318 11.7768C6.13394 12.8861 7.38986 13.6533 7.94537 13.9654C7.98193 13.9859 8.01807 13.9859 8.05463 13.9654C8.61014 13.6533 9.86606 12.8861 10.9768 11.7768C12.0951 10.6599 13 9.26354 13 7.68777V3.82815C13 3.46341 12.7737 3.13693 12.4322 3.00886L11.373 2.61164Z"
        fill="#303233" />
</svg>
