<svg width="16" height="16" viewBox="0 0 16 16" fill="none" xmlns="http://www.w3.org/2000/svg">
    <path fill-rule="evenodd" clip-rule="evenodd"
        d="M6.35166 2.14457C6.54796 2.33879 6.54965 2.65536 6.35543 2.85166L3.69807 5.5375H6.92267C8.0586 5.5375 8.94178 5.53749 9.65001 5.59536C10.3688 5.65408 10.9513 5.77489 11.4747 6.04159C12.345 6.48501 13.0525 7.19254 13.4959 8.06279C13.7626 8.58622 13.8834 9.16872 13.9421 9.88749C14 10.5957 14 11.4789 14 12.6148V13.5C14 13.7761 13.7761 14 13.5 14C13.2239 14 13 13.7761 13 13.5V12.6375C13 11.4741 12.9996 10.6317 12.9455 9.96892C12.8918 9.31199 12.7878 8.87574 12.6049 8.51678C12.2574 7.8347 11.7028 7.28014 11.0207 6.9326C10.6618 6.7497 10.2255 6.64571 9.56858 6.59204C8.90581 6.53789 8.06336 6.5375 6.9 6.5375H3.71636L6.35164 9.14455C6.54796 9.33876 6.54966 9.65533 6.35545 9.85164C6.16124 10.048 5.84467 10.0497 5.64836 9.85545L2.14836 6.39295C2.05408 6.29969 2.00072 6.17279 2.00001 6.04018C1.9993 5.90757 2.0513 5.7801 2.14457 5.68583L5.64457 2.14834C5.83879 1.95204 6.15536 1.95035 6.35166 2.14457Z"
        fill="#303233" />
</svg>
