<svg width="24" height="24" viewBox="0 0 24 24" fill="none" xmlns="http://www.w3.org/2000/svg">
    <path
        d="M15.2002 1.25C15.4614 1.25 15.7065 1.2526 15.9365 1.25391C15.9575 1.25215 15.9786 1.25 16 1.25C16.0251 1.25 16.0498 1.25151 16.0742 1.25391C16.5146 1.25766 16.8977 1.2657 17.2314 1.29297C17.7781 1.33763 18.258 1.43286 18.7022 1.65918C19.4078 2.0187 19.9813 2.59224 20.3408 3.29785C20.5671 3.74205 20.6624 4.22195 20.707 4.76855C20.751 5.30638 20.75 5.97222 20.75 6.7998V17.2002C20.75 18.0278 20.751 18.6936 20.707 19.2314C20.6624 19.7781 20.5671 20.2579 20.3408 20.7021C19.9813 21.4078 19.4078 21.9813 18.7022 22.3408C18.258 22.5671 17.7781 22.6624 17.2314 22.707C16.8977 22.7343 16.5146 22.7423 16.0742 22.7461C16.0498 22.7485 16.0251 22.75 16 22.75C15.9786 22.75 15.9575 22.7479 15.9365 22.7461C15.7065 22.7474 15.4614 22.75 15.2002 22.75H8.79981C8.53823 22.75 8.29282 22.7474 8.0625 22.7461C8.04186 22.7478 8.02109 22.75 8 22.75C7.97462 22.75 7.94954 22.7486 7.92481 22.7461C7.48482 22.7423 7.10206 22.7343 6.76856 22.707C6.22195 22.6624 5.74205 22.5671 5.29785 22.3408C4.59225 21.9813 4.01871 21.4078 3.65918 20.7021C3.43287 20.2579 3.33763 19.7781 3.29297 19.2314C3.24903 18.6936 3.25 18.0278 3.25 17.2002V6.7998C3.25 5.97222 3.24903 5.30638 3.29297 4.76855C3.33763 4.22195 3.43287 3.74205 3.65918 3.29785C4.01871 2.59224 4.59225 2.0187 5.29785 1.65918C5.74205 1.43286 6.22195 1.33763 6.76856 1.29297C7.10206 1.26572 7.48482 1.25767 7.92481 1.25391C7.94954 1.25144 7.97462 1.25 8 1.25C8.02109 1.25 8.04186 1.2522 8.0625 1.25391C8.29282 1.2526 8.53823 1.25 8.79981 1.25H15.2002ZM8.75 21.249C8.76651 21.249 8.78311 21.25 8.79981 21.25H15.2002C15.2169 21.25 15.2335 21.249 15.25 21.249V12.75H8.75V21.249ZM4.75195 17.75C4.75366 18.3195 4.759 18.7534 4.78809 19.1094C4.82517 19.5632 4.89449 19.824 4.99512 20.0215C5.21083 20.4448 5.55515 20.7892 5.97852 21.0049C6.17602 21.1055 6.4368 21.1748 6.89063 21.2119C7.00215 21.221 7.12141 21.2271 7.25 21.2324V17.75H4.75195ZM16.75 21.2324C16.8786 21.2271 16.9979 21.221 17.1094 21.2119C17.5632 21.1748 17.824 21.1055 18.0215 21.0049C18.4449 20.7892 18.7892 20.4448 19.0049 20.0215C19.1055 19.824 19.1748 19.5632 19.2119 19.1094C19.241 18.7534 19.2463 18.3195 19.248 17.75H16.75V21.2324ZM16.75 16.25H19.25V12.75H16.75V16.25ZM4.75 16.25H7.25V12.75H4.75V16.25ZM8.75 2.75V11.25H15.25V2.75H8.75ZM16.75 11.25H19.25V7.75H16.75V11.25ZM4.75 11.25H7.25V7.75H4.75V11.25ZM16.75 6.25H19.248C19.2463 5.68053 19.241 5.24659 19.2119 4.89062C19.1748 4.4368 19.1055 4.17602 19.0049 3.97852C18.7892 3.55515 18.4449 3.21083 18.0215 2.99512C17.824 2.89449 17.5632 2.82517 17.1094 2.78809C16.9978 2.77897 16.8786 2.7719 16.75 2.7666V6.25ZM6.89063 2.78809C6.4368 2.82517 6.17602 2.89449 5.97852 2.99512C5.55515 3.21083 5.21083 3.55515 4.99512 3.97852C4.89449 4.17602 4.82517 4.4368 4.78809 4.89062C4.759 5.24659 4.75366 5.68053 4.75195 6.25H7.25V2.7666C7.12139 2.7719 7.00216 2.77897 6.89063 2.78809Z"
        fill="#303233" />
</svg>
