<svg width="16" height="16" viewBox="0 0 16 16" fill="none" xmlns="http://www.w3.org/2000/svg">
    <path fill-rule="evenodd" clip-rule="evenodd"
        d="M3.75736 3.04644C3.95262 3.2417 3.95262 3.55829 3.75736 3.75355C1.41421 6.09669 1.41421 9.89568 3.75736 12.2388C3.95262 12.4341 3.95262 12.7507 3.75736 12.9459C3.5621 13.1412 3.24551 13.1412 3.05025 12.9459C0.316583 10.2123 0.316583 5.78011 3.05025 3.04644C3.24551 2.85118 3.5621 2.85118 3.75736 3.04644ZM12.2426 3.04647C12.4379 2.85121 12.7545 2.85121 12.9497 3.04647C15.6834 5.78014 15.6834 10.2123 12.9497 12.946C12.7545 13.1412 12.4379 13.1412 12.2426 12.946C12.0474 12.7507 12.0474 12.4341 12.2426 12.2389C14.5858 9.89571 14.5858 6.09672 12.2426 3.75358C12.0474 3.55831 12.0474 3.24173 12.2426 3.04647ZM5.59584 4.8849C5.7911 5.08016 5.7911 5.39674 5.59584 5.592C4.26805 6.91979 4.26805 9.07255 5.59584 10.4003C5.7911 10.5956 5.7911 10.9122 5.59584 11.1074C5.40057 11.3027 5.08399 11.3027 4.88873 11.1074C3.17042 9.38913 3.17042 6.6032 4.88873 4.8849C5.08399 4.68963 5.40057 4.68963 5.59584 4.8849ZM10.4042 4.88492C10.5994 4.68966 10.916 4.68966 11.1113 4.88492C12.8296 6.60323 12.8296 9.38915 11.1113 11.1075C10.916 11.3027 10.5994 11.3027 10.4042 11.1075C10.2089 10.9122 10.2089 10.5956 10.4042 10.4004C11.7319 9.07257 11.7319 6.91981 10.4042 5.59202C10.2089 5.39676 10.2089 5.08018 10.4042 4.88492ZM8 7.19619C7.55817 7.19619 7.2 7.55436 7.2 7.99619C7.2 8.43802 7.55817 8.79619 8 8.79619C8.44183 8.79619 8.8 8.43802 8.8 7.99619C8.8 7.55436 8.44183 7.19619 8 7.19619ZM6.2 7.99619C6.2 7.00208 7.00589 6.19619 8 6.19619C8.99411 6.19619 9.8 7.00208 9.8 7.99619C9.8 8.9903 8.99411 9.79619 8 9.79619C7.00589 9.79619 6.2 8.9903 6.2 7.99619Z"
        fill="#303233" />
</svg>
