<svg width="16" height="16" viewBox="0 0 16 16" fill="none" xmlns="http://www.w3.org/2000/svg">
    <path fill-rule="evenodd" clip-rule="evenodd"
        d="M10.2215 1H5.77853C5.21919 0.999995 4.769 0.999992 4.40464 1.02976C4.02979 1.06039 3.70198 1.125 3.39915 1.2793C2.91698 1.52497 2.52497 1.91698 2.2793 2.39915C2.125 2.70198 2.06039 3.02979 2.02976 3.40464C1.99999 3.769 2 4.21919 2 4.77853V11.2215C2 11.7808 1.99999 12.231 2.02976 12.5954C2.06039 12.9702 2.125 13.298 2.2793 13.6009C2.52497 14.083 2.91698 14.475 3.39915 14.7207C3.70198 14.875 4.02979 14.9396 4.40464 14.9702C4.76899 15 5.21918 15 5.77851 15H9.85418C9.02375 14.2671 8.5 13.1947 8.5 12C8.5 9.79086 10.2909 8 12.5 8C13.0304 8 13.5368 8.10325 14 8.29076V4.77851C14 4.21918 14 3.76899 13.9702 3.40464C13.9396 3.02979 13.875 2.70198 13.7207 2.39915C13.475 1.91698 13.083 1.52497 12.6009 1.2793C12.298 1.125 11.9702 1.06039 11.5954 1.02976C11.231 0.999992 10.7808 0.999995 10.2215 1Z"
        fill="#303233" />
    <path fill-rule="evenodd" clip-rule="evenodd"
        d="M12.5 9C10.8431 9 9.5 10.3431 9.5 12C9.5 13.6569 10.8431 15 12.5 15C14.1569 15 15.5 13.6569 15.5 12C15.5 10.3431 14.1569 9 12.5 9ZM10.5 12C10.5 10.8954 11.3954 10 12.5 10C12.8709 10 13.2182 10.101 13.516 10.2769L10.7769 13.016C10.601 12.7182 10.5 12.3709 10.5 12ZM11.484 13.7231C11.7818 13.899 12.1291 14 12.5 14C13.6046 14 14.5 13.1046 14.5 12C14.5 11.6291 14.399 11.2818 14.2231 10.984L11.484 13.7231Z"
        fill="#303233" />
</svg>
