<svg width="16" height="16" viewBox="0 0 16 16" fill="none" xmlns="http://www.w3.org/2000/svg">
    <path fill-rule="evenodd" clip-rule="evenodd"
        d="M7.85 1.25452C7.94676 1.42621 7.93364 1.63873 7.8165 1.79721C7.16639 2.67673 6.85356 3.76036 6.93489 4.85103C7.01623 5.94171 7.48633 6.96696 8.25969 7.74032C9.03305 8.51368 10.0583 8.98378 11.149 9.06511C12.2396 9.14645 13.3233 8.83362 14.2028 8.18351C14.3613 8.06637 14.5738 8.05325 14.7455 8.15001C14.9172 8.24677 15.016 8.43536 14.9979 8.63161C14.8753 9.95816 14.3774 11.2224 13.5626 12.2763C12.7477 13.3302 11.6496 14.1303 10.3966 14.5829C9.14361 15.0354 7.78766 15.1218 6.48739 14.8319C5.18712 14.542 3.99631 13.8877 3.0543 12.9457C2.11229 12.0037 1.45805 10.8129 1.16812 9.51262C0.878186 8.21235 0.964566 6.8564 1.41715 5.60343C1.86973 4.35046 2.66979 3.25229 3.72372 2.43743C4.77765 1.62257 6.04185 1.12472 7.3684 1.00213C7.56465 0.983994 7.75324 1.08283 7.85 1.25452Z"
        fill="#303233" />
</svg>
