<svg width="24" height="24" viewBox="0 0 24 24" fill="none" xmlns="http://www.w3.org/2000/svg">
    <path fill-rule="evenodd" clip-rule="evenodd"
        d="M0 5C0 3.34315 1.34315 2 3 2H9.17157C9.70201 2 10.2107 2.21071 10.5858 2.58579L11.4142 3.41421C11.7893 3.78929 12.298 4 12.8284 4H17C18.3062 4 19.4175 4.83481 19.8293 6H20.8195C22.6733 6 24.0835 7.6646 23.7787 9.4932L22.112 19.4932C21.8709 20.9398 20.6194 22 19.1528 22H3C1.34315 22 0 20.6569 0 19V5ZM19.9353 19.6229C19.7506 19.8545 19.4665 20 19.1528 20H3.18042C2.56248 20 2.09244 19.4451 2.19403 18.8356L3.8607 8.8356C3.94106 8.35341 4.35825 8 4.84709 8H20.8195C21.4374 8 21.9075 8.55487 21.8059 9.1644L20.1392 19.1644C20.1392 19.1644 20.1392 19.1644 20.1392 19.1644C20.1104 19.3372 20.0384 19.4935 19.9353 19.6229Z"
        fill="#303233" />
</svg>
