<svg width="24" height="24" viewBox="0 0 24 24" fill="none" xmlns="http://www.w3.org/2000/svg">
    <path
        d="M12.6241 1.58397C12.485 1.37533 12.2508 1.25 12 1.25C11.7493 1.25 11.5151 1.37533 11.376 1.58397L10.2081 3.3359C9.97829 3.68055 9.51264 3.77368 9.16799 3.54391L7.41607 2.37596C7.15825 2.20409 6.82128 2.20845 6.568 2.38694C6.31473 2.56543 6.19728 2.8813 6.27243 3.1819L7.27243 7.1819C7.28087 7.21566 7.29153 7.2484 7.30422 7.27999C7.26851 7.51479 7.25 7.75523 7.25 8C7.25 10.6234 9.37665 12.75 12 12.75C14.6234 12.75 16.75 10.6234 16.75 8C16.75 7.75528 16.7315 7.51489 16.6958 7.28014C16.7085 7.24851 16.7192 7.21572 16.7276 7.1819L17.7276 3.1819C17.8028 2.8813 17.6854 2.56543 17.4321 2.38694C17.1788 2.20845 16.8418 2.20409 16.584 2.37596L14.8321 3.54391C14.4874 3.77368 14.0218 3.68055 13.792 3.3359L12.6241 1.58397Z"
        fill="#303233" />
    <path
        d="M3.52563 20.8131C4.49693 17.0393 7.92175 14.25 11.9999 14.25C16.0781 14.25 19.5029 17.0393 20.4742 20.8131C20.532 21.0376 20.4827 21.2763 20.3406 21.4595C20.1986 21.6428 19.9798 21.75 19.7479 21.75H4.25196C4.0201 21.75 3.80127 21.6428 3.65921 21.4595C3.51715 21.2763 3.46784 21.0376 3.52563 20.8131Z"
        fill="#303233" />
</svg>
