<svg width="16" height="16" viewBox="0 0 16 16" fill="none" xmlns="http://www.w3.org/2000/svg">
    <path
        d="M6.25 8.5C6.25 8.22386 6.47386 8 6.75 8C7.02614 8 7.251 8.22386 7.251 8.5C7.251 8.77614 7.02714 9.001 6.751 9.001C6.47486 9.001 6.25 8.77614 6.25 8.5Z"
        fill="#303233" />
    <path
        d="M11.25 8.5C11.25 8.22386 11.4739 8 11.75 8C12.0261 8 12.251 8.22386 12.251 8.5C12.251 8.77614 12.0271 9.001 11.751 9.001C11.4749 9.001 11.25 8.77614 11.25 8.5Z"
        fill="#303233" />
    <path
        d="M9.25 8C8.97386 8 8.75 8.22386 8.75 8.5C8.75 8.77614 8.97486 9.001 9.251 9.001C9.52714 9.001 9.751 8.77614 9.751 8.5C9.751 8.22386 9.52614 8 9.25 8Z"
        fill="#303233" />
    <path
        d="M3.75 12.5C3.75 12.2239 3.97386 12 4.25 12C4.52614 12 4.751 12.2239 4.751 12.5C4.751 12.7761 4.52714 13.001 4.251 13.001C3.97486 13.001 3.75 12.7761 3.75 12.5Z"
        fill="#303233" />
    <path
        d="M6.75 12C6.47386 12 6.25 12.2239 6.25 12.5C6.25 12.7761 6.47486 13.001 6.751 13.001C7.02714 13.001 7.251 12.7761 7.251 12.5C7.251 12.2239 7.02614 12 6.75 12Z"
        fill="#303233" />
    <path
        d="M8.75 12.5C8.75 12.2239 8.97386 12 9.25 12C9.52614 12 9.751 12.2239 9.751 12.5C9.751 12.7761 9.52714 13.001 9.251 13.001C8.97486 13.001 8.75 12.7761 8.75 12.5Z"
        fill="#303233" />
    <path
        d="M4.25 10C3.97386 10 3.75 10.2239 3.75 10.5C3.75 10.7761 3.97486 11.001 4.251 11.001C4.52714 11.001 4.751 10.7761 4.751 10.5C4.751 10.2239 4.52614 10 4.25 10Z"
        fill="#303233" />
    <path
        d="M6.25 10.5C6.25 10.2239 6.47386 10 6.75 10C7.02614 10 7.251 10.2239 7.251 10.5C7.251 10.7761 7.02714 11.001 6.751 11.001C6.47486 11.001 6.25 10.7761 6.25 10.5Z"
        fill="#303233" />
    <path
        d="M11.75 10C11.4739 10 11.25 10.2239 11.25 10.5C11.25 10.7761 11.4749 11.001 11.751 11.001C12.0271 11.001 12.251 10.7761 12.251 10.5C12.251 10.2239 12.0261 10 11.75 10Z"
        fill="#303233" />
    <path
        d="M8.75 10.5C8.75 10.2239 8.97386 10 9.25 10C9.52614 10 9.751 10.2239 9.751 10.5C9.751 10.7761 9.52714 11.001 9.251 11.001C8.97486 11.001 8.75 10.7761 8.75 10.5Z"
        fill="#303233" />
    <path fill-rule="evenodd" clip-rule="evenodd"
        d="M6 1C6 0.723858 5.77614 0.5 5.5 0.5C5.22386 0.5 5 0.723858 5 1V2H2.94444C1.90899 2 1 2.78388 1 3.83333V13.1667C1 14.2161 1.90899 15 2.94444 15H13.0556C14.091 15 15 14.2161 15 13.1667V3.83333C15 2.78388 14.091 2 13.0556 2H11V1C11 0.723858 10.7761 0.5 10.5 0.5C10.2239 0.5 10 0.723858 10 1V2H6V1ZM10 4V3H6V4C6 4.27614 5.77614 4.5 5.5 4.5C5.22386 4.5 5 4.27614 5 4V3H2.94444C2.38441 3 2 3.41002 2 3.83333V6H14V3.83333C14 3.41002 13.6156 3 13.0556 3H11V4C11 4.27614 10.7761 4.5 10.5 4.5C10.2239 4.5 10 4.27614 10 4ZM14 7H2V13.1667C2 13.59 2.38441 14 2.94444 14H13.0556C13.6156 14 14 13.59 14 13.1667V7Z"
        fill="#303233" />
</svg>
