<svg width="16" height="16" viewBox="0 0 16 16" fill="none" xmlns="http://www.w3.org/2000/svg">
    <path fill-rule="evenodd" clip-rule="evenodd"
        d="M1.85355 1.14645C1.65829 0.951184 1.34171 0.951184 1.14645 1.14645C0.951184 1.34171 0.951184 1.65829 1.14645 1.85355L3.86243 4.56954C3.08939 5.38905 2.58964 6.47069 2.51092 7.66702C1.34007 8.07583 0.5 9.18935 0.5 10.5C0.5 12.1569 1.84315 13.5 3.5 13.5H11.5C11.8921 13.5 12.2717 13.4434 12.6307 13.3378L14.1464 14.8536C14.3417 15.0488 14.6583 15.0488 14.8536 14.8536C15.0488 14.6583 15.0488 14.3417 14.8536 14.1464L1.85355 1.14645ZM11.78 12.4871L4.56989 5.277C3.9058 5.99115 3.50034 6.94735 3.5 7.99868L3.5 8L3.50026 8.04724C3.50156 8.28608 3.33376 8.49248 3.09968 8.53997C2.18689 8.72515 1.5 9.53292 1.5 10.5C1.5 11.6046 2.39543 12.5 3.5 12.5H11.5C11.5945 12.5 11.6879 12.4956 11.78 12.4871Z"
        fill="#303233" />
    <path
        d="M7.21039 4.0103C7.30595 4.00348 7.40253 4 7.5 4C9.06986 4 10.4294 4.90428 11.0845 6.22265C11.1683 6.39119 11.3396 6.49843 11.5278 6.50013C13.1718 6.515 14.5 7.85241 14.5 9.5C14.5 9.96103 14.3964 10.3964 14.2116 10.7855C14.0931 11.0349 14.1992 11.3331 14.4486 11.4516C14.6981 11.5701 14.9963 11.464 15.1148 11.2145C15.362 10.6943 15.5 10.1126 15.5 9.5C15.5 7.4051 13.8896 5.68638 11.8392 5.51419C10.9772 4.01274 9.3573 3 7.5 3C7.37874 3 7.2584 3.00433 7.13915 3.01284C6.86371 3.03252 6.65636 3.27175 6.67604 3.54719C6.69571 3.82263 6.93494 4.02997 7.21039 4.0103Z"
        fill="#303233" />
</svg>
