<svg width="24" height="24" viewBox="0 0 24 24" fill="none" xmlns="http://www.w3.org/2000/svg">
    <g clip-path="url(#clip0_3668_62)">
        <path
            d="M14.5303 7.46967C14.2374 7.17678 13.7626 7.17678 13.4697 7.46967C13.1768 7.76256 13.1768 8.23744 13.4697 8.53033L15.1893 10.25H11C8.37665 10.25 6.25 12.3766 6.25 15C6.25 15.4142 6.58579 15.75 7 15.75C7.41421 15.75 7.75 15.4142 7.75 15C7.75 13.2051 9.20507 11.75 11 11.75H15.1893L13.4697 13.4697C13.1768 13.7626 13.1768 14.2374 13.4697 14.5303C13.7626 14.8232 14.2374 14.8232 14.5303 14.5303L17.5303 11.5303C17.8232 11.2374 17.8232 10.7626 17.5303 10.4697L14.5303 7.46967Z"
            fill="#303233" />
        <path fill-rule="evenodd" clip-rule="evenodd"
            d="M12 0.25C5.51065 0.25 0.25 5.51065 0.25 12C0.25 18.4893 5.51065 23.75 12 23.75C18.4893 23.75 23.75 18.4893 23.75 12C23.75 5.51065 18.4893 0.25 12 0.25ZM1.75 12C1.75 6.33908 6.33908 1.75 12 1.75C17.6609 1.75 22.25 6.33908 22.25 12C22.25 17.6609 17.6609 22.25 12 22.25C6.33908 22.25 1.75 17.6609 1.75 12Z"
            fill="#303233" />
    </g>
    <defs>
        <clipPath id="clip0_3668_62">
            <rect width="24" height="24" fill="white" />
        </clipPath>
    </defs>
</svg>
