<svg width="24" height="24" viewBox="0 0 24 24" fill="none" xmlns="http://www.w3.org/2000/svg">
    <path fill-rule="evenodd" clip-rule="evenodd"
        d="M6.48736 2.99924C10.0416 1.66639 13.9584 1.66639 17.5126 2.99924L19.0534 3.57701C20.2243 4.0161 21 5.13546 21 6.386V12C21 14.9647 19.3096 17.413 17.5505 19.1698C15.7763 20.9418 13.7968 22.1474 12.9255 22.6369C12.3469 22.962 11.6531 22.962 11.0745 22.6369C10.2032 22.1474 8.22373 20.9418 6.44951 19.1698C4.69041 17.413 3 14.9647 3 12V6.386C3 5.13546 3.77572 4.0161 4.94663 3.57701L6.48736 2.99924ZM16.8104 4.87189C13.7089 3.70884 10.2911 3.70884 7.18961 4.87189L5.64888 5.44967C5.25857 5.59603 5 5.96915 5 6.386V12C5 14.1858 6.25709 16.1511 7.86281 17.7547C9.41841 19.3083 11.1769 20.3962 12 20.8627C12.8231 20.3962 14.5816 19.3083 16.1372 17.7547C17.7429 16.1511 19 14.1858 19 12V6.386C19 5.96915 18.7414 5.59603 18.3511 5.44967L16.8104 4.87189Z"
        fill="#303233" />
    <path fill-rule="evenodd" clip-rule="evenodd"
        d="M15.7071 9.29289C16.0976 9.68341 16.0976 10.3166 15.7071 10.7071L11.7071 14.7071C11.5196 14.8946 11.2652 15 11 15C10.7348 15 10.4804 14.8946 10.2929 14.7071L8.29289 12.7071C7.90237 12.3166 7.90237 11.6834 8.29289 11.2929C8.68342 10.9024 9.31658 10.9024 9.70711 11.2929L11 12.5858L14.2929 9.29289C14.6834 8.90237 15.3166 8.90237 15.7071 9.29289Z"
        fill="#303233" />
</svg>
