<svg width="16" height="16" viewBox="0 0 16 16" fill="none" xmlns="http://www.w3.org/2000/svg">
    <path fill-rule="evenodd" clip-rule="evenodd"
        d="M5 2.25C4.0335 2.25 3.25 3.0335 3.25 4V12C3.25 12.9665 4.0335 13.75 5 13.75C5.9665 13.75 6.75 12.9665 6.75 12V4C6.75 3.0335 5.9665 2.25 5 2.25ZM4.75 4C4.75 3.86193 4.86193 3.75 5 3.75C5.13807 3.75 5.25 3.86193 5.25 4V12C5.25 12.1381 5.13807 12.25 5 12.25C4.86193 12.25 4.75 12.1381 4.75 12V4Z"
        fill="#303233" />
    <path fill-rule="evenodd" clip-rule="evenodd"
        d="M11 2.25C10.0335 2.25 9.25 3.0335 9.25 4V12C9.25 12.9665 10.0335 13.75 11 13.75C11.9665 13.75 12.75 12.9665 12.75 12V4C12.75 3.0335 11.9665 2.25 11 2.25ZM10.75 4C10.75 3.86193 10.8619 3.75 11 3.75C11.1381 3.75 11.25 3.86193 11.25 4V12C11.25 12.1381 11.1381 12.25 11 12.25C10.8619 12.25 10.75 12.1381 10.75 12V4Z"
        fill="#303233" />
</svg>
