<svg width="24" height="24" viewBox="0 0 24 24" fill="none" xmlns="http://www.w3.org/2000/svg">
    <path fill-rule="evenodd" clip-rule="evenodd"
        d="M8.7587 1H15.2413C16.0463 0.999988 16.7106 0.999977 17.2518 1.04419C17.8139 1.09012 18.3306 1.18868 18.816 1.43597C19.5686 1.81947 20.1805 2.43139 20.564 3.18404C20.8113 3.66937 20.9099 4.18608 20.9558 4.74817C21 5.28936 21 5.95372 21 6.75868V17.2413C21 18.0463 21 18.7106 20.9558 19.2518C20.9099 19.8139 20.8113 20.3306 20.564 20.816C20.1805 21.5686 19.5686 22.1805 18.816 22.564C18.3306 22.8113 17.8139 22.9099 17.2518 22.9558C16.7106 23 16.0463 23 15.2413 23H8.75868C7.95372 23 7.28936 23 6.74817 22.9558C6.18608 22.9099 5.66937 22.8113 5.18404 22.564C4.43139 22.1805 3.81947 21.5686 3.43597 20.816C3.18868 20.3306 3.09012 19.8139 3.04419 19.2518C2.99998 18.7106 2.99999 18.0463 3 17.2413V6.7587C2.99999 5.95373 2.99998 5.28937 3.04419 4.74817C3.09012 4.18608 3.18868 3.66937 3.43597 3.18404C3.81947 2.43139 4.43139 1.81947 5.18404 1.43597C5.66937 1.18868 6.18608 1.09012 6.74817 1.04419C7.28937 0.999977 7.95373 0.999988 8.7587 1ZM6.91104 3.03755C6.47262 3.07337 6.24842 3.1383 6.09202 3.21799C5.7157 3.40973 5.40973 3.7157 5.21799 4.09202C5.1383 4.24842 5.07337 4.47262 5.03755 4.91104C5.00078 5.36113 5 5.94342 5 6.8V17.2C5 18.0566 5.00078 18.6389 5.03755 19.089C5.07337 19.5274 5.1383 19.7516 5.21799 19.908C5.40973 20.2843 5.7157 20.5903 6.09202 20.782C6.24842 20.8617 6.47262 20.9266 6.91104 20.9624C7.36113 20.9992 7.94342 21 8.8 21H15.2C16.0566 21 16.6389 20.9992 17.089 20.9624C17.5274 20.9266 17.7516 20.8617 17.908 20.782C18.2843 20.5903 18.5903 20.2843 18.782 19.908C18.8617 19.7516 18.9266 19.5274 18.9624 19.089C18.9992 18.6389 19 18.0566 19 17.2V6.8C19 5.94342 18.9992 5.36113 18.9624 4.91104C18.9266 4.47262 18.8617 4.24842 18.782 4.09202C18.5903 3.7157 18.2843 3.40973 17.908 3.21799C17.7516 3.1383 17.5274 3.07337 17.089 3.03755C16.6389 3.00078 16.0566 3 15.2 3H8.8C7.94342 3 7.36113 3.00078 6.91104 3.03755Z"
        fill="#303233" />
    <path
        d="M8 7C7.44772 7 7 7.44772 7 8V9C7 9.55228 7.44772 10 8 10H9C9.55228 10 10 9.55228 10 9V8C10 7.44772 9.55228 7 9 7H8Z"
        fill="#303233" />
    <path
        d="M10.5 8C10.5 7.44772 10.9477 7 11.5 7H12.5C13.0523 7 13.5 7.44772 13.5 8V9C13.5 9.55228 13.0523 10 12.5 10H11.5C10.9477 10 10.5 9.55228 10.5 9V8Z"
        fill="#303233" />
    <path
        d="M14 8C14 7.44772 14.4477 7 15 7H16C16.5523 7 17 7.44772 17 8V9C17 9.55228 16.5523 10 16 10H15C14.4477 10 14 9.55228 14 9V8Z"
        fill="#303233" />
    <path
        d="M10.5 15C10.5 14.4477 10.9477 14 11.5 14H12.5C13.0523 14 13.5 14.4477 13.5 15V16C13.5 16.5523 13.0523 17 12.5 17H11.5C10.9477 17 10.5 16.5523 10.5 16V15Z"
        fill="#303233" />
    <path
        d="M15 14C14.4477 14 14 14.4477 14 15V16C14 16.5523 14.4477 17 15 17H16C16.5523 17 17 16.5523 17 16V15C17 14.4477 16.5523 14 16 14H15Z"
        fill="#303233" />
    <path
        d="M7 15C7 14.4477 7.44772 14 8 14H9C9.55228 14 10 14.4477 10 15V16C10 16.5523 9.55228 17 9 17H8C7.44772 17 7 16.5523 7 16V15Z"
        fill="#303233" />
    <path
        d="M11.5 10.5C10.9477 10.5 10.5 10.9477 10.5 11.5V12.5C10.5 13.0523 10.9477 13.5 11.5 13.5H12.5C13.0523 13.5 13.5 13.0523 13.5 12.5V11.5C13.5 10.9477 13.0523 10.5 12.5 10.5H11.5Z"
        fill="#303233" />
    <path
        d="M14 11.5C14 10.9477 14.4477 10.5 15 10.5H16C16.5523 10.5 17 10.9477 17 11.5V12.5C17 13.0523 16.5523 13.5 16 13.5H15C14.4477 13.5 14 13.0523 14 12.5V11.5Z"
        fill="#303233" />
    <path
        d="M8 10.5C7.44772 10.5 7 10.9477 7 11.5V12.5C7 13.0523 7.44772 13.5 8 13.5H9C9.55228 13.5 10 13.0523 10 12.5V11.5C10 10.9477 9.55228 10.5 9 10.5H8Z"
        fill="#303233" />
</svg>
