<svg width="16" height="16" viewBox="0 0 16 16" fill="none" xmlns="http://www.w3.org/2000/svg">
    <path fill-rule="evenodd" clip-rule="evenodd"
        d="M1.5 1C1.22386 1 1 1.22386 1 1.5V11.5C1 13.433 2.567 15 4.5 15H11.5C13.433 15 15 13.433 15 11.5V1.5C15 1.22386 14.7761 1 14.5 1H1.5ZM5.375 3C4.06332 3 3 4.06332 3 5.375C3 6.68668 4.06332 7.75 5.375 7.75C6.68668 7.75 7.75 6.68668 7.75 5.375C7.75 4.06332 6.68668 3 5.375 3ZM9.5 6C9.22386 6 9 6.22386 9 6.5V9.5C9 9.77614 9.22386 10 9.5 10H12.5C12.7761 10 13 9.77614 13 9.5V6.5C13 6.22386 12.7761 6 12.5 6H9.5ZM6.75 9C6.90738 9 7.05558 9.0741 7.15 9.2L9.4 12.2C9.51363 12.3515 9.53191 12.5542 9.44722 12.7236C9.36252 12.893 9.18939 13 9 13H4.5C4.31062 13 4.13749 12.893 4.05279 12.7236C3.96809 12.5542 3.98637 12.3515 4.1 12.2L6.35 9.2C6.44443 9.0741 6.59262 9 6.75 9Z"
        fill="#303233" />
</svg>
