<svg width="24" height="24" viewBox="0 0 24 24" fill="none" xmlns="http://www.w3.org/2000/svg">
    <path fill-rule="evenodd" clip-rule="evenodd"
        d="M5 2C3.34315 2 2 3.34315 2 5V19C2 20.6569 3.34315 22 5 22H19C20.6569 22 22 20.6569 22 19V5C22 3.34315 20.6569 2 19 2H5ZM10.0547 7.16795C9.74784 6.96338 9.3533 6.94431 9.02814 7.11833C8.70298 7.29235 8.5 7.63121 8.5 8V16C8.5 16.3688 8.70298 16.7077 9.02814 16.8817C9.3533 17.0557 9.74784 17.0366 10.0547 16.8321L16.0547 12.8321C16.3329 12.6466 16.5 12.3344 16.5 12C16.5 11.6656 16.3329 11.3534 16.0547 11.168L10.0547 7.16795Z"
        fill="#303233" />
</svg>
