<svg width="16" height="16" viewBox="0 0 16 16" fill="none" xmlns="http://www.w3.org/2000/svg">
    <path fill-rule="evenodd" clip-rule="evenodd"
        d="M8.00015 3.5C6.61944 3.5 5.50015 4.61929 5.50015 6C5.50015 7.38071 6.61944 8.5 8.00015 8.5C9.38086 8.5 10.5002 7.38071 10.5002 6C10.5002 4.61929 9.38086 3.5 8.00015 3.5ZM6.50015 6C6.50015 5.17157 7.17172 4.5 8.00015 4.5C8.82858 4.5 9.50015 5.17157 9.50015 6C9.50015 6.82843 8.82858 7.5 8.00015 7.5C7.17172 7.5 6.50015 6.82843 6.50015 6Z"
        fill="#303233" />
    <path fill-rule="evenodd" clip-rule="evenodd"
        d="M8 1C4.13401 1 1 4.13401 1 8C1 11.866 4.13401 15 8 15C11.866 15 15 11.866 15 8C15 4.13401 11.866 1 8 1ZM2 8C2 4.68629 4.68629 2 8 2C11.3137 2 14 4.68629 14 8C14 9.58318 13.3868 11.0231 12.385 12.0954C11.5349 10.5484 9.88995 9.5 8.00015 9.5C6.11027 9.5 4.46529 10.5485 3.61518 12.0956C2.61325 11.0233 2 9.58328 2 8ZM4.38387 12.7883C5.38941 13.5489 6.64202 14 8 14C9.35808 14 10.6108 13.5488 11.6164 12.7881C10.9749 11.4354 9.59675 10.5 8.00015 10.5C6.40349 10.5 5.02533 11.4355 4.38387 12.7883Z"
        fill="#303233" />
</svg>
