<svg width="16" height="16" viewBox="0 0 16 16" fill="none" xmlns="http://www.w3.org/2000/svg">
    <g clip-path="url(#clip0_53_9508)">
        <path fill-rule="evenodd" clip-rule="evenodd"
            d="M1.35355 0.646447C1.15829 0.451184 0.841709 0.451184 0.646447 0.646447C0.451184 0.841709 0.451184 1.15829 0.646447 1.35355L14.6464 15.3536C14.8417 15.5488 15.1583 15.5488 15.3536 15.3536C15.5488 15.1583 15.5488 14.8417 15.3536 14.6464L14.36 13.6529C14.4977 13.4966 14.6162 13.3228 14.7119 13.135C14.8628 12.8388 14.9257 12.5187 14.9555 12.1543C14.9844 11.8004 14.9844 11.3633 14.9844 10.8215V5.17858C14.9844 4.63672 14.9844 4.19961 14.9555 3.84569C14.9257 3.48126 14.8628 3.16117 14.7119 2.86502C14.4722 2.39462 14.0897 2.01217 13.6193 1.77248C13.3232 1.62159 13.0031 1.55868 12.6387 1.52891C12.2847 1.49999 11.8477 1.5 11.3058 1.5H4.6786C4.13671 1.5 3.69963 1.49999 3.34569 1.52891C3.01278 1.55611 2.71686 1.61096 2.44239 1.73528L1.35355 0.646447ZM10.4453 9.73823L13.6505 12.9434C13.716 12.8626 13.7731 12.7747 13.8209 12.681C13.888 12.5493 13.934 12.3755 13.9588 12.0729C13.984 11.7645 13.9844 11.3683 13.9844 10.8V5.2C13.9844 4.6317 13.984 4.23554 13.9588 3.92712C13.934 3.62454 13.888 3.45069 13.8209 3.31901C13.6771 3.03677 13.4476 2.8073 13.1653 2.66349C13.0337 2.5964 12.8598 2.55031 12.5572 2.52559C12.2488 2.50039 11.8527 2.5 11.2844 2.5H4.70001C4.1317 2.5 3.73555 2.50039 3.42713 2.52559C3.36301 2.53083 3.30467 2.53702 3.25129 2.54418L6.26177 5.55466C6.75214 5.20559 7.35257 5 8 5C9.65685 5 11 6.34315 11 8C11 8.64744 10.7944 9.24786 10.4453 9.73823ZM9.72316 9.01605C9.89917 8.71836 10 8.37133 10 8C10 6.89543 9.10457 6 8 6C7.62867 6 7.28164 6.10083 6.98395 6.27684L9.72316 9.01605Z"
            fill="#303233" />
        <path
            d="M1.5 4.5C1.77614 4.5 2 4.72386 2 5V10.8C2 11.3683 2.00039 11.7645 2.02559 12.0729C2.05031 12.3755 2.0964 12.5493 2.16349 12.681C2.3073 12.9632 2.53677 13.1927 2.81901 13.3365C2.95069 13.4036 3.12454 13.4497 3.42712 13.4744C3.73554 13.4996 4.1317 13.5 4.7 13.5H10.5C10.7761 13.5 11 13.7239 11 14C11 14.2761 10.7761 14.5 10.5 14.5H4.67858C4.13672 14.5 3.69961 14.5 3.34569 14.4711C2.98126 14.4413 2.66117 14.3784 2.36502 14.2275C1.89462 13.9878 1.51217 13.6054 1.27248 13.135C1.12159 12.8388 1.05868 12.5187 1.02891 12.1543C0.999991 11.8004 0.999995 11.3633 1 10.8214L1 5C1 4.72386 1.22386 4.5 1.5 4.5Z"
            fill="#303233" />
        <path
            d="M6 8C6 7.72386 5.77614 7.5 5.5 7.5C5.22386 7.5 5 7.72386 5 8C5 9.65685 6.34315 11 8 11C8.27614 11 8.5 10.7761 8.5 10.5C8.5 10.2239 8.27614 10 8 10C6.89543 10 6 9.10457 6 8Z"
            fill="#303233" />
    </g>
    <defs>
        <clipPath id="clip0_53_9508">
            <rect width="16" height="16" fill="white" />
        </clipPath>
    </defs>
</svg>
