<svg width="16" height="16" viewBox="0 0 16 16" fill="none" xmlns="http://www.w3.org/2000/svg">
    <path
        d="M6.5 7.5C6.5 7.22386 6.27614 7 6 7C5.72386 7 5.5 7.22386 5.5 7.5V8.5C5.5 8.77614 5.72386 9 6 9C6.27614 9 6.5 8.77614 6.5 8.5V7.5Z"
        fill="#303233" />
    <path fill-rule="evenodd" clip-rule="evenodd"
        d="M12.9193 3H3.08073C2.81716 2.99999 2.58977 2.99998 2.40249 3.01529C2.20481 3.03144 2.00821 3.06709 1.81902 3.16349C1.53677 3.3073 1.3073 3.53677 1.16349 3.81902C1.06709 4.00821 1.03144 4.20481 1.01529 4.40249C0.999984 4.58977 0.999992 4.81714 1 5.08071V6.06301C1 6.29115 1.15443 6.49036 1.37537 6.54723C2.02244 6.71377 2.5 7.30175 2.5 8C2.5 8.69826 2.02244 9.28623 1.37537 9.45277C1.15443 9.50964 1 9.70885 1 9.93699V10.9193C0.999992 11.1828 0.999984 11.4102 1.01529 11.5975C1.03144 11.7952 1.06709 11.9918 1.16349 12.181C1.3073 12.4632 1.53677 12.6927 1.81902 12.8365C2.00821 12.9329 2.20481 12.9686 2.40249 12.9847C2.58977 13 2.81715 13 3.08072 13H12.9193C13.1829 13 13.4102 13 13.5975 12.9847C13.7952 12.9686 13.9918 12.9329 14.181 12.8365C14.4632 12.6927 14.6927 12.4632 14.8365 12.181C14.9329 11.9918 14.9686 11.7952 14.9847 11.5975C15 11.4102 15 11.1829 15 10.9193V9.93699C15 9.70885 14.8456 9.50964 14.6246 9.45277C13.9776 9.28623 13.5 8.69826 13.5 8C13.5 7.30175 13.9776 6.71377 14.6246 6.54723C14.8456 6.49036 15 6.29115 15 6.06301V5.08072C15 4.81715 15 4.58977 14.9847 4.40249C14.9686 4.20481 14.9329 4.00821 14.8365 3.81902C14.6927 3.53677 14.4632 3.3073 14.181 3.16349C13.9918 3.06709 13.7952 3.03144 13.5975 3.01529C13.4102 2.99998 13.1828 2.99999 12.9193 3ZM5.5 5V4H3.1C2.81172 4 2.62559 4.00039 2.48392 4.01196C2.34809 4.02306 2.29773 4.0419 2.27301 4.0545C2.17892 4.10243 2.10243 4.17893 2.0545 4.27301C2.0419 4.29773 2.02306 4.34809 2.01196 4.48392C2.00039 4.62559 2 4.81172 2 5.1V5.70819C2.88276 6.09391 3.5 6.97439 3.5 8C3.5 9.02561 2.88276 9.90609 2 10.2918V10.9C2 11.1883 2.00039 11.3744 2.01196 11.5161C2.02306 11.6519 2.0419 11.7023 2.0545 11.727C2.10243 11.8211 2.17893 11.8976 2.27301 11.9455C2.29773 11.9581 2.34809 11.9769 2.48392 11.988C2.62559 11.9996 2.81173 12 3.1 12H5.5V11C5.5 10.7239 5.72386 10.5 6 10.5C6.27614 10.5 6.5 10.7239 6.5 11V12H12.9C13.1883 12 13.3744 11.9996 13.5161 11.988C13.6519 11.9769 13.7023 11.9581 13.727 11.9455C13.8211 11.8976 13.8976 11.8211 13.9455 11.727C13.9581 11.7023 13.9769 11.6519 13.988 11.5161C13.9996 11.3744 14 11.1883 14 10.9V10.2918C13.1172 9.90609 12.5 9.02561 12.5 8C12.5 6.97439 13.1172 6.09391 14 5.70819V5.1C14 4.81172 13.9996 4.62559 13.988 4.48392C13.9769 4.34809 13.9581 4.29773 13.9455 4.27301C13.8976 4.17893 13.8211 4.10243 13.727 4.0545C13.7023 4.0419 13.6519 4.02306 13.5161 4.01196C13.3744 4.00039 13.1883 4 12.9 4H6.5V5C6.5 5.27614 6.27614 5.5 6 5.5C5.72386 5.5 5.5 5.27614 5.5 5Z"
        fill="#303233" />
</svg>
