<svg width="16" height="16" viewBox="0 0 16 16" fill="none" xmlns="http://www.w3.org/2000/svg">
    <path fill-rule="evenodd" clip-rule="evenodd"
        d="M4.2759 1.67531C6.677 0.774897 9.323 0.774897 11.7241 1.67531L12.7834 2.07253C13.5152 2.34696 14 3.04656 14 3.82815V7.68777C14 9.65296 12.8785 11.2909 11.6835 12.4844C10.4809 13.6854 9.1366 14.5045 8.54446 14.8372C8.20371 15.0286 7.79629 15.0286 7.45554 14.8372C6.8634 14.5045 5.5191 13.6854 4.31654 12.4844C3.12153 11.2909 2 9.65296 2 7.68777V3.82815C2 3.04656 2.48482 2.34696 3.21664 2.07253L4.2759 1.67531ZM11.373 2.61164C9.19827 1.79612 6.80173 1.79612 4.62702 2.61164L3.56777 3.00886C3.22625 3.13693 3 3.46341 3 3.82815V7.68777C3 9.26354 3.90487 10.6599 5.02318 11.7768C6.13394 12.8861 7.38986 13.6533 7.94537 13.9654C7.98193 13.9859 8.01807 13.9859 8.05463 13.9654C8.61014 13.6533 9.86606 12.8861 10.9768 11.7768C12.0951 10.6599 13 9.26354 13 7.68777V3.82815C13 3.46341 12.7737 3.13693 12.4322 3.00886L11.373 2.61164Z"
        fill="#303233" />
    <path fill-rule="evenodd" clip-rule="evenodd"
        d="M10.1036 5.64645C10.2988 5.84171 10.2988 6.15829 10.1036 6.35355L8.70711 7.75L10.1036 9.14645C10.2988 9.34171 10.2988 9.65829 10.1036 9.85355C9.90829 10.0488 9.59171 10.0488 9.39645 9.85355L8 8.45711L6.60355 9.85355C6.40829 10.0488 6.09171 10.0488 5.89645 9.85355C5.70118 9.65829 5.70118 9.34171 5.89645 9.14645L7.29289 7.75L5.89645 6.35355C5.70118 6.15829 5.70118 5.84171 5.89645 5.64645C6.09171 5.45118 6.40829 5.45118 6.60355 5.64645L8 7.04289L9.39645 5.64645C9.59171 5.45118 9.90829 5.45118 10.1036 5.64645Z"
        fill="#303233" />
</svg>
