<svg width="16" height="16" viewBox="0 0 16 16" fill="none" xmlns="http://www.w3.org/2000/svg">
    <path
        d="M6 2C6 1.72386 5.77614 1.5 5.5 1.5C5.22386 1.5 5 1.72386 5 2V2.14C5 2.73631 4.99961 3.15346 4.97305 3.47856C4.94697 3.79782 4.89815 3.98401 4.82561 4.12638C4.67221 4.42744 4.42744 4.67221 4.12638 4.82561C3.98401 4.89815 3.79782 4.94697 3.47856 4.97305C3.15346 4.99961 2.73631 5 2.14 5H2C1.72386 5 1.5 5.22386 1.5 5.5C1.5 5.77614 1.72386 6 2 6H2.16153C2.73133 6 3.18938 6.00001 3.55999 5.96973C3.94109 5.93859 4.27353 5.87296 4.58038 5.71662C5.0696 5.46735 5.46735 5.0696 5.71662 4.58038C5.87296 4.27353 5.93859 3.94109 5.96973 3.55999C6.00001 3.18938 6 2.73133 6 2.16153V2Z"
        fill="#303233" />
    <path
        d="M10 2C10 1.72386 10.2239 1.5 10.5 1.5C10.7761 1.5 11 1.72386 11 2V2.14C11 2.73631 11.0004 3.15346 11.0269 3.47856C11.053 3.79782 11.1018 3.98401 11.1744 4.12638C11.3278 4.42744 11.5726 4.67221 11.8736 4.82561C12.016 4.89815 12.2022 4.94697 12.5214 4.97305C12.8465 4.99961 13.2637 5 13.86 5H14C14.2761 5 14.5 5.22386 14.5 5.5C14.5 5.77614 14.2761 6 14 6H13.8385C13.2687 6 12.8106 6.00001 12.44 5.96973C12.0589 5.93859 11.7265 5.87296 11.4196 5.71662C10.9304 5.46735 10.5327 5.0696 10.2834 4.58038C10.127 4.27353 10.0614 3.94109 10.0303 3.55999C9.99999 3.18938 10 2.73133 10 2.16153V2Z"
        fill="#303233" />
    <path
        d="M5.5 14.5C5.77614 14.5 6 14.2761 6 14V13.8385C6 13.2687 6.00001 12.8106 5.96973 12.44C5.93859 12.0589 5.87296 11.7265 5.71662 11.4196C5.46735 10.9304 5.0696 10.5327 4.58038 10.2834C4.27353 10.127 3.94109 10.0614 3.55999 10.0303C3.18938 9.99999 2.73133 10 2.16153 10H2C1.72386 10 1.5 10.2239 1.5 10.5C1.5 10.7761 1.72386 11 2 11H2.14C2.73631 11 3.15346 11.0004 3.47856 11.0269C3.79782 11.053 3.98401 11.1018 4.12638 11.1744C4.42744 11.3278 4.67221 11.5726 4.82561 11.8736C4.89815 12.016 4.94697 12.2022 4.97305 12.5214C4.99961 12.8465 5 13.2637 5 13.86V14C5 14.2761 5.22386 14.5 5.5 14.5Z"
        fill="#303233" />
    <path
        d="M10 14C10 14.2761 10.2239 14.5 10.5 14.5C10.7761 14.5 11 14.2761 11 14V13.86C11 13.2637 11.0004 12.8465 11.0269 12.5214C11.053 12.2022 11.1018 12.016 11.1744 11.8736C11.3278 11.5726 11.5726 11.3278 11.8736 11.1744C12.016 11.1018 12.2022 11.053 12.5214 11.0269C12.8465 11.0004 13.2637 11 13.86 11H14C14.2761 11 14.5 10.7761 14.5 10.5C14.5 10.2239 14.2761 10 14 10H13.8385C13.2687 10 12.8106 9.99999 12.44 10.0303C12.0589 10.0614 11.7265 10.127 11.4196 10.2834C10.9304 10.5327 10.5327 10.9304 10.2834 11.4196C10.127 11.7265 10.0614 12.0589 10.0303 12.44C9.99999 12.8106 10 13.2687 10 13.8385V14Z"
        fill="#303233" />
</svg>
