<svg width="16" height="16" viewBox="0 0 16 16" fill="none" xmlns="http://www.w3.org/2000/svg">
    <g clip-path="url(#clip0_53_10237)">
        <path fill-rule="evenodd" clip-rule="evenodd"
            d="M15.25 8C15.25 12.0041 12.0041 15.25 8 15.25C3.99594 15.25 0.75 12.0041 0.75 8C0.75 3.99594 3.99594 0.75 8 0.75C12.0041 0.75 15.25 3.99594 15.25 8ZM8 4.75C8.41421 4.75 8.75 5.08579 8.75 5.5V8.68934L9.96967 7.46967C10.2626 7.17678 10.7374 7.17678 11.0303 7.46967C11.3232 7.76256 11.3232 8.23744 11.0303 8.53033L8.53033 11.0303C8.45842 11.1022 8.37555 11.1565 8.28709 11.1931C8.19866 11.2298 8.10169 11.25 8 11.25C7.89831 11.25 7.80134 11.2298 7.71291 11.1931C7.62445 11.1565 7.54158 11.1022 7.46967 11.0303L4.96967 8.53033C4.67678 8.23744 4.67678 7.76256 4.96967 7.46967C5.26256 7.17678 5.73744 7.17678 6.03033 7.46967L7.25 8.68934V5.5C7.25 5.08579 7.58579 4.75 8 4.75Z"
            fill="#303233" />
    </g>
    <defs>
        <clipPath id="clip0_53_10237">
            <rect width="16" height="16" fill="white" />
        </clipPath>
    </defs>
</svg>
