<svg width="24" height="24" viewBox="0 0 24 24" fill="none" xmlns="http://www.w3.org/2000/svg">
    <path
        d="M12.0525 13.2455C12.0508 13.2401 12.0603 13.2688 12.0866 13.3474C12.0674 13.29 12.0543 13.2508 12.0525 13.2455Z"
        fill="#303233" />
    <path fill-rule="evenodd" clip-rule="evenodd"
        d="M15.2413 1H8.7587C7.95374 0.999988 7.28937 0.999978 6.74818 1.04419C6.18608 1.09012 5.66937 1.18868 5.18404 1.43598C4.43139 1.81947 3.81947 2.43139 3.43598 3.18404C3.18868 3.66937 3.09012 4.18608 3.04419 4.74818C2.99998 5.28937 2.99999 5.95372 3 6.75869V17.2413C2.99999 18.0463 2.99998 18.7106 3.04419 19.2518C3.09012 19.8139 3.18868 20.3306 3.43598 20.816C3.81947 21.5686 4.43139 22.1805 5.18404 22.564C5.66937 22.8113 6.18608 22.9099 6.74818 22.9558C7.28936 23 7.95372 23 8.75868 23H15.2413C16.0463 23 16.7106 23 17.2518 22.9558C17.8139 22.9099 18.3306 22.8113 18.816 22.564C19.5686 22.1805 20.1805 21.5686 20.564 20.816C20.8113 20.3306 20.9099 19.8139 20.9558 19.2518C21 18.7106 21 18.0463 21 17.2413V6.75868C21 5.95372 21 5.28936 20.9558 4.74818C20.9099 4.18608 20.8113 3.66937 20.564 3.18404C20.1805 2.43139 19.5686 1.81947 18.816 1.43598C18.3306 1.18868 17.8139 1.09012 17.2518 1.04419C16.7106 0.999978 16.0463 0.999988 15.2413 1ZM11.3383 9.67211C11.5925 9.52274 11.8913 9.46814 12.1818 9.51797C12.4724 9.56781 12.7359 9.71888 12.9258 9.94441C13.1157 10.1699 13.2196 10.4554 13.2191 10.7502L13.2191 10.7517C13.2191 10.9703 13.0419 11.2714 12.5403 11.6059C12.3199 11.7528 12.0923 11.8673 11.916 11.9457C11.8292 11.9842 11.7583 12.0125 11.7114 12.0304C11.6881 12.0393 11.6709 12.0455 11.661 12.049L11.6519 12.0522L11.6534 12.0517C11.1302 12.2268 10.8476 12.7927 11.0221 13.3162C11.1968 13.8402 11.7631 14.1233 12.287 13.9487C12.1838 13.6389 12.1209 13.4504 12.0866 13.3474C12.1517 13.5427 12.2874 13.9486 12.2882 13.9483L12.2897 13.9478L12.2932 13.9466L12.3026 13.9434L12.3311 13.9334C12.3541 13.9252 12.3853 13.9139 12.4234 13.8994C12.4995 13.8704 12.6042 13.8284 12.7282 13.7733C12.9734 13.6643 13.308 13.4978 13.6497 13.27C14.272 12.8551 15.2187 12.0324 15.2191 10.7526C15.2201 9.98569 14.9498 9.24313 14.4559 8.65641C13.9618 8.06954 13.276 7.67645 12.52 7.54676C11.7639 7.41708 10.9863 7.55916 10.3249 7.94785C9.66357 8.33653 9.16111 8.94674 8.90655 9.67039C8.72328 10.1914 8.99705 10.7623 9.51804 10.9456C10.039 11.1288 10.6099 10.8551 10.7932 10.3341C10.891 10.056 11.0841 9.82148 11.3383 9.67211ZM11.9999 15C11.4476 15 10.9999 15.4477 10.9999 16C10.9999 16.5523 11.4476 17 11.9999 17H12.0099C12.5622 17 13.0099 16.5523 13.0099 16C13.0099 15.4477 12.5622 15 12.0099 15H11.9999Z"
        fill="#303233" />
</svg>
