<svg width="24" height="24" viewBox="0 0 24 24" fill="none" xmlns="http://www.w3.org/2000/svg">
    <path fill-rule="evenodd" clip-rule="evenodd"
        d="M6.6 1.25H17.4C18.144 1.25 18.51 1.296 18.795 1.441C19.124 1.609 19.391 1.876 19.559 2.205C19.704 2.49 19.75 2.856 19.75 3.6V5.675C19.75 6.253 19.739 6.541 19.674 6.814C19.607 7.094 19.496 7.362 19.345 7.608C19.199 7.847 19.002 8.059 18.593 8.468L15.662 11.399L15.301 11.768C15.286 11.7846 15.2716 11.7994 15.2582 11.8132C15.2198 11.8527 15.1896 11.8837 15.177 11.923H15.176C15.16 11.973 15.16 12.027 15.176 12.077H15.177C15.1896 12.1163 15.2198 12.1473 15.2582 12.1868C15.2716 12.2006 15.286 12.2154 15.301 12.232C15.395 12.334 15.513 12.453 15.662 12.601L18.593 15.532C19.002 15.941 19.198 16.153 19.345 16.391V16.392C19.496 16.638 19.607 16.906 19.674 17.186C19.739 17.459 19.75 17.747 19.75 18.326V20.4C19.75 21.144 19.704 21.51 19.559 21.795C19.391 22.124 19.124 22.391 18.794 22.559C18.51 22.704 18.144 22.75 17.4 22.75H6.6C5.856 22.75 5.49 22.704 5.205 22.559C4.876 22.391 4.609 22.124 4.441 21.794C4.296 21.51 4.25 21.144 4.25 20.4V18.325C4.25 17.747 4.261 17.459 4.326 17.186C4.393 16.906 4.504 16.638 4.655 16.392V16.391C4.801 16.153 4.998 15.941 5.407 15.532L8.338 12.601L8.699 12.232C8.71428 12.2151 8.72893 12.2001 8.74256 12.1861C8.78066 12.1469 8.81074 12.116 8.824 12.077C8.84 12.027 8.84 11.973 8.824 11.923C8.81074 11.884 8.78066 11.8531 8.74256 11.8139C8.72893 11.7999 8.71428 11.7849 8.699 11.768C8.605 11.666 8.487 11.547 8.338 11.399L5.407 8.468C4.998 8.059 4.801 7.847 4.655 7.608C4.504 7.362 4.393 7.094 4.326 6.813C4.261 6.541 4.25 6.253 4.25 5.675V3.6C4.25 2.856 4.296 2.489 4.441 2.205C4.609 1.876 4.876 1.609 5.205 1.441H5.206C5.49 1.296 5.856 1.25 6.6 1.25ZM11.4696 9.03033C11.7625 9.32322 12.2374 9.32322 12.5303 9.03033L15.5303 6.03033C15.7448 5.81583 15.809 5.49324 15.6929 5.21299C15.5768 4.93273 15.3033 4.75 15 4.75L8.99998 4.75C8.69663 4.75 8.42315 4.93273 8.30707 5.21299C8.19098 5.49324 8.25515 5.81583 8.46965 6.03033L11.4696 9.03033Z"
        fill="#303233" />
</svg>
