<svg width="16" height="16" viewBox="0 0 16 16" fill="none" xmlns="http://www.w3.org/2000/svg">
    <path
        d="M12.75 8.75H11.25V10.75H12.748C12.7481 10.6691 12.75 10.5858 12.75 10.5V8.75ZM6.25 13.748C6.3309 13.7481 6.4142 13.75 6.5 13.75H9.5C9.58581 13.75 9.6691 13.7481 9.75 13.748V8.75H6.25V13.748ZM3.31641 12.5947C3.37845 13.0561 3.48591 13.2535 3.61621 13.3838C3.74652 13.5141 3.94389 13.6216 4.40528 13.6836C4.51159 13.6979 4.62613 13.707 4.75 13.7158V12.25H3.2832C3.29202 12.3739 3.30211 12.4884 3.31641 12.5947ZM11.25 13.7158C11.3739 13.707 11.4884 13.6979 11.5947 13.6836C12.0561 13.6216 12.2535 13.5141 12.3838 13.3838C12.5141 13.2535 12.6216 13.0561 12.6836 12.5947C12.6979 12.4884 12.708 12.3739 12.7168 12.25H11.25V13.7158ZM6.25 2.25098V7.25H9.75V2.25098C9.6691 2.25091 9.58581 2.25 9.5 2.25H6.5C6.4142 2.25 6.3309 2.25091 6.25 2.25098ZM11.25 3.75H12.7168C12.708 3.6261 12.6979 3.51161 12.6836 3.40528C12.6216 2.94389 12.5141 2.74652 12.3838 2.61621C12.2535 2.48591 12.0561 2.37845 11.5947 2.31641C11.4884 2.30211 11.3739 2.29202 11.25 2.2832V3.75ZM4.40528 2.31641C3.94388 2.37845 3.74652 2.48591 3.61621 2.61621C3.48591 2.74652 3.37845 2.94388 3.31641 3.40528C3.30211 3.51161 3.29202 3.6261 3.2832 3.75H4.75V2.2832C4.6261 2.29202 4.51161 2.30211 4.40528 2.31641ZM3.25195 10.75H4.75V8.75H3.25V10.5C3.25 10.5858 3.25189 10.6691 3.25195 10.75ZM12.748 5.25H11.25V7.25H12.75V5.5C12.75 5.4142 12.7481 5.3309 12.748 5.25ZM3.25 7.25H4.75V5.25H3.25195C3.25189 5.3309 3.25 5.4142 3.25 5.5V7.25ZM14.25 10.5C14.25 11.4216 14.2514 12.1887 14.1699 12.7949C14.0855 13.4225 13.8997 13.989 13.4443 14.4443C12.989 14.8997 12.4225 15.0855 11.7949 15.1699C11.1887 15.2514 10.4216 15.25 9.5 15.25H6.5C5.57839 15.25 4.8113 15.2514 4.20508 15.1699C3.57747 15.0855 3.01103 14.8997 2.55567 14.4443C2.10031 13.989 1.91451 13.4225 1.83008 12.7949C1.74858 12.1887 1.75 11.4216 1.75 10.5V5.5C1.75 4.57839 1.74858 3.8113 1.83008 3.20508C1.91451 2.57747 2.10031 2.01103 2.55567 1.55567C3.01103 1.10031 3.57747 0.914513 4.20508 0.83008C4.8113 0.748576 5.57839 0.750002 6.5 0.750002H9.5C10.4216 0.750002 11.1887 0.748576 11.7949 0.83008C12.4225 0.914513 12.989 1.10031 13.4443 1.55567C13.8997 2.01103 14.0855 2.57747 14.1699 3.20508C14.2514 3.8113 14.25 4.57839 14.25 5.5V10.5Z"
        fill="#303233" />
</svg>
