<svg width="24" height="24" viewBox="0 0 24 24" fill="none" xmlns="http://www.w3.org/2000/svg">
    <path
        d="M13.5 3C13.5 2.72386 13.7239 2.5 14 2.5H14.001C14.2771 2.5 14.501 2.72386 14.501 3C14.501 3.27614 14.2771 3.5 14.001 3.5H14C13.7239 3.5 13.5 3.27614 13.5 3Z"
        fill="#303233" />
    <path
        d="M5 6C5 5.44772 5.44772 5 6 5C6.55228 5 7.001 5.44772 7.001 6C7.001 6.55228 6.55328 7 6.001 7C5.44872 7 5 6.55228 5 6Z"
        fill="#303233" />
    <path
        d="M10 8.5C9.17157 8.5 8.5 9.17157 8.5 10C8.5 10.8284 9.17157 11.5 10 11.5C10.8284 11.5 11.501 10.8284 11.501 10C11.501 9.17157 10.8284 8.5 10 8.5Z"
        fill="#303233" />
    <path
        d="M14 8.5C13.1716 8.5 12.5 9.17157 12.5 10C12.5 10.8284 13.1716 11.5 14 11.5H14.001C14.8294 11.5 15.501 10.8284 15.501 10C15.501 9.17157 14.8294 8.5 14.001 8.5H14Z"
        fill="#303233" />
    <path
        d="M8.5 14C8.5 13.1716 9.17157 12.5 10 12.5C10.8284 12.5 11.501 13.1716 11.501 14C11.501 14.8284 10.8294 15.5 10.001 15.5C9.17257 15.5 8.5 14.8284 8.5 14Z"
        fill="#303233" />
    <path
        d="M6 9C5.44772 9 5 9.44772 5 10C5 10.5523 5.44772 11 6 11C6.55228 11 7.001 10.5523 7.001 10C7.001 9.44772 6.55228 9 6 9Z"
        fill="#303233" />
    <path
        d="M5 14C5 13.4477 5.44772 13 6 13C6.55228 13 7.001 13.4477 7.001 14C7.001 14.5523 6.55328 15 6.001 15C5.44872 15 5 14.5523 5 14Z"
        fill="#303233" />
    <path
        d="M18 9C17.4477 9 17 9.44772 17 10C17 10.5523 17.4477 11 18 11H18.001C18.5533 11 19.001 10.5523 19.001 10C19.001 9.44772 18.5533 9 18.001 9H18Z"
        fill="#303233" />
    <path
        d="M18 5C17.4477 5 17 5.44772 17 6C17 6.55228 17.4477 7 18 7H18.001C18.5533 7 19.001 6.55228 19.001 6C19.001 5.44772 18.5533 5 18.001 5H18Z"
        fill="#303233" />
    <path
        d="M17 14C17 13.4477 17.4477 13 18 13H18.001C18.5533 13 19.001 13.4477 19.001 14C19.001 14.5523 18.5533 15 18.001 15H18C17.4477 15 17 14.5523 17 14Z"
        fill="#303233" />
    <path
        d="M6 17C5.44772 17 5 17.4477 5 18C5 18.5523 5.44772 19 6 19C6.55228 19 7.001 18.5523 7.001 18C7.001 17.4477 6.55228 17 6 17Z"
        fill="#303233" />
    <path
        d="M13 18C13 17.4477 13.4477 17 14 17H14.001C14.5533 17 15.001 17.4477 15.001 18C15.001 18.5523 14.5533 19 14.001 19H14C13.4477 19 13 18.5523 13 18Z"
        fill="#303233" />
    <path
        d="M10 17C9.44772 17 9 17.4477 9 18C9 18.5523 9.44772 19 10 19C10.5523 19 11.001 18.5523 11.001 18C11.001 17.4477 10.5523 17 10 17Z"
        fill="#303233" />
    <path
        d="M13 6C13 5.44772 13.4477 5 14 5H14.001C14.5533 5 15.001 5.44772 15.001 6C15.001 6.55228 14.5533 7 14.001 7H14C13.4477 7 13 6.55228 13 6Z"
        fill="#303233" />
    <path
        d="M10 5C9.44772 5 9 5.44772 9 6C9 6.55228 9.44772 7 10 7C10.5523 7 11.001 6.55228 11.001 6C11.001 5.44772 10.5523 5 10 5Z"
        fill="#303233" />
    <path
        d="M10 2.5C9.72386 2.5 9.5 2.72386 9.5 3C9.5 3.27614 9.72386 3.5 10 3.5C10.2761 3.5 10.501 3.27614 10.501 3C10.501 2.72386 10.2761 2.5 10 2.5Z"
        fill="#303233" />
    <path
        d="M2.5 10C2.5 9.72386 2.72386 9.5 3 9.5C3.27614 9.5 3.501 9.72386 3.501 10C3.501 10.2761 3.27714 10.5 3.001 10.5C2.72486 10.5 2.5 10.2761 2.5 10Z"
        fill="#303233" />
    <path
        d="M3 13.5C2.72386 13.5 2.5 13.7239 2.5 14C2.5 14.2761 2.72386 14.5 3 14.5C3.27614 14.5 3.501 14.2761 3.501 14C3.501 13.7239 3.27614 13.5 3 13.5Z"
        fill="#303233" />
    <path
        d="M20.5 10C20.5 9.72386 20.7239 9.5 21 9.5C21.2761 9.5 21.501 9.72386 21.501 10C21.501 10.2761 21.2771 10.5 21.001 10.5C20.7249 10.5 20.5 10.2761 20.5 10Z"
        fill="#303233" />
    <path
        d="M21 13.5C20.7239 13.5 20.5 13.7239 20.5 14C20.5 14.2761 20.7239 14.5 21 14.5C21.2761 14.5 21.501 14.2761 21.501 14C21.501 13.7239 21.2761 13.5 21 13.5Z"
        fill="#303233" />
    <path
        d="M13.5 21C13.5 20.7239 13.7239 20.5 14 20.5H14.001C14.2771 20.5 14.501 20.7239 14.501 21C14.501 21.2761 14.2771 21.5 14.001 21.5H14C13.7239 21.5 13.5 21.2761 13.5 21Z"
        fill="#303233" />
    <path
        d="M10 20.5C9.72386 20.5 9.5 20.7239 9.5 21C9.5 21.2761 9.72386 21.5 10 21.5C10.2761 21.5 10.501 21.2761 10.501 21C10.501 20.7239 10.2761 20.5 10 20.5Z"
        fill="#303233" />
    <path
        d="M17 18C17 17.4477 17.4477 17 18 17H18.001C18.5533 17 19.001 17.4477 19.001 18C19.001 18.5523 18.5533 19 18.001 19H18C17.4477 19 17 18.5523 17 18Z"
        fill="#303233" />
    <path
        d="M14 12.5C13.1716 12.5 12.5 13.1716 12.5 14C12.5 14.8284 13.1716 15.5 14 15.5H14.001C14.8294 15.5 15.501 14.8284 15.501 14C15.501 13.1716 14.8294 12.5 14.001 12.5H14Z"
        fill="#303233" />
</svg>
