<svg width="24" height="24" viewBox="0 0 24 24" fill="none" xmlns="http://www.w3.org/2000/svg">
    <path
        d="M17.0237 1.00023C15.4427 0.986476 13.9199 1.59485 12.783 2.69401L12.7726 2.70414L11.0429 4.42557C10.6514 4.81516 10.6499 5.44832 11.0395 5.83978C11.429 6.23125 12.0622 6.23278 12.4537 5.84319L14.178 4.12714C14.9373 3.39553 15.9527 2.99099 17.0063 3.00015C18.0622 3.00934 19.0725 3.43329 19.8194 4.18101C20.5664 4.92877 20.9903 5.94051 20.9995 6.99839C21.0087 8.05353 20.6045 9.06997 19.8742 9.82998L16.8637 12.8435C16.4552 13.2525 15.9636 13.5689 15.4225 13.771C14.8814 13.973 14.3032 14.0562 13.7272 14.0149C13.1512 13.9736 12.5907 13.8088 12.0838 13.5316C11.577 13.2544 11.1355 12.8712 10.7894 12.4081C10.4588 11.9657 9.83216 11.875 9.38975 12.2056C8.94734 12.5362 8.85669 13.1629 9.18729 13.6053C9.70499 14.2981 10.3655 14.8714 11.1242 15.2863C11.8828 15.7012 12.7218 15.948 13.5842 16.0098C14.4466 16.0716 15.3121 15.9471 16.1221 15.6446C16.9321 15.3421 17.6675 14.8689 18.2786 14.2571L21.2956 11.237L21.3078 11.2246C22.4058 10.0866 23.0132 8.56265 22.9994 6.98102C22.9857 5.39939 22.352 3.88624 21.2344 2.76751C20.1167 1.64875 18.6046 1.01398 17.0237 1.00023Z"
        fill="#303233" />
    <path
        d="M10.4155 7.99021C9.55311 7.92839 8.68755 8.05294 7.87753 8.35541C7.06758 8.65785 6.33202 9.13121 5.72095 9.74308L2.70406 12.763L2.69188 12.7754C1.59389 13.9134 0.986498 15.4373 1.00023 17.019C1.01396 18.6006 1.64771 20.1138 2.76531 21.2325C3.88294 22.3512 5.39504 22.986 6.97598 22.9998C8.55692 23.0135 10.0798 22.4052 11.2167 21.306L11.2291 21.2938L12.9488 19.5724C13.3391 19.1816 13.3388 18.5485 12.9481 18.1582C12.5574 17.7678 11.9242 17.7681 11.5339 18.1589L9.82065 19.8738C9.06146 20.6048 8.04654 21.009 6.99337 20.9998C5.93747 20.9907 4.92721 20.5667 4.18024 19.819C3.43324 19.0712 3.00934 18.0595 3.00015 17.0016C2.99099 15.9465 3.39514 14.93 4.12547 14.17L7.13614 11.1563C7.54457 10.7473 8.03603 10.4311 8.57716 10.229C9.11829 10.027 9.69646 9.9438 10.2725 9.98509C10.8485 10.0264 11.409 10.1912 11.9158 10.4684C12.4227 10.7456 12.8642 11.1288 13.2103 11.5919C13.5409 12.0343 14.1675 12.125 14.6099 11.7944C15.0523 11.4638 15.143 10.8371 14.8124 10.3947C14.2947 9.70192 13.6341 9.12859 12.8755 8.71369C12.1168 8.29879 11.2779 8.05204 10.4155 7.99021Z"
        fill="#303233" />
</svg>
