<svg width="16" height="16" viewBox="0 0 16 16" fill="none" xmlns="http://www.w3.org/2000/svg">
    <path fill-rule="evenodd" clip-rule="evenodd"
        d="M10.2215 1H5.77853C5.21919 0.999995 4.769 0.999992 4.40464 1.02976C4.02979 1.06039 3.70198 1.125 3.39915 1.2793C2.91698 1.52497 2.52497 1.91698 2.2793 2.39915C2.125 2.70198 2.06039 3.02979 2.02976 3.40464C1.99999 3.769 2 4.21919 2 4.77853V11.2215C2 11.7808 1.99999 12.231 2.02976 12.5954C2.06039 12.9702 2.125 13.298 2.2793 13.6009C2.52497 14.083 2.91698 14.475 3.39915 14.7207C3.70198 14.875 4.02979 14.9396 4.40464 14.9702C4.76899 15 5.21918 15 5.77851 15H10.2215C10.3889 15 10.5464 15 10.6949 14.9992C9.67921 14.3866 9 13.2726 9 12V9.5C9 8.67157 9.67157 8 10.5 8C10.6874 8 10.8669 8.03438 11.0323 8.09718C11.2249 6.908 12.2564 6 13.5 6C13.6712 6 13.8384 6.01722 14 6.05001V4.77851C14 4.21918 14 3.76899 13.9702 3.40464C13.9396 3.02979 13.875 2.70198 13.7207 2.39915C13.475 1.91698 13.083 1.52497 12.6009 1.2793C12.298 1.125 11.9702 1.06039 11.5954 1.02976C11.231 0.999992 10.7808 0.999995 10.2215 1Z"
        fill="#303233" />
    <path fill-rule="evenodd" clip-rule="evenodd"
        d="M13.5 8C13.2239 8 13 8.22386 13 8.5V12C13 12.2761 12.7761 12.5 12.5 12.5C12.2239 12.5 12 12.2761 12 12V8.5C12 7.67157 12.6716 7 13.5 7C14.3284 7 15 7.67157 15 8.5V12C15 13.3807 13.8807 14.5 12.5 14.5C11.1193 14.5 10 13.3807 10 12V9.5C10 9.22386 10.2239 9 10.5 9C10.7761 9 11 9.22386 11 9.5V12C11 12.8284 11.6716 13.5 12.5 13.5C13.3284 13.5 14 12.8284 14 12V8.5C14 8.22386 13.7761 8 13.5 8Z"
        fill="#303233" />
</svg>
