<svg width="24" height="24" viewBox="0 0 24 24" fill="none" xmlns="http://www.w3.org/2000/svg">
    <path fill-rule="evenodd" clip-rule="evenodd"
        d="M4.11612 4.11612C4.35054 3.8817 4.66848 3.75 5 3.75H19C19.3315 3.75 19.6495 3.8817 19.8839 4.11612C20.1183 4.35054 20.25 4.66848 20.25 5V15C20.25 15.3315 20.1183 15.6495 19.8839 15.8839C19.6495 16.1183 19.3315 16.25 19 16.25H7C6.80109 16.25 6.61032 16.329 6.46967 16.4697L3.75 19.1893V5C3.75 4.66848 3.8817 4.35054 4.11612 4.11612ZM5 2.25C4.27065 2.25 3.57118 2.53973 3.05546 3.05546C2.53973 3.57118 2.25 4.27065 2.25 5V21C2.25 21.3033 2.43273 21.5768 2.71299 21.6929C2.99324 21.809 3.31583 21.7448 3.53033 21.5303L7.31066 17.75H19C19.7293 17.75 20.4288 17.4603 20.9445 16.9445C21.4603 16.4288 21.75 15.7293 21.75 15V5C21.75 4.27065 21.4603 3.57118 20.9445 3.05546C20.4288 2.53973 19.7293 2.25 19 2.25H5ZM12.75 6C12.75 5.58579 12.4142 5.25 12 5.25C11.5858 5.25 11.25 5.58579 11.25 6V10C11.25 10.4142 11.5858 10.75 12 10.75C12.4142 10.75 12.75 10.4142 12.75 10V6ZM12.75 14C12.75 13.5858 12.4142 13.25 12 13.25C11.5858 13.25 11.25 13.5858 11.25 14V14.01C11.25 14.4242 11.5858 14.76 12 14.76C12.4142 14.76 12.75 14.4242 12.75 14.01V14Z"
        fill="#303233" />
</svg>
