<svg width="16" height="16" viewBox="0 0 16 16" fill="none" xmlns="http://www.w3.org/2000/svg">
    <path
        d="M12.1464 0.646447C12.3417 0.451184 12.6583 0.451184 12.8536 0.646447L15.3536 3.14645C15.5488 3.34171 15.5488 3.65829 15.3536 3.85355C15.1583 4.04882 14.8417 4.04882 14.6464 3.85355L13 2.20711V6C13 6.27614 12.7761 6.5 12.5 6.5C12.2239 6.5 12 6.27614 12 6V2.20711L10.3536 3.85355C10.1583 4.04882 9.84171 4.04882 9.64645 3.85355C9.45118 3.65829 9.45118 3.34171 9.64645 3.14645L12.1464 0.646447Z"
        fill="#303233" />
    <path
        d="M11 4.61809C10.411 5.14578 9.50531 5.12663 8.93934 4.56066C8.35355 3.97487 8.35355 3.02513 8.93934 2.43934L9.2788 2.09988C8.86454 2.0343 8.43717 2 8 2C4.113 2 1 4.712 1 8C1 8.984 1.276 9.91399 1.767 10.736C1.866 10.901 1.908 11.1 1.838 11.279L1.035 13.317C0.968 13.486 0.999 13.679 1.115 13.819C1.231 13.959 1.414 14.025 1.593 13.991L4.712 13.398C4.82 13.377 4.93 13.395 5.032 13.436C5.971 13.811 6.98 14.003 8.001 14C11.887 14 15 11.288 15 8C15 6.87477 14.6354 5.81701 14 4.91231V6C14 6.82843 13.3284 7.5 12.5 7.5C11.6716 7.5 11 6.82843 11 6V4.61809Z"
        fill="#303233" />
</svg>
