<svg width="16" height="16" viewBox="0 0 16 16" fill="none" xmlns="http://www.w3.org/2000/svg">
    <path fill-rule="evenodd" clip-rule="evenodd"
        d="M14.9224 3.26394C14.6411 2.92376 14.2174 2.73456 13.777 2.75099C13.4166 2.76443 13.1291 2.95186 12.9395 3.09164C12.7414 3.23769 12.5089 3.4437 12.2484 3.67441C12.2403 3.68164 12.2321 3.68889 12.2239 3.69617L8.89611 6.64409C8.88994 6.64955 8.88378 6.65501 8.87762 6.66046C8.73858 6.7836 8.60122 6.90524 8.49407 7.01781C8.37695 7.14085 8.24273 7.30607 8.1636 7.53068C8.05658 7.83444 8.05658 8.16556 8.1636 8.46932C8.24273 8.69393 8.37695 8.85915 8.49407 8.9822C8.60121 9.09476 8.73857 9.2164 8.8776 9.33953C8.88377 9.34499 8.88994 9.35045 8.89611 9.35592L12.2484 12.3256C12.5089 12.5563 12.7414 12.7623 12.9395 12.9084C13.1291 13.0481 13.4166 13.2356 13.777 13.249C14.2174 13.2654 14.6411 13.0762 14.9224 12.7361C15.1528 12.4574 15.2033 12.1172 15.2245 11.883C15.2466 11.6382 15.2466 11.3279 15.2465 10.9808L15.2465 5.05208C15.2465 5.04108 15.2465 5.03011 15.2465 5.01918C15.2466 4.67207 15.2466 4.36184 15.2245 4.11702C15.2033 3.88281 15.1528 3.54261 14.9224 3.26394ZM7.58902 3.26394C7.30773 2.92376 6.88406 2.73456 6.44364 2.75099C6.08328 2.76443 5.79577 2.95186 5.60617 3.09164C5.40805 3.23769 5.17553 3.4437 4.91511 3.67441L1.54427 6.66047C1.40524 6.7836 1.26788 6.90524 1.16074 7.01781C1.04361 7.14085 0.909396 7.30607 0.830263 7.53068C0.723246 7.83444 0.723246 8.16556 0.830263 8.46932C0.909396 8.69393 1.04361 8.85915 1.16074 8.9822C1.26788 9.09476 1.40524 9.2164 1.54427 9.33953L4.91509 12.3256C5.17551 12.5563 5.40804 12.7623 5.60617 12.9084C5.79577 13.0481 6.08328 13.2356 6.44364 13.249C6.88406 13.2654 7.30773 13.0762 7.58902 12.7361C7.81944 12.4574 7.87 12.1172 7.89114 11.883C7.91324 11.6382 7.91322 11.3279 7.9132 10.9808V5.01916C7.91322 4.67206 7.91324 4.36183 7.89114 4.11702C7.87 3.88281 7.81944 3.54261 7.58902 3.26394Z"
        fill="#303233" />
</svg>
