<svg width="24" height="24" viewBox="0 0 24 24" fill="none" xmlns="http://www.w3.org/2000/svg">
    <path fill-rule="evenodd" clip-rule="evenodd"
        d="M12 2.14725C11.5274 2.14725 11.0627 2.26906 10.6509 2.50094C10.239 2.73281 9.89389 3.06692 9.64877 3.47102L1.17654 17.6145L1.17053 17.6249C0.930409 18.0408 0.803357 18.5122 0.802013 18.9924C0.800668 19.4726 0.925078 19.9447 1.16286 20.3619C1.40065 20.7791 1.74352 21.1267 2.15738 21.3702C2.57122 21.6138 3.04162 21.7447 3.52178 21.75L20.47 21.75L20.4783 21.7499C20.9584 21.7447 21.4288 21.6138 21.8427 21.3702C22.2565 21.1267 22.5994 20.7791 22.8372 20.3619C23.075 19.9447 23.1994 19.4726 23.198 18.9924C23.1967 18.5122 23.0697 18.0407 22.8296 17.6249L14.3534 3.47458L14.3513 3.47102C14.1061 3.06692 13.761 2.73281 13.3492 2.50094C12.9373 2.26906 12.4727 2.14725 12 2.14725ZM12 8C12.4142 8 12.75 8.33579 12.75 8.75V13.25C12.75 13.6642 12.4142 14 12 14C11.5858 14 11.25 13.6642 11.25 13.25V8.75C11.25 8.33579 11.5858 8 12 8ZM11.25 17.25C11.25 16.8358 11.5858 16.5 12 16.5H12.01C12.4242 16.5 12.76 16.8358 12.76 17.25C12.76 17.6642 12.4242 18 12.01 18H12C11.5858 18 11.25 17.6642 11.25 17.25Z"
        fill="#303233" />
</svg>
