<svg width="16" height="16" viewBox="0 0 16 16" fill="none" xmlns="http://www.w3.org/2000/svg">
    <path
        d="M7.70355 1.14645C7.50829 0.951184 7.19171 0.951184 6.99645 1.14645C6.80118 1.34171 6.80118 1.65829 6.99645 1.85355L8.09289 2.95H6.05C3.26096 2.95 1 5.21096 1 8C1 10.0153 2.18047 11.7538 3.88545 12.5638C4.13488 12.6823 4.43314 12.5761 4.55163 12.3267C4.67012 12.0773 4.56397 11.779 4.31455 11.6605C2.94509 11.01 2 9.61485 2 8C2 5.76325 3.81325 3.95 6.05 3.95H8.09289L6.99645 5.04645C6.80118 5.24171 6.80118 5.55829 6.99645 5.75355C7.19171 5.94882 7.50829 5.94882 7.70355 5.75355L9.65355 3.80355C9.84881 3.60829 9.84881 3.29171 9.65355 3.09645L7.70355 1.14645Z"
        fill="#303233" />
    <path
        d="M14.9991 8.02968C14.9832 10.8051 12.7284 13.05 9.94922 13.05H7.90632L9.00277 14.1464C9.19803 14.3417 9.19803 14.6583 9.00277 14.8536C8.80751 15.0488 8.49093 15.0488 8.29567 14.8536L6.34567 12.9036C6.1504 12.7083 6.1504 12.3917 6.34567 12.1964L8.29567 10.2464C8.49093 10.0512 8.80751 10.0512 9.00277 10.2464C9.19803 10.4417 9.19803 10.7583 9.00277 10.9536L7.90633 12.05H9.94922C12.186 12.05 13.9992 10.2368 13.9992 8C13.9992 7.72386 14.2239 7.5 14.5 7.5C14.7761 7.5 15 7.72386 15 8C15 8.00996 14.9997 8.01986 14.9991 8.02968Z"
        fill="#303233" />
    <path fill-rule="evenodd" clip-rule="evenodd"
        d="M15.5 4C15.5 5.10457 14.6046 6 13.5 6C12.3954 6 11.5 5.10457 11.5 4C11.5 2.89543 12.3954 2 13.5 2C14.6046 2 15.5 2.89543 15.5 4ZM13.85 2.85V5.15H13.25V3.42143H12.9643V2.85H13.85Z"
        fill="#303233" />
</svg>
