<svg width="24" height="24" viewBox="0 0 24 24" fill="none" xmlns="http://www.w3.org/2000/svg">
    <path
        d="M12 0C9.79086 0 8 1.79086 8 4V12C8 14.2091 9.79086 16 12 16C12.5523 16 13 15.5523 13 15C13 14.4477 12.5523 14 12 14C10.8954 14 10 13.1046 10 12V4C10 2.89543 10.8954 2 12 2C13.1046 2 14 2.89543 14 4V12C14 12.5523 14.4477 13 15 13C15.5523 13 16 12.5523 16 12V4C16 1.79086 14.2091 0 12 0Z"
        fill="#303233" />
    <path
        d="M6 10C6 9.44771 5.55228 9 5 9C4.44772 9 4 9.44771 4 10V12C4 16.0307 6.97997 19.3637 10.8572 19.9189C11.404 19.9972 11.9106 19.6174 11.9889 19.0707C12.0672 18.524 11.6874 18.0173 11.1407 17.9391C8.23441 17.5229 6 15.0215 6 12V10Z"
        fill="#303233" />
    <path
        d="M20 10C20 9.44771 19.5523 9 19 9C18.4477 9 18 9.44771 18 10V11C18 11.5523 18.4477 12 19 12C19.5523 12 20 11.5523 20 11V10Z"
        fill="#303233" />
    <path fill-rule="evenodd" clip-rule="evenodd"
        d="M19 14C16.2386 14 14 16.2386 14 19C14 21.7614 16.2386 24 19 24C21.7614 24 24 21.7614 24 19C24 16.2386 21.7614 14 19 14ZM16 19C16 17.3431 17.3431 16 19 16C19.4632 16 19.9018 16.105 20.2935 16.2924L16.2924 20.2935C16.105 19.9018 16 19.4632 16 19ZM17.7066 21.7077L21.7077 17.7066C21.8951 18.0983 22 18.5369 22 19C22 20.6569 20.6569 22 19 22C18.5369 22 18.0983 21.8951 17.7066 21.7077Z"
        fill="#303233" />
    <path
        d="M8 22C7.44772 22 7 22.4477 7 23C7 23.5523 7.44772 24 8 24H12C12.5523 24 13 23.5523 13 23C13 22.4477 12.5523 22 12 22H8Z"
        fill="#303233" />
</svg>
