<svg width="16" height="16" viewBox="0 0 16 16" fill="none" xmlns="http://www.w3.org/2000/svg">
    <path fill-rule="evenodd" clip-rule="evenodd"
        d="M12.7649 3.09339C12.9894 2.93269 13.3017 2.98446 13.4624 3.20902C14.4277 4.55781 14.9961 6.21304 14.9961 8C14.9961 9.78697 14.4277 11.4422 13.4624 12.791C13.3017 13.0155 12.9894 13.0673 12.7649 12.9066C12.5403 12.7459 12.4885 12.4336 12.6492 12.209C13.4968 11.0246 13.9961 9.57179 13.9961 8C13.9961 6.42821 13.4968 4.97535 12.6492 3.79098C12.4885 3.56642 12.5403 3.2541 12.7649 3.09339ZM10.211 5.01778C10.4379 4.86036 10.7495 4.91665 10.9069 5.14353C11.469 5.95357 11.7985 6.93896 11.7985 8C11.7985 9.06104 11.469 10.0464 10.9069 10.8565C10.7495 11.0834 10.4379 11.1396 10.211 10.9822C9.98418 10.8248 9.92788 10.5133 10.0853 10.2864C10.5348 9.63864 10.7985 8.85114 10.7985 8C10.7985 7.14887 10.5348 6.36136 10.0853 5.71362C9.92788 5.48675 9.98418 5.17521 10.211 5.01778Z"
        fill="#303233" />
    <path fill-rule="evenodd" clip-rule="evenodd"
        d="M6.99996 3.23383C6.98177 3.25188 6.96254 3.271 6.94218 3.29125L4.83172 5.39079C4.82422 5.39826 4.81667 5.40579 4.80908 5.41337C4.71714 5.50516 4.61873 5.6034 4.49912 5.67632C4.39479 5.73992 4.28112 5.78675 4.16231 5.81513C4.02621 5.84763 3.88716 5.84739 3.75688 5.84717C3.74614 5.84715 3.73546 5.84713 3.72484 5.84713H2.56667C2.37178 5.84713 2.25552 5.84751 2.16931 5.85452C2.11616 5.85884 2.09398 5.86456 2.08814 5.86639C2.05826 5.88202 2.03425 5.90603 2.01889 5.93489C2.01704 5.94096 2.01158 5.96274 2.00741 6.0136C2.00039 6.09898 2 6.21427 2 6.40828V9.59173C2 9.78574 2.00039 9.90102 2.00741 9.9864C2.01158 10.0373 2.01704 10.059 2.01889 10.0651C2.03426 10.094 2.05826 10.118 2.08814 10.1336C2.09399 10.1354 2.11616 10.1412 2.16931 10.1455C2.25552 10.1525 2.37178 10.1529 2.56667 10.1529H3.72484C3.73545 10.1529 3.74613 10.1529 3.75687 10.1528C3.88716 10.1526 4.02621 10.1524 4.16231 10.1849C4.28112 10.2133 4.39479 10.2601 4.49912 10.3237C4.61873 10.3966 4.71714 10.4948 4.80908 10.5866C4.81667 10.5942 4.82422 10.6017 4.83172 10.6092L6.94218 12.7087C6.96254 12.729 6.98177 12.7481 6.99996 12.7662C6.99999 12.7415 7 12.7155 7 12.688V3.31196C7 3.28447 6.99999 3.25847 6.99996 3.23383ZM2.08647 10.133L2.08814 10.1336L2.08647 10.133ZM2.08647 5.86697L2.08814 5.86639L2.08647 5.86697ZM7.10149 2.00255C7.36634 1.98181 7.62593 2.08837 7.79951 2.29055C7.94975 2.46556 7.97706 2.68065 7.98805 2.80396C8.00004 2.93854 8.00002 3.10827 8 3.29137V12.7086C8.00002 12.8917 8.00004 13.0615 7.98805 13.196C7.97706 13.3193 7.94975 13.5344 7.79951 13.7095C7.62593 13.9116 7.36634 14.0182 7.10149 13.9975C6.87259 13.9795 6.70155 13.8477 6.60617 13.7682C6.50218 13.6816 6.38166 13.5617 6.25144 13.4321L4.12645 11.3181C4.06572 11.2577 4.03173 11.2241 4.00488 11.1997C3.98145 11.1784 3.97602 11.176 3.97859 11.1775C3.96363 11.1684 3.94724 11.1616 3.93 11.1575C3.93277 11.1582 3.927 11.1561 3.89515 11.1546C3.85875 11.153 3.8107 11.1529 3.72484 11.1529H2.54924C2.37753 11.1529 2.21998 11.1529 2.0883 11.1422C1.94641 11.1307 1.79125 11.1043 1.63795 11.0266C1.41863 10.9154 1.23985 10.7378 1.12764 10.5187C1.04907 10.3653 1.0224 10.21 1.01076 10.0683C0.999977 9.93693 0.999988 9.7799 1 9.60924V6.39076C0.999988 6.22011 0.999977 6.06308 1.01076 5.93175C1.0224 5.79003 1.04907 5.63472 1.12764 5.48132C1.23985 5.26224 1.41863 5.0846 1.63795 4.97344C1.79125 4.89573 1.94641 4.86934 2.0883 4.85781C2.21998 4.8471 2.37754 4.84712 2.54925 4.84713C2.55504 4.84713 2.56085 4.84713 2.56667 4.84713H3.72484C3.8107 4.84713 3.85875 4.84701 3.89515 4.84535C3.9183 4.8443 3.92768 4.84291 3.93001 4.84249C3.94724 4.83837 3.96363 4.8316 3.97859 4.82247C3.97602 4.82404 3.98145 4.82157 4.00488 4.80029C4.03173 4.77592 4.06572 4.74228 4.12645 4.68186L6.25144 2.56786C6.38166 2.43829 6.50218 2.31837 6.60617 2.23177C6.70155 2.15233 6.87259 2.02047 7.10149 2.00255Z"
        fill="#303233" />
</svg>
