<svg width="16" height="16" viewBox="0 0 16 16" fill="none" xmlns="http://www.w3.org/2000/svg">
    <path
        d="M2.03033 5.03032C1.73744 5.32322 1.26257 5.32322 0.969673 5.03033C0.676778 4.73744 0.676775 4.26257 0.969667 3.96967L3.46963 1.46968C3.76252 1.17679 4.23739 1.17678 4.53028 1.46967L7.03032 3.96966C7.32322 4.26255 7.32323 4.73743 7.03034 5.03032C6.73745 5.32322 6.26257 5.32322 5.96968 5.03033L4.75004 3.81072V5.84314C4.75004 6.49032 4.75486 6.69167 4.79839 6.87299C4.84126 7.05156 4.91197 7.22226 5.00792 7.37884C5.10536 7.53784 5.24432 7.68362 5.70194 8.14124L7.41526 9.85453C7.64611 10.0852 7.83892 10.2779 8.00004 10.4679C8.16116 10.2779 8.35397 10.0852 8.58482 9.85453L10.2981 8.14124C10.7558 7.68362 10.8947 7.53784 10.9922 7.37884C11.0881 7.22226 11.1588 7.05156 11.2017 6.87299C11.2452 6.69167 11.25 6.49032 11.25 5.84314V3.8106L10.0303 5.03032C9.73744 5.32322 9.26257 5.32322 8.96967 5.03033C8.67678 4.73744 8.67678 4.26257 8.96967 3.96967L11.4696 1.46968C11.7625 1.17679 12.2374 1.17678 12.5303 1.46967L15.0303 3.96966C15.3232 4.26255 15.3232 4.73743 15.0303 5.03032C14.7374 5.32322 14.2626 5.32322 13.9697 5.03033L12.75 3.81072L12.7501 5.92297C12.7503 6.4573 12.7504 6.84751 12.6602 7.22316C12.5806 7.55478 12.4493 7.8718 12.2711 8.16258C12.0693 8.49198 11.7932 8.76779 11.4153 9.14547L9.70194 10.8588C9.24432 11.3164 9.10536 11.4622 9.00792 11.6212C8.91197 11.7777 8.84126 11.9484 8.79839 12.127C8.75626 12.3025 8.75039 12.4968 8.75006 13.0959C8.75005 13.1158 8.75004 13.1361 8.75004 13.1569V14C8.75004 14.4142 8.41425 14.75 8.00004 14.75C7.58583 14.75 7.25004 14.4142 7.25004 14V13.1569C7.25004 13.1361 7.25004 13.1158 7.25002 13.0959C7.24969 12.4968 7.24382 12.3025 7.20169 12.127C7.15882 11.9484 7.08811 11.7777 6.99216 11.6212C6.89473 11.4622 6.75576 11.3164 6.29814 10.8588L4.58482 9.14547C4.20684 8.76779 3.93082 8.49198 3.72896 8.16258C3.55077 7.8718 3.41945 7.55478 3.33984 7.22316C3.24965 6.84751 3.24981 6.4573 3.25002 5.92297L3.25004 3.8106L2.03033 5.03032Z"
        fill="#303233" />
</svg>
