<svg width="16" height="16" viewBox="0 0 16 16" fill="none" xmlns="http://www.w3.org/2000/svg">
    <path fill-rule="evenodd" clip-rule="evenodd"
        d="M14.5 5C14.5 5.27614 14.2761 5.5 14 5.5L7.94999 5.5C7.71836 6.64112 6.70948 7.5 5.5 7.5C4.29052 7.5 3.28164 6.64112 3.05001 5.5L2 5.5C1.72386 5.5 1.5 5.27614 1.5 5C1.5 4.72386 1.72386 4.5 2 4.5L3.05001 4.5C3.28164 3.35888 4.29052 2.5 5.5 2.5C6.70948 2.5 7.71836 3.35888 7.94999 4.5L14 4.5C14.2761 4.5 14.5 4.72386 14.5 5ZM14.5 11C14.5 11.2761 14.2761 11.5 14 11.5L12.95 11.5C12.7184 12.6411 11.7095 13.5 10.5 13.5C9.29052 13.5 8.28164 12.6411 8.05001 11.5L2 11.5C1.72386 11.5 1.5 11.2761 1.5 11C1.5 10.7239 1.72386 10.5 2 10.5L8.05001 10.5C8.28164 9.35888 9.29052 8.5 10.5 8.5C11.7095 8.5 12.7184 9.35888 12.95 10.5L14 10.5C14.2761 10.5 14.5 10.7239 14.5 11ZM12 11C12 10.1716 11.3284 9.5 10.5 9.5C9.67157 9.5 9 10.1716 9 11C9 11.8284 9.67157 12.5 10.5 12.5C11.3284 12.5 12 11.8284 12 11ZM7 5C7 4.17157 6.32843 3.5 5.5 3.5C4.67157 3.5 4 4.17157 4 5C4 5.82843 4.67157 6.5 5.5 6.5C6.32843 6.5 7 5.82843 7 5Z"
        fill="#303233" />
</svg>
