<svg width="16" height="16" viewBox="0 0 16 16" fill="none" xmlns="http://www.w3.org/2000/svg">
    <path
        d="M7.5 2.75C7.08579 2.75 6.75 3.08579 6.75 3.5C6.75 3.91421 7.08579 4.25 7.5 4.25H8.5C8.91421 4.25 9.25 3.91421 9.25 3.5C9.25 3.08579 8.91421 2.75 8.5 2.75H7.5Z"
        fill="#303233" />
    <path
        d="M7.5 8.75C7.08579 8.75 6.75 9.08579 6.75 9.5C6.75 10.1904 7.30964 10.75 8 10.75C8.69036 10.75 9.25 10.1904 9.25 9.5C9.25 9.08579 8.91421 8.75 8.5 8.75H7.5Z"
        fill="#303233" />
    <path
        d="M7.5 4.75C7.08579 4.75 6.75 5.08579 6.75 5.5C6.75 5.91421 7.08579 6.25 7.5 6.25H8.5C8.91421 6.25 9.25 5.91421 9.25 5.5C9.25 5.08579 8.91421 4.75 8.5 4.75H7.5Z"
        fill="#303233" />
    <path
        d="M7.5 6.75C7.08579 6.75 6.75 7.08579 6.75 7.5C6.75 7.91421 7.08579 8.25 7.5 8.25H8.5C8.91421 8.25 9.25 7.91421 9.25 7.5C9.25 7.08579 8.91421 6.75 8.5 6.75H7.5Z"
        fill="#303233" />
    <path fill-rule="evenodd" clip-rule="evenodd"
        d="M10.2306 0.75H5.76942C5.21789 0.74999 4.75893 0.749982 4.38428 0.780592C3.99397 0.812481 3.6296 0.881295 3.28565 1.05655C2.75645 1.32619 2.32619 1.75645 2.05655 2.28565C1.8813 2.6296 1.81248 2.99397 1.78059 3.38428C1.74998 3.75893 1.74999 4.21787 1.75 4.76941V11.2306C1.74999 11.7821 1.74998 12.2411 1.78059 12.6157C1.81248 13.006 1.8813 13.3704 2.05655 13.7143C2.32619 14.2436 2.75645 14.6738 3.28565 14.9435C3.6296 15.1187 3.99397 15.1875 4.38428 15.2194C4.75893 15.25 5.21787 15.25 5.7694 15.25H10.2306C10.7821 15.25 11.2411 15.25 11.6157 15.2194C12.006 15.1875 12.3704 15.1187 12.7143 14.9435C13.2436 14.6738 13.6738 14.2436 13.9435 13.7143C14.1187 13.3704 14.1875 13.006 14.2194 12.6157C14.25 12.2411 14.25 11.7821 14.25 11.2306V4.7694C14.25 4.21787 14.25 3.75893 14.2194 3.38428C14.1875 2.99397 14.1187 2.6296 13.9435 2.28565C13.6738 1.75645 13.2436 1.32619 12.7143 1.05655C12.3704 0.881295 12.006 0.812481 11.6157 0.780592C11.2411 0.749982 10.7821 0.74999 10.2306 0.75ZM3.96664 2.39306C4.06388 2.34351 4.20888 2.29992 4.50643 2.27561C4.81273 2.25058 5.21007 2.25 5.8 2.25H10.2C10.7899 2.25 11.1873 2.25058 11.4936 2.27561C11.7911 2.29992 11.9361 2.34351 12.0334 2.39306C12.2803 2.51889 12.4811 2.71968 12.6069 2.96664C12.6565 3.06388 12.7001 3.20888 12.7244 3.50643C12.7494 3.81273 12.75 4.21007 12.75 4.8V11.2C12.75 11.7899 12.7494 12.1873 12.7244 12.4936C12.7001 12.7911 12.6565 12.9361 12.6069 13.0334C12.4811 13.2803 12.2803 13.4811 12.0334 13.6069C11.9361 13.6565 11.7911 13.7001 11.4936 13.7244C11.1873 13.7494 10.7899 13.75 10.2 13.75H5.8C5.21007 13.75 4.81273 13.7494 4.50643 13.7244C4.20888 13.7001 4.06388 13.6565 3.96664 13.6069C3.71968 13.4811 3.51889 13.2803 3.39306 13.0334C3.34351 12.9361 3.29992 12.7911 3.27561 12.4936C3.25058 12.1873 3.25 11.7899 3.25 11.2V4.8C3.25 4.21007 3.25058 3.81273 3.27561 3.50643C3.29992 3.20888 3.34351 3.06388 3.39306 2.96664C3.51889 2.71968 3.71968 2.51889 3.96664 2.39306Z"
        fill="#303233" />
</svg>
