<svg width="16" height="16" viewBox="0 0 16 16" fill="none" xmlns="http://www.w3.org/2000/svg">
    <path fill-rule="evenodd" clip-rule="evenodd"
        d="M7.58485 15.8746L7.58727 15.8762C7.83767 16.0413 8.16233 16.0413 8.41273 15.8762L8.41367 15.8756L8.41515 15.8746L8.41974 15.8716L8.43532 15.8612C8.4485 15.8523 8.46722 15.8397 8.49111 15.8233C8.53889 15.7906 8.60738 15.743 8.69363 15.6814C8.86606 15.5583 9.10991 15.3788 9.40142 15.1493C9.98325 14.6913 10.7611 14.0294 11.5415 13.2149C13.0707 11.6192 14.75 9.29332 14.75 6.68182C14.75 4.90691 14.0367 3.20644 12.7699 1.95404C11.5034 0.701917 9.78746 0 8 0C6.21254 0 4.49658 0.701917 3.23007 1.95404C1.96327 3.20644 1.25 4.90691 1.25 6.68182C1.25 9.29332 2.92935 11.6192 4.45849 13.2149C5.23893 14.0294 6.01675 14.6913 6.59858 15.1493C6.89009 15.3788 7.13394 15.5583 7.30637 15.6814C7.39262 15.743 7.46111 15.7906 7.50889 15.8233C7.53278 15.8397 7.5515 15.8523 7.56468 15.8612L7.58026 15.8716L7.58485 15.8746ZM6.25 6.75C6.25 5.7835 7.0335 5 8 5C8.9665 5 9.75 5.7835 9.75 6.75C9.75 7.7165 8.9665 8.5 8 8.5C7.0335 8.5 6.25 7.7165 6.25 6.75Z"
        fill="#303233" />
</svg>
