<svg width="24" height="24" viewBox="0 0 24 24" fill="none" xmlns="http://www.w3.org/2000/svg">
<path d="M17.8002 11.6C21.2243 11.6001 24.0004 14.3761 24.0004 17.8002C24.0003 21.2242 21.2242 24.0003 17.8002 24.0004C14.3761 24.0004 11.6001 21.2243 11.6 17.8002C11.6 14.376 14.376 11.6 17.8002 11.6ZM21.0307 15.4701C20.7378 15.1773 20.263 15.1774 19.9701 15.4701L16.8998 18.5395L15.6303 17.2699C15.3374 16.9772 14.8626 16.9772 14.5697 17.2699C14.2771 17.5628 14.277 18.0376 14.5697 18.3305L16.3695 20.1303C16.6624 20.4229 17.1373 20.4229 17.4301 20.1303L21.0307 16.5307C21.3232 16.2379 21.3231 15.763 21.0307 15.4701Z" fill="#303233"/>
</svg>
