<svg width="16" height="16" viewBox="0 0 16 16" fill="none" xmlns="http://www.w3.org/2000/svg">
    <path fill-rule="evenodd" clip-rule="evenodd"
        d="M11.811 1.25H4.18904C3.6459 1.24999 3.19255 1.24998 2.82239 1.28072C2.43625 1.31279 2.07396 1.38215 1.73232 1.55961C1.23005 1.82052 0.820522 2.23005 0.559614 2.73232C0.382149 3.07396 0.312789 3.43625 0.280721 3.82239C0.249981 4.19255 0.24999 4.64589 0.25 5.18903V10.811C0.24999 11.3541 0.249981 11.8075 0.280721 12.1776C0.312789 12.5638 0.382149 12.926 0.559614 13.2677C0.820522 13.7699 1.23005 14.1795 1.73232 14.4404C2.07396 14.6179 2.43625 14.6872 2.82239 14.7193C3.19255 14.75 3.6459 14.75 4.18904 14.75H11.811C12.3541 14.75 12.8075 14.75 13.1776 14.7193C13.5638 14.6872 13.926 14.6179 14.2677 14.4404C14.7699 14.1795 15.1795 13.7699 15.4404 13.2677C15.6179 12.926 15.6872 12.5638 15.7193 12.1776C15.75 11.8075 15.75 11.3541 15.75 10.811V5.18904C15.75 4.6459 15.75 4.19255 15.7193 3.82239C15.6872 3.43625 15.6179 3.07396 15.4404 2.73232C15.1795 2.23005 14.7699 1.82052 14.2677 1.55961C13.926 1.38215 13.5638 1.31279 13.1776 1.28072C12.8075 1.24998 12.3541 1.24999 11.811 1.25ZM2.42378 2.89073C2.51563 2.84303 2.65482 2.7998 2.94653 2.77557C3.24722 2.7506 3.63792 2.75 4.22 2.75H9.75V13.25H4.22C3.63792 13.25 3.24722 13.2494 2.94653 13.2244C2.65482 13.2002 2.51563 13.157 2.42378 13.1093C2.19548 12.9907 2.00933 12.8045 1.89073 12.5762C1.84303 12.4844 1.7998 12.3452 1.77557 12.0535C1.7506 11.7528 1.75 11.3621 1.75 10.78V5.22C1.75 4.63792 1.7506 4.24722 1.77557 3.94653C1.7998 3.65482 1.84303 3.51563 1.89073 3.42378C2.00933 3.19548 2.19548 3.00933 2.42378 2.89073ZM11.25 13.25H11.78C12.3621 13.25 12.7528 13.2494 13.0535 13.2244C13.3452 13.2002 13.4844 13.157 13.5762 13.1093C13.8045 12.9907 13.9907 12.8045 14.1093 12.5762C14.157 12.4844 14.2002 12.3452 14.2244 12.0535C14.2494 11.7528 14.25 11.3621 14.25 10.78V10.75H11.25V13.25ZM11.25 9.25H14.25V6.75H11.25V9.25ZM11.25 5.25H14.25V5.22C14.25 4.63792 14.2494 4.24722 14.2244 3.94653C14.2002 3.65482 14.157 3.51563 14.1093 3.42378C13.9907 3.19548 13.8045 3.00933 13.5762 2.89073C13.4844 2.84303 13.3452 2.7998 13.0535 2.77557C12.7528 2.7506 12.3621 2.75 11.78 2.75H11.25V5.25Z"
        fill="#303233" />
</svg>
