<svg width="16" height="16" viewBox="0 0 16 16" fill="none" xmlns="http://www.w3.org/2000/svg">
    <g clip-path="url(#clip0_53_7770)">
        <path fill-rule="evenodd" clip-rule="evenodd"
            d="M0.75 3.00002C0.749991 1.75737 1.75735 0.75 3 0.75H6.79318C7.3122 0.75 7.80997 0.956203 8.17694 1.32324C8.45015 1.59649 8.82072 1.75 9.20712 1.75H13.0001C14.2427 1.75 15.2501 2.75736 15.2501 4V11C15.2501 12.2426 14.2427 13.25 13.0001 13.25H3.00006C1.75742 13.25 0.750065 12.2427 0.750056 11L0.75 3.00002ZM7.71291 7.55691C7.62445 7.59351 7.54158 7.64776 7.46967 7.71967L5.46967 9.71967C5.17678 10.0126 5.17678 10.4874 5.46967 10.7803C5.76256 11.0732 6.23744 11.0732 6.53033 10.7803L7.25 10.0607V14.75C7.25 15.1642 7.58579 15.5 8 15.5C8.41421 15.5 8.75 15.1642 8.75 14.75V10.0607L9.46967 10.7803C9.76256 11.0732 10.2374 11.0732 10.5303 10.7803C10.8232 10.4874 10.8232 10.0126 10.5303 9.71967L8.53033 7.71967C8.38509 7.57443 8.19511 7.50121 8.00476 7.50001L8 7.5L7.99522 7.50001C7.89527 7.50064 7.79996 7.52081 7.71291 7.55691Z"
            fill="#303233" />
    </g>
    <defs>
        <clipPath id="clip0_53_7770">
            <rect width="16" height="16" fill="white" />
        </clipPath>
    </defs>
</svg>
