<svg width="16" height="16" viewBox="0 0 16 16" fill="none" xmlns="http://www.w3.org/2000/svg">
    <path fill-rule="evenodd" clip-rule="evenodd"
        d="M3 5C3 3.34315 4.34315 2 6 2C7.65685 2 9 3.34315 9 5C9 6.65685 7.65685 8 6 8C4.34315 8 3 6.65685 3 5ZM6 3C4.89543 3 4 3.89543 4 5C4 6.10457 4.89543 7 6 7C7.10457 7 8 6.10457 8 5C8 3.89543 7.10457 3 6 3Z"
        fill="#303233" />
    <path
        d="M14.8536 5.64645C15.0488 5.84171 15.0488 6.15829 14.8536 6.35355L12.3536 8.85355C12.2598 8.94732 12.1326 9 12 9C11.8674 9 11.7402 8.94732 11.6464 8.85355L10.1464 7.35355C9.95118 7.15829 9.95118 6.84171 10.1464 6.64644C10.3417 6.45118 10.6583 6.45118 10.8536 6.64644L12 7.79289L14.1464 5.64645C14.3417 5.45118 14.6583 5.45118 14.8536 5.64645Z"
        fill="#303233" />
    <path
        d="M1.58971 13.5995C2.00661 11.5457 3.82321 10 5.99969 10C8.17617 10 9.99276 11.5457 10.4097 13.5995C10.4646 13.8701 10.7285 14.0449 10.9991 13.99C11.2698 13.9351 11.4446 13.6712 11.3897 13.4005C10.88 10.8899 8.66112 9 5.99969 9C3.33825 9 1.11934 10.8899 0.609701 13.4005C0.554767 13.6712 0.729618 13.9351 1.00024 13.99C1.27086 14.0449 1.53478 13.8701 1.58971 13.5995Z"
        fill="#303233" />
</svg>
