<svg width="24" height="24" viewBox="0 0 24 24" fill="none" xmlns="http://www.w3.org/2000/svg">
    <path fill-rule="evenodd" clip-rule="evenodd"
        d="M6 2.25C3.92893 2.25 2.25 3.92893 2.25 6V18C2.25 20.0711 3.92893 21.75 6 21.75H18C20.0711 21.75 21.75 20.0711 21.75 18V6C21.75 3.92893 20.0711 2.25 18 2.25H6ZM12.0003 14.25C15.497 14.25 18.4528 16.5657 19.4178 19.7472C19.0308 20.0616 18.5374 20.25 18 20.25H6C5.46279 20.25 4.96956 20.0617 4.58267 19.7476C5.54755 16.5659 8.50346 14.25 12.0003 14.25ZM12.0003 5.25C9.92921 5.25 8.25028 6.92893 8.25028 9C8.25028 11.0711 9.92921 12.75 12.0003 12.75C14.0713 12.75 15.7503 11.0711 15.7503 9C15.7503 6.92893 14.0713 5.25 12.0003 5.25Z"
        fill="#303233" />
</svg>
