<svg width="24" height="24" viewBox="0 0 24 24" fill="none" xmlns="http://www.w3.org/2000/svg">
    <path fill-rule="evenodd" clip-rule="evenodd"
        d="M8.00019 9C8.00019 5.13401 11.1342 2 15.0002 2C18.8662 2 22.0002 5.13401 22.0002 9C22.0002 12.866 18.8662 16 15.0002 16C14.6818 16 14.3679 15.9787 14.0599 15.9373C13.8349 15.907 13.6941 15.8883 13.5915 15.8784C13.5732 15.8766 13.5582 15.8753 13.5461 15.8745C13.543 15.8771 13.5398 15.8801 13.5362 15.8833C13.4827 15.9321 13.4124 16.0021 13.2864 16.128L8.17593 21.2385C8.16421 21.2502 8.1522 21.2623 8.1399 21.2746C8.00597 21.4093 7.83733 21.5788 7.63097 21.7053C7.45203 21.8149 7.25694 21.8957 7.05287 21.9447C6.81754 22.0012 6.5784 22.0006 6.38849 22.0001C6.37105 22 6.35402 22 6.33745 22L4.56828 22C4.3159 22 4.07011 22.0001 3.86196 21.9831C3.63337 21.9644 3.36363 21.9203 3.09221 21.782C2.71589 21.5903 2.40993 21.2843 2.21818 20.908C2.07988 20.6366 2.03581 20.3668 2.01714 20.1382C2.00013 19.9301 2.00016 19.6843 2.00019 19.4319L2.00019 17.6627C2.00019 17.6462 2.00015 17.6291 2.0001 17.6117C1.99959 17.4218 1.99895 17.1827 2.05545 16.9473C2.10444 16.7432 2.18525 16.5482 2.29491 16.3692C2.42137 16.1629 2.59091 15.9942 2.72556 15.8603C2.73793 15.848 2.75 15.836 2.76171 15.8243L7.87222 10.7138C7.99814 10.5878 8.06813 10.5175 8.11684 10.464C8.12009 10.4604 8.12304 10.4572 8.12574 10.4541C8.12485 10.442 8.1236 10.427 8.12184 10.4087C8.11193 10.3061 8.09317 10.1653 8.06292 9.94028C8.02151 9.63227 8.00019 9.31836 8.00019 9ZM15.0002 4C12.2388 4 10.0002 6.23858 10.0002 9C10.0002 9.22899 10.0155 9.45388 10.0451 9.67379L10.0475 9.6916C10.0746 9.89344 10.0986 10.072 10.1126 10.2165C10.126 10.3555 10.1395 10.5438 10.1118 10.7372C10.074 11.0019 10.0082 11.1964 9.87778 11.4298C9.73887 11.6783 9.51945 11.8963 9.33904 12.0756C9.32108 12.0934 9.3035 12.1109 9.28643 12.128L4.17593 17.2385C4.0833 17.3311 4.03723 17.3775 4.00519 17.4126C4.00435 17.4135 4.00354 17.4144 4.00277 17.4153C4.00272 17.4164 4.00266 17.4176 4.0026 17.4189C4.00043 17.4664 4.00019 17.5317 4.00019 17.6627V19.4C4.00019 19.6965 4.00097 19.8588 4.01049 19.9754C4.01087 19.98 4.01126 19.9844 4.01164 19.9885C4.01579 19.9889 4.02019 19.9893 4.02482 19.9897C4.14141 19.9992 4.30366 20 4.60019 20H6.33745C6.46845 20 6.53383 19.9998 6.58132 19.9976C6.58257 19.9975 6.58376 19.9975 6.58491 19.9974C6.58576 19.9966 6.58665 19.9958 6.58757 19.995C6.62268 19.963 6.66908 19.9169 6.76171 19.8243L11.8722 14.7138C11.8893 14.6967 11.9068 14.6791 11.9246 14.6611C12.1039 14.4807 12.3219 14.2613 12.5704 14.1224C12.8038 13.9919 12.9983 13.9262 13.263 13.8884C13.4564 13.8607 13.6447 13.8742 13.7837 13.8876C13.9282 13.9016 14.1068 13.9256 14.3086 13.9527L14.3264 13.9551C14.5463 13.9847 14.7712 14 15.0002 14C17.7616 14 20.0002 11.7614 20.0002 9C20.0002 6.23858 17.7616 4 15.0002 4ZM14.0002 9C14.0002 8.44772 14.4479 8 15.0002 8H15.0102C15.5625 8 16.0102 8.44772 16.0102 9C16.0102 9.55228 15.5625 10 15.0102 10H15.0002C14.4479 10 14.0002 9.55228 14.0002 9Z"
        fill="#303233" />
</svg>
