<svg width="16" height="16" viewBox="0 0 16 16" fill="none" xmlns="http://www.w3.org/2000/svg">
    <path
        d="M3 5C3 3.34315 4.34315 2 6 2C7.65685 2 9 3.34315 9 5C9 6.65685 7.65685 8 6 8C4.34315 8 3 6.65685 3 5Z"
        fill="#303233" />
    <path
        d="M9.22543 7.89915C9.05413 7.85353 9.00822 7.64197 9.11926 7.50379C9.67004 6.81841 9.99962 5.94769 9.99962 5C9.99962 4.05231 9.67004 3.18159 9.11926 2.49621C9.00822 2.35803 9.05413 2.14647 9.22543 2.10085C9.4724 2.03506 9.73192 2 9.99962 2C11.6565 2 12.9996 3.34315 12.9996 5C12.9996 6.65685 11.6565 8 9.99962 8C9.73192 8 9.4724 7.96494 9.22543 7.89915Z"
        fill="#303233" />
    <path
        d="M9.99921 9C9.83635 9 9.78029 9.20949 9.9103 9.30757C11.2175 10.2936 12.1405 11.7619 12.4149 13.4479C12.4653 13.7575 12.723 14 13.0368 14H14.8992C15.0492 14 15.1914 13.9326 15.2863 13.8164C15.3813 13.7003 15.419 13.5476 15.3892 13.4005C14.8796 10.8899 12.6606 9 9.99921 9Z"
        fill="#303233" />
    <path
        d="M5.9996 9C3.33816 9 1.11925 10.8899 0.609607 13.4005C0.579758 13.5476 0.617526 13.7003 0.712488 13.8164C0.80745 13.9326 0.949566 14 1.09961 14H10.8996C11.0496 14 11.1917 13.9326 11.2867 13.8164C11.3817 13.7003 11.4194 13.5476 11.3896 13.4005C10.8799 10.8899 8.66103 9 5.9996 9Z"
        fill="#303233" />
</svg>
