<svg width="24" height="24" viewBox="0 0 24 24" fill="none" xmlns="http://www.w3.org/2000/svg">
    <path fill-rule="evenodd" clip-rule="evenodd"
        d="M15.2321 1.25H8.7679C7.95506 1.24999 7.29944 1.24999 6.76853 1.29336C6.2219 1.33803 5.74175 1.43239 5.29754 1.65873C4.59193 2.01825 4.01825 2.59193 3.65873 3.29754C3.43239 3.74175 3.33803 4.2219 3.29336 4.76853C3.24999 5.29944 3.24999 5.95505 3.25 6.76789V17.2321C3.24999 18.0449 3.24999 18.7006 3.29336 19.2315C3.33803 19.7781 3.43239 20.2582 3.65873 20.7025C4.01825 21.4081 4.59193 21.9817 5.29754 22.3413C5.74175 22.5676 6.2219 22.662 6.76853 22.7066C7.29944 22.75 7.95505 22.75 8.76788 22.75H15.2321C16.045 22.75 16.7006 22.75 17.2315 22.7066C17.7781 22.662 18.2582 22.5676 18.7025 22.3413C19.4081 21.9817 19.9817 21.4081 20.3413 20.7025C20.5676 20.2582 20.662 19.7781 20.7066 19.2315C20.75 18.7006 20.75 18.045 20.75 17.2321V6.76788C20.75 5.95505 20.75 5.29944 20.7066 4.76853C20.662 4.2219 20.5676 3.74175 20.3413 3.29754C19.9817 2.59193 19.4081 2.01825 18.7025 1.65873C18.2582 1.43239 17.7781 1.33803 17.2315 1.29336C16.7006 1.24999 16.0449 1.24999 15.2321 1.25ZM7.25 8C7.25 7.58579 7.58579 7.25 8 7.25H9C9.41421 7.25 9.75 7.58579 9.75 8V9C9.75 9.41421 9.41421 9.75 9 9.75H8C7.58579 9.75 7.25 9.41421 7.25 9V8ZM11.5 7.25C11.0858 7.25 10.75 7.58579 10.75 8V9C10.75 9.41421 11.0858 9.75 11.5 9.75H12.5C12.9142 9.75 13.25 9.41421 13.25 9V8C13.25 7.58579 12.9142 7.25 12.5 7.25H11.5ZM15 7.25C14.5858 7.25 14.25 7.58579 14.25 8V9C14.25 9.41421 14.5858 9.75 15 9.75H16C16.4142 9.75 16.75 9.41421 16.75 9V8C16.75 7.58579 16.4142 7.25 16 7.25H15ZM11.5 14.25C11.0858 14.25 10.75 14.5858 10.75 15V16C10.75 16.4142 11.0858 16.75 11.5 16.75H12.5C12.9142 16.75 13.25 16.4142 13.25 16V15C13.25 14.5858 12.9142 14.25 12.5 14.25H11.5ZM14.25 15C14.25 14.5858 14.5858 14.25 15 14.25H16C16.4142 14.25 16.75 14.5858 16.75 15V16C16.75 16.4142 16.4142 16.75 16 16.75H15C14.5858 16.75 14.25 16.4142 14.25 16V15ZM8 14.25C7.58579 14.25 7.25 14.5858 7.25 15V16C7.25 16.4142 7.58579 16.75 8 16.75H9C9.41421 16.75 9.75 16.4142 9.75 16V15C9.75 14.5858 9.41421 14.25 9 14.25H8ZM10.75 11.5C10.75 11.0858 11.0858 10.75 11.5 10.75H12.5C12.9142 10.75 13.25 11.0858 13.25 11.5V12.5C13.25 12.9142 12.9142 13.25 12.5 13.25H11.5C11.0858 13.25 10.75 12.9142 10.75 12.5V11.5ZM15 10.75C14.5858 10.75 14.25 11.0858 14.25 11.5V12.5C14.25 12.9142 14.5858 13.25 15 13.25H16C16.4142 13.25 16.75 12.9142 16.75 12.5V11.5C16.75 11.0858 16.4142 10.75 16 10.75H15ZM7.25 11.5C7.25 11.0858 7.58579 10.75 8 10.75H9C9.41421 10.75 9.75 11.0858 9.75 11.5V12.5C9.75 12.9142 9.41421 13.25 9 13.25H8C7.58579 13.25 7.25 12.9142 7.25 12.5V11.5Z"
        fill="#303233" />
</svg>
