<svg width="16" height="16" viewBox="0 0 16 16" fill="none" xmlns="http://www.w3.org/2000/svg">
    <path
        d="M2.72516 1.80383C2.57106 1.73445 2.41272 1.66315 2.27817 1.61655C2.15576 1.57414 1.89271 1.49005 1.59865 1.57187C1.27075 1.66311 1.00479 1.90314 0.880513 2.22C0.769066 2.50416 0.825839 2.77443 0.85551 2.90053C0.888121 3.03914 0.942856 3.20394 0.996125 3.36432L2.28583 7.25H7.00065C7.41486 7.25 7.75065 7.58579 7.75065 8C7.75065 8.41421 7.41486 8.75 7.00065 8.75H2.30018L1.00098 12.6309C0.947122 12.7916 0.891832 12.9567 0.858793 13.0955C0.828789 13.2215 0.771086 13.4923 0.88223 13.7771C1.00607 14.0946 1.27206 14.3353 1.60027 14.4269C1.89482 14.5091 2.15847 14.4247 2.28089 14.3823C2.41568 14.3356 2.57437 14.2641 2.72896 14.1945L13.9175 9.15969C14.0681 9.09195 14.2239 9.02189 14.3463 8.95299C14.4591 8.8895 14.6922 8.75017 14.8257 8.48016C14.9753 8.17755 14.9753 7.82248 14.8257 7.51987C14.6922 7.24986 14.4591 7.11053 14.3463 7.04704C14.2239 6.97815 14.0681 6.9081 13.9175 6.84037L2.72516 1.80383Z"
        fill="#303233" />
</svg>
