<svg width="24" height="24" viewBox="0 0 24 24" fill="none" xmlns="http://www.w3.org/2000/svg">
    <path
        d="M19.75 2C19.75 1.58579 19.4142 1.25 19 1.25C18.5858 1.25 18.25 1.58579 18.25 2V4.25H16C15.5858 4.25 15.25 4.58579 15.25 5C15.25 5.41421 15.5858 5.75 16 5.75H18.25V8C18.25 8.41421 18.5858 8.75 19 8.75C19.4142 8.75 19.75 8.41421 19.75 8V5.75H22C22.4142 5.75 22.75 5.41421 22.75 5C22.75 4.58579 22.4142 4.25 22 4.25H19.75V2Z"
        fill="#303233" />
    <path
        d="M12.5 2.25L8.367 2.25C7.27486 2.24999 6.40936 2.24999 5.71173 2.30699C4.99835 2.36527 4.39472 2.48688 3.84355 2.76772C2.94978 3.22312 2.22312 3.94978 1.76772 4.84354C1.48688 5.39472 1.36527 5.99834 1.30699 6.71173C1.24999 7.40936 1.24999 8.27486 1.25 9.367V14.633C1.24999 15.7251 1.24999 16.5906 1.30699 17.2883C1.36527 18.0017 1.48688 18.6053 1.76772 19.1565C2.22312 20.0502 2.94978 20.7769 3.84355 21.2323C4.39472 21.5131 4.99834 21.6347 5.71173 21.693C6.40935 21.75 7.27484 21.75 8.36698 21.75H15.633C16.7252 21.75 17.5906 21.75 18.2883 21.693C19.0017 21.6347 19.6053 21.5131 20.1565 21.2323C21.0502 20.7769 21.7769 20.0502 22.2323 19.1565C22.5131 18.6053 22.6347 18.0017 22.693 17.2883C22.75 16.5906 22.75 15.7252 22.75 14.633V11.5C22.75 11.0858 22.4142 10.75 22 10.75C21.5858 10.75 21.25 11.0858 21.25 11.5V14.6C21.25 15.7325 21.2494 16.5367 21.198 17.1661C21.1473 17.7867 21.0509 18.171 20.8958 18.4755C20.5842 19.087 20.087 19.5842 19.4755 19.8958C19.171 20.0509 18.7867 20.1473 18.1661 20.198C17.5367 20.2494 16.7325 20.25 15.6 20.25H8.4C7.26752 20.25 6.46326 20.2494 5.83388 20.198C5.21325 20.1473 4.829 20.0509 4.52453 19.8958C3.913 19.5842 3.41582 19.087 3.10423 18.4755C2.94909 18.171 2.85271 17.7867 2.80201 17.1661C2.75058 16.5367 2.75 15.7325 2.75 14.6V9.4C2.75 8.26752 2.75058 7.46326 2.80201 6.83388C2.85271 6.21325 2.94909 5.829 3.10423 5.52453C3.41582 4.913 3.913 4.41582 4.52453 4.10423C4.829 3.94909 5.21325 3.85271 5.83388 3.80201C6.46326 3.75058 7.26752 3.75 8.4 3.75H12.5C12.9142 3.75 13.25 3.41421 13.25 3C13.25 2.58579 12.9142 2.25 12.5 2.25Z"
        fill="#303233" />
    <path fill-rule="evenodd" clip-rule="evenodd"
        d="M12 7.25C9.37665 7.25 7.25 9.37665 7.25 12C7.25 14.6234 9.37665 16.75 12 16.75C14.6234 16.75 16.75 14.6234 16.75 12C16.75 9.37665 14.6234 7.25 12 7.25ZM8.75 12C8.75 10.2051 10.2051 8.75 12 8.75C13.7949 8.75 15.25 10.2051 15.25 12C15.25 13.7949 13.7949 15.25 12 15.25C10.2051 15.25 8.75 13.7949 8.75 12Z"
        fill="#303233" />
</svg>
