<svg width="16" height="16" viewBox="0 0 16 16" fill="none" xmlns="http://www.w3.org/2000/svg">
    <path fill-rule="evenodd" clip-rule="evenodd"
        d="M11.7241 1.67531C9.323 0.774897 6.677 0.774897 4.2759 1.67531L3.21664 2.07253C2.48482 2.34696 2 3.04656 2 3.82815V7.68777C2 9.65296 3.12153 11.2909 4.31654 12.4844C5.5191 13.6854 6.8634 14.5045 7.45554 14.8372C7.79629 15.0286 8.20371 15.0286 8.54446 14.8372C9.1366 14.5045 10.4809 13.6854 11.6835 12.4844C12.8785 11.2909 14 9.65296 14 7.68777V3.82815C14 3.04656 13.5152 2.34696 12.7834 2.07253L11.7241 1.67531ZM7 5C7 4.72386 6.77614 4.5 6.5 4.5C6.22386 4.5 6 4.72386 6 5V9.5C6 9.77614 6.22386 10 6.5 10H9.5C9.77614 10 10 9.77614 10 9.5C10 9.22386 9.77614 9 9.5 9H7V5Z"
        fill="#303233" />
</svg>
