<svg width="16" height="16" viewBox="0 0 16 16" fill="none" xmlns="http://www.w3.org/2000/svg">
    <path
        d="M6.87935 5L7 5C7.27614 5 7.5 5.22386 7.5 5.5C7.5 5.77614 7.27614 6 7 6H6.9C6.47171 6 6.18056 6.00039 5.95552 6.01878C5.73631 6.03669 5.62421 6.06915 5.54601 6.10899C5.35785 6.20487 5.20487 6.35785 5.10899 6.54601C5.06915 6.62421 5.03669 6.73631 5.01878 6.95552C5.00039 7.18056 5 7.47171 5 7.9V8.1C5 8.52829 5.00039 8.81944 5.01878 9.04448C5.03669 9.26369 5.06915 9.37579 5.10899 9.45399C5.20487 9.64215 5.35785 9.79513 5.54601 9.89101C5.62421 9.93085 5.73631 9.96331 5.95552 9.98122C6.18056 9.99961 6.47171 10 6.9 10H7C7.27614 10 7.5 10.2239 7.5 10.5C7.5 10.7761 7.27614 11 7 11H6.87936C6.47687 11 6.14469 11 5.87409 10.9779C5.59304 10.9549 5.33469 10.9057 5.09202 10.782C4.7157 10.5903 4.40973 10.2843 4.21799 9.90798C4.09434 9.66531 4.04506 9.40696 4.0221 9.12591C3.99999 8.85532 3.99999 8.52314 4 8.12065V7.87935C3.99999 7.47687 3.99999 7.14469 4.0221 6.87409C4.04506 6.59304 4.09434 6.33469 4.21799 6.09202C4.40973 5.7157 4.7157 5.40973 5.09202 5.21799C5.33469 5.09434 5.59304 5.04506 5.87409 5.0221C6.14469 4.99999 6.47687 4.99999 6.87935 5Z"
        fill="#303233" />
    <path
        d="M11.5 5L11.3794 5C10.9769 4.99999 10.6447 4.99999 10.3741 5.0221C10.093 5.04506 9.83469 5.09434 9.59202 5.21799C9.2157 5.40973 8.90973 5.7157 8.71799 6.09202C8.59434 6.33469 8.54506 6.59304 8.5221 6.87409C8.49999 7.14468 8.49999 7.47686 8.5 7.87934V8.12065C8.49999 8.52313 8.49999 8.85532 8.5221 9.12591C8.54506 9.40696 8.59434 9.66531 8.71799 9.90798C8.90973 10.2843 9.2157 10.5903 9.59202 10.782C9.83469 10.9057 10.093 10.9549 10.3741 10.9779C10.6447 11 10.9769 11 11.3794 11H11.5C11.7761 11 12 10.7761 12 10.5C12 10.2239 11.7761 10 11.5 10H11.4C10.9717 10 10.6806 9.99961 10.4555 9.98122C10.2363 9.96331 10.1242 9.93085 10.046 9.89101C9.85785 9.79513 9.70487 9.64215 9.60899 9.45399C9.56915 9.37579 9.53669 9.26369 9.51878 9.04448C9.50039 8.81944 9.5 8.52829 9.5 8.1V7.9C9.5 7.47171 9.50039 7.18056 9.51878 6.95552C9.53669 6.73631 9.56915 6.62421 9.60899 6.54601C9.70487 6.35785 9.85785 6.20487 10.046 6.10899C10.1242 6.06915 10.2363 6.03669 10.4555 6.01878C10.6806 6.00039 10.9717 6 11.4 6H11.5C11.7761 6 12 5.77614 12 5.5C12 5.22386 11.7761 5 11.5 5Z"
        fill="#303233" />
    <path fill-rule="evenodd" clip-rule="evenodd"
        d="M11.3214 2.5H4.6786C4.1367 2.5 3.69963 2.49999 3.34569 2.52891C2.98126 2.55868 2.66117 2.62159 2.36502 2.77248C1.89462 3.01217 1.51217 3.39462 1.27248 3.86502C1.12159 4.16117 1.05868 4.48126 1.02891 4.84569C0.999992 5.19963 0.999995 5.6367 1 6.17859V9.8214C0.999995 10.3633 0.999992 10.8004 1.02891 11.1543C1.05868 11.5187 1.12159 11.8388 1.27248 12.135C1.51217 12.6054 1.89462 12.9878 2.36502 13.2275C2.66117 13.3784 2.98126 13.4413 3.34569 13.4711C3.69961 13.5 4.13667 13.5 4.67853 13.5H11.3214C11.8633 13.5 12.3004 13.5 12.6543 13.4711C13.0187 13.4413 13.3388 13.3784 13.635 13.2275C14.1054 12.9878 14.4878 12.6054 14.7275 12.135C14.8784 11.8388 14.9413 11.5187 14.9711 11.1543C15 10.8004 15 10.3633 15 9.82147V6.17858C15 5.63672 15 5.19961 14.9711 4.84569C14.9413 4.48126 14.8784 4.16117 14.7275 3.86502C14.4878 3.39462 14.1054 3.01217 13.635 2.77248C13.3388 2.62159 13.0187 2.55868 12.6543 2.52891C12.3004 2.49999 11.8633 2.5 11.3214 2.5ZM2.81901 3.66349C2.95069 3.5964 3.12454 3.55031 3.42712 3.52559C3.73554 3.50039 4.1317 3.5 4.7 3.5H11.3C11.8683 3.5 12.2645 3.50039 12.5729 3.52559C12.8755 3.55031 13.0493 3.5964 13.181 3.66349C13.4632 3.8073 13.6927 4.03677 13.8365 4.31901C13.9036 4.45069 13.9497 4.62454 13.9744 4.92712C13.9996 5.23554 14 5.6317 14 6.2V9.8C14 10.3683 13.9996 10.7645 13.9744 11.0729C13.9497 11.3755 13.9036 11.5493 13.8365 11.681C13.6927 11.9632 13.4632 12.1927 13.181 12.3365C13.0493 12.4036 12.8755 12.4497 12.5729 12.4744C12.2645 12.4996 11.8683 12.5 11.3 12.5H4.7C4.1317 12.5 3.73554 12.4996 3.42712 12.4744C3.12454 12.4497 2.95069 12.4036 2.81901 12.3365C2.53677 12.1927 2.3073 11.9632 2.16349 11.681C2.0964 11.5493 2.05031 11.3755 2.02559 11.0729C2.00039 10.7645 2 10.3683 2 9.8V6.2C2 5.6317 2.00039 5.23554 2.02559 4.92712C2.05031 4.62454 2.0964 4.45069 2.16349 4.31901C2.3073 4.03677 2.53677 3.8073 2.81901 3.66349Z"
        fill="#303233" />
</svg>
