<svg width="24" height="24" viewBox="0 0 24 24" fill="none" xmlns="http://www.w3.org/2000/svg">
    <path fill-rule="evenodd" clip-rule="evenodd"
        d="M12 3C12.4054 3 12.7 3.31705 12.7 3.66667V10.8889C12.7 11.4412 13.1477 11.8889 13.7 11.8889C14.2523 11.8889 14.7 11.4412 14.7 10.8889V4.77778C14.7 4.42816 14.9946 4.11111 15.4 4.11111C15.8054 4.11111 16.1 4.42816 16.1 4.77778V14.2222C16.1 14.7745 16.5477 15.2222 17.1 15.2222C17.6523 15.2222 18.1 14.7745 18.1 14.2222V11.4444C18.1 11.0948 18.3946 10.7778 18.8 10.7778C19.2054 10.7778 19.5 11.0948 19.5 11.4444V13.6667C19.5 17.6982 16.1609 21 12 21C7.8391 21 4.5 17.6982 4.5 13.6667V8.11111C4.5 7.7615 4.79464 7.44444 5.2 7.44444C5.60536 7.44444 5.9 7.7615 5.9 8.11111V10.8889C5.9 11.4412 6.34771 11.8889 6.9 11.8889C7.45228 11.8889 7.9 11.4412 7.9 10.8889V4.77778C7.9 4.42816 8.19464 4.11111 8.6 4.11111C9.00536 4.11111 9.3 4.42816 9.3 4.77778V10.8889C9.3 11.4412 9.74771 11.8889 10.3 11.8889C10.8523 11.8889 11.3 11.4412 11.3 10.8889V3.66667C11.3 3.31705 11.5946 3 12 3ZM9.66422 2.32694C10.135 1.52874 11.0124 1 12 1C12.9876 1 13.865 1.52874 14.3358 2.32694C14.6636 2.18783 15.0238 2.11111 15.4 2.11111C16.8724 2.11111 18.1 3.28644 18.1 4.77778V8.86873C18.3239 8.80936 18.5586 8.77778 18.8 8.77778C20.2724 8.77778 21.5 9.95311 21.5 11.4444V13.6667C21.5 18.8399 17.2279 23 12 23C6.77206 23 2.5 18.8399 2.5 13.6667V8.11111C2.5 6.61978 3.72759 5.44444 5.2 5.44444C5.44135 5.44444 5.67613 5.47603 5.9 5.5354V4.77778C5.9 3.28644 7.12759 2.11111 8.6 2.11111C8.97618 2.11111 9.33638 2.18783 9.66422 2.32694Z"
        fill="#303233" />
</svg>
