<svg width="16" height="16" viewBox="0 0 16 16" fill="none" xmlns="http://www.w3.org/2000/svg">
    <path fill-rule="evenodd" clip-rule="evenodd"
        d="M4.54 1H11.46C11.947 1 12.186 1.031 12.372 1.125C12.589 1.236 12.764 1.411 12.875 1.628C12.969 1.814 13 2.053 13 2.54V3.888C13 4.266 12.993 4.454 12.95 4.632C12.906 4.815 12.833 4.991 12.735 5.152C12.639 5.308 12.511 5.446 12.244 5.713L10.339 7.618L10.105 7.858C10.0956 7.86819 10.0865 7.87735 10.0779 7.88591C10.0538 7.91015 10.0344 7.92962 10.027 7.954C10.017 7.984 10.017 8.016 10.027 8.046C10.0344 8.07038 10.0538 8.08985 10.0779 8.11409C10.0865 8.12265 10.0956 8.13181 10.105 8.142C10.166 8.209 10.243 8.286 10.339 8.382L12.244 10.287C12.511 10.554 12.639 10.692 12.735 10.848C12.833 11.009 12.906 11.185 12.95 11.368C12.993 11.546 13 11.734 13 12.112V13.46C13 13.947 12.969 14.186 12.875 14.372C12.764 14.589 12.589 14.764 12.372 14.875C12.186 14.969 11.947 15 11.46 15H4.54C4.053 15 3.814 14.969 3.628 14.875C3.411 14.764 3.236 14.588 3.125 14.372C3.031 14.186 3 13.947 3 13.46V12.112C3 11.734 3.007 11.546 3.05 11.368C3.094 11.185 3.167 11.009 3.265 10.848C3.361 10.692 3.489 10.554 3.756 10.287L5.661 8.382L5.895 8.142C5.9044 8.13181 5.91353 8.12265 5.92206 8.11409C5.94621 8.08985 5.96561 8.07038 5.973 8.046C5.983 8.016 5.983 7.984 5.973 7.954C5.96561 7.92962 5.94621 7.91015 5.92206 7.88591C5.91353 7.87735 5.9044 7.86819 5.895 7.858C5.834 7.791 5.757 7.714 5.661 7.618L3.756 5.713C3.489 5.446 3.361 5.308 3.265 5.152C3.167 4.991 3.094 4.815 3.05 4.632C3.007 4.454 3 4.266 3 3.888V2.54C3 2.053 3.031 1.814 3.125 1.628C3.236 1.412 3.411 1.236 3.628 1.125C3.814 1.031 4.053 1 4.54 1ZM8.35357 9.89645C8.15831 9.70118 7.84172 9.70118 7.64646 9.89645L5.64646 11.8964C5.50346 12.0394 5.46068 12.2545 5.53807 12.4413C5.61547 12.6282 5.79778 12.75 6.00001 12.75H10C10.2022 12.75 10.3846 12.6282 10.462 12.4413C10.5393 12.2545 10.4966 12.0394 10.3536 11.8964L8.35357 9.89645Z"
        fill="#303233" />
</svg>
