<svg width="24" height="24" viewBox="0 0 24 24" fill="none" xmlns="http://www.w3.org/2000/svg">
    <path fill-rule="evenodd" clip-rule="evenodd"
        d="M17.2321 2.25H6.7679C5.95507 2.24999 5.29944 2.24999 4.76853 2.29336C4.2219 2.33803 3.74176 2.43239 3.29754 2.65873C2.59193 3.01825 2.01825 3.59193 1.65873 4.29754C1.43239 4.74176 1.33803 5.2219 1.29336 5.76853C1.24999 6.29944 1.24999 6.95505 1.25 7.76788V16.2321C1.24999 17.0449 1.24999 17.7006 1.29336 18.2315C1.33803 18.7781 1.43239 19.2582 1.65873 19.7025C2.01825 20.4081 2.59193 20.9817 3.29754 21.3413C3.74176 21.5676 4.2219 21.662 4.76853 21.7066C5.29944 21.75 5.95505 21.75 6.76788 21.75H17.2321C18.045 21.75 18.7006 21.75 19.2315 21.7066C19.7781 21.662 20.2582 21.5676 20.7025 21.3413C21.4081 20.9817 21.9817 20.4081 22.3413 19.7025C22.5676 19.2582 22.662 18.7781 22.7066 18.2315C22.75 17.7006 22.75 17.045 22.75 16.2321V7.76788C22.75 6.95505 22.75 6.29944 22.7066 5.76853C22.662 5.2219 22.5676 4.74176 22.3413 4.29754C21.9817 3.59193 21.4081 3.01825 20.7025 2.65873C20.2582 2.43239 19.7781 2.33803 19.2315 2.29336C18.7006 2.24999 18.0449 2.24999 17.2321 2.25ZM7.51493 9.66265C7.18015 9.41874 7.10649 8.94962 7.3504 8.61483C8.39462 7.18157 10.0885 6.24765 12.0005 6.24765C14.7785 6.24765 17.0965 8.2178 17.6333 10.8371C17.928 10.5869 18.3703 10.6009 18.6484 10.8791C18.9413 11.172 18.9413 11.6469 18.6484 11.9397L17.472 13.1162C17.3313 13.2569 17.1405 13.3359 16.9416 13.3359C16.7427 13.3359 16.552 13.2569 16.4113 13.1162L15.2348 11.9397C14.9419 11.6469 14.9419 11.172 15.2348 10.8791C15.4563 10.6576 15.7819 10.6036 16.0542 10.7171C15.5109 8.9957 13.9014 7.74765 12.0005 7.74765C10.5882 7.74765 9.3368 8.43569 8.56276 9.49811C8.31884 9.8329 7.84972 9.90656 7.51493 9.66265ZM5.35248 13.1162C5.05959 12.8233 5.05959 12.3484 5.35248 12.0556L6.52895 10.8791C6.66961 10.7384 6.86037 10.6594 7.05928 10.6594C7.25819 10.6594 7.44896 10.7384 7.58961 10.8791L8.76608 12.0556C9.05898 12.3484 9.05898 12.8233 8.76608 13.1162C8.54458 13.3377 8.21901 13.3917 7.94677 13.2782C8.49004 14.9996 10.0995 16.2477 12.0005 16.2477C13.4127 16.2477 14.6641 15.5596 15.4382 14.4972C15.6821 14.1624 16.1512 14.0887 16.486 14.3326C16.8208 14.5766 16.8944 15.0457 16.6505 15.3805C15.6063 16.8137 13.9124 17.7477 12.0005 17.7477C9.22238 17.7477 6.90445 15.7775 6.36763 13.1582C6.07295 13.4084 5.63065 13.3944 5.35248 13.1162Z"
        fill="#303233" />
</svg>
