<svg width="24" height="24" viewBox="0 0 24 24" fill="none" xmlns="http://www.w3.org/2000/svg">
    <path fill-rule="evenodd" clip-rule="evenodd"
        d="M3.75738 8.41436C3.93294 4.42798 7.22034 1.25 11.25 1.25C14.134 1.25 16.6364 2.87776 17.8911 5.26204C21.1607 5.46392 23.75 8.17958 23.75 11.5C23.75 14.9518 20.9518 17.75 17.5 17.75H5C2.37665 17.75 0.25 15.6234 0.25 13C0.25 10.8063 1.73647 8.96081 3.75738 8.41436ZM12.5303 10.4697C12.2374 10.1768 11.7626 10.1768 11.4697 10.4697L8.46967 13.4697C8.17678 13.7626 8.17678 14.2374 8.46967 14.5303C8.76256 14.8232 9.23744 14.8232 9.53033 14.5303L11.25 12.8107V21C11.25 21.4142 11.5858 21.75 12 21.75C12.4142 21.75 12.75 21.4142 12.75 21V12.8107L14.4697 14.5303C14.7626 14.8232 15.2374 14.8232 15.5303 14.5303C15.8232 14.2374 15.8232 13.7626 15.5303 13.4697L12.5303 10.4697Z"
        fill="#303233" />
</svg>
