<svg width="24" height="24" viewBox="0 0 24 24" fill="none" xmlns="http://www.w3.org/2000/svg">
    <path fill-rule="evenodd" clip-rule="evenodd"
        d="M6 8C6 6.34315 7.34315 5 9 5C10.6569 5 12 6.34315 12 8C12 9.65685 10.6569 11 9 11C7.34315 11 6 9.65685 6 8ZM9 7C8.44772 7 8 7.44772 8 8C8 8.55229 8.44772 9 9 9C9.55229 9 10 8.55229 10 8C10 7.44772 9.55229 7 9 7Z"
        fill="#303233" />
    <path fill-rule="evenodd" clip-rule="evenodd"
        d="M12 1C5.92487 1 1 5.92487 1 12C1 18.0751 5.92487 23 12 23C18.0751 23 23 18.0751 23 12C23 5.92487 18.0751 1 12 1ZM3 12C3 7.02944 7.02944 3 12 3C16.9706 3 21 7.02944 21 12C21 12.1908 20.9941 12.3803 20.9824 12.5681L17.4142 9C16.6332 8.21895 15.3668 8.21895 14.5858 9L5.43228 18.1535C3.92376 16.5441 3 14.3799 3 12ZM6.95803 19.4562C8.3964 20.4307 10.1317 21 12 21C15.9457 21 19.2984 18.4609 20.5132 14.9274L16 10.4142L6.95803 19.4562Z"
        fill="#303233" />
</svg>
