<svg width="16" height="16" viewBox="0 0 16 16" fill="none" xmlns="http://www.w3.org/2000/svg">
    <path
        d="M8 1.5C8.27614 1.5 8.5 1.72386 8.5 2V8.79274L10.9796 6.31312C11.1749 6.11786 11.4915 6.11786 11.6867 6.31312C11.882 6.50838 11.882 6.82496 11.6867 7.02023L8.36097 10.346C8.27197 10.4388 8.14751 10.4974 8.00936 10.4999L7.99984 10.5C7.99038 10.5 7.98096 10.4997 7.97157 10.4992C7.89214 10.4948 7.81767 10.4718 7.7524 10.4345C7.7139 10.4126 7.67816 10.3854 7.64628 10.3536L4.31295 7.02023C4.11769 6.82496 4.11769 6.50838 4.31295 6.31312C4.50821 6.11786 4.8248 6.11786 5.02006 6.31312L7.5 8.79306V2C7.5 1.72386 7.72386 1.5 8 1.5Z"
        fill="#303233" />
    <path
        d="M14 12C14 11.7239 13.7761 11.5 13.5 11.5C13.2239 11.5 13 11.7239 13 12C13 12.5523 12.5523 13 12 13H4C3.44772 13 3 12.5523 3 12C3 11.7239 2.77614 11.5 2.5 11.5C2.22386 11.5 2 11.7239 2 12C2 13.1046 2.89543 14 4 14H12C13.1046 14 14 13.1046 14 12Z"
        fill="#303233" />
</svg>
