<svg width="24" height="24" viewBox="0 0 24 24" fill="none" xmlns="http://www.w3.org/2000/svg">
    <path fill-rule="evenodd" clip-rule="evenodd"
        d="M1.45653 4.95495C1.85315 4.47365 2.45158 4.20491 3.07481 4.22824C3.57623 4.24701 3.98171 4.50902 4.2627 4.71688C4.55523 4.93328 4.90026 5.24001 5.29366 5.58973C5.30485 5.59968 5.31608 5.60966 5.32735 5.61968L10.3447 10.0795C10.5551 10.2666 10.7575 10.4464 10.9143 10.6117C11.0846 10.7912 11.2719 11.0244 11.3819 11.3374C11.5324 11.7663 11.5324 12.2337 11.3819 12.6626C11.2719 12.9756 11.0846 13.2087 10.9143 13.3883C10.7574 13.5536 10.5551 13.7335 10.3447 13.9205L5.29368 18.4102C4.90027 18.76 4.55523 19.0667 4.2627 19.2831C3.98171 19.491 3.57623 19.753 3.07481 19.7718C2.45158 19.7951 1.85315 19.5263 1.45653 19.045C1.13744 18.6578 1.06388 18.1807 1.03256 17.8326C0.999952 17.4702 0.999975 17.0085 1 16.4821L1 7.56295C1 7.54787 1 7.53284 1 7.51787C0.999975 6.9915 0.999952 6.52984 1.03256 6.16743C1.06388 5.81932 1.13744 5.34219 1.45653 4.95495ZM12.4565 4.95495C12.8531 4.47365 13.4516 4.20491 14.0748 4.22824C14.5762 4.24701 14.9817 4.50902 15.2627 4.71688C15.5552 4.93329 15.9003 5.24002 16.2937 5.58976L21.3447 10.0796C21.5551 10.2666 21.7575 10.4464 21.9143 10.6117C22.0846 10.7912 22.2719 11.0244 22.3819 11.3374C22.5325 11.7663 22.5325 12.2337 22.3819 12.6626C22.2719 12.9756 22.0846 13.2087 21.9143 13.3883C21.7575 13.5536 21.5551 13.7334 21.3447 13.9205L16.2937 18.4103C15.9003 18.76 15.5552 19.0667 15.2627 19.2831C14.9817 19.491 14.5762 19.753 14.0748 19.7718C13.4516 19.7951 12.8531 19.5263 12.4565 19.045C12.1374 18.6578 12.0639 18.1807 12.0326 17.8326C12 17.4702 12 17.0085 12 16.4821V7.51786C12 6.99149 12 6.52984 12.0326 6.16743C12.0639 5.81932 12.1374 5.34219 12.4565 4.95495Z"
        fill="#303233" />
</svg>
