<svg width="24" height="24" viewBox="0 0 24 24" fill="none" xmlns="http://www.w3.org/2000/svg">
    <path
        d="M4 8C4 5.23858 6.23858 3 9 3C11.7614 3 14 5.23858 14 8C14 10.7614 11.7614 13 9 13C6.23858 13 4 10.7614 4 8Z"
        fill="#303233" />
    <path
        d="M15.9998 8C15.9998 9.57711 15.4783 11.0324 14.5982 12.2028C14.36 12.5196 14.5158 12.9924 14.9122 12.9992C14.9413 12.9997 14.9706 13 14.9998 13C17.7613 13 19.9998 10.7614 19.9998 8C19.9998 5.23858 17.7613 3 14.9998 3C14.5656 3 14.3939 3.51734 14.6505 3.86761C15.4989 5.02574 15.9998 6.45437 15.9998 8Z"
        fill="#303233" />
    <path
        d="M21.006 22C20.4109 22 19.9206 21.544 19.8109 20.9591C19.3812 18.669 18.2419 16.6291 16.6299 15.0765C16.2717 14.7315 16.5154 14.113 17.0004 14.2231C20.2818 14.9679 22.8809 17.5055 23.7162 20.7507C23.7932 21.0501 23.7275 21.3683 23.5381 21.6127C23.3487 21.857 23.0569 22 22.7477 22H21.006Z"
        fill="#303233" />
    <path
        d="M8.99993 14C4.80492 14 1.28257 16.8692 0.283525 20.7507C0.206466 21.0501 0.272217 21.3683 0.461627 21.6127C0.651038 21.857 0.942809 22 1.25196 22H16.7479C17.057 22 17.3488 21.857 17.5382 21.6127C17.7276 21.3683 17.7934 21.0501 17.7163 20.7507C16.7173 16.8692 13.1949 14 8.99993 14Z"
        fill="#303233" />
</svg>
