<svg width="16" height="16" viewBox="0 0 16 16" fill="none" xmlns="http://www.w3.org/2000/svg">
    <path fill-rule="evenodd" clip-rule="evenodd"
        d="M4.6786 1.5H11.3214C11.8633 1.5 12.3004 1.49999 12.6543 1.52891C13.0187 1.55868 13.3388 1.62159 13.635 1.77249C14.1054 2.01217 14.4878 2.39462 14.7275 2.86503C14.8784 3.16117 14.9413 3.48127 14.9711 3.8457C15 4.19964 15 4.63671 15 5.17858V7C15 7.27614 14.7761 7.5 14.5 7.5C14.2239 7.5 14 7.27614 14 7V6.5H2V10.8C2 11.3683 2.00039 11.7645 2.02559 12.0729C2.05031 12.3755 2.0964 12.5493 2.16349 12.681C2.3073 12.9632 2.53677 13.1927 2.81901 13.3365C2.95069 13.4036 3.12454 13.4497 3.42712 13.4744C3.73554 13.4996 4.1317 13.5 4.7 13.5H8.5C8.77614 13.5 9 13.7239 9 14C9 14.2761 8.77614 14.5 8.5 14.5H4.67863C4.13672 14.5 3.69963 14.5 3.34569 14.4711C2.98126 14.4413 2.66117 14.3784 2.36502 14.2275C1.89462 13.9878 1.51217 13.6054 1.27248 13.135C1.12159 12.8388 1.05868 12.5187 1.02891 12.1543C0.999991 11.8004 0.999995 11.3633 1 10.8214V5.1786C0.999995 4.6367 0.999991 4.19963 1.02891 3.84569C1.05868 3.48126 1.12159 3.16117 1.27248 2.86502C1.51217 2.39462 1.89462 2.01217 2.36502 1.77248C2.66117 1.62159 2.98126 1.55868 3.34569 1.52891C3.69963 1.49999 4.1367 1.5 4.6786 1.5ZM2 5.5H14V5.2C14 4.63171 13.9996 4.23555 13.9744 3.92713C13.9497 3.62454 13.9036 3.45069 13.8365 3.31902C13.6927 3.03677 13.4632 2.8073 13.181 2.66349C13.0493 2.5964 12.8755 2.55031 12.5729 2.52559C12.2645 2.50039 11.8683 2.5 11.3 2.5H4.7C4.1317 2.5 3.73554 2.50039 3.42712 2.52559C3.12454 2.55031 2.95069 2.5964 2.81901 2.66349C2.53677 2.8073 2.3073 3.03677 2.16349 3.31901C2.0964 3.45069 2.05031 3.62454 2.02559 3.92712C2.00039 4.23554 2 4.6317 2 5.2V5.5ZM11.1464 10.1464C11.3417 9.95118 11.6583 9.95118 11.8536 10.1464L13.25 11.5429L14.6464 10.1464C14.8417 9.95118 15.1583 9.95118 15.3536 10.1464C15.5488 10.3417 15.5488 10.6583 15.3536 10.8536L13.9571 12.25L15.3536 13.6464C15.5488 13.8417 15.5488 14.1583 15.3536 14.3536C15.1583 14.5488 14.8417 14.5488 14.6464 14.3536L13.25 12.9571L11.8536 14.3536C11.6583 14.5488 11.3417 14.5488 11.1464 14.3536C10.9512 14.1583 10.9512 13.8417 11.1464 13.6464L12.5429 12.25L11.1464 10.8536C10.9512 10.6583 10.9512 10.3417 11.1464 10.1464Z"
        fill="#303233" />
</svg>
