<svg width="16" height="16" viewBox="0 0 16 16" fill="none" xmlns="http://www.w3.org/2000/svg">
    <path fill-rule="evenodd" clip-rule="evenodd"
        d="M5.60532 0.750002C5.61477 0.750003 5.62423 0.750004 5.63371 0.750004L10.3899 0.750002C10.6226 0.749975 10.8451 0.749949 11.0286 0.766603C11.2216 0.784118 11.4749 0.826547 11.7111 0.98311C12.0186 1.18696 12.2332 1.50395 12.3082 1.86517C12.3659 2.1426 12.3112 2.39352 12.2558 2.57921C12.2031 2.75577 12.1204 2.96239 12.034 3.17843L11.3683 4.84259L11.3512 4.88559L11.3478 4.89447L11.3477 4.904L11.3476 4.95029V6.33519C11.3476 6.36984 11.3476 6.39622 11.3478 6.41904C11.3478 6.42563 11.3479 6.43152 11.348 6.43679C11.3512 6.44095 11.3548 6.44559 11.3589 6.45077C11.373 6.46869 11.3895 6.4893 11.4111 6.51635L12.4516 7.8169C12.6507 8.06573 12.8311 8.29122 12.9583 8.48368C13.0822 8.671 13.2448 8.95261 13.2452 9.29849C13.2456 9.72485 13.0518 10.1282 12.7186 10.3942C12.4483 10.6099 12.1268 10.6589 11.9031 10.6792C11.6733 10.7001 11.3845 10.7 11.0659 10.7L8.74759 10.7L8.74759 14.5C8.74759 14.9142 8.41181 15.25 7.99759 15.25C7.58338 15.25 7.24759 14.9142 7.24759 14.5L7.24759 10.7L4.92933 10.7C4.61064 10.7 4.32185 10.7001 4.09207 10.6792C3.86843 10.6589 3.54693 10.6099 3.27661 10.3942C2.94339 10.1282 2.74954 9.72485 2.75 9.29849C2.75037 8.95261 2.91301 8.671 3.03686 8.48368C3.1641 8.29121 3.34452 8.06572 3.54362 7.81688L4.58405 6.51635C4.60569 6.4893 4.62217 6.46869 4.63628 6.45077C4.64036 6.44559 4.64398 6.44095 4.64722 6.43679C4.64729 6.43152 4.64736 6.42563 4.64741 6.41904C4.64759 6.39622 4.64759 6.36984 4.64759 6.33519V4.95029L4.64754 4.904L4.64743 4.89447L4.64399 4.88559L4.62685 4.84259L3.97174 3.20479C3.96822 3.19599 3.9647 3.18721 3.96119 3.17844C3.87474 2.96239 3.79207 2.75577 3.73938 2.57921C3.68397 2.39352 3.6293 2.1426 3.68695 1.86517C3.76201 1.50395 3.97662 1.18696 4.28413 0.98311C4.52031 0.826547 4.77358 0.784118 4.96657 0.766603C5.15007 0.749949 5.37262 0.749975 5.60532 0.750002Z"
        fill="#303233" />
</svg>
