<svg width="24" height="24" viewBox="0 0 24 24" fill="none" xmlns="http://www.w3.org/2000/svg">
    <path fill-rule="evenodd" clip-rule="evenodd"
        d="M15.1084 6.90332C15.2988 6.88833 15.5314 6.89 15.7725 6.97949C16.1008 7.10155 16.3763 7.33492 16.5508 7.63867C16.6786 7.86168 16.7179 8.09198 16.7344 8.28223C16.7502 8.4654 16.75 8.68711 16.75 8.91699V14L16.7383 14.2295C16.6231 15.3641 15.665 16.25 14.5 16.25C13.2575 16.25 12.2502 15.2424 12.25 14C12.2502 12.7576 13.2575 11.75 14.5 11.75C14.7632 11.75 15.0153 11.7968 15.25 11.8799V8.91699C15.25 8.66056 15.2492 8.51464 15.2402 8.41113C15.2398 8.40691 15.2387 8.4022 15.2383 8.39844C15.2344 8.3987 15.2299 8.39907 15.2256 8.39941C15.122 8.40762 14.9787 8.43047 14.7256 8.47266L11.126 9.07227C10.9369 9.10379 10.8355 9.12202 10.7637 9.13965C10.7611 9.14027 10.7582 9.14005 10.7559 9.14063C10.7557 9.14283 10.756 9.14597 10.7559 9.14844C10.7503 9.22214 10.75 9.32537 10.75 9.5166V15L10.7383 15.2295C10.6231 16.3641 9.66502 17.25 8.5 17.25C7.2575 17.25 6.25023 16.2424 6.25 15C6.25023 13.7576 7.2575 12.75 8.5 12.75C8.76319 12.75 9.01525 12.7968 9.25 12.8799V9.5166C9.25 9.3476 9.24994 9.17835 9.26074 9.03516C9.27232 8.8826 9.29973 8.70466 9.38184 8.52148C9.49757 8.26372 9.68376 8.04331 9.91895 7.88672C10.0863 7.77549 10.2576 7.71913 10.4063 7.68262C10.5459 7.64836 10.7129 7.6206 10.8799 7.59277L14.4795 6.99316C14.7066 6.95531 14.9249 6.91781 15.1084 6.90332ZM8.5 14.25C8.08593 14.25 7.75023 14.586 7.75 15C7.75023 15.414 8.08593 15.75 8.5 15.75C8.91407 15.75 9.24977 15.414 9.25 15C9.24977 14.586 8.91407 14.25 8.5 14.25ZM14.5 13.25C14.0859 13.25 13.7502 13.586 13.75 14C13.7502 14.414 14.0859 14.75 14.5 14.75C14.9141 14.75 15.2498 14.414 15.25 14C15.2498 13.586 14.9141 13.25 14.5 13.25Z"
        fill="#303233" />
    <path fill-rule="evenodd" clip-rule="evenodd"
        d="M15.2324 1.25C16.0451 1.24999 16.7006 1.2496 17.2314 1.29297C17.7781 1.33763 18.2579 1.43286 18.7021 1.65918C19.4078 2.01871 19.9813 2.59224 20.3408 3.29785C20.5671 3.74205 20.6624 4.22195 20.707 4.76856C20.7504 5.29939 20.75 5.95491 20.75 6.76758V17.2324C20.75 18.0451 20.7504 18.7006 20.707 19.2314C20.6624 19.7781 20.5671 20.2579 20.3408 20.7021C19.9813 21.4078 19.4078 21.9813 18.7021 22.3408C18.2579 22.5671 17.7781 22.6624 17.2314 22.707C16.7006 22.7504 16.0451 22.75 15.2324 22.75H8.76758C7.95491 22.75 7.29939 22.7504 6.76856 22.707C6.22195 22.6624 5.74205 22.5671 5.29785 22.3408C4.59224 21.9813 4.01871 21.4078 3.65918 20.7021C3.43286 20.2579 3.33763 19.7781 3.29297 19.2314C3.2496 18.7006 3.24999 18.0451 3.25 17.2324V6.76758C3.24999 5.95491 3.2496 5.29939 3.29297 4.76856C3.33763 4.22195 3.43286 3.74205 3.65918 3.29785C4.01871 2.59224 4.59224 2.01871 5.29785 1.65918C5.74205 1.43286 6.22195 1.33763 6.76856 1.29297C7.29939 1.2496 7.95491 1.24999 8.76758 1.25H15.2324ZM8.79981 2.75C7.94746 2.75 7.35322 2.75029 6.89063 2.78809C6.4368 2.82517 6.17602 2.89449 5.97852 2.99512C5.55515 3.21083 5.21083 3.55515 4.99512 3.97852C4.89449 4.17602 4.82517 4.4368 4.78809 4.89063C4.75029 5.35322 4.75 5.94746 4.75 6.79981V17.2002C4.75 18.0525 4.75029 18.6468 4.78809 19.1094C4.82517 19.5632 4.89449 19.824 4.99512 20.0215C5.21083 20.4448 5.55515 20.7892 5.97852 21.0049C6.17602 21.1055 6.4368 21.1748 6.89063 21.2119C7.35322 21.2497 7.94746 21.25 8.79981 21.25H15.2002C16.0525 21.25 16.6468 21.2497 17.1094 21.2119C17.5632 21.1748 17.824 21.1055 18.0215 21.0049C18.4448 20.7892 18.7892 20.4448 19.0049 20.0215C19.1055 19.824 19.1748 19.5632 19.2119 19.1094C19.2497 18.6468 19.25 18.0525 19.25 17.2002V6.79981C19.25 5.94746 19.2497 5.35322 19.2119 4.89063C19.1748 4.4368 19.1055 4.17602 19.0049 3.97852C18.7892 3.55515 18.4448 3.21083 18.0215 2.99512C17.824 2.89449 17.5632 2.82517 17.1094 2.78809C16.6468 2.75029 16.0525 2.75 15.2002 2.75H8.79981Z"
        fill="#303233" />
</svg>
