<svg width="24" height="24" viewBox="0 0 24 24" fill="none" xmlns="http://www.w3.org/2000/svg">
    <path
        d="M9 12C8.44772 12 8 12.4477 8 13V13.001C8 13.5533 8.44872 14.001 9.001 14.001C9.55328 14.001 10.001 13.5533 10.001 13.001V13C10.001 12.4477 9.55228 12 9 12Z"
        fill="#303233" />
    <path
        d="M12 12C11.4477 12 11 12.4477 11 13V13.001C11 13.5533 11.4487 14.001 12.001 14.001C12.5533 14.001 13.001 13.5533 13.001 13.001V13C13.001 12.4477 12.5523 12 12 12Z"
        fill="#303233" />
    <path
        d="M12 15C11.4477 15 11 15.4477 11 16C11 16.5523 11.4477 17.001 12 17.001C12.5523 17.001 13.001 16.5533 13.001 16.001C13.001 15.4487 12.5523 15 12 15Z"
        fill="#303233" />
    <path
        d="M18 12C17.4477 12 17 12.4477 17 13V13.001C17 13.5533 17.4477 14.001 18 14.001C18.5523 14.001 19.001 13.5533 19.001 13.001V13C19.001 12.4477 18.5523 12 18 12Z"
        fill="#303233" />
    <path
        d="M18 15C17.4477 15 17 15.4477 17 16C17 16.5523 17.4477 17.001 18 17.001C18.5523 17.001 19.001 16.5533 19.001 16.001C19.001 15.4487 18.5523 15 18 15Z"
        fill="#303233" />
    <path
        d="M9 15C8.44772 15 8 15.4477 8 16C8 16.5523 8.44872 17.001 9.001 17.001C9.55328 17.001 10.001 16.5523 10.001 16C10.001 15.4477 9.55228 15 9 15Z"
        fill="#303233" />
    <path
        d="M6 15C5.44772 15 5 15.4477 5 16C5 16.5523 5.44772 17.001 6 17.001C6.55228 17.001 7.001 16.5533 7.001 16.001C7.001 15.4487 6.55228 15 6 15Z"
        fill="#303233" />
    <path
        d="M12 18C11.4477 18 11 18.4477 11 19C11 19.5523 11.4487 20.001 12.001 20.001C12.5533 20.001 13.001 19.5523 13.001 19C13.001 18.4477 12.5523 18 12 18Z"
        fill="#303233" />
    <path
        d="M15 12C14.4477 12 14 12.4477 14 13V13.001C14 13.5533 14.4477 14.001 15 14.001H15.001C15.5533 14.001 16.001 13.5533 16.001 13.001V13C16.001 12.4477 15.5533 12 15.001 12H15Z"
        fill="#303233" />
    <path
        d="M15 15C14.4477 15 14 15.4477 14 16C14 16.5523 14.4477 17.001 15 17.001H15.001C15.5533 17.001 16.001 16.5523 16.001 16C16.001 15.4477 15.5533 15 15.001 15H15Z"
        fill="#303233" />
    <path
        d="M15 18C14.4477 18 14 18.4477 14 19C14 19.5523 14.4477 20.001 15 20.001H15.001C15.5533 20.001 16.001 19.5533 16.001 19.001C16.001 18.4487 15.5533 18 15.001 18H15Z"
        fill="#303233" />
    <path
        d="M9 18C8.44772 18 8 18.4477 8 19C8 19.5523 8.44872 20.001 9.001 20.001C9.55328 20.001 10.001 19.5523 10.001 19C10.001 18.4477 9.55228 18 9 18Z"
        fill="#303233" />
    <path
        d="M6 18C5.44772 18 5 18.4477 5 19C5 19.5523 5.44772 20.001 6 20.001C6.55228 20.001 7.001 19.5533 7.001 19.001C7.001 18.4487 6.55228 18 6 18Z"
        fill="#303233" />
    <path fill-rule="evenodd" clip-rule="evenodd"
        d="M17 2C17 1.44772 16.5523 1 16 1C15.4477 1 15 1.44772 15 2V3H9V2C9 1.44772 8.55228 1 8 1C7.44772 1 7 1.44772 7 2V3H5C3.34315 3 2 4.34315 2 6V20C2 21.6569 3.34315 23 5 23H19C20.6569 23 22 21.6569 22 20V6C22 4.34315 20.6569 3 19 3H17V2ZM20 9V6C20 5.44772 19.5523 5 19 5H17V6C17 6.55228 16.5523 7 16 7C15.4477 7 15 6.55228 15 6V5H9V6C9 6.55228 8.55228 7 8 7C7.44772 7 7 6.55228 7 6V5H5C4.44772 5 4 5.44772 4 6V9H20ZM4 11V20C4 20.5523 4.44772 21 5 21H19C19.5523 21 20 20.5523 20 20V11H4Z"
        fill="#303233" />
</svg>
