<svg width="24" height="24" viewBox="0 0 24 24" fill="none" xmlns="http://www.w3.org/2000/svg">
    <path
        d="M5.25 8.75C5.25 5.43629 7.93629 2.75 11.25 2.75C13.6922 2.75 15.7952 4.20919 16.7317 6.30642C16.854 6.58032 17.1278 6.755 17.4277 6.75054C17.4518 6.75018 17.4759 6.75 17.5 6.75C20.1234 6.75 22.25 8.87665 22.25 11.5C22.25 14.1234 20.1234 16.25 17.5 16.25C17.0858 16.25 16.75 16.5858 16.75 17C16.75 17.4142 17.0858 17.75 17.5 17.75C20.9518 17.75 23.75 14.9518 23.75 11.5C23.75 8.17958 21.1607 5.46392 17.8911 5.26204C16.6364 2.87776 14.134 1.25 11.25 1.25C7.22034 1.25 3.93294 4.42798 3.75738 8.41436C1.73647 8.96081 0.25 10.8063 0.25 13C0.25 15.6234 2.37665 17.75 5 17.75H6.5C6.91421 17.75 7.25 17.4142 7.25 17C7.25 16.5858 6.91421 16.25 6.5 16.25H5C3.20507 16.25 1.75 14.7949 1.75 13C1.75 11.3416 2.99278 9.97236 4.59745 9.77461C4.98497 9.72685 5.27102 9.38976 5.25509 8.99963C5.25171 8.91689 5.25 8.83367 5.25 8.75Z"
        fill="#303233" />
    <path
        d="M11.4697 10.4697C11.5416 10.3978 11.6245 10.3435 11.7129 10.3069C11.8013 10.2702 11.8983 10.25 12 10.25C12.1017 10.25 12.1987 10.2702 12.2871 10.3069C12.3755 10.3435 12.4584 10.3978 12.5303 10.4697L15.5303 13.4697C15.8232 13.7626 15.8232 14.2374 15.5303 14.5303C15.2374 14.8232 14.7626 14.8232 14.4697 14.5303L12.75 12.8107V21C12.75 21.4142 12.4142 21.75 12 21.75C11.5858 21.75 11.25 21.4142 11.25 21V12.8107L9.53033 14.5303C9.23744 14.8232 8.76256 14.8232 8.46967 14.5303C8.17678 14.2374 8.17678 13.7626 8.46967 13.4697L11.4697 10.4697Z"
        fill="#303233" />
</svg>
