<svg width="24" height="24" viewBox="0 0 24 24" fill="none" xmlns="http://www.w3.org/2000/svg">
    <path fill-rule="evenodd" clip-rule="evenodd"
        d="M8.16146 0.999999H15.8385C16.3657 0.999981 16.8205 0.999966 17.195 1.03057C17.5904 1.06287 17.9836 1.13419 18.362 1.32698C18.9265 1.6146 19.3854 2.07354 19.673 2.63803C19.8658 3.01641 19.9371 3.40963 19.9694 3.80497C20 4.17955 20 4.63432 20 5.16148V18.8385C20 19.3657 20 19.8205 19.9694 20.195C19.9371 20.5904 19.8658 20.9836 19.673 21.362C19.3854 21.9265 18.9265 22.3854 18.362 22.673C17.9836 22.8658 17.5904 22.9371 17.195 22.9694C16.8205 23 16.3657 23 15.8386 23H8.16144C7.6343 23 7.17954 23 6.80497 22.9694C6.40963 22.9371 6.01641 22.8658 5.63803 22.673C5.07354 22.3854 4.6146 21.9265 4.32698 21.362C4.13419 20.9836 4.06287 20.5904 4.03057 20.195C3.99997 19.8205 3.99998 19.3657 4 18.8385V5.16146C3.99998 4.63431 3.99997 4.17954 4.03057 3.80497C4.06287 3.40963 4.13419 3.01641 4.32698 2.63803C4.6146 2.07354 5.07354 1.6146 5.63803 1.32698C6.01641 1.13419 6.40963 1.06287 6.80497 1.03057C7.17955 0.999966 7.63431 0.999981 8.16146 0.999999ZM6.96784 3.02393C6.69617 3.04612 6.59546 3.0838 6.54601 3.10899C6.35785 3.20487 6.20487 3.35785 6.109 3.54601C6.0838 3.59545 6.04612 3.69617 6.02393 3.96784C6.00078 4.25117 6 4.62345 6 5.2V18.8C6 19.3766 6.00078 19.7488 6.02393 20.0322C6.04612 20.3038 6.0838 20.4045 6.109 20.454C6.20487 20.6422 6.35785 20.7951 6.54601 20.891C6.59546 20.9162 6.69617 20.9539 6.96784 20.9761C7.25117 20.9992 7.62345 21 8.2 21H15.8C16.3766 21 16.7488 20.9992 17.0322 20.9761C17.3038 20.9539 17.4045 20.9162 17.454 20.891C17.6422 20.7951 17.7951 20.6422 17.891 20.454C17.9162 20.4045 17.9539 20.3038 17.9761 20.0322C17.9992 19.7488 18 19.3766 18 18.8V5.2C18 4.62345 17.9992 4.25117 17.9761 3.96784C17.9539 3.69617 17.9162 3.59545 17.891 3.54601C17.7951 3.35785 17.6422 3.20487 17.454 3.10899C17.4045 3.0838 17.3038 3.04612 17.0322 3.02393C16.7488 3.00078 16.3766 3 15.8 3H8.2C7.62345 3 7.25117 3.00078 6.96784 3.02393ZM10.5 17.5C10.5 16.6716 11.1716 16 12 16C12.8284 16 13.5 16.6716 13.5 17.5C13.5 18.3284 12.8284 19 12 19C11.1716 19 10.5 18.3284 10.5 17.5Z"
        fill="#303233" />
</svg>
