<svg width="24" height="24" viewBox="0 0 24 24" fill="none" xmlns="http://www.w3.org/2000/svg">
    <path
        d="M13.293 10.293C13.6835 9.90256 14.3165 9.90249 14.707 10.293C15.0974 10.6835 15.0974 11.3165 14.707 11.707L9.20704 17.207C8.84096 17.5731 8.26192 17.5956 7.86914 17.2754L7.79297 17.207L5.29297 14.707L5.22461 14.6309C4.90426 14.2381 4.92686 13.6591 5.29297 13.293C5.65909 12.927 6.23813 12.9043 6.63086 13.2246L6.70704 13.293L8.5 15.0859L13.293 10.293Z"
        fill="#303233" />
    <path fill-rule="evenodd" clip-rule="evenodd"
        d="M18.7998 1C19.3434 1 19.8116 0.998931 20.1953 1.03028C20.5906 1.06259 20.984 1.1344 21.3623 1.32715C21.9265 1.61473 22.3853 2.07348 22.6729 2.6377C22.8656 3.01599 22.9374 3.40944 22.9697 3.80469C23.0011 4.18836 23 4.65665 23 5.2002V14.7998C23 15.3434 23.0011 15.8116 22.9697 16.1953C22.9374 16.5906 22.8656 16.984 22.6729 17.3623C22.3853 17.9265 21.9265 18.3853 21.3623 18.6729L21.2197 18.7402C20.8856 18.8835 20.5412 18.9415 20.1953 18.9697C19.8593 18.9972 19.4585 18.9988 18.999 18.999C18.9988 19.4585 18.9972 19.8593 18.9697 20.1953C18.9374 20.5906 18.8656 20.984 18.6729 21.3623C18.3853 21.9265 17.9265 22.3853 17.3623 22.6729L17.2197 22.7402C16.8856 22.8835 16.5412 22.9415 16.1953 22.9697C15.8116 23.0011 15.3434 23 14.7998 23H5.2002C4.65665 23 4.18836 23.0011 3.80469 22.9697C3.40943 22.9374 3.016 22.8656 2.6377 22.6729L2.43165 22.5576C1.96167 22.2694 1.57888 21.8562 1.32715 21.3623L1.25977 21.2197C1.11653 20.8856 1.05855 20.5412 1.03028 20.1953C0.998931 19.8116 1 19.3434 1 18.7998V9.2002C1 8.65665 0.998931 8.18836 1.03028 7.80469C1.05855 7.45882 1.11653 7.11438 1.25977 6.78028L1.32715 6.6377C1.61473 6.07348 2.07348 5.61473 2.6377 5.32715C3.016 5.1344 3.40944 5.06259 3.80469 5.03028C4.14043 5.00285 4.54095 5.00023 5 5C5.00023 4.54095 5.00285 4.14042 5.03028 3.80469C5.05855 3.45882 5.11652 3.11438 5.25977 2.78028L5.32715 2.6377C5.61473 2.07348 6.07348 1.61473 6.6377 1.32715C7.016 1.1344 7.40943 1.06259 7.80469 1.03028C8.18836 0.998931 8.65665 1 9.2002 1H18.7998ZM5.2002 7C4.62365 7 4.25112 7.00127 3.96778 7.02442C3.6962 7.04661 3.59534 7.08419 3.5459 7.10938C3.35794 7.20522 3.20522 7.35794 3.10938 7.5459L3.0879 7.59473C3.06565 7.65668 3.04104 7.76435 3.02442 7.96778C3.00127 8.25111 3 8.62365 3 9.2002V18.7998C3 19.3764 3.00127 19.7489 3.02442 20.0322C3.04104 20.2357 3.06565 20.3433 3.0879 20.4053L3.10938 20.4541C3.1813 20.5952 3.28523 20.7163 3.41211 20.8086L3.5459 20.8906C3.59534 20.9158 3.69619 20.9534 3.96778 20.9756C4.25112 20.9987 4.62365 21 5.2002 21H14.7998C15.3764 21 15.7489 20.9987 16.0322 20.9756C16.2357 20.959 16.3433 20.9344 16.4053 20.9121L16.4541 20.8906C16.6421 20.7948 16.7948 20.6421 16.8906 20.4541C16.9158 20.4047 16.9534 20.3038 16.9756 20.0322C16.9987 19.7489 17 19.3764 17 18.7998V9.2002C17 8.62365 16.9987 8.25111 16.9756 7.96778C16.9534 7.6962 16.9158 7.59534 16.8906 7.5459C16.7948 7.35794 16.6421 7.20522 16.4541 7.10938C16.4047 7.08419 16.3038 7.04661 16.0322 7.02442C15.7489 7.00127 15.3764 7 14.7998 7H5.2002ZM9.2002 3C8.62365 3 8.25111 3.00127 7.96778 3.02442C7.6962 3.04661 7.59534 3.08419 7.5459 3.10938C7.35793 3.20522 7.20522 3.35794 7.10938 3.5459L7.08789 3.59473C7.06565 3.65668 7.04104 3.76435 7.02442 3.96778C7.00407 4.21689 7.00151 4.53496 7.00098 5H14.7998C15.3434 5 15.8116 4.99893 16.1953 5.03028C16.5906 5.06259 16.984 5.1344 17.3623 5.32715C17.9265 5.61473 18.3853 6.07348 18.6729 6.6377C18.8656 7.01599 18.9374 7.40944 18.9697 7.80469C19.0011 8.18836 19 8.65665 19 9.2002V16.9981C19.4651 16.9975 19.7831 16.9959 20.0322 16.9756C20.2357 16.959 20.3433 16.9344 20.4053 16.9121L20.4541 16.8906C20.6421 16.7948 20.7948 16.6421 20.8906 16.4541C20.9158 16.4047 20.9534 16.3038 20.9756 16.0322C20.9987 15.7489 21 15.3764 21 14.7998V5.2002C21 4.62365 20.9987 4.25111 20.9756 3.96778C20.9534 3.6962 20.9158 3.59534 20.8906 3.5459C20.7948 3.35794 20.6421 3.20522 20.4541 3.10938C20.4047 3.08419 20.3038 3.04661 20.0322 3.02442C19.7489 3.00127 19.3764 3 18.7998 3H9.2002Z"
        fill="#303233" />
</svg>
