<svg width="16" height="16" viewBox="0 0 16 16" fill="none" xmlns="http://www.w3.org/2000/svg">
    <path fill-rule="evenodd" clip-rule="evenodd"
        d="M2.5 3C1.67157 3 1 3.67157 1 4.5V6.5H5.5C6.60457 6.5 7.5 7.39543 7.5 8.5V13H9.5C10.3284 13 11 12.3284 11 11.5V10.309L14.2764 11.9472C14.4314 12.0247 14.6155 12.0164 14.7629 11.9253C14.9103 11.8342 15 11.6733 15 11.5V4.5C15 4.32671 14.9103 4.16578 14.7629 4.07468C14.6155 3.98357 14.4314 3.97529 14.2764 4.05279L11 5.69098V4.5C11 3.67157 10.3284 3 9.5 3H2.5ZM6.35567 7.64857C6.40256 7.69602 6.43802 7.75051 6.46206 7.80861C6.48697 7.8688 6.49961 7.93287 6.49999 7.997L6.5 8.00035V12.5C6.5 12.7761 6.27614 13 6 13C5.72386 13 5.5 12.7761 5.5 12.5V9.20711L1.85355 12.8536C1.65829 13.0488 1.34171 13.0488 1.14645 12.8536C0.951184 12.6583 0.951184 12.3417 1.14645 12.1464L4.79289 8.5H1.5C1.22386 8.5 1 8.27614 1 8C1 7.72386 1.22386 7.5 1.5 7.5H5.99991H6C6.13699 7.5 6.26112 7.55509 6.35143 7.64433L6.35567 7.64857Z"
        fill="#303233" />
</svg>
