<svg width="16" height="16" viewBox="0 0 16 16" fill="none" xmlns="http://www.w3.org/2000/svg">
    <path
        d="M9.00122 1.99997C9.00122 1.81588 9.15046 1.66664 9.33455 1.66664C9.51865 1.66664 9.66889 1.81588 9.66889 1.99997C9.66889 2.18407 9.51965 2.33331 9.33555 2.33331C9.15146 2.33331 9.00122 2.18407 9.00122 1.99997Z"
        fill="#303233" />
    <path
        d="M3.33325 3.99999C3.33325 3.63181 3.63173 3.33333 3.99992 3.33333C4.36811 3.33333 4.66759 3.63181 4.66759 3.99999C4.66759 4.36818 4.36911 4.66666 4.00092 4.66666C3.63273 4.66666 3.33325 4.36818 3.33325 3.99999Z"
        fill="#303233" />
    <path
        d="M6.66724 5.66664C6.11495 5.66664 5.66724 6.11436 5.66724 6.66664C5.66724 7.21893 6.11495 7.66664 6.66724 7.66664C7.21952 7.66664 7.66824 7.21893 7.66824 6.66664C7.66824 6.11436 7.21952 5.66664 6.66724 5.66664Z"
        fill="#303233" />
    <path
        d="M9.33521 5.66664C8.78292 5.66664 8.33521 6.11436 8.33521 6.66664C8.33521 7.21893 8.78292 7.66664 9.33521 7.66664C9.88749 7.66664 10.3362 7.21893 10.3362 6.66664C10.3362 6.11436 9.88749 5.66664 9.33521 5.66664Z"
        fill="#303233" />
    <path
        d="M5.66724 9.33333C5.66724 8.78104 6.11495 8.33333 6.66724 8.33333C7.21952 8.33333 7.66824 8.78104 7.66824 9.33333C7.66824 9.88561 7.22052 10.3333 6.66824 10.3333C6.11595 10.3333 5.66724 9.88561 5.66724 9.33333Z"
        fill="#303233" />
    <path
        d="M3.99992 6.00002C3.63173 6.00002 3.33325 6.29849 3.33325 6.66668C3.33325 7.03487 3.63173 7.33335 3.99992 7.33335C4.36811 7.33335 4.66759 7.03487 4.66759 6.66668C4.66759 6.29849 4.36811 6.00002 3.99992 6.00002Z"
        fill="#303233" />
    <path
        d="M3.33325 9.33337C3.33325 8.96518 3.63173 8.6667 3.99992 8.6667C4.36811 8.6667 4.66759 8.96518 4.66759 9.33337C4.66759 9.70156 4.36911 10 4.00092 10C3.63273 10 3.33325 9.70156 3.33325 9.33337Z"
        fill="#303233" />
    <path
        d="M11.9999 6.00002C11.6317 6.00002 11.3333 6.29849 11.3333 6.66668C11.3333 7.03487 11.6317 7.33335 11.9999 7.33335C12.3681 7.33335 12.6676 7.03487 12.6676 6.66668C12.6676 6.29849 12.3681 6.00002 11.9999 6.00002Z"
        fill="#303233" />
    <path
        d="M11.9999 3.33333C11.6317 3.33333 11.3333 3.63181 11.3333 3.99999C11.3333 4.36818 11.6317 4.66666 11.9999 4.66666C12.3681 4.66666 12.6676 4.36818 12.6676 3.99999C12.6676 3.63181 12.3681 3.33333 11.9999 3.33333Z"
        fill="#303233" />
    <path
        d="M11.3333 9.33337C11.3333 8.96518 11.6317 8.6667 11.9999 8.6667C12.3681 8.6667 12.6676 8.96518 12.6676 9.33337C12.6676 9.70156 12.3691 10 12.0009 10C11.6327 10 11.3333 9.70156 11.3333 9.33337Z"
        fill="#303233" />
    <path
        d="M3.99992 11.3333C3.63173 11.3333 3.33325 11.6318 3.33325 12C3.33325 12.3682 3.63173 12.6667 3.99992 12.6667C4.36811 12.6667 4.66759 12.3682 4.66759 12C4.66759 11.6318 4.36811 11.3333 3.99992 11.3333Z"
        fill="#303233" />
    <path
        d="M8.66724 12C8.66724 11.6318 8.96571 11.3333 9.3339 11.3333C9.70209 11.3333 10.0016 11.6318 10.0016 12C10.0016 12.3682 9.70309 12.6667 9.3349 12.6667C8.96671 12.6667 8.66724 12.3682 8.66724 12Z"
        fill="#303233" />
    <path
        d="M6.66593 11.3333C6.29774 11.3333 5.99927 11.6318 5.99927 12C5.99927 12.3682 6.29774 12.6667 6.66593 12.6667C7.03412 12.6667 7.3336 12.3682 7.3336 12C7.3336 11.6318 7.03412 11.3333 6.66593 11.3333Z"
        fill="#303233" />
    <path
        d="M8.66724 3.99999C8.66724 3.63181 8.96571 3.33333 9.3339 3.33333C9.70209 3.33333 10.0016 3.63181 10.0016 3.99999C10.0016 4.36818 9.70309 4.66666 9.3349 4.66666C8.96671 4.66666 8.66724 4.36818 8.66724 3.99999Z"
        fill="#303233" />
    <path
        d="M6.66593 3.33333C6.29774 3.33333 5.99927 3.63181 5.99927 3.99999C5.99927 4.36818 6.29774 4.66666 6.66593 4.66666C7.03412 4.66666 7.3336 4.36818 7.3336 3.99999C7.3336 3.63181 7.03412 3.33333 6.66593 3.33333Z"
        fill="#303233" />
    <path
        d="M6.66659 1.66664C6.48249 1.66664 6.33325 1.81588 6.33325 1.99997C6.33325 2.18407 6.48249 2.33331 6.66659 2.33331C6.85068 2.33331 7.00092 2.18407 7.00092 1.99997C7.00092 1.81588 6.85068 1.66664 6.66659 1.66664Z"
        fill="#303233" />
    <path
        d="M1.66724 6.66666C1.66724 6.48257 1.81647 6.33333 2.00057 6.33333C2.18466 6.33333 2.3349 6.48257 2.3349 6.66666C2.3349 6.85076 2.18566 6.99999 2.00157 6.99999C1.81747 6.99999 1.66724 6.85076 1.66724 6.66666Z"
        fill="#303233" />
    <path
        d="M2.00057 9.00002C1.81647 9.00002 1.66724 9.14925 1.66724 9.33335C1.66724 9.51744 1.81647 9.66668 2.00057 9.66668C2.18466 9.66668 2.3349 9.51744 2.3349 9.33335C2.3349 9.14925 2.18466 9.00002 2.00057 9.00002Z"
        fill="#303233" />
    <path
        d="M13.6672 6.66666C13.6672 6.48257 13.8165 6.33333 14.0006 6.33333H14.0016C14.1857 6.33333 14.3349 6.48257 14.3349 6.66666C14.3349 6.85076 14.1857 6.99999 14.0016 6.99999H14.0006C13.8165 6.99999 13.6672 6.85076 13.6672 6.66666Z"
        fill="#303233" />
    <path
        d="M14.0006 9.00002C13.8165 9.00002 13.6672 9.14925 13.6672 9.33335C13.6672 9.51744 13.8165 9.66668 14.0006 9.66668H14.0016C14.1857 9.66668 14.3349 9.51744 14.3349 9.33335C14.3349 9.14925 14.1857 9.00002 14.0016 9.00002H14.0006Z"
        fill="#303233" />
    <path
        d="M9.00122 14C9.00122 13.8159 9.15046 13.6666 9.33455 13.6666C9.51865 13.6666 9.66889 13.8159 9.66889 14C9.66889 14.1841 9.51965 14.3333 9.33555 14.3333C9.15146 14.3333 9.00122 14.1841 9.00122 14Z"
        fill="#303233" />
    <path
        d="M6.66659 13.6666C6.48249 13.6666 6.33325 13.8159 6.33325 14C6.33325 14.1841 6.48249 14.3333 6.66659 14.3333C6.85068 14.3333 7.00092 14.1841 7.00092 14C7.00092 13.8159 6.85068 13.6666 6.66659 13.6666Z"
        fill="#303233" />
    <path
        d="M11.3333 12C11.3333 11.6318 11.6317 11.3333 11.9999 11.3333C12.3681 11.3333 12.6676 11.6318 12.6676 12C12.6676 12.3682 12.3691 12.6667 12.0009 12.6667C11.6327 12.6667 11.3333 12.3682 11.3333 12Z"
        fill="#303233" />
    <path
        d="M9.33521 8.33333C8.78292 8.33333 8.33521 8.78104 8.33521 9.33333C8.33521 9.88561 8.78292 10.3333 9.33521 10.3333C9.88749 10.3333 10.3362 9.88561 10.3362 9.33333C10.3362 8.78104 9.88749 8.33333 9.33521 8.33333Z"
        fill="#303233" />
</svg>
