<svg width="16" height="16" viewBox="0 0 16 16" fill="none" xmlns="http://www.w3.org/2000/svg">
    <g clip-path="url(#clip0_8400_9)">
        <path fill-rule="evenodd" clip-rule="evenodd"
            d="M8 2.25C4.82436 2.25 2.25 4.82436 2.25 8C2.25 11.1756 4.82436 13.75 8 13.75C11.1756 13.75 13.75 11.1756 13.75 8C13.75 4.82436 11.1756 2.25 8 2.25ZM0.75 8C0.75 3.99594 3.99594 0.75 8 0.75C12.0041 0.75 15.25 3.99594 15.25 8C15.25 12.0041 12.0041 15.25 8 15.25C3.99594 15.25 0.75 12.0041 0.75 8ZM5.3 6.7C5.3 5.20883 6.50883 4 8 4C9.49117 4 10.7 5.20883 10.7 6.7C10.7 7.46415 10.3816 8.15504 9.87235 8.64533L10.4334 10.3284C10.4355 10.3347 10.4376 10.341 10.4397 10.3474C10.4725 10.4457 10.5112 10.5615 10.5355 10.6645C10.5623 10.778 10.5965 10.9688 10.5417 11.1868C10.4749 11.4531 10.3086 11.6837 10.0772 11.8313C9.88764 11.9522 9.69588 11.9802 9.57973 11.9906C9.47425 12.0001 9.35223 12 9.24861 12C9.24184 12 9.23514 12 9.22854 12H6.77146C6.76485 12 6.75816 12 6.75139 12C6.64777 12 6.52575 12.0001 6.42027 11.9906C6.30412 11.9802 6.11236 11.9522 5.92283 11.8313C5.69136 11.6837 5.52515 11.4531 5.45828 11.1868C5.40353 10.9688 5.43766 10.778 5.46448 10.6645C5.48884 10.5615 5.52747 10.4457 5.56028 10.3474C5.56242 10.341 5.56454 10.3347 5.56663 10.3284L6.12765 8.64533C5.61837 8.15504 5.3 7.46415 5.3 6.7ZM8 5.5C7.33726 5.5 6.8 6.03726 6.8 6.7C6.8 7.04701 6.94633 7.3587 7.18284 7.57879L7.19207 7.58737C7.25322 7.64427 7.31583 7.70251 7.36551 7.75299C7.40863 7.79679 7.50272 7.89338 7.57145 8.02591C7.59889 8.07883 7.63522 8.15622 7.66033 8.25466C7.68545 8.3531 7.69064 8.43843 7.69191 8.49805C7.69476 8.63253 7.66786 8.74487 7.64942 8.81237C7.63248 8.87437 7.60931 8.94385 7.58978 9.00237L7.09057 10.5H8.90943L8.41022 9.00238C8.3907 8.94385 8.36752 8.87438 8.35058 8.81237C8.33214 8.74487 8.30524 8.63253 8.30809 8.49805C8.30936 8.43843 8.31455 8.3531 8.33967 8.25466C8.36478 8.15622 8.4011 8.07883 8.42855 8.02591C8.49728 7.89338 8.59137 7.79679 8.63449 7.75299C8.68416 7.70252 8.74675 7.6443 8.80789 7.58742L8.81716 7.57879C9.05367 7.3587 9.2 7.04702 9.2 6.7C9.2 6.03726 8.66274 5.5 8 5.5Z"
            fill="#303233" />
    </g>
    <defs>
        <clipPath id="clip0_8400_9">
            <rect width="16" height="16" fill="white" />
        </clipPath>
    </defs>
</svg>
