<svg width="16" height="16" viewBox="0 0 16 16" fill="none" xmlns="http://www.w3.org/2000/svg">
    <path
        d="M6.67452 2.24999C7.19857 2.24999 7.34133 2.25458 7.46757 2.28412C7.59681 2.31437 7.71976 2.36411 7.83197 2.43114C7.94053 2.49598 8.04271 2.58895 8.41376 2.95062L13.4765 7.88534C13.7731 8.17446 14.248 8.16838 14.5371 7.87176C14.8262 7.57514 14.8201 7.10031 14.5235 6.81119L9.40967 1.82664C9.11365 1.53777 8.88041 1.31017 8.60116 1.14337C8.35549 0.996631 8.08826 0.888848 7.80935 0.823581C7.49302 0.749557 7.16566 0.749735 6.74613 0.749964L4 0.74999C3.58579 0.74999 3.25 1.08578 3.25 1.49999C3.25 1.9142 3.58579 2.24999 4 2.24999H6.67452Z"
        fill="#303233" />
    <path
        d="M6.40955 3.33002C6.09513 3.25454 5.76979 3.25473 5.3579 3.25497L4.06867 3.255C3.72489 3.25498 3.4231 3.25497 3.17348 3.27537C2.90841 3.29702 2.63721 3.34534 2.37414 3.47939C1.98676 3.67676 1.67182 3.99171 1.47444 4.37908C1.3404 4.64216 1.29208 4.91335 1.27042 5.17842C1.25003 5.42804 1.25004 5.72983 1.25005 6.07362L1.25003 7.36284C1.24978 7.77473 1.24959 8.10007 1.32508 8.41449C1.39159 8.69155 1.5013 8.95641 1.65018 9.19935C1.81913 9.47506 2.04932 9.70498 2.34074 9.99606L6.27176 13.927C6.56624 14.2215 6.81852 14.4738 7.04291 14.6643C7.27916 14.8649 7.53308 15.0403 7.84387 15.1413C8.31009 15.2928 8.81231 15.2928 9.27853 15.1413C9.58932 15.0403 9.84324 14.8649 10.0795 14.6643C10.3039 14.4738 10.5561 14.2216 10.8506 13.9271L11.9221 12.8556C12.2166 12.5611 12.4689 12.3088 12.6594 12.0844C12.8599 11.8482 13.0354 11.5943 13.1364 11.2835C13.2879 10.8173 13.2879 10.315 13.1364 9.84881C13.0354 9.53802 12.8599 9.2841 12.6594 9.04786C12.4689 8.82347 12.2166 8.57121 11.9221 8.27675L7.99111 4.34568C7.70003 4.05426 7.47012 3.82407 7.19441 3.65512C6.95147 3.50625 6.68661 3.39654 6.40955 3.33002Z"
        fill="#303233" />
</svg>
