<svg width="16" height="16" viewBox="0 0 16 16" fill="none" xmlns="http://www.w3.org/2000/svg">
    <g clip-path="url(#clip0_53_4061)">
        <path fill-rule="evenodd" clip-rule="evenodd"
            d="M0.75 3.25C0.75 1.86929 1.86929 0.75 3.25 0.75H12.75C14.1307 0.75 15.25 1.86929 15.25 3.25V4.75C15.25 6.13071 14.1307 7.25 12.75 7.25H3.25C1.86929 7.25 0.75 6.13071 0.75 4.75V3.25ZM11.25 4C11.25 3.58579 11.5858 3.25 12 3.25H12.0067C12.4209 3.25 12.7567 3.58579 12.7567 4C12.7567 4.41421 12.4209 4.75 12.0067 4.75H12C11.5858 4.75 11.25 4.41421 11.25 4Z"
            fill="#303233" />
        <path fill-rule="evenodd" clip-rule="evenodd"
            d="M0.75 11.25C0.75 9.86929 1.86929 8.75 3.25 8.75H12.75C14.1307 8.75 15.25 9.86929 15.25 11.25V12.75C15.25 14.1307 14.1307 15.25 12.75 15.25H3.25C1.86929 15.25 0.75 14.1307 0.75 12.75V11.25ZM11.25 12C11.25 11.5858 11.5858 11.25 12 11.25H12.0067C12.4209 11.25 12.7567 11.5858 12.7567 12C12.7567 12.4142 12.4209 12.75 12.0067 12.75H12C11.5858 12.75 11.25 12.4142 11.25 12Z"
            fill="#303233" />
    </g>
    <defs>
        <clipPath id="clip0_53_4061">
            <rect width="16" height="16" fill="white" />
        </clipPath>
    </defs>
</svg>
