<svg width="16" height="16" viewBox="0 0 16 16" fill="none" xmlns="http://www.w3.org/2000/svg">
    <path fill-rule="evenodd" clip-rule="evenodd"
        d="M8 0.25C7.27065 0.25 6.57118 0.539731 6.05546 1.05546C5.53973 1.57118 5.25 2.27065 5.25 3V8C5.25 8.72934 5.53973 9.42882 6.05546 9.94454C6.57118 10.4603 7.27065 10.75 8 10.75C8.72935 10.75 9.42882 10.4603 9.94454 9.94454C10.4603 9.42882 10.75 8.72934 10.75 8V3C10.75 2.27066 10.4603 1.57118 9.94454 1.05546C9.42882 0.539731 8.72935 0.25 8 0.25ZM7.11612 2.11612C7.35054 1.8817 7.66848 1.75 8 1.75C8.33152 1.75 8.64946 1.8817 8.88388 2.11612C9.1183 2.35054 9.25 2.66848 9.25 3V8C9.25 8.33152 9.1183 8.64946 8.88388 8.88388C8.64946 9.1183 8.33152 9.25 8 9.25C7.66848 9.25 7.35054 9.1183 7.11612 8.88388C6.8817 8.64946 6.75 8.33152 6.75 8V3C6.75 2.66848 6.8817 2.35054 7.11612 2.11612Z"
        fill="#303233" />
    <path
        d="M4.25 6.5C4.25 6.08579 3.91421 5.75 3.5 5.75C3.08579 5.75 2.75 6.08579 2.75 6.5V7.95238C2.75 9.34476 3.30312 10.6801 4.28769 11.6647C5.09374 12.4707 6.13491 12.9876 7.25 13.1486V14.25H5.5C5.08579 14.25 4.75 14.5858 4.75 15C4.75 15.4142 5.08579 15.75 5.5 15.75H10.5C10.9142 15.75 11.25 15.4142 11.25 15C11.25 14.5858 10.9142 14.25 10.5 14.25H8.75V13.1486C9.86509 12.9876 10.9063 12.4707 11.7123 11.6647C12.6969 10.6801 13.25 9.34477 13.25 7.95238V6.5C13.25 6.08579 12.9142 5.75 12.5 5.75C12.0858 5.75 11.75 6.08579 11.75 6.5V7.95238C11.75 8.94694 11.3549 9.90077 10.6516 10.604C9.94839 11.3073 8.99456 11.7024 8 11.7024C7.00544 11.7024 6.05161 11.3073 5.34835 10.604C4.64509 9.90077 4.25 8.94694 4.25 7.95238V6.5Z"
        fill="#303233" />
</svg>
