<svg width="24" height="24" viewBox="0 0 24 24" fill="none" xmlns="http://www.w3.org/2000/svg">
    <path fill-rule="evenodd" clip-rule="evenodd"
        d="M12 1C5.92487 1 1 5.92487 1 12C1 18.0751 5.92487 23 12 23C18.0751 23 23 18.0751 23 12C23 11.9592 22.9998 11.9184 22.9993 11.8777C22.996 11.5756 22.8563 11.2911 22.6192 11.1038C22.382 10.9166 22.0729 10.8466 21.7782 10.9134C21.5289 10.9699 21.2686 11 21 11C19.067 11 17.5 9.433 17.5 7.5C17.5 6.94772 17.0523 6.5 16.5 6.5C14.567 6.5 13 4.933 13 3C13 2.73143 13.0301 2.47111 13.0866 2.22176C13.1534 1.92707 13.0834 1.61798 12.8962 1.38084C12.7089 1.14371 12.4244 1.00396 12.1223 1.00067C12.0816 1.00022 12.0408 1 12 1ZM9 9.5C9 10.3284 8.32843 11 7.5 11C6.67157 11 6 10.3284 6 9.5C6 8.67157 6.67157 8 7.5 8C8.32843 8 9 8.67157 9 9.5ZM10 15.5C10 16.3284 9.32843 17 8.5 17C7.67157 17 7 16.3284 7 15.5C7 14.6716 7.67157 14 8.5 14C9.32843 14 10 14.6716 10 15.5ZM14.5 18C15.3284 18 16 17.3284 16 16.5C16 15.6716 15.3284 15 14.5 15C13.6716 15 13 15.6716 13 16.5C13 17.3284 13.6716 18 14.5 18ZM14 11.5C14 12.3284 13.3284 13 12.5 13C11.6716 13 11 12.3284 11 11.5C11 10.6716 11.6716 10 12.5 10C13.3284 10 14 10.6716 14 11.5Z"
        fill="#303233" />
</svg>
