<svg width="16" height="16" viewBox="0 0 16 16" fill="none" xmlns="http://www.w3.org/2000/svg">
    <path fill-rule="evenodd" clip-rule="evenodd"
        d="M1 1.5C1 1.22386 1.22386 1 1.5 1H14.5C14.7761 1 15 1.22386 15 1.5V11.5C15 13.433 13.433 15 11.5 15H4.5C2.567 15 1 13.433 1 11.5V1.5ZM2 2V11.5C2 12.8807 3.11929 14 4.5 14H11.5C12.8807 14 14 12.8807 14 11.5V2H2Z"
        fill="#303233" />
    <path fill-rule="evenodd" clip-rule="evenodd"
        d="M5.375 4C4.61561 4 4 4.61561 4 5.375C4 6.13439 4.61561 6.75 5.375 6.75C6.13439 6.75 6.75 6.13439 6.75 5.375C6.75 4.61561 6.13439 4 5.375 4ZM3 5.375C3 4.06332 4.06332 3 5.375 3C6.68668 3 7.75 4.06332 7.75 5.375C7.75 6.68668 6.68668 7.75 5.375 7.75C4.06332 7.75 3 6.68668 3 5.375Z"
        fill="#303233" />
    <path fill-rule="evenodd" clip-rule="evenodd"
        d="M9 6.5C9 6.22386 9.22386 6 9.5 6H12.5C12.7761 6 13 6.22386 13 6.5V9.5C13 9.77614 12.7761 10 12.5 10H9.5C9.22386 10 9 9.77614 9 9.5V6.5ZM10 7V9H12V7H10Z"
        fill="#303233" />
    <path fill-rule="evenodd" clip-rule="evenodd"
        d="M6.75 9C6.90738 9 7.05558 9.0741 7.15 9.2L9.4 12.2C9.51364 12.3515 9.53191 12.5542 9.44722 12.7236C9.36252 12.893 9.18939 13 9 13H4.5C4.31062 13 4.13749 12.893 4.05279 12.7236C3.96809 12.5542 3.98637 12.3515 4.1 12.2L6.35 9.2C6.44443 9.0741 6.59262 9 6.75 9ZM5.5 12H8L6.75 10.3333L5.5 12Z"
        fill="#303233" />
</svg>
