<svg width="16" height="16" viewBox="0 0 16 16" fill="none" xmlns="http://www.w3.org/2000/svg">
    <path
        d="M9.19708 4.13636C8.90418 3.84346 8.42931 3.84346 8.13642 4.13636C7.84352 4.42925 7.84352 4.90412 8.13642 5.19702L10.9394 8.00002L8.13642 10.803C7.84352 11.0959 7.84352 11.5708 8.13642 11.8637C8.42931 12.1566 8.90418 12.1566 9.19708 11.8637L12.5304 8.53035C12.8233 8.23746 12.8233 7.76258 12.5304 7.46969L9.19708 4.13636Z"
        fill="#303233" />
    <path
        d="M4.53033 4.13636C4.23744 3.84346 3.76256 3.84346 3.46967 4.13636C3.17678 4.42925 3.17678 4.90412 3.46967 5.19702L6.27267 8.00002L3.46967 10.803C3.17678 11.0959 3.17678 11.5708 3.46967 11.8637C3.76256 12.1566 4.23744 12.1566 4.53033 11.8637L7.86366 8.53035C8.00432 8.3897 8.08333 8.19893 8.08333 8.00002C8.08333 7.80111 8.00432 7.61034 7.86366 7.46969L4.53033 4.13636Z"
        fill="#303233" />
</svg>
