<svg width="24" height="24" viewBox="0 0 24 24" fill="none" xmlns="http://www.w3.org/2000/svg">
    <path fill-rule="evenodd" clip-rule="evenodd"
        d="M4 3.25C3.58579 3.25 3.25 3.58579 3.25 4C3.25 4.41421 3.58579 4.75 4 4.75H20C20.4142 4.75 20.75 4.41421 20.75 4C20.75 3.58579 20.4142 3.25 20 3.25H4ZM6 7.25C4.48122 7.25 3.25 8.48122 3.25 10V11C3.25 12.5188 4.48122 13.75 6 13.75H18C19.5188 13.75 20.75 12.5188 20.75 11V10C20.75 8.48122 19.5188 7.25 18 7.25H6ZM4.75 10C4.75 9.30964 5.30964 8.75 6 8.75H18C18.6904 8.75 19.25 9.30964 19.25 10V11C19.25 11.6904 18.6904 12.25 18 12.25H6C5.30964 12.25 4.75 11.6904 4.75 11V10ZM4 20.25C3.58579 20.25 3.25 20.5858 3.25 21C3.25 21.4142 3.58579 21.75 4 21.75H20C20.4142 21.75 20.75 21.4142 20.75 21C20.75 20.5858 20.4142 20.25 20 20.25H4ZM3.25 17C3.25 16.5858 3.58579 16.25 4 16.25H20C20.4142 16.25 20.75 16.5858 20.75 17C20.75 17.4142 20.4142 17.75 20 17.75H4C3.58579 17.75 3.25 17.4142 3.25 17Z"
        fill="#303233" />
</svg>
