<svg width="16" height="16" viewBox="0 0 16 16" fill="none" xmlns="http://www.w3.org/2000/svg">
    <path fill-rule="evenodd" clip-rule="evenodd"
        d="M4.16699 4C4.16699 3.72386 4.39085 3.5 4.66699 3.5H14.0003C14.2765 3.5 14.5003 3.72386 14.5003 4C14.5003 4.27614 14.2765 4.5 14.0003 4.5H4.66699C4.39085 4.5 4.16699 4.27614 4.16699 4Z"
        fill="#303233" />
    <path fill-rule="evenodd" clip-rule="evenodd"
        d="M4.16699 8C4.16699 7.72386 4.39085 7.5 4.66699 7.5H14.0003C14.2765 7.5 14.5003 7.72386 14.5003 8C14.5003 8.27614 14.2765 8.5 14.0003 8.5H4.66699C4.39085 8.5 4.16699 8.27614 4.16699 8Z"
        fill="#303233" />
    <path fill-rule="evenodd" clip-rule="evenodd"
        d="M4.16699 12C4.16699 11.7239 4.39085 11.5 4.66699 11.5H14.0003C14.2765 11.5 14.5003 11.7239 14.5003 12C14.5003 12.2761 14.2765 12.5 14.0003 12.5H4.66699C4.39085 12.5 4.16699 12.2761 4.16699 12Z"
        fill="#303233" />
    <path fill-rule="evenodd" clip-rule="evenodd"
        d="M1.5 4C1.5 3.72386 1.72386 3.5 2 3.5H2.00667C2.28281 3.5 2.50667 3.72386 2.50667 4C2.50667 4.27614 2.28281 4.5 2.00667 4.5H2C1.72386 4.5 1.5 4.27614 1.5 4Z"
        fill="#303233" />
    <path fill-rule="evenodd" clip-rule="evenodd"
        d="M1.5 8C1.5 7.72386 1.72386 7.5 2 7.5H2.00667C2.28281 7.5 2.50667 7.72386 2.50667 8C2.50667 8.27614 2.28281 8.5 2.00667 8.5H2C1.72386 8.5 1.5 8.27614 1.5 8Z"
        fill="#303233" />
    <path fill-rule="evenodd" clip-rule="evenodd"
        d="M1.5 12C1.5 11.7239 1.72386 11.5 2 11.5H2.00667C2.28281 11.5 2.50667 11.7239 2.50667 12C2.50667 12.2761 2.28281 12.5 2.00667 12.5H2C1.72386 12.5 1.5 12.2761 1.5 12Z"
        fill="#303233" />
</svg>
