<svg width="16" height="16" viewBox="0 0 16 16" fill="none" xmlns="http://www.w3.org/2000/svg">
    <g clip-path="url(#clip0_2172_1069)">
        <path fill-rule="evenodd" clip-rule="evenodd"
            d="M3.93414 3.37348C4.22703 3.66637 4.22703 4.14124 3.93414 4.43414C1.68862 6.67965 1.68862 10.3203 3.93414 12.5659C6.17965 14.8114 9.82035 14.8114 12.0659 12.5659C14.3114 10.3203 14.3114 6.67965 12.0659 4.43414C11.773 4.14124 11.773 3.66637 12.0659 3.37348C12.3588 3.08058 12.8336 3.08058 13.1265 3.37348C15.9578 6.20478 15.9578 10.7952 13.1265 13.6265C10.2952 16.4578 5.70478 16.4578 2.87348 13.6265C0.0421748 10.7952 0.0421748 6.20478 2.87348 3.37348C3.16637 3.08058 3.64124 3.08058 3.93414 3.37348Z"
            fill="#303233" />
        <path fill-rule="evenodd" clip-rule="evenodd"
            d="M8 0.75C8.41421 0.75 8.75 1.08579 8.75 1.5V8.5C8.75 8.91421 8.41421 9.25 8 9.25C7.58579 9.25 7.25 8.91421 7.25 8.5V1.5C7.25 1.08579 7.58579 0.75 8 0.75Z"
            fill="#303233" />
    </g>
    <defs>
        <clipPath id="clip0_2172_1069">
            <rect width="16" height="16" fill="white" />
        </clipPath>
    </defs>
</svg>
