<svg width="24" height="24" viewBox="0 0 24 24" fill="none" xmlns="http://www.w3.org/2000/svg">
    <path fill-rule="evenodd" clip-rule="evenodd"
        d="M11.4621 2.00131C11.8023 1.83906 12.1977 1.83906 12.538 2.00131C12.8223 2.13687 12.9853 2.3753 13.0782 2.52706C13.1735 2.68275 13.273 2.8844 13.3769 3.09498L15.5766 7.5513C15.5807 7.55964 15.5846 7.56746 15.5882 7.57484C15.5964 7.57604 15.605 7.5773 15.6142 7.57864L20.5346 8.29783C20.7668 8.33175 20.9893 8.36423 21.1667 8.4069C21.3397 8.4485 21.6167 8.53 21.8332 8.75861C22.0925 9.03224 22.2144 9.40826 22.1651 9.78195C22.1238 10.0942 21.9474 10.3227 21.8317 10.4579C21.7131 10.5965 21.552 10.7533 21.3839 10.9171L17.8248 14.3837C17.8181 14.3902 17.8118 14.3963 17.8059 14.402C17.8073 14.4101 17.8088 14.4188 17.8104 14.4279L18.6501 19.3243C18.6899 19.5558 18.7279 19.7775 18.7423 19.9595C18.7564 20.1369 18.7647 20.4256 18.6144 20.7025C18.4344 21.0338 18.1145 21.2662 17.7438 21.3349C17.434 21.3923 17.162 21.2951 16.9976 21.2269C16.829 21.1569 16.6299 21.0522 16.422 20.9429L12.0233 18.6296C12.0151 18.6253 12.0073 18.6212 12 18.6174C11.9927 18.6212 11.985 18.6253 11.9767 18.6296L7.57802 20.9429C7.37013 21.0522 7.17107 21.1569 7.00242 21.2269C6.83805 21.2951 6.56603 21.3923 6.25627 21.3349C5.88555 21.2662 5.56565 21.0338 5.38569 20.7025C5.23532 20.4256 5.24366 20.1369 5.25771 19.9595C5.27212 19.7775 5.31017 19.5558 5.3499 19.3243L6.18969 14.4279C6.19126 14.4188 6.19274 14.4101 6.19413 14.402C6.18822 14.3963 6.18196 14.3902 6.17529 14.3837L2.61621 10.9171C2.44804 10.7534 2.28698 10.5965 2.16834 10.4579C2.05267 10.3227 1.87622 10.0942 1.83499 9.78195C1.78564 9.40826 1.90756 9.03224 2.1668 8.75861C2.38338 8.53 2.66036 8.4485 2.83334 8.4069C3.01078 8.36423 3.23321 8.33175 3.46548 8.29783C3.47516 8.29641 3.48486 8.295 3.49458 8.29358L8.38585 7.57864C8.39505 7.5773 8.40368 7.57604 8.41182 7.57484C8.41547 7.56746 8.41933 7.55964 8.42345 7.5513L10.6231 3.09498C10.727 2.8844 10.8265 2.68275 10.9219 2.52706C11.0148 2.3753 11.1777 2.13687 11.4621 2.00131Z"
        fill="#303233" />
</svg>
