<svg width="24" height="24" viewBox="0 0 24 24" fill="none" xmlns="http://www.w3.org/2000/svg">
    <path
        d="M16.6588 6.34511C15.2098 4.89514 13.2104 4 11 4C6.58172 4 3 7.58172 3 12C3 15.806 5.65879 18.9934 9.22129 19.8018C9.75988 19.924 10.0974 20.4597 9.97521 20.9983C9.853 21.5369 9.31731 21.8744 8.77871 21.7522C4.32525 20.7416 1 16.7603 1 12C1 6.47715 5.47715 2 11 2C13.7624 2 16.2648 3.12139 18.0735 4.93138C18.7132 5.57146 19.3981 6.36248 20 7.09444V4C20 3.44772 20.4477 3 21 3C21.5523 3 22 3.44772 22 4V10C22 10.5523 21.5523 11 21 11H15C14.4477 11 14 10.5523 14 10C14 9.44772 14.4477 9 15 9H18.9692C18.277 8.13128 17.4165 7.10335 16.6588 6.34511Z"
        fill="#303233" />
    <path
        d="M17.9678 15.3461H21.5136V14H16.5669V18.684H18.0334C18.121 18.4286 18.2669 18.2243 18.4712 18.0711C18.6755 17.9179 18.9308 17.8413 19.2373 17.8413C19.6677 17.8413 19.9924 17.9617 20.2113 18.2025C20.4374 18.4359 20.5505 18.7788 20.5505 19.2312C20.5505 19.6762 20.4411 20.0337 20.2222 20.3037C20.0033 20.5736 19.6787 20.7086 19.2482 20.7086C18.8907 20.7086 18.5952 20.6211 18.3617 20.446C18.1356 20.2709 17.9897 20.0374 17.924 19.7456H16.4356C16.5013 20.4168 16.7822 20.9603 17.2783 21.3762C17.7744 21.7921 18.4384 22 19.2701 22C20.1529 22 20.8314 21.7446 21.3057 21.2339C21.7872 20.7232 22.028 20.0483 22.028 19.2093C22.028 18.757 21.9441 18.3338 21.7762 17.9398C21.6084 17.5385 21.3385 17.2102 20.9664 16.9549C20.5943 16.6995 20.1164 16.5718 19.5327 16.5718C19.2117 16.5718 18.9089 16.6338 18.6244 16.7579C18.3399 16.8746 18.121 17.0278 17.9678 17.2175V15.3461Z"
        fill="#303233" />
    <path d="M12 14.0219V15.4337H13.0616V22H14.6375V14.0219H12Z" fill="#303233" />
</svg>
