<svg width="24" height="24" viewBox="0 0 24 24" fill="none" xmlns="http://www.w3.org/2000/svg">
    <path
        d="M13 12C13 11.4477 12.5523 11 12 11C11.4477 11 11 11.4477 11 12V14H9C8.44772 14 8 14.4477 8 15C8 15.5523 8.44772 16 9 16H11V18C11 18.5523 11.4477 19 12 19C12.5523 19 13 18.5523 13 18V16H15C15.5523 16 16 15.5523 16 15C16 14.4477 15.5523 14 15 14H13V12Z"
        fill="#303233" />
    <path fill-rule="evenodd" clip-rule="evenodd"
        d="M16 1C16.5523 1 17 1.44772 17 2V3H19C20.6569 3 22 4.34315 22 6V20C22 21.6569 20.6569 23 19 23H5C3.34315 23 2 21.6569 2 20V6C2 4.34315 3.34315 3 5 3H7V2C7 1.44772 7.44772 1 8 1C8.55228 1 9 1.44772 9 2V3H15V2C15 1.44772 15.4477 1 16 1ZM20 6V7H4V6C4 5.44772 4.44772 5 5 5H7C7 5.55228 7.44772 6 8 6C8.55228 6 9 5.55228 9 5H15C15 5.55228 15.4477 6 16 6C16.5523 6 17 5.55228 17 5H19C19.5523 5 20 5.44772 20 6ZM4 20V9H20V20C20 20.5523 19.5523 21 19 21H5C4.44772 21 4 20.5523 4 20Z"
        fill="#303233" />
</svg>
