<svg width="16" height="16" viewBox="0 0 16 16" fill="none" xmlns="http://www.w3.org/2000/svg">
    <path fill-rule="evenodd" clip-rule="evenodd"
        d="M8 1C4.13401 1 1 4.13401 1 8C1 11.866 4.13401 15 8 15C11.866 15 15 11.866 15 8C15 7.97401 14.9999 7.94806 14.9996 7.92212C14.9979 7.77104 14.928 7.62881 14.8095 7.53518C14.6909 7.44154 14.5363 7.40655 14.389 7.43997C14.2161 7.4792 14.0357 7.50002 13.8498 7.50002C12.5105 7.50002 11.4248 6.41431 11.4248 5.07502C11.4248 4.79889 11.201 4.57504 10.9248 4.57502C9.58562 4.57493 8.5 3.48926 8.5 2.15002C8.5 1.96421 8.52081 1.78387 8.56001 1.61097C8.59343 1.46363 8.55843 1.30908 8.46479 1.19051C8.37115 1.07194 8.22893 1.00207 8.07785 1.00042C8.05193 1.00014 8.02598 1 8 1ZM6 6.25C6 6.66421 5.66421 7 5.25 7C4.83579 7 4.5 6.66421 4.5 6.25C4.5 5.83579 4.83579 5.5 5.25 5.5C5.66421 5.5 6 5.83579 6 6.25ZM6.5 10.25C6.5 10.6642 6.16421 11 5.75 11C5.33579 11 5 10.6642 5 10.25C5 9.83579 5.33579 9.5 5.75 9.5C6.16421 9.5 6.5 9.83579 6.5 10.25ZM8.25 8.5C8.66421 8.5 9 8.16421 9 7.75C9 7.33579 8.66421 7 8.25 7C7.83579 7 7.5 7.33579 7.5 7.75C7.5 8.16421 7.83579 8.5 8.25 8.5ZM10.5 10.75C10.5 11.1642 10.1642 11.5 9.75 11.5C9.33579 11.5 9 11.1642 9 10.75C9 10.3358 9.33579 10 9.75 10C10.1642 10 10.5 10.3358 10.5 10.75Z"
        fill="#303233" />
</svg>
