<svg width="16" height="16" viewBox="0 0 16 16" fill="none" xmlns="http://www.w3.org/2000/svg">
    <path
        d="M5.5 7.75C5.08579 7.75 4.75 8.08579 4.75 8.5C4.75 8.91421 5.08579 9.25 5.5 9.25H10.5C10.9142 9.25 11.25 8.91421 11.25 8.5C11.25 8.08579 10.9142 7.75 10.5 7.75H5.5Z"
        fill="#303233" />
    <path fill-rule="evenodd" clip-rule="evenodd"
        d="M3 1.75C1.75735 1.75 0.749991 2.75737 0.75 4.00002L0.750056 12C0.750065 13.2427 1.75742 14.25 3.00006 14.25H13.0001C14.2427 14.25 15.2501 13.2426 15.2501 12V5C15.2501 3.75736 14.2427 2.75 13.0001 2.75H9.20712C8.82072 2.75 8.45015 2.59649 8.17694 2.32324C7.80997 1.9562 7.3122 1.75 6.79318 1.75H3ZM2.25015 5C2.25015 4.58579 2.58594 4.25 3.00015 4.25H13.0002C13.4144 4.25 13.7502 4.58579 13.7502 5V12C13.7502 12.4142 13.4144 12.75 13.0002 12.75H3.00015C2.58594 12.75 2.25015 12.4142 2.25015 12V5Z"
        fill="#303233" />
</svg>
