<svg width="24" height="24" viewBox="0 0 24 24" fill="none" xmlns="http://www.w3.org/2000/svg">
    <path
        d="M12 0.25C9.92893 0.25 8.25 1.92893 8.25 4V12C8.25 14.0711 9.92893 15.75 12 15.75C12.4142 15.75 12.75 15.4142 12.75 15C12.75 14.5858 12.4142 14.25 12 14.25C10.7574 14.25 9.75 13.2426 9.75 12V4C9.75 2.75736 10.7574 1.75 12 1.75C13.2426 1.75 14.25 2.75736 14.25 4V12C14.25 12.4142 14.5858 12.75 15 12.75C15.4142 12.75 15.75 12.4142 15.75 12V4C15.75 1.92893 14.0711 0.25 12 0.25Z"
        fill="#303233" />
    <path
        d="M5.75 10C5.75 9.58579 5.41421 9.25 5 9.25C4.58579 9.25 4.25 9.58579 4.25 10V12C4.25 15.9046 7.13677 19.1336 10.8927 19.6714C11.3027 19.7301 11.6827 19.4453 11.7414 19.0353C11.8001 18.6252 11.5153 18.2453 11.1053 18.1865C8.0776 17.753 5.75 15.1477 5.75 12V10Z"
        fill="#303233" />
    <path
        d="M19.75 10C19.75 9.58579 19.4142 9.25 19 9.25C18.5858 9.25 18.25 9.58579 18.25 10V11C18.25 11.4142 18.5858 11.75 19 11.75C19.4142 11.75 19.75 11.4142 19.75 11V10Z"
        fill="#303233" />
    <path fill-rule="evenodd" clip-rule="evenodd"
        d="M19 14.25C16.3766 14.25 14.25 16.3766 14.25 19C14.25 21.6234 16.3766 23.75 19 23.75C21.6234 23.75 23.75 21.6234 23.75 19C23.75 16.3766 21.6234 14.25 19 14.25ZM15.75 19C15.75 17.2051 17.2051 15.75 19 15.75C19.6255 15.75 20.2097 15.9267 20.7055 16.2329L16.2329 20.7055C15.9267 20.2097 15.75 19.6255 15.75 19ZM17.2934 21.7664L21.7664 17.2934C22.073 17.7894 22.25 18.374 22.25 19C22.25 20.7949 20.7949 22.25 19 22.25C18.374 22.25 17.7894 22.073 17.2934 21.7664Z"
        fill="#303233" />
    <path
        d="M8 22.25C7.58579 22.25 7.25 22.5858 7.25 23C7.25 23.4142 7.58579 23.75 8 23.75H12C12.4142 23.75 12.75 23.4142 12.75 23C12.75 22.5858 12.4142 22.25 12 22.25H8Z"
        fill="#303233" />
</svg>
