<svg width="16" height="16" viewBox="0 0 16 16" fill="none" xmlns="http://www.w3.org/2000/svg">
    <path
        d="M3 1.75C1.75735 1.75 0.749991 2.75737 0.75 4.00002L0.750056 12C0.750065 13.2427 1.75742 14.25 3.00006 14.25H13.0001C14.2427 14.25 15.2501 13.2426 15.2501 12V9.2073C15.1719 9.23495 15.0877 9.25 15 9.25H10.3107L11.0303 9.96967C11.3232 10.2626 11.3232 10.7374 11.0303 11.0303C10.7374 11.3232 10.2626 11.3232 9.96967 11.0303L7.96967 9.03033C7.67678 8.73744 7.67678 8.26256 7.96967 7.96967L9.96967 5.96967C10.2626 5.67678 10.7374 5.67678 11.0303 5.96967C11.3232 6.26256 11.3232 6.73744 11.0303 7.03033L10.3107 7.75H15C15.0877 7.75 15.1719 7.76505 15.2501 7.7927V5C15.2501 3.75736 14.2427 2.75 13.0001 2.75H9.20712C8.82072 2.75 8.45015 2.59649 8.17694 2.32324C7.80997 1.9562 7.3122 1.75 6.79318 1.75H3Z"
        fill="#303233" />
</svg>
