<svg width="24" height="24" viewBox="0 0 24 24" fill="none" xmlns="http://www.w3.org/2000/svg">
    <path fill-rule="evenodd" clip-rule="evenodd"
        d="M16.2826 6.81217C16.0437 6.75482 15.7812 6.75 15.0118 6.75H6.8C5.94755 6.75 5.35331 6.75058 4.89068 6.78838C4.4368 6.82547 4.17604 6.8946 3.97852 6.99524C3.55516 7.21095 3.21095 7.55516 2.99524 7.97852C2.8946 8.17604 2.82547 8.43681 2.78838 8.89068C2.75058 9.35331 2.75 9.94755 2.75 10.8V13.2C2.75 14.0525 2.75058 14.6467 2.78838 15.1093C2.82547 15.5632 2.8946 15.824 2.99524 16.0215C3.21095 16.4448 3.55516 16.7891 3.97852 17.0048C4.17604 17.1054 4.4368 17.1745 4.89068 17.2116C5.35331 17.2494 5.94755 17.25 6.8 17.25H15.0118C15.7812 17.25 16.0437 17.2452 16.2826 17.1878C16.5122 17.1327 16.7317 17.0418 16.933 16.9184C17.1424 16.7901 17.3315 16.6079 17.8756 16.0638L20.2069 13.7324C20.6117 13.3276 20.883 13.0556 21.0751 12.8292C21.2615 12.6096 21.329 12.4829 21.3604 12.3863C21.442 12.1352 21.442 11.8648 21.3604 11.6137C21.329 11.5171 21.2615 11.3904 21.0751 11.1708C20.883 10.9445 20.6117 10.6724 20.2069 10.2676L17.8756 7.93622C17.3315 7.39212 17.1424 7.20992 16.933 7.08156C16.7317 6.9582 16.5122 6.86729 16.2826 6.81217ZM15.0972 5.24999C15.7488 5.2498 16.1998 5.24967 16.6328 5.35361C17.0154 5.44548 17.3812 5.59699 17.7167 5.8026C18.0964 6.03526 18.4152 6.35427 18.8758 6.81513C18.8957 6.83501 18.9158 6.85515 18.9362 6.87556L21.2891 9.22848C21.6668 9.60616 21.9821 9.92141 22.2186 10.2C22.4653 10.4906 22.67 10.7902 22.787 11.1502C22.9664 11.7025 22.9664 12.2975 22.787 12.8498C22.67 13.2098 22.4653 13.5094 22.2186 13.8C21.9821 14.0786 21.6668 14.3938 21.2891 14.7715L18.9362 17.1244C18.9158 17.1449 18.8957 17.165 18.8758 17.1849C18.4152 17.6457 18.0964 17.9647 17.7167 18.1974C17.3812 18.403 17.0154 18.5545 16.6328 18.6464C16.1998 18.7503 15.7488 18.7502 15.0972 18.75C15.0691 18.75 15.0406 18.75 15.0118 18.75H6.76788C5.95505 18.75 5.29944 18.75 4.76853 18.7066C4.2219 18.662 3.74175 18.5676 3.29754 18.3413C2.59193 17.9818 2.01825 17.4081 1.65873 16.7025C1.43239 16.2582 1.33803 15.7781 1.29336 15.2315C1.24999 14.7006 1.24999 14.0449 1.25 13.2321V10.7679C1.24999 9.95506 1.24999 9.29944 1.29336 8.76853C1.33803 8.2219 1.43239 7.74176 1.65873 7.29754C2.01825 6.59193 2.59193 6.01825 3.29754 5.65873C3.74175 5.43239 4.2219 5.33803 4.76853 5.29337C5.29944 5.24999 5.95506 5.24999 6.7679 5.25L15.0118 5.25C15.0406 5.25 15.0691 5.24999 15.0972 5.24999Z"
        fill="#303233" />
</svg>
