<svg width="24" height="24" viewBox="0 0 24 24" fill="none" xmlns="http://www.w3.org/2000/svg">
    <path fill-rule="evenodd" clip-rule="evenodd"
        d="M1 5C1 2.79086 2.79086 1 5 1H19C21.2091 1 23 2.79086 23 5V7C23 9.20914 21.2091 11 19 11H5C2.79086 11 1 9.20914 1 7V5ZM17 6C17 5.44772 17.4477 5 18 5H18.01C18.5623 5 19.01 5.44772 19.01 6C19.01 6.55228 18.5623 7 18.01 7H18C17.4477 7 17 6.55228 17 6Z"
        fill="#303233" />
    <path fill-rule="evenodd" clip-rule="evenodd"
        d="M1 17C1 14.7909 2.79086 13 5 13H19C21.2091 13 23 14.7909 23 17V19C23 21.2091 21.2091 23 19 23H5C2.79086 23 1 21.2091 1 19V17ZM17 18C17 17.4477 17.4477 17 18 17H18.01C18.5623 17 19.01 17.4477 19.01 18C19.01 18.5523 18.5623 19 18.01 19H18C17.4477 19 17 18.5523 17 18Z"
        fill="#303233" />
</svg>
