<svg width="16" height="16" viewBox="0 0 16 16" fill="none" xmlns="http://www.w3.org/2000/svg">
    <path
        d="M6.67452 1.99999C7.18695 1.99999 7.36365 2.00305 7.52454 2.0407C7.67872 2.07678 7.82572 2.1362 7.96017 2.21651C8.09982 2.29993 8.22559 2.4181 8.58826 2.7716L13.651 7.70632C13.8487 7.89907 14.1653 7.89501 14.3581 7.69727C14.5508 7.49952 14.5467 7.18296 14.349 6.99022L9.2461 2.01634C8.9389 1.71673 8.7261 1.5092 8.47297 1.358C8.24954 1.22454 8.00635 1.12643 7.75239 1.067C7.46512 0.99978 7.16587 0.999861 6.73066 0.999979L4 0.999989C3.72386 0.999989 3.5 1.22385 3.5 1.49999C3.5 1.77613 3.72386 1.99999 4 1.99999H6.67452Z"
        fill="#303233" />
    <path
        d="M5.34445 3.49998L4.07901 3.49999C3.72884 3.49998 3.43607 3.49998 3.1968 3.51953C2.9471 3.53993 2.71196 3.58409 2.4894 3.69749C2.14845 3.87121 1.87124 4.14842 1.69752 4.48937C1.58412 4.71193 1.53996 4.94707 1.51956 5.19677C1.50001 5.43604 1.50001 5.72881 1.50002 6.07898L1.50001 7.34441C1.49988 7.77125 1.4998 8.06803 1.56821 8.35302C1.62867 8.60484 1.72839 8.84559 1.86371 9.06641C2.01684 9.3163 2.22676 9.5261 2.52868 9.82783L6.44 13.7391C6.73923 14.0384 6.98518 14.2843 7.20164 14.4681C7.4261 14.6586 7.65156 14.8115 7.91908 14.8985C8.33571 15.0338 8.78451 15.0338 9.20114 14.8985C9.46866 14.8115 9.69412 14.6586 9.91858 14.4681C10.135 14.2843 10.3809 14.0384 10.6802 13.7392L11.7392 12.6802C12.0384 12.3809 12.2844 12.135 12.4681 11.9185C12.6587 11.6941 12.8116 11.4686 12.8985 11.2011C13.0339 10.7845 13.0339 10.3357 12.8985 9.91905C12.8116 9.65153 12.6587 9.42607 12.4681 9.2016C12.2844 8.98514 12.0384 8.73921 11.7391 8.43994L7.82786 4.52864C7.52612 4.22673 7.31633 4.01681 7.06644 3.86368C6.84562 3.72836 6.60488 3.62864 6.35305 3.56818C6.06807 3.49976 5.77129 3.49985 5.34445 3.49998Z"
        fill="#303233" />
</svg>
