<svg width="16" height="16" viewBox="0 0 16 16" fill="none" xmlns="http://www.w3.org/2000/svg">
    <g clip-path="url(#clip0_1445_130)">
        <path
            d="M5.99557 5C5.44573 5 5 5.44772 5 6C5 6.55228 5.44573 7 5.99557 7H6.00443C6.55427 7 7 6.55228 7 6C7 5.44772 6.55427 5 6.00443 5H5.99557Z"
            fill="#303233" />
        <path
            d="M9 6C9 5.44772 9.44573 5 9.99557 5H10.0044C10.5543 5 11 5.44772 11 6C11 6.55228 10.5543 7 10.0044 7H9.99557C9.44573 7 9 6.55228 9 6Z"
            fill="#303233" />
        <path fill-rule="evenodd" clip-rule="evenodd"
            d="M8 7.75C6.48122 7.75 5.25 8.98122 5.25 10.5C5.25 12.0188 6.48122 13.25 8 13.25C9.51878 13.25 10.75 12.0188 10.75 10.5C10.75 8.98122 9.51878 7.75 8 7.75ZM6.75 10.5C6.75 9.80964 7.30964 9.25 8 9.25C8.69036 9.25 9.25 9.80964 9.25 10.5C9.25 11.1904 8.69036 11.75 8 11.75C7.30964 11.75 6.75 11.1904 6.75 10.5Z"
            fill="#303233" />
        <path fill-rule="evenodd" clip-rule="evenodd"
            d="M8 0.75C3.99594 0.75 0.75 3.99594 0.75 8C0.75 12.0041 3.99594 15.25 8 15.25C12.0041 15.25 15.25 12.0041 15.25 8C15.25 3.99594 12.0041 0.75 8 0.75ZM2.25 8C2.25 4.82436 4.82436 2.25 8 2.25C11.1756 2.25 13.75 4.82436 13.75 8C13.75 11.1756 11.1756 13.75 8 13.75C4.82436 13.75 2.25 11.1756 2.25 8Z"
            fill="#303233" />
    </g>
    <defs>
        <clipPath id="clip0_1445_130">
            <rect width="16" height="16" fill="white" />
        </clipPath>
    </defs>
</svg>
