<svg width="24" height="24" viewBox="0 0 24 24" fill="none" xmlns="http://www.w3.org/2000/svg">
    <path fill-rule="evenodd" clip-rule="evenodd"
        d="M9.7679 4.25H14.2321C15.0449 4.24999 15.7006 4.24999 16.2315 4.29336C16.7781 4.33803 17.2582 4.43239 17.7025 4.65873C18.4081 5.01825 18.9817 5.59193 19.3413 6.29754C19.5676 6.74175 19.662 7.2219 19.7066 7.76853C19.75 8.29944 19.75 8.95505 19.75 9.76788V14.2321C19.75 15.045 19.75 15.7006 19.7066 16.2315C19.662 16.7781 19.5676 17.2582 19.3413 17.7025C18.9817 18.4081 18.4081 18.9817 17.7025 19.3413C17.2582 19.5676 16.7781 19.662 16.2315 19.7066C15.7006 19.75 15.045 19.75 14.2321 19.75H9.76788C8.95505 19.75 8.29944 19.75 7.76853 19.7066C7.2219 19.662 6.74175 19.5676 6.29754 19.3413C5.59193 18.9817 5.01825 18.4081 4.65873 17.7025C4.43239 17.2582 4.33803 16.7781 4.29336 16.2315C4.24999 15.7006 4.24999 15.0449 4.25 14.2321V9.7679C4.24999 8.95506 4.24999 8.29944 4.29336 7.76853C4.33803 7.2219 4.43239 6.74175 4.65873 6.29754C5.01825 5.59193 5.59193 5.01825 6.29754 4.65873C6.74175 4.43239 7.2219 4.33803 7.76853 4.29336C8.29944 4.24999 8.95506 4.24999 9.7679 4.25Z"
        fill="#303233" />
</svg>
