<svg width="16" height="16" viewBox="0 0 16 16" fill="none" xmlns="http://www.w3.org/2000/svg">
    <path fill-rule="evenodd" clip-rule="evenodd"
        d="M15.75 8.75299V8.61399C15.75 8.21499 15.744 8.01599 15.702 7.78699C15.594 7.20899 15.174 6.49299 14.721 6.11699C14.533 5.96099 14.408 5.88699 14.154 5.74599C12.333 4.72899 10.234 4.14999 8 4.14999C5.766 4.14999 3.667 4.72899 1.846 5.74499C1.592 5.88699 1.467 5.96099 1.279 6.11699C0.826 6.49299 0.406 7.20899 0.298 7.78699C0.256 8.01599 0.25 8.21499 0.25 8.61399V8.75299C0.25 9.15099 0.258 9.34999 0.291 9.51599C0.459 10.372 1.128 11.041 1.984 11.209C2.15 11.242 2.349 11.25 2.747 11.25H2.918C3.12 11.25 3.22 11.248 3.305 11.24C4.325 11.139 5.133 10.332 5.233 9.31099C5.242 9.22599 5.244 9.12599 5.244 8.92499V8.91499C6.107 8.61399 7.034 8.44999 8 8.44999C8.966 8.44999 9.893 8.61399 10.756 8.91499V8.92499C10.756 9.12499 10.758 9.22599 10.766 9.31099C10.867 10.331 11.675 11.139 12.695 11.24C12.78 11.248 12.88 11.25 13.082 11.25H13.253C13.651 11.25 13.85 11.242 14.016 11.209C14.872 11.041 15.541 10.372 15.709 9.51599C15.742 9.34999 15.75 9.15099 15.75 8.75299ZM1.75 8.75299V8.61399C1.75 8.57236 1.74985 8.53398 1.74972 8.49827C1.74898 8.30587 1.74854 8.19104 1.773 8.06199C1.824 7.78799 2.023 7.44899 2.238 7.27099C2.33757 7.18757 2.40978 7.1476 2.53258 7.07962C2.54668 7.07182 2.56145 7.06364 2.577 7.05499C4.182 6.15999 6.031 5.64999 8 5.64999C9.969 5.64999 11.818 6.15999 13.424 7.05499C13.4406 7.06427 13.4563 7.073 13.4712 7.08132C13.5914 7.14827 13.6633 7.18827 13.762 7.27099C13.977 7.44899 14.176 7.78799 14.227 8.06199C14.2515 8.19104 14.251 8.30586 14.2503 8.49827C14.2501 8.53397 14.25 8.57235 14.25 8.61399V8.75299C14.25 8.81405 14.2505 8.86753 14.2509 8.915C14.2522 9.05958 14.2531 9.14845 14.238 9.22599C14.187 9.48399 13.984 9.68699 13.726 9.73799C13.6485 9.75305 13.5596 9.75224 13.415 9.75092C13.3675 9.75048 13.314 9.74999 13.253 9.74999H13.082C13.0511 9.74999 13.0241 9.75012 13.0001 9.75023C12.9269 9.75056 12.8819 9.75076 12.842 9.74699C12.534 9.71599 12.29 9.47299 12.259 9.16399C12.2552 9.12482 12.2554 9.07941 12.2558 9.00638C12.2559 8.98246 12.256 8.95558 12.256 8.92499C12.256 8.84899 12.255 8.81099 12.252 8.76799C12.212 8.26099 11.856 7.75799 11.391 7.55299C11.3501 7.53494 11.3228 7.52501 11.273 7.5069L11.265 7.50399C10.243 7.14499 9.144 6.94999 8 6.94999C6.856 6.94999 5.757 7.14499 4.735 7.50399C4.68 7.52399 4.653 7.53399 4.609 7.55299C4.144 7.75799 3.787 8.26199 3.748 8.76799C3.745 8.81099 3.744 8.84899 3.744 8.92499C3.744 8.95561 3.74412 8.98245 3.74423 9.00631C3.74456 9.07906 3.74477 9.12408 3.741 9.16399C3.71 9.47199 3.466 9.71599 3.158 9.74699C3.1181 9.75076 3.07309 9.75056 2.99995 9.75023C2.97593 9.75012 2.94889 9.74999 2.918 9.74999H2.747C2.68595 9.74999 2.63248 9.75048 2.58501 9.75092C2.44042 9.75224 2.35154 9.75305 2.274 9.73799C2.016 9.68699 1.813 9.48399 1.762 9.22599C1.74694 9.14845 1.74776 9.05958 1.74908 8.915C1.74951 8.86752 1.75 8.81405 1.75 8.75299Z"
        fill="#303233" />
</svg>
