<svg width="24" height="24" viewBox="0 0 24 24" fill="none" xmlns="http://www.w3.org/2000/svg">
    <path fill-rule="evenodd" clip-rule="evenodd"
        d="M6 3C6.55228 3 7 3.44772 7 4V17.5858L10.2929 14.2929C10.6834 13.9024 11.3166 13.9024 11.7071 14.2929C12.0976 14.6834 12.0976 15.3166 11.7071 15.7071L6.70711 20.7071C6.31658 21.0976 5.68342 21.0976 5.29289 20.7071L0.292893 15.7071C-0.0976311 15.3166 -0.0976311 14.6834 0.292893 14.2929C0.683417 13.9024 1.31658 13.9024 1.70711 14.2929L5 17.5858V4C5 3.44772 5.44772 3 6 3ZM17.2929 3.29289C17.6834 2.90237 18.3166 2.90237 18.7071 3.29289L23.7071 8.29289C24.0976 8.68342 24.0976 9.31658 23.7071 9.70711C23.3166 10.0976 22.6834 10.0976 22.2929 9.70711L19 6.41421V20C19 20.5523 18.5523 21 18 21C17.4477 21 17 20.5523 17 20V6.41421L13.7071 9.70711C13.3166 10.0976 12.6834 10.0976 12.2929 9.70711C11.9024 9.31658 11.9024 8.68342 12.2929 8.29289L17.2929 3.29289Z"
        fill="#303233" />
</svg>
