<svg width="24" height="24" viewBox="0 0 24 24" fill="none" xmlns="http://www.w3.org/2000/svg">
    <path d="M5 8.42661V7H7.85322V17H6.27572V8.42661H5Z" fill="#303233" />
    <path
        d="M12.5303 9.71967C12.2374 9.42678 11.7626 9.42678 11.4697 9.71967C11.1768 10.0126 11.1768 10.4874 11.4697 10.7803L13.9393 13.25L11.4697 15.7197C11.1768 16.0126 11.1768 16.4874 11.4697 16.7803C11.7626 17.0732 12.2374 17.0732 12.5303 16.7803L15 14.3107L17.4697 16.7803C17.7626 17.0732 18.2374 17.0732 18.5303 16.7803C18.8232 16.4874 18.8232 16.0126 18.5303 15.7197L16.0607 13.25L18.5303 10.7803C18.8232 10.4874 18.8232 10.0126 18.5303 9.71967C18.2374 9.42678 17.7626 9.42678 17.4697 9.71967L15 12.1893L12.5303 9.71967Z"
        fill="#303233" />
</svg>
