<svg width="16" height="16" viewBox="0 0 16 16" fill="none" xmlns="http://www.w3.org/2000/svg">
    <path fill-rule="evenodd" clip-rule="evenodd"
        d="M9.5 4C9.5 2.89543 10.3954 2 11.5 2C12.6046 2 13.5 2.89543 13.5 4C13.5 5.10457 12.6046 6 11.5 6C10.9104 6 10.3805 5.74491 10.0144 5.33909L6.38076 7.23492C6.45819 7.47605 6.5 7.73314 6.5 8C6.5 8.23663 6.46713 8.46557 6.40569 8.68252L9.56826 10.2427C10.1133 9.48982 10.9994 9 12 9C13.6569 9 15 10.3431 15 12C15 13.6569 13.6569 15 12 15C10.3431 15 9 13.6569 9 12C9 11.7008 9.04379 11.4119 9.1253 11.1393L5.94528 9.57045C5.48697 10.1374 4.78583 10.5 4 10.5C2.61929 10.5 1.5 9.38071 1.5 8C1.5 6.61929 2.61929 5.5 4 5.5C4.75472 5.5 5.43133 5.83443 5.88972 6.36319L9.55146 4.45272C9.51779 4.30725 9.5 4.1557 9.5 4Z"
        fill="#303233" />
</svg>
