<svg width="16" height="16" viewBox="0 0 16 16" fill="none" xmlns="http://www.w3.org/2000/svg">
    <path
        d="M8 4.25C8.41421 4.25 8.75 4.58579 8.75 5V7.25H11C11.4142 7.25 11.75 7.58579 11.75 8C11.75 8.41421 11.4142 8.75 11 8.75H8.75V11C8.75 11.4142 8.41421 11.75 8 11.75C7.58579 11.75 7.25 11.4142 7.25 11V8.75H5C4.58579 8.75 4.25 8.41421 4.25 8C4.25 7.58579 4.58579 7.25 5 7.25H7.25V5C7.25 4.58579 7.58579 4.25 8 4.25Z"
        fill="#303233" />
    <path fill-rule="evenodd" clip-rule="evenodd"
        d="M15.25 7.99995C15.25 4.58498 12.035 1.75 8.00006 1.75C3.96509 1.75 0.750117 4.58498 0.750117 7.99995C0.750117 9.02994 1.03811 10.0029 1.55311 10.8639C1.61211 10.9629 1.64711 11.0799 1.60511 11.1869L0.802116 13.2249C0.702117 13.4789 0.748117 13.7679 0.922115 13.9779C1.09711 14.1889 1.37211 14.2879 1.64011 14.2369L4.75708 13.6429C4.81908 13.6319 4.88108 13.6439 4.93908 13.6669C5.90708 14.0549 6.94907 14.2529 8.00106 14.2499C12.036 14.2489 15.25 11.4139 15.25 7.99995ZM13.75 7.99995C13.75 10.6599 11.144 12.7499 8.00006 12.7499H7.99806C7.13807 12.7529 6.28707 12.5909 5.49608 12.2749C5.17208 12.1449 4.81908 12.1049 4.47609 12.1699L2.6971 12.5089L3.0011 11.7369C3.2131 11.1979 3.1371 10.5919 2.8401 10.0939C2.4641 9.46494 2.2501 8.75394 2.2501 7.99995C2.2501 5.33897 4.85608 3.24999 8.00006 3.24999C11.144 3.24999 13.75 5.33897 13.75 7.99995Z"
        fill="#303233" />
</svg>
