<svg width="24" height="24" viewBox="0 0 24 24" fill="none" xmlns="http://www.w3.org/2000/svg">
    <path
        d="M11.0307 13.5303C11.3236 13.2374 11.3236 12.7626 11.0307 12.4697C10.7378 12.1768 10.2629 12.1768 9.97001 12.4697L9.72001 12.7197C8.18448 14.2552 8.18448 16.7448 9.72001 18.2803C11.2555 19.8159 13.7451 19.8159 15.2807 18.2803L15.5307 18.0303C15.8236 17.7374 15.8236 17.2626 15.5307 16.9697C15.2378 16.6768 14.7629 16.6768 14.47 16.9697L14.22 17.2197C13.2703 18.1694 11.7304 18.1694 10.7807 17.2197C9.83092 16.2699 9.83092 14.7301 10.7807 13.7803L11.0307 13.5303Z"
        fill="#303233" />
    <path
        d="M12.7197 9.71964C14.2552 8.18411 16.7448 8.18411 18.2803 9.71964C19.8159 11.2552 19.8159 13.7448 18.2803 15.2803L18.0303 15.5303C17.7374 15.8232 17.2626 15.8232 16.9697 15.5303C16.6768 15.2374 16.6768 14.7625 16.9697 14.4696L17.2197 14.2196C18.1694 13.2699 18.1694 11.7301 17.2197 10.7803C16.2699 9.83056 14.7301 9.83056 13.7803 10.7803L13.5303 11.0303C13.2374 11.3232 12.7626 11.3232 12.4697 11.0303C12.1768 10.7374 12.1768 10.2625 12.4697 9.96964L12.7197 9.71964Z"
        fill="#303233" />
    <path
        d="M16.0303 13.0303C16.3232 12.7374 16.3232 12.2626 16.0303 11.9697C15.7374 11.6768 15.2626 11.6768 14.9697 11.9697L11.9697 14.9697C11.6768 15.2626 11.6768 15.7374 11.9697 16.0303C12.2626 16.3232 12.7374 16.3232 13.0303 16.0303L16.0303 13.0303Z"
        fill="#303233" />
    <path fill-rule="evenodd" clip-rule="evenodd"
        d="M5.16957 1.25H14.8304C15.3646 1.24999 15.8104 1.24998 16.1747 1.27974C16.5546 1.31078 16.9112 1.37789 17.2485 1.54973C17.7659 1.81339 18.1866 2.23408 18.4503 2.75153C18.6221 3.08879 18.6892 3.44545 18.7203 3.82533C18.75 4.18956 18.75 4.6354 18.75 5.16955V5.25H18.8304C19.3646 5.24999 19.8104 5.24998 20.1747 5.27974C20.5546 5.31078 20.9112 5.37789 21.2485 5.54973C21.7659 5.81339 22.1866 6.23408 22.4503 6.75153C22.6221 7.08879 22.6892 7.44545 22.7203 7.82533C22.75 8.18956 22.75 8.6354 22.75 9.16955V18.8305C22.75 19.3646 22.75 19.8104 22.7203 20.1747C22.6892 20.5546 22.6221 20.9112 22.4503 21.2485C22.1866 21.7659 21.7659 22.1866 21.2485 22.4503C20.9112 22.6221 20.5546 22.6892 20.1747 22.7203C19.8104 22.75 19.3646 22.75 18.8305 22.75H9.16955C8.6354 22.75 8.18956 22.75 7.82533 22.7203C7.44545 22.6892 7.08879 22.6221 6.75153 22.4503C6.23408 22.1866 5.81339 21.7659 5.54973 21.2485C5.37789 20.9112 5.31078 20.5546 5.27974 20.1747C5.24998 19.8104 5.24999 19.3646 5.25 18.8304V18.75H5.16955C4.6354 18.75 4.18956 18.75 3.82533 18.7203C3.44545 18.6892 3.08879 18.6221 2.75153 18.4503C2.23408 18.1866 1.81339 17.7659 1.54973 17.2485C1.37789 16.9112 1.31078 16.5546 1.27974 16.1747C1.24998 15.8104 1.24999 15.3646 1.25 14.8305V5.16957C1.24999 4.63542 1.24998 4.18956 1.27974 3.82533C1.31078 3.44545 1.37789 3.08879 1.54973 2.75153C1.81339 2.23408 2.23408 1.81339 2.75153 1.54973C3.08879 1.37789 3.44545 1.31078 3.82533 1.27974C4.18956 1.24998 4.63542 1.24999 5.16957 1.25ZM17.25 5.2V5.25H9.16957C8.63541 5.24999 8.18956 5.24998 7.82533 5.27974C7.44545 5.31078 7.08879 5.37789 6.75153 5.54973C6.23408 5.81339 5.81339 6.23408 5.54973 6.75153C5.37789 7.08879 5.31078 7.44545 5.27974 7.82533C5.24998 8.18956 5.24999 8.63541 5.25 9.16957V17.25H5.2C4.62757 17.25 4.24336 17.2494 3.94748 17.2252C3.66036 17.2018 3.52307 17.1599 3.43251 17.1138C3.19731 16.9939 3.00608 16.8027 2.88624 16.5675C2.8401 16.4769 2.79822 16.3396 2.77476 16.0525C2.75058 15.7566 2.75 15.3724 2.75 14.8V5.2C2.75 4.62757 2.75058 4.24336 2.77476 3.94748C2.79822 3.66036 2.8401 3.52307 2.88624 3.43251C3.00608 3.19731 3.19731 3.00608 3.43251 2.88624C3.52307 2.8401 3.66036 2.79822 3.94748 2.77476C4.24336 2.75058 4.62757 2.75 5.2 2.75H14.8C15.3724 2.75 15.7566 2.75058 16.0525 2.77476C16.3396 2.79822 16.4769 2.8401 16.5675 2.88624C16.8027 3.00608 16.9939 3.19731 17.1138 3.43251C17.1599 3.52307 17.2018 3.66036 17.2252 3.94748C17.2494 4.24336 17.25 4.62757 17.25 5.2ZM7.94748 6.77476C7.66036 6.79822 7.52307 6.8401 7.43251 6.88624C7.19731 7.00608 7.00608 7.19731 6.88624 7.43251C6.8401 7.52307 6.79822 7.66036 6.77476 7.94748C6.75058 8.24336 6.75 8.62757 6.75 9.2V18.8C6.75 19.3724 6.75058 19.7566 6.77476 20.0525C6.79822 20.3396 6.8401 20.4769 6.88624 20.5675C7.00608 20.8027 7.19731 20.9939 7.43251 21.1138C7.52307 21.1599 7.66036 21.2018 7.94748 21.2252C8.24336 21.2494 8.62757 21.25 9.2 21.25H18.8C19.3724 21.25 19.7566 21.2494 20.0525 21.2252C20.3396 21.2018 20.4769 21.1599 20.5675 21.1138C20.8027 20.9939 20.9939 20.8027 21.1138 20.5675C21.1599 20.4769 21.2018 20.3396 21.2252 20.0525C21.2494 19.7566 21.25 19.3724 21.25 18.8V9.2C21.25 8.62757 21.2494 8.24336 21.2252 7.94748C21.2018 7.66036 21.1599 7.52307 21.1138 7.43251C20.9939 7.19731 20.8027 7.00608 20.5675 6.88624C20.4769 6.8401 20.3396 6.79822 20.0525 6.77476C19.7566 6.75058 19.3724 6.75 18.8 6.75H9.2C8.62757 6.75 8.24336 6.75058 7.94748 6.77476Z"
        fill="#303233" />
</svg>
