<svg width="24" height="24" viewBox="0 0 24 24" fill="none" xmlns="http://www.w3.org/2000/svg">
    <path fill-rule="evenodd" clip-rule="evenodd"
        d="M2 3C2 2.44772 2.44772 2 3 2H21C21.5523 2 22 2.44772 22 3V17C22 19.7614 19.7614 22 17 22H7C4.23858 22 2 19.7614 2 17V3ZM4 4V17C4 18.6569 5.34315 20 7 20H17C18.6569 20 20 18.6569 20 17V4H4Z"
        fill="#303233" />
    <path fill-rule="evenodd" clip-rule="evenodd"
        d="M13.25 10C13.25 9.58579 13.5858 9.25 14 9.25H18C18.4142 9.25 18.75 9.58579 18.75 10V14C18.75 14.4142 18.4142 14.75 18 14.75H14C13.5858 14.75 13.25 14.4142 13.25 14V10ZM14.75 10.75V13.25H17.25V10.75H14.75Z"
        fill="#303233" />
    <path fill-rule="evenodd" clip-rule="evenodd"
        d="M10 13C10.3148 13 10.6112 13.1482 10.8 13.4L13.8 17.4C14.0273 17.703 14.0638 18.1084 13.8944 18.4472C13.725 18.786 13.3788 19 13 19H7.00001C6.62123 19 6.27497 18.786 6.10558 18.4472C5.93619 18.1084 5.97274 17.703 6.20001 17.4L9.20001 13.4C9.38886 13.1482 9.68525 13 10 13ZM9.00001 17H11L10 15.6667L9.00001 17Z"
        fill="#303233" />
    <path fill-rule="evenodd" clip-rule="evenodd"
        d="M8.5 7C7.67157 7 7 7.67157 7 8.5C7 9.32843 7.67157 10 8.5 10C9.32843 10 10 9.32843 10 8.5C10 7.67157 9.32843 7 8.5 7ZM5 8.5C5 6.567 6.567 5 8.5 5C10.433 5 12 6.567 12 8.5C12 10.433 10.433 12 8.5 12C6.567 12 5 10.433 5 8.5Z"
        fill="#303233" />
</svg>
