<svg width="16" height="16" viewBox="0 0 16 16" fill="none" xmlns="http://www.w3.org/2000/svg">
    <path fill-rule="evenodd" clip-rule="evenodd"
        d="M7.08289 11.0799L7.28745 11.5399C7.34826 11.6769 7.4475 11.7933 7.57313 11.8749C7.69876 11.9566 7.84539 12 7.99523 12C8.14507 12 8.29169 11.9566 8.41733 11.8749C8.54296 11.7933 8.6422 11.6769 8.703 11.5399L8.90756 11.0799C8.98038 10.9166 9.10286 10.7806 9.25756 10.691C9.41323 10.6012 9.59333 10.563 9.77206 10.5817L10.2726 10.635C10.4215 10.6508 10.5719 10.623 10.7054 10.555C10.8389 10.487 10.9498 10.3817 11.0247 10.2519C11.0996 10.1223 11.1353 9.9736 11.1275 9.82401C11.1196 9.67442 11.0685 9.53033 10.9803 9.40922L10.684 9.00206C10.5785 8.856 10.5221 8.68019 10.523 8.5C10.523 8.32031 10.5799 8.14522 10.6856 7.99989L10.9819 7.59272C11.07 7.47161 11.1212 7.32752 11.129 7.17794C11.1369 7.02835 11.1012 6.87969 11.0262 6.75C10.9514 6.62023 10.8405 6.51497 10.707 6.44698C10.5735 6.37899 10.4231 6.35119 10.2741 6.36694L9.77362 6.42022C9.59488 6.43899 9.41479 6.40074 9.25912 6.31094C9.10411 6.22089 8.98159 6.08408 8.90912 5.92011L8.703 5.46006C8.6422 5.32311 8.54296 5.20675 8.41733 5.12509C8.29169 5.04343 8.14507 4.99998 7.99523 5C7.84539 4.99998 7.69876 5.04343 7.57313 5.12509C7.4475 5.20675 7.34826 5.32311 7.28745 5.46006L7.08289 5.92011C7.01042 6.08408 6.8879 6.22089 6.73289 6.31094C6.57722 6.40074 6.39713 6.43899 6.21839 6.42022L5.71634 6.36694C5.56735 6.35119 5.417 6.37899 5.2835 6.44698C5.15 6.51497 5.03909 6.62023 4.96423 6.75C4.88926 6.87969 4.85355 7.02835 4.86142 7.17794C4.86929 7.32752 4.9204 7.47161 5.00856 7.59272L5.30489 7.99989C5.41057 8.14522 5.46748 8.32031 5.46745 8.5C5.46748 8.67969 5.41057 8.85478 5.30489 9.00011L5.00856 9.40728C4.9204 9.52839 4.86929 9.67248 4.86142 9.82206C4.85355 9.97165 4.88926 10.1203 4.96423 10.25C5.03917 10.3797 5.15009 10.4849 5.28357 10.5529C5.41705 10.6209 5.56736 10.6487 5.71634 10.6331L6.21684 10.5798C6.39557 10.561 6.57566 10.5993 6.73134 10.6891C6.88692 10.7789 7.01001 10.9157 7.08289 11.0799ZM9.16536 8.49998C9.16536 9.14431 8.64303 9.66665 7.9987 9.66665C7.35437 9.66665 6.83203 9.14431 6.83203 8.49998C6.83203 7.85565 7.35437 7.33331 7.9987 7.33331C8.64303 7.33331 9.16536 7.85565 9.16536 8.49998Z"
        fill="#303233" />
    <path fill-rule="evenodd" clip-rule="evenodd"
        d="M0.75 4.00002C0.749991 2.75737 1.75735 1.75 3 1.75H6.79318C7.3122 1.75 7.80997 1.9562 8.17694 2.32324C8.45015 2.59649 8.82072 2.75 9.20712 2.75H13.0001C14.2427 2.75 15.2501 3.75736 15.2501 5V12C15.2501 13.2426 14.2427 14.25 13.0001 14.25H3.00006C1.75742 14.25 0.750065 13.2427 0.750056 12L0.75 4.00002ZM3.00015 4.25C2.58594 4.25 2.25015 4.58579 2.25015 5V12C2.25015 12.4142 2.58594 12.75 3.00015 12.75H13.0002C13.4144 12.75 13.7502 12.4142 13.7502 12V5C13.7502 4.58579 13.4144 4.25 13.0002 4.25H3.00015Z"
        fill="#303233" />
</svg>
