<svg width="24" height="24" viewBox="0 0 24 24" fill="none" xmlns="http://www.w3.org/2000/svg">
    <path fill-rule="evenodd" clip-rule="evenodd"
        d="M9.8321 1.4453C9.64664 1.1671 9.33441 1 9.00005 1C8.6657 1 8.35347 1.1671 8.168 1.4453L7.00005 3.19722C6.84688 3.42699 6.53644 3.48908 6.30668 3.3359L4.55475 2.16795C4.211 1.93878 3.76171 1.9446 3.42401 2.18258C3.0863 2.42057 2.92971 2.84173 3.02991 3.24254L4.02991 7.24254C4.03524 7.26384 4.04122 7.28483 4.04784 7.3055C4.0163 7.53248 4 7.76434 4 8C4 10.7614 6.23858 13 9 13C11.7614 13 14 10.7614 14 8C14 7.76442 13.9837 7.53264 13.9522 7.30574C13.9588 7.28499 13.9649 7.26392 13.9702 7.24254L14.9702 3.24254C15.0704 2.84173 14.9138 2.42057 14.5761 2.18258C14.2384 1.9446 13.7891 1.93878 13.4454 2.16795L11.6934 3.3359C11.4637 3.48908 11.1532 3.42699 11.0001 3.19722L9.8321 1.4453ZM9 11C7.34315 11 6 9.65685 6 8H12C12 9.65685 10.6569 11 9 11Z"
        fill="#303233" />
    <path
        d="M2.22063 21.2493C2.99776 18.2299 5.73981 16 9.00016 16C12.2605 16 15.0026 18.2299 15.7797 21.2493C15.9173 21.7841 16.4625 22.1061 16.9974 21.9684C17.5322 21.8308 17.8542 21.2856 17.7166 20.7507C16.7175 16.8692 13.1952 14 9.00016 14C4.80515 14 1.2828 16.8692 0.283758 20.7507C0.146096 21.2856 0.468083 21.8308 1.00294 21.9684C1.53779 22.1061 2.08297 21.7841 2.22063 21.2493Z"
        fill="#303233" />
    <path
        d="M17 11C16.4477 11 16 11.4477 16 12C16 12.5523 16.4477 13 17 13H23C23.5523 13 24 12.5523 24 12C24 11.4477 23.5523 11 23 11H17Z"
        fill="#303233" />
</svg>
