<svg width="16" height="16" viewBox="0 0 16 16" fill="none" xmlns="http://www.w3.org/2000/svg">
    <path fill-rule="evenodd" clip-rule="evenodd"
        d="M12.0481 5.06157C10.5642 3.01375 7.74205 2.37842 5.50384 3.67066C4.06505 4.50134 3.19511 5.93885 3.03158 7.4752C3.00235 7.74979 2.75606 7.9487 2.48147 7.91947C2.20688 7.89024 2.00797 7.64395 2.0372 7.36936C2.23311 5.52884 3.27653 3.80189 5.00384 2.80463C7.69905 1.24855 11.0998 2.0216 12.8755 4.49926L13.0237 3.94627C13.0952 3.67954 13.3693 3.52125 13.6361 3.59272C13.9028 3.66419 14.0611 3.93836 13.9896 4.20509L13.516 5.97255C13.4817 6.10064 13.3979 6.20985 13.2831 6.27616C13.1682 6.34246 13.0318 6.36043 12.9037 6.32611L11.1362 5.85252C10.8695 5.78105 10.7112 5.50688 10.7826 5.24014C10.8541 4.97341 11.1283 4.81512 11.395 4.88659L12.0481 5.06157ZM13.525 8.08054C13.7996 8.10977 13.9985 8.35607 13.9692 8.63066C13.7733 10.4712 12.7299 12.1981 11.0026 13.1954C8.30751 14.7514 4.90692 13.9785 3.13116 11.5011L2.98309 12.0538C2.91162 12.3205 2.63745 12.4788 2.37071 12.4073C2.10398 12.3358 1.94569 12.0617 2.01716 11.7949L2.49075 10.0275C2.56222 9.76074 2.83639 9.60245 3.10312 9.67392L4.87059 10.1475C5.13732 10.219 5.29561 10.4931 5.22414 10.7599C5.15267 11.0266 4.8785 11.1849 4.61177 11.1134L3.9583 10.9383C5.44213 12.9862 8.26434 13.6216 10.5026 12.3294C11.9414 11.4987 12.8113 10.0612 12.9748 8.52481C13.0041 8.25022 13.2504 8.05131 13.525 8.08054Z"
        fill="#303233" />
</svg>
