<svg width="16" height="16" viewBox="0 0 16 16" fill="none" xmlns="http://www.w3.org/2000/svg">
    <path fill-rule="evenodd" clip-rule="evenodd"
        d="M2 8C2 6.89543 2.89543 6 4 6H12C13.1046 6 14 6.89543 14 8V13C14 14.1046 13.1046 15 12 15H4C2.89543 15 2 14.1046 2 13V8ZM8.35355 1.14645C8.15829 0.951184 7.84171 0.951184 7.64645 1.14645L5.14645 3.64645C4.95118 3.84171 4.95118 4.15829 5.14645 4.35355C5.34171 4.54882 5.65829 4.54882 5.85355 4.35355L7.5 2.70711V10C7.5 10.2761 7.72386 10.5 8 10.5C8.27614 10.5 8.5 10.2761 8.5 10V2.70711L10.1464 4.35355C10.3417 4.54882 10.6583 4.54882 10.8536 4.35355C11.0488 4.15829 11.0488 3.84171 10.8536 3.64645L8.35355 1.14645Z"
        fill="#303233" />
</svg>
