<svg width="16" height="16" viewBox="0 0 16 16" fill="none" xmlns="http://www.w3.org/2000/svg">
    <g clip-path="url(#clip0_53_6907)">
        <path fill-rule="evenodd" clip-rule="evenodd"
            d="M6.62815 0.609044C7.43692 -0.013084 8.56308 -0.0130832 9.37185 0.609045L14.3718 4.4552C14.9255 4.88111 15.25 5.54005 15.25 6.2386V13C15.25 14.2426 14.2426 15.25 13 15.25H3C1.75736 15.25 0.75 14.2426 0.75 13V6.2386C0.75 5.54005 1.07446 4.88111 1.62815 4.4552L6.62815 0.609044ZM8.45728 1.79798C8.18769 1.5906 7.81231 1.5906 7.54272 1.79798L2.54272 5.64413C2.35815 5.78611 2.25 6.00575 2.25 6.2386V13C2.25 13.4142 2.58579 13.75 3 13.75H13C13.4142 13.75 13.75 13.4142 13.75 13V6.2386C13.75 6.00575 13.6418 5.78611 13.4573 5.64413L8.45728 1.79798Z"
            fill="#303233" />
    </g>
    <defs>
        <clipPath id="clip0_53_6907">
            <rect width="16" height="16" fill="white" />
        </clipPath>
    </defs>
</svg>
