<svg width="16" height="16" viewBox="0 0 16 16" fill="none" xmlns="http://www.w3.org/2000/svg">
    <g clip-path="url(#clip0_53_8406)">
        <path fill-rule="evenodd" clip-rule="evenodd"
            d="M8 0.75C3.99594 0.75 0.75 3.99594 0.75 8C0.75 12.0041 3.99594 15.25 8 15.25C12.0041 15.25 15.25 12.0041 15.25 8C15.25 3.99594 12.0041 0.75 8 0.75ZM5.99582 5C5.44598 5 5.00024 5.44772 5.00024 6C5.00024 6.55228 5.44598 7 5.99582 7H6.00467C6.55451 7 7.00024 6.55228 7.00024 6C7.00024 5.44772 6.55451 5 6.00467 5H5.99582ZM11.0451 10.0403C11.3297 9.73938 11.3166 9.26469 11.0156 8.98005C10.7147 8.6954 10.24 8.7086 9.95539 9.00951C9.65692 9.32504 8.9597 9.91666 7.99992 9.91666C7.04076 9.91666 6.34381 9.32581 6.04497 9.01005C5.76024 8.70921 5.28555 8.69615 4.98471 8.98087C4.68387 9.2656 4.6708 9.74029 4.95553 10.0411C5.35547 10.4637 6.42285 11.4167 7.99992 11.4167C9.57795 11.4167 10.6457 10.4626 11.0451 10.0403ZM9.00024 6C9.00024 5.44772 9.44598 5 9.99582 5H10.0047C10.5545 5 11.0002 5.44772 11.0002 6C11.0002 6.55228 10.5545 7 10.0047 7H9.99582C9.44598 7 9.00024 6.55228 9.00024 6Z"
            fill="#303233" />
    </g>
    <defs>
        <clipPath id="clip0_53_8406">
            <rect width="16" height="16" fill="white" />
        </clipPath>
    </defs>
</svg>
