<svg width="24" height="24" viewBox="0 0 24 24" fill="none" xmlns="http://www.w3.org/2000/svg">
    <path
        d="M12.2582 8.02432C11.7927 7.94447 11.314 8.03195 10.9068 8.27127C10.4996 8.51058 10.1902 8.88629 10.0335 9.33184C9.85018 9.85283 9.27926 10.1266 8.75827 9.94333C8.23728 9.76006 7.96351 9.18915 8.14678 8.66816C8.46025 7.77705 9.07898 7.02563 9.89339 6.547C10.7078 6.06837 11.6653 5.89341 12.5963 6.05311C13.5274 6.2128 14.3719 6.69686 14.9802 7.41953C15.5884 8.14205 15.9214 9.05648 15.9201 10.0009C15.9197 11.5313 14.7851 12.5419 13.9748 13.082C13.5392 13.3725 13.1107 13.586 12.795 13.7263C12.6358 13.7971 12.5016 13.8508 12.405 13.8876C12.3566 13.906 12.3174 13.9203 12.2888 13.9305L12.2541 13.9427L12.243 13.9464L12.2391 13.9478L12.2376 13.9483C12.2376 13.9483 12.1173 13.5913 12.0487 13.3859L12.2363 13.9487C11.7124 14.1233 11.1461 13.8402 10.9714 13.3162C10.7969 12.7926 11.0796 12.2267 11.6028 12.0517L11.6188 12.0461C11.6342 12.0406 11.6594 12.0314 11.693 12.0186C11.7605 11.9929 11.8607 11.9529 11.9827 11.8987C12.2296 11.789 12.551 11.6275 12.8654 11.4179C13.555 10.9582 13.9201 10.4691 13.9201 10L13.9201 9.99851C13.9208 9.52619 13.7543 9.06886 13.4502 8.70753C13.146 8.34619 12.7238 8.10417 12.2582 8.02432Z"
        fill="#303233" />
    <path
        d="M12 16C11.4477 16 11 16.4477 11 17C11 17.5523 11.4477 18 12 18H12.01C12.5623 18 13.01 17.5523 13.01 17C13.01 16.4477 12.5623 16 12.01 16H12Z"
        fill="#303233" />
    <path fill-rule="evenodd" clip-rule="evenodd"
        d="M1 12C1 5.92487 5.92487 1 12 1C18.0751 1 23 5.92487 23 12C23 18.0751 18.0751 23 12 23C5.92487 23 1 18.0751 1 12ZM12 3C7.02944 3 3 7.02944 3 12C3 16.9706 7.02944 21 12 21C16.9706 21 21 16.9706 21 12C21 7.02944 16.9706 3 12 3Z"
        fill="#303233" />
</svg>
