<svg width="16" height="16" viewBox="0 0 16 16" fill="none" xmlns="http://www.w3.org/2000/svg">
    <g clip-path="url(#clip0_53_8327)">
        <path
            d="M11.0156 8.98005C11.3166 9.26469 11.3297 9.73938 11.0451 10.0403C10.6457 10.4626 9.57795 11.4167 7.99992 11.4167C6.42285 11.4167 5.35547 10.4637 4.95553 10.0411C4.6708 9.74029 4.68387 9.2656 4.98471 8.98087C5.28555 8.69615 5.76024 8.70921 6.04497 9.01005C6.34381 9.32581 7.04076 9.91666 7.99992 9.91666C8.9597 9.91666 9.65692 9.32504 9.95539 9.00951C10.24 8.70859 10.7147 8.6954 11.0156 8.98005Z"
            fill="#303233" />
        <path
            d="M9.99557 5C9.44573 5 9 5.44772 9 6C9 6.55228 9.44573 7 9.99557 7H10.0044C10.5543 7 11 6.55228 11 6C11 5.44772 10.5543 5 10.0044 5H9.99557Z"
            fill="#303233" />
        <path fill-rule="evenodd" clip-rule="evenodd"
            d="M0.75 8C0.75 3.99594 3.99594 0.75 8 0.75C12.0041 0.75 15.25 3.99594 15.25 8C15.25 12.0041 12.0041 15.25 8 15.25C3.99594 15.25 0.75 12.0041 0.75 8ZM8 2.25C4.82436 2.25 2.25 4.82436 2.25 8C2.25 11.1756 4.82436 13.75 8 13.75C11.1756 13.75 13.75 11.1756 13.75 8C13.75 4.82436 11.1756 2.25 8 2.25Z"
            fill="#303233" />
        <path fill-rule="evenodd" clip-rule="evenodd"
            d="M4.75 6C4.75 5.58579 5.08579 5.25 5.5 5.25H6.5C6.91421 5.25 7.25 5.58579 7.25 6C7.25 6.41421 6.91421 6.75 6.5 6.75H5.5C5.08579 6.75 4.75 6.41421 4.75 6Z"
            fill="#303233" />
    </g>
    <defs>
        <clipPath id="clip0_53_8327">
            <rect width="16" height="16" fill="white" />
        </clipPath>
    </defs>
</svg>
