<svg width="24" height="24" viewBox="0 0 24 24" fill="none" xmlns="http://www.w3.org/2000/svg">
    <path fill-rule="evenodd" clip-rule="evenodd"
        d="M4 2C2.34315 2 1 3.34315 1 5V19C1 20.6569 2.34315 22 4 22H20C21.6569 22 23 20.6569 23 19V7C23 5.34315 21.6569 4 20 4H13.8284C13.298 4 12.7893 3.78929 12.4142 3.41421L11.5858 2.58579C11.2107 2.21071 10.702 2 10.1716 2H4ZM5 12C5 12.5523 5.44772 13 6 13H8.58579L5.29289 16.2929C4.90237 16.6834 4.90237 17.3166 5.29289 17.7071C5.68342 18.0976 6.31658 18.0976 6.70711 17.7071L10 14.4142V17C10 17.5523 10.4477 18 11 18C11.5523 18 12 17.5523 12 17V12C12 11.4477 11.5523 11 11 11H6C5.44772 11 5 11.4477 5 12Z"
        fill="#303233" />
</svg>
