<svg width="16" height="16" viewBox="0 0 16 16" fill="none" xmlns="http://www.w3.org/2000/svg">
    <path
        d="M7.0556 8.84722C6.69508 8.84722 6.40282 9.13948 6.40282 9.5C6.40282 9.86052 6.69508 10.1528 7.0556 10.1528C7.41612 10.1528 7.70838 9.86052 7.70838 9.5C7.70838 9.13948 7.41612 8.84722 7.0556 8.84722Z"
        fill="#303233" />
    <path
        d="M9.50005 8.84722C9.13953 8.84722 8.84727 9.13948 8.84727 9.5C8.84727 9.86052 9.13953 10.1528 9.50005 10.1528C9.86056 10.1528 10.1528 9.86052 10.1528 9.5C10.1528 9.13948 9.86056 8.84722 9.50005 8.84722Z"
        fill="#303233" />
    <path
        d="M11.9445 8.84722C11.584 8.84722 11.2917 9.13948 11.2917 9.5C11.2917 9.86052 11.584 10.1528 11.9445 10.1528C12.305 10.1528 12.5973 9.86052 12.5973 9.5C12.5973 9.13948 12.305 8.84722 11.9445 8.84722Z"
        fill="#303233" />
    <path fill-rule="evenodd" clip-rule="evenodd"
        d="M9.89228 3H3.10772C2.75255 2.99999 2.45601 2.99999 2.21374 3.01978C1.96104 3.04043 1.72368 3.08508 1.4992 3.19946C1.15486 3.37491 0.874907 3.65486 0.699459 3.9992C0.585078 4.22368 0.540428 4.46104 0.519782 4.71374C0.499988 4.95601 0.499993 5.25253 0.5 5.6077V7.39228C0.499993 7.74745 0.499988 8.044 0.519782 8.28626C0.540428 8.53896 0.585078 8.77632 0.699459 9.0008C0.874907 9.34514 1.15486 9.62509 1.4992 9.80054C1.72368 9.91492 1.96104 9.95957 2.21374 9.98022C2.456 10 2.75253 10 3.1077 10H3.44445C3.46323 10 3.48177 9.99897 3.50001 9.99695L3.5 10.5644C3.49999 10.8897 3.49999 11.1636 3.51831 11.3879C3.53749 11.6226 3.5792 11.8467 3.68771 12.0597C3.85283 12.3837 4.11629 12.6472 4.44035 12.8123C4.65331 12.9208 4.87736 12.9625 5.11209 12.9817C5.33638 13 5.61029 13 5.93548 13H13.0645C13.3896 13 13.6636 13 13.8879 12.9817C14.1226 12.9625 14.3467 12.9208 14.5597 12.8123C14.8837 12.6472 15.1472 12.3837 15.3123 12.0597C15.4208 11.8467 15.4625 11.6226 15.4817 11.3879C15.5 11.1636 15.5 10.8897 15.5 10.5645L15.5 8.43554C15.5001 8.11033 15.5001 7.83639 15.4817 7.61209C15.4626 7.37736 15.4208 7.15331 15.3123 6.94035C15.1472 6.61629 14.8838 6.35283 14.5597 6.18771C14.3467 6.0792 14.1227 6.03749 13.888 6.01831C13.6637 5.99999 13.3897 5.99999 13.0645 6H12.49C12.4966 5.96769 12.5 5.93425 12.5 5.9V5.60771C12.5 5.25254 12.5 4.95601 12.4802 4.71374C12.4596 4.46104 12.4149 4.22368 12.3005 3.9992C12.1251 3.65486 11.8451 3.37491 11.5008 3.19946C11.2763 3.08508 11.039 3.04043 10.7863 3.01978C10.544 2.99999 10.2475 2.99999 9.89228 3ZM11.51 6C11.5034 5.96769 11.5 5.93425 11.5 5.9V5.628C11.5 5.24732 11.4996 4.99187 11.4835 4.79518C11.4679 4.60432 11.4401 4.51321 11.4095 4.45319C11.33 4.29701 11.203 4.17004 11.0468 4.09047C10.9868 4.05989 10.8957 4.03205 10.7048 4.01646C10.5081 4.00039 10.2527 4 9.872 4H3.128C2.74732 4 2.49187 4.00039 2.29518 4.01646C2.10432 4.03205 2.01321 4.05988 1.95319 4.09047C1.79701 4.17004 1.67004 4.29701 1.59047 4.45319C1.55988 4.51321 1.53205 4.60432 1.51646 4.79518C1.50039 4.99187 1.5 5.24732 1.5 5.628V7.372C1.5 7.75269 1.50039 8.00813 1.51646 8.20483C1.53205 8.39569 1.55989 8.4868 1.59047 8.54681C1.67004 8.70299 1.79701 8.82996 1.95319 8.90954C2.01321 8.94012 2.10432 8.96795 2.29518 8.98354C2.49187 8.99961 2.74732 9 3.128 9H3.44445C3.46323 9 3.48178 9.00104 3.50003 9.00306L3.50005 8.43555C3.50004 8.11033 3.50003 7.83639 3.51836 7.61209C3.53754 7.37736 3.57925 7.15331 3.68776 6.94035C3.85287 6.61629 4.11634 6.35283 4.4404 6.18771C4.65335 6.0792 4.8774 6.03749 5.11213 6.01831C5.33644 5.99999 5.61037 5.99999 5.93559 6H11.51ZM4.89439 7.07872C4.94288 7.05401 5.02068 7.02912 5.19357 7.01499C5.37229 7.00039 5.6051 7 5.9556 7H13.0445C13.395 7 13.6278 7.00039 13.8065 7.01499C13.9794 7.02912 14.0572 7.05401 14.1057 7.07872C14.2416 7.14796 14.3521 7.25845 14.4213 7.39434C14.446 7.44283 14.4709 7.52063 14.4851 7.69352C14.4997 7.87224 14.5 8.10505 14.5 8.45556L14.5 10.5444C14.5 10.895 14.4996 11.1278 14.485 11.3065C14.4709 11.4794 14.446 11.5572 14.4213 11.6057C14.352 11.7416 14.2416 11.852 14.1057 11.9213C14.0572 11.946 13.9794 11.9709 13.8065 11.985C13.6278 11.9996 13.395 12 13.0444 12H5.95556C5.60505 12 5.37224 11.9996 5.19352 11.985C5.02063 11.9709 4.94283 11.946 4.89434 11.9213C4.75845 11.852 4.64796 11.7416 4.57872 11.6057C4.55401 11.5572 4.52912 11.4794 4.51499 11.3065C4.50039 11.1278 4.5 10.8949 4.5 10.5444L4.50005 8.45556C4.50005 8.10505 4.50044 7.87224 4.51504 7.69352C4.52916 7.52063 4.55406 7.44283 4.57876 7.39434C4.64801 7.25845 4.75849 7.14796 4.89439 7.07872Z"
        fill="#303233" />
</svg>
