<svg width="16" height="16" viewBox="0 0 16 16" fill="none" xmlns="http://www.w3.org/2000/svg">
    <path fill-rule="evenodd" clip-rule="evenodd"
        d="M11 1.25C11.4142 1.25 11.75 1.58579 11.75 2V14C11.75 14.4142 11.4142 14.75 11 14.75C10.5858 14.75 10.25 14.4142 10.25 14V2C10.25 1.58579 10.5858 1.25 11 1.25ZM8 3.25C8.41421 3.25 8.75 3.58579 8.75 4V12C8.75 12.4142 8.41421 12.75 8 12.75C7.58579 12.75 7.25 12.4142 7.25 12V4C7.25 3.58579 7.58579 3.25 8 3.25ZM2 5.75C2.41421 5.75 2.75 6.08579 2.75 6.5V9.5C2.75 9.91421 2.41421 10.25 2 10.25C1.58579 10.25 1.25 9.91421 1.25 9.5V6.5C1.25 6.08579 1.58579 5.75 2 5.75ZM14 5.75C14.4142 5.75 14.75 6.08579 14.75 6.5V9.5C14.75 9.91421 14.4142 10.25 14 10.25C13.5858 10.25 13.25 9.91421 13.25 9.5V6.5C13.25 6.08579 13.5858 5.75 14 5.75ZM5 6.75C5.41421 6.75 5.75 7.08579 5.75 7.5V8.5C5.75 8.91421 5.41421 9.25 5 9.25C4.58579 9.25 4.25 8.91421 4.25 8.5V7.5C4.25 7.08579 4.58579 6.75 5 6.75Z"
        fill="#303233" />
</svg>
