<svg width="16" height="16" viewBox="0 0 16 16" fill="none" xmlns="http://www.w3.org/2000/svg">
    <path
        d="M10.8438 9.16166C11.0445 9.35143 11.0532 9.66789 10.8635 9.8685C10.4809 10.273 9.47491 11.1667 7.99992 11.1667C6.52584 11.1667 5.52019 10.2741 5.1371 9.86928C4.94728 9.66872 4.95599 9.35226 5.15655 9.16245C5.35711 8.97263 5.67358 8.98134 5.86339 9.1819C6.17908 9.51546 6.93777 10.1667 7.99992 10.1667C9.06274 10.1667 9.82171 9.51463 10.137 9.18131C10.3268 8.9807 10.6432 8.9719 10.8438 9.16166Z"
        fill="#303233" />
    <path
        d="M9.99503 5.25C9.58356 5.25 9.25 5.58579 9.25 6C9.25 6.41421 9.58356 6.75 9.99503 6.75H10.005C10.4164 6.75 10.75 6.41421 10.75 6C10.75 5.58579 10.4164 5.25 10.005 5.25H9.99503Z"
        fill="#303233" />
    <path fill-rule="evenodd" clip-rule="evenodd"
        d="M1 8C1 4.13401 4.13401 1 8 1C11.866 1 15 4.13401 15 8C15 11.866 11.866 15 8 15C4.13401 15 1 11.866 1 8ZM8 2C4.68629 2 2 4.68629 2 8C2 11.3137 4.68629 14 8 14C11.3137 14 14 11.3137 14 8C14 4.68629 11.3137 2 8 2Z"
        fill="#303233" />
    <path fill-rule="evenodd" clip-rule="evenodd"
        d="M5 6C5 5.72386 5.22386 5.5 5.5 5.5H6.5C6.77614 5.5 7 5.72386 7 6C7 6.27614 6.77614 6.5 6.5 6.5H5.5C5.22386 6.5 5 6.27614 5 6Z"
        fill="#303233" />
</svg>
