<svg width="16" height="16" viewBox="0 0 16 16" fill="none" xmlns="http://www.w3.org/2000/svg">
    <g clip-path="url(#clip0_53_10424)">
        <path fill-rule="evenodd" clip-rule="evenodd"
            d="M15.25 8C15.25 12.0041 12.0041 15.25 8 15.25C3.99594 15.25 0.75 12.0041 0.75 8C0.75 3.99594 3.99594 0.75 8 0.75C12.0041 0.75 15.25 3.99594 15.25 8ZM8 4.5C8.41421 4.5 8.75 4.83579 8.75 5.25V7.75C8.75 8.16421 8.41421 8.5 8 8.5C7.58579 8.5 7.25 8.16421 7.25 7.75V5.25C7.25 4.83579 7.58579 4.5 8 4.5ZM7.25 10.75C7.25 10.3358 7.58579 10 8 10H8.00667C8.42088 10 8.75667 10.3358 8.75667 10.75C8.75667 11.1642 8.42088 11.5 8.00667 11.5H8C7.58579 11.5 7.25 11.1642 7.25 10.75Z"
            fill="#303233" />
    </g>
    <defs>
        <clipPath id="clip0_53_10424">
            <rect width="16" height="16" fill="white" />
        </clipPath>
    </defs>
</svg>
