<svg width="24" height="24" viewBox="0 0 24 24" fill="none" xmlns="http://www.w3.org/2000/svg">
    <path
        d="M4.29289 12.2929C4.68342 11.9024 5.31658 11.9024 5.70711 12.2929L7 13.5858V8C7 7.44772 7.44772 7 8 7C8.55228 7 9 7.44772 9 8V13.5858L10.2929 12.2929C10.6834 11.9024 11.3166 11.9024 11.7071 12.2929C12.0976 12.6834 12.0976 13.3166 11.7071 13.7071L8.70711 16.7071C8.31658 17.0976 7.68342 17.0976 7.29289 16.7071L4.29289 13.7071C3.90237 13.3166 3.90237 12.6834 4.29289 12.2929Z"
        fill="#303233" />
    <path
        d="M15.2929 7.29289C15.6834 6.90237 16.3166 6.90237 16.7071 7.29289L19.7071 10.2929C20.0976 10.6834 20.0976 11.3166 19.7071 11.7071C19.3166 12.0976 18.6834 12.0976 18.2929 11.7071L17 10.4142V16C17 16.5523 16.5523 17 16 17C15.4477 17 15 16.5523 15 16V10.4142L13.7071 11.7071C13.3166 12.0976 12.6834 12.0976 12.2929 11.7071C11.9024 11.3166 11.9024 10.6834 12.2929 10.2929L15.2929 7.29289Z"
        fill="#303233" />
    <path fill-rule="evenodd" clip-rule="evenodd"
        d="M1 12C1 5.92487 5.92487 1 12 1C18.0751 1 23 5.92487 23 12C23 18.0751 18.0751 23 12 23C5.92487 23 1 18.0751 1 12ZM12 3C7.02944 3 3 7.02944 3 12C3 16.9706 7.02944 21 12 21C16.9706 21 21 16.9706 21 12C21 7.02944 16.9706 3 12 3Z"
        fill="#303233" />
</svg>
