<svg width="16" height="16" viewBox="0 0 16 16" fill="none" xmlns="http://www.w3.org/2000/svg">
    <g clip-path="url(#clip0_3720_169)">
        <path fill-rule="evenodd" clip-rule="evenodd"
            d="M0.75 2.8C0.75 1.66782 1.66782 0.75 2.8 0.75H4C4.41421 0.75 4.75 1.08579 4.75 1.5C4.75 1.91421 4.41421 2.25 4 2.25H2.8C2.49624 2.25 2.25 2.49624 2.25 2.8L2.25 4C2.25 4.41421 1.91421 4.75 1.5 4.75C1.08579 4.75 0.75 4.41421 0.75 4L0.75 2.8ZM5.75 1.5C5.75 1.08579 6.08579 0.75 6.5 0.75H9.5C9.91421 0.75 10.25 1.08579 10.25 1.5C10.25 1.91421 9.91421 2.25 9.5 2.25H6.5C6.08579 2.25 5.75 1.91421 5.75 1.5ZM11.25 1.5C11.25 1.08579 11.5858 0.75 12 0.75H13.2C14.3322 0.75 15.25 1.66782 15.25 2.8V4C15.25 4.41421 14.9142 4.75 14.5 4.75C14.0858 4.75 13.75 4.41421 13.75 4V2.8C13.75 2.49624 13.5038 2.25 13.2 2.25H12C11.5858 2.25 11.25 1.91421 11.25 1.5ZM1.5 5.75C1.91421 5.75 2.25 6.08579 2.25 6.5V9.5C2.25 9.91421 1.91421 10.25 1.5 10.25C1.08579 10.25 0.75 9.91421 0.75 9.5V6.5C0.75 6.08579 1.08579 5.75 1.5 5.75ZM14.5 5.75C14.9142 5.75 15.25 6.08579 15.25 6.5V9.5C15.25 9.91421 14.9142 10.25 14.5 10.25C14.0858 10.25 13.75 9.91421 13.75 9.5V6.5C13.75 6.08579 14.0858 5.75 14.5 5.75ZM1.5 11.25C1.91421 11.25 2.25 11.5858 2.25 12L2.25 13.2C2.25 13.5038 2.49624 13.75 2.8 13.75H4C4.41421 13.75 4.75 14.0858 4.75 14.5C4.75 14.9142 4.41421 15.25 4 15.25H2.8C1.66782 15.25 0.75 14.3322 0.75 13.2L0.75 12C0.75 11.5858 1.08579 11.25 1.5 11.25ZM14.5 11.25C14.9142 11.25 15.25 11.5858 15.25 12V13.2C15.25 14.3322 14.3322 15.25 13.2 15.25H12C11.5858 15.25 11.25 14.9142 11.25 14.5C11.25 14.0858 11.5858 13.75 12 13.75H13.2C13.5038 13.75 13.75 13.5038 13.75 13.2V12C13.75 11.5858 14.0858 11.25 14.5 11.25ZM5.75 14.5C5.75 14.0858 6.08579 13.75 6.5 13.75H9.5C9.91421 13.75 10.25 14.0858 10.25 14.5C10.25 14.9142 9.91421 15.25 9.5 15.25H6.5C6.08579 15.25 5.75 14.9142 5.75 14.5Z"
            fill="#303233" />
    </g>
    <defs>
        <clipPath id="clip0_3720_169">
            <rect width="16" height="16" fill="white" />
        </clipPath>
    </defs>
</svg>
