<svg width="24" height="24" viewBox="0 0 24 24" fill="none" xmlns="http://www.w3.org/2000/svg">
    <path
        d="M19.4419 5.44194L22.4419 2.44194C22.686 2.19786 22.686 1.80214 22.4419 1.55806C22.1979 1.31398 21.8021 1.31398 21.5581 1.55806L18.5581 4.55806C18.314 4.80214 18.314 5.19786 18.5581 5.44194C18.8021 5.68602 19.1979 5.68602 19.4419 5.44194Z"
        fill="#303233" />
    <path
        d="M7.25 8C7.25 5.37665 9.37665 3.25 12 3.25C14.6234 3.25 16.75 5.37665 16.75 8C16.75 10.6234 14.6234 12.75 12 12.75C9.37665 12.75 7.25 10.6234 7.25 8Z"
        fill="#303233" />
    <path
        d="M3.52563 20.8131C4.49693 17.0393 7.92175 14.25 11.9999 14.25C16.0781 14.25 19.5029 17.0393 20.4742 20.8131C20.532 21.0376 20.4827 21.2763 20.3406 21.4595C20.1986 21.6428 19.9798 21.75 19.7479 21.75H4.25196C4.0201 21.75 3.80127 21.6428 3.65921 21.4595C3.51715 21.2763 3.46784 21.0376 3.52563 20.8131Z"
        fill="#303233" />
    <path
        d="M22.4419 6.55806C22.686 6.80214 22.686 7.19786 22.4419 7.44194L19.4419 10.4419C19.1979 10.686 18.8021 10.686 18.5581 10.4419C18.314 10.1979 18.314 9.80214 18.5581 9.55806L21.5581 6.55806C21.8021 6.31398 22.1979 6.31398 22.4419 6.55806Z"
        fill="#303233" />
    <path
        d="M6.44194 13.4419C6.68602 13.1979 6.68602 12.8021 6.44194 12.5581C6.19786 12.314 5.80214 12.314 5.55806 12.5581L1.55806 16.5581C1.31398 16.8021 1.31398 17.1979 1.55806 17.4419C1.80214 17.686 2.19786 17.686 2.44194 17.4419L6.44194 13.4419Z"
        fill="#303233" />
    <path
        d="M22.4419 11.5581C22.686 11.8021 22.686 12.1979 22.4419 12.4419L20.4419 14.4419C20.1979 14.686 19.8021 14.686 19.5581 14.4419C19.314 14.1979 19.314 13.8021 19.5581 13.5581L21.5581 11.5581C21.8021 11.314 22.1979 11.314 22.4419 11.5581Z"
        fill="#303233" />
    <path
        d="M4.94194 9.94194C5.18602 9.69786 5.18602 9.30214 4.94194 9.05806C4.69786 8.81398 4.30214 8.81398 4.05806 9.05806L1.55806 11.5581C1.31398 11.8021 1.31398 12.1979 1.55806 12.4419C1.80214 12.686 2.19786 12.686 2.44194 12.4419L4.94194 9.94194Z"
        fill="#303233" />
    <path
        d="M7.44194 1.55806C7.68602 1.80214 7.68602 2.19786 7.44194 2.44194L2.44194 7.44194C2.19786 7.68602 1.80214 7.68602 1.55806 7.44194C1.31398 7.19786 1.31398 6.80214 1.55806 6.55806L6.55806 1.55806C6.80214 1.31398 7.19786 1.31398 7.44194 1.55806Z"
        fill="#303233" />
    <path
        d="M2.625 2C2.625 1.65482 2.34518 1.375 2 1.375C1.65482 1.375 1.375 1.65482 1.375 2C1.375 2.34518 1.65482 2.626 2 2.626C2.34518 2.626 2.625 2.34518 2.625 2Z"
        fill="#303233" />
    <path
        d="M17 1.375C17.3452 1.375 17.625 1.65482 17.625 2C17.625 2.34518 17.3452 2.626 17 2.626C16.6548 2.626 16.375 2.34618 16.375 2.001C16.375 1.65582 16.6548 1.375 17 1.375Z"
        fill="#303233" />
    <path
        d="M22.625 17C22.625 16.6548 22.3452 16.375 22 16.375C21.6548 16.375 21.375 16.6548 21.375 17V17.001C21.375 17.3462 21.6548 17.626 22 17.626C22.3452 17.626 22.625 17.3462 22.625 17.001V17Z"
        fill="#303233" />
</svg>
