<svg width="16" height="16" viewBox="0 0 16 16" fill="none" xmlns="http://www.w3.org/2000/svg">
    <path
        d="M5.5 9.5C5.22386 9.5 5 9.72386 5 10C5 10.2761 5.22386 10.5 5.5 10.5H10.5C10.7761 10.5 11 10.2761 11 10C11 9.72386 10.7761 9.5 10.5 9.5H5.5Z"
        fill="#303233" />
    <path
        d="M9.25 6C9.25 5.58579 9.58356 5.25 9.99503 5.25H10.005C10.4164 5.25 10.75 5.58579 10.75 6C10.75 6.41421 10.4164 6.75 10.005 6.75H9.99503C9.58356 6.75 9.25 6.41421 9.25 6Z"
        fill="#303233" />
    <path
        d="M5.99503 5.25C5.58356 5.25 5.25 5.58579 5.25 6C5.25 6.41421 5.58356 6.75 5.99503 6.75H6.00497C6.41644 6.75 6.75 6.41421 6.75 6C6.75 5.58579 6.41644 5.25 6.00497 5.25H5.99503Z"
        fill="#303233" />
    <path fill-rule="evenodd" clip-rule="evenodd"
        d="M8 1C4.13401 1 1 4.13401 1 8C1 11.866 4.13401 15 8 15C11.866 15 15 11.866 15 8C15 4.13401 11.866 1 8 1ZM2 8C2 4.68629 4.68629 2 8 2C11.3137 2 14 4.68629 14 8C14 11.3137 11.3137 14 8 14C4.68629 14 2 11.3137 2 8Z"
        fill="#303233" />
</svg>
