<svg width="16" height="16" viewBox="0 0 16 16" fill="none" xmlns="http://www.w3.org/2000/svg">
    <path
        d="M11.25 4H4.75C4.33579 4 4 4.33579 4 4.75C4 5.16421 4.33579 5.5 4.75 5.5H9.43934L4.21967 10.7197C3.92678 11.0126 3.92678 11.4874 4.21967 11.7803C4.51256 12.0732 4.98744 12.0732 5.28033 11.7803L10.5 6.56066V11.25C10.5 11.6642 10.8358 12 11.25 12C11.6642 12 12 11.6642 12 11.25V4.75C12 4.5437 11.9167 4.35686 11.7819 4.22126L11.7803 4.21967L11.7787 4.21808C11.7072 4.14696 11.6249 4.09324 11.5371 4.05691C11.4487 4.02024 11.3517 4 11.25 4Z"
        fill="#303233" />
</svg>
