<svg width="24" height="24" viewBox="0 0 24 24" fill="none" xmlns="http://www.w3.org/2000/svg">
    <path fill-rule="evenodd" clip-rule="evenodd"
        d="M12 3.25C9.37665 3.25 7.25 5.37665 7.25 8C7.25 10.6234 9.37665 12.75 12 12.75C14.6234 12.75 16.75 10.6234 16.75 8C16.75 5.37665 14.6234 3.25 12 3.25ZM8.75 8C8.75 6.20507 10.2051 4.75 12 4.75C13.7949 4.75 15.25 6.20507 15.25 8C15.25 9.79493 13.7949 11.25 12 11.25C10.2051 11.25 8.75 9.79493 8.75 8Z"
        fill="#303233" />
    <path
        d="M4.97846 21.1869C5.78333 18.0598 8.62292 15.75 12.0001 15.75C15.3773 15.75 18.2169 18.0598 19.0217 21.1869C19.125 21.5881 19.5339 21.8296 19.935 21.7263C20.3361 21.6231 20.5776 21.2142 20.4744 20.8131C19.5031 17.0393 16.0783 14.25 12.0001 14.25C7.92192 14.25 4.49711 17.0393 3.52581 20.8131C3.42256 21.2142 3.66405 21.6231 4.06519 21.7263C4.46633 21.8296 4.87522 21.5881 4.97846 21.1869Z"
        fill="#303233" />
</svg>
