<svg width="16" height="16" viewBox="0 0 16 16" fill="none" xmlns="http://www.w3.org/2000/svg">
    <path
        d="M8 6.5C7.17157 6.5 6.5 7.17157 6.5 8C6.5 8.82843 7.17157 9.5 8 9.5C8.82843 9.5 9.5 8.82843 9.5 8C9.5 7.17157 8.82843 6.5 8 6.5Z"
        fill="#303233" />
    <path fill-rule="evenodd" clip-rule="evenodd"
        d="M3.53642 4.70314C4.66061 3.78965 6.16424 3 8 3C9.83576 3 11.3394 3.78965 12.4636 4.70314C13.5863 5.61543 14.3581 6.67255 14.7452 7.26942L14.7601 7.29225C14.8381 7.41198 14.927 7.54844 14.9725 7.7418C15.0092 7.89746 15.0092 8.10254 14.9725 8.2582C14.927 8.45156 14.8381 8.58802 14.7601 8.70774L14.7452 8.73058C14.3581 9.32745 13.5863 10.3846 12.4636 11.2969C11.3394 12.2104 9.83576 13 8 13C6.16424 13 4.66061 12.2104 3.53642 11.2969C2.4137 10.3846 1.64193 9.32745 1.25476 8.73058L1.2399 8.70774C1.1619 8.58802 1.07301 8.45156 1.02748 8.2582C0.990838 8.10254 0.990838 7.89746 1.02748 7.7418C1.07301 7.54844 1.1619 7.41198 1.2399 7.29226L1.25476 7.26942C1.64193 6.67255 2.4137 5.61543 3.53642 4.70314ZM5.5 8C5.5 6.61929 6.61929 5.5 8 5.5C9.38071 5.5 10.5 6.61929 10.5 8C10.5 9.38071 9.38071 10.5 8 10.5C6.61929 10.5 5.5 9.38071 5.5 8Z"
        fill="#303233" />
</svg>
