<svg width="24" height="24" viewBox="0 0 24 24" fill="none" xmlns="http://www.w3.org/2000/svg">
    <path
        d="M11.5835 23.6238C11.5838 23.6239 11.584 23.624 12 23L12.416 23.624C12.1641 23.792 11.8355 23.7917 11.5835 23.6238Z"
        fill="#303233" />
    <path fill-rule="evenodd" clip-rule="evenodd"
        d="M12 5.25C9.37665 5.25 7.25 7.37665 7.25 10C7.25 12.6234 9.37665 14.75 12 14.75C14.6234 14.75 16.75 12.6234 16.75 10C16.75 7.37665 14.6234 5.25 12 5.25ZM8.75 10C8.75 8.20507 10.2051 6.75 12 6.75C13.7949 6.75 15.25 8.20507 15.25 10C15.25 11.7949 13.7949 13.25 12 13.25C10.2051 13.25 8.75 11.7949 8.75 10Z"
        fill="#303233" />
    <path fill-rule="evenodd" clip-rule="evenodd"
        d="M11.5835 23.6238L12 23C12.416 23.624 12.4169 23.6235 12.4171 23.6233L12.419 23.6221L12.4252 23.6179L12.4472 23.603C12.4661 23.5902 12.4932 23.5716 12.5281 23.5475C12.5979 23.4992 12.6986 23.4284 12.8258 23.3365C13.0803 23.1528 13.4413 22.8839 13.8734 22.5398C14.7365 21.8526 15.8892 20.8602 17.0445 19.6408C19.3243 17.2343 21.75 13.8015 21.75 10C21.75 7.41414 20.7228 4.93419 18.8943 3.10571C17.0658 1.27723 14.5859 0.25 12 0.25C9.41414 0.25 6.93419 1.27723 5.10571 3.10571C3.27723 4.93419 2.25 7.41414 2.25 10C2.25 13.8015 4.6757 17.2343 6.95554 19.6408C8.11079 20.8602 9.2635 21.8526 10.1266 22.5398C10.5587 22.8839 10.9197 23.1528 11.1742 23.3365C11.3014 23.4284 11.4021 23.4992 11.4719 23.5475C11.5068 23.5716 11.5339 23.5902 11.5528 23.603L11.5748 23.6179L11.581 23.6221L11.5835 23.6238ZM6.16637 4.16637C7.71354 2.61919 9.81196 1.75 12 1.75C14.188 1.75 16.2865 2.61919 17.8336 4.16637C19.3808 5.71354 20.25 7.81196 20.25 10C20.25 13.1985 18.1757 16.2657 15.9555 18.6092C14.8608 19.7648 13.7635 20.7099 12.9391 21.3664C12.5568 21.6708 12.2344 21.9122 12 22.0825C11.7656 21.9122 11.4432 21.6708 11.0609 21.3664C10.2365 20.7099 9.13921 19.7648 8.04446 18.6092C5.8243 16.2657 3.75 13.1985 3.75 10C3.75 7.81196 4.61919 5.71354 6.16637 4.16637Z"
        fill="#303233" />
</svg>
