<svg width="24" height="24" viewBox="0 0 24 24" fill="none" xmlns="http://www.w3.org/2000/svg">
<path d="M15.4848 12.5541C16.2191 11.2823 18.0543 11.2823 18.7886 12.5541L23.7456 21.1381C24.4798 22.4098 23.5617 23.9993 22.0932 23.9994H12.1802C10.7118 23.9992 9.79457 22.4098 10.5288 21.1381L15.4848 12.5541ZM16.938 20.0502C16.5238 20.0502 16.188 20.386 16.188 20.8002C16.1882 21.2142 16.5239 21.5502 16.938 21.5502C17.3519 21.55 17.6878 21.2141 17.688 20.8002C17.688 20.3861 17.352 20.0504 16.938 20.0502ZM16.938 15.3002C16.5238 15.3002 16.188 15.636 16.188 16.0502V18.5502C16.1881 18.9643 16.5238 19.3002 16.938 19.3002C17.3519 19.3 17.6878 18.9642 17.688 18.5502V16.0502C17.688 15.6361 17.352 15.3004 16.938 15.3002Z" fill="#303233"/>
</svg>
