<svg width="16" height="16" viewBox="0 0 16 16" fill="none" xmlns="http://www.w3.org/2000/svg">
    <path
        d="M7 13C10.3137 13 13 10.3137 13 7C13 3.68629 10.3137 1 7 1C3.68629 1 1 3.68629 1 7C1 7.7981 1.15582 8.5598 1.43871 9.25634C1.49285 9.38964 1.51992 9.45631 1.532 9.51019C1.54381 9.56289 1.54813 9.6019 1.54814 9.65591C1.54814 9.71113 1.53812 9.77128 1.51807 9.89157L1.12275 12.2635C1.08135 12.5119 1.06065 12.6361 1.09917 12.7259C1.13289 12.8045 1.19552 12.8671 1.27412 12.9008C1.36393 12.9393 1.48812 12.9186 1.73651 12.8772L4.10843 12.4819C4.22872 12.4619 4.28887 12.4519 4.34409 12.4519C4.3981 12.4519 4.43711 12.4562 4.48981 12.468C4.54369 12.4801 4.61034 12.5071 4.74364 12.5613C5.44019 12.8442 6.2019 13 7 13Z"
        fill="#303233" />
    <path
        d="M10.5002 15C9.28716 15 8.18623 14.52 7.37695 13.7397C10.8049 13.5511 13.5513 10.8047 13.7399 7.37677C14.5202 8.18605 15.0002 9.28698 15.0002 10.5C15.0002 11.0986 14.8833 11.6699 14.6712 12.1923C14.6306 12.2922 14.6103 12.3422 14.6012 12.3827C14.5923 12.4222 14.5891 12.4514 14.5891 12.4919C14.5891 12.5334 14.5966 12.5785 14.6116 12.6687L14.9081 14.4476C14.9392 14.6339 14.9547 14.7271 14.9258 14.7944C14.9005 14.8534 14.8536 14.9003 14.7946 14.9256C14.7272 14.9545 14.6341 14.939 14.4478 14.9079L12.6689 14.6115C12.5786 14.5964 12.5335 14.5889 12.4921 14.5889C12.4516 14.5889 12.4224 14.5922 12.3828 14.601C12.3424 14.6101 12.2924 14.6304 12.1925 14.671C11.67 14.8831 11.0988 15 10.5002 15Z"
        fill="#303233" />
</svg>
