<svg width="24" height="24" viewBox="0 0 24 24" fill="none" xmlns="http://www.w3.org/2000/svg">
    <path fill-rule="evenodd" clip-rule="evenodd"
        d="M1 12C1 5.92487 5.92487 1 12 1C18.0751 1 23 5.92487 23 12C23 18.0751 18.0751 23 12 23C5.92487 23 1 18.0751 1 12ZM3.61517 15.2769C3.21839 14.2624 3.00042 13.1583 3 12.0033L3 11.9967C3.00042 10.8417 3.21839 9.7376 3.61517 8.7231L6.40147 9.83762C6.14218 10.5085 6 11.2376 6 12C6 12.7624 6.14218 13.4915 6.40147 14.1624L3.61517 15.2769ZM12.0026 3C13.1577 3.00032 14.2619 3.21825 15.2765 3.61501L14.162 6.40132C13.4912 6.14212 12.7622 6 12 6C11.2375 6 10.5082 6.14224 9.83722 6.40163L8.72269 3.61533C9.73752 3.21836 10.842 3.00032 11.9974 3L12.0026 3ZM17.5985 9.83763C17.8578 10.5085 18 11.2376 18 12C18 12.7624 17.8578 13.4915 17.5985 14.1624L20.3848 15.2769C20.782 14.2614 21 13.1562 21 12C21 10.8438 20.782 9.73857 20.3848 8.7231L17.5985 9.83763ZM15.2773 20.3847C14.2617 20.7819 13.1563 21 12 21C10.844 21 9.73887 20.782 8.72351 20.385L9.83803 17.5987C10.5088 17.8579 11.2378 18 12 18C12.7625 18 13.4918 17.8578 14.1628 17.5984L15.2773 20.3847ZM12 8C9.79086 8 8 9.79086 8 12C8 14.2091 9.79086 16 12 16C14.2091 16 16 14.2091 16 12C16 9.79086 14.2091 8 12 8Z"
        fill="#303233" />
</svg>
