<svg width="16" height="16" viewBox="0 0 16 16" fill="none" xmlns="http://www.w3.org/2000/svg">
    <g clip-path="url(#clip0_53_3005)">
        <path fill-rule="evenodd" clip-rule="evenodd"
            d="M15.25 8C15.25 12.0041 12.0041 15.25 8 15.25C3.99594 15.25 0.75 12.0041 0.75 8C0.75 3.99594 3.99594 0.75 8 0.75C12.0041 0.75 15.25 3.99594 15.25 8ZM7.99963 9.25C9.85813 9.25 11.4911 10.2157 12.4241 11.6727C11.3693 12.9419 9.77885 13.75 7.99963 13.75C6.2204 13.75 4.62992 12.9419 3.5752 11.6727C4.50818 10.2157 6.14113 9.25 7.99963 9.25ZM7.99963 3.25C6.48084 3.25 5.24963 4.48122 5.24963 6C5.24963 7.51878 6.48084 8.75 7.99963 8.75C9.51841 8.75 10.7496 7.51878 10.7496 6C10.7496 4.48122 9.51841 3.25 7.99963 3.25Z"
            fill="#303233" />
    </g>
    <defs>
        <clipPath id="clip0_53_3005">
            <rect width="16" height="16" fill="white" />
        </clipPath>
    </defs>
</svg>
