<svg width="16" height="16" viewBox="0 0 16 16" fill="none" xmlns="http://www.w3.org/2000/svg">
    <path
        d="M7.6786 1H8.3214C8.86329 0.999995 9.30038 0.999992 9.65431 1.02891C10.0187 1.05868 10.3388 1.12159 10.635 1.27248C10.9768 1.44663 11.2721 1.69614 11.5 2H4.5C4.72789 1.69614 5.02324 1.44663 5.36502 1.27248C5.66117 1.12159 5.98126 1.05868 6.34569 1.02891C6.69963 0.999992 7.13671 0.999995 7.6786 1Z"
        fill="#303233" />
    <path
        d="M9.8214 3H6.1786C5.6367 3 5.19963 2.99999 4.84569 3.02891C4.48126 3.05868 4.16117 3.12159 3.86502 3.27248C3.52324 3.44663 3.22789 3.69614 3 4H13C12.7721 3.69614 12.4768 3.44663 12.135 3.27248C11.8388 3.12159 11.5187 3.05868 11.1543 3.02891C10.8004 2.99999 10.3633 3 9.8214 3Z"
        fill="#303233" />
    <path
        d="M7.27735 7.51823C6.94507 7.29671 6.5 7.5349 6.5 7.93425V12.0657C6.5 12.4651 6.94507 12.7033 7.27735 12.4818L10.376 10.416C10.6728 10.2181 10.6728 9.78188 10.376 9.58397L7.27735 7.51823Z"
        fill="#303233" />
    <path fill-rule="evenodd" clip-rule="evenodd"
        d="M4.6786 5H11.3214C11.8633 4.99999 12.3004 4.99999 12.6543 5.02891C13.0187 5.05868 13.3388 5.12159 13.635 5.27248C14.1054 5.51217 14.4878 5.89462 14.7275 6.36502C14.8784 6.66117 14.9413 6.98126 14.9711 7.34569C15 7.69961 15 8.13667 15 8.67853V11.3214C15 11.8633 15 12.3004 14.9711 12.6543C14.9413 13.0187 14.8784 13.3388 14.7275 13.635C14.4878 14.1054 14.1054 14.4878 13.635 14.7275C13.3388 14.8784 13.0187 14.9413 12.6543 14.9711C12.3004 15 11.8633 15 11.3215 15H4.67858C4.13672 15 3.69961 15 3.34569 14.9711C2.98126 14.9413 2.66117 14.8784 2.36502 14.7275C1.89462 14.4878 1.51217 14.1054 1.27248 13.635C1.12159 13.3388 1.05868 13.0187 1.02891 12.6543C0.999991 12.3004 0.999995 11.8633 1 11.3214V8.6786C0.999995 8.13671 0.999991 7.69963 1.02891 7.34569C1.05868 6.98126 1.12159 6.66117 1.27248 6.36502C1.51217 5.89462 1.89462 5.51217 2.36502 5.27248C2.66117 5.12159 2.98126 5.05868 3.34569 5.02891C3.69963 4.99999 4.1367 4.99999 4.6786 5ZM3.42712 6.02559C3.12454 6.05031 2.95069 6.0964 2.81901 6.16349C2.53677 6.3073 2.3073 6.53677 2.16349 6.81901C2.0964 6.95069 2.05031 7.12454 2.02559 7.42712C2.00039 7.73554 2 8.1317 2 8.7V11.3C2 11.8683 2.00039 12.2645 2.02559 12.5729C2.05031 12.8755 2.0964 13.0493 2.16349 13.181C2.3073 13.4632 2.53677 13.6927 2.81901 13.8365C2.95069 13.9036 3.12454 13.9497 3.42712 13.9744C3.73554 13.9996 4.1317 14 4.7 14H11.3C11.8683 14 12.2645 13.9996 12.5729 13.9744C12.8755 13.9497 13.0493 13.9036 13.181 13.8365C13.4632 13.6927 13.6927 13.4632 13.8365 13.181C13.9036 13.0493 13.9497 12.8755 13.9744 12.5729C13.9996 12.2645 14 11.8683 14 11.3V8.7C14 8.1317 13.9996 7.73554 13.9744 7.42712C13.9497 7.12454 13.9036 6.95069 13.8365 6.81901C13.6927 6.53677 13.4632 6.3073 13.181 6.16349C13.0493 6.0964 12.8755 6.05031 12.5729 6.02559C12.2645 6.00039 11.8683 6 11.3 6H4.7C4.1317 6 3.73554 6.00039 3.42712 6.02559Z"
        fill="#303233" />
</svg>
