<svg width="24" height="24" viewBox="0 0 24 24" fill="none" xmlns="http://www.w3.org/2000/svg">
    <path
        d="M4 2.25C2.48122 2.25 1.25 3.48122 1.25 5V19C1.25 20.5188 2.48122 21.75 4 21.75H12.75C13.1642 21.75 13.5 21.4142 13.5 21C13.5 20.5858 13.1642 20.25 12.75 20.25H4C3.30964 20.25 2.75 19.6904 2.75 19V7C2.75 6.30964 3.30964 5.75 4 5.75H20C20.6904 5.75 21.25 6.30964 21.25 7V12C21.25 12.4142 21.5858 12.75 22 12.75C22.4142 12.75 22.75 12.4142 22.75 12V7C22.75 5.48122 21.5188 4.25 20 4.25H13.8284C13.2317 4.25 12.6594 4.01295 12.2374 3.59099L11.409 2.76256C11.0808 2.43437 10.6357 2.25 10.1716 2.25H4Z"
        fill="#303233" />
    <path fill-rule="evenodd" clip-rule="evenodd"
        d="M18.7738 22.4742L18.54 21.9484C18.4568 21.7608 18.3161 21.6044 18.1383 21.5018C17.9604 21.3992 17.7545 21.3554 17.5503 21.3769L16.9783 21.4378C16.808 21.4557 16.6362 21.4239 16.4837 21.3462C16.3311 21.2685 16.2044 21.1482 16.1187 21C16.033 20.8518 15.9922 20.6819 16.0012 20.5109C16.0102 20.34 16.0686 20.1753 16.1694 20.0369L16.508 19.5716C16.6288 19.4055 16.6939 19.2054 16.6938 19C16.6939 18.7946 16.6288 18.5945 16.508 18.4284L16.1694 17.9631C16.0686 17.8247 16.0102 17.66 16.0012 17.4891C15.9922 17.3181 16.033 17.1482 16.1187 17C16.2043 16.8517 16.331 16.7314 16.4836 16.6537C16.6362 16.576 16.808 16.5442 16.9783 16.5622L17.552 16.6231C17.7563 16.6446 17.9621 16.6008 18.14 16.4982C18.3172 16.3953 18.4572 16.2389 18.54 16.0516L18.7738 15.5258C18.8433 15.3693 18.9567 15.2363 19.1003 15.143C19.2439 15.0496 19.4115 15 19.5827 15C19.754 15 19.9215 15.0496 20.0651 15.143C20.2087 15.2363 20.3221 15.3693 20.3916 15.5258L20.6272 16.0516C20.71 16.2389 20.85 16.3953 21.0272 16.4982C21.2051 16.6008 21.4109 16.6446 21.6152 16.6231L22.1872 16.5622C22.3574 16.5442 22.5293 16.576 22.6818 16.6537C22.8344 16.7314 22.9612 16.8517 23.0467 17C23.1324 17.1482 23.1732 17.3181 23.1642 17.4891C23.1552 17.66 23.0968 17.8247 22.996 17.9631L22.6574 18.4284C22.5366 18.5945 22.4716 18.7946 22.4716 19C22.4706 19.2059 22.535 19.4069 22.6556 19.5738L22.9943 20.0391C23.095 20.1775 23.1534 20.3422 23.1624 20.5132C23.1714 20.6841 23.1306 20.854 23.0449 21.0022C22.9594 21.1505 22.8326 21.2708 22.6801 21.3485C22.5275 21.4262 22.3556 21.458 22.1854 21.44L21.6134 21.3791C21.4091 21.3577 21.2033 21.4014 21.0254 21.504C20.8486 21.6063 20.7086 21.7619 20.6254 21.9484L20.3916 22.4742C20.3221 22.6307 20.2087 22.7637 20.0651 22.857C19.9215 22.9504 19.754 23 19.5827 23C19.4115 23 19.2439 22.9504 19.1003 22.857C18.9567 22.7637 18.8433 22.6307 18.7738 22.4742ZM19.5867 20.3333C20.323 20.3333 20.92 19.7364 20.92 19C20.92 18.2636 20.323 17.6667 19.5867 17.6667C18.8503 17.6667 18.2533 18.2636 18.2533 19C18.2533 19.7364 18.8503 20.3333 19.5867 20.3333Z"
        fill="#303233" />
</svg>
