<svg width="16" height="16" viewBox="0 0 16 16" fill="none" xmlns="http://www.w3.org/2000/svg">
    <path fill-rule="evenodd" clip-rule="evenodd"
        d="M8.60196 1.57994C8.24561 1.3113 7.75439 1.3113 7.39804 1.57994L2.39804 5.34917C2.14739 5.53812 2 5.8338 2 6.1477V13.1C2 13.3336 2.09558 13.5608 2.27105 13.7309C2.44706 13.9015 2.68901 14 2.94444 14H5.5V10.5C5.5 9.67157 6.17157 9 7 9H9C9.82843 9 10.5 9.67157 10.5 10.5V14H13.0556C13.311 14 13.5529 13.9015 13.7289 13.7309C13.9044 13.5608 14 13.3336 14 13.1V6.14769C14 5.8338 13.8526 5.53812 13.602 5.34917L8.60196 1.57994ZM6.79607 0.781417C7.50878 0.244146 8.49122 0.244146 9.20393 0.781417L14.2039 4.55065C14.7052 4.92855 15 5.51991 15 6.14769V13.1C15 13.609 14.7912 14.094 14.4249 14.449C14.0592 14.8035 13.5663 15 13.0556 15H10C9.72386 15 9.5 14.7761 9.5 14.5V10.5C9.5 10.2239 9.27614 10 9 10H7C6.72386 10 6.5 10.2239 6.5 10.5V14.5C6.5 14.7761 6.27614 15 6 15H2.94444C2.4337 15 1.94085 14.8035 1.57508 14.449C1.20878 14.094 1 13.609 1 13.1V6.1477C1 5.51991 1.29477 4.92855 1.79607 4.55065L6.79607 0.781417Z"
        fill="#303233" />
</svg>
