<svg width="24" height="24" viewBox="0 0 24 24" fill="none" xmlns="http://www.w3.org/2000/svg">
    <path fill-rule="evenodd" clip-rule="evenodd"
        d="M8.162 12.424C8.326 12.26 8.489 12.082 8.563 12C8.489 11.918 8.326 11.74 8.162 11.576L5.23 8.644C4.8 8.214 4.596 7.99 4.442 7.739C4.278 7.471 4.156 7.178 4.083 6.872C4.014 6.586 4 6.283 4 5.675V3.6C4 2.795 4.061 2.4 4.218 2.092C4.41 1.716 4.716 1.41 5.092 1.218C5.4 1.061 5.795 1 6.6 1H17.4C18.205 1 18.6 1.061 18.908 1.218C19.284 1.41 19.59 1.716 19.782 2.092C19.939 2.4 20 2.795 20 3.6V5.675C20 6.283 19.986 6.586 19.917 6.872C19.844 7.178 19.722 7.471 19.558 7.739C19.404 7.99 19.2 8.214 18.77 8.644L15.838 11.576C15.674 11.74 15.511 11.918 15.437 12C15.511 12.082 15.674 12.26 15.839 12.424L18.77 15.356C19.2 15.786 19.404 16.01 19.558 16.261C19.722 16.53 19.844 16.822 19.917 17.128C19.986 17.414 20 17.717 20 18.325V20.4C20 21.205 19.939 21.6 19.782 21.908C19.59 22.284 19.284 22.59 18.908 22.782C18.6 22.939 18.205 23 17.4 23H6.6C5.795 23 5.4 22.939 5.092 22.782C4.716 22.59 4.41 22.284 4.218 21.908C4.061 21.6 4 21.205 4 20.4V18.325C4 17.717 4.014 17.414 4.083 17.128C4.156 16.822 4.278 16.529 4.442 16.261C4.596 16.01 4.8 15.786 5.23 15.356L8.162 12.424ZM11.2929 9.20711C11.6834 9.59763 12.3166 9.59763 12.7071 9.20711L15.7071 6.20711C15.9931 5.92111 16.0786 5.49099 15.9239 5.11732C15.7691 4.74364 15.4044 4.5 15 4.5L8.99997 4.5C8.59551 4.5 8.23087 4.74364 8.07609 5.11732C7.92131 5.49099 8.00687 5.92111 8.29286 6.20711L11.2929 9.20711Z"
        fill="#303233" />
</svg>
