<svg width="16" height="16" viewBox="0 0 16 16" fill="none" xmlns="http://www.w3.org/2000/svg">
    <path fill-rule="evenodd" clip-rule="evenodd"
        d="M8.5 7.75C8.5 7.47386 8.27614 7.25 8 7.25C7.72386 7.25 7.5 7.47386 7.5 7.75V14.0429L6.35355 12.8964C6.15829 12.7012 5.84171 12.7012 5.64645 12.8964C5.45118 13.0917 5.45118 13.4083 5.64645 13.6036L7.64645 15.6036C7.69439 15.6515 7.74964 15.6877 7.80861 15.7121C7.86669 15.7361 7.9303 15.7496 7.997 15.75L8 15.75L8.003 15.75C8.12996 15.7492 8.25669 15.7004 8.35355 15.6036L10.3536 13.6036C10.5488 13.4083 10.5488 13.0917 10.3536 12.8964C10.1583 12.7012 9.84171 12.7012 9.64645 12.8964L8.5 14.0429V7.75ZM11.5701 11.4994C11.5619 11.4998 11.5537 11.5 11.5454 11.5L3.54549 11.5C1.86581 11.5 0.5 10.1442 0.5 8.46667C0.5 7.07001 1.44656 5.89665 2.73289 5.54264C2.85462 3.01138 4.95467 1 7.52277 1C9.36082 1 10.9576 2.02988 11.7624 3.54178C13.8473 3.67631 15.5 5.40245 15.5 7.51667C15.5 9.69547 13.7448 11.4621 11.5701 11.4994Z"
        fill="#303233" />
</svg>
