<svg width="24" height="24" viewBox="0 0 24 24" fill="none" xmlns="http://www.w3.org/2000/svg">
    <path
        d="M7.51493 9.66265C7.18015 9.41874 7.10649 8.94962 7.3504 8.61483C8.39462 7.18157 10.0885 6.24765 12.0005 6.24765C14.7785 6.24765 17.0965 8.2178 17.6333 10.8371C17.928 10.5869 18.3703 10.6009 18.6484 10.8791C18.9413 11.172 18.9413 11.6469 18.6484 11.9397L17.472 13.1162C17.3313 13.2569 17.1405 13.3359 16.9416 13.3359C16.7427 13.3359 16.552 13.2569 16.4113 13.1162L15.2348 11.9397C14.9419 11.6469 14.9419 11.172 15.2348 10.8791C15.4563 10.6576 15.7819 10.6036 16.0542 10.7171C15.5109 8.9957 13.9014 7.74765 12.0005 7.74765C10.5882 7.74765 9.3368 8.43569 8.56276 9.49811C8.31884 9.8329 7.84972 9.90656 7.51493 9.66265Z"
        fill="#303233" />
    <path
        d="M5.35248 13.1162C5.05959 12.8233 5.05959 12.3484 5.35248 12.0556L6.52895 10.8791C6.66961 10.7384 6.86037 10.6594 7.05928 10.6594C7.25819 10.6594 7.44896 10.7384 7.58961 10.8791L8.76608 12.0556C9.05898 12.3484 9.05898 12.8233 8.76608 13.1162C8.54458 13.3377 8.21901 13.3917 7.94677 13.2782C8.49004 14.9996 10.0995 16.2477 12.0005 16.2477C13.4127 16.2477 14.6641 15.5596 15.4382 14.4972C15.6821 14.1624 16.1512 14.0887 16.486 14.3326C16.8208 14.5766 16.8944 15.0457 16.6505 15.3805C15.6063 16.8137 13.9124 17.7477 12.0005 17.7477C9.22238 17.7477 6.90445 15.7775 6.36763 13.1582C6.07295 13.4084 5.63065 13.3944 5.35248 13.1162Z"
        fill="#303233" />
    <path fill-rule="evenodd" clip-rule="evenodd"
        d="M17.2321 2.25H6.7679C5.95507 2.24999 5.29944 2.24999 4.76853 2.29336C4.2219 2.33803 3.74176 2.43239 3.29754 2.65873C2.59193 3.01825 2.01825 3.59193 1.65873 4.29754C1.43239 4.74176 1.33803 5.2219 1.29336 5.76853C1.24999 6.29944 1.24999 6.95505 1.25 7.76788V16.2321C1.24999 17.0449 1.24999 17.7006 1.29336 18.2315C1.33803 18.7781 1.43239 19.2582 1.65873 19.7025C2.01825 20.4081 2.59193 20.9817 3.29754 21.3413C3.74176 21.5676 4.2219 21.662 4.76853 21.7066C5.29944 21.75 5.95505 21.75 6.76788 21.75H17.2321C18.045 21.75 18.7006 21.75 19.2315 21.7066C19.7781 21.662 20.2582 21.5676 20.7025 21.3413C21.4081 20.9817 21.9817 20.4081 22.3413 19.7025C22.5676 19.2582 22.662 18.7781 22.7066 18.2315C22.75 17.7006 22.75 17.045 22.75 16.2321V7.76788C22.75 6.95505 22.75 6.29944 22.7066 5.76853C22.662 5.2219 22.5676 4.74176 22.3413 4.29754C21.9817 3.59193 21.4081 3.01825 20.7025 2.65873C20.2582 2.43239 19.7781 2.33803 19.2315 2.29336C18.7006 2.24999 18.0449 2.24999 17.2321 2.25ZM3.97852 3.99524C4.17604 3.8946 4.43681 3.82547 4.89068 3.78838C5.35331 3.75058 5.94755 3.75 6.8 3.75H17.2C18.0525 3.75 18.6467 3.75058 19.1093 3.78838C19.5632 3.82547 19.824 3.8946 20.0215 3.99524C20.4448 4.21095 20.789 4.55516 21.0048 4.97852C21.1054 5.17604 21.1745 5.43681 21.2116 5.89068C21.2494 6.35331 21.25 6.94755 21.25 7.8V16.2C21.25 17.0525 21.2494 17.6467 21.2116 18.1093C21.1745 18.5632 21.1054 18.824 21.0048 19.0215C20.789 19.4448 20.4448 19.789 20.0215 20.0048C19.824 20.1054 19.5632 20.1745 19.1093 20.2116C18.6467 20.2494 18.0525 20.25 17.2 20.25H6.8C5.94755 20.25 5.35331 20.2494 4.89068 20.2116C4.43681 20.1745 4.17604 20.1054 3.97852 20.0048C3.55516 19.789 3.21095 19.4448 2.99524 19.0215C2.8946 18.824 2.82547 18.5632 2.78838 18.1093C2.75058 17.6467 2.75 17.0525 2.75 16.2V7.8C2.75 6.94755 2.75058 6.35331 2.78838 5.89068C2.82547 5.43681 2.8946 5.17604 2.99524 4.97852C3.21095 4.55516 3.55516 4.21095 3.97852 3.99524Z"
        fill="#303233" />
</svg>
