<svg width="24" height="24" viewBox="0 0 24 24" fill="none" xmlns="http://www.w3.org/2000/svg">
    <path
        d="M8 12.25C7.58579 12.25 7.25 12.5858 7.25 13C7.25 13.4142 7.58579 13.75 8 13.75H16C16.4142 13.75 16.75 13.4142 16.75 13C16.75 12.5858 16.4142 12.25 16 12.25H8Z"
        fill="#303233" />
    <path
        d="M7.25 17C7.25 16.5858 7.58579 16.25 8 16.25H16C16.4142 16.25 16.75 16.5858 16.75 17C16.75 17.4142 16.4142 17.75 16 17.75H8C7.58579 17.75 7.25 17.4142 7.25 17Z"
        fill="#303233" />
    <path
        d="M8 8.25C7.58579 8.25 7.25 8.58579 7.25 9C7.25 9.41421 7.58579 9.75 8 9.75H11C11.4142 9.75 11.75 9.41421 11.75 9C11.75 8.58579 11.4142 8.25 11 8.25H8Z"
        fill="#303233" />
    <path fill-rule="evenodd" clip-rule="evenodd"
        d="M15.2321 1.25H8.7679C7.95506 1.24999 7.29944 1.24999 6.76853 1.29336C6.2219 1.33803 5.74175 1.43239 5.29754 1.65873C4.59193 2.01825 4.01825 2.59193 3.65873 3.29754C3.43239 3.74175 3.33803 4.2219 3.29336 4.76853C3.24999 5.29944 3.24999 5.95505 3.25 6.76789V17.2321C3.24999 18.0449 3.24999 18.7006 3.29336 19.2315C3.33803 19.7781 3.43239 20.2582 3.65873 20.7025C4.01825 21.4081 4.59193 21.9817 5.29754 22.3413C5.74175 22.5676 6.2219 22.662 6.76853 22.7066C7.29944 22.75 7.95505 22.75 8.76788 22.75H15.2321C16.045 22.75 16.7006 22.75 17.2315 22.7066C17.7781 22.662 18.2582 22.5676 18.7025 22.3413C19.4081 21.9817 19.9817 21.4081 20.3413 20.7025C20.5676 20.2582 20.662 19.7781 20.7066 19.2315C20.75 18.7006 20.75 18.045 20.75 17.2321V6.76788C20.75 5.95505 20.75 5.29944 20.7066 4.76853C20.662 4.2219 20.5676 3.74175 20.3413 3.29754C19.9817 2.59193 19.4081 2.01825 18.7025 1.65873C18.2582 1.43239 17.7781 1.33803 17.2315 1.29336C16.7006 1.24999 16.0449 1.24999 15.2321 1.25ZM5.97852 2.99524C6.17604 2.8946 6.43681 2.82547 6.89068 2.78838C7.35331 2.75058 7.94755 2.75 8.8 2.75H15.2C16.0525 2.75 16.6467 2.75058 17.1093 2.78838C17.5632 2.82547 17.824 2.8946 18.0215 2.99524C18.4448 3.21095 18.789 3.55516 19.0048 3.97852C19.1054 4.17604 19.1745 4.43681 19.2116 4.89068C19.2494 5.35331 19.25 5.94755 19.25 6.8V17.2C19.25 18.0525 19.2494 18.6467 19.2116 19.1093C19.1745 19.5632 19.1054 19.824 19.0048 20.0215C18.789 20.4448 18.4448 20.789 18.0215 21.0048C17.824 21.1054 17.5632 21.1745 17.1093 21.2116C16.6467 21.2494 16.0525 21.25 15.2 21.25H8.8C7.94755 21.25 7.35331 21.2494 6.89068 21.2116C6.43681 21.1745 6.17604 21.1054 5.97852 21.0048C5.55516 20.789 5.21095 20.4448 4.99524 20.0215C4.8946 19.824 4.82547 19.5632 4.78838 19.1093C4.75058 18.6467 4.75 18.0525 4.75 17.2V6.8C4.75 5.94755 4.75058 5.35331 4.78838 4.89068C4.82547 4.43681 4.8946 4.17604 4.99524 3.97852C5.21095 3.55516 5.55516 3.21095 5.97852 2.99524Z"
        fill="#303233" />
</svg>
