<svg width="16" height="16" viewBox="0 0 16 16" fill="none" xmlns="http://www.w3.org/2000/svg">
    <path fill-rule="evenodd" clip-rule="evenodd"
        d="M3.91699 4C3.91699 3.58579 4.25278 3.25 4.66699 3.25H14.0003C14.4145 3.25 14.7503 3.58579 14.7503 4C14.7503 4.41421 14.4145 4.75 14.0003 4.75H4.66699C4.25278 4.75 3.91699 4.41421 3.91699 4Z"
        fill="#303233" />
    <path fill-rule="evenodd" clip-rule="evenodd"
        d="M3.91699 8C3.91699 7.58579 4.25278 7.25 4.66699 7.25H14.0003C14.4145 7.25 14.7503 7.58579 14.7503 8C14.7503 8.41421 14.4145 8.75 14.0003 8.75H4.66699C4.25278 8.75 3.91699 8.41421 3.91699 8Z"
        fill="#303233" />
    <path fill-rule="evenodd" clip-rule="evenodd"
        d="M3.91699 12C3.91699 11.5858 4.25278 11.25 4.66699 11.25H14.0003C14.4145 11.25 14.7503 11.5858 14.7503 12C14.7503 12.4142 14.4145 12.75 14.0003 12.75H4.66699C4.25278 12.75 3.91699 12.4142 3.91699 12Z"
        fill="#303233" />
    <path fill-rule="evenodd" clip-rule="evenodd"
        d="M1.25 4C1.25 3.58579 1.58579 3.25 2 3.25H2.00667C2.42088 3.25 2.75667 3.58579 2.75667 4C2.75667 4.41421 2.42088 4.75 2.00667 4.75H2C1.58579 4.75 1.25 4.41421 1.25 4Z"
        fill="#303233" />
    <path fill-rule="evenodd" clip-rule="evenodd"
        d="M1.25 8C1.25 7.58579 1.58579 7.25 2 7.25H2.00667C2.42088 7.25 2.75667 7.58579 2.75667 8C2.75667 8.41421 2.42088 8.75 2.00667 8.75H2C1.58579 8.75 1.25 8.41421 1.25 8Z"
        fill="#303233" />
    <path fill-rule="evenodd" clip-rule="evenodd"
        d="M1.25 12C1.25 11.5858 1.58579 11.25 2 11.25H2.00667C2.42088 11.25 2.75667 11.5858 2.75667 12C2.75667 12.4142 2.42088 12.75 2.00667 12.75H2C1.58579 12.75 1.25 12.4142 1.25 12Z"
        fill="#303233" />
</svg>
