<svg width="16" height="16" viewBox="0 0 16 16" fill="none" xmlns="http://www.w3.org/2000/svg">
    <g clip-path="url(#clip0_53_4640)">
        <path fill-rule="evenodd" clip-rule="evenodd"
            d="M2.99304 0.981175C3.60244 0.672942 4.32211 0.672942 4.93152 0.981175C5.2415 1.13796 5.5098 1.40703 5.81092 1.70901L6.0613 1.95946C6.26004 2.15783 6.43648 2.33394 6.56061 2.52486C7.02338 3.23662 7.02338 4.1542 6.56061 4.86596C6.43648 5.05689 6.26005 5.23298 6.06132 5.43134L6.01589 5.47671L5.96646 5.52632L5.96254 5.5303L5.98454 5.57639C6.43472 6.51401 7.04868 7.39353 7.82758 8.17243C8.60647 8.95132 9.48599 9.56528 10.4236 10.0155L10.4697 10.0375L10.4737 10.0335L10.5233 9.98411L10.5686 9.9387C10.767 9.73996 10.9431 9.56352 11.134 9.43939C11.8458 8.97662 12.7634 8.97662 13.4751 9.43939C13.6661 9.56353 13.8422 9.73996 14.0405 9.93871L14.291 10.1891C14.593 10.4902 14.862 10.7585 15.0188 11.0685C15.3271 11.6779 15.3271 12.3976 15.0188 13.007C14.862 13.317 14.593 13.5853 14.291 13.8864L14.0626 14.1146C13.7395 14.4382 13.4854 14.6925 13.1422 14.8853C12.7503 15.1055 12.1894 15.2513 11.7398 15.25C11.347 15.2488 11.0597 15.1671 10.6983 15.0644L10.6572 15.0527C8.4178 14.4171 6.30487 13.2177 4.5436 11.4564C2.78233 9.69513 1.58287 7.58221 0.947273 5.34284L0.935582 5.30169C0.832858 4.94031 0.751177 4.65297 0.750009 4.26017C0.748671 3.81059 0.894526 3.24973 1.11471 2.85776C1.30749 2.51458 1.56184 2.26052 1.88537 1.93737L2.11363 1.70902C2.41475 1.40704 2.68305 1.13796 2.99304 0.981175ZM4.2545 2.3197C4.07077 2.22677 3.85379 2.22677 3.67006 2.3197C3.60465 2.35278 3.5185 2.4256 3.10548 2.83862L2.99534 2.94876C2.60233 3.34176 2.50266 3.4497 2.4225 3.5924C2.32907 3.75871 2.24943 4.06495 2.25 4.25571C2.25051 4.42519 2.27455 4.52553 2.39028 4.93327C2.95783 6.9329 4.02848 8.81995 5.60426 10.3957C7.18005 11.9715 9.0671 13.0422 11.0667 13.6097C11.4745 13.7255 11.5748 13.7495 11.7443 13.75C11.935 13.7506 12.2413 13.6709 12.4076 13.5775C12.5503 13.4973 12.6582 13.3977 13.0512 13.0047L13.1614 12.8945C13.5744 12.4815 13.6472 12.3954 13.6803 12.3299C13.7732 12.1462 13.7732 11.9292 13.6803 11.7455C13.6472 11.6801 13.5744 11.5939 13.1614 11.1809L13.0252 11.0448C12.7539 10.7734 12.6978 10.7231 12.6575 10.697C12.4429 10.5574 12.1663 10.5574 11.9517 10.697C11.9114 10.7231 11.8553 10.7734 11.584 11.0448L11.5674 11.0613C11.5051 11.1239 11.4228 11.2066 11.3238 11.2775C10.9707 11.5303 10.4918 11.6119 10.0749 11.4904C9.95859 11.4565 9.86274 11.4103 9.79127 11.3758L9.77438 11.3677C8.68625 10.8452 7.66715 10.1333 6.76691 9.23308C5.86668 8.33285 5.15476 7.31375 4.63232 6.22562L4.6242 6.20874C4.58973 6.13727 4.5435 6.04142 4.50959 5.92509C4.38806 5.50819 4.46972 5.02929 4.72253 4.67623C4.79343 4.57722 4.87612 4.49486 4.93867 4.43256L4.95523 4.41605C5.22659 4.14469 5.27685 4.08861 5.30304 4.04833C5.44257 3.83374 5.44257 3.55709 5.30305 3.3425C5.27685 3.30221 5.22658 3.24613 4.95523 2.97478L4.81907 2.83862C4.40606 2.4256 4.3199 2.35278 4.2545 2.3197Z"
            fill="#303233" />
        <path
            d="M9.46967 1.96967C9.76256 1.67678 10.2374 1.67678 10.5303 1.96967L11.9999 3.43928L13.4696 1.96967C13.7625 1.67678 14.2373 1.67678 14.5302 1.96967C14.8231 2.26256 14.8231 2.73744 14.5302 3.03033L13.0606 4.49994L14.5303 5.96967C14.8232 6.26256 14.8232 6.73744 14.5303 7.03033C14.2374 7.32322 13.7626 7.32322 13.4697 7.03033L11.9999 5.5606L10.5302 7.03033C10.2373 7.32322 9.76245 7.32322 9.46956 7.03033C9.17666 6.73744 9.17666 6.26256 9.46956 5.96967L10.9393 4.49994L9.46967 3.03033C9.17678 2.73744 9.17678 2.26256 9.46967 1.96967Z"
            fill="#303233" />
    </g>
    <defs>
        <clipPath id="clip0_53_4640">
            <rect width="16" height="16" fill="white" />
        </clipPath>
    </defs>
</svg>
