<svg width="16" height="16" viewBox="0 0 16 16" fill="none" xmlns="http://www.w3.org/2000/svg">
    <path fill-rule="evenodd" clip-rule="evenodd"
        d="M5.3334 5.83333C5.3334 3.16396 7.49736 1 10.1667 1C12.8361 1 15.0001 3.16396 15.0001 5.83333C15.0001 8.50271 12.8361 10.6667 10.1667 10.6667C9.94674 10.6667 9.72992 10.6519 9.51726 10.6233C9.35652 10.6017 9.24994 10.5875 9.17069 10.5798C9.10632 10.5736 9.08118 10.5743 9.08118 10.5743C9.06595 10.5765 9.05687 10.5783 9.05149 10.5795L9.04616 10.5807L9.0448 10.5812L9.04347 10.5817L9.03845 10.5839C9.03304 10.5864 9.02378 10.591 9.00821 10.5997C9.01256 10.5973 9.00157 10.6023 8.95978 10.6403C8.91641 10.6798 8.86136 10.7347 8.77189 10.8242L5.08097 14.5151C5.07298 14.5231 5.06499 14.5311 5.05699 14.5391C4.95659 14.6398 4.85352 14.7432 4.72841 14.8199C4.61906 14.8869 4.49984 14.9363 4.37513 14.9662C4.23246 15.0005 4.08647 15.0003 3.94426 15C3.93292 15 3.9216 15 3.91031 15H2.63779C2.45087 15 2.2816 15 2.14056 14.9885C1.9892 14.9761 1.8269 14.948 1.66742 14.8668C1.43744 14.7496 1.25046 14.5626 1.13328 14.3327C1.05203 14.1732 1.02394 14.0109 1.01157 13.8595C1.00005 13.7185 1.00006 13.5492 1.00007 13.3623L1.00007 12.0898C1.00007 12.0785 1.00005 12.0671 1.00004 12.0558C0.999815 11.9136 0.999589 11.7676 1.03384 11.6249C1.06378 11.5002 1.11316 11.381 1.18018 11.2717C1.25684 11.1466 1.36023 11.0435 1.46094 10.9431C1.46898 10.9351 1.47699 10.9271 1.48497 10.9191L5.17589 7.22818C5.26536 7.13871 5.32024 7.08366 5.35973 7.04029C5.39779 6.9985 5.40277 6.98751 5.40034 6.99186C5.40905 6.97629 5.41368 6.96703 5.4162 6.96162L5.41842 6.9566L5.41892 6.95527L5.41933 6.9539L5.42061 6.94857C5.42179 6.9432 5.42352 6.93412 5.42577 6.91889C5.42577 6.91889 5.42645 6.89376 5.42023 6.82938C5.41258 6.75013 5.39833 6.64355 5.37672 6.48281C5.34813 6.27015 5.3334 6.05333 5.3334 5.83333ZM9.66674 5.83333C9.66674 5.55719 9.89059 5.33333 10.1667 5.33333H10.174C10.4501 5.33333 10.674 5.55719 10.674 5.83333C10.674 6.10948 10.4501 6.33333 10.174 6.33333H10.1667C9.89059 6.33333 9.66674 6.10948 9.66674 5.83333Z"
        fill="#303233" />
</svg>
