<svg width="16" height="16" viewBox="0 0 16 16" fill="none" xmlns="http://www.w3.org/2000/svg">
    <path
        d="M9.99503 5.25C9.58356 5.25 9.25 5.58579 9.25 6C9.25 6.41421 9.58356 6.75 9.99503 6.75H10.005C10.4164 6.75 10.75 6.41421 10.75 6C10.75 5.58579 10.4164 5.25 10.005 5.25H9.99503Z"
        fill="#303233" />
    <path
        d="M5.25 6C5.25 5.58579 5.58356 5.25 5.99503 5.25H6.00497C6.41644 5.25 6.75 5.58579 6.75 6C6.75 6.41421 6.41644 6.75 6.00497 6.75H5.99503C5.58356 6.75 5.25 6.41421 5.25 6Z"
        fill="#303233" />
    <path fill-rule="evenodd" clip-rule="evenodd"
        d="M8 8C6.61929 8 5.5 9.11929 5.5 10.5C5.5 11.8807 6.61929 13 8 13C9.38071 13 10.5 11.8807 10.5 10.5C10.5 9.11929 9.38071 8 8 8ZM6.5 10.5C6.5 9.67157 7.17157 9 8 9C8.82843 9 9.5 9.67157 9.5 10.5C9.5 11.3284 8.82843 12 8 12C7.17157 12 6.5 11.3284 6.5 10.5Z"
        fill="#303233" />
    <path fill-rule="evenodd" clip-rule="evenodd"
        d="M8 1C4.13401 1 1 4.13401 1 8C1 11.866 4.13401 15 8 15C11.866 15 15 11.866 15 8C15 4.13401 11.866 1 8 1ZM2 8C2 4.68629 4.68629 2 8 2C11.3137 2 14 4.68629 14 8C14 11.3137 11.3137 14 8 14C4.68629 14 2 11.3137 2 8Z"
        fill="#303233" />
</svg>
