<svg width="24" height="24" viewBox="0 0 24 24" fill="none" xmlns="http://www.w3.org/2000/svg">
    <path fill-rule="evenodd" clip-rule="evenodd"
        d="M16.75 3.25201C17.2 3.25701 17.56 3.277 17.88 3.354C19.25 3.683 20.32 4.753 20.65 6.125C20.75 6.558 20.75 7.06002 20.75 7.79602C20.75 7.83002 20.75 7.86502 20.75 7.90002V18.1C20.75 18.135 20.75 18.17 20.75 18.204C20.75 18.94 20.75 19.442 20.65 19.875C20.32 21.247 19.25 22.317 17.88 22.646C17.44 22.75 16.94 22.75 16.2 22.75H7.80005C7.06005 22.75 6.56 22.75 6.12 22.646C4.75 22.317 3.67998 21.247 3.34998 19.875C3.24998 19.442 3.25 18.94 3.25 18.204V18.1V7.90002V7.79602C3.25 7.06002 3.24998 6.558 3.34998 6.125C3.67998 4.753 4.75 3.683 6.12 3.354C6.44 3.277 6.8 3.25701 7.25 3.25201C7.25 3.11801 7.26002 2.99402 7.27002 2.88202C7.28002 2.66902 7.31994 2.43599 7.43994 2.20599C7.60994 1.87599 7.87995 1.60898 8.19995 1.44098C8.43995 1.32298 8.67 1.28399 8.88 1.26599C9.08 1.24999 9.31995 1.25 9.56995 1.25H9.59998H14.4301C14.6801 1.25 14.92 1.24999 15.12 1.26599C15.33 1.28399 15.56 1.32298 15.79 1.44098C16.12 1.60898 16.3901 1.87599 16.5601 2.20599C16.6801 2.43599 16.72 2.66902 16.73 2.88202C16.74 2.99402 16.75 3.11801 16.75 3.25201ZM8.78003 5.117V5.11902C8.80003 5.16202 8.84 5.19697 8.88 5.21997V5.22101C8.89001 5.22401 8.92 5.23201 9 5.23901C9.13 5.24901 9.30998 5.25 9.59998 5.25H14.4C14.69 5.25 14.87 5.24901 15 5.23901C15.07 5.23201 15.11 5.22401 15.12 5.22101V5.21997C15.16 5.19697 15.2 5.16202 15.22 5.11902V5.117C15.22 5.108 15.23 5.07497 15.24 4.99597C15.25 4.86697 15.25 4.69202 15.25 4.40002V3.59998C15.25 3.30798 15.25 3.13303 15.24 3.00403C15.23 2.92503 15.22 2.892 15.22 2.883V2.88098C15.2 2.83798 15.16 2.80303 15.12 2.78003V2.77899C15.11 2.77599 15.07 2.76799 15 2.76099C14.87 2.75099 14.69 2.75 14.4 2.75H9.59998C9.30998 2.75 9.13 2.75099 9 2.76099C8.92 2.76799 8.89001 2.77599 8.88 2.77899V2.78003C8.84 2.80303 8.80003 2.83798 8.78003 2.88098V2.883C8.78003 2.892 8.77001 2.92503 8.76001 3.00403C8.75001 3.13303 8.75 3.30798 8.75 3.59998V4.40002C8.75 4.69202 8.75001 4.86697 8.76001 4.99597C8.77001 5.07497 8.78003 5.108 8.78003 5.117Z"
        fill="#303233" />
</svg>
