<svg width="24" height="24" viewBox="0 0 24 24" fill="none" xmlns="http://www.w3.org/2000/svg">
    <path fill-rule="evenodd" clip-rule="evenodd"
        d="M21.75 12C21.75 7.19299 17.407 3.25 12 3.25C6.59303 3.25 2.25004 7.19299 2.25004 12C2.25004 13.33 2.58104 14.591 3.17304 15.722C3.38304 16.123 3.47804 16.59 3.31904 17.013L2.29804 19.737C2.20204 19.992 2.25204 20.278 2.42904 20.486C2.60504 20.693 2.88004 20.789 3.14704 20.735L7.24203 19.916C7.52303 19.86 7.81203 19.907 8.07803 20.012C9.32503 20.503 10.657 20.754 12.001 20.75C17.408 20.749 21.75 16.806 21.75 12ZM15.7803 8.21967C16.0732 8.51256 16.0732 8.98744 15.7803 9.28033L13.0607 12L15.7803 14.7197C16.0732 15.0126 16.0732 15.4874 15.7803 15.7803C15.4874 16.0732 15.0126 16.0732 14.7197 15.7803L12 13.0607L9.28033 15.7803C8.98744 16.0732 8.51256 16.0732 8.21967 15.7803C7.92678 15.4874 7.92678 15.0126 8.21967 14.7197L10.9393 12L8.21967 9.28033C7.92678 8.98744 7.92678 8.51256 8.21967 8.21967C8.51256 7.92678 8.98744 7.92678 9.28033 8.21967L12 10.9393L14.7197 8.21967C15.0126 7.92678 15.4874 7.92678 15.7803 8.21967Z"
        fill="#303233" />
</svg>
