<svg width="24" height="24" viewBox="0 0 24 24" fill="none" xmlns="http://www.w3.org/2000/svg">
    <path fill-rule="evenodd" clip-rule="evenodd"
        d="M8.7587 1H15.2413H15.2413H15.2413C16.0463 0.999988 16.7106 0.999979 17.2518 1.0442C17.8139 1.09012 18.3306 1.18868 18.816 1.43598C19.5686 1.81947 20.1805 2.43139 20.564 3.18404C20.8113 3.66938 20.9099 4.18608 20.9558 4.74818C21 5.28937 21 5.95372 21 6.75868V15C21 13.3431 19.6569 12 18 12C16.3431 12 15 13.3431 15 15C13.3431 15 12 16.3431 12 18C12 19.6569 13.3431 21 15 21C15 21.7681 15.2887 22.4688 15.7635 22.9995C15.5964 23 15.4224 23 15.2413 23H8.75868C7.95372 23 7.28937 23 6.74818 22.9558C6.18608 22.9099 5.66938 22.8113 5.18404 22.564C4.43139 22.1805 3.81947 21.5686 3.43598 20.816C3.18868 20.3306 3.09012 19.8139 3.0442 19.2518C2.99998 18.7106 2.99999 18.0463 3 17.2413V17.2413V17.2413V6.7587V6.75869V6.75867C2.99999 5.95371 2.99998 5.28936 3.0442 4.74818C3.09012 4.18608 3.18868 3.66938 3.43598 3.18404C3.81947 2.43139 4.43139 1.81947 5.18404 1.43598C5.66938 1.18868 6.18608 1.09012 6.74818 1.0442C7.28936 0.999979 7.95371 0.999988 8.75867 1H8.75869H8.7587ZM19 15C19 14.4477 18.5523 14 18 14C17.4477 14 17 14.4477 17 15V17H15C14.4477 17 14 17.4477 14 18C14 18.5523 14.4477 19 15 19H17V21C17 21.5523 17.4477 22 18 22C18.5523 22 19 21.5523 19 21V19H21C21.5523 19 22 18.5523 22 18C22 17.4477 21.5523 17 21 17H19V15Z"
        fill="#303233" />
</svg>
