<svg width="16" height="16" viewBox="0 0 16 16" fill="none" xmlns="http://www.w3.org/2000/svg">
    <g clip-path="url(#clip0_53_6932)">
        <path fill-rule="evenodd" clip-rule="evenodd"
            d="M6.64558 0.581801C7.44738 -0.0226288 8.55262 -0.0226281 9.35442 0.581802L14.3544 4.35103C14.9184 4.77618 15.25 5.44145 15.25 6.14771V13.1C15.25 13.6779 15.0129 14.2272 14.5989 14.6285C14.1857 15.029 13.6301 15.25 13.0556 15.25H10C9.58579 15.25 9.25 14.9142 9.25 14.5V10.5C9.25 10.3619 9.13807 10.25 9 10.25H7C6.86193 10.25 6.75 10.3619 6.75 10.5V14.5C6.75 14.9142 6.41421 15.25 6 15.25H2.94444C2.36987 15.25 1.8143 15.029 1.40109 14.6285C0.987082 14.2272 0.75 13.6779 0.75 13.1V6.14771C0.75 5.44145 1.08162 4.77617 1.64558 4.35103L6.64558 0.581801Z"
            fill="#303233" />
    </g>
    <defs>
        <clipPath id="clip0_53_6932">
            <rect width="16" height="16" fill="white" />
        </clipPath>
    </defs>
</svg>
