<svg width="16" height="16" viewBox="0 0 16 16" fill="none" xmlns="http://www.w3.org/2000/svg">
    <path fill-rule="evenodd" clip-rule="evenodd"
        d="M4.6786 1.5L11.3214 1.5C11.8633 1.5 12.3004 1.49999 12.6543 1.52891C13.0187 1.55868 13.3388 1.62159 13.635 1.77249C14.1054 2.01217 14.4878 2.39462 14.7275 2.86503C14.8784 3.16117 14.9413 3.48127 14.9711 3.84569C15 4.19963 15 4.6367 15 5.17858V10.8214C15 11.3633 15 11.8004 14.9711 12.1543C14.9413 12.5187 14.8784 12.8388 14.7275 13.135C14.4878 13.6054 14.1054 13.9878 13.635 14.2275C13.3388 14.3784 13.0187 14.4413 12.6543 14.4711C12.3004 14.5 11.8633 14.5 11.3214 14.5H4.67863C4.13672 14.5 3.69963 14.5 3.34569 14.4711C2.98126 14.4413 2.66117 14.3784 2.36502 14.2275C1.89462 13.9878 1.51217 13.6054 1.27248 13.135C1.12159 12.8388 1.05868 12.5187 1.02891 12.1543C0.999991 11.8004 0.999995 11.3633 1 10.8214L1 6.00028L1 5.1786C0.999995 4.63671 0.999991 4.19963 1.02891 3.84569C1.05868 3.48126 1.12159 3.16117 1.27248 2.86502C1.51217 2.39462 1.89462 2.01217 2.36502 1.77248C2.66117 1.62159 2.98126 1.55868 3.34569 1.52891C3.69963 1.49999 4.1367 1.5 4.6786 1.5ZM2 6.5L2 10.8C2 11.3683 2.00039 11.7645 2.02559 12.0729C2.05031 12.3755 2.0964 12.5493 2.16349 12.681C2.3073 12.9632 2.53677 13.1927 2.81901 13.3365C2.95069 13.4036 3.12454 13.4497 3.42712 13.4744C3.73554 13.4996 4.1317 13.5 4.7 13.5H11.3C11.8683 13.5 12.2645 13.4996 12.5729 13.4744C12.8755 13.4497 13.0493 13.4036 13.181 13.3365C13.4632 13.1927 13.6927 12.9632 13.8365 12.681C13.9036 12.5493 13.9497 12.3755 13.9744 12.0729C13.9996 11.7645 14 11.3683 14 10.8V6.5H2ZM14 5.5H2V5.2C2 4.6317 2.00039 4.23554 2.02559 3.92712C2.05031 3.62454 2.0964 3.45069 2.16349 3.31901C2.3073 3.03677 2.53677 2.8073 2.81901 2.66349C2.95069 2.5964 3.12454 2.55031 3.42712 2.52559C3.73554 2.50039 4.1317 2.5 4.7 2.5L11.3 2.5C11.8683 2.5 12.2645 2.50039 12.5729 2.52559C12.8755 2.55031 13.0493 2.5964 13.181 2.66349C13.4632 2.8073 13.6927 3.03677 13.8365 3.31902C13.9036 3.45069 13.9497 3.62454 13.9744 3.92712C13.9996 4.23554 14 4.6317 14 5.2V5.5ZM7.02022 7.97978C7.21548 8.17504 7.21548 8.49162 7.02022 8.68689L5.70711 10L7.02022 11.3131C7.21548 11.5084 7.21548 11.825 7.02022 12.0202C6.82496 12.2155 6.50838 12.2155 6.31311 12.0202L4.64645 10.3536C4.45118 10.1583 4.45118 9.84171 4.64645 9.64645L6.31311 7.97978C6.50838 7.78452 6.82496 7.78452 7.02022 7.97978ZM8.97978 7.97978C9.17504 7.78452 9.49162 7.78452 9.68689 7.97978L11.3536 9.64645C11.5488 9.84171 11.5488 10.1583 11.3536 10.3536L9.68689 12.0202C9.49162 12.2155 9.17504 12.2155 8.97978 12.0202C8.78452 11.825 8.78452 11.5084 8.97978 11.3131L10.2929 10L8.97978 8.68689C8.78452 8.49162 8.78452 8.17504 8.97978 7.97978Z"
        fill="#303233" />
</svg>
