<svg width="16" height="16" viewBox="0 0 16 16" fill="none" xmlns="http://www.w3.org/2000/svg">
    <g clip-path="url(#clip0_53_9550)">
        <path
            d="M8.75 8C8.75 7.58579 8.41421 7.25 8 7.25C7.58579 7.25 7.25 7.58579 7.25 8V9.25H6C5.58579 9.25 5.25 9.58579 5.25 10C5.25 10.4142 5.58579 10.75 6 10.75H7.25V12C7.25 12.4142 7.58579 12.75 8 12.75C8.41421 12.75 8.75 12.4142 8.75 12V10.75H10C10.4142 10.75 10.75 10.4142 10.75 10C10.75 9.58579 10.4142 9.25 10 9.25H8.75V8Z"
            fill="#303233" />
        <path fill-rule="evenodd" clip-rule="evenodd"
            d="M5.5 0.25C5.08579 0.25 4.75 0.585786 4.75 1V1.75H2.94444C1.79014 1.75 0.75 2.62735 0.75 3.83333V13.1667C0.75 14.3727 1.79014 15.25 2.94444 15.25H13.0556C14.2099 15.25 15.25 14.3727 15.25 13.1667V3.83333C15.25 2.62735 14.2099 1.75 13.0556 1.75H11.25V1C11.25 0.585786 10.9142 0.25 10.5 0.25C10.0858 0.25 9.75 0.585786 9.75 1V1.75H6.25V1C6.25 0.585786 5.91421 0.25 5.5 0.25ZM9.75 3.5V3.25H6.25V3.5C6.25 3.91421 5.91421 4.25 5.5 4.25C5.08579 4.25 4.75 3.91421 4.75 3.5V3.25H2.94444C2.50326 3.25 2.25 3.56656 2.25 3.83333V4.75H13.75V3.83333C13.75 3.56656 13.4967 3.25 13.0556 3.25H11.25V3.5C11.25 3.91421 10.9142 4.25 10.5 4.25C10.0858 4.25 9.75 3.91421 9.75 3.5ZM2.25 13.1667V6.25H13.75V13.1667C13.75 13.4334 13.4967 13.75 13.0556 13.75H2.94444C2.50326 13.75 2.25 13.4334 2.25 13.1667Z"
            fill="#303233" />
    </g>
    <defs>
        <clipPath id="clip0_53_9550">
            <rect width="16" height="16" fill="white" />
        </clipPath>
    </defs>
</svg>
