<svg width="24" height="24" viewBox="0 0 24 24" fill="none" xmlns="http://www.w3.org/2000/svg">
    <path fill-rule="evenodd" clip-rule="evenodd"
        d="M14.1627 2.26786C14.567 2.35772 14.822 2.75835 14.7321 3.1627L10.7321 21.1627C10.6423 21.567 10.2417 21.822 9.8373 21.7321C9.43295 21.6423 9.178 21.2417 9.26786 20.8373L13.2679 2.8373C13.3577 2.43295 13.7583 2.178 14.1627 2.26786ZM7.53033 6.46967C7.82322 6.76256 7.82322 7.23744 7.53033 7.53033L3.06066 12L7.53033 16.4697C7.82322 16.7626 7.82322 17.2374 7.53033 17.5303C7.23744 17.8232 6.76256 17.8232 6.46967 17.5303L1.46967 12.5303C1.17678 12.2374 1.17678 11.7626 1.46967 11.4697L6.46967 6.46967C6.76256 6.17678 7.23744 6.17678 7.53033 6.46967ZM16.4697 6.46967C16.7626 6.17678 17.2374 6.17678 17.5303 6.46967L22.5303 11.4697C22.8232 11.7626 22.8232 12.2374 22.5303 12.5303L17.5303 17.5303C17.2374 17.8232 16.7626 17.8232 16.4697 17.5303C16.1768 17.2374 16.1768 16.7626 16.4697 16.4697L20.9393 12L16.4697 7.53033C16.1768 7.23744 16.1768 6.76256 16.4697 6.46967Z"
        fill="#303233" />
</svg>
