<svg width="16" height="16" viewBox="0 0 16 16" fill="none" xmlns="http://www.w3.org/2000/svg">
    <path fill-rule="evenodd" clip-rule="evenodd"
        d="M12.1 1H12.1207H12.1207C12.5231 0.999994 12.8553 0.999989 13.1259 1.0221C13.407 1.04506 13.6653 1.09434 13.908 1.21799C14.2843 1.40973 14.5903 1.7157 14.782 2.09202C14.9057 2.33469 14.9549 2.59304 14.9779 2.87409C15 3.14469 15 3.47687 15 3.87935V3.9V6.5C15 6.77614 14.7761 7 14.5 7C14.2239 7 14 6.77614 14 6.5V3.9C14 3.47171 13.9996 3.18056 13.9812 2.95552C13.9633 2.73631 13.9309 2.62421 13.891 2.54601C13.7951 2.35785 13.6422 2.20487 13.454 2.10899C13.3758 2.06915 13.2637 2.03669 13.0445 2.01878C12.8194 2.00039 12.5283 2 12.1 2H3.9C3.47171 2 3.18056 2.00039 2.95552 2.01878C2.73631 2.03669 2.62421 2.06915 2.54601 2.10899C2.35785 2.20487 2.20487 2.35785 2.10899 2.54601C2.06915 2.62421 2.03669 2.73631 2.01878 2.95552C2.00039 3.18056 2 3.47171 2 3.9V12.1C2 12.5283 2.00039 12.8194 2.01878 13.0445C2.03669 13.2637 2.06915 13.3758 2.10899 13.454C2.20487 13.6422 2.35785 13.7951 2.54601 13.891C2.62421 13.9309 2.73631 13.9633 2.95552 13.9812C3.18056 13.9996 3.47171 14 3.9 14H6.5C6.77614 14 7 14.2239 7 14.5C7 14.7761 6.77614 15 6.5 15H3.9H3.87934C3.47686 15 3.14468 15 2.87409 14.9779C2.59304 14.9549 2.33469 14.9057 2.09202 14.782C1.7157 14.5903 1.40973 14.2843 1.21799 13.908C1.09434 13.6653 1.04506 13.407 1.0221 13.1259C0.999989 12.8553 0.999994 12.5231 1 12.1207V12.1V3.9V3.87934C0.999994 3.47686 0.999989 3.14468 1.0221 2.87409C1.04506 2.59304 1.09434 2.33469 1.21799 2.09202C1.40973 1.7157 1.7157 1.40973 2.09202 1.21799C2.33469 1.09434 2.59304 1.04506 2.87409 1.0221C3.14468 0.999989 3.47686 0.999994 3.87934 1H3.87935H3.9H12.1ZM8 3.5C7.72386 3.5 7.5 3.72386 7.5 4L7.5 6.79289L4.35355 3.64645C4.15829 3.45119 3.84171 3.45119 3.64645 3.64645C3.45119 3.84171 3.45119 4.15829 3.64645 4.35356L6.79289 7.5H4C3.72386 7.5 3.5 7.72386 3.5 8C3.5 8.27614 3.72386 8.5 4 8.5H8C8.13261 8.5 8.25979 8.44732 8.35355 8.35355C8.44732 8.25979 8.5 8.13261 8.5 8L8.5 4C8.5 3.72386 8.27614 3.5 8 3.5ZM12.1207 9H12.1H11.9H11.8794C11.4769 8.99999 11.1447 8.99999 10.8741 9.0221C10.593 9.04506 10.3347 9.09434 10.092 9.21799C9.7157 9.40973 9.40973 9.7157 9.21799 10.092C9.09434 10.3347 9.04506 10.593 9.0221 10.8741C8.99999 11.1447 8.99999 11.4769 9 11.8794V11.9V12.1V12.1206C8.99999 12.5231 8.99999 12.8553 9.0221 13.1259C9.04506 13.407 9.09434 13.6653 9.21799 13.908C9.40973 14.2843 9.7157 14.5903 10.092 14.782C10.3347 14.9057 10.593 14.9549 10.8741 14.9779C11.1447 15 11.4769 15 11.8794 15H11.9H12.1H12.1206C12.5231 15 12.8553 15 13.1259 14.9779C13.407 14.9549 13.6653 14.9057 13.908 14.782C14.2843 14.5903 14.5903 14.2843 14.782 13.908C14.9057 13.6653 14.9549 13.407 14.9779 13.1259C15 12.8553 15 12.5231 15 12.1207V12.1V11.9V11.8794C15 11.4769 15 11.1447 14.9779 10.8741C14.9549 10.593 14.9057 10.3347 14.782 10.092C14.5903 9.7157 14.2843 9.40973 13.908 9.21799C13.6653 9.09434 13.407 9.04506 13.1259 9.0221C12.8553 8.99999 12.5231 8.99999 12.1207 9ZM13.0445 10.0188C13.2637 10.0367 13.3758 10.0691 13.454 10.109C13.6422 10.2049 13.7951 10.3578 13.891 10.546C13.9309 10.6242 13.9633 10.7363 13.9812 10.9555C13.9996 11.1806 14 11.4717 14 11.9V12.1C14 12.5283 13.9996 12.8194 13.9812 13.0445C13.9633 13.2637 13.9309 13.3758 13.891 13.454C13.7951 13.6422 13.6422 13.7951 13.454 13.891C13.3758 13.9309 13.2637 13.9633 13.0445 13.9812C12.8194 13.9996 12.5283 14 12.1 14H11.9C11.4717 14 11.1806 13.9996 10.9555 13.9812C10.7363 13.9633 10.6242 13.9309 10.546 13.891C10.3578 13.7951 10.2049 13.6422 10.109 13.454C10.0691 13.3758 10.0367 13.2637 10.0188 13.0445C10.0004 12.8194 10 12.5283 10 12.1V11.9C10 11.4717 10.0004 11.1806 10.0188 10.9555C10.0367 10.7363 10.0691 10.6242 10.109 10.546C10.2049 10.3578 10.3578 10.2049 10.546 10.109C10.6242 10.0691 10.7363 10.0367 10.9555 10.0188C11.1806 10.0004 11.4717 10 11.9 10H12.1C12.5283 10 12.8194 10.0004 13.0445 10.0188Z"
        fill="#303233" />
</svg>
