<svg width="16" height="16" viewBox="0 0 16 16" fill="none" xmlns="http://www.w3.org/2000/svg">
    <path
        d="M9.25 1C9.25 1.41421 9.58579 1.75 10 1.75H11.6893L8 5.43934L4.03033 1.46967C3.73744 1.17678 3.26256 1.17678 2.96967 1.46967C2.67678 1.76256 2.67678 2.23744 2.96967 2.53033L7.46967 7.03033C7.76256 7.32322 8.23744 7.32322 8.53033 7.03033L12.75 2.81066V4.5C12.75 4.91421 13.0858 5.25 13.5 5.25C13.9142 5.25 14.25 4.91421 14.25 4.5V1C14.25 0.585786 13.9142 0.25 13.5 0.25H10C9.58579 0.25 9.25 0.585786 9.25 1Z"
        fill="#303233" />
    <path
        d="M8 11.7C9.05733 11.7 10.0726 11.8803 11.0166 12.2119C11.048 12.2229 11.0637 12.2284 11.0884 12.2393C11.3128 12.3382 11.4851 12.5814 11.5041 12.8259C11.5062 12.8529 11.5062 12.8768 11.5062 12.9246C11.5062 13.0875 11.5062 13.1689 11.5129 13.2376C11.5785 13.902 12.1042 14.4276 12.7686 14.4932C12.8372 14.5 12.9187 14.5 13.0816 14.5H13.2531C13.5755 14.5 13.7367 14.5 13.8708 14.4736C14.428 14.3637 14.8637 13.928 14.9736 13.3707C15 13.2367 15 13.0755 15 12.7531V12.6144C15 12.2817 15 12.1153 14.9645 11.9247C14.885 11.4983 14.5753 10.9708 14.2416 10.6937C14.0924 10.5698 13.9912 10.5133 13.7889 10.4005C12.0754 9.44464 10.1013 8.89999 8 8.89999C5.89868 8.89999 3.92458 9.44464 2.21114 10.4005C2.00877 10.5133 1.90758 10.5698 1.75838 10.6937C1.42472 10.9708 1.11495 11.4983 1.03552 11.9247C1 12.1153 1 12.2817 1 12.6144V12.7531C1 13.0755 1 13.2367 1.02643 13.3707C1.13628 13.928 1.57196 14.3637 2.12925 14.4736C2.26333 14.5 2.42453 14.5 2.74692 14.5H2.9184C3.08133 14.5 3.16279 14.5 3.23141 14.4932C3.89582 14.4276 4.42146 13.902 4.48706 13.2376C4.49384 13.1689 4.49384 13.0875 4.49384 12.9246C4.49384 12.8768 4.49384 12.8529 4.49593 12.8259C4.51486 12.5814 4.68718 12.3382 4.91158 12.2393C4.93634 12.2284 4.95204 12.2229 4.98342 12.2119C5.92745 11.8803 6.94267 11.7 8 11.7Z"
        fill="#303233" />
</svg>
