<svg width="24" height="24" viewBox="0 0 24 24" fill="none" xmlns="http://www.w3.org/2000/svg">
    <path fill-rule="evenodd" clip-rule="evenodd"
        d="M7.69487 2.10061C6.91448 1.70588 5.99286 1.70589 5.21247 2.10061C4.81732 2.30047 4.47024 2.6481 4.02177 3.09729L3.72391 3.39522C3.24755 3.87128 2.91371 4.20492 2.66022 4.65616C2.37242 5.16849 2.17795 5.91629 2.1797 6.50393C2.18124 7.02087 2.28706 7.39342 2.43656 7.91971L2.44973 7.9661C3.34473 11.1194 5.03361 14.0947 7.51433 16.5754C9.99505 19.0561 12.9703 20.745 16.1236 21.64L16.17 21.6531C16.6963 21.8026 17.0688 21.9085 17.5858 21.91C18.1734 21.9118 18.9212 21.7173 19.4336 21.4295C19.8848 21.176 20.2184 20.8422 20.6945 20.3658L20.9924 20.0679C21.4416 19.6195 21.7892 19.2724 21.9891 18.8772C22.3838 18.0968 22.3838 17.1752 21.9891 16.3948C21.7892 15.9997 21.4416 15.6526 20.9924 15.2041L20.6587 14.8704C20.3634 14.5748 20.1355 14.3467 19.8921 14.1885C18.9806 13.5958 17.8056 13.5958 16.8941 14.1885C16.6507 14.3467 16.4228 14.5748 16.1275 14.8705L16.0724 14.9256C16.012 14.986 15.9791 15.0188 15.9533 15.0429C15.942 15.0535 15.9354 15.0592 15.9318 15.0622L15.9286 15.0648L15.9278 15.0655C15.8775 15.1014 15.7713 15.1194 15.712 15.1021C15.7091 15.1013 15.7038 15.0997 15.6857 15.0919C15.6604 15.0809 15.6279 15.0654 15.5611 15.0333C14.1867 14.3735 12.8979 13.4736 11.757 12.3327C10.6161 11.1918 9.71625 9.90298 9.05639 8.52861C9.02432 8.46184 9.00885 8.42934 8.99785 8.40404C8.99 8.38598 8.98843 8.38058 8.9876 8.37771C8.9703 8.31837 8.98827 8.21217 9.02426 8.1619L9.02487 8.16109L9.02749 8.15788C9.03046 8.15433 9.03619 8.14775 9.04682 8.13639C9.07095 8.1106 9.10367 8.07774 9.16411 8.01731L9.21925 7.96221C9.51488 7.66689 9.74301 7.439 9.90125 7.19561C10.4939 6.28414 10.4939 5.10909 9.90126 4.19761C9.74301 3.95423 9.51488 3.72634 9.21926 3.43103L8.88557 3.09729C8.4371 2.6481 8.09002 2.30047 7.69487 2.10061ZM5.88949 3.43913C6.24421 3.25971 6.66313 3.25971 7.01785 3.43913C7.16924 3.5157 7.33545 3.66858 7.90858 4.24171L8.10345 4.43658C8.48013 4.81326 8.58306 4.92201 8.64369 5.01525C8.91306 5.42956 8.91306 5.96367 8.64369 6.37798C8.58306 6.47122 8.48013 6.57997 8.10345 6.95665L8.08142 6.97864C7.98905 7.07079 7.88964 7.16997 7.80468 7.28862C7.50065 7.71322 7.4013 8.29583 7.54745 8.7972C7.58815 8.93684 7.64324 9.05126 7.69357 9.15581L7.70417 9.17785C8.4363 10.7027 9.43406 12.1311 10.6963 13.3934C11.9586 14.6557 13.387 15.6534 14.9119 16.3855L14.9339 16.3961C15.0384 16.4465 15.1529 16.5016 15.2925 16.5423C15.7939 16.6884 16.3765 16.5891 16.8011 16.285C16.9197 16.2001 17.0189 16.1007 17.1111 16.0083L17.1331 15.9863C17.5097 15.6096 17.6185 15.5066 17.7117 15.446C18.126 15.1766 18.6602 15.1766 19.0745 15.446C19.1677 15.5066 19.2765 15.6096 19.6531 15.9863L19.848 16.1811C20.4211 16.7543 20.574 16.9205 20.6506 17.0719C20.83 17.4266 20.83 17.8455 20.6506 18.2002C20.574 18.3516 20.4211 18.5178 19.848 19.0909L19.6904 19.2486C19.1378 19.8012 18.9501 19.9806 18.6989 20.1217C18.4122 20.2827 17.9191 20.411 17.5902 20.41C17.2964 20.4091 17.111 20.361 16.5332 20.197C13.6197 19.37 10.8702 17.81 8.57499 15.5147C6.27975 13.2195 4.71968 10.4701 3.89274 7.55653C3.72874 6.97873 3.68057 6.79336 3.67969 6.49946C3.67871 6.17066 3.80697 5.67747 3.96801 5.3908C4.1091 5.13963 4.28856 4.95191 4.84113 4.39934L4.99876 4.24171C5.57189 3.66858 5.7381 3.5157 5.88949 3.43913Z"
        fill="#303233" />
    <path fill-rule="evenodd" clip-rule="evenodd"
        d="M12.25 7C12.25 4.37665 14.3766 2.25 17 2.25C19.6234 2.25 21.75 4.37665 21.75 7C21.75 9.62335 19.6234 11.75 17 11.75C14.3766 11.75 12.25 9.62335 12.25 7ZM14.2333 5.29393C13.9268 5.78982 13.75 6.37426 13.75 7C13.75 8.79493 15.2051 10.25 17 10.25C17.6257 10.25 18.2102 10.0732 18.7061 9.76673L14.2333 5.29393ZM15.2939 4.23327L19.7667 8.70607C20.0732 8.21018 20.25 7.62574 20.25 7C20.25 5.20507 18.7949 3.75 17 3.75C16.3743 3.75 15.7898 3.92684 15.2939 4.23327Z"
        fill="#303233" />
</svg>
