<svg width="16" height="16" viewBox="0 0 16 16" fill="none" xmlns="http://www.w3.org/2000/svg">
    <g clip-path="url(#clip0_7771_7)">
        <path
            d="M13.75 1C13.75 0.585786 13.4142 0.25 13 0.25C12.5858 0.25 12.25 0.585786 12.25 1V2.25H11C10.5858 2.25 10.25 2.58579 10.25 3C10.25 3.41421 10.5858 3.75 11 3.75H12.25V5C12.25 5.41421 12.5858 5.75 13 5.75C13.4142 5.75 13.75 5.41421 13.75 5V3.75H15C15.4142 3.75 15.75 3.41421 15.75 3C15.75 2.58579 15.4142 2.25 15 2.25H13.75V1Z"
            fill="#303233" />
        <path fill-rule="evenodd" clip-rule="evenodd"
            d="M2.46987 3.35224C2.37949 3.41798 2.32975 3.46773 2.30305 3.49997C2.32975 3.53221 2.37949 3.58196 2.46987 3.6477C2.70156 3.81625 3.08697 4.00054 3.63341 4.16868C4.71674 4.50201 6.26081 4.71997 8.00021 4.71997C8.32802 4.71997 8.64965 4.71222 8.9632 4.69733C9.39349 4.67688 9.75889 5.00913 9.77934 5.43943C9.79978 5.86973 9.46753 6.23513 9.03723 6.25557C8.69884 6.27165 8.35254 6.27997 8.00021 6.27997C6.14977 6.27997 4.44384 6.05022 3.17463 5.65969C2.85711 5.56199 2.55568 5.45085 2.28021 5.32493V7.96863C2.29498 7.99306 2.34131 8.05421 2.46987 8.14773C2.70156 8.31628 3.08697 8.50057 3.63341 8.6687C4.71674 9.00204 6.26081 9.22 8.00021 9.22C9.73962 9.22 11.2837 9.00204 12.367 8.6687C12.9135 8.50057 13.2989 8.31628 13.5306 8.14773C13.6611 8.05275 13.7069 7.99116 13.7209 7.96752C13.7379 7.55178 14.0803 7.21997 14.5002 7.21997C14.931 7.21997 15.2802 7.56919 15.2802 7.99997V12.5C15.2802 13.1452 14.8573 13.6117 14.4483 13.9092C14.0221 14.2193 13.4556 14.4659 12.8258 14.6597C11.5566 15.0502 9.85066 15.28 8.00021 15.28C6.14977 15.28 4.44384 15.0502 3.17463 14.6597C2.5448 14.4659 1.97831 14.2193 1.55216 13.9092C1.14309 13.6117 0.720215 13.1453 0.720215 12.5V3.49997C0.720215 2.85469 1.14309 2.38831 1.55216 2.09072C1.97831 1.78072 2.5448 1.53404 3.17463 1.34025C4.44384 0.949725 6.14977 0.719971 8.00021 0.719971C8.35253 0.719971 8.69884 0.728295 9.03723 0.744372C9.46753 0.764816 9.79978 1.13021 9.77934 1.56051C9.75889 1.99081 9.39349 2.32306 8.9632 2.30261C8.64965 2.28772 8.32802 2.27997 8.00021 2.27997C6.26081 2.27997 4.71674 2.49793 3.63341 2.83126C3.08697 2.9994 2.70156 3.18369 2.46987 3.35224ZM12.8258 10.1597C13.1433 10.062 13.4448 9.95088 13.7202 9.82496V12.4686C13.7055 12.4931 13.6591 12.5542 13.5306 12.6477C13.2989 12.8163 12.9135 13.0006 12.367 13.1687C11.2837 13.502 9.73962 13.72 8.00021 13.72C6.26081 13.72 4.71674 13.502 3.63341 13.1687C3.08697 13.0006 2.70156 12.8163 2.46987 12.6477C2.34131 12.5542 2.29498 12.4931 2.28021 12.4686V9.82496C2.55568 9.95088 2.85711 10.062 3.17463 10.1597C4.44384 10.5502 6.14977 10.78 8.00021 10.78C9.85066 10.78 11.5566 10.5502 12.8258 10.1597Z"
            fill="#303233" />
    </g>
    <defs>
        <clipPath id="clip0_7771_7">
            <rect width="16" height="16" fill="white" />
        </clipPath>
    </defs>
</svg>
