<svg width="16" height="16" viewBox="0 0 16 16" fill="none" xmlns="http://www.w3.org/2000/svg">
    <path
        d="M8 6.75C7.30964 6.75 6.75 7.30964 6.75 8C6.75 8.69036 7.30964 9.25 8 9.25C8.69036 9.25 9.25 8.69036 9.25 8C9.25 7.30964 8.69036 6.75 8 6.75Z"
        fill="#303233" />
    <path fill-rule="evenodd" clip-rule="evenodd"
        d="M3.37876 4.50912C4.53144 3.57247 6.08906 2.75 8 2.75C9.91094 2.75 11.4686 3.57247 12.6212 4.50912C13.7717 5.44396 14.56 6.52445 14.955 7.13337L14.9716 7.15888C15.0488 7.27694 15.1599 7.447 15.2159 7.68451C15.2614 7.87784 15.2614 8.12216 15.2159 8.31549C15.16 8.55299 15.0488 8.72305 14.9716 8.84112L14.955 8.86663C14.56 9.47555 13.7717 10.556 12.6212 11.4909C11.4686 12.4275 9.91094 13.25 8 13.25C6.08906 13.25 4.53144 12.4275 3.37876 11.4909C2.22829 10.556 1.44001 9.47555 1.04502 8.86663L1.02839 8.84112C0.951213 8.72305 0.840051 8.55299 0.784138 8.31549C0.738621 8.12216 0.738621 7.87784 0.784138 7.68451C0.840051 7.44701 0.951213 7.27694 1.02839 7.15888L1.04502 7.13337C1.44001 6.52445 2.22829 5.44396 3.37876 4.50912ZM5.25 8C5.25 6.48122 6.48122 5.25 8 5.25C9.51878 5.25 10.75 6.48122 10.75 8C10.75 9.51878 9.51878 10.75 8 10.75C6.48122 10.75 5.25 9.51878 5.25 8Z"
        fill="#303233" />
</svg>
