<svg width="16" height="16" viewBox="0 0 16 16" fill="none" xmlns="http://www.w3.org/2000/svg">
    <path
        d="M1.80352 13.2748C1.73414 13.4289 1.66285 13.5873 1.61624 13.7218C1.57384 13.8442 1.48974 14.1073 1.57156 14.4013C1.6628 14.7292 1.90284 14.9952 2.2197 15.1195C2.50385 15.2309 2.77412 15.1742 2.90023 15.1445C3.03883 15.1119 3.20363 15.0571 3.36401 15.0039L7.24969 13.7142V8.99935C7.24969 8.58513 7.58548 8.24935 7.99969 8.24935C8.41391 8.24935 8.74969 8.58513 8.74969 8.99935V13.6998L12.6306 14.999C12.7913 15.0529 12.9564 15.1082 13.0952 15.1412C13.2212 15.1712 13.492 15.2289 13.7768 15.1178C14.0943 14.9939 14.335 14.7279 14.4266 14.3997C14.5088 14.1052 14.4244 13.8415 14.382 13.7191C14.3353 13.5843 14.2638 13.4256 14.1942 13.271L9.15939 2.08252C9.09165 1.93191 9.02158 1.77612 8.95269 1.6537C8.88919 1.54089 8.74986 1.30779 8.47986 1.17429C8.17724 1.02467 7.82218 1.02467 7.51956 1.17429C7.24956 1.30779 7.11023 1.54089 7.04673 1.65371C6.97784 1.77612 6.90779 1.93187 6.84006 2.08247L1.80352 13.2748Z"
        fill="#303233" />
</svg>
