<svg width="24" height="24" viewBox="0 0 24 24" fill="none" xmlns="http://www.w3.org/2000/svg">
    <path fill-rule="evenodd" clip-rule="evenodd"
        d="M12 3C7.02944 3 3 7.02944 3 12C3 16.9706 7.02944 21 12 21C16.9706 21 21 16.9706 21 12C21 7.02944 16.9706 3 12 3ZM1 12C1 5.92487 5.92487 1 12 1C18.0751 1 23 5.92487 23 12C23 18.0751 18.0751 23 12 23C5.92487 23 1 18.0751 1 12ZM12 6C12.5523 6 13 6.44772 13 7V12C13 12.5523 12.5523 13 12 13C11.4477 13 11 12.5523 11 12V7C11 6.44772 11.4477 6 12 6ZM8.60067 8.20002C9.04222 8.53176 9.13124 9.15864 8.79949 9.60019C8.29724 10.2687 8 11.0982 8 12C8 14.2091 9.79086 16 12 16C14.2091 16 16 14.2091 16 12C16 11.0982 15.7028 10.2687 15.2005 9.60019C14.8688 9.15864 14.9578 8.53176 15.3993 8.20002C15.8409 7.86828 16.4677 7.95729 16.7995 8.39884C17.5531 9.40182 18 10.6502 18 12C18 15.3137 15.3137 18 12 18C8.68629 18 6 15.3137 6 12C6 10.6502 6.44694 9.40182 7.20051 8.39884C7.53225 7.95729 8.15913 7.86828 8.60067 8.20002Z"
        fill="#303233" />
</svg>
