<svg width="24" height="24" viewBox="0 0 24 24" fill="none" xmlns="http://www.w3.org/2000/svg">
    <path fill-rule="evenodd" clip-rule="evenodd"
        d="M1.25 9.48C1.25 6.06646 3.83497 2.25 7.88889 2.25C9.75215 2.25 11.098 3.01772 12 3.84475C12.902 3.01771 14.2478 2.25 16.1111 2.25C20.165 2.25 22.75 6.06646 22.75 9.48C22.75 11.2599 22.0605 12.9161 21.0853 14.3699C20.1096 15.8245 18.8207 17.1177 17.55 18.1886C16.2765 19.262 15.0006 20.1293 14.0321 20.7285C13.5473 21.0284 13.1363 21.2632 12.837 21.4247C12.688 21.5052 12.563 21.5695 12.4682 21.6153C12.4219 21.6378 12.376 21.6591 12.335 21.6763C12.3154 21.6845 12.2876 21.6958 12.2565 21.7064C12.2412 21.7116 12.2162 21.7197 12.1857 21.7272C12.1662 21.732 12.0933 21.75 12 21.75C11.9067 21.75 11.8343 21.7321 11.8148 21.7273C11.7842 21.7198 11.7588 21.7116 11.7435 21.7064C11.7124 21.6958 11.6846 21.6845 11.665 21.6763C11.624 21.6591 11.5781 21.6378 11.5318 21.6153C11.437 21.5695 11.312 21.5052 11.163 21.4247C10.8637 21.2632 10.4527 21.0284 9.9679 20.7285C8.99937 20.1293 7.72352 19.262 6.45 18.1886C5.17929 17.1177 3.89044 15.8245 2.91465 14.3699C1.93945 12.9161 1.25 11.2599 1.25 9.48Z"
        fill="#303233" />
</svg>
