<svg width="24" height="24" viewBox="0 0 24 24" fill="none" xmlns="http://www.w3.org/2000/svg">
    <path fill-rule="evenodd" clip-rule="evenodd"
        d="M6.25 6C6.25 5.58579 6.58579 5.25 7 5.25H21C21.4142 5.25 21.75 5.58579 21.75 6C21.75 6.41421 21.4142 6.75 21 6.75H7C6.58579 6.75 6.25 6.41421 6.25 6Z"
        fill="#303233" />
    <path fill-rule="evenodd" clip-rule="evenodd"
        d="M6.25 12C6.25 11.5858 6.58579 11.25 7 11.25H21C21.4142 11.25 21.75 11.5858 21.75 12C21.75 12.4142 21.4142 12.75 21 12.75H7C6.58579 12.75 6.25 12.4142 6.25 12Z"
        fill="#303233" />
    <path fill-rule="evenodd" clip-rule="evenodd"
        d="M2.25 6C2.25 5.58579 2.58579 5.25 3 5.25H3.01C3.42421 5.25 3.76 5.58579 3.76 6C3.76 6.41421 3.42421 6.75 3.01 6.75H3C2.58579 6.75 2.25 6.41421 2.25 6Z"
        fill="#303233" />
    <path fill-rule="evenodd" clip-rule="evenodd"
        d="M2.25 12C2.25 11.5858 2.58579 11.25 3 11.25H3.01C3.42421 11.25 3.76 11.5858 3.76 12C3.76 12.4142 3.42421 12.75 3.01 12.75H3C2.58579 12.75 2.25 12.4142 2.25 12Z"
        fill="#303233" />
    <path fill-rule="evenodd" clip-rule="evenodd"
        d="M6.25 18C6.25 17.5858 6.58579 17.25 7 17.25H21C21.4142 17.25 21.75 17.5858 21.75 18C21.75 18.4142 21.4142 18.75 21 18.75H7C6.58579 18.75 6.25 18.4142 6.25 18Z"
        fill="#303233" />
    <path fill-rule="evenodd" clip-rule="evenodd"
        d="M2.25 18C2.25 17.5858 2.58579 17.25 3 17.25H3.01C3.42421 17.25 3.76 17.5858 3.76 18C3.76 18.4142 3.42421 18.75 3.01 18.75H3C2.58579 18.75 2.25 18.4142 2.25 18Z"
        fill="#303233" />
</svg>
