<svg width="16" height="16" viewBox="0 0 16 16" fill="none" xmlns="http://www.w3.org/2000/svg">
    <path
        d="M0.75 4.00002C0.749991 2.75737 1.75735 1.75 3 1.75H6.79318C7.3122 1.75 7.80997 1.9562 8.17694 2.32324C8.45015 2.59649 8.82072 2.75 9.20712 2.75H13.0001C14.2427 2.75 15.2501 3.75736 15.2501 5V8.75H11.25C10.0074 8.75 9 9.75736 9 11C9 12.2426 10.0074 13.25 11.25 13.25H14.8712C14.4676 13.853 13.7802 14.25 13.0001 14.25H3.00006C1.75742 14.25 0.750065 13.2427 0.750056 12L0.75 4.00002Z"
        fill="#303233" />
    <path
        d="M10.5 11C10.5 10.5858 10.8358 10.25 11.25 10.25H15.25C15.6642 10.25 16 10.5858 16 11C16 11.4142 15.6642 11.75 15.25 11.75H11.25C10.8358 11.75 10.5 11.4142 10.5 11Z"
        fill="#303233" />
</svg>
