<svg width="16" height="16" viewBox="0 0 16 16" fill="none" xmlns="http://www.w3.org/2000/svg">
    <path fill-rule="evenodd" clip-rule="evenodd"
        d="M5.77853 1H10.2215C10.7808 0.999996 11.231 0.999992 11.5954 1.02976C11.9702 1.06039 12.298 1.125 12.6009 1.2793C13.083 1.52497 13.475 1.91698 13.7207 2.39915C13.875 2.70198 13.9396 3.02979 13.9702 3.40464C14 3.76899 14 4.21918 14 4.77851V7.5H15C15.2761 7.5 15.5 7.72386 15.5 8C15.5 8.27614 15.2761 8.5 15 8.5H1C0.723858 8.5 0.5 8.27614 0.5 8C0.5 7.72386 0.723858 7.5 1 7.5H2V4.77853C2 4.21919 1.99999 3.769 2.02976 3.40464C2.06039 3.02979 2.125 2.70198 2.2793 2.39915C2.52497 1.91698 2.91698 1.52497 3.39915 1.2793C3.70198 1.125 4.02979 1.06039 4.40464 1.02976C4.76899 0.999992 5.2192 0.999996 5.77853 1ZM3 7.5H13V4.8C13 4.2142 12.9996 3.80491 12.9736 3.48607C12.948 3.17306 12.9002 2.9915 12.8297 2.85314C12.6799 2.55914 12.4409 2.32011 12.1469 2.1703C12.0085 2.0998 11.8269 2.05201 11.5139 2.02644C11.1951 2.00039 10.7858 2 10.2 2H5.8C5.2142 2 4.80491 2.00039 4.48607 2.02644C4.17306 2.05201 3.9915 2.0998 3.85314 2.1703C3.55914 2.32011 3.3201 2.55914 3.1703 2.85314C3.0998 2.9915 3.05201 3.17306 3.02644 3.48607C3.00039 3.80491 3 4.2142 3 4.8V7.5Z"
        fill="#303233" />
    <path
        d="M2.5 12.75C2.77614 12.75 3 12.9739 3 13.25C3 13.6642 3.33579 14 3.75 14C4.02614 14 4.25 14.2239 4.25 14.5C4.25 14.7761 4.02614 15 3.75 15C2.7835 15 2 14.2165 2 13.25C2 12.9739 2.22386 12.75 2.5 12.75Z"
        fill="#303233" />
    <path
        d="M13.5 12.75C13.7761 12.75 14 12.9739 14 13.25C14 14.2165 13.2165 15 12.25 15C11.9739 15 11.75 14.7761 11.75 14.5C11.75 14.2239 11.9739 14 12.25 14C12.6642 14 13 13.6642 13 13.25C13 12.9739 13.2239 12.75 13.5 12.75Z"
        fill="#303233" />
    <path
        d="M3 10.75C3 10.4739 2.77614 10.25 2.5 10.25C2.22386 10.25 2 10.4739 2 10.75C2 11.0261 2.22386 11.25 2.5 11.25C2.77614 11.25 3 11.0261 3 10.75Z"
        fill="#303233" />
    <path
        d="M13.5 10.25C13.7761 10.25 14 10.4739 14 10.75C14 11.0261 13.7761 11.25 13.5 11.25C13.2239 11.25 13 11.0262 13 10.75C13 10.4739 13.2239 10.25 13.5 10.25Z"
        fill="#303233" />
    <path
        d="M6.75 14C6.47386 14 6.25 14.2239 6.25 14.5C6.25 14.7761 6.47386 15 6.75 15H9.25C9.52614 15 9.75 14.7761 9.75 14.5C9.75 14.2239 9.52614 14 9.25 14H6.75Z"
        fill="#303233" />
</svg>
