<svg width="16" height="16" viewBox="0 0 16 16" fill="none" xmlns="http://www.w3.org/2000/svg">
    <path
        d="M5.6786 1H10.3214C10.8633 0.999995 11.3004 0.999992 11.6543 1.02891C12.0187 1.05868 12.3388 1.12159 12.635 1.27248C13.1054 1.51217 13.4878 1.89462 13.7275 2.36502C13.8784 2.66117 13.9413 2.98126 13.9711 3.34569C14 3.69961 14 4.13672 14 4.67858V7.5C14 7.77614 13.7761 8 13.5 8C13.2239 8 13 7.77614 13 7.5V4.7C13 4.1317 12.9996 3.73554 12.9744 3.42712C12.9497 3.12454 12.9036 2.95069 12.8365 2.81901C12.6927 2.53677 12.4632 2.3073 12.181 2.16349C12.0493 2.0964 11.8755 2.05031 11.5729 2.02559C11.2645 2.00039 10.8683 2 10.3 2H5.7C5.1317 2 4.73554 2.00039 4.42712 2.02559C4.12454 2.05031 3.95069 2.0964 3.81901 2.16349C3.53677 2.3073 3.3073 2.53677 3.16349 2.81901C3.0964 2.95069 3.05031 3.12454 3.02559 3.42712C3.00039 3.73554 3 4.1317 3 4.7V11.3C3 11.8683 3.00039 12.2645 3.02559 12.5729C3.05031 12.8755 3.0964 13.0493 3.16349 13.181C3.3073 13.4632 3.53677 13.6927 3.81901 13.8365C3.95069 13.9036 4.12454 13.9497 4.42712 13.9744C4.73554 13.9996 5.1317 14 5.7 14H8C8.27614 14 8.5 14.2239 8.5 14.5C8.5 14.7761 8.27614 15 8 15H5.67853C5.13667 15 4.69961 15 4.34569 14.9711C3.98126 14.9413 3.66117 14.8784 3.36502 14.7275C2.89462 14.4878 2.51217 14.1054 2.27248 13.635C2.12159 13.3388 2.05868 13.0187 2.02891 12.6543C1.99999 12.3004 2 11.8633 2 11.3214V4.6786C2 4.1367 1.99999 3.69963 2.02891 3.34569C2.05868 2.98126 2.12159 2.66117 2.27248 2.36502C2.51217 1.89462 2.89462 1.51217 3.36502 1.27248C3.66117 1.12159 3.98126 1.05868 4.34569 1.02891C4.69963 0.999992 5.13671 0.999995 5.6786 1Z"
        fill="#303233" />
    <path
        d="M12.25 11.2071V14.5C12.25 14.7761 12.0261 15 11.75 15C11.4739 15 11.25 14.7761 11.25 14.5V11.2071L9.85355 12.6036C9.65829 12.7988 9.34171 12.7988 9.14645 12.6036C8.95118 12.4083 8.95118 12.0917 9.14645 11.8964L11.3964 9.64645C11.5917 9.45118 11.9083 9.45118 12.1036 9.64645L14.3536 11.8964C14.5488 12.0917 14.5488 12.4083 14.3536 12.6036C14.1583 12.7988 13.8417 12.7988 13.6464 12.6036L12.25 11.2071Z"
        fill="#303233" />
</svg>
