<svg width="24" height="24" viewBox="0 0 24 24" fill="none" xmlns="http://www.w3.org/2000/svg">
    <path
        d="M1 5C1 3.34315 2.34315 2 4 2H10.1716C10.702 2 11.2107 2.21071 11.5858 2.58579L12.4142 3.41421C12.7893 3.78929 13.298 4 13.8284 4H20C21.6569 4 23 5.34315 23 7V14H17C15.3431 14 14 15.3431 14 17C14 18.6569 15.3431 20 17 20H22.8293C22.4175 21.1652 21.3062 22 20 22H4C2.34315 22 1 20.6569 1 19V5Z"
        fill="#303233" />
    <path
        d="M17 16C16.4477 16 16 16.4477 16 17C16 17.5523 16.4477 18 17 18H23C23.5523 18 24 17.5523 24 17C24 16.4477 23.5523 16 23 16H17Z"
        fill="#303233" />
</svg>
