<svg width="24" height="24" viewBox="0 0 24 24" fill="none" xmlns="http://www.w3.org/2000/svg">
    <path
        d="M17.4697 1.21967C17.7626 0.926777 18.2374 0.926777 18.5303 1.21967L22.7803 5.46967C23.0732 5.76256 23.0732 6.23744 22.7803 6.53033C22.4874 6.82322 22.0126 6.82322 21.7197 6.53033L18.75 3.56066V10C18.75 10.4142 18.4142 10.75 18 10.75C17.5858 10.75 17.25 10.4142 17.25 10V3.56066L14.2803 6.53033C13.9874 6.82322 13.5126 6.82322 13.2197 6.53033C12.9268 6.23744 12.9268 5.76256 13.2197 5.46967L17.4697 1.21967Z"
        fill="#303233" />
    <path
        d="M10.1483 4.93346C10.5543 4.85156 10.8171 4.45601 10.7352 4.04998C10.6533 3.64394 10.2577 3.38117 9.85171 3.46307C5.56178 4.32835 2.25 7.77058 2.25 12C2.25 13.0593 2.45687 14.0685 2.83452 15H2.83818C2.93809 15.2459 3.04992 15.4868 3.17304 15.722C3.38304 16.123 3.47804 16.59 3.31904 17.013L2.29804 19.737C2.20204 19.992 2.25204 20.278 2.42904 20.486C2.60504 20.693 2.88004 20.789 3.14704 20.735L7.24203 19.916C7.52303 19.86 7.81203 19.907 8.07803 20.012C9.32503 20.503 10.657 20.754 12.001 20.75C16.2243 20.7492 19.7978 18.3435 21.1601 15H21.1625C21.2671 14.742 21.3589 14.478 21.4369 14.2086C21.5521 13.8108 21.3229 13.3948 20.9251 13.2796C20.5272 13.1644 20.1113 13.3936 19.9961 13.7914C19.8752 14.2088 19.7123 14.613 19.5113 15H19.5149C18.2138 17.5158 15.3266 19.25 12 19.25H11.997C10.842 19.254 9.69902 19.038 8.62803 18.616C8.09303 18.406 7.51103 18.333 6.94803 18.445L4.17604 19L4.72304 17.54C5.03203 16.717 4.91003 15.804 4.50204 15.026L4.4885 15H4.49167C4.01423 14.0798 3.75 13.0618 3.75 12C3.75 8.61495 6.42227 5.685 10.1483 4.93346Z"
        fill="#303233" />
</svg>
