<svg width="16" height="16" viewBox="0 0 16 16" fill="none" xmlns="http://www.w3.org/2000/svg">
    <g clip-path="url(#clip0_53_9094)">
        <path fill-rule="evenodd" clip-rule="evenodd"
            d="M8 0.75C3.99594 0.75 0.75 3.99594 0.75 8C0.75 12.0041 3.99594 15.25 8 15.25C8.28165 15.25 8.55955 15.2339 8.83283 15.2027C8.84325 15.1202 8.85925 15.0357 8.88127 14.9492C9.14568 13.9106 9.7922 13.0243 10.6628 12.4498C10.4012 12.0289 10.2501 11.5321 10.2501 11C10.2501 9.48122 11.4813 8.25 13.0001 8.25C13.8639 8.25 14.6348 8.64832 15.1389 9.27132C15.2119 8.85855 15.25 8.43372 15.25 8C15.25 3.99594 12.0041 0.75 8 0.75ZM8.75 4.5C8.75 4.08579 8.41421 3.75 8 3.75C7.58579 3.75 7.25 4.08579 7.25 4.5V8C7.25 8.28408 7.4105 8.54378 7.66459 8.67082L9.66459 9.67082C10.0351 9.85606 10.4856 9.70589 10.6708 9.33541C10.8561 8.96493 10.7059 8.51442 10.3354 8.32918L8.75 7.53647V4.5Z"
            fill="#303233" />
        <path
            d="M14.5 11C14.5 11.8284 13.8284 12.5 13 12.5C12.1716 12.5 11.5 11.8284 11.5 11C11.5 10.1716 12.1716 9.5 13 9.5C13.8284 9.5 14.5 10.1716 14.5 11Z"
            fill="#303233" />
        <path
            d="M15.9074 15.2576C15.577 13.9598 14.4006 13 13 13C11.5994 13 10.423 13.9598 10.0926 15.2576C9.99038 15.659 10.3358 16 10.75 16H15.25C15.6642 16 16.0096 15.659 15.9074 15.2576Z"
            fill="#303233" />
    </g>
    <defs>
        <clipPath id="clip0_53_9094">
            <rect width="16" height="16" fill="white" />
        </clipPath>
    </defs>
</svg>
