<svg width="16" height="16" viewBox="0 0 16 16" fill="none" xmlns="http://www.w3.org/2000/svg">
    <path fill-rule="evenodd" clip-rule="evenodd"
        d="M5.875 7.375V7.5H5.75309C5.19149 7.5 4.75 7.92768 4.75 8.43939V10.5606C4.75 11.0723 5.19149 11.5 5.75309 11.5H10.2469C10.8085 11.5 11.25 11.0723 11.25 10.5606V8.43939C11.25 7.92768 10.8085 7.5 10.2469 7.5H10.125V7.375C10.125 6.81141 9.90112 6.27091 9.5026 5.8724C9.10409 5.47388 8.56359 5.25 8 5.25C7.43641 5.25 6.89591 5.47388 6.4974 5.8724C6.09888 6.27091 5.875 6.81141 5.875 7.375ZM8 6C7.63533 6 7.28559 6.14487 7.02773 6.40273C6.76987 6.66059 6.625 7.01033 6.625 7.375V7.5H9.375V7.375C9.375 7.01033 9.23013 6.66059 8.97227 6.40273C8.71441 6.14487 8.36467 6 8 6Z"
        fill="#303233" />
    <path fill-rule="evenodd" clip-rule="evenodd"
        d="M3 1.75C1.75735 1.75 0.749991 2.75737 0.75 4.00002L0.750056 12C0.750065 13.2427 1.75742 14.25 3.00006 14.25H13.0001C14.2427 14.25 15.2501 13.2426 15.2501 12V5C15.2501 3.75736 14.2427 2.75 13.0001 2.75H9.20712C8.82072 2.75 8.45015 2.59649 8.17694 2.32324C7.80997 1.9562 7.3122 1.75 6.79318 1.75H3ZM2.25015 5C2.25015 4.58579 2.58594 4.25 3.00015 4.25H13.0002C13.4144 4.25 13.7502 4.58579 13.7502 5V12C13.7502 12.4142 13.4144 12.75 13.0002 12.75H3.00015C2.58594 12.75 2.25015 12.4142 2.25015 12V5Z"
        fill="#303233" />
</svg>
