<svg width="24" height="24" viewBox="0 0 24 24" fill="none" xmlns="http://www.w3.org/2000/svg">
    <path
        d="M10 13C9.44772 13 9 13.4477 9 14C9 14.5523 9.44772 15 10 15C10.5523 15 11 14.5523 11 14C11 13.4477 10.5523 13 10 13Z"
        fill="#303233" />
    <path
        d="M14 13C13.4477 13 13 13.4477 13 14C13 14.5523 13.4477 15 14 15C14.5523 15 15 14.5523 15 14C15 13.4477 14.5523 13 14 13Z"
        fill="#303233" />
    <path
        d="M18 13C17.4477 13 17 13.4477 17 14C17 14.5523 17.4477 15 18 15C18.5523 15 19 14.5523 19 14C19 13.4477 18.5523 13 18 13Z"
        fill="#303233" />
    <path fill-rule="evenodd" clip-rule="evenodd"
        d="M15.8304 4.25H4.16957C3.63542 4.24999 3.18956 4.24998 2.82533 4.27974C2.44545 4.31078 2.08879 4.37789 1.75153 4.54973C1.23408 4.81338 0.813385 5.23408 0.549733 5.75153C0.377889 6.08879 0.310778 6.44545 0.27974 6.82533C0.249982 7.18956 0.24999 7.6354 0.25 8.16955V11.8304C0.24999 12.3646 0.249982 12.8104 0.27974 13.1747C0.310778 13.5546 0.377889 13.9112 0.549733 14.2485C0.813385 14.7659 1.23408 15.1866 1.75153 15.4503C2.08879 15.6221 2.44545 15.6892 2.82533 15.7203C3.18955 15.75 3.63538 15.75 4.16951 15.75H4.25V15.8304C4.24999 16.3646 4.24998 16.8104 4.27974 17.1747C4.31078 17.5546 4.37789 17.9112 4.54973 18.2485C4.81339 18.7659 5.23408 19.1866 5.75153 19.4503C6.08879 19.6221 6.44545 19.6892 6.82533 19.7203C7.18955 19.75 7.63538 19.75 8.16951 19.75H19.8305C20.3646 19.75 20.8104 19.75 21.1747 19.7203C21.5546 19.6892 21.9112 19.6221 22.2485 19.4503C22.7659 19.1866 23.1866 18.7659 23.4503 18.2485C23.6221 17.9112 23.6892 17.5546 23.7203 17.1747C23.75 16.8104 23.75 16.3646 23.75 15.8305V12.1695C23.75 11.6354 23.75 11.1896 23.7203 10.8253C23.6892 10.4454 23.6221 10.0888 23.4503 9.75153C23.1866 9.23408 22.7659 8.81338 22.2485 8.54973C21.9112 8.37789 21.5546 8.31078 21.1747 8.27974C20.8104 8.24998 20.3646 8.24999 19.8304 8.25H19.75V8.16955C19.75 7.6354 19.75 7.18956 19.7203 6.82533C19.6892 6.44545 19.6221 6.08879 19.4503 5.75153C19.1866 5.23408 18.7659 4.81338 18.2485 4.54973C17.9112 4.37789 17.5546 4.31078 17.1747 4.27974C16.8104 4.24998 16.3646 4.24999 15.8304 4.25ZM18.25 8.25V8.2C18.25 7.62757 18.2494 7.24336 18.2252 6.94748C18.2018 6.66036 18.1599 6.52307 18.1138 6.43251C17.9939 6.19731 17.8027 6.00608 17.5675 5.88624C17.4769 5.8401 17.3396 5.79822 17.0525 5.77476C16.7566 5.75058 16.3724 5.75 15.8 5.75H4.2C3.62757 5.75 3.24336 5.75058 2.94748 5.77476C2.66036 5.79822 2.52307 5.8401 2.43251 5.88624C2.19731 6.00608 2.00608 6.19731 1.88624 6.43251C1.8401 6.52307 1.79822 6.66036 1.77476 6.94748C1.75058 7.24336 1.75 7.62757 1.75 8.2V11.8C1.75 12.3724 1.75058 12.7566 1.77476 13.0525C1.79822 13.3396 1.8401 13.4769 1.88624 13.5675C2.00608 13.8027 2.19731 13.9939 2.43251 14.1138C2.52307 14.1599 2.66036 14.2018 2.94748 14.2252C3.24336 14.2494 3.62757 14.25 4.2 14.25H4.25V12.1696C4.24999 11.6354 4.24998 11.1896 4.27974 10.8253C4.31078 10.4454 4.37789 10.0888 4.54973 9.75153C4.81339 9.23408 5.23408 8.81339 5.75153 8.54973C6.08879 8.37789 6.44545 8.31078 6.82533 8.27974C7.18956 8.24998 7.63541 8.24999 8.16957 8.25H18.25ZM5.75 15.8C5.75 16.3724 5.75058 16.7566 5.77476 17.0525C5.79822 17.3396 5.8401 17.4769 5.88624 17.5675C6.00608 17.8027 6.19731 17.9939 6.43251 18.1138C6.52307 18.1599 6.66036 18.2018 6.94748 18.2252C7.24336 18.2494 7.62757 18.25 8.2 18.25H19.8C20.3724 18.25 20.7566 18.2494 21.0525 18.2252C21.3396 18.2018 21.4769 18.1599 21.5675 18.1138C21.8027 17.9939 21.9939 17.8027 22.1138 17.5675C22.1599 17.4769 22.2018 17.3396 22.2252 17.0525C22.2494 16.7566 22.25 16.3724 22.25 15.8V12.2C22.25 11.6276 22.2494 11.2434 22.2252 10.9475C22.2018 10.6604 22.1599 10.5231 22.1138 10.4325C21.9939 10.1973 21.8027 10.0061 21.5675 9.88624C21.4769 9.8401 21.3396 9.79822 21.0525 9.77476C20.7566 9.75058 20.3724 9.75 19.8 9.75H8.2C7.62757 9.75 7.24336 9.75058 6.94748 9.77476C6.66036 9.79822 6.52307 9.8401 6.43251 9.88624C6.19731 10.0061 6.00608 10.1973 5.88624 10.4325C5.8401 10.5231 5.79822 10.6604 5.77476 10.9475C5.75058 11.2434 5.75 11.6276 5.75 12.2V15.8Z"
        fill="#303233" />
</svg>
