<svg width="16" height="16" viewBox="0 0 16 16" fill="none" xmlns="http://www.w3.org/2000/svg">
    <g clip-path="url(#clip0_53_5468)">
        <path fill-rule="evenodd" clip-rule="evenodd"
            d="M2.03033 0.96967C1.73744 0.676777 1.26256 0.676777 0.96967 0.96967C0.676777 1.26256 0.676777 1.73744 0.96967 2.03033L1.52536 2.58602C1.33569 2.78171 1.17499 3.0057 1.04973 3.25153C0.877889 3.58879 0.810778 3.94545 0.77974 4.32533C0.749982 4.68956 0.74999 5.1354 0.75 5.66955V8.33044C0.74999 8.86458 0.749982 9.31044 0.77974 9.67467C0.810778 10.0546 0.877889 10.4112 1.04973 10.7485C1.31339 11.2659 1.73408 11.6866 2.25153 11.9503C2.58879 12.1221 2.94545 12.1892 3.32533 12.2203C3.68955 12.25 4.13538 12.25 4.66951 12.25H11.1893L13.9697 15.0303C14.2626 15.3232 14.7374 15.3232 15.0303 15.0303C15.3232 14.7374 15.3232 14.2626 15.0303 13.9697L2.03033 0.96967Z"
            fill="#303233" />
        <path fill-rule="evenodd" clip-rule="evenodd"
            d="M12.6747 1.77974C13.0546 1.81078 13.4112 1.87789 13.7485 2.04973C14.2659 2.31338 14.6866 2.73408 14.9503 3.25153C15.1221 3.58879 15.1892 3.94545 15.2203 4.32533C15.25 4.68955 15.25 5.13538 15.25 5.66951V8.32547C15.25 8.83054 15.25 9.25538 15.2255 9.60519C15.2003 9.96537 15.1463 10.3061 15.0071 10.6276C14.9084 10.8557 14.7032 11.02 14.4591 11.0665C14.215 11.1129 13.9637 11.0355 13.7881 10.8597L5.9693 3.02996C5.75502 2.81538 5.69104 2.49288 5.80719 2.21275C5.92334 1.93262 6.19675 1.75 6.5 1.75L11.3304 1.75C11.8646 1.74999 12.3104 1.74998 12.6747 1.77974Z"
            fill="#303233" />
        <path
            d="M8.00015 14.25C7.05016 14.25 6.15197 14.4876 5.35187 14.9124C4.98603 15.1067 4.53199 14.9676 4.33774 14.6017C4.14349 14.2359 4.28259 13.7818 4.64843 13.5876C5.65692 13.0521 6.79572 12.75 8.00015 12.75C9.20458 12.75 10.3434 13.0521 11.3519 13.5876C11.7177 13.7818 11.8568 14.2359 11.6626 14.6017C11.4683 14.9676 11.0143 15.1067 10.6484 14.9124C9.84833 14.4876 8.95014 14.25 8.00015 14.25Z"
            fill="#303233" />
    </g>
    <defs>
        <clipPath id="clip0_53_5468">
            <rect width="16" height="16" fill="white" />
        </clipPath>
    </defs>
</svg>
