<svg width="24" height="24" viewBox="0 0 24 24" fill="none" xmlns="http://www.w3.org/2000/svg">
    <path fill-rule="evenodd" clip-rule="evenodd"
        d="M12 1.25C12.4142 1.25 12.75 1.58579 12.75 2C12.75 2.41421 12.4142 2.75 12 2.75C9.5729 2.75 7.40654 3.07868 5.87305 3.58984C5.10272 3.84662 4.53338 4.13613 4.17188 4.4209C3.80193 4.71245 3.75 4.91409 3.75 5C3.75 5.08591 3.80193 5.28755 4.17188 5.5791C4.53338 5.86387 5.10272 6.15338 5.87305 6.41016C7.40654 6.92132 9.5729 7.25 12 7.25C12.4142 7.25 12.75 7.58579 12.75 8C12.75 8.41421 12.4142 8.75 12 8.75C9.45654 8.75 7.12231 8.40763 5.39844 7.83301C4.78116 7.62723 4.22051 7.38466 3.75 7.10352V12C3.75 12.0859 3.80193 12.2876 4.17188 12.5791C4.53338 12.8639 5.10272 13.1534 5.87305 13.4102C7.40654 13.9213 9.5729 14.25 12 14.25C14.4271 14.25 16.5935 13.9213 18.127 13.4102C18.8973 13.1534 19.4666 12.8639 19.8281 12.5791C20.1981 12.2876 20.25 12.0859 20.25 12C20.25 11.5858 20.5858 11.25 21 11.25C21.4142 11.25 21.75 11.5858 21.75 12V19C21.75 19.7425 21.2977 20.3306 20.7568 20.7568C20.2076 21.1897 19.4594 21.547 18.6016 21.833C16.8777 22.4076 14.5435 22.75 12 22.75C9.45654 22.75 7.12231 22.4076 5.39844 21.833C4.54061 21.547 3.79244 21.1897 3.24316 20.7568C2.70226 20.3306 2.25 19.7425 2.25 19V5C2.25 4.25749 2.70226 3.66944 3.24316 3.24316C3.79244 2.81031 4.54061 2.45296 5.39844 2.16699C7.12231 1.59237 9.45654 1.25 12 1.25ZM20.25 14.1035C19.7795 14.3847 19.2188 14.6272 18.6016 14.833C16.8777 15.4076 14.5435 15.75 12 15.75C9.45654 15.75 7.12231 15.4076 5.39844 14.833C4.78116 14.6272 4.22051 14.3847 3.75 14.1035V19C3.75 19.0859 3.80193 19.2876 4.17188 19.5791C4.53338 19.8639 5.10272 20.1534 5.87305 20.4102C7.40654 20.9213 9.5729 21.25 12 21.25C14.4271 21.25 16.5935 20.9213 18.127 20.4102C18.8973 20.1534 19.4666 19.8639 19.8281 19.5791C20.1981 19.2876 20.25 19.0859 20.25 19V14.1035Z"
        fill="#303233" />
    <path fill-rule="evenodd" clip-rule="evenodd"
        d="M19 0.25C21.6234 0.25 23.75 2.37665 23.75 5C23.75 7.62335 21.6234 9.75 19 9.75C16.3767 9.7499 14.25 7.62329 14.25 5C14.25 2.37671 16.3767 0.250103 19 0.25ZM19 7C18.7239 7.0001 18.5 7.22392 18.5 7.5V7.50977C18.5 7.78584 18.7239 8.00966 19 8.00977C19.2761 8.00977 19.5 7.78591 19.5 7.50977V7.5C19.5 7.22386 19.2761 7 19 7ZM19 2C18.7239 2.0001 18.5 2.22392 18.5 2.5V5.5C18.5 5.77608 18.7239 5.9999 19 6C19.2761 6 19.5 5.77614 19.5 5.5V2.5C19.5 2.22386 19.2761 2 19 2Z"
        fill="#303233" />
</svg>
