<svg width="16" height="16" viewBox="0 0 16 16" fill="none" xmlns="http://www.w3.org/2000/svg">
    <path fill-rule="evenodd" clip-rule="evenodd"
        d="M3.44206 2.00008C2.92691 1.99621 2.57704 2.13319 2.35512 2.35512C2.13319 2.57704 1.99621 2.92691 2.00008 3.44205C2.00396 3.95967 2.15181 4.60272 2.4535 5.33539C2.68662 5.90155 3.00574 6.50704 3.40334 7.1306C3.9155 6.46228 4.49994 5.79439 5.14712 5.14722C5.79433 4.5 6.46226 3.91553 7.13062 3.40335C6.50705 3.00575 5.90156 2.68662 5.33539 2.4535C4.60272 2.15181 3.95967 2.00396 3.44206 2.00008ZM8.00009 2.77767C7.21606 2.24989 6.44366 1.82839 5.71614 1.52882C4.91101 1.1973 4.13705 1.00526 3.44956 1.00011C2.75959 0.99493 2.11626 1.17976 1.64801 1.64801C1.17976 2.11626 0.99493 2.75959 1.00011 3.44956C1.00526 4.13705 1.1973 4.91101 1.52882 5.71614C1.82838 6.44365 2.24988 7.21604 2.77765 8.00007C2.24989 8.78408 1.82841 9.55646 1.52885 10.284C1.19733 11.0891 1.00529 11.863 1.00013 12.5505C0.994959 13.2405 1.17979 13.8838 1.64804 14.3521C2.11629 14.8203 2.75962 15.0052 3.44958 15C4.13708 14.9948 4.91104 14.8028 5.71617 14.4713C6.44368 14.1717 7.21607 13.7502 8.00009 13.2224C8.78406 13.7502 9.55638 14.1716 10.2838 14.4712C11.089 14.8027 11.8629 14.9947 12.5504 14.9999C13.2404 15.005 13.8837 14.8202 14.352 14.352C14.8202 13.8837 15.005 13.2404 14.9999 12.5504C14.9947 11.8629 14.8027 11.089 14.4712 10.2838C14.1716 9.55637 13.7502 8.78404 13.2224 8.00007C13.7502 7.21609 14.1716 6.44374 14.4712 5.71626C14.8027 4.91114 14.9947 4.13718 14.9999 3.44968C15.0051 2.75972 14.8202 2.11639 14.352 1.64814C13.8837 1.17989 13.2404 0.995058 12.5504 1.00023C11.863 1.00539 11.089 1.19743 10.2839 1.52895C9.5564 1.82849 8.78407 2.24995 8.00009 2.77767ZM8.00009 4.00081C7.28519 4.52733 6.55982 5.14873 5.85422 5.85432C5.14867 6.55988 4.52729 7.28521 4.0008 8.00007C4.52729 8.71491 5.14865 9.44023 5.8542 10.1458C6.5598 10.8514 7.28518 11.4728 8.00009 11.9993C8.71493 11.4728 9.44025 10.8514 10.1458 10.1459C10.8514 9.44031 11.4728 8.71495 11.9993 8.00007C11.4728 7.28517 10.8514 6.5598 10.1458 5.8542C9.44024 5.14866 8.71492 4.5273 8.00009 4.00081ZM12.5967 7.13059C12.0846 6.46223 11.5001 5.7943 10.8529 5.14709C10.2057 4.49993 9.53786 3.91551 8.86957 3.40337C9.49306 3.00582 10.0985 2.68673 10.6646 2.45362C11.3973 2.15194 12.0403 2.00409 12.5579 2.00021C13.0731 1.99634 13.423 2.13332 13.6449 2.35524C13.8668 2.57717 14.0038 2.92704 13.9999 3.44218C13.996 3.9598 13.8482 4.60284 13.5465 5.33551C13.3134 5.90164 12.9943 6.50708 12.5967 7.13059ZM12.5967 8.86955C12.0846 9.5379 11.5001 10.2058 10.8529 10.853C10.2057 11.5002 9.53787 12.0846 8.86957 12.5968C9.49305 12.9943 10.0985 13.3134 10.6646 13.5465C11.3973 13.8482 12.0403 13.996 12.5579 13.9999C13.0731 14.0038 13.4229 13.8668 13.6449 13.6449C13.8668 13.4229 14.0038 13.0731 13.9999 12.5579C13.996 12.0403 13.8482 11.3973 13.5465 10.6646C13.3134 10.0985 12.9943 9.49304 12.5967 8.86955ZM7.13061 12.5968C6.46224 12.0846 5.79431 11.5001 5.14709 10.8529C4.49993 10.2057 3.9155 9.53785 3.40335 8.86954C3.00576 9.49308 2.68665 10.0986 2.45353 10.6647C2.15184 11.3974 2.00399 12.0404 2.00011 12.558C1.99624 13.0732 2.13322 13.4231 2.35514 13.645C2.57707 13.8669 2.92694 14.0039 3.44208 14C3.9597 13.9961 4.60275 13.8483 5.33542 13.5466C5.90157 13.3135 6.50706 12.9944 7.13061 12.5968ZM7.14655 8.00011C7.14655 7.52876 7.52866 7.14665 8.00001 7.14665C8.47137 7.14665 8.85347 7.52876 8.85347 8.00011C8.85347 8.47147 8.47137 8.85357 8.00001 8.85357C7.52866 8.85357 7.14655 8.47147 7.14655 8.00011Z"
        fill="#303233" />
</svg>
