<svg width="24" height="24" viewBox="0 0 24 24" fill="none" xmlns="http://www.w3.org/2000/svg">
    <path fill-rule="evenodd" clip-rule="evenodd"
        d="M10 5.41422L7.17574 8.23848C7.16402 8.2502 7.15202 8.26227 7.13972 8.27463C7.00579 8.40928 6.83714 8.57883 6.63079 8.70528C6.45185 8.81494 6.25676 8.89575 6.05268 8.94474C5.81735 9.00124 5.57821 9.0006 5.3883 9.00009C5.37086 9.00005 5.35383 9 5.33726 9H3.60001C3.30348 9 3.14122 9.00078 3.02464 9.01031C3.02 9.01068 3.0156 9.01107 3.01145 9.01145C3.01107 9.0156 3.01069 9.01999 3.01031 9.02464C3.00078 9.14122 3.00001 9.30348 3.00001 9.6V14.4C3.00001 14.6965 3.00078 14.8588 3.01031 14.9754C3.01069 14.98 3.01107 14.9844 3.01145 14.9886C3.0156 14.9889 3.02 14.9893 3.02464 14.9897C3.14122 14.9992 3.30348 15 3.60001 15H5.33726C5.35383 15 5.37086 15 5.3883 14.9999C5.57821 14.9994 5.81735 14.9988 6.05268 15.0553C6.25676 15.1043 6.45185 15.1851 6.63079 15.2947C6.83715 15.4212 7.00579 15.5907 7.13972 15.7254C7.15202 15.7377 7.16403 15.7498 7.17574 15.7615L10 18.5858V5.41422ZM10.3823 2.71173C10.861 2.67406 11.3288 2.86782 11.6406 3.23294C11.9199 3.55988 11.9642 3.95314 11.9811 4.14403C12.0001 4.358 12 4.62376 12 4.89414C12 4.90654 12 4.91895 12 4.93137L12 19.1059C12 19.3762 12.0001 19.642 11.9811 19.856C11.9642 20.0469 11.9199 20.4401 11.6406 20.7671C11.3288 21.1322 10.861 21.3259 10.3823 21.2883C9.95368 21.2545 9.64424 21.0078 9.4973 20.8848C9.33259 20.7469 9.1447 20.559 8.95355 20.3678L5.76153 17.1757C5.6689 17.0831 5.6225 17.037 5.58738 17.005L5.58472 17.0026L5.58114 17.0024C5.53365 17.0002 5.46826 17 5.33726 17L3.56812 17C3.31574 17 3.06994 17.0001 2.86178 16.9831C2.63318 16.9644 2.36345 16.9203 2.09202 16.782C1.7157 16.5903 1.40974 16.2843 1.21799 15.908C1.07969 15.6366 1.03563 15.3668 1.01695 15.1382C0.999943 14.9301 0.999973 14.6843 1 14.4319L1.00001 9.6C1.00001 9.58936 1 9.57873 1 9.56811C0.999973 9.31572 0.999943 9.06993 1.01695 8.86177C1.03563 8.63318 1.07969 8.36345 1.21799 8.09202C1.40974 7.7157 1.7157 7.40974 2.09202 7.21799C2.36345 7.07969 2.63318 7.03562 2.86178 7.01695C3.06993 6.99994 3.31572 6.99997 3.56811 7C3.57873 7 3.58936 7 3.60001 7H5.33726C5.46826 7 5.53365 6.99976 5.58114 6.99759L5.58472 6.99742L5.58738 6.99501C5.6225 6.96296 5.6689 6.9169 5.76153 6.82427L8.92721 3.65858C8.93599 3.6498 8.94477 3.64102 8.95354 3.63225C9.1447 3.44104 9.33259 3.25309 9.4973 3.11519C9.64424 2.99217 9.95368 2.74547 10.3823 2.71173ZM15.2929 8.2929C15.6834 7.90237 16.3166 7.90237 16.7071 8.2929L19 10.5858L21.2929 8.2929C21.6834 7.90237 22.3166 7.90237 22.7071 8.2929C23.0976 8.68342 23.0976 9.31659 22.7071 9.70711L20.4142 12L22.7071 14.2929C23.0976 14.6834 23.0976 15.3166 22.7071 15.7071C22.3166 16.0976 21.6834 16.0976 21.2929 15.7071L19 13.4142L16.7071 15.7071C16.3166 16.0976 15.6834 16.0976 15.2929 15.7071C14.9024 15.3166 14.9024 14.6834 15.2929 14.2929L17.5858 12L15.2929 9.70711C14.9024 9.31659 14.9024 8.68342 15.2929 8.2929Z"
        fill="#303233" />
</svg>
