<svg width="24" height="24" viewBox="0 0 24 24" fill="none" xmlns="http://www.w3.org/2000/svg">
    <path fill-rule="evenodd" clip-rule="evenodd"
        d="M1.25 12C1.25 6.06294 6.06294 1.25 12 1.25C17.9371 1.25 22.75 6.06294 22.75 12C22.75 14.0711 21.0711 15.75 19 15.75H18.5C18.0117 15.75 17.8402 15.7516 17.7063 15.7692C16.6967 15.9022 15.9022 16.6967 15.7692 17.7063C15.7516 17.8402 15.75 18.0117 15.75 18.5V19C15.75 21.0711 14.0711 22.75 12 22.75C6.06294 22.75 1.25 17.9371 1.25 12ZM8.25 7C8.25 6.0335 9.0335 5.25 10 5.25C10.9665 5.25 11.75 6.0335 11.75 7C11.75 7.9665 10.9665 8.75 10 8.75C9.0335 8.75 8.25 7.9665 8.25 7ZM14.25 8C14.25 7.0335 15.0335 6.25 16 6.25C16.9665 6.25 17.75 7.0335 17.75 8C17.75 8.9665 16.9665 9.75 16 9.75C15.0335 9.75 14.25 8.9665 14.25 8ZM5.25 12C5.25 11.0335 6.0335 10.25 7 10.25C7.9665 10.25 8.75 11.0335 8.75 12C8.75 12.9665 7.9665 13.75 7 13.75C6.0335 13.75 5.25 12.9665 5.25 12Z"
        fill="#303233" />
</svg>
