<svg width="16" height="16" viewBox="0 0 16 16" fill="none" xmlns="http://www.w3.org/2000/svg">
    <path
        d="M13 11.5C13 11.7761 12.7761 12 12.5 12C12.2239 12 12 11.7761 12 11.5C12 11.2239 12.2239 11 12.5 11C12.7761 11 13 11.2239 13 11.5Z"
        fill="#303233" />
    <path
        d="M9.5 11C9.22386 11 9 11.2239 9 11.5C9 11.7761 9.22386 12 9.5 12H10.5C10.7761 12 11 11.7761 11 11.5C11 11.2239 10.7761 11 10.5 11H9.5Z"
        fill="#303233" />
    <path fill-rule="evenodd" clip-rule="evenodd"
        d="M0.75 11.5C0.75 10.6401 1.06443 8.90945 1.42122 7.19495C1.78561 5.4439 2.2184 3.60182 2.49368 2.45866C2.73717 1.44754 3.64146 0.75 4.67116 0.75H11.3288C12.3585 0.75 13.2628 1.44754 13.5063 2.45866C13.7816 3.60181 14.2144 5.4439 14.5788 7.19495C14.9356 8.90945 15.25 10.6401 15.25 11.5C15.25 13.0188 14.0188 14.25 12.5 14.25H3.5C1.98122 14.25 0.75 13.0188 0.75 11.5ZM3.952 2.80984C4.03079 2.48262 4.32426 2.25 4.67116 2.25H11.3288C11.6757 2.25 11.9692 2.48262 12.048 2.80984C12.3219 3.94714 12.7505 5.77187 13.1102 7.50055C13.2113 7.98602 13.3051 8.45611 13.3881 8.89656C13.1095 8.80155 12.8108 8.75 12.5 8.75H3.5C3.18924 8.75 2.89051 8.80155 2.61191 8.89656C2.69489 8.45611 2.78873 7.98602 2.88976 7.50055C3.2495 5.77187 3.67812 3.94714 3.952 2.80984ZM13.75 11.5C13.75 12.1904 13.1904 12.75 12.5 12.75H3.5C2.80964 12.75 2.25 12.1904 2.25 11.5C2.25 10.8096 2.80964 10.25 3.5 10.25H12.5C13.1904 10.25 13.75 10.8096 13.75 11.5Z"
        fill="#303233" />
</svg>
