<svg width="24" height="24" viewBox="0 0 24 24" fill="none" xmlns="http://www.w3.org/2000/svg">
    <path fill-rule="evenodd" clip-rule="evenodd"
        d="M18.212 2H6.78799C5.96948 1.99999 5.29393 1.99998 4.74393 2.04565C4.17258 2.0931 3.64774 2.19496 3.1561 2.45035C2.42553 2.82985 1.82985 3.42553 1.45035 4.1561C1.19496 4.64774 1.0931 5.17258 1.04565 5.74393C0.999977 6.29393 0.999988 6.96946 1 7.78798V16.212C0.999988 17.0305 0.999977 17.7061 1.04565 18.2561C1.0931 18.8274 1.19496 19.3523 1.45035 19.8439C1.82985 20.5745 2.42553 21.1702 3.1561 21.5497C3.64774 21.805 4.17258 21.9069 4.74393 21.9543C5.29392 22 5.96945 22 6.78796 22H18.212C19.0305 22 19.7061 22 20.2561 21.9543C20.8274 21.9069 21.3523 21.805 21.8439 21.5497C22.5745 21.1702 23.1702 20.5745 23.5497 19.8439C23.805 19.3523 23.9069 18.8274 23.9543 18.2561C24 17.7061 24 17.0306 24 16.212V7.78802C24 6.96952 24 6.29392 23.9543 5.74393C23.9069 5.17258 23.805 4.64774 23.5497 4.1561C23.1702 3.42553 22.5745 2.82985 21.8439 2.45035C21.3523 2.19496 20.8274 2.0931 20.2561 2.04565C19.7061 1.99998 19.0305 1.99999 18.212 2ZM4.07805 4.22517C4.23663 4.1428 4.46402 4.07578 4.90945 4.03879C5.36686 4.0008 5.95898 4 6.83 4H16V20H6.83C5.95898 20 5.36686 19.9992 4.90945 19.9612C4.46402 19.9242 4.23663 19.8572 4.07805 19.7748C3.71277 19.5851 3.41493 19.2872 3.22517 18.9219C3.1428 18.7634 3.07578 18.536 3.03879 18.0905C3.0008 17.6331 3 17.041 3 16.17V7.83C3 6.95898 3.0008 6.36686 3.03879 5.90945C3.07578 5.46402 3.1428 5.23663 3.22517 5.07805C3.41493 4.71277 3.71277 4.41493 4.07805 4.22517ZM18 20H18.17C19.041 20 19.6331 19.9992 20.0905 19.9612C20.536 19.9242 20.7634 19.8572 20.9219 19.7748C21.2872 19.5851 21.5851 19.2872 21.7748 18.9219C21.8572 18.7634 21.9242 18.536 21.9612 18.0905C21.9992 17.6331 22 17.041 22 16.17V16H18V20ZM18 14H22V10H18V14ZM18 8H22V7.83C22 6.95898 21.9992 6.36686 21.9612 5.90945C21.9242 5.46402 21.8572 5.23663 21.7748 5.07805C21.5851 4.71277 21.2872 4.41493 20.9219 4.22517C20.7634 4.1428 20.536 4.07578 20.0905 4.03879C19.6331 4.0008 19.041 4 18.17 4H18V8Z"
        fill="#303233" />
</svg>
