<svg width="16" height="16" viewBox="0 0 16 16" fill="none" xmlns="http://www.w3.org/2000/svg">
    <path fill-rule="evenodd" clip-rule="evenodd"
        d="M8.00003 4.40002C5.81128 4.40002 3.75357 4.96754 1.96759 5.96383L1.9564 5.97007C1.75992 6.07966 1.62381 6.15557 1.43897 6.30907C1.01549 6.66075 0.644822 7.29195 0.544006 7.83311C0.499932 8.0697 0.49997 8.2792 0.500025 8.5816L0.500014 8.80266C0.49989 9.07654 0.499796 9.28432 0.535899 9.46748C0.684982 10.2238 1.27626 10.8151 2.03258 10.9642C2.21573 11.0003 2.4235 11.0002 2.69735 11L2.94349 11C3.08194 11.0001 3.18685 11.0001 3.28057 10.9908C4.18227 10.9018 4.89564 10.1884 4.98467 9.28673C4.99393 9.193 4.99391 9.0881 4.99387 8.94964L4.99387 8.92458C4.99387 8.89917 4.99389 8.88608 4.99406 8.87596C4.99419 8.86804 4.99447 8.86451 4.99447 8.86451C4.99917 8.80371 5.05742 8.72152 5.11322 8.69693C5.11733 8.69512 5.11897 8.69448 5.12124 8.69362L5.14915 8.68367C6.04066 8.37054 6.9999 8.20003 8.00003 8.20003C9.00016 8.20003 9.9594 8.37054 10.8509 8.68368L10.8788 8.69362C10.8811 8.69448 10.8827 8.69512 10.8868 8.69693C10.9426 8.72152 11.0009 8.80374 11.0056 8.86455C11.0056 8.86455 11.0059 8.86802 11.006 8.87596C11.0062 8.88607 11.0062 8.89917 11.0062 8.92458L11.0062 8.94961C11.0062 9.08809 11.0061 9.19299 11.0154 9.28673C11.1044 10.1884 11.8178 10.9018 12.7195 10.9908C12.8132 11.0001 12.9181 11.0001 13.0566 11L13.3027 11C13.5765 11.0002 13.7843 11.0003 13.9675 10.9642C14.7238 10.8151 15.3151 10.2238 15.4642 9.46748C15.5003 9.28432 15.5002 9.07654 15.5 8.80266L15.5 8.58159C15.5001 8.2792 15.5001 8.06969 15.4561 7.83311C15.3552 7.29195 14.9846 6.66075 14.5611 6.30907C14.3763 6.15557 14.2401 6.07966 14.0437 5.97008L14.0325 5.96383C12.2465 4.96754 10.1888 4.40002 8.00003 4.40002ZM2.45476 6.83714C4.09564 5.92179 5.98615 5.40002 8.00003 5.40002C10.0139 5.40002 11.9044 5.92179 13.5453 6.83714C13.7475 6.94994 13.8121 6.98698 13.9222 7.07839C14.166 7.28086 14.4149 7.70469 14.473 8.01626C14.4984 8.15255 14.5 8.26925 14.5 8.61439V8.7531C14.5 9.09925 14.4977 9.19995 14.483 9.27408C14.4124 9.63234 14.1323 9.91242 13.7741 9.98303C13.7 9.99765 13.5993 10 13.2531 10H13.0816C12.9068 10 12.8557 9.99942 12.8177 9.99567C12.3906 9.9535 12.0527 9.61559 12.0105 9.18846C12.0068 9.15053 12.0062 9.09944 12.0062 8.92458L12.0062 8.916C12.0062 8.87627 12.0062 8.83411 12.0026 8.78733C11.9695 8.35915 11.6831 7.95499 11.2901 7.78182C11.2474 7.76305 11.216 7.75202 11.186 7.7415L11.1823 7.74018C10.1858 7.39016 9.11457 7.20003 8.00003 7.20003C6.88549 7.20003 5.81429 7.39016 4.81776 7.74018L4.814 7.7415C4.78403 7.75202 4.75261 7.76305 4.71 7.78182C4.317 7.95499 4.0306 8.35915 3.99745 8.78733C3.99383 8.83411 3.99385 8.87628 3.99387 8.91602L3.99387 8.92458C3.99387 9.09944 3.99326 9.15053 3.98951 9.18846C3.94734 9.61559 3.60943 9.9535 3.18231 9.99567C3.14437 9.99942 3.09329 10 2.91843 10H2.74695C2.4008 10 2.3001 9.99765 2.22597 9.98303C1.86772 9.91242 1.58764 9.63234 1.51702 9.27408C1.50241 9.19995 1.50003 9.09925 1.50003 8.75311V8.61439C1.50003 8.26925 1.5017 8.15255 1.52709 8.01626C1.58514 7.70469 1.83402 7.28086 2.07784 7.07839C2.18792 6.98698 2.25255 6.94994 2.45476 6.83714Z"
        fill="#303233" />
</svg>
