<svg width="24" height="24" viewBox="0 0 24 24" fill="none" xmlns="http://www.w3.org/2000/svg">
    <g clip-path="url(#clip0_53_3356)">
        <path
            d="M12 0.25C12.4142 0.25 12.75 0.585786 12.75 1V3C12.75 3.41421 12.4142 3.75 12 3.75C11.5858 3.75 11.25 3.41421 11.25 3V1C11.25 0.585786 11.5858 0.25 12 0.25Z"
            fill="#303233" />
        <path fill-rule="evenodd" clip-rule="evenodd"
            d="M6.25 12C6.25 8.82436 8.82436 6.25 12 6.25C15.1756 6.25 17.75 8.82436 17.75 12C17.75 15.1756 15.1756 17.75 12 17.75C8.82436 17.75 6.25 15.1756 6.25 12ZM12 7.75C9.65279 7.75 7.75 9.65279 7.75 12C7.75 14.3472 9.65279 16.25 12 16.25C14.3472 16.25 16.25 14.3472 16.25 12C16.25 9.65279 14.3472 7.75 12 7.75Z"
            fill="#303233" />
        <path
            d="M12.75 21C12.75 20.5858 12.4142 20.25 12 20.25C11.5858 20.25 11.25 20.5858 11.25 21V23C11.25 23.4142 11.5858 23.75 12 23.75C12.4142 23.75 12.75 23.4142 12.75 23V21Z"
            fill="#303233" />
        <path
            d="M3.6894 3.68967C3.98229 3.39678 4.45716 3.39678 4.75006 3.68967L6.17006 5.10967C6.46295 5.40256 6.46295 5.87744 6.17006 6.17033C5.87716 6.46322 5.40229 6.46322 5.1094 6.17033L3.6894 4.75033C3.3965 4.45744 3.3965 3.98256 3.6894 3.68967Z"
            fill="#303233" />
        <path
            d="M18.8907 17.8297C18.5978 17.5368 18.1229 17.5368 17.83 17.8297C17.5371 18.1226 17.5371 18.5974 17.83 18.8903L19.25 20.3103C19.5429 20.6032 20.0178 20.6032 20.3107 20.3103C20.6036 20.0174 20.6036 19.5426 20.3107 19.2497L18.8907 17.8297Z"
            fill="#303233" />
        <path
            d="M0.25 12C0.25 11.5858 0.585786 11.25 1 11.25H3C3.41421 11.25 3.75 11.5858 3.75 12C3.75 12.4142 3.41421 12.75 3 12.75H1C0.585786 12.75 0.25 12.4142 0.25 12Z"
            fill="#303233" />
        <path
            d="M21 11.25C20.5858 11.25 20.25 11.5858 20.25 12C20.25 12.4142 20.5858 12.75 21 12.75H23C23.4142 12.75 23.75 12.4142 23.75 12C23.75 11.5858 23.4142 11.25 23 11.25H21Z"
            fill="#303233" />
        <path
            d="M6.17006 17.8297C6.46295 18.1226 6.46295 18.5974 6.17006 18.8903L4.75006 20.3103C4.45716 20.6032 3.98229 20.6032 3.6894 20.3103C3.3965 20.0174 3.3965 19.5426 3.6894 19.2497L5.1094 17.8297C5.40229 17.5368 5.87716 17.5368 6.17006 17.8297Z"
            fill="#303233" />
        <path
            d="M20.3107 4.75033C20.6036 4.45744 20.6036 3.98256 20.3107 3.68967C20.0178 3.39678 19.5429 3.39678 19.25 3.68967L17.83 5.10967C17.5371 5.40256 17.5371 5.87744 17.83 6.17033C18.1229 6.46322 18.5978 6.46322 18.8907 6.17033L20.3107 4.75033Z"
            fill="#303233" />
    </g>
    <defs>
        <clipPath id="clip0_53_3356">
            <rect width="24" height="24" fill="white" />
        </clipPath>
    </defs>
</svg>
