<svg width="24" height="24" viewBox="0 0 24 24" fill="none" xmlns="http://www.w3.org/2000/svg">
    <path
        d="M17.1474 1.00022C15.5991 0.986756 14.1076 1.58256 12.9941 2.65907L11.2134 4.43114C10.9198 4.72332 10.9187 5.1982 11.2108 5.49179C11.503 5.78539 11.9779 5.78654 12.2715 5.49435L14.0405 3.73385C14.8708 2.93304 15.9816 2.49014 17.1343 2.50017C18.2888 2.51021 19.3933 2.97375 20.2099 3.79118C21.0266 4.60864 21.4899 5.71462 21.5 6.87096C21.51 8.02522 21.0675 9.13717 20.2679 9.96824L17.1802 13.0591C16.7337 13.5062 16.1964 13.8519 15.6047 14.0729C15.0131 14.2938 14.381 14.3847 13.7512 14.3396C13.1214 14.2944 12.5086 14.1142 11.9544 13.8112C11.4003 13.5081 10.9176 13.0892 10.5393 12.5829C10.2914 12.2511 9.82139 12.1831 9.48958 12.4311C9.15777 12.679 9.08979 13.149 9.33773 13.4808C9.84477 14.1593 10.4917 14.7209 11.2347 15.1272C11.9777 15.5335 12.7993 15.7752 13.6439 15.8357C14.4885 15.8963 15.3362 15.7743 16.1295 15.4781C16.9227 15.1819 17.6431 14.7183 18.2416 14.119L21.334 11.0236L21.343 11.0143C22.4184 9.8997 23.0134 8.40709 22.9999 6.85794C22.9865 5.30878 22.3657 3.82674 21.2711 2.73106C20.1765 1.63535 18.6956 1.01369 17.1474 1.00022Z"
        fill="#303233" />
    <path
        d="M10.3562 8.16426C9.51165 8.10371 8.66396 8.22569 7.87067 8.52191C7.07742 8.81812 6.35705 9.28169 5.75856 9.88097L2.66613 12.9764L2.65708 12.9857C1.5817 14.1003 0.986775 15.5929 1.00022 17.1421C1.01367 18.6912 1.63442 20.1733 2.729 21.2689C3.8236 22.3647 5.3045 22.9863 6.85277 22.9998C8.40104 23.0132 9.89259 22.4175 11.0061 21.341L12.778 19.5673C13.0707 19.2743 13.0705 18.7994 12.7774 18.5067C12.4844 18.2139 12.0095 18.2141 11.7168 18.5072L9.95887 20.2669C9.12869 21.0672 8.01823 21.5099 6.86582 21.4998C5.71132 21.4898 4.6068 21.0263 3.79019 20.2088C2.97356 19.3914 2.5102 18.2854 2.50017 17.129C2.49015 15.9748 2.93261 14.8628 3.73219 14.0318L6.81995 10.9409C7.26646 10.4938 7.80376 10.1481 8.39539 9.92714C8.98702 9.70622 9.61916 9.61527 10.249 9.66042C10.8787 9.70557 11.4915 9.88577 12.0457 10.1888C12.5999 10.4919 13.0825 10.9108 13.4608 11.4171C13.7088 11.7489 14.1787 11.8169 14.5106 11.5689C14.8424 11.321 14.9103 10.851 14.6624 10.5192C14.1554 9.84065 13.5084 9.27914 12.7654 8.8728C12.0224 8.46646 11.2008 8.2248 10.3562 8.16426Z"
        fill="#303233" />
</svg>
