<svg width="16" height="16" viewBox="0 0 16 16" fill="none" xmlns="http://www.w3.org/2000/svg">
    <path fill-rule="evenodd" clip-rule="evenodd"
        d="M5.5 4.25C4.25736 4.25 3.25 5.25736 3.25 6.5C3.25 7.74264 4.25736 8.75 5.5 8.75C6.74264 8.75 7.75 7.74264 7.75 6.5C7.75 5.25736 6.74264 4.25 5.5 4.25ZM4.75 6.5C4.75 6.08579 5.08579 5.75 5.5 5.75C5.91421 5.75 6.25 6.08579 6.25 6.5C6.25 6.91421 5.91421 7.25 5.5 7.25C5.08579 7.25 4.75 6.91421 4.75 6.5Z"
        fill="#303233" />
    <path fill-rule="evenodd" clip-rule="evenodd"
        d="M0.75 4.5C0.75 2.98122 1.98122 1.75 3.5 1.75H12.5C14.0188 1.75 15.25 2.98122 15.25 4.5V11.5C15.25 13.0188 14.0188 14.25 12.5 14.25H3.5C1.98122 14.25 0.75 13.0188 0.75 11.5V4.5ZM12.5 12.75H6.81067L11.5 8.06067L13.75 10.3107V11.5C13.75 12.1904 13.1904 12.75 12.5 12.75ZM13.75 4.5V8.18935L12.5017 6.94109C11.9485 6.38784 11.0515 6.38784 10.4983 6.94109L7.25 10.1894L6.50173 9.44109C5.94849 8.88784 5.05151 8.88784 4.49827 9.44109L2.26242 11.6769C2.25424 11.6191 2.25 11.5601 2.25 11.5V4.5C2.25 3.80964 2.80964 3.25 3.5 3.25H12.5C13.1904 3.25 13.75 3.80964 13.75 4.5ZM3.5 12.75C3.43995 12.75 3.38088 12.7458 3.32309 12.7376L5.5 10.5607L6.18934 11.25L4.68935 12.75H3.5Z"
        fill="#303233" />
</svg>
