<svg width="24" height="24" viewBox="0 0 24 24" fill="none" xmlns="http://www.w3.org/2000/svg">
    <path
        d="M19 1C19.5523 1 20 1.44772 20 2V4H22C22.5523 4 23 4.44772 23 5C23 5.55228 22.5523 6 22 6H20V8C20 8.55228 19.5523 9 19 9C18.4477 9 18 8.55228 18 8V6H16C15.4477 6 15 5.55228 15 5C15 4.44772 15.4477 4 16 4H18V2C18 1.44772 18.4477 1 19 1Z"
        fill="#303233" />
    <path fill-rule="evenodd" clip-rule="evenodd"
        d="M2 6C2 3.79086 3.79086 2 6 2H12C12.5523 2 13 2.44772 13 3C13 3.55228 12.5523 4 12 4H6C4.89543 4 4 4.89543 4 6V18C4 18.7021 4.36182 19.3198 4.90917 19.6766L14.5858 10C15.3668 9.21895 16.6332 9.21895 17.4142 10L21.1213 13.7071C21.6839 14.2697 22 15.0328 22 15.8284V18C22 20.2091 20.2091 22 18 22H6C3.79086 22 2 20.2091 2 18V6ZM7.41421 20H18C19.1046 20 20 19.1046 20 18V15.8284C20 15.5632 19.8946 15.3089 19.7071 15.1213L16 11.4142L7.41421 20Z"
        fill="#303233" />
    <path fill-rule="evenodd" clip-rule="evenodd"
        d="M9 6C7.34315 6 6 7.34315 6 9C6 10.6569 7.34315 12 9 12C10.6569 12 12 10.6569 12 9C12 7.34315 10.6569 6 9 6ZM8 9C8 8.44772 8.44772 8 9 8C9.55229 8 10 8.44772 10 9C10 9.55229 9.55229 10 9 10C8.44772 10 8 9.55229 8 9Z"
        fill="#303233" />
</svg>
