<svg width="24" height="24" viewBox="0 0 24 24" fill="none" xmlns="http://www.w3.org/2000/svg">
    <path fill-rule="evenodd" clip-rule="evenodd"
        d="M18 2.12868C17.2385 2.12868 16.5082 2.43119 15.9697 2.96967L3.46969 15.4697C3.37357 15.5658 3.30538 15.6862 3.27241 15.8181L2.27241 19.8181C2.20851 20.0737 2.2834 20.344 2.46969 20.5303C2.65597 20.7166 2.92634 20.7915 3.18192 20.7276L7.18192 19.7276C7.31379 19.6946 7.43423 19.6264 7.53035 19.5303L20.0303 7.03033C20.297 6.7637 20.5085 6.44717 20.6528 6.0988C20.7971 5.75044 20.8713 5.37707 20.8713 5C20.8713 4.62293 20.7971 4.24956 20.6528 3.90119C20.5085 3.55283 20.297 3.23629 20.0303 2.96967C19.7637 2.70304 19.4472 2.49154 19.0988 2.34724C18.7505 2.20295 18.3771 2.12868 18 2.12868ZM17.0303 4.03033C17.2875 3.77316 17.6363 3.62868 18 3.62868C18.1801 3.62868 18.3584 3.66415 18.5248 3.73306C18.6912 3.80198 18.8423 3.90299 18.9697 4.03033C19.097 4.15767 19.198 4.30884 19.267 4.47522C19.3359 4.64159 19.3713 4.81991 19.3713 5C19.3713 5.18008 19.3359 5.3584 19.267 5.52478C19.198 5.69116 19.097 5.84233 18.9697 5.96967L6.61658 18.3228L4.03079 18.9692L4.67724 16.3834L17.0303 4.03033Z"
        fill="#303233" />
    <path
        d="M12 19.25C11.5858 19.25 11.25 19.5858 11.25 20C11.25 20.4142 11.5858 20.75 12 20.75H21C21.4142 20.75 21.75 20.4142 21.75 20C21.75 19.5858 21.4142 19.25 21 19.25H12Z"
        fill="#303233" />
</svg>
