<svg width="16" height="16" viewBox="0 0 16 16" fill="none" xmlns="http://www.w3.org/2000/svg">
    <path fill-rule="evenodd" clip-rule="evenodd"
        d="M12.8051 9.73858C13.0873 9.51167 13.2504 9.16862 13.25 8.80717C13.2497 8.53245 13.1212 8.29579 12.9964 8.10567C12.8696 7.91245 12.6865 7.68185 12.4706 7.41001L9.23679 3.33793C9.10089 3.16679 8.97926 3.01361 8.86855 2.89684C8.75179 2.7737 8.60887 2.64842 8.41735 2.57615C8.1483 2.47462 7.8517 2.47462 7.58265 2.57615C7.39113 2.64842 7.24821 2.7737 7.13145 2.89684C7.02074 3.01361 6.89912 3.16678 6.76322 3.33792L3.52944 7.40999C3.31354 7.68184 3.1304 7.91244 3.00359 8.10567C2.87882 8.29579 2.7503 8.53245 2.75 8.80717C2.74961 9.16862 2.91271 9.51167 3.19489 9.73858C3.40991 9.91147 3.6758 9.95839 3.90139 9.97904C4.13072 10 4.42414 10 4.76948 10H11.2305C11.5758 10 11.8693 10 12.0986 9.97904C12.3242 9.95839 12.5901 9.91147 12.8051 9.73858ZM12.1604 8.65434C12.2292 8.75914 12.2462 8.80692 12.2498 8.81776C12.2473 8.87021 12.224 8.91862 12.1865 8.95244C12.1748 8.9566 12.1272 8.97225 12.0075 8.9832C11.8294 8.9995 11.5824 9 11.2065 9H4.79346C4.41763 9 4.17065 8.9995 3.99251 8.9832C3.87284 8.97225 3.82521 8.9566 3.81352 8.95244C3.77599 8.91862 3.7527 8.87021 3.75022 8.81776C3.75385 8.80692 3.77085 8.75914 3.83963 8.65435C3.9385 8.50369 4.09265 8.30879 4.32733 8.01326L7.53387 3.97549C7.68612 3.78378 7.78034 3.66587 7.85712 3.58489C7.90747 3.53179 7.93234 3.51457 7.93859 3.51069C7.97836 3.49644 8.02165 3.49644 8.06141 3.51069C8.06766 3.51457 8.09254 3.53179 8.14289 3.58489C8.21966 3.66586 8.31388 3.78378 8.46613 3.97549L11.6727 8.01326C11.9074 8.30879 12.0615 8.50368 12.1604 8.65434Z"
        fill="#303233" />
    <path
        d="M12.75 12.5C13.0261 12.5 13.25 12.2761 13.25 12C13.25 11.7239 13.0261 11.5 12.75 11.5H3.25C2.97386 11.5 2.75 11.7239 2.75 12C2.75 12.2761 2.97386 12.5 3.25 12.5H12.75Z"
        fill="#303233" />
</svg>
