<svg width="24" height="24" viewBox="0 0 24 24" fill="none" xmlns="http://www.w3.org/2000/svg">
    <path
        d="M3 3.80651C3 2.7829 4.13478 2.14228 5.0117 2.70942L8.40337 4.90292C9.19887 5.41739 9.19888 6.58263 8.40337 7.09711L5.0117 9.29061C4.13478 9.85774 3 9.21712 3 8.19351V3.80651Z"
        fill="#303233" />
    <path
        d="M11 6C11 5.44772 11.4477 5 12 5H20C20.5523 5 21 5.44772 21 6C21 6.55228 20.5523 7 20 7H12C11.4477 7 11 6.55228 11 6Z"
        fill="#303233" />
    <path
        d="M4 11C3.44772 11 3 11.4477 3 12C3 12.5523 3.44772 13 4 13L20 13C20.5523 13 21 12.5523 21 12C21 11.4477 20.5523 11 20 11L4 11Z"
        fill="#303233" />
    <path
        d="M4 17C3.44772 17 3 17.4477 3 18C3 18.5523 3.44772 19 4 19H20C20.5523 19 21 18.5523 21 18C21 17.4477 20.5523 17 20 17H4Z"
        fill="#303233" />
</svg>
