<svg width="16" height="16" viewBox="0 0 16 16" fill="none" xmlns="http://www.w3.org/2000/svg">
    <path
        d="M2.5 5.5C2.5 5.22386 2.72386 5 3 5H13C13.2761 5 13.5 5.22386 13.5 5.5C13.5 5.77614 13.2761 6 13 6H3C2.72386 6 2.5 5.77614 2.5 5.5Z"
        fill="#303233" />
    <path
        d="M4.5 8C4.5 7.72386 4.72386 7.5 5 7.5H11C11.2761 7.5 11.5 7.72386 11.5 8C11.5 8.27614 11.2761 8.5 11 8.5H5C4.72386 8.5 4.5 8.27614 4.5 8Z"
        fill="#303233" />
    <path
        d="M7 10C6.72386 10 6.5 10.2239 6.5 10.5C6.5 10.7761 6.72386 11 7 11H9C9.27614 11 9.5 10.7761 9.5 10.5C9.5 10.2239 9.27614 10 9 10H7Z"
        fill="#303233" />
</svg>
