<svg width="24" height="24" viewBox="0 0 24 24" fill="none" xmlns="http://www.w3.org/2000/svg">
    <g clip-path="url(#clip0_53_7265)">
        <path
            d="M12 0.25C11.2162 0.25 10.4497 0.326843 9.70767 0.473634C9.30133 0.55402 9.03709 0.948588 9.11748 1.35493C9.19786 1.76126 9.59243 2.0255 9.99877 1.94512C10.6454 1.81719 11.3145 1.75 12 1.75C12.6855 1.75 13.3546 1.81719 14.0012 1.94512C14.4076 2.0255 14.8021 1.76126 14.8825 1.35493C14.9629 0.948588 14.6987 0.554019 14.2923 0.473634C13.5503 0.326843 12.7838 0.25 12 0.25Z"
            fill="#303233" />
        <path
            d="M18.529 2.22955C18.1848 1.99912 17.719 2.09134 17.4885 2.43554C17.2581 2.77974 17.3503 3.24557 17.6945 3.47601C18.8126 4.22456 19.7754 5.18737 20.524 6.30547C20.7544 6.64966 21.2203 6.74189 21.5645 6.51145C21.9087 6.28102 22.0009 5.81519 21.7704 5.47099C20.9128 4.18996 19.81 3.08718 18.529 2.22955Z"
            fill="#303233" />
        <path
            d="M6.30547 3.47601C6.64966 3.24557 6.74189 2.77974 6.51145 2.43554C6.28102 2.09134 5.81519 1.99912 5.47099 2.22955C4.18996 3.08718 3.08718 4.18996 2.22955 5.47099C1.99912 5.81519 2.09134 6.28102 2.43554 6.51145C2.77974 6.74189 3.24557 6.64967 3.47601 6.30547C4.22456 5.18737 5.18737 4.22456 6.30547 3.47601Z"
            fill="#303233" />
        <path
            d="M1.94512 9.99877C2.0255 9.59243 1.76126 9.19786 1.35493 9.11748C0.948588 9.03709 0.554019 9.30133 0.473634 9.70767C0.326843 10.4497 0.25 11.2162 0.25 12C0.25 12.7838 0.326843 13.5503 0.473634 14.2923C0.55402 14.6987 0.948588 14.9629 1.35493 14.8825C1.76126 14.8021 2.0255 14.4076 1.94512 14.0012C1.81719 13.3546 1.75 12.6855 1.75 12C1.75 11.3145 1.81719 10.6454 1.94512 9.99877Z"
            fill="#303233" />
        <path
            d="M23.5264 9.70767C23.446 9.30133 23.0514 9.03709 22.6451 9.11748C22.2387 9.19786 21.9745 9.59243 22.0549 9.99877C22.1828 10.6454 22.25 11.3145 22.25 12C22.25 12.6855 22.1828 13.3546 22.0549 14.0012C21.9745 14.4076 22.2387 14.8021 22.6451 14.8825C23.0514 14.9629 23.446 14.6987 23.5264 14.2923C23.6732 13.5503 23.75 12.7838 23.75 12C23.75 11.2162 23.6732 10.4497 23.5264 9.70767Z"
            fill="#303233" />
        <path
            d="M21.7704 18.529C22.0009 18.1848 21.9087 17.719 21.5645 17.4885C21.2203 17.2581 20.7544 17.3503 20.524 17.6945C19.7754 18.8126 18.8126 19.7754 17.6945 20.524C17.3503 20.7544 17.2581 21.2203 17.4885 21.5645C17.719 21.9087 18.1848 22.0009 18.529 21.7704C19.81 20.9128 20.9128 19.81 21.7704 18.529Z"
            fill="#303233" />
        <path
            d="M3.47601 17.6945C3.24557 17.3503 2.77974 17.2581 2.43554 17.4885C2.09134 17.719 1.99912 18.1848 2.22955 18.529C3.08718 19.81 4.18996 20.9128 5.47099 21.7704C5.81519 22.0009 6.28102 21.9087 6.51145 21.5645C6.74189 21.2203 6.64967 20.7544 6.30547 20.524C5.18737 19.7754 4.22456 18.8126 3.47601 17.6945Z"
            fill="#303233" />
        <path
            d="M9.99877 22.0549C9.59243 21.9745 9.19786 22.2387 9.11748 22.6451C9.03709 23.0514 9.30133 23.446 9.70767 23.5264C10.4497 23.6732 11.2162 23.75 12 23.75C12.7838 23.75 13.5503 23.6732 14.2923 23.5264C14.6987 23.446 14.9629 23.0514 14.8825 22.6451C14.8021 22.2387 14.4076 21.9745 14.0012 22.0549C13.3546 22.1828 12.6855 22.25 12 22.25C11.3145 22.25 10.6454 22.1828 9.99877 22.0549Z"
            fill="#303233" />
        <path
            d="M11.5982 11.6821H8.81019V12.9018H10.2121C10.1413 13.1608 9.9896 13.3919 9.749 13.5975C9.44163 13.8576 9.10151 13.984 8.72198 13.984C8.27461 13.984 7.85287 13.8141 7.45207 13.4551C7.0343 13.0779 6.82591 12.6024 6.82591 12.0131C6.82591 11.4385 7.01457 10.9715 7.38867 10.5974L7.38992 10.5962C7.76512 10.2142 8.22586 10.0234 8.78561 10.0234C9.39337 10.0234 9.91553 10.3004 10.3587 10.8905L10.4941 11.0708L11.4162 10.1876L11.2906 10.0437C10.9166 9.61561 10.5284 9.29698 10.1243 9.09758L10.121 9.09606C9.70145 8.89829 9.25047 8.79999 8.77064 8.79999C7.87758 8.79999 7.11285 9.11362 6.48838 9.73802C5.86383 10.36 5.55005 11.1223 5.55005 12.0131C5.55005 12.8866 5.85923 13.6409 6.47235 14.2646C7.08572 14.886 7.82917 15.2 8.69203 15.2C9.57595 15.2 10.3141 14.8741 10.8896 14.2263C11.1429 13.9384 11.3261 13.6253 11.4351 13.2872L11.436 13.2843C11.5453 12.9271 11.5982 12.5224 11.5982 12.073V11.6821Z"
            fill="#303233" />
        <path d="M13.5708 15.0914V8.91228H12.2986V15.0914H13.5708Z" fill="#303233" />
        <path
            d="M15.8315 10.132H17.8452V8.91228H14.5594V15.0914H15.8315V12.3403H17.7741V11.1206H15.8315V10.132Z"
            fill="#303233" />
    </g>
    <defs>
        <clipPath id="clip0_53_7265">
            <rect width="24" height="24" fill="white" />
        </clipPath>
    </defs>
</svg>
