<svg width="16" height="16" viewBox="0 0 16 16" fill="none" xmlns="http://www.w3.org/2000/svg">
    <path
        d="M8.96967 5.9697C8.67678 6.26259 8.67678 6.73746 8.96967 7.03035C9.26257 7.32325 9.73744 7.32325 10.0303 7.03035L13.75 3.31067V5.50002C13.75 5.91424 14.0858 6.25002 14.5 6.25002C14.9142 6.25002 15.25 5.91424 15.25 5.50002L15.25 1.5C15.25 1.08579 14.9142 0.75 14.5 0.75H10.5C10.0858 0.75 9.75 1.08579 9.75 1.5C9.75 1.91421 10.0858 2.25 10.5 2.25L12.6893 2.25L8.96967 5.9697Z"
        fill="#303233" />
    <path
        d="M7.29725 8.70275C6.45768 7.86318 5.79474 6.91387 5.30843 5.90099C5.2666 5.81387 5.24569 5.77031 5.22962 5.71519C5.17252 5.5193 5.21353 5.27876 5.33232 5.11286C5.36575 5.06618 5.40569 5.02624 5.48556 4.94637C5.72984 4.70209 5.85198 4.57996 5.93183 4.45714C6.23297 3.99396 6.23297 3.39685 5.93183 2.93367C5.85198 2.81085 5.72984 2.68872 5.48556 2.44444L5.3494 2.30828C4.97807 1.93695 4.79241 1.75129 4.59301 1.65043C4.19644 1.44985 3.72811 1.44985 3.33155 1.65043C3.13214 1.75129 2.94648 1.93695 2.57515 2.30828L2.46501 2.41842C2.09495 2.78848 1.90992 2.97351 1.76861 3.22507C1.6118 3.50421 1.49905 3.93776 1.50001 4.25793C1.50086 4.54646 1.55683 4.74366 1.66877 5.13804C2.27035 7.25754 3.4054 9.25753 5.07393 10.9261C6.74246 12.5946 8.74245 13.7296 10.8619 14.3312C11.2563 14.4432 11.4535 14.4991 11.7421 14.5C12.0622 14.5009 12.4958 14.3882 12.7749 14.2314C13.0265 14.0901 13.2115 13.905 13.5816 13.535L13.6917 13.4248C14.063 13.0535 14.2487 12.8678 14.3496 12.6684C14.5501 12.2719 14.5501 11.8036 14.3496 11.407C14.2487 11.2076 14.063 11.0219 13.6917 10.6506L13.5556 10.5144C13.3113 10.2702 13.1891 10.148 13.0663 10.0682C12.6031 9.76702 12.006 9.76702 11.5429 10.0682C11.42 10.148 11.2979 10.2702 11.0536 10.5144C10.9738 10.5943 10.9338 10.6342 10.8871 10.6677C10.7212 10.7865 10.4807 10.8275 10.2848 10.7704C10.2297 10.7543 10.1861 10.7334 10.099 10.6916C9.08616 10.2053 8.13681 9.54232 7.29725 8.70275Z"
        fill="#303233" />
</svg>
