<svg width="16" height="16" viewBox="0 0 16 16" fill="none" xmlns="http://www.w3.org/2000/svg">
    <g clip-path="url(#clip0_53_2400)">
        <path fill-rule="evenodd" clip-rule="evenodd"
            d="M0.21967 0.21967C0.512563 -0.0732233 0.987437 -0.0732233 1.28033 0.21967L15.7803 14.7197C16.0732 15.0126 16.0732 15.4874 15.7803 15.7803C15.4874 16.0732 15.0126 16.0732 14.7197 15.7803L0.21967 1.28033C-0.0732233 0.987437 -0.0732233 0.512563 0.21967 0.21967Z"
            fill="#303233" />
        <path fill-rule="evenodd" clip-rule="evenodd"
            d="M0.75 4.5C0.75 3.5335 1.5335 2.75 2.5 2.75H3.81066L11.25 10.1893V11.5C11.25 12.4665 10.4665 13.25 9.5 13.25H2.5C1.5335 13.25 0.75 12.4665 0.75 11.5V4.5Z"
            fill="#303233" />
        <path fill-rule="evenodd" clip-rule="evenodd"
            d="M6.80711 3.21299C6.9232 2.93273 7.19668 2.75 7.50002 2.75H9.50002C10.4665 2.75 11.25 3.5335 11.25 4.5V5.28647L14.1646 3.82918C14.3971 3.71293 14.6732 3.72536 14.8943 3.86201C15.1154 3.99867 15.25 4.24007 15.25 4.5V10.5C15.25 10.8033 15.0673 11.0768 14.787 11.1929C14.5068 11.309 14.1842 11.2448 13.9697 11.0303L9.97305 7.03368C9.9708 7.03147 9.96857 7.02924 9.96636 7.027L6.96969 4.03033C6.75519 3.81583 6.69103 3.49324 6.80711 3.21299Z"
            fill="#303233" />
    </g>
    <defs>
        <clipPath id="clip0_53_2400">
            <rect width="16" height="16" fill="white" />
        </clipPath>
    </defs>
</svg>
