<svg width="24" height="24" viewBox="0 0 24 24" fill="none" xmlns="http://www.w3.org/2000/svg">
    <path fill-rule="evenodd" clip-rule="evenodd"
        d="M3 2C2.44772 2 2 2.44772 2 3V17C2 19.7614 4.23858 22 7 22H17C19.7614 22 22 19.7614 22 17V3C22 2.44772 21.5523 2 21 2H3ZM5 8.5C5 6.567 6.567 5 8.5 5C10.433 5 12 6.567 12 8.5C12 10.433 10.433 12 8.5 12C6.567 12 5 10.433 5 8.5ZM14 9.25C13.5858 9.25 13.25 9.58579 13.25 10V14C13.25 14.4142 13.5858 14.75 14 14.75H18C18.4142 14.75 18.75 14.4142 18.75 14V10C18.75 9.58579 18.4142 9.25 18 9.25H14ZM10.8 13.4C10.6112 13.1482 10.3148 13 10 13C9.68525 13 9.38886 13.1482 9.20001 13.4L6.20001 17.4C5.97274 17.703 5.93619 18.1084 6.10558 18.4472C6.27497 18.786 6.62123 19 7.00001 19H13C13.3788 19 13.725 18.786 13.8944 18.4472C14.0638 18.1084 14.0273 17.703 13.8 17.4L10.8 13.4Z"
        fill="#303233" />
</svg>
