<svg width="16" height="16" viewBox="0 0 16 16" fill="none" xmlns="http://www.w3.org/2000/svg">
    <path fill-rule="evenodd" clip-rule="evenodd"
        d="M8 1C4.13401 1 1 4.13401 1 8C1 11.866 4.13401 15 8 15C11.866 15 15 11.866 15 8C15 4.13401 11.866 1 8 1ZM6.8 5.5L6.78405 5.5C6.65786 5.49999 6.53497 5.49997 6.43089 5.50848C6.31659 5.51781 6.18172 5.53985 6.04601 5.609C5.85785 5.70487 5.70487 5.85785 5.609 6.04601C5.53985 6.18172 5.51781 6.31659 5.50848 6.43089C5.49997 6.53497 5.49999 6.65786 5.5 6.78405L5.5 6.8V9.2L5.5 9.21595C5.49999 9.34214 5.49997 9.46504 5.50848 9.56912C5.51781 9.68341 5.53985 9.81828 5.609 9.95399C5.70487 10.1422 5.85785 10.2951 6.04601 10.391C6.18172 10.4602 6.31659 10.4822 6.43089 10.4915C6.53496 10.5 6.65786 10.5 6.78404 10.5H9.21596C9.34215 10.5 9.46504 10.5 9.56912 10.4915C9.68341 10.4822 9.81828 10.4602 9.95399 10.391C10.1422 10.2951 10.2951 10.1422 10.391 9.95399C10.4602 9.81828 10.4822 9.68341 10.4915 9.56912C10.5 9.46504 10.5 9.34215 10.5 9.21596V6.78404C10.5 6.65786 10.5 6.53496 10.4915 6.43089C10.4822 6.31659 10.4602 6.18172 10.391 6.04601C10.2951 5.85785 10.1422 5.70487 9.95399 5.609C9.81828 5.53985 9.68341 5.51781 9.56912 5.50848C9.46504 5.49997 9.34214 5.49999 9.21595 5.5L9.2 5.5H6.8Z"
        fill="#303233" />
</svg>
