<svg width="16" height="16" viewBox="0 0 16 16" fill="none" xmlns="http://www.w3.org/2000/svg">
    <path
        d="M13.5 1C13.5 0.723858 13.2761 0.5 13 0.5C12.7239 0.5 12.5 0.723858 12.5 1V2.5H11C10.7239 2.5 10.5 2.72386 10.5 3C10.5 3.27614 10.7239 3.5 11 3.5H12.5V5C12.5 5.27614 12.7239 5.5 13 5.5C13.2761 5.5 13.5 5.27614 13.5 5V3.5H15C15.2761 3.5 15.5 3.27614 15.5 3C15.5 2.72386 15.2761 2.5 15 2.5H13.5V1Z"
        fill="#303233" />
    <path fill-rule="evenodd" clip-rule="evenodd"
        d="M8 1C8.95105 1 9.85781 1.18967 10.6845 1.53324C10.0076 1.67814 9.5 2.2798 9.5 3C9.5 3.82843 10.1716 4.5 11 4.5H11.5V5C11.5 5.82843 12.1716 6.5 13 6.5C13.7202 6.5 14.3219 5.99243 14.4668 5.31549C14.8103 6.14219 15 7.04895 15 8C15 11.866 11.866 15 8 15C4.13401 15 1 11.866 1 8C1 4.13401 4.13401 1 8 1ZM9.99528 5.25C9.58381 5.25 9.25024 5.58579 9.25024 6C9.25024 6.41421 9.58381 6.75 9.99528 6.75H10.0052C10.4167 6.75 10.7502 6.41421 10.7502 6C10.7502 5.58579 10.4167 5.25 10.0052 5.25H9.99528ZM10.8635 9.8685C11.0532 9.66789 11.0445 9.35143 10.8438 9.16166C10.6432 8.9719 10.3268 8.9807 10.137 9.18131C9.82171 9.51463 9.06274 10.1667 7.99992 10.1667C6.93777 10.1667 6.17908 9.51546 5.86339 9.1819C5.67358 8.98134 5.35711 8.97263 5.15655 9.16245C4.95599 9.35226 4.94728 9.66872 5.1371 9.86928C5.52019 10.2741 6.52584 11.1667 7.99992 11.1667C9.47491 11.1667 10.4809 10.273 10.8635 9.8685ZM5.25024 6C5.25024 5.58579 5.58381 5.25 5.99528 5.25H6.00521C6.41668 5.25 6.75024 5.58579 6.75024 6C6.75024 6.41421 6.41668 6.75 6.00521 6.75H5.99528C5.58381 6.75 5.25024 6.41421 5.25024 6Z"
        fill="#303233" />
</svg>
