<svg width="24" height="24" viewBox="0 0 24 24" fill="none" xmlns="http://www.w3.org/2000/svg">
    <path fill-rule="evenodd" clip-rule="evenodd"
        d="M15.2321 1.25H8.7679C7.95506 1.24999 7.29944 1.24999 6.76853 1.29336C6.2219 1.33803 5.74175 1.43239 5.29754 1.65873C4.59193 2.01825 4.01825 2.59193 3.65873 3.29754C3.43239 3.74175 3.33803 4.2219 3.29336 4.76853C3.24999 5.29944 3.24999 5.95505 3.25 6.76789V17.2321C3.24999 18.0449 3.24999 18.7006 3.29336 19.2315C3.33803 19.7781 3.43239 20.2582 3.65873 20.7025C4.01825 21.4081 4.59193 21.9817 5.29754 22.3413C5.74175 22.5676 6.2219 22.662 6.76853 22.7066C7.29944 22.75 7.95505 22.75 8.76788 22.75H14.9378C13.5987 21.6037 12.75 19.901 12.75 18C12.75 14.5482 15.5482 11.75 19 11.75C19.6075 11.75 20.1947 11.8367 20.75 11.9983V6.76788C20.75 5.95505 20.75 5.29944 20.7066 4.76853C20.662 4.2219 20.5676 3.74175 20.3413 3.29754C19.9817 2.59193 19.4081 2.01825 18.7025 1.65873C18.2582 1.43239 17.7781 1.33803 17.2315 1.29336C16.7006 1.24999 16.0449 1.24999 15.2321 1.25Z"
        fill="#303233" />
    <path fill-rule="evenodd" clip-rule="evenodd"
        d="M19 13.25C16.3766 13.25 14.25 15.3766 14.25 18C14.25 20.6234 16.3766 22.75 19 22.75C21.6234 22.75 23.75 20.6234 23.75 18C23.75 15.3766 21.6234 13.25 19 13.25ZM15.75 18C15.75 16.2051 17.2051 14.75 19 14.75C19.6258 14.75 20.2102 14.9268 20.7061 15.2333L16.2333 19.7061C15.9268 19.2102 15.75 18.6258 15.75 18ZM17.294 20.7667C17.7898 21.0732 18.3743 21.25 19 21.25C20.7949 21.25 22.25 19.7949 22.25 18C22.25 17.3743 22.0732 16.7898 21.7667 16.294L17.294 20.7667Z"
        fill="#303233" />
</svg>
