<svg width="16" height="16" viewBox="0 0 16 16" fill="none" xmlns="http://www.w3.org/2000/svg">
    <path fill-rule="evenodd" clip-rule="evenodd"
        d="M7.52277 4.25C5.56129 4.25 3.97731 5.83157 3.97731 7.775C3.97731 7.82419 3.97832 7.87311 3.98032 7.92173C3.99633 8.31208 3.71001 8.64935 3.32224 8.6969C2.43349 8.8059 1.75 9.55986 1.75 10.4667C1.75 11.4482 2.55043 12.25 3.54538 12.25C3.54536 12.25 3.54539 12.25 3.54538 12.25L11.5 12.25L11.5247 12.25C11.5284 12.2499 11.5322 12.2498 11.5359 12.2498C13.0414 12.2307 14.25 11.011 14.25 9.51667C14.25 8.01046 13.0222 6.78333 11.5 6.78333C11.486 6.78333 11.472 6.78344 11.458 6.78364C11.1586 6.78807 10.8852 6.61396 10.7626 6.34074C10.2099 5.10874 8.96744 4.25 7.52277 4.25ZM11.5781 13.7493C11.5673 13.7498 11.5564 13.75 11.5454 13.75L3.54549 13.75C1.72887 13.75 0.25 12.2834 0.25 10.4667C0.25 9.01702 1.19139 7.79071 2.49476 7.35398C2.70958 4.77296 4.88165 2.75 7.52277 2.75C9.40696 2.75 11.0503 3.77892 11.9166 5.30343C14.0656 5.51183 15.75 7.31568 15.75 9.51667C15.75 11.8319 13.8861 13.7077 11.5781 13.7493Z"
        fill="#303233" />
</svg>
