<svg width="16" height="16" viewBox="0 0 16 16" fill="none" xmlns="http://www.w3.org/2000/svg">
    <path fill-rule="evenodd" clip-rule="evenodd"
        d="M7.99997 0.75C6.71552 0.75 5.47939 1.24524 4.56461 2.1335C3.64908 3.02248 3.13052 4.23298 3.13052 5.5C3.13052 7.42248 2.63338 8.69155 2.11598 9.49895L2.1069 9.51311C1.86242 9.89462 1.66781 10.1983 1.5363 10.4199C1.47041 10.5309 1.4089 10.6402 1.36277 10.7389C1.33975 10.7881 1.31308 10.8504 1.29197 10.9192C1.27468 10.9756 1.2398 11.1017 1.25286 11.2568C1.261 11.3534 1.28186 11.5263 1.38406 11.7049C1.48525 11.8818 1.62239 11.9874 1.6995 12.043C1.88273 12.1749 2.09016 12.2046 2.1565 12.2141L2.16072 12.2147C2.26423 12.2296 2.38088 12.2369 2.49718 12.2413C2.72816 12.25 3.04746 12.25 3.44294 12.25H12.557C12.9524 12.25 13.2718 12.25 13.5028 12.2413C13.6191 12.2369 13.7357 12.2296 13.8392 12.2147L13.8434 12.2141C13.9098 12.2046 14.1172 12.1749 14.3004 12.043C14.3776 11.9874 14.5147 11.8818 14.6159 11.7049C14.7181 11.5263 14.7389 11.3534 14.7471 11.2568C14.7601 11.1017 14.7253 10.9756 14.708 10.9192C14.6869 10.8504 14.6602 10.7881 14.6372 10.7389C14.591 10.6402 14.5295 10.5309 14.4636 10.4199C14.3321 10.1983 14.1375 9.89463 13.893 9.51308L13.884 9.49895C13.3666 8.69155 12.8694 7.42248 12.8694 5.5C12.8694 4.23298 12.3509 3.02248 11.4353 2.1335C10.5206 1.24524 9.28443 0.75 7.99997 0.75Z"
        fill="#303233" />
    <path
        d="M6.49412 13.6858C6.1825 13.4129 5.70867 13.4443 5.43578 13.7559C5.16289 14.0675 5.19429 14.5413 5.5059 14.8142C6.17093 15.3966 7.04521 15.75 8.00001 15.75C8.95481 15.75 9.82909 15.3966 10.4941 14.8142C10.8057 14.5413 10.8371 14.0675 10.5642 13.7559C10.2914 13.4443 9.81752 13.4129 9.5059 13.6858C9.1049 14.0369 8.57887 14.25 8.00001 14.25C7.42115 14.25 6.89512 14.0369 6.49412 13.6858Z"
        fill="#303233" />
</svg>
