<svg width="16" height="16" viewBox="0 0 16 16" fill="none" xmlns="http://www.w3.org/2000/svg">
    <path fill-rule="evenodd" clip-rule="evenodd"
        d="M7.46205 1.50133C7.80235 1.33908 8.1977 1.33908 8.53799 1.50133C8.82231 1.63689 8.98527 1.87532 9.07818 2.02708C9.17349 2.18276 9.273 2.3844 9.37691 2.59498C9.38124 2.60376 9.38557 2.61255 9.38992 2.62135L10.4951 4.86032C10.4992 4.86865 10.5031 4.87648 10.5067 4.88386C10.5149 4.88505 10.5235 4.88631 10.5327 4.88766L13.0346 5.25334C13.2668 5.28726 13.4893 5.31975 13.6667 5.36241C13.8397 5.40401 14.1167 5.48551 14.3332 5.71412C14.5925 5.98776 14.7144 6.36377 14.6651 6.73747C14.6238 7.04967 14.4474 7.27819 14.3317 7.41338C14.2131 7.55205 14.052 7.70887 13.8839 7.87262L12.0748 9.63469C12.0681 9.64118 12.0618 9.64728 12.0559 9.65304C12.0573 9.66116 12.0588 9.66978 12.0604 9.67896L12.4871 12.1673C12.5269 12.3988 12.5649 12.6205 12.5793 12.8025C12.5934 12.9799 12.6017 13.2686 12.4514 13.5455C12.2714 13.8768 11.9515 14.1092 11.5808 14.1779C11.271 14.2353 10.999 14.1381 10.8346 14.0699C10.666 14 10.4669 13.8952 10.259 13.7859L8.02329 12.6101C8.01505 12.6058 8.00732 12.6017 8.00002 12.5979C7.99272 12.6017 7.98499 12.6058 7.97675 12.6101L5.74097 13.7859C5.53309 13.8953 5.33405 14 5.16542 14.0699C5.00105 14.1381 4.72903 14.2353 4.41927 14.1779C4.04855 14.1092 3.72865 13.8768 3.54869 13.5455C3.39832 13.2686 3.40666 12.9799 3.42071 12.8025C3.43512 12.6205 3.47317 12.3988 3.5129 12.1673L3.93969 9.67896C3.94126 9.66978 3.94274 9.66116 3.94413 9.65304C3.93822 9.64728 3.93196 9.64118 3.92529 9.63469L2.13727 7.89315C2.13023 7.8863 2.12321 7.87946 2.1162 7.87263C1.94803 7.70887 1.78698 7.55205 1.66834 7.41338C1.55267 7.27819 1.37622 7.04967 1.33499 6.73747C1.28564 6.36377 1.40756 5.98776 1.6668 5.71412C1.88338 5.48551 2.16036 5.40401 2.33334 5.36241C2.51078 5.31975 2.73321 5.28726 2.96548 5.25334C2.97516 5.25193 2.98486 5.25051 2.99458 5.24909L5.46735 4.88766C5.47655 4.88631 5.48518 4.88505 5.49332 4.88386C5.49697 4.87648 5.50083 4.86865 5.50495 4.86032L6.61013 2.62135C6.61447 2.61254 6.61881 2.60374 6.62315 2.59497C6.72705 2.38439 6.82655 2.18275 6.92187 2.02707C7.01478 1.87532 7.17773 1.63689 7.46205 1.50133Z"
        fill="#303233" />
</svg>
