<svg width="24" height="24" viewBox="0 0 24 24" fill="none" xmlns="http://www.w3.org/2000/svg">
    <path
        d="M13.6631 7.00027C13.6631 6.5422 13.8434 6.1018 14.1641 5.77468L17.0771 2.86062C16.4145 2.7211 15.7279 2.70866 15.0547 2.83132C14.0048 3.02262 13.0378 3.52981 12.2832 4.28444C11.5288 5.03894 11.0224 6.00532 10.8311 7.05495C10.6398 8.10479 10.773 9.18819 11.2129 10.1604C11.3416 10.4448 11.2803 10.7795 11.0596 11.0003L4.14941 17.9104C3.89236 18.1676 3.74805 18.5165 3.74805 18.8801C3.74809 19.2438 3.8923 19.5927 4.14941 19.8499C4.40653 20.107 4.75553 20.2512 5.11914 20.2512L5.25488 20.2444C5.56872 20.2132 5.86386 20.0748 6.08887 19.8499L12.999 12.9397L13.0869 12.8645C13.3027 12.7068 13.59 12.6738 13.8389 12.7864C14.8111 13.2263 15.8945 13.3595 16.9443 13.1682C17.994 12.9769 18.9603 12.4705 19.7148 11.7161C20.4695 10.9615 20.9767 9.99452 21.168 8.9446C21.2907 8.27098 21.2775 7.58413 21.1377 6.92116L18.2246 9.83523C17.8975 10.1559 17.4571 10.3362 16.999 10.3362C16.5411 10.3361 16.1015 10.1558 15.7744 9.83523L15.7686 9.83034L14.1689 8.23073L14.1641 8.22487C13.8435 7.89781 13.6632 7.45824 13.6631 7.00027ZM15.1631 7.00027C15.1632 7.06561 15.1896 7.1284 15.2354 7.17507L16.8242 8.76394L16.8623 8.79519C16.9026 8.82158 16.9501 8.83614 16.999 8.8362C17.0645 8.8362 17.1281 8.80974 17.1748 8.76394L20.9395 4.99929L21.0078 4.93874C21.1752 4.80804 21.3917 4.75375 21.6035 4.79226C21.8457 4.83639 22.0508 4.99666 22.1523 5.22097C22.718 6.47093 22.8894 7.86339 22.6436 9.21316C22.3976 10.563 21.7465 11.8064 20.7764 12.7766C19.8061 13.7469 18.5628 14.3988 17.2129 14.6448C16.0362 14.8592 14.827 14.7555 13.708 14.3509L7.14941 20.9104C6.6783 21.3814 6.0605 21.6723 5.40332 21.7376L5.11914 21.7512C4.3577 21.7512 3.62729 21.4488 3.08887 20.9104C2.55045 20.372 2.24809 19.6416 2.24805 18.8801C2.24805 18.1187 2.55051 17.3883 3.08887 16.8499L9.64746 10.2903C9.24323 9.17165 9.14114 7.96272 9.35547 6.7864C9.60144 5.43653 10.2524 4.19314 11.2227 3.22292C12.1929 2.25278 13.4363 1.60167 14.7861 1.35573C16.1359 1.10987 17.5284 1.28134 18.7783 1.84694L18.8594 1.88991C19.0409 2.00049 19.1684 2.18384 19.207 2.39577C19.2511 2.63794 19.1741 2.88676 19 3.06081L15.2393 6.82058L15.2344 6.82448L15.2354 6.82546C15.1896 6.87219 15.1631 6.93485 15.1631 7.00027Z"
        fill="#303233" />
</svg>
