<svg width="24" height="24" viewBox="0 0 24 24" fill="none" xmlns="http://www.w3.org/2000/svg">
    <path fill-rule="evenodd" clip-rule="evenodd"
        d="M6 2C3.79086 2 2 3.79086 2 6V18C2 20.2091 3.79086 22 6 22H18C20.2091 22 22 20.2091 22 18V15.8284C22 15.0328 21.6839 14.2697 21.1213 13.7071L17.4142 10C16.6332 9.21895 15.3668 9.21895 14.5858 10L4.90917 19.6766C4.36182 19.3198 4 18.7021 4 18V6C4 4.89543 4.89543 4 6 4H12C12.5523 4 13 3.55228 13 3C13 2.44772 12.5523 2 12 2H6ZM18 20H7.41421L16 11.4142L19.7071 15.1213C19.8946 15.3089 20 15.5632 20 15.8284V18C20 19.1046 19.1046 20 18 20Z"
        fill="#303233" />
    <path fill-rule="evenodd" clip-rule="evenodd"
        d="M9 6C7.34315 6 6 7.34315 6 9C6 10.6569 7.34315 12 9 12C10.6569 12 12 10.6569 12 9C12 7.34315 10.6569 6 9 6ZM8 9C8 8.44772 8.44772 8 9 8C9.55229 8 10 8.44772 10 9C10 9.55229 9.55229 10 9 10C8.44772 10 8 9.55229 8 9Z"
        fill="#303233" />
    <path fill-rule="evenodd" clip-rule="evenodd"
        d="M15.7929 1.79289C16.1834 1.40237 16.8166 1.40237 17.2071 1.79289L19 3.58579L20.7929 1.79289C21.1834 1.40237 21.8166 1.40237 22.2071 1.79289C22.5976 2.18342 22.5976 2.81658 22.2071 3.20711L20.4142 5L22.2071 6.79289C22.5976 7.18342 22.5976 7.81658 22.2071 8.20711C21.8166 8.59763 21.1834 8.59763 20.7929 8.20711L19 6.41421L17.2071 8.20711C16.8166 8.59763 16.1834 8.59763 15.7929 8.20711C15.4024 7.81658 15.4024 7.18342 15.7929 6.79289L17.5858 5L15.7929 3.20711C15.4024 2.81658 15.4024 2.18342 15.7929 1.79289Z"
        fill="#303233" />
</svg>
