<svg width="16" height="16" viewBox="0 0 16 16" fill="none" xmlns="http://www.w3.org/2000/svg">
    <path fill-rule="evenodd" clip-rule="evenodd"
        d="M5.07398 6.192L7.16898 2.714L7.17098 2.711C7.25798 2.569 7.37898 2.452 7.52298 2.371L7.52598 2.37C7.67098 2.289 7.83298 2.246 7.99898 2.246C8.16498 2.246 8.32898 2.289 8.47398 2.37L8.47498 2.371C8.61998 2.452 8.74098 2.569 8.82798 2.711L8.82898 2.714L10.922 6.19C11.723 5.791 13.341 4.984 13.344 4.983C13.516 4.896 13.711 4.862 13.902 4.886C14.093 4.91 14.274 4.991 14.419 5.119C14.565 5.246 14.669 5.41401 14.718 5.60201C14.766 5.784 14.76 5.976 14.7 6.154L12.718 12.229C12.647 12.445 12.482 12.618 12.268 12.698C12.055 12.778 11.816 12.757 11.621 12.64C11.621 12.64 10.32 11.889 7.99798 11.889C5.67598 11.889 4.37598 12.64 4.37598 12.64C4.17998 12.757 3.94198 12.778 3.72798 12.698C3.51498 12.618 3.34898 12.445 3.27798 12.228C3.27798 12.228 1.30698 6.18 1.30298 6.168C1.23998 5.986 1.23298 5.78901 1.28298 5.60201C1.33198 5.416 1.43598 5.248 1.58098 5.121C1.72598 4.994 1.90598 4.914 2.09798 4.889C2.28898 4.865 2.48298 4.898 2.65298 4.984L5.07398 6.192ZM3.11598 6.891L4.44698 10.973C5.18198 10.703 6.38598 10.389 7.99798 10.389C9.61098 10.389 10.815 10.703 11.55 10.973L12.883 6.889L11.154 7.751L11.151 7.752C10.933 7.86 10.683 7.882 10.449 7.814C10.216 7.746 10.017 7.593 9.89098 7.385L9.88998 7.383L7.99898 4.244L6.10698 7.384C5.98098 7.593 5.78098 7.748 5.54698 7.816C5.31198 7.884 5.05998 7.862 4.84198 7.752L3.11598 6.891Z"
        fill="#303233" />
</svg>
