<svg width="24" height="24" viewBox="0 0 24 24" fill="none" xmlns="http://www.w3.org/2000/svg">
    <g clip-path="url(#clip0_8974_49)">
        <path
            d="M21.0001 11C21.5524 11 22.0001 11.4477 22.0001 12C22.0001 14.5592 21.024 17.1187 19.0714 19.0713C18.2735 19.8692 17.6054 20.5003 17.047 21H20.0001C20.5524 21 21.0001 21.4477 21.0001 22C21.0001 22.5523 20.5524 23 20.0001 23H14.0001C13.735 23 13.4806 22.8945 13.2931 22.707C13.1056 22.5195 13.0001 22.2652 13.0001 22V16C13.0001 15.4478 13.4479 15.0001 14.0001 15C14.5524 15 15.0001 15.4477 15.0001 16V20.126C15.617 19.614 16.479 18.8356 17.6574 17.6572C19.2195 16.0951 20.0001 14.0474 20.0001 12C20.0001 11.4478 20.4479 11.0001 21.0001 11Z"
            fill="#303233" />
        <path
            d="M10.0001 1C10.5523 1.00002 11 1.44782 11.0001 2V8C11.0001 8.55228 10.5524 9 10.0001 9C9.44792 8.99991 9.00013 8.55223 9.00013 8V3.87402C8.3832 4.386 7.52224 5.16538 6.34388 6.34375C3.21968 9.46795 3.21968 14.533 6.34388 17.6572C7.45182 18.765 8.80124 19.4785 10.2218 19.8008C10.7603 19.923 11.0979 20.4595 10.9757 20.998C10.8534 21.5363 10.3178 21.8738 9.77943 21.752C8.00156 21.3486 6.3114 20.4538 4.92884 19.0713C1.02378 15.166 1.02366 8.83389 4.92884 4.92871C5.72688 4.13067 6.39571 3.49976 6.95423 3H4.00013C3.44792 2.99991 3.00013 2.55222 3.00013 2C3.00015 1.44778 3.44794 1.00009 4.00013 1H10.0001Z"
            fill="#303233" />
        <path fill-rule="evenodd" clip-rule="evenodd"
            d="M19.0001 0C21.7616 0 24.0001 2.23858 24.0001 5C24.0001 7.76142 21.7616 10 19.0001 10C16.2388 9.99991 14.0001 7.76137 14.0001 5C14.0001 2.23863 16.2388 9.32879e-05 19.0001 0ZM19.0001 6.75C18.586 6.75009 18.2501 7.08584 18.2501 7.5V7.50977C18.2501 7.92392 18.586 8.25967 19.0001 8.25977C19.4143 8.25977 19.7501 7.92398 19.7501 7.50977V7.5C19.7501 7.08579 19.4143 6.75 19.0001 6.75ZM19.0001 1.75C18.586 1.75009 18.2501 2.08584 18.2501 2.5V5C18.2501 5.41416 18.586 5.74991 19.0001 5.75C19.4143 5.75 19.7501 5.41421 19.7501 5V2.5C19.7501 2.08579 19.4143 1.75 19.0001 1.75Z"
            fill="#303233" />
    </g>
    <defs>
        <clipPath id="clip0_8974_49">
            <rect width="24" height="24" fill="white" />
        </clipPath>
    </defs>
</svg>
