<svg width="16" height="16" viewBox="0 0 16 16" fill="none" xmlns="http://www.w3.org/2000/svg">
    <path fill-rule="evenodd" clip-rule="evenodd"
        d="M4.67048 2.75H8.32953C8.86444 2.74999 9.30937 2.74998 9.6725 2.77859C10.0503 2.80836 10.4039 2.87256 10.7387 3.03706C11.2538 3.29015 11.6777 3.69657 11.9451 4.20263C12.1206 4.53462 12.1887 4.88552 12.2201 5.25571C12.2434 5.53135 12.2486 5.85465 12.2497 6.22717L13.1763 5.32779C13.2888 5.21855 13.4062 5.10456 13.5106 5.01976C13.6032 4.94449 13.8181 4.77609 14.1193 4.75307C14.4453 4.72818 14.7701 4.85537 14.9912 5.10661C15.1972 5.3407 15.2272 5.62038 15.2379 5.73765C15.2501 5.87099 15.25 6.03369 15.25 6.18744V9.81255C15.25 9.9663 15.2501 10.129 15.2379 10.2623C15.2272 10.3796 15.1972 10.6593 14.9912 10.8934C14.7701 11.1446 14.4453 11.2718 14.1193 11.2469C13.8181 11.2239 13.6032 11.0555 13.5106 10.9802C13.4062 10.8954 13.2888 10.7814 13.1763 10.6722L12.2497 9.77282C12.2486 10.1453 12.2434 10.4687 12.2201 10.7443C12.1887 11.1145 12.1206 11.4654 11.9451 11.7974C11.6777 12.3034 11.2538 12.7098 10.7387 12.9629C10.4039 13.1274 10.0503 13.1916 9.6725 13.2214C9.30937 13.25 8.86445 13.25 8.32953 13.25H7.25V10.0607L7.96967 10.7803C8.26256 11.0732 8.73744 11.0732 9.03033 10.7803C9.32322 10.4874 9.32322 10.0126 9.03033 9.71967L7.03033 7.71967C6.88509 7.57443 6.69511 7.50121 6.50476 7.50002L6.5 7.5L6.49522 7.50002C6.39527 7.50064 6.29996 7.52081 6.21291 7.55691C6.12445 7.59351 6.04158 7.64776 5.96967 7.71967L3.96967 9.71967C3.67678 10.0126 3.67678 10.4874 3.96967 10.7803C4.26256 11.0732 4.73744 11.0732 5.03033 10.7803L5.75 10.0607V13.25H4.67044C4.13552 13.25 3.69063 13.25 3.3275 13.2214C2.94971 13.1916 2.5961 13.1274 2.26129 12.9629C1.74618 12.7098 1.32227 12.3034 1.05487 11.7974C0.879448 11.4654 0.811294 11.1145 0.779928 10.7443C0.74998 10.3908 0.749989 9.95897 0.75 9.44548V6.55452C0.749989 6.04103 0.74998 5.60917 0.779928 5.25571C0.811294 4.88552 0.879448 4.53462 1.05487 4.20263C1.32227 3.69657 1.74618 3.29015 2.26129 3.03706C2.5961 2.87256 2.94971 2.80836 3.3275 2.77859C3.69063 2.74998 4.13556 2.74999 4.67048 2.75ZM5.75 13.25V14.75C5.75 15.1642 6.08579 15.5 6.5 15.5C6.91421 15.5 7.25 15.1642 7.25 14.75V13.25H5.75Z"
        fill="#303233" />
</svg>
