<svg width="24" height="24" viewBox="0 0 24 24" fill="none" xmlns="http://www.w3.org/2000/svg">
    <path fill-rule="evenodd" clip-rule="evenodd"
        d="M2.25 12C2.25 6.61522 6.61522 2.25 12 2.25C17.3848 2.25 21.75 6.61522 21.75 12V18.5C21.75 20.2949 20.2949 21.75 18.5 21.75C16.7051 21.75 15.25 20.2949 15.25 18.5V16.5C15.25 14.7051 16.7051 13.25 18.5 13.25C19.1443 13.25 19.7449 13.4375 20.25 13.7609V12C20.25 7.44365 16.5563 3.75 12 3.75C7.44365 3.75 3.75 7.44365 3.75 12V13.7609C4.25515 13.4375 4.85568 13.25 5.5 13.25C7.29493 13.25 8.75 14.7051 8.75 16.5V18.5C8.75 20.2949 7.29493 21.75 5.5 21.75C3.70507 21.75 2.25 20.2949 2.25 18.5V12Z"
        fill="#303233" />
</svg>
