<svg width="24" height="24" viewBox="0 0 24 24" fill="none" xmlns="http://www.w3.org/2000/svg">
    <path
        d="M19 16.25C18.5858 16.25 18.25 16.5858 18.25 17C18.25 17.4142 18.5858 17.75 19 17.75C19.4142 17.75 19.751 17.4142 19.751 17C19.751 16.5858 19.4142 16.25 19 16.25Z"
        fill="#303233" />
    <path fill-rule="evenodd" clip-rule="evenodd"
        d="M4.16957 3.25H15.8304C16.3646 3.24999 16.8104 3.24998 17.1747 3.27974C17.5546 3.31078 17.9112 3.37789 18.2485 3.54973C18.7659 3.81339 19.1866 4.23408 19.4503 4.75153C19.6221 5.08879 19.6892 5.44545 19.7203 5.82533C19.75 6.18956 19.75 6.6354 19.75 7.16955V7.25H19.8304C20.3646 7.24999 20.8104 7.24998 21.1747 7.27974C21.5546 7.31078 21.9112 7.37789 22.2485 7.54973C22.7659 7.81339 23.1866 8.23408 23.4503 8.75153C23.6221 9.08879 23.6892 9.44545 23.7203 9.82533C23.75 10.1896 23.75 10.6354 23.75 11.1695V16.8305C23.75 17.3646 23.75 17.8104 23.7203 18.1747C23.6892 18.5546 23.6221 18.9112 23.4503 19.2485C23.1866 19.7659 22.7659 20.1866 22.2485 20.4503C21.9112 20.6221 21.5546 20.6892 21.1747 20.7203C20.8104 20.75 20.3646 20.75 19.8305 20.75H18.1695C17.6354 20.75 17.1896 20.75 16.8253 20.7203C16.4454 20.6892 16.0888 20.6221 15.7515 20.4503C15.2341 20.1866 14.8134 19.7659 14.5497 19.2485C14.3779 18.9112 14.3108 18.5546 14.2797 18.1747C14.269 18.0438 14.2622 17.9023 14.2578 17.75H4.16955C3.63542 17.75 3.18955 17.75 2.82533 17.7203C2.44545 17.6892 2.08879 17.6221 1.75153 17.4503C1.23408 17.1866 0.813385 16.7659 0.549734 16.2485C0.37789 15.9112 0.310779 15.5546 0.279741 15.1747C0.249982 14.8104 0.24999 14.3646 0.25 13.8305V7.16957C0.24999 6.63543 0.249982 6.18956 0.279741 5.82533C0.310779 5.44545 0.37789 5.08879 0.549734 4.75153C0.813385 4.23408 1.23408 3.81339 1.75153 3.54973C2.08879 3.37789 2.44545 3.31078 2.82533 3.27974C3.18956 3.24998 3.63542 3.24999 4.16957 3.25ZM14.25 16.25V11.1696C14.25 10.6354 14.25 10.1896 14.2797 9.82533C14.3108 9.44545 14.3779 9.08879 14.5497 8.75153C14.8134 8.23408 15.2341 7.81339 15.7515 7.54973C16.0888 7.37789 16.4454 7.31078 16.8253 7.27974C17.1896 7.24998 17.6354 7.24999 18.1696 7.25H18.25V7.2C18.25 6.62757 18.2494 6.24336 18.2252 5.94748C18.2018 5.66036 18.1599 5.52307 18.1138 5.43251C17.9939 5.19731 17.8027 5.00609 17.5675 4.88624C17.4769 4.8401 17.3396 4.79822 17.0525 4.77476C16.7566 4.75058 16.3724 4.75 15.8 4.75H4.2C3.62757 4.75 3.24336 4.75058 2.94748 4.77476C2.66036 4.79822 2.52307 4.8401 2.43251 4.88624C2.19731 5.00609 2.00609 5.19731 1.88624 5.43251C1.8401 5.52307 1.79822 5.66036 1.77476 5.94748C1.75058 6.24336 1.75 6.62757 1.75 7.2V13.8C1.75 14.3724 1.75058 14.7566 1.77476 15.0525C1.79822 15.3396 1.8401 15.4769 1.88624 15.5675C2.00609 15.8027 2.19731 15.9939 2.43251 16.1138C2.52307 16.1599 2.66036 16.2018 2.94748 16.2252C3.24336 16.2494 3.62757 16.25 4.2 16.25H14.25ZM16.4325 8.88624C16.5231 8.8401 16.6604 8.79822 16.9475 8.77476C17.2434 8.75058 17.6276 8.75 18.2 8.75H19.8C20.3724 8.75 20.7566 8.75058 21.0525 8.77476C21.3396 8.79822 21.4769 8.8401 21.5675 8.88624C21.8027 9.00608 21.9939 9.19731 22.1138 9.43251C22.1599 9.52307 22.2018 9.66036 22.2252 9.94748C22.2494 10.2434 22.25 10.6276 22.25 11.2V16.8C22.25 17.3724 22.2494 17.7566 22.2252 18.0525C22.2018 18.3396 22.1599 18.4769 22.1138 18.5675C21.9939 18.8027 21.8027 18.9939 21.5675 19.1138C21.4769 19.1599 21.3396 19.2018 21.0525 19.2252C20.7566 19.2494 20.3724 19.25 19.8 19.25H18.2C17.6276 19.25 17.2434 19.2494 16.9475 19.2252C16.6604 19.2018 16.5231 19.1599 16.4325 19.1138C16.1973 18.9939 16.0061 18.8027 15.8862 18.5675C15.8401 18.4769 15.7982 18.3396 15.7748 18.0525C15.7506 17.7566 15.75 17.3724 15.75 16.8V11.2C15.75 10.6276 15.7506 10.2434 15.7748 9.94748C15.7982 9.66036 15.8401 9.52307 15.8862 9.43251C16.0061 9.19731 16.1973 9.00608 16.4325 8.88624Z"
        fill="#303233" />
    <path
        d="M7.25 20C7.25 19.5858 7.58579 19.25 8 19.25H12C12.4142 19.25 12.75 19.5858 12.75 20C12.75 20.4142 12.4142 20.75 12 20.75H8C7.58579 20.75 7.25 20.4142 7.25 20Z"
        fill="#303233" />
</svg>
