<svg width="24" height="24" viewBox="0 0 24 24" fill="none" xmlns="http://www.w3.org/2000/svg">
    <path
        d="M19.75 2C19.75 1.58579 19.4142 1.25 19 1.25C18.5858 1.25 18.25 1.58579 18.25 2V4.25H16C15.5858 4.25 15.25 4.58579 15.25 5C15.25 5.41421 15.5858 5.75 16 5.75H18.25V8C18.25 8.41421 18.5858 8.75 19 8.75C19.4142 8.75 19.75 8.41421 19.75 8V5.75H22C22.4142 5.75 22.75 5.41421 22.75 5C22.75 4.58579 22.4142 4.25 22 4.25H19.75V2Z"
        fill="#303233" />
    <path
        d="M2.25 6C2.25 3.92893 3.92893 2.25 6 2.25H12C12.4142 2.25 12.75 2.58579 12.75 3C12.75 3.41421 12.4142 3.75 12 3.75H6C4.75736 3.75 3.75 4.75736 3.75 6V18C3.75 18.8633 4.23622 19.6131 4.94975 19.9904C4.95623 19.9834 4.96287 19.9765 4.96967 19.9697L14.7626 10.1768C15.446 9.49336 16.554 9.49336 17.2374 10.1768L20.9445 13.8839C21.4603 14.3996 21.75 15.0991 21.75 15.8284V18C21.75 20.0711 20.0711 21.75 18 21.75H6C3.92893 21.75 2.25 20.0711 2.25 18V6Z"
        fill="#303233" />
    <path
        d="M6.25 9C6.25 7.48122 7.48122 6.25 9 6.25C10.5188 6.25 11.75 7.48122 11.75 9C11.75 10.5188 10.5188 11.75 9 11.75C7.48122 11.75 6.25 10.5188 6.25 9Z"
        fill="#303233" />
</svg>
