<svg width="24" height="24" viewBox="0 0 24 24" fill="none" xmlns="http://www.w3.org/2000/svg">
    <path d="M3 3C1.34315 3 0 4.34315 0 6V9H24V6C24 4.34315 22.6569 3 21 3H3Z" fill="#303233" />
    <path fill-rule="evenodd" clip-rule="evenodd"
        d="M24 11H0V18C0 19.6569 1.34315 21 3 21H21C22.6569 21 24 19.6569 24 18V11ZM5 13C4.44772 13 4 13.4477 4 14C4 14.5523 4.44772 15 5 15H13C13.5523 15 14 14.5523 14 14C14 13.4477 13.5523 13 13 13H5ZM16 14C16 13.4477 16.4477 13 17 13H19C19.5523 13 20 13.4477 20 14C20 14.5523 19.5523 15 19 15H17C16.4477 15 16 14.5523 16 14Z"
        fill="#303233" />
</svg>
