<svg width="24" height="24" viewBox="0 0 24 24" fill="none" xmlns="http://www.w3.org/2000/svg">
    <path fill-rule="evenodd" clip-rule="evenodd"
        d="M1.45653 4.95496C1.85315 4.47366 2.45158 4.20492 3.07481 4.22825C3.57623 4.24701 3.98171 4.50903 4.2627 4.71689C4.55523 4.93329 4.90026 5.24001 5.29366 5.58974C5.30485 5.59969 5.31608 5.60967 5.32735 5.61969L10.3447 10.0795C10.5551 10.2666 10.7575 10.4464 10.9143 10.6117C11.0846 10.7913 11.2719 11.0244 11.3819 11.3374C11.5324 11.7663 11.5324 12.2337 11.3819 12.6626C11.2719 12.9756 11.0846 13.2088 10.9143 13.3883C10.7574 13.5537 10.5551 13.7335 10.3447 13.9205L5.29368 18.4102C4.90027 18.76 4.55523 19.0667 4.2627 19.2831C3.98171 19.491 3.57623 19.753 3.07481 19.7718C2.45158 19.7951 1.85315 19.5264 1.45653 19.045C1.13744 18.6578 1.06388 18.1807 1.03256 17.8326C0.999952 17.4702 0.999975 17.0085 1 16.4821L1 7.56295C1 7.54788 1 7.53285 1 7.51788C0.999975 6.9915 0.999952 6.52984 1.03256 6.16743C1.06388 5.81932 1.13744 5.34219 1.45653 4.95496ZM12.4565 4.95496C12.8531 4.47366 13.4516 4.20492 14.0748 4.22825C14.5762 4.24701 14.9817 4.50903 15.2627 4.71689C15.5552 4.9333 15.9003 5.24003 16.2937 5.58976L21.3447 10.0796C21.5551 10.2666 21.7575 10.4464 21.9143 10.6117C22.0846 10.7913 22.2719 11.0244 22.3819 11.3374C22.5325 11.7663 22.5325 12.2337 22.3819 12.6626C22.2719 12.9756 22.0846 13.2088 21.9143 13.3883C21.7575 13.5536 21.5551 13.7334 21.3447 13.9205L16.2937 18.4103C15.9003 18.76 15.5552 19.0667 15.2627 19.2831C14.9817 19.491 14.5762 19.753 14.0748 19.7718C13.4516 19.7951 12.8531 19.5264 12.4565 19.045C12.1374 18.6578 12.0639 18.1807 12.0326 17.8326C12 17.4702 12 17.0085 12 16.4821V7.51787C12 6.99149 12 6.52984 12.0326 6.16743C12.0639 5.81932 12.1374 5.34219 12.4565 4.95496ZM3.02988 6.29337C3.02805 6.30963 3.02625 6.32737 3.02451 6.34665C3.00098 6.6082 3 6.97803 3 7.56295V16.4371C3 17.022 3.00098 17.3918 3.02451 17.6534C3.02625 17.6726 3.02805 17.6904 3.02988 17.7066C3.04325 17.6972 3.0577 17.6868 3.07326 17.6752C3.28438 17.5191 3.56144 17.2741 3.99862 16.8855L8.9903 12.4484C9.23599 12.2301 9.3725 12.1076 9.46333 12.0118C9.46727 12.0077 9.47096 12.0037 9.47442 12C9.47096 11.9963 9.46727 11.9923 9.46333 11.9882C9.3725 11.8924 9.23598 11.7699 8.9903 11.5516L3.99862 7.11451C3.56144 6.7259 3.28438 6.48093 3.07326 6.32476C3.0577 6.31324 3.04325 6.30281 3.02988 6.29337ZM14.0299 6.29337C14.0281 6.30963 14.0262 6.32737 14.0245 6.34665C14.001 6.6082 14 6.97803 14 7.56295V16.4371C14 17.022 14.001 17.3918 14.0245 17.6534C14.0262 17.6726 14.0281 17.6904 14.0299 17.7066C14.0432 17.6972 14.0577 17.6868 14.0733 17.6752C14.2844 17.5191 14.5614 17.2741 14.9986 16.8855L19.9903 12.4484C20.236 12.2301 20.3725 12.1076 20.4633 12.0118C20.4673 12.0077 20.471 12.0037 20.4744 12C20.471 11.9963 20.4673 11.9923 20.4633 11.9882C20.3725 11.8924 20.236 11.7699 19.9903 11.5516L14.9986 7.11451C14.5614 6.7259 14.2844 6.48093 14.0733 6.32476C14.0577 6.31324 14.0432 6.30281 14.0299 6.29337Z"
        fill="#303233" />
</svg>
