<svg width="24" height="24" viewBox="0 0 24 24" fill="none" xmlns="http://www.w3.org/2000/svg">
    <path
        d="M4 5C3.44772 5 3 5.44772 3 6C3 6.55228 3.44772 7 4 7H14C14.5523 7 15 6.55228 15 6C15 5.44772 14.5523 5 14 5H4Z"
        fill="#303233" />
    <path
        d="M3 12C3 11.4477 3.44772 11 4 11H20C20.5523 11 21 11.4477 21 12C21 12.5523 20.5523 13 20 13H4C3.44772 13 3 12.5523 3 12Z"
        fill="#303233" />
    <path
        d="M3 18C3 17.4477 3.44772 17 4 17H14C14.5523 17 15 17.4477 15 18C15 18.5523 14.5523 19 14 19H4C3.44772 19 3 18.5523 3 18Z"
        fill="#303233" />
</svg>
