<svg width="16" height="16" viewBox="0 0 16 16" fill="none" xmlns="http://www.w3.org/2000/svg">
    <g clip-path="url(#clip0_415_235)">
        <path
            d="M7.88033 0.96967C7.58744 0.676777 7.11256 0.676777 6.81967 0.96967C6.52678 1.26256 6.52678 1.73744 6.81967 2.03033L7.48934 2.7H6.05C3.12289 2.7 0.75 5.07289 0.75 8C0.75 10.1154 1.98932 11.9398 3.77818 12.7896C4.15232 12.9673 4.59971 12.8081 4.77745 12.434C4.95518 12.0598 4.79596 11.6124 4.42182 11.4347C3.13625 10.824 2.25 9.51474 2.25 8C2.25 5.90132 3.95132 4.2 6.05 4.2H7.48934L6.81967 4.86967C6.52678 5.16256 6.52678 5.63744 6.81967 5.93033C7.11256 6.22322 7.58744 6.22322 7.88033 5.93033L9.83033 3.98033C10.1232 3.68744 10.1232 3.21256 9.83033 2.91967L7.88033 0.96967Z"
            fill="#303233" />
        <path
            d="M9.94922 13.3C12.8639 13.3 15.2291 10.9472 15.2491 8.03726C15.2497 8.02491 15.25 8.01249 15.25 8C15.25 7.58579 14.9142 7.25 14.5 7.25C14.0858 7.25 13.75 7.58579 13.75 8C13.75 10.0987 12.0479 11.8 9.94922 11.8H8.50988L9.17955 11.1303C9.47244 10.8374 9.47244 10.3626 9.17955 10.0697C8.88666 9.77678 8.41178 9.77678 8.11889 10.0697L6.16889 12.0197C5.876 12.3126 5.876 12.7874 6.16889 13.0803L8.11889 15.0303C8.41178 15.3232 8.88666 15.3232 9.17955 15.0303C9.47244 14.7374 9.47244 14.2626 9.17955 13.9697L8.50988 13.3H9.94922Z"
            fill="#303233" />
        <path fill-rule="evenodd" clip-rule="evenodd"
            d="M13.5 6.25C14.7426 6.25 15.75 5.24264 15.75 4C15.75 2.75736 14.7426 1.75 13.5 1.75C12.2574 1.75 11.25 2.75736 11.25 4C11.25 5.24264 12.2574 6.25 13.5 6.25ZM14 2.75H12.9994V3.5H13.25V5.25H14V2.75Z"
            fill="#303233" />
    </g>
    <defs>
        <clipPath id="clip0_415_235">
            <rect width="16" height="16" fill="white" />
        </clipPath>
    </defs>
</svg>
