<svg width="24" height="24" viewBox="0 0 24 24" fill="none" xmlns="http://www.w3.org/2000/svg">
    <path fill-rule="evenodd" clip-rule="evenodd"
        d="M3.85575 15.7353C3.13674 16.3393 2.57674 17.3993 2.20273 18.4773C1.70073 19.9243 1.50872 21.3673 1.50872 21.3673C1.46772 21.6763 1.57272 21.9873 1.79273 22.2073C2.01273 22.4273 2.32373 22.5323 2.63274 22.4913C2.63274 22.4913 4.07576 22.2993 5.52277 21.7973C6.60079 21.4233 7.6598 20.8633 8.26381 20.1453C9.30482 18.9133 9.27082 17.0223 8.11281 15.8783C8.10881 15.8743 8.10481 15.8713 8.09981 15.8673C7.5328 15.3253 6.78679 15.0133 6.00278 14.9883C5.21977 14.9643 4.45476 15.2303 3.85575 15.7353ZM10.5948 6.85628C10.0698 6.73028 9.31182 6.58228 8.51781 6.53528C7.4128 6.47028 6.25678 6.62728 5.44477 7.16828L5.44377 7.16928C4.71976 7.65328 4.14476 8.52728 3.75275 9.42828C3.23275 10.6203 3.01574 11.8213 3.01574 11.8213C2.96274 12.1133 3.04174 12.4133 3.23175 12.6413C3.42175 12.8683 3.70375 13.0003 3.99976 13.0003H8.58581L10.9998 15.4143V20.0003C10.9998 20.2963 11.1318 20.5783 11.3589 20.7683C11.5869 20.9583 11.8869 21.0373 12.1789 20.9843C12.1789 20.9843 13.3799 20.7673 14.5719 20.2473C15.4729 19.8553 16.3469 19.2803 16.8309 18.5563L16.8319 18.5553C17.3729 17.7433 17.5299 16.5873 17.4649 15.4823C17.4189 14.6943 17.2719 13.9413 17.1469 13.4173C22.228 9.69828 23 4.81828 23 2.00028C23 1.45028 22.556 1.00328 22.006 1.00028C19.638 0.985278 17.3059 1.57728 15.2309 2.71828C13.3899 3.73128 11.8049 5.14728 10.5948 6.85628ZM5.14277 17.2663C5.14377 17.2653 5.14377 17.2653 5.14377 17.2653C5.36677 17.0773 5.65078 16.9793 5.94078 16.9883C6.22678 16.9963 6.49979 17.1093 6.70879 17.3043C7.1288 17.7243 7.1128 18.4083 6.73579 18.8543C6.73579 18.8553 6.73479 18.8563 6.73379 18.8573C6.32979 19.3383 5.58878 19.6573 4.86777 19.9073C4.48976 20.0383 4.11276 20.1453 3.76875 20.2303C3.85475 19.8883 3.96175 19.5103 4.09276 19.1323C4.34276 18.4113 4.66176 17.6703 5.14277 17.2663ZM15.3419 14.5503C14.5829 14.9703 13.8009 15.3463 12.9999 15.6783V18.7063C13.2449 18.6263 13.5099 18.5293 13.7729 18.4143C14.3159 18.1773 14.8769 17.8803 15.1679 17.4453C15.4909 16.9613 15.5069 16.2583 15.4679 15.5993C15.4469 15.2303 15.3979 14.8713 15.3419 14.5503ZM15.4539 12.1623C19.663 9.33628 20.75 5.61128 20.958 3.03928C19.291 3.17428 17.6669 3.66028 16.1949 4.47028C14.4189 5.44728 12.9229 6.86228 11.8479 8.58028C11.8459 8.58328 11.8439 8.58628 11.8419 8.58928C11.1968 9.59728 10.6388 10.6583 10.1748 11.7613L12.2419 13.8273C13.3569 13.3653 14.4319 12.8083 15.4539 12.1623ZM9.46783 8.66128C9.14282 8.60428 8.77682 8.55428 8.40081 8.53228C7.7418 8.49328 7.03879 8.50928 6.55479 8.83228C6.11978 9.12328 5.82278 9.68428 5.58578 10.2273C5.47077 10.4903 5.37377 10.7553 5.29377 11.0003H8.32481C8.66181 10.1993 9.04282 9.41928 9.46783 8.66128Z"
        fill="#303233" />
</svg>
