<svg width="24" height="24" viewBox="0 0 24 24" fill="none" xmlns="http://www.w3.org/2000/svg">
    <path fill-rule="evenodd" clip-rule="evenodd"
        d="M12 1C5.92487 1 1 5.92487 1 12C1 18.0751 5.92487 23 12 23C18.0751 23 23 18.0751 23 12C23 5.92487 18.0751 1 12 1ZM10.6315 8.46464C11.0597 8.81341 11.1242 9.44329 10.7754 9.87152C10.2153 10.5593 9.40287 11 8.50002 11C7.58716 11 6.79882 10.551 6.23634 9.88561C5.87979 9.46384 5.93266 8.83289 6.35443 8.47634C6.7762 8.11979 7.40716 8.17266 7.76371 8.59443C8.02123 8.89906 8.28289 9.00002 8.50002 9.00002C8.72717 9.00002 8.99479 8.89075 9.22464 8.60853C9.57341 8.1803 10.2033 8.11588 10.6315 8.46464ZM17.6315 8.46464C18.0597 8.81341 18.1242 9.44329 17.7754 9.87152C17.2153 10.5593 16.4029 11 15.5 11C14.5872 11 13.7988 10.551 13.2363 9.88561C12.8798 9.46384 12.9327 8.83289 13.3544 8.47634C13.7762 8.11979 14.4072 8.17266 14.7637 8.59443C15.0212 8.89906 15.2829 9.00002 15.5 9.00002C15.7272 9.00002 15.9948 8.89075 16.2246 8.60853C16.5734 8.1803 17.2033 8.11588 17.6315 8.46464ZM8.79692 13.3958C8.46474 12.9576 7.84049 12.8697 7.40006 13.2C6.95823 13.5314 6.86869 14.1582 7.20006 14.6L7.20107 14.6013L7.20222 14.6029L7.20496 14.6065L7.21217 14.6159L7.23347 14.6432C7.25071 14.6649 7.27407 14.6938 7.30342 14.7288C7.36207 14.7987 7.44506 14.8933 7.55151 15.0044C7.76358 15.2257 8.07349 15.5172 8.47439 15.8087C9.27233 16.3891 10.4745 17 12.0001 17C13.5256 17 14.7278 16.3891 15.5257 15.8087C15.9266 15.5172 16.2365 15.2257 16.4486 15.0044C16.5551 14.8933 16.6381 14.7987 16.6967 14.7288C16.7261 14.6938 16.7494 14.6649 16.7666 14.6432L16.7879 14.6159L16.7952 14.6065L16.7979 14.6029L16.799 14.6013L16.8001 14.6C17.1314 14.1582 17.0419 13.5314 16.6001 13.2C16.1596 12.8697 15.5354 12.9576 15.2032 13.3958L15.1986 13.4018C15.1926 13.4093 15.1813 13.4234 15.1647 13.4431C15.1316 13.4826 15.0779 13.5442 15.0046 13.6206C14.8573 13.7743 14.636 13.9828 14.3494 14.1913C13.7723 14.6109 12.9745 15 12.0001 15C11.0256 15 10.2278 14.6109 9.65073 14.1913C9.36413 13.9828 9.14278 13.7743 8.99548 13.6206C8.92225 13.5442 8.86852 13.4826 8.83537 13.4431C8.81883 13.4234 8.80751 13.4093 8.80156 13.4018L8.79692 13.3958Z"
        fill="#303233" />
</svg>
