<svg width="16" height="16" viewBox="0 0 16 16" fill="none" xmlns="http://www.w3.org/2000/svg">
    <path fill-rule="evenodd" clip-rule="evenodd"
        d="M2.94444 1C2.42875 1 1.93417 1.20486 1.56951 1.56951C1.20486 1.93417 1 2.42875 1 2.94444V14.5C1 14.7022 1.12182 14.8845 1.30866 14.9619C1.4955 15.0393 1.71055 14.9966 1.85355 14.8536L4.70711 12H13.0556C13.5713 12 14.0658 11.7951 14.4305 11.4305C14.7951 11.0658 15 10.5713 15 10.0556V2.94444C15 2.42875 14.7951 1.93417 14.4305 1.56951C14.0658 1.20486 13.5713 1 13.0556 1H2.94444ZM8.5 4C8.5 3.72386 8.27614 3.5 8 3.5C7.72386 3.5 7.5 3.72386 7.5 4V6.5C7.5 6.77614 7.72386 7 8 7C8.27614 7 8.5 6.77614 8.5 6.5V4ZM8.5 9C8.5 8.72386 8.27614 8.5 8 8.5C7.72386 8.5 7.5 8.72386 7.5 9V9.01C7.5 9.28614 7.72386 9.51 8 9.51C8.27614 9.51 8.5 9.28614 8.5 9.01V9Z"
        fill="#303233" />
</svg>
