<svg width="24" height="24" viewBox="0 0 24 24" fill="none" xmlns="http://www.w3.org/2000/svg">
    <path
        d="M5.60001 7.54998C5.35149 7.21861 4.88138 7.15145 4.55001 7.39998C4.21864 7.64851 4.15149 8.11861 4.40001 8.44998L7.06251 12L4.40001 15.55C4.15149 15.8814 4.21864 16.3515 4.55001 16.6C4.88138 16.8485 5.35149 16.7814 5.60001 16.45L8.00001 13.25L10.4 16.45C10.6485 16.7814 11.1186 16.8485 11.45 16.6C11.7814 16.3515 11.8485 15.8814 11.6 15.55L8.93751 12L11.6 8.44998C11.8485 8.11861 11.7814 7.64851 11.45 7.39998C11.1186 7.15145 10.6485 7.21861 10.4 7.54998L8.00001 10.75L5.60001 7.54998Z"
        fill="#303233" />
    <path
        d="M14.75 10C14.75 9.30964 15.3096 8.75 16 8.75H17C17.4617 8.75 17.866 8.99996 18.0832 9.37554C18.2906 9.73409 18.7494 9.85661 19.108 9.6492C19.4665 9.4418 19.589 8.983 19.3816 8.62446C18.9073 7.80444 18.0188 7.25 17 7.25H16C14.4812 7.25 13.25 8.48122 13.25 10C13.25 11.5188 14.4812 12.75 16 12.75H17C17.6904 12.75 18.25 13.3096 18.25 14C18.25 14.6904 17.6904 15.25 17 15.25H16C15.5383 15.25 15.134 15 14.9168 14.6245C14.7094 14.2659 14.2506 14.1434 13.892 14.3508C13.5335 14.5582 13.411 15.017 13.6184 15.3755C14.0927 16.1956 14.9812 16.75 16 16.75H17C18.5188 16.75 19.75 15.5188 19.75 14C19.75 12.4812 18.5188 11.25 17 11.25H16C15.3096 11.25 14.75 10.6904 14.75 10Z"
        fill="#303233" />
    <path fill-rule="evenodd" clip-rule="evenodd"
        d="M17.2321 2.25H6.7679C5.95506 2.24999 5.29944 2.24999 4.76853 2.29336C4.2219 2.33803 3.74175 2.43239 3.29754 2.65873C2.59193 3.01825 2.01825 3.59193 1.65873 4.29754C1.43239 4.74175 1.33803 5.2219 1.29336 5.76853C1.24999 6.29944 1.24999 6.95505 1.25 7.76789V16.2321C1.24999 17.0449 1.24999 17.7006 1.29336 18.2315C1.33803 18.7781 1.43239 19.2582 1.65873 19.7025C2.01825 20.4081 2.59193 20.9817 3.29754 21.3413C3.74175 21.5676 4.2219 21.662 4.76853 21.7066C5.29944 21.75 5.95505 21.75 6.76788 21.75H17.2321C18.045 21.75 18.7006 21.75 19.2315 21.7066C19.7781 21.662 20.2582 21.5676 20.7025 21.3413C21.4081 20.9817 21.9817 20.4081 22.3413 19.7025C22.5676 19.2582 22.662 18.7781 22.7066 18.2315C22.75 17.7006 22.75 17.045 22.75 16.2321V7.76788C22.75 6.95505 22.75 6.29944 22.7066 5.76853C22.662 5.2219 22.5676 4.74175 22.3413 4.29754C21.9817 3.59193 21.4081 3.01825 20.7025 2.65873C20.2582 2.43239 19.7781 2.33803 19.2315 2.29336C18.7006 2.24999 18.0449 2.24999 17.2321 2.25ZM3.97852 3.99524C4.17604 3.8946 4.43681 3.82547 4.89068 3.78838C5.35331 3.75058 5.94755 3.75 6.8 3.75H17.2C18.0525 3.75 18.6467 3.75058 19.1093 3.78838C19.5632 3.82547 19.824 3.8946 20.0215 3.99524C20.4448 4.21095 20.789 4.55516 21.0048 4.97852C21.1054 5.17604 21.1745 5.43681 21.2116 5.89068C21.2494 6.35331 21.25 6.94755 21.25 7.8V16.2C21.25 17.0525 21.2494 17.6467 21.2116 18.1093C21.1745 18.5632 21.1054 18.824 21.0048 19.0215C20.789 19.4448 20.4448 19.789 20.0215 20.0048C19.824 20.1054 19.5632 20.1745 19.1093 20.2116C18.6467 20.2494 18.0525 20.25 17.2 20.25H6.8C5.94755 20.25 5.35331 20.2494 4.89068 20.2116C4.43681 20.1745 4.17604 20.1054 3.97852 20.0048C3.55516 19.789 3.21095 19.4448 2.99524 19.0215C2.8946 18.824 2.82547 18.5632 2.78838 18.1093C2.75058 17.6467 2.75 17.0525 2.75 16.2V7.8C2.75 6.94755 2.75058 6.35331 2.78838 5.89068C2.82547 5.43681 2.8946 5.17604 2.99524 4.97852C3.21095 4.55516 3.55516 4.21095 3.97852 3.99524Z"
        fill="#303233" />
</svg>
