<svg width="16" height="16" viewBox="0 0 16 16" fill="none" xmlns="http://www.w3.org/2000/svg">
    <g clip-path="url(#clip0_110_805)">
        <path fill-rule="evenodd" clip-rule="evenodd"
            d="M4.93586 0.75L5.11111 0.750001C5.52533 0.750001 5.86111 1.08579 5.86111 1.5C5.86111 1.91421 5.52533 2.25 5.11111 2.25H4.96667C4.34757 2.25 3.92835 2.25058 3.60468 2.27703C3.28976 2.30276 3.1319 2.34918 3.02351 2.40441C2.75695 2.54023 2.54023 2.75695 2.40441 3.02351C2.34918 3.1319 2.30276 3.28976 2.27703 3.60468C2.25058 3.92835 2.25 4.34757 2.25 4.96667V5.11111C2.25 5.52533 1.91421 5.86111 1.5 5.86111C1.08579 5.86111 0.750001 5.52533 0.750001 5.11111L0.75 4.93586C0.74999 4.35533 0.749982 3.87454 0.782011 3.48253C0.815319 3.07485 0.886972 2.69762 1.0679 2.34253C1.34753 1.79372 1.79372 1.34753 2.34253 1.0679C2.69762 0.886972 3.07485 0.815319 3.48253 0.782011C3.87454 0.749982 4.35533 0.74999 4.93586 0.75ZM12.3953 2.27703C12.0717 2.25058 11.6524 2.25 11.0333 2.25H10.8889C10.4747 2.25 10.1389 1.91421 10.1389 1.5C10.1389 1.08579 10.4747 0.750001 10.8889 0.750001L11.0641 0.75C11.6447 0.74999 12.1255 0.749982 12.5175 0.782011C12.9251 0.815319 13.3024 0.886972 13.6575 1.0679C14.2063 1.34753 14.6525 1.79372 14.9321 2.34253C15.113 2.69762 15.1847 3.07485 15.218 3.48253C15.25 3.87455 15.25 4.35535 15.25 4.93589V5.11111C15.25 5.52533 14.9142 5.86111 14.5 5.86111C14.0858 5.86111 13.75 5.52533 13.75 5.11111V4.96667C13.75 4.34757 13.7494 3.92835 13.723 3.60468C13.6972 3.28976 13.6508 3.1319 13.5956 3.02351C13.4598 2.75695 13.243 2.54023 12.9765 2.40441C12.8681 2.34918 12.7102 2.30276 12.3953 2.27703ZM1.5 10.1389C1.91421 10.1389 2.25 10.4747 2.25 10.8889V11.0333C2.25 11.6524 2.25058 12.0717 2.27703 12.3953C2.30276 12.7102 2.34918 12.8681 2.40441 12.9765C2.54023 13.243 2.75695 13.4598 3.02351 13.5956C3.1319 13.6508 3.28976 13.6972 3.60468 13.723C3.92835 13.7494 4.34757 13.75 4.96667 13.75H5.11111C5.52533 13.75 5.86111 14.0858 5.86111 14.5C5.86111 14.9142 5.52533 15.25 5.11111 15.25H4.93589C4.35535 15.25 3.87455 15.25 3.48253 15.218C3.07485 15.1847 2.69762 15.113 2.34253 14.9321C1.79372 14.6525 1.34753 14.2063 1.0679 13.6575C0.886972 13.3024 0.815319 12.9251 0.782011 12.5175C0.749982 12.1255 0.74999 11.6447 0.75 11.0641L0.750001 10.8889C0.750001 10.4747 1.08579 10.1389 1.5 10.1389ZM14.5 10.1389C14.9142 10.1389 15.25 10.4747 15.25 10.8889V11.0641C15.25 11.6447 15.25 12.1255 15.218 12.5175C15.1847 12.9251 15.113 13.3024 14.9321 13.6575C14.6525 14.2063 14.2063 14.6525 13.6575 14.9321C13.3024 15.113 12.9251 15.1847 12.5175 15.218C12.1255 15.25 11.6447 15.25 11.0641 15.25H10.8889C10.4747 15.25 10.1389 14.9142 10.1389 14.5C10.1389 14.0858 10.4747 13.75 10.8889 13.75H11.0333C11.6524 13.75 12.0717 13.7494 12.3953 13.723C12.7102 13.6972 12.8681 13.6508 12.9765 13.5956C13.243 13.4598 13.4598 13.243 13.5956 12.9765C13.6508 12.8681 13.6972 12.7102 13.723 12.3953C13.7494 12.0717 13.75 11.6524 13.75 11.0333V10.8889C13.75 10.4747 14.0858 10.1389 14.5 10.1389Z"
            fill="#303233" />
    </g>
    <defs>
        <clipPath id="clip0_110_805">
            <rect width="16" height="16" fill="white" />
        </clipPath>
    </defs>
</svg>
