<svg width="24" height="24" viewBox="0 0 24 24" fill="none" xmlns="http://www.w3.org/2000/svg">
    <path
        d="M12 7.25C12.4142 7.25 12.75 7.58579 12.75 8V11.25H16C16.4142 11.25 16.75 11.5858 16.75 12C16.75 12.4142 16.4142 12.75 16 12.75H12.75V16C12.75 16.4142 12.4142 16.75 12 16.75C11.5858 16.75 11.25 16.4142 11.25 16V12.75H8C7.58579 12.75 7.25 12.4142 7.25 12C7.25 11.5858 7.58579 11.25 8 11.25H11.25V8C11.25 7.58579 11.5858 7.25 12 7.25Z"
        fill="#303233" />
    <path fill-rule="evenodd" clip-rule="evenodd"
        d="M21.75 12C21.75 7.19299 17.407 3.25 12 3.25C6.59303 3.25 2.25004 7.19299 2.25004 12C2.25004 13.33 2.58104 14.591 3.17304 15.722C3.38304 16.123 3.47804 16.59 3.31904 17.013L2.29804 19.737C2.20204 19.992 2.25204 20.278 2.42904 20.486C2.60504 20.693 2.88004 20.789 3.14704 20.735L7.24203 19.916C7.52303 19.86 7.81203 19.907 8.07803 20.012C9.32503 20.503 10.657 20.754 12.001 20.75C17.408 20.749 21.75 16.806 21.75 12ZM20.25 12C20.25 16.03 16.533 19.25 12 19.25H11.997C10.842 19.254 9.69902 19.038 8.62803 18.616C8.09303 18.406 7.51103 18.333 6.94803 18.445L4.17604 19L4.72304 17.54C5.03203 16.717 4.91003 15.804 4.50204 15.026C4.02004 14.106 3.75004 13.081 3.75004 12C3.75004 7.96999 7.46703 4.75 12 4.75C16.533 4.75 20.25 7.96999 20.25 12Z"
        fill="#303233" />
</svg>
