<svg width="16" height="16" viewBox="0 0 16 16" fill="none" xmlns="http://www.w3.org/2000/svg">
    <path
        d="M7.99989 6C7.60207 6 7.22054 6.15804 6.93923 6.43934C6.65793 6.72064 6.49989 7.10218 6.49989 7.5V8H9.49989V7.5C9.49989 7.10218 9.34186 6.72064 9.06055 6.43934C8.77925 6.15804 8.39772 6 7.99989 6Z"
        fill="#303233" />
    <path fill-rule="evenodd" clip-rule="evenodd"
        d="M3.00011 1.5C1.89555 1.5 1.00012 2.39541 1.00011 3.49997L1 12C0.999986 13.1046 1.89542 14 3 14H13C14.1045 14 15 13.1046 15 12V5C15 3.89543 14.1045 3 13 3H9.57856C9.04813 3 8.53942 2.78929 8.16435 2.41421L7.83592 2.08579C7.46085 1.71071 6.95214 1.5 6.42171 1.5H3.00011ZM5.99989 7.5V8H5.84604C5.37387 8 4.99989 8.34795 4.99989 8.76738V10.7326C4.99989 11.152 5.37387 11.5 5.84604 11.5H10.1537C10.6259 11.5 10.9999 11.152 10.9999 10.7326V8.76738C10.9999 8.34795 10.6259 8 10.1537 8H9.99989V7.5C9.99989 6.96957 9.78918 6.46086 9.4141 6.08579C9.03903 5.71071 8.53032 5.5 7.99989 5.5C7.46946 5.5 6.96075 5.71071 6.58568 6.08579C6.2106 6.46086 5.99989 6.96957 5.99989 7.5Z"
        fill="#303233" />
</svg>
