<svg width="16" height="16" viewBox="0 0 16 16" fill="none" xmlns="http://www.w3.org/2000/svg">
    <path fill-rule="evenodd" clip-rule="evenodd"
        d="M2.75 5C2.75 3.20507 4.20507 1.75 6 1.75C7.79493 1.75 9.25 3.20507 9.25 5C9.25 6.79493 7.79493 8.25 6 8.25C4.20507 8.25 2.75 6.79493 2.75 5ZM6 3.25C5.0335 3.25 4.25 4.0335 4.25 5C4.25 5.9665 5.0335 6.75 6 6.75C6.9665 6.75 7.75 5.9665 7.75 5C7.75 4.0335 6.9665 3.25 6 3.25Z"
        fill="#303233" />
    <path
        d="M5.99974 10.25C3.9445 10.25 2.22848 11.7096 1.83477 13.6492C1.75237 14.0551 1.35649 14.3174 0.950557 14.235C0.544622 14.1526 0.282346 13.7567 0.364746 13.3508C0.897571 10.7259 3.21706 8.75 5.99974 8.75C8.78241 8.75 11.1019 10.7259 11.6347 13.3508C11.7171 13.7567 11.4549 14.1526 11.0489 14.235C10.643 14.3174 10.2471 14.0551 10.1647 13.6492C9.77099 11.7096 8.05498 10.25 5.99974 10.25Z"
        fill="#303233" />
    <path
        d="M12.5 4.75C12.9142 4.75 13.25 5.08579 13.25 5.5V6.75H14.5C14.9142 6.75 15.25 7.08579 15.25 7.5C15.25 7.91421 14.9142 8.25 14.5 8.25H13.25V9.5C13.25 9.91421 12.9142 10.25 12.5 10.25C12.0858 10.25 11.75 9.91421 11.75 9.5V8.25H10.5C10.0858 8.25 9.75 7.91421 9.75 7.5C9.75 7.08579 10.0858 6.75 10.5 6.75H11.75V5.5C11.75 5.08579 12.0858 4.75 12.5 4.75Z"
        fill="#303233" />
</svg>
