<svg width="16" height="16" viewBox="0 0 16 16" fill="none" xmlns="http://www.w3.org/2000/svg">
    <g clip-path="url(#clip0_53_7753)">
        <path
            d="M3 0.75C1.75735 0.75 0.749991 1.75737 0.75 3.00002L0.750056 11C0.750065 12.2427 1.75742 13.25 3.00006 13.25H4.5C4.91421 13.25 5.25 12.9142 5.25 12.5C5.25 12.0858 4.91421 11.75 4.5 11.75H4L3.99829 11.75H3.00015C2.58594 11.75 2.25015 11.4142 2.25015 11V4C2.25015 3.58579 2.58594 3.25 3.00015 3.25H13.0002C13.4144 3.25 13.7502 3.58579 13.7502 4V11C13.7502 11.4142 13.4144 11.75 13.0002 11.75H12.0017L12 11.75H11.5C11.0858 11.75 10.75 12.0858 10.75 12.5C10.75 12.9142 11.0858 13.25 11.5 13.25H13.0001C14.2427 13.25 15.2501 12.2426 15.2501 11V4C15.2501 2.75736 14.2427 1.75 13.0001 1.75H9.20712C8.82072 1.75 8.45015 1.59649 8.17694 1.32324C7.80997 0.956203 7.3122 0.75 6.79318 0.75H3Z"
            fill="#303233" />
        <path
            d="M7.46967 7.71967C7.54158 7.64776 7.62445 7.59351 7.71291 7.55691C7.79996 7.52081 7.89527 7.50064 7.99522 7.50001L8 7.5L8.00476 7.50001C8.19511 7.50121 8.38509 7.57443 8.53033 7.71967L10.5303 9.71967C10.8232 10.0126 10.8232 10.4874 10.5303 10.7803C10.2374 11.0732 9.76256 11.0732 9.46967 10.7803L8.75 10.0607V14.75C8.75 15.1642 8.41421 15.5 8 15.5C7.58579 15.5 7.25 15.1642 7.25 14.75V10.0607L6.53033 10.7803C6.23744 11.0732 5.76256 11.0732 5.46967 10.7803C5.17678 10.4874 5.17678 10.0126 5.46967 9.71967L7.46967 7.71967Z"
            fill="#303233" />
    </g>
    <defs>
        <clipPath id="clip0_53_7753">
            <rect width="16" height="16" fill="white" />
        </clipPath>
    </defs>
</svg>
