<svg width="16" height="16" viewBox="0 0 16 16" fill="none" xmlns="http://www.w3.org/2000/svg">
    <path
        d="M8 0.5C6.61929 0.5 5.5 1.61929 5.5 3V8C5.5 9.38071 6.61929 10.5 8 10.5C8.27614 10.5 8.5 10.2761 8.5 10C8.5 9.72386 8.27614 9.5 8 9.5C7.17157 9.5 6.5 8.82843 6.5 8V3C6.5 2.17157 7.17157 1.5 8 1.5C8.82843 1.5 9.5 2.17157 9.5 3V8C9.5 8.27614 9.72386 8.5 10 8.5C10.2761 8.5 10.5 8.27614 10.5 8V3C10.5 1.61929 9.38071 0.5 8 0.5Z"
        fill="#303233" />
    <path
        d="M4 6.5C4 6.22386 3.77614 6 3.5 6C3.22386 6 3 6.22386 3 6.5V8C3 10.4799 4.80496 12.5373 7.17285 12.9318C7.44524 12.9772 7.70284 12.7932 7.74822 12.5208C7.7936 12.2484 7.60958 11.9908 7.33719 11.9454C5.44357 11.6299 4 9.98306 4 8V6.5Z"
        fill="#303233" />
    <path
        d="M13 6.5C13 6.22386 12.7761 6 12.5 6C12.2239 6 12 6.22386 12 6.5V7.25C12 7.52614 12.2239 7.75 12.5 7.75C12.7761 7.75 13 7.52614 13 7.25V6.5Z"
        fill="#303233" />
    <path
        d="M5.5 14.5C5.22386 14.5 5 14.7239 5 15C5 15.2761 5.22386 15.5 5.5 15.5H8C8.27614 15.5 8.5 15.2761 8.5 15C8.5 14.7239 8.27614 14.5 8 14.5H5.5Z"
        fill="#303233" />
    <path fill-rule="evenodd" clip-rule="evenodd"
        d="M9.5 12.5C9.5 10.8431 10.8431 9.5 12.5 9.5C14.1569 9.5 15.5 10.8431 15.5 12.5C15.5 14.1569 14.1569 15.5 12.5 15.5C10.8431 15.5 9.5 14.1569 9.5 12.5ZM12.5 10.5C11.3954 10.5 10.5 11.3954 10.5 12.5C10.5 12.8709 10.601 13.2182 10.7769 13.516L13.516 10.7769C13.2182 10.601 12.8709 10.5 12.5 10.5ZM12.5 14.5C12.1291 14.5 11.7818 14.399 11.484 14.2231L14.2231 11.484C14.399 11.7818 14.5 12.1291 14.5 12.5C14.5 13.6046 13.6046 14.5 12.5 14.5Z"
        fill="#303233" />
</svg>
