<svg width="24" height="24" viewBox="0 0 24 24" fill="none" xmlns="http://www.w3.org/2000/svg">
    <path
        d="M4 2C2.34315 2 1 3.34315 1 5V19C1 20.6569 2.34315 22 4 22H14C14.5523 22 15 21.5523 15 21C15 20.4477 14.5523 20 14 20H4C3.44772 20 3 19.5523 3 19V7C3 6.44772 3.44772 6 4 6H20C20.5523 6 21 6.44772 21 7V10C21 10.5523 21.4477 11 22 11C22.5523 11 23 10.5523 23 10V7C23 5.34315 21.6569 4 20 4H13.8284C13.298 4 12.7893 3.78929 12.4142 3.41421L11.5858 2.58579C11.2107 2.21071 10.702 2 10.1716 2H4Z"
        fill="#303233" />
    <path
        d="M21 14C21 13.4477 20.5523 13 20 13C19.4477 13 19 13.4477 19 14V16H17C16.4477 16 16 16.4477 16 17C16 17.5523 16.4477 18 17 18H19V20C19 20.5523 19.4477 21 20 21C20.5523 21 21 20.5523 21 20V18H23C23.5523 18 24 17.5523 24 17C24 16.4477 23.5523 16 23 16H21V14Z"
        fill="#303233" />
</svg>
