<svg width="24" height="24" viewBox="0 0 24 24" fill="none" xmlns="http://www.w3.org/2000/svg">
    <path
        d="M3.05192 20.0571C2.94449 20.2958 2.84397 20.5191 2.77976 20.7045C2.71967 20.878 2.62977 21.1774 2.71967 21.5005C2.82494 21.8789 3.10191 22.1857 3.46752 22.3291C3.77974 22.4516 4.08682 22.3928 4.26551 22.3507C4.45647 22.3058 4.6889 22.2286 4.93729 22.1461L11.2506 20.0507V13.4981C11.2506 13.0839 11.5864 12.7481 12.0006 12.7481C12.4148 12.7481 12.7506 13.0839 12.7506 13.4981V20.0278L19.0576 22.1391C19.3066 22.2225 19.5394 22.3005 19.7306 22.346C19.9094 22.3886 20.217 22.4484 20.53 22.3263C20.8963 22.1834 21.174 21.8765 21.2797 21.4978C21.37 21.1742 21.2798 20.874 21.2197 20.7004C21.1553 20.5147 21.0545 20.2908 20.9467 20.0513L13.4017 3.28459C13.2967 3.05128 13.1981 2.8319 13.1033 2.6635C13.0138 2.50451 12.8514 2.24336 12.5546 2.09661C12.2055 1.92397 11.7958 1.92397 11.4466 2.09661C11.1498 2.24336 10.9874 2.50452 10.898 2.6635C10.8032 2.83189 10.7045 3.05124 10.5996 3.28452L3.05192 20.0571Z"
        fill="#303233" />
</svg>
