<svg width="16" height="16" viewBox="0 0 16 16" fill="none" xmlns="http://www.w3.org/2000/svg">
    <g clip-path="url(#clip0_53_9086)">
        <path
            d="M2.25 8C2.25 4.82436 4.82436 2.25 8 2.25C11.1756 2.25 13.75 4.82436 13.75 8C13.75 8.41421 14.0858 8.75 14.5 8.75C14.9142 8.75 15.25 8.41421 15.25 8C15.25 3.99594 12.0041 0.75 8 0.75C3.99594 0.75 0.75 3.99594 0.75 8C0.75 12.0041 3.99594 15.25 8 15.25C8.18724 15.25 8.37296 15.2429 8.55689 15.2289C8.96991 15.1975 9.27926 14.8372 9.24784 14.4242C9.21642 14.0111 8.85613 13.7018 8.44311 13.7332C8.297 13.7443 8.14923 13.75 8 13.75C4.82436 13.75 2.25 11.1756 2.25 8Z"
            fill="#303233" />
        <path
            d="M8.75 4.5C8.75 4.08579 8.41421 3.75 8 3.75C7.58579 3.75 7.25 4.08579 7.25 4.5V8C7.25 8.28408 7.4105 8.54378 7.66459 8.67082L9.66459 9.67082C10.0351 9.85606 10.4856 9.70589 10.6708 9.33541C10.8561 8.96493 10.7059 8.51442 10.3354 8.32918L8.75 7.53647V4.5Z"
            fill="#303233" />
        <path
            d="M14.5 11C14.5 11.8284 13.8284 12.5 13 12.5C12.1716 12.5 11.5 11.8284 11.5 11C11.5 10.1716 12.1716 9.5 13 9.5C13.8284 9.5 14.5 10.1716 14.5 11Z"
            fill="#303233" />
        <path
            d="M15.9074 15.2576C15.577 13.9598 14.4006 13 13 13C11.5994 13 10.423 13.9598 10.0926 15.2576C9.99038 15.659 10.3358 16 10.75 16H15.25C15.6642 16 16.0096 15.659 15.9074 15.2576Z"
            fill="#303233" />
    </g>
    <defs>
        <clipPath id="clip0_53_9086">
            <rect width="16" height="16" fill="white" />
        </clipPath>
    </defs>
</svg>
