<svg width="16" height="16" viewBox="0 0 16 16" fill="none" xmlns="http://www.w3.org/2000/svg">
    <g clip-path="url(#clip0_8284_212)">
        <path
            d="M8 8C8.85517 8 9.54845 7.32843 9.54845 6.5C9.54845 5.67157 8.85517 5 8 5C7.14483 5 6.45156 5.67157 6.45156 6.5C6.45156 7.32843 7.14483 8 8 8Z"
            fill="#303233" />
        <path
            d="M10.6346 11C10.8673 11 11.0493 10.8013 10.988 10.5837C10.6296 9.31077 9.42762 8.375 8 8.375C6.57239 8.375 5.37037 9.31077 5.01199 10.5837C4.95074 10.8013 5.13263 11 5.36545 11H10.6346Z"
            fill="#303233" />
        <path fill-rule="evenodd" clip-rule="evenodd"
            d="M0.75 1.5C0.75 1.08579 1.08579 0.75 1.5 0.75H14.5C14.9142 0.75 15.25 1.08579 15.25 1.5V9C15.25 9.41421 14.9142 9.75 14.5 9.75C14.0858 9.75 13.75 9.41421 13.75 9V2.25H2.25V11.5C2.25 12.7426 3.25736 13.75 4.5 13.75H9C9.41421 13.75 9.75 14.0858 9.75 14.5C9.75 14.9142 9.41421 15.25 9 15.25H4.5C2.42893 15.25 0.75 13.5711 0.75 11.5V1.5Z"
            fill="#303233" />
        <path fill-rule="evenodd" clip-rule="evenodd"
            d="M11.2197 11.2197C11.5126 10.9268 11.9874 10.9268 12.2803 11.2197L13.5 12.4393L14.7197 11.2197C15.0126 10.9268 15.4874 10.9268 15.7803 11.2197C16.0732 11.5126 16.0732 11.9874 15.7803 12.2803L14.5607 13.5L15.7803 14.7197C16.0732 15.0126 16.0732 15.4874 15.7803 15.7803C15.4874 16.0732 15.0126 16.0732 14.7197 15.7803L13.5 14.5607L12.2803 15.7803C11.9874 16.0732 11.5126 16.0732 11.2197 15.7803C10.9268 15.4874 10.9268 15.0126 11.2197 14.7197L12.4393 13.5L11.2197 12.2803C10.9268 11.9874 10.9268 11.5126 11.2197 11.2197Z"
            fill="#303233" />
    </g>
    <defs>
        <clipPath id="clip0_8284_212">
            <rect width="16" height="16" fill="white" />
        </clipPath>
    </defs>
</svg>
