<svg width="16" height="16" viewBox="0 0 16 16" fill="none" xmlns="http://www.w3.org/2000/svg">
    <path fill-rule="evenodd" clip-rule="evenodd"
        d="M5.5 4.25C4.25736 4.25 3.25 5.25736 3.25 6.5C3.25 7.74264 4.25736 8.75 5.5 8.75C6.74264 8.75 7.75 7.74264 7.75 6.5C7.75 5.25736 6.74264 4.25 5.5 4.25Z"
        fill="#303233" />
    <path fill-rule="evenodd" clip-rule="evenodd"
        d="M0.75 4.5C0.75 2.98122 1.98122 1.75 3.5 1.75H12.5C14.0188 1.75 15.25 2.98122 15.25 4.5V11.5C15.25 13.0188 14.0188 14.25 12.5 14.25H3.5C1.98122 14.25 0.75 13.0188 0.75 11.5V4.5ZM3.5 3.25C2.80964 3.25 2.25 3.80964 2.25 4.5V11.5C2.25 11.5601 2.25423 11.6191 2.26242 11.6769L4.49827 9.44105C5.05151 8.88781 5.94849 8.88781 6.50173 9.44106L7.25 10.1893L10.4983 6.94106C11.0515 6.38781 11.9485 6.38781 12.5017 6.94106L13.75 8.18932V4.5C13.75 3.80964 13.1904 3.25 12.5 3.25H3.5Z"
        fill="#303233" />
</svg>
