<svg width="24" height="24" viewBox="0 0 24 24" fill="none" xmlns="http://www.w3.org/2000/svg">
    <path fill-rule="evenodd" clip-rule="evenodd"
        d="M5.54969 3.80528C4.87215 3.8002 4.46313 3.97996 4.2213 4.22179C3.97947 4.46362 3.79971 4.87264 3.80479 5.55018C3.80991 6.23267 4.00612 7.10399 4.42415 8.11921C4.70293 8.79626 5.07164 9.51618 5.52386 10.2595C6.19281 9.41456 6.94041 8.57396 7.75687 7.7575C8.57338 6.94099 9.41404 6.19335 10.2591 5.52436C9.5157 5.07214 8.79577 4.70343 8.11872 4.42464C7.1035 4.00661 6.23218 3.8104 5.54969 3.80528ZM11.9996 4.2607C10.9316 3.55473 9.87828 2.98625 8.88022 2.57528C7.7201 2.09759 6.58694 1.813 5.5647 1.80533C4.53751 1.79763 3.54156 2.07309 2.80708 2.80757C2.0726 3.54205 1.79714 4.538 1.80484 5.56519C1.81251 6.58743 2.0971 7.72059 2.57479 8.88071C2.98576 9.87876 3.55423 10.932 4.26018 12.0001C3.55424 13.0681 2.98579 14.1214 2.57483 15.1194C2.09714 16.2795 1.81255 17.4127 1.80488 18.4349C1.79718 19.4621 2.07264 20.4581 2.80712 21.1925C3.5416 21.927 4.53755 22.2025 5.56474 22.1948C6.58698 22.1871 7.72014 21.9025 8.88026 21.4248C9.87831 21.0139 10.9316 20.4454 11.9996 19.7394C13.0676 20.4453 14.1208 21.0137 15.1187 21.4246C16.2788 21.9023 17.412 22.1869 18.4342 22.1946C19.4614 22.2023 20.4574 21.9268 21.1919 21.1924C21.9263 20.4579 22.2018 19.4619 22.1941 18.4347C22.1864 17.4125 21.9018 16.2793 21.4241 15.1192C21.0132 14.1212 20.4448 13.0681 19.7389 12.0001C20.4448 10.9321 21.0133 9.87889 21.4242 8.88089C21.9019 7.72077 22.1865 6.58761 22.1941 5.56537C22.2018 4.53818 21.9264 3.54223 21.1919 2.80775C20.4574 2.07328 19.4615 1.79781 18.4343 1.80552C17.412 1.81318 16.2789 2.09777 15.1188 2.57546C14.1208 2.9864 13.0676 3.55481 11.9996 4.2607ZM11.9996 6.70754C11.0577 7.41458 10.1029 8.23991 9.17108 9.17171C8.23934 10.1035 7.41405 11.0582 6.70703 12.0001C7.41404 12.9419 8.23932 13.8967 9.17104 14.8284C10.1029 15.7602 11.0577 16.5855 11.9996 17.2926C12.9415 16.5856 13.8962 15.7603 14.8279 14.8286C15.7597 13.8968 16.5851 12.942 17.2921 12.0001C16.585 11.0581 15.7597 10.1033 14.8279 9.17153C13.8962 8.23981 12.9415 7.41454 11.9996 6.70754ZM18.4752 10.2595C17.8063 9.41448 17.0586 8.57383 16.2421 7.75732C15.4257 6.9409 14.5851 6.19332 13.7402 5.52439C14.4834 5.07223 15.2033 4.70357 15.8803 4.42482C16.8955 4.00679 17.7668 3.81058 18.4493 3.80546C19.1268 3.80038 19.5359 3.98014 19.7777 4.22197C20.0195 4.4638 20.1993 4.87282 20.1942 5.55037C20.1891 6.23285 19.9929 7.10417 19.5748 8.11939C19.2961 8.79638 18.9274 9.51623 18.4752 10.2595ZM18.4752 13.7406C17.8063 14.5857 17.0586 15.4263 16.2422 16.2428C15.4257 17.0592 14.5851 17.8068 13.7402 18.4757C14.4834 18.9279 15.2033 19.2965 15.8802 19.5753C16.8954 19.9933 17.7668 20.1895 18.4492 20.1946C19.1268 20.1997 19.5358 20.02 19.7776 19.7781C20.0195 19.5363 20.1992 19.1273 20.1942 18.4497C20.189 17.7672 19.9928 16.8959 19.5748 15.8807C19.296 15.2037 18.9274 14.4839 18.4752 13.7406ZM10.2591 18.4758C9.41402 17.8068 8.57335 17.0591 7.75683 16.2426C6.94039 15.4262 6.19281 14.5856 5.52387 13.7406C5.07166 14.484 4.70297 15.2039 4.42419 15.8809C4.00616 16.8961 3.80995 17.7674 3.80483 18.4499C3.79975 19.1275 3.97951 19.5365 4.22134 19.7783C4.46317 20.0201 4.87219 20.1999 5.54973 20.1948C6.23222 20.1897 7.10354 19.9935 8.11876 19.5755C8.7958 19.2967 9.51571 18.928 10.2591 18.4758ZM10.4995 12.0001C10.4995 11.1717 11.1711 10.5001 11.9995 10.5001C12.8279 10.5001 13.4995 11.1717 13.4995 12.0001C13.4995 12.8286 12.8279 13.5001 11.9995 13.5001C11.1711 13.5001 10.4995 12.8286 10.4995 12.0001Z"
        fill="#303233" />
</svg>
