<svg width="16" height="16" viewBox="0 0 16 16" fill="none" xmlns="http://www.w3.org/2000/svg">
    <path
        d="M11.3536 0.646447C11.1583 0.451184 10.8417 0.451184 10.6464 0.646447C10.4512 0.841709 10.4512 1.15829 10.6464 1.35355L12.2929 3L10.6464 4.64645C10.4512 4.84171 10.4512 5.15829 10.6464 5.35355C10.8417 5.54882 11.1583 5.54882 11.3536 5.35355L13 3.70711L14.6464 5.35355C14.8417 5.54882 15.1583 5.54882 15.3536 5.35355C15.5488 5.15829 15.5488 4.84171 15.3536 4.64645L13.7071 3L15.3536 1.35355C15.5488 1.15829 15.5488 0.841709 15.3536 0.646447C15.1583 0.451184 14.8417 0.451184 14.6464 0.646447L13 2.29289L11.3536 0.646447Z"
        fill="#303233" />
    <path fill-rule="evenodd" clip-rule="evenodd"
        d="M1 3.25C1 2.00736 2.00736 1 3.25 1H8C8.27614 1 8.5 1.22386 8.5 1.5C8.5 1.77614 8.27614 2 8 2H3.25C2.55964 2 2 2.55964 2 3.25V12.75C2 13.1699 2.20709 13.5415 2.52471 13.7682L9.43934 6.85355C10.0251 6.26777 10.9749 6.26777 11.5607 6.85355L14.5607 9.85355C14.842 10.1349 15 10.5164 15 10.9142V12.75C15 13.9926 13.9926 15 12.75 15H3.25C2.00736 15 1 13.9926 1 12.75V3.25ZM3.70711 14H12.75C13.4404 14 14 13.4404 14 12.75V10.9142C14 10.7816 13.9473 10.6544 13.8536 10.5607L10.8536 7.56066C10.6583 7.3654 10.3417 7.3654 10.1464 7.56066L3.70711 14Z"
        fill="#303233" />
    <path fill-rule="evenodd" clip-rule="evenodd"
        d="M4 6C4 4.89543 4.89543 4 6 4C7.10457 4 8 4.89543 8 6C8 7.10457 7.10457 8 6 8C4.89543 8 4 7.10457 4 6ZM6 5C5.44772 5 5 5.44772 5 6C5 6.55228 5.44772 7 6 7C6.55228 7 7 6.55228 7 6C7 5.44772 6.55228 5 6 5Z"
        fill="#303233" />
</svg>
