<svg width="24" height="24" viewBox="0 0 24 24" fill="none" xmlns="http://www.w3.org/2000/svg">
    <path
        d="M4 14C4 13.4477 4.44772 13 5 13H13C13.5523 13 14 13.4477 14 14C14 14.5523 13.5523 15 13 15H5C4.44772 15 4 14.5523 4 14Z"
        fill="#303233" />
    <path
        d="M17 13C16.4477 13 16 13.4477 16 14C16 14.5523 16.4477 15 17 15H19C19.5523 15 20 14.5523 20 14C20 13.4477 19.5523 13 19 13H17Z"
        fill="#303233" />
    <path fill-rule="evenodd" clip-rule="evenodd"
        d="M0 6C0 4.34315 1.34315 3 3 3H21C22.6569 3 24 4.34315 24 6V18C24 19.6569 22.6569 21 21 21H3C1.34315 21 0 19.6569 0 18V6ZM2 6C2 5.44772 2.44772 5 3 5H21C21.5523 5 22 5.44772 22 6V9H2V6ZM22 11V18C22 18.5523 21.5523 19 21 19H3C2.44772 19 2 18.5523 2 18V11H22Z"
        fill="#303233" />
</svg>
