<svg width="24" height="24" viewBox="0 0 24 24" fill="none" xmlns="http://www.w3.org/2000/svg">
    <path fill-rule="evenodd" clip-rule="evenodd"
        d="M18.8301 6.25C19.3642 6.24999 19.8106 6.24954 20.1748 6.2793C20.5545 6.31033 20.9109 6.37809 21.248 6.54981C21.7655 6.81346 22.1865 7.23451 22.4502 7.75195C22.6219 8.0891 22.6897 8.44546 22.7207 8.8252C22.7505 9.18943 22.75 9.63578 22.75 10.1699V13.8301C22.75 14.3642 22.7505 14.8106 22.7207 15.1748C22.6897 15.5545 22.6219 15.9109 22.4502 16.248C22.1865 16.7655 21.7655 17.1865 21.248 17.4502C20.9109 17.6219 20.5545 17.6897 20.1748 17.7207C19.8106 17.7505 19.3642 17.75 18.8301 17.75H5.16992C4.63578 17.75 4.18943 17.7505 3.8252 17.7207C3.44546 17.6897 3.0891 17.6219 2.75195 17.4502C2.23451 17.1865 1.81346 16.7655 1.54981 16.248C1.37809 15.9109 1.31033 15.5545 1.2793 15.1748C1.24954 14.8106 1.24999 14.3642 1.25 13.8301V10.1699C1.24999 9.63577 1.24954 9.18943 1.2793 8.8252C1.31033 8.44547 1.37809 8.0891 1.54981 7.75195C1.81346 7.23451 2.23451 6.81346 2.75195 6.54981C3.0891 6.37809 3.44547 6.31033 3.8252 6.2793C4.18943 6.24954 4.63577 6.24999 5.16992 6.25H18.8301ZM7 11C6.44772 11 6 11.4477 6 12C6 12.5523 6.44772 13 7 13C7.55229 13 8 12.5523 8 12C8 11.4477 7.55229 11 7 11ZM12 11C11.4477 11 11 11.4477 11 12C11 12.5523 11.4477 13 12 13C12.5523 13 13 12.5523 13 12C13 11.4477 12.5523 11 12 11ZM17 11C16.4477 11 16 11.4477 16 12C16 12.5523 16.4477 13 17 13C17.5523 13 18 12.5523 18 12C18 11.4477 17.5523 11 17 11Z"
        fill="#303233" />
</svg>
