<svg width="24" height="24" viewBox="0 0 24 24" fill="none" xmlns="http://www.w3.org/2000/svg">
    <path fill-rule="evenodd" clip-rule="evenodd"
        d="M7.21902 9.65299L10.83 3.65899L10.833 3.65399C10.955 3.45399 11.126 3.28899 11.33 3.17399C11.534 3.05999 11.765 2.99899 11.999 2.99899C12.233 2.99899 12.463 3.05999 12.667 3.17399C12.872 3.28899 13.043 3.45399 13.165 3.65399L13.168 3.65899L16.775 9.64999C18.012 9.03299 21.012 7.53699 21.017 7.53499C21.26 7.41199 21.534 7.36399 21.805 7.39799C22.075 7.43199 22.329 7.54599 22.534 7.72499C22.739 7.90399 22.886 8.14199 22.955 8.40499C23.023 8.66199 23.014 8.93399 22.929 9.18599L19.626 19.309C19.532 19.599 19.311 19.829 19.026 19.936C18.741 20.042 18.423 20.014 18.162 19.858C18.162 19.858 15.95 18.57 11.997 18.57C8.04402 18.57 5.83202 19.858 5.83202 19.858C5.57102 20.014 5.25302 20.042 4.96802 19.936C4.68302 19.829 4.46202 19.598 4.36802 19.309C4.36802 19.309 1.08002 9.22099 1.07502 9.20399C0.986022 8.94699 0.976022 8.66899 1.04602 8.40699C1.11602 8.14399 1.26202 7.90799 1.46702 7.72899C1.67202 7.55099 1.92502 7.43699 2.19502 7.40299C2.46402 7.36899 2.73802 7.41599 2.97702 7.53599L7.21902 9.65299ZM3.43802 10.001L5.92202 17.621C7.09202 17.164 9.15702 16.57 11.997 16.57C14.837 16.57 16.903 17.164 18.073 17.621L20.561 9.99699L17.144 11.701L17.141 11.702C16.834 11.854 16.481 11.885 16.152 11.789C15.823 11.693 15.542 11.477 15.365 11.184L15.364 11.182C15.364 11.182 13.071 7.37499 11.999 5.59399L8.63102 11.184C8.45402 11.479 8.17202 11.696 7.84102 11.792C7.51102 11.889 7.15602 11.857 6.84902 11.703L3.43802 10.001Z"
        fill="#303233" />
</svg>
