<svg width="24" height="24" viewBox="0 0 24 24" fill="none" xmlns="http://www.w3.org/2000/svg">
    <path fill-rule="evenodd" clip-rule="evenodd"
        d="M21.75 9C21.75 12.728 18.728 15.75 15 15.75C14.692 15.75 14.39 15.729 14.093 15.69C13.9893 15.6758 13.9025 15.6621 13.8291 15.6504C13.6745 15.6259 13.5792 15.6108 13.51 15.621C13.475 15.626 13.455 15.632 13.424 15.65C13.3687 15.681 13.3188 15.7334 13.2422 15.814C13.2053 15.8528 13.1621 15.8983 13.109 15.951L7.999 21.062C7.763 21.298 7.638 21.408 7.5 21.492C7.344 21.588 7.173 21.659 6.994 21.702C6.837 21.739 6.671 21.75 6.337 21.75H4.6C3.856 21.75 3.49 21.704 3.205 21.559C2.876 21.391 2.609 21.124 2.441 20.794C2.296 20.51 2.25 20.144 2.25 19.4V17.663C2.25 17.329 2.261 17.163 2.298 17.006C2.341 16.827 2.412 16.657 2.508 16.5C2.592 16.362 2.702 16.237 2.938 16.001L8.049 10.891C8.10174 10.8379 8.14716 10.7947 8.18603 10.7578C8.26657 10.6812 8.31897 10.6313 8.35 10.576C8.368 10.544 8.374 10.525 8.379 10.489C8.38916 10.4206 8.3741 10.3256 8.34966 10.1715C8.338 10.098 8.32421 10.011 8.31 9.907C8.271 9.61 8.25 9.308 8.25 9C8.25 5.272 11.272 2.25 15 2.25C18.728 2.25 21.75 5.272 21.75 9ZM15 8.25C14.5858 8.25 14.25 8.58579 14.25 9C14.25 9.41421 14.5858 9.75 15 9.75H15.01C15.4242 9.75 15.76 9.41421 15.76 9C15.76 8.58579 15.4242 8.25 15.01 8.25H15Z"
        fill="#303233" />
</svg>
