<svg width="16" height="16" viewBox="0 0 16 16" fill="none" xmlns="http://www.w3.org/2000/svg">
    <path fill-rule="evenodd" clip-rule="evenodd"
        d="M8.32953 2.75H4.67048C4.13555 2.74999 3.69063 2.74998 3.3275 2.77859C2.94971 2.80836 2.5961 2.87256 2.26129 3.03706C1.74618 3.29015 1.32227 3.69657 1.05487 4.20263C0.879448 4.53462 0.811293 4.88552 0.779928 5.25571C0.749979 5.60917 0.749989 6.04102 0.75 6.55452V9.44546C0.749989 9.95896 0.749979 10.3908 0.779928 10.7443C0.811293 11.1145 0.879448 11.4654 1.05487 11.7974C1.32227 12.3034 1.74618 12.7098 2.26129 12.9629C2.5961 13.1274 2.94971 13.1916 3.3275 13.2214C3.69063 13.25 4.13552 13.25 4.67044 13.25H8.32953C8.86445 13.25 9.30937 13.25 9.6725 13.2214C10.0503 13.1916 10.4039 13.1274 10.7387 12.9629C11.2538 12.7098 11.6777 12.3034 11.9451 11.7974C12.1206 11.4654 12.1887 11.1145 12.2201 10.7443C12.2434 10.4687 12.2486 10.1453 12.2497 9.77282L13.1763 10.6722C13.2888 10.7814 13.4062 10.8954 13.5106 10.9802C13.6032 11.0555 13.8181 11.2239 14.1193 11.2469C14.4453 11.2718 14.7701 11.1446 14.9912 10.8934C15.1972 10.6593 15.2272 10.3796 15.2379 10.2623C15.2501 10.129 15.25 9.9663 15.25 9.81255V6.18744C15.25 6.03369 15.2501 5.87099 15.2379 5.73765C15.2272 5.62038 15.1972 5.3407 14.9912 5.10661C14.7701 4.85537 14.4453 4.72818 14.1193 4.75307C13.8181 4.77609 13.6032 4.94449 13.5106 5.01976C13.4062 5.10456 13.2888 5.21855 13.1763 5.32779L12.2497 6.22717C12.2486 5.85465 12.2434 5.53135 12.2201 5.25571C12.1887 4.88552 12.1206 4.53462 11.9451 4.20263C11.6777 3.69657 11.2538 3.29015 10.7387 3.03706C10.4039 2.87256 10.0503 2.80836 9.6725 2.77859C9.30937 2.74998 8.86445 2.74999 8.32953 2.75ZM10.75 7.9983V6.58572C10.75 6.03284 10.7494 5.66494 10.7254 5.38235C10.7023 5.10936 10.6615 4.98397 10.6189 4.90341C10.5028 4.6837 10.3148 4.50005 10.0773 4.38334C9.98424 4.33764 9.84391 4.29675 9.55469 4.27396C9.25748 4.25054 8.87199 4.25 8.3 4.25H4.7C4.12801 4.25 3.74252 4.25054 3.44531 4.27396C3.15609 4.29675 3.01576 4.33764 2.92275 4.38334C2.68522 4.50005 2.4972 4.6837 2.38111 4.90341C2.33854 4.98396 2.2977 5.10936 2.27457 5.38235C2.25063 5.66494 2.25 6.03284 2.25 6.58572V9.41429C2.25 9.96717 2.25063 10.3351 2.27457 10.6176C2.2977 10.8906 2.33854 11.016 2.38111 11.0966C2.4972 11.3163 2.68522 11.5 2.92275 11.6167C3.01576 11.6624 3.15609 11.7033 3.44531 11.726C3.74252 11.7495 4.12801 11.75 4.7 11.75H8.3C8.87199 11.75 9.25748 11.7495 9.55469 11.726C9.84391 11.7033 9.98424 11.6624 10.0773 11.6167C10.3148 11.5 10.5028 11.3163 10.6189 11.0966C10.6615 11.016 10.7023 10.8906 10.7254 10.6176C10.7494 10.3351 10.75 9.96717 10.75 9.41429V8.00169C10.75 8.00112 10.75 8.00056 10.75 7.99999C10.75 7.99943 10.75 7.99887 10.75 7.9983ZM12.5768 7.99999L13.75 6.86134V9.13865L12.5768 7.99999Z"
        fill="#303233" />
</svg>
