<svg width="24" height="24" viewBox="0 0 24 24" fill="none" xmlns="http://www.w3.org/2000/svg">
    <path fill-rule="evenodd" clip-rule="evenodd"
        d="M11.6172 10.0759C11.4993 10.1247 11.3888 10.197 11.2929 10.2929L8.29289 13.2929C7.90237 13.6834 7.90237 14.3166 8.29289 14.7071C8.68342 15.0976 9.31658 15.0976 9.70711 14.7071L11 13.4142V21C11 21.5523 11.4477 22 12 22C12.5523 22 13 21.5523 13 21V13.4142L14.2929 14.7071C14.6834 15.0976 15.3166 15.0976 15.7071 14.7071C16.0976 14.3166 16.0976 13.6834 15.7071 13.2929L12.7071 10.2929C12.4125 9.99825 11.9797 9.92591 11.6172 10.0759ZM3.51759 8.22365C3.78819 4.18892 7.14669 1 11.25 1C14.1806 1 16.7293 2.62648 18.0462 5.02263C21.3805 5.30003 24 8.0941 24 11.5C24 15.0899 21.0898 18 17.5 18H5C2.23858 18 0 15.7614 0 13C0 10.7544 1.47969 8.85556 3.51759 8.22365Z"
        fill="#303233" />
</svg>
