<svg width="24" height="24" viewBox="0 0 24 24" fill="none" xmlns="http://www.w3.org/2000/svg">
    <path
        d="M17 6C17 5.44772 17.4477 5 18 5H18.01C18.5623 5 19.01 5.44772 19.01 6C19.01 6.55228 18.5623 7 18.01 7H18C17.4477 7 17 6.55228 17 6Z"
        fill="#303233" />
    <path fill-rule="evenodd" clip-rule="evenodd"
        d="M5 1C2.79086 1 1 2.79086 1 5V7C1 9.20914 2.79086 11 5 11H19C21.2091 11 23 9.20914 23 7V5C23 2.79086 21.2091 1 19 1H5ZM3 5C3 3.89543 3.89543 3 5 3H19C20.1046 3 21 3.89543 21 5V7C21 8.10457 20.1046 9 19 9H5C3.89543 9 3 8.10457 3 7V5Z"
        fill="#303233" />
    <path
        d="M18 17C17.4477 17 17 17.4477 17 18C17 18.5523 17.4477 19 18 19H18.01C18.5623 19 19.01 18.5523 19.01 18C19.01 17.4477 18.5623 17 18.01 17H18Z"
        fill="#303233" />
    <path fill-rule="evenodd" clip-rule="evenodd"
        d="M5 13C2.79086 13 1 14.7909 1 17V19C1 21.2091 2.79086 23 5 23H19C21.2091 23 23 21.2091 23 19V17C23 14.7909 21.2091 13 19 13H5ZM3 17C3 15.8954 3.89543 15 5 15H19C20.1046 15 21 15.8954 21 17V19C21 20.1046 20.1046 21 19 21H5C3.89543 21 3 20.1046 3 19V17Z"
        fill="#303233" />
</svg>
