<svg width="24" height="24" viewBox="0 0 24 24" fill="none" xmlns="http://www.w3.org/2000/svg">
    <path
        d="M10.6401 2.35444C12.7333 2.05993 14.8656 2.45369 16.7156 3.47639C18.5656 4.49909 20.0331 6.09533 20.897 8.02459C21.7609 9.95385 21.9745 12.1116 21.5054 14.1728C21.0364 16.234 19.9101 18.0869 18.2965 19.4523C16.6828 20.8178 14.6691 21.6218 12.5587 21.7432C10.4483 21.8647 8.35564 21.297 6.59596 20.1257C4.83628 18.9544 3.50492 17.243 2.8025 15.2492C2.66486 14.8586 2.86998 14.4303 3.26066 14.2926C3.65133 14.155 4.07962 14.3601 4.21726 14.7508C4.81162 16.4378 5.93815 17.886 7.42711 18.8771C8.91607 19.8681 10.6868 20.3485 12.4725 20.2457C14.2582 20.1429 15.9621 19.4626 17.3275 18.3072C18.693 17.1519 19.6459 15.584 20.0428 13.84C20.4397 12.0959 20.259 10.2701 19.528 8.63763C18.797 7.00518 17.5552 5.65452 15.9899 4.78916C14.4245 3.9238 12.6203 3.59061 10.849 3.83981C9.07784 4.08901 7.4356 4.90709 6.16976 6.17079C6.16441 6.17613 6.15897 6.1814 6.15346 6.18658L2.8933 9.25H7C7.41421 9.25 7.75 9.58579 7.75 10C7.75 10.4142 7.41421 10.75 7 10.75H1C0.784552 10.75 0.590321 10.6592 0.453525 10.5137C0.32749 10.3795 0.25 10.1986 0.25 10V4C0.25 3.58579 0.585786 3.25 1 3.25C1.41421 3.25 1.75 3.58579 1.75 4V8.266L5.11819 5.10107C6.61307 3.61225 8.55064 2.64841 10.6401 2.35444Z"
        fill="#303233" />
    <path
        d="M12 6.25C12.4142 6.25 12.75 6.58579 12.75 7V11.5365L15.3354 12.8292C15.7059 13.0144 15.8561 13.4649 15.6708 13.8354C15.4856 14.2059 15.0351 14.3561 14.6646 14.1708L11.6646 12.6708C11.4105 12.5438 11.25 12.2841 11.25 12V7C11.25 6.58579 11.5858 6.25 12 6.25Z"
        fill="#303233" />
</svg>
