<svg width="24" height="24" viewBox="0 0 24 24" fill="none" xmlns="http://www.w3.org/2000/svg">
    <path fill-rule="evenodd" clip-rule="evenodd"
        d="M12 1.89725C11.4844 1.89725 10.9775 2.03014 10.5282 2.28309C10.0789 2.53604 9.70243 2.90052 9.43502 3.34136L0.962153 17.4861L0.95403 17.4999C0.692083 17.9536 0.55348 18.4679 0.552014 18.9917C0.550547 19.5155 0.686267 20.0306 0.94567 20.4857C1.20507 20.9408 1.57912 21.3201 2.03059 21.5857C2.48206 21.8514 2.99522 21.9942 3.51903 22L20.47 22.0001L20.481 21.9999C21.0048 21.9942 21.518 21.8514 21.9694 21.5857C22.4209 21.3201 22.795 20.9408 23.0544 20.4857C23.3138 20.0306 23.4495 19.5155 23.448 18.9917C23.4466 18.4679 23.308 17.9536 23.046 17.4999L23.0379 17.4861L14.5679 3.34611L14.565 3.34136C14.2976 2.90052 13.9211 2.53604 13.4718 2.28309C13.0225 2.03014 12.5156 1.89725 12 1.89725ZM12 8C12.5523 8 13 8.44772 13 9V13C13 13.5523 12.5523 14 12 14C11.4477 14 11 13.5523 11 13V9C11 8.44772 11.4477 8 12 8ZM11 17C11 16.4477 11.4477 16 12 16H12.01C12.5623 16 13.01 16.4477 13.01 17C13.01 17.5523 12.5623 18 12.01 18H12C11.4477 18 11 17.5523 11 17Z"
        fill="#303233" />
</svg>
