<svg width="16" height="16" viewBox="0 0 16 16" fill="none" xmlns="http://www.w3.org/2000/svg">
    <path
        d="M3 3.5C2.72386 3.5 2.5 3.72386 2.5 4C2.5 4.27614 2.72386 4.5 3 4.5H9C9.27614 4.5 9.5 4.27614 9.5 4C9.5 3.72386 9.27614 3.5 9 3.5H3Z"
        fill="#303233" />
    <path
        d="M2.5 8C2.5 7.72386 2.72386 7.5 3 7.5H13C13.2761 7.5 13.5 7.72386 13.5 8C13.5 8.27614 13.2761 8.5 13 8.5H3C2.72386 8.5 2.5 8.27614 2.5 8Z"
        fill="#303233" />
    <path
        d="M2.5 12C2.5 11.7239 2.72386 11.5 3 11.5H9C9.27614 11.5 9.5 11.7239 9.5 12C9.5 12.2761 9.27614 12.5 9 12.5H3C2.72386 12.5 2.5 12.2761 2.5 12Z"
        fill="#303233" />
</svg>
