<svg width="24" height="24" viewBox="0 0 24 24" fill="none" xmlns="http://www.w3.org/2000/svg">
    <path fill-rule="evenodd" clip-rule="evenodd"
        d="M1 4C1 2.34315 2.34315 1 4 1H10.1716C10.702 1 11.2107 1.21071 11.5858 1.58579L12.4142 2.41421C12.7893 2.78929 13.298 3 13.8284 3H20C21.6569 3 23 4.34315 23 6V18C23 19.6569 21.6569 21 20 21H4C2.34315 21 1 19.6569 1 18V4ZM11.6172 12.0759C11.4993 12.1247 11.3888 12.197 11.2929 12.2929L8.29289 15.2929C7.90237 15.6834 7.90237 16.3166 8.29289 16.7071C8.68342 17.0976 9.31658 17.0976 9.70711 16.7071L11 15.4142V23C11 23.5523 11.4477 24 12 24C12.5523 24 13 23.5523 13 23V15.4142L14.2929 16.7071C14.6834 17.0976 15.3166 17.0976 15.7071 16.7071C16.0976 16.3166 16.0976 15.6834 15.7071 15.2929L12.7071 12.2929C12.4125 11.9982 11.9797 11.9259 11.6172 12.0759Z"
        fill="#303233" />
</svg>
