<svg width="16" height="16" viewBox="0 0 16 16" fill="none" xmlns="http://www.w3.org/2000/svg">
    <g clip-path="url(#clip0_53_8840)">
        <path fill-rule="evenodd" clip-rule="evenodd"
            d="M3.18324 1.36924C4.44887 0.979633 6.15169 0.75 8 0.75C9.84831 0.75 11.5511 0.979633 12.8168 1.36924C13.445 1.56263 14.008 1.80821 14.4304 2.11564C14.8364 2.41112 15.25 2.8699 15.25 3.50126V6.49874C15.25 7.12802 14.8409 7.58701 14.435 7.88409C14.38 7.92432 14.3226 7.96349 14.263 8.00162C14.321 8.03865 14.3768 8.07664 14.4304 8.11564C14.8364 8.41112 15.25 8.86989 15.25 9.50126V12.4987C15.25 13.128 14.8409 13.587 14.435 13.8841C14.0138 14.1923 13.4523 14.4381 12.825 14.6315C11.5615 15.021 9.85838 15.25 8 15.25C6.14162 15.25 4.43852 15.021 3.17496 14.6315C2.54774 14.4381 1.98618 14.1923 1.56503 13.8841C1.15906 13.587 0.75 13.128 0.75 12.4987V9.50126C0.75 8.86989 1.16361 8.41112 1.5696 8.11564C1.62318 8.07665 1.67902 8.03864 1.73697 8.00162C1.67737 7.96349 1.62 7.92432 1.56503 7.88409C1.15906 7.58701 0.75 7.12802 0.75 6.49874V3.50126C0.75 2.8699 1.16361 2.41112 1.5696 2.11564C1.99201 1.80821 2.55501 1.56263 3.18324 1.36924ZM3.70535 8.77911C3.67808 8.78719 3.65109 8.79534 3.62437 8.80356C3.07633 8.97227 2.68743 9.15785 2.45201 9.32919C2.34127 9.40979 2.28886 9.46802 2.26489 9.50126C2.28886 9.53451 2.34127 9.59274 2.45201 9.67334C2.68743 9.84468 3.07633 10.0303 3.62437 10.199C4.71128 10.5336 6.25846 10.7518 8 10.7518C9.74154 10.7518 11.2887 10.5336 12.3756 10.199C12.9237 10.0303 13.3126 9.84468 13.548 9.67334C13.6587 9.59274 13.7111 9.53451 13.7351 9.50126C13.7111 9.46802 13.6587 9.40979 13.548 9.32919C13.3126 9.15785 12.9237 8.97227 12.3756 8.80356C12.3489 8.79534 12.3219 8.78719 12.2946 8.77911C11.1027 9.07822 9.6096 9.25 8 9.25C6.3904 9.25 4.89728 9.07822 3.70535 8.77911ZM2.26489 3.50126C2.28886 3.46802 2.34127 3.40979 2.45201 3.32919C2.68743 3.15785 3.07633 2.97227 3.62437 2.80356C4.71128 2.46898 6.25846 2.25069 8 2.25069C9.74154 2.25069 11.2887 2.46898 12.3756 2.80356C12.9237 2.97227 13.3126 3.15785 13.548 3.32919C13.6587 3.40979 13.7111 3.46802 13.7351 3.50126C13.7111 3.53451 13.6587 3.59274 13.548 3.67334C13.3126 3.84468 12.9237 4.03026 12.3756 4.19896C11.2887 4.53355 9.74154 4.75184 8 4.75184C6.25846 4.75184 4.71128 4.53355 3.62437 4.19896C3.07633 4.03026 2.68743 3.84468 2.45201 3.67334C2.34127 3.59274 2.28886 3.53451 2.26489 3.50126Z"
            fill="#303233" />
    </g>
    <defs>
        <clipPath id="clip0_53_8840">
            <rect width="16" height="16" fill="white" />
        </clipPath>
    </defs>
</svg>
