<svg width="16" height="16" viewBox="0 0 16 16" fill="none" xmlns="http://www.w3.org/2000/svg">
    <path fill-rule="evenodd" clip-rule="evenodd"
        d="M4.66957 1.75H11.3304C11.8646 1.74999 12.3104 1.74998 12.6747 1.77974C13.0546 1.81078 13.4112 1.87789 13.7485 2.04973C14.2659 2.31339 14.6866 2.73408 14.9503 3.25153C15.1221 3.58879 15.1892 3.94545 15.2203 4.32533C15.25 4.68955 15.25 5.13542 15.25 5.66955V10.3305C15.25 10.8646 15.25 11.3105 15.2203 11.6747C15.1892 12.0546 15.1221 12.4112 14.9503 12.7485C14.6866 13.2659 14.2659 13.6866 13.7485 13.9503C13.4112 14.1221 13.0546 14.1892 12.6747 14.2203C12.3105 14.25 11.8646 14.25 11.3305 14.25H4.66951C4.13538 14.25 3.68955 14.25 3.32533 14.2203C2.94545 14.1892 2.58879 14.1221 2.25153 13.9503C1.73408 13.6866 1.31339 13.2659 1.04973 12.7485C0.87789 12.4112 0.810779 12.0546 0.779741 11.6747C0.749982 11.3104 0.74999 10.8646 0.75 10.3305V5.66955C0.74999 5.13541 0.749982 4.68956 0.779741 4.32533C0.810779 3.94545 0.87789 3.58879 1.04973 3.25153C1.31339 2.73408 1.73408 2.31339 2.25153 2.04973C2.58879 1.87789 2.94545 1.81078 3.32533 1.77974C3.68956 1.74998 4.13543 1.74999 4.66957 1.75ZM10.25 8.5C10.25 8.08579 10.5858 7.75 11 7.75H12C12.4142 7.75 12.75 8.08579 12.75 8.5C12.75 8.91421 12.4142 9.25 12 9.25H11C10.5858 9.25 10.25 8.91421 10.25 8.5ZM3.25 11C3.25 10.5858 3.58579 10.25 4 10.25H5C5.41421 10.25 5.75 10.5858 5.75 11C5.75 11.4142 5.41421 11.75 5 11.75H4C3.58579 11.75 3.25 11.4142 3.25 11ZM7.5 10.25C7.08579 10.25 6.75 10.5858 6.75 11C6.75 11.4142 7.08579 11.75 7.5 11.75H12C12.4142 11.75 12.75 11.4142 12.75 11C12.75 10.5858 12.4142 10.25 12 10.25H7.5ZM3.25 8.5C3.25 8.08579 3.58579 7.75 4 7.75H8.5C8.91421 7.75 9.25 8.08579 9.25 8.5C9.25 8.91421 8.91421 9.25 8.5 9.25H4C3.58579 9.25 3.25 8.91421 3.25 8.5Z"
        fill="#303233" />
</svg>
