<svg width="24" height="24" viewBox="0 0 24 24" fill="none" xmlns="http://www.w3.org/2000/svg">
    <path fill-rule="evenodd" clip-rule="evenodd"
        d="M6.7679 4.25H12.2321C13.0449 4.24999 13.7006 4.24999 14.2315 4.29336C14.7781 4.33803 15.2582 4.43239 15.7025 4.65873C16.4081 5.01825 16.9817 5.59193 17.3413 6.29754C17.5676 6.74175 17.662 7.2219 17.7066 7.76853C17.75 8.29944 17.75 8.95505 17.75 9.76788V10.1893L20.1258 7.81354C20.3211 7.61817 20.5018 7.43743 20.6578 7.30688C20.8005 7.18739 21.0575 6.98807 21.4019 6.96096C21.8008 6.92957 22.1906 7.09103 22.4505 7.3953C22.6749 7.65804 22.7157 7.98068 22.7321 8.16609C22.75 8.36866 22.75 8.62426 22.75 8.90054V15.0995C22.75 15.3757 22.75 15.6313 22.7321 15.8339C22.7157 16.0193 22.6749 16.342 22.4505 16.6047C22.1906 16.909 21.8008 17.0704 21.4019 17.039C21.0575 17.0119 20.8005 16.8126 20.6578 16.6931C20.5019 16.5626 20.3212 16.3818 20.1258 16.1865L17.75 13.8107V14.2321C17.75 15.045 17.75 15.7006 17.7066 16.2315C17.662 16.7781 17.5676 17.2582 17.3413 17.7025C16.9817 18.4081 16.4081 18.9817 15.7025 19.3413C15.2582 19.5676 14.7781 19.662 14.2315 19.7066C13.7006 19.75 13.045 19.75 12.2321 19.75H6.76788C5.95505 19.75 5.29944 19.75 4.76853 19.7066C4.2219 19.662 3.74175 19.5676 3.29754 19.3413C2.59193 18.9817 2.01825 18.4081 1.65873 17.7025C1.43239 17.2582 1.33803 16.7781 1.29336 16.2315C1.24999 15.7006 1.24999 15.0449 1.25 14.2321V9.7679C1.24999 8.95506 1.24999 8.29944 1.29336 7.76853C1.33803 7.2219 1.43239 6.74175 1.65873 6.29754C2.01825 5.59193 2.59193 5.01825 3.29754 4.65873C3.74175 4.43239 4.2219 4.33803 4.76853 4.29336C5.29944 4.24999 5.95506 4.24999 6.7679 4.25Z"
        fill="#303233" />
</svg>
