<svg width="24" height="24" viewBox="0 0 24 24" fill="none" xmlns="http://www.w3.org/2000/svg">
    <path
        d="M1.75 12C1.75 6.89137 5.89137 2.75 11 2.75C16.1086 2.75 20.25 6.89137 20.25 12C20.25 12.4142 20.5858 12.75 21 12.75C21.4142 12.75 21.75 12.4142 21.75 12C21.75 6.06294 16.9371 1.25 11 1.25C5.06294 1.25 0.25 6.06294 0.25 12C0.25 17.9371 5.06294 22.75 11 22.75C11.7354 22.75 12.4542 22.676 13.1492 22.5349C13.5552 22.4525 13.8174 22.0566 13.735 21.6507C13.6526 21.2447 13.2567 20.9825 12.8508 21.0649C12.2534 21.1862 11.6345 21.25 11 21.25C5.89137 21.25 1.75 17.1086 1.75 12Z"
        fill="#303233" />
    <path
        d="M11 5.25C11.4142 5.25 11.75 5.58579 11.75 6V11.5365L15.3354 13.3292C15.7059 13.5144 15.8561 13.9649 15.6708 14.3354C15.4856 14.7059 15.0351 14.8561 14.6646 14.6708L10.6646 12.6708C10.4105 12.5438 10.25 12.2841 10.25 12V6C10.25 5.58579 10.5858 5.25 11 5.25Z"
        fill="#303233" />
    <path
        d="M20 15C18.8954 15 18 15.8954 18 17C18 18.1046 18.8954 19 20 19C21.1045 19 22 18.1046 22 17C22 15.8954 21.1045 15 20 15Z"
        fill="#303233" />
    <path
        d="M20 20C21.9542 20 23.5811 21.4014 23.9305 23.2541C24.0073 23.6611 23.6642 24 23.25 24H16.75C16.3358 24 15.9926 23.6611 16.0694 23.2541C16.4188 21.4014 18.0458 20 20 20Z"
        fill="#303233" />
</svg>
