<svg width="24" height="24" viewBox="0 0 24 24" fill="none" xmlns="http://www.w3.org/2000/svg">
    <path
        d="M16.8357 6.16839C15.3417 4.67342 13.2794 3.75 11 3.75C6.44365 3.75 2.75 7.44365 2.75 12C2.75 15.9253 5.4921 19.2119 9.16597 20.0456C9.56991 20.1372 9.82307 20.539 9.73141 20.9429C9.63975 21.3469 9.23798 21.6 8.83403 21.5084C4.49195 20.5231 1.25 16.6411 1.25 12C1.25 6.61522 5.61522 2.25 11 2.25C13.6934 2.25 16.1329 3.34311 17.8967 5.1081C18.691 5.90295 19.5598 6.93745 20.25 7.79946V4C20.25 3.58579 20.5858 3.25 21 3.25C21.4142 3.25 21.75 3.58579 21.75 4V10C21.75 10.4142 21.4142 10.75 21 10.75H15C14.5858 10.75 14.25 10.4142 14.25 10C14.25 9.58579 14.5858 9.25 15 9.25H19.4852C19.3968 9.1371 19.3038 9.01903 19.2068 8.89706C18.5062 8.01572 17.6191 6.95235 16.8357 6.16839Z"
        fill="#303233" />
    <path
        d="M17.788 15.0534H21.4542V13.959H16.6389V18.5664H17.8208C17.9303 18.26 18.1054 18.0192 18.3461 17.8441C18.5942 17.6617 18.897 17.5705 19.2545 17.5705C19.7652 17.5705 20.1519 17.7128 20.4145 17.9973C20.6772 18.2745 20.8085 18.6758 20.8085 19.2011C20.8085 19.7191 20.6772 20.135 20.4145 20.4487C20.1592 20.7625 19.7725 20.9193 19.2545 20.9193C18.8386 20.9193 18.4921 20.8208 18.2148 20.6238C17.9376 20.4196 17.7588 20.146 17.6786 19.803H16.4638C16.5586 20.4524 16.8468 20.974 17.3284 21.368C17.8099 21.762 18.4483 21.959 19.2435 21.959C19.8418 21.959 20.3452 21.8386 20.7538 21.5979C21.1697 21.3571 21.4797 21.0288 21.684 20.6129C21.8956 20.1897 22.0014 19.7082 22.0014 19.1683C22.0014 18.7232 21.9175 18.3001 21.7497 17.8988C21.5892 17.4975 21.3156 17.1656 20.9289 16.9029C20.5495 16.6403 20.0534 16.5089 19.4405 16.5089C19.0976 16.5089 18.7729 16.5782 18.4665 16.7169C18.1674 16.8555 17.9412 17.0269 17.788 17.2312V15.0534Z"
        fill="#303233" />
    <path d="M12.3203 13.9809V15.1191H13.3381V21.959H14.5966V13.9809H12.3203Z" fill="#303233" />
</svg>
