<svg width="16" height="16" viewBox="0 0 16 16" fill="none" xmlns="http://www.w3.org/2000/svg">
    <path fill-rule="evenodd" clip-rule="evenodd"
        d="M5.5 0.5C5.77614 0.5 6 0.723858 6 1V2H10V1C10 0.723858 10.2239 0.5 10.5 0.5C10.7761 0.5 11 0.723858 11 1V2H13.0556C14.091 2 15 2.78388 15 3.83333V13.1667C15 14.2161 14.091 15 13.0556 15H2.94444C1.90899 15 1 14.2161 1 13.1667V3.83333C1 2.78388 1.90899 2 2.94444 2H5V1C5 0.723858 5.22386 0.5 5.5 0.5ZM10 3V4C10 4.27614 10.2239 4.5 10.5 4.5C10.7761 4.5 11 4.27614 11 4V3H13.0556C13.6156 3 14 3.41002 14 3.83333V5.16667C14 5.58998 13.6156 6 13.0556 6H2.94444C2.38441 6 2 5.58998 2 5.16667V3.83333C2 3.41002 2.38441 3 2.94444 3H5V4C5 4.27614 5.22386 4.5 5.5 4.5C5.77614 4.5 6 4.27614 6 4V3H10Z"
        fill="#303233" />
</svg>
