<svg width="16" height="16" viewBox="0 0 16 16" fill="none" xmlns="http://www.w3.org/2000/svg">
    <path fill-rule="evenodd" clip-rule="evenodd"
        d="M8 1C7.86739 1 7.74021 1.05268 7.64645 1.14645C7.55268 1.24021 7.5 1.36739 7.5 1.5V8.00151C7.5 8.27766 7.72386 8.50151 8 8.50151H14.4999C14.7761 8.50151 14.9999 8.27766 14.9999 8.00151C14.9999 7.08208 14.8189 6.17164 14.4671 5.32219C14.1153 4.47274 13.5997 3.70089 12.9497 3.05074C12.2997 2.40058 11.5281 1.88484 10.6788 1.53298C9.82952 1.18111 8.91926 1 8 1ZM8.5 7.50151V2.02087C9.11659 2.07245 9.72253 2.21921 10.296 2.45682C11.024 2.75842 11.6854 3.20047 12.2425 3.75776C12.7997 4.31505 13.2417 4.97665 13.5432 5.70479C13.7808 6.27851 13.9275 6.88468 13.9791 7.50151H8.5Z"
        fill="#303233" />
    <path
        d="M5.60024 2.49788C5.85332 2.38741 5.96893 2.09269 5.85846 1.83961C5.74799 1.58653 5.45328 1.47091 5.20019 1.58138C4.15221 2.03882 3.23223 2.74606 2.52066 3.64128C1.80909 4.53649 1.32761 5.59242 1.1183 6.71674C0.90898 7.84106 0.978202 8.99955 1.31991 10.0909C1.66162 11.1823 2.26542 12.1734 3.07853 12.9774C3.89164 13.7815 4.8893 14.3741 5.9843 14.7034C7.07929 15.0328 8.23828 15.0888 9.35992 14.8666C10.4816 14.6444 11.5317 14.1507 12.4185 13.4288C13.3053 12.7069 14.0018 11.7787 14.4471 10.7253C14.5547 10.471 14.4357 10.1776 14.1813 10.0701C13.927 9.96255 13.6336 10.0816 13.5261 10.3359C13.1444 11.2388 12.5473 12.0345 11.7872 12.6533C11.0271 13.2721 10.127 13.6952 9.16559 13.8856C8.20422 14.0761 7.21084 14.0281 6.27231 13.7458C5.33377 13.4636 4.47863 12.9556 3.78167 12.2664C3.08471 11.5772 2.56714 10.7277 2.27423 9.79214C1.98132 8.85661 1.92198 7.86354 2.1014 6.89977C2.28083 5.93599 2.69356 5.03086 3.30349 4.26351C3.91342 3.49616 4.70199 2.88996 5.60024 2.49788Z"
        fill="#303233" />
</svg>
