<svg width="16" height="16" viewBox="0 0 16 16" fill="none" xmlns="http://www.w3.org/2000/svg">
    <path fill-rule="evenodd" clip-rule="evenodd"
        d="M1 3.00001C0.999992 1.89544 1.89543 1 3 1H6.79318C7.24589 1 7.68006 1.17986 8.00015 1.5C8.32024 1.82014 8.75441 2 9.20712 2H13.0001C14.1046 2 15.0001 2.89543 15.0001 4V11C15.0001 12.1046 14.1046 13 13.0001 13H3.00006C1.89549 13 1.00006 12.1046 1.00006 11L1 3.00001ZM8 8C8.12796 8 8.25592 8.04882 8.35355 8.14645L10.3536 10.1464C10.5488 10.3417 10.5488 10.6583 10.3536 10.8536C10.1583 11.0488 9.84171 11.0488 9.64645 10.8536L8.5 9.70711V15C8.5 15.2761 8.27614 15.5 8 15.5C7.72386 15.5 7.5 15.2761 7.5 15V9.70711L6.35355 10.8536C6.15829 11.0488 5.84171 11.0488 5.64645 10.8536C5.45118 10.6583 5.45118 10.3417 5.64645 10.1464L7.64645 8.14645C7.74408 8.04882 7.87204 8 8 8Z"
        fill="#303233" />
</svg>
