<svg width="16" height="16" viewBox="0 0 16 16" fill="none" xmlns="http://www.w3.org/2000/svg">
    <path fill-rule="evenodd" clip-rule="evenodd"
        d="M15.25 4.01005V12.125C15.25 13.2553 14.3683 14.25 13.2 14.25H2.8C1.63171 14.25 0.75 13.2553 0.75 12.125V3.875C0.75 2.74473 1.63171 1.75 2.8 1.75H13.2C14.3683 1.75 15.25 2.74473 15.25 3.875V3.98887C15.2501 3.99593 15.2501 4.00299 15.25 4.01005ZM2.28412 3.65692C2.36796 3.40284 2.59235 3.25 2.8 3.25H13.2C13.4077 3.25 13.6321 3.40286 13.7159 3.65696L8.00004 8.05377L2.28412 3.65692ZM2.25 5.52312L7.54275 9.59447C7.81234 9.80184 8.18773 9.80184 8.45732 9.59447L13.75 5.52318V12.125C13.75 12.5072 13.4617 12.75 13.2 12.75H2.8C2.53829 12.75 2.25 12.5072 2.25 12.125V5.52312Z"
        fill="#303233" />
</svg>
