<svg width="24" height="24" viewBox="0 0 24 24" fill="none" xmlns="http://www.w3.org/2000/svg">
    <path fill-rule="evenodd" clip-rule="evenodd"
        d="M12.2347 3.05414C14.6402 0.648621 18.5403 0.64862 20.9459 3.05414C23.3514 5.45965 23.3514 9.35977 20.9459 11.7653L19.4158 13.2954C19.1229 13.5883 18.648 13.5883 18.3551 13.2954C18.0622 13.0025 18.0622 12.5276 18.3551 12.2347L19.8852 10.7046C21.7049 8.88489 21.7049 5.93453 19.8852 4.1148C18.0655 2.29507 15.1151 2.29507 13.2954 4.1148L11.7653 5.64489C11.4724 5.93779 10.9975 5.93779 10.7046 5.64489C10.4117 5.352 10.4117 4.87713 10.7046 4.58423L12.2347 3.05414ZM16.3171 7.68285C16.61 7.97574 16.61 8.45062 16.3171 8.74351L8.74353 16.3171C8.45064 16.61 7.97577 16.61 7.68287 16.3171C7.38998 16.0242 7.38998 15.5493 7.68287 15.2564L15.2565 7.68285C15.5494 7.38996 16.0242 7.38996 16.3171 7.68285ZM5.64489 10.7046C5.93779 10.9975 5.93779 11.4724 5.64489 11.7653L4.1148 13.2954C2.29507 15.1151 2.29507 18.0655 4.1148 19.8852C5.93453 21.7049 8.88489 21.7049 10.7046 19.8852L12.2347 18.3551C12.5276 18.0622 13.0025 18.0622 13.2954 18.3551C13.5883 18.648 13.5883 19.1229 13.2954 19.4158L11.7653 20.9459C9.35977 23.3514 5.45965 23.3514 3.05414 20.9459C0.64862 18.5403 0.648621 14.6402 3.05414 12.2347L4.58423 10.7046C4.87713 10.4117 5.352 10.4117 5.64489 10.7046Z"
        fill="#303233" />
</svg>
