<svg width="24" height="24" viewBox="0 0 24 24" fill="none" xmlns="http://www.w3.org/2000/svg">
    <path fill-rule="evenodd" clip-rule="evenodd"
        d="M5.63604 1.22183C6.02656 1.61235 6.02656 2.24551 5.63604 2.63604C2.12132 6.15076 2.12132 11.8492 5.63604 15.364C9.15076 18.8787 14.8492 18.8787 18.364 15.364C18.7545 14.9734 19.3876 14.9734 19.7782 15.364C20.1687 15.7545 20.1687 16.3877 19.7782 16.7782C17.8849 18.6715 15.4732 19.7303 13 19.9547V21H15C15.5523 21 16 21.4477 16 22C16 22.5523 15.5523 23 15 23H9C8.44772 23 8 22.5523 8 22C8 21.4477 8.44772 21 9 21H11V19.9547C8.52682 19.7303 6.1151 18.6715 4.22183 16.7782C-0.0739417 12.4824 -0.0739417 5.51759 4.22183 1.22183C4.61235 0.831301 5.24551 0.831301 5.63604 1.22183ZM12 3C8.68629 3 6 5.68629 6 9C6 12.3137 8.68629 15 12 15C15.3137 15 18 12.3137 18 9C18 5.68629 15.3137 3 12 3ZM4 9C4 4.58172 7.58172 1 12 1C16.4183 1 20 4.58172 20 9C20 13.4183 16.4183 17 12 17C7.58172 17 4 13.4183 4 9Z"
        fill="#303233" />
</svg>
