<svg width="24" height="24" viewBox="0 0 24 24" fill="none" xmlns="http://www.w3.org/2000/svg">
    <path fill-rule="evenodd" clip-rule="evenodd"
        d="M9.00004 1.25C9.25081 1.25 9.48498 1.37533 9.62408 1.58397L10.792 3.3359C11.0218 3.68055 11.4874 3.77368 11.8321 3.54391L13.584 2.37596C13.8418 2.20409 14.1788 2.20845 14.4321 2.38694C14.6854 2.56543 14.8028 2.8813 14.7276 3.1819L13.7276 7.1819C13.7192 7.21572 13.7085 7.24851 13.6958 7.28014C13.7315 7.51489 13.75 7.75528 13.75 8C13.75 10.6234 11.6234 12.75 9 12.75C6.37665 12.75 4.25 10.6234 4.25 8C4.25 7.75523 4.26851 7.51479 4.30422 7.27999C4.29153 7.2484 4.28087 7.21566 4.27243 7.1819L3.27243 3.1819C3.19728 2.8813 3.31473 2.56543 3.568 2.38694C3.82128 2.20845 4.15825 2.20409 4.41607 2.37596L6.16799 3.54391C6.51264 3.77368 6.97829 3.68055 7.20805 3.3359L8.376 1.58397C8.5151 1.37533 8.74928 1.25 9.00004 1.25ZM12.2405 7.75H5.75947C5.7532 7.83251 5.75 7.91588 5.75 8C5.75 9.79493 7.20507 11.25 9 11.25C10.7949 11.25 12.25 9.79493 12.25 8C12.25 7.91588 12.2468 7.83251 12.2405 7.75Z"
        fill="#303233" />
    <path
        d="M1.97846 21.1869C2.78333 18.0598 5.62292 15.75 9.0001 15.75C12.3773 15.75 15.2169 18.0598 16.0217 21.1869C16.125 21.5881 16.5339 21.8296 16.935 21.7263C17.3361 21.6231 17.5776 21.2142 17.4744 20.8131C16.5031 17.0393 13.0783 14.25 9.0001 14.25C4.92192 14.25 1.49711 17.0393 0.525807 20.8131C0.42256 21.2142 0.664051 21.6231 1.06519 21.7263C1.46633 21.8296 1.87522 21.5881 1.97846 21.1869Z"
        fill="#303233" />
    <path
        d="M17 11.25C16.5858 11.25 16.25 11.5858 16.25 12C16.25 12.4142 16.5858 12.75 17 12.75H23C23.4142 12.75 23.75 12.4142 23.75 12C23.75 11.5858 23.4142 11.25 23 11.25H17Z"
        fill="#303233" />
</svg>
