<svg width="24" height="24" viewBox="0 0 24 24" fill="none" xmlns="http://www.w3.org/2000/svg">
    <path fill-rule="evenodd" clip-rule="evenodd"
        d="M9.25 12C9.25 10.4812 10.4812 9.25 12 9.25C13.5188 9.25 14.75 10.4812 14.75 12C14.75 13.5188 13.5188 14.75 12 14.75C10.4812 14.75 9.25 13.5188 9.25 12ZM12 10.75C11.3096 10.75 10.75 11.3096 10.75 12C10.75 12.6904 11.3096 13.25 12 13.25C12.6904 13.25 13.25 12.6904 13.25 12C13.25 11.3096 12.6904 10.75 12 10.75Z"
        fill="#303233" />
    <path fill-rule="evenodd" clip-rule="evenodd"
        d="M17.75 5.2504V5C17.75 2.92893 16.0711 1.25 14 1.25H5C2.92893 1.25 1.25 2.92893 1.25 5V14C1.25 16.0711 2.92893 17.75 5 17.75H5.2504C5.25188 18.3289 5.2589 18.8162 5.29196 19.2276C5.33516 19.7652 5.42642 20.2378 5.64546 20.6762C6.00843 21.4026 6.5974 21.9916 7.32383 22.3545C7.76219 22.5736 8.23478 22.6648 8.77244 22.708C9.2947 22.75 9.93928 22.75 10.7384 22.75H17.2616C18.0607 22.75 18.7053 22.75 19.2276 22.708C19.7652 22.6648 20.2378 22.5736 20.6762 22.3545C21.4026 21.9916 21.9916 21.4026 22.3545 20.6762C22.5736 20.2378 22.6648 19.7652 22.708 19.2276C22.75 18.7053 22.75 18.0607 22.75 17.2616V17.0131C22.7501 17.0096 22.7501 17.0061 22.7501 17.0026C22.7501 16.9974 22.7501 16.9921 22.75 16.9869V10.7384C22.75 9.93928 22.75 9.2947 22.708 8.77244C22.6648 8.23478 22.5736 7.76219 22.3545 7.32383C21.9916 6.5974 21.4026 6.00843 20.6762 5.64546C20.2378 5.42642 19.7652 5.33516 19.2276 5.29196C18.8162 5.2589 18.3289 5.25188 17.75 5.2504ZM2.75 14C2.75 15.2426 3.75736 16.25 5 16.25H5.25V10.7384C5.24999 9.93929 5.24999 9.2947 5.29196 8.77244C5.33516 8.23478 5.42642 7.76219 5.64546 7.32383C6.00843 6.5974 6.5974 6.00843 7.32383 5.64546C7.76219 5.42642 8.23478 5.33516 8.77244 5.29196C9.2947 5.24999 9.93928 5.24999 10.7384 5.25H16.25V5C16.25 3.75736 15.2426 2.75 14 2.75H5C3.75736 2.75 2.75 3.75736 2.75 5V14ZM10.77 6.75C9.93191 6.75 9.34769 6.75056 8.89259 6.78714C8.44603 6.82302 8.18909 6.88994 7.9943 6.98728C7.55844 7.20506 7.20506 7.55844 6.98728 7.9943C6.88994 8.18909 6.82302 8.44603 6.78714 8.89259C6.75056 9.34769 6.75 9.93191 6.75 10.77V17.23C6.75 18.0681 6.75056 18.6523 6.78714 19.1074C6.82302 19.554 6.88994 19.8109 6.98728 20.0057C7.20506 20.4416 7.55844 20.7949 7.9943 21.0127C8.16587 21.0985 8.38565 21.1606 8.74075 21.1987L16.3569 13.5825C16.539 13.4004 16.7062 13.2332 16.8574 13.1048C17.0204 12.9664 17.2135 12.8297 17.4593 12.7499C17.8108 12.6357 18.1894 12.6357 18.5409 12.7499C18.7867 12.8297 18.9798 12.9664 19.1428 13.1048C19.294 13.2332 19.4611 13.4003 19.6431 13.5824L21.25 15.1892V10.77C21.25 9.93191 21.2494 9.34769 21.2129 8.89259C21.177 8.44603 21.1101 8.18909 21.0127 7.9943C20.7949 7.55844 20.4416 7.20506 20.0057 6.98728C19.8109 6.88994 19.554 6.82302 19.1074 6.78714C18.6523 6.75056 18.0681 6.75 17.23 6.75H10.77ZM10.8108 21.25H17.23C18.0681 21.25 18.6523 21.2494 19.1074 21.2129C19.554 21.177 19.8109 21.1101 20.0057 21.0127C20.4416 20.7949 20.7949 20.4416 21.0127 20.0057C21.1101 19.8109 21.177 19.554 21.2129 19.1074C21.2483 18.667 21.2499 18.1058 21.25 17.3105L18.6012 14.6617C18.3944 14.4549 18.2708 14.3322 18.172 14.2483C18.1118 14.1972 18.0823 14.1797 18.0741 14.1754C18.0259 14.1605 17.9743 14.1605 17.9261 14.1754C17.9179 14.1797 17.8885 14.1972 17.8282 14.2483C17.7294 14.3322 17.6058 14.4549 17.3991 14.6617L10.8108 21.25Z"
        fill="#303233" />
</svg>
