<svg width="24" height="24" viewBox="0 0 24 24" fill="none" xmlns="http://www.w3.org/2000/svg">
    <path
        d="M9.16146 7L10 7C10.5523 7 11 7.44772 11 8C11 8.55229 10.5523 9 10 9H9.2C8.62345 9 8.25118 9.00078 7.96784 9.02393C7.69618 9.04613 7.59546 9.0838 7.54601 9.109C7.35785 9.20487 7.20487 9.35785 7.109 9.54601C7.0838 9.59546 7.04613 9.69618 7.02393 9.96784C7.00078 10.2512 7 10.6234 7 11.2V12.8C7 13.3766 7.00078 13.7488 7.02393 14.0322C7.04613 14.3038 7.0838 14.4045 7.109 14.454C7.20487 14.6422 7.35785 14.7951 7.54601 14.891C7.59546 14.9162 7.69617 14.9539 7.96784 14.9761C8.25118 14.9992 8.62345 15 9.2 15H10C10.5523 15 11 15.4477 11 16C11 16.5523 10.5523 17 10 17H9.16148C8.63433 17 8.17954 17 7.80497 16.9694C7.40963 16.9371 7.01641 16.8658 6.63803 16.673C6.07354 16.3854 5.6146 15.9265 5.32698 15.362C5.13419 14.9836 5.06287 14.5904 5.03057 14.195C4.99997 13.8205 4.99998 13.3657 5 12.8385V11.1615C4.99998 10.6343 4.99997 10.1795 5.03057 9.80497C5.06287 9.40963 5.13419 9.01641 5.32698 8.63803C5.6146 8.07354 6.07354 7.6146 6.63803 7.32698C7.01641 7.13419 7.40963 7.06287 7.80497 7.03057C8.17955 6.99997 8.63431 6.99998 9.16146 7Z"
        fill="#303233" />
    <path
        d="M18 7L17.1615 7C16.6343 6.99998 16.1795 6.99997 15.805 7.03057C15.4096 7.06287 15.0164 7.13419 14.638 7.32698C14.0735 7.6146 13.6146 8.07354 13.327 8.63803C13.1342 9.01641 13.0629 9.40963 13.0306 9.80497C13 10.1795 13 10.6343 13 11.1615V12.8385C13 13.3657 13 13.8205 13.0306 14.195C13.0629 14.5904 13.1342 14.9836 13.327 15.362C13.6146 15.9265 14.0735 16.3854 14.638 16.673C15.0164 16.8658 15.4096 16.9371 15.805 16.9694C16.1795 17 16.6343 17 17.1615 17H18C18.5523 17 19 16.5523 19 16C19 15.4477 18.5523 15 18 15H17.2C16.6234 15 16.2512 14.9992 15.9678 14.9761C15.6962 14.9539 15.5955 14.9162 15.546 14.891C15.3578 14.7951 15.2049 14.6422 15.109 14.454C15.0838 14.4045 15.0461 14.3038 15.0239 14.0322C15.0008 13.7488 15 13.3766 15 12.8V11.2C15 10.6234 15.0008 10.2512 15.0239 9.96784C15.0461 9.69618 15.0838 9.59546 15.109 9.54601C15.2049 9.35785 15.3578 9.20487 15.546 9.109C15.5955 9.0838 15.6962 9.04613 15.9678 9.02393C16.2512 9.00078 16.6234 9 17.2 9H18C18.5523 9 19 8.55229 19 8C19 7.44772 18.5523 7 18 7Z"
        fill="#303233" />
    <path fill-rule="evenodd" clip-rule="evenodd"
        d="M17.2413 3H6.7587C5.95375 2.99999 5.28936 2.99998 4.74818 3.0442C4.18608 3.09012 3.66938 3.18868 3.18404 3.43598C2.43139 3.81947 1.81947 4.43139 1.43598 5.18404C1.18868 5.66938 1.09012 6.18608 1.0442 6.74818C0.999979 7.28936 0.999988 7.95371 1 8.75867V15.2413C0.999988 16.0463 0.999979 16.7106 1.0442 17.2518C1.09012 17.8139 1.18868 18.3306 1.43598 18.816C1.81947 19.5686 2.43139 20.1805 3.18404 20.564C3.66938 20.8113 4.18608 20.9099 4.74818 20.9558C5.28937 21 5.95372 21 6.75868 21H17.2413C18.0463 21 18.7106 21 19.2518 20.9558C19.8139 20.9099 20.3306 20.8113 20.816 20.564C21.5686 20.1805 22.1805 19.5686 22.564 18.816C22.8113 18.3306 22.9099 17.8139 22.9558 17.2518C23 16.7106 23 16.0463 23 15.2413V8.75868C23 7.95372 23 7.28937 22.9558 6.74818C22.9099 6.18608 22.8113 5.66938 22.564 5.18404C22.1805 4.43139 21.5686 3.81947 20.816 3.43598C20.3306 3.18868 19.8139 3.09012 19.2518 3.0442C18.7106 2.99998 18.0463 2.99999 17.2413 3ZM4.09202 5.21799C4.24842 5.1383 4.47262 5.07337 4.91104 5.03755C5.36113 5.00078 5.94342 5 6.8 5H17.2C18.0566 5 18.6389 5.00078 19.089 5.03755C19.5274 5.07337 19.7516 5.1383 19.908 5.21799C20.2843 5.40974 20.5903 5.7157 20.782 6.09202C20.8617 6.24842 20.9266 6.47262 20.9624 6.91104C20.9992 7.36113 21 7.94342 21 8.8V15.2C21 16.0566 20.9992 16.6389 20.9624 17.089C20.9266 17.5274 20.8617 17.7516 20.782 17.908C20.5903 18.2843 20.2843 18.5903 19.908 18.782C19.7516 18.8617 19.5274 18.9266 19.089 18.9624C18.6389 18.9992 18.0566 19 17.2 19H6.8C5.94342 19 5.36113 18.9992 4.91104 18.9624C4.47262 18.9266 4.24842 18.8617 4.09202 18.782C3.7157 18.5903 3.40974 18.2843 3.21799 17.908C3.1383 17.7516 3.07337 17.5274 3.03755 17.089C3.00078 16.6389 3 16.0566 3 15.2V8.8C3 7.94342 3.00078 7.36113 3.03755 6.91104C3.07337 6.47262 3.1383 6.24842 3.21799 6.09202C3.40974 5.7157 3.7157 5.40974 4.09202 5.21799Z"
        fill="#303233" />
</svg>
