<svg width="16" height="16" viewBox="0 0 16 16" fill="none" xmlns="http://www.w3.org/2000/svg">
    <g clip-path="url(#clip0_415_256)">
        <path
            d="M13.75 1C13.75 0.585786 13.4142 0.25 13 0.25C12.5858 0.25 12.25 0.585786 12.25 1V2.25H11C10.5858 2.25 10.25 2.58579 10.25 3C10.25 3.41421 10.5858 3.75 11 3.75H12.25V5C12.25 5.41421 12.5858 5.75 13 5.75C13.4142 5.75 13.75 5.41421 13.75 5V3.75H15C15.4142 3.75 15.75 3.41421 15.75 3C15.75 2.58579 15.4142 2.25 15 2.25H13.75V1Z"
            fill="#303233" />
        <path
            d="M8 2.25C4.82436 2.25 2.25 4.82436 2.25 8C2.25 11.1756 4.82436 13.75 8 13.75C11.1756 13.75 13.75 11.1756 13.75 8C13.75 7.85077 13.7443 7.703 13.7332 7.55689C13.7018 7.14387 14.0111 6.78358 14.4242 6.75216C14.8372 6.72074 15.1975 7.03009 15.2289 7.44311C15.2429 7.62704 15.25 7.81276 15.25 8C15.25 12.0041 12.0041 15.25 8 15.25C3.99594 15.25 0.75 12.0041 0.75 8C0.75 3.99594 3.99594 0.75 8 0.75C8.18724 0.75 8.37296 0.757114 8.55689 0.771106C8.96991 0.802525 9.27926 1.16281 9.24784 1.57583C9.21642 1.98885 8.85613 2.2982 8.44311 2.26678C8.297 2.25567 8.14923 2.25 8 2.25Z"
            fill="#303233" />
        <path
            d="M4.99976 6C4.99976 5.44772 5.44549 5 5.99533 5H6.00418C6.55402 5 6.99976 5.44772 6.99976 6C6.99976 6.55228 6.55402 7 6.00418 7H5.99533C5.44549 7 4.99976 6.55228 4.99976 6Z"
            fill="#303233" />
        <path
            d="M11.0154 8.98005C11.3163 9.26469 11.3295 9.73938 11.0449 10.0403C10.6454 10.4626 9.57771 11.4167 7.99968 11.4167C6.42261 11.4167 5.35523 10.4637 4.95528 10.0411C4.67056 9.74029 4.68362 9.2656 4.98446 8.98087C5.2853 8.69615 5.76 8.70921 6.04472 9.01005C6.34356 9.32581 7.04051 9.91666 7.99968 9.91666C8.95946 9.91666 9.65668 9.32504 9.95514 9.00951C10.2398 8.7086 10.7145 8.6954 11.0154 8.98005Z"
            fill="#303233" />
        <path
            d="M9.99533 5C9.44549 5 8.99976 5.44772 8.99976 6C8.99976 6.55228 9.44549 7 9.99533 7H10.0042C10.554 7 10.9998 6.55228 10.9998 6C10.9998 5.44772 10.554 5 10.0042 5H9.99533Z"
            fill="#303233" />
    </g>
    <defs>
        <clipPath id="clip0_415_256">
            <rect width="16" height="16" fill="white" />
        </clipPath>
    </defs>
</svg>
