<svg width="24" height="24" viewBox="0 0 24 24" fill="none" xmlns="http://www.w3.org/2000/svg">
    <path
        d="M3.29289 4.29289C3.48043 4.10536 3.73478 4 4 4H20C20.2652 4 20.5196 4.10536 20.7071 4.29289C20.8946 4.48043 21 4.73478 21 5V15C21 15.2652 20.8946 15.5196 20.7071 15.7071C20.5196 15.8946 20.2652 16 20 16H19C18.4477 16 18 16.4477 18 17C18 17.5523 18.4477 18 19 18H20C20.7957 18 21.5587 17.6839 22.1213 17.1213C22.6839 16.5587 23 15.7957 23 15V5C23 4.20435 22.6839 3.44129 22.1213 2.87868C21.5587 2.31607 20.7957 2 20 2H4C3.20435 2 2.44129 2.31607 1.87868 2.87868C1.31607 3.44129 1 4.20435 1 5V15C1 15.7956 1.31607 16.5587 1.87868 17.1213C2.44129 17.6839 3.20435 18 4 18H5C5.55228 18 6 17.5523 6 17C6 16.4477 5.55228 16 5 16H4C3.73478 16 3.48043 15.8946 3.29289 15.7071C3.10536 15.5196 3 15.2652 3 15V5C3 4.73478 3.10536 4.48043 3.29289 4.29289Z"
        fill="#303233" />
    <path fill-rule="evenodd" clip-rule="evenodd"
        d="M12.7682 14.3598C12.5782 14.1318 12.2968 14 12 14C11.7032 14 11.4218 14.1318 11.2318 14.3598L6.23178 20.3598C5.98338 20.6579 5.92983 21.0728 6.09441 21.4242C6.25899 21.7755 6.61198 22 7 22H17C17.388 22 17.741 21.7755 17.9056 21.4242C18.0702 21.0728 18.0166 20.6579 17.7682 20.3598L12.7682 14.3598ZM12 16.562L14.865 20H9.13504L12 16.562Z"
        fill="#303233" />
</svg>
