<svg width="24" height="24" viewBox="0 0 24 24" fill="none" xmlns="http://www.w3.org/2000/svg">
    <path fill-rule="evenodd" clip-rule="evenodd"
        d="M11.997 10.538C13.809 8.635 15.692 7 18.178 7C21.377 7 23 9.489 23 12C23 14.511 21.377 17 18.178 17C15.692 17 13.809 15.366 11.997 13.462C10.166 15.36 8.162 17 5.439 17C2.533 17 1 14.535 1 12C1 9.465 2.533 7 5.439 7C8.162 7 10.166 8.64 11.997 10.538ZM10.637 12C9.178 10.44 7.635 9 5.439 9C3.758 9 3 10.534 3 12C3 13.466 3.758 15 5.439 15C7.635 15 9.178 13.56 10.637 12ZM18.178 9C17.13 9 16.247 9.432 15.428 10.049C14.704 10.594 14.031 11.281 13.362 12C14.031 12.719 14.704 13.406 15.428 13.951C16.247 14.568 17.13 15 18.178 15C20.075 15 21 13.489 21 12C21 10.511 20.075 9 18.178 9Z"
        fill="#303233" />
</svg>
