<svg width="24" height="24" viewBox="0 0 24 24" fill="none" xmlns="http://www.w3.org/2000/svg">
    <path fill-rule="evenodd" clip-rule="evenodd"
        d="M12 1C5.92487 1 1 5.92487 1 12C1 18.0751 5.92487 23 12 23C18.0751 23 23 18.0751 23 12C23 5.92487 18.0751 1 12 1ZM10.6 8.00001L10.5681 8H10.5681C10.3157 7.99997 10.0699 7.99994 9.86178 8.01695C9.63318 8.03563 9.36345 8.07969 9.09202 8.21799C8.7157 8.40974 8.40974 8.7157 8.21799 9.09202C8.07969 9.36345 8.03563 9.63318 8.01695 9.86178C7.99994 10.0699 7.99997 10.3157 8 10.5681V10.5681L8.00001 10.6V13.4L8 13.4319V13.4319C7.99997 13.6843 7.99994 13.9301 8.01695 14.1382C8.03563 14.3668 8.07969 14.6366 8.21799 14.908C8.40974 15.2843 8.7157 15.5903 9.09202 15.782C9.36345 15.9203 9.63318 15.9644 9.86178 15.9831C10.0699 16.0001 10.3157 16 10.5681 16L10.6 16H13.4L13.4319 16C13.6843 16 13.9301 16.0001 14.1382 15.9831C14.3668 15.9644 14.6366 15.9203 14.908 15.782C15.2843 15.5903 15.5903 15.2843 15.782 14.908C15.9203 14.6366 15.9644 14.3668 15.9831 14.1382C16.0001 13.9301 16 13.6843 16 13.4319L16 13.4V10.6L16 10.5681C16 10.3157 16.0001 10.0699 15.9831 9.86178C15.9644 9.63318 15.9203 9.36345 15.782 9.09202C15.5903 8.7157 15.2843 8.40974 14.908 8.21799C14.6366 8.07969 14.3668 8.03563 14.1382 8.01695C13.9301 7.99994 13.6843 7.99997 13.4319 8H13.4319L13.4 8.00001H10.6Z"
        fill="#303233" />
</svg>
