<svg width="16" height="16" viewBox="0 0 16 16" fill="none" xmlns="http://www.w3.org/2000/svg">
    <path fill-rule="evenodd" clip-rule="evenodd"
        d="M0.5 4.00001C0.499992 2.89544 1.39543 2 2.5 2H6.29318C6.74589 2 7.18006 2.17986 7.50015 2.5C7.82024 2.82014 8.25441 3 8.70712 3H11C11.9319 3 12.715 3.63739 12.937 4.5H13.7803C15.0424 4.5 15.989 5.65465 15.7415 6.89223L14.6415 12.3922C14.4545 13.3271 13.6337 14 12.6803 14H2.50006C1.39549 14 0.500064 13.1046 0.500056 12L0.5 4.00001ZM8.28468 6.9688L8.31047 6.9698L8.33505 6.97181L8.35942 6.97483L8.38357 6.97885L8.40629 6.98488L8.4288 6.99192L8.4714 7.008L8.4849 7.01504L8.50456 7.0261L8.524 7.03816L8.54223 7.05123L8.54737 7.05525C8.56975 7.07234 8.58948 7.09245 8.60778 7.11456C8.63431 7.14975 8.6552 7.18795 8.66844 7.22917L8.67095 7.2362L8.67725 7.25832L8.68255 7.28044L8.68571 7.29853L8.6888 7.32165L8.6893 7.32869C8.69261 7.36488 8.6907 7.40208 8.68437 7.44128L8.68473 7.4443L8.03813 10.4863C7.97937 10.7628 7.70745 10.988 7.43038 10.988C7.15332 10.988 6.97713 10.7628 7.03589 10.4863L7.41881 8.68483L4.81616 10.8402C4.57944 11.0362 4.26215 11.0372 4.10656 10.8422C3.95218 10.6462 4.01971 10.3285 4.25642 10.1324L6.86514 7.97208H5.07071C4.79364 7.97208 4.61745 7.74689 4.67621 7.47044C4.73498 7.19398 5.00689 6.9688 5.28396 6.9688H8.28468Z"
        fill="#303233" />
</svg>
