<svg width="24" height="24" viewBox="0 0 24 24" fill="none" xmlns="http://www.w3.org/2000/svg">
    <g style="mix-blend-mode:multiply">
        <path
            d="M14.2451 20.9756C14.6469 20.8756 15.0542 21.1206 15.1543 21.5225C15.2543 21.9243 15.0093 22.3315 14.6074 22.4316L14.2451 20.9756ZM21.25 12C21.25 6.89137 17.1086 2.75 12 2.75C6.89137 2.75 2.75 6.89137 2.75 12C2.75 17.1086 6.89137 21.25 12 21.25C12.7751 21.25 13.5272 21.1545 14.2451 20.9756L14.4258 21.7041L14.6074 22.4316C13.7719 22.6399 12.8983 22.75 12 22.75C6.06294 22.75 1.25 17.9371 1.25 12C1.25 6.06294 6.06294 1.25 12 1.25C17.9371 1.25 22.75 6.06294 22.75 12C22.75 13.0125 22.6091 13.9933 22.3467 14.9238C22.3441 14.9345 22.3419 14.9454 22.3389 14.9561C21.5933 17.5657 19.2455 19.6668 16.332 19.667C13.5118 19.667 11.25 17.3397 11.25 14.5V9.64355L8.36328 12.5303C8.07037 12.823 7.59557 12.8231 7.30273 12.5303C7.01006 12.2374 7.01006 11.7626 7.30273 11.4697L11.4697 7.30273L11.5264 7.25195C11.8209 7.01142 12.2556 7.02819 12.5303 7.30273L16.6973 11.4697L16.748 11.5264C16.9886 11.8209 16.9718 12.2556 16.6973 12.5303C16.4227 12.8048 15.9879 12.8222 15.6934 12.582L15.6367 12.5303L12.75 9.64355V14.5C12.75 16.5389 14.3676 18.167 16.332 18.167C18.4854 18.1668 20.3078 16.6006 20.8955 14.5439L20.9775 14.2393C21.1556 13.523 21.25 12.773 21.25 12Z"
            fill="#303233" />
    </g>
</svg>
