<svg width="24" height="24" viewBox="0 0 24 24" fill="none" xmlns="http://www.w3.org/2000/svg">
    <path
        d="M16.7157 3.47638C14.8657 2.45368 12.7334 2.05992 10.6402 2.35443C8.55189 2.64824 6.61528 3.61119 5.12073 5.09865L1.75 8.21009V4C1.75 3.58578 1.41421 3.25 1 3.25C0.585786 3.25 0.25 3.58578 0.25 4V10C0.25 10.4142 0.585786 10.75 1 10.75H7C7.41421 10.75 7.75 10.4142 7.75 10C7.75 9.58578 7.41421 9.25 7 9.25H2.83491L6.14871 6.1911C6.1559 6.18446 6.16296 6.17769 6.16989 6.17077C7.43572 4.90708 9.07797 4.089 10.8492 3.8398C12.6204 3.5906 14.4246 3.92378 15.99 4.78914C17.5554 5.6545 18.7971 7.00516 19.5281 8.63762C20.2591 10.2701 20.4398 12.0959 20.0429 13.8399C19.646 15.584 18.6931 17.1518 17.3277 18.3072C15.9622 19.4626 14.2583 20.1429 12.4726 20.2457C10.6869 20.3485 8.9162 19.8681 7.42724 18.877C5.93828 17.8859 4.81175 16.4378 4.21739 14.7508C4.07974 14.3601 3.65146 14.155 3.26078 14.2926C2.87011 14.4303 2.66498 14.8585 2.80262 15.2492C3.50505 17.243 4.8364 18.9544 6.59608 20.1257C8.35576 21.297 10.4484 21.8647 12.5588 21.7432C14.6692 21.6218 16.6829 20.8177 18.2966 19.4523C19.9103 18.0868 21.0365 16.2339 21.5055 14.1728C21.9746 12.1116 21.7611 9.95384 20.8971 8.02458C20.0332 6.09531 18.5657 4.49908 16.7157 3.47638Z"
        fill="#303233" />
</svg>
