<svg width="16" height="16" viewBox="0 0 16 16" fill="none" xmlns="http://www.w3.org/2000/svg">
    <g clip-path="url(#clip0_53_8792)">
        <path
            d="M13.3333 0.502441C12.7593 0.502441 12.2088 0.730456 11.8029 1.13632L5.4696 7.46966C5.37349 7.56578 5.3053 7.68621 5.27233 7.81809L4.60566 10.4848C4.54177 10.7403 4.61665 11.0107 4.80294 11.197C4.98922 11.3833 5.25959 11.4582 5.51517 11.3943L8.18184 10.7276C8.31371 10.6946 8.43415 10.6264 8.53026 10.5303L14.8636 4.19699C15.2695 3.79112 15.4975 3.24064 15.4975 2.66666C15.4975 2.09267 15.2695 1.54219 14.8636 1.13632C14.4577 0.730456 13.9073 0.502441 13.3333 0.502441Z"
            fill="#303233" />
        <path
            d="M2.25 4.5C2.25 3.80964 2.80964 3.25 3.5 3.25H7.5C7.91421 3.25 8.25 2.91421 8.25 2.5C8.25 2.08579 7.91421 1.75 7.5 1.75H3.5C1.98122 1.75 0.75 2.98122 0.75 4.5V12.5C0.75 14.0188 1.98122 15.25 3.5 15.25H11.5C13.0188 15.25 14.25 14.0188 14.25 12.5V8.5C14.25 8.08579 13.9142 7.75 13.5 7.75C13.0858 7.75 12.75 8.08579 12.75 8.5V12.5C12.75 13.1904 12.1904 13.75 11.5 13.75H3.5C2.80964 13.75 2.25 13.1904 2.25 12.5V4.5Z"
            fill="#303233" />
    </g>
    <defs>
        <clipPath id="clip0_53_8792">
            <rect width="16" height="16" fill="white" />
        </clipPath>
    </defs>
</svg>
