<svg width="16" height="16" viewBox="0 0 16 16" fill="none" xmlns="http://www.w3.org/2000/svg">
    <g clip-path="url(#clip0_53_6804)">
        <path fill-rule="evenodd" clip-rule="evenodd"
            d="M3.75 6C3.75 4.75736 4.75736 3.75 6 3.75C7.24264 3.75 8.25 4.75736 8.25 6C8.25 7.24264 7.24264 8.25 6 8.25C4.75736 8.25 3.75 7.24264 3.75 6ZM6 5.25C5.58579 5.25 5.25 5.58579 5.25 6C5.25 6.41421 5.58579 6.75 6 6.75C6.41421 6.75 6.75 6.41421 6.75 6C6.75 5.58579 6.41421 5.25 6 5.25Z"
            fill="#303233" />
        <path fill-rule="evenodd" clip-rule="evenodd"
            d="M8 0.75C3.99594 0.75 0.75 3.99594 0.75 8C0.75 12.0041 3.99594 15.25 8 15.25C12.0041 15.25 15.25 12.0041 15.25 8C15.25 3.99594 12.0041 0.75 8 0.75ZM2.25 8C2.25 4.82436 4.82436 2.25 8 2.25C11.1756 2.25 13.75 4.82436 13.75 8C13.75 8.22075 13.7376 8.43859 13.7133 8.65287L11.7137 6.65327C11.1385 6.07807 10.2097 6.06617 9.61995 6.62644L3.91481 12.0464C2.88563 11.0075 2.25 9.57796 2.25 8ZM5.11518 12.9751C5.96314 13.4678 6.94862 13.75 8 13.75C10.3491 13.75 12.3693 12.3413 13.2617 10.3225L10.6531 7.71393L5.11518 12.9751Z"
            fill="#303233" />
    </g>
    <defs>
        <clipPath id="clip0_53_6804">
            <rect width="16" height="16" fill="white" />
        </clipPath>
    </defs>
</svg>
