<svg width="16" height="16" viewBox="0 0 16 16" fill="none" xmlns="http://www.w3.org/2000/svg">
    <path fill-rule="evenodd" clip-rule="evenodd"
        d="M2.72516 1.80383C2.73311 1.80742 2.74106 1.81099 2.74899 1.81456L13.9175 6.84035C14.0681 6.90809 14.2239 6.97815 14.3463 7.04705C14.4591 7.11054 14.6922 7.24987 14.8257 7.51988C14.9753 7.82249 14.9753 8.17756 14.8257 8.48017C14.6922 8.75018 14.4591 8.88951 14.3463 8.953C14.2239 9.0219 14.0681 9.09196 13.9175 9.1597L2.72899 14.1945C2.57439 14.2641 2.41569 14.3356 2.28089 14.3823C2.15847 14.4247 1.89482 14.5091 1.60027 14.4269C1.27206 14.3353 1.00607 14.0946 0.88223 13.7772C0.771086 13.4923 0.828789 13.2215 0.858793 13.0955C0.891832 12.9567 0.947123 12.7916 1.00098 12.6309L2.54297 8.02475L1.00436 3.38913C1.00162 3.38088 0.998875 3.37261 0.996125 3.36433C0.942856 3.20394 0.888121 3.03914 0.85551 2.90054C0.825839 2.77444 0.769066 2.50417 0.880513 2.22001C1.00479 1.90315 1.27075 1.66311 1.59865 1.57188C1.89271 1.49005 2.15576 1.57415 2.27817 1.61656C2.41272 1.66316 2.57106 1.73445 2.72516 1.80383ZM2.58344 3.38494L3.8663 7.25002H7.00021C7.41442 7.25002 7.75021 7.58581 7.75021 8.00002C7.75021 8.41424 7.41442 8.75002 7.00021 8.75002H3.882L2.5889 12.6127L12.8392 8.00002L2.58344 3.38494Z"
        fill="#303233" />
</svg>
