<svg width="16" height="16" viewBox="0 0 16 16" fill="none" xmlns="http://www.w3.org/2000/svg">
    <path fill-rule="evenodd" clip-rule="evenodd"
        d="M6.5 1.75C5.25736 1.75 4.25 2.75736 4.25 4V10.5C4.25 12.5711 5.92893 14.25 8 14.25C10.0711 14.25 11.75 12.5711 11.75 10.5V3.5C11.75 3.08579 12.0858 2.75 12.5 2.75C12.9142 2.75 13.25 3.08579 13.25 3.5V10.5C13.25 13.3995 10.8995 15.75 8 15.75C5.1005 15.75 2.75 13.3995 2.75 10.5V4C2.75 1.92893 4.42893 0.25 6.5 0.25C8.57107 0.25 10.25 1.92893 10.25 4V10.4556C10.25 11.6982 9.24264 12.7056 8 12.7056C6.75736 12.7056 5.75 11.6982 5.75 10.4556V4.5C5.75 4.08579 6.08579 3.75 6.5 3.75C6.91421 3.75 7.25 4.08579 7.25 4.5V10.4556C7.25 10.8698 7.58579 11.2056 8 11.2056C8.41421 11.2056 8.75 10.8698 8.75 10.4556V4C8.75 2.75736 7.74264 1.75 6.5 1.75Z"
        fill="#303233" />
</svg>
