<svg width="16" height="16" viewBox="0 0 16 16" fill="none" xmlns="http://www.w3.org/2000/svg">
    <path fill-rule="evenodd" clip-rule="evenodd"
        d="M11.5781 11.7493C11.5673 11.7498 11.5564 11.75 11.5454 11.75L3.54549 11.75C1.72887 11.75 0.25 10.2834 0.25 8.46667C0.25 7.01702 1.19139 5.79071 2.49476 5.35398C2.70958 2.77296 4.88165 0.75 7.52277 0.75C9.40696 0.75 11.0503 1.77892 11.9166 3.30343C14.0656 3.51183 15.75 5.31568 15.75 7.51667C15.75 9.83195 13.8861 11.7077 11.5781 11.7493ZM7.71291 6.05691C7.62445 6.09351 7.54158 6.14776 7.46967 6.21967L5.46967 8.21967C5.17678 8.51256 5.17678 8.98744 5.46967 9.28033C5.76256 9.57322 6.23744 9.57322 6.53033 9.28033L7.25 8.56066V13.25C7.25 13.6642 7.58579 14 8 14C8.41421 14 8.75 13.6642 8.75 13.25V8.56066L9.46967 9.28033C9.76256 9.57322 10.2374 9.57322 10.5303 9.28033C10.8232 8.98744 10.8232 8.51256 10.5303 8.21967L8.53033 6.21967C8.38509 6.07443 8.19511 6.00121 8.00476 6.00001L8 6L7.99522 6.00001C7.89527 6.00064 7.79996 6.02081 7.71291 6.05691Z"
        fill="#303233" />
</svg>
