<svg width="16" height="16" viewBox="0 0 16 16" fill="none" xmlns="http://www.w3.org/2000/svg">
    <path
        d="M13 1.5C13 1.22386 12.7761 1 12.5 1C12.2239 1 12 1.22386 12 1.5V3H10.5C10.2239 3 10 3.22386 10 3.5C10 3.77614 10.2239 4 10.5 4H12V5.5C12 5.77614 12.2239 6 12.5 6C12.7761 6 13 5.77614 13 5.5V4H14.5C14.7761 4 15 3.77614 15 3.5C15 3.22386 14.7761 3 14.5 3H13V1.5Z"
        fill="#303233" />
    <path
        d="M6 8C6 6.89543 6.89543 6 8 6C9.10457 6 10 6.89543 10 8C10 9.10457 9.10457 10 8 10C6.89543 10 6 9.10457 6 8Z"
        fill="#303233" />
    <path fill-rule="evenodd" clip-rule="evenodd"
        d="M4.6786 1.5L11 1.5V2H10.5C9.67157 2 9 2.67157 9 3.5C9 4.32843 9.67157 5 10.5 5H11V5.5C11 6.32843 11.6716 7 12.5 7C13.3284 7 14 6.32843 14 5.5V5H14.5C14.6753 5 14.8435 4.96994 14.9999 4.91469L15 10.8215C15 11.3633 15 11.8004 14.9711 12.1543C14.9413 12.5187 14.8784 12.8388 14.7275 13.135C14.4878 13.6054 14.1054 13.9878 13.635 14.2275C13.3388 14.3784 13.0187 14.4413 12.6543 14.4711C12.3004 14.5 11.8633 14.5 11.3214 14.5L4.67853 14.5C4.13667 14.5 3.69961 14.5 3.34569 14.4711C2.98126 14.4413 2.66117 14.3784 2.36502 14.2275C1.89462 13.9878 1.51217 13.6054 1.27248 13.135C1.12159 12.8388 1.05868 12.5187 1.02891 12.1543C0.999992 11.8004 0.999996 11.3633 1 10.8214V5.17859C0.999996 4.6367 0.999992 4.19963 1.02891 3.84569C1.05868 3.48127 1.12159 3.16117 1.27248 2.86503C1.51217 2.39462 1.89462 2.01217 2.36502 1.77249C2.66117 1.62159 2.98126 1.55869 3.34569 1.52891C3.69963 1.49999 4.1367 1.5 4.6786 1.5ZM8 5C6.34315 5 5 6.34315 5 8C5 9.65685 6.34314 11 8 11C9.65685 11 11 9.65685 11 8C11 6.34315 9.65685 5 8 5Z"
        fill="#303233" />
</svg>
