<svg width="24" height="24" viewBox="0 0 24 24" fill="none" xmlns="http://www.w3.org/2000/svg">
    <path fill-rule="evenodd" clip-rule="evenodd"
        d="M1.79095 2.29289C2.18147 1.90237 2.81464 1.90237 3.20516 2.29289L21.2052 20.2929C21.5957 20.6834 21.5957 21.3166 21.2052 21.7071C20.8146 22.0976 20.1815 22.0976 19.7909 21.7071L15.2579 17.1741C15.1959 17.1437 15.136 17.1065 15.0795 17.0621C14.8551 16.8862 14.6154 16.7291 14.3627 16.5932C13.6397 16.2061 12.8294 16.0013 12.0028 16.0013C10.9651 16.0013 9.95301 16.3242 9.10701 16.9252C9.08354 16.9419 9.0596 16.9574 9.03525 16.9718C8.98202 17.011 8.92959 17.0513 8.87798 17.0926C8.44666 17.4375 7.81738 17.3675 7.47245 16.9361C7.12751 16.5048 7.19754 15.8755 7.62886 15.5306C8.8261 14.5732 10.3465 14 11.9979 14C12.0268 14 12.0556 14.0002 12.0844 14.0005L9.41925 11.3354C7.90631 11.738 6.53351 12.4869 5.391 13.4933C4.97658 13.8584 4.34468 13.8184 3.97961 13.404C3.61454 12.9896 3.65455 12.3577 4.06897 11.9926C5.16272 11.0291 6.43419 10.2612 7.82836 9.74452L5.54072 7.45688C4.19328 8.10056 2.95642 8.93973 1.86702 9.93803C1.45983 10.3112 0.827272 10.2835 0.454147 9.87636C0.0810214 9.46918 0.108629 8.83662 0.515809 8.4635C1.57864 7.48955 2.76606 6.64877 4.05168 5.96784L1.79095 3.70711C1.40042 3.31658 1.40042 2.68342 1.79095 2.29289ZM11.998 6.00262C11.4307 6.00262 10.8666 6.03476 10.3079 6.0981C9.75916 6.16032 9.26385 5.76589 9.20164 5.21712C9.13942 4.66835 9.53385 4.17305 10.0826 4.11083C10.7158 4.03905 11.3552 4.00262 11.998 4.00262C16.1372 4.00262 20.1341 5.51277 23.2392 8.24981C23.6535 8.61501 23.6933 9.24692 23.3281 9.66122C22.9629 10.0755 22.331 10.1153 21.9167 9.75014C19.177 7.33511 15.6502 6.00262 11.998 6.00262ZM14.3553 10.2026C14.5195 9.67528 15.0802 9.381 15.6075 9.54528C17.1001 10.0103 18.4988 10.7661 19.7181 11.7816C20.1424 12.1351 20.1999 12.7657 19.8464 13.19C19.493 13.6144 18.8624 13.6718 18.4381 13.3184C17.422 12.4721 16.2565 11.8423 15.0125 11.4548C14.4852 11.2905 14.191 10.7298 14.3553 10.2026ZM10.9981 20C10.9981 19.4477 11.4458 19 11.9981 19H12.0081C12.5603 19 13.0081 19.4477 13.0081 20C13.0081 20.5523 12.5603 21 12.0081 21H11.9981C11.4458 21 10.9981 20.5523 10.9981 20Z"
        fill="#303233" />
</svg>
