<svg width="16" height="16" viewBox="0 0 16 16" fill="none" xmlns="http://www.w3.org/2000/svg">
    <g clip-path="url(#clip0_3856_7)">
        <path
            d="M2.8 0.75C1.66782 0.75 0.75 1.66782 0.75 2.8V4C0.75 4.41421 1.08579 4.75 1.5 4.75C1.91421 4.75 2.25 4.41421 2.25 4L2.25 2.8C2.25 2.49624 2.49624 2.25 2.8 2.25H4C4.41421 2.25 4.75 1.91421 4.75 1.5C4.75 1.08579 4.41421 0.75 4 0.75H2.8Z"
            fill="#303233" />
        <path
            d="M6.5 0.75C6.08579 0.75 5.75 1.08579 5.75 1.5C5.75 1.91421 6.08579 2.25 6.5 2.25H9.5C9.91421 2.25 10.25 1.91421 10.25 1.5C10.25 1.08579 9.91421 0.75 9.5 0.75H6.5Z"
            fill="#303233" />
        <path
            d="M12 0.75C11.5858 0.75 11.25 1.08579 11.25 1.5C11.25 1.91421 11.5858 2.25 12 2.25H13.2C13.5038 2.25 13.75 2.49624 13.75 2.8V4C13.75 4.41421 14.0858 4.75 14.5 4.75C14.9142 4.75 15.25 4.41421 15.25 4V2.8C15.25 1.66782 14.3322 0.75 13.2 0.75H12Z"
            fill="#303233" />
        <path
            d="M2.25 6.5C2.25 6.08579 1.91421 5.75 1.5 5.75C1.08579 5.75 0.75 6.08579 0.75 6.5V9.5C0.75 9.91421 1.08579 10.25 1.5 10.25C1.91421 10.25 2.25 9.91421 2.25 9.5V6.5Z"
            fill="#303233" />
        <path
            d="M15.25 6.5C15.25 6.08579 14.9142 5.75 14.5 5.75C14.0858 5.75 13.75 6.08579 13.75 6.5V9.5C13.75 9.91421 14.0858 10.25 14.5 10.25C14.9142 10.25 15.25 9.91421 15.25 9.5V6.5Z"
            fill="#303233" />
        <path
            d="M2.25 12C2.25 11.5858 1.91421 11.25 1.5 11.25C1.08579 11.25 0.75 11.5858 0.75 12V13.2C0.75 14.3322 1.66782 15.25 2.8 15.25H4C4.41421 15.25 4.75 14.9142 4.75 14.5C4.75 14.0858 4.41421 13.75 4 13.75H2.8C2.49624 13.75 2.25 13.5038 2.25 13.2L2.25 12Z"
            fill="#303233" />
        <path
            d="M15.25 12C15.25 11.5858 14.9142 11.25 14.5 11.25C14.0858 11.25 13.75 11.5858 13.75 12V13.2C13.75 13.5038 13.5038 13.75 13.2 13.75H12C11.5858 13.75 11.25 14.0858 11.25 14.5C11.25 14.9142 11.5858 15.25 12 15.25H13.2C14.3322 15.25 15.25 14.3322 15.25 13.2V12Z"
            fill="#303233" />
        <path
            d="M6.5 13.75C6.08579 13.75 5.75 14.0858 5.75 14.5C5.75 14.9142 6.08579 15.25 6.5 15.25H9.5C9.91421 15.25 10.25 14.9142 10.25 14.5C10.25 14.0858 9.91421 13.75 9.5 13.75H6.5Z"
            fill="#303233" />
        <path
            d="M3 2.75C2.86193 2.75 2.75 2.86193 2.75 3V13C2.75 13.1381 2.86193 13.25 3 13.25H13C13.1381 13.25 13.25 13.1381 13.25 13V3C13.25 2.86193 13.1381 2.75 13 2.75H3Z"
            fill="#303233" />
    </g>
    <defs>
        <clipPath id="clip0_3856_7">
            <rect width="16" height="16" fill="white" />
        </clipPath>
    </defs>
</svg>
