<svg width="16" height="16" viewBox="0 0 16 16" fill="none" xmlns="http://www.w3.org/2000/svg">
    <path fill-rule="evenodd" clip-rule="evenodd"
        d="M9.19702 12.0352L8.47735 12.7549H14C14.4142 12.7549 14.75 13.0907 14.75 13.5049C14.75 13.9191 14.4142 14.2549 14 14.2549H5.95537C5.91773 14.255 5.87973 14.255 5.84134 14.2549C5.82201 14.2549 5.80257 14.2549 5.78303 14.2549H4.88368C4.86414 14.2549 4.84471 14.2549 4.82537 14.2549C4.55731 14.2552 4.30833 14.2555 4.06596 14.1973C3.85339 14.1463 3.65017 14.0621 3.46377 13.9479C3.25125 13.8177 3.07539 13.6414 2.88604 13.4516C2.87239 13.438 2.85867 13.4242 2.84485 13.4104L2.3991 12.9646L2.37759 12.9431C1.99988 12.5654 1.6846 12.2502 1.44809 11.9716C1.20142 11.681 0.99668 11.3814 0.879712 11.0214C0.700252 10.4691 0.700252 9.8741 0.879712 9.32178C0.99668 8.96178 1.20142 8.66213 1.44809 8.37157C1.6846 8.09298 1.99987 7.77772 2.37757 7.40003L7.89513 1.88247C8.27283 1.50476 8.58809 1.18949 8.86668 0.952975C9.15725 0.706303 9.4569 0.501563 9.81689 0.384595C10.3692 0.205135 10.9642 0.205135 11.5165 0.384595C11.8765 0.501563 12.1761 0.706303 12.4667 0.952975C12.7453 1.18948 13.0605 1.50475 13.4382 1.88246L13.4598 1.90398L13.6009 2.04517L13.6225 2.06668C14.0002 2.44438 14.3154 2.75964 14.552 3.03824C14.7986 3.3288 15.0034 3.62845 15.1203 3.98844C15.2998 4.54076 15.2998 5.13572 15.1203 5.68804C15.0034 6.04803 14.7986 6.34768 14.552 6.63824C14.3154 6.91684 14.0002 7.23209 13.6225 7.60979L9.19702 12.0352ZM4.00002 7.8989L3.45976 8.43916C3.05499 8.84393 2.78373 9.11602 2.5916 9.34233C2.40516 9.56195 2.3377 9.68864 2.3063 9.7853C2.22472 10.0364 2.22472 10.3068 2.3063 10.5578C2.3377 10.6545 2.40516 10.7812 2.5916 11.0008C2.78372 11.2271 3.05499 11.4992 3.45976 11.904L3.90551 12.3497C4.16136 12.6056 4.20625 12.6437 4.24752 12.6689C4.29971 12.7009 4.35661 12.7245 4.41613 12.7388C4.46319 12.7501 4.52186 12.7549 4.88368 12.7549H5.78303C6.14486 12.7549 6.20352 12.7501 6.25058 12.7388C6.3101 12.7245 6.367 12.7009 6.4192 12.6689C6.46046 12.6437 6.50536 12.6056 6.7612 12.3497L7.60603 11.5049L4.00002 7.8989Z"
        fill="#303233" />
</svg>
