<svg width="24" height="24" viewBox="0 0 24 24" fill="none" xmlns="http://www.w3.org/2000/svg">
    <path fill-rule="evenodd" clip-rule="evenodd"
        d="M4 1.25C2.48122 1.25 1.25 2.48122 1.25 4V18C1.25 19.5188 2.48122 20.75 4 20.75H20C21.5188 20.75 22.75 19.5188 22.75 18V6C22.75 4.48122 21.5188 3.25 20 3.25H13.8284C13.2317 3.25 12.6594 3.01295 12.2374 2.59099L11.409 1.76256C11.0808 1.43437 10.6357 1.25 10.1716 1.25H4ZM12.5303 12.4697C12.2374 12.1768 11.7626 12.1768 11.4697 12.4697L8.46967 15.4697C8.17678 15.7626 8.17678 16.2374 8.46967 16.5303C8.76256 16.8232 9.23744 16.8232 9.53033 16.5303L11.25 14.8107V23C11.25 23.4142 11.5858 23.75 12 23.75C12.4142 23.75 12.75 23.4142 12.75 23V14.8107L14.4697 16.5303C14.7626 16.8232 15.2374 16.8232 15.5303 16.5303C15.8232 16.2374 15.8232 15.7626 15.5303 15.4697L12.5303 12.4697Z"
        fill="#303233" />
</svg>
