<svg width="24" height="24" viewBox="0 0 24 24" fill="none" xmlns="http://www.w3.org/2000/svg">
    <path fill-rule="evenodd" clip-rule="evenodd"
        d="M9 3C6.23858 3 4 5.23858 4 8C4 10.7614 6.23858 13 9 13C11.7614 13 14 10.7614 14 8C14 5.23858 11.7614 3 9 3ZM6 8C6 6.34315 7.34315 5 9 5C10.6569 5 12 6.34315 12 8C12 9.65685 10.6569 11 9 11C7.34315 11 6 9.65685 6 8Z"
        fill="#303233" />
    <path
        d="M2.22063 21.2493C2.99776 18.2299 5.73981 16 9.00016 16C12.2605 16 15.0026 18.2299 15.7797 21.2493C15.9173 21.7841 16.4625 22.1061 16.9974 21.9684C17.5322 21.8308 17.8542 21.2856 17.7166 20.7507C16.7175 16.8692 13.1952 14 9.00016 14C4.80515 14 1.2828 16.8692 0.283758 20.7507C0.146096 21.2856 0.468083 21.8308 1.00294 21.9684C1.53779 22.1061 2.08297 21.7841 2.22063 21.2493Z"
        fill="#303233" />
    <path
        d="M15.0318 3.87676C15.1695 3.34191 15.7146 3.01992 16.2495 3.15758C18.4058 3.71258 20.0002 5.66883 20.0002 8C20.0002 10.3312 18.4058 12.2874 16.2495 12.8424C15.7146 12.9801 15.1695 12.6581 15.0318 12.1232C14.8941 11.5884 15.2161 11.0432 15.751 10.9055C17.0451 10.5725 18.0002 9.39651 18.0002 8C18.0002 6.60349 17.0451 5.42754 15.751 5.09445C15.2161 4.95679 14.8941 4.41161 15.0318 3.87676Z"
        fill="#303233" />
    <path
        d="M17.2495 14.2836C16.7147 14.146 16.1695 14.4679 16.0318 15.0028C15.8941 15.5376 16.2161 16.0828 16.751 16.2205C19.2093 16.8533 21.147 18.7909 21.7797 21.2493C21.9173 21.7841 22.4625 22.1061 22.9974 21.9684C23.5322 21.8308 23.8542 21.2856 23.7166 20.7507C22.9022 17.5867 20.4135 15.098 17.2495 14.2836Z"
        fill="#303233" />
</svg>
