<svg width="16" height="16" viewBox="0 0 16 16" fill="none" xmlns="http://www.w3.org/2000/svg">
    <path fill-rule="evenodd" clip-rule="evenodd"
        d="M12.1464 2.14645C12.3417 1.95118 12.6583 1.95118 12.8536 2.14645L14.8536 4.14645C15.0488 4.34171 15.0488 4.65829 14.8536 4.85355C14.6583 5.04882 14.3417 5.04882 14.1464 4.85355L13 3.70711V11.25C13 12.7688 11.7688 14 10.25 14C8.73122 14 7.5 12.7688 7.5 11.25V4.75C7.5 3.7835 6.7165 3 5.75 3C4.7835 3 4 3.7835 4 4.75L4 12.2929L5.14645 11.1464C5.34171 10.9512 5.65829 10.9512 5.85355 11.1464C6.04882 11.3417 6.04882 11.6583 5.85355 11.8536L3.85355 13.8536C3.65829 14.0488 3.34171 14.0488 3.14645 13.8536L1.14645 11.8536C0.951184 11.6583 0.951184 11.3417 1.14645 11.1464C1.34171 10.9512 1.65829 10.9512 1.85355 11.1464L3 12.2929L3 4.75C3 3.23122 4.23122 2 5.75 2C7.26878 2 8.5 3.23122 8.5 4.75V11.25C8.5 12.2165 9.2835 13 10.25 13C11.2165 13 12 12.2165 12 11.25V3.70711L10.8536 4.85355C10.6583 5.04882 10.3417 5.04882 10.1464 4.85355C9.95118 4.65829 9.95118 4.34171 10.1464 4.14645L12.1464 2.14645Z"
        fill="#303233" />
</svg>
