<svg width="24" height="24" viewBox="0 0 24 24" fill="none" xmlns="http://www.w3.org/2000/svg">
    <path fill-rule="evenodd" clip-rule="evenodd"
        d="M5.45926 1.39859C5.75216 1.69149 5.75216 2.16636 5.45926 2.45925C1.84691 6.0716 1.84691 11.9284 5.45926 15.5407C9.07161 19.1531 14.9284 19.1531 18.5407 15.5407C18.8336 15.2478 19.3085 15.2478 19.6014 15.5407C19.8943 15.8336 19.8943 16.3085 19.6014 16.6014C17.6933 18.5095 15.2462 19.5504 12.7502 19.7239V21.25H15.0002C15.4144 21.25 15.7502 21.5858 15.7502 22C15.7502 22.4142 15.4144 22.75 15.0002 22.75H9.00022C8.58601 22.75 8.25022 22.4142 8.25022 22C8.25022 21.5858 8.58601 21.25 9.00022 21.25H11.2502V19.724C8.75404 19.5505 6.30686 18.5096 4.3986 16.6014C0.200466 12.4033 0.200466 5.59673 4.3986 1.39859C4.6915 1.1057 5.16637 1.1057 5.45926 1.39859ZM4.25022 9C4.25022 4.71979 7.72001 1.25 12.0002 1.25C16.2804 1.25 19.7502 4.71979 19.7502 9C19.7502 13.2802 16.2804 16.75 12.0002 16.75C7.72001 16.75 4.25022 13.2802 4.25022 9Z"
        fill="#303233" />
</svg>
