<svg width="16" height="16" viewBox="0 0 16 16" fill="none" xmlns="http://www.w3.org/2000/svg">
    <g clip-path="url(#clip0_53_4161)">
        <path
            d="M5 0.75H4.93586C4.35534 0.749991 3.87454 0.749983 3.48253 0.782011C3.07485 0.815319 2.69762 0.886972 2.34253 1.0679C1.79372 1.34753 1.34753 1.79372 1.0679 2.34253C0.886972 2.69762 0.815319 3.07485 0.782011 3.48253C0.749983 3.87454 0.749991 4.35532 0.75 4.93584V5C0.75 5.41421 1.08579 5.75 1.5 5.75C1.91421 5.75 2.25 5.41421 2.25 5V4.96667C2.25 4.34757 2.25058 3.92835 2.27703 3.60468C2.30276 3.28976 2.34918 3.1319 2.40441 3.02351C2.54023 2.75695 2.75695 2.54023 3.02351 2.40441C3.1319 2.34918 3.28976 2.30276 3.60468 2.27703C3.92835 2.25058 4.34757 2.25 4.96667 2.25H5C5.41421 2.25 5.75 1.91421 5.75 1.5C5.75 1.08579 5.41421 0.75 5 0.75Z"
            fill="#303233" />
        <path
            d="M11.0333 2.25C11.6524 2.25 12.0717 2.25058 12.3953 2.27703C12.7102 2.30276 12.8681 2.34918 12.9765 2.40441C13.2431 2.54023 13.4598 2.75695 13.5956 3.02351C13.6508 3.1319 13.6972 3.28976 13.723 3.60468C13.7494 3.92835 13.75 4.34757 13.75 4.96667V5C13.75 5.41421 14.0858 5.75 14.5 5.75C14.9142 5.75 15.25 5.41421 15.25 5V4.93584C15.25 4.35532 15.25 3.87454 15.218 3.48253C15.1847 3.07485 15.113 2.69762 14.9321 2.34253C14.6525 1.79372 14.2063 1.34753 13.6575 1.0679C13.3024 0.886972 12.9251 0.815319 12.5175 0.782011C12.1255 0.749983 11.6447 0.749991 11.0642 0.75H11C10.5858 0.75 10.25 1.08579 10.25 1.5C10.25 1.91421 10.5858 2.25 11 2.25H11.0333Z"
            fill="#303233" />
        <path
            d="M2.25 11C2.25 10.5858 1.91421 10.25 1.5 10.25C1.08579 10.25 0.75 10.5858 0.75 11V11.0641C0.749991 11.6447 0.749983 12.1255 0.782011 12.5175C0.815319 12.9251 0.886972 13.3024 1.0679 13.6575C1.34753 14.2063 1.79372 14.6525 2.34253 14.9321C2.69762 15.113 3.07485 15.1847 3.48253 15.218C3.87454 15.25 4.35532 15.25 4.93584 15.25H5C5.41421 15.25 5.75 14.9142 5.75 14.5C5.75 14.0858 5.41421 13.75 5 13.75H4.96667C4.34757 13.75 3.92835 13.7494 3.60468 13.723C3.28976 13.6972 3.1319 13.6508 3.02351 13.5956C2.75695 13.4598 2.54023 13.2431 2.40441 12.9765C2.34918 12.8681 2.30276 12.7102 2.27703 12.3953C2.25058 12.0717 2.25 11.6524 2.25 11.0333V11Z"
            fill="#303233" />
        <path fill-rule="evenodd" clip-rule="evenodd"
            d="M9.65343 7.25H13.3466C13.6178 7.24998 13.8647 7.24997 14.0707 7.2668C14.2922 7.28489 14.5315 7.32612 14.7672 7.44619C15.1059 7.61876 15.3812 7.89413 15.5538 8.23282C15.6739 8.46847 15.7151 8.70782 15.7332 8.92929C15.75 9.13529 15.75 9.38221 15.75 9.6534V13.3466C15.75 13.6178 15.75 13.8647 15.7332 14.0707C15.7151 14.2922 15.6739 14.5315 15.5538 14.7672C15.3812 15.1059 15.1059 15.3812 14.7672 15.5538C14.5315 15.6739 14.2922 15.7151 14.0707 15.7332C13.8647 15.75 13.6178 15.75 13.3466 15.75H9.65343C9.38224 15.75 9.13529 15.75 8.92929 15.7332C8.70782 15.7151 8.46847 15.6739 8.23282 15.5538C7.89413 15.3812 7.61876 15.1059 7.44619 14.7672C7.32612 14.5315 7.28489 14.2922 7.2668 14.0707C7.24997 13.8647 7.24998 13.6178 7.25 13.3467V9.65343C7.24998 9.38225 7.24997 9.13528 7.2668 8.92929C7.28489 8.70782 7.32612 8.46847 7.44619 8.23282C7.61876 7.89413 7.89413 7.61876 8.23282 7.44619C8.46847 7.32612 8.70782 7.28489 8.92929 7.2668C9.13528 7.24997 9.38225 7.24998 9.65343 7.25ZM9.25 11.5C9.25 10.2574 10.2574 9.25 11.5 9.25C12.7426 9.25 13.75 10.2574 13.75 11.5C13.75 12.7426 12.7426 13.75 11.5 13.75C10.2574 13.75 9.25 12.7426 9.25 11.5Z"
            fill="#303233" />
    </g>
    <defs>
        <clipPath id="clip0_53_4161">
            <rect width="16" height="16" fill="white" />
        </clipPath>
    </defs>
</svg>
