<svg width="16" height="16" viewBox="0 0 16 16" fill="none" xmlns="http://www.w3.org/2000/svg">
    <path fill-rule="evenodd" clip-rule="evenodd"
        d="M5.5 3H3.08073C2.81716 2.99999 2.58977 2.99998 2.40249 3.01529C2.20481 3.03144 2.00821 3.06709 1.81902 3.16349C1.53677 3.3073 1.3073 3.53677 1.16349 3.81902C1.06709 4.00821 1.03144 4.20481 1.01529 4.40249C0.999984 4.58977 0.999992 4.81714 1 5.08071V6.06301C1 6.29115 1.15443 6.49036 1.37537 6.54723C2.02244 6.71377 2.5 7.30175 2.5 8C2.5 8.69826 2.02244 9.28623 1.37537 9.45277C1.15443 9.50964 1 9.70885 1 9.93699V10.9193C0.999992 11.1828 0.999984 11.4102 1.01529 11.5975C1.03144 11.7952 1.06709 11.9918 1.16349 12.181C1.3073 12.4632 1.53677 12.6927 1.81902 12.8365C2.00821 12.9329 2.20481 12.9686 2.40249 12.9847C2.58977 13 2.81715 13 3.08072 13L5.5 13V11C5.5 10.7239 5.72386 10.5 6 10.5C6.27614 10.5 6.5 10.7239 6.5 11V13L12.9193 13C13.1829 13 13.4102 13 13.5975 12.9847C13.7952 12.9686 13.9918 12.9329 14.181 12.8365C14.4632 12.6927 14.6927 12.4632 14.8365 12.181C14.9329 11.9918 14.9686 11.7952 14.9847 11.5975C15 11.4102 15 11.1829 15 10.9193V9.93699C15 9.70885 14.8456 9.50964 14.6246 9.45277C13.9776 9.28623 13.5 8.69826 13.5 8C13.5 7.30175 13.9776 6.71377 14.6246 6.54723C14.8456 6.49036 15 6.29115 15 6.06301V5.08072C15 4.81715 15 4.58977 14.9847 4.40249C14.9686 4.20481 14.9329 4.00821 14.8365 3.81902C14.6927 3.53677 14.4632 3.3073 14.181 3.16349C13.9918 3.06709 13.7952 3.03144 13.5975 3.01529C13.4102 2.99998 13.1829 2.99999 12.9193 3H6.5V5C6.5 5.27614 6.27614 5.5 6 5.5C5.72386 5.5 5.5 5.27614 5.5 5V3ZM6 7C6.27614 7 6.5 7.22386 6.5 7.5V8.5C6.5 8.77614 6.27614 9 6 9C5.72386 9 5.5 8.77614 5.5 8.5V7.5C5.5 7.22386 5.72386 7 6 7Z"
        fill="#303233" />
</svg>
