<svg width="24" height="24" viewBox="0 0 24 24" fill="none" xmlns="http://www.w3.org/2000/svg">
    <path
        d="M14.2441 12.0001C14.2441 13.2431 13.2371 14.2501 11.9941 14.2501C10.7511 14.2501 9.74414 13.2431 9.74414 12.0001C9.74414 10.7571 10.7511 9.75006 11.9941 9.75006C13.2371 9.75006 14.2441 10.7571 14.2441 12.0001Z"
        fill="#303233" />
    <path fill-rule="evenodd" clip-rule="evenodd"
        d="M8.01207 18.904C8.31907 19.081 8.56207 19.352 8.70607 19.676L9.29007 20.99C9.52307 21.514 9.90207 21.959 10.3831 22.271C10.8641 22.584 11.4251 22.75 11.9981 22.75C12.5711 22.75 13.1321 22.584 13.6121 22.271C14.0931 21.959 14.4731 21.514 14.7051 20.99L15.2891 19.677C15.4331 19.355 15.6751 19.086 15.9801 18.909C16.2871 18.732 16.6431 18.657 16.9961 18.694L18.4251 18.846C18.9951 18.906 19.5711 18.8 20.0811 18.54C20.5921 18.28 21.0161 17.877 21.3031 17.381C21.5891 16.884 21.7261 16.316 21.6961 15.743C21.6661 15.171 21.4701 14.62 21.1331 14.156L20.2881 12.995C20.0791 12.706 19.9681 12.359 19.9701 12.004V12C19.9701 11.645 20.0821 11.299 20.2911 11.012L21.1371 9.849C21.4751 9.386 21.6701 8.834 21.7001 8.262C21.7301 7.69 21.5941 7.121 21.3071 6.625C21.0211 6.129 20.5961 5.726 20.0861 5.466C19.5751 5.206 19.0001 5.099 18.4301 5.16L17.0001 5.312C16.6481 5.349 16.2921 5.273 15.9851 5.096C15.6791 4.919 15.4381 4.649 15.2951 4.326L15.2931 4.322L14.7041 3.008C14.4731 2.486 14.0931 2.041 13.6121 1.729C13.1321 1.416 12.5711 1.25 11.9981 1.25C11.4251 1.25 10.8641 1.416 10.3831 1.729C9.90207 2.041 9.52307 2.486 9.29007 3.01L8.70607 4.324L8.70507 4.326C8.56207 4.649 8.32107 4.919 8.01507 5.097C7.70807 5.274 7.35207 5.349 6.99907 5.312L5.56607 5.16C4.99607 5.099 4.42007 5.206 3.91007 5.466C3.39907 5.726 2.97507 6.129 2.68807 6.625C2.40207 7.121 2.26507 7.69 2.29507 8.262C2.32507 8.835 2.52107 9.386 2.85807 9.849L3.70407 11.012C3.91307 11.299 4.02607 11.645 4.02507 12C4.02607 12.355 3.91307 12.701 3.70407 12.988L2.85807 14.151C2.52107 14.614 2.32507 15.165 2.29507 15.738C2.26507 16.31 2.40207 16.879 2.68807 17.375C2.97507 17.871 3.39907 18.274 3.91007 18.534C4.42007 18.794 4.99607 18.9 5.56607 18.84L6.99507 18.688C7.34807 18.651 7.70407 18.727 8.01207 18.904ZM8.24414 12.0001C8.24414 14.0711 9.92314 15.7501 11.9941 15.7501C14.0651 15.7501 15.7441 14.0711 15.7441 12.0001C15.7441 9.92906 14.0651 8.25006 11.9941 8.25006C9.92314 8.25006 8.24414 9.92906 8.24414 12.0001Z"
        fill="#303233" />
</svg>
