<svg width="24" height="24" viewBox="0 0 24 24" fill="none" xmlns="http://www.w3.org/2000/svg">
    <path fill-rule="evenodd" clip-rule="evenodd"
        d="M15.2413 1H8.7587C7.95374 0.999988 7.28937 0.999978 6.74818 1.04419C6.18608 1.09012 5.66937 1.18868 5.18404 1.43598C4.43139 1.81947 3.81947 2.43139 3.43598 3.18404C3.18868 3.66937 3.09012 4.18608 3.04419 4.74818C2.99998 5.28937 2.99999 5.95372 3 6.75869V17.2413C2.99999 18.0463 2.99998 18.7106 3.04419 19.2518C3.09012 19.8139 3.18868 20.3306 3.43598 20.816C3.81947 21.5686 4.43139 22.1805 5.18404 22.564C5.66937 22.8113 6.18608 22.9099 6.74818 22.9558C7.28936 23 7.95372 23 8.75868 23H14.6822C13.0655 21.9251 12 20.087 12 18V14C12 12.3431 13.3431 11 15 11C15.085 11 15.1692 11.0035 15.2524 11.0105C15.8672 9.25721 17.5368 8 19.5 8C20.026 8 20.5308 8.09023 21 8.25606V6.75868C21 5.95372 21 5.28936 20.9558 4.74818C20.9099 4.18608 20.8113 3.66937 20.564 3.18404C20.1805 2.43139 19.5686 1.81947 18.816 1.43598C18.3306 1.18868 17.8139 1.09012 17.2518 1.04419C16.7106 0.999978 16.0463 0.999988 15.2413 1Z"
        fill="#303233" />
    <path fill-rule="evenodd" clip-rule="evenodd"
        d="M19.5 12C19.2239 12 19 12.2239 19 12.5V18C19 18.5523 18.5523 19 18 19C17.4477 19 17 18.5523 17 18V12.5C17 11.1193 18.1193 10 19.5 10C20.8807 10 22 11.1193 22 12.5V18C22 20.2091 20.2091 22 18 22C15.7909 22 14 20.2091 14 18V14C14 13.4477 14.4477 13 15 13C15.5523 13 16 13.4477 16 14V18C16 19.1046 16.8954 20 18 20C19.1046 20 20 19.1046 20 18V12.5C20 12.2239 19.7761 12 19.5 12Z"
        fill="#303233" />
</svg>
