<svg width="24" height="24" viewBox="0 0 24 24" fill="none" xmlns="http://www.w3.org/2000/svg">
    <path fill-rule="evenodd" clip-rule="evenodd"
        d="M5.99951 2.25C3.92844 2.25 2.24951 3.92893 2.24951 6C2.24951 8.07107 3.92844 9.75 5.99951 9.75C8.07058 9.75 9.74951 8.07107 9.74951 6C9.74951 3.92893 8.07058 2.25 5.99951 2.25ZM3.74951 6C3.74951 4.75736 4.75687 3.75 5.99951 3.75C7.24215 3.75 8.24951 4.75736 8.24951 6C8.24951 7.24264 7.24215 8.25 5.99951 8.25C4.75687 8.25 3.74951 7.24264 3.74951 6Z"
        fill="#303233" />
    <path fill-rule="evenodd" clip-rule="evenodd"
        d="M12.5605 8.76072C13.2564 7.75554 14.7422 7.75554 15.4381 8.76072L22.5296 19.0039C23.3331 20.1646 22.5024 21.75 21.0907 21.75L2.86818 21.75C1.47046 21.75 0.636775 20.1922 1.41209 19.0293L5.54357 12.832C6.23626 11.793 7.76306 11.793 8.45575 12.832L9.08667 13.7784L12.5605 8.76072ZM14.2048 9.61453C14.1054 9.47094 13.8932 9.47094 13.7937 9.61453L6.43072 20.25H21.0907C21.2924 20.25 21.4111 20.0235 21.2963 19.8577L14.2048 9.61453ZM8.16827 15.105L4.60635 20.25H2.86818C2.6685 20.25 2.54941 20.0275 2.66016 19.8613L6.79165 13.6641C6.8906 13.5157 7.10872 13.5157 7.20767 13.6641L8.16827 15.105Z"
        fill="#303233" />
</svg>
