<svg width="16" height="16" viewBox="0 0 16 16" fill="none" xmlns="http://www.w3.org/2000/svg">
    <path
        d="M11.9621 4.30861C11.9377 4.24964 11.9015 4.19439 11.8536 4.14645C11.7631 4.05596 11.6381 4 11.5 4H4.5C4.22386 4 4 4.22386 4 4.5C4 4.77614 4.22386 5 4.5 5H10.2929L4.14645 11.1464C3.95118 11.3417 3.95118 11.6583 4.14645 11.8536C4.34171 12.0488 4.65829 12.0488 4.85355 11.8536L11 5.70711V11.5C11 11.7761 11.2239 12 11.5 12C11.7761 12 12 11.7761 12 11.5V4.5C12 4.43221 11.9865 4.36756 11.9621 4.30861Z"
        fill="#303233" />
</svg>
