<svg width="24" height="24" viewBox="0 0 24 24" fill="none" xmlns="http://www.w3.org/2000/svg">
    <path fill-rule="evenodd" clip-rule="evenodd"
        d="M17.4 1.25H6.6C5.856 1.25 5.49 1.296 5.206 1.441C5.206 1.441 5.206 1.441 5.205 1.441C4.876 1.609 4.609 1.876 4.441 2.205C4.441 2.206 4.441 2.206 4.441 2.206C4.296 2.49 4.25 2.856 4.25 3.6V5.675C4.25 6.253 4.261 6.541 4.326 6.813C4.393 7.094 4.504 7.362 4.655 7.608C4.801 7.847 4.998 8.059 5.407 8.468L8.338 11.399C8.487 11.547 8.605 11.666 8.699 11.768C8.757 11.832 8.806 11.87 8.824 11.923C8.84 11.973 8.84 12.027 8.824 12.077C8.806 12.13 8.757 12.168 8.699 12.232L8.338 12.601L5.407 15.532C4.998 15.941 4.801 16.153 4.655 16.391C4.655 16.392 4.655 16.392 4.655 16.392C4.504 16.638 4.393 16.906 4.326 17.186C4.261 17.459 4.25 17.747 4.25 18.325V20.4C4.25 21.144 4.296 21.51 4.441 21.794C4.609 22.124 4.876 22.391 5.205 22.559C5.49 22.704 5.856 22.75 6.6 22.75H17.4C18.144 22.75 18.51 22.704 18.794 22.559C19.124 22.391 19.391 22.124 19.559 21.795C19.704 21.51 19.75 21.144 19.75 20.4V18.326C19.75 17.747 19.739 17.459 19.674 17.186C19.607 16.906 19.496 16.638 19.345 16.392C19.345 16.392 19.345 16.392 19.345 16.391C19.198 16.153 19.002 15.941 18.593 15.532L15.662 12.601C15.513 12.453 15.395 12.334 15.301 12.232C15.243 12.168 15.194 12.13 15.177 12.077H15.176C15.16 12.027 15.16 11.973 15.176 11.923H15.177C15.194 11.87 15.243 11.832 15.301 11.768L15.662 11.399L18.593 8.468C19.002 8.059 19.199 7.847 19.345 7.608C19.496 7.362 19.607 7.094 19.674 6.814C19.739 6.541 19.75 6.253 19.75 5.675V3.6C19.75 2.856 19.704 2.49 19.559 2.205C19.391 1.876 19.124 1.609 18.795 1.441C18.51 1.296 18.144 1.25 17.4 1.25ZM17.4 2.75C17.61 2.75 17.777 2.75 17.916 2.756C18.002 2.76 18.064 2.752 18.114 2.777C18.161 2.801 18.199 2.84 18.223 2.887C18.248 2.936 18.24 2.998 18.244 3.084C18.25 3.223 18.25 3.39 18.25 3.6V5.675C18.25 6.075 18.261 6.275 18.215 6.463C18.185 6.591 18.134 6.713 18.066 6.825C17.965 6.99 17.815 7.124 17.532 7.407L14.601 10.338C14.075 10.864 13.848 11.156 13.75 11.459C13.636 11.811 13.636 12.189 13.75 12.541C13.848 12.844 14.075 13.136 14.601 13.662L17.532 16.593C17.815 16.876 17.965 17.01 18.066 17.175C18.134 17.287 18.185 17.409 18.215 17.537C18.261 17.725 18.25 17.925 18.25 18.325V20.4C18.25 20.61 18.25 20.777 18.244 20.916C18.24 21.002 18.248 21.064 18.223 21.113C18.199 21.161 18.161 21.199 18.113 21.223C18.064 21.248 18.002 21.24 17.916 21.244C17.777 21.25 17.61 21.25 17.4 21.25H6.6C6.39 21.25 6.223 21.25 6.084 21.244C5.998 21.24 5.936 21.248 5.887 21.223C5.84 21.199 5.801 21.161 5.777 21.114C5.752 21.064 5.76 21.002 5.756 20.916C5.75 20.777 5.75 20.61 5.75 20.4V18.326C5.75 17.925 5.739 17.725 5.785 17.537C5.815 17.409 5.866 17.287 5.934 17.175C6.035 17.01 6.185 16.876 6.468 16.593L9.399 13.662C9.925 13.136 10.152 12.844 10.25 12.541C10.364 12.189 10.364 11.811 10.25 11.459C10.152 11.156 9.925 10.864 9.399 10.338L6.468 7.407C6.185 7.124 6.035 6.99 5.934 6.825C5.866 6.713 5.815 6.591 5.785 6.463C5.739 6.275 5.75 6.075 5.75 5.675V3.6C5.75 3.39 5.75 3.223 5.756 3.084C5.76 2.998 5.752 2.936 5.777 2.887C5.801 2.839 5.839 2.801 5.886 2.777C5.936 2.752 5.998 2.76 6.084 2.756C6.223 2.75 6.39 2.75 6.6 2.75H17.4Z"
        fill="#303233" />
</svg>
