<svg width="24" height="24" viewBox="0 0 24 24" fill="none" xmlns="http://www.w3.org/2000/svg">
    <path fill-rule="evenodd" clip-rule="evenodd"
        d="M18.25 8C18.25 9.24264 17.2426 10.25 16 10.25C14.7574 10.25 13.75 9.24264 13.75 8C13.75 6.75736 14.7574 5.75 16 5.75C17.2426 5.75 18.25 6.75736 18.25 8ZM16.75 11.675C18.4617 11.3275 19.75 9.81422 19.75 8C19.75 6.18578 18.4617 4.67247 16.75 4.32501L16.75 3C16.75 2.58579 16.4142 2.25 16 2.25C15.5858 2.25 15.25 2.58579 15.25 3L15.25 4.32501C13.5383 4.67247 12.25 6.18578 12.25 8C12.25 9.81422 13.5383 11.3275 15.25 11.675L15.25 21C15.25 21.4142 15.5858 21.75 16 21.75C16.4142 21.75 16.75 21.4142 16.75 21L16.75 11.675ZM10.25 16C10.25 17.2426 9.24264 18.25 8 18.25C6.75736 18.25 5.75 17.2426 5.75 16C5.75 14.7574 6.75736 13.75 8 13.75C9.24264 13.75 10.25 14.7574 10.25 16ZM8.75 19.675C10.4617 19.3275 11.75 17.8142 11.75 16C11.75 14.1858 10.4617 12.6725 8.75 12.325L8.75 3C8.75 2.58579 8.41421 2.25 8 2.25C7.58579 2.25 7.25 2.58579 7.25 3L7.25 12.325C5.53832 12.6725 4.25 14.1858 4.25 16C4.25 17.8142 5.53832 19.3275 7.25 19.675L7.25 21C7.25 21.4142 7.58579 21.75 8 21.75C8.41421 21.75 8.75 21.4142 8.75 21L8.75 19.675Z"
        fill="#303233" />
</svg>
