<svg width="24" height="24" viewBox="0 0 24 24" fill="none" xmlns="http://www.w3.org/2000/svg">
    <path fill-rule="evenodd" clip-rule="evenodd"
        d="M2.25 12C2.25 6.61522 6.61522 2.25 12 2.25C17.3848 2.25 21.75 6.61522 21.75 12V16.5C21.75 20.5041 18.5041 23.75 14.5 23.75H11.5C10.8096 23.75 10.25 23.1904 10.25 22.5C10.25 21.8096 10.8096 21.25 11.5 21.25H12.5C13.1047 21.25 13.6092 21.6794 13.725 22.25H14.5C16.5138 22.25 18.2857 21.2148 19.3128 19.6475C19.053 19.7144 18.7807 19.75 18.5 19.75C16.7051 19.75 15.25 18.2949 15.25 16.5V14.5C15.25 12.7051 16.7051 11.25 18.5 11.25C19.1428 11.25 19.7421 11.4366 20.2465 11.7587C20.1189 7.31396 16.4756 3.75 12 3.75C7.52436 3.75 3.88113 7.31395 3.75346 11.7587C4.25789 11.4366 4.85715 11.25 5.5 11.25C7.29493 11.25 8.75 12.7051 8.75 14.5V16.5C8.75 18.2949 7.29493 19.75 5.5 19.75C3.70507 19.75 2.25 18.2949 2.25 16.5V12ZM18.5 12.75C19.4665 12.75 20.25 13.5335 20.25 14.5V16.5C20.25 17.4665 19.4665 18.25 18.5 18.25C17.5335 18.25 16.75 17.4665 16.75 16.5V14.5C16.75 13.5335 17.5335 12.75 18.5 12.75ZM3.75 16.5C3.75 17.4665 4.5335 18.25 5.5 18.25C6.4665 18.25 7.25 17.4665 7.25 16.5V14.5C7.25 13.5335 6.4665 12.75 5.5 12.75C4.5335 12.75 3.75 13.5335 3.75 14.5V16.5Z"
        fill="#303233" />
</svg>
