<svg width="16" height="16" viewBox="0 0 16 16" fill="none" xmlns="http://www.w3.org/2000/svg">
    <path fill-rule="evenodd" clip-rule="evenodd"
        d="M5.60532 0.749995C5.61477 0.749996 5.62423 0.749997 5.63371 0.749997L10.3899 0.749995C10.6226 0.749967 10.8451 0.749941 11.0286 0.766595C11.2216 0.78411 11.4749 0.826539 11.7111 0.983102C12.0186 1.18695 12.2332 1.50394 12.3082 1.86516C12.3659 2.14259 12.3112 2.39351 12.2558 2.5792C12.2031 2.75576 12.1204 2.96238 12.034 3.17842L11.3683 4.84258L11.3512 4.88558L11.3478 4.89446L11.3477 4.90399L11.3476 4.95028V6.33518C11.3476 6.36983 11.3476 6.39621 11.3478 6.41903C11.3478 6.42562 11.3479 6.43151 11.348 6.43678C11.3512 6.44094 11.3548 6.44558 11.3589 6.45076C11.373 6.46869 11.3895 6.48929 11.4111 6.51635L12.4516 7.81689C12.6507 8.06572 12.8311 8.29121 12.9583 8.48367C13.0822 8.67099 13.2448 8.9526 13.2452 9.29848C13.2456 9.72484 13.0518 10.1282 12.7186 10.3942C12.4483 10.6099 12.1268 10.6589 11.9031 10.6792C11.6733 10.7 11.3845 10.7 11.0659 10.7L8.74759 10.7L8.74759 14.5C8.74759 14.9142 8.41181 15.25 7.99759 15.25C7.58338 15.25 7.24759 14.9142 7.24759 14.5L7.24759 10.7L4.92933 10.7C4.61064 10.7 4.32185 10.7 4.09207 10.6792C3.86843 10.6589 3.54693 10.6099 3.27661 10.3942C2.94339 10.1282 2.74954 9.72484 2.75 9.29848C2.75037 8.9526 2.91301 8.67099 3.03686 8.48367C3.1641 8.29121 3.34452 8.06571 3.54362 7.81687L4.58405 6.51635C4.60569 6.48929 4.62217 6.46869 4.63628 6.45076C4.64036 6.44558 4.64398 6.44094 4.64722 6.43678C4.64729 6.43151 4.64736 6.42562 4.64741 6.41903C4.64759 6.39621 4.64759 6.36983 4.64759 6.33518V4.95028L4.64754 4.90399L4.64743 4.89446L4.64399 4.88558L4.62685 4.84258L3.97174 3.20479C3.96822 3.19599 3.9647 3.1872 3.96119 3.17843C3.87474 2.96239 3.79207 2.75576 3.73938 2.5792C3.68397 2.39351 3.6293 2.14259 3.68695 1.86516C3.76201 1.50394 3.97662 1.18695 4.28413 0.983102C4.52031 0.826539 4.77358 0.78411 4.96657 0.766595C5.15007 0.749941 5.37262 0.749967 5.60532 0.749995ZM11.0337 9.2C11.2959 9.2 11.4832 9.1996 11.6248 9.19407C11.5406 9.08003 11.424 8.93356 11.2602 8.72883L10.2398 7.45339C10.2341 7.44625 10.2282 7.43883 10.222 7.43113C10.1569 7.35023 10.0672 7.23884 10.0009 7.10892C9.94348 6.99659 9.90154 6.87702 9.87618 6.75345C9.84685 6.61053 9.84725 6.46756 9.84754 6.36373C9.84757 6.35385 9.84759 6.34432 9.84759 6.33518V4.95028C9.84759 4.94524 9.84759 4.93999 9.84758 4.93454C9.84749 4.87676 9.84736 4.79721 9.85671 4.71571C9.8648 4.64511 9.87826 4.57523 9.89696 4.50667C9.91856 4.42753 9.94822 4.35372 9.96976 4.3001C9.97179 4.29505 9.97375 4.29017 9.97562 4.28549L10.6307 2.6477C10.7018 2.47015 10.7506 2.34719 10.784 2.25397C10.685 2.25036 10.5527 2.25 10.3615 2.25H5.63371C5.44248 2.25 5.31019 2.25036 5.21123 2.25397C5.24463 2.34719 5.29343 2.47015 5.36445 2.6477L6.01957 4.28549C6.02144 4.29017 6.0234 4.29505 6.02543 4.3001C6.04697 4.35372 6.07663 4.42753 6.09823 4.50667C6.11693 4.57523 6.13039 4.64511 6.13848 4.71571C6.14783 4.79721 6.1477 4.87676 6.14761 4.93455C6.1476 4.93999 6.14759 4.94524 6.14759 4.95028V6.33518C6.14759 6.34432 6.14762 6.35385 6.14765 6.36373C6.14794 6.46756 6.14834 6.61053 6.11901 6.75345C6.09365 6.87702 6.0517 6.99659 5.99432 7.10892C5.92794 7.23884 5.83832 7.35023 5.77322 7.43113C5.76703 7.43883 5.76106 7.44625 5.75535 7.45339L4.73499 8.72884C4.57121 8.93356 4.45454 9.08003 4.3704 9.19407C4.51201 9.1996 4.69927 9.2 4.96144 9.2H11.0337Z"
        fill="#303233" />
</svg>
