<svg width="16" height="16" viewBox="0 0 16 16" fill="none" xmlns="http://www.w3.org/2000/svg">
    <path fill-rule="evenodd" clip-rule="evenodd"
        d="M2.35404 1.64645C2.15878 1.45118 1.8422 1.45118 1.64693 1.64645C1.45167 1.84171 1.45167 2.15829 1.64693 2.35355L3.79438 4.501C2.52961 5.45607 1.66966 6.62998 1.25544 7.26839L1.24046 7.29141C1.16222 7.41146 1.07305 7.54829 1.0275 7.74169C0.990843 7.89735 0.990831 8.10248 1.02747 8.25815C1.07299 8.45153 1.1619 8.588 1.23991 8.70774L1.25476 8.73057C1.64194 9.32745 2.41371 10.3846 3.53642 11.2969C4.66061 12.2104 6.16424 13 8 13C9.28742 13 10.4127 12.6112 11.3572 12.0638L13.6469 14.3536C13.8422 14.5488 14.1588 14.5488 14.354 14.3536C14.5493 14.1583 14.5493 13.8417 14.354 13.6464L2.35404 1.64645ZM10.6216 11.3283L9.33847 10.0451C8.95161 10.2881 8.49173 10.4286 8 10.4286C6.64255 10.4286 5.51913 9.35379 5.51913 8C5.51913 7.49797 5.67499 7.03231 5.93989 6.64651L4.50921 5.21582C3.3168 6.0835 2.49162 7.20038 2.09432 7.81269C2.04524 7.88834 2.02466 7.92077 2.01112 7.94612C2.0047 7.95814 2.00291 7.96291 2.00173 7.96741L2.00122 7.97197C2.00053 7.97912 2 7.98886 2 7.99998C2 8.01109 2.00053 8.02083 2.00122 8.02798L2.00173 8.03255C2.00293 8.03715 2.00469 8.04184 2.01104 8.05373C2.02444 8.07886 2.04483 8.111 2.09372 8.18637C2.44963 8.73506 3.15535 9.6987 4.16705 10.5208C5.17727 11.3417 6.46498 12 8 12C8.97712 12 9.85303 11.7336 10.6216 11.3283ZM6.66806 7.37468C6.5723 7.56407 6.51913 7.77626 6.51913 8C6.51913 8.77645 7.16944 9.42857 8 9.42857C8.21423 9.42857 8.41704 9.3849 8.59996 9.30658L6.66806 7.37468Z"
        fill="#303233" />
    <path
        d="M7.24094 4.05425C7.48617 4.01895 7.73919 4 8 4C9.53502 4 10.8227 4.65834 11.8329 5.47922C12.8446 6.3013 13.5504 7.26495 13.9063 7.81363C13.9552 7.889 13.9756 7.92115 13.989 7.94628C13.9953 7.95817 13.9971 7.96286 13.9983 7.96746L13.9988 7.97202C13.9995 7.97917 14 7.98892 14 8.00003C14 8.01115 13.9995 8.0209 13.9988 8.02805L13.9983 8.03257C13.9971 8.03702 13.9953 8.04182 13.9888 8.05395C13.9752 8.07942 13.9545 8.11201 13.9053 8.18783C13.7169 8.47821 13.4283 8.88821 13.0459 9.33284C12.8658 9.5422 12.8896 9.85789 13.099 10.038C13.3083 10.218 13.624 10.1943 13.8041 9.98489C14.2215 9.49949 14.5367 9.05198 14.7442 8.73219L14.7592 8.70906C14.8376 8.58883 14.9269 8.45179 14.9725 8.25837C15.0092 8.1027 15.0092 7.89755 14.9725 7.74188C14.927 7.54849 14.8381 7.41201 14.7601 7.29227L14.7452 7.26943C14.3581 6.67255 13.5863 5.61543 12.4636 4.70314C11.3394 3.78965 9.83576 3 8 3C7.69057 3 7.38993 3.02249 7.09846 3.06445C6.82514 3.10379 6.63546 3.35726 6.6748 3.63059C6.71415 3.90391 6.96762 4.09359 7.24094 4.05425Z"
        fill="#303233" />
</svg>
