<svg width="16" height="16" viewBox="0 0 16 16" fill="none" xmlns="http://www.w3.org/2000/svg">
    <path fill-rule="evenodd" clip-rule="evenodd"
        d="M1.85355 1.14645C1.65829 0.951184 1.34171 0.951184 1.14645 1.14645C0.951184 1.34171 0.951184 1.65829 1.14645 1.85355L4 4.70711V6.57095C3.77344 6.60954 3.56383 6.67119 3.36502 6.77248C2.89462 7.01217 2.51217 7.39462 2.27248 7.86502C2.12159 8.16117 2.05868 8.48126 2.02891 8.84569C1.99999 9.19963 2 9.6367 2 10.1786V10.8214C2 11.3633 1.99999 11.8004 2.02891 12.1543C2.05868 12.5187 2.12159 12.8388 2.27248 13.135C2.51217 13.6054 2.89462 13.9878 3.36502 14.2275C3.66117 14.3784 3.98126 14.4413 4.34569 14.4711C4.69963 14.5 5.13671 14.5 5.67861 14.5H10.3214C10.8633 14.5 11.3004 14.5 11.6543 14.4711C12.0187 14.4413 12.3388 14.3784 12.635 14.2275C12.8261 14.1301 13.0028 14.0092 13.1612 13.8683L14.1464 14.8536C14.3417 15.0488 14.6583 15.0488 14.8536 14.8536C15.0488 14.6583 15.0488 14.3417 14.8536 14.1464L1.85355 1.14645ZM12.452 13.1591L6.79289 7.5H5.7C5.1317 7.5 4.73554 7.50039 4.42712 7.52559C4.12454 7.55031 3.95069 7.5964 3.81901 7.66349C3.53677 7.8073 3.3073 8.03677 3.16349 8.31901C3.0964 8.45069 3.05031 8.62454 3.02559 8.92712C3.00039 9.23554 3 9.6317 3 10.2V10.8C3 11.3683 3.00039 11.7645 3.02559 12.0729C3.05031 12.3755 3.0964 12.5493 3.16349 12.681C3.3073 12.9632 3.53677 13.1927 3.81901 13.3365C3.95069 13.4036 4.12454 13.4497 4.42712 13.4744C4.73554 13.4996 5.1317 13.5 5.7 13.5H10.3C10.8683 13.5 11.2645 13.4996 11.5729 13.4744C11.8755 13.4497 12.0493 13.4036 12.181 13.3365C12.278 13.2871 12.3688 13.2275 12.452 13.1591ZM5.79289 6.5L5 5.70711V6.50274C5.20573 6.5 5.43123 6.5 5.67857 6.5H5.79289Z"
        fill="#303233" />
    <path
        d="M5.80339 2.15664C6.4341 1.74153 7.18961 1.5 8 1.5C10.2091 1.5 12 3.29086 12 5.5V6.57095C12.2266 6.60954 12.4362 6.67119 12.635 6.77248C13.1054 7.01217 13.4878 7.39462 13.7275 7.86502C13.8784 8.16117 13.9413 8.48126 13.9711 8.84569C14 9.19961 14 9.63667 14 10.1785V10.5C14 10.7761 13.7761 11 13.5 11C13.2239 11 13 10.7761 13 10.5V10.2C13 9.6317 12.9996 9.23554 12.9744 8.92712C12.9497 8.62454 12.9036 8.45069 12.8365 8.31901C12.6927 8.03677 12.4632 7.8073 12.181 7.66349C12.0493 7.5964 11.8755 7.55031 11.5729 7.52559C11.2645 7.50039 10.8683 7.5 10.3 7.5H10C9.72386 7.5 9.5 7.27614 9.5 7C9.5 6.72386 9.72386 6.5 10 6.5L10.3214 6.5C10.5687 6.5 10.7943 6.5 11 6.50274V5.5C11 3.84315 9.65685 2.5 8 2.5C7.39093 2.5 6.82566 2.68097 6.35317 2.99195C6.29804 3.02824 6.24417 3.06629 6.19164 3.10605C5.97144 3.27269 5.65785 3.22927 5.49121 3.00907C5.32458 2.78888 5.36799 2.47528 5.58819 2.30865C5.65815 2.2557 5.72992 2.205 5.80339 2.15664Z"
        fill="#303233" />
</svg>
