<svg width="24" height="24" viewBox="0 0 24 24" fill="none" xmlns="http://www.w3.org/2000/svg">
    <path fill-rule="evenodd" clip-rule="evenodd"
        d="M4.25 8C4.25 5.37665 6.37665 3.25 9 3.25C11.6234 3.25 13.75 5.37665 13.75 8C13.75 10.6234 11.6234 12.75 9 12.75C6.37665 12.75 4.25 10.6234 4.25 8ZM9 4.75C7.20507 4.75 5.75 6.20507 5.75 8C5.75 9.79493 7.20507 11.25 9 11.25C10.7949 11.25 12.25 9.79493 12.25 8C12.25 6.20507 10.7949 4.75 9 4.75Z"
        fill="#303233" />
    <path
        d="M23.5303 9.46967C23.8232 9.76256 23.8232 10.2374 23.5303 10.5303L19.5303 14.5303C19.2374 14.8232 18.7626 14.8232 18.4697 14.5303L16.4697 12.5303C16.1768 12.2374 16.1768 11.7626 16.4697 11.4697C16.7626 11.1768 17.2374 11.1768 17.5303 11.4697L19 12.9393L22.4697 9.46967C22.7626 9.17678 23.2374 9.17678 23.5303 9.46967Z"
        fill="#303233" />
    <path
        d="M1.97846 21.1869C2.78333 18.0598 5.62292 15.75 9.0001 15.75C12.3773 15.75 15.2169 18.0598 16.0217 21.1869C16.125 21.5881 16.5339 21.8296 16.935 21.7263C17.3361 21.6231 17.5776 21.2142 17.4744 20.8131C16.5031 17.0393 13.0783 14.25 9.0001 14.25C4.92192 14.25 1.49711 17.0393 0.525807 20.8131C0.42256 21.2142 0.664051 21.6231 1.06519 21.7263C1.46633 21.8296 1.87522 21.5881 1.97846 21.1869Z"
        fill="#303233" />
</svg>
