<svg width="16" height="16" viewBox="0 0 16 16" fill="none" xmlns="http://www.w3.org/2000/svg">
    <g clip-path="url(#clip0_53_5704)">
        <path fill-rule="evenodd" clip-rule="evenodd"
            d="M1.39274 1.39274C1.80428 0.9812 2.36244 0.75 2.94444 0.75H13.0556C13.6376 0.75 14.1957 0.9812 14.6073 1.39274C15.0188 1.80428 15.25 2.36244 15.25 2.94444V10.0556C15.25 10.6376 15.0188 11.1957 14.6073 11.6073C14.1957 12.0188 13.6376 12.25 13.0556 12.25H4.81066L2.03033 15.0303C1.81583 15.2448 1.49324 15.309 1.21299 15.1929C0.932732 15.0768 0.75 14.8033 0.75 14.5V2.94444C0.75 2.36244 0.9812 1.80428 1.39274 1.39274Z"
            fill="#303233" />
    </g>
    <defs>
        <clipPath id="clip0_53_5704">
            <rect width="16" height="16" fill="white" />
        </clipPath>
    </defs>
</svg>
