<svg width="16" height="16" viewBox="0 0 16 16" fill="none" xmlns="http://www.w3.org/2000/svg">
    <g clip-path="url(#clip0_53_8614)">
        <path fill-rule="evenodd" clip-rule="evenodd"
            d="M8 0.75C3.99594 0.75 0.75 3.99594 0.75 8C0.75 12.0041 3.99594 15.25 8 15.25C12.0041 15.25 15.25 12.0041 15.25 8C15.25 3.99594 12.0041 0.75 8 0.75ZM5.99582 5C5.44598 5 5.00024 5.44772 5.00024 6C5.00024 6.55228 5.44598 7 5.99582 7H6.00467C6.55451 7 7.00024 6.55228 7.00024 6C7.00024 5.44772 6.55451 5 6.00467 5H5.99582ZM11.0451 10.1513C11.3297 10.4522 11.3166 10.9269 11.0156 11.2115C10.7147 11.4962 10.24 11.483 9.95539 11.182C9.65692 10.8665 8.9597 10.2749 7.99992 10.2749C7.04076 10.2749 6.34381 10.8658 6.04497 11.1815C5.76024 11.4823 5.28555 11.4954 4.98471 11.2107C4.68387 10.926 4.6708 10.4513 4.95553 10.1504C5.35547 9.72785 6.42285 8.7749 7.99992 8.7749C9.57795 8.7749 10.6457 9.729 11.0451 10.1513ZM9.00024 6C9.00024 5.44772 9.44598 5 9.99582 5H10.0047C10.5545 5 11.0002 5.44772 11.0002 6C11.0002 6.55228 10.5545 7 10.0047 7H9.99582C9.44598 7 9.00024 6.55228 9.00024 6Z"
            fill="#303233" />
    </g>
    <defs>
        <clipPath id="clip0_53_8614">
            <rect width="16" height="16" fill="white" />
        </clipPath>
    </defs>
</svg>
