<svg width="16" height="16" viewBox="0 0 16 16" fill="none" xmlns="http://www.w3.org/2000/svg">
    <path fill-rule="evenodd" clip-rule="evenodd"
        d="M6.34682 1H9.65318C9.96295 0.999993 10.2253 0.999987 10.4403 1.01756C10.6658 1.03598 10.883 1.07618 11.09 1.18166C11.4036 1.34145 11.6586 1.59641 11.8183 1.91002C11.9238 2.11703 11.964 2.33422 11.9824 2.55969C12 2.77474 12 3.03704 12 3.34684V4.00193C12.2649 4.00472 12.4973 4.01155 12.7015 4.02823C13.0576 4.05732 13.3715 4.11887 13.6623 4.26703C14.1233 4.50192 14.4981 4.87673 14.733 5.33772C14.8812 5.62852 14.9427 5.94244 14.9718 6.29853C15 6.64412 15 7.07073 15 7.59865L15.0001 8.97623C15.0002 9.50669 15.0004 9.86665 14.9166 10.1794C14.6901 11.0244 14.0301 11.6863 13.1841 11.913C12.8767 11.9953 12.5217 11.9998 11.9989 12C11.9972 12.1627 11.993 12.3084 11.9824 12.4371C11.964 12.6626 11.9238 12.8799 11.8183 13.087C11.6586 13.4005 11.4037 13.6556 11.09 13.8155C10.8843 13.9203 10.6682 13.9616 10.4421 13.9809C10.2218 13.9997 9.95291 14 9.63333 14H6.36667C6.04709 14 5.77824 13.9997 5.55788 13.9809C5.3318 13.9616 5.11575 13.9203 4.91002 13.8155C4.59628 13.6556 4.34138 13.4005 4.18166 13.087C4.07616 12.8799 4.03597 12.6626 4.01755 12.4371C4.00704 12.3084 4.00282 12.1627 4.00113 12C3.47835 11.9998 3.12335 11.9953 2.81593 11.913C1.97001 11.6863 1.30994 11.0244 1.08352 10.1794C0.999712 9.86665 0.999835 9.5067 1.00002 8.97626L1.00003 7.59866C1.00003 7.07072 1.00002 6.64413 1.02826 6.29853C1.05735 5.94244 1.1189 5.62852 1.26707 5.33772C1.50196 4.87673 1.87676 4.50192 2.33776 4.26703C2.62855 4.11887 2.94247 4.05732 3.29856 4.02823C3.50272 4.01155 3.73513 4.00472 4 4.00193L4 3.34683C3.99999 3.03704 3.99999 2.77474 4.01756 2.55969C4.03598 2.33422 4.07618 2.11703 4.18166 1.91002C4.34145 1.59641 4.59641 1.34145 4.91002 1.18166C5.11703 1.07618 5.33422 1.03598 5.55969 1.01756C5.77473 0.999987 6.03705 0.999993 6.34682 1ZM11 3.36667V4H5V3.36667C5 3.03172 5.00039 2.81058 5.01424 2.64112C5.0276 2.4775 5.05098 2.40656 5.07266 2.36401C5.13658 2.23857 5.23857 2.13658 5.36401 2.07266C5.40656 2.05098 5.4775 2.0276 5.64112 2.01424C5.81058 2.00039 6.03172 2 6.36667 2H9.63333C9.96828 2 10.1894 2.00039 10.3589 2.01424C10.5225 2.0276 10.5934 2.05098 10.636 2.07266C10.7614 2.13658 10.8634 2.23857 10.9273 2.36401C10.949 2.40656 10.9724 2.4775 10.9858 2.64112C10.9996 2.81058 11 3.03172 11 3.36667ZM5.36401 9.07266C5.40656 9.05098 5.4775 9.0276 5.64112 9.01423C5.81058 9.00039 6.03172 9 6.36667 9H9.63333C9.96828 9 10.1894 9.00039 10.3589 9.01423C10.5225 9.0276 10.5934 9.05098 10.636 9.07266C10.7614 9.13658 10.8634 9.23857 10.9273 9.36401C10.949 9.40656 10.9724 9.4775 10.9858 9.64112C10.9996 9.81058 11 10.0317 11 10.3667V11.63C11 11.9649 10.9996 12.1862 10.9858 12.3557C10.9724 12.5195 10.949 12.5905 10.9273 12.633C10.8634 12.7586 10.7613 12.8607 10.636 12.9245C10.5922 12.9468 10.5201 12.9706 10.3571 12.9845C10.1883 12.9989 9.96715 13 9.63333 13H6.36667C6.03285 13 5.81165 12.9989 5.64293 12.9845C5.47991 12.9706 5.40784 12.9468 5.36401 12.9245C5.2387 12.8607 5.13665 12.7586 5.07266 12.633C5.05101 12.5905 5.02761 12.5195 5.01424 12.3557C5.00039 12.1862 5 11.9649 5 11.63V10.3667C5 10.0317 5.00039 9.81058 5.01424 9.64112C5.0276 9.4775 5.05098 9.40656 5.07266 9.36401C5.13658 9.23857 5.23857 9.13658 5.36401 9.07266ZM9.5 6.5C9.5 6.22386 9.72386 6 10 6H12C12.2761 6 12.5 6.22386 12.5 6.5C12.5 6.77614 12.2761 7 12 7H10C9.72386 7 9.5 6.77614 9.5 6.5Z"
        fill="#303233" />
</svg>
