<svg width="16" height="16" viewBox="0 0 16 16" fill="none" xmlns="http://www.w3.org/2000/svg">
    <path fill-rule="evenodd" clip-rule="evenodd"
        d="M15 8C15 4.712 11.887 2 8 2C4.113 2 1 4.712 1 8C1 8.984 1.276 9.91399 1.767 10.736C1.866 10.901 1.908 11.1 1.838 11.279L1.035 13.317C0.968 13.486 0.999 13.679 1.115 13.819C1.231 13.959 1.414 14.025 1.593 13.991L4.712 13.398C4.82 13.377 4.93 13.395 5.032 13.436C5.971 13.811 6.98 14.003 8.001 14C11.887 14 15 11.288 15 8ZM14 8C14 10.786 11.292 13 8 13C7.999 13 7.999 13 7.998 13C7.106 13.003 6.224 12.835 5.403 12.507C5.403 12.507 5.403 12.507 5.403 12.506C5.123 12.395 4.818 12.359 4.522 12.416C4.523 12.416 2.298 12.839 2.298 12.839L2.768 11.645C2.952 11.178 2.883 10.654 2.626 10.223C2.626 10.223 2.626 10.223 2.626 10.222C2.226 9.554 2 8.8 2 8C2 5.214 4.708 3 8 3C11.292 3 14 5.214 14 8Z"
        fill="#303233" />
</svg>
