<svg width="24" height="24" viewBox="0 0 24 24" fill="none" xmlns="http://www.w3.org/2000/svg">
    <path
        d="M4.47825 2.25H19.5218C19.736 2.24999 19.9329 2.24998 20.0982 2.26126C20.2759 2.27338 20.4712 2.30099 20.6697 2.38321C21.0985 2.56083 21.4392 2.90151 21.6168 3.33031C21.699 3.52881 21.7266 3.72415 21.7387 3.90179C21.75 4.06712 21.75 4.26397 21.75 4.47824V4.52176C21.75 4.73604 21.75 4.93289 21.7387 5.09821C21.7266 5.27585 21.699 5.47119 21.6168 5.6697C21.4392 6.0985 21.0985 6.43918 20.6697 6.61679C20.4712 6.69901 20.2759 6.72663 20.0982 6.73875C19.9329 6.75003 19.736 6.75002 19.5218 6.75H4.47824C4.26397 6.75002 4.06712 6.75003 3.90179 6.73875C3.72415 6.72663 3.52881 6.69901 3.33031 6.61679C2.90151 6.43918 2.56083 6.0985 2.38321 5.6697C2.30099 5.47119 2.27338 5.27585 2.26126 5.09821C2.24998 4.93289 2.24999 4.73606 2.25 4.5218V4.47825C2.24999 4.26398 2.24998 4.06711 2.26126 3.90179C2.27338 3.72415 2.30099 3.52881 2.38321 3.33031C2.56083 2.90151 2.90151 2.56083 3.33031 2.38321C3.52881 2.30099 3.72415 2.27338 3.90179 2.26126C4.06711 2.24998 4.26398 2.24999 4.47825 2.25Z"
        fill="#303233" />
    <path
        d="M4.47825 9.25H19.5218C19.736 9.24999 19.9329 9.24998 20.0982 9.26126C20.2759 9.27338 20.4712 9.30099 20.6697 9.38321C21.0985 9.56083 21.4392 9.90151 21.6168 10.3303C21.699 10.5288 21.7266 10.7242 21.7387 10.9018C21.75 11.0671 21.75 11.264 21.75 11.4782V11.5218C21.75 11.736 21.75 11.9329 21.7387 12.0982C21.7266 12.2759 21.699 12.4712 21.6168 12.6697C21.4392 13.0985 21.0985 13.4392 20.6697 13.6168C20.4712 13.699 20.2759 13.7266 20.0982 13.7387C19.9329 13.75 19.7361 13.75 19.5218 13.75H4.47824C4.26399 13.75 4.0671 13.75 3.90179 13.7387C3.72415 13.7266 3.52881 13.699 3.33031 13.6168C2.90151 13.4392 2.56083 13.0985 2.38321 12.6697C2.30099 12.4712 2.27338 12.2759 2.26126 12.0982C2.24998 11.9329 2.24999 11.7361 2.25 11.5218V11.4782C2.24999 11.264 2.24998 11.0671 2.26126 10.9018C2.27338 10.7242 2.30099 10.5288 2.38321 10.3303C2.56083 9.90151 2.90151 9.56083 3.33031 9.38321C3.52881 9.30099 3.72415 9.27338 3.90179 9.26126C4.06712 9.24998 4.26397 9.24999 4.47825 9.25Z"
        fill="#303233" />
    <path
        d="M4.47825 16.25C4.26397 16.25 4.06712 16.25 3.90179 16.2613C3.72415 16.2734 3.52881 16.301 3.33031 16.3832C2.90151 16.5608 2.56083 16.9015 2.38321 17.3303C2.30099 17.5288 2.27338 17.7242 2.26126 17.9018C2.24998 18.0671 2.24999 18.2639 2.25 18.4782V18.5218C2.24999 18.736 2.24998 18.9329 2.26126 19.0982C2.27338 19.2759 2.30099 19.4712 2.38321 19.6697C2.56083 20.0985 2.90151 20.4392 3.33031 20.6168C3.52881 20.699 3.72415 20.7266 3.90179 20.7387C4.0671 20.75 4.26393 20.75 4.47819 20.75H19.5218C19.736 20.75 19.9329 20.75 20.0982 20.7387C20.2759 20.7266 20.4712 20.699 20.6697 20.6168C21.0985 20.4392 21.4392 20.0985 21.6168 19.6697C21.699 19.4712 21.7266 19.2759 21.7387 19.0982C21.75 18.9329 21.75 18.736 21.75 18.5218V18.4782C21.75 18.264 21.75 18.0671 21.7387 17.9018C21.7266 17.7242 21.699 17.5288 21.6168 17.3303C21.4392 16.9015 21.0985 16.5608 20.6697 16.3832C20.4712 16.301 20.2759 16.2734 20.0982 16.2613C19.9329 16.25 19.736 16.25 19.5218 16.25H4.47825Z"
        fill="#303233" />
</svg>
