<svg width="16" height="16" viewBox="0 0 16 16" fill="none" xmlns="http://www.w3.org/2000/svg">
    <path fill-rule="evenodd" clip-rule="evenodd"
        d="M11.3018 1H4.69823C4.14722 0.999995 3.70278 0.999991 3.34308 1.02986C2.97267 1.06062 2.64757 1.12563 2.34756 1.28147C1.89096 1.51866 1.51866 1.89096 1.28147 2.34756C1.12563 2.64757 1.06062 2.97267 1.02986 3.34308C0.999991 3.70278 0.999995 4.14721 1 4.69822V11.3018C0.999995 11.8528 0.999991 12.2972 1.02986 12.6569C1.06062 13.0273 1.12563 13.3524 1.28147 13.6524C1.51866 14.109 1.89096 14.4813 2.34756 14.7185C2.64757 14.8744 2.97267 14.9394 3.34308 14.9701C3.70277 15 4.14719 15 4.6982 15H11.3018C11.8528 15 12.2972 15 12.6569 14.9701C13.0273 14.9394 13.3524 14.8744 13.6524 14.7185C14.109 14.4813 14.4813 14.109 14.7185 13.6524C14.8744 13.3524 14.9394 13.0273 14.9701 12.6569C15 12.2972 15 11.8528 15 11.3018V4.69825C15 4.14724 15 3.70277 14.9701 3.34308C14.9394 2.97267 14.8744 2.64757 14.7185 2.34756C14.4813 1.89096 14.109 1.51866 13.6524 1.28147C13.3524 1.12563 13.0273 1.06062 12.6569 1.02986C12.2972 0.999991 11.8528 0.999995 11.3018 1ZM2.80854 2.16888C2.94201 2.09955 3.11839 2.05196 3.42584 2.02643C3.73928 2.0004 4.14212 2 4.72 2H7.5V7.5H2V4.72C2 4.14212 2.0004 3.73928 2.02643 3.42584C2.05196 3.11839 2.09955 2.94201 2.16888 2.80854C2.31119 2.53457 2.53457 2.31119 2.80854 2.16888ZM2 8.5V11.28C2 11.8579 2.0004 12.2607 2.02643 12.5742C2.05196 12.8816 2.09955 13.058 2.16888 13.1915C2.31119 13.4654 2.53457 13.6888 2.80854 13.8311C2.94201 13.9005 3.11839 13.948 3.42584 13.9736C3.73928 13.9996 4.14212 14 4.72 14H7.5V8.5H2ZM8.5 14H11.28C11.8579 14 12.2607 13.9996 12.5742 13.9736C12.8816 13.948 13.058 13.9005 13.1915 13.8311C13.4654 13.6888 13.6888 13.4654 13.8311 13.1915C13.9005 13.058 13.948 12.8816 13.9736 12.5742C13.9996 12.2607 14 11.8579 14 11.28V8.5H8.5V14ZM14 7.5V4.72C14 4.14212 13.9996 3.73928 13.9736 3.42584C13.948 3.11839 13.9005 2.94201 13.8311 2.80854C13.6888 2.53457 13.4654 2.31119 13.1915 2.16888C13.058 2.09955 12.8816 2.05196 12.5742 2.02643C12.2607 2.0004 11.8579 2 11.28 2H8.5V7.5H14Z"
        fill="#303233" />
</svg>
