<svg width="16" height="16" viewBox="0 0 16 16" fill="none" xmlns="http://www.w3.org/2000/svg">
    <path fill-rule="evenodd" clip-rule="evenodd"
        d="M5.16957 1.25H10.8304C11.3646 1.24999 11.8104 1.24998 12.1747 1.27974C12.5546 1.31078 12.9112 1.37789 13.2485 1.54973C13.7659 1.81338 14.1866 2.23408 14.4503 2.75153C14.6221 3.08879 14.6892 3.44545 14.7203 3.82533C14.75 4.18956 14.75 4.6354 14.75 5.16955V10.8305C14.75 11.3646 14.75 11.8104 14.7203 12.1747C14.6892 12.5546 14.6221 12.9112 14.4503 13.2485C14.1866 13.7659 13.7659 14.1866 13.2485 14.4503C12.9112 14.6221 12.5546 14.6892 12.1747 14.7203C11.8104 14.75 11.3646 14.75 10.8305 14.75H5.16955C4.6354 14.75 4.18956 14.75 3.82533 14.7203C3.44545 14.6892 3.08879 14.6221 2.75153 14.4503C2.23408 14.1866 1.81338 13.7659 1.54973 13.2485C1.37789 12.9112 1.31078 12.5546 1.27974 12.1747C1.24998 11.8104 1.24999 11.3646 1.25 10.8304V5.16957C1.24999 4.63541 1.24998 4.18956 1.27974 3.82533C1.31078 3.44545 1.37789 3.08879 1.54973 2.75153C1.81338 2.23408 2.23408 1.81338 2.75153 1.54973C3.08879 1.37789 3.44545 1.31078 3.82533 1.27974C4.18956 1.24998 4.63541 1.24999 5.16957 1.25ZM3.94748 2.77476C3.66036 2.79822 3.52307 2.8401 3.43251 2.88624C3.19731 3.00608 3.00608 3.19731 2.88624 3.43251C2.8401 3.52307 2.79822 3.66036 2.77476 3.94748C2.75058 4.24336 2.75 4.62757 2.75 5.2V10.8C2.75 11.3724 2.75058 11.7566 2.77476 12.0525C2.79822 12.3396 2.8401 12.4769 2.88624 12.5675C3.00608 12.8027 3.19731 12.9939 3.43251 13.1138C3.52307 13.1599 3.66036 13.2018 3.94748 13.2252C4.24336 13.2494 4.62757 13.25 5.2 13.25H10.8C11.3724 13.25 11.7566 13.2494 12.0525 13.2252C12.3396 13.2018 12.4769 13.1599 12.5675 13.1138C12.8027 12.9939 12.9939 12.8027 13.1138 12.5675C13.1599 12.4769 13.2018 12.3396 13.2252 12.0525C13.2494 11.7566 13.25 11.3724 13.25 10.8V5.2C13.25 4.62757 13.2494 4.24336 13.2252 3.94748C13.2018 3.66036 13.1599 3.52307 13.1138 3.43251C12.9939 3.19731 12.8027 3.00608 12.5675 2.88624C12.4769 2.8401 12.3396 2.79822 12.0525 2.77476C11.7566 2.75058 11.3724 2.75 10.8 2.75H5.2C4.62757 2.75 4.24336 2.75058 3.94748 2.77476Z"
        fill="#303233" />
</svg>
