<svg width="24" height="24" viewBox="0 0 24 24" fill="none" xmlns="http://www.w3.org/2000/svg">
    <path fill-rule="evenodd" clip-rule="evenodd"
        d="M14 8.25C11.9289 8.25 10.25 9.92893 10.25 12C10.25 14.0711 11.9289 15.75 14 15.75C16.0711 15.75 17.75 14.0711 17.75 12C17.75 9.92893 16.0711 8.25 14 8.25ZM11.75 12C11.75 10.7574 12.7574 9.75 14 9.75C15.2426 9.75 16.25 10.7574 16.25 12C16.25 13.2426 15.2426 14.25 14 14.25C12.7574 14.25 11.75 13.2426 11.75 12Z"
        fill="#303233" />
    <path fill-rule="evenodd" clip-rule="evenodd"
        d="M14.8304 1.25H5.16957C4.63542 1.24999 4.18956 1.24998 3.82533 1.27974C3.44545 1.31078 3.08879 1.37789 2.75153 1.54973C2.23408 1.81339 1.81339 2.23408 1.54973 2.75153C1.37789 3.08879 1.31078 3.44545 1.27974 3.82533C1.24998 4.18956 1.24999 4.6354 1.25 5.16955V14.8304C1.24999 15.3646 1.24998 15.8104 1.27974 16.1747C1.31078 16.5546 1.37789 16.9112 1.54973 17.2485C1.81339 17.7659 2.23408 18.1866 2.75153 18.4503C3.08879 18.6221 3.44545 18.6892 3.82533 18.7203C4.18956 18.75 4.6354 18.75 5.16955 18.75H5.25V18.8304C5.24999 19.3646 5.24998 19.8104 5.27974 20.1747C5.31078 20.5546 5.37789 20.9112 5.54973 21.2485C5.81339 21.7659 6.23408 22.1866 6.75153 22.4503C7.08879 22.6221 7.44545 22.6892 7.82533 22.7203C8.18956 22.75 8.6354 22.75 9.16955 22.75H18.8305C19.3646 22.75 19.8104 22.75 20.1747 22.7203C20.5546 22.6892 20.9112 22.6221 21.2485 22.4503C21.7659 22.1866 22.1866 21.7659 22.4503 21.2485C22.6221 20.9112 22.6892 20.5546 22.7203 20.1747C22.75 19.8104 22.75 19.3646 22.75 18.8305V9.16955C22.75 8.6354 22.75 8.18956 22.7203 7.82533C22.6892 7.44545 22.6221 7.08879 22.4503 6.75153C22.1866 6.23408 21.7659 5.81339 21.2485 5.54973C20.9112 5.37789 20.5546 5.31078 20.1747 5.27974C19.8104 5.24998 19.3646 5.24999 18.8304 5.25H18.75V5.16955C18.75 4.6354 18.75 4.18956 18.7203 3.82533C18.6892 3.44545 18.6221 3.08879 18.4503 2.75153C18.1866 2.23408 17.7659 1.81339 17.2485 1.54973C16.9112 1.37789 16.5546 1.31078 16.1747 1.27974C15.8104 1.24998 15.3646 1.24999 14.8304 1.25ZM17.25 5.25V5.2C17.25 4.62757 17.2494 4.24336 17.2252 3.94748C17.2018 3.66036 17.1599 3.52307 17.1138 3.43251C16.9939 3.19731 16.8027 3.00608 16.5675 2.88624C16.4769 2.8401 16.3396 2.79822 16.0525 2.77476C15.7566 2.75058 15.3724 2.75 14.8 2.75H5.2C4.62757 2.75 4.24336 2.75058 3.94748 2.77476C3.66036 2.79822 3.52307 2.8401 3.43251 2.88624C3.19731 3.00608 3.00608 3.19731 2.88624 3.43251C2.8401 3.52307 2.79822 3.66036 2.77476 3.94748C2.75058 4.24336 2.75 4.62757 2.75 5.2V14.8C2.75 15.3724 2.75058 15.7566 2.77476 16.0525C2.79822 16.3396 2.8401 16.4769 2.88624 16.5675C3.00608 16.8027 3.19731 16.9939 3.43251 17.1138C3.52307 17.1599 3.66036 17.2018 3.94748 17.2252C4.24336 17.2494 4.62757 17.25 5.2 17.25H5.25V9.16957C5.24999 8.63541 5.24998 8.18956 5.27974 7.82533C5.31078 7.44545 5.37789 7.08879 5.54973 6.75153C5.81339 6.23408 6.23408 5.81339 6.75153 5.54973C7.08879 5.37789 7.44545 5.31078 7.82533 5.27974C8.18956 5.24998 8.63541 5.24999 9.16957 5.25H17.25ZM7.94748 6.77476C7.66036 6.79822 7.52307 6.8401 7.43251 6.88624C7.19731 7.00608 7.00608 7.19731 6.88624 7.43251C6.8401 7.52307 6.79822 7.66036 6.77476 7.94748C6.75058 8.24336 6.75 8.62757 6.75 9.2V18.8C6.75 19.3724 6.75058 19.7566 6.77476 20.0525C6.79822 20.3396 6.8401 20.4769 6.88624 20.5675C6.98786 20.7669 7.14079 20.9347 7.32834 21.0542C8.6774 18.778 11.1596 17.25 13.9999 17.25C16.8403 17.25 19.3225 18.778 20.6715 21.0543C20.8591 20.9348 21.0121 20.767 21.1138 20.5675C21.1599 20.4769 21.2018 20.3396 21.2252 20.0525C21.2494 19.7566 21.25 19.3724 21.25 18.8V9.2C21.25 8.62757 21.2494 8.24336 21.2252 7.94748C21.2018 7.66036 21.1599 7.52307 21.1138 7.43251C20.9939 7.19731 20.8027 7.00608 20.5675 6.88624C20.4769 6.8401 20.3396 6.79822 20.0525 6.77476C19.7566 6.75058 19.3724 6.75 18.8 6.75H9.2C8.62757 6.75 8.24336 6.75058 7.94748 6.77476ZM8.99934 21.2499C10.1402 19.7311 11.956 18.75 13.9999 18.75C16.0438 18.75 17.8596 19.7311 19.0005 21.2499H8.99934Z"
        fill="#303233" />
</svg>
