<svg width="16" height="16" viewBox="0 0 16 16" fill="none" xmlns="http://www.w3.org/2000/svg">
    <g clip-path="url(#clip0_53_4716)">
        <path
            d="M7.84674 9.21392L15.0303 2.03033C15.3232 1.73744 15.3232 1.26256 15.0303 0.96967C14.7374 0.676777 14.2626 0.676777 13.9697 0.96967L0.96967 13.9697C0.676777 14.2626 0.676777 14.7374 0.96967 15.0303C1.26256 15.3232 1.73744 15.3232 2.03033 15.0303L5.61889 11.4418C7.17047 12.8307 8.96852 13.7938 10.8619 14.3312C11.2563 14.4432 11.4535 14.4991 11.7421 14.5C12.0622 14.5009 12.4958 14.3882 12.7749 14.2314C13.0265 14.0901 13.2115 13.9051 13.5816 13.535L13.6917 13.4248C14.063 13.0535 14.2487 12.8679 14.3496 12.6685C14.5501 12.2719 14.5501 11.8036 14.3496 11.407C14.2487 11.2076 14.063 11.0219 13.6917 10.6506L13.5556 10.5144C13.3113 10.2702 13.1891 10.148 13.0663 10.0682C12.6031 9.76703 12.006 9.76703 11.5429 10.0682C11.42 10.148 11.2979 10.2702 11.0536 10.5144C10.9738 10.5943 10.9338 10.6342 10.8871 10.6677C10.7212 10.7865 10.4807 10.8275 10.2848 10.7704C10.2297 10.7543 10.1861 10.7334 10.099 10.6916C9.30131 10.3086 8.54303 9.81602 7.84674 9.21392Z"
            fill="#303233" />
        <path
            d="M5.62147 7.12259C5.56466 7.2537 5.44413 7.37423 5.20307 7.61529L4.62095 8.19742C4.28068 8.53768 4.11055 8.70781 3.90313 8.75675C3.73218 8.79708 3.5206 8.76782 3.36702 8.68259C3.18067 8.57919 3.07291 8.38677 2.85739 8.00193C2.34533 7.08756 1.94912 6.12578 1.66877 5.13805C1.55683 4.74367 1.50086 4.54647 1.50001 4.25794C1.49905 3.93777 1.6118 3.50422 1.76861 3.22508C1.90992 2.97352 2.09495 2.78849 2.46501 2.41843L2.57515 2.30829C2.94648 1.93696 3.13214 1.75129 3.33155 1.65044C3.72811 1.44985 4.19644 1.44985 4.59301 1.65044C4.79241 1.75129 4.97807 1.93696 5.3494 2.30829L5.48556 2.44445C5.72984 2.68872 5.85198 2.81086 5.93183 2.93368C6.23297 3.39685 6.23297 3.99397 5.93183 4.45714C5.85198 4.57996 5.72984 4.7021 5.48556 4.94638C5.40569 5.02625 5.36575 5.06618 5.33232 5.11287C5.21353 5.27876 5.17252 5.51931 5.22962 5.71519C5.24569 5.77031 5.2666 5.81387 5.30842 5.90098C5.34069 5.96819 5.37375 6.03515 5.40758 6.10179C5.58036 6.44217 5.66674 6.61236 5.68004 6.75463C5.69267 6.88984 5.67546 6.99798 5.62147 7.12259Z"
            fill="#303233" />
    </g>
    <defs>
        <clipPath id="clip0_53_4716">
            <rect width="16" height="16" fill="white" />
        </clipPath>
    </defs>
</svg>
