<svg width="24" height="24" viewBox="0 0 24 24" fill="none" xmlns="http://www.w3.org/2000/svg">
    <path
        d="M21.0001 11.25C21.4144 11.25 21.7501 11.5858 21.7501 12C21.7501 14.4952 20.7985 16.9907 18.8947 18.8945C17.8446 19.9446 17.0225 20.7023 16.382 21.25H20.0001C20.4144 21.25 20.7501 21.5858 20.7501 22C20.7501 22.4142 20.4144 22.75 20.0001 22.75H14.0001C13.8013 22.75 13.6105 22.6709 13.4699 22.5303C13.3293 22.3896 13.2501 22.1989 13.2501 22V16C13.2501 15.5858 13.586 15.2501 14.0001 15.25C14.4144 15.25 14.7501 15.5858 14.7501 16V20.6475C15.3861 20.1529 16.3688 19.2993 17.8341 17.834C19.445 16.2231 20.2501 14.1114 20.2501 12C20.2501 11.5859 20.586 11.2501 21.0001 11.25Z"
        fill="#303233" />
    <path
        d="M10.0001 1.25C10.4143 1.25001 10.75 1.58589 10.7501 2V8C10.7501 8.41421 10.4144 8.75 10.0001 8.75C9.58602 8.7499 9.25014 8.41415 9.25014 8V3.35254C8.61413 3.84716 7.63238 4.70175 6.16714 6.16699C2.94531 9.38882 2.94531 14.6122 6.16714 17.834C7.30936 18.9761 8.70099 19.7125 10.1662 20.0449C10.5701 20.1366 10.8232 20.5384 10.7316 20.9424C10.6399 21.3463 10.238 21.5995 9.83413 21.5078C8.10099 21.1145 6.45379 20.2427 5.10561 18.8945C1.29819 15.0869 1.29807 8.91302 5.10561 5.10547C6.15584 4.05524 6.9787 3.29771 7.61928 2.75H4.00014C3.58601 2.7499 3.25014 2.41415 3.25014 2C3.25016 1.58586 3.58603 1.2501 4.00014 1.25H10.0001Z"
        fill="#303233" />
    <path fill-rule="evenodd" clip-rule="evenodd"
        d="M19.0001 0.25C21.6235 0.25 23.7501 2.37665 23.7501 5C23.7501 7.62335 21.6235 9.75 19.0001 9.75C16.3769 9.7499 14.2501 7.62329 14.2501 5C14.2501 2.37671 16.3769 0.250103 19.0001 0.25ZM19.0001 7C18.7241 7.0001 18.5001 7.22392 18.5001 7.5V7.50977C18.5001 7.78584 18.7241 8.00966 19.0001 8.00977C19.2763 8.00977 19.5001 7.78591 19.5001 7.50977V7.5C19.5001 7.22386 19.2763 7 19.0001 7ZM19.0001 2C18.7241 2.0001 18.5001 2.22392 18.5001 2.5V5.5C18.5001 5.77608 18.7241 5.9999 19.0001 6C19.2763 6 19.5001 5.77614 19.5001 5.5V2.5C19.5001 2.22386 19.2763 2 19.0001 2Z"
        fill="#303233" />
</svg>
