<svg width="16" height="16" viewBox="0 0 16 16" fill="none" xmlns="http://www.w3.org/2000/svg">
    <path fill-rule="evenodd" clip-rule="evenodd"
        d="M0.999904 5.25C0.999904 5.63936 1.2966 5.95942 1.67624 5.99643C3.5471 6.20661 5.29117 7.0461 6.62251 8.37745C7.95319 9.70812 8.7925 11.4511 9.00321 13.3209C9.0192 13.4914 9.09225 13.6453 9.20308 13.7633C9.29732 13.8637 9.41888 13.9381 9.55588 13.9747C9.62085 13.9921 9.68898 14.0009 9.75883 14H12.9127C13.4652 14 13.9951 13.7805 14.3858 13.3898C14.7765 12.9991 14.996 12.4692 14.996 11.9167V4.08333C14.996 3.5308 14.7765 3.00089 14.3858 2.61019C13.9951 2.21949 13.4652 2 12.9127 2H3.08324C2.5307 2 2.0008 2.21949 1.6101 2.61019C1.2194 3.00089 0.999904 3.5308 0.999904 4.08333V5.25Z"
        fill="#303233" />
    <path
        d="M1.0045 7.8671C1.05029 7.45542 1.42113 7.15881 1.83281 7.2046C3.3559 7.374 4.77601 8.05663 5.85964 9.14026C6.94327 10.2239 7.62591 11.644 7.79531 13.1671C7.84109 13.5788 7.54448 13.9496 7.13281 13.9954C6.72113 14.0412 6.35029 13.7446 6.3045 13.3329C6.17275 12.1483 5.64181 11.0437 4.79898 10.2009C3.95616 9.3581 2.85163 8.82716 1.667 8.6954C1.25532 8.64962 0.958713 8.27877 1.0045 7.8671Z"
        fill="#303233" />
    <path
        d="M1.01503 10.5001C1.0978 10.0943 1.49392 9.83236 1.89978 9.91513C2.6845 10.0752 3.40485 10.4624 3.97115 11.0287C4.53746 11.5951 4.92474 12.3154 5.08478 13.1001C5.16755 13.506 4.90564 13.9021 4.49978 13.9849C4.09392 14.0676 3.6978 13.8057 3.61503 13.3999C3.51378 12.9034 3.26877 12.4477 2.91049 12.0894C2.55222 11.7311 2.09649 11.4861 1.60003 11.3849C1.19417 11.3021 0.932258 10.906 1.01503 10.5001Z"
        fill="#303233" />
    <path
        d="M1.75 12.5C1.33579 12.5 1 12.8358 1 13.25C1 13.6642 1.33579 14 1.75 14H1.75667C2.17088 14 2.50667 13.6642 2.50667 13.25C2.50667 12.8358 2.17088 12.5 1.75667 12.5H1.75Z"
        fill="#303233" />
</svg>
