<svg width="24" height="24" viewBox="0 0 24 24" fill="none" xmlns="http://www.w3.org/2000/svg">
    <path
        d="M8 14C7.44772 14 7 14.4477 7 15C7 15.5523 7.44772 16 8 16H16C16.5523 16 17 15.5523 17 15C17 14.4477 16.5523 14 16 14H8Z"
        fill="#303233" />
    <path
        d="M7.5 9C7.5 8.17157 8.16823 7.5 8.99254 7.5H9.00746C9.83177 7.5 10.5 8.17157 10.5 9C10.5 9.82843 9.83177 10.5 9.00746 10.5H8.99254C8.16823 10.5 7.5 9.82843 7.5 9Z"
        fill="#303233" />
    <path
        d="M14.9925 7.5C14.1682 7.5 13.5 8.17157 13.5 9C13.5 9.82843 14.1682 10.5 14.9925 10.5H15.0075C15.8318 10.5 16.5 9.82843 16.5 9C16.5 8.17157 15.8318 7.5 15.0075 7.5H14.9925Z"
        fill="#303233" />
    <path fill-rule="evenodd" clip-rule="evenodd"
        d="M12 1C5.92487 1 1 5.92487 1 12C1 18.0751 5.92487 23 12 23C18.0751 23 23 18.0751 23 12C23 5.92487 18.0751 1 12 1ZM3 12C3 7.02944 7.02944 3 12 3C16.9706 3 21 7.02944 21 12C21 16.9706 16.9706 21 12 21C7.02944 21 3 16.9706 3 12Z"
        fill="#303233" />
</svg>
