<svg width="16" height="16" viewBox="0 0 16 16" fill="none" xmlns="http://www.w3.org/2000/svg">
    <path fill-rule="evenodd" clip-rule="evenodd"
        d="M8.00006 1.75C12.035 1.75 15.25 4.58498 15.25 7.99995C15.25 11.4139 12.036 14.2489 8.00106 14.2499C6.94907 14.2529 5.90708 14.0549 4.93908 13.6669C4.88108 13.6439 4.81908 13.6319 4.75708 13.6429L1.64011 14.2369C1.37211 14.2879 1.09711 14.1889 0.922115 13.9779C0.748117 13.7679 0.702117 13.4789 0.802116 13.2249L1.60511 11.1869C1.64711 11.0799 1.61211 10.9629 1.55311 10.8639C1.03811 10.0029 0.750117 9.02994 0.750117 7.99995C0.750117 4.58498 3.96509 1.75 8.00006 1.75ZM5 7.25C4.58579 7.25 4.25 7.58579 4.25 8C4.25 8.41421 4.58579 8.75 5 8.75H5.01C5.42421 8.75 5.76 8.41421 5.76 8C5.76 7.58579 5.42421 7.25 5.01 7.25H5ZM8 7.25C7.58579 7.25 7.25 7.58579 7.25 8C7.25 8.41421 7.58579 8.75 8 8.75H8.01C8.42421 8.75 8.76 8.41421 8.76 8C8.76 7.58579 8.42421 7.25 8.01 7.25H8ZM11 7.25C10.5858 7.25 10.25 7.58579 10.25 8C10.25 8.41421 10.5858 8.75 11 8.75H11.01C11.4242 8.75 11.76 8.41421 11.76 8C11.76 7.58579 11.4242 7.25 11.01 7.25H11Z"
        fill="#303233" />
</svg>
