<svg width="24" height="24" viewBox="0 0 24 24" fill="none" xmlns="http://www.w3.org/2000/svg">
    <path fill-rule="evenodd" clip-rule="evenodd"
        d="M10.5299 1.46967C10.237 1.17678 9.76211 1.17678 9.46922 1.46967L6.49977 4.43911L3.53033 1.46967C3.23744 1.17678 2.76256 1.17678 2.46967 1.46967C2.17678 1.76256 2.17678 2.23744 2.46967 2.53033L5.43911 5.49977L3.84064 7.09825C3.26587 7.67301 2.80227 8.1366 2.45753 8.54268C2.10258 8.9608 1.82979 9.36703 1.67573 9.84119C1.43101 10.5943 1.43101 11.4057 1.67573 12.1588C1.82979 12.633 2.10258 13.0392 2.45753 13.4573C2.80226 13.8634 3.26584 14.327 3.8406 14.9017L6.09778 17.1589C6.67255 17.7337 7.13614 18.1973 7.54223 18.542C7.96034 18.897 8.36658 19.1698 8.84073 19.3238C9.5939 19.5685 10.4052 19.5685 11.1584 19.3238C11.6325 19.1698 12.0388 18.897 12.4569 18.542C12.8629 18.1973 13.3265 17.7337 13.9013 17.1589L19.5299 11.5303C19.8228 11.2374 19.8228 10.7626 19.5299 10.4697L10.5299 1.46967ZM6.49977 6.56043L4.92399 8.13622C4.32121 8.73899 3.90144 9.15959 3.60104 9.51345C3.30632 9.86061 3.17081 10.0939 3.10231 10.3047C2.95548 10.7566 2.95548 11.2434 3.10231 11.6953C3.17081 11.9061 3.30632 12.1394 3.60104 12.4865C3.90144 12.8404 4.32121 13.261 4.92399 13.8638L7.13576 16.0756C7.73854 16.6783 8.15914 17.0981 8.513 17.3985C8.86016 17.6932 9.09343 17.8287 9.30426 17.8972C9.75616 18.0441 10.2429 18.0441 10.6948 17.8972C10.9057 17.8287 11.1389 17.6932 11.4861 17.3985C11.84 17.0981 12.2606 16.6783 12.8633 16.0756L17.9389 11L9.99955 3.06066L7.56043 5.49977L9.65914 7.59848C10.0558 7.37652 10.5131 7.25 11 7.25C12.5188 7.25 13.75 8.48122 13.75 10C13.75 11.5188 12.5188 12.75 11 12.75C9.48122 12.75 8.25 11.5188 8.25 10C8.25 9.51313 8.37652 9.05582 8.59848 8.65914L6.49977 6.56043ZM11 8.75C10.3096 8.75 9.75 9.30964 9.75 10C9.75 10.6904 10.3096 11.25 11 11.25C11.6904 11.25 12.25 10.6904 12.25 10C12.25 9.30964 11.6904 8.75 11 8.75Z"
        fill="#303233" />
    <path fill-rule="evenodd" clip-rule="evenodd"
        d="M20.1923 14.7115C20.0759 14.4321 19.8028 14.25 19.5 14.25C19.1972 14.25 18.9241 14.4321 18.8077 14.7115L16.3077 20.7115C16.2112 20.943 16.2369 21.2074 16.376 21.416C16.5151 21.6247 16.7492 21.75 17 21.75H22C22.2508 21.75 22.4849 21.6247 22.624 21.416C22.7631 21.2074 22.7888 20.943 22.6923 20.7115L20.1923 14.7115ZM19.5 16.95L20.875 20.25H18.125L19.5 16.95Z"
        fill="#303233" />
</svg>
