<svg width="24" height="24" viewBox="0 0 24 24" fill="none" xmlns="http://www.w3.org/2000/svg">
    <g style="mix-blend-mode:multiply">
        <path
            d="M14.1846 20.7334C14.7204 20.5999 15.2629 20.9261 15.3965 21.4619C15.53 21.9978 15.2038 22.5403 14.668 22.6738L14.1846 20.7334ZM21 12C21 7.02944 16.9706 3 12 3C7.02944 3 3 7.02944 3 12C3 16.9706 7.02944 21 12 21C12.7546 21 13.4862 20.9074 14.1846 20.7334L14.4258 21.7041L14.668 22.6738C13.8127 22.887 12.9189 23 12 23C5.92487 23 1 18.0751 1 12C1 5.92487 5.92487 1 12 1C18.0751 1 23 5.92487 23 12C23 12.9165 22.8878 13.8081 22.6758 14.6611L22.5791 15.0244C21.8072 17.7262 19.3721 19.9168 16.332 19.917C13.3692 19.917 11 17.4732 11 14.5V10.2471L8.54004 12.707C8.1495 13.0974 7.51645 13.0975 7.12598 12.707C6.73567 12.3165 6.73567 11.6835 7.12598 11.293L11.293 7.12598L11.3691 7.05762C11.7619 6.73745 12.341 6.76007 12.707 7.12598L16.874 11.293L16.9424 11.3691C17.2626 11.7619 17.2399 12.341 16.874 12.707C16.5078 13.0733 15.9279 13.0961 15.5352 12.7754L15.46 12.707L13 10.2471V14.5C13 16.4054 14.5102 17.917 16.332 17.917C18.3587 17.9168 20.0938 16.44 20.6553 14.4756L20.7344 14.1787C20.9075 13.482 21 12.7524 21 12Z"
            fill="#303233" />
    </g>
</svg>
