<svg width="16" height="16" viewBox="0 0 16 16" fill="none" xmlns="http://www.w3.org/2000/svg">
    <g clip-path="url(#clip0_53_7229)">
        <path fill-rule="evenodd" clip-rule="evenodd"
            d="M2.29847 7.25H4.69074C4.8426 5.55945 5.39429 3.93467 6.29304 2.5076C4.18154 3.16311 2.59121 5.00271 2.29847 7.25ZM8 2.67261C6.99515 4.00572 6.37164 5.58843 6.19778 7.25H9.80222C9.62836 5.58843 9.00485 4.00572 8 2.67261ZM9.80222 8.75C9.62836 10.4116 9.00485 11.9943 8 13.3274C6.99515 11.9943 6.37164 10.4116 6.19778 8.75H9.80222ZM4.69074 8.75H2.29847C2.59121 10.9973 4.18153 12.8369 6.29304 13.4924C5.39429 12.0653 4.8426 10.4405 4.69074 8.75ZM9.70696 13.4924C10.6057 12.0653 11.1574 10.4405 11.3093 8.75H13.7015C13.4088 10.9973 11.8185 12.8369 9.70696 13.4924ZM13.7015 7.25H11.3093C11.1574 5.55945 10.6057 3.93467 9.70695 2.5076C11.8185 3.16311 13.4088 5.00271 13.7015 7.25ZM0.75 8C0.75 3.99594 3.99594 0.75 8 0.75C12.0041 0.75 15.25 3.99594 15.25 8C15.25 12.0041 12.0041 15.25 8 15.25C3.99594 15.25 0.75 12.0041 0.75 8Z"
            fill="#303233" />
    </g>
    <defs>
        <clipPath id="clip0_53_7229">
            <rect width="16" height="16" fill="white" />
        </clipPath>
    </defs>
</svg>
