<svg width="16" height="16" viewBox="0 0 16 16" fill="none" xmlns="http://www.w3.org/2000/svg">
    <path
        d="M0.75 4.00002C0.749991 2.75737 1.75735 1.75 3 1.75H6.79318C7.3122 1.75 7.80997 1.9562 8.17694 2.32324C8.45015 2.59649 8.82072 2.75 9.20712 2.75H13.0001C14.2427 2.75 15.2501 3.75736 15.2501 5V12C15.2501 13.2426 14.2427 14.25 13.0001 14.25H8.25V8.75C8.25 7.64543 7.35457 6.75 6.25 6.75H0.750019L0.75 4.00002Z"
        fill="#303233" />
    <path
        d="M1.5 8.25H6C6.10169 8.25 6.19866 8.27024 6.28709 8.30691C6.37555 8.34351 6.45842 8.39776 6.53033 8.46967C6.60224 8.54158 6.65649 8.62445 6.69309 8.71291C6.72976 8.80134 6.75 8.89831 6.75 9V13.5C6.75 13.9142 6.41421 14.25 6 14.25C5.58579 14.25 5.25 13.9142 5.25 13.5V10.8107L2.03033 14.0303C1.73744 14.3232 1.26256 14.3232 0.96967 14.0303C0.676777 13.7374 0.676777 13.2626 0.96967 12.9697L4.18934 9.75H1.5C1.08579 9.75 0.75 9.41421 0.75 9C0.75 8.58579 1.08579 8.25 1.5 8.25Z"
        fill="#303233" />
</svg>
