<svg width="16" height="16" viewBox="0 0 16 16" fill="none" xmlns="http://www.w3.org/2000/svg">
    <g clip-path="url(#clip0_53_9417)">
        <path fill-rule="evenodd" clip-rule="evenodd"
            d="M15.25 8C15.25 12.0041 12.0041 15.25 8 15.25C3.99594 15.25 0.75 12.0041 0.75 8C0.75 3.99594 3.99594 0.75 8 0.75C12.0041 0.75 15.25 3.99594 15.25 8ZM11.1972 6.53033C11.4901 6.23744 11.4901 5.76256 11.1972 5.46967C10.9043 5.17678 10.4294 5.17678 10.1365 5.46967L7.00016 8.60601L5.86383 7.46967C5.57093 7.17678 5.09606 7.17678 4.80317 7.46967C4.51027 7.76256 4.51027 8.23744 4.80317 8.53033L6.46983 10.197C6.61049 10.3376 6.80125 10.4167 7.00016 10.4167C7.19908 10.4167 7.38984 10.3376 7.53049 10.197L11.1972 6.53033Z"
            fill="#303233" />
    </g>
    <defs>
        <clipPath id="clip0_53_9417">
            <rect width="16" height="16" fill="white" />
        </clipPath>
    </defs>
</svg>
