<svg width="24" height="24" viewBox="0 0 24 24" fill="none" xmlns="http://www.w3.org/2000/svg">
    <path fill-rule="evenodd" clip-rule="evenodd"
        d="M12 13.414V19.069C12 19.604 11.984 19.951 11.933 20.172C11.871 20.433 11.765 20.621 11.641 20.767C11.329 21.132 10.861 21.326 10.382 21.288C10.191 21.273 9.983 21.215 9.755 21.074C9.562 20.954 9.306 20.72 8.927 20.341L5.761 17.176C5.673 17.087 5.638 17.032 5.586 17C5.527 16.986 5.463 17 5.337 17H3.6C2.795 17 2.4 16.939 2.092 16.782C1.716 16.59 1.41 16.284 1.218 15.908C1.061 15.6 1 15.205 1 14.4V9.59999C1 8.79499 1.061 8.39999 1.218 8.09199C1.41 7.71599 1.716 7.40999 2.092 7.21799C2.4 7.06099 2.795 6.99999 3.6 6.99999H5.337C5.463 6.99999 5.527 7.01399 5.586 6.99999L1.293 2.70699C0.903 2.31699 0.903 1.68299 1.293 1.29299C1.683 0.902988 2.317 0.902988 2.707 1.29299L7.707 6.29299L22.707 21.293C23.097 21.683 23.097 22.317 22.707 22.707C22.317 23.097 21.683 23.097 21.293 22.707L12 13.414ZM6.998 8.41199C6.846 8.55499 6.742 8.63699 6.631 8.70499C6.452 8.81499 6.257 8.89599 6.053 8.94499C5.882 8.98599 5.701 8.99999 5.337 8.99999H3.6C3.367 8.99999 3.126 9.00999 3.016 9.01499C3.01 9.12599 3 9.36699 3 9.59999V14.4C3 14.633 3.01 14.874 3.016 14.984C3.126 14.99 3.367 15 3.6 15H5.337C5.701 15 5.882 15.014 6.053 15.055C6.257 15.104 6.452 15.185 6.631 15.295C6.781 15.386 6.919 15.504 7.176 15.761L10 18.586V11.414L6.998 8.41199ZM18.936 5.58399C18.614 5.13599 18.716 4.50999 19.164 4.18799C19.612 3.86599 20.237 3.96799 20.56 4.41599C22.095 6.55099 23 9.16999 23 12C23 13.616 22.705 15.163 22.166 16.59C21.971 17.106 21.394 17.367 20.877 17.172C20.361 16.977 20.1 16.4 20.295 15.884C20.751 14.676 21 13.367 21 12C21 9.60599 20.235 7.38999 18.936 5.58399ZM14.925 8.57199C14.609 8.11899 14.721 7.49599 15.173 7.17999C15.626 6.86399 16.25 6.97499 16.565 7.42799C17.47 8.72399 18 10.3 18 12C18 12.552 17.552 13 17 13C16.448 13 16 12.552 16 12C16 10.725 15.603 9.54399 14.925 8.57199ZM8.5 4.46599C8.5 4.20999 8.598 3.95399 8.793 3.75899L9.293 3.25899C9.336 3.21599 9.382 3.17699 9.43 3.14399C9.557 3.03199 9.663 2.94899 9.755 2.89199C9.983 2.75099 10.191 2.69199 10.382 2.67699C10.861 2.63999 11.329 2.83299 11.641 3.19899C11.765 3.34499 11.871 3.53299 11.933 3.79399C11.984 4.01499 12 4.36199 12 4.89699V5.96599C12 6.51799 11.552 6.96599 11 6.96599C10.448 6.96599 10 6.51799 10 5.96599V5.33599C9.729 5.50099 9.5 5.46599 9.5 5.46599C9.234 5.46599 8.981 5.36099 8.793 5.17299C8.605 4.98499 8.5 4.73199 8.5 4.46599Z"
        fill="#303233" />
</svg>
