<svg width="16" height="16" viewBox="0 0 16 16" fill="none" xmlns="http://www.w3.org/2000/svg">
    <path
        d="M8 8C8.85517 8 9.54845 7.32843 9.54845 6.5C9.54845 5.67157 8.85517 5 8 5C7.14483 5 6.45156 5.67157 6.45156 6.5C6.45156 7.32843 7.14483 8 8 8Z"
        fill="#303233" />
    <path
        d="M10.6346 11C10.8673 11 11.0493 10.8013 10.988 10.5837C10.6296 9.31077 9.42762 8.375 8 8.375C6.57239 8.375 5.37037 9.31077 5.01199 10.5837C4.95074 10.8013 5.13263 11 5.36545 11H10.6346Z"
        fill="#303233" />
    <path fill-rule="evenodd" clip-rule="evenodd"
        d="M1 1.5C1 1.22386 1.22386 1 1.5 1H14.5C14.7761 1 15 1.22386 15 1.5V9C15 9.27614 14.7761 9.5 14.5 9.5C14.2239 9.5 14 9.27614 14 9V2H2V11.5C2 12.8807 3.11929 14 4.5 14H9C9.27614 14 9.5 14.2239 9.5 14.5C9.5 14.7761 9.27614 15 9 15H4.5C2.567 15 1 13.433 1 11.5V1.5Z"
        fill="#303233" />
    <path fill-rule="evenodd" clip-rule="evenodd"
        d="M11.3964 11.3964C11.5917 11.2012 11.9083 11.2012 12.1036 11.3964L13.5 12.7929L14.8964 11.3964C15.0917 11.2012 15.4083 11.2012 15.6036 11.3964C15.7988 11.5917 15.7988 11.9083 15.6036 12.1036L14.2071 13.5L15.6036 14.8964C15.7988 15.0917 15.7988 15.4083 15.6036 15.6036C15.4083 15.7988 15.0917 15.7988 14.8964 15.6036L13.5 14.2071L12.1036 15.6036C11.9083 15.7988 11.5917 15.7988 11.3964 15.6036C11.2012 15.4083 11.2012 15.0917 11.3964 14.8964L12.7929 13.5L11.3964 12.1036C11.2012 11.9083 11.2012 11.5917 11.3964 11.3964Z"
        fill="#303233" />
</svg>
