<svg width="24" height="24" viewBox="0 0 24 24" fill="none" xmlns="http://www.w3.org/2000/svg">
    <path
        d="M15.5833 2.25C15.3215 2.24998 15.0811 2.24997 14.8802 2.26665C14.6635 2.28464 14.4266 2.32586 14.1933 2.44703C13.8737 2.61306 13.6131 2.87367 13.447 3.1933C13.3259 3.42656 13.2846 3.66348 13.2667 3.88016C13.25 4.08107 13.25 4.32152 13.25 4.58334V8.41667C13.25 8.67849 13.25 8.91894 13.2667 9.11984C13.2846 9.33652 13.3259 9.57344 13.447 9.80671C13.6131 10.1263 13.8737 10.3869 14.1933 10.553C14.4266 10.6741 14.6635 10.7154 14.8802 10.7334C15.0811 10.75 15.3215 10.75 15.5833 10.75H19.4167C19.6785 10.75 19.9189 10.75 20.1198 10.7334C20.3365 10.7154 20.5734 10.6741 20.8067 10.553C21.1263 10.3869 21.3869 10.1263 21.553 9.80671C21.6742 9.57344 21.7154 9.33652 21.7334 9.11984C21.75 8.91894 21.75 8.67849 21.75 8.41667V4.58334C21.75 4.32152 21.75 4.08107 21.7334 3.88016C21.7154 3.66348 21.6742 3.42656 21.553 3.1933C21.3869 2.87367 21.1263 2.61306 20.8067 2.44703C20.5734 2.32586 20.3365 2.28464 20.1198 2.26665C19.919 2.24997 19.6785 2.24998 19.4167 2.25H15.5833Z"
        fill="#303233" />
    <path
        d="M4.58334 2.25C4.32154 2.24998 4.08105 2.24997 3.88016 2.26665C3.66348 2.28464 3.42656 2.32586 3.1933 2.44703C2.87367 2.61306 2.61306 2.87367 2.44703 3.1933C2.32586 3.42656 2.28464 3.66348 2.26665 3.88016C2.24997 4.08105 2.24998 4.32148 2.25 4.58328V8.41667C2.24998 8.67846 2.24997 8.91896 2.26665 9.11984C2.28464 9.33652 2.32586 9.57344 2.44703 9.80671C2.61306 10.1263 2.87367 10.3869 3.1933 10.553C3.42656 10.6741 3.66348 10.7154 3.88016 10.7334C4.08106 10.75 4.3215 10.75 4.58331 10.75H8.41667C8.67848 10.75 8.91895 10.75 9.11984 10.7334C9.33652 10.7154 9.57344 10.6741 9.80671 10.553C10.1263 10.3869 10.3869 10.1263 10.553 9.80671C10.6741 9.57344 10.7154 9.33652 10.7334 9.11984C10.75 8.91895 10.75 8.67851 10.75 8.4167V4.58334C10.75 4.32153 10.75 4.08106 10.7334 3.88016C10.7154 3.66348 10.6741 3.42656 10.553 3.1933C10.3869 2.87367 10.1263 2.61306 9.80671 2.44703C9.57344 2.32586 9.33652 2.28464 9.11984 2.26665C8.91896 2.24997 8.67852 2.24998 8.41673 2.25H4.58334Z"
        fill="#303233" />
    <path
        d="M4.58334 13.25H8.41667C8.67849 13.25 8.91894 13.25 9.11984 13.2667C9.33652 13.2846 9.57344 13.3259 9.80671 13.447C10.1263 13.6131 10.3869 13.8737 10.553 14.1933C10.6741 14.4266 10.7154 14.6635 10.7334 14.8802C10.75 15.0811 10.75 15.3215 10.75 15.5833V19.4167C10.75 19.6785 10.75 19.9189 10.7334 20.1198C10.7154 20.3365 10.6741 20.5734 10.553 20.8067C10.3869 21.1263 10.1263 21.3869 9.80671 21.553C9.57344 21.6742 9.33652 21.7154 9.11984 21.7334C8.91894 21.75 8.67849 21.75 8.41667 21.75H4.58334C4.32152 21.75 4.08107 21.75 3.88016 21.7334C3.66348 21.7154 3.42656 21.6742 3.1933 21.553C2.87367 21.3869 2.61306 21.1263 2.44703 20.8067C2.32586 20.5734 2.28464 20.3365 2.26665 20.1198C2.24997 19.919 2.24998 19.6785 2.25 19.4167V15.5833C2.24998 15.3215 2.24997 15.0811 2.26665 14.8802C2.28464 14.6635 2.32586 14.4266 2.44703 14.1933C2.61306 13.8737 2.87367 13.6131 3.1933 13.447C3.42656 13.3259 3.66348 13.2846 3.88016 13.2667C4.08107 13.25 4.32152 13.25 4.58334 13.25Z"
        fill="#303233" />
    <path
        d="M15.5833 13.25C15.3215 13.25 15.0811 13.25 14.8802 13.2667C14.6635 13.2846 14.4266 13.3259 14.1933 13.447C13.8737 13.6131 13.6131 13.8737 13.447 14.1933C13.3259 14.4266 13.2846 14.6635 13.2667 14.8802C13.25 15.0811 13.25 15.3215 13.25 15.5833V19.4167C13.25 19.6785 13.25 19.9189 13.2667 20.1198C13.2846 20.3365 13.3259 20.5734 13.447 20.8067C13.6131 21.1263 13.8737 21.3869 14.1933 21.553C14.4266 21.6742 14.6635 21.7154 14.8802 21.7334C15.0811 21.75 15.3215 21.75 15.5833 21.75H19.4167C19.6785 21.75 19.9189 21.75 20.1198 21.7334C20.3365 21.7154 20.5734 21.6742 20.8067 21.553C21.1263 21.3869 21.3869 21.1263 21.553 20.8067C21.6742 20.5734 21.7154 20.3365 21.7334 20.1198C21.75 19.9189 21.75 19.6785 21.75 19.4167V15.5833C21.75 15.3215 21.75 15.0811 21.7334 14.8802C21.7154 14.6635 21.6742 14.4266 21.553 14.1933C21.3869 13.8737 21.1263 13.6131 20.8067 13.447C20.5734 13.3259 20.3365 13.2846 20.1198 13.2667C19.9189 13.25 19.6785 13.25 19.4167 13.25H15.5833Z"
        fill="#303233" />
</svg>
