<svg width="16" height="16" viewBox="0 0 16 16" fill="none" xmlns="http://www.w3.org/2000/svg">
    <path fill-rule="evenodd" clip-rule="evenodd"
        d="M15.25 7.99995C15.25 4.58498 12.035 1.75 8.00006 1.75C3.96509 1.75 0.750117 4.58498 0.750117 7.99995C0.750117 9.02994 1.03811 10.0029 1.55311 10.8639C1.61211 10.9629 1.64711 11.0799 1.60511 11.1869L0.802116 13.2249C0.702117 13.4789 0.748117 13.7679 0.922115 13.9779C1.09711 14.1889 1.37211 14.2879 1.64011 14.2369L4.75708 13.6429C4.81908 13.6319 4.88108 13.6439 4.93908 13.6669C5.90708 14.0549 6.94907 14.2529 8.00106 14.2499C12.036 14.2489 15.25 11.4139 15.25 7.99995ZM10.6967 5.30298C10.9896 5.59588 10.9896 6.07075 10.6967 6.36364L9.06034 7.99998L10.6967 9.63632C10.9896 9.92921 10.9896 10.4041 10.6967 10.697C10.4038 10.9899 9.9289 10.9899 9.63601 10.697L7.99967 9.06064L6.36334 10.697C6.07044 10.9899 5.59557 10.9899 5.30268 10.697C5.00978 10.4041 5.00978 9.92921 5.30268 9.63632L6.93901 7.99998L5.30268 6.36364C5.00978 6.07075 5.00978 5.59588 5.30268 5.30298C5.59557 5.01009 6.07044 5.01009 6.36334 5.30298L7.99967 6.93932L9.63601 5.30298C9.9289 5.01009 10.4038 5.01009 10.6967 5.30298Z"
        fill="#303233" />
</svg>
