<svg width="24" height="24" viewBox="0 0 24 24" fill="none" xmlns="http://www.w3.org/2000/svg">
    <path fill-rule="evenodd" clip-rule="evenodd"
        d="M18.8389 6C19.3659 5.99998 19.8208 5.99968 20.1953 6.03028C20.5906 6.06259 20.984 6.1344 21.3623 6.32715C21.9265 6.61472 22.3853 7.07347 22.6729 7.6377C22.8656 8.01599 22.9374 8.40943 22.9697 8.80469C23.0003 9.17918 23 9.63412 23 10.1611V13.8389C23 14.3659 23.0003 14.8208 22.9697 15.1953C22.9374 15.5906 22.8656 15.984 22.6729 16.3623C22.3853 16.9265 21.9265 17.3853 21.3623 17.6729C20.984 17.8656 20.5906 17.9374 20.1953 17.9697C19.8208 18.0003 19.3659 18 18.8389 18H5.16113C4.63412 18 4.17918 18.0003 3.80469 17.9697C3.40943 17.9374 3.01599 17.8656 2.6377 17.6729C2.07347 17.3853 1.61472 16.9265 1.32715 16.3623C1.1344 15.984 1.06259 15.5906 1.03028 15.1953C0.999677 14.8208 0.999984 14.3659 1 13.8389V10.1611C0.999984 9.63412 0.999678 9.17918 1.03028 8.80469C1.06259 8.40943 1.1344 8.01599 1.32715 7.6377C1.61472 7.07347 2.07347 6.61472 2.6377 6.32715C3.01599 6.1344 3.40943 6.06259 3.80469 6.03028C4.17918 5.99968 4.63412 5.99998 5.16113 6H18.8389ZM7 10.75C6.30965 10.75 5.75 11.3096 5.75 12C5.75 12.6904 6.30965 13.25 7 13.25C7.69036 13.25 8.25 12.6904 8.25 12C8.25 11.3096 7.69036 10.75 7 10.75ZM12 10.75C11.3096 10.75 10.75 11.3096 10.75 12C10.75 12.6904 11.3096 13.25 12 13.25C12.6904 13.25 13.25 12.6904 13.25 12C13.25 11.3096 12.6904 10.75 12 10.75ZM17 10.75C16.3096 10.75 15.75 11.3096 15.75 12C15.75 12.6904 16.3096 13.25 17 13.25C17.6904 13.25 18.25 12.6904 18.25 12C18.25 11.3096 17.6904 10.75 17 10.75Z"
        fill="#303233" />
</svg>
