<svg width="24" height="24" viewBox="0 0 24 24" fill="none" xmlns="http://www.w3.org/2000/svg">
    <path fill-rule="evenodd" clip-rule="evenodd"
        d="M1.25 5C1.25 3.48122 2.48122 2.25 4 2.25H10.1716C10.6357 2.25 11.0808 2.43437 11.409 2.76256L12.2374 3.59099C12.6594 4.01295 13.2317 4.25 13.8284 4.25H20C21.5188 4.25 22.75 5.48122 22.75 7V19C22.75 20.5188 21.5188 21.75 20 21.75H4C2.48122 21.75 1.25 20.5188 1.25 19V5ZM12 8.25C12.4142 8.25 12.75 8.58579 12.75 9V12.25H16C16.4142 12.25 16.75 12.5858 16.75 13C16.75 13.4142 16.4142 13.75 16 13.75H12.75V17C12.75 17.4142 12.4142 17.75 12 17.75C11.5858 17.75 11.25 17.4142 11.25 17V13.75H8C7.58579 13.75 7.25 13.4142 7.25 13C7.25 12.5858 7.58579 12.25 8 12.25H11.25V9C11.25 8.58579 11.5858 8.25 12 8.25Z"
        fill="#303233" />
</svg>
