<svg width="16" height="16" viewBox="0 0 16 16" fill="none" xmlns="http://www.w3.org/2000/svg">
    <path fill-rule="evenodd" clip-rule="evenodd"
        d="M2.36111 1.88998C2.36112 1.47576 2.69692 1.13999 3.11114 1.14L6.7778 1.14012C7.19201 1.14013 7.52778 1.47591 7.52778 1.89012V5.55667C7.52778 5.97088 7.19199 6.30667 6.77778 6.30667C6.36356 6.30667 6.02778 5.97088 6.02778 5.55667V3.33568C5.67818 3.63887 5.22389 4.05983 4.64124 4.64247C2.78625 6.49746 2.78625 9.505 4.64124 11.36C5.29928 12.018 6.10033 12.4417 6.94373 12.633C7.34768 12.7247 7.60084 13.1265 7.50919 13.5304C7.41754 13.9343 7.01577 14.1875 6.61183 14.0959C5.50055 13.8437 4.44454 13.2846 3.58058 12.4206C1.13981 9.97987 1.13981 6.02259 3.58058 3.58181C3.94901 3.21339 4.27274 2.90251 4.55701 2.64005L3.11109 2.64C2.69687 2.63999 2.3611 2.30419 2.36111 1.88998ZM8.49081 2.47194C8.58246 2.068 8.98423 1.81483 9.38817 1.90648C10.4995 2.15863 11.5555 2.71773 12.4194 3.58169C14.8602 6.02247 14.8602 9.97975 12.4194 12.4205C12.051 12.7889 11.7273 13.0998 11.4431 13.3622H12.8889C13.3031 13.3622 13.6389 13.698 13.6389 14.1122C13.6389 14.5264 13.3031 14.8622 12.8889 14.8622H9.22222C9.02331 14.8622 8.83254 14.7832 8.69189 14.6426C8.55124 14.5019 8.47222 14.3111 8.47222 14.1122L8.47222 10.4456C8.47222 10.0313 8.80801 9.69555 9.22222 9.69555C9.63644 9.69555 9.97222 10.0313 9.97222 10.4456V12.6667C10.3218 12.3635 10.7761 11.9425 11.3588 11.3599C13.2137 9.50488 13.2137 6.49734 11.3588 4.64235C10.7007 3.98431 9.89967 3.56067 9.05627 3.3693C8.65232 3.27765 8.39916 2.87589 8.49081 2.47194Z"
        fill="#303233" />
</svg>
