<svg width="16" height="16" viewBox="0 0 16 16" fill="none" xmlns="http://www.w3.org/2000/svg">
    <path
        d="M0.75 4.00002C0.749991 2.75737 1.75735 1.75 3 1.75H6.79318C7.3122 1.75 7.80997 1.9562 8.17694 2.32324C8.45015 2.59649 8.82072 2.75 9.20712 2.75H13.0001C14.2427 2.75 15.2501 3.75736 15.2501 5V7.96833C14.876 7.24467 14.1208 6.75 13.25 6.75C12.0876 6.75 11.1311 7.63145 11.0124 8.7624C9.88145 8.8811 9 9.83761 9 11C9 12.1624 9.88145 13.1189 11.0124 13.2376C11.0514 13.6095 11.1811 13.9545 11.3789 14.25H3.00006C1.75742 14.25 0.750065 13.2427 0.750056 12L0.75 4.00002Z"
        fill="#303233" />
    <path
        d="M13.25 8.25C13.6642 8.25 14 8.58579 14 9V10.25H15.25C15.6642 10.25 16 10.5858 16 11C16 11.4142 15.6642 11.75 15.25 11.75H14V13C14 13.4142 13.6642 13.75 13.25 13.75C12.8358 13.75 12.5 13.4142 12.5 13V11.75H11.25C10.8358 11.75 10.5 11.4142 10.5 11C10.5 10.5858 10.8358 10.25 11.25 10.25H12.5V9C12.5 8.58579 12.8358 8.25 13.25 8.25Z"
        fill="#303233" />
</svg>
