<svg width="24" height="24" viewBox="0 0 24 24" fill="none" xmlns="http://www.w3.org/2000/svg">
    <g clip-path="url(#clip0_53_4560)">
        <path
            d="M7.00167 8.41576L0.294454 1.70855C-0.0955471 1.31855 -0.0955471 0.684546 0.294454 0.294545C0.684455 -0.0954556 1.31846 -0.0954556 1.70846 0.294545L15.6763 14.2624L15.6849 14.2704C15.7032 14.2876 15.7208 14.3054 15.7377 14.3238L23.7085 22.2946C24.0985 22.6846 24.0985 23.3186 23.7085 23.7086C23.3185 24.0986 22.6845 24.0986 22.2945 23.7086L14.5859 16H13.0014L13.0014 22C13.0014 22.5523 12.5537 23 12.0014 23C11.4491 23 11.0014 22.5523 11.0014 22L11.0014 16L7.28594 16C6.79126 16 6.35319 16.0001 6.00682 15.9686C5.66856 15.9379 5.21301 15.8654 4.83433 15.5631C4.3583 15.1831 4.08137 14.6069 4.08203 13.9978C4.08256 13.5133 4.31052 13.1123 4.49784 12.829C4.68964 12.5388 4.96331 12.1968 5.27236 11.8105L6.86993 9.81357C6.93349 9.73412 6.96766 9.69117 6.99126 9.65969L6.99308 9.59323C6.99576 9.48035 6.99762 9.33266 6.99889 9.17709C7.0014 8.86714 7.00141 8.54277 7.00141 8.43876C7.00141 8.43108 7.00149 8.42341 7.00167 8.41576Z"
            fill="#303233" />
        <path
            d="M17.6294 1.33301C17.2978 1.11316 16.9385 1.05104 16.6506 1.02491C16.3755 0.999939 16.0394 0.999969 15.6778 1L7.39559 1C6.99112 1 6.62649 1.24365 6.47171 1.61732C6.31692 1.991 6.40248 2.42111 6.68848 2.70711L17.6885 13.7071C18.061 14.0796 18.6586 14.0993 19.0547 13.752C19.4509 13.4048 19.5097 12.8098 19.1893 12.3917C19.0502 12.2103 18.8869 12.0061 18.7079 11.7824L17.1329 9.81357C17.0632 9.7265 17.0289 9.68326 17.005 9.65092L17.0033 9.64856L17.0032 9.64564C17.0016 9.60549 17.0014 9.55027 17.0014 9.43876V7.30814C17.0014 7.24632 17.0015 7.21616 17.002 7.19419L17.002 7.1927L17.0025 7.1913C17.0102 7.17072 17.0214 7.1427 17.0443 7.0853L18.0669 4.52883C18.2012 4.19308 18.3261 3.88105 18.4051 3.61632C18.4877 3.33932 18.5635 2.98268 18.4825 2.5931C18.3753 2.07707 18.0687 1.62422 17.6294 1.33301Z"
            fill="#303233" />
    </g>
    <defs>
        <clipPath id="clip0_53_4560">
            <rect width="24" height="24" fill="white" />
        </clipPath>
    </defs>
</svg>
