<svg width="24" height="24" viewBox="0 0 24 24" fill="none" xmlns="http://www.w3.org/2000/svg">
    <path fill-rule="evenodd" clip-rule="evenodd"
        d="M13.8286 0.555527C14.2306 0.695387 14.5 1.07437 14.5 1.5V9.5H20C20.3835 9.5 20.7332 9.7193 20.9002 10.0645C21.0672 10.4097 21.0221 10.82 20.7841 11.1207L11.2841 23.1207C11.0199 23.4544 10.5734 23.5843 10.1714 23.4445C9.76942 23.3046 9.50001 22.9256 9.50001 22.5V14.5H4.00001C3.61652 14.5 3.26682 14.2807 3.09981 13.9355C2.93281 13.5903 2.97793 13.18 3.21596 12.8793L12.716 0.879294C12.9801 0.545584 13.4266 0.415667 13.8286 0.555527Z"
        fill="#303233" />
</svg>
