<svg width="16" height="16" viewBox="0 0 16 16" fill="none" xmlns="http://www.w3.org/2000/svg">
    <path
        d="M1.85356 4.85356C1.65829 5.04882 1.34171 5.04882 1.14645 4.85356C0.951185 4.6583 0.951184 4.34172 1.14644 4.14645L3.6464 1.64646C3.84166 1.4512 4.15825 1.4512 4.35351 1.64646L6.85355 4.14645C7.04881 4.34171 7.04882 4.65829 6.85356 4.85355C6.6583 5.04882 6.34171 5.04882 6.14645 4.85356L4.50002 3.20716V5.84315C4.50002 6.47843 4.50323 6.71457 4.55528 6.93136C4.60427 7.13543 4.68508 7.33052 4.79474 7.50947C4.91123 7.69956 5.07593 7.86882 5.52514 8.31802L7.22529 10.0182C7.57719 10.3699 7.81952 10.6122 8.00002 10.8783C8.18052 10.6122 8.42284 10.3699 8.77475 10.0182L10.4749 8.31802C10.9241 7.86882 11.0888 7.69956 11.2053 7.50947C11.315 7.33052 11.3958 7.13543 11.4448 6.93136C11.4968 6.71457 11.5 6.47843 11.5 5.84315V3.20708L9.85356 4.85356C9.65829 5.04882 9.34171 5.04882 9.14645 4.85356C8.95119 4.6583 8.95118 4.34172 9.14644 4.14645L11.6464 1.64646C11.8417 1.4512 12.1582 1.4512 12.3535 1.64646L14.8535 4.14645C15.0488 4.34171 15.0488 4.65829 14.8536 4.85355C14.6583 5.04882 14.3417 5.04882 14.1465 4.85356L12.5 3.20716L12.5 5.90436C12.5001 6.4572 12.5002 6.81877 12.4171 7.16481C12.3436 7.47092 12.2224 7.76355 12.0579 8.03197C11.872 8.33539 11.6163 8.59101 11.2253 8.98185L9.52514 10.682C9.07593 11.1312 8.91123 11.3004 8.79473 11.4905C8.68508 11.6695 8.60427 11.8646 8.55528 12.0686C8.50446 12.2803 8.50019 12.5104 8.50002 13.1124C8.50002 13.127 8.50002 13.1418 8.50002 13.1569V14C8.50002 14.2761 8.27616 14.5 8.00002 14.5C7.72387 14.5 7.50002 14.2761 7.50002 14V13.1569C7.50002 13.1421 7.50001 13.1275 7.50001 13.1132C7.49984 12.5106 7.49559 12.2804 7.44476 12.0686C7.39576 11.8646 7.31495 11.6695 7.2053 11.4905C7.0888 11.3004 6.9241 11.1312 6.47489 10.682L4.77474 8.98185C4.38375 8.59101 4.12804 8.33539 3.9421 8.03197C3.77761 7.76355 3.6564 7.47092 3.58291 7.16481C3.49983 6.81877 3.4999 6.4572 3.50001 5.90436L3.50002 3.20708L1.85356 4.85356Z"
        fill="#303233" />
</svg>
