<svg width="16" height="16" viewBox="0 0 16 16" fill="none" xmlns="http://www.w3.org/2000/svg">
    <path fill-rule="evenodd" clip-rule="evenodd"
        d="M2.51118 10.784C2.05219 11.17 1.69919 11.85 1.4602 12.539C1.1312 13.487 1.0042 14.434 1.0042 14.434C0.984205 14.588 1.0362 14.743 1.1462 14.854C1.2572 14.964 1.4122 15.016 1.5662 14.996C1.5662 14.996 2.51318 14.869 3.46117 14.541C4.15016 14.302 4.83015 13.948 5.21614 13.489C5.85413 12.733 5.83513 11.573 5.12514 10.871C5.12314 10.869 5.12014 10.867 5.11814 10.865C4.77015 10.533 4.31216 10.341 3.83116 10.326C3.35017 10.31 2.88018 10.474 2.51118 10.784ZM6.96812 4.92613C6.62712 4.84013 6.07913 4.72414 5.50314 4.69014C4.80315 4.64914 4.07016 4.74113 3.55617 5.08413H3.55517C3.09717 5.39112 2.73718 5.94811 2.48818 6.5191C2.15019 7.29509 2.00819 8.07809 2.00819 8.07809C1.98219 8.22409 2.02119 8.37408 2.11619 8.48708C2.21119 8.60108 2.35219 8.66708 2.50018 8.66708H5.62614L7.33311 10.3741V13.5C7.33311 13.648 7.39911 13.789 7.51311 13.884C7.62711 13.979 7.77711 14.018 7.9231 13.992C7.9231 13.992 8.70509 13.85 9.48208 13.512C10.0521 13.263 10.6091 12.904 10.9151 12.445C10.9161 12.445 10.9161 12.445 10.9161 12.444C11.2591 11.93 11.3511 11.198 11.3101 10.4981C11.2771 9.92606 11.1621 9.38307 11.0761 9.04207C14.484 6.59911 15 3.36215 15 1.50018C15 1.22519 14.778 1.00219 14.503 1.00019C12.953 0.990189 11.4261 1.37818 10.0681 2.12517C8.82909 2.80616 7.76811 3.76615 6.96812 4.92613ZM3.15517 11.55C3.15517 11.55 3.15517 11.549 3.15617 11.549C3.33517 11.398 3.56417 11.318 3.79816 11.326C3.79916 11.326 3.79916 11.326 3.79916 11.326C4.03316 11.333 4.25516 11.426 4.42515 11.586C4.76415 11.924 4.75815 12.481 4.45115 12.844C4.45115 12.845 4.45115 12.845 4.45015 12.845C4.16416 13.186 3.64417 13.419 3.13317 13.596C2.77518 13.72 2.41718 13.812 2.12319 13.877C2.18819 13.583 2.28019 13.225 2.40418 12.867C2.58118 12.357 2.81418 11.836 3.15517 11.55ZM10.1811 9.60806C9.58608 9.94906 8.96909 10.2501 8.3331 10.5071V12.863C8.55609 12.798 8.82009 12.71 9.08209 12.595C9.47408 12.425 9.87407 12.204 10.0841 11.889C10.3171 11.539 10.3401 11.033 10.3121 10.556C10.2921 10.2111 10.2371 9.87806 10.1811 9.60806ZM10.2271 8.41408C13.199 6.41911 13.883 3.76615 13.985 2.01317C12.783 2.08217 11.609 2.41917 10.5501 3.00116C9.34108 3.66615 8.3221 4.62813 7.59111 5.79811C7.59011 5.80011 7.58911 5.80112 7.58811 5.80312C7.13211 6.51411 6.74112 7.26509 6.42013 8.04608L7.9551 9.58206C8.74509 9.26107 9.50508 8.87007 10.2271 8.41408ZM6.40513 5.82212C6.13313 5.76512 5.79413 5.70912 5.44414 5.68812C4.96715 5.66012 4.46115 5.68312 4.11116 5.91612C3.79716 6.12611 3.57517 6.52711 3.40517 6.9181C3.29017 7.1811 3.20217 7.44409 3.13717 7.66709H5.49514C5.75613 7.0321 6.06013 6.41511 6.40513 5.82212Z"
        fill="#303233" />
</svg>
