<svg width="24" height="24" viewBox="0 0 24 24" fill="none" xmlns="http://www.w3.org/2000/svg">
    <path fill-rule="evenodd" clip-rule="evenodd"
        d="M13.2975 1.31202C13.6029 1.4446 13.7844 1.76265 13.7431 2.09302L12.8485 9.25L19.3207 9.24999C19.5672 9.24997 19.8009 9.24994 19.9886 9.26694C20.1684 9.28322 20.4649 9.32404 20.717 9.52776C21.0158 9.76923 21.187 10.1347 21.1812 10.5188C21.1763 10.8429 21.0179 11.0968 20.9153 11.2454C20.8081 11.4005 20.6586 11.58 20.5007 11.7693L11.5751 22.4801C11.3619 22.7359 11.0057 22.8205 10.7002 22.688C10.3948 22.5554 10.2134 22.2373 10.2547 21.907L11.1493 14.75L4.67705 14.75C4.43054 14.75 4.19691 14.7501 4.00914 14.7331C3.82934 14.7168 3.53284 14.6759 3.28075 14.4722C2.98193 14.2308 2.81076 13.8653 2.81655 13.4811C2.82144 13.1571 2.97988 12.9032 3.08249 12.7546C3.18963 12.5995 3.33921 12.42 3.49704 12.2307L12.4227 1.51986C12.6359 1.26408 12.9921 1.17944 13.2975 1.31202Z"
        fill="#303233" />
</svg>
