<svg width="16" height="16" viewBox="0 0 16 16" fill="none" xmlns="http://www.w3.org/2000/svg">
    <g clip-path="url(#clip0_53_2241)">
        <path fill-rule="evenodd" clip-rule="evenodd"
            d="M15.25 8C15.25 12.0041 12.0041 15.25 8 15.25C3.99594 15.25 0.75 12.0041 0.75 8C0.75 3.99594 3.99594 0.75 8 0.75C12.0041 0.75 15.25 3.99594 15.25 8ZM10.6969 5.303C10.9898 5.59589 10.9898 6.07077 10.6969 6.36366L9.06058 8L10.6969 9.63633C10.9898 9.92922 10.9898 10.4041 10.6969 10.697C10.404 10.9899 9.92915 10.9899 9.63626 10.697L7.99992 9.06066L6.36358 10.697C6.07069 10.9899 5.59582 10.9899 5.30292 10.697C5.01003 10.4041 5.01003 9.92922 5.30292 9.63633L6.93926 8L5.30292 6.36366C5.01003 6.07077 5.01003 5.59589 5.30292 5.303C5.59582 5.01011 6.07069 5.01011 6.36358 5.303L7.99992 6.93933L9.63626 5.303C9.92915 5.01011 10.404 5.01011 10.6969 5.303Z"
            fill="#303233" />
    </g>
    <defs>
        <clipPath id="clip0_53_2241">
            <rect width="16" height="16" fill="white" />
        </clipPath>
    </defs>
</svg>
