<svg width="16" height="16" viewBox="0 0 16 16" fill="none" xmlns="http://www.w3.org/2000/svg">
    <path
        d="M10 6C9.72386 6 9.5 6.22386 9.5 6.5C9.5 6.77614 9.72386 7 10 7H12C12.2761 7 12.5 6.77614 12.5 6.5C12.5 6.22386 12.2761 6 12 6H10Z"
        fill="#303233" />
    <path fill-rule="evenodd" clip-rule="evenodd"
        d="M9.65318 1H6.34682C6.03704 0.999993 5.77473 0.999986 5.55969 1.01756C5.33422 1.03598 5.11703 1.07618 4.91002 1.18166C4.59641 1.34145 4.34145 1.59641 4.18166 1.91002C4.07618 2.11703 4.03598 2.33422 4.01756 2.55969C3.99999 2.77474 3.99999 3.03704 4 3.34683L4 4.00193C3.73513 4.00472 3.50272 4.01155 3.29856 4.02823C2.94247 4.05732 2.62855 4.11887 2.33776 4.26703C1.87676 4.50192 1.50196 4.87673 1.26707 5.33772C1.1189 5.62852 1.05735 5.94244 1.02826 6.29853C1.00002 6.64413 1.00003 7.07072 1.00003 7.59866L1.00002 8.97626C0.999835 9.5067 0.999712 9.86665 1.08352 10.1794C1.30994 11.0244 1.97001 11.6863 2.81593 11.913C3.12335 11.9953 3.47835 11.9998 4.00113 12C4.00282 12.1627 4.00704 12.3084 4.01755 12.4371C4.03597 12.6626 4.07616 12.8799 4.18166 13.087C4.34138 13.4005 4.59628 13.6556 4.91002 13.8155C5.11575 13.9203 5.3318 13.9616 5.55788 13.9809C5.77824 13.9997 6.04709 14 6.36667 14H9.63333C9.95291 14 10.2218 13.9997 10.4421 13.9809C10.6682 13.9616 10.8843 13.9203 11.09 13.8155C11.4037 13.6556 11.6586 13.4005 11.8183 13.087C11.9238 12.8799 11.964 12.6626 11.9824 12.4371C11.993 12.3084 11.9972 12.1627 11.9989 12C12.5217 11.9998 12.8767 11.9953 13.1841 11.913C14.0301 11.6863 14.6901 11.0244 14.9166 10.1794C15.0004 9.86665 15.0002 9.50669 15.0001 8.97623L15 7.59864C15 7.07073 15 6.64412 14.9718 6.29853C14.9427 5.94244 14.8812 5.62852 14.733 5.33772C14.4981 4.87673 14.1233 4.50192 13.6623 4.26703C13.3715 4.11887 13.0576 4.05732 12.7015 4.02823C12.4973 4.01155 12.2649 4.00472 12 4.00193V3.34684C12 3.03704 12 2.77474 11.9824 2.55969C11.964 2.33422 11.9238 2.11703 11.8183 1.91002C11.6586 1.59641 11.4036 1.34145 11.09 1.18166C10.883 1.07618 10.6658 1.03598 10.4403 1.01756C10.2253 0.999986 9.96296 0.999993 9.65318 1ZM11 4V3.36667C11 3.03172 10.9996 2.81058 10.9858 2.64112C10.9724 2.4775 10.949 2.40656 10.9273 2.36401C10.8634 2.23857 10.7614 2.13658 10.636 2.07266C10.5934 2.05098 10.5225 2.0276 10.3589 2.01424C10.1894 2.00039 9.96828 2 9.63333 2H6.36667C6.03172 2 5.81058 2.00039 5.64112 2.01424C5.4775 2.0276 5.40656 2.05098 5.36401 2.07266C5.23857 2.13658 5.13658 2.23857 5.07266 2.36401C5.05098 2.40656 5.0276 2.4775 5.01424 2.64112C5.00039 2.81058 5 3.03172 5 3.36667V4H11ZM4 10.3468V10.9999C3.44429 10.9991 3.235 10.99 3.07475 10.947C2.57481 10.8131 2.18364 10.4214 2.04944 9.92059C2.00431 9.75216 2.00003 9.53635 2.00003 8.9V7.62C2.00003 7.0657 2.00042 6.68004 2.02494 6.37996C2.04898 6.08571 2.09371 5.91804 2.15807 5.79171C2.29709 5.51888 2.51891 5.29706 2.79175 5.15804C2.91808 5.09367 3.08575 5.04895 3.37999 5.02491C3.68008 5.00039 4.06573 5 4.62003 5H11.38C11.9343 5 12.32 5.00039 12.6201 5.02491C12.9143 5.04895 13.082 5.09367 13.2083 5.15804C13.4812 5.29706 13.703 5.51888 13.842 5.79171C13.9064 5.91804 13.9511 6.08571 13.9751 6.37996C13.9996 6.68004 14 7.0657 14 7.62V8.9C14 9.53635 13.9958 9.75216 13.9506 9.92059C13.8164 10.4214 13.4253 10.8131 12.9253 10.947C12.7651 10.99 12.5558 10.9991 12 10.9999V10.3468C12 10.037 12 9.77474 11.9824 9.55969C11.964 9.33422 11.9238 9.11703 11.8183 8.91002C11.6586 8.59641 11.4036 8.34145 11.09 8.18166C10.883 8.07618 10.6658 8.03598 10.4403 8.01756C10.2253 7.99999 9.96297 7.99999 9.65318 8H6.34682C6.03703 7.99999 5.77474 7.99999 5.55969 8.01756C5.33422 8.03598 5.11703 8.07618 4.91002 8.18166C4.59641 8.34145 4.34145 8.59641 4.18166 8.91002C4.07618 9.11703 4.03598 9.33422 4.01756 9.55969C3.99999 9.77474 3.99999 10.037 4 10.3468ZM5.64112 9.01423C5.4775 9.0276 5.40656 9.05098 5.36401 9.07266C5.23857 9.13658 5.13658 9.23857 5.07266 9.36401C5.05098 9.40656 5.0276 9.4775 5.01424 9.64112C5.00039 9.81058 5 10.0317 5 10.3667V11.63C5 11.9649 5.00039 12.1862 5.01424 12.3557C5.02761 12.5195 5.05101 12.5905 5.07266 12.633C5.13665 12.7586 5.2387 12.8607 5.36401 12.9245C5.40784 12.9468 5.47991 12.9706 5.64293 12.9845C5.81165 12.9989 6.03285 13 6.36667 13H9.63333C9.96715 13 10.1883 12.9989 10.3571 12.9845C10.5201 12.9706 10.5922 12.9468 10.636 12.9245C10.7613 12.8607 10.8634 12.7586 10.9273 12.633C10.949 12.5905 10.9724 12.5195 10.9858 12.3557C10.9996 12.1862 11 11.9649 11 11.63V10.3667C11 10.0317 10.9996 9.81058 10.9858 9.64112C10.9724 9.4775 10.949 9.40656 10.9273 9.36401C10.8634 9.23857 10.7614 9.13658 10.636 9.07266C10.5934 9.05098 10.5225 9.0276 10.3589 9.01423C10.1894 9.00039 9.96828 9 9.63333 9H6.36667C6.03172 9 5.81058 9.00039 5.64112 9.01423Z"
        fill="#303233" />
</svg>
