<svg width="24" height="24" viewBox="0 0 24 24" fill="none" xmlns="http://www.w3.org/2000/svg">
    <path fill-rule="evenodd" clip-rule="evenodd"
        d="M17.5349 1.46299C17.9994 1.27059 18.4973 1.17157 19 1.17157C19.5028 1.17157 20.0006 1.27059 20.4651 1.46299C20.9296 1.65539 21.3516 1.93739 21.7071 2.29289C22.0626 2.64839 22.3446 3.07043 22.537 3.53492C22.7294 3.99941 22.8284 4.49724 22.8284 5C22.8284 5.50275 22.7294 6.00058 22.537 6.46507C22.3446 6.92956 22.0626 7.3516 21.7071 7.7071L8.20713 21.2071C8.08407 21.3302 7.93104 21.419 7.76314 21.4648L2.26314 22.9648C1.91693 23.0592 1.54667 22.9609 1.29292 22.7071C1.03917 22.4534 0.940838 22.0831 1.03526 21.7369L2.53526 16.2369C2.58105 16.069 2.66986 15.9159 2.79292 15.7929L16.2929 2.29289C16.6484 1.93739 17.0705 1.65539 17.5349 1.46299Z"
        fill="#303233" />
</svg>
