<svg width="24" height="24" viewBox="0 0 24 24" fill="none" xmlns="http://www.w3.org/2000/svg">
    <g clip-path="url(#clip0_53_2397)">
        <path fill-rule="evenodd" clip-rule="evenodd"
            d="M2.05546 5.05546C2.57118 4.53973 3.27065 4.25 4 4.25H5C5.19891 4.25 5.38968 4.32902 5.53033 4.46967L16.5303 15.4697C16.671 15.6103 16.75 15.8011 16.75 16V17C16.75 17.7293 16.4603 18.4288 15.9445 18.9445C15.4288 19.4603 14.7293 19.75 14 19.75H4C3.27065 19.75 2.57118 19.4603 2.05546 18.9445C1.53973 18.4288 1.25 17.7293 1.25 17V7C1.25 6.27065 1.53973 5.57118 2.05546 5.05546ZM9.80709 4.71299C9.92318 4.43273 10.1967 4.25 10.5 4.25H14C14.7293 4.25 15.4288 4.53973 15.9445 5.05546C16.4603 5.57118 16.75 6.27065 16.75 7V8.78647L21.6646 6.32918C21.8971 6.21293 22.1732 6.22536 22.3943 6.36201C22.6154 6.49867 22.75 6.74007 22.75 7V16.5C22.75 16.8033 22.5673 17.0768 22.287 17.1929C22.0068 17.309 21.6842 17.2448 21.4697 17.0303L9.96967 5.53033C9.75517 5.31583 9.69101 4.99324 9.80709 4.71299Z"
            fill="#303233" />
        <path fill-rule="evenodd" clip-rule="evenodd"
            d="M0.46967 0.46967C0.762563 0.176777 1.23744 0.176777 1.53033 0.46967L23.5303 22.4697C23.8232 22.7626 23.8232 23.2374 23.5303 23.5303C23.2374 23.8232 22.7626 23.8232 22.4697 23.5303L0.46967 1.53033C0.176777 1.23744 0.176777 0.762563 0.46967 0.46967Z"
            fill="#303233" />
    </g>
    <defs>
        <clipPath id="clip0_53_2397">
            <rect width="24" height="24" fill="white" />
        </clipPath>
    </defs>
</svg>
