<svg width="24" height="24" viewBox="0 0 24 24" fill="none" xmlns="http://www.w3.org/2000/svg">
    <path fill-rule="evenodd" clip-rule="evenodd"
        d="M1.64947 5.11394C1.9965 4.69281 2.52013 4.45766 3.06545 4.47807C3.48636 4.49383 3.83928 4.71464 4.11401 4.91787C4.39733 5.12746 4.73503 5.42765 5.13445 5.78271L10.174 10.2623C10.3886 10.453 10.5836 10.6264 10.733 10.7838C10.8924 10.9519 11.0528 11.1549 11.146 11.4203C11.2777 11.7955 11.2777 12.2045 11.146 12.5797C11.0528 12.8451 10.8924 13.0481 10.733 13.2162C10.5836 13.3736 10.3886 13.547 10.174 13.7377L5.13444 18.2173C4.73503 18.5724 4.39733 18.8725 4.11401 19.0821C3.83928 19.2854 3.48635 19.5062 3.06545 19.5219C2.52013 19.5423 1.9965 19.3072 1.64947 18.8861C1.38161 18.561 1.31218 18.1505 1.28155 17.8102C1.24997 17.4592 1.24999 17.0073 1.25 16.4729V7.52708C1.24999 6.99267 1.24997 6.54083 1.28155 6.18984C1.31218 5.84947 1.38161 5.439 1.64947 5.11394ZM2.82071 6.05262C2.81389 6.07336 2.79141 6.14765 2.77552 6.32425C2.75074 6.59969 2.75 6.98301 2.75 7.56295V16.4371C2.75 17.017 2.75074 17.4003 2.77552 17.6758C2.79141 17.8524 2.81389 17.9266 2.82071 17.9474C2.86509 17.9931 2.92528 18.0201 2.9889 18.0229C3.00893 18.0142 3.07939 17.9817 3.22194 17.8762C3.44427 17.7118 3.73125 17.4576 4.16471 17.0724L9.15639 12.6353C9.39882 12.4198 9.54482 12.2892 9.6447 12.1839C9.70568 12.1196 9.72685 12.0874 9.73222 12.0783C9.749 12.0275 9.749 11.9725 9.73222 11.9217C9.72685 11.9126 9.70568 11.8804 9.6447 11.8161C9.54482 11.7108 9.39882 11.5802 9.15639 11.3647L4.16471 6.92766C3.73125 6.54236 3.44427 6.28825 3.22194 6.12378C3.07939 6.01832 3.00893 5.98577 2.98889 5.97709C2.92528 5.97992 2.86509 6.00695 2.82071 6.05262ZM12.6495 5.11394C12.9965 4.69281 13.5201 4.45766 14.0655 4.47807C14.4864 4.49383 14.8393 4.71464 15.114 4.91787C15.3973 5.12746 15.735 5.42765 16.1344 5.78271L21.174 10.2623C21.3886 10.453 21.5836 10.6264 21.733 10.7838C21.8924 10.9519 22.0528 11.1549 22.146 11.4203C22.2777 11.7955 22.2777 12.2045 22.146 12.5797C22.0528 12.8451 21.8924 13.0481 21.733 13.2162C21.5836 13.3736 21.3886 13.547 21.174 13.7377L16.1344 18.2173C15.735 18.5724 15.3973 18.8725 15.114 19.0821C14.8393 19.2854 14.4864 19.5062 14.0655 19.5219C13.5201 19.5423 12.9965 19.3072 12.6495 18.8861C12.3816 18.561 12.3122 18.1505 12.2816 17.8102C12.25 17.4592 12.25 17.0073 12.25 16.4729V7.52709C12.25 6.99268 12.25 6.54084 12.2816 6.18984C12.3122 5.84947 12.3816 5.439 12.6495 5.11394ZM13.8207 6.05262C13.8139 6.07336 13.7914 6.14765 13.7755 6.32425C13.7507 6.59969 13.75 6.98301 13.75 7.56295V16.4371C13.75 17.017 13.7507 17.4003 13.7755 17.6758C13.7914 17.8524 13.8139 17.9266 13.8207 17.9474C13.8651 17.9931 13.9253 18.0201 13.9889 18.0229C14.0089 18.0142 14.0794 17.9817 14.2219 17.8762C14.4443 17.7118 14.7313 17.4576 15.1647 17.0724L20.1564 12.6353C20.3988 12.4198 20.5448 12.2892 20.6447 12.1839C20.7057 12.1196 20.7269 12.0874 20.7322 12.0783C20.749 12.0275 20.749 11.9726 20.7322 11.9217C20.7269 11.9126 20.7057 11.8804 20.6447 11.8161C20.5448 11.7108 20.3988 11.5802 20.1564 11.3647L15.1647 6.92766C14.7313 6.54236 14.4443 6.28825 14.2219 6.12378C14.0794 6.01832 14.0089 5.98577 13.9889 5.97709C13.9253 5.97992 13.8651 6.00695 13.8207 6.05262Z"
        fill="#303233" />
</svg>
