<svg width="16" height="16" viewBox="0 0 16 16" fill="none" xmlns="http://www.w3.org/2000/svg">
    <path
        d="M12.8536 0.646447C12.6583 0.451184 12.3417 0.451184 12.1464 0.646447L9.64645 3.14645C9.45118 3.34171 9.45118 3.65829 9.64645 3.85355C9.84171 4.04882 10.1583 4.04882 10.3536 3.85355L12 2.20711V6C12 6.27614 12.2239 6.5 12.5 6.5C12.7761 6.5 13 6.27614 13 6V2.20711L14.6464 3.85355C14.8417 4.04882 15.1583 4.04882 15.3536 3.85355C15.5488 3.65829 15.5488 3.34171 15.3536 3.14645L12.8536 0.646447Z"
        fill="#303233" />
    <path
        d="M1.39754 10C1.50184 10.2534 1.62545 10.4992 1.76689 10.736C1.86589 10.901 1.90789 11.1 1.83789 11.279L1.03489 13.317C0.967892 13.486 0.998892 13.679 1.11489 13.819C1.23089 13.959 1.41389 14.025 1.59289 13.991L4.71189 13.398C4.81989 13.377 4.92989 13.395 5.03189 13.436C5.97089 13.811 6.97989 14.003 8.00089 14C11.0601 14 13.6402 12.3193 14.5996 10H14.6029C14.721 9.7123 14.8146 9.41379 14.8814 9.10608C14.94 8.83622 14.7688 8.56997 14.4989 8.51139C14.229 8.45281 13.9628 8.62408 13.9042 8.89393C13.8209 9.27775 13.6836 9.6486 13.4985 10H13.5029C12.5748 11.7746 10.449 13 7.99989 13H7.99789C7.10589 13.003 6.22389 12.835 5.40289 12.507V12.506C5.12289 12.395 4.81789 12.359 4.52189 12.416L2.29789 12.839L2.76789 11.645C2.95189 11.178 2.88289 10.654 2.62589 10.223V10.222C2.58218 10.149 2.54055 10.075 2.50107 10H2.50386C2.17883 9.38221 2 8.7039 2 8.00001C2 5.56567 4.12906 3.44405 7.06478 3.06048C7.33859 3.0247 7.53156 2.77373 7.49579 2.49992C7.46001 2.2261 7.20904 2.03313 6.93522 2.06891C3.64076 2.49935 1 4.9347 1 8.00001C1 8.70594 1.13954 9.37813 1.3947 10H1.39754Z"
        fill="#303233" />
</svg>
