<svg width="24" height="24" viewBox="0 0 24 24" fill="none" xmlns="http://www.w3.org/2000/svg">
    <path
        d="M9.00004 1.25C9.25081 1.25 9.48498 1.37533 9.62408 1.58397L10.792 3.3359C11.0218 3.68055 11.4874 3.77368 11.8321 3.54391L13.584 2.37596C13.8418 2.20409 14.1788 2.20845 14.4321 2.38694C14.6854 2.56543 14.8028 2.8813 14.7276 3.1819L13.7276 7.1819C13.7192 7.21572 13.7085 7.24851 13.6958 7.28014C13.7315 7.51489 13.75 7.75528 13.75 8C13.75 10.6234 11.6234 12.75 9 12.75C6.37665 12.75 4.25 10.6234 4.25 8C4.25 7.75523 4.26851 7.51479 4.30422 7.27999C4.29153 7.2484 4.28087 7.21566 4.27243 7.1819L3.27243 3.1819C3.19728 2.8813 3.31473 2.56543 3.568 2.38694C3.82128 2.20845 4.15825 2.20409 4.41607 2.37596L6.16799 3.54391C6.51264 3.77368 6.97829 3.68055 7.20805 3.3359L8.376 1.58397C8.5151 1.37533 8.74928 1.25 9.00004 1.25Z"
        fill="#303233" />
    <path
        d="M8.99992 14.25C4.92175 14.25 1.49693 17.0393 0.525632 20.8131C0.467838 21.0376 0.517151 21.2763 0.659209 21.4595C0.801267 21.6428 1.0201 21.75 1.25196 21.75H16.7479C16.9798 21.75 17.1986 21.6428 17.3406 21.4595C17.4827 21.2763 17.532 21.0376 17.4742 20.8131C16.5029 17.0393 13.0781 14.25 8.99992 14.25Z"
        fill="#303233" />
    <path
        d="M17 11.25C16.5858 11.25 16.25 11.5858 16.25 12C16.25 12.4142 16.5858 12.75 17 12.75H23C23.4142 12.75 23.75 12.4142 23.75 12C23.75 11.5858 23.4142 11.25 23 11.25H17Z"
        fill="#303233" />
</svg>
