<svg width="16" height="16" viewBox="0 0 16 16" fill="none" xmlns="http://www.w3.org/2000/svg">
    <path
        d="M13 12.5C13.8284 12.5 14.5 11.8284 14.5 11C14.5 10.1716 13.8284 9.5 13 9.5C12.1716 9.5 11.5 10.1716 11.5 11C11.5 11.8284 12.1716 12.5 13 12.5Z"
        fill="#303233" />
    <path
        d="M13 13C14.4872 13 15.7217 14.0822 15.9589 15.5021C16.0044 15.7745 15.7761 16 15.5 16H10.5C10.2239 16 9.99563 15.7745 10.0411 15.5021C10.2783 14.0822 11.5128 13 13 13Z"
        fill="#303233" />
    <path fill-rule="evenodd" clip-rule="evenodd"
        d="M1 8C1 4.13401 4.13401 1 8 1C11.866 1 15 4.13401 15 8C15 8.45912 14.9558 8.90792 14.8714 9.34237C14.4134 8.82567 13.7447 8.5 12.9999 8.5C11.6192 8.5 10.4999 9.61929 10.4999 11C10.4999 11.5738 10.6933 12.1025 11.0184 12.5245C10.1202 13.0377 9.44036 13.8893 9.15174 14.9057C8.77704 14.9677 8.39229 15 8 15C4.13401 15 1 11.866 1 8ZM8 4C8.27614 4 8.5 4.22386 8.5 4.5V7.69098L10.2236 8.55279C10.4706 8.67628 10.5707 8.97662 10.4472 9.22361C10.3237 9.4706 10.0234 9.57071 9.77639 9.44721L7.77639 8.44721C7.607 8.36252 7.5 8.18939 7.5 8V4.5C7.5 4.22386 7.72386 4 8 4Z"
        fill="#303233" />
</svg>
