<svg width="24" height="24" viewBox="0 0 24 24" fill="none" xmlns="http://www.w3.org/2000/svg">
    <path
        d="M17.2315 1.29336C16.7006 1.24999 16.045 1.24999 15.2321 1.25H8.7679C7.95506 1.24999 7.29944 1.24999 6.76853 1.29336C6.2219 1.33803 5.74175 1.43239 5.29754 1.65873C4.59193 2.01825 4.01825 2.59193 3.65873 3.29754C3.43239 3.74175 3.33803 4.2219 3.29336 4.76853C3.24999 5.29944 3.24999 5.95504 3.25 6.76787V11.25H1C0.585786 11.25 0.25 11.5858 0.25 12C0.25 12.4142 0.585786 12.75 1 12.75H23C23.4142 12.75 23.75 12.4142 23.75 12C23.75 11.5858 23.4142 11.25 23 11.25H20.75V6.76788C20.75 5.95505 20.75 5.29944 20.7066 4.76853C20.662 4.2219 20.5676 3.74175 20.3413 3.29754C19.9818 2.59193 19.4081 2.01825 18.7025 1.65873C18.2582 1.43239 17.7781 1.33803 17.2315 1.29336Z"
        fill="#303233" />
    <path
        d="M20 19.25C20.4142 19.25 20.75 19.5858 20.75 20C20.75 21.5188 19.5188 22.75 18 22.75C17.5858 22.75 17.25 22.4142 17.25 22C17.25 21.5858 17.5858 21.25 18 21.25C18.6904 21.25 19.25 20.6904 19.25 20C19.25 19.5858 19.5858 19.25 20 19.25Z"
        fill="#303233" />
    <path
        d="M4 19.25C4.41421 19.25 4.75 19.5858 4.75 20C4.75 20.6904 5.30964 21.25 6 21.25C6.41421 21.25 6.75 21.5858 6.75 22C6.75 22.4142 6.41421 22.75 6 22.75C4.48122 22.75 3.25 21.5188 3.25 20C3.25 19.5858 3.58579 19.25 4 19.25Z"
        fill="#303233" />
    <path
        d="M4.75 15C4.75 14.5858 4.41421 14.25 4 14.25C3.58579 14.25 3.25 14.5858 3.25 15V16C3.25 16.4142 3.58579 16.75 4 16.75C4.41421 16.75 4.75 16.4142 4.75 16V15Z"
        fill="#303233" />
    <path
        d="M20 14.25C20.4142 14.25 20.75 14.5858 20.75 15V16C20.75 16.4142 20.4142 16.75 20 16.75C19.5858 16.75 19.25 16.4142 19.25 16V15C19.25 14.5858 19.5858 14.25 20 14.25Z"
        fill="#303233" />
    <path
        d="M10 21.25C9.58579 21.25 9.25 21.5858 9.25 22C9.25 22.4142 9.58579 22.75 10 22.75H14C14.4142 22.75 14.75 22.4142 14.75 22C14.75 21.5858 14.4142 21.25 14 21.25H10Z"
        fill="#303233" />
</svg>
