<svg width="16" height="16" viewBox="0 0 16 16" fill="none" xmlns="http://www.w3.org/2000/svg">
    <path
        d="M14.0319 1.97126C14.103 2.0428 14.1568 2.12511 14.1931 2.21291C14.2298 2.30134 14.25 2.39831 14.25 2.5V5.5C14.25 5.91421 13.9142 6.25 13.5 6.25C13.0858 6.25 12.75 5.91421 12.75 5.5V4.31066L4.03033 13.0303C3.73744 13.3232 3.26256 13.3232 2.96967 13.0303C2.67678 12.7374 2.67678 12.2626 2.96967 11.9697L11.6893 3.25H10.5C10.0858 3.25 9.75 2.91421 9.75 2.5C9.75 2.08579 10.0858 1.75 10.5 1.75H13.5C13.7063 1.75 13.8931 1.83329 14.0287 1.96808L14.0303 1.96967L14.0319 1.97126Z"
        fill="#303233" />
    <path
        d="M14.25 13.5V10.5C14.25 10.0858 13.9142 9.75 13.5 9.75C13.0858 9.75 12.75 10.0858 12.75 10.5V11.6893L10.5303 9.46967C10.2374 9.17678 9.76256 9.17678 9.46967 9.46967C9.17678 9.76256 9.17678 10.2374 9.46967 10.5303L11.6893 12.75H10.5C10.0858 12.75 9.75 13.0858 9.75 13.5C9.75 13.9142 10.0858 14.25 10.5 14.25H13.5C13.6017 14.25 13.6987 14.2298 13.7871 14.1931C13.8755 14.1565 13.9584 14.1022 14.0303 14.0303C14.1022 13.9584 14.1565 13.8755 14.1931 13.7871C14.2298 13.6987 14.25 13.6017 14.25 13.5Z"
        fill="#303233" />
    <path
        d="M4.03033 2.96967C3.73744 2.67678 3.26256 2.67678 2.96967 2.96967C2.67678 3.26256 2.67678 3.73744 2.96967 4.03033L5.46967 6.53033C5.76256 6.82322 6.23744 6.82322 6.53033 6.53033C6.82322 6.23744 6.82322 5.76256 6.53033 5.46967L4.03033 2.96967Z"
        fill="#303233" />
</svg>
