<svg width="16" height="16" viewBox="0 0 16 16" fill="none" xmlns="http://www.w3.org/2000/svg">
    <path fill-rule="evenodd" clip-rule="evenodd"
        d="M6.25 2C6.25 1.58579 5.91421 1.25 5.5 1.25C5.08579 1.25 4.75 1.58579 4.75 2V2.75H1.5C1.08579 2.75 0.75 3.08579 0.75 3.5C0.75 3.91421 1.08579 4.25 1.5 4.25H6.69683C6.55338 5.2529 6.12648 6.16437 5.49989 6.90066C5.08911 6.41799 4.7641 5.85997 4.54854 5.25009C4.41051 4.85955 3.98201 4.65486 3.59148 4.79289C3.20094 4.93093 2.99625 5.35942 3.13428 5.74996C3.41449 6.54273 3.83864 7.26767 4.3754 7.89327C3.54945 8.43496 2.56152 8.75 1.5 8.75C1.08579 8.75 0.75 9.08579 0.75 9.5C0.75 9.91421 1.08579 10.25 1.5 10.25C2.99721 10.25 4.38058 9.76254 5.50004 8.93767C6.34843 9.56287 7.3485 9.99432 8.4351 10.1665L6.83904 13.1458C6.64344 13.511 6.78086 13.9655 7.14598 14.1611C7.5111 14.3567 7.96566 14.2193 8.16126 13.8542L9.02063 12.25H13.4797L14.339 13.8542C14.5346 14.2193 14.9892 14.3567 15.3543 14.1611C15.7194 13.9655 15.8569 13.511 15.6613 13.1458L11.9113 6.14583C11.7807 5.90212 11.5266 5.75 11.2501 5.75C10.9737 5.75 10.7196 5.90212 10.589 6.14583L9.1985 8.74151C8.25188 8.6879 7.37205 8.38344 6.62467 7.89339C7.48476 6.89108 8.05586 5.63355 8.2088 4.25H9.5C9.91421 4.25 10.25 3.91421 10.25 3.5C10.25 3.08579 9.91421 2.75 9.5 2.75H6.25V2ZM12.6761 10.75L11.2501 8.08824L9.8242 10.75H12.6761Z"
        fill="#303233" />
</svg>
