<svg width="16" height="16" viewBox="0 0 16 16" fill="none" xmlns="http://www.w3.org/2000/svg">
    <path fill-rule="evenodd" clip-rule="evenodd"
        d="M6 2C6 1.72386 5.77614 1.5 5.5 1.5C5.22386 1.5 5 1.72386 5 2V3H1.5C1.22386 3 1 3.22386 1 3.5C1 3.77614 1.22386 4 1.5 4H6.97758C6.86373 5.26339 6.32266 6.40358 5.49993 7.27501C4.97904 6.7233 4.571 6.06382 4.31283 5.33339C4.22081 5.07303 3.93515 4.93657 3.67479 5.02859C3.41443 5.12062 3.27797 5.40628 3.36999 5.66664C3.67129 6.51909 4.14541 7.29004 4.7503 7.9373C3.83974 8.60541 2.71595 9 1.5 9C1.22386 9 1 9.22386 1 9.5C1 9.77614 1.22386 10 1.5 10C3.00854 10 4.39706 9.4861 5.50003 8.62382C6.43656 9.35603 7.57904 9.83711 8.82634 9.96553L7.05936 13.2639C6.92896 13.5073 7.02057 13.8103 7.26399 13.9407C7.5074 14.0711 7.81044 13.9795 7.94084 13.7361L8.8709 12H13.6293L14.5594 13.7361C14.6898 13.9795 14.9928 14.0711 15.2362 13.9407C15.4796 13.8103 15.5712 13.5073 15.4408 13.2639L11.6908 6.26389C11.6038 6.10141 11.4344 6 11.2501 6C11.0658 6 10.8964 6.10141 10.8094 6.26389L9.34473 8.99786C8.1887 8.96581 7.12155 8.57699 6.24973 7.93738C7.22897 6.88966 7.8656 5.51767 7.98106 4H9.5C9.77614 4 10 3.77614 10 3.5C10 3.22386 9.77614 3 9.5 3H6V2ZM13.0936 11L11.2501 7.55883L9.40661 11H13.0936Z"
        fill="#303233" />
</svg>
