<svg width="16" height="16" viewBox="0 0 16 16" fill="none" xmlns="http://www.w3.org/2000/svg">
    <path
        d="M5.76942 0.75H10.2306C10.7821 0.749991 11.2411 0.749983 11.6157 0.780592C12.006 0.812481 12.3704 0.881296 12.7143 1.05655C13.2436 1.32619 13.6738 1.75645 13.9435 2.28565C14.1187 2.6296 14.1875 2.99397 14.2194 3.38428C14.25 3.75893 14.25 4.21787 14.25 4.7694V8.27206C13.8695 8.09739 13.4461 8 12.9999 8C11.3431 8 9.99992 9.34315 9.99992 11C9.99992 11.4956 10.1201 11.9632 10.3329 12.3751C9.5084 12.983 8.89901 13.8657 8.63886 14.8875C8.60716 15.0121 8.58636 15.1329 8.5755 15.25H5.7694C5.21787 15.25 4.75893 15.25 4.38428 15.2194C3.99397 15.1875 3.6296 15.1187 3.28565 14.9435C2.75645 14.6738 2.32619 14.2436 2.05655 13.7143C1.8813 13.3704 1.81248 13.006 1.78059 12.6157C1.74998 12.2411 1.74999 11.7821 1.75 11.2306V4.76942C1.74999 4.2179 1.74998 3.75892 1.78059 3.38428C1.81248 2.99397 1.8813 2.6296 2.05655 2.28565C2.32619 1.75645 2.75645 1.32619 3.28565 1.05655C3.6296 0.881296 3.99397 0.812481 4.38428 0.780592C4.75892 0.749983 5.2179 0.749991 5.76942 0.75Z"
        fill="#303233" />
    <path
        d="M12.9998 12.5C13.8282 12.5 14.4998 11.8284 14.4998 11C14.4998 10.1716 13.8282 9.5 12.9998 9.5C12.1713 9.5 11.4998 10.1716 11.4998 11C11.4998 11.8284 12.1713 12.5 12.9998 12.5Z"
        fill="#303233" />
    <path
        d="M12.9998 13C14.4004 13 15.5768 13.9598 15.9072 15.2576C16.0094 15.659 15.664 16 15.2498 16H10.7498C10.3355 16 9.99014 15.659 10.0923 15.2576C10.4227 13.9598 11.5991 13 12.9998 13Z"
        fill="#303233" />
</svg>
