<svg width="16" height="16" viewBox="0 0 16 16" fill="none" xmlns="http://www.w3.org/2000/svg">
    <path fill-rule="evenodd" clip-rule="evenodd"
        d="M5.16988 6.51797L7.38388 2.84297L7.38488 2.83997C7.44788 2.73697 7.53588 2.65197 7.64088 2.59097C7.64488 2.58897 7.64788 2.58697 7.65188 2.58497C7.75788 2.52697 7.87788 2.49597 7.99888 2.49597C8.12088 2.49597 8.24088 2.52697 8.34688 2.58597C8.35088 2.58797 8.35388 2.58897 8.35788 2.59097C8.46288 2.65197 8.54988 2.73697 8.61288 2.83997L8.61488 2.84297L10.8269 6.51698L13.4589 5.20497L13.4629 5.20297C13.5869 5.14197 13.7279 5.11697 13.8659 5.13297C13.8689 5.13397 13.8729 5.13397 13.8769 5.13497C14.0169 5.15397 14.1489 5.21397 14.2559 5.30797C14.3629 5.40297 14.4399 5.52697 14.4759 5.66397C14.5119 5.79897 14.5069 5.94397 14.4629 6.07597L12.4809 12.151C12.4329 12.296 12.3229 12.411 12.1809 12.464C12.0379 12.518 11.8789 12.503 11.7489 12.425C11.7489 12.425 10.4039 11.639 7.99788 11.639C5.59288 11.639 4.24788 12.425 4.24788 12.425C4.11688 12.503 3.95788 12.518 3.81588 12.464C3.67288 12.411 3.56288 12.296 3.51588 12.151L1.53688 6.07797C1.49288 5.94597 1.48788 5.80097 1.52388 5.66597C1.56088 5.52897 1.63688 5.40497 1.74488 5.31097C1.85088 5.21697 1.98288 5.15697 2.12388 5.13797C2.12688 5.13697 2.13088 5.13697 2.13488 5.13597C2.27588 5.11997 2.41888 5.14497 2.54188 5.20797L5.16988 6.51797ZM2.69388 6.40097L4.29088 11.302C4.96188 11.027 6.22588 10.639 7.99788 10.639C9.77088 10.639 11.0339 11.028 11.7059 11.302L13.3059 6.39797L11.0419 7.52698C11.0399 7.52798 11.0369 7.52997 11.0369 7.52997C10.8769 7.60697 10.6939 7.62297 10.5229 7.57497C10.5209 7.57397 10.5179 7.57397 10.5149 7.57297C10.3439 7.52097 10.1979 7.40797 10.1049 7.25697L10.1039 7.25397C10.1039 7.25397 8.59588 4.74997 7.99888 3.75897L5.89288 7.25597L5.89188 7.25797C5.79888 7.40997 5.65288 7.52297 5.48088 7.57497C5.47788 7.57597 5.47588 7.57597 5.47288 7.57697C5.29888 7.62597 5.11388 7.60897 4.95388 7.52797L2.69388 6.40097Z"
        fill="#303233" />
</svg>
