<svg width="16" height="16" viewBox="0 0 16 16" fill="none" xmlns="http://www.w3.org/2000/svg">
    <g clip-path="url(#clip0_1209_164)">
        <path fill-rule="evenodd" clip-rule="evenodd"
            d="M2.03033 0.96967C1.73744 0.676777 1.26256 0.676777 0.96967 0.96967C0.676777 1.26256 0.676777 1.73744 0.96967 2.03033L3.51793 4.57859C2.83239 5.37593 2.38153 6.38242 2.27456 7.4892C1.0871 7.97302 0.25 9.13812 0.25 10.5C0.25 12.2949 1.70507 13.75 3.5 13.75H11.5C11.8641 13.75 12.2183 13.704 12.5567 13.6174L13.9697 15.0303C14.2626 15.3232 14.7374 15.3232 15.0303 15.0303C15.3232 14.7374 15.3232 14.2626 15.0303 13.9697L2.03033 0.96967ZM11.1893 12.25L4.58274 5.6434C4.06177 6.28727 3.75046 7.10604 3.75 7.99803L3.75026 8.04588C3.75221 8.40414 3.5005 8.71375 3.14939 8.78498C2.35083 8.94699 1.75 9.65417 1.75 10.5C1.75 11.4665 2.5335 12.25 3.5 12.25H11.1893Z"
            fill="#303233" />
        <path
            d="M7.2282 4.25967C7.31784 4.25326 7.40848 4.25 7.5 4.25C8.97133 4.25 10.2462 5.09725 10.8607 6.3339C10.9863 6.58671 11.2432 6.74756 11.5255 6.75012C13.0325 6.76375 14.25 7.98973 14.25 9.5C14.25 9.92314 14.1549 10.322 13.9857 10.6782C13.808 11.0523 13.9672 11.4997 14.3414 11.6774C14.7155 11.8552 15.1629 11.696 15.3406 11.3218C15.6034 10.7688 15.75 10.1505 15.75 9.5C15.75 7.31849 14.1064 5.52093 11.9899 5.27795C11.07 3.7636 9.40395 2.75 7.5 2.75C7.37279 2.75 7.24651 2.75454 7.12134 2.76348C6.70818 2.79299 6.39716 3.15184 6.42667 3.565C6.45618 3.97816 6.81503 4.28918 7.2282 4.25967Z"
            fill="#303233" />
    </g>
    <defs>
        <clipPath id="clip0_1209_164">
            <rect width="16" height="16" fill="white" />
        </clipPath>
    </defs>
</svg>
