<svg width="16" height="16" viewBox="0 0 16 16" fill="none" xmlns="http://www.w3.org/2000/svg">
    <path
        d="M3 2C1.89543 2 0.999992 2.89544 1 4.00001L1.00006 12C1.00006 13.1046 1.89549 14 3.00006 14H8C8.27614 14 8.5 13.7761 8.5 13.5C8.5 13.2239 8.27614 13 8 13L7.9986 13H3.00015C2.44787 13 2.00015 12.5523 2.00015 12V5C2.00015 4.44772 2.44787 4 3.00015 4H13.0002C13.5524 4 14.0002 4.44772 14.0002 5V6.98756L14 7C14 7.27614 14.2239 7.5 14.5 7.5C14.7761 7.5 15 7.27614 15 7L15.0001 5C15.0001 3.89543 14.1046 3 13.0001 3H9.20712C8.75441 3 8.32024 2.82014 8.00015 2.5C7.68006 2.17986 7.24589 2 6.79318 2H3Z"
        fill="#303233" />
    <path fill-rule="evenodd" clip-rule="evenodd"
        d="M9.5 12C9.5 10.3431 10.8431 9 12.5 9C14.1569 9 15.5 10.3431 15.5 12C15.5 13.6569 14.1569 15 12.5 15C10.8431 15 9.5 13.6569 9.5 12ZM12.5 10C11.3954 10 10.5 10.8954 10.5 12C10.5 12.3709 10.601 12.7182 10.7769 13.016L13.516 10.2769C13.2182 10.101 12.8709 10 12.5 10ZM12.5 14C12.1291 14 11.7818 13.899 11.484 13.7231L14.2231 10.984C14.399 11.2818 14.5 11.6291 14.5 12C14.5 13.1046 13.6046 14 12.5 14Z"
        fill="#303233" />
</svg>
