<svg width="24" height="24" viewBox="0 0 24 24" fill="none" xmlns="http://www.w3.org/2000/svg">
    <path fill-rule="evenodd" clip-rule="evenodd"
        d="M10.4302 17.4227L10.7809 18.2113C10.8851 18.4461 11.0552 18.6456 11.2706 18.7856C11.486 18.9256 11.7373 19 11.9942 19C12.2511 19 12.5024 18.9256 12.7178 18.7856C12.9332 18.6456 13.1033 18.4461 13.2075 18.2113L13.5582 17.4227C13.683 17.1428 13.893 16.9095 14.1582 16.756C14.4251 16.6021 14.7338 16.5365 15.0402 16.5687L15.8982 16.66C16.1536 16.687 16.4113 16.6394 16.6402 16.5228C16.8691 16.4062 17.0592 16.2258 17.1875 16.0033C17.316 15.781 17.3773 15.5262 17.3638 15.2697C17.3503 15.0133 17.2626 14.7663 17.1115 14.5587L16.6035 13.8607C16.4226 13.6103 16.326 13.3089 16.3275 13C16.3275 12.692 16.425 12.3918 16.6062 12.1427L17.1142 11.4447C17.2653 11.2371 17.3529 10.99 17.3664 10.7336C17.3799 10.4772 17.3187 10.2223 17.1902 10C17.0618 9.77754 16.8717 9.59709 16.6429 9.48054C16.414 9.36398 16.1563 9.31632 15.9009 9.34333L15.0429 9.43467C14.7365 9.46685 14.4277 9.40127 14.1609 9.24733C13.8951 9.09295 13.6851 8.85841 13.5609 8.57733L13.2075 7.78867C13.1033 7.5539 12.9332 7.35443 12.7178 7.21444C12.5024 7.07445 12.2511 6.99996 11.9942 7C11.7373 6.99996 11.486 7.07445 11.2706 7.21444C11.0552 7.35443 10.8851 7.5539 10.7809 7.78867L10.4302 8.57733C10.3059 8.85841 10.0959 9.09295 9.83019 9.24733C9.56332 9.40127 9.25459 9.46685 8.94819 9.43467L8.08752 9.34333C7.83212 9.31632 7.57437 9.36398 7.34551 9.48054C7.11666 9.59709 6.92653 9.77754 6.79819 10C6.66968 10.2223 6.60846 10.4772 6.62195 10.7336C6.63544 10.99 6.72306 11.2371 6.87419 11.4447L7.38219 12.1427C7.56335 12.3918 7.66091 12.692 7.66086 13C7.66091 13.308 7.56335 13.6082 7.38219 13.8573L6.87419 14.5553C6.72306 14.7629 6.63544 15.01 6.62195 15.2664C6.60846 15.5228 6.66968 15.7777 6.79819 16C6.92666 16.2223 7.11681 16.4027 7.34563 16.5192C7.57445 16.6358 7.83214 16.6835 8.08752 16.6567L8.94552 16.5653C9.25192 16.5332 9.56065 16.5987 9.82752 16.7527C10.0942 16.9066 10.3052 17.1412 10.4302 17.4227ZM14.0001 13C14.0001 14.1046 13.1047 15 12.0001 15C10.8955 15 10.0001 14.1046 10.0001 13C10.0001 11.8954 10.8955 11 12.0001 11C13.1047 11 14.0001 11.8954 14.0001 13Z"
        fill="#303233" />
    <path fill-rule="evenodd" clip-rule="evenodd"
        d="M4 2C2.34315 2 1 3.34315 1 5V19C1 20.6569 2.34315 22 4 22H20C21.6569 22 23 20.6569 23 19V7C23 5.34315 21.6569 4 20 4H13.8284C13.298 4 12.7893 3.78929 12.4142 3.41421L11.5858 2.58579C11.2107 2.21071 10.702 2 10.1716 2H4ZM4 6C3.44772 6 3 6.44772 3 7V19C3 19.5523 3.44772 20 4 20H20C20.5523 20 21 19.5523 21 19V7C21 6.44772 20.5523 6 20 6H4Z"
        fill="#303233" />
</svg>
