<svg width="16" height="16" viewBox="0 0 16 16" fill="none" xmlns="http://www.w3.org/2000/svg">
    <path
        d="M2.36364 2.5C1.33047 2.5 0.5 3.34339 0.5 4.375V6H15.5V4.375C15.5 3.34339 14.6695 2.5 13.6364 2.5H2.36364Z"
        fill="#303233" />
    <path fill-rule="evenodd" clip-rule="evenodd"
        d="M15.5 7H0.5V11.625C0.5 12.6566 1.33047 13.5 2.36364 13.5H13.6364C14.6695 13.5 15.5 12.6566 15.5 11.625V7ZM4 8.5C3.72386 8.5 3.5 8.72386 3.5 9C3.5 9.27614 3.72386 9.5 4 9.5H9C9.27614 9.5 9.5 9.27614 9.5 9C9.5 8.72386 9.27614 8.5 9 8.5H4ZM10.5 9C10.5 8.72386 10.7239 8.5 11 8.5H12C12.2761 8.5 12.5 8.72386 12.5 9C12.5 9.27614 12.2761 9.5 12 9.5H11C10.7239 9.5 10.5 9.27614 10.5 9Z"
        fill="#303233" />
</svg>
