<svg width="16" height="16" viewBox="0 0 16 16" fill="none" xmlns="http://www.w3.org/2000/svg">
    <path
        d="M2.5 3.5C2.08579 3.5 1.75 3.83579 1.75 4.25C1.75 4.66421 2.08579 5 2.5 5H13.5C13.9142 5 14.25 4.66421 14.25 4.25C14.25 3.83579 13.9142 3.5 13.5 3.5H2.5Z"
        fill="#303233" />
    <path fill-rule="evenodd" clip-rule="evenodd"
        d="M3.75 6C2.64543 6 1.75 6.89543 1.75 8C1.75 9.10457 2.64543 10 3.75 10H12.25C13.3546 10 14.25 9.10457 14.25 8C14.25 6.89543 13.3546 6 12.25 6H3.75ZM3.25 8C3.25 7.72386 3.47386 7.5 3.75 7.5H12.25C12.5261 7.5 12.75 7.72386 12.75 8C12.75 8.27614 12.5261 8.5 12.25 8.5H3.75C3.47386 8.5 3.25 8.27614 3.25 8Z"
        fill="#303233" />
    <path
        d="M1.75 11.75C1.75 11.3358 2.08579 11 2.5 11H13.5C13.9142 11 14.25 11.3358 14.25 11.75C14.25 12.1642 13.9142 12.5 13.5 12.5H2.5C2.08579 12.5 1.75 12.1642 1.75 11.75Z"
        fill="#303233" />
</svg>
