<svg width="16" height="16" viewBox="0 0 16 16" fill="none" xmlns="http://www.w3.org/2000/svg">
    <path
        d="M5.97323 7.9214H7.56524V8.04866C7.56524 8.33812 7.53114 8.5943 7.46294 8.81722C7.39639 9.0235 7.28411 9.21647 7.12607 9.39613C6.76841 9.79871 6.31343 10 5.76113 10C5.22214 10 4.7605 9.80537 4.37622 9.41609C3.99194 9.02516 3.7998 8.55604 3.7998 8.00873C3.7998 7.44978 3.99527 6.97567 4.38621 6.5864C4.77714 6.19547 5.25291 6 5.81353 6C6.11463 6 6.39577 6.06155 6.65695 6.18465C6.90648 6.30776 7.15185 6.50738 7.39307 6.78353L6.97884 7.18029C6.66277 6.75941 6.27766 6.54897 5.82351 6.54897C5.41594 6.54897 5.07408 6.68954 4.79793 6.97068C4.52178 7.24683 4.38371 7.59285 4.38371 8.00873C4.38371 8.43793 4.53759 8.79143 4.84534 9.06925C5.13314 9.3271 5.44505 9.45602 5.78109 9.45602C6.06722 9.45602 6.32424 9.35953 6.55214 9.16656C6.78005 8.97193 6.90731 8.73903 6.93393 8.46787H5.97323V7.9214Z"
        fill="#303233" />
    <path d="M8.88028 6.07486V9.92764H8.29887V6.07486H8.88028Z" fill="#303233" />
    <path
        d="M10.3875 6.62134H11.7299V6.07486H9.80604V9.92764H10.3875V8.09357H11.6825V7.5471H10.3875V6.62134Z"
        fill="#303233" />
    <path fill-rule="evenodd" clip-rule="evenodd"
        d="M8 2.5C6.98586 2.5 5.97766 2.52462 4.976 2.57326L4.87045 2.57836C3.87303 2.62645 3.21402 2.65822 2.61056 2.98612C2.11459 3.25562 1.63149 3.75028 1.37378 4.25248C1.06024 4.86351 1.04414 5.51912 1.0198 6.51082L1.01723 6.61518C1.00576 7.07546 1 7.53709 1 8C1 8.46291 1.00576 8.92454 1.01723 9.38482L1.0198 9.48918C1.04414 10.4809 1.06024 11.1365 1.37378 11.7475C1.63149 12.2497 2.11459 12.7444 2.61056 13.0139C3.21402 13.3418 3.87303 13.3736 4.87046 13.4216L4.976 13.4267C5.97766 13.4754 6.98586 13.5 8 13.5C9.01414 13.5 10.0223 13.4754 11.024 13.4267L11.1295 13.4216C12.127 13.3736 12.786 13.3418 13.3894 13.0139C13.8854 12.7444 14.3685 12.2497 14.6262 11.7475C14.9398 11.1365 14.9559 10.4809 14.9802 9.48917L14.9828 9.38482C14.9942 8.92454 15 8.46291 15 8C15 7.53709 14.9942 7.07546 14.9828 6.61518L14.9802 6.51083C14.9559 5.51912 14.9398 4.86351 14.6262 4.25248C14.3685 3.75028 13.8854 3.25563 13.3894 2.98613C12.786 2.65822 12.127 2.62645 11.1296 2.57836L11.024 2.57326C10.0223 2.52462 9.01414 2.5 8 2.5ZM5.02451 3.57208C6.01002 3.52422 7.00205 3.5 8 3.5C8.99796 3.5 9.98998 3.52422 10.9755 3.57209C12.1174 3.62754 12.5328 3.65874 12.912 3.86479C13.2312 4.03825 13.5706 4.38579 13.7365 4.70903C13.9336 5.09313 13.9548 5.50567 13.9831 6.64008C13.9943 7.09206 14 7.54539 14 8C14 8.45461 13.9943 8.90794 13.9831 9.35992C13.9548 10.4943 13.9336 10.9069 13.7365 11.291C13.5706 11.6142 13.2312 11.9618 12.912 12.1352C12.5328 12.3413 12.1174 12.3725 10.9755 12.4279C9.98998 12.4758 8.99796 12.5 8 12.5C7.00204 12.5 6.01002 12.4758 5.02451 12.4279C3.88264 12.3725 3.46721 12.3413 3.088 12.1352C2.76877 11.9618 2.42935 11.6142 2.26348 11.291C2.06639 10.9069 2.04516 10.4943 2.01692 9.35992C2.00566 8.90794 2 8.45461 2 8C2 7.54539 2.00566 7.09206 2.01692 6.64008C2.04516 5.50567 2.06639 5.09312 2.26348 4.70903C2.42935 4.38579 2.76877 4.03825 3.088 3.86479C3.46721 3.65874 3.88264 3.62754 5.02451 3.57208Z"
        fill="#303233" />
</svg>
