<svg width="16" height="16" viewBox="0 0 16 16" fill="none" xmlns="http://www.w3.org/2000/svg">
    <g clip-path="url(#clip0_2874_383)">
        <path fill-rule="evenodd" clip-rule="evenodd"
            d="M6 8C6 6.89543 6.89543 6 8 6C9.10457 6 10 6.89543 10 8C10 9.10457 9.10457 10 8 10C6.89543 10 6 9.10457 6 8ZM8 7C7.44772 7 7 7.44772 7 8C7 8.55228 7.44772 9 8 9C8.55228 9 9 8.55228 9 8C9 7.44772 8.55228 7 8 7Z"
            fill="#303233" />
        <path fill-rule="evenodd" clip-rule="evenodd"
            d="M11.5 3.5V3C11.5 1.61929 10.3807 0.5 9 0.5H3C1.61929 0.5 0.5 1.61929 0.5 3V9C0.5 10.3807 1.61929 11.5 3 11.5H3.5V11.841C3.5 12.3738 3.49999 12.8035 3.52797 13.1517C3.55677 13.5101 3.61762 13.8252 3.76364 14.1174C4.00562 14.6017 4.39827 14.9944 4.88255 15.2364C5.17479 15.3824 5.48986 15.4432 5.84829 15.472C6.19647 15.5 6.6262 15.5 7.15898 15.5H11.841C12.3738 15.5 12.8035 15.5 13.1517 15.472C13.5101 15.4432 13.8252 15.3824 14.1174 15.2364C14.6017 14.9944 14.9944 14.6017 15.2364 14.1174C15.3824 13.8252 15.4432 13.5101 15.472 13.1517C15.5 12.8035 15.5 12.3738 15.5 11.841V7.15898C15.5 6.6262 15.5 6.19647 15.472 5.84829C15.4432 5.48986 15.3824 5.17479 15.2364 4.88255C14.9944 4.39827 14.6017 4.00562 14.1174 3.76364C13.8252 3.61762 13.5101 3.55677 13.1517 3.52797C12.8035 3.49999 12.3738 3.5 11.841 3.5H11.5ZM1.5 9C1.5 9.82843 2.17157 10.5 3 10.5H3.5V7.15896C3.5 6.62619 3.49999 6.19647 3.52797 5.84829C3.55677 5.48986 3.61762 5.17479 3.76364 4.88255C4.00562 4.39827 4.39827 4.00562 4.88255 3.76364C5.17479 3.61762 5.48986 3.55677 5.84829 3.52797C6.19647 3.49999 6.62619 3.5 7.15896 3.5H10.5V3C10.5 2.17157 9.82843 1.5 9 1.5H3C2.17157 1.5 1.5 2.17157 1.5 3V9ZM5.32953 4.65818C5.45939 4.5933 5.63069 4.54868 5.92839 4.52476C6.23179 4.50038 6.62127 4.5 7.18 4.5H11.82C12.3787 4.5 12.7682 4.50038 13.0716 4.52476C13.3693 4.54868 13.5406 4.5933 13.6705 4.65818C13.961 4.80337 14.1966 5.03896 14.3418 5.32953C14.4067 5.45939 14.4513 5.63069 14.4752 5.92839C14.4996 6.23179 14.5 6.62127 14.5 7.18V10.7928L13.4714 9.76416C13.285 9.57778 13.1242 9.41699 12.981 9.29538C12.8298 9.16702 12.6655 9.05321 12.4636 8.9876C12.1623 8.88971 11.8378 8.88971 11.5366 8.9876C11.3346 9.05321 11.1704 9.16702 11.0192 9.29538C10.8759 9.41699 10.7151 9.57778 10.5288 9.76416L5.82714 14.4658C5.59042 14.4404 5.44391 14.399 5.32953 14.3418C5.03896 14.1966 4.80337 13.961 4.65818 13.6705C4.5933 13.5406 4.54868 13.3693 4.52476 13.0716C4.50038 12.7682 4.5 12.3787 4.5 11.82V7.18C4.5 6.62127 4.50038 6.23179 4.52476 5.92839C4.54868 5.63069 4.5933 5.45939 4.65818 5.32953C4.80337 5.03896 5.03896 4.80337 5.32953 4.65818ZM7.20715 14.5H11.82C12.3787 14.5 12.7682 14.4996 13.0716 14.4752C13.3693 14.4513 13.5406 14.4067 13.6705 14.3418C13.961 14.1966 14.1966 13.961 14.3418 13.6705C14.4067 13.5406 14.4513 13.3693 14.4752 13.0716C14.4936 12.8436 14.4983 12.567 14.4996 12.2066L12.7779 10.4849C12.5741 10.2811 12.4422 10.1497 12.3338 10.0577C12.2299 9.96952 12.181 9.94723 12.1546 9.93866C12.0542 9.90603 11.946 9.90603 11.8456 9.93866C11.8192 9.94723 11.7702 9.96952 11.6664 10.0577C11.558 10.1497 11.4261 10.2811 11.2223 10.4849L7.20715 14.5Z"
            fill="#303233" />
    </g>
    <defs>
        <clipPath id="clip0_2874_383">
            <rect width="16" height="16" fill="white" />
        </clipPath>
    </defs>
</svg>
