<svg width="24" height="24" viewBox="0 0 24 24" fill="none" xmlns="http://www.w3.org/2000/svg">
    <path fill-rule="evenodd" clip-rule="evenodd"
        d="M13 13C13 12.4477 12.5523 12 12 12C11.4477 12 11 12.4477 11 13V20.5858L9.70711 19.2929C9.31658 18.9024 8.68342 18.9024 8.29289 19.2929C7.90237 19.6834 7.90237 20.3166 8.29289 20.7071L11.2929 23.7071C11.6834 24.0976 12.3166 24.0976 12.7071 23.7071L15.7071 20.7071C16.0976 20.3166 16.0976 19.6834 15.7071 19.2929C15.3166 18.9024 14.6834 18.9024 14.2929 19.2929L13 20.5858V13ZM3.51759 8.22365C3.78819 4.18892 7.14669 1 11.25 1C14.1806 1 16.7293 2.62648 18.0462 5.02263C21.3805 5.30003 24 8.0941 24 11.5C24 15.0899 21.0898 18 17.5 18H5C2.23858 18 0 15.7614 0 13C0 10.7544 1.47969 8.85556 3.51759 8.22365Z"
        fill="#303233" />
</svg>
