<svg width="16" height="16" viewBox="0 0 16 16" fill="none" xmlns="http://www.w3.org/2000/svg">
    <path
        d="M2.75 5C2.75 3.20507 4.20507 1.75 6 1.75C7.79493 1.75 9.25 3.20507 9.25 5C9.25 6.79493 7.79493 8.25 6 8.25C4.20507 8.25 2.75 6.79493 2.75 5Z"
        fill="#303233" />
    <path
        d="M0.364606 13.3508C0.897431 10.7259 3.21692 8.75 5.9996 8.75C8.78227 8.75 11.1018 10.7259 11.6346 13.3508C11.6794 13.5714 11.6227 13.8004 11.4803 13.9747C11.3378 14.1489 11.1247 14.25 10.8996 14.25H1.09962C0.874544 14.25 0.66137 14.1489 0.518927 13.9747C0.376484 13.8004 0.319832 13.5714 0.364606 13.3508Z"
        fill="#303233" />
    <path
        d="M10.5 6.75C10.0858 6.75 9.75 7.08579 9.75 7.5C9.75 7.91421 10.0858 8.25 10.5 8.25H14.5C14.9142 8.25 15.25 7.91421 15.25 7.5C15.25 7.08579 14.9142 6.75 14.5 6.75H10.5Z"
        fill="#303233" />
</svg>
