<svg width="16" height="16" viewBox="0 0 16 16" fill="none" xmlns="http://www.w3.org/2000/svg">
    <path fill-rule="evenodd" clip-rule="evenodd"
        d="M2.51118 10.784C2.05219 11.17 1.69919 11.85 1.4602 12.539C1.1312 13.487 1.0042 14.434 1.0042 14.434C0.984205 14.588 1.0362 14.743 1.1462 14.854C1.2572 14.964 1.4122 15.016 1.5662 14.996C1.5662 14.996 2.51318 14.869 3.46117 14.541C4.15016 14.302 4.83015 13.948 5.21614 13.489C5.85413 12.733 5.83513 11.573 5.12514 10.871C5.12314 10.869 5.12014 10.867 5.11814 10.865C4.77015 10.533 4.31216 10.341 3.83116 10.326C3.35017 10.31 2.88018 10.474 2.51118 10.784ZM6.96812 4.92613C6.62712 4.84013 6.07913 4.72414 5.50314 4.69014C4.80315 4.64914 4.07016 4.74113 3.55617 5.08413C3.09817 5.39112 2.73718 5.94811 2.48818 6.5191C2.15019 7.29509 2.00819 8.07809 2.00819 8.07809C1.98219 8.22409 2.02119 8.37408 2.11619 8.48708C2.21119 8.60108 2.35219 8.66708 2.50018 8.66708H5.62614L7.33311 10.3741V13.5C7.33311 13.648 7.39911 13.789 7.51311 13.884C7.62711 13.979 7.77711 14.018 7.9231 13.992C7.9231 13.992 8.70509 13.85 9.48208 13.512C10.0521 13.263 10.6091 12.904 10.9151 12.445L10.9161 12.444C11.2591 11.93 11.3511 11.198 11.3101 10.4981C11.2771 9.92606 11.1621 9.38307 11.0761 9.04207C14.484 6.59911 15 3.36215 15 1.50018C15 1.22519 14.778 1.00219 14.503 1.00019C12.953 0.990189 11.4261 1.37818 10.0681 2.12517C8.82909 2.80616 7.76811 3.76615 6.96812 4.92613Z"
        fill="#303233" />
</svg>
