<svg width="16" height="16" viewBox="0 0 16 16" fill="none" xmlns="http://www.w3.org/2000/svg">
    <path
        d="M2.63184 12C2.63184 12.3451 2.35194 12.6249 2.00684 12.625H2C1.65482 12.625 1.375 12.3452 1.375 12C1.375 11.6548 1.65482 11.375 2 11.375H2.00684C2.35194 11.3751 2.63184 11.6549 2.63184 12ZM14.625 12C14.625 12.3452 14.3452 12.625 14 12.625H4.66699C4.32181 12.625 4.04199 12.3452 4.04199 12C4.04199 11.6548 4.32181 11.375 4.66699 11.375H14C14.3452 11.375 14.625 11.6548 14.625 12ZM2.63184 8C2.63184 8.34512 2.35194 8.62491 2.00684 8.625H2C1.65482 8.625 1.375 8.34518 1.375 8C1.375 7.65482 1.65482 7.375 2 7.375H2.00684C2.35194 7.37509 2.63184 7.65488 2.63184 8ZM14.625 8C14.625 8.34518 14.3452 8.625 14 8.625H4.66699C4.32181 8.625 4.04199 8.34518 4.04199 8C4.04199 7.65482 4.32181 7.375 4.66699 7.375H14C14.3452 7.375 14.625 7.65482 14.625 8ZM2.63184 4C2.63184 4.34512 2.35194 4.62491 2.00684 4.625H2C1.65482 4.625 1.375 4.34518 1.375 4C1.375 3.65482 1.65482 3.375 2 3.375H2.00684C2.35194 3.37509 2.63184 3.65488 2.63184 4ZM14.625 4C14.625 4.34518 14.3452 4.625 14 4.625H4.66699C4.32181 4.625 4.04199 4.34518 4.04199 4C4.04199 3.65482 4.32181 3.375 4.66699 3.375H14C14.3452 3.375 14.625 3.65482 14.625 4Z"
        fill="#303233" />
</svg>
