<svg width="16" height="16" viewBox="0 0 16 16" fill="none" xmlns="http://www.w3.org/2000/svg">
    <path fill-rule="evenodd" clip-rule="evenodd"
        d="M3.75736 1.05026C3.95262 1.24552 3.95262 1.5621 3.75736 1.75736C1.41421 4.10051 1.41421 7.8995 3.75736 10.2426C4.9286 11.4139 6.4636 11.9997 7.9987 12C9.53467 12.0003 11.0707 11.4145 12.2426 10.2426C12.4379 10.0474 12.7545 10.0474 12.9497 10.2426C13.145 10.4379 13.145 10.7545 12.9497 10.9497C11.7102 12.1893 10.1213 12.8668 8.5 12.9822V14H10C10.2761 14 10.5 14.2239 10.5 14.5C10.5 14.7761 10.2761 15 10 15H6C5.72386 15 5.5 14.7761 5.5 14.5C5.5 14.2239 5.72386 14 6 14H7.5V12.9822C5.87866 12.8668 4.28984 12.1893 3.05025 10.9497C0.316583 8.21608 0.316583 3.78393 3.05025 1.05026C3.24551 0.854993 3.5621 0.854993 3.75736 1.05026ZM8 2C5.79086 2 4 3.79086 4 6C4 8.20914 5.79086 10 8 10C10.2091 10 12 8.20914 12 6C12 3.79086 10.2091 2 8 2ZM3 6C3 3.23858 5.23858 1 8 1C10.7614 1 13 3.23858 13 6C13 8.76142 10.7614 11 8 11C5.23858 11 3 8.76142 3 6Z"
        fill="#303233" />
</svg>
