<svg width="16" height="16" viewBox="0 0 16 16" fill="none" xmlns="http://www.w3.org/2000/svg">
    <path
        d="M8 1.75C6.20507 1.75 4.75 3.20507 4.75 5C4.75 6.79493 6.20507 8.25 8 8.25C9.79493 8.25 11.25 6.79493 11.25 5C11.25 3.20507 9.79493 1.75 8 1.75Z"
        fill="#303233" />
    <path
        d="M7.9996 8.75C5.21692 8.75 2.89743 10.7259 2.36461 13.3508C2.31983 13.5714 2.37648 13.8004 2.51893 13.9747C2.66137 14.1489 2.87454 14.25 3.09962 14.25H12.8996C13.1247 14.25 13.3378 14.1489 13.4803 13.9747C13.6227 13.8004 13.6794 13.5714 13.6346 13.3508C13.1018 10.7259 10.7823 8.75 7.9996 8.75Z"
        fill="#303233" />
</svg>
