<svg width="16" height="16" viewBox="0 0 16 16" fill="none" xmlns="http://www.w3.org/2000/svg">
    <g clip-path="url(#clip0_53_4564)">
        <path
            d="M1.28033 0.21967C0.987437 -0.0732233 0.512563 -0.0732233 0.21967 0.21967C-0.0732233 0.512563 -0.0732233 0.987437 0.21967 1.28033L4.64728 5.70794C4.64705 5.79877 4.64665 5.90998 4.64595 6.02244C4.64513 6.15541 4.6439 6.28785 4.64211 6.38995L4.64102 6.44472L4.63628 6.45077C4.62217 6.4687 4.60569 6.4893 4.58405 6.51635L3.54361 7.81689C3.34452 8.06572 3.1641 8.29122 3.03686 8.48368C2.91301 8.671 2.75037 8.95261 2.75 9.29849C2.74954 9.72485 2.94339 10.1282 3.27661 10.3942C3.54693 10.6099 3.86843 10.6589 4.09207 10.6792C4.32184 10.7001 4.61063 10.7 4.92932 10.7L7.24759 10.7L7.24759 14.5C7.24759 14.9142 7.58338 15.25 7.99759 15.25C8.41181 15.25 8.74759 14.9142 8.74759 14.5L8.74759 10.7H9.63935L14.7197 15.7803C15.0126 16.0732 15.4874 16.0732 15.7803 15.7803C16.0732 15.4874 16.0732 15.0126 15.7803 14.7197L1.28033 0.21967Z"
            fill="#303233" />
        <path
            d="M11.7111 0.98311C11.4749 0.826547 11.2216 0.784118 11.0286 0.766603C10.8451 0.749949 10.6226 0.749975 10.3899 0.750002L5.04653 0.750004C4.74318 0.750004 4.46971 0.932736 4.35362 1.21299C4.23753 1.49325 4.3017 1.81584 4.5162 2.03033L11.4697 8.98381C11.7508 9.26492 12.2024 9.27784 12.4991 9.01326C12.7959 8.74868 12.8346 8.29853 12.5874 7.98716C12.5385 7.92557 12.4861 7.86004 12.4315 7.7918L11.4111 6.51635C11.3895 6.4893 11.373 6.46869 11.3589 6.45077L11.348 6.43679L11.3478 6.41904C11.3476 6.39622 11.3476 6.36984 11.3476 6.33519V4.95029L11.3477 4.904L11.3478 4.89447L11.3512 4.88559L11.3683 4.84259L12.034 3.1784C12.1205 2.96237 12.2031 2.75576 12.2558 2.57921C12.3112 2.39352 12.3659 2.1426 12.3082 1.86517C12.2332 1.50395 12.0186 1.18696 11.7111 0.98311Z"
            fill="#303233" />
    </g>
    <defs>
        <clipPath id="clip0_53_4564">
            <rect width="16" height="16" fill="white" />
        </clipPath>
    </defs>
</svg>
