<svg width="24" height="24" viewBox="0 0 24 24" fill="none" xmlns="http://www.w3.org/2000/svg">
    <path fill-rule="evenodd" clip-rule="evenodd"
        d="M12.241 4H6.75843C5.95347 3.99999 5.2891 3.99998 4.74791 4.04419C4.18581 4.09012 3.66911 4.18868 3.18377 4.43598C2.43112 4.81947 1.8192 5.43139 1.43571 6.18404C1.04697 6.94698 1.01119 7.83719 1.00199 8.9229C0.997312 9.47517 1.44122 9.92666 1.99348 9.93134C2.54575 9.93601 2.99724 9.49211 3.00192 8.93984C3.01174 7.78027 3.07636 7.36946 3.21772 7.09202C3.40947 6.7157 3.71543 6.40973 4.09175 6.21799C4.24815 6.1383 4.47235 6.07337 4.91077 6.03755C5.36086 6.00078 5.94315 6 6.79973 6H12.1997C13.0563 6 13.6386 6.00078 14.0887 6.03755C14.5271 6.07337 14.7513 6.1383 14.9077 6.21799C15.284 6.40973 15.59 6.7157 15.7817 7.09202C15.8614 7.24842 15.9264 7.47262 15.9622 7.91104C15.999 8.36113 15.9997 8.94342 15.9997 9.8V14.2C15.9997 15.0566 15.999 15.6389 15.9622 16.089C15.9264 16.5274 15.8614 16.7516 15.7817 16.908C15.59 17.2843 15.284 17.5903 14.9077 17.782C14.7513 17.8617 14.5271 17.9266 14.0887 17.9624C13.6386 17.9992 13.0563 18 12.1997 18H11.9997C11.4474 18 10.9997 18.4477 10.9997 19C10.9997 19.5523 11.4474 20 11.9997 20H12.241C13.046 20 13.7104 20 14.2516 19.9558C14.8137 19.9099 15.3304 19.8113 15.8157 19.564C16.5683 19.1805 17.1803 18.5686 17.5638 17.816C17.811 17.3306 17.9096 16.8139 17.9555 16.2518C17.9965 15.7499 17.9995 15.142 17.9997 14.4142L19.9533 16.3678C20.1444 16.559 20.3323 16.7469 20.497 16.8848C20.644 17.0078 20.9534 17.2545 21.382 17.2883C21.8607 17.3259 22.3285 17.1322 22.6403 16.7671C22.9196 16.4401 22.9639 16.0469 22.9809 15.856C22.9998 15.642 22.9998 15.3763 22.9997 15.1059V8.8941C22.9998 8.62374 22.9998 8.35798 22.9809 8.14403C22.9639 7.95314 22.9196 7.55988 22.6403 7.23294C22.3285 6.86782 21.8607 6.67406 21.382 6.71173C20.9534 6.74547 20.644 6.99217 20.497 7.11519C20.3323 7.25306 20.1445 7.44097 19.9534 7.63215L17.9997 9.5858C17.9995 8.85803 17.9965 8.25013 17.9555 7.74818C17.9096 7.18608 17.811 6.66937 17.5638 6.18404C17.1803 5.43139 16.5683 4.81947 15.8157 4.43598C15.3304 4.18868 14.8137 4.09012 14.2516 4.04419C13.7104 3.99998 13.046 3.99999 12.241 4ZM20.9997 14.5858L18.4139 12L20.9997 9.41422V14.5858Z"
        fill="#303233" />
    <path
        d="M8.70922 12.295C8.80405 12.3904 8.87568 12.5001 8.92412 12.6172C8.97265 12.7343 8.9996 12.8625 9 12.997L9 13V19C9 19.5523 8.55229 20 8 20C7.44771 20 7 19.5523 7 19V15.4142L2.70711 19.7071C2.31658 20.0976 1.68342 20.0976 1.29289 19.7071C0.902369 19.3166 0.902369 18.6834 1.29289 18.2929L5.58579 14H2C1.44772 14 1 13.5523 1 13C1 12.4477 1.44772 12 2 12H7.99983C8.27489 12 8.52419 12.1111 8.70498 12.2908L8.70922 12.295Z"
        fill="#303233" />
</svg>
