<svg width="16" height="16" viewBox="0 0 16 16" fill="none" xmlns="http://www.w3.org/2000/svg">
    <g clip-path="url(#clip0_53_4931)">
        <path fill-rule="evenodd" clip-rule="evenodd"
            d="M15.25 8C15.25 12.0041 12.0041 15.25 8 15.25C3.99594 15.25 0.75 12.0041 0.75 8C0.75 3.99594 3.99594 0.75 8 0.75C12.0041 0.75 15.25 3.99594 15.25 8ZM6.25 5.25C6.66421 5.25 7 5.58579 7 6V10C7 10.4142 6.66421 10.75 6.25 10.75C5.83579 10.75 5.5 10.4142 5.5 10V6C5.5 5.58579 5.83579 5.25 6.25 5.25ZM9.75 5.25C10.1642 5.25 10.5 5.58579 10.5 6V10C10.5 10.4142 10.1642 10.75 9.75 10.75C9.33579 10.75 9 10.4142 9 10V6C9 5.58579 9.33579 5.25 9.75 5.25Z"
            fill="#303233" />
    </g>
    <defs>
        <clipPath id="clip0_53_4931">
            <rect width="16" height="16" fill="white" />
        </clipPath>
    </defs>
</svg>
