<svg width="16" height="16" viewBox="0 0 16 16" fill="none" xmlns="http://www.w3.org/2000/svg">
    <path fill-rule="evenodd" clip-rule="evenodd"
        d="M8.40002 0.7C8.30559 0.574097 8.1574 0.5 8.00002 0.5C7.84264 0.5 7.69445 0.574097 7.60002 0.7L6.60077 2.03234C6.45578 2.22565 6.19329 2.28762 5.97716 2.17955L4.72363 1.55279C4.53795 1.45995 4.31423 1.4915 4.16146 1.63206C4.0087 1.77262 3.95868 1.99295 4.03578 2.1857L5.02049 4.64748C5.00696 4.7631 5 4.88074 5 5C5 6.65685 6.34315 8 8 8C9.65685 8 11 6.65685 11 5C11 4.88076 10.993 4.76315 10.9795 4.64755L11.9643 2.1857C12.0414 1.99295 11.9913 1.77262 11.8386 1.63206C11.6858 1.4915 11.4621 1.45995 11.2764 1.55279L10.0229 2.17955C9.80675 2.28762 9.54426 2.22565 9.39927 2.03234L8.40002 0.7ZM6 5C6 6.10457 6.89543 7 8 7C9.10457 7 10 6.10457 10 5H6Z"
        fill="#303233" />
    <path
        d="M7.99969 10C5.82321 10 4.00661 11.5457 3.58971 13.5995C3.53478 13.8701 3.27086 14.0449 3.00024 13.99C2.72962 13.9351 2.55477 13.6712 2.6097 13.4005C3.11934 10.8899 5.33825 9 7.99969 9C10.6611 9 12.88 10.8899 13.3897 13.4005C13.4446 13.6712 13.2698 13.9351 12.9991 13.99C12.7285 14.0449 12.4646 13.8701 12.4097 13.5995C11.9928 11.5457 10.1762 10 7.99969 10Z"
        fill="#303233" />
</svg>
