<svg width="24" height="24" viewBox="0 0 24 24" fill="none" xmlns="http://www.w3.org/2000/svg">
    <path fill-rule="evenodd" clip-rule="evenodd"
        d="M12 3C7.02944 3 3 7.02944 3 12C3 16.9706 7.02944 21 12 21C16.9706 21 21 16.9706 21 12C21 7.02944 16.9706 3 12 3ZM1 12C1 5.92487 5.92487 1 12 1C18.0751 1 23 5.92487 23 12C23 18.0751 18.0751 23 12 23C5.92487 23 1 18.0751 1 12ZM8 10C8 7.79086 9.79086 6 12 6C14.2091 6 16 7.79086 16 10C16 11.1566 15.5078 12.1998 14.7244 12.9288C14.7173 12.9354 14.7103 12.9419 14.7035 12.9482L15.5977 15.6308C15.6007 15.6399 15.6038 15.649 15.6069 15.6583C15.658 15.8115 15.7153 15.9832 15.7511 16.1347C15.7902 16.3002 15.8365 16.5652 15.7611 16.8653C15.6678 17.2369 15.4359 17.5587 15.1129 17.7647C14.852 17.9311 14.586 17.9709 14.4166 17.9862C14.2615 18.0001 14.0805 18.0001 13.919 18C13.9093 18 13.8996 18 13.8901 18H10.1099C10.1004 18 10.0907 18 10.081 18C9.91948 18.0001 9.73846 18.0001 9.58343 17.9862C9.41402 17.9709 9.14799 17.9311 8.88709 17.7647C8.5641 17.5587 8.33218 17.2369 8.23888 16.8653C8.16351 16.5652 8.20981 16.3002 8.24893 16.1347C8.28473 15.9832 8.34203 15.8115 8.39315 15.6583C8.39623 15.649 8.39928 15.6399 8.40231 15.6308L9.2965 12.9482C9.28971 12.9419 9.28274 12.9354 9.27558 12.9288C8.49218 12.1998 8 11.1566 8 10ZM12 8C10.8954 8 10 8.89543 10 10C10 10.5784 10.2442 11.0981 10.638 11.4646L10.6512 11.4768C10.7463 11.5654 10.8403 11.6528 10.9142 11.7279C10.9795 11.7942 11.1098 11.9289 11.2041 12.1107C11.2435 12.1866 11.2937 12.2941 11.3284 12.4298C11.363 12.5655 11.3704 12.6839 11.3722 12.7695C11.3761 12.9546 11.3391 13.1108 11.3122 13.2093C11.2874 13.3003 11.253 13.4033 11.2226 13.4945L10.3874 16H13.6126L12.7774 13.4945C12.747 13.4033 12.7126 13.3003 12.6878 13.2093C12.6609 13.1108 12.6239 12.9546 12.6278 12.7695C12.6296 12.6839 12.637 12.5655 12.6716 12.4298C12.7063 12.2941 12.7565 12.1866 12.7959 12.1107C12.8902 11.9289 13.0205 11.7942 13.0858 11.7279C13.1597 11.6528 13.2537 11.5654 13.3488 11.4768L13.362 11.4646C13.7558 11.0981 14 10.5784 14 10C14 8.89543 13.1046 8 12 8Z"
        fill="#303233" />
</svg>
