<svg width="16" height="16" viewBox="0 0 16 16" fill="none" xmlns="http://www.w3.org/2000/svg">
    <g clip-path="url(#clip0_4332_126)">
        <path
            d="M9.99935 0.583336C10.4136 0.583336 10.7493 0.919122 10.7493 1.33334V2.33334C10.7493 2.74755 10.4136 3.08334 9.99935 3.08334C9.58514 3.08334 9.24935 2.74755 9.24935 2.33334V1.33334C9.24935 0.919122 9.58514 0.583336 9.99935 0.583336Z"
            fill="#303233" />
        <path
            d="M6.13569 2.13634C6.42858 1.84345 6.90345 1.84345 7.19635 2.13634L7.86301 2.80301C8.15591 3.0959 8.15591 3.57077 7.86301 3.86367C7.57012 4.15656 7.09525 4.15656 6.80235 3.86367L6.13569 3.197C5.84279 2.90411 5.84279 2.42923 6.13569 2.13634Z"
            fill="#303233" />
        <path
            d="M13.863 2.13634C14.1559 2.42923 14.1559 2.90411 13.863 3.197L13.1963 3.86367C12.9035 4.15656 12.4286 4.15656 12.1357 3.86367C11.8428 3.57077 11.8428 3.0959 12.1357 2.80301L12.8024 2.13634C13.0952 1.84345 13.5701 1.84345 13.863 2.13634Z"
            fill="#303233" />
        <path
            d="M12.916 6C12.916 5.58579 13.2518 5.25 13.666 5.25H14.666C15.0802 5.25 15.416 5.58579 15.416 6C15.416 6.41422 15.0802 6.75 14.666 6.75H13.666C13.2518 6.75 12.916 6.41422 12.916 6Z"
            fill="#303233" />
        <path
            d="M12.1357 8.13634C12.4286 7.84345 12.9035 7.84345 13.1963 8.13634L13.863 8.80301C14.1559 9.0959 14.1559 9.57077 13.863 9.86367C13.5701 10.1566 13.0952 10.1566 12.8024 9.86367L12.1357 9.197C11.8428 8.90411 11.8428 8.42923 12.1357 8.13634Z"
            fill="#303233" />
        <path fill-rule="evenodd" clip-rule="evenodd"
            d="M8.56213 4.59548C8.84665 4.50303 9.15315 4.50303 9.43767 4.59548C9.64545 4.66299 9.80298 4.777 9.92349 4.8793C10.0323 4.97169 10.1504 5.08979 10.2683 5.20772L10.7922 5.73161C10.9101 5.84951 11.0282 5.96759 11.1206 6.07641C11.2229 6.19692 11.3369 6.35446 11.4044 6.56223C11.4969 6.84676 11.4969 7.15325 11.4044 7.43778C11.3369 7.64555 11.2229 7.80309 11.1206 7.92359C11.0282 8.03241 10.9101 8.15047 10.7922 8.26836L4.60162 14.4589C4.48372 14.5769 4.36565 14.695 4.25682 14.7874C4.13632 14.8897 3.97878 15.0037 3.77101 15.0712C3.48648 15.1636 3.17999 15.1636 2.89546 15.0712C2.68769 15.0037 2.53015 14.8897 2.40964 14.7874C2.30081 14.695 2.18274 14.5769 2.06484 14.4589L1.54095 13.9351C1.42303 13.8172 1.30492 13.6991 1.21253 13.5903C1.11023 13.4698 0.996221 13.3122 0.928712 13.1044C0.836263 12.8199 0.836263 12.5134 0.928712 12.2289C0.996221 12.0211 1.11023 11.8636 1.21253 11.7431C1.30492 11.6343 1.42303 11.5162 1.54096 11.3983L7.73151 5.20772C7.84941 5.0898 7.96748 4.97169 8.07631 4.8793C8.19682 4.777 8.35435 4.66299 8.56213 4.59548ZM6.66635 8.39421L2.61781 12.4428C2.51285 12.5477 2.44542 12.6156 2.39811 12.6667C2.44542 12.7177 2.51285 12.7856 2.61781 12.8906L3.10932 13.3821C3.21428 13.4871 3.28217 13.5545 3.33323 13.6018C3.3843 13.5545 3.45219 13.4871 3.55715 13.3821L7.60569 9.33356L6.66635 8.39421ZM8.66635 8.27289L7.72701 7.33355L8.77598 6.28458C8.88094 6.17962 8.94883 6.11219 8.9999 6.06488C9.05096 6.11219 9.11885 6.17962 9.22382 6.28458L9.71532 6.77609C9.82028 6.88105 9.88771 6.94894 9.93502 7C9.88771 7.05107 9.82029 7.11896 9.71532 7.22392L8.66635 8.27289Z"
            fill="#303233" />
    </g>
    <defs>
        <clipPath id="clip0_4332_126">
            <rect width="16" height="16" fill="white" />
        </clipPath>
    </defs>
</svg>
