<svg width="16" height="16" viewBox="0 0 16 16" fill="none" xmlns="http://www.w3.org/2000/svg">
    <path fill-rule="evenodd" clip-rule="evenodd"
        d="M5.33338 5.83333C5.33338 3.16396 7.49733 1 10.1667 1C12.8361 1 15 3.16396 15 5.83333C15 8.50271 12.8361 10.6667 10.1667 10.6667C9.94669 10.6667 9.72987 10.6519 9.51721 10.6233C9.35648 10.6017 9.2499 10.5875 9.17065 10.5798C9.10627 10.5736 9.08287 10.5744 9.08114 10.5743C9.06591 10.5765 9.05683 10.5783 9.05145 10.5795L9.04612 10.5807L9.04476 10.5811L9.04343 10.5817L9.03841 10.5839C9.03307 10.5864 9.02398 10.5909 9.00878 10.5994C9.00673 10.6007 8.99298 10.6101 8.95974 10.6403C8.91638 10.6798 8.86132 10.7347 8.77185 10.8242L7.63137 11.9647C7.5376 12.0584 7.41042 12.1111 7.27782 12.1111H6.33338V13.0556C6.33338 13.3317 6.10952 13.5556 5.83338 13.5556H4.88894V14.5C4.88894 14.7761 4.66508 15 4.38894 15H2.63778C2.45086 15 2.28159 15 2.14055 14.9885C1.9892 14.9761 1.82689 14.948 1.66741 14.8668C1.43744 14.7496 1.25046 14.5626 1.13328 14.3327C1.05203 14.1732 1.02394 14.0109 1.01157 13.8595C1.00005 13.7185 1.00006 13.5492 1.00007 13.3623L1.00007 12.0898C1.00007 12.0785 1.00005 12.0671 1.00004 12.0558C0.999815 11.9136 0.999589 11.7676 1.03384 11.6249C1.06378 11.5002 1.11316 11.381 1.18018 11.2717C1.25684 11.1466 1.36023 11.0435 1.46094 10.9431C1.46897 10.9351 1.47699 10.9271 1.48497 10.9191L5.17587 7.22818C5.26534 7.13871 5.32022 7.08365 5.35971 7.04029C5.39777 6.9985 5.40275 6.98751 5.40032 6.99186C5.40902 6.97629 5.41366 6.96703 5.41618 6.96162L5.41839 6.9566L5.4189 6.95527L5.4193 6.9539L5.42059 6.94857C5.42177 6.9432 5.4235 6.93412 5.42575 6.91889C5.42564 6.91716 5.42642 6.89376 5.42021 6.82938C5.41256 6.75013 5.39831 6.64355 5.3767 6.48281C5.34811 6.27015 5.33338 6.05333 5.33338 5.83333ZM10.1667 2C8.04961 2 6.33338 3.71624 6.33338 5.83333C6.33338 6.00865 6.34511 6.18096 6.36778 6.34957L6.36907 6.35916C6.38905 6.50777 6.4059 6.63311 6.41557 6.73328C6.42498 6.83069 6.43226 6.94454 6.41624 7.0565C6.39277 7.22065 6.35411 7.33503 6.27321 7.47977C6.1891 7.63025 6.05406 7.76479 5.91829 7.90006C5.90651 7.91179 5.89473 7.92353 5.88297 7.93529L2.19207 11.6262C2.05033 11.7679 2.03936 11.7835 2.03281 11.7942C2.02063 11.814 2.01165 11.8357 2.00621 11.8584C2.00328 11.8706 2.00007 11.8893 2.00007 12.0898V13.3444C2.00007 13.5549 2.00045 13.6827 2.00824 13.7781C2.01408 13.8495 2.02242 13.8741 2.02428 13.8787C2.02475 13.8798 2.02479 13.8797 2.02428 13.8787C2.04558 13.9205 2.07959 13.9545 2.1214 13.9758C2.12594 13.9776 2.15061 13.986 2.22198 13.9918C2.31733 13.9996 2.44513 14 2.65562 14H3.88894V13.0556C3.88894 12.7794 4.1128 12.5556 4.38894 12.5556H5.33338V11.6111C5.33338 11.335 5.55724 11.1111 5.83338 11.1111H7.07071L8.06474 10.1171C8.0765 10.1053 8.08824 10.0935 8.09997 10.0818C8.23524 9.94598 8.36978 9.81094 8.52026 9.72683C8.66501 9.64593 8.77938 9.60728 8.94353 9.5838C9.05549 9.56778 9.16934 9.57506 9.26675 9.58447C9.36691 9.59414 9.49223 9.61099 9.64082 9.63097L9.65045 9.63226C9.81907 9.65493 9.99138 9.66667 10.1667 9.66667C12.2838 9.66667 14 7.95042 14 5.83333C14 3.71624 12.2838 2 10.1667 2Z"
        fill="#303233" />
    <path
        d="M9.6665 5.83334C9.6665 5.5572 9.89036 5.33334 10.1665 5.33334H10.1737C10.4499 5.33334 10.6737 5.5572 10.6737 5.83334C10.6737 6.10949 10.4499 6.33334 10.1737 6.33334H10.1665C9.89036 6.33334 9.6665 6.10949 9.6665 5.83334Z"
        fill="#303233" />
</svg>
