<svg width="24" height="24" viewBox="0 0 24 24" fill="none" xmlns="http://www.w3.org/2000/svg">
    <path
        d="M9 7C9.55228 7 10 7.44772 10 8V14C10 14.5523 9.55228 15 9 15C8.44772 15 8 14.5523 8 14V8C8 7.44772 8.44772 7 9 7Z"
        fill="#303233" />
    <path
        d="M16 8C16 7.44772 15.5523 7 15 7C14.4477 7 14 7.44772 14 8V14C14 14.5523 14.4477 15 15 15C15.5523 15 16 14.5523 16 14V8Z"
        fill="#303233" />
    <path fill-rule="evenodd" clip-rule="evenodd"
        d="M6.48736 2.99924C10.0416 1.66639 13.9584 1.66639 17.5126 2.99924L19.0534 3.57701C20.2243 4.0161 21 5.13546 21 6.386V12C21 14.9647 19.3096 17.413 17.5505 19.1698C15.7763 20.9418 13.7968 22.1474 12.9255 22.6369C12.3469 22.962 11.6531 22.962 11.0745 22.6369C10.2032 22.1474 8.22373 20.9418 6.44951 19.1698C4.69041 17.413 3 14.9647 3 12V6.386C3 5.13546 3.77572 4.0161 4.94663 3.57701L6.48736 2.99924ZM16.8104 4.87189C13.7089 3.70884 10.2911 3.70884 7.18961 4.87189L5.64888 5.44967C5.25857 5.59603 5 5.96915 5 6.386V12C5 14.1858 6.25709 16.1511 7.86281 17.7547C9.41841 19.3083 11.1769 20.3962 12 20.8627C12.8231 20.3962 14.5816 19.3083 16.1372 17.7547C17.7429 16.1511 19 14.1858 19 12V6.386C19 5.96915 18.7414 5.59603 18.3511 5.44967L16.8104 4.87189Z"
        fill="#303233" />
</svg>
