<svg width="16" height="16" viewBox="0 0 16 16" fill="none" xmlns="http://www.w3.org/2000/svg">
    <path fill-rule="evenodd" clip-rule="evenodd"
        d="M8 1C4.13401 1 1 4.13401 1 8C1 11.866 4.13401 15 8 15C11.866 15 15 11.866 15 8C15 4.13401 11.866 1 8 1ZM9.99528 5.25C9.58381 5.25 9.25024 5.58579 9.25024 6C9.25024 6.41421 9.58381 6.75 9.99528 6.75H10.0052C10.4167 6.75 10.7502 6.41421 10.7502 6C10.7502 5.58579 10.4167 5.25 10.0052 5.25H9.99528ZM10.8635 10.3231C11.0532 10.5237 11.0445 10.8401 10.8438 11.0299C10.6432 11.2197 10.3268 11.2109 10.137 11.0103C9.82171 10.6769 9.06274 10.0249 7.99992 10.0249C6.93777 10.0249 6.17908 10.6761 5.86339 11.0097C5.67358 11.2102 5.35711 11.2189 5.15655 11.0291C4.95599 10.8393 4.94728 10.5228 5.1371 10.3223C5.52019 9.9175 6.52584 9.0249 7.99992 9.0249C9.47491 9.0249 10.4809 9.91859 10.8635 10.3231ZM5.25024 6C5.25024 5.58579 5.58381 5.25 5.99528 5.25H6.00521C6.41668 5.25 6.75024 5.58579 6.75024 6C6.75024 6.41421 6.41668 6.75 6.00521 6.75H5.99528C5.58381 6.75 5.25024 6.41421 5.25024 6Z"
        fill="#303233" />
</svg>
