<svg width="24" height="24" viewBox="0 0 24 24" fill="none" xmlns="http://www.w3.org/2000/svg">
    <path fill-rule="evenodd" clip-rule="evenodd"
        d="M8.75 3C8.75 2.58579 8.41421 2.25 8 2.25C7.58579 2.25 7.25 2.58579 7.25 3V4.25H2C1.58579 4.25 1.25 4.58579 1.25 5C1.25 5.41421 1.58579 5.75 2 5.75H10.2164C10.0456 7.64508 9.23398 9.35537 7.9999 10.6625C7.32906 9.95196 6.78297 9.12218 6.39678 8.20812C6.23557 7.82656 5.79557 7.64793 5.41401 7.80914C5.03246 7.97035 4.85383 8.41035 5.01504 8.79191C5.4647 9.85617 6.09806 10.8241 6.87546 11.6559C5.50961 12.6581 3.82393 13.25 2 13.25C1.58579 13.25 1.25 13.5858 1.25 14C1.25 14.4142 1.58579 14.75 2 14.75C4.26283 14.75 6.34561 13.9791 8.00007 12.6857C9.42157 13.7971 11.1594 14.5228 13.0565 14.7049L10.343 19.6386C10.1434 20.0015 10.2758 20.4575 10.6387 20.6572C11.0016 20.8568 11.4577 20.7244 11.6573 20.3614L13.0936 17.75H19.9067L21.343 20.3614C21.5426 20.7244 21.9986 20.8568 22.3616 20.6572C22.7245 20.4575 22.8569 20.0015 22.6573 19.6386L17.1573 9.63856C17.0255 9.3989 16.7737 9.25 16.5001 9.25C16.2266 9.25 15.9748 9.3989 15.843 9.63856L13.8573 13.2488C12.0886 13.2188 10.455 12.6322 9.12458 11.6561C10.5934 10.0845 11.5484 8.02651 11.7216 5.75H14C14.4142 5.75 14.75 5.41421 14.75 5C14.75 4.58579 14.4142 4.25 14 4.25H8.75V3ZM19.0817 16.25L16.5001 11.5563L13.9186 16.25H19.0817Z"
        fill="#303233" />
</svg>
