<svg width="16" height="16" viewBox="0 0 16 16" fill="none" xmlns="http://www.w3.org/2000/svg">
    <g clip-path="url(#clip0_110_710)">
        <path fill-rule="evenodd" clip-rule="evenodd"
            d="M8.5 1C8.5 0.723858 8.27614 0.5 8 0.5C7.72386 0.5 7.5 0.723858 7.5 1V2.02054C4.5851 2.26101 2.26101 4.5851 2.02054 7.5H1C0.723858 7.5 0.5 7.72386 0.5 8C0.5 8.27614 0.723858 8.5 1 8.5H2.02054C2.26101 11.4149 4.5851 13.739 7.5 13.9795V15C7.5 15.2761 7.72386 15.5 8 15.5C8.27614 15.5 8.5 15.2761 8.5 15V13.9795C11.4149 13.739 13.739 11.4149 13.9795 8.5H15C15.2761 8.5 15.5 8.27614 15.5 8C15.5 7.72386 15.2761 7.5 15 7.5H13.9795C13.739 4.5851 11.4149 2.26101 8.5 2.02054V1ZM7.5 3.02469V4C7.5 4.27614 7.72386 4.5 8 4.5C8.27614 4.5 8.5 4.27614 8.5 4V3.02469C10.8622 3.25922 12.7408 5.13779 12.9753 7.5H12C11.7239 7.5 11.5 7.72386 11.5 8C11.5 8.27614 11.7239 8.5 12 8.5H12.9753C12.7408 10.8622 10.8622 12.7408 8.5 12.9753V12C8.5 11.7239 8.27614 11.5 8 11.5C7.72386 11.5 7.5 11.7239 7.5 12V12.9753C5.13779 12.7408 3.25922 10.8622 3.02469 8.5H4C4.27614 8.5 4.5 8.27614 4.5 8C4.5 7.72386 4.27614 7.5 4 7.5H3.02469C3.25922 5.13779 5.13779 3.25922 7.5 3.02469Z"
            fill="#303233" />
    </g>
    <defs>
        <clipPath id="clip0_110_710">
            <rect width="16" height="16" fill="white" />
        </clipPath>
    </defs>
</svg>
