<svg width="16" height="16" viewBox="0 0 16 16" fill="none" xmlns="http://www.w3.org/2000/svg">
    <g clip-path="url(#clip0_415_282)">
        <path
            d="M13.75 1C13.75 0.585786 13.4142 0.25 13 0.25C12.5858 0.25 12.25 0.585786 12.25 1V2.25H11C10.5858 2.25 10.25 2.58579 10.25 3C10.25 3.41421 10.5858 3.75 11 3.75H12.25V5C12.25 5.41421 12.5858 5.75 13 5.75C13.4142 5.75 13.75 5.41421 13.75 5V3.75H15C15.4142 3.75 15.75 3.41421 15.75 3C15.75 2.58579 15.4142 2.25 15 2.25H13.75V1Z"
            fill="#303233" />
        <path fill-rule="evenodd" clip-rule="evenodd"
            d="M8 0.75C8.67299 0.75 9.32456 0.841698 9.94291 1.01328C9.23311 1.39174 8.75 2.13945 8.75 3C8.75 3.87101 9.24493 4.62643 9.9689 5.00036C9.4315 5.01469 9.00024 5.45676 9.00024 6C9.00024 6.55228 9.44598 7 9.99582 7H10.0047C10.5441 7 10.9833 6.56912 10.9998 6.03134C11.3737 6.75518 12.1291 7.25 13 7.25C13.8606 7.25 14.6083 6.76689 14.9867 6.05709C15.1583 6.67544 15.25 7.32701 15.25 8C15.25 12.0041 12.0041 15.25 8 15.25C3.99594 15.25 0.75 12.0041 0.75 8C0.75 3.99594 3.99594 0.75 8 0.75ZM5.99582 5C5.44598 5 5.00024 5.44772 5.00024 6C5.00024 6.55228 5.44598 7 5.99582 7H6.00467C6.55451 7 7.00024 6.55228 7.00024 6C7.00024 5.44772 6.55451 5 6.00467 5H5.99582ZM11.0451 10.0403C11.3297 9.73938 11.3166 9.26469 11.0156 8.98005C10.7147 8.6954 10.24 8.7086 9.95539 9.00951C9.65692 9.32504 8.9597 9.91666 7.99992 9.91666C7.04076 9.91666 6.34381 9.32581 6.04497 9.01005C5.76024 8.70921 5.28555 8.69615 4.98471 8.98087C4.68387 9.2656 4.6708 9.74029 4.95553 10.0411C5.35547 10.4637 6.42285 11.4167 7.99992 11.4167C9.57795 11.4167 10.6457 10.4626 11.0451 10.0403Z"
            fill="#303233" />
        <path
            d="M10.7809 5.37377C10.7353 5.31678 10.6835 5.26491 10.6267 5.21918C10.6715 5.22666 10.7167 5.23281 10.7624 5.2376C10.7672 5.28342 10.7734 5.32882 10.7809 5.37377Z"
            fill="#303233" />
    </g>
    <defs>
        <clipPath id="clip0_415_282">
            <rect width="16" height="16" fill="white" />
        </clipPath>
    </defs>
</svg>
