<svg width="24" height="24" viewBox="0 0 24 24" fill="none" xmlns="http://www.w3.org/2000/svg">
    <path
        d="M4 3C3.44772 3 3 3.44772 3 4C3 4.55228 3.44772 5 4 5H20C20.5523 5 21 4.55228 21 4C21 3.44772 20.5523 3 20 3H4Z"
        fill="#303233" />
    <path fill-rule="evenodd" clip-rule="evenodd"
        d="M6 7C4.34315 7 3 8.34315 3 10V11C3 12.6569 4.34315 14 6 14H18C19.6569 14 21 12.6569 21 11V10C21 8.34315 19.6569 7 18 7H6ZM5 10C5 9.44772 5.44772 9 6 9H18C18.5523 9 19 9.44772 19 10V11C19 11.5523 18.5523 12 18 12H6C5.44772 12 5 11.5523 5 11V10Z"
        fill="#303233" />
    <path
        d="M4 20C3.44772 20 3 20.4477 3 21C3 21.5523 3.44772 22 4 22H20C20.5523 22 21 21.5523 21 21C21 20.4477 20.5523 20 20 20H4Z"
        fill="#303233" />
    <path
        d="M3 17C3 16.4477 3.44772 16 4 16H20C20.5523 16 21 16.4477 21 17C21 17.5523 20.5523 18 20 18H4C3.44772 18 3 17.5523 3 17Z"
        fill="#303233" />
</svg>
