<svg width="16" height="16" viewBox="0 0 16 16" fill="none" xmlns="http://www.w3.org/2000/svg">
    <path
        d="M5.76942 0.75H10.2306C10.7821 0.749991 11.2411 0.749983 11.6157 0.780592C12.006 0.812481 12.3704 0.881296 12.7143 1.05655C13.2436 1.32619 13.6738 1.75645 13.9435 2.28565C14.1187 2.6296 14.1875 2.99397 14.2194 3.38428C14.25 3.75893 14.25 4.21787 14.25 4.7694V9.31802L13.341 8.40901C12.4623 7.53033 11.0377 7.53033 10.159 8.40901L7.90901 10.659C7.03033 11.5377 7.03033 12.9623 7.90901 13.841C8.34835 14.2803 8.92418 14.5 9.5 14.5C9.5 14.763 9.54512 15.0154 9.62803 15.25H5.7694C5.21787 15.25 4.75893 15.25 4.38428 15.2194C3.99397 15.1875 3.6296 15.1187 3.28565 14.9435C2.75645 14.6738 2.32619 14.2436 2.05655 13.7143C1.8813 13.3704 1.81248 13.006 1.78059 12.6157C1.74998 12.2411 1.74999 11.7821 1.75 11.2306V4.76942C1.74999 4.2179 1.74998 3.75892 1.78059 3.38428C1.81248 2.99397 1.8813 2.6296 2.05655 2.28565C2.32619 1.75645 2.75645 1.32619 3.28565 1.05655C3.6296 0.881296 3.99397 0.812481 4.38428 0.780592C4.75892 0.749983 5.2179 0.749991 5.76942 0.75Z"
        fill="#303233" />
    <path
        d="M12.5 14.5C12.5 14.9142 12.1642 15.25 11.75 15.25C11.3358 15.25 11 14.9142 11 14.5V11.8107L10.0303 12.7803C9.73744 13.0732 9.26256 13.0732 8.96967 12.7803C8.67678 12.4874 8.67678 12.0126 8.96967 11.7197L11.2197 9.46967C11.5126 9.17678 11.9874 9.17678 12.2803 9.46967L14.5303 11.7197C14.8232 12.0126 14.8232 12.4874 14.5303 12.7803C14.2374 13.0732 13.7626 13.0732 13.4697 12.7803L12.5 11.8107V14.5Z"
        fill="#303233" />
</svg>
