<svg width="16" height="16" viewBox="0 0 16 16" fill="none" xmlns="http://www.w3.org/2000/svg">
    <path
        d="M6.29289 6.29289C6.4744 6.11138 6.72372 6 7 6C7.55228 6 8 6.44772 8 7C8 7.55228 7.55228 8 7 8C6.44772 8 6 7.55228 6 7C6 6.72372 6.11138 6.4744 6.29289 6.29289Z"
        fill="black" />
    <path fill-rule="evenodd" clip-rule="evenodd"
        d="M6.8535 1.14645C6.75973 1.05268 6.63255 1 6.49994 1C6.36733 1 6.24016 1.05268 6.14639 1.14645L3.99997 3.29286L1.85355 1.14645C1.65829 0.951184 1.34171 0.951184 1.14645 1.14645C0.951184 1.34171 0.951184 1.65829 1.14645 1.85355L3.29286 3.99997L2.394 4.89884C2.01082 5.28201 1.70175 5.59107 1.47193 5.86179C1.2353 6.14053 1.05344 6.41135 0.950728 6.72746C0.787583 7.22957 0.787583 7.77043 0.950728 8.27254C1.05344 8.58865 1.2353 8.85947 1.47193 9.13821C1.70175 9.40893 2.01082 9.71799 2.394 10.1012L3.89879 11.606C4.28194 11.9891 4.59102 12.2982 4.86173 12.528C5.14047 12.7646 5.41129 12.9465 5.7274 13.0492C6.22951 13.2124 6.77038 13.2124 7.27248 13.0492C7.58859 12.9465 7.85941 12.7646 8.13815 12.528C8.40887 12.2982 8.71792 11.9891 9.10109 11.606L12.8535 7.85355C13.0488 7.65829 13.0488 7.34171 12.8535 7.14645L6.8535 1.14645ZM3.29286 3.99997L5.27698 5.98409C5.10115 6.28181 5 6.62931 5 7C5 8.10457 5.89543 9 7 9C8.10457 9 9 8.10457 9 7C9 5.89543 8.10457 5 7 5C6.62931 5 6.28181 5.10115 5.98409 5.27698L3.99997 3.29286L3.29286 3.99997Z"
        fill="black" />
    <path
        d="M13.4472 9.77645C13.3626 9.60704 13.1894 9.50001 13 9.5C12.8106 9.49999 12.6375 9.60699 12.5528 9.77639L10.5528 13.7764C10.4753 13.9314 10.4836 14.1155 10.5747 14.2629C10.6658 14.4103 10.8267 14.5 11 14.5H14.9993C15.1726 14.5 15.3336 14.4103 15.4247 14.2629C15.5158 14.1155 15.5241 13.9314 15.4466 13.7765L13.4472 9.77645Z"
        fill="black" />
</svg>
