<svg width="24" height="24" viewBox="0 0 24 24" fill="none" xmlns="http://www.w3.org/2000/svg">
    <path
        d="M4 8C4 5.23858 6.23858 3 9 3C11.7614 3 14 5.23858 14 8C14 10.7614 11.7614 13 9 13C6.23858 13 4 10.7614 4 8Z"
        fill="#303233" />
    <path
        d="M0.283525 20.7507C1.28257 16.8692 4.80492 14 8.99993 14C13.1949 14 16.7173 16.8692 17.7163 20.7507C17.7934 21.0501 17.7276 21.3683 17.5382 21.6127C17.3488 21.857 17.057 22 16.7479 22H1.25196C0.942809 22 0.651038 21.857 0.461627 21.6127C0.272217 21.3683 0.206466 21.0501 0.283525 20.7507Z"
        fill="#303233" />
    <path
        d="M23.7071 10.7071C24.0976 10.3166 24.0976 9.68342 23.7071 9.29289C23.3166 8.90237 22.6834 8.90237 22.2929 9.29289L19 12.5858L17.7071 11.2929C17.3166 10.9024 16.6834 10.9024 16.2929 11.2929C15.9024 11.6834 15.9024 12.3166 16.2929 12.7071L18.2929 14.7071C18.6834 15.0976 19.3166 15.0976 19.7071 14.7071L23.7071 10.7071Z"
        fill="#303233" />
</svg>
