<svg width="24" height="24" viewBox="0 0 24 24" fill="none" xmlns="http://www.w3.org/2000/svg">
    <path fill-rule="evenodd" clip-rule="evenodd"
        d="M10.8136 1.32598C10.4952 1.24953 10.1657 1.24972 9.74704 1.24997L5.16962 1.24999C4.63547 1.24998 4.18962 1.24997 3.82539 1.27973C3.4455 1.31077 3.08884 1.37788 2.75158 1.54973C2.23414 1.81338 1.81344 2.23407 1.54979 2.75152C1.37794 3.08878 1.31083 3.44544 1.27979 3.82532C1.25004 4.18956 1.25004 4.6354 1.25005 5.16956L1.25003 9.74698C1.24978 10.1656 1.24959 10.4951 1.32604 10.8135C1.3934 11.0941 1.50452 11.3624 1.65529 11.6084C1.82639 11.8876 2.05954 12.1205 2.35572 12.4164L10.0984 20.159C10.6731 20.7337 11.1367 21.1973 11.5427 21.542C11.9608 21.897 12.3671 22.1697 12.8412 22.3238C13.5944 22.5685 14.4057 22.5685 15.1589 22.3238C15.633 22.1697 16.0393 21.897 16.4574 21.542C16.8634 21.1973 17.327 20.7337 17.9017 20.159L20.159 17.9017C20.7338 17.327 21.1973 16.8634 21.5421 16.4573C21.897 16.0392 22.1698 15.633 22.3239 15.1588C22.5686 14.4056 22.5686 13.5943 22.3239 12.8412C22.1698 12.367 21.897 11.9608 21.5421 11.5427C21.1973 11.1366 20.7338 10.673 20.159 10.0983L12.4164 2.35565C12.1206 2.05948 11.8877 1.82633 11.6085 1.65523C11.3624 1.50445 11.0942 1.39334 10.8136 1.32598ZM8 6.75C7.30964 6.75 6.75 7.30964 6.75 8C6.75 8.69036 7.30964 9.25 8 9.25C8.69036 9.25 9.25 8.69036 9.25 8C9.25 7.30964 8.69036 6.75 8 6.75Z"
        fill="#303233" />
</svg>
