<svg width="16" height="16" viewBox="0 0 16 16" fill="none" xmlns="http://www.w3.org/2000/svg">
    <path fill-rule="evenodd" clip-rule="evenodd"
        d="M11.7136 2.78418C12.1856 2.77292 12.6354 2.98459 12.9276 3.3555C13.151 3.63909 13.2038 3.97999 13.2263 4.23176C13.2494 4.49099 13.2494 4.8193 13.2493 5.19113V10.8089C13.2494 11.1807 13.2494 11.509 13.2263 11.7682C13.2038 12.02 13.151 12.3609 12.9276 12.6445C12.6354 13.0154 12.1856 13.2271 11.7136 13.2158C11.3526 13.2072 11.0563 13.0306 10.848 12.8874C10.6335 12.74 10.3806 12.5307 10.0941 12.2937L6.69258 9.47996C6.52162 9.33857 6.35864 9.20377 6.23228 9.07961C6.09633 8.94601 5.9441 8.77002 5.85333 8.52935C5.72465 8.18818 5.72465 7.81182 5.85333 7.47065C5.9441 7.22998 6.09633 7.05399 6.23228 6.92039C6.35864 6.79623 6.52161 6.66144 6.69257 6.52006C6.69934 6.51446 6.70612 6.50885 6.71291 6.50323L10.0941 3.70631C10.3806 3.46929 10.6335 3.26001 10.848 3.11258C11.0563 2.9694 11.3526 2.79279 11.7136 2.78418ZM11.6977 4.34872C11.5452 4.45352 11.3444 4.61873 11.0248 4.88311L7.669 7.65904C7.47026 7.82344 7.35839 7.91682 7.28364 7.99027C7.28016 7.9937 7.27691 7.99694 7.27387 8C7.27691 8.00306 7.28016 8.0063 7.28364 8.00973C7.35839 8.08318 7.47026 8.17656 7.669 8.34096L11.0248 11.1169C11.3444 11.3813 11.5452 11.5465 11.6977 11.6513C11.7088 11.6589 11.719 11.6658 11.7285 11.672C11.7298 11.6607 11.731 11.6484 11.7322 11.6351C11.7486 11.4508 11.7493 11.1907 11.7493 10.7759V5.22407C11.7493 4.80929 11.7486 4.54922 11.7322 4.36495C11.731 4.35158 11.7298 4.33929 11.7285 4.328C11.719 4.33423 11.7088 4.34112 11.6977 4.34872Z"
        fill="#303233" />
    <path fill-rule="evenodd" clip-rule="evenodd"
        d="M3.5 2.75C3.91421 2.75 4.25 3.08579 4.25 3.5V12.5006C4.25 12.9148 3.91421 13.2506 3.5 13.2506C3.08579 13.2506 2.75 12.9148 2.75 12.5006V3.5C2.75 3.08579 3.08579 2.75 3.5 2.75Z"
        fill="#303233" />
</svg>
