<svg width="16" height="16" viewBox="0 0 16 16" fill="none" xmlns="http://www.w3.org/2000/svg">
    <path fill-rule="evenodd" clip-rule="evenodd"
        d="M3 2C1.89543 2 0.999992 2.89544 1 4.00001L1.00006 12C1.00006 13.1046 1.89549 14 3.00006 14H13.0001C14.1046 14 15.0001 13.1046 15.0001 12V5C15.0001 3.89543 14.1046 3 13.0001 3H9.20712C8.75441 3 8.32024 2.82014 8.00015 2.5C7.68006 2.17986 7.24589 2 6.79318 2H3ZM11.6464 6.85355C11.4512 6.65829 11.4512 6.34171 11.6464 6.14645C11.8417 5.95118 12.1583 5.95118 12.3536 6.14645L14.3536 8.14645C14.5488 8.34171 14.5488 8.65829 14.3536 8.85355L12.3536 10.8536C12.1583 11.0488 11.8417 11.0488 11.6464 10.8536C11.4512 10.6583 11.4512 10.3417 11.6464 10.1464L12.7929 9H7.5C7.22386 9 7 8.77614 7 8.5C7 8.22386 7.22386 8 7.5 8H12.7929L11.6464 6.85355Z"
        fill="#303233" />
</svg>
