<svg width="24" height="24" viewBox="0 0 24 24" fill="none" xmlns="http://www.w3.org/2000/svg">
    <path
        d="M8.5 14.5C8.77605 14.5 8.99985 14.724 9 15C8.99985 15.276 8.77605 15.5 8.5 15.5C8.22395 15.5 8.00015 15.276 8 15C8.00015 14.724 8.22395 14.5 8.5 14.5Z"
        fill="#303233" />
    <path
        d="M14.5 13.5C14.7761 13.5 14.9999 13.724 15 14C14.9998 14.276 14.776 14.5 14.5 14.5C14.224 14.5 14.0002 14.276 14 14C14.0001 13.724 14.2239 13.5 14.5 13.5Z"
        fill="#303233" />
    <path fill-rule="evenodd" clip-rule="evenodd"
        d="M15.2412 1C16.0462 0.999988 16.7108 0.999729 17.252 1.04395C17.814 1.08987 18.3311 1.18827 18.8164 1.43555C19.5689 1.81902 20.181 2.43109 20.5645 3.18359C20.8117 3.6689 20.9101 4.18599 20.9561 4.74805C21.0003 5.28924 21 5.95383 21 6.75879V17.2412C21 18.0462 21.0003 18.7108 20.9561 19.252C20.9101 19.814 20.8117 20.3311 20.5645 20.8164C20.181 21.5689 19.5689 22.181 18.8164 22.5645C18.3311 22.8117 17.814 22.9101 17.252 22.9561C16.7108 23.0003 16.0462 23 15.2412 23H8.75879C7.95383 23 7.28924 23.0003 6.74805 22.9561C6.18599 22.9101 5.6689 22.8117 5.18359 22.5645C4.43109 22.181 3.81902 21.5689 3.43555 20.8164C3.18827 20.3311 3.08987 19.814 3.04395 19.252C2.99973 18.7108 2.99999 18.0462 3 17.2412V6.75879C2.99999 5.95382 2.99973 5.28924 3.04395 4.74805C3.08988 4.18599 3.18827 3.6689 3.43555 3.18359C3.81902 2.43109 4.43109 1.81902 5.18359 1.43555C5.6689 1.18827 6.18599 1.08988 6.74805 1.04395C7.28924 0.999729 7.95382 0.999988 8.75879 1H15.2412ZM15.0879 6.6543C14.8912 6.66985 14.6611 6.709 14.4385 6.74609L10.8379 7.34668C10.6748 7.37387 10.4975 7.40245 10.3467 7.43945C10.1837 7.47947 9.98208 7.5443 9.78125 7.67774C9.50649 7.86049 9.28845 8.11789 9.15332 8.41895C9.05461 8.63909 9.02342 8.84916 9.01074 9.0166C8.99906 9.17144 9 9.35127 9 9.5166V12.5498C8.83847 12.517 8.6712 12.5 8.5 12.5C7.11938 12.5 6.00015 13.6194 6 15C6.00015 16.3806 7.11938 17.5 8.5 17.5C9.88062 17.5 10.9998 16.3806 11 15V9.34766C11.0476 9.33938 11.102 9.33017 11.167 9.31934L14.7676 8.71973C14.857 8.70482 14.9324 8.69121 14.999 8.68067C14.9996 8.74827 15 8.82598 15 8.91699V11.5498C14.8385 11.517 14.6712 11.5 14.5 11.5C13.1194 11.5 12.0001 12.6194 12 14C12.0002 15.3806 13.1194 16.5 14.5 16.5C15.8806 16.5 16.9998 15.3806 17 14V8.91699C17 8.69145 17.0004 8.45725 16.9834 8.26074C16.9678 8.08056 16.933 7.84975 16.8213 7.61524L16.7676 7.51465L16.6865 7.38574C16.5124 7.13557 16.2754 6.93536 16 6.80469L15.8594 6.74512L15.751 6.70899C15.5012 6.6373 15.2682 6.64007 15.0879 6.6543Z"
        fill="#303233" />
</svg>
