<svg width="24" height="24" viewBox="0 0 24 24" fill="none" xmlns="http://www.w3.org/2000/svg">
    <path fill-rule="evenodd" clip-rule="evenodd"
        d="M3.75 5C3.75 4.91409 3.80155 4.71287 4.17149 4.42132C4.53298 4.13644 5.10255 3.84708 5.87321 3.59019C7.4067 3.07903 9.5729 2.75 12 2.75C12.3288 2.75 12.6533 2.75604 12.9724 2.7678C13.3863 2.78305 13.7342 2.45986 13.7495 2.04593C13.7647 1.63199 13.4416 1.28407 13.0276 1.26882C12.6901 1.25638 12.3472 1.25 12 1.25C9.45654 1.25 7.12274 1.59254 5.39887 2.16717C4.54085 2.45317 3.79239 2.81026 3.24303 3.24321C2.70213 3.66949 2.25 4.25749 2.25 5V19C2.25 19.7425 2.70213 20.3305 3.24303 20.7568C3.79239 21.1897 4.54085 21.5468 5.39887 21.8328C7.12274 22.4075 9.45654 22.75 12 22.75C14.5435 22.75 16.8773 22.4075 18.6011 21.8328C19.4591 21.5468 20.2076 21.1897 20.757 20.7568C21.2979 20.3305 21.75 19.7425 21.75 19V12C21.75 11.5858 21.4142 11.25 21 11.25C20.5858 11.25 20.25 11.5858 20.25 12C20.25 12.0859 20.1985 12.2871 19.8285 12.5787C19.467 12.8636 18.8975 13.1529 18.1268 13.4098C16.5933 13.921 14.4271 14.25 12 14.25C9.5729 14.25 7.4067 13.921 5.87321 13.4098C5.10255 13.1529 4.53298 12.8636 4.17149 12.5787C3.80155 12.2871 3.75 12.0859 3.75 12V7.10311C4.22063 7.38436 4.78138 7.627 5.39887 7.83283C7.12274 8.40746 9.45654 8.75 12 8.75C12.3472 8.75 12.6901 8.74362 13.0276 8.73118C13.4416 8.71593 13.7647 8.36801 13.7495 7.95407C13.7342 7.54014 13.3863 7.21695 12.9724 7.2322C12.6533 7.24396 12.3288 7.25 12 7.25C9.5729 7.25 7.4067 6.92097 5.87321 6.40981C5.10255 6.15292 4.53298 5.86356 4.17149 5.57868C3.80155 5.28713 3.75 5.08591 3.75 5ZM20.25 14.1031C19.7794 14.3844 19.2186 14.627 18.6011 14.8328C16.8773 15.4075 14.5435 15.75 12 15.75C9.45654 15.75 7.12274 15.4075 5.39887 14.8328C4.78138 14.627 4.22063 14.3844 3.75 14.1031V19C3.75 19.0859 3.80155 19.2871 4.17149 19.5787C4.53298 19.8636 5.10255 20.1529 5.87321 20.4098C7.4067 20.921 9.5729 21.25 12 21.25C14.4271 21.25 16.5933 20.921 18.1268 20.4098C18.8975 20.1529 19.467 19.8636 19.8285 19.5787C20.1985 19.2871 20.25 19.0859 20.25 19V14.1031Z"
        fill="#303233" />
    <path
        d="M19.75 2C19.75 1.58579 19.4142 1.25 19 1.25C18.5858 1.25 18.25 1.58579 18.25 2V4.25H16C15.5858 4.25 15.25 4.58579 15.25 5C15.25 5.41421 15.5858 5.75 16 5.75H18.25V8C18.25 8.41421 18.5858 8.75 19 8.75C19.4142 8.75 19.75 8.41421 19.75 8V5.75H22C22.4142 5.75 22.75 5.41421 22.75 5C22.75 4.58579 22.4142 4.25 22 4.25H19.75V2Z"
        fill="#303233" />
</svg>
