<svg width="16" height="16" viewBox="0 0 16 16" fill="none" xmlns="http://www.w3.org/2000/svg">
    <path
        d="M14.531 1.46971C14.8239 1.76262 14.8239 2.2375 14.5309 2.53037L11.3108 5.75H13.5C13.9142 5.75 14.25 6.08579 14.25 6.5C14.25 6.91421 13.9142 7.25 13.5 7.25H9.5C9.29537 7.25 9.10989 7.16805 8.97457 7.03518L8.96478 7.02539C8.89529 6.95463 8.84266 6.87351 8.8069 6.78706C8.77024 6.69864 8.75 6.60168 8.75 6.5V2.5C8.75 2.08579 9.08579 1.75 9.5 1.75C9.91421 1.75 10.25 2.08579 10.25 2.5V4.68953L13.4704 1.46963C13.7633 1.17676 14.2381 1.17679 14.531 1.46971Z"
        fill="#303233" />
    <path
        d="M2.5 8.75C2.08579 8.75 1.75 9.08579 1.75 9.5C1.75 9.91421 2.08579 10.25 2.5 10.25H4.68934L1.46967 13.4697C1.17678 13.7626 1.17678 14.2374 1.46967 14.5303C1.76256 14.8232 2.23744 14.8232 2.53033 14.5303L5.75 11.3107V13.5C5.75 13.9142 6.08579 14.25 6.5 14.25C6.91421 14.25 7.25 13.9142 7.25 13.5V9.50028C7.25 9.49953 7.25 9.4985 7.25 9.49775C7.2497 9.39688 7.22949 9.30069 7.19309 9.21291C7.15649 9.12445 7.10224 9.04158 7.03033 8.96967C6.95842 8.89776 6.87555 8.84351 6.78709 8.80691C6.69866 8.77024 6.60169 8.75 6.5 8.75H2.5Z"
        fill="#303233" />
</svg>
