<svg width="24" height="24" viewBox="0 0 24 24" fill="none" xmlns="http://www.w3.org/2000/svg">
    <path fill-rule="evenodd" clip-rule="evenodd"
        d="M8.7587 1H15.2413C16.0463 0.999988 16.7106 0.999977 17.2518 1.04419C17.8139 1.09012 18.3306 1.18868 18.816 1.43597C19.5686 1.81947 20.1805 2.43139 20.564 3.18404C20.8113 3.66937 20.9099 4.18608 20.9558 4.74817C21 5.28936 21 5.95372 21 6.75868V12.5C21 13.0523 20.5523 13.5 20 13.5C19.4477 13.5 19 13.0523 19 12.5V6.8C19 5.94342 18.9992 5.36113 18.9624 4.91104C18.9266 4.47262 18.8617 4.24842 18.782 4.09202C18.5903 3.7157 18.2843 3.40973 17.908 3.21799C17.7516 3.1383 17.5274 3.07337 17.089 3.03755C16.6389 3.00078 16.0566 3 15.2 3H8.8C7.94342 3 7.36113 3.00078 6.91104 3.03755C6.47262 3.07337 6.24842 3.1383 6.09202 3.21799C5.7157 3.40973 5.40973 3.7157 5.21799 4.09202C5.1383 4.24842 5.07337 4.47262 5.03755 4.91104C5.00078 5.36113 5 5.94342 5 6.8V17.2C5 18.0566 5.00078 18.6389 5.03755 19.089C5.07337 19.5274 5.1383 19.7516 5.21799 19.908C5.40973 20.2843 5.7157 20.5903 6.09202 20.782C6.24843 20.8617 6.47262 20.9266 6.91101 20.9624C7.36107 20.9992 7.94333 21 8.79986 21H12.5C13.0523 21 13.5 21.4477 13.5 22C13.5 22.5523 13.0523 23 12.5 23H8.75854C7.95362 23 7.2893 23 6.74814 22.9558C6.18606 22.9099 5.66937 22.8113 5.18404 22.564C4.43139 22.1805 3.81947 21.5686 3.43597 20.816C3.18868 20.3306 3.09012 19.8139 3.04419 19.2518C2.99998 18.7106 2.99999 18.0463 3 17.2413V6.7587C2.99999 5.95373 2.99998 5.28937 3.04419 4.74817C3.09012 4.18608 3.18868 3.66937 3.43597 3.18404C3.81947 2.43139 4.43139 1.81947 5.18404 1.43597C5.66937 1.18868 6.18608 1.09012 6.74817 1.04419C7.28937 0.999977 7.95373 0.999988 8.7587 1ZM18 15C18.5523 15 19 15.4477 19 16V19.5858L20.2929 18.2929C20.6834 17.9024 21.3166 17.9024 21.7071 18.2929C22.0976 18.6834 22.0976 19.3166 21.7071 19.7071L18.7071 22.7071C18.3166 23.0976 17.6834 23.0976 17.2929 22.7071L14.2929 19.7071C13.9024 19.3166 13.9024 18.6834 14.2929 18.2929C14.6834 17.9024 15.3166 17.9024 15.7071 18.2929L17 19.5858V16C17 15.4477 17.4477 15 18 15Z"
        fill="#303233" />
</svg>
