<svg width="16" height="16" viewBox="0 0 16 16" fill="none" xmlns="http://www.w3.org/2000/svg">
    <path fill-rule="evenodd" clip-rule="evenodd"
        d="M3 5C3 3.34315 4.34315 2 6 2C7.65685 2 9 3.34315 9 5C9 6.65685 7.65685 8 6 8C4.34315 8 3 6.65685 3 5ZM6 3C4.89543 3 4 3.89543 4 5C4 6.10457 4.89543 7 6 7C7.10457 7 8 6.10457 8 5C8 3.89543 7.10457 3 6 3Z"
        fill="#303233" />
    <path
        d="M11.1036 5.39645C10.9083 5.20118 10.5917 5.20118 10.3964 5.39645C10.2012 5.59171 10.2012 5.90829 10.3964 6.10355L11.7929 7.5L10.3964 8.89645C10.2012 9.09171 10.2012 9.40829 10.3964 9.60355C10.5917 9.79882 10.9083 9.79882 11.1036 9.60355L12.5 8.20711L13.8964 9.60355C14.0917 9.79882 14.4083 9.79882 14.6036 9.60355C14.7988 9.40829 14.7988 9.09171 14.6036 8.89645L13.2071 7.5L14.6036 6.10355C14.7988 5.90829 14.7988 5.59171 14.6036 5.39645C14.4083 5.20118 14.0917 5.20118 13.8964 5.39645L12.5 6.79289L11.1036 5.39645Z"
        fill="#303233" />
    <path
        d="M1.58971 13.5995C2.00661 11.5457 3.82321 10 5.99969 10C8.17617 10 9.99276 11.5457 10.4097 13.5995C10.4646 13.8701 10.7285 14.0449 10.9991 13.99C11.2698 13.9351 11.4446 13.6712 11.3897 13.4005C10.88 10.8899 8.66112 9 5.99969 9C3.33825 9 1.11934 10.8899 0.609701 13.4005C0.554767 13.6712 0.729618 13.9351 1.00024 13.99C1.27086 14.0449 1.53478 13.8701 1.58971 13.5995Z"
        fill="#303233" />
</svg>
