<svg width="16" height="16" viewBox="0 0 16 16" fill="none" xmlns="http://www.w3.org/2000/svg">
    <path fill-rule="evenodd" clip-rule="evenodd"
        d="M10.2306 0.75H5.76942C5.21789 0.74999 4.75893 0.749982 4.38428 0.780592C3.99397 0.812481 3.6296 0.881295 3.28565 1.05655C2.75645 1.32619 2.32619 1.75645 2.05655 2.28565C1.8813 2.6296 1.81248 2.99397 1.78059 3.38428C1.74998 3.75893 1.74999 4.21787 1.75 4.76941V11.2306C1.74999 11.7821 1.74998 12.2411 1.78059 12.6157C1.81248 13.006 1.8813 13.3704 2.05655 13.7143C2.32619 14.2436 2.75645 14.6738 3.28565 14.9435C3.6296 15.1187 3.99397 15.1875 4.38428 15.2194C4.75893 15.25 5.21787 15.25 5.7694 15.25H9.03588C8.23843 14.4003 7.75 13.2572 7.75 12C7.75 9.37665 9.87665 7.25 12.5 7.25C13.118 7.25 13.7084 7.36802 14.25 7.58276V4.7694C14.25 4.21787 14.25 3.75893 14.2194 3.38428C14.1875 2.99397 14.1187 2.6296 13.9435 2.28565C13.6738 1.75645 13.2436 1.32619 12.7143 1.05655C12.3704 0.881295 12.006 0.812481 11.6157 0.780592C11.2411 0.749982 10.7821 0.74999 10.2306 0.75Z"
        fill="#303233" />
    <path fill-rule="evenodd" clip-rule="evenodd"
        d="M12.5 8.75C10.7051 8.75 9.25 10.2051 9.25 12C9.25 13.7949 10.7051 15.25 12.5 15.25C14.2949 15.25 15.75 13.7949 15.75 12C15.75 10.2051 14.2949 8.75 12.5 8.75ZM10.75 12C10.75 11.0335 11.5335 10.25 12.5 10.25C12.7063 10.25 12.9043 10.2857 13.0881 10.3513L10.8513 12.5881C10.7857 12.4043 10.75 12.2063 10.75 12ZM11.912 13.6488C12.0957 13.7143 12.2937 13.75 12.5 13.75C13.4665 13.75 14.25 12.9665 14.25 12C14.25 11.7937 14.2143 11.5957 14.1488 11.412L11.912 13.6488Z"
        fill="#303233" />
</svg>
