<svg width="16" height="16" viewBox="0 0 16 16" fill="none" xmlns="http://www.w3.org/2000/svg">
    <path fill-rule="evenodd" clip-rule="evenodd"
        d="M7.46205 1.50131C7.80235 1.33906 8.1977 1.33906 8.53799 1.50131C8.82231 1.63687 8.98527 1.8753 9.07818 2.02706C9.17349 2.18274 9.273 2.38439 9.37691 2.59497C9.38124 2.60374 9.38557 2.61253 9.38992 2.62133L10.4951 4.8603C10.4992 4.86864 10.5031 4.87646 10.5067 4.88384C10.5149 4.88504 10.5235 4.8863 10.5327 4.88764L13.0346 5.25333C13.2668 5.28725 13.4893 5.31973 13.6667 5.3624C13.8397 5.404 14.1167 5.4855 14.3332 5.71411C14.5925 5.98774 14.7144 6.36376 14.6651 6.73745C14.6238 7.04965 14.4474 7.27818 14.3317 7.41337C14.2131 7.55203 14.052 7.70886 13.8839 7.87261L12.0748 9.63467C12.0681 9.64117 12.0618 9.64727 12.0559 9.65302C12.0573 9.66115 12.0588 9.66976 12.0604 9.67894L12.4871 12.1673C12.5269 12.3988 12.5649 12.6205 12.5793 12.8025C12.5934 12.9799 12.6017 13.2686 12.4514 13.5455C12.2714 13.8768 11.9515 14.1092 11.5808 14.1779C11.271 14.2353 10.999 14.1381 10.8346 14.0699C10.666 13.9999 10.4669 13.8952 10.259 13.7859L8.02329 12.6101C8.01505 12.6058 8.00732 12.6017 8.00002 12.5979C7.99272 12.6017 7.98499 12.6058 7.97675 12.6101L5.74097 13.7859C5.53309 13.8953 5.33405 14 5.16542 14.0699C5.00105 14.1381 4.72903 14.2353 4.41927 14.1779C4.04855 14.1092 3.72865 13.8768 3.54869 13.5455C3.39832 13.2686 3.40666 12.9799 3.42071 12.8025C3.43512 12.6205 3.47317 12.3988 3.5129 12.1673L3.93969 9.67894C3.94126 9.66976 3.94274 9.66115 3.94413 9.65302C3.93822 9.64727 3.93196 9.64117 3.92529 9.63467L2.13727 7.89314C2.13023 7.88628 2.12321 7.87944 2.1162 7.87262C1.94803 7.70886 1.78698 7.55204 1.66834 7.41337C1.55267 7.27818 1.37622 7.04965 1.33499 6.73745C1.28564 6.36376 1.40756 5.98774 1.6668 5.71411C1.88338 5.4855 2.16036 5.404 2.33334 5.3624C2.51078 5.31973 2.73321 5.28725 2.96548 5.25333C2.97516 5.25191 2.98486 5.2505 2.99458 5.24908L5.46735 4.88764C5.47655 4.8863 5.48518 4.88504 5.49332 4.88384C5.49697 4.87646 5.50083 4.86864 5.50495 4.8603L6.61013 2.62133C6.61447 2.61252 6.61881 2.60373 6.62315 2.59495C6.72705 2.38438 6.82655 2.18274 6.92187 2.02706C7.01478 1.8753 7.17773 1.63687 7.46205 1.50131ZM8.00002 3.19456C7.98591 3.22306 7.97099 3.25325 7.95519 3.28527L6.85001 5.52424C6.8456 5.53317 6.84087 5.54289 6.83581 5.5533C6.78602 5.65567 6.70393 5.82444 6.57514 5.96306C6.46508 6.08151 6.33309 6.17749 6.18647 6.24567C6.0149 6.32545 5.82905 6.35151 5.71632 6.36732C5.70485 6.36893 5.69415 6.37043 5.68429 6.37187L3.21152 6.7333C3.1762 6.73847 3.1429 6.74335 3.11145 6.74799C3.13419 6.7702 3.1583 6.79369 3.18387 6.8186L4.97189 8.56013C4.97904 8.5671 4.98684 8.57461 4.99519 8.58265C5.07732 8.66171 5.21271 8.79205 5.30489 8.9576C5.38365 9.09906 5.43418 9.25448 5.45367 9.41521C5.47648 9.6033 5.44363 9.78835 5.4237 9.90059C5.42168 9.91201 5.41979 9.92267 5.4181 9.93251L4.99629 12.3919C4.99025 12.4271 4.98457 12.4603 4.97923 12.4916C5.0074 12.4769 5.03723 12.4612 5.06884 12.4446L7.27857 11.2825C7.2874 11.2779 7.29696 11.2728 7.30718 11.2673C7.40775 11.2137 7.57356 11.1252 7.75946 11.0888C7.91832 11.0576 8.08172 11.0576 8.24058 11.0888C8.42649 11.1252 8.59229 11.2137 8.69286 11.2673C8.70309 11.2728 8.71264 11.2779 8.72147 11.2825L10.9312 12.4446C10.9628 12.4612 10.9926 12.4769 11.0208 12.4916C11.0155 12.4603 11.0098 12.4271 11.0038 12.3919L10.5819 9.93251C10.5803 9.92267 10.5784 9.91201 10.5763 9.90059C10.5564 9.78834 10.5236 9.6033 10.5464 9.41521C10.5659 9.25448 10.6164 9.09906 10.6952 8.9576C10.7873 8.79205 10.9227 8.66171 11.0049 8.58264C11.0132 8.5746 11.021 8.5671 11.0282 8.56013L12.8162 6.8186C12.8418 6.79369 12.8659 6.7702 12.8886 6.74799C12.8571 6.74335 12.8238 6.73847 12.7885 6.7333L10.3158 6.37187C10.3059 6.37043 10.2952 6.36893 10.2837 6.36732C10.171 6.35151 9.98514 6.32545 9.81357 6.24567C9.66696 6.17749 9.53496 6.08151 9.4249 5.96306C9.29611 5.82444 9.21403 5.65567 9.16424 5.5533C9.15917 5.54289 9.15445 5.53317 9.15004 5.52424L8.04486 3.28527C8.02905 3.25325 8.01413 3.22306 8.00002 3.19456Z"
        fill="#303233" />
</svg>
