<svg width="24" height="24" viewBox="0 0 24 24" fill="none" xmlns="http://www.w3.org/2000/svg">
    <path fill-rule="evenodd" clip-rule="evenodd"
        d="M19.6039 22.4742L19.3701 21.9484C19.2868 21.7608 19.1462 21.6044 18.9683 21.5018C18.7904 21.3992 18.5846 21.3554 18.3803 21.3769L17.8083 21.4378C17.6381 21.4557 17.4663 21.4239 17.3138 21.3462C17.1612 21.2685 17.0344 21.1482 16.9488 21C16.8631 20.8518 16.8223 20.6819 16.8313 20.5109C16.8403 20.34 16.8987 20.1753 16.9995 20.0369L17.3381 19.5716C17.4589 19.4055 17.5239 19.2054 17.5239 19C17.5239 18.7946 17.4589 18.5945 17.3381 18.4284L16.9995 17.9631C16.8987 17.8247 16.8403 17.66 16.8313 17.4891C16.8223 17.3181 16.8631 17.1482 16.9488 17C17.0344 16.8517 17.1611 16.7314 17.3137 16.6537C17.4662 16.576 17.6381 16.5442 17.8083 16.5622L18.3821 16.6231C18.5864 16.6446 18.7922 16.6008 18.9701 16.4982C19.1473 16.3953 19.2873 16.2389 19.3701 16.0516L19.6039 15.5258C19.6734 15.3693 19.7868 15.2363 19.9304 15.143C20.074 15.0496 20.2415 15 20.4128 15C20.584 15 20.7516 15.0496 20.8952 15.143C21.0388 15.2363 21.1522 15.3693 21.2217 15.5258L21.4572 16.0516C21.5401 16.2389 21.6801 16.3953 21.8572 16.4982C22.0352 16.6008 22.241 16.6446 22.4452 16.6231L23.0172 16.5622C23.1875 16.5442 23.3593 16.576 23.5119 16.6537C23.6645 16.7314 23.7912 16.8517 23.8768 17C23.9625 17.1482 24.0033 17.3181 23.9943 17.4891C23.9853 17.66 23.9269 17.8247 23.8261 17.9631L23.4875 18.4284C23.3667 18.5945 23.3016 18.7946 23.3017 19C23.3007 19.2059 23.3651 19.4069 23.4857 19.5738L23.8243 20.0391C23.9251 20.1775 23.9835 20.3422 23.9925 20.5132C24.0015 20.6841 23.9607 20.854 23.875 21.0022C23.7895 21.1505 23.6627 21.2708 23.5101 21.3485C23.3576 21.4262 23.1857 21.458 23.0155 21.44L22.4435 21.3791C22.2392 21.3577 22.0334 21.4014 21.8555 21.504C21.6787 21.6063 21.5387 21.7619 21.4555 21.9484L21.2217 22.4742C21.1522 22.6307 21.0388 22.7637 20.8952 22.857C20.7516 22.9504 20.584 23 20.4128 23C20.2415 23 20.074 22.9504 19.9304 22.857C19.7868 22.7637 19.6734 22.6307 19.6039 22.4742ZM20.4167 20.3333C21.1531 20.3333 21.7501 19.7364 21.7501 19C21.7501 18.2636 21.1531 17.6667 20.4167 17.6667C19.6804 17.6667 19.0834 18.2636 19.0834 19C19.0834 19.7364 19.6804 20.3333 20.4167 20.3333Z"
        fill="#303233" />
    <path fill-rule="evenodd" clip-rule="evenodd"
        d="M2.77997 11.25H7.28229C7.48347 8.23408 8.53193 5.34326 10.296 2.90662C6.2409 3.66174 3.11597 7.06245 2.77997 11.25ZM12 3.14873C10.1266 5.45651 9.00431 8.28426 8.78597 11.25H15.214C14.9957 8.28426 13.8734 5.45651 12 3.14873ZM16.7177 12.75H22C22.4142 12.75 22.75 12.4142 22.75 12C22.75 6.06294 17.9371 1.25 12 1.25C6.06294 1.25 1.25 6.06294 1.25 12C1.25 17.9371 6.06294 22.75 12 22.75C12.2107 22.75 12.4117 22.6614 12.5538 22.5058C15.012 19.8145 16.4761 16.3725 16.7177 12.75ZM15.214 12.75C14.9957 15.7157 13.8734 18.5435 12 20.8513C10.1266 18.5435 9.00431 15.7157 8.78597 12.75H15.214ZM7.28229 12.75H2.77997C3.11597 16.9376 6.2409 20.3383 10.296 21.0934C8.53193 18.6567 7.48347 15.7659 7.28229 12.75ZM16.7177 11.25C16.5165 8.23408 15.4681 5.34326 13.704 2.90662C17.7591 3.66174 20.884 7.06245 21.22 11.25H16.7177Z"
        fill="#303233" />
</svg>
