<svg width="16" height="16" viewBox="0 0 16 16" fill="none" xmlns="http://www.w3.org/2000/svg">
    <g clip-path="url(#clip0_53_9637)">
        <path fill-rule="evenodd" clip-rule="evenodd"
            d="M5.5 0.25C5.91421 0.25 6.25 0.585786 6.25 1V1.75H9.75V1C9.75 0.585786 10.0858 0.25 10.5 0.25C10.9142 0.25 11.25 0.585786 11.25 1V1.75H13.0556C14.2099 1.75 15.25 2.62735 15.25 3.83333V13.1667C15.25 14.3727 14.2099 15.25 13.0556 15.25H2.94444C1.79014 15.25 0.75 14.3727 0.75 13.1667V3.83333C0.75 2.62735 1.79014 1.75 2.94444 1.75H4.75V1C4.75 0.585786 5.08579 0.25 5.5 0.25ZM9.75 3.25V4C9.75 4.41421 10.0858 4.75 10.5 4.75C10.9142 4.75 11.25 4.41421 11.25 4V3.25H13.0556C13.4967 3.25 13.75 3.56656 13.75 3.83333V5.16667C13.75 5.43344 13.4967 5.75 13.0556 5.75H2.94444C2.50326 5.75 2.25 5.43344 2.25 5.16667V3.83333C2.25 3.56656 2.50326 3.25 2.94444 3.25H4.75V4C4.75 4.41421 5.08579 4.75 5.5 4.75C5.91421 4.75 6.25 4.41421 6.25 4V3.25H9.75ZM7.82322 7.32325C8.11612 7.03035 8.59099 7.03035 8.88388 7.32325L11.0303 9.46968C11.3232 9.76257 11.3232 10.2374 11.0303 10.5303L8.88384 12.6768C8.59095 12.9697 8.11608 12.9697 7.82319 12.6768C7.53029 12.3839 7.53029 11.909 7.82319 11.6161L8.68932 10.75H5.5C5.08579 10.75 4.75 10.4142 4.75 10C4.75 9.58579 5.08579 9.25 5.5 9.25H8.68932L7.82322 8.38391C7.53033 8.09101 7.53033 7.61614 7.82322 7.32325Z"
            fill="#303233" />
    </g>
    <defs>
        <clipPath id="clip0_53_9637">
            <rect width="16" height="16" fill="white" />
        </clipPath>
    </defs>
</svg>
