<svg width="24" height="24" viewBox="0 0 24 24" fill="none" xmlns="http://www.w3.org/2000/svg">
    <path
        d="M20 2C20 1.44772 19.5523 1 19 1C18.4477 1 18 1.44772 18 2V4H16C15.4477 4 15 4.44772 15 5C15 5.55228 15.4477 6 16 6H18V8C18 8.55228 18.4477 9 19 9C19.5523 9 20 8.55228 20 8V6H22C22.5523 6 23 5.55228 23 5C23 4.44772 22.5523 4 22 4H20V2Z"
        fill="#303233" />
    <path
        d="M9 12C9 10.3431 10.3431 9 12 9C13.6569 9 15 10.3431 15 12C15 13.6569 13.6569 15 12 15C10.3431 15 9 13.6569 9 12Z"
        fill="#303233" />
    <path fill-rule="evenodd" clip-rule="evenodd"
        d="M6.7587 2H16C14.3431 2 13 3.34315 13 5C13 6.65685 14.3431 8 16 8C16 9.65685 17.3431 11 19 11C20.6569 11 22 9.65685 22 8C22.3506 8 22.6872 7.93985 23 7.82929V16.2413C23 17.0463 23 17.7106 22.9558 18.2518C22.9099 18.8139 22.8113 19.3306 22.564 19.816C22.1805 20.5686 21.5686 21.1805 20.816 21.564C20.3306 21.8113 19.8139 21.9099 19.2518 21.9558C18.7106 22 18.0463 22 17.2413 22H6.75868C5.95372 22 5.28937 22 4.74818 21.9558C4.18608 21.9099 3.66938 21.8113 3.18404 21.564C2.43139 21.1805 1.81947 20.5686 1.43598 19.816C1.18869 19.3306 1.09012 18.8139 1.0442 18.2518C0.999979 17.7106 0.999989 17.0463 1 16.2413V7.75869C0.999989 6.95374 0.999979 6.28936 1.0442 5.74818C1.09012 5.18608 1.18869 4.66938 1.43598 4.18404C1.81947 3.43139 2.43139 2.81947 3.18404 2.43598C3.66938 2.18868 4.18608 2.09012 4.74818 2.0442C5.28936 1.99998 5.95375 1.99999 6.7587 2ZM12 7C9.23858 7 7 9.23858 7 12C7 14.7614 9.23858 17 12 17C14.7614 17 17 14.7614 17 12C17 9.23858 14.7614 7 12 7Z"
        fill="#303233" />
</svg>
