<svg width="16" height="16" viewBox="0 0 16 16" fill="none" xmlns="http://www.w3.org/2000/svg">
    <g clip-path="url(#clip0_53_2973)">
        <path fill-rule="evenodd" clip-rule="evenodd"
            d="M8.00012 3.25C6.48133 3.25 5.25012 4.48122 5.25012 6C5.25012 7.51878 6.48133 8.75 8.00012 8.75C9.5189 8.75 10.7501 7.51878 10.7501 6C10.7501 4.48122 9.5189 3.25 8.00012 3.25ZM6.75012 6C6.75012 5.30964 7.30976 4.75 8.00012 4.75C8.69047 4.75 9.25012 5.30964 9.25012 6C9.25012 6.69036 8.69047 7.25 8.00012 7.25C7.30976 7.25 6.75012 6.69036 6.75012 6Z"
            fill="#303233" />
        <path fill-rule="evenodd" clip-rule="evenodd"
            d="M8 0.75C3.99594 0.75 0.75 3.99594 0.75 8C0.75 12.0041 3.99594 15.25 8 15.25C12.0041 15.25 15.25 12.0041 15.25 8C15.25 3.99594 12.0041 0.75 8 0.75ZM2.25 8C2.25 4.82436 4.82436 2.25 8 2.25C11.1756 2.25 13.75 4.82436 13.75 8C13.75 9.39637 13.2522 10.6765 12.4245 11.6726C11.4915 10.2157 9.85858 9.25 8.00012 9.25C6.14158 9.25 4.50861 10.2157 3.57564 11.6728C2.7478 10.6766 2.25 9.39645 2.25 8ZM4.70322 12.7116C5.63667 13.366 6.77349 13.75 8 13.75C9.22659 13.75 10.3635 13.3659 11.297 12.7115C10.6618 11.5431 9.42356 10.75 8.00012 10.75C6.57663 10.75 5.33839 11.5431 4.70322 12.7116Z"
            fill="#303233" />
    </g>
    <defs>
        <clipPath id="clip0_53_2973">
            <rect width="16" height="16" fill="white" />
        </clipPath>
    </defs>
</svg>
