<svg width="16" height="16" viewBox="0 0 16 16" fill="none" xmlns="http://www.w3.org/2000/svg">
    <path fill-rule="evenodd" clip-rule="evenodd"
        d="M8.09032 1.38177C8.23546 1.6393 8.21578 1.95808 8.04006 2.1958C7.45329 2.98963 7.17093 3.9677 7.24434 4.95212C7.31776 5.93653 7.74206 6.8619 8.44008 7.55992C9.1381 8.25794 10.0635 8.68224 11.0479 8.75565C12.0323 8.82906 13.0104 8.54671 13.8042 7.95994C14.0419 7.78422 14.3607 7.76454 14.6182 7.90968C14.8758 8.05482 15.024 8.33771 14.9968 8.63208C14.8742 9.95853 14.3764 11.2226 13.5616 12.2765C12.7468 13.3303 11.6487 14.1303 10.3959 14.5829C9.143 15.0354 7.78715 15.1218 6.48697 14.8319C5.1868 14.542 3.99608 13.8878 3.05415 12.9459C2.11221 12.0039 1.45801 10.8132 1.1681 9.51302C0.878196 8.21285 0.964568 6.857 1.41712 5.60413C1.86966 4.35125 2.66967 3.25317 3.72352 2.43837C4.77736 1.62357 6.04147 1.12576 7.36792 1.00318C7.66229 0.975976 7.94517 1.12423 8.09032 1.38177ZM6.02995 2.84252C5.53397 3.03374 5.06577 3.29664 4.64101 3.62505C3.81256 4.26558 3.18366 5.1288 2.8279 6.11371C2.47215 7.09862 2.40425 8.16448 2.63215 9.18658C2.86005 10.2087 3.37433 11.1447 4.11481 11.8852C4.85528 12.6257 5.79133 13.1399 6.81342 13.3678C7.83551 13.5957 8.90137 13.5279 9.88628 13.1721C10.8712 12.8163 11.7344 12.1874 12.3749 11.359C12.7034 10.9342 12.9663 10.466 13.1575 9.97004C12.4489 10.21 11.694 10.308 10.9363 10.2515C9.59364 10.1514 8.33148 9.57265 7.37942 8.62058C6.42735 7.66852 5.84863 6.40636 5.7485 5.06367C5.692 4.30599 5.79001 3.55108 6.02995 2.84252Z"
        fill="#303233" />
</svg>
