<svg width="16" height="16" viewBox="0 0 16 16" fill="none" xmlns="http://www.w3.org/2000/svg">
    <g clip-path="url(#clip0_53_6352)">
        <path
            d="M0.646447 0.646447C0.841709 0.451184 1.15829 0.451184 1.35355 0.646447L15.3536 14.6464C15.5488 14.8417 15.5488 15.1583 15.3536 15.3536C15.1583 15.5488 14.8417 15.5488 14.6464 15.3536L8.0001 8.70721L5.89276 10.8148C5.69757 11.0101 5.38099 11.0103 5.18565 10.8151C4.99031 10.6199 4.99018 10.3033 5.18537 10.108L7.293 8.0001L0.646447 1.35355C0.451184 1.15829 0.451184 0.841709 0.646447 0.646447Z"
            fill="#303233" />
        <path
            d="M8.14373 2.17635C9.71219 0.607883 12.2552 0.607883 13.8236 2.17635C15.3921 3.74482 15.3921 6.2878 13.8236 7.85627L13.8133 7.86629L12.9141 8.71523C12.7133 8.90479 12.3969 8.89569 12.2073 8.6949C12.0177 8.4941 12.0268 8.17765 12.2276 7.98808L13.1214 7.14426C14.2945 5.96593 14.2929 4.05977 13.1165 2.88346C11.9402 1.70713 10.034 1.70552 8.85568 2.87863L8.01151 3.77219C7.82187 3.97292 7.50541 3.98191 7.30468 3.79228C7.10395 3.60264 7.09496 3.28618 7.2846 3.08545L8.13383 2.18654L8.14373 2.17635Z"
            fill="#303233" />
        <path
            d="M10.8148 5.89202C11.01 5.69668 11.0099 5.3801 10.8145 5.18491C10.6192 4.98973 10.3026 4.98985 10.1074 5.18519L9.75609 5.53678C9.56091 5.73212 9.56103 6.04871 9.75637 6.24389C9.95171 6.43908 10.2683 6.43895 10.4635 6.24361L10.8148 5.89202Z"
            fill="#303233" />
        <path
            d="M3.79194 7.30503C3.98157 7.50576 3.97257 7.82222 3.77184 8.01185L2.87863 8.85567C1.70552 10.034 1.70713 11.9402 2.88346 13.1165C4.05977 14.2929 5.96594 14.2945 7.14427 13.1214L7.98774 12.228C8.1773 12.0272 8.49376 12.0181 8.69455 12.2077C8.89535 12.3972 8.90445 12.7137 8.71489 12.9145L7.86629 13.8133L7.85627 13.8236C6.2878 15.3921 3.74482 15.3921 2.17635 13.8236C0.607883 12.2552 0.607883 9.71219 2.17635 8.14373L2.18654 8.13382L3.08511 7.28493C3.28585 7.0953 3.6023 7.1043 3.79194 7.30503Z"
            fill="#303233" />
    </g>
    <defs>
        <clipPath id="clip0_53_6352">
            <rect width="16" height="16" fill="white" />
        </clipPath>
    </defs>
</svg>
