<svg width="24" height="24" viewBox="0 0 24 24" fill="none" xmlns="http://www.w3.org/2000/svg">
    <path fill-rule="evenodd" clip-rule="evenodd"
        d="M11.9979 5.75C8.02704 5.75 4.41211 7.2667 1.69811 9.75371C1.39273 10.0336 0.918306 10.0128 0.638462 9.70746C0.358618 9.40208 0.379323 8.92766 0.684708 8.64781C3.66446 5.91728 7.63735 4.25 11.9979 4.25C16.3585 4.25 20.3314 5.91728 23.3112 8.64781C23.6166 8.92766 23.6373 9.40208 23.3574 9.70746C23.0776 10.0128 22.6031 10.0336 22.2978 9.75371C19.5838 7.2667 15.9688 5.75 11.9979 5.75ZM11.998 10.75C9.40155 10.75 7.03217 11.7145 5.22574 13.3058C4.91493 13.5796 4.441 13.5495 4.1672 13.2387C3.8934 12.9279 3.92341 12.454 4.23423 12.1802C6.30404 10.3569 9.02269 9.25 11.998 9.25C14.9734 9.25 17.692 10.3569 19.7618 12.1802C20.0726 12.454 20.1027 12.9279 19.8289 13.2387C19.5551 13.5495 19.0811 13.5796 18.7703 13.3058C16.9639 11.7145 14.5945 10.75 11.998 10.75ZM11.9979 15.75C10.7579 15.75 9.62004 16.179 8.72184 16.8973C8.39835 17.156 7.92639 17.1035 7.66769 16.78C7.40899 16.4565 7.46151 15.9845 7.785 15.7258C8.93952 14.8026 10.4052 14.25 11.9979 14.25C13.5669 14.25 15.0126 14.7862 16.1591 15.6848C16.4851 15.9404 16.5422 16.4118 16.2867 16.7378C16.0311 17.0638 15.5597 17.1209 15.2337 16.8654C14.3419 16.1663 13.2196 15.75 11.9979 15.75ZM11.2481 20C11.2481 19.5858 11.5838 19.25 11.9981 19.25H12.0081C12.4223 19.25 12.7581 19.5858 12.7581 20C12.7581 20.4142 12.4223 20.75 12.0081 20.75H11.9981C11.5838 20.75 11.2481 20.4142 11.2481 20Z"
        fill="#303233" />
</svg>
