<svg width="24" height="24" viewBox="0 0 24 24" fill="none" xmlns="http://www.w3.org/2000/svg">
    <path
        d="M6.7679 4.25H12.2321C13.0449 4.24999 13.7006 4.24999 14.2315 4.29336C14.7781 4.33803 15.2582 4.43239 15.7025 4.65873C16.4081 5.01825 16.9817 5.59193 17.3413 6.29754C17.5676 6.74176 17.662 7.2219 17.7066 7.76853C17.75 8.29944 17.75 8.95505 17.75 9.76788V10.1893L20.1258 7.81354C20.3211 7.6182 20.5019 7.43741 20.6578 7.30688C20.8005 7.18739 21.0575 6.98807 21.4019 6.96096C21.8008 6.92957 22.1906 7.09103 22.4505 7.3953C22.6749 7.65804 22.7157 7.98068 22.7321 8.16609C22.75 8.36864 22.75 8.62421 22.75 8.90045V12C22.75 12.4142 22.4142 12.75 22 12.75C21.5858 12.75 21.25 12.4142 21.25 12L21.2499 8.81081L17.5303 12.5303C17.3158 12.7448 16.9932 12.809 16.713 12.6929C16.4327 12.5768 16.25 12.3033 16.25 12V9.8C16.25 8.94755 16.2494 8.35331 16.2116 7.89068C16.1745 7.43681 16.1054 7.17604 16.0048 6.97852C15.789 6.55516 15.4448 6.21095 15.0215 5.99524C14.824 5.8946 14.5632 5.82547 14.1093 5.78838C13.6467 5.75058 13.0525 5.75 12.2 5.75H6.8C5.94755 5.75 5.35331 5.75058 4.89068 5.78838C4.43681 5.82547 4.17604 5.8946 3.97852 5.99524C3.55516 6.21095 3.21095 6.55516 2.99524 6.97852C2.8946 7.17604 2.82547 7.43681 2.78838 7.89068C2.75058 8.35331 2.75 8.94755 2.75 9.8V14.2C2.75 15.0525 2.75058 15.6467 2.78838 16.1093C2.82547 16.5632 2.8946 16.824 2.99524 17.0215C3.21095 17.4448 3.55516 17.789 3.97852 18.0048C4.17604 18.1054 4.43681 18.1745 4.89068 18.2116C5.35331 18.2494 5.94755 18.25 6.8 18.25H11C11.4142 18.25 11.75 18.5858 11.75 19C11.75 19.4142 11.4142 19.75 11 19.75H6.76788C5.95505 19.75 5.29944 19.75 4.76853 19.7066C4.2219 19.662 3.74175 19.5676 3.29754 19.3413C2.59193 18.9817 2.01825 18.4081 1.65873 17.7025C1.43239 17.2582 1.33803 16.7781 1.29336 16.2315C1.24999 15.7006 1.24999 15.045 1.25 14.2321V9.7679C1.24999 8.95506 1.24999 8.29944 1.29336 7.76853C1.33803 7.2219 1.43239 6.74176 1.65873 6.29754C2.01825 5.59193 2.59193 5.01825 3.29754 4.65873C3.74175 4.43239 4.2219 4.33803 4.76853 4.29336C5.29944 4.24999 5.95507 4.24999 6.7679 4.25Z"
        fill="#303233" />
    <path fill-rule="evenodd" clip-rule="evenodd"
        d="M14.25 19C14.25 16.3766 16.3766 14.25 19 14.25C21.6234 14.25 23.75 16.3766 23.75 19C23.75 21.6234 21.6234 23.75 19 23.75C16.3766 23.75 14.25 21.6234 14.25 19ZM19 15.75C17.2051 15.75 15.75 17.2051 15.75 19C15.75 19.6255 15.9267 20.2097 16.2329 20.7055L20.7055 16.2329C20.2097 15.9267 19.6255 15.75 19 15.75ZM21.7664 17.2934L17.2934 21.7664C17.7894 22.073 18.374 22.25 19 22.25C20.7949 22.25 22.25 20.7949 22.25 19C22.25 18.374 22.073 17.7894 21.7664 17.2934Z"
        fill="#303233" />
</svg>
