<svg width="24" height="24" viewBox="0 0 24 24" fill="none" xmlns="http://www.w3.org/2000/svg">
    <path fill-rule="evenodd" clip-rule="evenodd"
        d="M2.70711 1.29289C2.31658 0.902369 1.68342 0.902369 1.29289 1.29289C0.902369 1.68342 0.902369 2.31658 1.29289 2.70711L4.68019 6.09441C3.74129 7.30255 3.14043 8.78825 3.02168 10.407C1.24459 11.1734 0 12.9404 0 15C0 17.7614 2.23858 20 5 20H17.5C17.8423 20 18.179 19.9734 18.508 19.9222L21.2929 22.7071C21.6834 23.0976 22.3166 23.0976 22.7071 22.7071C23.0976 22.3166 23.0976 21.6834 22.7071 21.2929L2.70711 1.29289Z"
        fill="#303233" />
    <path
        d="M21.5644 17.3377C22.027 17.6393 22.6466 17.5088 22.9482 17.0462C23.6135 16.0259 24 14.8066 24 13.5C24 10.0573 21.3236 7.23973 17.9379 7.01452C16.5577 4.6169 13.9686 3 11 3C10.5102 3 10.0299 3.04413 9.56299 3.12889C9.01958 3.22753 8.65903 3.74801 8.75768 4.29141C8.79228 4.48204 8.87879 4.65016 9 4.78385C10.3106 6.09441 19.7267 15.5 21.5644 17.3377Z"
        fill="#303233" />
</svg>
