<svg width="24" height="24" viewBox="0 0 24 24" fill="none" xmlns="http://www.w3.org/2000/svg">
    <path fill-rule="evenodd" clip-rule="evenodd"
        d="M12.2321 4.25H6.7679C5.95507 4.24999 5.29944 4.24999 4.76853 4.29336C4.2219 4.33803 3.74175 4.43239 3.29754 4.65873C2.59193 5.01825 2.01825 5.59193 1.65873 6.29754C1.43239 6.74176 1.33803 7.2219 1.29336 7.76853C1.24999 8.29944 1.24999 8.95505 1.25 9.76789V14.2321C1.24999 15.0449 1.24999 15.7006 1.29336 16.2315C1.33803 16.7781 1.43239 17.2582 1.65873 17.7025C2.01825 18.4081 2.59193 18.9817 3.29754 19.3413C3.45324 19.4206 3.61422 19.4842 3.78252 19.5352C4.17894 19.6553 4.59767 19.4313 4.71778 19.0349C4.83789 18.6385 4.61389 18.2198 4.21748 18.0997C4.12739 18.0724 4.04942 18.0409 3.97852 18.0048C3.55516 17.789 3.21095 17.4448 2.99524 17.0215C2.8946 16.824 2.82547 16.5632 2.78838 16.1093C2.75058 15.6467 2.75 15.0525 2.75 14.2V9.8C2.75 8.94755 2.75058 8.35331 2.78838 7.89068C2.82547 7.43681 2.8946 7.17604 2.99524 6.97852C3.21095 6.55516 3.55516 6.21095 3.97852 5.99524C4.17604 5.8946 4.43681 5.82547 4.89068 5.78838C5.35331 5.75058 5.94755 5.75 6.8 5.75H12.2C13.0525 5.75 13.6467 5.75058 14.1093 5.78838C14.5632 5.82547 14.824 5.8946 15.0215 5.99524C15.4448 6.21095 15.789 6.55516 16.0048 6.97852C16.1054 7.17604 16.1745 7.43681 16.2116 7.89068C16.2494 8.35331 16.25 8.94755 16.25 9.8V14.2C16.25 15.0525 16.2494 15.6467 16.2116 16.1093C16.1745 16.5632 16.1054 16.824 16.0048 17.0215C15.789 17.4448 15.4448 17.789 15.0215 18.0048C14.9506 18.0409 14.8726 18.0724 14.7825 18.0997C14.3861 18.2198 14.1621 18.6385 14.2822 19.0349C14.4023 19.4313 14.8211 19.6553 15.2175 19.5352C15.3858 19.4842 15.5468 19.4206 15.7025 19.3413C16.4081 18.9817 16.9817 18.4081 17.3413 17.7025C17.5676 17.2582 17.662 16.7781 17.7066 16.2315C17.75 15.7006 17.75 15.045 17.75 14.2321V13.8107L20.1258 16.1865C20.3211 16.3818 20.5019 16.5626 20.6578 16.6931C20.8005 16.8126 21.0575 17.0119 21.4019 17.039C21.8008 17.0704 22.1906 16.909 22.4505 16.6047C22.6749 16.342 22.7157 16.0193 22.7321 15.8339C22.75 15.6314 22.75 15.3758 22.75 15.0996V8.90054C22.75 8.6243 22.75 8.36864 22.7321 8.16609C22.7157 7.98068 22.6749 7.65804 22.4505 7.3953C22.1906 7.09103 21.8008 6.92957 21.4019 6.96096C21.0575 6.98807 20.8005 7.18739 20.6578 7.30688C20.5019 7.43741 20.3212 7.61814 20.1259 7.81348L17.75 10.1893V9.76788C17.75 8.95505 17.75 8.29944 17.7066 7.76853C17.662 7.2219 17.5676 6.74176 17.3413 6.29754C16.9817 5.59193 16.4081 5.01825 15.7025 4.65873C15.2582 4.43239 14.7781 4.33803 14.2315 4.29336C13.7006 4.24999 13.0449 4.24999 12.2321 4.25ZM18.0607 12L21.2499 8.81081L21.2499 15.1892L18.0607 12Z"
        fill="#303233" />
    <path
        d="M8.96967 12.4697C9.26256 12.1768 9.73744 12.1768 10.0303 12.4697L13.0303 15.4697C13.3232 15.7626 13.3232 16.2374 13.0303 16.5303C12.7374 16.8232 12.2626 16.8232 11.9697 16.5303L10.25 14.8107V23C10.25 23.4142 9.91421 23.75 9.5 23.75C9.08579 23.75 8.75 23.4142 8.75 23V14.8107L7.03033 16.5303C6.73744 16.8232 6.26256 16.8232 5.96967 16.5303C5.67678 16.2374 5.67678 15.7626 5.96967 15.4697L8.96967 12.4697Z"
        fill="#303233" />
</svg>
