<svg width="24" height="24" viewBox="0 0 24 24" fill="none" xmlns="http://www.w3.org/2000/svg">
    <path fill-rule="evenodd" clip-rule="evenodd"
        d="M16.2321 2.25H7.7679C6.95506 2.24999 6.29944 2.24999 5.76853 2.29336C5.2219 2.33803 4.74175 2.43239 4.29754 2.65873C3.59193 3.01825 3.01825 3.59193 2.65873 4.29754C2.43239 4.74175 2.33803 5.2219 2.29336 5.76853C2.24999 6.29944 2.24999 6.95505 2.25 7.76789V16.2321C2.24999 17.0449 2.24999 17.7006 2.29336 18.2315C2.33803 18.7781 2.43239 19.2582 2.65873 19.7025C3.01825 20.4081 3.59193 20.9817 4.29754 21.3413C4.74175 21.5676 5.2219 21.662 5.76853 21.7066C6.29944 21.75 6.95505 21.75 7.76788 21.75H16.2321C17.045 21.75 17.7006 21.75 18.2315 21.7066C18.7781 21.662 19.2582 21.5676 19.7025 21.3413C20.4081 20.9817 20.9817 20.4081 21.3413 19.7025C21.5676 19.2582 21.662 18.7781 21.7066 18.2315C21.75 17.7006 21.75 17.045 21.75 16.2321V7.76788C21.75 6.95505 21.75 6.29944 21.7066 5.76853C21.662 5.2219 21.5676 4.74175 21.3413 4.29754C20.9817 3.59193 20.4081 3.01825 19.7025 2.65873C19.2582 2.43239 18.7781 2.33803 18.2315 2.29336C17.7006 2.24999 17.0449 2.24999 16.2321 2.25ZM17.0303 9.53033C17.3232 9.23744 17.3232 8.76256 17.0303 8.46967C16.7374 8.17678 16.2626 8.17678 15.9697 8.46967L10.5 13.9393L8.03033 11.4697C7.73744 11.1768 7.26256 11.1768 6.96967 11.4697C6.67678 11.7626 6.67678 12.2374 6.96967 12.5303L9.96967 15.5303C10.2626 15.8232 10.7374 15.8232 11.0303 15.5303L17.0303 9.53033Z"
        fill="#303233" />
</svg>
