<svg width="16" height="16" viewBox="0 0 16 16" fill="none" xmlns="http://www.w3.org/2000/svg">
    <g clip-path="url(#clip0_7858_7)">
        <path fill-rule="evenodd" clip-rule="evenodd"
            d="M0.75 1.5C0.75 1.08579 1.08579 0.75 1.5 0.75H14.5C14.9142 0.75 15.25 1.08579 15.25 1.5V11.5C15.25 13.5711 13.5711 15.25 11.5 15.25H4.5C2.42893 15.25 0.75 13.5711 0.75 11.5V1.5ZM2.25 2.25V11.5C2.25 12.7426 3.25736 13.75 4.5 13.75H11.5C12.7426 13.75 13.75 12.7426 13.75 11.5V2.25H2.25Z"
            fill="#303233" />
        <path fill-rule="evenodd" clip-rule="evenodd"
            d="M5.375 4.25C4.75368 4.25 4.25 4.75368 4.25 5.375C4.25 5.99632 4.75368 6.5 5.375 6.5C5.99632 6.5 6.5 5.99632 6.5 5.375C6.5 4.75368 5.99632 4.25 5.375 4.25ZM2.75 5.375C2.75 3.92525 3.92525 2.75 5.375 2.75C6.82475 2.75 8 3.92525 8 5.375C8 6.82475 6.82475 8 5.375 8C3.92525 8 2.75 6.82475 2.75 5.375Z"
            fill="#303233" />
        <path fill-rule="evenodd" clip-rule="evenodd"
            d="M8.75 6.5C8.75 6.08579 9.08579 5.75 9.5 5.75H12.5C12.9142 5.75 13.25 6.08579 13.25 6.5V9.5C13.25 9.91421 12.9142 10.25 12.5 10.25H9.5C9.08579 10.25 8.75 9.91421 8.75 9.5V6.5ZM10.25 7.25V8.75H11.75V7.25H10.25Z"
            fill="#303233" />
        <path fill-rule="evenodd" clip-rule="evenodd"
            d="M6.75 8.75C6.98607 8.75 7.20836 8.86115 7.35 9.05L9.6 12.05C9.77045 12.2773 9.79787 12.5813 9.67082 12.8354C9.54378 13.0895 9.28408 13.25 9 13.25H4.5C4.21593 13.25 3.95623 13.0895 3.82918 12.8354C3.70214 12.5813 3.72956 12.2773 3.9 12.05L6.15 9.05C6.29165 8.86115 6.51394 8.75 6.75 8.75ZM6 11.75H7.5L6.75 10.75L6 11.75Z"
            fill="#303233" />
    </g>
    <defs>
        <clipPath id="clip0_7858_7">
            <rect width="16" height="16" fill="white" />
        </clipPath>
    </defs>
</svg>
