<svg width="24" height="24" viewBox="0 0 24 24" fill="none" xmlns="http://www.w3.org/2000/svg">
    <path
        d="M16.8366 3.25759C14.9392 2.20866 12.7523 1.80481 10.6054 2.10687C8.46507 2.40799 6.48014 3.39442 4.94772 4.91812L2 7.63909V4C2 3.44771 1.55228 3 1 3C0.447715 3 0 3.44771 0 4V10C0 10.5523 0.447715 11 1 11H7C7.55228 11 8 10.5523 8 10C8 9.44771 7.55228 9 7 9H3.47432L6.31828 6.3748C6.32787 6.36595 6.33728 6.35692 6.34651 6.3477C7.57399 5.1223 9.16647 4.32901 10.884 4.08736C12.6015 3.84571 14.3511 4.1688 15.869 5.00794C17.387 5.84707 18.5911 7.15681 19.3 8.73979C20.0088 10.3228 20.184 12.0933 19.7992 13.7845C19.4143 15.4757 18.4902 16.996 17.1662 18.1164C15.8421 19.2367 14.1898 19.8965 12.4583 19.9961C10.7267 20.0958 9.0096 19.63 7.56576 18.6689C6.12192 17.7079 5.02953 16.3036 4.45318 14.6677C4.26966 14.1468 3.69861 13.8733 3.17771 14.0568C2.65681 14.2403 2.38331 14.8114 2.56683 15.3323C3.28727 17.3772 4.65276 19.1325 6.45756 20.3338C8.26236 21.5352 10.4087 22.1174 12.5732 21.9928C14.7377 21.8682 16.803 21.0436 18.4581 19.6431C20.1131 18.2427 21.2682 16.3423 21.7493 14.2282C22.2304 12.1142 22.0114 9.90113 21.1253 7.9224C20.2392 5.94367 18.7341 4.30651 16.8366 3.25759Z"
        fill="#303233" />
</svg>
