<svg width="24" height="24" viewBox="0 0 24 24" fill="none" xmlns="http://www.w3.org/2000/svg">
    <path fill-rule="evenodd" clip-rule="evenodd"
        d="M12 1.25C6.06294 1.25 1.25 6.06294 1.25 12C1.25 17.9371 6.06294 22.75 12 22.75C17.9371 22.75 22.75 17.9371 22.75 12C22.75 6.06294 17.9371 1.25 12 1.25ZM14.9917 7.75C14.3059 7.75 13.75 8.30964 13.75 9C13.75 9.69036 14.3059 10.25 14.9917 10.25H15.0083C15.6941 10.25 16.25 9.69036 16.25 9C16.25 8.30964 15.6941 7.75 15.0083 7.75H14.9917ZM8 14.25C7.58579 14.25 7.25 14.5858 7.25 15C7.25 15.4142 7.58579 15.75 8 15.75H16C16.4142 15.75 16.75 15.4142 16.75 15C16.75 14.5858 16.4142 14.25 16 14.25H8ZM7.75 9C7.75 8.30964 8.30594 7.75 8.99172 7.75H9.00828C9.69406 7.75 10.25 8.30964 10.25 9C10.25 9.69036 9.69406 10.25 9.00828 10.25H8.99172C8.30594 10.25 7.75 9.69036 7.75 9Z"
        fill="#303233" />
</svg>
