<svg width="16" height="16" viewBox="0 0 16 16" fill="none" xmlns="http://www.w3.org/2000/svg">
    <g clip-path="url(#clip0_2174_1110)">
        <path
            d="M8.33064 0.75H7.66977C7.13563 0.749991 6.68975 0.749983 6.32553 0.779741C5.94565 0.810779 5.58899 0.87789 5.25173 1.04973C4.82093 1.26924 4.4572 1.59759 4.19531 2H11.8051C11.5432 1.59759 11.1795 1.26924 10.7487 1.04973C10.4114 0.87789 10.0548 0.810779 9.67487 0.779741C9.31065 0.749983 8.86477 0.749991 8.33064 0.75Z"
            fill="#303233" />
        <path fill-rule="evenodd" clip-rule="evenodd"
            d="M4.66957 4.75H11.3304C11.8646 4.74999 12.3104 4.74998 12.6747 4.77974C13.0546 4.81078 13.4112 4.87789 13.7485 5.04973C14.2659 5.31339 14.6866 5.73408 14.9503 6.25153C15.1221 6.58879 15.1892 6.94545 15.2203 7.32533C15.25 7.68955 15.25 8.13538 15.25 8.66951V11.3305C15.25 11.8646 15.25 12.3105 15.2203 12.6747C15.1892 13.0546 15.1221 13.4112 14.9503 13.7485C14.6866 14.2659 14.2659 14.6866 13.7485 14.9503C13.4112 15.1221 13.0546 15.1892 12.6747 15.2203C12.3105 15.25 11.8646 15.25 11.3305 15.25H4.66955C4.13542 15.25 3.68955 15.25 3.32533 15.2203C2.94545 15.1892 2.58879 15.1221 2.25153 14.9503C1.73408 14.6866 1.31339 14.2659 1.04973 13.7485C0.877889 13.4112 0.810778 13.0546 0.77974 12.6747C0.749982 12.3104 0.74999 11.8646 0.75 11.3304V8.66957C0.74999 8.13542 0.749982 7.68956 0.77974 7.32533C0.810778 6.94545 0.877889 6.58879 1.04973 6.25153C1.31339 5.73408 1.73408 5.31339 2.25153 5.04973C2.58879 4.87789 2.94545 4.81078 3.32533 4.77974C3.68956 4.74998 4.13541 4.74999 4.66957 4.75ZM7.27735 7.51823C6.94507 7.29671 6.5 7.5349 6.5 7.93425V12.0657C6.5 12.4651 6.94507 12.7033 7.27735 12.4818L10.376 10.416C10.6728 10.2181 10.6728 9.78188 10.376 9.58397L7.27735 7.51823Z"
            fill="#303233" />
        <path
            d="M9.83064 2.75H6.16977C5.63563 2.74999 5.18976 2.74998 4.82553 2.77974C4.44565 2.81078 4.08899 2.87789 3.75173 3.04973C3.32093 3.26924 2.9572 3.59759 2.69531 4H13.3051C13.0432 3.59759 12.6795 3.26924 12.2487 3.04973C11.9114 2.87789 11.5548 2.81078 11.1749 2.77974C10.8106 2.74998 10.3648 2.74999 9.83064 2.75Z"
            fill="#303233" />
    </g>
    <defs>
        <clipPath id="clip0_2174_1110">
            <rect width="16" height="16" fill="white" />
        </clipPath>
    </defs>
</svg>
