<svg width="24" height="24" viewBox="0 0 24 24" fill="none" xmlns="http://www.w3.org/2000/svg">
    <path
        d="M10.9999 13C12.1044 13 12.9999 12.1046 12.9999 11C12.9999 9.89543 12.1044 9 10.9999 9C9.8953 9 8.99986 9.89543 8.99986 11C8.99986 12.1046 9.8953 13 10.9999 13Z"
        fill="#303233" />
    <path
        d="M14.4027 17C14.7033 17 14.9383 16.735 14.8592 16.4449C14.3963 14.7477 12.8438 13.5 10.9999 13.5C9.15592 13.5 7.60337 14.7477 7.14048 16.4449C7.06138 16.735 7.2963 17 7.59702 17H14.4027Z"
        fill="#303233" />
    <path
        d="M12.8805 12.6472C13.2662 12.2073 13.4999 11.631 13.4999 11C13.4999 10.369 13.2662 9.79269 12.8805 9.35278C12.7633 9.21912 12.8221 9 12.9999 9C14.1044 9 14.9999 9.89543 14.9999 11C14.9999 12.1046 14.1044 13 12.9999 13C12.8221 13 12.7633 12.7809 12.8805 12.6472Z"
        fill="#303233" />
    <path
        d="M15.9157 17C15.6629 17 15.4527 16.8104 15.3994 16.5633C15.1562 15.4365 14.5251 14.5023 13.661 13.8699C13.5204 13.7669 13.5912 13.5396 13.7623 13.5726C15.2611 13.8618 16.4618 14.9877 16.8592 16.4449C16.9384 16.735 16.7034 17 16.4027 17H15.9157Z"
        fill="#303233" />
    <path fill-rule="evenodd" clip-rule="evenodd"
        d="M4 2.25C2.48122 2.25 1.25 3.48122 1.25 5V19C1.25 20.5188 2.48122 21.75 4 21.75H20C21.5188 21.75 22.75 20.5188 22.75 19V7C22.75 5.48122 21.5188 4.25 20 4.25H13.8284C13.2317 4.25 12.6594 4.01295 12.2374 3.59099L11.409 2.76256C11.0808 2.43437 10.6357 2.25 10.1716 2.25H4ZM2.75 7C2.75 6.30964 3.30964 5.75 4 5.75H20C20.6904 5.75 21.25 6.30964 21.25 7V19C21.25 19.6904 20.6904 20.25 20 20.25H4C3.30964 20.25 2.75 19.6904 2.75 19V7Z"
        fill="#303233" />
</svg>
