<svg width="24" height="24" viewBox="0 0 24 24" fill="none" xmlns="http://www.w3.org/2000/svg">
    <path fill-rule="evenodd" clip-rule="evenodd"
        d="M21.3566 14.4172C19.9882 12.9961 16.4023 13.4476 15.1665 13.6032C15.0824 13.6138 15.0092 13.623 14.9483 13.6302C13.5895 12.3258 12.6512 10.7586 12.2856 10.1481L12.2501 10.0888C12.756 8.57101 13.0933 7.05326 13.1495 5.42309C13.1495 4.01775 12.5874 2.5 11.0134 2.5C10.4513 2.5 9.94535 2.83727 9.66429 3.28698C8.98973 4.46746 9.27079 6.8284 10.3389 9.24557L10.2251 9.56682C9.64752 11.2005 9.06156 12.8578 7.58439 15.6539C5.95423 16.3284 2.52522 17.9024 2.24416 19.5888C2.13172 20.0948 2.30037 20.6006 2.69387 20.9942C3.08735 21.3315 3.59326 21.5 4.09918 21.5C6.17908 21.5 8.20275 18.6332 9.60808 16.216C10.7885 15.8225 12.6436 15.2604 14.4986 14.9231C16.6909 16.8344 18.6022 17.1154 19.614 17.1154C20.963 17.1154 21.4691 16.5533 21.6376 16.0473C21.9186 15.4852 21.7501 14.8669 21.3566 14.4172ZM11.0134 3.51183C10.8448 3.51183 10.6761 3.62425 10.5637 3.7929C10.2826 4.29881 10.114 5.87277 10.9572 8.1213C11.3507 6.99705 11.5755 5.81657 11.6318 4.63609C11.6318 4.13017 11.5193 3.51183 11.0134 3.51183ZM18.4897 15.9349C19.3892 16.1598 19.8951 15.7663 19.9513 15.3728C20.0637 14.8107 19.614 14.5296 19.1643 14.4172C17.9838 14.1923 16.3537 14.361 15.6229 14.4734C16.4661 15.148 17.4217 15.6539 18.4897 15.9349ZM10.4513 14.6982C10.901 13.7988 11.5193 12.2249 11.7442 11.5503C12.2501 12.3935 13.0933 13.4053 13.543 13.8551C13.543 13.8777 13.2608 13.9458 12.8357 14.0485C12.2043 14.2009 11.2575 14.4295 10.4513 14.6982ZM3.76191 20.4321C4.49268 20.4321 5.84179 19.0829 7.13471 16.9468C4.88618 17.9586 3.42464 19.0266 3.25599 19.8136C3.19978 20.0385 3.25599 20.2071 3.42464 20.3196C3.53705 20.3758 3.64949 20.4321 3.76191 20.4321Z"
        fill="#303233" />
</svg>
