<svg width="24" height="24" viewBox="0 0 24 24" fill="none" xmlns="http://www.w3.org/2000/svg">
    <path fill-rule="evenodd" clip-rule="evenodd"
        d="M7.80771 1.87752C6.95637 1.44691 5.95097 1.44691 5.09963 1.87752C4.66703 2.09632 4.29148 2.47284 3.85704 2.90839L3.53594 3.2296C3.07021 3.69486 2.71306 4.05165 2.44226 4.53372C2.13333 5.08366 1.92782 5.8739 1.9297 6.50467C1.93134 7.05656 2.04573 7.45903 2.19323 7.97804L2.20923 8.03436C3.11557 11.2276 4.82592 14.2405 7.33755 16.7522C9.84919 19.2638 12.8621 20.9741 16.0554 21.8805L16.1117 21.8965C16.6307 22.044 17.0332 22.1584 17.585 22.16C18.2158 22.1619 19.0061 21.9564 19.556 21.6475C20.0381 21.3767 20.3948 21.0195 20.8601 20.5538L21.1813 20.2327C21.6169 19.7982 21.9934 19.4227 22.2122 18.9901C22.6428 18.1387 22.6428 17.1333 22.2122 16.282C21.9934 15.8494 21.6169 15.4738 21.1813 15.0394L20.8275 14.6857C20.5413 14.399 20.2948 14.1521 20.0284 13.9789C19.034 13.3324 17.7522 13.3324 16.7578 13.9789C16.4914 14.1521 16.2449 14.399 15.9587 14.6857L15.8956 14.7488C15.838 14.8064 15.8085 14.8358 15.7868 14.8563L15.7814 14.8574L15.7755 14.8582L15.7454 14.8443C15.725 14.8347 15.7014 14.8234 15.6693 14.808C14.32 14.1601 13.0544 13.2766 11.9337 12.156C10.8131 11.0353 9.92958 9.76969 9.28176 8.42041C9.26632 8.38827 9.25503 8.36473 9.24542 8.34431L9.23151 8.31426L9.23235 8.30827L9.23342 8.30289C9.25389 8.28124 9.28328 8.2517 9.34088 8.19409L9.40402 8.13102C9.69067 7.84486 9.93761 7.59833 10.1108 7.33189C10.7573 6.33755 10.7573 5.05568 10.1108 4.06134C9.93761 3.79489 9.69068 3.54838 9.40403 3.26221L9.0503 2.90839C8.61586 2.47284 8.24031 2.09632 7.80771 1.87752ZM6.00232 3.66222C6.2861 3.51868 6.62124 3.51868 6.90502 3.66222C7.01174 3.7162 7.14478 3.83146 7.7318 4.41848L7.92667 4.61335C8.31238 4.99906 8.39136 5.08579 8.4341 5.15153C8.64959 5.48297 8.64959 5.91026 8.43409 6.24171C8.39136 6.30744 8.31238 6.39416 7.92667 6.77987L7.9032 6.80329C7.81314 6.89302 7.69911 7.00664 7.60141 7.14307C7.25271 7.63006 7.13981 8.29213 7.30744 8.86716C7.35419 9.02754 7.41783 9.15954 7.46733 9.26224L7.4788 9.28605C8.22297 10.836 9.23706 12.2877 10.5195 13.5702C11.802 14.8527 13.2537 15.8667 14.8037 16.6109L14.8275 16.6224C14.9302 16.6719 15.0622 16.7355 15.2226 16.7823C15.7976 16.9499 16.4597 16.837 16.9466 16.4883C17.0831 16.3906 17.1967 16.2766 17.2864 16.1865L17.3098 16.163C17.6955 15.7773 17.7823 15.6984 17.848 15.6556C18.1795 15.4401 18.6067 15.4401 18.9382 15.6556C19.0039 15.6984 19.0907 15.7773 19.4764 16.163L19.6712 16.3579C20.2583 16.9449 20.3735 17.078 20.4275 17.1847C20.571 17.4685 20.571 17.8036 20.4275 18.0874C20.3735 18.1941 20.2582 18.3271 19.6712 18.9142L19.5136 19.0718C18.9534 19.632 18.7914 19.783 18.5765 19.9037C18.3274 20.0437 17.8767 20.1609 17.591 20.16C17.3368 20.1593 17.1837 20.1217 16.6014 19.9565C13.7279 19.1409 11.0161 17.6023 8.75177 15.3379C6.48744 13.0736 4.94884 10.3618 4.13324 7.48827C3.96798 6.90602 3.93045 6.75293 3.92969 6.49872C3.92884 6.21305 4.04606 5.76231 4.18597 5.51324C4.30668 5.29836 4.45769 5.13634 5.0179 4.57612L5.17554 4.41848C5.76256 3.83146 5.8956 3.7162 6.00232 3.66222Z"
        fill="#303233" />
    <path
        d="M20.7071 3.29289C21.0976 3.68342 21.0976 4.31658 20.7071 4.70711L18.4142 7L20.7071 9.29289C21.0976 9.68342 21.0976 10.3166 20.7071 10.7071C20.3166 11.0976 19.6834 11.0976 19.2929 10.7071L17 8.41421L14.7071 10.7071C14.3166 11.0976 13.6834 11.0976 13.2929 10.7071C12.9024 10.3166 12.9024 9.68342 13.2929 9.29289L15.5858 7L13.2929 4.70711C12.9024 4.31658 12.9024 3.68342 13.2929 3.29289C13.6834 2.90237 14.3166 2.90237 14.7071 3.29289L17 5.58579L19.2929 3.29289C19.6834 2.90237 20.3166 2.90237 20.7071 3.29289Z"
        fill="#303233" />
</svg>
