<svg width="24" height="24" viewBox="0 0 24 24" fill="none" xmlns="http://www.w3.org/2000/svg">
    <path
        d="M19.75 2C19.75 1.58579 19.4142 1.25 19 1.25C18.5858 1.25 18.25 1.58579 18.25 2V4.25H16C15.5858 4.25 15.25 4.58579 15.25 5C15.25 5.41421 15.5858 5.75 16 5.75H18.25V8C18.25 8.41421 18.5858 8.75 19 8.75C19.4142 8.75 19.75 8.41421 19.75 8V5.75H22C22.4142 5.75 22.75 5.41421 22.75 5C22.75 4.58579 22.4142 4.25 22 4.25H19.75V2Z"
        fill="#303233" />
    <path
        d="M8.75 12C8.75 10.2051 10.2051 8.75 12 8.75C13.7949 8.75 15.25 10.2051 15.25 12C15.25 13.7949 13.7949 15.25 12 15.25C10.2051 15.25 8.75 13.7949 8.75 12Z"
        fill="#303233" />
    <path fill-rule="evenodd" clip-rule="evenodd"
        d="M6.7679 2.25H16.75V2.75H16C14.7574 2.75 13.75 3.75736 13.75 5C13.75 6.24264 14.7574 7.25 16 7.25H16.75V8C16.75 9.24264 17.7574 10.25 19 10.25C20.2426 10.25 21.25 9.24264 21.25 8V7.25H22C22.2626 7.25 22.5147 7.20501 22.7491 7.1223C22.75 7.32487 22.75 7.53891 22.75 7.76515V16.2321C22.75 17.045 22.75 17.7006 22.7066 18.2315C22.662 18.7781 22.5676 19.2582 22.3413 19.7025C21.9817 20.4081 21.4081 20.9817 20.7025 21.3413C20.2582 21.5676 19.7781 21.662 19.2315 21.7066C18.7006 21.75 18.045 21.75 17.2321 21.75H6.76788C5.95505 21.75 5.29944 21.75 4.76853 21.7066C4.2219 21.662 3.74176 21.5676 3.29754 21.3413C2.59193 20.9817 2.01825 20.4081 1.65873 19.7025C1.43239 19.2582 1.33803 18.7781 1.29336 18.2315C1.24999 17.7006 1.24999 17.0449 1.25 16.2321V7.76789C1.24999 6.95506 1.24999 6.29944 1.29336 5.76853C1.33803 5.2219 1.43239 4.74175 1.65873 4.29754C2.01825 3.59193 2.59193 3.01825 3.29754 2.65873C3.74176 2.43239 4.2219 2.33803 4.76853 2.29336C5.29944 2.24999 5.95506 2.24999 6.7679 2.25ZM12 7.25C9.37665 7.25 7.25 9.37665 7.25 12C7.25 14.6234 9.37665 16.75 12 16.75C14.6234 16.75 16.75 14.6234 16.75 12C16.75 9.37665 14.6234 7.25 12 7.25Z"
        fill="#303233" />
</svg>
