<svg width="16" height="16" viewBox="0 0 16 16" fill="none" xmlns="http://www.w3.org/2000/svg">
    <path
        d="M3.72731 5.775C3.72731 3.69237 5.42434 2 7.52277 2C9.06895 2 10.3989 2.91936 10.9907 4.2384C11.0725 4.42055 11.2547 4.53663 11.4543 4.53367C11.4695 4.53345 11.4847 4.53333 11.5 4.53333C13.1591 4.53333 14.5 5.87127 14.5 7.51667C14.5 9.14077 13.1431 10.4789 11.4937 10.4998C11.2176 10.5032 10.9965 10.7299 11 11.006C11.0035 11.2822 11.2302 11.5032 11.5063 11.4997C13.681 11.4722 15.5 9.70998 15.5 7.51667C15.5 5.40245 13.8473 3.67631 11.7624 3.54178C10.9576 2.02988 9.36082 1 7.52277 1C4.95467 1 2.85462 3.01138 2.73289 5.54264C1.44656 5.89665 0.5 7.07001 0.5 8.46667C0.5 10.1442 1.86593 11.5 3.5456 11.5L4.50015 11.4997C4.77629 11.4996 5.00008 11.2757 5 10.9996C4.99992 10.7234 4.77599 10.4996 4.49985 10.4997L3.54531 10.5C2.41346 10.4999 1.5 9.58732 1.5 8.46667C1.5 7.43108 2.28017 6.57283 3.29181 6.44876C3.55032 6.41706 3.7412 6.19222 3.73053 5.93198C3.72839 5.87995 3.72731 5.82761 3.72731 5.775Z"
        fill="#303233" />
    <path
        d="M8.35355 6.64645L10.3536 8.64645C10.5488 8.84171 10.5488 9.15829 10.3536 9.35355C10.1583 9.54882 9.84171 9.54882 9.64645 9.35355L8.5 8.20711V13.5C8.5 13.7761 8.27614 14 8 14C7.72386 14 7.5 13.7761 7.5 13.5V8.20711L6.35355 9.35355C6.15829 9.54882 5.84171 9.54882 5.64645 9.35355C5.45118 9.15829 5.45118 8.84171 5.64645 8.64645L7.64645 6.64645C7.84171 6.45118 8.15829 6.45118 8.35355 6.64645Z"
        fill="#303233" />
</svg>
