<svg width="24" height="24" viewBox="0 0 24 24" fill="none" xmlns="http://www.w3.org/2000/svg">
    <path fill-rule="evenodd" clip-rule="evenodd"
        d="M1.64947 5.11394C1.9965 4.6928 2.52013 4.45765 3.06545 4.47806C3.48636 4.49382 3.83928 4.71463 4.11401 4.91787C4.39733 5.12745 4.73503 5.42765 5.13445 5.7827L10.174 10.2623C10.3886 10.453 10.5836 10.6264 10.733 10.7838C10.8924 10.9519 11.0528 11.1549 11.146 11.4203C11.2777 11.7955 11.2777 12.2045 11.146 12.5797C11.0528 12.8451 10.8924 13.0481 10.733 13.2162C10.5836 13.3736 10.3886 13.547 10.174 13.7377L5.13444 18.2173C4.73503 18.5723 4.39733 18.8725 4.11401 19.0821C3.83928 19.2854 3.48635 19.5062 3.06545 19.5219C2.52013 19.5423 1.9965 19.3072 1.64947 18.8861C1.38161 18.561 1.31218 18.1505 1.28155 17.8102C1.24997 17.4592 1.24999 17.0073 1.25 16.4729V7.52707C1.24999 6.99266 1.24997 6.54083 1.28155 6.18983C1.31218 5.84946 1.38161 5.43899 1.64947 5.11394ZM12.6495 5.11394C12.9965 4.6928 13.5201 4.45765 14.0655 4.47806C14.4864 4.49382 14.8393 4.71463 15.114 4.91787C15.3973 5.12745 15.735 5.42765 16.1344 5.7827L21.174 10.2623C21.3886 10.453 21.5836 10.6264 21.733 10.7838C21.8924 10.9519 22.0528 11.1549 22.146 11.4203C22.2777 11.7955 22.2777 12.2045 22.146 12.5797C22.0528 12.8451 21.8924 13.0481 21.733 13.2162C21.5836 13.3736 21.3886 13.547 21.174 13.7377L16.1344 18.2173C15.735 18.5723 15.3973 18.8725 15.114 19.0821C14.8393 19.2854 14.4864 19.5062 14.0655 19.5219C13.5201 19.5423 12.9965 19.3072 12.6495 18.8861C12.3816 18.561 12.3122 18.1505 12.2816 17.8102C12.25 17.4592 12.25 17.0073 12.25 16.4729V7.52709C12.25 6.99267 12.25 6.54083 12.2816 6.18983C12.3122 5.84946 12.3816 5.43899 12.6495 5.11394Z"
        fill="#303233" />
</svg>
