<svg width="16" height="16" viewBox="0 0 16 16" fill="none" xmlns="http://www.w3.org/2000/svg">
    <path
        d="M5.5 4.50001C4.94771 4.50001 4.5 4.94772 4.5 5.50001C4.5 6.05229 4.94771 6.50001 5.5 6.50001C6.05228 6.50001 6.5 6.05229 6.5 5.50001C6.5 4.94772 6.05228 4.50001 5.5 4.50001Z"
        fill="#303233" />
    <path fill-rule="evenodd" clip-rule="evenodd"
        d="M7.30072 1.05018C7.09043 0.999695 6.87285 0.999824 6.59776 0.999988L3.58533 1.00001C3.23406 0.999999 2.94047 0.999993 2.70054 1.0196C2.45018 1.04005 2.21456 1.08432 1.99157 1.19794C1.64988 1.37204 1.37207 1.64985 1.19797 1.99154C1.08435 2.21453 1.04008 2.45015 1.01963 2.70051C1.00002 2.94044 1.00003 3.23403 1.00004 3.5853L1.00002 6.59772C0.999855 6.87282 0.999726 7.0904 1.05021 7.30069C1.0947 7.48598 1.16807 7.66312 1.26764 7.8256C1.38064 8.01 1.53458 8.16375 1.72921 8.35816L6.82414 13.4531C7.20216 13.8311 7.50735 14.1363 7.77474 14.3633C8.05016 14.5971 8.31821 14.7772 8.63134 14.8789C9.12821 15.0404 9.66344 15.0404 10.1603 14.8789C10.4735 14.7772 10.7415 14.5971 11.0169 14.3633C11.2843 14.1363 11.5895 13.8311 11.9675 13.4531L13.4531 11.9675C13.8311 11.5895 14.1363 11.2843 14.3633 11.0169C14.5971 10.7415 14.7772 10.4734 14.879 10.1603C15.0404 9.66341 15.0404 9.12818 14.879 8.63131C14.7772 8.31818 14.5971 8.05013 14.3633 7.77471C14.1363 7.50732 13.8311 7.20214 13.4531 6.82413L8.35819 1.72918C8.16379 1.53455 8.01003 1.38061 7.82563 1.26761C7.66315 1.16804 7.48601 1.09467 7.30072 1.05018ZM6.54974 2.00001C6.89541 2.00001 6.98675 2.00322 7.06727 2.02255C7.15053 2.04254 7.23012 2.07551 7.30313 2.12025C7.37374 2.16352 7.4406 2.22583 7.68503 2.47026L12.7309 7.51608C13.1275 7.91278 13.4035 8.18931 13.601 8.42189C13.7946 8.65001 13.8832 8.80275 13.9279 8.94032C14.0241 9.23636 14.0241 9.55524 13.9279 9.85127C13.8832 9.98885 13.7946 10.1416 13.601 10.3697C13.4035 10.6023 13.1275 10.8788 12.7309 11.2755L11.2755 12.7308C10.8789 13.1275 10.6023 13.4035 10.3697 13.6009C10.1416 13.7946 9.98888 13.8832 9.8513 13.9279C9.55527 14.0241 9.23639 14.0241 8.94035 13.9279C8.80278 13.8832 8.65004 13.7946 8.42192 13.6009C8.18934 13.4035 7.91281 13.1275 7.51612 12.7308L2.47029 7.685C2.22586 7.44057 2.16355 7.37371 2.12028 7.3031C2.07554 7.23009 2.04257 7.1505 2.02258 7.06724C2.00325 6.98672 2.00004 6.89538 2.00004 6.54971L2.00004 3.60555C2.00004 3.2288 2.00043 2.9763 2.01631 2.78194C2.03171 2.59342 2.05916 2.50405 2.08897 2.44553C2.1672 2.292 2.29203 2.16717 2.44556 2.08894C2.50408 2.05913 2.59346 2.03168 2.78197 2.01628C2.97633 2.0004 3.22883 2.00001 3.60558 2.00001L6.54974 2.00001Z"
        fill="#303233" />
</svg>
