<svg width="16" height="16" viewBox="0 0 16 16" fill="none" xmlns="http://www.w3.org/2000/svg">
    <g clip-path="url(#clip0_53_3618)">
        <path fill-rule="evenodd" clip-rule="evenodd"
            d="M15.25 3C15.25 3.41421 14.9142 3.75 14.5 3.75L11.5 3.75C11.0858 3.75 10.75 3.41421 10.75 3C10.75 2.58579 11.0858 2.25 11.5 2.25L14.5 2.25C14.9142 2.25 15.25 2.58579 15.25 3ZM15.25 8C15.25 8.41421 14.9142 8.75 14.5 8.75L12.122 8.75C11.8131 9.62389 10.9797 10.25 10 10.25C8.75736 10.25 7.75 9.24264 7.75 8C7.75 6.75736 8.75736 5.75 10 5.75C10.9797 5.75 11.8131 6.37611 12.122 7.25L14.5 7.25C14.9142 7.25 15.25 7.58579 15.25 8ZM15.25 13C15.25 13.4142 14.9142 13.75 14.5 13.75L10 13.75C9.58579 13.75 9.25 13.4142 9.25 13C9.25 12.5858 9.58579 12.25 10 12.25L14.5 12.25C14.9142 12.25 15.25 12.5858 15.25 13ZM10.75 8C10.75 7.58579 10.4142 7.25 10 7.25C9.58579 7.25 9.25 7.58579 9.25 8C9.25 8.41421 9.58579 8.75 10 8.75C10.4142 8.75 10.75 8.41421 10.75 8ZM7.75 3C7.75 2.58579 7.41421 2.25 7 2.25C6.58579 2.25 6.25 2.58579 6.25 3C6.25 3.41421 6.58579 3.75 7 3.75C7.41421 3.75 7.75 3.41421 7.75 3ZM7 0.75C8.24264 0.75 9.25 1.75736 9.25 3C9.25 4.24264 8.24264 5.25 7 5.25C6.02034 5.25 5.18691 4.62389 4.87803 3.75L1.5 3.75C1.08579 3.75 0.75 3.41421 0.75 3C0.75 2.58579 1.08579 2.25 1.5 2.25L4.87803 2.25C5.18691 1.3761 6.02034 0.75 7 0.75ZM6.25 13C6.25 12.5858 5.91421 12.25 5.5 12.25C5.08579 12.25 4.75 12.5858 4.75 13C4.75 13.4142 5.08579 13.75 5.5 13.75C5.91421 13.75 6.25 13.4142 6.25 13ZM5.5 10.75C6.74264 10.75 7.75 11.7574 7.75 13C7.75 14.2426 6.74264 15.25 5.5 15.25C4.52034 15.25 3.68691 14.6239 3.37803 13.75L1.5 13.75C1.08579 13.75 0.749999 13.4142 0.749999 13C0.749999 12.5858 1.08579 12.25 1.5 12.25L3.37803 12.25C3.68691 11.3761 4.52034 10.75 5.5 10.75ZM6.25 8C6.25 8.41421 5.91421 8.75 5.5 8.75L1.5 8.75C1.08579 8.75 0.75 8.41421 0.75 8C0.75 7.58579 1.08579 7.25 1.5 7.25L5.5 7.25C5.91421 7.25 6.25 7.58579 6.25 8Z"
            fill="#303233" />
    </g>
    <defs>
        <clipPath id="clip0_53_3618">
            <rect width="16" height="16" fill="white" />
        </clipPath>
    </defs>
</svg>
