<svg width="24" height="24" viewBox="0 0 24 24" fill="none" xmlns="http://www.w3.org/2000/svg">
    <path fill-rule="evenodd" clip-rule="evenodd"
        d="M15.1137 4.99997C15.7487 4.99967 16.2284 4.99944 16.6911 5.11052C17.0993 5.20851 17.4895 5.37013 17.8474 5.58944C18.2531 5.83807 18.5922 6.1775 19.041 6.62672C19.0647 6.65043 19.0887 6.67445 19.113 6.69878L21.4717 9.05745C21.8444 9.43017 22.166 9.75171 22.4092 10.0382C22.6659 10.3406 22.8935 10.6691 23.0247 11.073C23.2205 11.6755 23.2205 12.3245 23.0247 12.9271C22.8935 13.3309 22.6659 13.6594 22.4092 13.9618C22.166 14.2483 21.8444 14.5699 21.4716 14.9426L19.113 17.3012C19.0887 17.3256 19.0647 17.3496 19.041 17.3733C18.5922 17.8225 18.2531 18.1619 17.8474 18.4106C17.4895 18.6299 17.0993 18.7915 16.6911 18.8895C16.2284 19.0006 15.7487 19.0003 15.1137 19C15.0801 19 15.0462 19 15.0118 19H6.75872C5.95374 19 5.28938 19 4.74817 18.9558C4.18608 18.9099 3.66937 18.8113 3.18404 18.564C2.43139 18.1805 1.81947 17.5686 1.43597 16.816C1.18868 16.3306 1.09012 15.8139 1.04419 15.2518C0.999977 14.7106 0.999988 14.0463 1 13.2413V10.7587C0.999988 9.95373 0.999977 9.28937 1.04419 8.74818C1.09012 8.18608 1.18868 7.66938 1.43597 7.18404C1.81947 6.43139 2.43139 5.81947 3.18404 5.43598C3.66937 5.18869 4.18608 5.09012 4.74817 5.0442C5.28937 4.99998 5.95373 4.99999 6.7587 5L15.0118 5C15.0462 5 15.0801 4.99999 15.1137 4.99997Z"
        fill="#303233" />
</svg>
