<svg width="24" height="24" viewBox="0 0 24 24" fill="none" xmlns="http://www.w3.org/2000/svg">
    <path
        d="M3.20711 7.20711C2.81658 7.59763 2.18342 7.59763 1.79289 7.20711C1.40237 6.81658 1.40237 6.18342 1.79289 5.79289L5.29289 2.29289C5.68342 1.90237 6.31658 1.90237 6.70711 2.29289L10.2071 5.79289C10.5976 6.18342 10.5976 6.81658 10.2071 7.20711C9.81658 7.59763 9.18342 7.59763 8.79289 7.20711L7.00004 5.41426V8.34903C7.00004 9.37499 7.00647 9.72499 7.08293 10.0435C7.15642 10.3496 7.27764 10.6422 7.44212 10.9106C7.61326 11.1899 7.8562 11.4419 8.58167 12.1674L10.9132 14.4989C11.3698 14.9552 11.722 15.3072 12 15.6656C12.2781 15.3072 12.6303 14.9552 13.0869 14.4989L15.4184 12.1674C16.1439 11.4419 16.3868 11.1899 16.558 10.9106C16.7224 10.6422 16.8437 10.3496 16.9172 10.0435C16.9936 9.72499 17 9.37499 17 8.34903V5.41417L15.2071 7.20711C14.8166 7.59763 14.1834 7.59763 13.7929 7.20711C13.4024 6.81658 13.4024 6.18342 13.7929 5.79289L17.2929 2.29289C17.6834 1.90237 18.3166 1.90237 18.7071 2.29289L22.2071 5.79289C22.5976 6.18342 22.5976 6.81658 22.2071 7.20711C21.8166 7.59763 21.1834 7.59763 20.7929 7.20711L19 5.41426L19.0001 8.46299C19.0003 9.33173 19.0005 9.93307 18.8619 10.5104C18.7394 11.0206 18.5374 11.5083 18.2632 11.9556C17.953 12.4619 17.5277 12.8869 16.9132 13.5011L14.5817 15.8326C13.8562 16.5581 13.6133 16.8101 13.4421 17.0894C13.2776 17.3578 13.1564 17.6504 13.0829 17.9565C13.0086 18.2662 13.0005 18.6057 13.0001 19.5674C13 19.5947 13 19.6226 13 19.651V21C13 21.5523 12.5523 22 12 22C11.4478 22 11 21.5523 11 21V19.651C11 19.6226 11 19.5947 11 19.5674C10.9996 18.6057 10.9915 18.2662 10.9172 17.9565C10.8437 17.6504 10.7224 17.3578 10.558 17.0894C10.3868 16.8101 10.1439 16.5581 9.41842 15.8326L7.08686 13.5011C6.47239 12.887 6.04705 12.4619 5.73684 11.9556C5.4627 11.5083 5.26068 11.0206 5.13819 10.5104C4.9996 9.93307 4.99977 9.33173 5.00002 8.46298L5.00004 5.41417L3.20711 7.20711Z"
        fill="#303233" />
</svg>
