<svg width="24" height="24" viewBox="0 0 24 24" fill="none" xmlns="http://www.w3.org/2000/svg">
    <path fill-rule="evenodd" clip-rule="evenodd"
        d="M12 3C10.5029 3 9.01419 3.03616 7.53466 3.10766L7.33998 3.117C5.77975 3.19158 4.68598 3.24387 3.67858 3.7914C2.84996 4.24177 2.04655 5.06496 1.61646 5.90428C1.09357 6.92469 1.06789 8.01965 1.03124 9.58163L1.02664 9.77656C1.00891 10.5156 1 11.2568 1 12C1 12.7432 1.00891 13.4844 1.02664 14.2234L1.03124 14.4184C1.06789 15.9803 1.09357 17.0753 1.61646 18.0957C2.04655 18.935 2.84996 19.7582 3.67858 20.2086C4.68598 20.7561 5.77975 20.8084 7.33999 20.883L7.53466 20.8923C9.01419 20.9638 10.5029 21 12 21C13.4971 21 14.9858 20.9638 16.4653 20.8923L16.66 20.883C18.2202 20.8084 19.314 20.7561 20.3214 20.2086C21.15 19.7582 21.9535 18.935 22.3835 18.0957C22.9064 17.0753 22.9321 15.9803 22.9688 14.4184L22.9734 14.2234C22.9911 13.4844 23 12.7432 23 12C23 11.2568 22.9911 10.5156 22.9734 9.77656L22.9688 9.58162C22.9321 8.01965 22.9064 6.92469 22.3835 5.90428C21.9535 5.06496 21.15 4.24177 20.3214 3.7914C19.314 3.24387 18.2202 3.19158 16.66 3.117L16.4653 3.10766C14.9858 3.03616 13.4971 3 12 3ZM11.598 11.6821H8.80994V12.9018H10.2118C10.1411 13.1608 9.98936 13.3919 9.74875 13.5975C9.44138 13.8576 9.10127 13.984 8.72173 13.984C8.27437 13.984 7.85262 13.8141 7.45183 13.4551C7.03405 13.0779 6.82566 12.6024 6.82566 12.0131C6.82566 11.4385 7.01432 10.9715 7.38842 10.5974L7.38968 10.5962C7.76488 10.2142 8.22562 10.0234 8.78536 10.0234C9.39312 10.0234 9.91528 10.3004 10.3584 10.8905L10.4939 11.0708L11.416 10.1876L11.2903 10.0437C10.9164 9.61561 10.5282 9.29698 10.124 9.09758L10.1208 9.09606C9.70121 8.89829 9.25023 8.79999 8.77039 8.79999C7.87733 8.79999 7.1126 9.11362 6.48813 9.73802C5.86359 10.36 5.5498 11.1223 5.5498 12.0131C5.5498 12.8866 5.85898 13.6409 6.4721 14.2646C7.08547 14.886 7.82893 15.2 8.69179 15.2C9.57571 15.2 10.3138 14.8741 10.8894 14.2263C11.1426 13.9384 11.3258 13.6253 11.4349 13.2872L11.4358 13.2843C11.5451 12.9271 11.598 12.5224 11.598 12.073V11.6821ZM13.5705 15.0914V8.91228H12.2984V15.0914H13.5705ZM15.8313 10.132H17.845V8.91228H14.5592V15.0914H15.8313V12.3403H17.7739V11.1206H15.8313V10.132Z"
        fill="#303233" />
</svg>
