<svg width="24" height="24" viewBox="0 0 24 24" fill="none" xmlns="http://www.w3.org/2000/svg">
    <path
        d="M10 18C14.4183 18 18 14.4183 18 10C18 5.58172 14.4183 2 10 2C5.58172 2 2 5.58172 2 10C2 11.0641 2.20777 12.0797 2.58494 13.0085C2.65713 13.1862 2.69323 13.2751 2.70933 13.3469C2.72508 13.4172 2.73084 13.4692 2.73085 13.5412C2.73086 13.6148 2.71749 13.695 2.69076 13.8554L2.16367 17.018C2.10847 17.3492 2.08087 17.5148 2.13223 17.6345C2.17718 17.7393 2.2607 17.8228 2.3655 17.8678C2.48524 17.9191 2.65083 17.8915 2.98201 17.8363L6.14458 17.3092C6.30497 17.2825 6.38516 17.2691 6.45878 17.2691C6.5308 17.2692 6.58281 17.2749 6.65308 17.2907C6.72493 17.3068 6.8138 17.3429 6.99155 17.4151C7.92027 17.7922 8.93587 18 10 18Z"
        fill="#303233" />
    <path
        d="M10.7832 18.9664C15.1288 18.5917 18.5915 15.129 18.9662 10.7834C20.7781 11.8159 21.9998 13.7653 21.9998 16C21.9998 16.7981 21.844 17.5598 21.5611 18.2563C21.507 18.3896 21.4799 18.4563 21.4678 18.5102C21.456 18.5629 21.4517 18.6019 21.4517 18.6559C21.4517 18.7111 21.4617 18.7713 21.4817 18.8915L21.8771 21.2635C21.9185 21.5119 21.9392 21.6361 21.9006 21.7259C21.8669 21.8045 21.8043 21.8671 21.7257 21.9008C21.6359 21.9393 21.5117 21.9186 21.2633 21.8772L18.8914 21.4819C18.7711 21.4619 18.7109 21.4519 18.6557 21.4519C18.6017 21.4519 18.5627 21.4562 18.51 21.468C18.4561 21.4801 18.3895 21.5071 18.2562 21.5613C17.5596 21.8442 16.7979 22 15.9998 22C13.7651 22 11.8158 20.7783 10.7832 18.9664Z"
        fill="#303233" />
</svg>
