<svg width="24" height="24" viewBox="0 0 24 24" fill="none" xmlns="http://www.w3.org/2000/svg">
    <path
        d="M1 5C1 3.34315 2.34315 2 4 2H10.1716C10.702 2 11.2107 2.21071 11.5858 2.58579L12.4142 3.41421C12.7893 3.78929 13.298 4 13.8284 4H20C21.6569 4 23 5.34315 23 7V19C23 20.6569 21.6569 22 20 22H11V15C11 13.3431 9.65685 12 8 12H1V5Z"
        fill="#303233" />
    <path
        d="M8.70922 14.295C8.80405 14.3904 8.87568 14.5001 8.92412 14.6172C8.97265 14.7343 8.9996 14.8625 9 14.997L9 15V21C9 21.5523 8.55229 22 8 22C7.44771 22 7 21.5523 7 21V17.4142L2.70711 21.7071C2.31658 22.0976 1.68342 22.0976 1.29289 21.7071C0.902369 21.3166 0.902369 20.6834 1.29289 20.2929L5.58579 16H2C1.44772 16 1 15.5523 1 15C1 14.4477 1.44772 14 2 14H7.99983C8.27489 14 8.52419 14.1111 8.70498 14.2908L8.70922 14.295Z"
        fill="#303233" />
</svg>
