<svg width="16" height="16" viewBox="0 0 16 16" fill="none" xmlns="http://www.w3.org/2000/svg">
    <path fill-rule="evenodd" clip-rule="evenodd"
        d="M5.77853 1H10.2215C10.7808 0.999995 11.231 0.999991 11.5954 1.02976C11.9702 1.06039 12.298 1.125 12.6009 1.2793C13.083 1.52497 13.475 1.91698 13.7207 2.39915C13.875 2.70198 13.9396 3.02979 13.9702 3.40464C14 3.76899 14 4.21918 14 4.77851V11.2215C14 11.7808 14 12.231 13.9702 12.5954C13.9396 12.9702 13.875 13.298 13.7207 13.6009C13.475 14.083 13.083 14.475 12.6009 14.7207C12.298 14.875 11.9702 14.9396 11.5954 14.9702C11.231 15 10.7808 15 10.2215 15H5.77851C5.21918 15 4.76899 15 4.40464 14.9702C4.02979 14.9396 3.70198 14.875 3.39915 14.7207C2.91698 14.475 2.52497 14.083 2.2793 13.6009C2.125 13.298 2.06039 12.9702 2.02976 12.5954C1.99999 12.231 2 11.7808 2 11.2215V4.77853C2 4.21919 1.99999 3.769 2.02976 3.40464C2.06039 3.02979 2.125 2.70198 2.2793 2.39915C2.52497 1.91698 2.91698 1.52497 3.39915 1.2793C3.70198 1.125 4.02979 1.06039 4.40464 1.02976C4.769 0.999991 5.21919 0.999995 5.77853 1ZM4.48607 2.02644C4.17306 2.05201 3.9915 2.0998 3.85314 2.1703C3.55914 2.3201 3.3201 2.55914 3.1703 2.85314C3.0998 2.9915 3.05201 3.17306 3.02644 3.48607C3.00039 3.80491 3 4.2142 3 4.8V11.2C3 11.7858 3.00039 12.1951 3.02644 12.5139C3.05201 12.8269 3.0998 13.0085 3.1703 13.1469C3.3201 13.4409 3.55914 13.6799 3.85314 13.8297C3.9915 13.9002 4.17306 13.948 4.48607 13.9736C4.80491 13.9996 5.2142 14 5.8 14H10.2C10.7858 14 11.1951 13.9996 11.5139 13.9736C11.8269 13.948 12.0085 13.9002 12.1469 13.8297C12.4409 13.6799 12.6799 13.4409 12.8297 13.1469C12.9002 13.0085 12.948 12.8269 12.9736 12.5139C12.9996 12.1951 13 11.7858 13 11.2V4.8C13 4.2142 12.9996 3.80491 12.9736 3.48607C12.948 3.17306 12.9002 2.9915 12.8297 2.85314C12.6799 2.55914 12.4409 2.3201 12.1469 2.1703C12.0085 2.0998 11.8269 2.05201 11.5139 2.02644C11.1951 2.00039 10.7858 2 10.2 2H5.8C5.2142 2 4.80491 2.00039 4.48607 2.02644Z"
        fill="#303233" />
</svg>
