<svg width="24" height="24" viewBox="0 0 24 24" fill="none" xmlns="http://www.w3.org/2000/svg">
    <path
        d="M8.02037 4.77741C9.58679 3.91371 11.3915 3.5825 13.1625 3.83371C14.9335 4.08492 16.5749 4.90492 17.8394 6.17016C17.8447 6.17553 17.8502 6.18081 17.8557 6.18601L21.1094 9.25H17C16.5858 9.25 16.25 9.58579 16.25 10C16.25 10.4142 16.5858 10.75 17 10.75H23C23.1268 10.75 23.2462 10.7185 23.3509 10.663C23.3893 10.6427 23.4263 10.6188 23.4613 10.5914C23.637 10.4541 23.75 10.2403 23.75 10V4C23.75 3.58579 23.4142 3.25 23 3.25C22.5858 3.25 22.25 3.58579 22.25 4V8.26365L18.8922 5.10163C17.3989 3.61101 15.4624 2.64491 13.3732 2.34858C11.2801 2.0517 9.14731 2.44312 7.29609 3.46386C5.44488 4.48461 3.97556 6.07937 3.10956 8.00783C2.24356 9.93629 2.02779 12.094 2.49477 14.1557C2.96175 16.2175 4.08618 18.0716 5.69861 19.4387C7.31105 20.8058 9.32413 21.6118 11.4345 21.7353C13.5449 21.8588 15.6382 21.293 17.399 20.1232C19.1599 18.9535 20.4928 17.2431 21.197 15.2498C21.335 14.8593 21.1303 14.4308 20.7397 14.2928C20.3492 14.1549 19.9207 14.3596 19.7827 14.7502C19.1869 16.4368 18.059 17.884 16.569 18.8738C15.0791 19.8636 13.3078 20.3423 11.5221 20.2379C9.7364 20.1334 8.03302 19.4514 6.66866 18.2946C5.30429 17.1378 4.35285 15.5689 3.95772 13.8244C3.56258 12.0798 3.74515 10.2541 4.47792 8.62231C5.21069 6.99053 6.45396 5.64112 8.02037 4.77741Z"
        fill="#303233" />
</svg>
