<svg width="16" height="16" viewBox="0 0 16 16" fill="none" xmlns="http://www.w3.org/2000/svg">
    <path fill-rule="evenodd" clip-rule="evenodd"
        d="M15 3C15 3.27614 14.7761 3.5 14.5 3.5L11.5 3.5C11.2239 3.5 11 3.27614 11 3C11 2.72386 11.2239 2.5 11.5 2.5L14.5 2.5C14.7761 2.5 15 2.72386 15 3ZM15 8C15 8.27614 14.7761 8.5 14.5 8.5L11.937 8.5C11.715 9.36261 10.9319 10 10 10C8.89543 10 8 9.10457 8 8C8 6.89543 8.89543 6 10 6C10.9319 6 11.715 6.63739 11.937 7.5L14.5 7.5C14.7761 7.5 15 7.72386 15 8ZM15 13C15 13.2761 14.7761 13.5 14.5 13.5L10 13.5C9.72386 13.5 9.5 13.2761 9.5 13C9.5 12.7239 9.72386 12.5 10 12.5L14.5 12.5C14.7761 12.5 15 12.7239 15 13ZM11 8C11 7.44772 10.5523 7 10 7C9.44772 7 9 7.44772 9 8C9 8.55228 9.44771 9 10 9C10.5523 9 11 8.55229 11 8ZM8 3C8 2.44771 7.55229 2 7 2C6.44772 2 6 2.44771 6 3C6 3.55228 6.44772 4 7 4C7.55228 4 8 3.55228 8 3ZM7 1C8.10457 1 9 1.89543 9 3C9 4.10457 8.10457 5 7 5C6.06808 5 5.28503 4.36261 5.06301 3.5L1.5 3.5C1.22386 3.5 1 3.27614 1 3C1 2.72386 1.22386 2.5 1.5 2.5L5.06301 2.5C5.28503 1.63739 6.06808 1 7 1ZM6.5 13C6.5 12.4477 6.05228 12 5.5 12C4.94771 12 4.5 12.4477 4.5 13C4.5 13.5523 4.94771 14 5.5 14C6.05228 14 6.5 13.5523 6.5 13ZM5.5 11C6.60457 11 7.5 11.8954 7.5 13C7.5 14.1046 6.60457 15 5.5 15C4.56808 15 3.78503 14.3626 3.56301 13.5L1.5 13.5C1.22386 13.5 0.999999 13.2761 0.999999 13C0.999999 12.7239 1.22386 12.5 1.5 12.5L3.56301 12.5C3.78503 11.6374 4.56808 11 5.5 11ZM6 8C6 8.27614 5.77614 8.5 5.5 8.5L1.5 8.5C1.22386 8.5 1 8.27614 1 8C1 7.72386 1.22386 7.5 1.5 7.5L5.5 7.5C5.77614 7.5 6 7.72386 6 8Z"
        fill="#303233" />
</svg>
