<svg width="16" height="16" viewBox="0 0 16 16" fill="none" xmlns="http://www.w3.org/2000/svg">
    <g clip-path="url(#clip0_53_9607)">
        <path
            d="M7.82322 7.32325C8.11612 7.03035 8.59099 7.03035 8.88388 7.32325L11.0303 9.46968C11.3232 9.76257 11.3232 10.2374 11.0303 10.5303L8.88384 12.6768C8.59095 12.9697 8.11608 12.9697 7.82319 12.6768C7.53029 12.3839 7.53029 11.909 7.82319 11.6161L8.68932 10.75H5.5C5.08579 10.75 4.75 10.4142 4.75 10C4.75 9.58579 5.08579 9.25 5.5 9.25H8.68932L7.82322 8.38391C7.53033 8.09101 7.53033 7.61614 7.82322 7.32325Z"
            fill="#303233" />
        <path fill-rule="evenodd" clip-rule="evenodd"
            d="M5.5 0.25C5.08579 0.25 4.75 0.585786 4.75 1V1.75H2.94444C1.79014 1.75 0.75 2.62735 0.75 3.83333V13.1667C0.75 14.3727 1.79014 15.25 2.94444 15.25H13.0556C14.2099 15.25 15.25 14.3727 15.25 13.1667V3.83333C15.25 2.62735 14.2099 1.75 13.0556 1.75H11.25V1C11.25 0.585786 10.9142 0.25 10.5 0.25C10.0858 0.25 9.75 0.585786 9.75 1V1.75H6.25V1C6.25 0.585786 5.91421 0.25 5.5 0.25ZM9.75 3.5V3.25H6.25V3.5C6.25 3.91421 5.91421 4.25 5.5 4.25C5.08579 4.25 4.75 3.91421 4.75 3.5V3.25H2.94444C2.50326 3.25 2.25 3.56656 2.25 3.83333V4.75H13.75V3.83333C13.75 3.56656 13.4967 3.25 13.0556 3.25H11.25V3.5C11.25 3.91421 10.9142 4.25 10.5 4.25C10.0858 4.25 9.75 3.91421 9.75 3.5ZM2.25 13.1667V6.25H13.75V13.1667C13.75 13.4334 13.4967 13.75 13.0556 13.75H2.94444C2.50326 13.75 2.25 13.4334 2.25 13.1667Z"
            fill="#303233" />
    </g>
    <defs>
        <clipPath id="clip0_53_9607">
            <rect width="16" height="16" fill="white" />
        </clipPath>
    </defs>
</svg>
