<svg width="24" height="24" viewBox="0 0 24 24" fill="none" xmlns="http://www.w3.org/2000/svg">
    <path fill-rule="evenodd" clip-rule="evenodd"
        d="M10.1615 2H13.8385C14.3657 1.99998 14.8205 1.99997 15.195 2.03057C15.5904 2.06287 15.9836 2.13419 16.362 2.32698C16.9265 2.6146 17.3854 3.07354 17.673 3.63803C17.8658 4.01641 17.9371 4.40963 17.9694 4.80497C18 5.17954 18 5.63429 18 6.16143V10L19.4319 10C19.6843 9.99997 19.9301 9.99994 20.1382 10.0169C20.3668 10.0356 20.6366 10.0797 20.908 10.218C21.2843 10.4097 21.5903 10.7157 21.782 11.092C21.9203 11.3634 21.9644 11.6332 21.9831 11.8618C22.0001 12.0699 22 12.3157 22 12.5681L22 20C22.5523 20 23 20.4477 23 21C23 21.5523 22.5523 22 22 22H2C1.44772 22 1 21.5523 1 21C1 20.4477 1.44772 20 2 20L2 12.5681C1.99997 12.3157 1.99994 12.0699 2.01695 11.8618C2.03562 11.6332 2.07969 11.3634 2.21799 11.092C2.40973 10.7157 2.7157 10.4097 3.09202 10.218C3.36344 10.0797 3.63318 10.0356 3.86177 10.0169C4.06993 9.99994 4.31572 9.99997 4.5681 10C4.57872 10 4.58936 10 4.6 10H6L6 6.16146C5.99998 5.63431 5.99997 5.17954 6.03057 4.80497C6.06287 4.40963 6.13419 4.01641 6.32698 3.63803C6.6146 3.07354 7.07354 2.6146 7.63803 2.32698C8.01641 2.13419 8.40963 2.06287 8.80497 2.03057C9.17954 1.99997 9.63431 1.99998 10.1615 2ZM6 12H4.6C4.30347 12 4.14122 12.0008 4.02463 12.0103C4.01999 12.0107 4.0156 12.0111 4.01145 12.0114C4.01107 12.0156 4.01068 12.02 4.0103 12.0246C4.00078 12.1412 4 12.3035 4 12.6V20H6V12ZM8 20V6.2C8 5.62345 8.00078 5.25117 8.02393 4.96784C8.04612 4.69617 8.0838 4.59545 8.10899 4.54601C8.20487 4.35785 8.35785 4.20487 8.54601 4.10899C8.59545 4.0838 8.69617 4.04612 8.96784 4.02393C9.25117 4.00078 9.62345 4 10.2 4H13.8C14.3766 4 14.7488 4.00078 15.0322 4.02393C15.3038 4.04612 15.4045 4.0838 15.454 4.10899C15.6422 4.20487 15.7951 4.35785 15.891 4.54601C15.9162 4.59545 15.9539 4.69617 15.9761 4.96784C15.9992 5.25117 16 5.62345 16 6.2V20H8ZM18 20H20V12.6C20 12.3035 19.9992 12.1412 19.9897 12.0246C19.9893 12.02 19.9889 12.0156 19.9885 12.0114C19.9844 12.0111 19.98 12.0107 19.9754 12.0103C19.8588 12.0008 19.6965 12 19.4 12H18V20ZM10 7C10 6.44772 10.4477 6 11 6H13C13.5523 6 14 6.44772 14 7C14 7.55228 13.5523 8 13 8H11C10.4477 8 10 7.55228 10 7ZM10 11C10 10.4477 10.4477 10 11 10H13C13.5523 10 14 10.4477 14 11C14 11.5523 13.5523 12 13 12H11C10.4477 12 10 11.5523 10 11ZM10 15C10 14.4477 10.4477 14 11 14H13C13.5523 14 14 14.4477 14 15C14 15.5523 13.5523 16 13 16H11C10.4477 16 10 15.5523 10 15Z"
        fill="#303233" />
</svg>
