<svg width="24" height="24" viewBox="0 0 24 24" fill="none" xmlns="http://www.w3.org/2000/svg">
    <path fill-rule="evenodd" clip-rule="evenodd"
        d="M12 1.25C6.06294 1.25 1.25 6.06294 1.25 12C1.25 17.9371 6.06294 22.75 12 22.75C17.9371 22.75 22.75 17.9371 22.75 12C22.75 6.06294 17.9371 1.25 12 1.25ZM14.9917 7.75C14.3059 7.75 13.75 8.30964 13.75 9C13.75 9.69036 14.3059 10.25 14.9917 10.25H15.0083C15.6941 10.25 16.25 9.69036 16.25 9C16.25 8.30964 15.6941 7.75 15.0083 7.75H14.9917ZM8.62142 15.6066C9.39093 16.1662 10.5408 16.7487 11.995 16.75C13.4493 16.7487 14.6092 16.1662 15.3787 15.6066C15.7653 15.3254 16.0641 15.0443 16.2681 14.8314C16.3704 14.7247 16.4497 14.6342 16.5052 14.5681C16.5327 14.5354 16.5544 14.5085 16.5702 14.4886L16.5902 14.463L16.5962 14.4551L16.5986 14.4519L16.6001 14.4499C16.8486 14.1186 16.7814 13.6485 16.4501 13.4C16.1197 13.1523 15.6516 13.2182 15.4025 13.5469L15.3953 13.556L15.3946 13.5569C15.3872 13.5662 15.3744 13.5822 15.3562 13.6038C15.3199 13.6471 15.2625 13.7128 15.1851 13.7936C15.0297 13.9557 14.7973 14.1746 14.4964 14.3935C13.8917 14.8333 13.0433 15.25 12 15.25C10.9568 15.25 10.1084 14.8333 9.50367 14.3935C9.20278 14.1746 8.97037 13.9557 8.81497 13.7936C8.73758 13.7128 8.6802 13.6471 8.64386 13.6038C8.62572 13.5822 8.6129 13.5662 8.60553 13.5569L8.60478 13.556L8.59765 13.5469C8.34853 13.2182 7.88037 13.1523 7.55004 13.4C7.2187 13.6485 7.15153 14.1186 7.39998 14.4499L7.40069 14.4509L7.40149 14.4519L7.40387 14.4551L7.40992 14.463L7.42994 14.4886C7.44573 14.5085 7.46742 14.5354 7.4949 14.5681C7.55036 14.6342 7.62969 14.7247 7.73199 14.8314C7.93597 15.0443 8.23481 15.3254 8.62142 15.6066ZM7.75 9C7.75 8.30964 8.30594 7.75 8.99172 7.75H9.00828C9.69406 7.75 10.25 8.30964 10.25 9C10.25 9.69036 9.69406 10.25 9.00828 10.25H8.99172C8.30594 10.25 7.75 9.69036 7.75 9Z"
        fill="#303233" />
</svg>
