<svg width="24" height="24" viewBox="0 0 24 24" fill="none" xmlns="http://www.w3.org/2000/svg">
    <path fill-rule="evenodd" clip-rule="evenodd"
        d="M2.25 4C2.25 3.0335 3.0335 2.25 4 2.25H6C6.9665 2.25 7.75 3.0335 7.75 4V6C7.75 6.9665 6.9665 7.75 6 7.75H4C3.0335 7.75 2.25 6.9665 2.25 6V4ZM4 3.75C3.86193 3.75 3.75 3.86193 3.75 4V6C3.75 6.13807 3.86193 6.25 4 6.25H6C6.13807 6.25 6.25 6.13807 6.25 6V4C6.25 3.86193 6.13807 3.75 6 3.75H4Z"
        fill="#303233" />
    <path fill-rule="evenodd" clip-rule="evenodd"
        d="M9.25 4C9.25 3.0335 10.0335 2.25 11 2.25H13C13.9665 2.25 14.75 3.0335 14.75 4V6C14.75 6.9665 13.9665 7.75 13 7.75H11C10.0335 7.75 9.25 6.9665 9.25 6V4ZM11 3.75C10.8619 3.75 10.75 3.86193 10.75 4V6C10.75 6.13807 10.8619 6.25 11 6.25H13C13.1381 6.25 13.25 6.13807 13.25 6V4C13.25 3.86193 13.1381 3.75 13 3.75H11Z"
        fill="#303233" />
    <path fill-rule="evenodd" clip-rule="evenodd"
        d="M18 2.25C17.0335 2.25 16.25 3.0335 16.25 4V6C16.25 6.9665 17.0335 7.75 18 7.75H20C20.9665 7.75 21.75 6.9665 21.75 6V4C21.75 3.0335 20.9665 2.25 20 2.25H18ZM17.75 4C17.75 3.86193 17.8619 3.75 18 3.75H20C20.1381 3.75 20.25 3.86193 20.25 4V6C20.25 6.13807 20.1381 6.25 20 6.25H18C17.8619 6.25 17.75 6.13807 17.75 6V4Z"
        fill="#303233" />
    <path fill-rule="evenodd" clip-rule="evenodd"
        d="M2.25 11C2.25 10.0335 3.0335 9.25 4 9.25H6C6.9665 9.25 7.75 10.0335 7.75 11V13C7.75 13.9665 6.9665 14.75 6 14.75H4C3.0335 14.75 2.25 13.9665 2.25 13V11ZM4 10.75C3.86193 10.75 3.75 10.8619 3.75 11V13C3.75 13.1381 3.86193 13.25 4 13.25H6C6.13807 13.25 6.25 13.1381 6.25 13V11C6.25 10.8619 6.13807 10.75 6 10.75H4Z"
        fill="#303233" />
    <path fill-rule="evenodd" clip-rule="evenodd"
        d="M11 9.25C10.0335 9.25 9.25 10.0335 9.25 11V13C9.25 13.9665 10.0335 14.75 11 14.75H13C13.9665 14.75 14.75 13.9665 14.75 13V11C14.75 10.0335 13.9665 9.25 13 9.25H11ZM10.75 11C10.75 10.8619 10.8619 10.75 11 10.75H13C13.1381 10.75 13.25 10.8619 13.25 11V13C13.25 13.1381 13.1381 13.25 13 13.25H11C10.8619 13.25 10.75 13.1381 10.75 13V11Z"
        fill="#303233" />
    <path fill-rule="evenodd" clip-rule="evenodd"
        d="M16.25 11C16.25 10.0335 17.0335 9.25 18 9.25H20C20.9665 9.25 21.75 10.0335 21.75 11V13C21.75 13.9665 20.9665 14.75 20 14.75H18C17.0335 14.75 16.25 13.9665 16.25 13V11ZM18 10.75C17.8619 10.75 17.75 10.8619 17.75 11V13C17.75 13.1381 17.8619 13.25 18 13.25H20C20.1381 13.25 20.25 13.1381 20.25 13V11C20.25 10.8619 20.1381 10.75 20 10.75H18Z"
        fill="#303233" />
    <path fill-rule="evenodd" clip-rule="evenodd"
        d="M4 16.25C3.0335 16.25 2.25 17.0335 2.25 18V20C2.25 20.9665 3.0335 21.75 4 21.75H6C6.9665 21.75 7.75 20.9665 7.75 20V18C7.75 17.0335 6.9665 16.25 6 16.25H4ZM3.75 18C3.75 17.8619 3.86193 17.75 4 17.75H6C6.13807 17.75 6.25 17.8619 6.25 18V20C6.25 20.1381 6.13807 20.25 6 20.25H4C3.86193 20.25 3.75 20.1381 3.75 20V18Z"
        fill="#303233" />
    <path fill-rule="evenodd" clip-rule="evenodd"
        d="M9.25 18C9.25 17.0335 10.0335 16.25 11 16.25H13C13.9665 16.25 14.75 17.0335 14.75 18V20C14.75 20.9665 13.9665 21.75 13 21.75H11C10.0335 21.75 9.25 20.9665 9.25 20V18ZM11 17.75C10.8619 17.75 10.75 17.8619 10.75 18V20C10.75 20.1381 10.8619 20.25 11 20.25H13C13.1381 20.25 13.25 20.1381 13.25 20V18C13.25 17.8619 13.1381 17.75 13 17.75H11Z"
        fill="#303233" />
    <path fill-rule="evenodd" clip-rule="evenodd"
        d="M18 16.25C17.0335 16.25 16.25 17.0335 16.25 18V20C16.25 20.9665 17.0335 21.75 18 21.75H20C20.9665 21.75 21.75 20.9665 21.75 20V18C21.75 17.0335 20.9665 16.25 20 16.25H18ZM17.75 18C17.75 17.8619 17.8619 17.75 18 17.75H20C20.1381 17.75 20.25 17.8619 20.25 18V20C20.25 20.1381 20.1381 20.25 20 20.25H18C17.8619 20.25 17.75 20.1381 17.75 20V18Z"
        fill="#303233" />
</svg>
