<svg width="16" height="16" viewBox="0 0 16 16" fill="none" xmlns="http://www.w3.org/2000/svg">
    <path fill-rule="evenodd" clip-rule="evenodd"
        d="M1.85355 1.14645C1.65829 0.951184 1.34171 0.951184 1.14645 1.14645C0.951185 1.34171 0.951185 1.65829 1.14645 1.85355L1.88476 2.59186C1.6328 2.80515 1.42408 3.06749 1.27248 3.36502C1.12159 3.66117 1.05868 3.98126 1.02891 4.34569C0.999991 4.69963 0.999995 5.1367 1 5.67859V8.3214C0.999995 8.86329 0.999991 9.30037 1.02891 9.65431C1.05868 10.0187 1.12159 10.3388 1.27248 10.635C1.51217 11.1054 1.89462 11.4878 2.36502 11.7275C2.66117 11.8784 2.98126 11.9413 3.34569 11.9711C3.69961 12 4.13667 12 4.67853 12H11.2929L14.1464 14.8536C14.3417 15.0488 14.6583 15.0488 14.8536 14.8536C15.0488 14.6583 15.0488 14.3417 14.8536 14.1464L11.8538 11.1467C11.8536 11.1465 11.854 11.1469 11.8538 11.1467L1.85355 1.14645ZM10.2929 11L2.59594 3.30305C2.41547 3.43937 2.2672 3.61547 2.16349 3.81901C2.0964 3.95069 2.05031 4.12454 2.02559 4.42712C2.00039 4.73554 2 5.1317 2 5.7V8.3C2 8.8683 2.00039 9.26446 2.02559 9.57288C2.05031 9.87546 2.0964 10.0493 2.16349 10.181C2.3073 10.4632 2.53677 10.6927 2.81901 10.8365C2.95069 10.9036 3.12454 10.9497 3.42712 10.9744C3.73554 10.9996 4.1317 11 4.7 11H10.2929Z"
        fill="#303233" />
    <path
        d="M12.5729 3.02559C12.2645 3.00039 11.8683 3 11.3 3H6.5C6.22386 3 6 2.77614 6 2.5C6 2.22386 6.22386 2 6.5 2L11.3214 2C11.8633 2 12.3004 1.99999 12.6543 2.02891C13.0187 2.05868 13.3388 2.12159 13.635 2.27248C14.1054 2.51217 14.4878 2.89462 14.7275 3.36502C14.8784 3.66117 14.9413 3.98126 14.9711 4.34569C15 4.69961 15 5.13667 15 5.67853V8.31781C15 8.82936 15 9.24675 14.9761 9.58773C14.9518 9.93567 14.9007 10.2442 14.7777 10.5283C14.7621 10.5644 14.7454 10.6 14.7275 10.635C14.6021 10.881 14.3011 10.9789 14.055 10.8535C13.809 10.7281 13.7111 10.427 13.8365 10.181C13.8447 10.1648 13.8526 10.1482 13.86 10.1311C13.9182 9.99667 13.9576 9.81689 13.9786 9.51789C13.9997 9.21589 14 8.83341 14 8.3V5.7C14 5.1317 13.9996 4.73554 13.9744 4.42712C13.9497 4.12454 13.9036 3.95069 13.8365 3.81901C13.6927 3.53677 13.4632 3.3073 13.181 3.16349C13.0493 3.0964 12.8755 3.05031 12.5729 3.02559Z"
        fill="#303233" />
    <path
        d="M8.0001 14C7.0077 14 6.06941 14.2483 5.23458 14.6916C4.99069 14.8211 4.68799 14.7284 4.55849 14.4845C4.42899 14.2406 4.52173 13.9379 4.76562 13.8084C5.73938 13.2914 6.83808 13 8.0001 13C9.16212 13 10.2608 13.2914 11.2346 13.8084C11.4785 13.9379 11.5712 14.2406 11.4417 14.4845C11.3122 14.7284 11.0095 14.8211 10.7656 14.6916C9.93079 14.2483 8.9925 14 8.0001 14Z"
        fill="#303233" />
</svg>
