<svg width="24" height="24" viewBox="0 0 24 24" fill="none" xmlns="http://www.w3.org/2000/svg">
    <path
        d="M11.5303 7.53033C11.8232 7.23744 11.8232 6.76256 11.5303 6.46967C11.2374 6.17678 10.7626 6.17678 10.4697 6.46967L5.46967 11.4697C5.17678 11.7626 5.17678 12.2374 5.46967 12.5303L10.4697 17.5303C10.7626 17.8232 11.2374 17.8232 11.5303 17.5303C11.8232 17.2374 11.8232 16.7626 11.5303 16.4697L7.06066 12L11.5303 7.53033Z"
        fill="#303233" />
    <path
        d="M18.5303 7.53033C18.8232 7.23744 18.8232 6.76256 18.5303 6.46967C18.2374 6.17678 17.7626 6.17678 17.4697 6.46967L12.4697 11.4697C12.1768 11.7626 12.1768 12.2374 12.4697 12.5303L17.4697 17.5303C17.7626 17.8232 18.2374 17.8232 18.5303 17.5303C18.8232 17.2374 18.8232 16.7626 18.5303 16.4697L14.0607 12L18.5303 7.53033Z"
        fill="#303233" />
</svg>
