<svg width="16" height="16" viewBox="0 0 16 16" fill="none" xmlns="http://www.w3.org/2000/svg">
    <path fill-rule="evenodd" clip-rule="evenodd"
        d="M5.5 4.5C4.39543 4.5 3.5 5.39543 3.5 6.5C3.5 7.60457 4.39543 8.5 5.5 8.5C6.60457 8.5 7.5 7.60457 7.5 6.5C7.5 5.39543 6.60457 4.5 5.5 4.5ZM4.5 6.5C4.5 5.94772 4.94772 5.5 5.5 5.5C6.05228 5.5 6.5 5.94772 6.5 6.5C6.5 7.05228 6.05228 7.5 5.5 7.5C4.94772 7.5 4.5 7.05228 4.5 6.5Z"
        fill="#303233" />
    <path fill-rule="evenodd" clip-rule="evenodd"
        d="M1 4.5C1 3.11929 2.11929 2 3.5 2H12.5C13.8807 2 15 3.11929 15 4.5V11.5C15 12.8807 13.8807 14 12.5 14H3.5C2.11929 14 1 12.8807 1 11.5V4.5ZM14 4.5V8.79287L12.325 7.11783C11.8693 6.66222 11.1307 6.66222 10.675 7.11783L7.25 10.5429L6.32496 9.61783C5.86935 9.16222 5.13065 9.16222 4.67504 9.61783L2.14645 12.1464C2.05274 11.9506 2 11.7316 2 11.5V4.5C2 3.67157 2.67157 3 3.5 3H12.5C13.3284 3 14 3.67157 14 4.5ZM3.5 13C3.26842 13 3.0491 12.9475 2.85328 12.8538L5.38215 10.3249C5.44724 10.2599 5.55276 10.2599 5.61785 10.3249L6.54289 11.25L4.79287 13H3.5ZM12.5 13H6.20709L11.3821 7.82494C11.4472 7.75985 11.5528 7.75985 11.6179 7.82494L14 10.2071V11.5C14 12.3284 13.3284 13 12.5 13Z"
        fill="#303233" />
</svg>
