<svg width="24" height="24" viewBox="0 0 24 24" fill="none" xmlns="http://www.w3.org/2000/svg">
    <path
        d="M10.2071 8.79289C9.81658 8.40237 9.18342 8.40237 8.79289 8.79289C8.40237 9.18342 8.40237 9.81658 8.79289 10.2071L10.5858 12L8.79289 13.7929C8.40237 14.1834 8.40237 14.8166 8.79289 15.2071C9.18342 15.5976 9.81658 15.5976 10.2071 15.2071L12 13.4142L13.7929 15.2071C14.1834 15.5976 14.8166 15.5976 15.2071 15.2071C15.5976 14.8166 15.5976 14.1834 15.2071 13.7929L13.4142 12L15.2071 10.2071C15.5976 9.81658 15.5976 9.18342 15.2071 8.79289C14.8166 8.40237 14.1834 8.40237 13.7929 8.79289L12 10.5858L10.2071 8.79289Z"
        fill="#303233" />
    <path fill-rule="evenodd" clip-rule="evenodd"
        d="M17.5126 2.99924C13.9584 1.66639 10.0416 1.66639 6.48736 2.99924L4.94663 3.57701C3.77572 4.0161 3 5.13546 3 6.386V12C3 14.9647 4.69041 17.413 6.44951 19.1698C8.22373 20.9418 10.2032 22.1474 11.0745 22.6369C11.6531 22.962 12.3469 22.962 12.9255 22.6369C13.7968 22.1474 15.7763 20.9418 17.5505 19.1698C19.3096 17.413 21 14.9647 21 12V6.386C21 5.13546 20.2243 4.0161 19.0534 3.57701L17.5126 2.99924ZM7.18961 4.87189C10.2911 3.70884 13.7089 3.70884 16.8104 4.87189L18.3511 5.44967C18.7414 5.59603 19 5.96915 19 6.386V12C19 14.1858 17.7429 16.1511 16.1372 17.7547C14.5816 19.3083 12.8231 20.3962 12 20.8627C11.1769 20.3962 9.41841 19.3083 7.86281 17.7547C6.25709 16.1511 5 14.1858 5 12V6.386C5 5.96915 5.25857 5.59603 5.64888 5.44967L7.18961 4.87189Z"
        fill="#303233" />
</svg>
