<svg width="24" height="24" viewBox="0 0 24 24" fill="none" xmlns="http://www.w3.org/2000/svg">
    <path fill-rule="evenodd" clip-rule="evenodd"
        d="M17.2321 2.25L6.7679 2.25C5.95506 2.24999 5.29944 2.24999 4.76853 2.29336C4.2219 2.33803 3.74175 2.43239 3.29754 2.65873C2.59193 3.01825 2.01825 3.59193 1.65873 4.29754C1.43239 4.74175 1.33803 5.2219 1.29336 5.76853C1.24999 6.29944 1.24999 6.95505 1.25 7.76789V16.2321C1.24999 17.0449 1.24999 17.7006 1.29336 18.2315C1.33803 18.7781 1.43239 19.2582 1.65873 19.7025C2.01825 20.4081 2.59193 20.9817 3.29754 21.3413C3.74175 21.5676 4.2219 21.662 4.76853 21.7066C5.29944 21.75 5.95505 21.75 6.76788 21.75H17.2321C18.045 21.75 18.7006 21.75 19.2315 21.7066C19.7781 21.662 20.2582 21.5676 20.7025 21.3413C21.4081 20.9817 21.9817 20.4081 22.3413 19.7025C22.5676 19.2582 22.662 18.7781 22.7066 18.2315C22.75 17.7006 22.75 17.045 22.75 16.2321V7.76788C22.75 6.95505 22.75 6.29944 22.7066 5.76853C22.662 5.2219 22.5676 4.74175 22.3413 4.29754C21.9817 3.59193 21.4081 3.01825 20.7025 2.65873C20.2582 2.43239 19.7781 2.33803 19.2315 2.29336C18.7006 2.24999 18.0449 2.24999 17.2321 2.25ZM3.97852 3.99524C4.17604 3.8946 4.43681 3.82547 4.89068 3.78838C5.35331 3.75058 5.94755 3.75 6.8 3.75H17.2C18.0525 3.75 18.6467 3.75058 19.1093 3.78838C19.5632 3.82547 19.824 3.8946 20.0215 3.99524C20.4448 4.21095 20.789 4.55516 21.0048 4.97852C21.1054 5.17604 21.1745 5.43681 21.2116 5.89068C21.2494 6.35331 21.25 6.94755 21.25 7.8V16.2C21.25 17.0525 21.2494 17.6467 21.2116 18.1093C21.1745 18.5632 21.1054 18.824 21.0048 19.0215C20.789 19.4448 20.4448 19.789 20.0215 20.0048C19.824 20.1054 19.5632 20.1745 19.1093 20.2116C18.6467 20.2494 18.0525 20.25 17.2 20.25H6.8C5.94755 20.25 5.35331 20.2494 4.89068 20.2116C4.43681 20.1745 4.17604 20.1054 3.97852 20.0048C3.55516 19.789 3.21095 19.4448 2.99524 19.0215C2.8946 18.824 2.82547 18.5632 2.78838 18.1093C2.75058 17.6467 2.75 17.0525 2.75 16.2V7.8C2.75 6.94755 2.75058 6.35331 2.78838 5.89068C2.82547 5.43681 2.8946 5.17604 2.99524 4.97852C3.21095 4.55516 3.55516 4.21095 3.97852 3.99524Z"
        fill="#303233" />
    <path fill-rule="evenodd" clip-rule="evenodd"
        d="M5.25 13C5.25 12.5858 5.58579 12.25 6 12.25H13C13.4142 12.25 13.75 12.5858 13.75 13C13.75 13.4142 13.4142 13.75 13 13.75H6C5.58579 13.75 5.25 13.4142 5.25 13Z"
        fill="#303233" />
    <path fill-rule="evenodd" clip-rule="evenodd"
        d="M10.25 17C10.25 16.5858 10.5858 16.25 11 16.25H18C18.4142 16.25 18.75 16.5858 18.75 17C18.75 17.4142 18.4142 17.75 18 17.75H11C10.5858 17.75 10.25 17.4142 10.25 17Z"
        fill="#303233" />
    <path fill-rule="evenodd" clip-rule="evenodd"
        d="M15.25 13C15.25 12.5858 15.5858 12.25 16 12.25H18C18.4142 12.25 18.75 12.5858 18.75 13C18.75 13.4142 18.4142 13.75 18 13.75H16C15.5858 13.75 15.25 13.4142 15.25 13Z"
        fill="#303233" />
    <path fill-rule="evenodd" clip-rule="evenodd"
        d="M5.25 17C5.25 16.5858 5.58579 16.25 6 16.25H8C8.41421 16.25 8.75 16.5858 8.75 17C8.75 17.4142 8.41421 17.75 8 17.75H6C5.58579 17.75 5.25 17.4142 5.25 17Z"
        fill="#303233" />
</svg>
