<svg width="24" height="24" viewBox="0 0 24 24" fill="none" xmlns="http://www.w3.org/2000/svg">
<path fill-rule="evenodd" clip-rule="evenodd" d="M17.8 11.6C14.3758 11.6 11.6 14.3758 11.6 17.8C11.6 21.2242 14.3758 24 17.8 24C21.2242 24 24 21.2242 24 17.8C24 14.3758 21.2242 11.6 17.8 11.6ZM17.0499 15.8C17.0499 15.3857 16.7142 15.05 16.2999 15.05C15.8857 15.05 15.5499 15.3857 15.5499 15.8V19.8C15.5499 20.2142 15.8857 20.55 16.2999 20.55C16.7142 20.55 17.0499 20.2142 17.0499 19.8V15.8ZM20.0499 15.8C20.0499 15.3857 19.7142 15.05 19.2999 15.05C18.8857 15.05 18.5499 15.3857 18.5499 15.8V19.8C18.5499 20.2142 18.8857 20.55 19.2999 20.55C19.7142 20.55 20.0499 20.2142 20.0499 19.8V15.8Z" fill="#303233"/>
</svg>
