<svg width="24" height="24" viewBox="0 0 24 24" fill="none" xmlns="http://www.w3.org/2000/svg">
    <path
        d="M13.625 3C13.625 2.79289 13.7929 2.625 14 2.625H14.001C14.2081 2.625 14.376 2.79289 14.376 3C14.376 3.20711 14.2081 3.375 14.001 3.375H14C13.7929 3.375 13.625 3.20711 13.625 3Z"
        fill="#303233" />
    <path
        d="M5.25 6C5.25 5.58579 5.58579 5.25 6 5.25C6.41421 5.25 6.751 5.58579 6.751 6C6.751 6.41421 6.41521 6.75 6.001 6.75C5.58679 6.75 5.25 6.41421 5.25 6Z"
        fill="#303233" />
    <path
        d="M10 8.875C9.37868 8.875 8.875 9.37868 8.875 10C8.875 10.6213 9.37868 11.125 10 11.125C10.6213 11.125 11.126 10.6213 11.126 10C11.126 9.37868 10.6213 8.875 10 8.875Z"
        fill="#303233" />
    <path
        d="M14 8.875C13.3787 8.875 12.875 9.37868 12.875 10C12.875 10.6213 13.3787 11.125 14 11.125H14.001C14.6223 11.125 15.126 10.6213 15.126 10C15.126 9.37868 14.6223 8.875 14.001 8.875H14Z"
        fill="#303233" />
    <path
        d="M8.875 14C8.875 13.3787 9.37868 12.875 10 12.875C10.6213 12.875 11.126 13.3787 11.126 14C11.126 14.6213 10.6223 15.125 10.001 15.125C9.37968 15.125 8.875 14.6213 8.875 14Z"
        fill="#303233" />
    <path
        d="M6 9.25C5.58579 9.25 5.25 9.58579 5.25 10C5.25 10.4142 5.58579 10.75 6 10.75C6.41421 10.75 6.751 10.4142 6.751 10C6.751 9.58579 6.41421 9.25 6 9.25Z"
        fill="#303233" />
    <path
        d="M5.25 14C5.25 13.5858 5.58579 13.25 6 13.25C6.41421 13.25 6.751 13.5858 6.751 14C6.751 14.4142 6.41521 14.75 6.001 14.75C5.58679 14.75 5.25 14.4142 5.25 14Z"
        fill="#303233" />
    <path
        d="M18 9.25C17.5858 9.25 17.25 9.58579 17.25 10C17.25 10.4142 17.5858 10.75 18 10.75H18.001C18.4152 10.75 18.751 10.4142 18.751 10C18.751 9.58579 18.4152 9.25 18.001 9.25H18Z"
        fill="#303233" />
    <path
        d="M18 5.25C17.5858 5.25 17.25 5.58579 17.25 6C17.25 6.41421 17.5858 6.75 18 6.75H18.001C18.4152 6.75 18.751 6.41421 18.751 6C18.751 5.58579 18.4152 5.25 18.001 5.25H18Z"
        fill="#303233" />
    <path
        d="M17.25 14C17.25 13.5858 17.5858 13.25 18 13.25H18.001C18.4152 13.25 18.751 13.5858 18.751 14C18.751 14.4142 18.4152 14.75 18.001 14.75H18C17.5858 14.75 17.25 14.4142 17.25 14Z"
        fill="#303233" />
    <path
        d="M6 17.25C5.58579 17.25 5.25 17.5858 5.25 18C5.25 18.4142 5.58579 18.75 6 18.75C6.41421 18.75 6.751 18.4142 6.751 18C6.751 17.5858 6.41421 17.25 6 17.25Z"
        fill="#303233" />
    <path
        d="M13 18C13 17.4477 13.4477 17 14 17H14.001C14.5533 17 15.001 17.4477 15.001 18C15.001 18.5523 14.5533 19 14.001 19H14C13.4477 19 13 18.5523 13 18Z"
        fill="#303233" />
    <path
        d="M10 17.25C9.58579 17.25 9.25 17.5858 9.25 18C9.25 18.4142 9.58579 18.75 10 18.75C10.4142 18.75 10.751 18.4142 10.751 18C10.751 17.5858 10.4142 17.25 10 17.25Z"
        fill="#303233" />
    <path
        d="M13.25 6C13.25 5.58579 13.5858 5.25 14 5.25H14.001C14.4152 5.25 14.751 5.58579 14.751 6C14.751 6.41421 14.4152 6.75 14.001 6.75H14C13.5858 6.75 13.25 6.41421 13.25 6Z"
        fill="#303233" />
    <path
        d="M10 5.25C9.58579 5.25 9.25 5.58579 9.25 6C9.25 6.41421 9.58579 6.75 10 6.75C10.4142 6.75 10.751 6.41421 10.751 6C10.751 5.58579 10.4142 5.25 10 5.25Z"
        fill="#303233" />
    <path
        d="M10 2.625C9.79289 2.625 9.625 2.79289 9.625 3C9.625 3.20711 9.79289 3.375 10 3.375C10.2071 3.375 10.376 3.20711 10.376 3C10.376 2.79289 10.2071 2.625 10 2.625Z"
        fill="#303233" />
    <path
        d="M2.625 10C2.625 9.79289 2.79289 9.625 3 9.625C3.20711 9.625 3.376 9.79289 3.376 10C3.376 10.2071 3.20811 10.375 3.001 10.375C2.79389 10.375 2.625 10.2071 2.625 10Z"
        fill="#303233" />
    <path
        d="M3 13.625C2.79289 13.625 2.625 13.7929 2.625 14C2.625 14.2071 2.79289 14.375 3 14.375C3.20711 14.375 3.376 14.2071 3.376 14C3.376 13.7929 3.20711 13.625 3 13.625Z"
        fill="#303233" />
    <path
        d="M20.625 10C20.625 9.79289 20.7929 9.625 21 9.625C21.2071 9.625 21.376 9.79289 21.376 10C21.376 10.2071 21.2081 10.375 21.001 10.375C20.7939 10.375 20.625 10.2071 20.625 10Z"
        fill="#303233" />
    <path
        d="M21 13.625C20.7929 13.625 20.625 13.7929 20.625 14C20.625 14.2071 20.7929 14.375 21 14.375C21.2071 14.375 21.376 14.2071 21.376 14C21.376 13.7929 21.2071 13.625 21 13.625Z"
        fill="#303233" />
    <path
        d="M13.625 21C13.625 20.7929 13.7929 20.625 14 20.625H14.001C14.2081 20.625 14.376 20.7929 14.376 21C14.376 21.2071 14.2081 21.375 14.001 21.375H14C13.7929 21.375 13.625 21.2071 13.625 21Z"
        fill="#303233" />
    <path
        d="M10 20.625C9.79289 20.625 9.625 20.7929 9.625 21C9.625 21.2071 9.79289 21.375 10 21.375C10.2071 21.375 10.376 21.2071 10.376 21C10.376 20.7929 10.2071 20.625 10 20.625Z"
        fill="#303233" />
    <path
        d="M17.25 18C17.25 17.5858 17.5858 17.25 18 17.25H18.001C18.4152 17.25 18.751 17.5858 18.751 18C18.751 18.4142 18.4152 18.75 18.001 18.75H18C17.5858 18.75 17.25 18.4142 17.25 18Z"
        fill="#303233" />
    <path
        d="M14 12.875C13.3787 12.875 12.875 13.3787 12.875 14C12.875 14.6213 13.3787 15.125 14 15.125H14.001C14.6223 15.125 15.126 14.6213 15.126 14C15.126 13.3787 14.6223 12.875 14.001 12.875H14Z"
        fill="#303233" />
</svg>
