<svg width="24" height="24" viewBox="0 0 24 24" fill="none" xmlns="http://www.w3.org/2000/svg">
    <path
        d="M4 2C2.34315 2 1 3.34315 1 5V19C1 20.6569 2.34315 22 4 22H20C21.6569 22 23 20.6569 23 19V18C23 17.4477 22.5523 17 22 17C21.4477 17 21 17.4477 21 18V19C21 19.5523 20.5523 20 20 20H4C3.44772 20 3 19.5523 3 19V7C3 6.44772 3.44772 6 4 6H20C20.5523 6 21 6.44772 21 7V8C21 8.55228 21.4477 9 22 9C22.5523 9 23 8.55228 23 8V7C23 5.34315 21.6569 4 20 4H13.8284C13.298 4 12.7893 3.78929 12.4142 3.41421L11.5858 2.58579C11.2107 2.21071 10.702 2 10.1716 2H4Z"
        fill="#303233" />
    <path
        d="M16.7071 10.7071C17.0976 10.3166 17.0976 9.68342 16.7071 9.29289C16.3166 8.90237 15.6834 8.90237 15.2929 9.29289L12.2929 12.2929C11.9024 12.6834 11.9024 13.3166 12.2929 13.7071L15.2929 16.7071C15.6834 17.0976 16.3166 17.0976 16.7071 16.7071C17.0976 16.3166 17.0976 15.6834 16.7071 15.2929L15.4142 14H23C23.5523 14 24 13.5523 24 13C24 12.4477 23.5523 12 23 12H15.4142L16.7071 10.7071Z"
        fill="#303233" />
</svg>
