<svg width="16" height="16" viewBox="0 0 16 16" fill="none" xmlns="http://www.w3.org/2000/svg">
    <path
        d="M4.94508 1H5C5.27614 1 5.5 1.22386 5.5 1.5C5.5 1.77614 5.27614 2 5 2H4.96667C4.35169 2 3.92053 2.00039 3.58432 2.02786C3.25394 2.05485 3.05952 2.10548 2.91002 2.18166C2.59641 2.34145 2.34145 2.59641 2.18166 2.91002C2.10548 3.05952 2.05485 3.25394 2.02786 3.58432C2.00039 3.92053 2 4.35169 2 4.96667V5C2 5.27614 1.77614 5.5 1.5 5.5C1.22386 5.5 1 5.27614 1 5V4.94508C0.999996 4.35667 0.999992 3.88461 1.03118 3.50289C1.06323 3.11067 1.13067 2.77 1.29065 2.45603C1.54631 1.95426 1.95426 1.54631 2.45603 1.29065C2.77 1.13067 3.11067 1.06323 3.50289 1.03118C3.88461 0.999992 4.35667 0.999996 4.94508 1Z"
        fill="#303233" />
    <path
        d="M12.4157 2.02786C12.0795 2.00039 11.6483 2 11.0333 2H11C10.7239 2 10.5 1.77614 10.5 1.5C10.5 1.22386 10.7239 1 11 1H11.0549C11.6433 0.999996 12.1154 0.999992 12.4971 1.03118C12.8893 1.06323 13.23 1.13067 13.544 1.29065C14.0457 1.54631 14.4537 1.95426 14.7094 2.45603C14.8693 2.77 14.9368 3.11067 14.9688 3.50289C15 3.88461 15 4.35666 15 4.94507V5C15 5.27614 14.7761 5.5 14.5 5.5C14.2239 5.5 14 5.27614 14 5V4.96667C14 4.35169 13.9996 3.92053 13.9721 3.58432C13.9451 3.25394 13.8945 3.05952 13.8183 2.91002C13.6586 2.59641 13.4036 2.34145 13.09 2.18166C12.9405 2.10548 12.7461 2.05485 12.4157 2.02786Z"
        fill="#303233" />
    <path
        d="M1.5 10.5C1.77614 10.5 2 10.7239 2 11V11.0333C2 11.6483 2.00039 12.0795 2.02786 12.4157C2.05485 12.7461 2.10548 12.9405 2.18166 13.09C2.34145 13.4036 2.59641 13.6586 2.91002 13.8183C3.05952 13.8945 3.25394 13.9451 3.58432 13.9721C3.92053 13.9996 4.35169 14 4.96667 14H5C5.27614 14 5.5 14.2239 5.5 14.5C5.5 14.7761 5.27614 15 5 15H4.94507C4.35666 15 3.88461 15 3.50289 14.9688C3.11067 14.9368 2.77 14.8693 2.45603 14.7094C1.95426 14.4537 1.54631 14.0457 1.29065 13.544C1.13067 13.23 1.06323 12.8893 1.03118 12.4971C0.999992 12.1154 0.999996 11.6433 1 11.0549V11C1 10.7239 1.22386 10.5 1.5 10.5Z"
        fill="#303233" />
    <path fill-rule="evenodd" clip-rule="evenodd"
        d="M11.5 9.5C10.3954 9.5 9.5 10.3954 9.5 11.5C9.5 12.6046 10.3954 13.5 11.5 13.5C12.6046 13.5 13.5 12.6046 13.5 11.5C13.5 10.3954 12.6046 9.5 11.5 9.5ZM10.5 11.5C10.5 10.9477 10.9477 10.5 11.5 10.5C12.0523 10.5 12.5 10.9477 12.5 11.5C12.5 12.0523 12.0523 12.5 11.5 12.5C10.9477 12.5 10.5 12.0523 10.5 11.5Z"
        fill="#303233" />
    <path fill-rule="evenodd" clip-rule="evenodd"
        d="M9.66054 7.5H13.3395C13.6169 7.49999 13.8547 7.49998 14.0504 7.51597C14.2564 7.5328 14.4591 7.56982 14.6537 7.66894C14.9453 7.81754 15.1825 8.05466 15.3311 8.34632C15.4302 8.54085 15.4672 8.74364 15.484 8.94965C15.5 9.14526 15.5 9.38311 15.5 9.66052V13.3394C15.5 13.6169 15.5 13.8547 15.484 14.0504C15.4672 14.2564 15.4302 14.4591 15.3311 14.6537C15.1825 14.9453 14.9453 15.1825 14.6537 15.3311C14.4591 15.4302 14.2564 15.4672 14.0504 15.484C13.8547 15.5 13.6169 15.5 13.3395 15.5H9.66055C9.38313 15.5 9.14526 15.5 8.94965 15.484C8.74364 15.4672 8.54085 15.4302 8.34632 15.3311C8.05466 15.1825 7.81754 14.9453 7.66894 14.6537C7.56982 14.4591 7.5328 14.2564 7.51597 14.0504C7.49998 13.8547 7.49999 13.6169 7.5 13.3395V9.66054C7.49999 9.38312 7.49998 9.14526 7.51597 8.94965C7.5328 8.74364 7.56982 8.54085 7.66894 8.34632C7.81754 8.05466 8.05466 7.81754 8.34632 7.66894C8.54085 7.56982 8.74364 7.5328 8.94965 7.51597C9.14526 7.49998 9.38312 7.49999 9.66054 7.5ZM9.03108 8.51265C8.88691 8.52442 8.83038 8.54463 8.80031 8.55995C8.69682 8.61268 8.61268 8.69682 8.55995 8.80031C8.54463 8.83038 8.52442 8.88691 8.51265 9.03108C8.50039 9.18108 8.5 9.37772 8.5 9.68V13.32C8.5 13.6223 8.50039 13.8189 8.51265 13.9689C8.52442 14.1131 8.54463 14.1696 8.55995 14.1997C8.61268 14.3032 8.69682 14.3873 8.80031 14.4401C8.83038 14.4554 8.88691 14.4756 9.03108 14.4874C9.18108 14.4996 9.37772 14.5 9.68 14.5H13.32C13.6223 14.5 13.8189 14.4996 13.9689 14.4874C14.1131 14.4756 14.1696 14.4554 14.1997 14.4401C14.3032 14.3873 14.3873 14.3032 14.4401 14.1997C14.4554 14.1696 14.4756 14.1131 14.4874 13.9689C14.4996 13.8189 14.5 13.6223 14.5 13.32V9.68C14.5 9.37772 14.4996 9.18108 14.4874 9.03108C14.4756 8.88691 14.4554 8.83038 14.4401 8.80031C14.3873 8.69682 14.3032 8.61268 14.1997 8.55995C14.1696 8.54463 14.1131 8.52442 13.9689 8.51265C13.8189 8.50039 13.6223 8.5 13.32 8.5H9.68C9.37772 8.5 9.18108 8.50039 9.03108 8.51265Z"
        fill="#303233" />
</svg>
