<svg width="24" height="24" viewBox="0 0 24 24" fill="none" xmlns="http://www.w3.org/2000/svg">
    <path fill-rule="evenodd" clip-rule="evenodd"
        d="M5.39887 2.16717C7.12274 1.59254 9.45654 1.25 12 1.25C14.5435 1.25 16.8773 1.59254 18.6011 2.16717C19.4591 2.45317 20.2076 2.81026 20.757 3.24321C21.2979 3.66949 21.75 4.25749 21.75 5V10.5C21.75 11.1018 21.4547 11.605 21.0545 12.002C21.454 12.3975 21.75 12.8992 21.75 13.5V18C21.75 18.7408 21.3026 19.329 20.7627 19.7569C20.2153 20.1907 19.469 20.548 18.6125 20.8339C16.8917 21.4084 14.5576 21.75 12 21.75C9.44243 21.75 7.10832 21.4084 5.3875 20.8339C4.53097 20.548 3.78475 20.1907 3.23733 19.7569C2.6974 19.329 2.25 18.7408 2.25 18V13.5C2.25 12.8992 2.54601 12.3975 2.94555 12.002C2.54527 11.605 2.25 11.1018 2.25 10.5V5C2.25 4.25749 2.70213 3.66949 3.24303 3.24321C3.79239 2.81026 4.54085 2.45317 5.39887 2.16717ZM4.23691 12.8701C4.2144 12.8867 4.19259 12.9034 4.17149 12.92C3.80155 13.2115 3.75 13.4141 3.75 13.5C3.75 13.5859 3.80155 13.7885 4.17149 14.08C4.53298 14.3649 5.10255 14.6531 5.87321 14.91C7.4067 15.4212 9.5729 15.75 12 15.75C14.4271 15.75 16.5933 15.4212 18.1268 14.91C18.8975 14.6531 19.467 14.3649 19.8285 14.08C20.1985 13.7885 20.25 13.5859 20.25 13.5C20.25 13.4141 20.1985 13.2115 19.8285 12.92C19.8074 12.9034 19.7856 12.8867 19.7631 12.8701C19.4117 13.0397 19.0249 13.1923 18.6125 13.33C16.8917 13.9045 14.5576 14.25 12 14.25C9.44243 14.25 7.10832 13.9045 5.3875 13.33C4.97511 13.1923 4.58829 13.0397 4.23691 12.8701ZM4.17149 4.42132C3.80155 4.71287 3.75 4.91409 3.75 5C3.75 5.08591 3.80155 5.28713 4.17149 5.57868C4.53298 5.86356 5.10255 6.15292 5.87321 6.40981C7.4067 6.92097 9.5729 7.25 12 7.25C14.4271 7.25 16.5933 6.92097 18.1268 6.40981C18.8975 6.15292 19.467 5.86356 19.8285 5.57868C20.1985 5.28713 20.25 5.08591 20.25 5C20.25 4.91409 20.1985 4.71287 19.8285 4.42132C19.467 4.13644 18.8975 3.84708 18.1268 3.59019C16.5933 3.07903 14.4271 2.75 12 2.75C9.5729 2.75 7.4067 3.07903 5.87321 3.59019C5.10255 3.84708 4.53298 4.13644 4.17149 4.42132Z"
        fill="#303233" />
</svg>
