<svg width="16" height="16" viewBox="0 0 16 16" fill="none" xmlns="http://www.w3.org/2000/svg">
    <path fill-rule="evenodd" clip-rule="evenodd"
        d="M8 0.25C5.65279 0.25 3.75 2.15279 3.75 4.5V6.36732C3.57911 6.40912 3.41309 6.46741 3.25153 6.54973C2.73408 6.81338 2.31339 7.23408 2.04973 7.75153C1.87789 8.08879 1.81078 8.44545 1.77974 8.82533C1.74998 9.18956 1.74999 9.63541 1.75 10.1696V10.8304C1.74999 11.3646 1.74998 11.8104 1.77974 12.1747C1.81078 12.5546 1.87789 12.9112 2.04973 13.2485C2.31339 13.7659 2.73408 14.1866 3.25153 14.4503C3.58879 14.6221 3.94545 14.6892 4.32533 14.7203C4.68956 14.75 5.13539 14.75 5.66953 14.75H10.3304C10.8646 14.75 11.3104 14.75 11.6747 14.7203C12.0546 14.6892 12.4112 14.6221 12.7485 14.4503C13.2659 14.1866 13.6866 13.7659 13.9503 13.2485C14.1221 12.9112 14.1892 12.5546 14.2203 12.1747C14.25 11.8105 14.25 11.3646 14.25 10.8305V10.1695C14.25 9.63542 14.25 9.18955 14.2203 8.82533C14.1892 8.44545 14.1221 8.08879 13.9503 7.75153C13.6866 7.23408 13.2659 6.81338 12.7485 6.54973C12.4112 6.37789 12.0546 6.31078 11.6747 6.27974C11.3104 6.24998 10.8646 6.24999 10.3304 6.25H5.66957C5.52312 6.25 5.38331 6.24999 5.25 6.25061V4.5C5.25 2.98122 6.48122 1.75 8 1.75C9.51878 1.75 10.75 2.98122 10.75 4.5C10.75 4.91421 11.0858 5.25 11.5 5.25C11.9142 5.25 12.25 4.91421 12.25 4.5C12.25 2.15279 10.3472 0.25 8 0.25ZM3.93251 7.88624C4.02307 7.8401 4.16036 7.79822 4.44748 7.77476C4.74336 7.75058 5.12757 7.75 5.7 7.75H10.3C10.8724 7.75 11.2566 7.75058 11.5525 7.77476C11.8396 7.79822 11.9769 7.8401 12.0675 7.88624C12.3027 8.00608 12.4939 8.19731 12.6138 8.43251C12.6599 8.52307 12.7018 8.66035 12.7252 8.94748C12.7494 9.24336 12.75 9.62757 12.75 10.2V10.8C12.75 11.3724 12.7494 11.7566 12.7252 12.0525C12.7018 12.3396 12.6599 12.4769 12.6138 12.5675C12.4939 12.8027 12.3027 12.9939 12.0675 13.1138C11.9769 13.1599 11.8396 13.2018 11.5525 13.2252C11.2566 13.2494 10.8724 13.25 10.3 13.25H5.7C5.12757 13.25 4.74336 13.2494 4.44748 13.2252C4.16036 13.2018 4.02307 13.1599 3.93251 13.1138C3.69731 12.9939 3.50608 12.8027 3.38624 12.5675C3.3401 12.4769 3.29822 12.3396 3.27476 12.0525C3.25058 11.7566 3.25 11.3724 3.25 10.8V10.2C3.25 9.62757 3.25058 9.24336 3.27476 8.94748C3.29822 8.66035 3.3401 8.52307 3.38624 8.43251C3.50608 8.19731 3.69731 8.00608 3.93251 7.88624Z"
        fill="#303233" />
</svg>
