<svg width="16" height="16" viewBox="0 0 16 16" fill="none" xmlns="http://www.w3.org/2000/svg">
    <path fill-rule="evenodd" clip-rule="evenodd"
        d="M6 1C6 0.723858 5.77614 0.5 5.5 0.5C5.22386 0.5 5 0.723858 5 1V2H2.94444C1.90899 2 1 2.78388 1 3.83333V13.1667C1 14.2161 1.90899 15 2.94444 15H13.0556C14.091 15 15 14.2161 15 13.1667V3.83333C15 2.78388 14.091 2 13.0556 2H11V1C11 0.723858 10.7761 0.5 10.5 0.5C10.2239 0.5 10 0.723858 10 1V2H6V1ZM10 4V3H6V4C6 4.27614 5.77614 4.5 5.5 4.5C5.22386 4.5 5 4.27614 5 4V3H2.94444C2.38441 3 2 3.41002 2 3.83333V6H14V3.83333C14 3.41002 13.6156 3 13.0556 3H11V4C11 4.27614 10.7761 4.5 10.5 4.5C10.2239 4.5 10 4.27614 10 4ZM14 7H2V13.1667C2 13.59 2.38441 14 2.94444 14H13.0556C13.6156 14 14 13.59 14 13.1667V7Z"
        fill="#303233" />
</svg>
