<svg width="16" height="16" viewBox="0 0 16 16" fill="none" xmlns="http://www.w3.org/2000/svg">
    <path fill-rule="evenodd" clip-rule="evenodd"
        d="M1.14645 1.14645C1.34171 0.951184 1.65829 0.951184 1.85355 1.14645L14.8536 14.1464C15.0488 14.3417 15.0488 14.6583 14.8536 14.8536C14.6583 15.0488 14.3417 15.0488 14.1464 14.8536L11.3034 12.0105C10.8601 12.6391 10.1284 13.05 9.3 13.05H3.45C2.0969 13.05 1 11.9531 1 10.6V5.4C1 4.4016 1.5972 3.54268 2.45387 3.16098L1.14645 1.85355C0.951184 1.65829 0.951184 1.34171 1.14645 1.14645ZM3.25579 3.96289C2.54681 4.0578 2 4.66504 2 5.4V10.6C2 11.4008 2.64919 12.05 3.45 12.05H9.3C9.8524 12.05 10.3335 11.7408 10.5783 11.2854L3.25579 3.96289Z"
        fill="#303233" />
    <path fill-rule="evenodd" clip-rule="evenodd"
        d="M9.6259 3.97489C9.32582 3.95037 8.94016 3.94998 8.38586 3.94998H6.63086C6.35472 3.94998 6.13086 3.72612 6.13086 3.44998C6.13086 3.17384 6.35472 2.94998 6.63086 2.94998L8.4072 2.94998C8.93514 2.94998 9.36173 2.94997 9.70733 2.97821C10.0634 3.0073 10.3773 3.06885 10.6681 3.21702C11.1291 3.45191 11.5039 3.82671 11.7388 4.28771C11.887 4.5785 11.9485 4.89242 11.9776 5.24851C12.0059 5.59412 12.0059 6.02071 12.0059 6.54865V6.81222L13.3465 5.51103C13.4627 5.39819 13.5728 5.29135 13.6682 5.21378C13.756 5.14246 13.9191 5.01909 14.1384 5.00235C14.3876 4.98331 14.6353 5.08065 14.8035 5.27177C14.9528 5.44144 14.9788 5.6494 14.9889 5.76038C15 5.88191 15 6.03391 15 6.19288V9.80708C15 9.96604 15 10.1181 14.9889 10.2396C14.9788 10.3506 14.9528 10.5586 14.8035 10.7282C14.6353 10.9193 14.3876 11.0167 14.1384 10.9976C13.9191 10.9809 13.756 10.8575 13.6682 10.7862C13.5727 10.7086 13.4627 10.6018 13.3465 10.489L11.1518 8.35878C11.0547 8.26462 11 8.13519 11 8C11 7.97427 11.002 7.94876 11.0059 7.92366V6.56998C11.0059 6.01568 11.0055 5.63003 10.981 5.32994C10.9569 5.0357 10.9122 4.86803 10.8478 4.7417C10.7088 4.46886 10.487 4.24704 10.2141 4.10802C10.0878 4.04365 9.92015 3.99893 9.6259 3.97489ZM12.2179 8L14 6.2703V9.7297L12.2179 8Z"
        fill="#303233" />
</svg>
