<svg width="24" height="24" viewBox="0 0 24 24" fill="none" xmlns="http://www.w3.org/2000/svg">
    <path fill-rule="evenodd" clip-rule="evenodd"
        d="M7.22728 3.22703C8.49315 1.96116 10.21 1.25 12.0002 1.25C13.7905 1.25 15.5073 1.96116 16.7732 3.22703C18.0391 4.4929 18.7502 6.20979 18.7502 8C18.7502 10.9571 19.4941 12.9344 20.2874 14.2092L20.2963 14.2235C20.656 14.8016 20.9367 15.2528 21.1251 15.5795C21.2194 15.7431 21.3015 15.8943 21.3607 16.0248C21.3903 16.09 21.4213 16.1653 21.4449 16.2446C21.465 16.3119 21.4993 16.4441 21.4864 16.6019C21.4762 16.7273 21.4519 16.9183 21.3438 17.1129C21.2357 17.3075 21.0863 17.429 20.9853 17.5039C20.7863 17.6516 20.5513 17.6868 20.4595 17.7004C20.3256 17.7202 20.169 17.7307 20.003 17.7371C19.6727 17.75 19.2126 17.75 18.6306 17.75H5.36991C4.78794 17.75 4.32782 17.75 3.99751 17.7371C3.83149 17.7307 3.67488 17.7202 3.54097 17.7004C3.44921 17.6868 3.21419 17.6516 3.0152 17.5039C2.91415 17.429 2.76476 17.3075 2.65668 17.1129C2.54859 16.9183 2.52433 16.7273 2.51407 16.6019C2.50116 16.4441 2.53553 16.3119 2.55556 16.2446C2.57917 16.1653 2.61016 16.09 2.63976 16.0248C2.69903 15.8943 2.78113 15.7431 2.87544 15.5795C3.06374 15.2528 3.34441 14.8017 3.70404 14.2238L3.71313 14.2092C4.50636 12.9344 5.25025 10.9571 5.25025 8C5.25025 6.20979 5.96141 4.4929 7.22728 3.22703ZM4.97955 1.93144C5.1831 2.29218 5.05566 2.74964 4.69491 2.95319C3.66882 3.53216 3.03246 4.63437 3.0441 5.81248C3.0482 6.22667 2.71575 6.56576 2.30155 6.56986C1.88736 6.57395 1.54827 6.2415 1.54418 5.82731C1.52713 4.10272 2.45573 2.49433 3.95779 1.6468C4.31854 1.44325 4.776 1.57069 4.97955 1.93144ZM19.017 1.93144C19.2205 1.57069 19.678 1.44326 20.0387 1.64681C21.5408 2.49434 22.4694 4.10272 22.4523 5.82731C22.4483 6.24151 22.1092 6.57396 21.695 6.56986C21.2808 6.56577 20.9483 6.22668 20.9524 5.81248C20.9641 4.63438 20.3277 3.53217 19.3016 2.9532C18.9409 2.74965 18.8134 2.29219 19.017 1.93144ZM8.79212 20.5037C9.06622 20.1931 9.54017 20.1636 9.85073 20.4377C10.4241 20.9438 11.1755 21.25 12.0002 21.25C12.825 21.25 13.5764 20.9438 14.1498 20.4377C14.4603 20.1636 14.9343 20.1931 15.2084 20.5037C15.4825 20.8143 15.4529 21.2882 15.1424 21.5623C14.3055 22.301 13.2044 22.75 12.0002 22.75C10.7961 22.75 9.69502 22.301 8.85812 21.5623C8.54757 21.2882 8.51802 20.8143 8.79212 20.5037Z"
        fill="#303233" />
</svg>
