<svg width="24" height="24" viewBox="0 0 24 24" fill="none" xmlns="http://www.w3.org/2000/svg">
    <path fill-rule="evenodd" clip-rule="evenodd"
        d="M21.8453 5.11394C21.4983 4.69281 20.9747 4.45766 20.4293 4.47807C20.0084 4.49383 19.6555 4.71464 19.3808 4.91787C19.0975 5.12746 18.7598 5.42765 18.3604 5.78271L13.3208 10.2623C13.1062 10.453 12.9112 10.6264 12.7618 10.7838C12.6024 10.9519 12.442 11.1549 12.3488 11.4203C12.2171 11.7955 12.2171 12.2045 12.3488 12.5797C12.442 12.8451 12.6024 13.0481 12.7618 13.2162C12.9112 13.3736 13.1062 13.547 13.3208 13.7377L18.3604 18.2173C18.7598 18.5724 19.0975 18.8725 19.3808 19.0821C19.6555 19.2854 20.0084 19.5062 20.4293 19.5219C20.9747 19.5423 21.4983 19.3072 21.8453 18.8861C22.1132 18.561 22.1826 18.1505 22.2133 17.8102C22.2448 17.4592 22.2448 17.0073 22.2448 16.4729V7.52708C22.2448 6.99267 22.2448 6.54083 22.2133 6.18984C22.1826 5.84947 22.1132 5.439 21.8453 5.11394ZM20.6741 6.05262C20.6809 6.07336 20.7034 6.14765 20.7193 6.32425C20.7441 6.59969 20.7448 6.98301 20.7448 7.56295V16.4371C20.7448 17.017 20.7441 17.4003 20.7193 17.6758C20.7034 17.8524 20.6809 17.9266 20.6741 17.9474C20.6297 17.9931 20.5695 18.0201 20.5059 18.0229C20.4859 18.0142 20.4154 17.9817 20.2729 17.8762C20.0505 17.7118 19.7635 17.4576 19.3301 17.0724L14.3384 12.6353C14.096 12.4198 13.95 12.2892 13.8501 12.1839C13.7891 12.1196 13.768 12.0874 13.7626 12.0783C13.7458 12.0275 13.7458 11.9725 13.7626 11.9217C13.768 11.9126 13.7891 11.8804 13.8501 11.8161C13.95 11.7108 14.096 11.5802 14.3384 11.3647L19.3301 6.92766C19.7635 6.54236 20.0505 6.28825 20.2729 6.12378C20.4154 6.01832 20.4859 5.98577 20.5059 5.97709C20.5695 5.97992 20.6297 6.00695 20.6741 6.05262ZM10.8453 5.11394C10.4983 4.69281 9.97467 4.45766 9.42935 4.47807C9.00845 4.49383 8.65553 4.71464 8.38079 4.91787C8.09747 5.12746 7.75977 5.42765 7.36036 5.78271L2.32083 10.2623C2.10624 10.453 1.91117 10.6264 1.76185 10.7838C1.60237 10.9519 1.44198 11.1549 1.34882 11.4203C1.21706 11.7955 1.21706 12.2045 1.34882 12.5797C1.44198 12.8451 1.60237 13.0481 1.76185 13.2162C1.91118 13.3736 2.10625 13.547 2.32084 13.7377L7.36036 18.2173C7.75977 18.5724 8.09747 18.8725 8.38079 19.0821C8.65553 19.2854 9.00845 19.5062 9.42935 19.5219C9.97467 19.5423 10.4983 19.3072 10.8453 18.8861C11.1132 18.561 11.1826 18.1505 11.2133 17.8102C11.2448 17.4592 11.2448 17.0073 11.2448 16.4729V7.52709C11.2448 6.99268 11.2448 6.54084 11.2133 6.18984C11.1826 5.84947 11.1132 5.439 10.8453 5.11394ZM9.67409 6.05262C9.68091 6.07336 9.7034 6.14765 9.71929 6.32425C9.74407 6.59969 9.7448 6.98301 9.7448 7.56295V16.4371C9.7448 17.017 9.74407 17.4003 9.71929 17.6758C9.7034 17.8524 9.68091 17.9266 9.67409 17.9474C9.62972 17.9931 9.56953 18.0201 9.50591 18.0229C9.48587 18.0142 9.41541 17.9817 9.27286 17.8762C9.05053 17.7118 8.76355 17.4576 8.33009 17.0724L3.33841 12.6353C3.09599 12.4198 2.94998 12.2892 2.8501 12.1839C2.78913 12.1196 2.76795 12.0874 2.76259 12.0783C2.7458 12.0275 2.7458 11.9726 2.76258 11.9217C2.76794 11.9126 2.78911 11.8804 2.8501 11.8161C2.94998 11.7108 3.09599 11.5802 3.33841 11.3647L8.33009 6.92766C8.76355 6.54236 9.05053 6.28825 9.27286 6.12378C9.41541 6.01832 9.48587 5.98577 9.50591 5.97709C9.56953 5.97992 9.62972 6.00695 9.67409 6.05262Z"
        fill="#303233" />
</svg>
