<svg width="16" height="16" viewBox="0 0 16 16" fill="none" xmlns="http://www.w3.org/2000/svg">
    <path fill-rule="evenodd" clip-rule="evenodd"
        d="M4.19823 1.5H11.8018C12.3528 1.5 12.7972 1.49999 13.1569 1.52986C13.5273 1.56062 13.8524 1.62563 14.1524 1.78147C14.609 2.01866 14.9813 2.39096 15.2185 2.84756C15.3744 3.14757 15.4394 3.47267 15.4701 3.84308C15.5 4.20277 15.5 4.64719 15.5 5.1982V10.8018C15.5 11.3528 15.5 11.7972 15.4701 12.1569C15.4394 12.5273 15.3744 12.8524 15.2185 13.1524C14.9813 13.609 14.609 13.9813 14.1524 14.2185C13.8524 14.3744 13.5273 14.4394 13.1569 14.4701C12.7972 14.5 12.3528 14.5 11.8018 14.5H4.19825C3.64724 14.5 3.20277 14.5 2.84308 14.4701C2.47267 14.4394 2.14757 14.3744 1.84756 14.2185C1.39096 13.9813 1.01866 13.609 0.781467 13.1524C0.625628 12.8524 0.560623 12.5273 0.529862 12.1569C0.499991 11.7972 0.499995 11.3528 0.5 10.8018V5.19823C0.499995 4.64722 0.499991 4.20278 0.529862 3.84308C0.560623 3.47267 0.625628 3.14757 0.781467 2.84756C1.01866 2.39096 1.39096 2.01866 1.84756 1.78147C2.14757 1.62563 2.47267 1.56062 2.84308 1.52986C3.20278 1.49999 3.64722 1.5 4.19823 1.5ZM2.92584 2.52643C2.61839 2.55196 2.44201 2.59955 2.30854 2.66888C2.03457 2.81119 1.81119 3.03457 1.66888 3.30854C1.59955 3.44201 1.55196 3.61839 1.52643 3.92584C1.5004 4.23928 1.5 4.64212 1.5 5.22V5.5H5V2.5H4.22C3.64212 2.5 3.23928 2.5004 2.92584 2.52643ZM1.5 6.5H5V9.5H1.5V6.5ZM6 6.5V9.5H10V6.5H6ZM11 6.5V9.5H14.5V6.5H11ZM10 10.5H6V13.5H10V10.5ZM11 13.5V10.5H14.5V10.78C14.5 11.3579 14.4996 11.7607 14.4736 12.0742C14.448 12.3816 14.4005 12.558 14.3311 12.6915C14.1888 12.9654 13.9654 13.1888 13.6915 13.3311C13.558 13.4005 13.3816 13.448 13.0742 13.4736C12.7607 13.4996 12.3579 13.5 11.78 13.5H11ZM11 5.5V2.5H11.78C12.3579 2.5 12.7607 2.5004 13.0742 2.52643C13.3816 2.55196 13.558 2.59955 13.6915 2.66888C13.9654 2.81119 14.1888 3.03457 14.3311 3.30854C14.4005 3.44201 14.448 3.61839 14.4736 3.92584C14.4996 4.23928 14.5 4.64212 14.5 5.22V5.5H11ZM10 2.5V5.5H6V2.5H10ZM1.5 10.5H5V13.5H4.22C3.64212 13.5 3.23928 13.4996 2.92584 13.4736C2.61839 13.448 2.44201 13.4005 2.30854 13.3311C2.03457 13.1888 1.81119 12.9654 1.66888 12.6915C1.59955 12.558 1.55196 12.3816 1.52643 12.0742C1.5004 11.7607 1.5 11.3579 1.5 10.78V10.5Z"
        fill="#303233" />
</svg>
