<svg width="16" height="16" viewBox="0 0 16 16" fill="none" xmlns="http://www.w3.org/2000/svg">
    <path
        d="M9.0553 0.503071C8.78085 0.472581 8.53364 0.670353 8.50315 0.944807C8.47266 1.21926 8.67043 1.46647 8.94489 1.49696C10.3637 1.65457 11.6867 2.28993 12.6968 3.2987C13.7068 4.30747 14.3438 5.62971 14.5032 7.0483C14.5341 7.32271 14.7815 7.52017 15.0559 7.48934C15.3303 7.4585 15.5278 7.21105 15.497 6.93663C15.3122 5.2926 14.574 3.76024 13.4034 2.59115C12.2329 1.42206 10.6996 0.685735 9.0553 0.503071Z"
        fill="#303233" />
    <path
        d="M9.09584 3.52813C8.82481 3.47526 8.56223 3.6521 8.50935 3.92313C8.45647 4.19417 8.63332 4.45675 8.90435 4.50963C9.54383 4.63439 10.1315 4.94715 10.5922 5.40786C11.053 5.86857 11.3657 6.45628 11.4905 7.09576C11.5434 7.36679 11.8059 7.54364 12.077 7.49076C12.348 7.43788 12.5249 7.1753 12.472 6.90427C12.3091 6.06943 11.9008 5.3022 11.2994 4.70075C10.6979 4.09931 9.93067 3.69101 9.09584 3.52813Z"
        fill="#303233" />
    <path
        d="M7.29725 8.70275C6.45768 7.86319 5.79474 6.91388 5.30843 5.901C5.2666 5.81388 5.24569 5.77032 5.22962 5.71519C5.17252 5.51931 5.21353 5.27876 5.33232 5.11287C5.36575 5.06619 5.40569 5.02625 5.48556 4.94638C5.72983 4.7021 5.85198 4.57996 5.93183 4.45714C6.23297 3.99397 6.23297 3.39685 5.93183 2.93368C5.85198 2.81086 5.72984 2.68872 5.48556 2.44445L5.3494 2.30829C4.97807 1.93696 4.79241 1.75129 4.59301 1.65044C4.19644 1.44985 3.72811 1.44985 3.33155 1.65044C3.13214 1.75129 2.94648 1.93696 2.57515 2.30829L2.46501 2.41843C2.09495 2.78849 1.90992 2.97352 1.76861 3.22508C1.6118 3.50422 1.49905 3.93777 1.50001 4.25794C1.50086 4.54647 1.55683 4.74367 1.66877 5.13805C2.27035 7.25754 3.4054 9.25754 5.07393 10.9261C6.74246 12.5946 8.74245 13.7296 10.8619 14.3312C11.2563 14.4432 11.4535 14.4991 11.7421 14.5C12.0622 14.5009 12.4958 14.3882 12.7749 14.2314C13.0265 14.0901 13.2115 13.9051 13.5816 13.535L13.6917 13.4248C14.063 13.0535 14.2487 12.8679 14.3496 12.6685C14.5501 12.2719 14.5501 11.8036 14.3496 11.407C14.2487 11.2076 14.063 11.0219 13.6917 10.6506L13.5556 10.5144C13.3113 10.2702 13.1891 10.148 13.0663 10.0682C12.6031 9.76703 12.006 9.76703 11.5429 10.0682C11.42 10.148 11.2979 10.2702 11.0536 10.5144C10.9738 10.5943 10.9338 10.6342 10.8871 10.6677C10.7212 10.7865 10.4807 10.8275 10.2848 10.7704C10.2297 10.7543 10.1861 10.7334 10.099 10.6916C9.08613 10.2053 8.13681 9.54232 7.29725 8.70275Z"
        fill="#303233" />
</svg>
