<svg width="24" height="24" viewBox="0 0 24 24" fill="none" xmlns="http://www.w3.org/2000/svg">
    <path fill-rule="evenodd" clip-rule="evenodd"
        d="M22.75 12C22.75 17.9371 17.9371 22.75 12 22.75C6.06294 22.75 1.25 17.9371 1.25 12C1.25 6.06294 6.06294 1.25 12 1.25C17.9371 1.25 22.75 6.06294 22.75 12ZM11.4697 8.53033C11.1768 8.23744 11.1768 7.76256 11.4697 7.46967C11.7626 7.17678 12.2374 7.17678 12.5303 7.46967L16.5303 11.4697C16.6022 11.5416 16.6565 11.6245 16.6931 11.7129C16.7298 11.8013 16.75 11.8983 16.75 12C16.75 12.1919 16.6768 12.3839 16.5303 12.5303L12.5303 16.5303C12.2374 16.8232 11.7626 16.8232 11.4697 16.5303C11.1768 16.2374 11.1768 15.7626 11.4697 15.4697L14.1893 12.75H8C7.58579 12.75 7.25 12.4142 7.25 12C7.25 11.5858 7.58579 11.25 8 11.25H14.1893L11.4697 8.53033Z"
        fill="#303233" />
</svg>
