<svg width="24" height="24" viewBox="0 0 24 24" fill="none" xmlns="http://www.w3.org/2000/svg">
    <path
        d="M11.5415 11.2497L11.5803 11.2507L11.6179 11.2537L11.6541 11.2587L11.6901 11.2647L11.7247 11.2737L11.7591 11.2837L11.7752 11.2897L11.7828 11.2917L11.7922 11.2957L11.8054 11.3007L11.8241 11.3087L11.8334 11.3137L11.8464 11.3197L11.8769 11.3357L11.906 11.3537L11.9141 11.3597C11.9593 11.3897 12.0005 11.4267 12.0366 11.4697C12.0728 11.5127 12.1024 11.5597 12.1245 11.6097L12.129 11.6187L12.142 11.6507L12.1473 11.6677L12.1502 11.6747L12.1527 11.6837L12.1565 11.6977L12.1599 11.7077L12.1648 11.7277L12.1676 11.7417L12.174 11.7767L12.1783 11.8127L12.1816 11.8487L12.1818 11.8857L12.1809 11.9227L12.1779 11.9607L12.1727 11.9997L11.3808 16.9997C11.3152 17.4137 10.926 17.7497 10.512 17.7497C10.098 17.7497 9.81521 17.4137 9.88078 16.9997L10.3859 13.8107L6.07685 17.5297C5.73845 17.8227 5.26245 17.8227 5.01685 17.5297C4.7701 17.2377 4.84549 16.7617 5.18474 16.4697L9.49292 12.7497H6.30393C5.88993 12.7497 5.60715 12.4137 5.67272 11.9997C5.73829 11.5857 6.1275 11.2497 6.5415 11.2497H11.5415Z"
        fill="#303233" />
    <path fill-rule="evenodd" clip-rule="evenodd"
        d="M3 2.25C1.48122 2.25 0.25 3.48122 0.25 5V19C0.25 20.5188 1.48122 21.75 3 21.75H19.1842C20.5352 21.75 21.6862 20.7686 21.8996 19.4345L23.4996 9.43447C23.767 7.76362 22.4763 6.25 20.7842 6.25H19.6465C19.32 5.09575 18.2588 4.25 17 4.25H12.8284C12.2317 4.25 11.6594 4.01295 11.2374 3.59099L10.409 2.76256C10.0808 2.43437 9.6357 2.25 9.17157 2.25H3ZM3.21611 20.25H19.1843C19.7984 20.25 20.3216 19.8039 20.4186 19.1975L22.0186 9.19749C22.1401 8.43801 21.5535 7.75 20.7843 7.75H4.81611C4.20199 7.75 3.67869 8.1961 3.58166 8.80251L1.98166 18.8025C1.86015 19.562 2.44697 20.25 3.21611 20.25Z"
        fill="#303233" />
</svg>
