<svg width="24" height="24" viewBox="0 0 24 24" fill="none" xmlns="http://www.w3.org/2000/svg">
    <path fill-rule="evenodd" clip-rule="evenodd"
        d="M11.4697 2.46967C11.7626 2.17678 12.2374 2.17678 12.5303 2.46967L17.5303 7.46967C17.8232 7.76256 17.8232 8.23744 17.5303 8.53033C17.2374 8.82322 16.7626 8.82322 16.4697 8.53033L12.75 4.81066V15C12.75 15.4142 12.4142 15.75 12 15.75C11.5858 15.75 11.25 15.4142 11.25 15V4.81066L7.53033 8.53033C7.23744 8.82322 6.76256 8.82322 6.46967 8.53033C6.17678 8.23744 6.17678 7.76256 6.46967 7.46967L11.4697 2.46967ZM3 14.25C3.41421 14.25 3.75 14.5858 3.75 15V16.2C3.75 17.0525 3.75058 17.6467 3.78838 18.1093C3.82547 18.5632 3.8946 18.824 3.99524 19.0215C4.21095 19.4448 4.55516 19.789 4.97852 20.0048C5.17604 20.1054 5.4368 20.1745 5.89068 20.2116C6.35331 20.2494 6.94755 20.25 7.8 20.25H16.2C17.0525 20.25 17.6467 20.2494 18.1093 20.2116C18.5632 20.1745 18.824 20.1054 19.0215 20.0048C19.4448 19.789 19.789 19.4448 20.0048 19.0215C20.1054 18.824 20.1745 18.5632 20.2116 18.1093C20.2494 17.6467 20.25 17.0525 20.25 16.2V15C20.25 14.5858 20.5858 14.25 21 14.25C21.4142 14.25 21.75 14.5858 21.75 15V16.2321C21.75 17.045 21.75 17.7006 21.7066 18.2315C21.662 18.7781 21.5676 19.2582 21.3413 19.7025C20.9817 20.4081 20.4081 20.9817 19.7025 21.3413C19.2582 21.5676 18.7781 21.662 18.2315 21.7066C17.7006 21.75 17.045 21.75 16.2321 21.75H7.76788C6.95505 21.75 6.29944 21.75 5.76853 21.7066C5.2219 21.662 4.74175 21.5676 4.29754 21.3413C3.59193 20.9817 3.01825 20.4081 2.65873 19.7025C2.43239 19.2582 2.33803 18.7781 2.29336 18.2315C2.24999 17.7006 2.24999 17.0449 2.25 16.2321L2.25 15C2.25 14.5858 2.58579 14.25 3 14.25Z"
        fill="#303233" />
</svg>
