<svg width="24" height="24" viewBox="0 0 24 24" fill="none" xmlns="http://www.w3.org/2000/svg">
    <path fill-rule="evenodd" clip-rule="evenodd"
        d="M2.29338 2.29289C2.68391 1.90237 3.31707 1.90237 3.7076 2.29289L21.7076 20.2929C22.0981 20.6834 22.0981 21.3166 21.7076 21.7071C21.3171 22.0976 20.6839 22.0976 20.2934 21.7071L14.0003 15.414L8.20713 21.2071C8.08407 21.3302 7.93104 21.419 7.76314 21.4648L2.26314 22.9648C1.91693 23.0592 1.54667 22.9609 1.29292 22.7071C1.03917 22.4534 0.940838 22.0831 1.03526 21.7369L2.53526 16.2369C2.58105 16.069 2.66986 15.916 2.79292 15.7929L8.58605 9.99977L2.29338 3.70711C1.90286 3.31658 1.90286 2.68342 2.29338 2.29289Z"
        fill="#303233" />
    <path fill-rule="evenodd" clip-rule="evenodd"
        d="M16.2922 2.29289C17.7873 0.797796 20.2113 0.797798 21.7064 2.29289C23.2015 3.78799 23.2015 6.21201 21.7064 7.70711L17.5001 11.9134C17.1095 12.3039 16.4764 12.3039 16.0859 11.9134L12.0859 7.91338C11.8983 7.72584 11.793 7.47149 11.793 7.20627C11.793 6.94105 11.8983 6.6867 12.0859 6.49916L16.2922 2.29289Z"
        fill="#303233" />
</svg>
