<svg width="24" height="24" viewBox="0 0 24 24" fill="none" xmlns="http://www.w3.org/2000/svg">
    <path
        d="M17.2518 1.04419C16.7106 0.999978 16.0463 0.999988 15.2413 1H8.7587C7.95374 0.999988 7.28937 0.999978 6.74817 1.04419C6.18608 1.09012 5.66937 1.18868 5.18404 1.43598C4.43139 1.81947 3.81947 2.43139 3.43597 3.18404C3.18868 3.66937 3.09012 4.18608 3.04419 4.74818C2.99998 5.28937 2.99999 5.95372 3 6.75869V11H1C0.447715 11 0 11.4477 0 12C0 12.5523 0.447715 13 1 13H23C23.5523 13 24 12.5523 24 12C24 11.4477 23.5523 11 23 11H21V6.75868C21 5.95372 21 5.28937 20.9558 4.74818C20.9099 4.18608 20.8113 3.66937 20.564 3.18404C20.1805 2.43139 19.5686 1.81947 18.816 1.43598C18.3306 1.18868 17.8139 1.09012 17.2518 1.04419Z"
        fill="#303233" />
    <path
        d="M20 19C20.5523 19 21 19.4477 21 20C21 21.6569 19.6568 23 18 23C17.4477 23 17 22.5523 17 22C17 21.4477 17.4477 21 18 21C18.5523 21 19 20.5523 19 20C19 19.4477 19.4477 19 20 19Z"
        fill="#303233" />
    <path
        d="M4 19C4.55228 19 5 19.4477 5 20C5 20.5523 5.44771 21 6 21C6.55228 21 7 21.4477 7 22C7 22.5523 6.55228 23 6 23C4.34315 23 3 21.6569 3 20C3 19.4477 3.44772 19 4 19Z"
        fill="#303233" />
    <path
        d="M5 15C5 14.4477 4.55228 14 4 14C3.44772 14 3 14.4477 3 15V16C3 16.5523 3.44772 17 4 17C4.55228 17 5 16.5523 5 16V15Z"
        fill="#303233" />
    <path
        d="M20 14C20.5523 14 21 14.4477 21 15V16C21 16.5523 20.5523 17 20 17C19.4477 17 19 16.5523 19 16V15C19 14.4477 19.4477 14 20 14Z"
        fill="#303233" />
    <path
        d="M10 21C9.44771 21 9 21.4477 9 22C9 22.5523 9.44771 23 10 23H14C14.5523 23 15 22.5523 15 22C15 21.4477 14.5523 21 14 21H10Z"
        fill="#303233" />
</svg>
