<svg width="16" height="16" viewBox="0 0 16 16" fill="none" xmlns="http://www.w3.org/2000/svg">
    <g clip-path="url(#clip0_53_4240)">
        <path fill-rule="evenodd" clip-rule="evenodd"
            d="M2.34971 10.5934C1.8607 11.0044 1.47769 11.7244 1.22268 12.4574C0.885677 13.4305 0.756674 14.4015 0.756674 14.4015C0.725673 14.6325 0.803675 14.8655 0.969679 15.0305C1.13468 15.1965 1.36769 15.2745 1.59869 15.2435C1.59869 15.2435 2.56972 15.1145 3.54274 14.7775C4.27575 14.5235 4.99577 14.1395 5.40678 13.6505C6.1278 12.7965 6.10279 11.4864 5.29978 10.6934C5.29678 10.6904 5.29378 10.6874 5.29078 10.6844C4.89777 10.3104 4.38076 10.0934 3.83874 10.0764C3.29573 10.0584 2.76572 10.2434 2.34971 10.5934ZM6.86081 4.64427C6.5108 4.56227 6.02379 4.47027 5.51678 4.44027C4.76176 4.39627 3.97175 4.50627 3.41673 4.87628C3.41673 4.87628 3.41673 4.87728 3.41573 4.87728C2.92172 5.20828 2.52671 5.8033 2.25871 6.41931C1.9087 7.22233 1.7617 8.03334 1.7617 8.03334C1.7217 8.25235 1.7817 8.47736 1.9237 8.64736C2.0667 8.81837 2.27771 8.91737 2.49971 8.91737H5.52278L7.08282 10.4784V13.5005C7.08282 13.7225 7.18182 13.9335 7.35282 14.0765C7.52283 14.2185 7.74883 14.2785 7.96684 14.2385C7.96684 14.2385 8.77785 14.0915 9.58187 13.7415C10.1969 13.4735 10.7919 13.0795 11.1229 12.5844C11.1239 12.5844 11.1239 12.5834 11.1239 12.5834C11.4939 12.0284 11.6039 11.2394 11.5599 10.4834C11.5299 9.97939 11.4389 9.49638 11.3579 9.14638C14.736 6.65032 15.25 3.38824 15.25 1.5002C15.25 1.08819 14.917 0.753184 14.505 0.750184C12.9119 0.740184 11.3429 1.13819 9.94688 1.90621C8.72485 2.57822 7.67083 3.51424 6.86081 4.64427ZM3.31573 11.7414C3.31573 11.7414 3.31573 11.7414 3.31673 11.7404C3.44873 11.6294 3.61674 11.5704 3.78974 11.5764C3.78974 11.5764 3.79074 11.5764 3.79174 11.5764C3.96175 11.5814 4.12375 11.6484 4.24775 11.7634C4.49676 12.0134 4.48376 12.4184 4.26075 12.6834C4.25975 12.6834 4.25975 12.6844 4.25875 12.6854C3.99775 12.9955 3.51674 13.1985 3.05073 13.3605C2.85072 13.4295 2.64972 13.4885 2.46171 13.5385C2.51171 13.3505 2.57072 13.1495 2.64072 12.9495C2.80172 12.4834 3.00472 12.0024 3.31573 11.7414ZM9.99788 9.99639C9.53887 10.2464 9.06586 10.4734 8.58285 10.6754V12.5215C8.71185 12.4765 8.84686 12.4254 8.98186 12.3664C9.32887 12.2154 9.68988 12.0294 9.87588 11.7504C10.0819 11.4414 10.0869 10.9924 10.0619 10.5714C10.0509 10.3724 10.0269 10.1774 9.99788 9.99639ZM10.0899 8.20535C12.8139 6.37531 13.557 3.97725 13.714 2.28421C12.6489 2.38422 11.6119 2.70223 10.6699 3.22024C9.49887 3.86425 8.51085 4.79827 7.80283 5.9313C7.80083 5.9333 7.79983 5.9363 7.79783 5.9383C7.38082 6.59032 7.01782 7.27633 6.71481 7.98835L8.01384 9.28738C8.73485 8.98537 9.42887 8.62336 10.0899 8.20535ZM6.01479 6.0043C5.83179 5.9743 5.63278 5.9503 5.42878 5.9383C5.00877 5.9133 4.55876 5.9183 4.24975 6.12431C3.97075 6.31031 3.78474 6.67131 3.63374 7.01832C3.57474 7.15333 3.52374 7.28833 3.47874 7.41733H5.32778C5.53278 6.93432 5.76179 6.46331 6.01479 6.0043Z"
            fill="#303233" />
    </g>
    <defs>
        <clipPath id="clip0_53_4240">
            <rect width="16" height="16" fill="white" />
        </clipPath>
    </defs>
</svg>
