<svg width="16" height="16" viewBox="0 0 16 16" fill="none" xmlns="http://www.w3.org/2000/svg">
    <path fill-rule="evenodd" clip-rule="evenodd"
        d="M4.5 1.75C2.98122 1.75 1.75 2.98122 1.75 4.5C1.75 6.01878 2.98122 7.25 4.5 7.25C6.01878 7.25 7.25 6.01878 7.25 4.5C7.25 2.98122 6.01878 1.75 4.5 1.75ZM3.25 4.5C3.25 3.80964 3.80964 3.25 4.5 3.25C5.19036 3.25 5.75 3.80964 5.75 4.5C5.75 5.19036 5.19036 5.75 4.5 5.75C3.80964 5.75 3.25 5.19036 3.25 4.5Z"
        fill="#303233" />
    <path fill-rule="evenodd" clip-rule="evenodd"
        d="M8.09999 5.79712C8.69647 4.93554 9.97009 4.93554 10.5666 5.79712L15.1351 12.3962C15.8239 13.391 15.1118 14.75 13.9019 14.75L2.06795 14.75L2.06269 14.75H1.90186L1.90748 14.7419C0.807729 14.6292 0.185563 13.3694 0.819876 12.4179L3.41849 8.52003C4.01222 7.62943 5.32091 7.62943 5.91464 8.52003L6.06194 8.74098L8.09999 5.79712ZM5.14354 10.0676L2.94031 13.25H2.06795L4.66656 9.35208L5.14354 10.0676ZM13.9019 13.25L9.33328 6.65094L4.76471 13.25H13.9019Z"
        fill="#303233" />
</svg>
