<svg width="24" height="24" viewBox="0 0 24 24" fill="none" xmlns="http://www.w3.org/2000/svg">
    <path fill-rule="evenodd" clip-rule="evenodd"
        d="M5 3.75C4.66848 3.75 4.35054 3.8817 4.11612 4.11612C3.8817 4.35054 3.75 4.66848 3.75 5V19.1893L6.46967 16.4697C6.61032 16.329 6.80109 16.25 7 16.25H19C19.3315 16.25 19.6495 16.1183 19.8839 15.8839C20.1183 15.6495 20.25 15.3315 20.25 15V5C20.25 4.66848 20.1183 4.35054 19.8839 4.11612C19.6495 3.8817 19.3315 3.75 19 3.75H5ZM3.05546 3.05546C3.57118 2.53973 4.27065 2.25 5 2.25H19C19.7293 2.25 20.4288 2.53973 20.9445 3.05546C21.4603 3.57118 21.75 4.27065 21.75 5V15C21.75 15.7293 21.4603 16.4288 20.9445 16.9445C20.4288 17.4603 19.7293 17.75 19 17.75H7.31066L3.53033 21.5303C3.31583 21.7448 2.99324 21.809 2.71299 21.6929C2.43273 21.5768 2.25 21.3033 2.25 21V5C2.25 4.27065 2.53973 3.57118 3.05546 3.05546Z"
        fill="#303233" />
</svg>
