<svg width="24" height="24" viewBox="0 0 24 24" fill="none" xmlns="http://www.w3.org/2000/svg">
    <path
        d="M2 12C2 7.02944 6.02944 3 11 3C15.9706 3 20 7.02944 20 12C20 12.5065 19.9583 13.0026 19.8782 13.485C19.7878 14.0299 20.1562 14.5448 20.7011 14.6352C21.2459 14.7256 21.7609 14.3572 21.8513 13.8123C21.9492 13.2221 22 12.6166 22 12C22 5.92487 17.0751 1 11 1C4.92487 1 0 5.92487 0 12C0 18.0751 4.92487 23 11 23C12.148 23 13.2568 22.8238 14.2996 22.4962C14.8266 22.3308 15.1195 21.7695 14.954 21.2425C14.7886 20.7156 14.2273 20.4227 13.7004 20.5881C12.8492 20.8555 11.9424 21 11 21C6.02944 21 2 16.9706 2 12Z"
        fill="#303233" />
    <path
        d="M11 5C11.5523 5 12 5.44772 12 6V11.4648L14.5547 13.1679C15.0142 13.4743 15.1384 14.0952 14.8321 14.5547C14.5257 15.0142 13.9048 15.1384 13.4453 14.8321L10.4453 12.8321C10.1671 12.6466 10 12.3344 10 12V6C10 5.44772 10.4477 5 11 5Z"
        fill="#303233" />
    <path fill-rule="evenodd" clip-rule="evenodd"
        d="M17.5528 15.6056C17.8916 15.4362 18.297 15.4727 18.6 15.7L22.6 18.7C22.8518 18.8889 23 19.1852 23 19.5C23 19.8148 22.8518 20.1112 22.6 20.3L18.6 23.3C18.297 23.5273 17.8916 23.5638 17.5528 23.3944C17.214 23.225 17 22.8788 17 22.5V16.5C17 16.1212 17.214 15.775 17.5528 15.6056Z"
        fill="#303233" />
</svg>
