<svg width="16" height="16" viewBox="0 0 16 16" fill="none" xmlns="http://www.w3.org/2000/svg">
    <path
        d="M5.66957 0.75H10.3304C10.8646 0.74999 11.3104 0.749982 11.6747 0.779741C12.0546 0.810779 12.4112 0.87789 12.7485 1.04973C13.2659 1.31339 13.6866 1.73408 13.9503 2.25153C14.1221 2.58879 14.1892 2.94545 14.2203 3.32533C14.25 3.68955 14.25 4.13542 14.25 4.66955V7.5C14.25 7.91422 13.9142 8.25 13.5 8.25C13.0858 8.25 12.75 7.91422 12.75 7.5V4.7C12.75 4.12757 12.7494 3.74336 12.7252 3.44748C12.7018 3.16036 12.6599 3.02307 12.6138 2.93251C12.4939 2.69731 12.3027 2.50609 12.0675 2.38624C11.9769 2.3401 11.8396 2.29822 11.5525 2.27476C11.2566 2.25058 10.8724 2.25 10.3 2.25H5.7C5.12757 2.25 4.74336 2.25058 4.44748 2.27476C4.16036 2.29822 4.02307 2.3401 3.93251 2.38624C3.69731 2.50609 3.50609 2.69731 3.38624 2.93251C3.3401 3.02307 3.29822 3.16036 3.27476 3.44748C3.25058 3.74336 3.25 4.12757 3.25 4.7V11.3C3.25 11.8724 3.25058 12.2566 3.27476 12.5525C3.29822 12.8396 3.3401 12.9769 3.38624 13.0675C3.50609 13.3027 3.69731 13.4939 3.93251 13.6138C4.02307 13.6599 4.16036 13.7018 4.44748 13.7252C4.74336 13.7494 5.12757 13.75 5.7 13.75H8C8.41422 13.75 8.75 14.0858 8.75 14.5C8.75 14.9142 8.41422 15.25 8 15.25H5.66951C5.13538 15.25 4.68955 15.25 4.32533 15.2203C3.94545 15.1892 3.58879 15.1221 3.25153 14.9503C2.73408 14.6866 2.31339 14.2659 2.04973 13.7485C1.87789 13.4112 1.81078 13.0546 1.77974 12.6747C1.74998 12.3104 1.74999 11.8646 1.75 11.3305V4.66955C1.74999 4.13541 1.74998 3.68956 1.77974 3.32533C1.81078 2.94545 1.87789 2.58879 2.04973 2.25153C2.31339 1.73408 2.73408 1.31339 3.25153 1.04973C3.58879 0.87789 3.94545 0.810779 4.32533 0.779741C4.68956 0.749982 5.13543 0.74999 5.66957 0.75Z"
        fill="#303233" />
    <path
        d="M12.5 14.5C12.5 14.9142 12.1642 15.25 11.75 15.25C11.3358 15.25 11 14.9142 11 14.5V11.8107L10.0303 12.7803C9.73744 13.0732 9.26256 13.0732 8.96967 12.7803C8.67678 12.4874 8.67678 12.0126 8.96967 11.7197L11.2197 9.46967C11.5126 9.17678 11.9874 9.17678 12.2803 9.46967L14.5303 11.7197C14.8232 12.0126 14.8232 12.4874 14.5303 12.7803C14.2374 13.0732 13.7626 13.0732 13.4697 12.7803L12.5 11.8107V14.5Z"
        fill="#303233" />
</svg>
