<svg width="24" height="24" viewBox="0 0 24 24" fill="none" xmlns="http://www.w3.org/2000/svg">
    <path fill-rule="evenodd" clip-rule="evenodd"
        d="M2.47016 2.46967C2.76305 2.17678 3.23793 2.17678 3.53082 2.46967L21.5308 20.4697C21.8237 20.7626 21.8237 21.2374 21.5308 21.5303C21.2379 21.8232 20.7631 21.8232 20.4702 21.5303L14.0003 15.0604L8.03035 21.0303C7.93806 21.1226 7.82328 21.1892 7.69736 21.2236L2.19736 22.7236C1.9377 22.7944 1.66 22.7206 1.46969 22.5303C1.27937 22.34 1.20563 22.0623 1.27644 21.8027L2.77644 16.3027C2.81079 16.1767 2.8774 16.062 2.96969 15.9697L8.93959 9.99976L2.47016 3.53033C2.17726 3.23744 2.17726 2.76256 2.47016 2.46967Z"
        fill="#303233" />
    <path fill-rule="evenodd" clip-rule="evenodd"
        d="M16.4689 2.46966C17.8664 1.0722 20.1321 1.07221 21.5296 2.46967C22.9271 3.86713 22.9271 6.13287 21.5296 7.53033L17.3233 11.7366C17.0304 12.0295 16.5555 12.0295 16.2626 11.7366L12.2626 7.7366C12.122 7.59595 12.043 7.40518 12.043 7.20627C12.043 7.00736 12.122 6.81659 12.2626 6.67594L16.4689 2.46966Z"
        fill="#303233" />
</svg>
