<svg width="16" height="16" viewBox="0 0 16 16" fill="none" xmlns="http://www.w3.org/2000/svg">
    <path
        d="M15.25 2.5C15.25 2.08579 14.9142 1.75 14.5 1.75C14.0858 1.75 13.75 2.08579 13.75 2.5V4.76957L12.4086 3.56978C11.4523 2.6182 10.2137 2.00145 8.87773 1.81195C7.53604 1.62164 6.16885 1.87255 4.98217 2.52687C3.79549 3.1812 2.85362 4.20348 2.2985 5.43967C1.74337 6.67586 1.60506 8.05899 1.9044 9.38063C2.20375 10.7023 2.92453 11.8908 3.95814 12.7672C4.99175 13.6435 6.28219 14.1602 7.63499 14.2393C8.98779 14.3185 10.3297 13.9558 11.4584 13.2059C12.5872 12.4561 13.4416 11.3597 13.893 10.082C14.031 9.69142 13.8263 9.26296 13.4357 9.12498C13.0451 8.987 12.6167 9.19175 12.4787 9.5823C12.1356 10.5534 11.4862 11.3866 10.6284 11.9565C9.77055 12.5264 8.75072 12.802 7.72259 12.7419C6.69446 12.6817 5.71373 12.2891 4.92819 11.623C4.14265 10.957 3.59485 10.0537 3.36735 9.04928C3.13984 8.04483 3.24496 6.99366 3.66686 6.05415C4.08876 5.11464 4.80457 4.33771 5.70645 3.84043C6.60832 3.34314 7.64739 3.15245 8.66707 3.29708C9.68675 3.44172 10.6318 3.91384 11.3598 4.64231C11.3677 4.65021 11.3758 4.65793 11.384 4.66547L12.5964 5.75H10.5C10.0858 5.75 9.75 6.08579 9.75 6.5C9.75 6.91421 10.0858 7.25 10.5 7.25H14.5C14.9142 7.25 15.25 6.91421 15.25 6.5V2.5Z"
        fill="#303233" />
</svg>
