<svg width="24" height="24" viewBox="0 0 24 24" fill="none" xmlns="http://www.w3.org/2000/svg">
    <path fill-rule="evenodd" clip-rule="evenodd"
        d="M2.53033 1.46967C2.23744 1.17678 1.76256 1.17678 1.46967 1.46967C1.17678 1.76256 1.17678 2.23744 1.46967 2.53033L6.25 7.31066V10.3564C5.91016 10.4143 5.59575 10.5068 5.29754 10.6587C4.59193 11.0183 4.01825 11.5919 3.65873 12.2975C3.43239 12.7418 3.33803 13.2219 3.29336 13.7685C3.24999 14.2994 3.24999 14.9551 3.25 15.7679V16.2321C3.24999 17.0449 3.24999 17.7006 3.29336 18.2315C3.33803 18.7781 3.43239 19.2582 3.65873 19.7025C4.01825 20.4081 4.59193 20.9817 5.29754 21.3413C5.74175 21.5676 6.2219 21.662 6.76853 21.7066C7.29944 21.75 7.95505 21.75 8.76788 21.75H15.2321C16.045 21.75 16.7006 21.75 17.2315 21.7066C17.7781 21.662 18.2582 21.5676 18.7025 21.3413C19.0424 21.1681 19.3517 20.9452 19.6211 20.6818L21.4697 22.5303C21.7626 22.8232 22.2374 22.8232 22.5303 22.5303C22.8232 22.2374 22.8232 21.7626 22.5303 21.4697L20.123 19.0623C20.1038 19.0407 20.0832 19.0201 20.0612 19.0006L2.53033 1.46967ZM7.75 8.81066V10.2541C8.0586 10.25 8.39687 10.25 8.7679 10.25H9.18934L7.75 8.81066ZM10.6475 11.7082C10.57 11.7353 10.4867 11.75 10.4 11.75H8.8C7.94755 11.75 7.35331 11.7506 6.89068 11.7884C6.4368 11.8255 6.17604 11.8946 5.97852 11.9952C5.55516 12.211 5.21095 12.5552 4.99524 12.9785C4.8946 13.176 4.82547 13.4368 4.78838 13.8907C4.75058 14.3533 4.75 14.9475 4.75 15.8V16.2C4.75 17.0525 4.75058 17.6467 4.78838 18.1093C4.82547 18.5632 4.8946 18.824 4.99524 19.0215C5.21095 19.4448 5.55516 19.789 5.97852 20.0048C6.17604 20.1054 6.4368 20.1745 6.89068 20.2116C7.35331 20.2494 7.94755 20.25 8.8 20.25H15.2C16.0525 20.25 16.6467 20.2494 17.1093 20.2116C17.5632 20.1745 17.824 20.1054 18.0215 20.0048C18.2203 19.9035 18.4016 19.7739 18.5604 19.621L10.6475 11.7082Z"
        fill="#303233" />
    <path
        d="M12 2.25C10.897 2.25 9.86444 2.5613 8.98797 3.1012C8.6353 3.31844 8.52551 3.78045 8.74275 4.13312C8.96 4.4858 9.422 4.59558 9.77468 4.37834C10.4214 3.97996 11.1827 3.75 12 3.75C14.3472 3.75 16.25 5.65279 16.25 8V11L16.2501 11.0142C16.242 11.4142 16.5512 11.7528 16.9543 11.7774C17.505 11.811 17.8012 11.883 18.0215 11.9952C18.4448 12.211 18.789 12.5552 19.0048 12.9785C19.117 13.1988 19.189 13.495 19.2226 14.0457C19.2479 14.4592 19.6035 14.7738 20.0169 14.7486C20.4304 14.7234 20.7451 14.3677 20.7198 13.9543C20.6816 13.3283 20.5921 12.7898 20.3413 12.2975C19.9818 11.5919 19.4081 11.0183 18.7025 10.6587C18.4049 10.5071 18.0905 10.4144 17.75 10.3564V8C17.75 4.82436 15.1756 2.25 12 2.25Z"
        fill="#303233" />
</svg>
