<svg width="24" height="24" viewBox="0 0 24 24" fill="none" xmlns="http://www.w3.org/2000/svg">
    <path fill-rule="evenodd" clip-rule="evenodd"
        d="M23 12C23 18.0751 18.0751 23 12 23C5.92487 23 1 18.0751 1 12C1 5.92487 5.92487 1 12 1C18.0751 1 23 5.92487 23 12ZM11.9993 14C9.10098 14 6.56262 15.5413 5.15918 17.849C6.80986 19.7777 9.26202 21 11.9997 21C14.7371 21 17.1891 19.7779 18.8398 17.8494C17.4364 15.5415 14.8979 14 11.9993 14ZM11.9993 5C9.79021 5 7.99934 6.79086 7.99934 9C7.99934 11.2091 9.79021 13 11.9993 13C14.2085 13 15.9993 11.2091 15.9993 9C15.9993 6.79086 14.2085 5 11.9993 5Z"
        fill="#303233" />
</svg>
