<svg width="16" height="16" viewBox="0 0 16 16" fill="none" xmlns="http://www.w3.org/2000/svg">
    <path
        d="M9.99503 5.25C9.58356 5.25 9.25 5.58579 9.25 6C9.25 6.41421 9.58356 6.75 9.99503 6.75H10.005C10.4164 6.75 10.75 6.41421 10.75 6C10.75 5.58579 10.4164 5.25 10.005 5.25H9.99503Z"
        fill="#303233" />
    <path
        d="M5.25 6C5.25 5.58579 5.58356 5.25 5.99503 5.25H6.00497C6.41644 5.25 6.75 5.58579 6.75 6C6.75 6.41421 6.41644 6.75 6.00497 6.75H5.99503C5.58356 6.75 5.25 6.41421 5.25 6Z"
        fill="#303233" />
    <path fill-rule="evenodd" clip-rule="evenodd"
        d="M4 8.5C3.72386 8.5 3.5 8.72386 3.5 9C3.5 9.91754 4.06015 10.798 4.85626 11.4279C5.66365 12.0668 6.77218 12.5 8 12.5C9.22782 12.5 10.3363 12.0668 11.1437 11.4279C11.9398 10.798 12.5 9.91754 12.5 9C12.5 8.72386 12.2761 8.5 12 8.5H4ZM5.47674 10.6437C5.02934 10.2897 4.73424 9.88494 4.59433 9.5H11.4057C11.2658 9.88494 10.9707 10.2897 10.5233 10.6437C9.88632 11.1477 8.99485 11.5 8 11.5C7.00515 11.5 6.11368 11.1477 5.47674 10.6437Z"
        fill="#303233" />
    <path fill-rule="evenodd" clip-rule="evenodd"
        d="M8 1C4.13401 1 1 4.13401 1 8C1 11.866 4.13401 15 8 15C11.866 15 15 11.866 15 8C15 4.13401 11.866 1 8 1ZM2 8C2 4.68629 4.68629 2 8 2C11.3137 2 14 4.68629 14 8C14 11.3137 11.3137 14 8 14C4.68629 14 2 11.3137 2 8Z"
        fill="#303233" />
</svg>
