<svg width="16" height="16" viewBox="0 0 16 16" fill="none" xmlns="http://www.w3.org/2000/svg">
    <path fill-rule="evenodd" clip-rule="evenodd"
        d="M8.75 1C8.75 0.585786 8.41421 0.25 8 0.25C7.58579 0.25 7.25 0.585786 7.25 1V1.75H6.75C4.817 1.75 3.25 3.317 3.25 5.25C3.25 7.183 4.817 8.75 6.75 8.75H7.25V12.75H4.00016C3.58595 12.75 3.25016 13.0858 3.25016 13.5C3.25016 13.9142 3.58595 14.25 4.00016 14.25H7.25V15C7.25 15.4142 7.58579 15.75 8 15.75C8.41421 15.75 8.75 15.4142 8.75 15V14.25H9.74984C11.6828 14.25 13.2498 12.683 13.2498 10.75C13.2498 8.817 11.6828 7.25 9.74984 7.25H8.75V3.25H12C12.4142 3.25 12.75 2.91421 12.75 2.5C12.75 2.08579 12.4142 1.75 12 1.75H8.75V1ZM7.25 3.25H6.75C5.64543 3.25 4.75 4.14543 4.75 5.25C4.75 6.35457 5.64543 7.25 6.75 7.25H7.25V3.25ZM8.75 8.75V12.75H9.74984C10.8544 12.75 11.7498 11.8546 11.7498 10.75C11.7498 9.64543 10.8544 8.75 9.74984 8.75H8.75Z"
        fill="#303233" />
</svg>
