<svg width="16" height="16" viewBox="0 0 16 16" fill="none" xmlns="http://www.w3.org/2000/svg">
    <path fill-rule="evenodd" clip-rule="evenodd"
        d="M7.9947 1.25H8.0053C8.14337 1.25011 8.25521 1.36212 8.25511 1.50019C8.255 1.63826 8.14299 1.75011 8.00491 1.75H7.99508C7.85701 1.75011 7.745 1.63826 7.74489 1.50019C7.74478 1.36212 7.85663 1.25011 7.9947 1.25ZM9.76663 1.73792C9.80917 1.60657 9.95014 1.53457 10.0815 1.57711L10.0915 1.58037C10.2228 1.62312 10.2946 1.7642 10.2519 1.89549C10.2091 2.02677 10.068 2.09855 9.93675 2.0558L9.92745 2.05278C9.79609 2.01024 9.72409 1.86927 9.76663 1.73792ZM6.23336 1.73792C6.2759 1.86928 6.2039 2.01024 6.07255 2.05278L6.06325 2.0558C5.93196 2.09855 5.79088 2.02677 5.74813 1.89549C5.70538 1.7642 5.77716 1.62312 5.90845 1.58037L5.9185 1.57711C6.04985 1.53457 6.19082 1.60657 6.23336 1.73792ZM11.6145 2.59104C11.6956 2.47934 11.852 2.45458 11.9637 2.53574L11.9722 2.54195C12.0838 2.62328 12.1083 2.77966 12.0269 2.89123C11.9456 3.00281 11.7892 3.02732 11.6777 2.94599L11.6698 2.94024C11.5581 2.85908 11.5333 2.70274 11.6145 2.59104ZM4.38553 2.59104C4.46669 2.70274 4.44194 2.85908 4.33024 2.94024L4.32234 2.94599C4.21077 3.02732 4.05438 3.00281 3.97305 2.89123C3.89172 2.77966 3.91623 2.62328 4.0278 2.54195L4.03633 2.53574C4.14803 2.45458 4.30437 2.47934 4.38553 2.59104ZM13.1088 3.97305C13.2203 3.89172 13.3767 3.91623 13.458 4.0278L13.4643 4.03633C13.5454 4.14803 13.5207 4.30437 13.409 4.38553C13.2973 4.46669 13.1409 4.44194 13.0598 4.33024L13.054 4.32234C12.9727 4.21077 12.9972 4.05438 13.1088 3.97305ZM2.89123 3.97305C3.00281 4.05439 3.02732 4.21077 2.94599 4.32234L2.94024 4.33024C2.85908 4.44194 2.70274 4.46669 2.59104 4.38554C2.47934 4.30438 2.45458 4.14803 2.53574 4.03633L2.54195 4.02781C2.62328 3.91623 2.77966 3.89172 2.89123 3.97305ZM14.1045 5.74813C14.2358 5.70538 14.3769 5.77716 14.4196 5.90845L14.4229 5.9185C14.4654 6.04985 14.3934 6.19082 14.2621 6.23336C14.1307 6.2759 13.9898 6.2039 13.9472 6.07255L13.9442 6.06325C13.9014 5.93196 13.9732 5.79088 14.1045 5.74813ZM1.89549 5.74813C2.02677 5.79088 2.09855 5.93196 2.0558 6.06325L2.05278 6.07255C2.01024 6.2039 1.86927 6.2759 1.73792 6.23336C1.60657 6.19082 1.53457 6.04985 1.57711 5.9185L1.58037 5.90845C1.62312 5.77716 1.7642 5.70538 1.89549 5.74813ZM14.4998 7.74489C14.6379 7.74478 14.7499 7.85663 14.75 7.9947V8.0053C14.7499 8.14337 14.6379 8.25521 14.4998 8.25511C14.3617 8.255 14.2499 8.14299 14.25 8.00491V7.99508C14.2499 7.85701 14.3617 7.745 14.4998 7.74489ZM1.50019 7.74489C1.63826 7.745 1.75011 7.85701 1.75 7.99508V8.00491C1.75011 8.14299 1.63826 8.255 1.50019 8.25511C1.36212 8.25521 1.25011 8.14337 1.25 8.0053V7.9947C1.25011 7.85663 1.36212 7.74478 1.50019 7.74489ZM14.2621 9.76663C14.3934 9.80917 14.4654 9.95014 14.4229 10.0815L14.4196 10.0915C14.3769 10.2228 14.2358 10.2946 14.1045 10.2519C13.9732 10.2091 13.9014 10.068 13.9442 9.93675L13.9472 9.92745C13.9898 9.79609 14.1307 9.72409 14.2621 9.76663ZM1.73792 9.76663C1.86928 9.7241 2.01024 9.79609 2.05278 9.92745L2.0558 9.93675C2.09855 10.068 2.02677 10.2091 1.89549 10.2519C1.7642 10.2946 1.62312 10.2228 1.58037 10.0915L1.57711 10.0815C1.53457 9.95014 1.60657 9.80917 1.73792 9.76663ZM13.409 11.6145C13.5207 11.6956 13.5454 11.852 13.4643 11.9637L13.458 11.9722C13.3767 12.0838 13.2203 12.1083 13.1088 12.0269C12.9972 11.9456 12.9727 11.7892 13.054 11.6777L13.0598 11.6698C13.1409 11.5581 13.2973 11.5333 13.409 11.6145ZM2.59104 11.6145C2.70274 11.5333 2.85908 11.5581 2.94024 11.6698L2.94599 11.6777C3.02732 11.7892 3.00281 11.9456 2.89123 12.0269C2.77966 12.1083 2.62328 12.0838 2.54195 11.9722L2.53574 11.9637C2.45458 11.852 2.47934 11.6956 2.59104 11.6145ZM12.0269 13.1088C12.1083 13.2203 12.0838 13.3767 11.9722 13.458L11.9637 13.4643C11.852 13.5454 11.6956 13.5207 11.6145 13.409C11.5333 13.2973 11.5581 13.1409 11.6698 13.0598L11.6777 13.054C11.7892 12.9727 11.9456 12.9972 12.0269 13.1088ZM3.97305 13.1088C4.05439 12.9972 4.21077 12.9727 4.32234 13.054L4.33024 13.0598C4.44194 13.1409 4.46669 13.2973 4.38554 13.409C4.30438 13.5207 4.14803 13.5454 4.03633 13.4643L4.02781 13.458C3.91623 13.3767 3.89172 13.2203 3.97305 13.1088ZM10.2519 14.1045C10.2946 14.2358 10.2228 14.3769 10.0915 14.4196L10.0815 14.4229C9.95014 14.4654 9.80917 14.3934 9.76663 14.2621C9.7241 14.1307 9.79609 13.9898 9.92745 13.9472L9.93675 13.9442C10.068 13.9014 10.2091 13.9732 10.2519 14.1045ZM5.74813 14.1045C5.79088 13.9732 5.93196 13.9014 6.06325 13.9442L6.07255 13.9472C6.2039 13.9898 6.2759 14.1307 6.23336 14.2621C6.19082 14.3934 6.04985 14.4654 5.9185 14.4229L5.90845 14.4196C5.77716 14.3769 5.70538 14.2358 5.74813 14.1045ZM7.74489 14.4998C7.745 14.3617 7.85701 14.2499 7.99508 14.25H8.00491C8.14299 14.2499 8.255 14.3617 8.25511 14.4998C8.25521 14.6379 8.14337 14.7499 8.0053 14.75H7.9947C7.85663 14.7499 7.74478 14.6379 7.74489 14.4998Z"
        fill="#303233" />
    <path fill-rule="evenodd" clip-rule="evenodd"
        d="M8 12C10.2091 12 12 10.2091 12 8C12 5.79086 10.2091 4 8 4C5.79086 4 4 5.79086 4 8C4 10.2091 5.79086 12 8 12ZM8 12.5C10.4853 12.5 12.5 10.4853 12.5 8C12.5 5.51472 10.4853 3.5 8 3.5C5.51472 3.5 3.5 5.51472 3.5 8C3.5 10.4853 5.51472 12.5 8 12.5Z"
        fill="#303233" />
    <path fill-rule="evenodd" clip-rule="evenodd"
        d="M8 9.5C8.82843 9.5 9.5 8.82843 9.5 8C9.5 7.17157 8.82843 6.5 8 6.5C7.17157 6.5 6.5 7.17157 6.5 8C6.5 8.82843 7.17157 9.5 8 9.5ZM8 10.5C9.38071 10.5 10.5 9.38071 10.5 8C10.5 6.61929 9.38071 5.5 8 5.5C6.61929 5.5 5.5 6.61929 5.5 8C5.5 9.38071 6.61929 10.5 8 10.5Z"
        fill="#303233" />
</svg>
