<svg width="16" height="16" viewBox="0 0 16 16" fill="none" xmlns="http://www.w3.org/2000/svg">
    <path fill-rule="evenodd" clip-rule="evenodd"
        d="M9.64645 2.14646C9.84171 1.9512 10.1583 1.9512 10.3536 2.14646L13.8536 5.64646C14.0488 5.84172 14.0488 6.15831 13.8536 6.35357L10.3536 9.85357C10.1583 10.0488 9.84171 10.0488 9.64645 9.85357C9.45118 9.65831 9.45118 9.34172 9.64645 9.14646L12.2929 6.50001L8.9 6.5C7.77165 6.5 6.95545 6.50038 6.31352 6.55283C5.67744 6.6048 5.25662 6.70539 4.91103 6.88147C4.25247 7.21703 3.71703 7.75246 3.38148 8.41103C3.20539 8.75662 3.10481 9.17743 3.05284 9.81352C3.00039 10.4554 3 11.2716 3 12.4V12.5C3 12.7762 2.77614 13 2.5 13C2.22386 13 2 12.7762 2 12.5V12.3774C2 11.2764 2 10.4195 2.05616 9.73209C2.11318 9.03416 2.23058 8.4671 2.49047 7.95704C2.9219 7.11031 3.61031 6.4219 4.45704 5.99047C4.9671 5.73058 5.53416 5.61318 6.23209 5.55615C6.91948 5.49999 7.77641 5.49999 8.87737 5.5L12.2929 5.50001L9.64645 2.85357C9.45118 2.65831 9.45118 2.34172 9.64645 2.14646Z"
        fill="#303233" />
</svg>
