<svg width="16" height="16" viewBox="0 0 16 16" fill="none" xmlns="http://www.w3.org/2000/svg">
    <g clip-path="url(#clip0_53_6367)">
        <path
            d="M6.75 1C6.75 0.585786 6.41421 0.25 6 0.25C5.58579 0.25 5.25 0.585786 5.25 1V2.5C5.25 2.91421 5.58579 3.25 6 3.25C6.41421 3.25 6.75 2.91421 6.75 2.5V1Z"
            fill="#303233" />
        <path
            d="M2.53033 1.46967C2.23744 1.17678 1.76256 1.17678 1.46967 1.46967C1.17678 1.76256 1.17678 2.23744 1.46967 2.53033L2.46967 3.53033C2.76256 3.82322 3.23744 3.82322 3.53033 3.53033C3.82322 3.23744 3.82322 2.76256 3.53033 2.46967L2.53033 1.46967Z"
            fill="#303233" />
        <path
            d="M1 5.25C0.585786 5.25 0.25 5.58579 0.25 6C0.25 6.41421 0.585786 6.75 1 6.75H2.5C2.91421 6.75 3.25 6.41421 3.25 6C3.25 5.58579 2.91421 5.25 2.5 5.25H1Z"
            fill="#303233" />
        <path
            d="M13.5 9.24998C13.0858 9.24997 12.75 9.58576 12.75 9.99997C12.75 10.4142 13.0858 10.75 13.5 10.75L15 10.75C15.4142 10.75 15.75 10.4142 15.75 10C15.75 9.5858 15.4142 9.25001 15 9.25L13.5 9.24998Z"
            fill="#303233" />
        <path
            d="M13.5303 12.4697C13.2374 12.1768 12.7626 12.1768 12.4697 12.4697C12.1768 12.7626 12.1768 13.2374 12.4697 13.5303L13.4697 14.5303C13.7626 14.8232 14.2374 14.8232 14.5303 14.5303C14.8232 14.2374 14.8232 13.7626 14.5303 13.4697L13.5303 12.4697Z"
            fill="#303233" />
        <path
            d="M10.75 13.5C10.75 13.0858 10.4142 12.75 10 12.75C9.58579 12.75 9.25 13.0858 9.25 13.5V15C9.25 15.4142 9.58579 15.75 10 15.75C10.4142 15.75 10.75 15.4142 10.75 15V13.5Z"
            fill="#303233" />
        <path
            d="M13.7449 2.2551C12.4048 0.914965 10.232 0.914965 8.89182 2.2551L7.46967 3.67726C7.17678 3.97015 7.17678 4.44503 7.46967 4.73792C7.76256 5.03081 8.23744 5.03081 8.53033 4.73792L9.95249 3.31576C10.7068 2.56141 11.9299 2.56141 12.6842 3.31576C13.4386 4.07012 13.4386 5.29316 12.6842 6.04752L11.2621 7.46967C10.9692 7.76256 10.9692 8.23744 11.2621 8.53033C11.555 8.82322 12.0298 8.82322 12.3227 8.53033L13.7449 7.10818C15.085 5.76804 15.085 3.59524 13.7449 2.2551Z"
            fill="#303233" />
        <path
            d="M4.73792 8.53033C5.03081 8.23744 5.03081 7.76256 4.73792 7.46967C4.44503 7.17678 3.97015 7.17678 3.67726 7.46967L2.2551 8.89182C0.914966 10.232 0.914965 12.4048 2.2551 13.7449C3.59524 15.085 5.76804 15.085 7.10818 13.7449L8.53033 12.3227C8.82322 12.0298 8.82322 11.555 8.53033 11.2621C8.23744 10.9692 7.76256 10.9692 7.46967 11.2621L6.04752 12.6842C5.29316 13.4386 4.07012 13.4386 3.31576 12.6842C2.56141 11.9299 2.56141 10.7068 3.31576 9.95249L4.73792 8.53033Z"
            fill="#303233" />
    </g>
    <defs>
        <clipPath id="clip0_53_6367">
            <rect width="16" height="16" fill="white" />
        </clipPath>
    </defs>
</svg>
