<svg width="24" height="24" viewBox="0 0 24 24" fill="none" xmlns="http://www.w3.org/2000/svg">
    <path fill-rule="evenodd" clip-rule="evenodd"
        d="M5.45926 4.39859C5.75216 4.69149 5.75216 5.16636 5.45926 5.45925C1.84691 9.0716 1.84691 14.9284 5.45926 18.5407C5.75216 18.8336 5.75216 19.3085 5.45926 19.6014C5.16637 19.8943 4.6915 19.8943 4.3986 19.6014C0.200466 15.4033 0.200466 8.59673 4.3986 4.39859C4.6915 4.1057 5.16637 4.1057 5.45926 4.39859ZM18.5407 4.39864C18.8336 4.10575 19.3085 4.10575 19.6014 4.39864C23.7995 8.59678 23.7995 15.4033 19.6014 19.6014C19.3085 19.8943 18.8336 19.8943 18.5407 19.6014C18.2478 19.3085 18.2478 18.8337 18.5407 18.5408C22.1531 14.9284 22.1531 9.07165 18.5407 5.4593C18.2478 5.16641 18.2478 4.69153 18.5407 4.39864ZM8.28769 7.22699C8.58058 7.51988 8.58058 7.99475 8.28769 8.28765C6.23744 10.3379 6.23744 13.662 8.28769 15.7123C8.58058 16.0052 8.58058 16.48 8.28769 16.7729C7.9948 17.0658 7.51992 17.0658 7.22703 16.7729C4.59099 14.1369 4.59099 9.86303 7.22703 7.22699C7.51992 6.93409 7.9948 6.93409 8.28769 7.22699ZM15.7123 7.22702C16.0052 6.93413 16.4801 6.93413 16.773 7.22702C19.409 9.86306 19.409 14.1369 16.773 16.773C16.4801 17.0659 16.0052 17.0659 15.7123 16.773C15.4194 16.4801 15.4194 16.0052 15.7123 15.7123C17.7626 13.662 17.7626 10.3379 15.7123 8.28768C15.4194 7.99479 15.4194 7.51991 15.7123 7.22702ZM9.25 12C9.25 10.4812 10.4812 9.24999 12 9.24999C13.5188 9.24999 14.75 10.4812 14.75 12C14.75 13.5188 13.5188 14.75 12 14.75C10.4812 14.75 9.25 13.5188 9.25 12Z"
        fill="#303233" />
</svg>
