<svg width="24" height="24" viewBox="0 0 24 24" fill="none" xmlns="http://www.w3.org/2000/svg">
    <path
        d="M8.99254 7.5C8.16823 7.5 7.5 8.17157 7.5 9C7.5 9.82843 8.16823 10.5 8.99254 10.5H9.00746C9.83177 10.5 10.5 9.82843 10.5 9C10.5 8.17157 9.83177 7.5 9.00746 7.5H8.99254Z"
        fill="#303233" />
    <path
        d="M13.5 9C13.5 8.17157 14.1682 7.5 14.9925 7.5H15.0075C15.8318 7.5 16.5 8.17157 16.5 9C16.5 9.82843 15.8318 10.5 15.0075 10.5H14.9925C14.1682 10.5 13.5 9.82843 13.5 9Z"
        fill="#303233" />
    <path fill-rule="evenodd" clip-rule="evenodd"
        d="M6 12C5.44772 12 5 12.4477 5 13C5 14.5538 5.8544 16.0583 7.08949 17.1441C8.33985 18.2433 10.0702 19 12 19C13.9298 19 15.6602 18.2433 16.9105 17.1441C18.1456 16.0583 19 14.5538 19 13C19 12.4477 18.5523 12 18 12H6ZM8.41001 15.642C7.83346 15.1351 7.43041 14.5605 7.20699 14H16.793C16.5696 14.5605 16.1665 15.1351 15.59 15.642C14.6738 16.4474 13.4042 17 12 17C10.5958 17 9.32615 16.4474 8.41001 15.642Z"
        fill="#303233" />
    <path fill-rule="evenodd" clip-rule="evenodd"
        d="M12 1C5.92487 1 1 5.92487 1 12C1 18.0751 5.92487 23 12 23C18.0751 23 23 18.0751 23 12C23 5.92487 18.0751 1 12 1ZM3 12C3 7.02944 7.02944 3 12 3C16.9706 3 21 7.02944 21 12C21 16.9706 16.9706 21 12 21C7.02944 21 3 16.9706 3 12Z"
        fill="#303233" />
</svg>
