<svg width="24" height="24" viewBox="0 0 24 24" fill="none" xmlns="http://www.w3.org/2000/svg">
    <path
        d="M6.5 11C5.94772 11 5.5 11.4477 5.5 12C5.5 12.5523 5.94772 13 6.5 13H12.5C13.0523 13 13.5 12.5523 13.5 12C13.5 11.4477 13.0523 11 12.5 11H6.5Z"
        fill="#303233" />
    <path fill-rule="evenodd" clip-rule="evenodd"
        d="M12.2413 4H6.7587C5.95374 3.99999 5.28937 3.99998 4.74818 4.04419C4.18608 4.09012 3.66937 4.18868 3.18404 4.43598C2.43139 4.81947 1.81947 5.43139 1.43598 6.18404C1.18868 6.66937 1.09012 7.18608 1.04419 7.74818C0.999978 8.28937 0.999988 8.95372 1 9.75869V14.2413C0.999988 15.0463 0.999978 15.7106 1.04419 16.2518C1.09012 16.8139 1.18868 17.3306 1.43598 17.816C1.81947 18.5686 2.43139 19.1805 3.18404 19.564C3.66937 19.8113 4.18608 19.9099 4.74818 19.9558C5.28937 20 5.95373 20 6.7587 20H12.2413C13.0462 20 13.7106 20 14.2518 19.9558C14.8139 19.9099 15.3306 19.8113 15.816 19.564C16.5686 19.1805 17.1805 18.5686 17.564 17.816C17.8113 17.3306 17.9099 16.8139 17.9558 16.2518C17.9968 15.7499 17.9998 15.142 18 14.4142L19.9536 16.3678C20.1447 16.559 20.3326 16.7469 20.4973 16.8848C20.6442 17.0078 20.9537 17.2545 21.3823 17.2883C21.861 17.3259 22.3288 17.1322 22.6406 16.7671C22.9198 16.4401 22.9642 16.0469 22.9811 15.856C23.0001 15.642 23 15.3763 23 15.1059V8.8941C23 8.62374 23.0001 8.35798 22.9811 8.14403C22.9642 7.95314 22.9198 7.55988 22.6406 7.23294C22.3288 6.86782 21.861 6.67406 21.3823 6.71173C20.9537 6.74547 20.6442 6.99217 20.4973 7.11519C20.3326 7.25306 20.1448 7.44097 19.9536 7.63215L18 9.5858C17.9998 8.85803 17.9968 8.25013 17.9558 7.74818C17.9099 7.18608 17.8113 6.66937 17.564 6.18404C17.1805 5.43139 16.5686 4.81947 15.816 4.43598C15.3306 4.18868 14.8139 4.09012 14.2518 4.04419C13.7106 3.99998 13.0463 3.99999 12.2413 4ZM15.9624 7.91104C15.9992 8.36113 16 8.94342 16 9.8V14.2C16 15.0566 15.9992 15.6389 15.9624 16.089C15.9266 16.5274 15.8617 16.7516 15.782 16.908C15.5903 17.2843 15.2843 17.5903 14.908 17.782C14.7516 17.8617 14.5274 17.9266 14.089 17.9624C13.6389 17.9992 13.0566 18 12.2 18H6.8C5.94342 18 5.36113 17.9992 4.91104 17.9624C4.47262 17.9266 4.24842 17.8617 4.09202 17.782C3.7157 17.5903 3.40973 17.2843 3.21799 16.908C3.1383 16.7516 3.07337 16.5274 3.03755 16.089C3.00078 15.6389 3 15.0566 3 14.2V9.8C3 8.94342 3.00078 8.36113 3.03755 7.91104C3.07337 7.47262 3.1383 7.24842 3.21799 7.09202C3.40973 6.7157 3.7157 6.40973 4.09202 6.21799C4.24842 6.1383 4.47262 6.07337 4.91104 6.03755C5.36113 6.00078 5.94342 6 6.8 6H12.2C13.0566 6 13.6389 6.00078 14.089 6.03755C14.5274 6.07337 14.7516 6.1383 14.908 6.21799C15.2843 6.40973 15.5903 6.7157 15.782 7.09202C15.8617 7.24842 15.9266 7.47262 15.9624 7.91104ZM21 14.5858L18.4142 12L21 9.41422V14.5858Z"
        fill="#303233" />
</svg>
