<svg width="16" height="16" viewBox="0 0 16 16" fill="none" xmlns="http://www.w3.org/2000/svg">
    <path fill-rule="evenodd" clip-rule="evenodd"
        d="M2.04048 3.67923C3.4952 2.03943 5.6236 1 7.99899 1C10.3744 1 12.5028 2.03943 13.9575 3.67923C14.1408 3.8858 14.1219 4.20182 13.9153 4.38508C13.7087 4.56833 13.3927 4.54943 13.2094 4.34286C11.9363 2.90772 10.0762 2 7.99899 2C5.92174 2 4.0617 2.90772 2.78854 4.34286C2.60528 4.54943 2.28927 4.56833 2.08269 4.38508C1.87612 4.20182 1.85722 3.8858 2.04048 3.67923ZM1.5 9.44216C1.5 5.87254 4.41384 2.98554 8 2.98554C11.5862 2.98554 14.5 5.87254 14.5 9.44216C14.5 10.8185 13.3769 11.9277 11.9998 11.9277C10.6227 11.9277 9.49956 10.8185 9.49956 9.44216C9.49956 8.62514 8.83121 7.95662 7.99933 7.95662C7.16746 7.95662 6.49911 8.62514 6.49911 9.44216C6.49911 11.395 7.53399 13.1097 9.09348 14.0748C9.3283 14.2201 9.40085 14.5283 9.25554 14.7631C9.11023 14.9979 8.80207 15.0705 8.56726 14.9252C6.7279 13.7869 5.49911 11.7583 5.49911 9.44216C5.49911 8.06583 6.62223 6.95662 7.99933 6.95662C9.37644 6.95662 10.4996 8.06583 10.4996 9.44216C10.4996 10.2592 11.1679 10.9277 11.9998 10.9277C12.8317 10.9277 13.5 10.2592 13.5 9.44216C13.5 6.43171 11.0408 3.98554 8 3.98554C4.95921 3.98554 2.5 6.43171 2.5 9.44216C2.5 10.1377 2.57843 10.8157 2.723 11.4701C2.78257 11.7397 2.61227 12.0066 2.34263 12.0662C2.07299 12.1257 1.80611 11.9554 1.74654 11.6858C1.58698 10.9635 1.5 10.2132 1.5 9.44216ZM7.99806 5.97108C6.0618 5.97108 4.49828 7.52835 4.49828 9.44216C4.49828 11.0286 4.99954 12.4971 5.8527 13.7053C6.01198 13.9308 5.95824 14.2428 5.73267 14.4021C5.5071 14.5614 5.19511 14.5077 5.03583 14.2821C4.06817 12.9117 3.49828 11.2431 3.49828 9.44216C3.49828 6.96925 5.51636 4.97108 7.99806 4.97108C10.4798 4.97108 12.4978 6.96925 12.4978 9.44216C12.4978 9.71831 12.274 9.94216 11.9978 9.94216C11.7217 9.94216 11.4978 9.71831 11.4978 9.44216C11.4978 7.52835 9.93432 5.97108 7.99806 5.97108ZM7.99941 8.94216C8.27555 8.94216 8.49941 9.16602 8.49941 9.44216C8.49941 11.356 10.0629 12.9132 11.9992 12.9132C12.0342 12.9132 12.0615 12.9114 12.1022 12.9087C12.125 12.9072 12.1521 12.9053 12.1871 12.9034C12.4628 12.8882 12.6987 13.0994 12.7139 13.3751C12.7291 13.6509 12.5179 13.8867 12.2421 13.9019C12.2315 13.9025 12.2178 13.9034 12.2019 13.9044C12.1481 13.908 12.0693 13.9132 11.9992 13.9132C9.51748 13.9132 7.49941 11.9151 7.49941 9.44216C7.49941 9.16602 7.72327 8.94216 7.99941 8.94216Z"
        fill="#303233" />
</svg>
