<svg width="24" height="24" viewBox="0 0 24 24" fill="none" xmlns="http://www.w3.org/2000/svg">
    <g clip-path="url(#clip0_53_4627)">
        <path fill-rule="evenodd" clip-rule="evenodd"
            d="M12 0C10.067 0 8.5 1.567 8.5 3.5V3.5503L8.46442 3.51472C7.09758 2.14789 4.8815 2.14788 3.51467 3.51472C2.14783 4.88155 2.14783 7.09763 3.51467 8.46447L3.5502 8.5H3.5C1.567 8.5 0 10.067 0 12C0 13.933 1.567 15.5 3.5 15.5H3.55017L3.51463 15.5355C2.14779 16.9024 2.14779 19.1185 3.51463 20.4853C4.88146 21.8521 7.09754 21.8521 8.46438 20.4853L8.5 20.4497V20.5C8.5 22.433 10.067 24 12 24C13.933 24 15.5 22.433 15.5 20.5V20.4498L15.5355 20.4853C16.9023 21.8521 19.1184 21.8521 20.4852 20.4853C21.8521 19.1184 21.8521 16.9024 20.4852 15.5355L20.4497 15.5H20.5C22.433 15.5 24 13.933 24 12C24 10.067 22.433 8.5 20.5 8.5H20.4496L20.4852 8.46446C21.852 7.09762 21.852 4.88155 20.4852 3.51471C19.1183 2.14788 16.9023 2.14788 15.5354 3.51471L15.5 3.55015V3.5C15.5 1.567 13.933 0 12 0ZM17.6212 8.5H16.5C16.0718 8.5 15.6616 8.57689 15.2824 8.71762C15.4231 8.3384 15.5 7.92818 15.5 7.5V6.37858L16.9497 4.92893C17.5354 4.34314 18.4852 4.34314 19.071 4.92893C19.6568 5.51471 19.6568 6.46446 19.071 7.05025L17.6212 8.5ZM13.5 5.55015V3.5C13.5 2.67157 12.8284 2 12 2C11.1716 2 10.5 2.67157 10.5 3.5V5.5503L11.2928 6.34315C11.5956 6.6459 11.8313 6.99032 11.9999 7.35795C12.1686 6.99032 12.4043 6.6459 12.707 6.34314L13.5 5.55015ZM12.4247 10.9745C12.2855 10.9913 12.1438 11 12 11C11.8562 11 11.7144 10.9913 11.5752 10.9745C11.4886 11.0848 11.3945 11.1912 11.2928 11.2929C11.1912 11.3946 11.0848 11.4886 10.9745 11.5752C10.9913 11.7144 11 11.8562 11 12C11 12.1438 10.9913 12.2856 10.9745 12.4249C11.0848 12.5114 11.1912 12.6055 11.2928 12.7071C11.3945 12.8088 11.4886 12.9152 11.5751 13.0255C11.7144 13.0087 11.8562 13 12 13C12.1438 13 12.2855 13.0087 12.4247 13.0255C12.5113 12.9151 12.6054 12.8088 12.7071 12.7071C12.8087 12.6054 12.9151 12.5113 13.0255 12.4247C13.0087 12.2855 13 12.1438 13 12C13 11.8562 13.0087 11.7145 13.0255 11.5753C12.9151 11.4887 12.8087 11.3946 12.707 11.2929C12.6053 11.1912 12.5112 11.0849 12.4247 10.9745ZM16.6419 12C17.0096 12.1686 17.354 12.4043 17.6568 12.7071L18.4497 13.5H20.5C21.3284 13.5 22 12.8284 22 12C22 11.1716 21.3284 10.5 20.5 10.5H18.4496L17.6568 11.2929C17.354 11.5957 17.0096 11.8313 16.6419 12ZM6.34305 12.7071C6.64583 12.4043 6.99028 12.1686 7.35794 12C6.9903 11.8314 6.64586 11.5957 6.3431 11.2929L5.5502 10.5H3.5C2.67157 10.5 2 11.1716 2 12C2 12.8284 2.67157 13.5 3.5 13.5H5.55017L6.34305 12.7071ZM11.2928 17.6569L10.5 18.4497V20.5C10.5 21.3284 11.1716 22 12 22C12.8284 22 13.5 21.3284 13.5 20.5V18.4498L12.7071 17.6569C12.4043 17.3541 12.1686 17.0096 11.9999 16.642C11.8313 17.0096 11.5956 17.3541 11.2928 17.6569ZM4.92884 16.9498L6.37859 15.5H7.5C7.92818 15.5 8.3384 15.4231 8.71761 15.2824C8.57689 15.6616 8.5 16.0718 8.5 16.5V17.6212L7.05016 19.0711C6.46438 19.6569 5.51463 19.6569 4.92884 19.0711C4.34306 18.4853 4.34305 17.5355 4.92884 16.9498ZM15.5 17.6214V16.5C15.5 16.0718 15.4231 15.6616 15.2824 15.2824C15.6616 15.4231 16.0718 15.5 16.5 15.5H17.6213L19.071 16.9497C19.6568 17.5355 19.6568 18.4853 19.071 19.0711C18.4852 19.6569 17.5355 19.6568 16.9497 19.0711L15.5 17.6214ZM7.0502 4.92893L8.5 6.37873V7.5C8.5 7.92818 8.57689 8.3384 8.71761 8.71762C8.3384 8.57689 7.92818 8.5 7.5 8.5H6.37863L4.92888 7.05025C4.3431 6.46447 4.3431 5.51472 4.92888 4.92893C5.51467 4.34315 6.46442 4.34315 7.0502 4.92893Z"
            fill="#303233" />
    </g>
    <defs>
        <clipPath id="clip0_53_4627">
            <rect width="24" height="24" fill="white" />
        </clipPath>
    </defs>
</svg>
