<svg width="24" height="24" viewBox="0 0 24 24" fill="none" xmlns="http://www.w3.org/2000/svg">
    <path fill-rule="evenodd" clip-rule="evenodd"
        d="M22.75 12C22.75 17.9371 17.9371 22.75 12 22.75C6.06294 22.75 1.25 17.9371 1.25 12C1.25 6.06294 6.06294 1.25 12 1.25C17.9371 1.25 22.75 6.06294 22.75 12ZM12.0003 14.25C14.9299 14.25 17.4799 15.8756 18.7974 18.2739C17.1074 20.104 14.6877 21.25 12.0003 21.25C9.31286 21.25 6.89312 20.104 5.20312 18.2739C6.52066 15.8756 9.07063 14.25 12.0003 14.25ZM12.0003 5.25C9.92921 5.25 8.25028 6.92893 8.25028 9C8.25028 11.0711 9.92921 12.75 12.0003 12.75C14.0713 12.75 15.7503 11.0711 15.7503 9C15.7503 6.92893 14.0713 5.25 12.0003 5.25Z"
        fill="#303233" />
</svg>
