<svg width="24" height="24" viewBox="0 0 24 24" fill="none" xmlns="http://www.w3.org/2000/svg">
    <path fill-rule="evenodd" clip-rule="evenodd"
        d="M6.7587 2H17.2413C18.0463 1.99999 18.7106 1.99998 19.2518 2.04419C19.8139 2.09012 20.3306 2.18869 20.816 2.43598C21.5686 2.81947 22.1805 3.43139 22.564 4.18404C22.8113 4.66938 22.9099 5.18609 22.9558 5.74818C23 6.28938 23 6.95373 23 7.75868V12C23 12.5523 22.5523 13 22 13C21.4477 13 21 12.5523 21 12V9H3V16.2C3 17.0566 3.00078 17.6389 3.03755 18.089C3.07337 18.5274 3.1383 18.7516 3.21799 18.908C3.40973 19.2843 3.71569 19.5903 4.09202 19.782C4.24842 19.8617 4.47262 19.9266 4.91104 19.9624C5.36113 19.9992 5.94342 20 6.8 20H12C12.5523 20 13 20.4477 13 21C13 21.5523 12.5523 22 12 22H6.75877C5.95377 22 5.28938 22 4.74817 21.9558C4.18608 21.9099 3.66937 21.8113 3.18404 21.564C2.43139 21.1805 1.81947 20.5686 1.43597 19.816C1.18868 19.3306 1.09012 18.8139 1.04419 18.2518C0.999977 17.7106 0.999988 17.0463 1 16.2413V7.7587C0.999988 6.95373 0.999977 6.28937 1.04419 5.74817C1.09012 5.18608 1.18868 4.66937 1.43598 4.18404C1.81947 3.43139 2.43139 2.81947 3.18404 2.43597C3.66937 2.18868 4.18608 2.09012 4.74818 2.04419C5.28937 1.99998 5.95373 1.99999 6.7587 2ZM3.00176 7H20.9982C20.9951 6.55448 20.9864 6.20464 20.9624 5.91105C20.9266 5.47262 20.8617 5.24842 20.782 5.09202C20.5903 4.7157 20.2843 4.40974 19.908 4.21799C19.7516 4.1383 19.5274 4.07337 19.089 4.03755C18.6389 4.00078 18.0566 4 17.2 4H6.8C5.94342 4 5.36113 4.00078 4.91104 4.03755C4.47262 4.07337 4.24842 4.1383 4.09202 4.21799C3.7157 4.40973 3.40973 4.7157 3.21799 5.09202C3.1383 5.24842 3.07337 5.47262 3.03755 5.91104C3.01357 6.20463 3.00489 6.55447 3.00176 7ZM17.7064 16.2922L21.7078 20.2936C21.8953 19.902 22 19.4635 22 19C22 17.3431 20.6569 16 19 16C18.5365 16 18.098 16.1047 17.7064 16.2922ZM20.2936 21.7078L16.2922 17.7064C16.1047 18.098 16 18.5365 16 19C16 20.6569 17.3431 22 19 22C19.4635 22 19.902 21.8953 20.2936 21.7078ZM15.4645 15.4645C16.3682 14.5607 17.6196 14 19 14C21.7614 14 24 16.2386 24 19C24 20.3804 23.4393 21.6318 22.5355 22.5355C21.6318 23.4393 20.3804 24 19 24C16.2386 24 14 21.7614 14 19C14 17.6196 14.5607 16.3682 15.4645 15.4645Z"
        fill="#303233" />
</svg>
