<svg width="16" height="16" viewBox="0 0 16 16" fill="none" xmlns="http://www.w3.org/2000/svg">
    <path fill-rule="evenodd" clip-rule="evenodd"
        d="M10.2306 0.75H5.76942C5.21789 0.74999 4.75893 0.749982 4.38428 0.780592C3.99397 0.812481 3.6296 0.881295 3.28565 1.05655C2.75645 1.32619 2.32619 1.75645 2.05655 2.28565C1.8813 2.6296 1.81248 2.99397 1.78059 3.38428C1.74998 3.75893 1.74999 4.21787 1.75 4.76941V11.2306C1.74999 11.7821 1.74998 12.2411 1.78059 12.6157C1.81248 13.006 1.8813 13.3704 2.05655 13.7143C2.32619 14.2436 2.75645 14.6738 3.28565 14.9435C3.6296 15.1187 3.99397 15.1875 4.38428 15.2194C4.75893 15.25 5.21787 15.25 5.7694 15.25H10.2306C10.7821 15.25 11.2411 15.25 11.6157 15.2194C12.006 15.1875 12.3704 15.1187 12.7143 14.9435C13.2436 14.6738 13.6738 14.2436 13.9435 13.7143C14.1187 13.3704 14.1875 13.006 14.2194 12.6157C14.25 12.2411 14.25 11.7821 14.25 11.2306V4.7694C14.25 4.21787 14.25 3.75893 14.2194 3.38428C14.1875 2.99397 14.1187 2.6296 13.9435 2.28565C13.6738 1.75645 13.2436 1.32619 12.7143 1.05655C12.3704 0.881295 12.006 0.812481 11.6157 0.780592C11.2411 0.749982 10.7821 0.74999 10.2306 0.75ZM5.25 4.5C4.83579 4.5 4.5 4.83579 4.5 5.25V5.75C4.5 6.16421 4.83579 6.5 5.25 6.5H5.75C6.16421 6.5 6.5 6.16421 6.5 5.75V5.25C6.5 4.83579 6.16421 4.5 5.75 4.5H5.25ZM7.75 4.5C7.33579 4.5 7 4.83579 7 5.25V5.75C7 6.16421 7.33579 6.5 7.75 6.5H8.25C8.66421 6.5 9 6.16421 9 5.75V5.25C9 4.83579 8.66421 4.5 8.25 4.5H7.75ZM9.5 5.25C9.5 4.83579 9.83579 4.5 10.25 4.5H10.75C11.1642 4.5 11.5 4.83579 11.5 5.25V5.75C11.5 6.16421 11.1642 6.5 10.75 6.5H10.25C9.83579 6.5 9.5 6.16421 9.5 5.75V5.25ZM5.25 7C4.83579 7 4.5 7.33579 4.5 7.75V8.25C4.5 8.66421 4.83579 9 5.25 9H5.75C6.16421 9 6.5 8.66421 6.5 8.25V7.75C6.5 7.33579 6.16421 7 5.75 7H5.25ZM7 7.75C7 7.33579 7.33579 7 7.75 7H8.25C8.66421 7 9 7.33579 9 7.75V8.25C9 8.66421 8.66421 9 8.25 9H7.75C7.33579 9 7 8.66421 7 8.25V7.75ZM10.25 7C9.83579 7 9.5 7.33579 9.5 7.75V8.25C9.5 8.66421 9.83579 9 10.25 9H10.75C11.1642 9 11.5 8.66421 11.5 8.25V7.75C11.5 7.33579 11.1642 7 10.75 7H10.25ZM4.5 10.25C4.5 9.83579 4.83579 9.5 5.25 9.5H5.75C6.16421 9.5 6.5 9.83579 6.5 10.25V10.75C6.5 11.1642 6.16421 11.5 5.75 11.5H5.25C4.83579 11.5 4.5 11.1642 4.5 10.75V10.25ZM7.75 9.5C7.33579 9.5 7 9.83579 7 10.25V10.75C7 11.1642 7.33579 11.5 7.75 11.5H8.25C8.66421 11.5 9 11.1642 9 10.75V10.25C9 9.83579 8.66421 9.5 8.25 9.5H7.75ZM9.5 10.25C9.5 9.83579 9.83579 9.5 10.25 9.5H10.75C11.1642 9.5 11.5 9.83579 11.5 10.25V10.75C11.5 11.1642 11.1642 11.5 10.75 11.5H10.25C9.83579 11.5 9.5 11.1642 9.5 10.75V10.25Z"
        fill="#303233" />
</svg>
