<svg width="16" height="16" viewBox="0 0 16 16" fill="none" xmlns="http://www.w3.org/2000/svg">
    <path
        d="M2.69619 10.1172C3.30654 9.58946 3.78656 9.15713 4.13624 8.82016C4.49228 8.47684 4.78792 8.1208 5.02316 7.75204C5.2584 7.38329 5.37602 7.01453 5.37602 6.64578C5.37602 6.2643 5.28383 5.96549 5.09946 5.74932C4.92144 5.53315 4.63851 5.42507 4.25068 5.42507C3.87557 5.42507 3.58311 5.54587 3.3733 5.78747C3.16985 6.02271 3.06176 6.3406 3.04905 6.74114H2C2.01907 6.01635 2.23524 5.46322 2.6485 5.08174C3.06812 4.69391 3.599 4.5 4.24114 4.5C4.93415 4.5 5.47457 4.69074 5.8624 5.07221C6.25658 5.45368 6.45368 5.96231 6.45368 6.59809C6.45368 7.05586 6.33606 7.49773 6.10082 7.92371C5.87193 8.34332 5.59537 8.72162 5.27112 9.05858C4.95322 9.38919 4.54632 9.77384 4.05041 10.2125L3.62125 10.594H6.64441V11.5H2.00954V10.7084L2.69619 10.1172Z"
        fill="#303233" />
    <path
        d="M9.35355 6.64645C9.15829 6.45118 8.84171 6.45118 8.64645 6.64645C8.45118 6.84171 8.45118 7.15829 8.64645 7.35355L10.2929 9L8.64645 10.6464C8.45118 10.8417 8.45118 11.1583 8.64645 11.3536C8.84171 11.5488 9.15829 11.5488 9.35355 11.3536L11 9.70711L12.6464 11.3536C12.8417 11.5488 13.1583 11.5488 13.3536 11.3536C13.5488 11.1583 13.5488 10.8417 13.3536 10.6464L11.7071 9L13.3536 7.35355C13.5488 7.15829 13.5488 6.84171 13.3536 6.64645C13.1583 6.45118 12.8417 6.45118 12.6464 6.64645L11 8.29289L9.35355 6.64645Z"
        fill="#303233" />
</svg>
