<svg width="16" height="16" viewBox="0 0 16 16" fill="none" xmlns="http://www.w3.org/2000/svg">
    <path
        d="M9.39706 1.59335C9.43848 1.26317 9.25738 0.945181 8.95227 0.812351C8.64716 0.679522 8.29101 0.763619 8.07754 1.0189L6.52817 2.87176C6.27902 3.16971 6.29856 3.60857 6.57319 3.88321L7.74338 5.0534C7.94589 5.25591 8.24605 5.32541 8.51696 5.23252C8.78787 5.13964 8.98224 4.90058 9.01788 4.61641L9.39706 1.59335Z"
        fill="#303233" />
    <path fill-rule="evenodd" clip-rule="evenodd"
        d="M13.8499 6.1881C13.6218 6.00442 13.3614 5.97346 13.2352 5.96207C13.1006 5.94993 12.9374 5.94997 12.782 5.95001L10.4507 5.95001C10.1473 5.95001 9.87383 6.13274 9.75774 6.413C9.64166 6.69325 9.70582 7.01584 9.92032 7.23034L11.7829 9.09297C11.9318 9.24181 12.1363 9.32125 12.3466 9.31189C12.5569 9.30253 12.7536 9.20523 12.8886 9.04375L13.7492 8.01465C13.8486 7.89579 13.9533 7.77066 14.0302 7.65969C14.1023 7.55567 14.2461 7.33518 14.2505 7.04126C14.2555 6.70987 14.1073 6.39539 13.8499 6.1881Z"
        fill="#303233" />
    <path fill-rule="evenodd" clip-rule="evenodd"
        d="M1.46967 1.46967C1.76256 1.17678 2.23744 1.17678 2.53033 1.46967L14.5303 13.4697C14.8232 13.7626 14.8232 14.2374 14.5303 14.5303C14.2374 14.8232 13.7626 14.8232 13.4697 14.5303L10.6543 11.715L7.92311 14.9811C7.70965 15.2364 7.3535 15.3205 7.04839 15.1877C6.74328 15.0548 6.56218 14.7368 6.60359 14.4067L7.15005 10.05L3.21868 10.05C3.06332 10.05 2.90002 10.0501 2.76548 10.0379C2.6393 10.0266 2.37881 9.99559 2.15073 9.81191C1.89332 9.60462 1.74511 9.29014 1.75012 8.95875C1.75457 8.66484 1.89835 8.44435 1.97045 8.34032C2.04736 8.22935 2.15204 8.10422 2.25148 7.98536L4.37966 5.44032L1.46967 2.53033C1.17678 2.23744 1.17678 1.76256 1.46967 1.46967Z"
        fill="#303233" />
</svg>
