<svg width="16" height="16" viewBox="0 0 16 16" fill="none" xmlns="http://www.w3.org/2000/svg">
    <path
        d="M11.264 1.00014C10.2758 0.991546 9.32384 1.37184 8.61314 2.05895L7.48365 3.18295C7.28792 3.37774 7.28716 3.69432 7.48195 3.89005C7.67674 4.08578 7.99332 4.08654 8.18905 3.89175L9.31072 2.77547C9.83261 2.27216 10.5308 1.9938 11.2553 2.0001C11.981 2.00642 12.6753 2.2978 13.1887 2.81164C13.702 3.32551 13.9933 4.02075 13.9996 4.74765C14.0059 5.47316 13.7278 6.17208 13.2253 6.69448L11.2674 8.65439C10.9867 8.93545 10.6489 9.15278 10.277 9.29165C9.90515 9.43051 9.50779 9.48769 9.11191 9.45931C8.71603 9.43093 8.33085 9.31765 7.9825 9.12714C7.63415 8.93662 7.33076 8.67332 7.09294 8.35506C6.92765 8.13385 6.61433 8.08852 6.39312 8.25382C6.17191 8.41912 6.12659 8.73244 6.29188 8.95364C6.61551 9.38674 7.02844 9.74514 7.50267 10.0045C7.9769 10.2639 8.50134 10.4181 9.0404 10.4567C9.57947 10.4954 10.1205 10.4175 10.6269 10.2285C11.1332 10.0394 11.593 9.74351 11.975 9.36101L13.936 7.39808L13.942 7.39183C14.6284 6.68043 15.0081 5.72774 14.9995 4.73897C14.991 3.75019 14.5948 2.80425 13.8961 2.1049C13.1975 1.40553 12.2523 1.00874 11.264 1.00014Z"
        fill="#303233" />
    <path
        d="M6.95928 5.54325C6.42021 5.50461 5.87915 5.58247 5.37282 5.77154C4.86651 5.9606 4.40671 6.25649 4.02472 6.639L2.06369 8.60192L2.05766 8.60818C1.37127 9.31957 0.991559 10.2723 1.00014 11.261C1.00873 12.2498 1.40492 13.1958 2.10356 13.8951C2.80221 14.5945 3.74743 14.9913 4.73565 14.9999C5.72387 15.0085 6.67589 14.6282 7.38659 13.9411L8.51052 12.816C8.70568 12.6207 8.70552 12.3041 8.51016 12.1089C8.3148 11.9138 7.99822 11.9139 7.80305 12.1093L6.68846 13.225C6.16662 13.728 5.46866 14.0062 4.74435 13.9999C4.01864 13.9936 3.32435 13.7022 2.81103 13.1884C2.29769 12.6745 2.00641 11.9793 2.0001 11.2524C1.99381 10.5268 2.27189 9.82792 2.77441 9.30552L4.73232 7.34561C5.01299 7.06455 5.35074 6.84723 5.72263 6.70836C6.09453 6.56949 6.49188 6.51231 6.88777 6.54069C7.28365 6.56908 7.66883 6.68235 8.01718 6.87287C8.36553 7.06338 8.66891 7.32668 8.90673 7.64495C9.07203 7.86615 9.38535 7.91148 9.60656 7.74618C9.82776 7.58089 9.87309 7.26757 9.70779 7.04636C9.38416 6.61326 8.97124 6.25487 8.49701 5.99551C8.02278 5.73615 7.49834 5.5819 6.95928 5.54325Z"
        fill="#303233" />
</svg>
