<svg width="16" height="16" viewBox="0 0 16 16" fill="none" xmlns="http://www.w3.org/2000/svg">
    <g clip-path="url(#clip0_53_4153)">
        <path fill-rule="evenodd" clip-rule="evenodd"
            d="M9.65343 7.25C9.66226 7.25 9.67112 7.25 9.68 7.25L13.3466 7.25C13.6178 7.24998 13.8647 7.24997 14.0707 7.2668C14.2922 7.28489 14.5315 7.32612 14.7672 7.44619C15.1059 7.61876 15.3812 7.89413 15.5538 8.23282C15.6739 8.46847 15.7151 8.70782 15.7332 8.92929C15.75 9.1353 15.75 9.38222 15.75 9.65343V13.3466C15.75 13.6178 15.75 13.8647 15.7332 14.0707C15.7151 14.2922 15.6739 14.5315 15.5538 14.7672C15.3812 15.1059 15.1059 15.3812 14.7672 15.5538C14.5315 15.6739 14.2922 15.7151 14.0707 15.7332C13.8647 15.75 13.6178 15.75 13.3466 15.75H9.65343C9.38222 15.75 9.1353 15.75 8.92929 15.7332C8.70782 15.7151 8.46847 15.6739 8.23282 15.5538C7.89413 15.3812 7.61876 15.1059 7.44619 14.7672C7.32612 14.5315 7.28489 14.2922 7.2668 14.0707C7.24997 13.8647 7.24998 13.6178 7.25 13.3466L7.25 9.68C7.25 9.67112 7.25 9.66226 7.25 9.65342C7.24998 9.38222 7.24997 9.13529 7.2668 8.92929C7.28489 8.70782 7.32612 8.46847 7.44619 8.23282C7.61876 7.89413 7.89413 7.61876 8.23282 7.44619C8.46847 7.32612 8.70782 7.28489 8.92929 7.2668C9.13529 7.24997 9.38222 7.24998 9.65343 7.25ZM8.91119 8.78387L8.91277 8.78321L8.91119 8.78387ZM8.91277 8.78321C8.92056 8.78037 8.95647 8.76957 9.05144 8.76182C9.1889 8.75058 9.3736 8.75 9.68 8.75H13.32C13.6264 8.75 13.8111 8.75058 13.9486 8.76182C14.0435 8.76957 14.0793 8.78032 14.0871 8.78316C14.1428 8.81179 14.1882 8.85717 14.2168 8.91291C14.2197 8.92071 14.2304 8.95648 14.2382 9.05144C14.2494 9.1889 14.25 9.3736 14.25 9.68V13.32C14.25 13.6264 14.2494 13.8111 14.2382 13.9486C14.2304 14.0435 14.2197 14.0793 14.2168 14.0871C14.1882 14.1428 14.1428 14.1882 14.0871 14.2168C14.0793 14.2197 14.0435 14.2304 13.9486 14.2382C13.8111 14.2494 13.6264 14.25 13.32 14.25H9.68C9.3736 14.25 9.1889 14.2494 9.05144 14.2382C8.95647 14.2304 8.9207 14.2197 8.91291 14.2168C8.85717 14.1882 8.81179 14.1428 8.78316 14.0871C8.78032 14.0793 8.76957 14.0435 8.76182 13.9486C8.75058 13.8111 8.75 13.6264 8.75 13.32V9.68C8.75 9.3736 8.75058 9.1889 8.76182 9.05144C8.76957 8.95647 8.78032 8.9207 8.78316 8.91291C8.81179 8.85717 8.85703 8.81184 8.91277 8.78321ZM8.78387 14.0888L8.78316 14.0871L8.78387 14.0888ZM14.0888 14.2161L14.0871 14.2168L14.0888 14.2161ZM14.2161 8.91119L14.2168 8.91291L14.2161 8.91119Z"
            fill="#303233" />
        <path fill-rule="evenodd" clip-rule="evenodd"
            d="M11.5 10.75C11.0858 10.75 10.75 11.0858 10.75 11.5C10.75 11.9142 11.0858 12.25 11.5 12.25C11.9142 12.25 12.25 11.9142 12.25 11.5C12.25 11.0858 11.9142 10.75 11.5 10.75ZM9.25 11.5C9.25 10.2574 10.2574 9.25 11.5 9.25C12.7426 9.25 13.75 10.2574 13.75 11.5C13.75 12.7426 12.7426 13.75 11.5 13.75C10.2574 13.75 9.25 12.7426 9.25 11.5Z"
            fill="#303233" />
        <path fill-rule="evenodd" clip-rule="evenodd"
            d="M4.93586 0.75L5 0.750001C5.41421 0.750001 5.75 1.08579 5.75 1.5C5.75 1.91421 5.41421 2.25 5 2.25H4.96667C4.34757 2.25 3.92835 2.25058 3.60468 2.27703C3.28976 2.30276 3.1319 2.34918 3.02351 2.40441C2.75695 2.54023 2.54023 2.75695 2.40441 3.02351C2.34918 3.1319 2.30276 3.28976 2.27703 3.60468C2.25058 3.92835 2.25 4.34757 2.25 4.96667V5C2.25 5.41421 1.91421 5.75 1.5 5.75C1.08579 5.75 0.750001 5.41421 0.750001 5L0.75 4.93586C0.74999 4.35533 0.749982 3.87454 0.782011 3.48253C0.815319 3.07485 0.886972 2.69762 1.0679 2.34253C1.34753 1.79372 1.79372 1.34753 2.34253 1.0679C2.69762 0.886972 3.07485 0.815319 3.48253 0.782011C3.87454 0.749982 4.35533 0.74999 4.93586 0.75ZM12.3953 2.27703C12.0717 2.25058 11.6524 2.25 11.0333 2.25H11C10.5858 2.25 10.25 1.91421 10.25 1.5C10.25 1.08579 10.5858 0.750001 11 0.750001L11.0641 0.75C11.6447 0.74999 12.1255 0.749982 12.5175 0.782011C12.9251 0.815319 13.3024 0.886972 13.6575 1.0679C14.2063 1.34753 14.6525 1.79372 14.9321 2.34253C15.113 2.69762 15.1847 3.07485 15.218 3.48253C15.25 3.87454 15.25 4.35532 15.25 4.93584V5C15.25 5.41421 14.9142 5.75 14.5 5.75C14.0858 5.75 13.75 5.41421 13.75 5V4.96667C13.75 4.34757 13.7494 3.92835 13.723 3.60468C13.6972 3.28976 13.6508 3.1319 13.5956 3.02351C13.4598 2.75695 13.2431 2.54023 12.9765 2.40441C12.8681 2.34918 12.7102 2.30276 12.3953 2.27703ZM1.5 10.25C1.91421 10.25 2.25 10.5858 2.25 11V11.0333C2.25 11.6524 2.25058 12.0717 2.27703 12.3953C2.30276 12.7102 2.34918 12.8681 2.40441 12.9765C2.54023 13.2431 2.75695 13.4598 3.02351 13.5956C3.1319 13.6508 3.28976 13.6972 3.60468 13.723C3.92835 13.7494 4.34757 13.75 4.96667 13.75H5C5.41421 13.75 5.75 14.0858 5.75 14.5C5.75 14.9142 5.41421 15.25 5 15.25H4.93584C4.35532 15.25 3.87454 15.25 3.48253 15.218C3.07485 15.1847 2.69762 15.113 2.34253 14.9321C1.79372 14.6525 1.34753 14.2063 1.0679 13.6575C0.886972 13.3024 0.815319 12.9251 0.782011 12.5175C0.749982 12.1255 0.74999 11.6447 0.75 11.0641L0.750001 11C0.750001 10.5858 1.08579 10.25 1.5 10.25Z"
            fill="#303233" />
    </g>
    <defs>
        <clipPath id="clip0_53_4153">
            <rect width="16" height="16" fill="white" />
        </clipPath>
    </defs>
</svg>
