<svg width="24" height="24" viewBox="0 0 24 24" fill="none" xmlns="http://www.w3.org/2000/svg">
    <path
        d="M5.8 7.4C5.46863 6.95817 4.84183 6.86863 4.4 7.2C3.95817 7.53137 3.86863 8.15817 4.2 8.6L6.75 12L4.2 15.4C3.86863 15.8418 3.95817 16.4686 4.4 16.8C4.84183 17.1314 5.46863 17.0418 5.8 16.6L8 13.6667L10.2 16.6C10.5314 17.0418 11.1582 17.1314 11.6 16.8C12.0418 16.4686 12.1314 15.8418 11.8 15.4L9.25 12L11.8 8.6C12.1314 8.15817 12.0418 7.53137 11.6 7.2C11.1582 6.86863 10.5314 6.95817 10.2 7.4L8 10.3333L5.8 7.4Z"
        fill="#303233" />
    <path
        d="M15 10C15 9.44772 15.4477 9 16 9H17C17.3689 9 17.6924 9.19922 17.8668 9.50073C18.1434 9.97879 18.7551 10.1421 19.2332 9.86561C19.7112 9.58906 19.8746 8.97734 19.598 8.49927C19.0808 7.60518 18.1117 7 17 7H16C14.3431 7 13 8.34315 13 10C13 11.6569 14.3431 13 16 13H17C17.5523 13 18 13.4477 18 14C18 14.5523 17.5523 15 17 15H16C15.6311 15 15.3076 14.8008 15.1332 14.4993C14.8566 14.0212 14.2449 13.8579 13.7668 14.1344C13.2888 14.4109 13.1254 15.0227 13.402 15.5007C13.9192 16.3948 14.8883 17 16 17H17C18.6569 17 20 15.6569 20 14C20 12.3431 18.6569 11 17 11H16C15.4477 11 15 10.5523 15 10Z"
        fill="#303233" />
    <path fill-rule="evenodd" clip-rule="evenodd"
        d="M17.2413 2H6.7587C5.95374 1.99999 5.28937 1.99998 4.74818 2.04419C4.18608 2.09012 3.66937 2.18868 3.18404 2.43598C2.43139 2.81947 1.81947 3.43139 1.43598 4.18404C1.18868 4.66937 1.09012 5.18608 1.04419 5.74818C0.999978 6.28937 0.999988 6.95372 1 7.75869V16.2413C0.999988 17.0463 0.999978 17.7106 1.04419 18.2518C1.09012 18.8139 1.18868 19.3306 1.43598 19.816C1.81947 20.5686 2.43139 21.1805 3.18404 21.564C3.66937 21.8113 4.18608 21.9099 4.74818 21.9558C5.28937 22 5.95372 22 6.75868 22H17.2413C18.0463 22 18.7106 22 19.2518 21.9558C19.8139 21.9099 20.3306 21.8113 20.816 21.564C21.5686 21.1805 22.1805 20.5686 22.564 19.816C22.8113 19.3306 22.9099 18.8139 22.9558 18.2518C23 17.7106 23 17.0463 23 16.2413V7.75868C23 6.95372 23 6.28937 22.9558 5.74818C22.9099 5.18608 22.8113 4.66937 22.564 4.18404C22.1805 3.43139 21.5686 2.81947 20.816 2.43598C20.3306 2.18868 19.8139 2.09012 19.2518 2.04419C18.7106 1.99998 18.0463 1.99999 17.2413 2ZM4.09202 4.21799C4.24842 4.1383 4.47262 4.07337 4.91104 4.03755C5.36113 4.00078 5.94342 4 6.8 4H17.2C18.0566 4 18.6389 4.00078 19.089 4.03755C19.5274 4.07337 19.7516 4.1383 19.908 4.21799C20.2843 4.40973 20.5903 4.7157 20.782 5.09202C20.8617 5.24842 20.9266 5.47262 20.9624 5.91104C20.9992 6.36113 21 6.94342 21 7.8V16.2C21 17.0566 20.9992 17.6389 20.9624 18.089C20.9266 18.5274 20.8617 18.7516 20.782 18.908C20.5903 19.2843 20.2843 19.5903 19.908 19.782C19.7516 19.8617 19.5274 19.9266 19.089 19.9624C18.6389 19.9992 18.0566 20 17.2 20H6.8C5.94342 20 5.36113 19.9992 4.91104 19.9624C4.47262 19.9266 4.24842 19.8617 4.09202 19.782C3.7157 19.5903 3.40973 19.2843 3.21799 18.908C3.1383 18.7516 3.07337 18.5274 3.03755 18.089C3.00078 17.6389 3 17.0566 3 16.2V7.8C3 6.94342 3.00078 6.36113 3.03755 5.91104C3.07337 5.47262 3.1383 5.24842 3.21799 5.09202C3.40973 4.7157 3.7157 4.40973 4.09202 4.21799Z"
        fill="#303233" />
</svg>
