<svg width="16" height="16" viewBox="0 0 16 16" fill="none" xmlns="http://www.w3.org/2000/svg">
    <path
        d="M8 7.70002C9.05733 7.70002 10.0726 7.88035 11.0166 8.21193C11.048 8.22295 11.0637 8.22846 11.0884 8.23937C11.3128 8.33825 11.4851 8.58143 11.5041 8.82592C11.5062 8.85289 11.5062 8.87679 11.5062 8.92458C11.5062 9.08751 11.5062 9.16898 11.5129 9.23759C11.5785 9.90201 12.1042 10.4276 12.7686 10.4932C12.8372 10.5 12.9187 10.5 13.0816 10.5H13.2531C13.5755 10.5 13.7367 10.5 13.8708 10.4736C14.428 10.3637 14.8637 9.92806 14.9736 9.37078C15 9.23669 15 9.0755 15 8.7531V8.61439C15 8.2817 15 8.11535 14.9645 7.92469C14.885 7.49832 14.5753 6.97081 14.2416 6.69373C14.0924 6.56983 13.9912 6.51338 13.7889 6.40049C12.0754 5.44467 10.1013 4.90002 8 4.90002C5.89868 4.90002 3.92458 5.44467 2.21114 6.40049C2.00877 6.51338 1.90758 6.56983 1.75838 6.69373C1.42472 6.97081 1.11495 7.49832 1.03552 7.92469C1 8.11535 1 8.2817 1 8.61439V8.7531C1 9.0755 1 9.23669 1.02643 9.37078C1.13628 9.92806 1.57196 10.3637 2.12925 10.4736C2.26333 10.5 2.42453 10.5 2.74692 10.5H2.9184C3.08133 10.5 3.16279 10.5 3.23141 10.4932C3.89582 10.4276 4.42146 9.90201 4.48706 9.23759C4.49384 9.16898 4.49384 9.08752 4.49384 8.9246C4.49384 8.8768 4.49384 8.85289 4.49593 8.82592C4.51486 8.58143 4.68718 8.33825 4.91158 8.23937C4.93634 8.22846 4.95204 8.22295 4.98342 8.21193C5.92745 7.88035 6.94267 7.70002 8 7.70002Z"
        fill="#303233" />
</svg>
