<svg width="16" height="16" viewBox="0 0 16 16" fill="none" xmlns="http://www.w3.org/2000/svg">
    <g clip-path="url(#clip0_53_4991)">
        <path fill-rule="evenodd" clip-rule="evenodd"
            d="M0.75 8C0.75 3.99594 3.99594 0.75 8 0.75C12.0041 0.75 15.25 3.99594 15.25 8C15.25 9.49117 14.0412 10.7 12.55 10.7H12.225C11.8993 10.7 11.8091 10.7016 11.7434 10.7103C11.2049 10.7812 10.7812 11.2049 10.7103 11.7434C10.7016 11.8091 10.7 11.8993 10.7 12.225V12.55C10.7 14.0412 9.49117 15.25 8 15.25C3.99594 15.25 0.75 12.0041 0.75 8ZM5.3 4.75C5.3 3.9768 5.9268 3.35 6.7 3.35C7.4732 3.35 8.1 3.9768 8.1 4.75C8.1 5.5232 7.4732 6.15 6.7 6.15C5.9268 6.15 5.3 5.5232 5.3 4.75ZM9.2 5.4C9.2 4.6268 9.8268 4 10.6 4C11.3732 4 12 4.6268 12 5.4C12 6.1732 11.3732 6.8 10.6 6.8C9.8268 6.8 9.2 6.1732 9.2 5.4ZM3.35 8C3.35 7.2268 3.9768 6.6 4.75 6.6C5.5232 6.6 6.15 7.2268 6.15 8C6.15 8.7732 5.5232 9.4 4.75 9.4C3.9768 9.4 3.35 8.7732 3.35 8Z"
            fill="#303233" />
    </g>
    <defs>
        <clipPath id="clip0_53_4991">
            <rect width="16" height="16" fill="white" />
        </clipPath>
    </defs>
</svg>
