<svg width="24" height="24" viewBox="0 0 24 24" fill="none" xmlns="http://www.w3.org/2000/svg">
    <path fill-rule="evenodd" clip-rule="evenodd"
        d="M16.5 2.25C16.9142 2.25 17.25 2.58579 17.25 3V21C17.25 21.4142 16.9142 21.75 16.5 21.75C16.0858 21.75 15.75 21.4142 15.75 21V3C15.75 2.58579 16.0858 2.25 16.5 2.25ZM12 5.25C12.4142 5.25 12.75 5.58579 12.75 6V18C12.75 18.4142 12.4142 18.75 12 18.75C11.5858 18.75 11.25 18.4142 11.25 18V6C11.25 5.58579 11.5858 5.25 12 5.25ZM3 9.25C3.41421 9.25 3.75 9.58579 3.75 10L3.75 14C3.75 14.4142 3.41421 14.75 3 14.75C2.58579 14.75 2.25 14.4142 2.25 14L2.25 10C2.25 9.58579 2.58579 9.25 3 9.25ZM21 9.25C21.4142 9.25 21.75 9.58579 21.75 10V14C21.75 14.4142 21.4142 14.75 21 14.75C20.5858 14.75 20.25 14.4142 20.25 14V10C20.25 9.58579 20.5858 9.25 21 9.25ZM7.5 10.25C7.91421 10.25 8.25 10.5858 8.25 11V13C8.25 13.4142 7.91421 13.75 7.5 13.75C7.08579 13.75 6.75 13.4142 6.75 13V11C6.75 10.5858 7.08579 10.25 7.5 10.25Z"
        fill="#303233" />
</svg>
