<svg width="16" height="16" viewBox="0 0 16 16" fill="none" xmlns="http://www.w3.org/2000/svg">
    <path
        d="M8 1.25C8.41421 1.25 8.75 1.58579 8.75 2V8.18918L10.8028 6.13634C11.0957 5.84345 11.5706 5.84345 11.8635 6.13634C12.1564 6.42923 12.1564 6.90411 11.8635 7.197L8.53946 10.521C8.40616 10.659 8.22042 10.746 8.01435 10.7499L7.99984 10.75C7.98878 10.75 7.97774 10.7498 7.96674 10.7493C7.83111 10.7434 7.70482 10.7014 7.59722 10.6328C7.55139 10.6036 7.50852 10.5693 7.46951 10.5303L4.13617 7.197C3.84328 6.90411 3.84328 6.42923 4.13617 6.13634C4.42907 5.84345 4.90394 5.84345 5.19683 6.13634L7.25 8.18951V2C7.25 1.58579 7.58579 1.25 8 1.25Z"
        fill="#303233" />
    <path
        d="M14.25 12C14.25 11.5858 13.9142 11.25 13.5 11.25C13.0858 11.25 12.75 11.5858 12.75 12C12.75 12.4142 12.4142 12.75 12 12.75H4C3.58579 12.75 3.25 12.4142 3.25 12C3.25 11.5858 2.91421 11.25 2.5 11.25C2.08579 11.25 1.75 11.5858 1.75 12C1.75 13.2426 2.75736 14.25 4 14.25H12C13.2426 14.25 14.25 13.2426 14.25 12Z"
        fill="#303233" />
</svg>
