<svg width="24" height="24" viewBox="0 0 24 24" fill="none" xmlns="http://www.w3.org/2000/svg">
    <path fill-rule="evenodd" clip-rule="evenodd"
        d="M12 5.75C7.44365 5.75 3.75 9.44365 3.75 14C3.75 18.5563 7.44365 22.25 12 22.25C16.5563 22.25 20.25 18.5563 20.25 14C20.25 9.44365 16.5563 5.75 12 5.75ZM2.25 14C2.25 8.61522 6.61522 4.25 12 4.25C17.3848 4.25 21.75 8.61522 21.75 14C21.75 19.3848 17.3848 23.75 12 23.75C6.61522 23.75 2.25 19.3848 2.25 14Z"
        fill="#303233" />
    <path fill-rule="evenodd" clip-rule="evenodd"
        d="M9.25 2C9.25 1.58579 9.58579 1.25 10 1.25H14C14.4142 1.25 14.75 1.58579 14.75 2C14.75 2.41421 14.4142 2.75 14 2.75H10C9.58579 2.75 9.25 2.41421 9.25 2Z"
        fill="#303233" />
    <path fill-rule="evenodd" clip-rule="evenodd"
        d="M19.2478 4.27728C19.5407 3.98439 20.0156 3.98439 20.3085 4.27728L21.7227 5.6915C22.0156 5.98439 22.0156 6.45926 21.7227 6.75216C21.4298 7.04505 20.955 7.04505 20.6621 6.75216L19.2478 5.33794C18.955 5.04505 18.955 4.57018 19.2478 4.27728Z"
        fill="#303233" />
    <path d="M16.9497 9.05025C15.683 7.7835 13.933 7 12 7V14L16.9497 9.05025Z" fill="#303233" />
</svg>
