<svg width="16" height="16" viewBox="0 0 16 16" fill="none" xmlns="http://www.w3.org/2000/svg">
    <path
        d="M3.11803 1.92907C3.355 1.78729 3.43216 1.48025 3.29038 1.24328C3.1486 1.00632 2.84157 0.929154 2.6046 1.07093C1.59739 1.67356 0.988978 2.80609 1.00015 4.00466C1.00273 4.28079 1.22866 4.50255 1.50479 4.49997C1.78092 4.4974 2.00268 4.27147 2.00011 3.99533C1.99206 3.13227 2.43187 2.33961 3.11803 1.92907Z"
        fill="#303233" />
    <path
        d="M13.3954 1.07094C13.1584 0.929159 12.8514 1.00632 12.7096 1.24329C12.5678 1.48025 12.645 1.78729 12.882 1.92907C13.5681 2.33961 14.0079 3.13228 13.9999 3.99534C13.9973 4.27147 14.2191 4.4974 14.4952 4.49998C14.7713 4.50255 14.9973 4.28079 14.9998 4.00466C15.011 2.80609 14.4026 1.67356 13.3954 1.07094Z"
        fill="#303233" />
    <path fill-rule="evenodd" clip-rule="evenodd"
        d="M4.73878 2.31286C5.60614 1.47064 6.7795 1 7.99998 1C9.22046 1 10.3938 1.47064 11.2612 2.31286C12.1291 3.15556 12.6194 4.3017 12.6194 5.5C12.6194 7.46836 13.1293 8.78458 13.6735 9.63384L13.6797 9.64351C13.9266 10.0287 14.1194 10.3296 14.2487 10.5475C14.3134 10.6566 14.3699 10.7575 14.4107 10.8448C14.4311 10.8884 14.4526 10.939 14.469 10.9925C14.4828 11.0377 14.5071 11.1279 14.498 11.2358C14.4908 11.3205 14.4739 11.4497 14.3989 11.5807C14.3246 11.7106 14.2226 11.791 14.1543 11.8401C14.0219 11.9355 13.8659 11.9583 13.8036 11.9672C13.7133 11.9802 13.607 11.9871 13.4933 11.9914C13.2671 12 12.9517 12 12.5516 12H3.44841C3.04832 12 2.73283 12 2.50665 11.9914C2.39299 11.9871 2.28671 11.9802 2.19632 11.9672C2.13406 11.9583 1.97808 11.9355 1.84562 11.8401C1.77741 11.791 1.67536 11.7106 1.60106 11.5807C1.52609 11.4497 1.50912 11.3205 1.50199 11.2358C1.4929 11.1279 1.51712 11.0377 1.53098 10.9925C1.54739 10.939 1.56886 10.8884 1.58924 10.8448C1.63007 10.7575 1.68654 10.6566 1.75129 10.5475C1.8806 10.3296 2.07332 10.0289 2.3202 9.64362L2.32648 9.63383C2.8707 8.78458 3.38053 7.46836 3.38053 5.5C3.38053 4.3017 3.87091 3.15556 4.73878 2.31286ZM7.99998 2C7.03537 2 6.11313 2.37222 5.4354 3.03029C4.75818 3.68788 4.38053 4.57657 4.38053 5.5C4.38053 7.65188 3.81995 9.1567 3.16843 10.1734C2.93932 10.5309 2.76784 10.7986 2.64876 10.9953C2.84616 10.9999 3.11143 11 3.46093 11H12.539C12.8885 11 13.1538 10.9999 13.3512 10.9953C13.2321 10.7986 13.0606 10.5309 12.8315 10.1734C12.18 9.1567 11.6194 7.65188 11.6194 5.5C11.6194 4.57657 11.2418 3.68788 10.5646 3.03029C9.88683 2.37222 8.96459 2 7.99998 2Z"
        fill="#303233" />
    <path
        d="M10.3762 13.9206C10.5581 14.1283 10.5372 14.4442 10.3294 14.6262C9.70839 15.17 8.89215 15.5 8.00001 15.5C7.10787 15.5 6.29163 15.17 5.6706 14.6262C5.46286 14.4442 5.44193 14.1283 5.62385 13.9206C5.80578 13.7129 6.12167 13.6919 6.32941 13.8739C6.77442 14.2636 7.35849 14.5 8.00001 14.5C8.64152 14.5 9.22559 14.2636 9.6706 13.8739C9.87835 13.6919 10.1942 13.7129 10.3762 13.9206Z"
        fill="#303233" />
</svg>
