<svg width="16" height="16" viewBox="0 0 16 16" fill="none" xmlns="http://www.w3.org/2000/svg">
    <path fill-rule="evenodd" clip-rule="evenodd"
        d="M4.6786 1.5H11.3214C11.8633 1.5 12.3004 1.49999 12.6543 1.52891C13.0187 1.55868 13.3388 1.62159 13.635 1.77249C14.1054 2.01217 14.4878 2.39462 14.7275 2.86503C14.8784 3.16117 14.9413 3.48127 14.9711 3.8457C15 4.19964 15 4.63671 15 5.17858V7C15 7.27614 14.7761 7.5 14.5 7.5C14.2239 7.5 14 7.27614 14 7V6.5H2V10.8C2 11.3683 2.00039 11.7645 2.02559 12.0729C2.05031 12.3755 2.0964 12.5493 2.16349 12.681C2.3073 12.9632 2.53677 13.1927 2.81901 13.3365C2.95069 13.4036 3.12454 13.4497 3.42712 13.4744C3.73554 13.4996 4.1317 13.5 4.7 13.5H8C8.27614 13.5 8.5 13.7239 8.5 14C8.5 14.2761 8.27614 14.5 8 14.5H4.67863C4.13672 14.5 3.69963 14.5 3.34569 14.4711C2.98126 14.4413 2.66117 14.3784 2.36502 14.2275C1.89462 13.9878 1.51217 13.6054 1.27248 13.135C1.12159 12.8388 1.05868 12.5187 1.02891 12.1543C0.999991 11.8004 0.999995 11.3633 1 10.8214V5.1786C0.999995 4.6367 0.999991 4.19963 1.02891 3.84569C1.05868 3.48126 1.12159 3.16117 1.27248 2.86502C1.51217 2.39462 1.89462 2.01217 2.36502 1.77248C2.66117 1.62159 2.98126 1.55868 3.34569 1.52891C3.69963 1.49999 4.1367 1.5 4.6786 1.5ZM2 5.5H14V5.2C14 4.63171 13.9996 4.23555 13.9744 3.92713C13.9497 3.62454 13.9036 3.45069 13.8365 3.31902C13.6927 3.03677 13.4632 2.8073 13.181 2.66349C13.0493 2.5964 12.8755 2.55031 12.5729 2.52559C12.2645 2.50039 11.8683 2.5 11.3 2.5H4.7C4.1317 2.5 3.73554 2.50039 3.42712 2.52559C3.12454 2.55031 2.95069 2.5964 2.81901 2.66349C2.53677 2.8073 2.3073 3.03677 2.16349 3.31901C2.0964 3.45069 2.05031 3.62454 2.02559 3.92712C2.00039 4.23554 2 4.6317 2 5.2V5.5ZM11.9174 10.2103L14.2897 12.5826C14.424 12.335 14.5 12.0516 14.5 11.75C14.5 10.7835 13.7165 10 12.75 10C12.4484 10 12.165 10.076 11.9174 10.2103ZM13.5826 13.2897L11.2103 10.9174C11.076 11.165 11 11.4484 11 11.75C11 12.7165 11.7835 13.5 12.75 13.5C13.0516 13.5 13.335 13.424 13.5826 13.2897ZM10.8055 9.80546C11.3026 9.30835 11.9907 9 12.75 9C14.2688 9 15.5 10.2312 15.5 11.75C15.5 12.5093 15.1916 13.1974 14.6945 13.6945C14.1974 14.1916 13.5093 14.5 12.75 14.5C11.2312 14.5 10 13.2688 10 11.75C10 10.9907 10.3084 10.3026 10.8055 9.80546Z"
        fill="#303233" />
</svg>
