<svg width="16" height="16" viewBox="0 0 16 16" fill="none" xmlns="http://www.w3.org/2000/svg">
    <g clip-path="url(#clip0_53_4594)">
        <path fill-rule="evenodd" clip-rule="evenodd"
            d="M8 0.75C7.80109 0.75 7.61032 0.829018 7.46967 0.96967C7.32902 1.11032 7.25 1.30109 7.25 1.5V8.00151C7.25 8.41573 7.58579 8.75151 8 8.75151H14.4999C14.9141 8.75151 15.2499 8.41573 15.2499 8.00151C15.2499 7.04926 15.0624 6.10632 14.6981 5.22654C14.3338 4.34676 13.7997 3.54736 13.1265 2.87398C12.4533 2.20061 11.6541 1.66645 10.7745 1.30201C9.89487 0.937576 8.9521 0.75 8 0.75ZM8.75 7.25151V2.29914C9.24728 2.36458 9.73495 2.49497 10.2003 2.68778C10.8979 2.97681 11.5318 3.40045 12.0657 3.93451C12.5997 4.46858 13.0232 5.10263 13.3122 5.80044C13.505 6.26605 13.6354 6.75397 13.7008 7.25151H8.75Z"
            fill="#303233" />
        <path
            d="M5.70025 2.72701C6.07987 2.5613 6.25329 2.11923 6.08759 1.7396C5.92188 1.35998 5.47981 1.18656 5.10018 1.35226C4.01477 1.82603 3.06193 2.55854 2.32495 3.48572C1.58798 4.4129 1.08931 5.50653 0.872518 6.67099C0.65573 7.83544 0.727424 9.03529 1.08133 10.1656C1.43524 11.296 2.0606 12.3224 2.90274 13.1552C3.74489 13.988 4.77818 14.6018 5.91229 14.9429C7.04641 15.2839 8.24679 15.342 9.4085 15.1118C10.5702 14.8817 11.6579 14.3704 12.5763 13.6227C13.4948 12.875 14.2162 11.9136 14.6774 10.8226C14.8387 10.4411 14.6602 10.0011 14.2786 9.8398C13.8971 9.67852 13.4571 9.85705 13.2958 10.2386C12.93 11.1039 12.3578 11.8664 11.6294 12.4594C10.9009 13.0524 10.0383 13.4579 9.117 13.6404C8.1957 13.8229 7.24373 13.7769 6.34431 13.5064C5.44488 13.2359 4.62538 12.7491 3.95746 12.0886C3.28954 11.4281 2.79352 10.614 2.51281 9.71744C2.23209 8.82087 2.17523 7.86916 2.34718 6.94553C2.51913 6.02189 2.91467 5.15446 3.4992 4.41908C4.08372 3.68369 4.83943 3.10274 5.70025 2.72701Z"
            fill="#303233" />
    </g>
    <defs>
        <clipPath id="clip0_53_4594">
            <rect width="16" height="16" fill="white" />
        </clipPath>
    </defs>
</svg>
