<svg width="16" height="16" viewBox="0 0 16 16" fill="none" xmlns="http://www.w3.org/2000/svg">
    <path fill-rule="evenodd" clip-rule="evenodd"
        d="M14.8536 1.85355C15.0488 1.65829 15.0488 1.34171 14.8536 1.14645C14.6583 0.951184 14.3417 0.951184 14.1464 1.14645L4.72076 10.5721C4.72063 10.5723 4.72089 10.572 4.72076 10.5721C4.72063 10.5723 4.72013 10.5728 4.72 10.5729L1.14645 14.1464C0.951184 14.3417 0.951184 14.6583 1.14645 14.8536C1.34171 15.0488 1.65829 15.0488 1.85355 14.8536L5.08019 11.6269C6.73519 13.1685 8.67644 14.2307 10.7254 14.8122L10.7568 14.8211C11.1253 14.9258 11.3827 14.9989 11.7406 15C12.147 15.0012 12.6654 14.8664 13.0198 14.6673C13.3321 14.4919 13.563 14.2608 13.8968 13.9268L14.1024 13.7214C14.4178 13.4064 14.6579 13.1666 14.7957 12.8941C15.0681 12.3557 15.0681 11.7198 14.7957 11.1813C14.6579 10.9088 14.4178 10.669 14.1024 10.3541L13.8715 10.1233C13.6642 9.91573 13.5067 9.75811 13.3389 9.64898C12.71 9.24009 11.8992 9.24009 11.2703 9.64898C11.1025 9.75811 10.945 9.91572 10.7376 10.1233L10.7001 10.1609C10.6096 10.2514 10.6018 10.257 10.596 10.2612C10.5549 10.2906 10.4733 10.3045 10.4247 10.2904C10.4216 10.2894 10.4171 10.2881 10.4033 10.2821C10.3851 10.2742 10.3619 10.2632 10.3154 10.2408C9.49557 9.8472 8.71919 9.33169 8.01328 8.69383L14.8536 1.85355ZM7.30535 9.40176L5.78778 10.9193C7.31847 12.3374 9.10918 13.314 10.9985 13.8502C11.4018 13.9647 11.5344 13.9994 11.7436 14C11.9774 14.0007 12.3261 13.91 12.53 13.7955C12.709 13.6949 12.8427 13.5668 13.228 13.1814L13.3382 13.0713C13.7373 12.6722 13.8477 12.5529 13.9034 12.4428C14.0322 12.1881 14.0322 11.8873 13.9034 11.6327C13.8477 11.5226 13.7373 11.4033 13.3382 11.0042L13.202 10.868C12.9397 10.6057 12.8616 10.5314 12.7938 10.4874C12.4963 10.294 12.1129 10.294 11.8154 10.4874C11.7476 10.5314 11.6695 10.6057 11.4072 10.868L11.392 10.8832C11.3273 10.948 11.2594 11.0161 11.1782 11.0742C10.8876 11.2823 10.4881 11.3505 10.1449 11.2504C10.0493 11.2225 9.97103 11.1849 9.89775 11.1496L9.88259 11.1423C8.96268 10.7006 8.0931 10.1203 7.30535 9.40176Z"
        fill="#303233" />
    <path
        d="M3.55722 2.09661C3.8119 1.9678 4.11266 1.9678 4.36733 2.09661C4.4774 2.15228 4.59673 2.26272 4.99585 2.66184L5.13201 2.798C5.39434 3.06033 5.46856 3.13843 5.51264 3.20623C5.70604 3.50368 5.70604 3.88715 5.51264 4.1846C5.46856 4.2524 5.39434 4.33049 5.13201 4.59282L5.11683 4.60798C5.05201 4.67265 4.98395 4.74057 4.9258 4.82177C4.71766 5.11245 4.64955 5.51189 4.7496 5.85512C4.77747 5.95072 4.81514 6.02898 4.85041 6.10227L4.85769 6.11741C4.95963 6.32972 5.06895 6.53936 5.18568 6.74595C5.32151 6.98638 5.62653 7.07116 5.86695 6.93532C6.10738 6.79949 6.19216 6.49447 6.05633 6.25405C5.95057 6.06687 5.85152 5.87694 5.75917 5.68459C5.73684 5.63807 5.7258 5.61491 5.7179 5.59673C5.71191 5.58294 5.71055 5.5784 5.70964 5.57527C5.69549 5.52672 5.70941 5.44508 5.73885 5.40396C5.743 5.39817 5.74863 5.39041 5.83911 5.29993L5.87671 5.26236C6.08427 5.055 6.24189 4.89754 6.35102 4.72969C6.75991 4.10079 6.75991 3.29003 6.35102 2.66113C6.24188 2.49328 6.08427 2.33582 5.87669 2.12845L5.64592 1.89764C5.33099 1.58225 5.09119 1.3421 4.81868 1.20426C4.28022 0.931913 3.64433 0.931913 3.10587 1.20426C2.83336 1.3421 2.59356 1.58225 2.27864 1.89764L2.07316 2.10315C1.73916 2.43696 1.50813 2.66786 1.33268 2.9802C1.13362 3.33456 0.998798 3.85298 1.00001 4.25943C1.00107 4.61727 1.07419 4.8747 1.17887 5.24324L1.18777 5.27458C1.56325 6.59748 2.13912 7.87572 2.91537 9.06123C3.06664 9.29225 3.37655 9.3569 3.60757 9.20563C3.8386 9.05436 3.90325 8.74445 3.75198 8.51343C3.03216 7.41411 2.49809 6.22874 2.14977 5.00153C2.03531 4.59824 2.00063 4.46562 2 4.25645C1.99931 4.02256 2.08998 3.67388 2.20453 3.46996C2.30508 3.29097 2.43321 3.15734 2.81856 2.77198L2.9287 2.66184C3.32782 2.26272 3.44715 2.15228 3.55722 2.09661Z"
        fill="#303233" />
</svg>
