<svg width="24" height="24" viewBox="0 0 24 24" fill="none" xmlns="http://www.w3.org/2000/svg">
    <path
        d="M14.25 3C14.25 2.58579 14.5858 2.25 15 2.25H19C19.7293 2.25 20.4288 2.53973 20.9445 3.05546C21.4603 3.57118 21.75 4.27065 21.75 5V19C21.75 19.7293 21.4603 20.4288 20.9445 20.9445C20.4288 21.4603 19.7293 21.75 19 21.75H15C14.5858 21.75 14.25 21.4142 14.25 21C14.25 20.5858 14.5858 20.25 15 20.25H19C19.3315 20.25 19.6495 20.1183 19.8839 19.8839C20.1183 19.6495 20.25 19.3315 20.25 19V5C20.25 4.66848 20.1183 4.35054 19.8839 4.11612C19.6495 3.8817 19.3315 3.75 19 3.75H15C14.5858 3.75 14.25 3.41421 14.25 3Z"
        fill="#303233" />
    <path
        d="M9.46967 6.46967C9.76256 6.17678 10.2374 6.17678 10.5303 6.46967L15.5303 11.4697C15.6768 11.6161 15.75 11.8081 15.75 12C15.75 12.1017 15.7298 12.1987 15.6931 12.2871C15.6565 12.3755 15.6022 12.4584 15.5303 12.5303L10.5303 17.5303C10.2374 17.8232 9.76256 17.8232 9.46967 17.5303C9.17678 17.2374 9.17678 16.7626 9.46967 16.4697L13.1893 12.75H3C2.58579 12.75 2.25 12.4142 2.25 12C2.25 11.5858 2.58579 11.25 3 11.25H13.1893L9.46967 7.53033C9.17678 7.23744 9.17678 6.76256 9.46967 6.46967Z"
        fill="#303233" />
</svg>
