<svg width="24" height="24" viewBox="0 0 24 24" fill="none" xmlns="http://www.w3.org/2000/svg">
    <path
        d="M9 8C9 7.44772 8.55228 7 8 7C7.44772 7 7 7.44772 7 8V13C7 13.5523 7.44772 14 8 14C8.55228 14 9 13.5523 9 13V8Z"
        fill="#303233" />
    <path
        d="M16 7C16.5523 7 17 7.44772 17 8V13C17 13.5523 16.5523 14 16 14C15.4477 14 15 13.5523 15 13V8C15 7.44772 15.4477 7 16 7Z"
        fill="#303233" />
    <path
        d="M13 7C13 6.44772 12.5523 6 12 6C11.4477 6 11 6.44772 11 7V15.5C11 16.0523 11.4477 16.5 12 16.5C12.5523 16.5 13 16.0523 13 15.5V7Z"
        fill="#303233" />
    <path fill-rule="evenodd" clip-rule="evenodd"
        d="M17.5126 2.99924C13.9584 1.66639 10.0416 1.66639 6.48736 2.99924L4.94663 3.57701C3.77572 4.0161 3 5.13546 3 6.386V12C3 14.9647 4.69041 17.413 6.44951 19.1698C8.22373 20.9418 10.2032 22.1474 11.0745 22.6369C11.6531 22.962 12.3469 22.962 12.9255 22.6369C13.7968 22.1474 15.7763 20.9418 17.5505 19.1698C19.3096 17.413 21 14.9647 21 12V6.386C21 5.13546 20.2243 4.0161 19.0534 3.57701L17.5126 2.99924ZM7.18961 4.87189C10.2911 3.70884 13.7089 3.70884 16.8104 4.87189L18.3511 5.44967C18.7414 5.59603 19 5.96915 19 6.386V12C19 14.1858 17.7429 16.1511 16.1372 17.7547C14.5816 19.3083 12.8231 20.3962 12 20.8627C11.1769 20.3962 9.41841 19.3083 7.86281 17.7547C6.25709 16.1511 5 14.1858 5 12V6.386C5 5.96915 5.25857 5.59603 5.64888 5.44967L7.18961 4.87189Z"
        fill="#303233" />
</svg>
