<svg width="16" height="16" viewBox="0 0 16 16" fill="none" xmlns="http://www.w3.org/2000/svg">
    <path fill-rule="evenodd" clip-rule="evenodd"
        d="M2.1204 8C2.69277 8.70548 3.52219 9.20408 4.49651 9.53968C4.67003 9.59944 4.84724 9.65371 5.02729 9.70283C4.95061 9.12994 4.91153 8.55864 4.90011 8.01041C4.89996 8.00347 4.89996 7.99653 4.90011 7.98959C4.91153 7.44136 4.95061 6.87006 5.02729 6.29717C4.84724 6.34629 4.67003 6.40056 4.49652 6.46032C3.52219 6.79592 2.69277 7.29452 2.1204 8ZM6.07178 6.07178C5.96645 6.71227 5.91373 7.36658 5.90011 8C5.91373 8.63343 5.96646 9.28773 6.07178 9.92822C6.71227 10.0335 7.36658 10.0863 8 10.0999C8.63343 10.0863 9.28773 10.0335 9.92822 9.92822C10.0335 9.28773 10.0863 8.63342 10.0999 8C10.0863 7.36657 10.0335 6.71227 9.92822 6.07178C9.28773 5.96645 8.63342 5.91373 8 5.90011C7.36657 5.91373 6.71227 5.96645 6.07178 6.07178ZM9.70283 5.02729C9.12994 4.95061 8.55864 4.91153 8.01041 4.90011C8.00347 4.89996 7.99653 4.89996 7.98959 4.90011C7.44136 4.91153 6.87006 4.95061 6.29717 5.02729C6.34629 4.84724 6.40056 4.67003 6.46032 4.49652C6.79592 3.52219 7.29452 2.69277 8 2.1204C8.70548 2.69277 9.20408 3.52219 9.53968 4.49651C9.59944 4.67003 9.65371 4.84724 9.70283 5.02729ZM10.9727 6.29717C11.0494 6.87006 11.0885 7.44136 11.0999 7.98958C11.1 7.99653 11.1 8.00347 11.0999 8.01041C11.0885 8.55864 11.0494 9.12994 10.9727 9.70283C11.1528 9.65371 11.33 9.59944 11.5035 9.53968C12.4778 9.20408 13.3072 8.70547 13.8796 8C13.3072 7.29452 12.4778 6.79592 11.5035 6.46032C11.33 6.40056 11.1528 6.34629 10.9727 6.29717ZM13.8266 9.43774C13.2344 9.8977 12.5479 10.2376 11.8291 10.4852C11.488 10.6027 11.1367 10.7004 10.7808 10.7808C10.7004 11.1367 10.6027 11.488 10.4852 11.8291C10.2376 12.5479 9.89771 13.2344 9.43774 13.8266C11.5965 13.2958 13.2958 11.5965 13.8266 9.43774ZM8 13.8796C8.70548 13.3072 9.20408 12.4778 9.53968 11.5035C9.59944 11.33 9.65371 11.1528 9.70283 10.9727C9.12994 11.0494 8.55864 11.0885 8.01041 11.0999C8.00347 11.1 7.99653 11.1 7.98959 11.0999C7.44136 11.0885 6.87006 11.0494 6.29718 10.9727C6.34629 11.1528 6.40056 11.33 6.46032 11.5035C6.79592 12.4778 7.29453 13.3072 8 13.8796ZM5.21919 10.7808C4.86326 10.7004 4.51204 10.6027 4.17085 10.4852C3.45208 10.2376 2.76557 9.8977 2.17336 9.43774C2.70424 11.5965 4.40351 13.2958 6.56226 13.8266C6.1023 13.2344 5.76241 12.5479 5.51484 11.8291C5.39732 11.488 5.2996 11.1367 5.21919 10.7808ZM2.17336 6.56226C2.76557 6.1023 3.45208 5.76241 4.17085 5.51484C4.51203 5.39732 4.86326 5.29959 5.21919 5.21919C5.29959 4.86326 5.39732 4.51203 5.51484 4.17085C5.76241 3.45208 6.1023 2.76557 6.56226 2.17336C4.40351 2.70424 2.70424 4.40351 2.17336 6.56226ZM9.43774 2.17336C9.8977 2.76557 10.2376 3.45208 10.4852 4.17085C10.6027 4.51203 10.7004 4.86326 10.7808 5.21919C11.1367 5.29959 11.488 5.39732 11.8291 5.51484C12.5479 5.76241 13.2344 6.1023 13.8266 6.56227C13.2958 4.40351 11.5965 2.70424 9.43774 2.17336ZM1 8C1 4.13401 4.13401 1 8 1C11.866 1 15 4.13401 15 8C15 11.866 11.866 15 8 15C4.13401 15 1 11.866 1 8Z"
        fill="#303233" />
</svg>
