<svg width="24" height="24" viewBox="0 0 24 24" fill="none" xmlns="http://www.w3.org/2000/svg">
    <path fill-rule="evenodd" clip-rule="evenodd"
        d="M18.307 7.49662C16.0168 4.28054 11.6128 3.27383 8.12392 5.28814C5.89332 6.57598 4.54465 8.80462 4.29113 11.1864C4.24728 11.5983 3.87784 11.8966 3.46596 11.8528C3.05407 11.809 2.75571 11.4395 2.79955 11.0276C3.10164 8.1896 4.71054 5.5268 7.37392 3.9891C11.544 1.58149 16.8096 2.78993 19.5397 6.64155L19.7813 5.7399C19.8885 5.3398 20.2997 5.10236 20.6998 5.20957C21.0999 5.31677 21.3374 5.72803 21.2301 6.12813L20.4981 8.86018C20.4466 9.05231 20.3209 9.21613 20.1487 9.31558C19.9764 9.41504 19.7717 9.44199 19.5795 9.39051L16.8475 8.65846C16.4474 8.55125 16.21 8.14 16.3172 7.7399C16.4244 7.3398 16.8356 7.10236 17.2357 7.20957L18.307 7.49662ZM20.5316 12.1473C20.9435 12.1911 21.2418 12.5605 21.198 12.9724C20.8959 15.8105 19.287 18.4733 16.6236 20.011C12.4537 22.4185 7.18846 21.2102 4.45827 17.3591L4.21682 18.2602C4.10961 18.6603 3.69836 18.8977 3.29826 18.7905C2.89816 18.6833 2.66072 18.272 2.76793 17.8719L3.49998 15.1399C3.60719 14.7398 4.01844 14.5024 4.41854 14.6096L7.15059 15.3416C7.55069 15.4488 7.78813 15.8601 7.68092 16.2602C7.57371 16.6603 7.16246 16.8977 6.76236 16.7905L5.6904 16.5033C7.98053 19.7195 12.3847 20.7263 15.8736 18.7119C18.1042 17.4241 19.4529 15.1954 19.7064 12.8137C19.7502 12.4018 20.1197 12.1034 20.5316 12.1473Z"
        fill="#303233" />
</svg>
