<svg width="16" height="16" viewBox="0 0 16 16" fill="none" xmlns="http://www.w3.org/2000/svg">
    <path fill-rule="evenodd" clip-rule="evenodd"
        d="M1.80548 13.2748C1.80906 13.2668 1.81263 13.2588 1.8162 13.2509L6.84199 2.08244C6.90973 1.93182 6.97979 1.77604 7.04869 1.65362C7.11218 1.5408 7.25151 1.3077 7.52152 1.1742C7.82413 1.02458 8.1792 1.02458 8.48181 1.1742C8.75182 1.3077 8.89115 1.5408 8.95464 1.65362C9.02354 1.77604 9.0936 1.93182 9.16134 2.08243L14.1962 13.2709C14.2658 13.4255 14.3372 13.5842 14.3839 13.719C14.4263 13.8414 14.5107 14.1051 14.4285 14.3996C14.3369 14.7279 14.0962 14.9938 13.7788 15.1177C13.4939 15.2288 13.2232 15.1711 13.0971 15.1411C12.9583 15.1081 12.7933 15.0528 12.6325 14.9989L8.02639 13.4569L3.39077 14.9955C3.38252 14.9983 3.37425 15.001 3.36597 15.0038C3.20558 15.0571 3.04079 15.1118 2.90218 15.1444C2.77608 15.1741 2.50581 15.2308 2.22165 15.1194C1.90479 14.9951 1.66475 14.7292 1.57352 14.4013C1.49169 14.1072 1.57579 13.8441 1.6182 13.7217C1.6648 13.5872 1.73609 13.4288 1.80548 13.2748ZM3.38658 13.4165L7.25166 12.1336V8.9997C7.25166 8.58548 7.58745 8.2497 8.00166 8.2497C8.41588 8.2497 8.75166 8.58548 8.75166 8.9997V12.1179L12.6143 13.411L8.00167 3.16068L3.38658 13.4165Z"
        fill="#303233" />
</svg>
