<svg width="24" height="24" viewBox="0 0 24 24" fill="none" xmlns="http://www.w3.org/2000/svg">
    <path fill-rule="evenodd" clip-rule="evenodd"
        d="M8.25 4.25H4.37109H4.37106C3.97571 4.24999 3.63465 4.24998 3.35373 4.27293C3.05722 4.29715 2.76231 4.35064 2.47852 4.49524C2.05516 4.71095 1.71095 5.05516 1.49524 5.47852C1.35064 5.76231 1.29715 6.05722 1.27293 6.35373C1.24998 6.63465 1.24999 6.97571 1.25 7.37106V7.37109V9.17071C1.25 9.48857 1.45037 9.77191 1.75007 9.87784C2.62497 10.1871 3.25 11.0215 3.25 12C3.25 12.9785 2.62497 13.8129 1.75007 14.1222C1.45037 14.2281 1.25 14.5114 1.25 14.8293V16.6289V16.6289C1.24999 17.0243 1.24998 17.3654 1.27293 17.6463C1.29715 17.9428 1.35064 18.2377 1.49524 18.5215C1.71095 18.9448 2.05516 19.2891 2.47852 19.5048C2.76231 19.6494 3.05722 19.7028 3.35373 19.7271C3.63466 19.75 3.97572 19.75 4.37108 19.75H8.25V17C8.25 16.5858 8.58579 16.25 9 16.25C9.41421 16.25 9.75 16.5858 9.75 17V19.75H19.6289C20.0243 19.75 20.3653 19.75 20.6463 19.7271C20.9428 19.7028 21.2377 19.6494 21.5215 19.5048C21.9448 19.2891 22.2891 18.9448 22.5048 18.5215C22.6494 18.2377 22.7028 17.9428 22.7271 17.6463C22.75 17.3654 22.75 17.0243 22.75 16.629V16.6289V14.8293C22.75 14.5114 22.5496 14.2281 22.2499 14.1222C21.375 13.8129 20.75 12.9785 20.75 12C20.75 11.0215 21.375 10.1871 22.2499 9.87784C22.5496 9.77191 22.75 9.48857 22.75 9.17071V7.37108V7.37098C22.75 6.97567 22.75 6.63463 22.7271 6.35373C22.7028 6.05722 22.6494 5.76231 22.5048 5.47852C22.2891 5.05516 21.9448 4.71095 21.5215 4.49524C21.2377 4.35064 20.9428 4.29715 20.6463 4.27293C20.3654 4.24998 20.0243 4.24999 19.6289 4.25H19.6289H9.75V7C9.75 7.41421 9.41422 7.75 9 7.75C8.58579 7.75 8.25 7.41421 8.25 7V4.25ZM9 10.25C9.41421 10.25 9.75 10.5858 9.75 11V13C9.75 13.4142 9.41421 13.75 9 13.75C8.58579 13.75 8.25 13.4142 8.25 13V11C8.25 10.5858 8.58579 10.25 9 10.25Z"
        fill="#303233" />
</svg>
