<svg width="24" height="24" viewBox="0 0 24 24" fill="none" xmlns="http://www.w3.org/2000/svg">
    <path fill-rule="evenodd" clip-rule="evenodd"
        d="M2.70711 1.29289C2.31658 0.902369 1.68342 0.902369 1.29289 1.29289C0.902369 1.68342 0.902369 2.31658 1.29289 2.70711L4.68019 6.09441C3.74129 7.30255 3.14043 8.78825 3.02168 10.407C1.24459 11.1734 0 12.9404 0 15C0 17.7614 2.23858 20 5 20H17.5C17.8423 20 18.179 19.9734 18.508 19.9222L21.2929 22.7071C21.6834 23.0976 22.3166 23.0976 22.7071 22.7071C23.0976 22.3166 23.0976 21.6834 22.7071 21.2929L2.70711 1.29289ZM16.5858 18L6.10917 7.52338C5.41027 8.50444 5 9.70368 5 11C5 11.0361 5.00032 11.0722 5.00095 11.1081C5.00911 11.571 4.69847 11.979 4.25009 12.0942C2.95553 12.427 2 13.6032 2 15C2 16.6569 3.34315 18 5 18H16.5858Z"
        fill="#303233" />
    <path
        d="M9.9202 5.09673C10.2698 5.03327 10.6306 5 11 5C13.3929 5 15.4606 6.40072 16.4242 8.43136C16.5945 8.79034 16.9612 9.01441 17.3584 9.00218C17.4054 9.00073 17.4526 9 17.5 9C19.9853 9 22 11.0147 22 13.5C22 14.407 21.7327 15.2486 21.2729 15.9538C20.9712 16.4165 21.1017 17.036 21.5644 17.3377C22.027 17.6393 22.6466 17.5088 22.9482 17.0462C23.6135 16.0259 24 14.8066 24 13.5C24 10.0573 21.3236 7.23973 17.9379 7.01452C16.5577 4.6169 13.9686 3 11 3C10.5102 3 10.0299 3.04413 9.56299 3.12889C9.01958 3.22753 8.65903 3.74801 8.75768 4.29141C8.85632 4.83482 9.3768 5.19537 9.9202 5.09673Z"
        fill="#303233" />
</svg>
