<svg width="24" height="24" viewBox="0 0 24 24" fill="none" xmlns="http://www.w3.org/2000/svg">
    <path fill-rule="evenodd" clip-rule="evenodd"
        d="M6.342 5.93278C6.73258 6.32324 6.73269 6.9564 6.34223 7.34699C5.22367 8.46591 4.462 9.89138 4.15353 11.4432C3.84506 12.9949 4.00364 14.6033 4.60922 16.065C5.2148 17.5266 6.24018 18.7759 7.55571 19.6549C8.87125 20.5338 10.4179 21.0029 12 21.0029C13.5821 21.0029 15.1288 20.5338 16.4443 19.6549C17.7598 18.7759 18.7852 17.5266 19.3908 16.065C19.9964 14.6033 20.1549 12.9949 19.8465 11.4432C19.538 9.89138 18.7763 8.46591 17.6578 7.34699C17.2673 6.9564 17.2674 6.32324 17.658 5.93278C18.0486 5.54232 18.6818 5.54242 19.0722 5.93301C20.4704 7.33166 21.4225 9.1135 21.8081 11.0532C22.1937 12.9929 21.9955 15.0034 21.2385 16.8305C20.4815 18.6576 19.1998 20.2192 17.5554 21.3178C15.9109 22.4165 13.9777 23.0029 12 23.0029C10.0223 23.0029 8.08906 22.4165 6.44464 21.3178C4.80022 20.2192 3.51849 18.6576 2.76152 16.8305C2.00455 15.0034 1.80633 12.9929 2.19191 11.0532C2.5775 9.1135 3.52958 7.33166 4.92778 5.93301C5.31824 5.54242 5.95141 5.54232 6.342 5.93278Z"
        fill="#303233" />
    <path fill-rule="evenodd" clip-rule="evenodd"
        d="M12 2C12.5523 2 13 2.44772 13 3V13C13 13.5523 12.5523 14 12 14C11.4477 14 11 13.5523 11 13V3C11 2.44772 11.4477 2 12 2Z"
        fill="#303233" />
</svg>
