<svg width="16" height="16" viewBox="0 0 16 16" fill="none" xmlns="http://www.w3.org/2000/svg">
    <path
        d="M0.75 4.00002C0.749991 2.75737 1.75735 1.75 3 1.75H6.79318C7.3122 1.75 7.80997 1.9562 8.17694 2.32324C8.45015 2.59649 8.82072 2.75 9.20712 2.75H13.0001C14.2427 2.75 15.2501 3.75736 15.2501 5V6C15.2501 6.41421 14.9142 6.75 14.5 6.75C14.0858 6.75 13.75 6.41421 13.75 6L13.7502 5.98477V5C13.7502 4.58579 13.4144 4.25 13.0002 4.25H3.00015C2.58594 4.25 2.25015 4.58579 2.25015 5V12C2.25015 12.4142 2.58594 12.75 3.00015 12.75H9.24829L9.25 12.75C9.66421 12.75 10 13.0858 10 13.5C10 13.9142 9.66421 14.25 9.25 14.25H3.00006C1.75742 14.25 0.750065 13.2427 0.750056 12L0.75 4.00002Z"
        fill="#303233" />
    <path
        d="M13.25 8.25C13.6642 8.25 14 8.58579 14 9V10.25H15.25C15.6642 10.25 16 10.5858 16 11C16 11.4142 15.6642 11.75 15.25 11.75H14V13C14 13.4142 13.6642 13.75 13.25 13.75C12.8358 13.75 12.5 13.4142 12.5 13V11.75H11.25C10.8358 11.75 10.5 11.4142 10.5 11C10.5 10.5858 10.8358 10.25 11.25 10.25H12.5V9C12.5 8.58579 12.8358 8.25 13.25 8.25Z"
        fill="#303233" />
</svg>
