<svg width="16" height="16" viewBox="0 0 16 16" fill="none" xmlns="http://www.w3.org/2000/svg">
    <path fill-rule="evenodd" clip-rule="evenodd"
        d="M7.9946 1.125H8.00539C8.2125 1.12516 8.38027 1.29318 8.38011 1.50029C8.37995 1.7074 8.21193 1.87516 8.00482 1.875H7.99518C7.78807 1.87516 7.62005 1.7074 7.61989 1.50029C7.61973 1.29318 7.78749 1.12516 7.9946 1.125ZM9.64771 1.69941C9.71152 1.50238 9.92298 1.39438 10.12 1.45819L10.1302 1.46151C10.3272 1.52563 10.4348 1.73725 10.3707 1.93419C10.3066 2.13112 10.095 2.23878 9.89805 2.17466L9.88894 2.1717C9.6919 2.10789 9.58391 1.89644 9.64771 1.69941ZM6.35228 1.69941C6.41609 1.89644 6.30809 2.10789 6.11106 2.1717L6.10195 2.17466C5.90501 2.23878 5.69339 2.13112 5.62927 1.93419C5.56515 1.73725 5.67282 1.52563 5.86975 1.46151L5.87999 1.45819C6.07702 1.39438 6.28847 1.50238 6.35228 1.69941ZM11.5133 2.51756C11.6351 2.35001 11.8696 2.31288 12.0371 2.43462L12.0458 2.44094C12.2132 2.56294 12.25 2.79751 12.128 2.96487C12.006 3.13223 11.7714 3.169 11.604 3.047L11.5963 3.04136C11.4287 2.91963 11.3916 2.68511 11.5133 2.51756ZM4.48666 2.51756C4.6084 2.68511 4.57126 2.91963 4.40371 3.04137L4.39597 3.047C4.22861 3.169 3.99404 3.13223 3.87204 2.96487C3.75004 2.79751 3.78681 2.56294 3.95417 2.44094L3.96286 2.43462C4.1304 2.31288 4.36492 2.35001 4.48666 2.51756ZM13.0351 3.87204C13.2025 3.75004 13.4371 3.78681 13.5591 3.95417L13.5654 3.96286C13.6871 4.1304 13.65 4.36492 13.4824 4.48666C13.3149 4.6084 13.0804 4.57126 12.9586 4.40371L12.953 4.39597C12.831 4.22861 12.8678 3.99404 13.0351 3.87204ZM2.96487 3.87204C3.13223 3.99404 3.169 4.22861 3.047 4.39597L3.04136 4.40371C2.91963 4.57126 2.68511 4.6084 2.51756 4.48666C2.35001 4.36492 2.31288 4.13041 2.43462 3.96286L2.44094 3.95417C2.56294 3.78681 2.79751 3.75004 2.96487 3.87204ZM14.0658 5.62927C14.2627 5.56515 14.4744 5.67282 14.5385 5.86975L14.5418 5.87999C14.6056 6.07702 14.4976 6.28847 14.3006 6.35228C14.1036 6.41609 13.8921 6.30809 13.8283 6.11106L13.8253 6.10195C13.7612 5.90501 13.8689 5.69339 14.0658 5.62927ZM1.93419 5.62927C2.13112 5.69339 2.23878 5.90502 2.17466 6.10195L2.1717 6.11106C2.10789 6.30809 1.89644 6.41609 1.69941 6.35228C1.50238 6.28847 1.39438 6.07702 1.45819 5.87999L1.46151 5.86975C1.52563 5.67282 1.73725 5.56515 1.93419 5.62927ZM14.4997 7.61989C14.7068 7.61973 14.8748 7.78749 14.875 7.9946V8.00539C14.8748 8.2125 14.7068 8.38027 14.4997 8.38011C14.2926 8.37995 14.1248 8.21193 14.125 8.00482V7.99518C14.1248 7.78807 14.2926 7.62005 14.4997 7.61989ZM1.50029 7.61989C1.7074 7.62005 1.87516 7.78807 1.875 7.99518V8.00482C1.87516 8.21193 1.7074 8.37995 1.50029 8.38011C1.29318 8.38027 1.12516 8.2125 1.125 8.0054V7.9946C1.12516 7.78749 1.29318 7.61973 1.50029 7.61989ZM1.69941 9.64771C1.89644 9.58391 2.10789 9.6919 2.1717 9.88894L2.17466 9.89805C2.23878 10.095 2.13112 10.3066 1.93419 10.3707C1.73725 10.4348 1.52563 10.3272 1.46151 10.1302L1.45819 10.12C1.39438 9.92298 1.50238 9.71152 1.69941 9.64771ZM14.3006 9.64771C14.4976 9.71152 14.6056 9.92298 14.5418 10.12L14.5385 10.1302C14.4744 10.3272 14.2627 10.4348 14.0658 10.3707C13.8689 10.3066 13.7612 10.095 13.8253 9.89805L13.8283 9.88894C13.8921 9.6919 14.1036 9.58391 14.3006 9.64771ZM13.4824 11.5133C13.65 11.6351 13.6871 11.8696 13.5654 12.0371L13.5591 12.0458C13.4371 12.2132 13.2025 12.25 13.0351 12.128C12.8678 12.006 12.831 11.7714 12.953 11.604L12.9586 11.5963C13.0804 11.4287 13.3149 11.3916 13.4824 11.5133ZM2.51756 11.5133C2.68511 11.3916 2.91963 11.4287 3.04137 11.5963L3.047 11.604C3.169 11.7714 3.13223 12.006 2.96487 12.128C2.79751 12.25 2.56294 12.2132 2.44094 12.0458L2.43462 12.0371C2.31288 11.8696 2.35001 11.6351 2.51756 11.5133ZM12.128 13.0351C12.25 13.2025 12.2132 13.4371 12.0458 13.5591L12.0371 13.5654C11.8696 13.6871 11.6351 13.65 11.5133 13.4824C11.3916 13.3149 11.4287 13.0804 11.5963 12.9586L11.604 12.953C11.7714 12.831 12.006 12.8678 12.128 13.0351ZM3.87204 13.0351C3.99404 12.8678 4.22861 12.831 4.39597 12.953L4.40371 12.9586C4.57126 13.0804 4.6084 13.3149 4.48666 13.4824C4.36492 13.65 4.13041 13.6871 3.96286 13.5654L3.95417 13.5591C3.78681 13.4371 3.75004 13.2025 3.87204 13.0351ZM5.62927 14.0658C5.69339 13.8689 5.90502 13.7612 6.10195 13.8253L6.11106 13.8283C6.30809 13.8921 6.41609 14.1036 6.35228 14.3006C6.28847 14.4976 6.07702 14.6056 5.87999 14.5418L5.86975 14.5385C5.67282 14.4744 5.56515 14.2627 5.62927 14.0658ZM10.3707 14.0658C10.4348 14.2627 10.3272 14.4744 10.1302 14.5385L10.12 14.5418C9.92298 14.6056 9.71152 14.4976 9.64771 14.3006C9.58391 14.1036 9.6919 13.8921 9.88894 13.8283L9.89805 13.8253C10.095 13.7612 10.3066 13.8689 10.3707 14.0658ZM7.61989 14.4997C7.62005 14.2926 7.78807 14.1248 7.99518 14.125H8.00482C8.21193 14.1248 8.37995 14.2926 8.38011 14.4997C8.38027 14.7068 8.2125 14.8748 8.0054 14.875H7.9946C7.78749 14.8748 7.61973 14.7068 7.61989 14.4997Z"
        fill="#303233" />
    <path fill-rule="evenodd" clip-rule="evenodd"
        d="M8 11.75C10.0711 11.75 11.75 10.0711 11.75 8C11.75 5.92893 10.0711 4.25 8 4.25C5.92893 4.25 4.25 5.92893 4.25 8C4.25 10.0711 5.92893 11.75 8 11.75ZM8 12.5C10.4853 12.5 12.5 10.4853 12.5 8C12.5 5.51472 10.4853 3.5 8 3.5C5.51472 3.5 3.5 5.51472 3.5 8C3.5 10.4853 5.51472 12.5 8 12.5Z"
        fill="#303233" />
    <path fill-rule="evenodd" clip-rule="evenodd"
        d="M8 9C8.55228 9 9 8.55228 9 8C9 7.44771 8.55228 7 8 7C7.44771 7 7 7.44771 7 8C7 8.55228 7.44771 9 8 9ZM8 10.5C9.38071 10.5 10.5 9.38071 10.5 8C10.5 6.61929 9.38071 5.5 8 5.5C6.61929 5.5 5.5 6.61929 5.5 8C5.5 9.38071 6.61929 10.5 8 10.5Z"
        fill="#303233" />
</svg>
