<svg width="24" height="24" viewBox="0 0 24 24" fill="none" xmlns="http://www.w3.org/2000/svg">
    <path fill-rule="evenodd" clip-rule="evenodd"
        d="M1.96772 2.46967C2.26061 2.17678 2.73549 2.17678 3.02838 2.46967L21.0284 20.4697C21.3213 20.7626 21.3213 21.2374 21.0284 21.5303C20.7355 21.8232 20.2606 21.8232 19.9677 21.5303L15.4029 16.9655C15.3437 16.9403 15.2868 16.907 15.2337 16.8654C14.9973 16.6801 14.7447 16.5147 14.4784 16.3716C13.7198 15.9659 12.8699 15.7513 12.0028 15.7513C10.9132 15.7513 9.85051 16.0903 8.96221 16.7214C8.94133 16.7363 8.91995 16.7499 8.89816 16.7623C8.83842 16.8061 8.77964 16.8511 8.72184 16.8973C8.39835 17.156 7.92639 17.1035 7.66769 16.78C7.40899 16.4565 7.46151 15.9845 7.785 15.7258C8.93952 14.8026 10.4052 14.25 11.9979 14.25C12.244 14.25 12.487 14.2632 12.7263 14.2889L9.49501 11.0576C7.88849 11.4607 6.43176 12.2434 5.22574 13.3058C4.91493 13.5796 4.441 13.5495 4.1672 13.2387C3.8934 12.9279 3.92341 12.454 4.23423 12.1802C5.40155 11.1519 6.77539 10.3512 8.286 9.84861L5.59326 7.15587C4.16096 7.81966 2.84859 8.69945 1.69811 9.75371C1.39273 10.0336 0.918306 10.0128 0.638462 9.70746C0.358618 9.40208 0.379323 8.92766 0.684708 8.64781C1.81466 7.61237 3.08742 6.72974 4.47031 6.03292L1.96772 3.53033C1.67483 3.23744 1.67483 2.76256 1.96772 2.46967ZM11.998 5.75262C11.4213 5.75262 10.8477 5.7853 10.2798 5.84969C9.86818 5.89635 9.49671 5.60053 9.45004 5.18896C9.40338 4.77738 9.6992 4.4059 10.1108 4.35924C10.7346 4.28851 11.3646 4.25262 11.998 4.25262C16.0763 4.25262 20.0145 5.74056 23.0739 8.43735C23.3846 8.71125 23.4145 9.18518 23.1406 9.49591C22.8667 9.80664 22.3928 9.8365 22.082 9.5626C19.2966 7.10732 15.7111 5.75262 11.998 5.75262ZM14.5939 10.2769C14.7172 9.88146 15.1376 9.66076 15.5331 9.78397C16.9947 10.2393 18.3642 10.9794 19.5581 11.9737C19.8763 12.2388 19.9194 12.7117 19.6543 13.03C19.3892 13.3483 18.9163 13.3914 18.5981 13.1263C17.5566 12.2589 16.3619 11.6133 15.0869 11.2161C14.6914 11.0929 14.4707 10.6724 14.5939 10.2769ZM11.2481 20C11.2481 19.5858 11.5838 19.25 11.9981 19.25H12.0081C12.4223 19.25 12.7581 19.5858 12.7581 20C12.7581 20.4142 12.4223 20.75 12.0081 20.75H11.9981C11.5838 20.75 11.2481 20.4142 11.2481 20Z"
        fill="#303233" />
</svg>
