<svg width="24" height="24" viewBox="0 0 24 24" fill="none" xmlns="http://www.w3.org/2000/svg">
    <path fill-rule="evenodd" clip-rule="evenodd"
        d="M2.70711 1.29289C2.31658 0.902369 1.68342 0.902369 1.29289 1.29289C0.902369 1.68342 0.902369 2.31658 1.29289 2.70711L6 7.41422V10.1503C5.71739 10.2123 5.44614 10.3024 5.18404 10.436C4.43139 10.8195 3.81947 11.4314 3.43597 12.184C3.18868 12.6694 3.09012 13.1861 3.04419 13.7482C2.99998 14.2894 2.99999 14.9537 3 15.7587V16.2413C2.99999 17.0463 2.99998 17.7106 3.04419 18.2518C3.09012 18.8139 3.18868 19.3306 3.43597 19.816C3.81947 20.5686 4.43139 21.1805 5.18404 21.564C5.66937 21.8113 6.18608 21.9099 6.74817 21.9558C7.28936 22 7.95372 22 8.75868 22H15.2413C16.0463 22 16.7106 22 17.2518 21.9558C17.8139 21.9099 18.3306 21.8113 18.816 21.564C19.1042 21.4172 19.3717 21.2368 19.6137 21.0279L21.2929 22.7071C21.6834 23.0976 22.3166 23.0976 22.7071 22.7071C23.0976 22.3166 23.0976 21.6834 22.7071 21.2929L20.3055 18.8912C20.2826 18.8659 20.2583 18.8416 20.2326 18.8184L2.70711 1.29289ZM8 9.41422V10.0016C8.186 10.0003 8.38116 10.0001 8.5858 10L8 9.41422ZM10.5712 11.9854C10.5156 11.995 10.4584 12 10.4 12H8.8C7.94342 12 7.36113 12.0008 6.91104 12.0376C6.47262 12.0734 6.24842 12.1383 6.09202 12.218C5.7157 12.4097 5.40973 12.7157 5.21799 13.092C5.1383 13.2484 5.07337 13.4726 5.03755 13.911C5.00078 14.3611 5 14.9434 5 15.8V16.2C5 17.0566 5.00078 17.6389 5.03755 18.089C5.07337 18.5274 5.1383 18.7516 5.21799 18.908C5.40973 19.2843 5.7157 19.5903 6.09202 19.782C6.24842 19.8617 6.47262 19.9266 6.91104 19.9624C7.36113 19.9992 7.94342 20 8.8 20H15.2C16.0566 20 16.6389 19.9992 17.089 19.9624C17.5274 19.9266 17.7516 19.8617 17.908 19.782C18.0078 19.7311 18.1027 19.6722 18.1919 19.6061L10.5712 11.9854Z"
        fill="#303233" />
    <path
        d="M12 2C10.8494 2 9.77162 2.32486 8.85685 2.88834C8.38662 3.178 8.24024 3.79401 8.5299 4.26424C8.81955 4.73447 9.43556 4.88086 9.9058 4.5912C10.5142 4.2164 11.2303 4 12 4C14.2091 4 16 5.79086 16 8V11L16.0001 11.0138C15.9917 11.5452 16.4032 11.9942 16.9391 12.0269C17.4772 12.0598 17.733 12.1288 17.908 12.218C18.2843 12.4097 18.5903 12.7157 18.782 13.092C18.8712 13.267 18.9402 13.5228 18.9731 14.0609C19.0067 14.6122 19.4809 15.0318 20.0322 14.9981C20.5834 14.9645 21.003 14.4903 20.9694 13.9391C20.9304 13.3006 20.8379 12.7216 20.564 12.184C20.1805 11.4314 19.5686 10.8195 18.816 10.436C18.5545 10.3027 18.2832 10.2124 18 10.1503V8C18 4.68629 15.3137 2 12 2Z"
        fill="#303233" />
</svg>
