<svg width="24" height="24" viewBox="0 0 24 24" fill="none" xmlns="http://www.w3.org/2000/svg">
    <path fill-rule="evenodd" clip-rule="evenodd"
        d="M13 2C13 1.44772 12.5523 1 12 1C11.4477 1 11 1.44772 11 2V3.05493C6.82838 3.51608 3.51608 6.82838 3.05493 11H2C1.44772 11 1 11.4477 1 12C1 12.5523 1.44772 13 2 13H3.05493C3.51608 17.1716 6.82838 20.4839 11 20.9451V22C11 22.5523 11.4477 23 12 23C12.5523 23 13 22.5523 13 22V20.9451C17.1716 20.4839 20.4839 17.1716 20.9451 13H22C22.5523 13 23 12.5523 23 12C23 11.4477 22.5523 11 22 11H20.9451C20.4839 6.82838 17.1716 3.51608 13 3.05493V2ZM18.9291 11C18.4906 7.93431 16.0657 5.5094 13 5.07089V6C13 6.55228 12.5523 7 12 7C11.4477 7 11 6.55228 11 6V5.07089C7.93431 5.5094 5.5094 7.93431 5.07089 11H6C6.55228 11 7 11.4477 7 12C7 12.5523 6.55228 13 6 13H5.07089C5.5094 16.0657 7.93431 18.4906 11 18.9291V18C11 17.4477 11.4477 17 12 17C12.5523 17 13 17.4477 13 18V18.9291C16.0657 18.4906 18.4906 16.0657 18.9291 13H18C17.4477 13 17 12.5523 17 12C17 11.4477 17.4477 11 18 11H18.9291Z"
        fill="#303233" />
</svg>
