<svg width="24" height="24" viewBox="0 0 24 24" fill="none" xmlns="http://www.w3.org/2000/svg">
    <path fill-rule="evenodd" clip-rule="evenodd"
        d="M12.2318 4.25H6.76763C5.9548 4.24999 5.29917 4.24999 4.76826 4.29336C4.22163 4.33803 3.74149 4.43239 3.29727 4.65873C2.59166 5.01825 2.01798 5.59193 1.65846 6.29754C1.30064 6.99979 1.26125 7.83008 1.25198 8.92502C1.24847 9.33922 1.5814 9.67784 1.9956 9.68134C2.4098 9.68485 2.74842 9.35192 2.75193 8.93772C2.76167 7.78739 2.82268 7.31665 2.99497 6.97852C3.21068 6.55516 3.55489 6.21095 3.97825 5.99524C4.17577 5.8946 4.43654 5.82547 4.89041 5.78838C5.35304 5.75058 5.94728 5.75 6.79973 5.75H12.1997C13.0522 5.75 13.6464 5.75058 14.1091 5.78838C14.5629 5.82547 14.8237 5.8946 15.0212 5.99524C15.4446 6.21095 15.7888 6.55516 16.0045 6.97852C16.1051 7.17604 16.1743 7.43681 16.2114 7.89068C16.2491 8.35331 16.2497 8.94755 16.2497 9.8V14.2C16.2497 15.0525 16.2491 15.6467 16.2114 16.1093C16.1743 16.5632 16.1051 16.824 16.0045 17.0215C15.7888 17.4448 15.4446 17.789 15.0212 18.0048C14.8237 18.1054 14.5629 18.1745 14.1091 18.2116C13.6464 18.2494 13.0522 18.25 12.1997 18.25H11.9997C11.5855 18.25 11.2497 18.5858 11.2497 19C11.2497 19.4142 11.5855 19.75 11.9997 19.75H12.2319C13.0447 19.75 13.7003 19.75 14.2312 19.7066C14.7778 19.662 15.258 19.5676 15.7022 19.3413C16.4078 18.9817 16.9815 18.4081 17.341 17.7025C17.5673 17.2582 17.6617 16.7781 17.7064 16.2315C17.7497 15.7006 17.7497 15.045 17.7497 14.2321V13.8107L20.1256 16.1865C20.3209 16.3818 20.5016 16.5626 20.6575 16.6931C20.8002 16.8126 21.0572 17.0119 21.4017 17.039C21.8006 17.0704 22.1904 16.909 22.4502 16.6047C22.6746 16.342 22.7154 16.0193 22.7318 15.8339C22.7498 15.6314 22.7498 15.3758 22.7497 15.0996V8.90054C22.7498 8.6243 22.7498 8.36864 22.7318 8.16609C22.7154 7.98068 22.6746 7.65804 22.4502 7.3953C22.1904 7.09103 21.8006 6.92957 21.4017 6.96096C21.0572 6.98807 20.8002 7.18739 20.6575 7.30688C20.5016 7.43741 20.3209 7.61814 20.1256 7.81348L17.7497 10.1893V9.76788C17.7497 8.95505 17.7497 8.29944 17.7064 7.76853C17.6617 7.2219 17.5673 6.74176 17.341 6.29754C16.9815 5.59193 16.4078 5.01825 15.7022 4.65873C15.258 4.43239 14.7778 4.33803 14.2312 4.29336C13.7003 4.24999 13.0447 4.24999 12.2318 4.25ZM18.0604 12L21.2497 8.81081L21.2497 15.1892L18.0604 12Z"
        fill="#303233" />
    <path
        d="M1.25 13C1.25 13.4142 1.58579 13.75 2 13.75H6.18934L1.46967 18.4697C1.17678 18.7626 1.17678 19.2374 1.46967 19.5303C1.76256 19.8232 2.23744 19.8232 2.53033 19.5303L7.25 14.8107V19C7.25 19.4142 7.58579 19.75 8 19.75C8.41421 19.75 8.75 19.4142 8.75 19V13C8.75 12.5858 8.41421 12.25 8 12.25H2C1.58579 12.25 1.25 12.5858 1.25 13Z"
        fill="#303233" />
</svg>
