<svg width="24" height="24" viewBox="0 0 24 24" fill="none" xmlns="http://www.w3.org/2000/svg">
    <g clip-path="url(#clip0_53_7021)">
        <path
            d="M1.53033 0.46967C1.23744 0.176777 0.762563 0.176777 0.46967 0.46967C0.176777 0.762563 0.176777 1.23744 0.46967 1.53033L3.27156 4.33222C1.9863 5.72586 1.25 7.63418 1.25 9.48C1.25 11.2599 1.93945 12.9161 2.91465 14.3699C3.89044 15.8245 5.17929 17.1177 6.45 18.1886C7.72352 19.262 8.99937 20.1293 9.9679 20.7285C10.4527 21.0284 10.8637 21.2632 11.163 21.4247C11.312 21.5052 11.437 21.5695 11.5318 21.6153C11.5781 21.6378 11.624 21.6591 11.665 21.6763C11.6846 21.6845 11.7124 21.6958 11.7435 21.7064C11.7588 21.7116 11.7842 21.7198 11.8148 21.7273C11.8343 21.7321 11.9067 21.75 12 21.75C12.0951 21.75 12.1698 21.7312 12.1891 21.7263C12.2197 21.7186 12.2448 21.7104 12.2601 21.7052C12.2913 21.6944 12.3195 21.6829 12.3397 21.6743C12.3819 21.6564 12.4296 21.6342 12.4786 21.6103C12.5786 21.5617 12.711 21.4932 12.8693 21.4072C13.1872 21.2347 13.6236 20.9839 14.1364 20.6637C15.0309 20.1051 16.1685 19.3287 17.3198 18.3804L22.4697 23.5303C22.7626 23.8232 23.2374 23.8232 23.5303 23.5303C23.8232 23.2374 23.8232 22.7626 23.5303 22.4697L1.53033 0.46967Z"
            fill="#303233" />
        <path
            d="M16.1111 2.25C14.2479 2.25 12.9021 3.01766 12.0001 3.84467C11.2626 3.16817 10.2258 2.52931 8.8441 2.32058C8.52373 2.27218 8.2085 2.43498 8.06251 2.72424C7.91652 3.01349 7.97279 3.36379 8.20202 3.59278L19.59 14.9685C19.7444 15.1228 19.9584 15.2021 20.1761 15.1858C20.3937 15.1695 20.5935 15.0592 20.7232 14.8836C21.8879 13.3075 22.75 11.4709 22.75 9.48C22.75 6.06646 20.165 2.25 16.1111 2.25Z"
            fill="#303233" />
    </g>
    <defs>
        <clipPath id="clip0_53_7021">
            <rect width="24" height="24" fill="white" />
        </clipPath>
    </defs>
</svg>
