<svg width="24" height="24" viewBox="0 0 24 24" fill="none" xmlns="http://www.w3.org/2000/svg">
    <path fill-rule="evenodd" clip-rule="evenodd"
        d="M8.33254 1.25C8.34321 1.25 8.35392 1.25 8.36466 1.25L15.6703 1.25C16.0386 1.24998 16.3644 1.24996 16.628 1.27389C16.9013 1.29868 17.2112 1.35568 17.4913 1.54138C17.8757 1.79619 18.1439 2.19243 18.2378 2.64396C18.3062 2.97302 18.244 3.28192 18.1655 3.54483C18.0898 3.79844 17.9688 4.10098 17.832 4.44294L16.8122 6.99245C16.7896 7.04886 16.7773 7.0799 16.7684 7.10374C16.7607 7.12429 16.7602 7.12678 16.7602 7.12678C16.7569 7.13903 16.7545 7.1515 16.753 7.16411C16.753 7.16411 16.7525 7.16659 16.752 7.18852C16.7515 7.21397 16.7514 7.24738 16.7514 7.30813V9.43875C16.7514 9.54839 16.7515 9.60931 16.7534 9.65553C16.755 9.69572 16.7572 9.70305 16.7565 9.69948C16.761 9.72155 16.7685 9.7429 16.7788 9.76296C16.7771 9.75972 16.7799 9.76686 16.8038 9.79924C16.8312 9.83648 16.8692 9.88413 16.9377 9.96974L18.5296 11.9597C18.8436 12.3521 19.111 12.6864 19.2964 12.9668C19.4785 13.2423 19.6703 13.5909 19.6708 13.9981C19.6714 14.5311 19.429 15.0352 19.0125 15.3677C18.6943 15.6217 18.3022 15.6897 17.9734 15.7196C17.6385 15.75 17.2104 15.75 16.7079 15.75H12.7514V22C12.7514 22.4142 12.4156 22.75 12.0014 22.75C11.5872 22.75 11.2514 22.4142 11.2514 22L11.2514 15.75H7.29493C6.79238 15.75 6.36428 15.75 6.02944 15.7196C5.70058 15.6897 5.30851 15.6217 4.99029 15.3677C4.57377 15.0352 4.33146 14.5311 4.33203 13.9981C4.33247 13.5909 4.52427 13.2423 4.70638 12.9668C4.8918 12.6864 5.15924 12.3521 5.47319 11.9597L7.06514 9.96974C7.13363 9.88413 7.17158 9.83648 7.19903 9.79924C7.22289 9.76687 7.22569 9.75972 7.22404 9.76296C7.23428 9.7429 7.24177 9.72155 7.2463 9.69948C7.24557 9.70305 7.24785 9.69572 7.24944 9.65553C7.25127 9.6093 7.25141 9.54839 7.25141 9.43875V7.30813C7.25141 7.24738 7.25136 7.21397 7.25079 7.18853C7.25029 7.16659 7.24978 7.16411 7.24978 7.16411C7.24833 7.1515 7.24593 7.13902 7.24259 7.12678C7.24259 7.12678 7.24214 7.12429 7.23446 7.10374C7.22554 7.0799 7.21317 7.04886 7.19061 6.99245L6.18274 4.47277C6.17875 4.4628 6.17477 4.45286 6.17081 4.44295C6.034 4.10098 5.91297 3.79845 5.83729 3.54484C5.75883 3.28192 5.69666 2.97302 5.76504 2.64396C5.85887 2.19243 6.12714 1.79619 6.51152 1.54138C6.79165 1.35568 7.10154 1.29868 7.3748 1.27389C7.63837 1.24996 7.96422 1.24998 8.33254 1.25Z"
        fill="#303233" />
</svg>
