<svg width="16" height="16" viewBox="0 0 16 16" fill="none" xmlns="http://www.w3.org/2000/svg">
    <path fill-rule="evenodd" clip-rule="evenodd"
        d="M5.53697 1H10.463C10.8059 0.999993 11.0931 0.999987 11.328 1.01918C11.5733 1.03922 11.8052 1.08266 12.025 1.19463C12.361 1.36583 12.6342 1.63901 12.8054 1.97502C12.9173 2.19477 12.9608 2.42666 12.9808 2.67197C13 2.90686 13 3.1941 13 3.53696V12.463C13 12.8059 13 13.0931 12.9808 13.328C12.9608 13.5733 12.9173 13.8052 12.8054 14.025C12.6342 14.361 12.361 14.6342 12.025 14.8054C11.8052 14.9173 11.5733 14.9608 11.328 14.9808C11.0931 15 10.8059 15 10.463 15H5.53696C5.1941 15 4.90686 15 4.67197 14.9808C4.42666 14.9608 4.19477 14.9173 3.97502 14.8054C3.63901 14.6342 3.36583 14.361 3.19463 14.025C3.08266 13.8052 3.03922 13.5733 3.01918 13.328C2.99999 13.0931 2.99999 12.8059 3 12.463V3.53697C2.99999 3.19411 2.99999 2.90686 3.01918 2.67197C3.03922 2.42666 3.08266 2.19477 3.19463 1.97502C3.36583 1.63901 3.63901 1.36583 3.97502 1.19463C4.19477 1.08266 4.42666 1.03922 4.67197 1.01918C4.90686 0.999987 5.19411 0.999993 5.53697 1ZM4.7534 2.01586C4.56993 2.03085 4.48429 2.05747 4.42901 2.08564C4.28117 2.16097 4.16097 2.28117 4.08564 2.42901C4.05747 2.48429 4.03085 2.56993 4.01586 2.7534C4.00039 2.94272 4 3.18886 4 3.55714V12.4429C4 12.8111 4.00039 13.0573 4.01586 13.2466C4.03085 13.4301 4.05747 13.5157 4.08564 13.571C4.16097 13.7188 4.28117 13.839 4.42901 13.9144C4.48429 13.9425 4.56993 13.9692 4.7534 13.9841C4.94272 13.9996 5.18886 14 5.55714 14H10.4429C10.8111 14 11.0573 13.9996 11.2466 13.9841C11.4301 13.9692 11.5157 13.9425 11.571 13.9144C11.7188 13.839 11.839 13.7188 11.9144 13.571C11.9425 13.5157 11.9692 13.4301 11.9841 13.2466C11.9996 13.0573 12 12.8111 12 12.4429V3.55714C12 3.18886 11.9996 2.94272 11.9841 2.7534C11.9692 2.56993 11.9425 2.48429 11.9144 2.42901C11.839 2.28117 11.7188 2.16097 11.571 2.08564C11.5157 2.05747 11.4301 2.03085 11.2466 2.01586C11.0573 2.00039 10.8111 2 10.4429 2H5.55714C5.18886 2 4.94272 2.00039 4.7534 2.01586ZM7.17857 11.6786C7.17857 11.2249 7.54634 10.8571 8 10.8571C8.45366 10.8571 8.82143 11.2249 8.82143 11.6786C8.82143 12.1322 8.45366 12.5 8 12.5C7.54634 12.5 7.17857 12.1322 7.17857 11.6786Z"
        fill="#303233" />
</svg>
