<svg width="16" height="16" viewBox="0 0 16 16" fill="none" xmlns="http://www.w3.org/2000/svg">
    <path
        d="M8.33537 6.72052L8.37417 6.72153L8.41154 6.72454L8.44769 6.72856L8.4832 6.7356L8.5175 6.74364L8.55138 6.75369L8.5661 6.75973L8.57267 6.76174L8.58382 6.76576L8.59475 6.77078L8.61505 6.77883L8.62398 6.78385L8.63492 6.78888L8.66451 6.80496L8.67323 6.811L8.69367 6.82306L8.7204 6.84317L8.72812 6.8492C8.76158 6.87533 8.79139 6.90449 8.81813 6.93867C8.85903 6.99094 8.88986 7.04824 8.91084 7.10957L8.9137 7.11962L8.92365 7.1528L8.92645 7.16787L8.9291 7.17893L8.93061 7.18597L8.93304 7.19803L8.93484 7.21311L8.93634 7.22015L8.93958 7.24729L8.94023 7.25835C8.94548 7.31364 8.9433 7.37094 8.93369 7.43026L8.93327 7.43227L8.92615 7.47047L8.2851 10.4863C8.19707 10.9005 7.78962 11.2363 7.37552 11.2363C6.96142 11.2363 6.69671 10.9005 6.78474 10.4863L7.03945 9.28803L4.95393 11.0151C4.59947 11.3087 4.12314 11.3097 3.89204 11.0181C3.66094 10.7266 3.76001 10.2511 4.11447 9.95756L6.21213 8.22041H5.01584C4.60174 8.22041 4.33703 7.88465 4.42507 7.47047C4.5131 7.05629 4.92055 6.72052 5.33465 6.72052H8.33537Z"
        fill="#303233" />
    <path fill-rule="evenodd" clip-rule="evenodd"
        d="M2.5 1.75C1.25735 1.75 0.249991 2.75737 0.25 4.00002L0.250056 12C0.250065 13.2427 1.25742 14.25 2.50006 14.25H12.6285C13.8772 14.25 14.9344 13.3286 15.105 12.0916L15.8292 6.84159C16.0364 5.3393 14.8691 4 13.3526 4H13.0161C12.6479 3.25914 11.8834 2.75 11 2.75H8.70712C8.32072 2.75 7.95015 2.59649 7.67694 2.32324C7.30997 1.9562 6.8122 1.75 6.29318 1.75H2.5ZM13.3528 5.5H3.62178C3.12229 5.5 2.6994 5.86856 2.63115 6.36336L1.90702 11.6134C1.82413 12.2143 2.29103 12.75 2.89764 12.75H12.6287C13.1282 12.75 13.5511 12.3814 13.6193 11.8866L14.3435 6.63664C14.4263 6.03572 13.9594 5.5 13.3528 5.5Z"
        fill="#303233" />
</svg>
