<svg width="16" height="16" viewBox="0 0 16 16" fill="none" xmlns="http://www.w3.org/2000/svg">
    <path d="M3 5.49863V4.5H4.99726V11.5H3.893V5.49863H3Z" fill="#303233" />
    <path
        d="M8.35355 6.64645C8.15829 6.45118 7.84171 6.45118 7.64645 6.64645C7.45118 6.84171 7.45118 7.15829 7.64645 7.35355L9.29289 9L7.64645 10.6464C7.45118 10.8417 7.45118 11.1583 7.64645 11.3536C7.84171 11.5488 8.15829 11.5488 8.35355 11.3536L10 9.70711L11.6464 11.3536C11.8417 11.5488 12.1583 11.5488 12.3536 11.3536C12.5488 11.1583 12.5488 10.8417 12.3536 10.6464L10.7071 9L12.3536 7.35355C12.5488 7.15829 12.5488 6.84171 12.3536 6.64645C12.1583 6.45118 11.8417 6.45118 11.6464 6.64645L10 8.29289L8.35355 6.64645Z"
        fill="#303233" />
</svg>
