<svg width="24" height="24" viewBox="0 0 24 24" fill="none" xmlns="http://www.w3.org/2000/svg">
    <path fill-rule="evenodd" clip-rule="evenodd"
        d="M11.75 12.8108V19.0687C11.75 19.5757 11.738 19.9048 11.689 20.1147C11.639 20.3288 11.553 20.4847 11.45 20.6047C11.191 20.9087 10.801 21.0697 10.402 21.0387C10.245 21.0268 10.074 20.9767 9.887 20.8607C9.704 20.7477 9.463 20.5227 9.104 20.1647L5.938 16.9987C5.828 16.8888 5.781 16.8257 5.717 16.7867C5.694 16.7727 5.669 16.7627 5.644 16.7567C5.571 16.7387 5.493 16.7497 5.337 16.7497H3.6C2.856 16.7497 2.49 16.7037 2.206 16.5587C1.876 16.3917 1.609 16.1237 1.441 15.7937C1.296 15.5097 1.25 15.1438 1.25 14.3998V9.59975C1.25 8.85575 1.296 8.48875 1.441 8.20475C1.609 7.87575 1.876 7.60775 2.205 7.44075C2.49 7.29575 2.856 7.24975 3.6 7.24975H5.337C5.493 7.24975 5.571 7.26075 5.644 7.24275C5.67 7.23675 5.694 7.22675 5.716 7.21275C5.781 7.17375 5.828 7.11075 5.938 7.00075L5.939 6.99975L1.47 2.52975C1.177 2.23775 1.177 1.76175 1.47 1.46975C1.762 1.17675 2.238 1.17675 2.53 1.46975L7.53 6.46975L22.53 21.4697C22.823 21.7617 22.823 22.2377 22.53 22.5297C22.238 22.8227 21.762 22.8227 21.47 22.5297L11.75 12.8108ZM7 8.06075L6.999 8.06175C6.763 8.29775 6.638 8.40775 6.5 8.49175C6.344 8.58775 6.173 8.65875 5.994 8.70175C5.837 8.73875 5.671 8.74975 5.337 8.74975H3.6C3.39 8.74975 3.223 8.74975 3.084 8.75575C2.998 8.75975 2.936 8.75175 2.887 8.77675C2.839 8.80075 2.801 8.83875 2.777 8.88575C2.752 8.93575 2.76 8.99775 2.756 9.08375C2.75 9.22175 2.75 9.38975 2.75 9.59975V14.3998C2.75 14.6098 2.75 14.7767 2.756 14.9157C2.76 15.0017 2.752 15.0637 2.777 15.1127C2.801 15.1597 2.839 15.1987 2.886 15.2227C2.936 15.2477 2.998 15.2397 3.084 15.2437C3.223 15.2497 3.39 15.2497 3.6 15.2497H5.337C5.671 15.2497 5.837 15.2607 5.995 15.2977C6.173 15.3407 6.344 15.4117 6.5 15.5077C6.638 15.5917 6.763 15.7017 6.999 15.9377L10.165 19.1037C10.193 19.1317 10.221 19.1597 10.249 19.1867C10.25 19.1477 10.25 19.1077 10.25 19.0687V11.3108L7 8.06075ZM8.75 4.49975C8.75 4.48775 8.75 4.47675 8.75 4.46575C8.75 4.27375 8.823 4.08175 8.97 3.93475L9.47 3.43475C9.504 3.40075 9.54 3.37075 9.579 3.34475C9.699 3.23775 9.8 3.15775 9.887 3.10375C10.074 2.98775 10.244 2.93875 10.402 2.92675C10.801 2.89475 11.191 3.05675 11.451 3.36075C11.553 3.48075 11.639 3.63575 11.689 3.85075C11.738 4.06075 11.75 4.38975 11.75 4.89675V4.93075V5.96575C11.75 6.37975 11.414 6.71575 11 6.71575C10.586 6.71575 10.25 6.37975 10.25 5.96575V4.93075C10.25 4.91975 10.25 4.90775 10.25 4.89675C10.25 4.86875 10.25 4.84075 10.249 4.81175C10.221 4.83975 10.193 4.86775 10.165 4.89575L10.033 5.02675C9.77 5.29075 9.5 5.24975 9.5 5.24975C9.086 5.24975 8.75 4.91375 8.75 4.49975ZM19.139 5.43775C18.897 5.10175 18.974 4.63275 19.31 4.39075C19.646 4.14875 20.115 4.22575 20.357 4.56175C21.863 6.65575 22.75 9.22375 22.75 11.9997C22.75 13.5847 22.461 15.1017 21.932 16.5017C21.786 16.8887 21.353 17.0847 20.966 16.9377C20.578 16.7917 20.383 16.3587 20.529 15.9717C20.995 14.7367 21.25 13.3977 21.25 11.9997C21.25 9.55075 20.468 7.28475 19.139 5.43775ZM15.13 8.42875C14.893 8.08875 14.977 7.62175 15.316 7.38475C15.656 7.14775 16.124 7.23075 16.36 7.57075C17.236 8.82575 17.75 10.3527 17.75 11.9997C17.75 12.4137 17.414 12.7497 17 12.7497C16.586 12.7497 16.25 12.4137 16.25 11.9997C16.25 10.6717 15.836 9.44075 15.13 8.42875Z"
        fill="#303233" />
</svg>
