<svg width="24" height="24" viewBox="0 0 24 24" fill="none" xmlns="http://www.w3.org/2000/svg">
    <path fill-rule="evenodd" clip-rule="evenodd"
        d="M2.25 8C2.25 6.48122 3.48122 5.25 5 5.25H16C17.5188 5.25 18.75 6.48122 18.75 8V19C18.75 20.5188 17.5188 21.75 16 21.75H5C3.48122 21.75 2.25 20.5188 2.25 19V8ZM21.6931 2.71291C21.6568 2.62511 21.603 2.5428 21.5319 2.47126L21.5303 2.46967L21.5287 2.46808C21.3931 2.33329 21.2063 2.25 21 2.25H15C14.5858 2.25 14.25 2.58579 14.25 3C14.25 3.41421 14.5858 3.75 15 3.75H19.1893L9.46967 13.4697C9.17678 13.7626 9.17678 14.2374 9.46967 14.5303C9.76256 14.8232 10.2374 14.8232 10.5303 14.5303L20.25 4.81066V9C20.25 9.41421 20.5858 9.75 21 9.75C21.4142 9.75 21.75 9.41421 21.75 9V3C21.75 2.89831 21.7298 2.80134 21.6931 2.71291Z"
        fill="#303233" />
</svg>
