<svg width="24" height="24" viewBox="0 0 24 24" fill="none" xmlns="http://www.w3.org/2000/svg">
    <path
        d="M16 5.25C16.4142 5.25 16.75 5.58579 16.75 6V9C16.75 9.41421 16.4142 9.75 16 9.75C15.5858 9.75 15.25 9.41421 15.25 9V6C15.25 5.58579 15.5858 5.25 16 5.25Z"
        fill="#303233" />
    <path
        d="M13.75 6C13.75 5.58579 13.4142 5.25 13 5.25C12.5858 5.25 12.25 5.58579 12.25 6V9C12.25 9.41421 12.5858 9.75 13 9.75C13.4142 9.75 13.75 9.41421 13.75 9V6Z"
        fill="#303233" />
    <path
        d="M10 5.25C10.4142 5.25 10.75 5.58579 10.75 6V9C10.75 9.41421 10.4142 9.75 10 9.75C9.58582 9.75 9.25003 9.41421 9.25003 9V6C9.25003 5.58579 9.58582 5.25 10 5.25Z"
        fill="#303233" />
    <path
        d="M7.75003 8C7.75003 7.58579 7.41425 7.25 7.00003 7.25C6.58582 7.25 6.25003 7.58579 6.25003 8V9C6.25003 9.41421 6.58582 9.75 7.00003 9.75C7.41425 9.75 7.75003 9.41421 7.75003 9V8Z"
        fill="#303233" />
    <path fill-rule="evenodd" clip-rule="evenodd"
        d="M15.2322 22.75C16.045 22.75 16.7006 22.75 17.2315 22.7066C17.7781 22.662 18.2583 22.5676 18.7025 22.3413C19.4081 21.9818 19.9818 21.4081 20.3413 20.7025C20.5676 20.2582 20.662 19.7781 20.7067 19.2315C20.75 18.7006 20.75 18.0449 20.75 17.2321V6.7679C20.75 5.95506 20.75 5.29944 20.7067 4.76853C20.662 4.2219 20.5676 3.74176 20.3413 3.29754C19.9818 2.59193 19.4081 2.01825 18.7025 1.65873C18.2583 1.43239 17.7781 1.33803 17.2315 1.29337C16.7006 1.24999 16.045 1.24999 15.2321 1.25L8.90279 1.24999C8.25124 1.2498 7.80023 1.24967 7.36725 1.35361C6.98462 1.44548 6.61882 1.59699 6.2833 1.8026C5.90364 2.03526 5.58482 2.35426 5.12423 2.81512L3.81513 4.12421C3.35429 4.5848 3.03529 4.90361 2.80263 5.28327C2.59702 5.61879 2.44551 5.98458 2.35364 6.36722C2.2497 6.8002 2.24983 7.25121 2.25002 7.90277L2.25003 17.2321C2.25002 18.045 2.25002 18.7006 2.29339 19.2315C2.33806 19.7781 2.43242 20.2582 2.65876 20.7025C3.01828 21.4081 3.59196 21.9818 4.29757 22.3413C4.74178 22.5676 5.22193 22.662 5.76856 22.7066C6.29947 22.75 6.95508 22.75 7.76791 22.75H15.2322ZM7.71742 2.81217C7.95629 2.75482 8.21879 2.75 8.98826 2.75H15.2C16.0525 2.75 16.6467 2.75058 17.1094 2.78838C17.5632 2.82547 17.824 2.8946 18.0215 2.99524C18.4449 3.21095 18.7891 3.55516 19.0048 3.97852C19.1054 4.17604 19.1746 4.43681 19.2116 4.89068C19.2494 5.35331 19.25 5.94755 19.25 6.8V17.2C19.25 18.0525 19.2494 18.6467 19.2116 19.1093C19.1746 19.5632 19.1054 19.824 19.0048 20.0215C18.7891 20.4448 18.4449 20.7891 18.0215 21.0048C17.824 21.1054 17.5632 21.1745 17.1094 21.2116C16.6467 21.2494 16.0525 21.25 15.2 21.25H7.80107H7.80003C6.94758 21.25 6.35334 21.2494 5.89071 21.2116C5.43684 21.1745 5.17607 21.1054 4.97855 21.0048C4.55519 20.7891 4.21098 20.4448 3.99527 20.0215C3.89463 19.824 3.8255 19.5632 3.78841 19.1093C3.75061 18.6467 3.75003 18.0525 3.75003 17.2V7.98823C3.75003 7.21875 3.75485 6.95626 3.8122 6.71739C3.86732 6.48781 3.95823 6.26833 4.08159 6.06702C4.20995 5.85756 4.39215 5.66854 4.93625 5.12444L6.12447 3.93622C6.66857 3.39212 6.85759 3.20992 7.06705 3.08156C7.26836 2.9582 7.48784 2.86729 7.71742 2.81217Z"
        fill="#303233" />
</svg>
