<svg width="16" height="16" viewBox="0 0 16 16" fill="none" xmlns="http://www.w3.org/2000/svg">
    <path fill-rule="evenodd" clip-rule="evenodd"
        d="M8.50075 10.45V14.5C8.50075 14.776 8.27664 15 8.0005 15C7.72436 15 7.50025 14.776 7.50025 14.5V10.45H4.96198C4.51276 10.45 4.1976 10.447 3.97649 10.414C3.73137 10.377 3.56028 10.301 3.43322 10.199C3.15908 9.98 3 9.649 3 9.299C3 9.135 3.04702 8.954 3.17209 8.74C3.28414 8.546 3.47824 8.299 3.75938 7.948L4.77989 6.673C4.83292 6.607 4.86293 6.577 4.88194 6.54C4.88794 6.528 4.89295 6.515 4.89595 6.502C4.90395 6.462 4.89895 6.42 4.89895 6.335V4.95C4.89895 4.904 4.89995 4.881 4.89795 4.858C4.89695 4.851 4.89495 4.843 4.89295 4.836C4.88694 4.814 4.87694 4.793 4.85993 4.75L4.2046 3.112C3.95548 2.489 3.88044 2.166 3.93247 1.916C3.9935 1.619 4.17058 1.359 4.42271 1.191C4.63582 1.05 4.96398 1 5.63532 1H10.3647C11.036 1 11.3642 1.05 11.5773 1.191C11.8304 1.359 12.0065 1.619 12.0675 1.916C12.1196 2.166 12.0445 2.489 11.7954 3.112L11.1401 4.75C11.1231 4.793 11.1131 4.814 11.107 4.836C11.105 4.843 11.103 4.851 11.103 4.858C11.1 4.881 11.102 4.904 11.102 4.95V6.335C11.102 6.419 11.096 6.462 11.105 6.502C11.107 6.515 11.1121 6.528 11.1181 6.54C11.1371 6.577 11.1671 6.607 11.2201 6.673L12.2406 7.948C12.5218 8.299 12.7159 8.546 12.8289 8.74C12.953 8.954 13 9.135 13 9.299C13.001 9.649 12.8409 9.98 12.5678 10.199C12.4397 10.301 12.2686 10.377 12.0235 10.414C11.8024 10.447 11.4872 10.45 11.038 10.45H8.50075Z"
        fill="#303233" />
</svg>
