<svg width="16" height="16" viewBox="0 0 16 16" fill="none" xmlns="http://www.w3.org/2000/svg">
    <path
        d="M10.2215 1H5.77853C5.21919 0.999996 4.76899 0.999992 4.40464 1.02976C4.02979 1.06039 3.70198 1.125 3.39915 1.2793C2.91698 1.52497 2.52497 1.91698 2.2793 2.39915C2.125 2.70198 2.06039 3.02979 2.02976 3.40464C1.99999 3.76899 2 4.21918 2 4.77852V7.5H1C0.723858 7.5 0.5 7.72386 0.5 8C0.5 8.27614 0.723858 8.5 1 8.5H15C15.2761 8.5 15.5 8.27614 15.5 8C15.5 7.72386 15.2761 7.5 15 7.5H14V4.77851C14 4.21918 14 3.76899 13.9702 3.40464C13.9396 3.02979 13.875 2.70198 13.7207 2.39915C13.475 1.91698 13.083 1.52497 12.6009 1.2793C12.298 1.125 11.9702 1.06039 11.5954 1.02976C11.231 0.999992 10.7808 0.999996 10.2215 1Z"
        fill="#303233" />
    <path fill-rule="evenodd" clip-rule="evenodd"
        d="M2.5 12.75C2.77614 12.75 3 12.9739 3 13.25C3 13.6642 3.33579 14 3.75 14C4.02614 14 4.25 14.2239 4.25 14.5C4.25 14.7761 4.02614 15 3.75 15C2.7835 15 2 14.2165 2 13.25C2 12.9739 2.22386 12.75 2.5 12.75ZM13.5 12.75C13.7761 12.75 14 12.9739 14 13.25C14 14.2165 13.2165 15 12.25 15C11.9739 15 11.75 14.7761 11.75 14.5C11.75 14.2239 11.9739 14 12.25 14C12.6642 14 13 13.6642 13 13.25C13 12.9739 13.2239 12.75 13.5 12.75Z"
        fill="#303233" />
    <path fill-rule="evenodd" clip-rule="evenodd"
        d="M2.5 10.25C2.77614 10.25 3 10.4739 3 10.75C3 11.0261 2.77614 11.25 2.5 11.25C2.22386 11.25 2 11.0262 2 10.75C2 10.4739 2.22386 10.25 2.5 10.25Z"
        fill="#303233" />
    <path fill-rule="evenodd" clip-rule="evenodd"
        d="M13.5 10.25C13.7761 10.25 14 10.4739 14 10.75C14 11.0261 13.7761 11.25 13.5 11.25C13.2239 11.25 13 11.0262 13 10.75C13 10.4739 13.2239 10.25 13.5 10.25Z"
        fill="#303233" />
    <path fill-rule="evenodd" clip-rule="evenodd"
        d="M6.25 14.5C6.25 14.2239 6.47386 14 6.75 14H9.25C9.52614 14 9.75 14.2239 9.75 14.5C9.75 14.7761 9.52614 15 9.25 15H6.75C6.47386 15 6.25 14.7761 6.25 14.5Z"
        fill="#303233" />
</svg>
