<svg width="24" height="24" viewBox="0 0 24 24" fill="none" xmlns="http://www.w3.org/2000/svg">
    <path fill-rule="evenodd" clip-rule="evenodd"
        d="M19.75 18C19.75 18.4142 19.4142 18.75 19 18.75L5 18.75C4.58579 18.75 4.25 18.4142 4.25 18C4.25 17.5858 4.58579 17.25 5 17.25L19 17.25C19.4142 17.25 19.75 17.5858 19.75 18ZM18.1687 13.0179C18.1617 12.9988 18.1347 12.9316 18.0438 12.7941C17.9006 12.5775 17.6769 12.2968 17.3347 11.869L12.6637 6.03025C12.4417 5.75267 12.3052 5.58321 12.1943 5.4671C12.1265 5.39611 12.0918 5.37101 12.0818 5.36454C12.0288 5.34618 11.9712 5.34618 11.9182 5.36454C11.9082 5.37101 11.8735 5.39611 11.8057 5.4671C11.6948 5.58321 11.5583 5.75267 11.3363 6.03025L6.66526 11.869C6.32305 12.2968 6.09943 12.5775 5.95624 12.7941C5.8653 12.9316 5.83833 12.9988 5.83127 13.0179C5.83582 13.0812 5.86428 13.1404 5.91084 13.1835C5.93021 13.1899 5.9995 13.2108 6.16372 13.2258C6.4223 13.2492 6.78119 13.25 7.329 13.25L16.671 13.25C17.2188 13.25 17.5777 13.2492 17.8363 13.2258C18.0005 13.2108 18.0698 13.1899 18.0892 13.1835C18.1357 13.1404 18.1642 13.0812 18.1687 13.0179ZM11.9212 5.36268C11.9217 5.36242 11.9212 5.36269 11.9212 5.36268V5.36268ZM12.0788 5.36268C12.0783 5.36239 12.0788 5.36267 12.0788 5.36268V5.36268ZM19.6694 12.9981C19.6699 13.531 19.4276 14.0352 19.0111 14.3677C18.6929 14.6217 18.3008 14.6897 17.972 14.7196C17.6371 14.75 17.209 14.75 16.7065 14.75L7.29352 14.75C6.79098 14.75 6.36287 14.75 6.02803 14.7196C5.69917 14.6897 5.3071 14.6217 4.98888 14.3677C4.57236 14.0352 4.33005 13.531 4.33063 12.9981C4.33106 12.5909 4.52286 12.2423 4.70497 11.9668C4.8904 11.6864 5.15784 11.3521 5.47179 10.9597L10.1835 5.06996C10.3811 4.82298 10.5589 4.60071 10.721 4.43104C10.8923 4.25167 11.1032 4.06796 11.3861 3.96198C11.7819 3.8137 12.2181 3.8137 12.6139 3.96198C12.8968 4.06796 13.1077 4.25167 13.279 4.43104C13.4411 4.6007 13.6189 4.82298 13.8164 5.06995L18.5282 10.9597C18.8422 11.3521 19.1096 11.6864 19.295 11.9668C19.4771 12.2423 19.6689 12.5909 19.6694 12.9981Z"
        fill="#303233" />
</svg>
