<svg width="24" height="24" viewBox="0 0 24 24" fill="none" xmlns="http://www.w3.org/2000/svg">
    <path
        d="M5 2.25C4.27065 2.25 3.57118 2.53973 3.05546 3.05546C2.53973 3.57118 2.25 4.27065 2.25 5V8C2.25 8.41421 2.58579 8.75 3 8.75C3.41421 8.75 3.75 8.41421 3.75 8V5C3.75 4.66848 3.8817 4.35054 4.11612 4.11612C4.35054 3.8817 4.66848 3.75 5 3.75H8C8.41421 3.75 8.75 3.41421 8.75 3C8.75 2.58579 8.41421 2.25 8 2.25H5Z"
        fill="#303233" />
    <path
        d="M16 2.25C15.5858 2.25 15.25 2.58579 15.25 3C15.25 3.41421 15.5858 3.75 16 3.75H19C19.3315 3.75 19.6495 3.8817 19.8839 4.11612C20.1183 4.35054 20.25 4.66848 20.25 5V8C20.25 8.41421 20.5858 8.75 21 8.75C21.4142 8.75 21.75 8.41421 21.75 8V5C21.75 4.27065 21.4603 3.57118 20.9445 3.05546C20.4288 2.53973 19.7293 2.25 19 2.25H16Z"
        fill="#303233" />
    <path
        d="M3.75 16C3.75 15.5858 3.41421 15.25 3 15.25C2.58579 15.25 2.25 15.5858 2.25 16V19C2.25 19.7293 2.53973 20.4288 3.05546 20.9445C3.57118 21.4603 4.27065 21.75 5 21.75H8C8.41421 21.75 8.75 21.4142 8.75 21C8.75 20.5858 8.41421 20.25 8 20.25H5C4.66848 20.25 4.35054 20.1183 4.11612 19.8839C3.8817 19.6495 3.75 19.3315 3.75 19V16Z"
        fill="#303233" />
    <path
        d="M21.75 16C21.75 15.5858 21.4142 15.25 21 15.25C20.5858 15.25 20.25 15.5858 20.25 16V19C20.25 19.3315 20.1183 19.6495 19.8839 19.8839C19.6495 20.1183 19.3315 20.25 19 20.25H16C15.5858 20.25 15.25 20.5858 15.25 21C15.25 21.4142 15.5858 21.75 16 21.75H19C19.7293 21.75 20.4288 21.4603 20.9445 20.9445C21.4603 20.4288 21.75 19.7293 21.75 19V16Z"
        fill="#303233" />
    <path
        d="M7 11.25C6.58579 11.25 6.25 11.5858 6.25 12C6.25 12.4142 6.58579 12.75 7 12.75H17C17.4142 12.75 17.75 12.4142 17.75 12C17.75 11.5858 17.4142 11.25 17 11.25H7Z"
        fill="#303233" />
</svg>
