<svg width="16" height="16" viewBox="0 0 16 16" fill="none" xmlns="http://www.w3.org/2000/svg">
    <path
        d="M2.75 5C2.75 3.20507 4.20507 1.75 6 1.75C7.79493 1.75 9.25 3.20507 9.25 5C9.25 6.79493 7.79493 8.25 6 8.25C4.20507 8.25 2.75 6.79493 2.75 5Z"
        fill="#303233" />
    <path
        d="M0.364606 13.3508C0.897431 10.7259 3.21692 8.75 5.9996 8.75C8.78227 8.75 11.1018 10.7259 11.6346 13.3508C11.6794 13.5714 11.6227 13.8004 11.4803 13.9747C11.3378 14.1489 11.1247 14.25 10.8996 14.25H1.09962C0.874544 14.25 0.66137 14.1489 0.518927 13.9747C0.376484 13.8004 0.319832 13.5714 0.364606 13.3508Z"
        fill="#303233" />
    <path
        d="M12.4697 10.5303C12.7626 10.8232 13.2374 10.8232 13.5303 10.5303L15.5303 8.53033C15.8232 8.23744 15.8232 7.76256 15.5303 7.46967C15.2374 7.17678 14.7626 7.17678 14.4697 7.46967L13.75 8.18934V6C13.75 5.58579 13.4142 5.25 13 5.25C12.5858 5.25 12.25 5.58579 12.25 6V8.18934L11.5303 7.46967C11.2374 7.17678 10.7626 7.17678 10.4697 7.46967C10.1768 7.76256 10.1768 8.23744 10.4697 8.53033L12.4697 10.5303Z"
        fill="#303233" />
</svg>
