<svg width="16" height="16" viewBox="0 0 16 16" fill="none" xmlns="http://www.w3.org/2000/svg">
    <path fill-rule="evenodd" clip-rule="evenodd"
        d="M5.52918 0.750001C5.53847 0.750001 5.54779 0.750002 5.55714 0.750002L10.4708 0.750001C10.8069 0.749986 11.1031 0.749972 11.3484 0.770009C11.6092 0.791316 11.8776 0.838964 12.1385 0.971881C12.5215 1.16705 12.833 1.47848 13.0281 1.86152C13.161 2.12239 13.2087 2.39084 13.23 2.65162C13.25 2.89685 13.25 3.19306 13.25 3.52917V12.4708C13.25 12.8069 13.25 13.1031 13.23 13.3484C13.2087 13.6092 13.161 13.8776 13.0281 14.1385C12.833 14.5215 12.5215 14.833 12.1385 15.0281C11.8776 15.161 11.6092 15.2087 11.3484 15.23C11.1031 15.25 10.8069 15.25 10.4708 15.25H5.52917C5.19306 15.25 4.89685 15.25 4.65162 15.23C4.39084 15.2087 4.12239 15.161 3.86152 15.0281C3.47848 14.833 3.16705 14.5215 2.97188 14.1385C2.83896 13.8776 2.79132 13.6092 2.77001 13.3484C2.74997 13.1031 2.74999 12.8069 2.75 12.4708L2.75 3.55715C2.75 3.54779 2.75 3.53847 2.75 3.52918C2.74999 3.19307 2.74997 2.89686 2.77001 2.65162C2.79132 2.39084 2.83896 2.12239 2.97188 1.86152C3.16705 1.47848 3.47848 1.16705 3.86152 0.971881C4.12239 0.838964 4.39084 0.791316 4.65162 0.770009C4.89686 0.749972 5.19307 0.749986 5.52918 0.750001ZM4.77376 2.26503C4.60575 2.27875 4.55667 2.30117 4.54251 2.30839C4.44171 2.35975 4.35975 2.44171 4.30839 2.54251C4.30117 2.55667 4.27875 2.60575 4.26503 2.77376C4.25058 2.95053 4.25 3.18474 4.25 3.55715V12.4429C4.25 12.8153 4.25058 13.0495 4.26503 13.2262C4.27876 13.3943 4.30117 13.4433 4.30839 13.4575C4.35975 13.5583 4.4417 13.6403 4.54251 13.6916C4.55667 13.6988 4.60575 13.7212 4.77376 13.735C4.95053 13.7494 5.18473 13.75 5.55714 13.75H10.4429C10.8153 13.75 11.0495 13.7494 11.2262 13.735C11.3943 13.7212 11.4433 13.6988 11.4575 13.6916C11.5583 13.6403 11.6403 13.5583 11.6916 13.4575C11.6988 13.4433 11.7212 13.3943 11.735 13.2262C11.7494 13.0495 11.75 12.8153 11.75 12.4429V3.55714C11.75 3.18474 11.7494 2.95053 11.735 2.77376C11.7212 2.60575 11.6988 2.55667 11.6916 2.54251C11.6403 2.44171 11.5583 2.35975 11.4575 2.30839C11.4433 2.30117 11.3943 2.27875 11.2262 2.26503C11.0495 2.25058 10.8153 2.25 10.4429 2.25H5.55714C5.18474 2.25 4.95053 2.25058 4.77376 2.26503ZM6.92857 11.6786C6.92857 11.0868 7.40827 10.6071 8 10.6071C8.59174 10.6071 9.07143 11.0868 9.07143 11.6786C9.07143 12.2703 8.59173 12.75 8 12.75C7.40827 12.75 6.92857 12.2703 6.92857 11.6786Z"
        fill="#303233" />
</svg>
