<svg width="16" height="16" viewBox="0 0 16 16" fill="none" xmlns="http://www.w3.org/2000/svg">
    <g clip-path="url(#clip0_53_9506)">
        <path fill-rule="evenodd" clip-rule="evenodd"
            d="M1.53033 0.46967C1.23744 0.176777 0.762563 0.176777 0.46967 0.46967C0.176777 0.762563 0.176777 1.23744 0.46967 1.53033L14.4697 15.5303C14.7626 15.8232 15.2374 15.8232 15.5303 15.5303C15.8232 15.2374 15.8232 14.7626 15.5303 14.4697L14.6956 13.635C14.7854 13.5135 14.8655 13.3843 14.9347 13.2485C15.1065 12.9112 15.1736 12.5546 15.2047 12.1747C15.2344 11.8105 15.2344 11.3646 15.2344 10.8305V5.16955C15.2344 4.63542 15.2344 4.18955 15.2047 3.82533C15.1736 3.44545 15.1065 3.08879 14.9347 2.75153C14.671 2.23408 14.2503 1.81338 13.7329 1.54973C13.3956 1.37789 13.039 1.31078 12.6591 1.27974C12.2949 1.24998 11.849 1.24999 11.3148 1.25H4.66963C4.13547 1.24999 3.68962 1.24998 3.32539 1.27974C3.03829 1.3032 2.76445 1.34726 2.50222 1.44156L1.53033 0.46967ZM10.7666 9.70598L13.608 12.5473C13.6502 12.4566 13.6879 12.3191 13.7097 12.0525C13.7338 11.7566 13.7344 11.3724 13.7344 10.8V5.2C13.7344 4.62757 13.7338 4.24336 13.7097 3.94748C13.6862 3.66036 13.6443 3.52307 13.5982 3.43251C13.4783 3.19731 13.2871 3.00608 13.0519 2.88624C12.9613 2.8401 12.8241 2.79822 12.5369 2.77476C12.2411 2.75058 11.8568 2.75 11.2844 2.75H4.70006C4.33933 2.75 4.05335 2.75023 3.81711 2.75645L6.29402 5.23336C6.78998 4.92706 7.37492 4.75 8 4.75C9.79493 4.75 11.25 6.20507 11.25 8C11.25 8.62509 11.0729 9.21002 10.7666 9.70598ZM9.6489 8.58823C9.7144 8.40457 9.75 8.20667 9.75 8C9.75 7.0335 8.9665 6.25 8 6.25C7.79333 6.25 7.59543 6.2856 7.41177 6.35111L9.6489 8.58823Z"
            fill="#303233" />
        <path
            d="M1.5 4.25C1.91421 4.25 2.25 4.58579 2.25 5V10.8C2.25 11.3724 2.25058 11.7566 2.27476 12.0525C2.29822 12.3396 2.3401 12.4769 2.38624 12.5675C2.50608 12.8027 2.69731 12.9939 2.93251 13.1138C3.02307 13.1599 3.16036 13.2018 3.44748 13.2252C3.74336 13.2494 4.12757 13.25 4.7 13.25H10.5C10.9142 13.25 11.25 13.5858 11.25 14C11.25 14.4142 10.9142 14.75 10.5 14.75H4.6696C4.13545 14.75 3.68956 14.75 3.32533 14.7203C2.94545 14.6892 2.58879 14.6221 2.25153 14.4503C1.73408 14.1866 1.31338 13.7659 1.04973 13.2485C0.877889 12.9112 0.810778 12.5546 0.77974 12.1747C0.749981 11.8104 0.74999 11.3646 0.75 10.8304L0.750001 5C0.750001 4.58579 1.08579 4.25 1.5 4.25Z"
            fill="#303233" />
        <path
            d="M6.25 8C6.25 7.58579 5.91421 7.25 5.5 7.25C5.08579 7.25 4.75 7.58579 4.75 8C4.75 9.79493 6.20507 11.25 8 11.25C8.41421 11.25 8.75 10.9142 8.75 10.5C8.75 10.0858 8.41421 9.75 8 9.75C7.0335 9.75 6.25 8.9665 6.25 8Z"
            fill="#303233" />
    </g>
    <defs>
        <clipPath id="clip0_53_9506">
            <rect width="16" height="16" fill="white" />
        </clipPath>
    </defs>
</svg>
