<svg width="16" height="16" viewBox="0 0 16 16" fill="none" xmlns="http://www.w3.org/2000/svg">
    <path fill-rule="evenodd" clip-rule="evenodd"
        d="M7.5 4H7.25C6.00736 4 5 5.00736 5 6.25C5 7.49264 6.00736 8.5 7.25 8.5H7.5V11H5.5C5.22386 11 5 11.2239 5 11.5C5 11.7761 5.22386 12 5.5 12H7.5V12.5C7.5 12.7761 7.72386 13 8 13C8.27614 13 8.5 12.7761 8.5 12.5V12H9.25C10.4926 12 11.5 10.9926 11.5 9.75C11.5 8.50736 10.4926 7.5 9.25 7.5H8.5V5H10.5C10.7761 5 11 4.77614 11 4.5C11 4.22386 10.7761 4 10.5 4H8.5V3.5C8.5 3.22386 8.27614 3 8 3C7.72386 3 7.5 3.22386 7.5 3.5V4ZM7.25 5C6.55964 5 6 5.55964 6 6.25C6 6.94036 6.55964 7.5 7.25 7.5H7.5V5H7.25ZM8.5 8.5V11H9.25C9.94036 11 10.5 10.4404 10.5 9.75C10.5 9.05964 9.94036 8.5 9.25 8.5H8.5Z"
        fill="#303233" />
    <path fill-rule="evenodd" clip-rule="evenodd"
        d="M1 8C1 4.13401 4.13401 1 8 1C11.866 1 15 4.13401 15 8C15 11.866 11.866 15 8 15C4.13401 15 1 11.866 1 8ZM8 2C4.68629 2 2 4.68629 2 8C2 11.3137 4.68629 14 8 14C11.3137 14 14 11.3137 14 8C14 4.68629 11.3137 2 8 2Z"
        fill="#303233" />
</svg>
