<svg width="16" height="16" viewBox="0 0 16 16" fill="none" xmlns="http://www.w3.org/2000/svg">
    <path
        d="M1.95357 0.999929L2.0001 0.999981H14.0001L14.0466 0.999929C14.231 0.999623 14.4122 0.999321 14.5736 1.04257C15.005 1.15816 15.3419 1.49509 15.4575 1.92646C15.5008 2.08788 15.5005 2.26908 15.5002 2.45345L15.5001 2.49998L15.5002 2.54652C15.5005 2.73088 15.5008 2.91208 15.4575 3.0735C15.3419 3.50487 15.005 3.8418 14.5736 3.95739C14.4122 4.00064 14.231 4.00034 14.0466 4.00003L14.0001 3.99998H2.0001L1.95357 4.00003C1.76921 4.00034 1.588 4.00064 1.42658 3.95739C0.995214 3.8418 0.65828 3.50487 0.542696 3.0735C0.499443 2.91208 0.499745 2.73088 0.500051 2.54652L0.500103 2.49998L0.500051 2.45344C0.499745 2.26908 0.499443 2.08788 0.542696 1.92646C0.65828 1.49509 0.995214 1.15816 1.42658 1.04257C1.588 0.999321 1.7692 0.999623 1.95357 0.999929Z"
        fill="#303233" />
    <path
        d="M1.95357 5.99993L2.0001 5.99998H14.0001L14.0466 5.99993C14.231 5.99962 14.4122 5.99932 14.5736 6.04257C15.005 6.15816 15.3419 6.49509 15.4575 6.92646C15.5008 7.08788 15.5005 7.26908 15.5002 7.45344L15.5001 7.49998L15.5002 7.54652C15.5005 7.73088 15.5008 7.91208 15.4575 8.0735C15.3419 8.50487 15.005 8.8418 14.5736 8.95739C14.4122 9.00064 14.231 9.00034 14.0466 9.00003L14.0001 8.99998H2.0001L1.95357 9.00003C1.7692 9.00034 1.588 9.00064 1.42658 8.95739C0.995214 8.8418 0.65828 8.50487 0.542696 8.0735C0.499443 7.91208 0.499745 7.73088 0.500051 7.54652L0.500103 7.49998L0.500051 7.45344C0.499745 7.26908 0.499443 7.08788 0.542696 6.92646C0.65828 6.49509 0.995214 6.15816 1.42658 6.04257C1.588 5.99932 1.7692 5.99962 1.95357 5.99993Z"
        fill="#303233" />
    <path
        d="M2.0001 11L1.95357 10.9999C1.7692 10.9996 1.588 10.9993 1.42658 11.0426C0.995214 11.1582 0.65828 11.4951 0.542696 11.9265C0.499443 12.0879 0.499745 12.2691 0.500051 12.4534L0.500103 12.5L0.500051 12.5465C0.499745 12.7309 0.499443 12.9121 0.542696 13.0735C0.65828 13.5049 0.995214 13.8418 1.42658 13.9574C1.588 14.0006 1.7692 14.0003 1.95357 14L2.0001 14H14.0001L14.0466 14C14.231 14.0003 14.4122 14.0006 14.5736 13.9574C15.005 13.8418 15.3419 13.5049 15.4575 13.0735C15.5008 12.9121 15.5005 12.7309 15.5002 12.5465L15.5001 12.5L15.5002 12.4534C15.5005 12.2691 15.5008 12.0879 15.4575 11.9265C15.3419 11.4951 15.005 11.1582 14.5736 11.0426C14.4122 10.9993 14.231 10.9996 14.0466 10.9999L14.0001 11H2.0001Z"
        fill="#303233" />
</svg>
