<svg width="16" height="16" viewBox="0 0 16 16" fill="none" xmlns="http://www.w3.org/2000/svg">
    <path fill-rule="evenodd" clip-rule="evenodd"
        d="M2.5 2.75C1.5335 2.75 0.75 3.5335 0.75 4.5V5.75H6.25C7.35457 5.75 8.25 6.64543 8.25 7.75V13.25H9.5C10.4665 13.25 11.25 12.4665 11.25 11.5V10.7135L14.1646 12.1708C14.3971 12.2871 14.6732 12.2746 14.8943 12.138C15.1154 12.0013 15.25 11.7599 15.25 11.5V4.5C15.25 4.24007 15.1154 3.99867 14.8943 3.86201C14.6732 3.72536 14.3971 3.71293 14.1646 3.82918L11.25 5.28648V4.5C11.25 3.5335 10.4665 2.75 9.5 2.75H2.5ZM1.5 7.25H6C6.10169 7.25 6.19866 7.27024 6.28709 7.30691C6.37555 7.34351 6.45842 7.39776 6.53033 7.46967C6.60224 7.54158 6.65649 7.62445 6.69309 7.71291C6.72976 7.80134 6.75 7.89831 6.75 8V12.5C6.75 12.9142 6.41421 13.25 6 13.25C5.58579 13.25 5.25 12.9142 5.25 12.5V9.81066L2.03033 13.0303C1.73744 13.3232 1.26256 13.3232 0.96967 13.0303C0.676777 12.7374 0.676777 12.2626 0.96967 11.9697L4.18934 8.75H1.5C1.08579 8.75 0.75 8.41421 0.75 8C0.75 7.58579 1.08579 7.25 1.5 7.25Z"
        fill="#303233" />
</svg>
