<svg width="24" height="24" viewBox="0 0 24 24" fill="none" xmlns="http://www.w3.org/2000/svg">
    <path fill-rule="evenodd" clip-rule="evenodd"
        d="M12 1.25C6.06294 1.25 1.25 6.06294 1.25 12C1.25 17.9371 6.06294 22.75 12 22.75C17.9371 22.75 22.75 17.9371 22.75 12C22.75 6.06294 17.9371 1.25 12 1.25ZM11.9972 2.75L12.0028 2.75C13.2791 2.75038 14.495 3.00926 15.601 3.47712L14.3004 6.72863C13.596 6.42078 12.8179 6.25 12 6.25C11.1818 6.25 10.4036 6.42088 9.69898 6.7289L8.39837 3.47738C9.50451 3.00935 10.7206 2.75038 11.9972 2.75ZM6.72876 9.69928L3.47725 8.39868C3.00896 9.50555 2.75 10.7225 2.75 12C2.75 13.2775 3.00896 14.4945 3.47725 15.6013L6.72877 14.3007C6.42083 13.5962 6.25 12.818 6.25 12C6.25 11.182 6.42083 10.4038 6.72876 9.69928ZM9.69958 17.2714L8.39898 20.5229C9.50577 20.9911 10.7226 21.25 12 21.25C13.2776 21.25 14.4947 20.991 15.6016 20.5226L14.301 17.2711C13.5964 17.5791 12.8182 17.75 12 17.75C11.1821 17.75 10.404 17.5792 9.69958 17.2714ZM17.2712 14.3007L20.5227 15.6013C20.991 14.4945 21.25 13.2775 21.25 12C21.25 10.7225 20.991 9.50555 20.5227 8.39868L17.2712 9.69928C17.5792 10.4038 17.75 11.182 17.75 12C17.75 12.818 17.5792 13.5962 17.2712 14.3007ZM7.75 12C7.75 9.65279 9.65279 7.75 12 7.75C14.3472 7.75 16.25 9.65279 16.25 12C16.25 14.3472 14.3472 16.25 12 16.25C9.65279 16.25 7.75 14.3472 7.75 12Z"
        fill="#303233" />
</svg>
