<svg width="16" height="16" viewBox="0 0 16 16" fill="none" xmlns="http://www.w3.org/2000/svg">
    <path fill-rule="evenodd" clip-rule="evenodd"
        d="M12.9286 2.70038C12.7638 2.71339 12.5484 2.74883 12.2192 2.80371L7.41916 3.60371C7.17425 3.64453 7.01791 3.67092 6.89949 3.69998C6.78717 3.72754 6.74511 3.74951 6.72313 3.76412C6.64458 3.81636 6.58241 3.88975 6.5438 3.97581C6.533 3.99989 6.51825 4.04499 6.50953 4.16031C6.50033 4.2819 6.5 4.44046 6.5 4.68874V12L6.5 12.0011C6.4994 13.3813 5.38034 14.5 4 14.5C2.61929 14.5 1.5 13.3807 1.5 12C1.5 10.6193 2.61929 9.5 4 9.5C4.5628 9.5 5.08217 9.68597 5.5 9.99982L5.5 4.67141C5.49999 4.44544 5.49999 4.24872 5.51237 4.0849C5.52555 3.91063 5.5546 3.73771 5.63141 3.56651C5.74724 3.3083 5.93375 3.08813 6.1694 2.93143C6.32564 2.82753 6.49144 2.77044 6.66117 2.72879C6.82073 2.68964 7.01477 2.65731 7.23766 2.62017L12.0756 1.81385C12.3783 1.76338 12.6367 1.72031 12.8499 1.70348C13.0727 1.6859 13.299 1.69139 13.5223 1.77433C13.8511 1.89644 14.1266 2.1299 14.3011 2.43413C14.4197 2.64075 14.4623 2.86306 14.4816 3.08568C14.5 3.29875 14.5 3.56072 14.5 3.8676L14.5 11C14.5 11.0004 14.5 11.0007 14.5 11.0011C14.4994 12.3813 13.3803 13.5 12 13.5C10.6193 13.5 9.5 12.3807 9.5 11C9.5 9.61929 10.6193 8.5 12 8.5C12.5628 8.5 13.0822 8.68597 13.5 8.99982V3.88874C13.5 3.55494 13.4996 3.33669 13.4853 3.17196C13.4714 3.01189 13.4478 2.95618 13.4337 2.93169C13.3755 2.83028 13.2837 2.75246 13.1741 2.71175C13.1476 2.70192 13.0888 2.68774 12.9286 2.70038ZM13.5 11C13.5 10.1716 12.8284 9.5 12 9.5C11.1716 9.5 10.5 10.1716 10.5 11C10.5 11.8284 11.1716 12.5 12 12.5C12.8284 12.5 13.5 11.8284 13.5 11ZM4 10.5C4.82843 10.5 5.5 11.1716 5.5 12C5.5 12.8284 4.82843 13.5 4 13.5C3.17157 13.5 2.5 12.8284 2.5 12C2.5 11.1716 3.17157 10.5 4 10.5Z"
        fill="#303233" />
</svg>
