<svg width="16" height="16" viewBox="0 0 16 16" fill="none" xmlns="http://www.w3.org/2000/svg">
    <path fill-rule="evenodd" clip-rule="evenodd"
        d="M11.0538 4.77072C10.9875 4.75482 10.9085 4.75 10.5059 4.75H3.9C3.46759 4.75 3.18838 4.75058 2.97588 4.76795C2.77213 4.78459 2.69659 4.81285 2.65951 4.83175C2.51839 4.90365 2.40365 5.01839 2.33175 5.15951C2.31285 5.19659 2.28459 5.27213 2.26795 5.47588C2.25058 5.68838 2.25 5.96759 2.25 6.4V9.6C2.25 10.0324 2.25058 10.3116 2.26795 10.5241C2.28459 10.7279 2.31285 10.8034 2.33175 10.8405C2.40365 10.9816 2.51839 11.0963 2.65951 11.1683C2.69659 11.1871 2.77213 11.2154 2.97588 11.2321C3.18838 11.2494 3.46759 11.25 3.9 11.25H10.5059C10.9085 11.25 10.9875 11.2452 11.0538 11.2293C11.1303 11.2109 11.2035 11.1806 11.2706 11.1395C11.3286 11.1039 11.3879 11.0514 11.6726 10.7667L13.8383 8.60104C14.0451 8.39428 14.1678 8.27069 14.2517 8.17193C14.3028 8.11166 14.3203 8.08223 14.3246 8.074C14.3395 8.0258 14.3395 7.97421 14.3246 7.92601C14.3203 7.91778 14.3028 7.88835 14.2517 7.82807C14.1678 7.72931 14.0451 7.60572 13.8383 7.39896L11.6726 5.23327C11.3879 4.9486 11.3286 4.89611 11.2706 4.86052C11.2035 4.8194 11.1303 4.7891 11.0538 4.77072ZM10.5684 3.24996C10.8735 3.24968 11.1426 3.24943 11.4039 3.31217C11.6335 3.36729 11.853 3.4582 12.0543 3.58156C12.2835 3.72199 12.4735 3.91242 12.6891 4.12841C12.7037 4.14303 12.7184 4.15777 12.7333 4.17261L14.9175 6.35681C15.0996 6.53888 15.2668 6.70609 15.3952 6.85731C15.5336 7.02033 15.6703 7.21339 15.7501 7.45922C15.8643 7.8107 15.8643 8.1893 15.7501 8.54078C15.6703 8.78661 15.5336 8.97967 15.3952 9.14269C15.2668 9.2939 15.0996 9.46111 14.9175 9.64316L12.7333 11.8274C12.7184 11.8422 12.7037 11.857 12.6891 11.8716C12.4735 12.0876 12.2835 12.278 12.0543 12.4184C11.853 12.5418 11.6335 12.6327 11.4039 12.6878C11.1426 12.7506 10.8735 12.7503 10.5684 12.75C10.5477 12.75 10.5269 12.75 10.5059 12.75H3.87108C3.47572 12.75 3.13466 12.75 2.85373 12.7271C2.55722 12.7028 2.26231 12.6494 1.97852 12.5048C1.55516 12.289 1.21095 11.9448 0.995237 11.5215C0.850641 11.2377 0.797154 10.9428 0.772928 10.6463C0.749976 10.3653 0.749987 10.0243 0.750001 9.62891V6.37109C0.749987 5.97573 0.749976 5.63466 0.772928 5.35373C0.797154 5.05722 0.850641 4.76231 0.995237 4.47852C1.21095 4.05516 1.55516 3.71095 1.97852 3.49524C2.26231 3.35064 2.55722 3.29715 2.85373 3.27293C3.13466 3.24997 3.47573 3.24999 3.87109 3.25L10.5059 3.25C10.5269 3.25 10.5477 3.24998 10.5684 3.24996Z"
        fill="#303233" />
</svg>
