<svg width="24" height="24" viewBox="0 0 24 24" fill="none" xmlns="http://www.w3.org/2000/svg">
    <path
        d="M5.79734 2.25H16.2027C17.0292 2.24999 17.6958 2.24999 18.2354 2.29479C18.791 2.34093 19.2787 2.43844 19.7287 2.6722C20.4136 3.02798 20.972 3.58643 21.3278 4.27135C21.5869 4.77005 21.6794 5.31723 21.7188 5.95356C21.7445 6.36698 21.4301 6.72291 21.0167 6.74856C20.6033 6.77421 20.2474 6.45986 20.2217 6.04644C20.187 5.48669 20.1127 5.1861 19.9967 4.96281C19.7832 4.55186 19.4481 4.21679 19.0372 4.00332C18.837 3.89932 18.5724 3.82795 18.1112 3.78965C17.6411 3.7506 17.0368 3.75 16.17 3.75H5.83C4.96318 3.75 4.35892 3.7506 3.88876 3.78965C3.42759 3.82795 3.16302 3.89932 2.96281 4.00332C2.55186 4.21679 2.21679 4.55186 2.00332 4.96281C1.89932 5.16302 1.82795 5.42759 1.78965 5.88876C1.7506 6.35892 1.75 6.96318 1.75 7.83V14.17C1.75 15.0368 1.7506 15.6411 1.78965 16.1112C1.82795 16.5724 1.89932 16.837 2.00332 17.0372C2.21679 17.4481 2.55186 17.7832 2.96281 17.9967C3.16302 18.1007 3.42759 18.1721 3.88876 18.2104C4.35892 18.2494 4.96318 18.25 5.83 18.25H6C6.41421 18.25 6.75 18.5858 6.75 19C6.75 19.4142 6.41421 19.75 6 19.75H5.79735C4.97082 19.75 4.30417 19.75 3.76462 19.7052C3.20901 19.6591 2.72135 19.5616 2.27135 19.3278C1.58644 18.972 1.02798 18.4136 0.6722 17.7287C0.438442 17.2787 0.340935 16.791 0.294794 16.2354C0.249987 15.6958 0.249993 15.0292 0.25 14.2027V7.79733C0.249993 6.97081 0.249987 6.30416 0.294794 5.76462C0.340935 5.20901 0.438442 4.72135 0.6722 4.27135C1.02798 3.58644 1.58644 3.02798 2.27135 2.6722C2.72135 2.43844 3.20901 2.34093 3.76462 2.29479C4.30416 2.24999 4.97083 2.24999 5.79734 2.25Z"
        fill="#303233" />
    <path fill-rule="evenodd" clip-rule="evenodd"
        d="M14.7973 9.25H18.2027C19.0292 9.24999 19.6958 9.24999 20.2354 9.29479C20.791 9.34093 21.2787 9.43844 21.7287 9.6722C22.4136 10.028 22.972 10.5864 23.3278 11.2713C23.5616 11.7213 23.6591 12.209 23.7052 12.7646C23.75 13.3042 23.75 13.9709 23.75 14.7973V16.2027C23.75 17.0292 23.75 17.6958 23.7052 18.2354C23.6591 18.791 23.5616 19.2787 23.3278 19.7287C22.972 20.4136 22.4136 20.972 21.7287 21.3278C21.2787 21.5616 20.791 21.6591 20.2354 21.7052C19.6958 21.75 19.0291 21.75 18.2027 21.75H14.7973C13.9708 21.75 13.3042 21.75 12.7646 21.7052C12.209 21.6591 11.7213 21.5616 11.2713 21.3278C10.5864 20.972 10.028 20.4136 9.6722 19.7287C9.43844 19.2787 9.34093 18.791 9.29479 18.2354C9.24999 17.6958 9.24999 17.0292 9.25 16.2027V14.7973C9.24999 13.9708 9.24999 13.3042 9.29479 12.7646C9.34093 12.209 9.43844 11.7213 9.6722 11.2713C10.028 10.5864 10.5864 10.028 11.2713 9.6722C11.7213 9.43844 12.209 9.34093 12.7646 9.29479C13.3042 9.24999 13.9708 9.24999 14.7973 9.25ZM16.5 15.5C17.854 15.5 18.9517 14.4367 18.9517 13.125C18.9517 11.8133 17.854 10.75 16.5 10.75C15.146 10.75 14.0483 11.8133 14.0483 13.125C14.0483 14.4367 15.146 15.5 16.5 15.5ZM20.6714 20.25C21.0399 20.25 21.328 19.9353 21.231 19.5908C20.6636 17.5754 18.7604 16.0938 16.5 16.0938C14.2396 16.0938 12.3364 17.5754 11.769 19.5908C11.672 19.9353 11.96 20.25 12.3286 20.25H20.6714Z"
        fill="#303233" />
</svg>
