<svg width="16" height="16" viewBox="0 0 16 16" fill="none" xmlns="http://www.w3.org/2000/svg">
    <path
        d="M5.45235 7.75206H7.58879C7.58879 7.97175 7.57964 8.1713 7.56133 8.35071C7.54302 8.53012 7.50641 8.69671 7.45149 8.85049C7.3746 9.06652 7.27025 9.25874 7.13843 9.42717C7.00662 9.59193 6.85101 9.73107 6.6716 9.84457C6.49585 9.95441 6.3018 10.0386 6.08944 10.0972C5.87707 10.1558 5.65373 10.1851 5.41939 10.1851C5.09719 10.1851 4.80244 10.132 4.53516 10.0258C4.27154 9.91963 4.04453 9.77134 3.85414 9.58095C3.66374 9.38689 3.51545 9.15622 3.40927 8.88894C3.30309 8.61799 3.25 8.31959 3.25 7.99372C3.25 7.67151 3.30126 7.37677 3.40378 7.10948C3.50996 6.83854 3.65825 6.60787 3.84864 6.41747C4.0427 6.22708 4.2752 6.07879 4.54614 5.97261C4.81709 5.86643 5.11916 5.81334 5.45235 5.81334C5.8844 5.81334 6.26335 5.90671 6.58922 6.09344C6.91509 6.28017 7.17322 6.56942 7.36361 6.9612L6.34207 7.38409C6.24688 7.15708 6.12239 6.99415 5.96861 6.89529C5.81849 6.79643 5.6464 6.747 5.45235 6.747C5.29124 6.747 5.14479 6.77812 5.01298 6.84037C4.88117 6.89895 4.76766 6.985 4.67246 7.0985C4.58093 7.20834 4.5077 7.34198 4.45278 7.49943C4.40152 7.65687 4.37589 7.83262 4.37589 8.02667C4.37589 8.20242 4.39786 8.36535 4.44179 8.51547C4.48939 8.66559 4.55896 8.79557 4.6505 8.90541C4.74203 9.01526 4.85554 9.1013 4.99101 9.16354C5.12648 9.22213 5.28392 9.25142 5.46333 9.25142C5.56951 9.25142 5.67203 9.24043 5.77089 9.21847C5.86975 9.19284 5.95762 9.15439 6.03451 9.10313C6.11507 9.04821 6.18097 8.97864 6.23223 8.89443C6.28349 8.81022 6.31827 8.7077 6.33658 8.58687H5.45235V7.75206Z"
        fill="#303233" />
    <path d="M9.34563 5.92867V10.0697H8.26917V5.92867H9.34563Z" fill="#303233" />
    <path
        d="M11.2872 6.84037H12.5833V5.92867H10.2107V10.0697H11.2872V8.44407H12.468V7.53238H11.2872V6.84037Z"
        fill="#303233" />
    <path fill-rule="evenodd" clip-rule="evenodd"
        d="M8 2.24998C6.98182 2.24998 5.96957 2.2747 4.96388 2.32354L4.82597 2.33017C3.86078 2.37635 3.14621 2.41053 2.4912 2.76644C1.95104 3.05995 1.43202 3.59138 1.15136 4.13833C0.811039 4.80153 0.793843 5.51269 0.770634 6.47255L0.767303 6.60894C0.755789 7.0713 0.75 7.535 0.75 7.99998C0.75 8.46497 0.755789 8.92867 0.767303 9.39103L0.770634 9.52742C0.793843 10.4873 0.811039 11.1984 1.15136 11.8616C1.43202 12.4086 1.95104 12.94 2.4912 13.2335C3.14621 13.5894 3.86078 13.6236 4.82597 13.6698L4.96388 13.6764C5.96957 13.7253 6.98182 13.75 8 13.75C9.01818 13.75 10.0304 13.7253 11.0361 13.6764L11.174 13.6698C12.1392 13.6236 12.8538 13.5894 13.5088 13.2335C14.049 12.94 14.568 12.4086 14.8486 11.8616C15.189 11.1984 15.2062 10.4873 15.2294 9.52742L15.2327 9.39103C15.2442 8.92867 15.25 8.46497 15.25 7.99998C15.25 7.535 15.2442 7.0713 15.2327 6.60894L15.2294 6.47255C15.2062 5.51269 15.189 4.80153 14.8486 4.13833C14.568 3.59138 14.049 3.05995 13.5088 2.76644C12.8538 2.41053 12.1392 2.37635 11.174 2.33017L11.0361 2.32354C10.0304 2.2747 9.01818 2.24998 8 2.24998ZM5.03664 3.82178C6.01811 3.77411 7.00609 3.74998 8 3.74998C8.99391 3.74998 9.98189 3.77411 10.9634 3.82178C12.1265 3.87826 12.4748 3.91171 12.7926 4.08444C13.0677 4.23389 13.3712 4.54465 13.5141 4.82315C13.6794 5.14522 13.7044 5.49091 13.7332 6.64628C13.7444 7.0962 13.75 7.54745 13.75 7.99998C13.75 8.45252 13.7444 8.90377 13.7332 9.35369C13.7044 10.5091 13.6794 10.8548 13.5141 11.1768C13.3712 11.4553 13.0677 11.7661 12.7926 11.9155C12.4748 12.0883 12.1265 12.1217 10.9634 12.1782C9.98189 12.2259 8.99391 12.25 8 12.25C7.00609 12.25 6.01811 12.2259 5.03664 12.1782C3.87353 12.1217 3.52524 12.0883 3.20736 11.9155C2.93232 11.7661 2.62882 11.4553 2.48591 11.1768C2.32064 10.8548 2.29561 10.5091 2.26684 9.35368C2.25563 8.90377 2.25 8.45252 2.25 7.99998C2.25 7.54745 2.25563 7.0962 2.26684 6.64629C2.29561 5.49091 2.32064 5.14522 2.48591 4.82315C2.62882 4.54465 2.93232 4.23389 3.20736 4.08444C3.52524 3.91171 3.87353 3.87826 5.03664 3.82178Z"
        fill="#303233" />
</svg>
