<svg width="24" height="24" viewBox="0 0 24 24" fill="none" xmlns="http://www.w3.org/2000/svg">
    <path fill-rule="evenodd" clip-rule="evenodd"
        d="M2.409 7.141L2.404 7.15C1.666 8.606 1.25 10.255 1.25 12C1.25 17.937 6.063 22.75 12 22.75C17.937 22.75 22.75 17.937 22.75 12C22.75 6.919 19.224 2.66 14.485 1.539L14.477 1.537C13.682 1.349 12.853 1.25 12 1.25C7.812 1.25 4.183 3.645 2.409 7.141ZM12.38 13.918L12.421 13.931L13.233 14.202L15.821 15.31L15.874 15.334L15.842 15.384L14.613 17.228L14.599 17.25H12.541L12.529 17.216L11.81 15.059L12.38 13.918ZM13.523 2.875C13.028 2.793 12.519 2.75 12 2.75C8.624 2.75 5.67 4.559 4.055 7.26L7.8 9.935L7.84 9.963L7.869 9.925L8.775 8.716L8.948 8.51C9.009 8.451 9.075 8.398 9.147 8.352C9.203 8.316 9.262 8.285 9.386 8.23L13.254 6.511L13.281 6.498L13.284 6.468L13.523 2.875Z"
        fill="#303233" />
</svg>
