<svg width="24" height="24" viewBox="0 0 24 24" fill="none" xmlns="http://www.w3.org/2000/svg">
    <path fill-rule="evenodd" clip-rule="evenodd"
        d="M8.32504 0.999999C8.33821 1 8.35142 1 8.36466 1L15.6778 0.999999C16.0394 0.999966 16.3755 0.999935 16.6506 1.02491C16.9385 1.05104 17.2978 1.11316 17.6294 1.33301C18.0687 1.62422 18.3753 2.07706 18.4825 2.59309C18.5635 2.98267 18.4877 3.33931 18.4051 3.61632C18.3261 3.88107 18.2013 4.19305 18.0669 4.52883L17.0443 7.0853C17.0214 7.14269 17.0102 7.17071 17.0025 7.1913C17.0023 7.19178 17.0022 7.19225 17.002 7.1927C17.002 7.19318 17.002 7.19367 17.002 7.19419C17.0015 7.21616 17.0014 7.24632 17.0014 7.30813V9.43875C17.0014 9.55026 17.0016 9.60548 17.0032 9.64563C17.0032 9.64665 17.0033 9.64762 17.0033 9.64856C17.0038 9.64931 17.0044 9.6501 17.005 9.65092C17.0289 9.68326 17.0632 9.72649 17.1329 9.81357L18.7305 11.8105C19.0395 12.1968 19.3132 12.5388 19.505 12.829C19.6923 13.1123 19.9203 13.5133 19.9208 13.9978C19.9214 14.6069 19.6445 15.1831 19.1685 15.5631C18.7898 15.8654 18.3343 15.9379 17.996 15.9686C17.6496 16.0001 17.2116 16 16.7169 16L13.0014 16L13.0014 22C13.0014 22.5523 12.5537 23 12.0014 23C11.4491 23 11.0014 22.5523 11.0014 22L11.0014 16L7.28594 16C6.79125 16 6.35319 16.0001 6.00682 15.9686C5.66856 15.9379 5.21301 15.8654 4.83433 15.5631C4.3583 15.1831 4.08137 14.6069 4.08203 13.9978C4.08256 13.5133 4.31052 13.1123 4.49784 12.829C4.68964 12.5388 4.96331 12.1968 5.27236 11.8105L6.86993 9.81357C6.93959 9.7265 6.97394 9.68326 6.99778 9.65092C6.99839 9.6501 6.99896 9.64931 6.99952 9.64856C6.99956 9.64762 6.9996 9.64665 6.99964 9.64563C7.00123 9.60548 7.00141 9.55026 7.00141 9.43875V7.30813C7.00141 7.24632 7.00135 7.21616 7.00085 7.19419C7.00084 7.19367 7.00083 7.19318 7.00081 7.1927C7.00065 7.19225 7.00047 7.19178 7.00029 7.1913C6.9926 7.17071 6.98145 7.14269 6.95849 7.0853L5.95062 4.56562C5.9457 4.55332 5.9408 4.54106 5.9359 4.52883C5.80156 4.19305 5.67673 3.88107 5.59773 3.61632C5.51506 3.33931 5.43932 2.98267 5.52027 2.59309C5.6275 2.07706 5.93409 1.62422 6.37339 1.33301C6.70504 1.11316 7.0643 1.05104 7.3522 1.02491C7.62735 0.999935 7.96338 0.999966 8.32504 0.999999ZM16.6724 14C17.2252 14 17.5705 13.999 17.8151 13.9768C17.8322 13.9752 17.848 13.9736 17.8625 13.972C17.8547 13.9596 17.8461 13.9463 17.8366 13.932C17.7012 13.7271 17.4863 13.4568 17.1409 13.0252L15.5711 11.063C15.5624 11.052 15.5533 11.0407 15.5441 11.0292C15.4426 10.903 15.3148 10.744 15.2204 10.5591C15.1384 10.3986 15.0785 10.2278 15.0422 10.0513C15.0005 9.84793 15.001 9.64398 15.0013 9.48204C15.0014 9.46725 15.0014 9.45281 15.0014 9.43875V7.30813C15.0014 7.30038 15.0014 7.29243 15.0014 7.28428C15.0013 7.19422 15.0011 7.08076 15.0144 6.96478C15.026 6.86391 15.0452 6.76408 15.0719 6.66615C15.1027 6.55351 15.1449 6.44822 15.1785 6.36464C15.1815 6.35708 15.1845 6.34971 15.1874 6.34252L16.1952 3.82284C16.3494 3.43752 16.4388 3.21134 16.4886 3.04442C16.4913 3.03549 16.4937 3.02712 16.4959 3.01929C16.4878 3.01842 16.4791 3.01756 16.4698 3.01672C16.2964 3.00098 16.0531 3 15.6382 3H8.36466C7.94966 3 7.70644 3.00098 7.53297 3.01672C7.52369 3.01756 7.51501 3.01842 7.50692 3.01929C7.50913 3.02712 7.51155 3.03549 7.51422 3.04442C7.56402 3.21134 7.65345 3.43752 7.80757 3.82284L8.81545 6.34252C8.81832 6.34971 8.82129 6.35709 8.82432 6.36465C8.85788 6.44823 8.90015 6.55352 8.93088 6.66615C8.9576 6.76409 8.97683 6.86392 8.98839 6.96478C9.00169 7.08077 9.00154 7.19422 9.00143 7.28429C9.00142 7.29244 9.00141 7.30039 9.00141 7.30813V9.43875C9.00141 9.45281 9.00144 9.46725 9.00147 9.48204C9.00184 9.64398 9.00231 9.84793 8.96057 10.0513C8.92434 10.2278 8.86442 10.3987 8.78244 10.5591C8.68798 10.744 8.56021 10.903 8.45876 11.0292C8.44949 11.0407 8.44045 11.052 8.43166 11.063L6.86189 13.0252C6.51656 13.4568 6.30162 13.7271 6.16619 13.932C6.15671 13.9463 6.1481 13.9596 6.14029 13.972C6.15482 13.9736 6.17061 13.9752 6.18774 13.9768C6.4323 13.999 6.77761 14 7.33041 14H16.6724Z"
        fill="#303233" />
</svg>
