<svg width="24" height="24" viewBox="0 0 24 24" fill="none" xmlns="http://www.w3.org/2000/svg">
    <path fill-rule="evenodd" clip-rule="evenodd"
        d="M4.47825 2.25H19.5218C19.736 2.24999 19.9329 2.24998 20.0982 2.26126C20.2759 2.27338 20.4712 2.30099 20.6697 2.38321C21.0985 2.56083 21.4392 2.90151 21.6168 3.33031C21.699 3.52881 21.7266 3.72415 21.7387 3.90179C21.75 4.06712 21.75 4.26397 21.75 4.47824V4.52176C21.75 4.73604 21.75 4.93289 21.7387 5.09821C21.7266 5.27585 21.699 5.47119 21.6168 5.6697C21.4392 6.0985 21.0985 6.43918 20.6697 6.61679C20.4712 6.69901 20.2759 6.72663 20.0982 6.73875C19.9329 6.75003 19.736 6.75002 19.5218 6.75H4.47824C4.26397 6.75002 4.06712 6.75003 3.90179 6.73875C3.72415 6.72663 3.52881 6.69901 3.33031 6.61679C2.90151 6.43918 2.56083 6.0985 2.38321 5.6697C2.30099 5.47119 2.27338 5.27585 2.26126 5.09821C2.24998 4.93289 2.24999 4.73606 2.25 4.5218V4.47825C2.24999 4.26398 2.24998 4.06711 2.26126 3.90179C2.27338 3.72415 2.30099 3.52881 2.38321 3.33031C2.56083 2.90151 2.90151 2.56083 3.33031 2.38321C3.52881 2.30099 3.72415 2.27338 3.90179 2.26126C4.06711 2.24998 4.26398 2.24999 4.47825 2.25ZM3.90131 3.77031C3.84248 3.79558 3.79558 3.84248 3.77031 3.90131C3.76844 3.90867 3.76234 3.93707 3.75778 4.0039C3.75041 4.11191 3.75 4.25677 3.75 4.5C3.75 4.74323 3.75041 4.8881 3.75778 4.9961C3.76234 5.06294 3.76844 5.09134 3.77031 5.09869C3.79558 5.15753 3.84248 5.20442 3.90131 5.2297C3.90867 5.23157 3.93707 5.23767 4.0039 5.24223C4.11191 5.2496 4.25677 5.25 4.5 5.25H19.5C19.7432 5.25 19.8881 5.2496 19.9961 5.24223C20.0629 5.23767 20.0913 5.23156 20.0987 5.2297C20.1575 5.20442 20.2044 5.15753 20.2297 5.09869C20.2316 5.09134 20.2377 5.06294 20.2422 4.9961C20.2496 4.8881 20.25 4.74323 20.25 4.5C20.25 4.25677 20.2496 4.11191 20.2422 4.0039C20.2377 3.93707 20.2316 3.90867 20.2297 3.90131C20.2044 3.84248 20.1575 3.79558 20.0987 3.77031C20.0913 3.76844 20.0629 3.76234 19.9961 3.75778C19.8881 3.75041 19.7432 3.75 19.5 3.75H4.5C4.25677 3.75 4.11191 3.75041 4.0039 3.75778C3.93707 3.76234 3.90867 3.76844 3.90131 3.77031Z"
        fill="#303233" />
    <path fill-rule="evenodd" clip-rule="evenodd"
        d="M4.47825 9.25H19.5218C19.736 9.24999 19.9329 9.24998 20.0982 9.26126C20.2759 9.27338 20.4712 9.30099 20.6697 9.38321C21.0985 9.56083 21.4392 9.90151 21.6168 10.3303C21.699 10.5288 21.7266 10.7242 21.7387 10.9018C21.75 11.0671 21.75 11.264 21.75 11.4782V11.5218C21.75 11.736 21.75 11.9329 21.7387 12.0982C21.7266 12.2759 21.699 12.4712 21.6168 12.6697C21.4392 13.0985 21.0985 13.4392 20.6697 13.6168C20.4712 13.699 20.2759 13.7266 20.0982 13.7387C19.9329 13.75 19.7361 13.75 19.5218 13.75H4.47824C4.26399 13.75 4.0671 13.75 3.90179 13.7387C3.72415 13.7266 3.52881 13.699 3.33031 13.6168C2.90151 13.4392 2.56083 13.0985 2.38321 12.6697C2.30099 12.4712 2.27338 12.2759 2.26126 12.0982C2.24998 11.9329 2.24999 11.7361 2.25 11.5218V11.4782C2.24999 11.264 2.24998 11.0671 2.26126 10.9018C2.27338 10.7242 2.30099 10.5288 2.38321 10.3303C2.56083 9.90151 2.90151 9.56083 3.33031 9.38321C3.52881 9.30099 3.72415 9.27338 3.90179 9.26126C4.06712 9.24998 4.26397 9.24999 4.47825 9.25ZM3.90131 10.7703C3.84248 10.7956 3.79558 10.8425 3.77031 10.9013C3.76844 10.9087 3.76234 10.9371 3.75778 11.0039C3.75041 11.1119 3.75 11.2568 3.75 11.5C3.75 11.7432 3.75041 11.8881 3.75778 11.9961C3.76234 12.0629 3.76844 12.0913 3.77031 12.0987C3.79558 12.1575 3.84248 12.2044 3.90131 12.2297C3.90867 12.2316 3.93707 12.2377 4.0039 12.2422C4.11191 12.2496 4.25677 12.25 4.5 12.25H19.5C19.7432 12.25 19.8881 12.2496 19.9961 12.2422C20.0629 12.2377 20.0913 12.2316 20.0987 12.2297C20.1575 12.2044 20.2044 12.1575 20.2297 12.0987C20.2316 12.0913 20.2377 12.0629 20.2422 11.9961C20.2496 11.8881 20.25 11.7432 20.25 11.5C20.25 11.2568 20.2496 11.1119 20.2422 11.0039C20.2377 10.9371 20.2316 10.9087 20.2297 10.9013C20.2044 10.8425 20.1575 10.7956 20.0987 10.7703C20.0913 10.7684 20.0629 10.7623 19.9961 10.7578C19.8881 10.7504 19.7432 10.75 19.5 10.75H4.5C4.25677 10.75 4.11191 10.7504 4.0039 10.7578C3.93707 10.7623 3.90867 10.7684 3.90131 10.7703Z"
        fill="#303233" />
    <path fill-rule="evenodd" clip-rule="evenodd"
        d="M4.47825 16.25C4.26397 16.25 4.06712 16.25 3.90179 16.2613C3.72415 16.2734 3.52881 16.301 3.33031 16.3832C2.90151 16.5608 2.56083 16.9015 2.38321 17.3303C2.30099 17.5288 2.27338 17.7242 2.26126 17.9018C2.24998 18.0671 2.24999 18.2639 2.25 18.4782V18.5218C2.24999 18.736 2.24998 18.9329 2.26126 19.0982C2.27338 19.2759 2.30099 19.4712 2.38321 19.6697C2.56083 20.0985 2.90151 20.4392 3.33031 20.6168C3.52881 20.699 3.72415 20.7266 3.90179 20.7387C4.0671 20.75 4.26393 20.75 4.47819 20.75H19.5218C19.736 20.75 19.9329 20.75 20.0982 20.7387C20.2759 20.7266 20.4712 20.699 20.6697 20.6168C21.0985 20.4392 21.4392 20.0985 21.6168 19.6697C21.699 19.4712 21.7266 19.2759 21.7387 19.0982C21.75 18.9329 21.75 18.736 21.75 18.5218V18.4782C21.75 18.264 21.75 18.0671 21.7387 17.9018C21.7266 17.7242 21.699 17.5288 21.6168 17.3303C21.4392 16.9015 21.0985 16.5608 20.6697 16.3832C20.4712 16.301 20.2759 16.2734 20.0982 16.2613C19.9329 16.25 19.736 16.25 19.5218 16.25H4.47825ZM3.77031 17.9013C3.79558 17.8425 3.84248 17.7956 3.90131 17.7703C3.90867 17.7684 3.93707 17.7623 4.0039 17.7578C4.11191 17.7504 4.25677 17.75 4.5 17.75H19.5C19.7432 17.75 19.8881 17.7504 19.9961 17.7578C20.0629 17.7623 20.0913 17.7684 20.0987 17.7703C20.1575 17.7956 20.2044 17.8425 20.2297 17.9013C20.2316 17.9087 20.2377 17.9371 20.2422 18.0039C20.2496 18.1119 20.25 18.2568 20.25 18.5C20.25 18.7432 20.2496 18.8881 20.2422 18.9961C20.2377 19.0629 20.2316 19.0913 20.2297 19.0987C20.2044 19.1575 20.1575 19.2044 20.0987 19.2297C20.0913 19.2316 20.0629 19.2377 19.9961 19.2422C19.8881 19.2496 19.7432 19.25 19.5 19.25H4.5C4.25677 19.25 4.11191 19.2496 4.0039 19.2422C3.93707 19.2377 3.90867 19.2316 3.90131 19.2297C3.84248 19.2044 3.79558 19.1575 3.77031 19.0987C3.76844 19.0913 3.76234 19.0629 3.75778 18.9961C3.75041 18.8881 3.75 18.7432 3.75 18.5C3.75 18.2568 3.75041 18.1119 3.75778 18.0039C3.76234 17.9371 3.76844 17.9087 3.77031 17.9013Z"
        fill="#303233" />
</svg>
