<svg width="16" height="16" viewBox="0 0 16 16" fill="none" xmlns="http://www.w3.org/2000/svg">
    <g clip-path="url(#clip0_4613_151)">
        <path
            d="M7.6038 9.10355C7.79906 8.90829 7.79906 8.5917 7.60379 8.39644C7.40853 8.20118 7.09195 8.20119 6.89669 8.39645L6.64665 8.64649C5.62298 9.67018 5.62299 11.3299 6.64667 12.3536C7.67037 13.3773 9.33012 13.3773 10.3538 12.3536L10.6038 12.1035C10.7991 11.9083 10.7991 11.5917 10.6038 11.3964C10.4085 11.2012 10.0919 11.2012 9.89669 11.3965L9.64669 11.6465C9.01352 12.2796 7.98695 12.2796 7.35378 11.6465C6.72062 11.0133 6.72061 9.98676 7.35377 9.35359L7.6038 9.10355Z"
            fill="#303233" />
        <path
            d="M8.64501 6.64767C9.66859 5.62333 11.3289 5.62302 12.3528 6.64698C13.3762 7.6704 13.3765 9.32959 12.3535 10.3534L12.1037 10.6034C11.9085 10.7987 11.5919 10.7988 11.3966 10.6037C11.2012 10.4085 11.2011 10.0919 11.3963 9.89655L11.6461 9.64655C12.2789 9.01332 12.2787 7.98708 11.6457 7.35408C11.0124 6.72075 9.98548 6.72094 9.35238 7.35451L9.10369 7.6034C8.9085 7.79873 8.59191 7.79885 8.39658 7.60366C8.20124 7.40847 8.20113 7.09189 8.39632 6.89655L8.64501 6.64767Z"
            fill="#303233" />
        <path
            d="M10.8536 8.85355C11.0488 8.65829 11.0488 8.34171 10.8536 8.14645C10.6583 7.95118 10.3417 7.95118 10.1464 8.14645L8.14645 10.1464C7.95118 10.3417 7.95118 10.6583 8.14645 10.8536C8.34171 11.0488 8.65829 11.0488 8.85355 10.8536L10.8536 8.85355Z"
            fill="#303233" />
        <path fill-rule="evenodd" clip-rule="evenodd"
            d="M4.1786 0.5H8.8214C9.3633 0.499995 9.80037 0.499991 10.1543 0.528909C10.5187 0.558684 10.8388 0.62159 11.135 0.772484C11.6054 1.01217 11.9878 1.39462 12.2275 1.86502C12.3692 2.14316 12.4332 2.442 12.4652 2.77868C12.4852 2.98992 12.4937 3.22969 12.4973 3.50271C12.7434 3.50597 12.9612 3.51313 13.1543 3.52891C13.5187 3.55868 13.8388 3.62159 14.135 3.77248C14.6054 4.01217 14.9878 4.39462 15.2275 4.86502C15.3784 5.16117 15.4413 5.48126 15.4711 5.84569C15.5 6.19961 15.5 6.63667 15.5 7.17853V11.8214C15.5 12.3633 15.5 12.8004 15.4711 13.1543C15.4413 13.5187 15.3784 13.8388 15.2275 14.135C14.9878 14.6054 14.6054 14.9878 14.135 15.2275C13.8388 15.3784 13.5187 15.4413 13.1543 15.4711C12.8004 15.5 12.3633 15.5 11.8215 15.5H7.17858C6.63672 15.5 6.19961 15.5 5.84569 15.4711C5.48126 15.4413 5.16117 15.3784 4.86502 15.2275C4.39462 14.9878 4.01217 14.6054 3.77248 14.135C3.62159 13.8388 3.55868 13.5187 3.52891 13.1543C3.51313 12.9612 3.50597 12.7434 3.50271 12.4973C3.22969 12.4937 2.98992 12.4852 2.77868 12.4652C2.442 12.4332 2.14316 12.3692 1.86502 12.2275C1.39462 11.9878 1.01217 11.6054 0.772484 11.135C0.62159 10.8388 0.558684 10.5187 0.528909 10.1543C0.499991 9.80037 0.499995 9.3633 0.5 8.8214V4.1786C0.499995 3.63671 0.499991 3.19963 0.528909 2.84569C0.558684 2.48126 0.62159 2.16117 0.772484 1.86502C1.01217 1.39462 1.39462 1.01217 1.86502 0.772484C2.16117 0.62159 2.48126 0.558684 2.84569 0.528909C3.19963 0.499991 3.63671 0.499995 4.1786 0.5ZM11.4697 2.87326C11.4861 3.04619 11.4937 3.24931 11.4971 3.5H7.1786C6.6367 3.5 6.19963 3.49999 5.84569 3.52891C5.48126 3.55868 5.16117 3.62159 4.86502 3.77248C4.39462 4.01217 4.01217 4.39462 3.77248 4.86502C3.62159 5.16117 3.55868 5.48126 3.52891 5.84569C3.49999 6.19963 3.5 6.6367 3.5 7.1786V11.4971C3.24931 11.4937 3.04619 11.4861 2.87326 11.4697C2.60343 11.444 2.44244 11.3994 2.31901 11.3365C2.03677 11.1927 1.8073 10.9632 1.66349 10.681C1.5964 10.5493 1.55031 10.3755 1.52559 10.0729C1.50039 9.76446 1.5 9.3683 1.5 8.8V4.2C1.5 3.6317 1.50039 3.23554 1.52559 2.92712C1.55031 2.62454 1.5964 2.45069 1.66349 2.31901C1.8073 2.03677 2.03677 1.8073 2.31901 1.66349C2.45069 1.5964 2.62454 1.55031 2.92712 1.52559C3.23554 1.50039 3.6317 1.5 4.2 1.5H8.8C9.3683 1.5 9.76446 1.50039 10.0729 1.52559C10.3755 1.55031 10.5493 1.5964 10.681 1.66349C10.9632 1.8073 11.1927 2.03677 11.3365 2.31901C11.3994 2.44244 11.444 2.60343 11.4697 2.87326ZM5.92712 4.52559C5.62454 4.55031 5.45069 4.5964 5.31901 4.66349C5.03677 4.8073 4.8073 5.03677 4.66349 5.31901C4.5964 5.45069 4.55031 5.62454 4.52559 5.92712C4.50039 6.23554 4.5 6.6317 4.5 7.2V11.8C4.5 12.3683 4.50039 12.7645 4.52559 13.0729C4.55031 13.3755 4.5964 13.5493 4.66349 13.681C4.8073 13.9632 5.03677 14.1927 5.31901 14.3365C5.45069 14.4036 5.62454 14.4497 5.92712 14.4744C6.23554 14.4996 6.6317 14.5 7.2 14.5H11.8C12.3683 14.5 12.7645 14.4996 13.0729 14.4744C13.3755 14.4497 13.5493 14.4036 13.681 14.3365C13.9632 14.1927 14.1927 13.9632 14.3365 13.681C14.4036 13.5493 14.4497 13.3755 14.4744 13.0729C14.4996 12.7645 14.5 12.3683 14.5 11.8V7.2C14.5 6.6317 14.4996 6.23554 14.4744 5.92712C14.4497 5.62454 14.4036 5.45069 14.3365 5.31901C14.1927 5.03677 13.9632 4.8073 13.681 4.66349C13.5493 4.5964 13.3755 4.55031 13.0729 4.52559C12.7645 4.50039 12.3683 4.5 11.8 4.5H7.2C6.6317 4.5 6.23554 4.50039 5.92712 4.52559Z"
            fill="#303233" />
    </g>
    <defs>
        <clipPath id="clip0_4613_151">
            <rect width="16" height="16" fill="white" />
        </clipPath>
    </defs>
</svg>
