<svg width="16" height="16" viewBox="0 0 16 16" fill="none" xmlns="http://www.w3.org/2000/svg">
    <g style="mix-blend-mode:multiply">
        <path
            d="M14 8C14 4.68629 11.3137 2 8 2C4.68629 2 2 4.68629 2 8C2 11.3137 4.68629 14 8 14C8.50276 14 8.9904 13.9383 9.45605 13.8223C9.724 13.7555 9.99572 13.9186 10.0625 14.1865C10.1292 14.4544 9.96605 14.7261 9.69824 14.793C9.1541 14.9286 8.58495 15 8 15C4.13401 15 1 11.866 1 8C1 4.13401 4.13401 1 8 1C11.866 1 15 4.13401 15 8C15 8.66308 14.9062 9.30501 14.7334 9.91406C14.7325 9.91748 14.7334 9.92139 14.7324 9.9248L14.6289 10.2393C14.0535 11.7915 12.597 12.9961 10.8154 12.9961C8.97522 12.996 7.5 11.4774 7.5 9.625V6.49902L5.64551 8.35352C5.4503 8.54872 5.13375 8.54861 4.93848 8.35352C4.74321 8.15825 4.74321 7.84175 4.93848 7.64648L7.64648 4.93848L7.72461 4.87402C7.9187 4.74575 8.18261 4.76757 8.35352 4.93848L11.0615 7.64648L11.126 7.72461C11.2543 7.9187 11.2324 8.18261 11.0615 8.35352C10.8908 8.5241 10.6276 8.54576 10.4336 8.41797L10.3545 8.35352L8.5 6.49902V9.625C8.5 10.9436 9.54574 11.996 10.8154 11.9961C12.2089 11.9961 13.3897 10.9827 13.7705 9.65039C13.92 9.12667 14 8.57306 14 8Z"
            fill="#303233" />
    </g>
</svg>
