<svg width="24" height="24" viewBox="0 0 24 24" fill="none" xmlns="http://www.w3.org/2000/svg">
    <path
        d="M8.5 14.25C8.91407 14.25 9.24977 14.586 9.25 15C9.24977 15.414 8.91407 15.75 8.5 15.75C8.08593 15.75 7.75023 15.414 7.75 15C7.75023 14.586 8.08593 14.25 8.5 14.25Z"
        fill="#303233" />
    <path
        d="M14.5 13.25C14.9141 13.25 15.2498 13.586 15.25 14C15.2498 14.414 14.9141 14.75 14.5 14.75C14.0859 14.75 13.7502 14.414 13.75 14C13.7502 13.586 14.0859 13.25 14.5 13.25Z"
        fill="#303233" />
    <path fill-rule="evenodd" clip-rule="evenodd"
        d="M15.2324 1.25C16.0451 1.24999 16.7006 1.2496 17.2314 1.29297C17.7781 1.33763 18.2579 1.43286 18.7021 1.65918C19.4078 2.01871 19.9813 2.59224 20.3408 3.29785C20.5671 3.74205 20.6624 4.22195 20.707 4.76856C20.7504 5.29939 20.75 5.95491 20.75 6.76758V17.2324C20.75 18.0451 20.7504 18.7006 20.707 19.2314C20.6624 19.7781 20.5671 20.2579 20.3408 20.7021C19.9813 21.4078 19.4078 21.9813 18.7021 22.3408C18.2579 22.5671 17.7781 22.6624 17.2314 22.707C16.7006 22.7504 16.0451 22.75 15.2324 22.75H8.76758C7.95491 22.75 7.29939 22.7504 6.76856 22.707C6.22195 22.6624 5.74205 22.5671 5.29785 22.3408C4.59224 21.9813 4.01871 21.4078 3.65918 20.7021C3.43286 20.2579 3.33763 19.7781 3.29297 19.2314C3.2496 18.7006 3.24999 18.0451 3.25 17.2324V6.76758C3.24999 5.95491 3.2496 5.29939 3.29297 4.76856C3.33763 4.22195 3.43286 3.74205 3.65918 3.29785C4.01871 2.59224 4.59224 2.01871 5.29785 1.65918C5.74205 1.43286 6.22195 1.33763 6.76856 1.29297C7.29939 1.2496 7.95491 1.24999 8.76758 1.25H15.2324ZM15.1084 6.90332C14.9249 6.91781 14.7066 6.95531 14.4795 6.99316L10.8799 7.59277C10.7129 7.6206 10.5459 7.64836 10.4063 7.68262C10.2576 7.71913 10.0863 7.77549 9.91895 7.88672C9.68376 8.04331 9.49757 8.26372 9.38184 8.52148C9.29973 8.70466 9.27232 8.8826 9.26074 9.03516C9.24994 9.17835 9.25 9.3476 9.25 9.5166V12.8799C9.01525 12.7968 8.76319 12.75 8.5 12.75C7.2575 12.75 6.25023 13.7576 6.25 15C6.25023 16.2424 7.2575 17.25 8.5 17.25C9.66502 17.25 10.6231 16.3641 10.7383 15.2295L10.75 15V9.5166C10.75 9.32537 10.7503 9.22214 10.7559 9.14844C10.756 9.14597 10.7557 9.14283 10.7559 9.14063C10.7582 9.14005 10.7611 9.14027 10.7637 9.13965C10.8355 9.12202 10.9369 9.10379 11.126 9.07227L14.7256 8.47266C14.9787 8.43047 15.122 8.40762 15.2256 8.39941C15.2299 8.39907 15.2344 8.3987 15.2383 8.39844C15.2387 8.4022 15.2398 8.40691 15.2402 8.41113C15.2492 8.51464 15.25 8.66056 15.25 8.91699V11.8799C15.0153 11.7968 14.7632 11.75 14.5 11.75C13.2575 11.75 12.2502 12.7576 12.25 14C12.2502 15.2424 13.2575 16.25 14.5 16.25C15.665 16.25 16.6231 15.3641 16.7383 14.2295L16.75 14V8.91699C16.75 8.68711 16.7502 8.4654 16.7344 8.28223C16.7179 8.09198 16.6786 7.86168 16.5508 7.63867C16.3763 7.33492 16.1008 7.10155 15.7725 6.97949C15.5314 6.89 15.2988 6.88833 15.1084 6.90332Z"
        fill="#303233" />
</svg>
