<svg width="16" height="16" viewBox="0 0 16 16" fill="none" xmlns="http://www.w3.org/2000/svg">
    <path fill-rule="evenodd" clip-rule="evenodd"
        d="M4.67927 3H8.32073C8.86319 3 9.29966 2.99999 9.65287 3.02782C10.0159 3.05642 10.334 3.11674 10.6285 3.26144C11.0973 3.4918 11.4819 3.86109 11.7241 4.31943C11.8774 4.60951 11.941 4.92283 11.971 5.27682C12 5.61961 12 6.04235 12 6.56372V6.81791L13.3465 5.511C13.4627 5.39817 13.5728 5.29133 13.6682 5.21378C13.756 5.14246 13.9191 5.01909 14.1384 5.00235C14.3876 4.98331 14.6353 5.08065 14.8035 5.27177C14.9528 5.44144 14.9788 5.6494 14.9889 5.76038C15 5.88191 15 6.03395 15 6.19291V9.80711C15 9.96608 15 10.1181 14.9889 10.2396C14.9788 10.3506 14.9528 10.5586 14.8035 10.7282C14.6353 10.9193 14.3876 11.0167 14.1384 10.9976C13.9191 10.9809 13.756 10.8575 13.6682 10.7862C13.5727 10.7086 13.4627 10.6018 13.3465 10.489L12 9.18208V9.43628C12 9.95765 12 10.3804 11.971 10.7232C11.941 11.0772 11.8774 11.3905 11.7241 11.6806C11.4819 12.1389 11.0973 12.5082 10.6285 12.7386C10.334 12.8833 10.0159 12.9436 9.65287 12.9722C9.29965 13 8.86319 13 8.32071 13H7V9.70711L8.14645 10.8536C8.34171 11.0488 8.65829 11.0488 8.85355 10.8536C9.04881 10.6583 9.04881 10.3417 8.85355 10.1464L6.85355 8.14645C6.75592 8.04882 6.62796 8 6.5 8C6.37204 8 6.24408 8.04882 6.14645 8.14645L4.14645 10.1464C3.95118 10.3417 3.95118 10.6583 4.14645 10.8536C4.34171 11.0488 4.65829 11.0488 4.85355 10.8536L6 9.70711V13H4.67929C4.13681 13 3.70035 13 3.34713 12.9722C2.98411 12.9436 2.66605 12.8833 2.37153 12.7386C1.90268 12.5082 1.51809 12.1389 1.27591 11.6806C1.12263 11.3905 1.05903 11.0772 1.02903 10.7232C0.99999 10.3804 0.999995 9.95766 1 9.4363V6.56371C0.999995 6.04234 0.99999 5.6196 1.02903 5.27682C1.05903 4.92283 1.12263 4.60951 1.27591 4.31943C1.51809 3.86109 1.90268 3.4918 2.37153 3.26144C2.66605 3.11674 2.98411 3.05642 3.34713 3.02782C3.70034 2.99999 4.13681 3 4.67927 3ZM6 13V15C6 15.2761 6.22386 15.5 6.5 15.5C6.77614 15.5 7 15.2761 7 15V13H6Z"
        fill="#303233" />
</svg>
