<svg width="24" height="24" viewBox="0 0 24 24" fill="none" xmlns="http://www.w3.org/2000/svg">
    <path fill-rule="evenodd" clip-rule="evenodd"
        d="M12 1.25C6.06294 1.25 1.25 6.06294 1.25 12C1.25 17.9371 6.06294 22.75 12 22.75C17.9371 22.75 22.75 17.9371 22.75 12C22.75 6.06294 17.9371 1.25 12 1.25ZM10.4736 8.65851C10.7948 8.92008 10.8431 9.39249 10.5816 9.71366C10.0627 10.3507 9.3184 10.75 8.50002 10.75C7.67412 10.75 6.95161 10.3445 6.42725 9.72423C6.15984 9.4079 6.1995 8.93469 6.51582 8.66728C6.83215 8.39987 7.30537 8.43952 7.57278 8.75585C7.86842 9.10557 8.19591 9.25004 8.50002 9.25004C8.81163 9.25004 9.14734 9.09934 9.41848 8.76642C9.68005 8.44525 10.1525 8.39693 10.4736 8.65851ZM17.4736 8.65851C17.7948 8.92008 17.8431 9.39249 17.5816 9.71366C17.0627 10.3507 16.3184 10.75 15.5 10.75C14.6741 10.75 13.9516 10.3445 13.4273 9.72423C13.1598 9.4079 13.1995 8.93469 13.5158 8.66728C13.8322 8.39987 14.3054 8.43952 14.5728 8.75585C14.8684 9.10557 15.1959 9.25004 15.5 9.25004C15.8116 9.25004 16.1473 9.09934 16.4185 8.76642C16.6801 8.44525 17.1525 8.39693 17.4736 8.65851ZM11.995 13.25C10.5408 13.2513 9.39093 13.8338 8.62142 14.3934C8.23481 14.6746 7.93597 14.9557 7.73199 15.1685C7.62969 15.2753 7.55036 15.3658 7.4949 15.4319C7.46742 15.4646 7.44573 15.4914 7.42994 15.5114L7.40992 15.537L7.40387 15.5449L7.40149 15.548L7.40069 15.5491L7.39998 15.5501C7.15153 15.8814 7.2187 16.3515 7.55004 16.6C7.88037 16.8477 8.34853 16.7817 8.59765 16.4531L8.60478 16.444L8.60553 16.443C8.6129 16.4337 8.62572 16.4178 8.64386 16.3962C8.6802 16.3529 8.73758 16.2871 8.81497 16.2064C8.97037 16.0442 9.20278 15.8253 9.50367 15.6065C10.1084 15.1667 10.9568 14.75 12 14.75C13.0433 14.75 13.8917 15.1667 14.4964 15.6065C14.7973 15.8253 15.0297 16.0442 15.1851 16.2064C15.2625 16.2871 15.3199 16.3529 15.3562 16.3962C15.3744 16.4178 15.3872 16.4337 15.3946 16.443L15.3953 16.444L15.4025 16.4531C15.6516 16.7817 16.1197 16.8477 16.4501 16.6C16.7814 16.3515 16.8486 15.8814 16.6001 15.5501L16.5986 15.548L16.5962 15.5449L16.5902 15.537L16.5702 15.5114C16.5544 15.4914 16.5327 15.4646 16.5052 15.4319C16.4497 15.3658 16.3704 15.2753 16.2681 15.1685C16.0641 14.9557 15.7653 14.6746 15.3787 14.3934C14.6092 13.8338 13.4493 13.2513 11.995 13.25Z"
        fill="#303233" />
</svg>
