<svg width="24" height="24" viewBox="0 0 24 24" fill="none" xmlns="http://www.w3.org/2000/svg">
    <g clip-path="url(#clip0_7675_3)">
        <rect x="6" y="4" width="19" height="20" fill="white" />
        <path
            d="M0 3C0 1.34315 1.34315 0 3 0H9.17157C9.70201 0 10.2107 0.210714 10.5858 0.585787L11.4142 1.41421C11.7893 1.78929 12.298 2 12.8284 2H17C18.1117 2 19.0808 2.60518 19.598 3.49927C19.8746 3.97733 19.7112 4.58906 19.2332 4.86561C18.7551 5.14215 18.1434 4.97879 17.8668 4.50073C17.6924 4.19922 17.3689 4 17 4H3C2.44772 4 2 4.44772 2 5V15C2 15.5523 2.44772 16 3 16H7C7.55228 16 8 16.4477 8 17C8 17.5523 7.55228 18 7 18H3C1.34315 18 0 16.6569 0 15V3Z"
            fill="#303233" />
        <path fill-rule="evenodd" clip-rule="evenodd"
            d="M20.2561 7.04565C19.7061 6.99998 19.0305 6.99999 18.212 7H15.788C14.9695 6.99999 14.2939 6.99998 13.7439 7.04565C13.1726 7.0931 12.6477 7.19496 12.1561 7.45035C11.4255 7.82985 10.8298 8.42553 10.4503 9.1561C10.195 9.64774 10.0931 10.1726 10.0457 10.7439C9.99998 11.2939 9.99999 11.9694 10 12.788V18.212C9.99999 19.0305 9.99998 19.7061 10.0457 20.2561C10.0931 20.8274 10.195 21.3523 10.4503 21.8439C10.8298 22.5745 11.4255 23.1702 12.1561 23.5497C12.6477 23.805 13.1726 23.9069 13.7439 23.9543C14.2939 24 14.9695 24 15.788 24H18.212C19.0305 24 19.7061 24 20.2561 23.9543C20.8274 23.9069 21.3523 23.805 21.8439 23.5497C22.5745 23.1702 23.1702 22.5745 23.5497 21.8439C23.805 21.3523 23.9069 20.8274 23.9543 20.2561C24 19.7061 24 19.0305 24 18.212V12.788C24 11.9695 24 11.2939 23.9543 10.7439C23.9069 10.1726 23.805 9.64774 23.5497 9.1561C23.1702 8.42553 22.5745 7.82985 21.8439 7.45035C21.3523 7.19496 20.8274 7.0931 20.2561 7.04565ZM13.0781 9.22517C13.2366 9.1428 13.464 9.07578 13.9095 9.03879C14.3669 9.0008 14.959 9 15.83 9H18.17C19.041 9 19.6331 9.0008 20.0905 9.03879C20.536 9.07578 20.7634 9.1428 20.9219 9.22517C21.2872 9.41492 21.5851 9.71276 21.7748 10.0781C21.8572 10.2366 21.9242 10.464 21.9612 10.9095C21.9992 11.3669 22 11.959 22 12.83V18.17C22 19.041 21.9992 19.6331 21.9612 20.0905C21.9242 20.536 21.8572 20.7634 21.7748 20.9219C21.5851 21.2872 21.2872 21.5851 20.9219 21.7748C20.7634 21.8572 20.536 21.9242 20.0905 21.9612C19.6331 21.9992 19.041 22 18.17 22H15.83C14.959 22 14.3669 21.9992 13.9095 21.9612C13.464 21.9242 13.2366 21.8572 13.0781 21.7748C12.7128 21.5851 12.4149 21.2872 12.2252 20.9219C12.1428 20.7634 12.0758 20.536 12.0388 20.0905C12.0008 19.6331 12 19.041 12 18.17V12.83C12 11.959 12.0008 11.3669 12.0388 10.9095C12.0758 10.464 12.1428 10.2366 12.2252 10.0781C12.4149 9.71276 12.7128 9.41492 13.0781 9.22517Z"
            fill="#303233" />
    </g>
    <defs>
        <clipPath id="clip0_7675_3">
            <rect width="24" height="24" fill="white" />
        </clipPath>
    </defs>
</svg>
