<svg width="24" height="24" viewBox="0 0 24 24" fill="none" xmlns="http://www.w3.org/2000/svg">
<path d="M12.0001 0.25C18.4894 0.250031 23.7501 5.51067 23.7501 12C23.7501 13.6164 23.4225 15.156 22.8321 16.5576L21.8448 14.8486C22.1061 13.9439 22.2501 12.9889 22.2501 12C22.2501 6.3391 17.661 1.75003 12.0001 1.75C6.33914 1.75 1.75006 6.33908 1.75006 12C1.75006 16.5384 4.70047 20.3852 8.78717 21.7334C8.72684 22.2985 8.81464 22.8583 9.02155 23.3672C3.97476 22.0484 0.250061 17.4601 0.250061 12C0.250061 5.51065 5.51072 0.25 12.0001 0.25ZM8.00006 7C8.41425 7.00003 8.75006 7.33581 8.75006 7.75V14.1895L10.4698 12.4697C10.7627 12.1769 11.2374 12.1768 11.5303 12.4697C11.8232 12.7626 11.8232 13.2374 11.5303 13.5303L8.53033 16.5303C8.23745 16.8232 7.76268 16.8231 7.46979 16.5303L4.46979 13.5303C4.17689 13.2374 4.17689 12.7626 4.46979 12.4697C4.76268 12.1769 5.23745 12.1768 5.53033 12.4697L7.25006 14.1895V7.75C7.25006 7.33579 7.58585 7 8.00006 7ZM16.0001 7.25C16.1017 7.25001 16.1988 7.26998 16.2872 7.30664C16.3756 7.34324 16.4584 7.39782 16.5303 7.46973L19.5303 10.4697C19.7444 10.6838 19.8001 10.9944 19.7012 11.2607C19.0081 10.4611 18.0196 10.0747 17.0411 10.1016L16.7501 9.81055V10.123C16.2222 10.1821 15.7056 10.361 15.2501 10.6631V9.81055L13.5303 11.5303C13.2375 11.8232 12.7627 11.8231 12.4698 11.5303C12.1769 11.2374 12.1769 10.7626 12.4698 10.4697L15.4698 7.46973C15.5417 7.39783 15.6245 7.34324 15.713 7.30664C15.8013 7.27 15.8984 7.25 16.0001 7.25Z" fill="#303233"/>
</svg>
