<svg width="16" height="16" viewBox="0 0 16 16" fill="none" xmlns="http://www.w3.org/2000/svg">
    <path
        d="M8 0.5C8.27614 0.5 8.5 0.723858 8.5 1V1.7C8.5 1.97614 8.27614 2.2 8 2.2C7.72386 2.2 7.5 1.97614 7.5 1.7V1C7.5 0.723858 7.72386 0.5 8 0.5Z"
        fill="#303233" />
    <path
        d="M2.67638 2.67638C2.87164 2.48112 3.18822 2.48112 3.38349 2.67638L3.80355 3.09645C3.99882 3.29171 3.99882 3.60829 3.80355 3.80355C3.60829 3.99882 3.29171 3.99882 3.09645 3.80355L2.67638 3.38349C2.48112 3.18822 2.48112 2.87164 2.67638 2.67638Z"
        fill="#303233" />
    <path
        d="M13.3238 2.67642C13.519 2.87171 13.519 3.18829 13.3237 3.38353L12.9035 3.8036C12.7082 3.99884 12.3916 3.9988 12.1964 3.80351C12.0012 3.60822 12.0012 3.29164 12.1965 3.0964L12.6167 2.67633C12.812 2.4811 13.1285 2.48114 13.3238 2.67642Z"
        fill="#303233" />
    <path
        d="M0.5 8C0.5 7.72386 0.723858 7.5 1 7.5H1.7C1.97614 7.5 2.2 7.72386 2.2 8C2.2 8.27614 1.97614 8.5 1.7 8.5H1C0.723858 8.5 0.5 8.27614 0.5 8Z"
        fill="#303233" />
    <path
        d="M13.8 8C13.8 7.72386 14.0239 7.5 14.3 7.5H15C15.2761 7.5 15.5 7.72386 15.5 8C15.5 8.27614 15.2761 8.5 15 8.5H14.3C14.0239 8.5 13.8 8.27614 13.8 8Z"
        fill="#303233" />
    <path fill-rule="evenodd" clip-rule="evenodd"
        d="M3.5 8C3.5 5.51472 5.51472 3.5 8 3.5C10.4853 3.5 12.5 5.51472 12.5 8C12.5 9.76686 11.4817 11.2959 10 12.0322V13C10 14.1046 9.10457 15 8 15C6.89543 15 6 14.1046 6 13V12.0322C4.51828 11.2959 3.5 9.76686 3.5 8ZM8 4.5C6.067 4.5 4.5 6.067 4.5 8C4.5 9.933 6.067 11.5 8 11.5C9.933 11.5 11.5 9.933 11.5 8C11.5 6.067 9.933 4.5 8 4.5ZM7 12.3885V13C7 13.5523 7.44772 14 8 14C8.55228 14 9 13.5523 9 13V12.3885C8.67839 12.4615 8.34369 12.5 8 12.5C7.65631 12.5 7.32161 12.4615 7 12.3885Z"
        fill="#303233" />
</svg>
