<svg width="16" height="16" viewBox="0 0 16 16" fill="none" xmlns="http://www.w3.org/2000/svg">
    <path fill-rule="evenodd" clip-rule="evenodd"
        d="M7.69892 2.25C5.57155 2.25 3.71304 3.40491 2.71771 5.12554C2.5103 5.48409 2.0515 5.60661 1.69296 5.3992C1.33441 5.1918 1.21189 4.733 1.4193 4.37446C2.67172 2.20938 5.01445 0.75 7.69892 0.75C11.703 0.75 14.9489 3.99594 14.9489 8C14.9489 12.0041 11.703 15.25 7.69892 15.25C5.01445 15.25 2.67172 13.7906 1.4193 11.6255C1.21189 11.267 1.33441 10.8082 1.69296 10.6008C2.0515 10.3934 2.5103 10.5159 2.71771 10.8745C3.71304 12.5951 5.57155 13.75 7.69892 13.75C10.8746 13.75 13.4489 11.1756 13.4489 8C13.4489 4.82436 10.8746 2.25 7.69892 2.25ZM6.96884 4.96967C7.26173 4.67678 7.7366 4.67678 8.0295 4.96967L10.5295 7.46967C10.8224 7.76256 10.8224 8.23744 10.5295 8.53033L8.0295 11.0303C7.7366 11.3232 7.26173 11.3232 6.96884 11.0303C6.67594 10.7374 6.67594 10.2626 6.96884 9.96967L8.18851 8.75H2.06836C1.65415 8.75 1.31836 8.41421 1.31836 8C1.31836 7.58579 1.65415 7.25 2.06836 7.25H8.18851L6.96884 6.03033C6.67594 5.73744 6.67594 5.26256 6.96884 4.96967Z"
        fill="#303233" />
</svg>
