<svg width="24" height="24" viewBox="0 0 24 24" fill="none" xmlns="http://www.w3.org/2000/svg">
    <path fill-rule="evenodd" clip-rule="evenodd"
        d="M4 8C4 5.23858 6.23858 3 9 3C11.7614 3 14 5.23858 14 8C14 10.7614 11.7614 13 9 13C6.23858 13 4 10.7614 4 8ZM9 5C7.34315 5 6 6.34315 6 8C6 9.65685 7.34315 11 9 11C10.6569 11 12 9.65685 12 8C12 6.34315 10.6569 5 9 5Z"
        fill="#303233" />
    <path
        d="M9.00016 16C5.73981 16 2.99776 18.2299 2.22063 21.2493C2.08297 21.7841 1.53779 22.1061 1.00294 21.9684C0.468083 21.8308 0.146096 21.2856 0.283758 20.7507C1.2828 16.8692 4.80515 14 9.00016 14C13.1952 14 16.7175 16.8692 17.7166 20.7507C17.8542 21.2856 17.5322 21.8308 16.9974 21.9684C16.4625 22.1061 15.9173 21.7841 15.7797 21.2493C15.0026 18.2299 12.2605 16 9.00016 16Z"
        fill="#303233" />
    <path
        d="M20.7071 8.29289C20.3166 7.90237 19.6834 7.90237 19.2929 8.29289L16.2929 11.2929C15.9024 11.6834 15.9024 12.3166 16.2929 12.7071C16.6834 13.0976 17.3166 13.0976 17.7071 12.7071L19 11.4142V15C19 15.5523 19.4477 16 20 16C20.5523 16 21 15.5523 21 15V11.4142L22.2929 12.7071C22.6834 13.0976 23.3166 13.0976 23.7071 12.7071C24.0976 12.3166 24.0976 11.6834 23.7071 11.2929L20.7071 8.29289Z"
        fill="#303233" />
</svg>
