<svg width="16" height="16" viewBox="0 0 16 16" fill="none" xmlns="http://www.w3.org/2000/svg">
    <path
        d="M2.5 3.75C2.22386 3.75 2 3.97386 2 4.25C2 4.52614 2.22386 4.75 2.5 4.75H13.5C13.7761 4.75 14 4.52614 14 4.25C14 3.97386 13.7761 3.75 13.5 3.75H2.5Z"
        fill="#303233" />
    <path fill-rule="evenodd" clip-rule="evenodd"
        d="M3.75 6.25C2.7835 6.25 2 7.0335 2 8C2 8.9665 2.7835 9.75 3.75 9.75H12.25C13.2165 9.75 14 8.9665 14 8C14 7.0335 13.2165 6.25 12.25 6.25H3.75ZM3 8C3 7.58579 3.33579 7.25 3.75 7.25H12.25C12.6642 7.25 13 7.58579 13 8C13 8.41421 12.6642 8.75 12.25 8.75H3.75C3.33579 8.75 3 8.41421 3 8Z"
        fill="#303233" />
    <path
        d="M2 11.75C2 11.4739 2.22386 11.25 2.5 11.25H13.5C13.7761 11.25 14 11.4739 14 11.75C14 12.0261 13.7761 12.25 13.5 12.25H2.5C2.22386 12.25 2 12.0261 2 11.75Z"
        fill="#303233" />
</svg>
