<svg width="24" height="24" viewBox="0 0 24 24" fill="none" xmlns="http://www.w3.org/2000/svg">
    <path fill-rule="evenodd" clip-rule="evenodd"
        d="M9.001 4C9.001 2.89543 8.10557 2 7.001 2H4.001C2.89643 2 2.001 2.89543 2.001 4V7C2.001 8.10457 2.89643 9 4.001 9H7.001C8.10557 9 9.001 8.10457 9.001 7V4ZM4.001 4H7.001V7H4.001V4Z"
        fill="#303233" />
    <path
        d="M3.001 11C3.55328 11 4.001 11.4477 4.001 12C4.001 12.5523 3.55328 13 3.001 13H3C2.44772 13 2 12.5523 2 12C2 11.4477 2.44772 11 3 11H3.001Z"
        fill="#303233" />
    <path
        d="M21.001 11C21.5533 11 22.001 11.4477 22.001 12C22.001 12.5523 21.5533 13 21.001 13C20.4487 13 20 12.5523 20 12C20 11.4477 20.4487 11 21.001 11Z"
        fill="#303233" />
    <path
        d="M16.001 16C16.5533 16 17.001 16.4477 17.001 17C17.001 17.5523 16.5533 18 16.001 18H16C15.4477 18 15 17.5523 15 17C15 16.4477 15.4477 16 16 16H16.001Z"
        fill="#303233" />
    <path
        d="M13.001 21C13.001 20.4477 12.5533 20 12.001 20H12C11.4477 20 11 20.4477 11 21C11 21.5523 11.4477 22 12 22H12.001C12.5533 22 13.001 21.5523 13.001 21Z"
        fill="#303233" />
    <path fill-rule="evenodd" clip-rule="evenodd"
        d="M20.001 2C21.1056 2 22.001 2.89543 22.001 4V7C22.001 8.10457 21.1056 9 20.001 9H17.001C15.8964 9 15.001 8.10457 15.001 7V4C15.001 2.89543 15.8964 2 17.001 2H20.001ZM20.001 4H17.001V7H20.001V4Z"
        fill="#303233" />
    <path fill-rule="evenodd" clip-rule="evenodd"
        d="M9.001 17C9.001 15.8954 8.10557 15 7.001 15H4.001C2.89643 15 2.001 15.8954 2.001 17V20C2.001 21.1046 2.89643 22 4.001 22H7.001C8.10557 22 9.001 21.1046 9.001 20V17ZM4.001 17H7.001V20H4.001V17Z"
        fill="#303233" />
    <path
        d="M11.001 3C11.001 2.44772 11.4487 2 12.001 2C12.5533 2 13.001 2.44772 13.001 3V8C13.001 8.55228 12.5533 9 12.001 9C11.4487 9 11.001 8.55228 11.001 8V3Z"
        fill="#303233" />
    <path
        d="M17.001 11C17.5533 11 18.001 11.4477 18.001 12C18.001 12.5523 17.5533 13 17.001 13H13.001V17C13.001 17.5523 12.5533 18 12.001 18C11.4487 18 11.001 17.5523 11.001 17V13C11.001 11.8954 11.8964 11 13.001 11H17.001Z"
        fill="#303233" />
    <path
        d="M8.001 11C8.55328 11 9.001 11.4477 9.001 12C9.001 12.5523 8.55328 13 8.001 13H7.001C6.44871 13 6.001 12.5523 6.001 12C6.001 11.4477 6.44871 11 7.001 11H8.001Z"
        fill="#303233" />
    <path
        d="M21.001 16C21.5533 16 22.001 16.4477 22.001 17C22.001 17.5523 21.5533 18 21.001 18H20.001C19.4487 18 19.001 17.5523 19.001 17C19.001 16.4477 19.4487 16 20.001 16H21.001Z"
        fill="#303233" />
    <path
        d="M21.001 20C21.5533 20 22.001 20.4477 22.001 21C22.001 21.5523 21.5533 22 21.001 22H16.001C15.4487 22 15.001 21.5523 15.001 21C15.001 20.4477 15.4487 20 16.001 20H21.001Z"
        fill="#303233" />
</svg>
