<svg width="16" height="16" viewBox="0 0 16 16" fill="none" xmlns="http://www.w3.org/2000/svg">
    <g clip-path="url(#clip0_53_4248)">
        <path fill-rule="evenodd" clip-rule="evenodd"
            d="M2.34971 10.5934C1.8607 11.0044 1.47769 11.7244 1.22268 12.4574C0.885677 13.4305 0.756674 14.4015 0.756674 14.4015C0.725673 14.6325 0.803675 14.8655 0.969679 15.0305C1.13468 15.1965 1.36769 15.2745 1.59869 15.2435C1.59869 15.2435 2.56972 15.1145 3.54274 14.7775C4.27575 14.5235 4.99577 14.1395 5.40678 13.6505C6.1278 12.7965 6.10279 11.4864 5.29978 10.6934C5.29678 10.6904 5.29378 10.6874 5.29078 10.6844C4.89777 10.3104 4.38076 10.0934 3.83874 10.0764C3.29573 10.0584 2.76572 10.2434 2.34971 10.5934ZM6.86081 4.64427C6.5108 4.56227 6.02379 4.47027 5.51678 4.44027C4.76176 4.39627 3.97175 4.50627 3.41673 4.87628L3.41573 4.87728C2.92172 5.20828 2.52671 5.8033 2.25871 6.41931C1.9087 7.22233 1.7617 8.03334 1.7617 8.03334C1.7217 8.25235 1.7817 8.47736 1.9237 8.64736C2.0667 8.81837 2.27771 8.91737 2.49971 8.91737H5.52278L7.08282 10.4784V13.5005C7.08282 13.7225 7.18182 13.9335 7.35282 14.0765C7.52283 14.2185 7.74883 14.2785 7.96684 14.2385C7.96684 14.2385 8.77785 14.0915 9.58187 13.7415C10.1969 13.4735 10.7919 13.0795 11.1229 12.5844L11.1239 12.5834C11.4939 12.0284 11.6039 11.2394 11.5599 10.4834C11.5299 9.97939 11.4389 9.49638 11.3579 9.14638C14.736 6.65032 15.25 3.38824 15.25 1.5002C15.25 1.08819 14.917 0.753184 14.505 0.750184C12.9119 0.740184 11.3429 1.13819 9.94688 1.90621C8.72485 2.57822 7.67083 3.51424 6.86081 4.64427Z"
            fill="#303233" />
    </g>
    <defs>
        <clipPath id="clip0_53_4248">
            <rect width="16" height="16" fill="white" />
        </clipPath>
    </defs>
</svg>
