<svg width="24" height="24" viewBox="0 0 24 24" fill="none" xmlns="http://www.w3.org/2000/svg">
    <path fill-rule="evenodd" clip-rule="evenodd"
        d="M2.185 7.029L2.182 7.035C1.426 8.527 1 10.214 1 12C1 18.075 5.925 23 12 23C18.075 23 23 18.075 23 12C23 6.797 19.388 2.438 14.535 1.294L14.532 1.293C13.72 1.101 12.872 1 12 1C7.713 1 3.999 3.452 2.185 7.029ZM15.229 3.597L15.03 6.585C15.007 6.926 14.968 7.091 14.907 7.239C14.824 7.441 14.697 7.622 14.537 7.769C14.419 7.878 14.277 7.971 13.965 8.11L10.144 9.808L9.269 10.975C8.959 11.387 8.762 11.552 8.563 11.651C8.284 11.791 7.968 11.839 7.66 11.791C7.44 11.756 7.203 11.659 6.783 11.359L3.506 9.019C3.178 9.952 3 10.955 3 12C3 16.971 7.029 21 12 21C16.971 21 21 16.971 21 12C21 8.168 18.605 4.895 15.229 3.597ZM13.894 12.581C13.868 12.57 13.843 12.56 13.816 12.551L12.974 12.271C12.531 12.123 12.299 12.098 12.093 12.12H12.092C11.807 12.151 11.536 12.263 11.312 12.444C11.151 12.574 11.004 12.755 10.795 13.174L10.254 14.256C10.146 14.472 10.105 14.585 10.079 14.699C10.043 14.852 10.032 15.01 10.045 15.167V15.168C10.055 15.284 10.08 15.402 10.156 15.631L10.869 17.769C10.995 18.148 11.092 18.322 11.21 18.462C11.371 18.655 11.578 18.804 11.812 18.896C11.982 18.963 12.177 19 12.577 19H14.572C14.878 19 15.03 18.977 15.169 18.935C15.357 18.878 15.532 18.784 15.684 18.659L15.686 18.658C15.798 18.566 15.9 18.453 16.07 18.199L17.299 16.355C17.636 15.85 17.732 15.563 17.748 15.315C17.77 14.962 17.666 14.612 17.454 14.328V14.327C17.306 14.129 17.068 13.941 16.51 13.702L13.894 12.581ZM12.507 14.223L12.08 15.077L12.721 17H14.465L15.501 15.446L13.144 14.436L12.507 14.223ZM13.259 3.088C12.847 3.03 12.427 3 12 3C8.797 3 5.986 4.673 4.391 7.193L7.786 9.618L8.575 8.567L8.773 8.332C8.846 8.261 8.926 8.197 9.011 8.142C9.075 8.101 9.143 8.064 9.284 8.002L13.042 6.331L13.259 3.088Z"
        fill="#303233" />
</svg>
