<svg width="24" height="24" viewBox="0 0 24 24" fill="none" xmlns="http://www.w3.org/2000/svg">
    <path fill-rule="evenodd" clip-rule="evenodd"
        d="M4 2C2.34315 2 1 3.34315 1 5V19C1 20.6569 2.34315 22 4 22H20C21.6569 22 23 20.6569 23 19V7C23 5.34315 21.6569 4 20 4H13.8284C13.298 4 12.7893 3.78929 12.4142 3.41421L11.5858 2.58579C11.2107 2.21071 10.702 2 10.1716 2H4ZM7.7133 12.2477C7.34127 12.1165 7.14605 11.7086 7.27725 11.3366C7.97673 9.35321 9.85644 8 11.9936 8C13.4227 8 14.7419 8.60519 15.6681 9.60823L15.8015 8.92094C15.871 8.56349 16.1958 8.32051 16.55 8.34445L16.639 8.35608C16.9964 8.42556 17.2394 8.75037 17.2155 9.10451L17.2038 9.19352L16.722 11.6725C16.6525 12.0299 16.3277 12.2729 15.9736 12.2489L15.8845 12.2373L13.4056 11.7555C13.0184 11.6802 12.7655 11.3053 12.8408 10.918C12.9102 10.5606 13.235 10.3176 13.5892 10.3415L13.6782 10.3532L14.5709 10.5268C13.9121 9.84046 12.9903 9.42854 11.9936 9.42854C10.4669 9.42854 9.12398 10.3953 8.62447 11.8117C8.49327 12.1837 8.08532 12.3789 7.7133 12.2477ZM16.7099 14.6634C16.8411 14.2914 16.6458 13.8835 16.2738 13.7523C15.9018 13.6211 15.4938 13.8163 15.3626 14.1883C14.8631 15.6046 13.5202 16.5714 11.9935 16.5714C10.9968 16.5714 10.0751 16.1596 9.41629 15.4733L10.3089 15.6468L10.3979 15.6585C10.7521 15.6824 11.0769 15.4394 11.1464 15.082C11.2216 14.6948 10.9687 14.3198 10.5815 14.2445L8.10257 13.7627L8.01356 13.7511C7.65943 13.7271 7.33461 13.9701 7.26513 14.3275L6.78328 16.8065L6.77164 16.8955C6.74771 17.2496 6.99069 17.5744 7.34814 17.6439L7.43715 17.6556C7.79128 17.6795 8.11609 17.4365 8.18557 17.0791L8.31886 16.3916C9.24506 17.3947 10.5644 18 11.9935 18C14.1307 18 16.0104 16.6468 16.7099 14.6634Z"
        fill="#303233" />
</svg>
