<svg width="16" height="16" viewBox="0 0 16 16" fill="none" xmlns="http://www.w3.org/2000/svg">
    <g clip-path="url(#clip0_53_7293)">
        <path
            d="M8 0.375C7.49124 0.375 6.99376 0.424879 6.5123 0.520126C6.30913 0.560319 6.17701 0.757603 6.21721 0.960773C6.2574 1.16394 6.45468 1.29606 6.65785 1.25587C7.09164 1.17005 7.54037 1.125 8 1.125C8.45963 1.125 8.90837 1.17005 9.34215 1.25587C9.54532 1.29606 9.7426 1.16394 9.7828 0.960773C9.82299 0.757603 9.69087 0.560319 9.4877 0.520126C9.00624 0.424879 8.50876 0.375 8 0.375Z"
            fill="#303233" />
        <path
            d="M12.2368 1.65954C12.0647 1.54432 11.8318 1.59043 11.7166 1.76253C11.6014 1.93463 11.6475 2.16755 11.8196 2.28276C12.5695 2.7848 13.2152 3.43052 13.7172 4.18041C13.8325 4.3525 14.0654 4.39862 14.2375 4.2834C14.4096 4.16818 14.4557 3.93527 14.3405 3.76317C13.7839 2.93181 13.0682 2.21612 12.2368 1.65954Z"
            fill="#303233" />
        <path
            d="M4.18041 2.28276C4.3525 2.16755 4.39862 1.93463 4.2834 1.76253C4.16818 1.59043 3.93527 1.54432 3.76317 1.65954C2.93181 2.21612 2.21612 2.93181 1.65954 3.76317C1.54432 3.93527 1.59043 4.16818 1.76253 4.2834C1.93463 4.39862 2.16755 4.35251 2.28276 4.18041C2.7848 3.43052 3.43052 2.7848 4.18041 2.28276Z"
            fill="#303233" />
        <path
            d="M1.25587 6.65785C1.29606 6.45468 1.16394 6.2574 0.960773 6.21721C0.757603 6.17701 0.560319 6.30913 0.520126 6.5123C0.424879 6.99376 0.375 7.49124 0.375 8C0.375 8.50876 0.424879 9.00624 0.520126 9.4877C0.560319 9.69087 0.757603 9.82299 0.960773 9.78279C1.16394 9.7426 1.29606 9.54532 1.25587 9.34215C1.17005 8.90837 1.125 8.45963 1.125 8C1.125 7.54037 1.17005 7.09163 1.25587 6.65785Z"
            fill="#303233" />
        <path
            d="M15.4799 6.5123C15.4397 6.30913 15.2424 6.17701 15.0392 6.21721C14.8361 6.2574 14.7039 6.45468 14.7441 6.65785C14.8299 7.09164 14.875 7.54037 14.875 8C14.875 8.45963 14.8299 8.90837 14.7441 9.34215C14.7039 9.54532 14.8361 9.7426 15.0392 9.7828C15.2424 9.82299 15.4397 9.69087 15.4799 9.4877C15.5751 9.00624 15.625 8.50876 15.625 8C15.625 7.49124 15.5751 6.99376 15.4799 6.5123Z"
            fill="#303233" />
        <path
            d="M2.28276 11.8196C2.16755 11.6475 1.93463 11.6014 1.76253 11.7166C1.59043 11.8318 1.54432 12.0647 1.65954 12.2368C2.21612 13.0682 2.93181 13.7839 3.76317 14.3405C3.93527 14.4557 4.16818 14.4096 4.2834 14.2375C4.39862 14.0654 4.35251 13.8325 4.18041 13.7172C3.43052 13.2152 2.7848 12.5695 2.28276 11.8196Z"
            fill="#303233" />
        <path
            d="M14.3405 12.2368C14.4557 12.0647 14.4096 11.8318 14.2375 11.7166C14.0654 11.6014 13.8325 11.6475 13.7172 11.8196C13.2152 12.5695 12.5695 13.2152 11.8196 13.7172C11.6475 13.8325 11.6014 14.0654 11.7166 14.2375C11.8318 14.4096 12.0647 14.4557 12.2368 14.3405C13.0682 13.7839 13.7839 13.0682 14.3405 12.2368Z"
            fill="#303233" />
        <path
            d="M6.65785 14.7441C6.45468 14.7039 6.2574 14.8361 6.21721 15.0392C6.17701 15.2424 6.30913 15.4397 6.5123 15.4799C6.99376 15.5751 7.49124 15.625 8 15.625C8.50876 15.625 9.00624 15.5751 9.4877 15.4799C9.69087 15.4397 9.82299 15.2424 9.78279 15.0392C9.7426 14.8361 9.54532 14.7039 9.34215 14.7441C8.90837 14.8299 8.45963 14.875 8 14.875C7.54037 14.875 7.09163 14.8299 6.65785 14.7441Z"
            fill="#303233" />
        <path fill-rule="evenodd" clip-rule="evenodd"
            d="M14 8C14 11.3137 11.3137 14 8 14C4.68629 14 2 11.3137 2 8C2 4.68629 4.68629 2 8 2C11.3137 2 14 4.68629 14 8ZM7.56549 7.9214H5.97347V8.46787H6.93417C6.90756 8.73903 6.78029 8.97193 6.55239 9.16656C6.32448 9.35953 6.06746 9.45602 5.78133 9.45602C5.4453 9.45602 5.13338 9.3271 4.84559 9.06925C4.53783 8.79143 4.38395 8.43793 4.38395 8.00873C4.38395 7.59285 4.52203 7.24683 4.79818 6.97068C5.07433 6.68954 5.41619 6.54897 5.82375 6.54897C6.2779 6.54897 6.66301 6.75941 6.97909 7.18029L7.39331 6.78353C7.1521 6.50738 6.90672 6.30776 6.65719 6.18465C6.39601 6.06155 6.11488 6 5.81377 6C5.25316 6 4.77738 6.19547 4.38645 6.5864C3.99552 6.97567 3.80005 7.44978 3.80005 8.00873C3.80005 8.55604 3.99219 9.02516 4.37647 9.41609C4.76075 9.80536 5.22238 10 5.76137 10C6.31367 10 6.76865 9.79871 7.12631 9.39613C7.28435 9.21647 7.39664 9.0235 7.46318 8.81722C7.53139 8.5943 7.56549 8.33812 7.56549 8.04866V7.9214ZM8.88052 9.92764V6.07486H8.29911V9.92764H8.88052ZM11.7302 6.62134H10.3877V7.5471H11.6828V8.09357H10.3877V9.92764H9.80629V6.07486H11.7302V6.62134Z"
            fill="#303233" />
    </g>
    <defs>
        <clipPath id="clip0_53_7293">
            <rect width="16" height="16" fill="white" />
        </clipPath>
    </defs>
</svg>
