<svg width="24" height="24" viewBox="0 0 24 24" fill="none" xmlns="http://www.w3.org/2000/svg">
    <path fill-rule="evenodd" clip-rule="evenodd"
        d="M8.7679 1.25H15.2321C16.0449 1.24999 16.7006 1.24999 17.2315 1.29336C17.7781 1.33803 18.2582 1.43239 18.7025 1.65873C19.4081 2.01825 19.9818 2.59193 20.3413 3.29754C20.5676 3.74175 20.662 4.2219 20.7066 4.76853C20.75 5.29944 20.75 5.95505 20.75 6.76788V17.2321C20.75 18.045 20.75 18.7006 20.7066 19.2315C20.662 19.7781 20.5676 20.2582 20.3413 20.7025C19.9818 21.4081 19.4081 21.9817 18.7025 22.3413C18.2582 22.5676 17.7781 22.662 17.2315 22.7066C16.7006 22.75 16.045 22.75 15.2321 22.75H8.76788C7.95505 22.75 7.29944 22.75 6.76853 22.7066C6.2219 22.662 5.74175 22.5676 5.29754 22.3413C4.59193 21.9817 4.01825 21.4081 3.65873 20.7025C3.43239 20.2582 3.33803 19.7781 3.29336 19.2315C3.24999 18.7006 3.24999 18.0449 3.25 17.2321V6.7679C3.24999 5.95506 3.24999 5.29944 3.29336 4.76853C3.33803 4.2219 3.43239 3.74175 3.65873 3.29754C4.01825 2.59193 4.59193 2.01825 5.29754 1.65873C5.74175 1.43239 6.2219 1.33803 6.76853 1.29336C7.29944 1.24999 7.95506 1.24999 8.7679 1.25ZM6.89068 2.78838C6.4368 2.82547 6.17604 2.8946 5.97852 2.99524C5.55516 3.21095 5.21095 3.55516 4.99524 3.97852C4.8946 4.17604 4.82547 4.4368 4.78838 4.89068C4.75058 5.35331 4.75 5.94755 4.75 6.8V17.2C4.75 18.0525 4.75058 18.6467 4.78838 19.1093C4.82547 19.5632 4.8946 19.824 4.99524 20.0215C5.21095 20.4448 5.55516 20.789 5.97852 21.0048C6.17604 21.1054 6.4368 21.1745 6.89068 21.2116C7.35331 21.2494 7.94755 21.25 8.8 21.25H15.2C16.0525 21.25 16.6467 21.2494 17.1093 21.2116C17.5632 21.1745 17.824 21.1054 18.0215 21.0048C18.4448 20.789 18.789 20.4448 19.0048 20.0215C19.1054 19.824 19.1745 19.5632 19.2116 19.1093C19.2494 18.6467 19.25 18.0525 19.25 17.2V6.8C19.25 5.94755 19.2494 5.35331 19.2116 4.89068C19.1745 4.4368 19.1054 4.17604 19.0048 3.97852C18.789 3.55516 18.4448 3.21095 18.0215 2.99524C17.824 2.8946 17.5632 2.82547 17.1093 2.78838C16.6467 2.75058 16.0525 2.75 15.2 2.75H8.8C7.94755 2.75 7.35331 2.75058 6.89068 2.78838ZM13.5 7.75C13.0858 7.75 12.75 8.08579 12.75 8.5V14C12.75 14.4142 12.4142 14.75 12 14.75C11.5858 14.75 11.25 14.4142 11.25 14V8.5C11.25 7.25736 12.2574 6.25 13.5 6.25C14.7426 6.25 15.75 7.25736 15.75 8.5V14C15.75 16.0711 14.0711 17.75 12 17.75C9.92893 17.75 8.25 16.0711 8.25 14V10C8.25 9.58579 8.58579 9.25 9 9.25C9.41421 9.25 9.75 9.58579 9.75 10V14C9.75 15.2426 10.7574 16.25 12 16.25C13.2426 16.25 14.25 15.2426 14.25 14V8.5C14.25 8.08579 13.9142 7.75 13.5 7.75Z"
        fill="#303233" />
</svg>
