<svg width="16" height="16" viewBox="0 0 16 16" fill="none" xmlns="http://www.w3.org/2000/svg">
    <path fill-rule="evenodd" clip-rule="evenodd"
        d="M1 8C1 4.13401 4.13401 1 8 1C11.866 1 15 4.13401 15 8V12.75C15 13.9926 13.9926 15 12.75 15C11.5074 15 10.5 13.9926 10.5 12.75V11.25C10.5 10.0074 11.5074 9 12.75 9C13.2125 9 13.6425 9.13957 14 9.37889V8C14 4.68629 11.3137 2 8 2C4.68629 2 2 4.68629 2 8V9.37889C2.35752 9.13957 2.78746 9 3.25 9C4.49264 9 5.5 10.0074 5.5 11.25V12.75C5.5 13.9926 4.49264 15 3.25 15C2.00736 15 1 13.9926 1 12.75V8ZM14 11.25C14 10.5596 13.4404 10 12.75 10C12.0596 10 11.5 10.5596 11.5 11.25V12.75C11.5 13.4404 12.0596 14 12.75 14C13.4404 14 14 13.4404 14 12.75V11.25ZM2 11.25C2 10.5596 2.55964 10 3.25 10C3.94036 10 4.5 10.5596 4.5 11.25V12.75C4.5 13.4404 3.94036 14 3.25 14C2.55964 14 2 13.4404 2 12.75V11.25Z"
        fill="#303233" />
</svg>
