<svg width="16" height="16" viewBox="0 0 16 16" fill="none" xmlns="http://www.w3.org/2000/svg">
    <path fill-rule="evenodd" clip-rule="evenodd"
        d="M14.7297 3.42325C14.4981 3.14317 14.1492 2.98728 13.7863 3.00081C13.5062 3.01126 13.2711 3.15774 13.0878 3.29286C12.899 3.43212 12.6738 3.63157 12.4075 3.86746L9.04784 6.84366C8.9048 6.97035 8.77473 7.08556 8.67515 7.19017C8.56884 7.30186 8.46167 7.43698 8.39939 7.61375C8.31131 7.86375 8.31131 8.13625 8.39939 8.38625C8.46167 8.56303 8.56884 8.69814 8.67515 8.80983C8.77474 8.91445 8.90481 9.02966 9.04786 9.15636L12.4075 12.1325C12.6738 12.3684 12.899 12.5679 13.0878 12.7071C13.2711 12.8423 13.5062 12.9887 13.7863 12.9992C14.1492 13.0127 14.4981 12.8568 14.7297 12.5767C14.9087 12.3603 14.955 12.0869 14.9755 11.8605C14.9966 11.6272 14.9965 11.3268 14.9965 10.9719V5.02811C14.9965 4.67317 14.9966 4.37285 14.9755 4.13949C14.955 3.91312 14.9087 3.63971 14.7297 3.42325ZM13.9497 4.05016C13.9543 4.06422 13.9691 4.11346 13.9795 4.22941C13.996 4.41222 13.9965 4.6667 13.9965 5.05208V10.9479C13.9965 11.3333 13.996 11.5878 13.9795 11.7706C13.9691 11.8865 13.9543 11.9358 13.9497 11.9498C13.9202 11.98 13.8799 11.998 13.837 11.9999C13.8238 11.9942 13.7768 11.9727 13.6812 11.9022C13.533 11.793 13.3417 11.6241 13.0528 11.3682L9.72497 8.42024C9.56334 8.27706 9.46603 8.19029 9.39948 8.12037C9.3593 8.07817 9.34514 8.05688 9.34147 8.05074C9.33062 8.01776 9.33062 7.98224 9.34147 7.94926C9.34514 7.94312 9.3593 7.92184 9.39948 7.87963C9.46603 7.80971 9.56334 7.72294 9.72497 7.57976L13.0528 4.63184C13.3417 4.37585 13.533 4.20704 13.6812 4.09777C13.7768 4.02734 13.8238 4.00582 13.837 4.00015C13.8799 4.00195 13.9202 4.02004 13.9497 4.05016ZM7.39636 3.42325C7.16476 3.14317 6.81582 2.98728 6.45296 3.00081C6.17287 3.01126 5.9378 3.15774 5.75452 3.29286C5.56563 3.43212 5.34048 3.63157 5.07421 3.86746L1.71452 6.84365C1.57147 6.97035 1.4414 7.08555 1.34182 7.19017C1.23551 7.30186 1.12834 7.43697 1.06606 7.61375C0.977981 7.86375 0.977981 8.13625 1.06606 8.38625C1.12834 8.56303 1.23551 8.69814 1.34182 8.80983C1.4414 8.91445 1.57147 9.02965 1.71452 9.15635L5.07418 12.1325C5.34046 12.3684 5.56562 12.5679 5.75452 12.7071C5.9378 12.8423 6.17287 12.9887 6.45296 12.9992C6.81582 13.0127 7.16476 12.8568 7.39636 12.5767C7.57533 12.3603 7.62172 12.0869 7.64215 11.8605C7.66322 11.6272 7.66321 11.3268 7.6632 10.9719V5.02811C7.66321 4.67317 7.66322 4.37285 7.64215 4.13949C7.62172 3.91312 7.57533 3.63971 7.39636 3.42325ZM6.61639 4.05016C6.62099 4.06422 6.63574 4.11346 6.6462 4.22941C6.66271 4.41222 6.6632 4.6667 6.6632 5.05208V10.9479C6.6632 11.3333 6.66271 11.5878 6.6462 11.7706C6.63574 11.8865 6.62099 11.9358 6.61639 11.9498C6.58688 11.98 6.54658 11.998 6.50365 11.9999C6.49046 11.9942 6.44345 11.9727 6.34792 11.9022C6.1997 11.793 6.0084 11.6241 5.71943 11.3682L2.39164 8.42024C2.23001 8.27706 2.1327 8.19029 2.06614 8.12037C2.02597 8.07816 2.0118 8.05688 2.00814 8.05074C1.99729 8.01776 1.99729 7.98224 2.00814 7.94926C2.0118 7.94312 2.02597 7.92184 2.06614 7.87963C2.1327 7.80971 2.23001 7.72294 2.39164 7.57976L5.71943 4.63184C6.0084 4.37585 6.1997 4.20704 6.34792 4.09777C6.44345 4.02734 6.49046 4.00582 6.50365 4.00015C6.54658 4.00195 6.58688 4.02004 6.61639 4.05016Z"
        fill="#303233" />
</svg>
