<svg width="24" height="24" viewBox="0 0 24 24" fill="none" xmlns="http://www.w3.org/2000/svg">
    <path
        d="M2.53033 1.46967C2.23744 1.17678 1.76256 1.17678 1.46967 1.46967C1.17678 1.76256 1.17678 2.23744 1.46967 2.53033L10.9391 11.9998L7.96946 14.9698C7.67668 15.2628 7.67687 15.7377 7.96988 16.0305C8.26289 16.3233 8.73776 16.3231 9.03054 16.0301L11.9998 13.0605L21.4697 22.5303C21.7626 22.8232 22.2374 22.8232 22.5303 22.5303C22.8232 22.2374 22.8232 21.7626 22.5303 21.4697L2.53033 1.46967Z"
        fill="#303233" />
    <path
        d="M20.309 3.69146C18.0634 1.44595 14.4227 1.44595 12.1772 3.69146C12.1722 3.69648 12.1673 3.70158 12.1624 3.70674L10.9548 4.98495C10.6704 5.28605 10.6839 5.76073 10.985 6.04518C11.286 6.32964 11.7607 6.31615 12.0452 6.01505L13.2451 4.74488C14.9055 3.0924 17.591 3.09481 19.2483 4.75212C20.9056 6.40941 20.908 9.09489 19.2556 10.7552L17.9851 11.9546C17.6839 12.239 17.6703 12.7137 17.9546 13.0149C18.239 13.3161 18.7137 13.3297 19.0149 13.0454L20.2935 11.8382C20.2987 11.8333 20.3039 11.8283 20.309 11.8232C22.5545 9.57767 22.5545 5.93698 20.309 3.69146Z"
        fill="#303233" />
    <path
        d="M16.0305 9.03012C16.3233 8.73711 16.3231 8.26224 16.0301 7.96946C15.7371 7.67668 15.2622 7.67687 14.9695 7.96988L14.4699 8.46982C14.1771 8.76283 14.1773 9.23771 14.4703 9.53048C14.7633 9.82326 15.2382 9.82307 15.531 9.53006L16.0305 9.03012Z"
        fill="#303233" />
    <path
        d="M6.01504 12.0452C6.31614 11.7607 6.32964 11.2861 6.04519 10.985C5.76074 10.6839 5.28606 10.6704 4.98496 10.9548L3.70724 12.1619C3.70207 12.1668 3.69697 12.1717 3.69195 12.1767C1.44643 14.4223 1.44643 18.063 3.69195 20.3085C5.93746 22.554 9.57816 22.554 11.8237 20.3085L11.8305 20.3016L11.8387 20.293L13.0454 19.0149C13.3297 18.7137 13.3161 18.239 13.0149 17.9546C12.7137 17.6703 12.239 17.6839 11.9546 17.9851L10.7557 19.2551C9.09536 20.9075 6.40989 20.9051 4.75261 19.2478C3.09529 17.5905 3.09288 14.905 4.74538 13.2446L6.01504 12.0452Z"
        fill="#303233" />
</svg>
