<svg width="24" height="24" viewBox="0 0 24 24" fill="none" xmlns="http://www.w3.org/2000/svg">
    <path fill-rule="evenodd" clip-rule="evenodd"
        d="M13.3042 1.91719C13.35 1.50551 13.7208 1.20885 14.1325 1.25458C16.3309 1.49881 18.3809 2.48327 19.9459 4.04634C21.5109 5.60941 22.498 7.65818 22.745 9.85625C22.7912 10.2679 22.495 10.6391 22.0834 10.6853C21.6718 10.7316 21.3006 10.4354 21.2544 10.0237C21.0454 8.16384 20.2102 6.43027 18.8859 5.10767C17.5616 3.78507 15.827 2.95206 13.9669 2.74541C13.5552 2.69968 13.2585 2.32887 13.3042 1.91719ZM6.01785 4.43913C5.66313 4.25971 5.24421 4.25971 4.88949 4.43913C4.7381 4.5157 4.57189 4.66857 3.99876 5.2417L3.84113 5.39934C3.28856 5.95191 3.1091 6.13963 2.96801 6.3908C2.80697 6.67747 2.67871 7.17065 2.67969 7.49946C2.68057 7.79335 2.72874 7.97873 2.89274 8.55653C3.71968 11.4701 5.27975 14.2195 7.57499 16.5147C9.87023 18.81 12.6197 20.37 15.5332 21.197C16.111 21.361 16.2964 21.4091 16.5902 21.41C16.9191 21.411 17.4122 21.2827 17.6989 21.1217C17.9501 20.9806 18.1378 20.8011 18.6904 20.2486L18.848 20.0909C19.4211 19.5178 19.574 19.3516 19.6506 19.2002C19.83 18.8455 19.83 18.4266 19.6506 18.0719C19.574 17.9205 19.4211 17.7543 18.848 17.1811L18.6531 16.9863C18.2765 16.6096 18.1677 16.5066 18.0745 16.446C17.6602 16.1766 17.126 16.1766 16.7117 16.446C16.6185 16.5066 16.5097 16.6096 16.1331 16.9863C16.1258 16.9935 16.1184 17.0009 16.1111 17.0083C16.0189 17.1007 15.9197 17.2001 15.8011 17.285C15.3765 17.5891 14.7939 17.6884 14.2925 17.5423C14.1529 17.5016 14.0384 17.4465 13.9339 17.3961C13.9265 17.3926 13.9192 17.389 13.9119 17.3855C12.387 16.6534 10.9586 15.6556 9.69631 14.3934C8.43406 13.1311 7.4363 11.7027 6.70417 10.1778C6.70066 10.1705 6.69713 10.1632 6.69357 10.1558C6.64324 10.0513 6.58816 9.93684 6.54745 9.79719C6.4013 9.29583 6.50065 8.71322 6.80468 8.28862C6.88964 8.16996 6.98905 8.07079 7.08142 7.97864C7.08881 7.97126 7.09616 7.96394 7.10345 7.95665C7.48013 7.57996 7.58306 7.47122 7.64369 7.37797C7.91306 6.96367 7.91306 6.42955 7.64369 6.01525C7.58306 5.922 7.48013 5.81326 7.10345 5.43657L6.90858 5.2417C6.33545 4.66857 6.16924 4.5157 6.01785 4.43913ZM4.21247 3.1006C4.99286 2.70588 5.91448 2.70588 6.69487 3.1006C7.09002 3.30047 7.4371 3.6481 7.88557 4.09728C7.91306 4.12482 7.94094 4.15275 7.96924 4.18104L8.16411 4.37591C8.18274 4.39455 8.20113 4.41291 8.21925 4.43102C8.51488 4.72633 8.74301 4.95423 8.90126 5.19761C9.49387 6.10908 9.49387 7.28413 8.90125 8.19561C8.74301 8.43899 8.51488 8.66689 8.21925 8.96221C8.20112 8.98031 8.18274 8.99867 8.16411 9.01731C8.10367 9.07774 8.07095 9.11059 8.04682 9.13639C8.03619 9.14775 8.03046 9.15433 8.02749 9.15787L8.02487 9.16108L8.02426 9.1619C8.02426 9.1619 8.02426 9.1619 8.02426 9.1619C7.98827 9.21216 7.97021 9.31807 7.98751 9.37741C7.98833 9.38021 7.98972 9.38533 7.99785 9.40404C8.00885 9.42934 8.02432 9.46183 8.05639 9.52861C8.71625 10.903 9.61607 12.1918 10.757 13.3327C11.8979 14.4736 13.1867 15.3735 14.5611 16.0333C14.6279 16.0654 14.6604 16.0809 14.6857 16.0919C14.7038 16.0997 14.7091 16.1013 14.712 16.1021C14.7713 16.1194 14.8775 16.1014 14.9278 16.0654L14.9286 16.0648L14.9318 16.0622C14.9354 16.0592 14.942 16.0535 14.9533 16.0429C14.9791 16.0188 15.012 15.986 15.0724 15.9256C15.091 15.907 15.1094 15.8886 15.1275 15.8705C15.4228 15.5748 15.6507 15.3467 15.8941 15.1885C16.8056 14.5958 17.9806 14.5958 18.8921 15.1884C19.1355 15.3467 19.3634 15.5748 19.6587 15.8704C19.6768 15.8886 19.6952 15.907 19.7138 15.9256L19.9087 16.1205C19.937 16.1488 19.9649 16.1766 19.9924 16.2041C20.4416 16.6526 20.7892 16.9997 20.9891 17.3948C21.3838 18.1752 21.3838 19.0968 20.9891 19.8772C20.7892 20.2724 20.4416 20.6195 19.9924 21.0679C19.9649 21.0954 19.937 21.1233 19.9087 21.1516L19.751 21.3092C19.732 21.3283 19.7131 21.3472 19.6945 21.3658C19.2184 21.8422 18.8848 22.176 18.4336 22.4295C17.9212 22.7173 17.1734 22.9118 16.5858 22.91C16.0688 22.9085 15.6963 22.8026 15.17 22.6531C15.1547 22.6488 15.1392 22.6444 15.1236 22.64C11.9703 21.745 8.99505 20.0561 6.51433 17.5754C4.03361 15.0947 2.34473 12.1194 1.44973 8.96609C1.44531 8.9505 1.44092 8.93504 1.43656 8.91971C1.28706 8.39342 1.18124 8.02087 1.1797 7.50393C1.17795 6.91629 1.37242 6.16849 1.66022 5.65615C1.91371 5.20491 2.24755 4.87128 2.72391 4.39521C2.74254 4.37659 2.76139 4.35775 2.78047 4.33868L2.9381 4.18104C2.9664 4.15275 2.99428 4.12482 3.02177 4.09728C3.47024 3.6481 3.81732 3.30047 4.21247 3.1006ZM13.3135 5.85638C13.3929 5.44983 13.7867 5.18456 14.1933 5.26388C15.3165 5.48303 16.3488 6.03237 17.1581 6.8416C17.9673 7.65083 18.5166 8.68313 18.7358 9.80638C18.8151 10.2129 18.5498 10.6068 18.1433 10.6861C17.7367 10.7654 17.3429 10.5002 17.2635 10.0936C17.1016 9.26339 16.6955 8.50039 16.0974 7.90226C15.4993 7.30414 14.7363 6.8981 13.906 6.73612C13.4995 6.6568 13.2342 6.26293 13.3135 5.85638Z"
        fill="#303233" />
</svg>
