<svg width="24" height="24" viewBox="0 0 24 24" fill="none" xmlns="http://www.w3.org/2000/svg">
    <path fill-rule="evenodd" clip-rule="evenodd"
        d="M17.4249 3.23332C13.9272 1.9217 10.0728 1.9217 6.57514 3.23332L5.03441 3.81109C3.96107 4.21359 3.25 5.23968 3.25 6.386V12C3.25 14.8673 4.88625 17.2553 6.62617 18.9929C8.37744 20.7419 10.3348 21.9346 11.1969 22.419C11.6995 22.7013 12.3005 22.7013 12.8031 22.419C13.6652 21.9346 15.6226 20.7419 17.3738 18.9929C19.1138 17.2553 20.75 14.8673 20.75 12V6.386C20.75 5.23968 20.0389 4.21359 18.9656 3.81109L17.4249 3.23332ZM8.75 8C8.75 7.58579 8.41421 7.25 8 7.25C7.58579 7.25 7.25 7.58579 7.25 8V13C7.25 13.4142 7.58579 13.75 8 13.75C8.41421 13.75 8.75 13.4142 8.75 13V8ZM16 7.25C16.4142 7.25 16.75 7.58579 16.75 8V13C16.75 13.4142 16.4142 13.75 16 13.75C15.5858 13.75 15.25 13.4142 15.25 13V8C15.25 7.58579 15.5858 7.25 16 7.25ZM12.75 7C12.75 6.58579 12.4142 6.25 12 6.25C11.5858 6.25 11.25 6.58579 11.25 7V15.5C11.25 15.9142 11.5858 16.25 12 16.25C12.4142 16.25 12.75 15.9142 12.75 15.5V7Z"
        fill="#303233" />
</svg>
