<svg width="24" height="24" viewBox="0 0 24 24" fill="none" xmlns="http://www.w3.org/2000/svg">
    <path fill-rule="evenodd" clip-rule="evenodd"
        d="M7.22702 3.22703C8.49289 1.96116 10.2098 1.25 12 1.25C13.7902 1.25 15.5071 1.96116 16.773 3.22703C18.0388 4.4929 18.75 6.20979 18.75 8C18.75 10.9571 19.4939 12.9344 20.2871 14.2092L20.2961 14.2235C20.6558 14.8016 20.9365 15.2528 21.1248 15.5795C21.2191 15.7431 21.3012 15.8943 21.3605 16.0248C21.3901 16.09 21.4211 16.1653 21.4447 16.2446C21.4647 16.3119 21.4991 16.4441 21.4862 16.6019C21.4759 16.7273 21.4516 16.9183 21.3436 17.1129C21.2355 17.3075 21.0861 17.429 20.985 17.5039C20.786 17.6516 20.551 17.6868 20.4593 17.7004C20.3254 17.7202 20.1687 17.7307 20.0027 17.7371C19.6724 17.75 19.2123 17.75 18.6303 17.75H5.36965C4.78768 17.75 4.32756 17.75 3.99725 17.7371C3.83123 17.7307 3.67463 17.7202 3.54071 17.7004C3.44895 17.6868 3.21394 17.6516 3.01494 17.5039C2.91389 17.429 2.7645 17.3075 2.65642 17.1129C2.54833 16.9183 2.52407 16.7273 2.51381 16.6019C2.5009 16.4441 2.53527 16.3119 2.5553 16.2446C2.57891 16.1653 2.6099 16.09 2.6395 16.0248C2.69877 15.8943 2.78087 15.7431 2.87518 15.5795C3.06347 15.2528 3.34414 14.8017 3.70377 14.2238L3.71287 14.2092C4.5061 12.9344 5.24999 10.9571 5.24999 8C5.24999 6.20979 5.96115 4.4929 7.22702 3.22703ZM8.79186 20.5037C9.06596 20.1931 9.53991 20.1636 9.85047 20.4377C10.4238 20.9438 11.1752 21.25 12 21.25C12.8247 21.25 13.5761 20.9438 14.1495 20.4377C14.4601 20.1636 14.934 20.1931 15.2081 20.5037C15.4822 20.8143 15.4527 21.2882 15.1421 21.5623C14.3052 22.301 13.2041 22.75 12 22.75C10.7958 22.75 9.69476 22.301 8.85787 21.5623C8.54731 21.2882 8.51776 20.8143 8.79186 20.5037Z"
        fill="#303233" />
</svg>
