<svg width="16" height="16" viewBox="0 0 16 16" fill="none" xmlns="http://www.w3.org/2000/svg">
    <g clip-path="url(#clip0_53_7212)">
        <path fill-rule="evenodd" clip-rule="evenodd"
            d="M2.45024 8C2.97766 8.57759 3.70921 9.00408 4.57793 9.30331C4.62954 9.32108 4.68151 9.33836 4.73381 9.35516C4.68541 8.90021 4.65922 8.45017 4.65016 8.01562C4.64995 8.00521 4.64995 7.99479 4.65016 7.98438C4.65922 7.54983 4.68541 7.09979 4.73381 6.64484C4.68151 6.66164 4.62954 6.67892 4.57793 6.69669C3.70921 6.99592 2.97766 7.42241 2.45024 8ZM6.29058 6.29058C6.20626 6.85815 6.16249 7.43619 6.15017 8C6.16249 8.56381 6.20627 9.14185 6.29058 9.70942C6.85815 9.79374 7.43619 9.83751 8 9.84983C8.56381 9.83751 9.14185 9.79373 9.70942 9.70942C9.79374 9.14185 9.83751 8.56379 9.84983 7.99998C9.83751 7.43618 9.79373 6.85814 9.70942 6.29058C9.14185 6.20626 8.56381 6.16249 8 6.15017C7.43619 6.16249 6.85815 6.20626 6.29058 6.29058ZM9.35516 4.73381C8.90021 4.68541 8.45017 4.65922 8.01562 4.65016C8.00521 4.64995 7.99479 4.64995 7.98438 4.65016C7.54983 4.65922 7.09979 4.68541 6.64484 4.73381C6.66164 4.68151 6.67892 4.62954 6.69669 4.57793C6.99592 3.70921 7.42241 2.97766 8 2.45024C8.57759 2.97766 9.00408 3.70921 9.30331 4.57793C9.32108 4.62954 9.33836 4.68151 9.35516 4.73381ZM11.2662 6.64484C11.3146 7.09979 11.3408 7.54983 11.3498 7.98438C11.3501 7.99479 11.3501 8.00521 11.3498 8.01562C11.3408 8.45017 11.3146 8.90021 11.2662 9.35516C11.3185 9.33836 11.3705 9.32108 11.4221 9.30331C12.2908 9.00408 13.0223 8.57759 13.5498 8C13.0223 7.4224 12.2908 6.99592 11.4221 6.69669C11.3705 6.67892 11.3185 6.66164 11.2662 6.64484ZM13.3742 10.0491C12.9129 10.3262 12.4175 10.5469 11.9106 10.7215C11.6094 10.8253 11.301 10.9139 10.989 10.989C10.9139 11.301 10.8253 11.6094 10.7215 11.9106C10.5469 12.4175 10.3262 12.9129 10.0491 13.3742C11.5764 12.7915 12.7915 11.5764 13.3742 10.0491ZM8 13.5498C8.5776 13.0223 9.00409 12.2908 9.30331 11.4221C9.32108 11.3705 9.33836 11.3185 9.35516 11.2662C8.90021 11.3146 8.45017 11.3408 8.01562 11.3498C8.00521 11.3501 7.99479 11.3501 7.98438 11.3498C7.54983 11.3408 7.09979 11.3146 6.64484 11.2662C6.66164 11.3185 6.67892 11.3705 6.69669 11.4221C6.99592 12.2908 7.42241 13.0223 8 13.5498ZM5.01104 10.989C4.699 10.9139 4.39063 10.8253 4.08944 10.7215C3.58247 10.5469 3.08708 10.3262 2.62583 10.0491C3.20852 11.5764 4.42359 12.7915 5.95093 13.3742C5.67382 12.9129 5.45309 12.4175 5.27847 11.9106C5.17472 11.6094 5.08614 11.301 5.01104 10.989ZM2.62583 5.95092C3.08708 5.67382 3.58247 5.45308 4.08944 5.27846C4.39063 5.17472 4.69899 5.08613 5.01104 5.01104C5.08613 4.69899 5.17472 4.39063 5.27846 4.08944C5.45308 3.58247 5.67382 3.08708 5.95092 2.62583C4.42359 3.20852 3.20852 4.42359 2.62583 5.95092ZM10.0491 2.62583C10.3262 3.08708 10.5469 3.58247 10.7215 4.08943C10.8253 4.39063 10.9139 4.699 10.989 5.01104C11.301 5.08614 11.6094 5.17472 11.9106 5.27846C12.4175 5.45308 12.9129 5.67382 13.3742 5.95092C12.7915 4.42359 11.5764 3.20852 10.0491 2.62583ZM0.75 8C0.75 3.99594 3.99593 0.75 8 0.75C12.0041 0.75 15.25 3.99594 15.25 8C15.25 12.0041 12.0041 15.25 8 15.25C3.99594 15.25 0.75 12.0041 0.75 8Z"
            fill="#303233" />
    </g>
    <defs>
        <clipPath id="clip0_53_7212">
            <rect width="16" height="16" fill="white" />
        </clipPath>
    </defs>
</svg>
