<svg width="24" height="24" viewBox="0 0 24 24" fill="none" xmlns="http://www.w3.org/2000/svg">
    <path fill-rule="evenodd" clip-rule="evenodd"
        d="M5 2.25C5.41421 2.25 5.75 2.58579 5.75 3V7C5.75 7.41421 5.41421 7.75 5 7.75C4.58579 7.75 4.25 7.41421 4.25 7V3C4.25 2.58579 4.58579 2.25 5 2.25ZM12 2.25C12.4142 2.25 12.75 2.58579 12.75 3V6.35352C13.9043 6.67998 14.75 7.74122 14.75 9C14.75 10.5188 13.5188 11.75 12 11.75C10.4812 11.75 9.25 10.5188 9.25 9C9.25 7.74122 10.0957 6.67998 11.25 6.35352V3C11.25 2.58579 11.5858 2.25 12 2.25ZM19 2.25C19.4142 2.25 19.75 2.58579 19.75 3V9C19.75 9.41421 19.4142 9.75 19 9.75C18.5858 9.75 18.25 9.41421 18.25 9V3C18.25 2.58579 18.5858 2.25 19 2.25ZM2.25 13C2.25 11.4812 3.48122 10.25 5 10.25C6.51878 10.25 7.75 11.4812 7.75 13C7.75 14.2588 6.90425 15.32 5.75 15.6465L5.75 21C5.75 21.4142 5.41421 21.75 5 21.75C4.58579 21.75 4.25 21.4142 4.25 21L4.25 15.6465C3.09575 15.32 2.25 14.2588 2.25 13ZM16.25 15C16.25 13.4812 17.4812 12.25 19 12.25C20.5188 12.25 21.75 13.4812 21.75 15C21.75 16.2588 20.9043 17.32 19.75 17.6465V21C19.75 21.4142 19.4142 21.75 19 21.75C18.5858 21.75 18.25 21.4142 18.25 21V17.6465C17.0957 17.32 16.25 16.2588 16.25 15ZM12 14.25C12.4142 14.25 12.75 14.5858 12.75 15V21C12.75 21.4142 12.4142 21.75 12 21.75C11.5858 21.75 11.25 21.4142 11.25 21V15C11.25 14.5858 11.5858 14.25 12 14.25Z"
        fill="#303233" />
</svg>
