<svg width="16" height="16" viewBox="0 0 16 16" fill="none" xmlns="http://www.w3.org/2000/svg">
    <g clip-path="url(#clip0_53_9668)">
        <path
            d="M6 8.5C6 8.08579 6.33579 7.75 6.75 7.75C7.16421 7.75 7.501 8.08579 7.501 8.5C7.501 8.91421 7.16521 9.251 6.751 9.251C6.33679 9.251 6 8.91421 6 8.5Z"
            fill="#303233" />
        <path
            d="M11 8.5C11 8.08579 11.3358 7.75 11.75 7.75C12.1642 7.75 12.501 8.08579 12.501 8.5C12.501 8.91421 12.1652 9.251 11.751 9.251C11.3368 9.251 11 8.91421 11 8.5Z"
            fill="#303233" />
        <path
            d="M9.25 7.75C8.83579 7.75 8.5 8.08579 8.5 8.5C8.5 8.91421 8.83679 9.251 9.251 9.251C9.66521 9.251 10.001 8.91421 10.001 8.5C10.001 8.08579 9.66421 7.75 9.25 7.75Z"
            fill="#303233" />
        <path
            d="M3.5 12.5C3.5 12.0858 3.83579 11.75 4.25 11.75C4.66421 11.75 5.001 12.0858 5.001 12.5C5.001 12.9142 4.66521 13.251 4.251 13.251C3.83679 13.251 3.5 12.9142 3.5 12.5Z"
            fill="#303233" />
        <path
            d="M6.75 11.75C6.33579 11.75 6 12.0858 6 12.5C6 12.9142 6.33679 13.251 6.751 13.251C7.16521 13.251 7.501 12.9142 7.501 12.5C7.501 12.0858 7.16421 11.75 6.75 11.75Z"
            fill="#303233" />
        <path
            d="M8.5 12.5C8.5 12.0858 8.83579 11.75 9.25 11.75C9.66421 11.75 10.001 12.0858 10.001 12.5C10.001 12.9142 9.66521 13.251 9.251 13.251C8.83679 13.251 8.5 12.9142 8.5 12.5Z"
            fill="#303233" />
        <path
            d="M4.25 9.75C3.83579 9.75 3.5 10.0858 3.5 10.5C3.5 10.9142 3.83679 11.251 4.251 11.251C4.66521 11.251 5.001 10.9142 5.001 10.5C5.001 10.0858 4.66421 9.75 4.25 9.75Z"
            fill="#303233" />
        <path
            d="M6 10.5C6 10.0858 6.33579 9.75 6.75 9.75C7.16421 9.75 7.501 10.0858 7.501 10.5C7.501 10.9142 7.16521 11.251 6.751 11.251C6.33679 11.251 6 10.9142 6 10.5Z"
            fill="#303233" />
        <path
            d="M11.75 9.75C11.3358 9.75 11 10.0858 11 10.5C11 10.9142 11.3368 11.251 11.751 11.251C12.1652 11.251 12.501 10.9142 12.501 10.5C12.501 10.0858 12.1642 9.75 11.75 9.75Z"
            fill="#303233" />
        <path
            d="M8.5 10.5C8.5 10.0858 8.83579 9.75 9.25 9.75C9.66421 9.75 10.001 10.0858 10.001 10.5C10.001 10.9142 9.66521 11.251 9.251 11.251C8.83679 11.251 8.5 10.9142 8.5 10.5Z"
            fill="#303233" />
        <path fill-rule="evenodd" clip-rule="evenodd"
            d="M6.25 1C6.25 0.585786 5.91421 0.25 5.5 0.25C5.08579 0.25 4.75 0.585786 4.75 1V1.75H2.94444C1.79014 1.75 0.75 2.62735 0.75 3.83333V13.1667C0.75 14.3727 1.79014 15.25 2.94444 15.25H13.0556C14.2099 15.25 15.25 14.3727 15.25 13.1667V3.83333C15.25 2.62735 14.2099 1.75 13.0556 1.75H11.25V1C11.25 0.585786 10.9142 0.25 10.5 0.25C10.0858 0.25 9.75 0.585786 9.75 1V1.75H6.25V1ZM9.75 4V3.25H6.25V4C6.25 4.41421 5.91421 4.75 5.5 4.75C5.08579 4.75 4.75 4.41421 4.75 4V3.25H2.94444C2.50326 3.25 2.25 3.56656 2.25 3.83333V5.75H13.75V3.83333C13.75 3.56656 13.4967 3.25 13.0556 3.25H11.25V4C11.25 4.41421 10.9142 4.75 10.5 4.75C10.0858 4.75 9.75 4.41421 9.75 4ZM13.75 7.25H2.25V13.1667C2.25 13.4334 2.50326 13.75 2.94444 13.75H13.0556C13.4967 13.75 13.75 13.4334 13.75 13.1667V7.25Z"
            fill="#303233" />
    </g>
    <defs>
        <clipPath id="clip0_53_9668">
            <rect width="16" height="16" fill="white" />
        </clipPath>
    </defs>
</svg>
