<svg width="16" height="16" viewBox="0 0 16 16" fill="none" xmlns="http://www.w3.org/2000/svg">
    <g clip-path="url(#clip0_6820_686)">
        <path fill-rule="evenodd" clip-rule="evenodd"
            d="M2.03033 0.96967C1.73744 0.676777 1.26256 0.676777 0.96967 0.96967C0.676777 1.26256 0.676777 1.73744 0.96967 2.03033L3.51793 4.57859C2.83239 5.37593 2.38153 6.38242 2.27456 7.4892C1.0871 7.97302 0.25 9.13812 0.25 10.5C0.25 12.2949 1.70507 13.75 3.5 13.75H11.5C11.8641 13.75 12.2183 13.704 12.5567 13.6174L13.9697 15.0303C14.2626 15.3232 14.7374 15.3232 15.0303 15.0303C15.3232 14.7374 15.3232 14.2626 15.0303 13.9697L2.03033 0.96967Z"
            fill="#303233" />
        <path
            d="M14.2614 11.6334C14.2868 11.6495 14.3135 11.6642 14.3414 11.6774C14.7155 11.8552 15.1629 11.696 15.3406 11.3218C15.6034 10.7688 15.75 10.1505 15.75 9.5C15.75 7.31849 14.1064 5.52093 11.9899 5.27795C11.07 3.7636 9.40395 2.75 7.5 2.75C7.37279 2.75 7.24651 2.75454 7.12134 2.76348C6.70818 2.79299 6.39716 3.15184 6.42667 3.565C6.44057 3.75954 6.52748 3.93143 6.6587 4.0558C7 4.3971 13.5 10.872 14.2614 11.6334Z"
            fill="#303233" />
    </g>
    <defs>
        <clipPath id="clip0_6820_686">
            <rect width="16" height="16" fill="white" />
        </clipPath>
    </defs>
</svg>
