<svg width="16" height="16" viewBox="0 0 16 16" fill="none" xmlns="http://www.w3.org/2000/svg">
    <path fill-rule="evenodd" clip-rule="evenodd"
        d="M6.5275 1.96685C6.82195 2.25818 6.82448 2.73305 6.53315 3.0275L4.2971 5.2875H6.93308C8.06016 5.28749 8.9519 5.28749 9.67037 5.34619C10.4046 5.40618 11.0237 5.53119 11.5882 5.81884C12.5055 6.28622 13.2513 7.032 13.7187 7.9493C14.0063 8.51384 14.1313 9.1329 14.1913 9.86713C14.25 10.5856 14.25 11.4773 14.25 12.6044V13.5C14.25 13.9142 13.9142 14.25 13.5 14.25C13.0858 14.25 12.75 13.9142 12.75 13.5V12.6375C12.75 11.47 12.7494 10.6395 12.6963 9.98928C12.6439 9.34781 12.5441 8.94812 12.3821 8.63028C12.0586 7.99523 11.5423 7.47892 10.9072 7.15535C10.5894 6.9934 10.1897 6.89362 9.54822 6.84121C8.89799 6.78808 8.06748 6.7875 6.9 6.7875H4.32454L6.52747 8.96682C6.82193 9.25813 6.82449 9.733 6.53318 10.0275C6.24187 10.3219 5.767 10.3245 5.47253 10.0332L1.97253 6.57068C1.83112 6.43078 1.75108 6.24043 1.75001 6.04152C1.74895 5.8426 1.82695 5.65141 1.96685 5.51L5.46685 1.9725C5.75818 1.67805 6.23305 1.67552 6.5275 1.96685Z"
        fill="#303233" />
</svg>
