<svg width="16" height="16" viewBox="0 0 16 16" fill="none" xmlns="http://www.w3.org/2000/svg">
    <path fill-rule="evenodd" clip-rule="evenodd"
        d="M9.70895 2.14645C9.90421 1.95118 10.2208 1.95118 10.4161 2.14645L13.8536 5.58395C14.0488 5.77921 14.0488 6.09579 13.8536 6.29105L10.4161 9.72855C10.2208 9.92382 9.90421 9.92382 9.70895 9.72855C9.51368 9.53329 9.51368 9.21671 9.70895 9.02145L12.2929 6.4375H9.1C7.93664 6.4375 7.09419 6.43789 6.43142 6.49204C5.77449 6.54571 5.33824 6.6497 4.97928 6.8326C4.2972 7.18014 3.74264 7.7347 3.3951 8.41678C3.2122 8.77574 3.10821 9.21199 3.05454 9.86892C3.00039 10.5317 3 11.3741 3 12.5375V13.5C3 13.7761 2.77614 14 2.5 14C2.22386 14 2 13.7761 2 13.5V12.5148C2 11.3789 2 10.4957 2.05786 9.78749C2.11659 9.06872 2.2374 8.48622 2.50409 7.96279C2.94751 7.09254 3.65504 6.38501 4.52529 5.94159C5.04872 5.6749 5.63122 5.55409 6.34999 5.49536C7.05822 5.4375 7.9414 5.4375 9.07733 5.4375H12.2929L9.70895 2.85355C9.51368 2.65829 9.51368 2.34171 9.70895 2.14645Z"
        fill="#303233" />
</svg>
