<svg width="24" height="24" viewBox="0 0 24 24" fill="none" xmlns="http://www.w3.org/2000/svg">
    <path
        d="M12.75 3C12.75 2.58579 12.4142 2.25 12 2.25C11.5858 2.25 11.25 2.58579 11.25 3V13.1893L7.53033 9.46967C7.23744 9.17678 6.76256 9.17678 6.46967 9.46967C6.17678 9.76256 6.17678 10.2374 6.46967 10.5303L11.4697 15.5303C11.5416 15.6022 11.6245 15.6565 11.7129 15.6931C11.8013 15.7298 11.8983 15.75 12 15.75C12.1017 15.75 12.1987 15.7298 12.2871 15.6931C12.3755 15.6565 12.4584 15.6022 12.5303 15.5303L17.5303 10.5303C17.8232 10.2374 17.8232 9.76256 17.5303 9.46967C17.2374 9.17678 16.7626 9.17678 16.4697 9.46967L12.75 13.1893V3Z"
        fill="#303233" />
    <path
        d="M3 18.25C3.41421 18.25 3.75 18.5858 3.75 19C3.75 19.3315 3.8817 19.6495 4.11612 19.8839C4.35054 20.1183 4.66848 20.25 5 20.25H19C19.3315 20.25 19.6495 20.1183 19.8839 19.8839C20.1183 19.6495 20.25 19.3315 20.25 19C20.25 18.5858 20.5858 18.25 21 18.25C21.4142 18.25 21.75 18.5858 21.75 19C21.75 19.7293 21.4603 20.4288 20.9445 20.9445C20.4288 21.4603 19.7293 21.75 19 21.75H5C4.27065 21.75 3.57118 21.4603 3.05546 20.9445C2.53973 20.4288 2.25 19.7293 2.25 19C2.25 18.5858 2.58579 18.25 3 18.25Z"
        fill="#303233" />
</svg>
