<svg width="24" height="24" viewBox="0 0 24 24" fill="none" xmlns="http://www.w3.org/2000/svg">
    <path
        d="M2.78501 8.811C3.60496 7.96918 4.71279 7.5 5.86364 7.5H8.93182C9.34603 7.5 9.68182 7.16421 9.68182 6.75C9.68182 6.33579 9.34603 6 8.93182 6H5.86364C4.30204 6 2.80852 6.63707 1.71049 7.76438C0.613108 8.89103 0 10.415 0 12C0 13.585 0.613108 15.109 1.71049 16.2356C2.25404 16.7937 2.90042 17.2374 3.61323 17.5406C4.32608 17.8437 5.09083 18 5.86364 18H8.93182C9.34603 18 9.68182 17.6642 9.68182 17.25C9.68182 16.8358 9.34603 16.5 8.93182 16.5H5.86364C5.29338 16.5 4.72821 16.3847 4.20024 16.1602C3.67222 15.9356 3.19114 15.606 2.78501 15.189C1.9644 14.3465 1.5 13.1997 1.5 12C1.5 10.8003 1.9644 9.65348 2.78501 8.811Z"
        fill="#303233" />
    <path
        d="M15.0682 6C14.654 6 14.3182 6.33579 14.3182 6.75C14.3182 7.16421 14.654 7.5 15.0682 7.5H18.1364C18.7066 7.5 19.2718 7.61529 19.7998 7.83982C20.3278 8.06436 20.8089 8.39403 21.215 8.811C21.6212 9.228 21.9444 9.72412 22.1652 10.2715C22.3861 10.819 22.5 11.4064 22.5 12C22.5 12.5936 22.3861 13.181 22.1652 13.7285C21.9444 14.2759 21.6212 14.772 21.215 15.189C20.8089 15.606 20.3278 15.9356 19.7998 16.1602C19.2718 16.3847 18.7066 16.5 18.1364 16.5H15.0682C14.654 16.5 14.3182 16.8358 14.3182 17.25C14.3182 17.6642 14.654 18 15.0682 18H18.1364C18.9092 18 19.6739 17.8437 20.3868 17.5406C21.0996 17.2374 21.746 16.7937 22.2895 16.2356C22.833 15.6776 23.2632 15.0162 23.5563 14.2897C23.8494 13.5632 24 12.7852 24 12C24 11.2148 23.8494 10.4368 23.5563 9.7103C23.2632 8.98378 22.833 8.32239 22.2895 7.76438C21.746 7.20633 21.0996 6.76258 20.3868 6.45945C19.6739 6.1563 18.9092 6 18.1364 6H15.0682Z"
        fill="#303233" />
    <path
        d="M7.90918 11.25C7.49497 11.25 7.15918 11.5858 7.15918 12C7.15918 12.4142 7.49497 12.75 7.90918 12.75H16.091C16.5052 12.75 16.841 12.4142 16.841 12C16.841 11.5858 16.5052 11.25 16.091 11.25H7.90918Z"
        fill="#303233" />
</svg>
