<svg width="24" height="24" viewBox="0 0 24 24" fill="none" xmlns="http://www.w3.org/2000/svg">
    <path fill-rule="evenodd" clip-rule="evenodd"
        d="M1.25 12C1.25 6.64215 5.43956 2.25 10.6667 2.25C12.3863 2.25 13.9992 2.72791 15.3862 3.56112C15.7413 3.77442 15.8562 4.23518 15.6429 4.59025C15.4296 4.94532 14.9689 5.06025 14.6138 4.84696C13.4513 4.14864 12.1042 3.75 10.6667 3.75C6.32084 3.75 2.75 7.41672 2.75 12C2.75 16.5833 6.32084 20.25 10.6667 20.25C12.1042 20.25 13.4513 19.8514 14.6138 19.153C14.9689 18.9397 15.4296 19.0547 15.6429 19.4097C15.8562 19.7648 15.7413 20.2256 15.3862 20.4389C13.9992 21.2721 12.3863 21.75 10.6667 21.75C5.43956 21.75 1.25 17.3578 1.25 12ZM17.4697 7.46967C17.7626 7.17678 18.2374 7.17678 18.5303 7.46967L22.5303 11.4697C22.8232 11.7626 22.8232 12.2374 22.5303 12.5303L18.5303 16.5303C18.2374 16.8232 17.7626 16.8232 17.4697 16.5303C17.1768 16.2374 17.1768 15.7626 17.4697 15.4697L20.1893 12.75H9C8.58579 12.75 8.25 12.4142 8.25 12C8.25 11.5858 8.58579 11.25 9 11.25H20.1893L17.4697 8.53033C17.1768 8.23744 17.1768 7.76256 17.4697 7.46967Z"
        fill="#303233" />
</svg>
