<svg width="16" height="16" viewBox="0 0 16 16" fill="none" xmlns="http://www.w3.org/2000/svg">
    <path
        d="M7 8C7 7.44772 7.44772 7 8 7C8.55228 7 9 7.44772 9 8C9 8.55228 8.55228 9 8 9C7.44772 9 7 8.55228 7 8Z"
        fill="#303233" />
    <path fill-rule="evenodd" clip-rule="evenodd"
        d="M12.1398 10.2503C12.1063 10.066 12.1289 9.87592 12.2045 9.70455C12.2766 9.53649 12.3962 9.39317 12.5486 9.29222C12.701 9.19127 12.8797 9.13709 13.0625 9.13636H13.1136C13.415 9.13636 13.7041 9.01664 13.9172 8.80353C14.1303 8.59042 14.25 8.30138 14.25 8C14.25 7.69862 14.1303 7.40958 13.9172 7.19647C13.7041 6.98336 13.415 6.86364 13.1136 6.86364H13.017C12.8342 6.86291 12.6556 6.80873 12.5031 6.70778C12.3507 6.60683 12.2311 6.46351 12.1591 6.29545V6.25C12.0835 6.07863 12.0609 5.88853 12.0943 5.70421C12.1277 5.5199 12.2156 5.34982 12.3466 5.21591L12.3807 5.18182C12.4863 5.07628 12.5702 4.95095 12.6273 4.813C12.6845 4.67505 12.714 4.52718 12.714 4.37784C12.714 4.22851 12.6845 4.08063 12.6273 3.94268C12.5702 3.80473 12.4863 3.6794 12.3807 3.57386C12.2751 3.46821 12.1498 3.38439 12.0119 3.3272C11.8739 3.27002 11.726 3.24058 11.5767 3.24058C11.4274 3.24058 11.2795 3.27002 11.1415 3.3272C11.0036 3.38439 10.8783 3.46821 10.7727 3.57386L10.7386 3.60795C10.6047 3.73894 10.4346 3.82681 10.2503 3.86023C10.066 3.89365 9.87592 3.87109 9.70455 3.79545C9.53649 3.72343 9.39317 3.60384 9.29222 3.4514C9.19127 3.29896 9.13709 3.12033 9.13636 2.9375V2.88636C9.13636 2.58498 9.01664 2.29594 8.80353 2.08283C8.59042 1.86972 8.30138 1.75 8 1.75C7.69862 1.75 7.40958 1.86972 7.19647 2.08283C6.98336 2.29594 6.86364 2.58498 6.86364 2.88636V2.98295C6.86291 3.16579 6.80873 3.34442 6.70778 3.49686C6.60683 3.64929 6.46351 3.76888 6.29545 3.84091H6.25C6.07863 3.91654 5.88853 3.9391 5.70421 3.90568C5.5199 3.87226 5.34982 3.7844 5.21591 3.65341L5.18182 3.61932C5.07628 3.51366 4.95095 3.42985 4.813 3.37266C4.67505 3.31547 4.52718 3.28604 4.37784 3.28604C4.22851 3.28604 4.08063 3.31547 3.94268 3.37266C3.80473 3.42985 3.6794 3.51366 3.57386 3.61932C3.46821 3.72486 3.38439 3.85018 3.3272 3.98814C3.27002 4.12609 3.24058 4.27396 3.24058 4.4233C3.24058 4.57263 3.27002 4.7205 3.3272 4.85845C3.38439 4.99641 3.46821 5.12174 3.57386 5.22727L3.60795 5.26136C3.73894 5.39527 3.82681 5.56535 3.86023 5.74967C3.89365 5.93398 3.87109 6.12408 3.79545 6.29545C3.73052 6.47201 3.61397 6.62494 3.46097 6.73438C3.30796 6.84382 3.12556 6.90469 2.9375 6.90909H2.88636C2.58498 6.90909 2.29594 7.02881 2.08283 7.24192C1.86972 7.45503 1.75 7.74407 1.75 8.04545C1.75 8.34684 1.86972 8.63588 2.08283 8.84898C2.29594 9.06209 2.58498 9.18182 2.88636 9.18182H2.98295C3.16579 9.18255 3.34442 9.23672 3.49686 9.33767C3.64929 9.43863 3.76888 9.58195 3.84091 9.75C3.91654 9.92137 3.9391 10.1115 3.90568 10.2958C3.87226 10.4801 3.7844 10.6502 3.65341 10.7841L3.61932 10.8182C3.51366 10.9237 3.42985 11.049 3.37266 11.187C3.31547 11.325 3.28604 11.4728 3.28604 11.6222C3.28604 11.7715 3.31547 11.9194 3.37266 12.0573C3.42985 12.1953 3.51366 12.3206 3.61932 12.4261C3.72486 12.5318 3.85018 12.6156 3.98814 12.6728C4.12609 12.73 4.27396 12.7594 4.4233 12.7594C4.57263 12.7594 4.7205 12.73 4.85845 12.6728C4.99641 12.6156 5.12174 12.5318 5.22727 12.4261L5.26136 12.392C5.39527 12.2611 5.56535 12.1732 5.74967 12.1398C5.93398 12.1063 6.12408 12.1289 6.29545 12.2045C6.47201 12.2695 6.62494 12.386 6.73438 12.539C6.84382 12.692 6.90469 12.8744 6.90909 13.0625V13.1136C6.90909 13.415 7.02881 13.7041 7.24192 13.9172C7.45503 14.1303 7.74407 14.25 8.04545 14.25C8.34684 14.25 8.63588 14.1303 8.84898 13.9172C9.06209 13.7041 9.18182 13.415 9.18182 13.1136V13.017C9.18255 12.8342 9.23672 12.6556 9.33767 12.5031C9.43863 12.3507 9.58195 12.2311 9.75 12.1591C9.92137 12.0835 10.1115 12.0609 10.2958 12.0943C10.4801 12.1277 10.6502 12.2156 10.7841 12.3466L10.8182 12.3807C10.9237 12.4863 11.049 12.5702 11.187 12.6273C11.325 12.6845 11.4728 12.714 11.6222 12.714C11.7715 12.714 11.9194 12.6845 12.0573 12.6273C12.1953 12.5702 12.3206 12.4863 12.4261 12.3807C12.5318 12.2751 12.6156 12.1498 12.6728 12.0119C12.73 11.8739 12.7594 11.726 12.7594 11.5767C12.7594 11.4274 12.73 11.2795 12.6728 11.1415C12.6156 11.0036 12.5318 10.8783 12.4261 10.7727L12.392 10.7386C12.2611 10.6047 12.1732 10.4346 12.1398 10.2503ZM8 5.5C6.61929 5.5 5.5 6.61929 5.5 8C5.5 9.38071 6.61929 10.5 8 10.5C9.38071 10.5 10.5 9.38071 10.5 8C10.5 6.61929 9.38071 5.5 8 5.5Z"
        fill="#303233" />
</svg>
