<svg width="24" height="24" viewBox="0 0 24 24" fill="none" xmlns="http://www.w3.org/2000/svg">
    <path fill-rule="evenodd" clip-rule="evenodd"
        d="M12 1.25C6.06294 1.25 1.25 6.06294 1.25 12C1.25 17.9371 6.06294 22.75 12 22.75C17.9371 22.75 22.75 17.9371 22.75 12C22.75 6.06294 17.9371 1.25 12 1.25ZM8.99172 7.75C8.30594 7.75 7.75 8.30964 7.75 9C7.75 9.69036 8.30594 10.25 8.99172 10.25H9.00828C9.69406 10.25 10.25 9.69036 10.25 9C10.25 8.30964 9.69406 7.75 9.00828 7.75H8.99172ZM14.9917 7.75C14.3059 7.75 13.75 8.30964 13.75 9C13.75 9.69036 14.3059 10.25 14.9917 10.25H15.0083C15.6941 10.25 16.25 9.69036 16.25 9C16.25 8.30964 15.6941 7.75 15.0083 7.75H14.9917ZM5.25 13C5.25 12.5858 5.58579 12.25 6 12.25H18C18.4142 12.25 18.75 12.5858 18.75 13C18.75 14.4631 17.9426 15.9039 16.7454 16.9563C15.5369 18.0188 13.8641 18.75 12 18.75C10.1359 18.75 8.46313 18.0188 7.25455 16.9563C6.05742 15.9039 5.25 14.4631 5.25 13Z"
        fill="#303233" />
</svg>
