<svg width="24" height="24" viewBox="0 0 24 24" fill="none" xmlns="http://www.w3.org/2000/svg">
    <path fill-rule="evenodd" clip-rule="evenodd"
        d="M12 1C5.92487 1 1 5.92487 1 12C1 18.0751 5.92487 23 12 23C18.0751 23 23 18.0751 23 12C23 5.92487 18.0751 1 12 1ZM12.2582 8.02433C11.7927 7.94448 11.314 8.03196 10.9068 8.27127C10.4996 8.51059 10.1902 8.8863 10.0335 9.33185C9.85018 9.85284 9.27926 10.1266 8.75827 9.94334C8.23728 9.76007 7.96351 9.18915 8.14678 8.66816C8.46025 7.77705 9.07898 7.02564 9.89339 6.54701C10.7078 6.06838 11.6653 5.89341 12.5963 6.05311C13.5274 6.21281 14.3719 6.69686 14.9802 7.41953C15.5884 8.14206 15.9214 9.05649 15.9201 10.0009C15.9197 11.5313 14.7851 12.5419 13.9748 13.0821C13.5392 13.3725 13.1107 13.586 12.795 13.7263C12.6358 13.7971 12.5016 13.8508 12.405 13.8876C12.3566 13.9061 12.3174 13.9203 12.2888 13.9305L12.2541 13.9427L12.243 13.9464L12.2391 13.9478L12.2376 13.9483C12.2376 13.9483 12.1176 13.5921 12.0489 13.3866L12.2363 13.9487C11.7124 14.1233 11.1461 13.8402 10.9714 13.3162C10.7969 12.7926 11.0796 12.2267 11.6028 12.0517L11.6188 12.0461C11.6342 12.0406 11.6594 12.0315 11.693 12.0186C11.7605 11.993 11.8607 11.9529 11.9827 11.8987C12.2296 11.789 12.551 11.6275 12.8654 11.418C13.555 10.9582 13.9201 10.4691 13.9201 10L13.9201 9.99852C13.9208 9.5262 13.7543 9.06887 13.4502 8.70754C13.146 8.3462 12.7238 8.10417 12.2582 8.02433ZM11 17C11 16.4477 11.4477 16 12 16H12.01C12.5623 16 13.01 16.4477 13.01 17C13.01 17.5523 12.5623 18 12.01 18H12C11.4477 18 11 17.5523 11 17Z"
        fill="#303233" />
</svg>
