<svg width="24" height="24" viewBox="0 0 24 24" fill="none" xmlns="http://www.w3.org/2000/svg">
    <path
        d="M9 10.25C9.41421 10.25 9.75 10.5858 9.75 11V13C9.75 13.4142 9.41421 13.75 9 13.75C8.58579 13.75 8.25 13.4142 8.25 13V11C8.25 10.5858 8.58579 10.25 9 10.25Z"
        fill="#303233" />
    <path fill-rule="evenodd" clip-rule="evenodd"
        d="M4.37109 4.25C3.97575 4.24999 3.63465 4.24998 3.35373 4.27293C3.05722 4.29715 2.76231 4.35064 2.47852 4.49524C2.05516 4.71095 1.71095 5.05516 1.49524 5.47852C1.35064 5.76231 1.29715 6.05722 1.27293 6.35373C1.24998 6.63465 1.24999 6.97571 1.25 7.37106V9.17071C1.25 9.48857 1.45037 9.77191 1.75007 9.87784C2.62497 10.1871 3.25 11.0215 3.25 12C3.25 12.9785 2.62497 13.8129 1.75007 14.1222C1.45037 14.2281 1.25 14.5114 1.25 14.8293V16.6289C1.24999 17.0243 1.24998 17.3654 1.27293 17.6463C1.29715 17.9428 1.35064 18.2377 1.49524 18.5215C1.71095 18.9448 2.05516 19.2891 2.47852 19.5048C2.76231 19.6494 3.05722 19.7028 3.35373 19.7271C3.63466 19.75 3.97572 19.75 4.37108 19.75H19.6289C20.0243 19.75 20.3653 19.75 20.6463 19.7271C20.9428 19.7028 21.2377 19.6494 21.5215 19.5048C21.9448 19.2891 22.2891 18.9448 22.5048 18.5215C22.6494 18.2377 22.7028 17.9428 22.7271 17.6463C22.75 17.3654 22.75 17.0243 22.75 16.629V14.8293C22.75 14.5114 22.5496 14.2281 22.2499 14.1222C21.375 13.8129 20.75 12.9785 20.75 12C20.75 11.0215 21.375 10.1871 22.2499 9.87784C22.5496 9.77191 22.75 9.48857 22.75 9.17071V7.37108C22.75 6.97576 22.75 6.63463 22.7271 6.35373C22.7028 6.05722 22.6494 5.76231 22.5048 5.47852C22.2891 5.05516 21.9448 4.71095 21.5215 4.49524C21.2377 4.35064 20.9428 4.29715 20.6463 4.27293C20.3654 4.24998 20.0243 4.24999 19.6289 4.25H4.37109ZM8.25 5.75V7C8.25 7.41421 8.58579 7.75 9 7.75C9.41421 7.75 9.75 7.41421 9.75 7V5.75H19.6C20.0324 5.75 20.3116 5.75059 20.5241 5.76795C20.7279 5.78459 20.8034 5.81285 20.8405 5.83175C20.9816 5.90365 21.0964 6.01839 21.1683 6.15951C21.1872 6.19659 21.2154 6.27213 21.2321 6.47588C21.2494 6.68838 21.25 6.96759 21.25 7.4V8.68275C20.0612 9.31114 19.25 10.5601 19.25 12C19.25 13.4399 20.0612 14.6889 21.25 15.3173V16.6C21.25 17.0324 21.2494 17.3116 21.2321 17.5241C21.2154 17.7279 21.1872 17.8034 21.1683 17.8405C21.0964 17.9816 20.9816 18.0964 20.8405 18.1683C20.8034 18.1872 20.7279 18.2154 20.5241 18.2321C20.3116 18.2494 20.0324 18.25 19.6 18.25H9.75V17C9.75 16.5858 9.41421 16.25 9 16.25C8.58579 16.25 8.25 16.5858 8.25 17V18.25H4.4C3.96759 18.25 3.68838 18.2494 3.47588 18.2321C3.27213 18.2154 3.19659 18.1872 3.15951 18.1683C3.01839 18.0964 2.90365 17.9816 2.83175 17.8405C2.81285 17.8034 2.78459 17.7279 2.76795 17.5241C2.75059 17.3116 2.75 17.0324 2.75 16.6V15.3173C3.93877 14.6889 4.75 13.4399 4.75 12C4.75 10.5601 3.93877 9.31114 2.75 8.68275V7.4C2.75 6.96759 2.75059 6.68838 2.76795 6.47588C2.78459 6.27213 2.81285 6.19659 2.83175 6.15951C2.90365 6.01839 3.01839 5.90365 3.15951 5.83175C3.19659 5.81285 3.27213 5.78459 3.47588 5.76795C3.68838 5.75059 3.96759 5.75 4.4 5.75H8.25Z"
        fill="#303233" />
</svg>
