<svg width="16" height="16" viewBox="0 0 16 16" fill="none" xmlns="http://www.w3.org/2000/svg">
    <path
        d="M7.64643 6.10355C7.84169 6.29882 8.15828 6.29882 8.35354 6.10355L10.3535 4.10355C10.4965 3.96055 10.5393 3.7455 10.4619 3.55866C10.3845 3.37182 10.2022 3.25 9.99999 3.25L5.99999 3.25C5.79775 3.25 5.61544 3.37182 5.53805 3.55866C5.46065 3.74549 5.50343 3.96055 5.64643 4.10355L7.64643 6.10355Z"
        fill="#303233" />
    <path fill-rule="evenodd" clip-rule="evenodd"
        d="M4.54 1H11.46C11.947 1 12.186 1.031 12.372 1.125C12.589 1.236 12.764 1.411 12.875 1.628C12.969 1.814 13 2.053 13 2.54V3.888C13 4.266 12.993 4.454 12.95 4.632C12.906 4.815 12.833 4.991 12.735 5.152C12.639 5.308 12.511 5.446 12.244 5.713L10.339 7.618L10.105 7.858C10.0956 7.86819 10.0865 7.87735 10.0779 7.88591C10.0538 7.91015 10.0344 7.92962 10.027 7.954C10.017 7.984 10.017 8.016 10.027 8.046C10.0344 8.07038 10.0538 8.08985 10.0779 8.11409C10.0865 8.12265 10.0956 8.13181 10.105 8.142C10.166 8.209 10.243 8.286 10.339 8.382L12.244 10.287C12.511 10.554 12.639 10.692 12.735 10.848C12.833 11.009 12.906 11.185 12.95 11.368C12.993 11.546 13 11.734 13 12.112V13.46C13 13.947 12.969 14.186 12.875 14.372C12.764 14.589 12.589 14.764 12.372 14.875C12.186 14.969 11.947 15 11.46 15H4.54C4.053 15 3.814 14.969 3.628 14.875C3.411 14.764 3.236 14.588 3.125 14.372C3.031 14.186 3 13.947 3 13.46V12.112C3 11.734 3.007 11.546 3.05 11.368C3.094 11.185 3.167 11.009 3.265 10.848C3.361 10.692 3.489 10.554 3.756 10.287L5.661 8.382L5.895 8.142C5.9044 8.13181 5.91353 8.12265 5.92206 8.11409C5.94621 8.08985 5.96561 8.07038 5.973 8.046C5.983 8.016 5.983 7.984 5.973 7.954C5.96561 7.92962 5.94621 7.91015 5.92206 7.88591C5.91353 7.87735 5.9044 7.86819 5.895 7.858C5.834 7.791 5.757 7.714 5.661 7.618L3.756 5.713C3.489 5.446 3.361 5.308 3.265 5.152C3.167 4.991 3.094 4.815 3.05 4.632C3.007 4.454 3 4.266 3 3.888V2.54C3 2.053 3.031 1.814 3.125 1.628C3.236 1.412 3.411 1.236 3.628 1.125C3.814 1.031 4.053 1 4.54 1ZM11.46 2H4.54C4.4041 2 4.29495 2 4.205 2.004C4.18924 2.00489 4.17473 2.00499 4.16129 2.00508C4.12952 2.00529 4.10378 2.00546 4.082 2.016C4.054 2.031 4.031 2.054 4.016 2.082C4.00546 2.10378 4.00529 2.12952 4.00508 2.16129C4.00499 2.17473 4.00489 2.18925 4.004 2.205C4 2.295 4 2.404 4 2.53999V3.888C4 3.93355 3.99978 3.97511 3.99958 4.01333C3.99865 4.19245 3.9981 4.29828 4.022 4.398C4.042 4.48 4.074 4.558 4.118 4.63C4.17148 4.71722 4.24663 4.79157 4.37353 4.91713C4.40085 4.94416 4.43058 4.97357 4.463 5.006L6.368 6.911C6.712 7.255 6.86 7.446 6.924 7.645C7 7.876 7 8.124 6.924 8.355C6.86 8.554 6.712 8.745 6.368 9.089L4.463 10.994C4.43058 11.0264 4.40086 11.0558 4.37353 11.0829C4.24663 11.2084 4.17148 11.2828 4.118 11.37C4.074 11.442 4.042 11.52 4.022 11.602C3.9981 11.7017 3.99865 11.8076 3.99958 11.9867C3.99978 12.0249 4 12.0665 4 12.112V13.46C4 13.596 4 13.705 4.004 13.795C4.00489 13.8108 4.00499 13.8253 4.00508 13.8387C4.00529 13.8705 4.00546 13.8962 4.016 13.918C4.031 13.946 4.054 13.969 4.082 13.984C4.10378 13.9945 4.12952 13.9947 4.16129 13.9949C4.17472 13.995 4.18924 13.9951 4.205 13.996C4.29496 14 4.4039 14 4.53981 14H11.46C11.5959 14 11.705 14 11.795 13.996C11.8108 13.9951 11.8253 13.995 11.8387 13.9949C11.8705 13.9947 11.8962 13.9945 11.918 13.984C11.946 13.969 11.969 13.946 11.984 13.918C11.9945 13.8962 11.9947 13.8705 11.9949 13.8387C11.995 13.8253 11.9951 13.8108 11.996 13.795C12 13.705 12 13.596 12 13.46V12.112C12 12.0665 12.0002 12.0249 12.0004 11.9867C12.0013 11.8076 12.0019 11.7017 11.978 11.602C11.958 11.52 11.926 11.442 11.882 11.371C11.8285 11.2838 11.7534 11.2084 11.6265 11.0829C11.5991 11.0558 11.5694 11.0264 11.537 10.994L9.632 9.089C9.288 8.745 9.14 8.554 9.076 8.355C9 8.124 9 7.876 9.076 7.645C9.14 7.446 9.288 7.255 9.632 6.911L11.537 5.006C11.5694 4.97357 11.5992 4.94416 11.6265 4.91712C11.7534 4.79157 11.8285 4.71722 11.882 4.63C11.926 4.559 11.958 4.48 11.978 4.398C12.0019 4.29828 12.0013 4.19245 12.0004 4.01333C12.0002 3.97511 12 3.93355 12 3.888V2.54C12 2.404 12 2.295 11.996 2.205C11.9951 2.18924 11.995 2.17472 11.9949 2.16128C11.9947 2.12952 11.9945 2.10378 11.984 2.082C11.969 2.054 11.946 2.031 11.918 2.016C11.8962 2.00546 11.8705 2.00529 11.8387 2.00508C11.8253 2.00499 11.8108 2.00489 11.795 2.004C11.705 2 11.5959 2 11.46 2Z"
        fill="#303233" />
</svg>
