<svg width="24" height="24" viewBox="0 0 24 24" fill="none" xmlns="http://www.w3.org/2000/svg">
    <path fill-rule="evenodd" clip-rule="evenodd"
        d="M12 3C7.02944 3 3 7.02944 3 12C3 16.9706 7.02944 21 12 21C16.9706 21 21 16.9706 21 12C21 7.02944 16.9706 3 12 3ZM1 12C1 5.92487 5.92487 1 12 1C18.0751 1 23 5.92487 23 12C23 18.0751 18.0751 23 12 23C5.92487 23 1 18.0751 1 12Z"
        fill="#303233" />
    <path fill-rule="evenodd" clip-rule="evenodd"
        d="M10.5681 8C10.5787 8 10.5894 8 10.6 8H13.4C13.4106 8 13.4213 8 13.4319 8C13.6843 7.99997 13.9301 7.99994 14.1382 8.01695C14.3668 8.03562 14.6366 8.07969 14.908 8.21799C15.2843 8.40973 15.5903 8.71569 15.782 9.09202C15.9203 9.36344 15.9644 9.63318 15.9831 9.86177C16.0001 10.0699 16 10.3157 16 10.5681C16 10.5787 16 10.5894 16 10.6V13.4C16 13.4106 16 13.4213 16 13.4319C16 13.6843 16.0001 13.9301 15.9831 14.1382C15.9644 14.3668 15.9203 14.6366 15.782 14.908C15.5903 15.2843 15.2843 15.5903 14.908 15.782C14.6366 15.9203 14.3668 15.9644 14.1382 15.9831C13.9301 16.0001 13.6843 16 13.4319 16C13.4213 16 13.4106 16 13.4 16H10.6C10.5894 16 10.5787 16 10.5681 16C10.3157 16 10.0699 16.0001 9.86177 15.9831C9.63318 15.9644 9.36344 15.9203 9.09202 15.782C8.71569 15.5903 8.40973 15.2843 8.21799 14.908C8.07969 14.6366 8.03562 14.3668 8.01695 14.1382C7.99994 13.9301 7.99997 13.6843 8 13.4319C8 13.4213 8 13.4106 8 13.4V10.6C8 10.5894 8 10.5787 8 10.5681C7.99997 10.3157 7.99994 10.0699 8.01695 9.86177C8.03562 9.63318 8.07969 9.36344 8.21799 9.09202C8.40973 8.71569 8.71569 8.40973 9.09202 8.21799C9.36344 8.07969 9.63318 8.03562 9.86177 8.01695C10.0699 7.99994 10.3157 7.99997 10.5681 8Z"
        fill="#303233" />
</svg>
