<svg width="24" height="24" viewBox="0 0 24 24" fill="none" xmlns="http://www.w3.org/2000/svg">
    <path fill-rule="evenodd" clip-rule="evenodd"
        d="M4 8C4 5.23858 6.23858 3 9 3C11.7614 3 14 5.23858 14 8C14 10.7614 11.7614 13 9 13C6.23858 13 4 10.7614 4 8ZM9 5C7.34315 5 6 6.34315 6 8C6 9.65685 7.34315 11 9 11C10.6569 11 12 9.65685 12 8C12 6.34315 10.6569 5 9 5Z"
        fill="#303233" />
    <path
        d="M18.7071 8.29289C18.3166 7.90237 17.6834 7.90237 17.2929 8.29289C16.9024 8.68342 16.9024 9.31658 17.2929 9.70711L19.0858 11.5L17.2929 13.2929C16.9024 13.6834 16.9024 14.3166 17.2929 14.7071C17.6834 15.0976 18.3166 15.0976 18.7071 14.7071L20.5 12.9142L22.2929 14.7071C22.6834 15.0976 23.3166 15.0976 23.7071 14.7071C24.0976 14.3166 24.0976 13.6834 23.7071 13.2929L21.9142 11.5L23.7071 9.70711C24.0976 9.31658 24.0976 8.68342 23.7071 8.29289C23.3166 7.90237 22.6834 7.90237 22.2929 8.29289L20.5 10.0858L18.7071 8.29289Z"
        fill="#303233" />
    <path
        d="M2.22063 21.2493C2.99776 18.2299 5.73981 16 9.00016 16C12.2605 16 15.0026 18.2299 15.7797 21.2493C15.9173 21.7841 16.4625 22.1061 16.9974 21.9684C17.5322 21.8308 17.8542 21.2856 17.7166 20.7507C16.7175 16.8692 13.1952 14 9.00016 14C4.80515 14 1.2828 16.8692 0.283758 20.7507C0.146096 21.2856 0.468083 21.8308 1.00294 21.9684C1.53779 22.1061 2.08297 21.7841 2.22063 21.2493Z"
        fill="#303233" />
</svg>
