<svg width="16" height="16" viewBox="0 0 16 16" fill="none" xmlns="http://www.w3.org/2000/svg">
    <path fill-rule="evenodd" clip-rule="evenodd"
        d="M1.26685 3.42325C1.49844 3.14317 1.84738 2.98728 2.21024 3.00081C2.49033 3.01126 2.7254 3.15774 2.90868 3.29286C3.09757 3.43212 3.32272 3.63157 3.58899 3.86746L6.94869 6.84366C7.09174 6.97035 7.2218 7.08556 7.32138 7.19017C7.4277 7.30186 7.53486 7.43698 7.59714 7.61375C7.68522 7.86375 7.68522 8.13625 7.59714 8.38625C7.53486 8.56303 7.4277 8.69814 7.32138 8.80983C7.2218 8.91445 7.09173 9.02966 6.94867 9.15636L3.58903 12.1325C3.32274 12.3684 3.09758 12.5679 2.90868 12.7071C2.7254 12.8423 2.49033 12.9887 2.21024 12.9992C1.84738 13.0127 1.49844 12.8568 1.26685 12.5767C1.08787 12.3603 1.04149 12.0869 1.02105 11.8605C0.999981 11.6272 0.99999 11.3268 1 10.9719V5.02811C0.99999 4.67317 0.999981 4.37285 1.02105 4.13949C1.04149 3.91312 1.08787 3.63971 1.26685 3.42325ZM2.04681 4.05016C2.04221 4.06422 2.02747 4.11346 2.017 4.22941C2.00049 4.41222 2 4.6667 2 5.05208V10.9479C2 11.3333 2.00049 11.5878 2.017 11.7706C2.02747 11.8865 2.04221 11.9358 2.04681 11.9498C2.07632 11.98 2.11663 11.998 2.15955 11.9999C2.17274 11.9942 2.21975 11.9727 2.31529 11.9022C2.4635 11.793 2.6548 11.6241 2.94378 11.3682L6.27156 8.42024C6.43319 8.27706 6.5305 8.19029 6.59706 8.12037C6.63723 8.07817 6.6514 8.05688 6.65506 8.05074C6.66591 8.01776 6.66591 7.98224 6.65506 7.94926C6.6514 7.94312 6.63723 7.92184 6.59706 7.87963C6.5305 7.80971 6.43319 7.72294 6.27156 7.57976L2.94378 4.63184C2.6548 4.37585 2.4635 4.20704 2.31529 4.09777C2.21976 4.02734 2.17274 4.00582 2.15955 4.00015C2.11663 4.00195 2.07632 4.02004 2.04681 4.05016ZM8.60018 3.42325C8.83177 3.14317 9.18071 2.98728 9.54357 3.00081C9.82367 3.01126 10.0587 3.15774 10.242 3.29286C10.4309 3.43212 10.656 3.63157 10.9223 3.86746L14.282 6.84365C14.4251 6.97035 14.5551 7.08555 14.6547 7.19017C14.761 7.30186 14.8682 7.43697 14.9305 7.61375C15.0186 7.86375 15.0186 8.13625 14.9305 8.38625C14.8682 8.56303 14.761 8.69814 14.6547 8.80983C14.5551 8.91445 14.4251 9.02965 14.282 9.15635L10.9224 12.1325C10.6561 12.3684 10.4309 12.5679 10.242 12.7071C10.0587 12.8423 9.82367 12.9887 9.54357 12.9992C9.18071 13.0127 8.83177 12.8568 8.60018 12.5767C8.4212 12.3603 8.37482 12.0869 8.35438 11.8605C8.33331 11.6272 8.33332 11.3268 8.33333 10.9719V5.02811C8.33332 4.67317 8.33331 4.37285 8.35438 4.13949C8.37482 3.91312 8.4212 3.63971 8.60018 3.42325ZM9.38015 4.05016C9.37554 4.06422 9.3608 4.11346 9.35033 4.22941C9.33383 4.41222 9.33333 4.6667 9.33333 5.05208V10.9479C9.33333 11.3333 9.33383 11.5878 9.35033 11.7706C9.3608 11.8865 9.37554 11.9358 9.38015 11.9498C9.40966 11.98 9.44996 11.998 9.49288 11.9999C9.50607 11.9942 9.55309 11.9727 9.64862 11.9022C9.79683 11.793 9.98814 11.6241 10.2771 11.3682L13.6049 8.42024C13.7665 8.27706 13.8638 8.19029 13.9304 8.12037C13.9706 8.07816 13.9847 8.05688 13.9884 8.05074C13.9992 8.01776 13.9992 7.98224 13.9884 7.94926C13.9847 7.94312 13.9706 7.92184 13.9304 7.87963C13.8638 7.80971 13.7665 7.72294 13.6049 7.57976L10.2771 4.63184C9.98814 4.37585 9.79683 4.20704 9.64862 4.09777C9.55309 4.02734 9.50607 4.00582 9.49288 4.00015C9.44996 4.00195 9.40966 4.02004 9.38015 4.05016Z"
        fill="#303233" />
</svg>
