<svg width="16" height="16" viewBox="0 0 16 16" fill="none" xmlns="http://www.w3.org/2000/svg">
    <path
        d="M5.77853 1H10.2215C10.7808 0.999996 11.231 0.999992 11.5954 1.02976C11.9702 1.06039 12.298 1.125 12.6009 1.2793C13.083 1.52497 13.475 1.91698 13.7207 2.39915C13.875 2.70198 13.9396 3.02979 13.9702 3.40464C14 3.76899 14 4.21918 14 4.77851V8.70815C13.6937 8.57427 13.3554 8.5 12.9997 8.5C11.619 8.5 10.4997 9.61929 10.4997 11C10.4997 11.5738 10.693 12.1025 11.0181 12.5245C10.0923 13.0535 9.39847 13.942 9.12597 15H5.77851C5.21918 15 4.76899 15 4.40464 14.9702C4.02979 14.9396 3.70198 14.875 3.39915 14.7207C2.91698 14.475 2.52497 14.083 2.2793 13.6009C2.125 13.298 2.06039 12.9702 2.02976 12.5954C1.99999 12.231 2 11.7808 2 11.2215V4.77853C2 4.21919 1.99999 3.769 2.02976 3.40464C2.06039 3.02979 2.125 2.70198 2.2793 2.39915C2.52497 1.91698 2.91698 1.52497 3.39915 1.2793C3.70198 1.125 4.02979 1.06039 4.40464 1.02976C4.76899 0.999992 5.21919 0.999996 5.77853 1Z"
        fill="#303233" />
    <path
        d="M12.9998 12.5C13.8283 12.5 14.4998 11.8284 14.4998 11C14.4998 10.1716 13.8283 9.5 12.9998 9.5C12.1714 9.5 11.4998 10.1716 11.4998 11C11.4998 11.8284 12.1714 12.5 12.9998 12.5Z"
        fill="#303233" />
    <path
        d="M12.9998 13C14.4871 13 15.7215 14.0822 15.9587 15.5021C16.0042 15.7745 15.776 16 15.4998 16H10.4998C10.2237 16 9.99547 15.7745 10.041 15.5021C10.2781 14.0822 11.5126 13 12.9998 13Z"
        fill="#303233" />
</svg>
