<svg width="24" height="24" viewBox="0 0 24 24" fill="none" xmlns="http://www.w3.org/2000/svg">
    <path
        d="M9 9.5C9 10.3284 8.32843 11 7.5 11C6.67157 11 6 10.3284 6 9.5C6 8.67157 6.67157 8 7.5 8C8.32843 8 9 8.67157 9 9.5Z"
        fill="#303233" />
    <path
        d="M8.5 17C9.32843 17 10 16.3284 10 15.5C10 14.6716 9.32843 14 8.5 14C7.67157 14 7 14.6716 7 15.5C7 16.3284 7.67157 17 8.5 17Z"
        fill="#303233" />
    <path
        d="M16 16.5C16 17.3284 15.3284 18 14.5 18C13.6716 18 13 17.3284 13 16.5C13 15.6716 13.6716 15 14.5 15C15.3284 15 16 15.6716 16 16.5Z"
        fill="#303233" />
    <path
        d="M12.5 13C13.3284 13 14 12.3284 14 11.5C14 10.6716 13.3284 10 12.5 10C11.6716 10 11 10.6716 11 11.5C11 12.3284 11.6716 13 12.5 13Z"
        fill="#303233" />
    <path fill-rule="evenodd" clip-rule="evenodd"
        d="M1 12C1 5.92487 5.92487 1 12 1C12.0408 1 12.0816 1.00022 12.1223 1.00067C12.4244 1.00396 12.7089 1.14371 12.8962 1.38084C13.0834 1.61798 13.1534 1.92707 13.0866 2.22176C13.0301 2.47111 13 2.73143 13 3C13 4.933 14.567 6.5 16.5 6.5C17.0523 6.5 17.5 6.94772 17.5 7.5C17.5 9.433 19.067 11 21 11C21.2686 11 21.5289 10.9699 21.7782 10.9134C22.0729 10.8466 22.382 10.9166 22.6192 11.1038C22.8563 11.2911 22.996 11.5756 22.9993 11.8777C22.9998 11.9184 23 11.9592 23 12C23 18.0751 18.0751 23 12 23C5.92487 23 1 18.0751 1 12ZM11.0003 3.0549C6.50019 3.55222 3 7.36735 3 12C3 16.9706 7.02944 21 12 21C16.6326 21 20.4478 17.4998 20.9451 12.9997C18.2466 12.9733 16.0131 11.0036 15.5771 8.4229C12.9964 7.98689 11.0267 5.75341 11.0003 3.0549Z"
        fill="#303233" />
</svg>
