<svg width="24" height="24" viewBox="0 0 24 24" fill="none" xmlns="http://www.w3.org/2000/svg">
    <path fill-rule="evenodd" clip-rule="evenodd"
        d="M6.7587 1H13.2413C14.0463 0.999988 14.7106 0.999977 15.2518 1.04419C15.8139 1.09012 16.3306 1.18868 16.816 1.43597C17.4544 1.76129 17.9916 2.25097 18.374 2.85149C18.6707 3.31735 18.5335 3.93547 18.0676 4.23212C17.6018 4.52876 16.9836 4.39159 16.687 3.92574C16.4958 3.62548 16.2272 3.38064 15.908 3.21799C15.7516 3.1383 15.5274 3.07337 15.089 3.03755C14.6389 3.00078 14.0566 3 13.2 3H6.8C5.94342 3 5.36113 3.00078 4.91104 3.03755C4.47262 3.07337 4.24842 3.1383 4.09202 3.21799C3.7157 3.40973 3.40973 3.7157 3.21799 4.09202C3.1383 4.24842 3.07337 4.47262 3.03755 4.91104C3.00078 5.36113 3 5.94342 3 6.8V17.2C3 18.0566 3.00078 18.6389 3.03755 19.089C3.07337 19.5274 3.1383 19.7516 3.21799 19.908C3.40973 20.2843 3.7157 20.5903 4.09202 20.782C4.24842 20.8617 4.47262 20.9266 4.91104 20.9624C5.36113 20.9992 5.94342 21 6.8 21H13.2C14.0566 21 14.6389 20.9992 15.089 20.9624C15.5274 20.9266 15.7516 20.8617 15.908 20.782C16.2843 20.5903 16.5903 20.2843 16.782 19.908C16.8643 19.7465 16.9305 19.5136 16.9656 19.0486C17.0072 18.4979 17.4874 18.0852 18.0381 18.1268C18.5888 18.1684 19.0015 18.6486 18.9599 19.1993C18.9159 19.7821 18.8188 20.316 18.564 20.816C18.1805 21.5686 17.5686 22.1805 16.816 22.564C16.3306 22.8113 15.8139 22.9099 15.2518 22.9558C14.7106 23 14.0463 23 13.2413 23H6.75868C5.95372 23 5.28936 23 4.74817 22.9558C4.18608 22.9099 3.66937 22.8113 3.18404 22.564C2.43139 22.1805 1.81947 21.5686 1.43597 20.816C1.18868 20.3306 1.09012 19.8139 1.04419 19.2518C0.999977 18.7106 0.999988 18.0463 1 17.2413V6.7587C0.999988 5.95373 0.999977 5.28937 1.04419 4.74817C1.09012 4.18608 1.18868 3.66937 1.43597 3.18404C1.81947 2.43139 2.43139 1.81947 3.18404 1.43597C3.66937 1.18868 4.18608 1.09012 4.74817 1.04419C5.28937 0.999977 5.95373 0.999988 6.7587 1ZM5 7C5 6.44772 5.44772 6 6 6H14C14.5523 6 15 6.44772 15 7C15 7.55229 14.5523 8 14 8H6C5.44772 8 5 7.55229 5 7ZM5 12C5 11.4477 5.44772 11 6 11H9C9.55229 11 10 11.4477 10 12C10 12.5523 9.55229 13 9 13H6C5.44772 13 5 12.5523 5 12ZM5 17C5 16.4477 5.44772 16 6 16H8C8.55229 16 9 16.4477 9 17C9 17.5523 8.55229 18 8 18H6C5.44772 18 5 17.5523 5 17Z"
        fill="#303233" />
    <path fill-rule="evenodd" clip-rule="evenodd"
        d="M19.0429 6.04289C20.1238 4.96201 21.8762 4.962 22.9571 6.04285C24.0381 7.12374 24.0381 8.87625 22.9571 9.95715L16.5003 16.4139C16.4929 16.4213 16.4854 16.4289 16.4776 16.4366C16.3925 16.5221 16.2852 16.6297 16.1597 16.7219C16.0506 16.802 15.9336 16.8708 15.8106 16.9272C15.6691 16.9922 15.5229 17.0337 15.4069 17.0667C15.3964 17.0696 15.3861 17.0726 15.3761 17.0754L12.2747 17.9615C11.9255 18.0613 11.5497 17.9639 11.2929 17.7071C11.0361 17.4503 10.9387 17.0745 11.0385 16.7253L11.9246 13.6239C11.9274 13.6139 11.9304 13.6036 11.9333 13.5931C11.9663 13.4771 12.0078 13.3309 12.0728 13.1894C12.1292 13.0664 12.198 12.9494 12.2781 12.8403C12.3703 12.7148 12.4779 12.6075 12.5634 12.5224C12.5711 12.5146 12.5787 12.5071 12.5861 12.4997L19.0429 6.04289ZM21.5429 7.45709C21.2431 7.15726 20.757 7.15726 20.4571 7.4571L14.0003 13.9139C13.9417 13.9725 13.913 14.0014 13.8927 14.0229L13.8913 14.0244L13.8906 14.0264C13.8817 14.0546 13.8704 14.0937 13.8476 14.1734L13.456 15.544L14.8266 15.1524C14.9063 15.1296 14.9454 15.1183 14.9736 15.1094L14.9756 15.1087L14.9771 15.1073C14.9986 15.087 15.0275 15.0583 15.0861 14.9997L21.5429 8.54293C21.8428 8.24308 21.8428 7.75693 21.5429 7.45709Z"
        fill="#303233" />
</svg>
