<svg width="16" height="16" viewBox="0 0 16 16" fill="none" xmlns="http://www.w3.org/2000/svg">
    <path fill-rule="evenodd" clip-rule="evenodd"
        d="M8 1C4.13401 1 1 4.13401 1 8C1 11.866 4.13401 15 8 15C11.866 15 15 11.866 15 8C15 4.13401 11.866 1 8 1ZM8.5 4C8.5 3.72386 8.27614 3.5 8 3.5C7.72386 3.5 7.5 3.72386 7.5 4V8C7.5 8.18939 7.607 8.36252 7.77639 8.44721L10.4431 9.78055C10.69 9.90404 10.9904 9.80393 11.1139 9.55694C11.2374 9.30995 11.1373 9.00961 10.8903 8.88612L8.5 7.69098V4Z"
        fill="#303233" />
</svg>
