<svg width="24" height="24" viewBox="0 0 24 24" fill="none" xmlns="http://www.w3.org/2000/svg">
    <path fill-rule="evenodd" clip-rule="evenodd"
        d="M21.8453 5.11394C21.4983 4.6928 20.9747 4.45765 20.4293 4.47806C20.0084 4.49382 19.6555 4.71463 19.3808 4.91787C19.0975 5.12745 18.7598 5.42765 18.3604 5.7827L13.3208 10.2623C13.1062 10.453 12.9112 10.6264 12.7618 10.7838C12.6024 10.9519 12.442 11.1549 12.3488 11.4203C12.2171 11.7955 12.2171 12.2045 12.3488 12.5797C12.442 12.8451 12.6024 13.0481 12.7618 13.2162C12.9112 13.3736 13.1062 13.547 13.3208 13.7377L18.3604 18.2173C18.7598 18.5723 19.0975 18.8725 19.3808 19.0821C19.6555 19.2854 20.0084 19.5062 20.4293 19.5219C20.9747 19.5423 21.4983 19.3072 21.8453 18.8861C22.1132 18.561 22.1826 18.1505 22.2133 17.8102C22.2448 17.4592 22.2448 17.0073 22.2448 16.4729V7.52707C22.2448 6.99266 22.2448 6.54083 22.2133 6.18983C22.1826 5.84946 22.1132 5.43899 21.8453 5.11394ZM10.8453 5.11394C10.4983 4.6928 9.97467 4.45765 9.42935 4.47806C9.00845 4.49382 8.65553 4.71463 8.38079 4.91787C8.09747 5.12745 7.75977 5.42765 7.36036 5.7827L2.32083 10.2623C2.10624 10.453 1.91117 10.6264 1.76185 10.7838C1.60237 10.9519 1.44198 11.1549 1.34882 11.4203C1.21706 11.7955 1.21706 12.2045 1.34882 12.5797C1.44198 12.8451 1.60237 13.0481 1.76185 13.2162C1.91118 13.3736 2.10625 13.547 2.32084 13.7377L7.36036 18.2173C7.75977 18.5723 8.09747 18.8725 8.38079 19.0821C8.65553 19.2854 9.00845 19.5062 9.42935 19.5219C9.97467 19.5423 10.4983 19.3072 10.8453 18.8861C11.1132 18.561 11.1826 18.1505 11.2133 17.8102C11.2448 17.4592 11.2448 17.0073 11.2448 16.4729V7.52709C11.2448 6.99267 11.2448 6.54083 11.2133 6.18983C11.1826 5.84946 11.1132 5.43899 10.8453 5.11394Z"
        fill="#303233" />
</svg>
