<svg width="16" height="16" viewBox="0 0 16 16" fill="none" xmlns="http://www.w3.org/2000/svg">
    <path fill-rule="evenodd" clip-rule="evenodd"
        d="M3.3545 1.89967C2.72717 1.49396 1.91602 1.9525 1.91602 2.68388V5.31609C1.91602 6.04748 2.72717 6.50601 3.3545 6.1003L5.3895 4.7842C5.95819 4.41641 5.95819 3.58356 5.3895 3.21577L3.3545 1.89967Z"
        fill="#303233" />
    <path
        d="M12.75 3.25H7.75C7.33579 3.25 7 3.58579 7 4C7 4.41421 7.33579 4.75 7.75 4.75H12.75C13.1642 4.75 13.5 4.41421 13.5 4C13.5 3.58579 13.1642 3.25 12.75 3.25Z"
        fill="#303233" />
    <path
        d="M2.75 7.25C2.33579 7.25 2 7.58579 2 8C2 8.41421 2.33579 8.75 2.75 8.75H12.75C13.1642 8.75 13.5 8.41421 13.5 8C13.5 7.58579 13.1642 7.25 12.75 7.25H2.75Z"
        fill="#303233" />
    <path
        d="M2 12C2 11.5858 2.33579 11.25 2.75 11.25H12.75C13.1642 11.25 13.5 11.5858 13.5 12C13.5 12.4142 13.1642 12.75 12.75 12.75H2.75C2.33579 12.75 2 12.4142 2 12Z"
        fill="#303233" />
</svg>
