<svg width="24" height="24" viewBox="0 0 24 24" fill="none" xmlns="http://www.w3.org/2000/svg">
    <path
        d="M13 3C13 2.44772 12.5523 2 12 2C11.4477 2 11 2.44772 11 3V12.5858L7.70711 9.29289C7.31658 8.90237 6.68342 8.90237 6.29289 9.29289C5.90237 9.68342 5.90237 10.3166 6.29289 10.7071L11.2922 15.7064C11.2946 15.7088 11.297 15.7112 11.2995 15.7136C11.3938 15.8063 11.502 15.8764 11.6172 15.9241C11.7343 15.9727 11.8625 15.9996 11.997 16L12 16L12.003 16C12.2769 15.9992 12.5248 15.8883 12.705 15.7092"
        fill="#303233" />
    <path
        d="M12.7076 15.7066L17.7071 10.7071C18.0976 10.3166 18.0976 9.68342 17.7071 9.29289C17.3166 8.90237 16.6834 8.90237 16.2929 9.29289L13 12.5858V3"
        fill="#303233" />
    <path
        d="M3 18C3.55228 18 4 18.4477 4 19C4 19.2652 4.10536 19.5196 4.29289 19.7071C4.48043 19.8946 4.73478 20 5 20H19C19.2652 20 19.5196 19.8946 19.7071 19.7071C19.8946 19.5196 20 19.2652 20 19C20 18.4477 20.4477 18 21 18C21.5523 18 22 18.4477 22 19C22 19.7957 21.6839 20.5587 21.1213 21.1213C20.5587 21.6839 19.7957 22 19 22H5C4.20435 22 3.44129 21.6839 2.87868 21.1213C2.31607 20.5587 2 19.7957 2 19C2 18.4477 2.44772 18 3 18Z"
        fill="#303233" />
</svg>
