<svg width="16" height="16" viewBox="0 0 16 16" fill="none" xmlns="http://www.w3.org/2000/svg">
    <path fill-rule="evenodd" clip-rule="evenodd"
        d="M6.00002 0.5C6.1574 0.5 6.30559 0.574097 6.40002 0.7L7.39927 2.03234C7.54426 2.22565 7.80675 2.28762 8.02288 2.17955L9.27641 1.55279C9.46209 1.45995 9.68581 1.4915 9.83857 1.63206C9.99134 1.77262 10.0414 1.99295 9.96426 2.1857L8.97952 4.64755C8.99304 4.76315 9 4.88076 9 5C9 6.65685 7.65685 8 6 8C4.34315 8 3 6.65685 3 5C3 4.88074 3.00696 4.7631 3.02049 4.64748L2.03578 2.1857C1.95868 1.99295 2.0087 1.77262 2.16146 1.63206C2.31423 1.4915 2.53795 1.45995 2.72363 1.55279L3.97716 2.17955C4.19329 2.28762 4.45578 2.22565 4.60077 2.03234L5.60002 0.7C5.69445 0.574097 5.84264 0.5 6.00002 0.5ZM6 7C4.89543 7 4 6.10457 4 5H8C8 6.10457 7.10457 7 6 7Z"
        fill="#303233" />
    <path
        d="M1.58971 13.5995C2.00661 11.5457 3.82321 10 5.99969 10C8.17617 10 9.99276 11.5457 10.4097 13.5995C10.4646 13.8701 10.7285 14.0449 10.9991 13.99C11.2698 13.9351 11.4446 13.6712 11.3897 13.4005C10.88 10.8899 8.66112 9 5.99969 9C3.33825 9 1.11934 10.8899 0.609701 13.4005C0.554767 13.6712 0.729618 13.9351 1.00024 13.99C1.27086 14.0449 1.53478 13.8701 1.58971 13.5995Z"
        fill="#303233" />
    <path
        d="M10.5 7C10.2239 7 10 7.22386 10 7.5C10 7.77614 10.2239 8 10.5 8H14.5C14.7761 8 15 7.77614 15 7.5C15 7.22386 14.7761 7 14.5 7H10.5Z"
        fill="#303233" />
</svg>
