<svg width="16" height="16" viewBox="0 0 16 16" fill="none" xmlns="http://www.w3.org/2000/svg">
    <path fill-rule="evenodd" clip-rule="evenodd"
        d="M2.75 5C2.75 3.20507 4.20507 1.75 6 1.75C7.79493 1.75 9.25 3.20507 9.25 5C9.25 6.79493 7.79493 8.25 6 8.25C4.20507 8.25 2.75 6.79493 2.75 5ZM6 3.25C5.0335 3.25 4.25 4.0335 4.25 5C4.25 5.9665 5.0335 6.75 6 6.75C6.9665 6.75 7.75 5.9665 7.75 5C7.75 4.0335 6.9665 3.25 6 3.25Z"
        fill="#303233" />
    <path
        d="M5.99974 10.25C3.9445 10.25 2.22848 11.7096 1.83477 13.6492C1.75237 14.0551 1.35649 14.3174 0.950557 14.235C0.544622 14.1526 0.282346 13.7567 0.364746 13.3508C0.897571 10.7259 3.21706 8.75 5.99974 8.75C8.78241 8.75 11.1019 10.7259 11.6347 13.3508C11.7171 13.7567 11.4549 14.1526 11.0489 14.235C10.643 14.3174 10.2471 14.0551 10.1647 13.6492C9.77099 11.7096 8.05498 10.25 5.99974 10.25Z"
        fill="#303233" />
    <path
        d="M15.0303 6.53033C15.3232 6.23744 15.3232 5.76256 15.0303 5.46967C14.7374 5.17678 14.2626 5.17678 13.9697 5.46967L12 7.43934L11.0303 6.46967C10.7374 6.17677 10.2626 6.17677 9.96967 6.46967C9.67678 6.76256 9.67678 7.23743 9.96967 7.53033L11.4697 9.03033C11.6103 9.17098 11.8011 9.25 12 9.25C12.1989 9.25 12.3897 9.17098 12.5303 9.03033L15.0303 6.53033Z"
        fill="#303233" />
</svg>
