<svg width="16" height="16" viewBox="0 0 16 16" fill="none" xmlns="http://www.w3.org/2000/svg">
    <path
        d="M8.35355 3.14645C8.15829 2.95118 7.84171 2.95118 7.64645 3.14645C7.45118 3.34171 7.45118 3.65829 7.64645 3.85355L11.2929 7.5H3.5C3.22386 7.5 3 7.72386 3 8C3 8.27614 3.22386 8.5 3.5 8.5H11.2929L7.64645 12.1464C7.45118 12.3417 7.45118 12.6583 7.64645 12.8536C7.84171 13.0488 8.15829 13.0488 8.35355 12.8536L12.8509 8.35622C12.9429 8.26554 13 8.13943 13 8C13 7.99999 13 8.00001 13 8C13 7.88372 12.9595 7.77159 12.8863 7.68253"
        fill="#303233" />
</svg>
