<svg width="16" height="16" viewBox="0 0 16 16" fill="none" xmlns="http://www.w3.org/2000/svg">
    <path
        d="M8.53066 3.46967C8.39 3.32902 8.19924 3.25 8.00033 3.25C7.80141 3.25 7.61065 3.32902 7.47 3.46967L4.13666 6.803C3.84377 7.0959 3.84377 7.57077 4.13666 7.86366C4.42956 8.15656 4.90443 8.15656 5.19732 7.86366L8.00033 5.06066L10.8033 7.86366C11.0962 8.15656 11.5711 8.15656 11.864 7.86366C12.1569 7.57077 12.1569 7.0959 11.864 6.803L8.53066 3.46967Z"
        fill="#303233" />
    <path
        d="M11.864 11.4697L8.53066 8.13634C8.23776 7.84345 7.76289 7.84345 7.47 8.13634L4.13666 11.4697C3.84377 11.7626 3.84377 12.2374 4.13666 12.5303C4.42956 12.8232 4.90443 12.8232 5.19732 12.5303L8.00033 9.72733L10.8033 12.5303C11.0962 12.8232 11.5711 12.8232 11.864 12.5303C12.1569 12.2374 12.1569 11.7626 11.864 11.4697Z"
        fill="#303233" />
</svg>
