<svg width="24" height="24" viewBox="0 0 24 24" fill="none" xmlns="http://www.w3.org/2000/svg">
    <path fill-rule="evenodd" clip-rule="evenodd"
        d="M19 3.17157C18.7599 3.17157 18.5222 3.21887 18.3003 3.31075C18.0785 3.40264 17.8769 3.53732 17.7071 3.70711L4.39491 17.0193L3.42524 20.5748L6.9807 19.6051L20.2929 6.29289C20.4627 6.12311 20.5974 5.92154 20.6893 5.69971C20.7812 5.47788 20.8284 5.24012 20.8284 5C20.8284 4.75989 20.7812 4.52212 20.6893 4.30029C20.5974 4.07846 20.4627 3.87689 20.2929 3.70711C20.1231 3.53732 19.9216 3.40264 19.6997 3.31075C19.4779 3.21887 19.2401 3.17157 19 3.17157ZM17.5349 1.463C17.9994 1.2706 18.4973 1.17157 19 1.17157C19.5028 1.17157 20.0006 1.2706 20.4651 1.463C20.9296 1.65539 21.3516 1.93739 21.7071 2.29289C22.0626 2.6484 22.3446 3.07044 22.537 3.53492C22.7294 3.99941 22.8284 4.49725 22.8284 5C22.8284 5.50275 22.7294 6.00059 22.537 6.46508C22.3446 6.92956 22.0626 7.35161 21.7071 7.70711L8.20713 21.2071C8.08407 21.3302 7.93104 21.419 7.76314 21.4648L2.26314 22.9648C1.91693 23.0592 1.54667 22.9609 1.29292 22.7071C1.03917 22.4534 0.940838 22.0831 1.03526 21.7369L2.53526 16.2369C2.58105 16.069 2.66986 15.9159 2.79292 15.7929L16.2929 2.29289C16.6484 1.93739 17.0705 1.65539 17.5349 1.463Z"
        fill="#303233" />
</svg>
