<svg width="16" height="16" viewBox="0 0 16 16" fill="none" xmlns="http://www.w3.org/2000/svg">
    <path fill-rule="evenodd" clip-rule="evenodd"
        d="M2.75 4.75C2.75 3.64543 3.64543 2.75 4.75 2.75C5.85457 2.75 6.75 3.64543 6.75 4.75C6.75 5.85457 5.85457 6.75 4.75 6.75C3.64543 6.75 2.75 5.85457 2.75 4.75ZM4.75 4.25C4.47386 4.25 4.25 4.47386 4.25 4.75C4.25 5.02614 4.47386 5.25 4.75 5.25C5.02614 5.25 5.25 5.02614 5.25 4.75C5.25 4.47386 5.02614 4.25 4.75 4.25Z"
        fill="#303233" />
    <path
        d="M13.0303 2.96967C13.3232 3.26256 13.3232 3.73744 13.0303 4.03033L4.03033 13.0303C3.73744 13.3232 3.26256 13.3232 2.96967 13.0303C2.67678 12.7374 2.67678 12.2626 2.96967 11.9697L11.9697 2.96967C12.2626 2.67678 12.7374 2.67678 13.0303 2.96967Z"
        fill="#303233" />
    <path fill-rule="evenodd" clip-rule="evenodd"
        d="M11.25 9.25C10.1454 9.25 9.25 10.1454 9.25 11.25C9.25 12.3546 10.1454 13.25 11.25 13.25C12.3546 13.25 13.25 12.3546 13.25 11.25C13.25 10.1454 12.3546 9.25 11.25 9.25ZM10.75 11.25C10.75 10.9739 10.9739 10.75 11.25 10.75C11.5261 10.75 11.75 10.9739 11.75 11.25C11.75 11.5261 11.5261 11.75 11.25 11.75C10.9739 11.75 10.75 11.5261 10.75 11.25Z"
        fill="#303233" />
</svg>
