<svg width="16" height="16" viewBox="0 0 16 16" fill="none" xmlns="http://www.w3.org/2000/svg">
    <path
        d="M8.53033 4.28033C8.82322 3.98744 8.82322 3.51257 8.53033 3.21967C8.23744 2.92678 7.76257 2.92678 7.46967 3.21967L3.21967 7.46965C3.20507 7.48425 3.19114 7.49938 3.17789 7.51501C3.06693 7.64577 3.00001 7.81506 3 7.99998C3 7.99997 3 7.99999 3 7.99998C3 8.2088 3.08534 8.39771 3.22305 8.53369L7.46967 12.7803C7.76257 13.0732 8.23744 13.0732 8.53033 12.7803C8.82322 12.4874 8.82322 12.0125 8.53033 11.7196L5.56069 8.75H12.25C12.6642 8.75 13 8.41421 13 8C13 7.58579 12.6642 7.25 12.25 7.25H5.56065L8.53033 4.28033Z"
        fill="#303233" />
</svg>
