<svg width="16" height="16" viewBox="0 0 16 16" fill="none" xmlns="http://www.w3.org/2000/svg">
    <g clip-path="url(#clip0_53_4625)">
        <path fill-rule="evenodd" clip-rule="evenodd"
            d="M2.14347 5.57408C1.56614 4.61337 1.69166 3.3483 2.52003 2.51992C3.34839 1.69157 4.61341 1.56604 5.57412 2.14332C5.84522 1.05577 6.82851 0.25 8 0.25C9.1715 0.25 10.1548 1.05579 10.4259 2.14337C11.3866 1.56602 12.6517 1.69153 13.4801 2.51991C14.3085 3.3483 14.434 4.61338 13.8566 5.5741C14.9442 5.84518 15.75 6.82849 15.75 8C15.75 9.17154 14.9442 10.1549 13.8565 10.4259C14.4339 11.3866 14.3084 12.6518 13.48 13.4802C12.6517 14.3085 11.3866 14.4341 10.4259 13.8567C10.1547 14.9443 9.17147 15.75 8 15.75C6.82847 15.75 5.84515 14.9442 5.57409 13.8566C4.61336 14.434 3.34823 14.3085 2.51983 13.4801C1.69145 12.6517 1.56593 11.3866 2.14329 10.4259C1.05576 10.1548 0.25 9.17148 0.25 8C0.25 6.82846 1.05585 5.84513 2.14347 5.57408ZM5.5 3.37857L5.34846 3.22703C4.76267 2.64125 3.81293 2.64125 3.22714 3.22703C2.64135 3.81282 2.64135 4.76257 3.22714 5.34835L3.37879 5.5H4.75C5.07785 5.5 5.39095 5.56311 5.67784 5.67784C5.56311 5.39095 5.5 5.07785 5.5 4.75V3.37857ZM6.5 4.37857V4.75C6.5 5.27239 6.76704 5.73241 7.17206 6.001C7.26851 5.5247 7.13205 5.01062 6.76267 4.64124L6.5 4.37857ZM8.00005 4.71583C7.87832 4.4319 7.70157 4.16592 7.46978 3.93414L6.5 2.96436V2.75C6.5 1.92157 7.17157 1.25 8 1.25C8.82843 1.25 9.5 1.92157 9.5 2.75V2.96445L8.53033 3.93413C8.29854 4.16591 8.12178 4.43189 8.00005 4.71583ZM7.22985 7.68107C7.31316 7.61659 7.39333 7.54612 7.46978 7.46967C7.5462 7.39325 7.61664 7.31312 7.68109 7.22985C7.78552 7.24315 7.89196 7.25 8 7.25C8.10808 7.25 8.21455 7.24314 8.31902 7.22984C8.38347 7.31311 8.45391 7.39324 8.53033 7.46966C8.60675 7.54608 8.68689 7.61652 8.77016 7.68098C8.75686 7.78544 8.75 7.89192 8.75 8C8.75 8.1081 8.75686 8.21459 8.77017 8.31907C8.68688 8.38354 8.60672 8.45399 8.53029 8.53042C8.45389 8.60682 8.38348 8.68692 8.31904 8.77017C8.21457 8.75686 8.10809 8.75 8 8.75C7.8919 8.75 7.7854 8.75686 7.68091 8.77017C7.61645 8.68689 7.54601 8.60675 7.46958 8.53032C7.39318 8.45392 7.31307 8.38351 7.22983 8.31907C7.24314 8.21459 7.25 8.10809 7.25 8C7.25 7.89195 7.24314 7.7855 7.22985 7.68107ZM4.71596 7.99995C4.43194 8.12168 4.16589 8.29847 3.93404 8.53032L2.96436 9.5H2.75C1.92157 9.5 1.25 8.82843 1.25 8C1.25 7.17157 1.92157 6.5 2.75 6.5H2.96458L3.93425 7.46967C4.16604 7.70146 4.43202 7.87822 4.71596 7.99995ZM6.00095 7.17198C5.5247 7.26837 5.01069 7.1319 4.64136 6.76257L4.37879 6.5H4.75C5.27236 6.5 5.73235 6.76701 6.00095 7.17198ZM10.6516 12.7731L10.5 12.6215V11.25C10.5 10.9222 10.4369 10.609 10.3222 10.3222C10.609 10.4369 10.9222 10.5 11.25 10.5H12.6212L12.7729 10.6517C13.3587 11.2375 13.3587 12.1873 12.7729 12.7731C12.1871 13.3588 11.2374 13.3588 10.6516 12.7731ZM13.25 9.5H13.0354L12.0658 8.53042C11.834 8.29857 11.5679 8.12178 11.2839 8.00005C11.5679 7.87832 11.834 7.70152 12.0659 7.46966L13.0355 6.5H13.25C14.0784 6.5 14.75 7.17157 14.75 8C14.75 8.82843 14.0784 9.5 13.25 9.5ZM11.3587 9.23753C10.9894 8.8682 10.4754 8.73172 9.99911 8.82811C10.2677 9.23304 10.7277 9.5 11.25 9.5H11.6212L11.3587 9.23753ZM9.5 11.25C9.5 10.7276 9.233 10.2677 8.82802 9.99905C8.73156 10.4754 8.86801 10.9895 9.2374 11.3588L9.5 11.6215V11.25ZM8.53029 12.066C8.29843 11.8341 8.12164 11.568 7.99991 11.284C7.87818 11.568 7.7014 11.834 7.46958 12.0659L6.5 13.0354V13.25C6.5 14.0784 7.17157 14.75 8 14.75C8.82843 14.75 9.5 14.0784 9.5 13.25V13.0357L8.53029 12.066ZM8.82804 6.00094C8.73161 5.52465 8.86808 5.01059 9.23744 4.64123L9.5 4.37867V4.75C9.5 5.27235 9.233 5.73234 8.82804 6.00094ZM11.6213 6.5L11.3588 6.76255C10.9894 7.13191 10.4753 7.26837 9.99907 7.17195C10.2677 6.76699 10.7277 6.5 11.25 6.5H11.6213ZM12.6213 5.5H11.25C10.9222 5.5 10.609 5.56311 10.3222 5.67784C10.4369 5.39096 10.5 5.07785 10.5 4.75V3.37867L10.6516 3.22702C11.2374 2.64123 12.1872 2.64123 12.773 3.22702C13.3588 3.81281 13.3588 4.76255 12.773 5.34834L12.6213 5.5ZM3.22694 10.6516L3.37858 10.5H4.75C5.07785 10.5 5.39095 10.4369 5.67784 10.3222C5.56311 10.609 5.5 10.9222 5.5 11.25V12.6212L5.34826 12.773C4.76247 13.3587 3.81272 13.3587 3.22694 12.773C2.64115 12.1872 2.64115 11.2374 3.22694 10.6516ZM6.76247 11.3587C7.13181 10.9894 7.26828 10.4754 7.17188 9.99912C6.76696 10.2677 6.5 10.7277 6.5 11.25V11.6212L6.76247 11.3587ZM4.75 9.5C5.27235 9.5 5.73233 9.23301 6.00093 8.82805C5.52463 8.73159 5.01053 8.86805 4.64115 9.23743L4.37858 9.5H4.75Z"
            fill="#303233" />
    </g>
    <defs>
        <clipPath id="clip0_53_4625">
            <rect width="16" height="16" fill="white" />
        </clipPath>
    </defs>
</svg>
