<svg width="24" height="24" viewBox="0 0 24 24" fill="none" xmlns="http://www.w3.org/2000/svg">
    <path fill-rule="evenodd" clip-rule="evenodd"
        d="M22.0383 4.95495C21.6417 4.47365 21.0432 4.20491 20.42 4.22824C19.9186 4.24701 19.5131 4.50902 19.2321 4.71688C18.9396 4.93328 18.5945 5.24001 18.2011 5.58973C18.19 5.59968 18.1787 5.60966 18.1675 5.61968L13.1501 10.0795C12.9397 10.2666 12.7374 10.4464 12.5805 10.6117C12.4102 10.7912 12.2229 11.0244 12.1129 11.3374C11.9624 11.7663 11.9624 12.2337 12.1129 12.6626C12.2229 12.9756 12.4102 13.2087 12.5805 13.3883C12.7374 13.5536 12.9397 13.7335 13.1501 13.9205L18.2011 18.4102C18.5945 18.76 18.9396 19.0667 19.2321 19.2831C19.5131 19.491 19.9186 19.753 20.42 19.7718C21.0432 19.7951 21.6417 19.5263 22.0383 19.045C22.3574 18.6578 22.4309 18.1807 22.4622 17.8326C22.4949 17.4702 22.4948 17.0085 22.4948 16.4821L22.4948 7.56295C22.4948 7.54787 22.4948 7.53284 22.4948 7.51787C22.4948 6.9915 22.4949 6.52984 22.4622 6.16743C22.4309 5.81932 22.3574 5.34219 22.0383 4.95495ZM11.0383 4.95495C10.6417 4.47365 10.0432 4.20491 9.42 4.22824C8.91858 4.24701 8.5131 4.50902 8.23211 4.71688C7.93957 4.93329 7.59453 5.24002 7.20112 5.58976L2.15009 10.0796C1.93966 10.2666 1.73734 10.4464 1.58047 10.6117C1.41018 10.7912 1.22286 11.0244 1.11294 11.3374C0.962354 11.7663 0.962354 12.2337 1.11294 12.6626C1.22286 12.9756 1.41018 13.2087 1.58047 13.3883C1.73735 13.5536 1.93967 13.7334 2.15011 13.9205L7.20115 18.4103C7.59455 18.76 7.93958 19.0667 8.23211 19.2831C8.5131 19.491 8.91858 19.753 9.42 19.7718C10.0432 19.7951 10.6417 19.5263 11.0383 19.045C11.3574 18.6578 11.4309 18.1807 11.4622 17.8326C11.4949 17.4702 11.4948 17.0085 11.4948 16.4821V7.51786C11.4948 6.99149 11.4949 6.52984 11.4622 6.16743C11.4309 5.81932 11.3574 5.34219 11.0383 4.95495Z"
        fill="#303233" />
</svg>
