<svg width="24" height="24" viewBox="0 0 24 24" fill="none" xmlns="http://www.w3.org/2000/svg">
    <g clip-path="url(#clip0_7346_11)">
        <path
            d="M11.1537 11.0353C11.7041 10.9892 12.1129 10.5057 12.0668 9.95534C12.0208 9.40498 11.5373 8.99616 10.9869 9.04222C8.34521 9.26329 5.94677 10.3402 4.07093 11.9926C3.65651 12.3577 3.6165 12.9896 3.98157 13.404C4.34664 13.8184 4.97854 13.8584 5.39296 13.4933C6.95769 12.115 8.95451 11.2193 11.1537 11.0353Z"
            fill="#303233" />
        <path
            d="M11.9999 16C10.8186 16 9.73541 16.4084 8.87994 17.0926C8.44862 17.4375 7.81934 17.3675 7.47441 16.9361C7.12947 16.5048 7.1995 15.8755 7.63082 15.5306C8.82806 14.5732 10.3484 14 11.9999 14C13.6267 14 15.1264 14.5562 16.3153 15.4881C16.7499 15.8288 16.8261 16.4574 16.4854 16.892C16.1447 17.3267 15.5161 17.4028 15.0814 17.0621C14.2321 16.3964 13.1637 16 11.9999 16Z"
            fill="#303233" />
        <path
            d="M12 19C11.4477 19 11 19.4477 11 20C11 20.5523 11.4477 21 12 21H12.01C12.5623 21 13.01 20.5523 13.01 20C13.01 19.4477 12.5623 19 12.01 19H12Z"
            fill="#303233" />
        <path fill-rule="evenodd" clip-rule="evenodd"
            d="M0.519715 8.46349C3.54375 5.69237 7.5763 4 12.0019 4C12.72 4 13.4281 4.04458 14.1236 4.13123C14.6717 4.19951 15.0606 4.69914 14.9923 5.24719C14.9241 5.79523 14.4244 6.18416 13.8764 6.11589C13.2627 6.03943 12.6371 6 12.0019 6C8.09589 6 4.54062 7.49161 1.87092 9.93802C1.46374 10.3112 0.831179 10.2835 0.458053 9.87636C0.0849278 9.46918 0.112535 8.83662 0.519715 8.46349Z"
            fill="#303233" />
        <path fill-rule="evenodd" clip-rule="evenodd"
            d="M19 4C19.4226 4 19.7996 4.26567 19.9417 4.66366L20.6757 6.71886C20.7766 7.00121 20.9988 7.22342 21.2812 7.32426L23.3363 8.05826C23.7343 8.2004 24 8.57739 24 9C24 9.42261 23.7343 9.7996 23.3363 9.94174L21.2812 10.6757C20.9988 10.7766 20.7766 10.9988 20.6757 11.2811L19.9417 13.3363C19.7996 13.7343 19.4226 14 19 14C18.5774 14 18.2004 13.7343 18.0583 13.3363L17.3243 11.2811C17.2234 10.9988 17.0012 10.7766 16.7189 10.6757L14.6637 9.94174C14.2657 9.7996 14 9.42261 14 9C14 8.57739 14.2657 8.2004 14.6637 8.05826L16.7189 7.32426C17.0012 7.22342 17.2234 7.00121 17.3243 6.71886L18.0583 4.66366C18.2004 4.26567 18.5774 4 19 4Z"
            fill="#303233" />
    </g>
    <defs>
        <clipPath id="clip0_7346_11">
            <rect width="24" height="24" fill="white" />
        </clipPath>
    </defs>
</svg>
