<svg width="16" height="16" viewBox="0 0 16 16" fill="none" xmlns="http://www.w3.org/2000/svg">
    <path
        d="M3.25 9C3.25 8.58579 3.58579 8.25 4 8.25H9C9.41421 8.25 9.75 8.58579 9.75 9C9.75 9.41421 9.41421 9.75 9 9.75H4C3.58579 9.75 3.25 9.41421 3.25 9Z"
        fill="#303233" />
    <path
        d="M11 8.25C10.5858 8.25 10.25 8.58579 10.25 9C10.25 9.41421 10.5858 9.75 11 9.75H12C12.4142 9.75 12.75 9.41421 12.75 9C12.75 8.58579 12.4142 8.25 12 8.25H11Z"
        fill="#303233" />
    <path fill-rule="evenodd" clip-rule="evenodd"
        d="M2.36364 2.25C1.19045 2.25 0.25 3.20728 0.25 4.375V11.625C0.25 12.7927 1.19045 13.75 2.36364 13.75H13.6364C14.8095 13.75 15.75 12.7927 15.75 11.625V4.375C15.75 3.20728 14.8095 2.25 13.6364 2.25H2.36364ZM1.75 4.375C1.75 4.02394 2.03059 3.75 2.36364 3.75H13.6364C13.9694 3.75 14.25 4.02394 14.25 4.375V5.75H1.75V4.375ZM1.75 7.25V11.625C1.75 11.9761 2.03059 12.25 2.36364 12.25H13.6364C13.9694 12.25 14.25 11.9761 14.25 11.625V7.25H1.75Z"
        fill="#303233" />
</svg>
