<svg width="24" height="24" viewBox="0 0 24 24" fill="none" xmlns="http://www.w3.org/2000/svg">
    <path
        d="M7.7679 2.25H16.2321C17.0449 2.24999 17.7006 2.24999 18.2315 2.29336C18.7781 2.33803 19.2582 2.43239 19.7025 2.65873C20.4081 3.01825 20.9817 3.59193 21.3413 4.29754C21.5676 4.74175 21.662 5.2219 21.7066 5.76853C21.75 6.29944 21.75 6.95505 21.75 7.76788V16.2321C21.75 17.045 21.75 17.7006 21.7066 18.2315C21.662 18.7781 21.5676 19.2582 21.3413 19.7025C20.9817 20.4081 20.4081 20.9817 19.7025 21.3413C19.2582 21.5676 18.7781 21.662 18.2315 21.7066C17.7006 21.75 17.045 21.75 16.2321 21.75H7.76788C6.95505 21.75 6.29944 21.75 5.76853 21.7066C5.2219 21.662 4.74175 21.5676 4.29754 21.3413C3.59193 20.9817 3.01825 20.4081 2.65873 19.7025C2.43239 19.2582 2.33803 18.7781 2.29336 18.2315C2.24999 17.7006 2.24999 17.0449 2.25 16.2321V7.7679C2.24999 6.95506 2.24999 6.29944 2.29336 5.76853C2.33803 5.2219 2.43239 4.74175 2.65873 4.29754C3.01825 3.59193 3.59193 3.01825 4.29754 2.65873C4.74175 2.43239 5.2219 2.33803 5.76853 2.29336C6.29944 2.24999 6.95506 2.24999 7.7679 2.25Z"
        fill="#303233" />
</svg>
