<svg width="16" height="16" viewBox="0 0 16 16" fill="none" xmlns="http://www.w3.org/2000/svg">
    <g clip-path="url(#clip0_8974_53)">
        <path
            d="M13.5004 7.25C13.9144 7.25026 14.2504 7.58594 14.2504 8C14.2507 9.59989 13.6401 11.2002 12.4194 12.4209C12.0511 12.7892 11.727 13.0999 11.4428 13.3623H12.8891C13.3032 13.3624 13.6391 13.6982 13.6391 14.1123C13.6391 14.5264 13.3032 14.8622 12.8891 14.8623H9.22213C9.02324 14.8623 8.83249 14.7832 8.69185 14.6426C8.55122 14.5019 8.47214 14.3112 8.47213 14.1123V10.4453C8.47226 10.0312 8.80803 9.69535 9.22213 9.69531C9.63625 9.69531 9.97199 10.0312 9.97213 10.4453V12.667C10.3217 12.3638 10.7763 11.9429 11.3588 11.3604C12.2866 10.4326 12.7507 9.21601 12.7504 8C12.7504 7.58579 13.0862 7.25 13.5004 7.25Z"
            fill="#303233" />
        <path
            d="M6.77779 1.13965C7.19183 1.13967 7.52753 1.47567 7.52779 1.88965V5.55664C7.52779 5.97084 7.19199 6.30662 6.77779 6.30664C6.36358 6.30664 6.02779 5.97085 6.02779 5.55664V3.33594C5.6782 3.63912 5.22366 4.05999 4.64107 4.64258C2.7862 6.49758 2.78612 9.5054 4.64107 11.3604C5.29909 12.0183 6.10045 12.4415 6.94381 12.6328C7.34768 12.7245 7.60079 13.1264 7.50923 13.5303C7.41758 13.9342 7.01572 14.1874 6.61177 14.0957C5.50056 13.8436 4.44445 13.2848 3.58052 12.4209C1.13979 9.98016 1.13986 6.02282 3.58052 3.58203C3.94895 3.21361 4.27281 2.90212 4.55709 2.63965H3.1108C2.6967 2.63949 2.36078 2.30377 2.3608 1.88965C2.361 1.4757 2.69684 1.1398 3.1108 1.13965H6.77779Z"
            fill="#303233" />
        <path fill-rule="evenodd" clip-rule="evenodd"
            d="M13.0004 0C14.6571 0.000255096 16.0004 1.3433 16.0004 3C16.0004 4.6567 14.6571 5.99974 13.0004 6C11.3436 6 10.0004 4.65685 10.0004 3C10.0004 1.34315 11.3436 0 13.0004 0ZM13.0004 4C12.7243 4 12.5004 4.22386 12.5004 4.5C12.5004 4.77614 12.7243 5.00098 13.0004 5.00098C13.2764 5.00072 13.5004 4.77696 13.5004 4.50098C13.5004 4.22499 13.2764 4.00026 13.0004 4ZM13.0004 1C12.7243 1 12.5004 1.22386 12.5004 1.5V3C12.5004 3.27614 12.7243 3.5 13.0004 3.5C13.2764 3.49975 13.5004 3.27599 13.5004 3V1.5C13.5004 1.22401 13.2764 1.00025 13.0004 1Z"
            fill="#303233" />
    </g>
    <defs>
        <clipPath id="clip0_8974_53">
            <rect width="16" height="16" fill="white" />
        </clipPath>
    </defs>
</svg>
