<svg width="16" height="16" viewBox="0 0 16 16" fill="none" xmlns="http://www.w3.org/2000/svg">
    <g clip-path="url(#clip0_1474_143)">
        <path fill-rule="evenodd" clip-rule="evenodd"
            d="M12.1289 0.750001C12.5243 0.749988 12.8653 0.749977 13.1463 0.772929C13.4428 0.797155 13.7377 0.850642 14.0215 0.995237C14.4448 1.21095 14.789 1.55516 15.0048 1.97852C15.1494 2.26231 15.2028 2.55722 15.2271 2.85373C15.25 3.13466 15.25 3.47573 15.25 3.87109L15.25 6.5C15.25 6.91422 14.9142 7.25 14.5 7.25C14.0858 7.25 13.75 6.91422 13.75 6.5V3.9C13.75 3.46759 13.7494 3.18838 13.7321 2.97588C13.7154 2.77213 13.6872 2.69659 13.6683 2.65951C13.5963 2.51839 13.4816 2.40365 13.3405 2.33175C13.3034 2.31285 13.2279 2.28459 13.0241 2.26795C12.8116 2.25059 12.5324 2.25 12.1 2.25H3.9C3.46759 2.25 3.18838 2.25059 2.97588 2.26795C2.77213 2.28459 2.69659 2.31285 2.65951 2.33175C2.51839 2.40365 2.40365 2.51839 2.33175 2.65951C2.31285 2.69659 2.28459 2.77213 2.26795 2.97588C2.25058 3.18838 2.25 3.46759 2.25 3.9V12.1C2.25 12.5324 2.25058 12.8116 2.26795 13.0241C2.28459 13.2279 2.31285 13.3034 2.33175 13.3405C2.40365 13.4816 2.51839 13.5964 2.65951 13.6683C2.69659 13.6872 2.77213 13.7154 2.97588 13.7321C3.18838 13.7494 3.46759 13.75 3.9 13.75H6.5C6.91421 13.75 7.25 14.0858 7.25 14.5C7.25 14.9142 6.91421 15.25 6.5 15.25H3.87108C3.47572 15.25 3.13466 15.25 2.85373 15.2271C2.55722 15.2028 2.26231 15.1494 1.97852 15.0048C1.55516 14.7891 1.21095 14.4448 0.995237 14.0215C0.850642 13.7377 0.797154 13.4428 0.772929 13.1463C0.749976 12.8653 0.749987 12.5243 0.750001 12.1289V3.87108C0.749987 3.47572 0.749976 3.13466 0.772929 2.85373C0.797154 2.55722 0.850642 2.26231 0.995237 1.97852C1.21095 1.55516 1.55516 1.21095 1.97852 0.995237C2.26231 0.850642 2.55722 0.797155 2.85373 0.772929C3.13465 0.749977 3.47571 0.749988 3.87106 0.750001H12.1289ZM4 8.75C4.41421 8.75 4.75 8.41421 4.75 8L4.75 5.81066L7.46967 8.53033C7.76256 8.82322 8.23744 8.82322 8.53033 8.53033C8.82322 8.23744 8.82322 7.76256 8.53033 7.46967L5.81066 4.75H8C8.41421 4.75 8.75 4.41421 8.75 4C8.75 3.58579 8.41421 3.25 8 3.25L4 3.25C3.80109 3.25 3.61032 3.32902 3.46967 3.46967C3.32902 3.61032 3.25 3.80109 3.25 4L3.25 8C3.25 8.41421 3.58579 8.75 4 8.75ZM12.1289 8.75H11.8711C11.4757 8.74999 11.1347 8.74997 10.8537 8.77293C10.5572 8.79715 10.2623 8.85064 9.97852 8.99524C9.55516 9.21095 9.21095 9.55516 8.99524 9.97852C8.85064 10.2623 8.79715 10.5572 8.77293 10.8537C8.74997 11.1347 8.74999 11.4757 8.75 11.8711V12.1289C8.74999 12.5243 8.74997 12.8653 8.77293 13.1463C8.79715 13.4428 8.85064 13.7377 8.99524 14.0215C9.21095 14.4448 9.55516 14.7891 9.97852 15.0048C10.2623 15.1494 10.5572 15.2028 10.8537 15.2271C11.1347 15.25 11.4757 15.25 11.8711 15.25H12.1289C12.5243 15.25 12.8653 15.25 13.1463 15.2271C13.4428 15.2028 13.7377 15.1494 14.0215 15.0048C14.4448 14.7891 14.789 14.4448 15.0048 14.0215C15.1494 13.7377 15.2028 13.4428 15.2271 13.1463C15.25 12.8653 15.25 12.5243 15.25 12.1289V11.8711C15.25 11.4757 15.25 11.1347 15.2271 10.8537C15.2028 10.5572 15.1494 10.2623 15.0048 9.97852C14.789 9.55516 14.4448 9.21095 14.0215 8.99524C13.7377 8.85064 13.4428 8.79715 13.1463 8.77293C12.8653 8.74997 12.5243 8.74999 12.1289 8.75ZM13.0241 10.2679C13.2279 10.2846 13.3034 10.3129 13.3405 10.3317C13.4816 10.4037 13.5963 10.5184 13.6683 10.6595C13.6872 10.6966 13.7154 10.7721 13.7321 10.9759C13.7494 11.1884 13.75 11.4676 13.75 11.9V12.1C13.75 12.5324 13.7494 12.8116 13.7321 13.0241C13.7154 13.2279 13.6872 13.3034 13.6683 13.3405C13.5963 13.4816 13.4816 13.5964 13.3405 13.6683C13.3034 13.6872 13.2279 13.7154 13.0241 13.7321C12.8116 13.7494 12.5324 13.75 12.1 13.75H11.9C11.4676 13.75 11.1884 13.7494 10.9759 13.7321C10.7721 13.7154 10.6966 13.6872 10.6595 13.6683C10.5184 13.5964 10.4037 13.4816 10.3317 13.3405C10.3129 13.3034 10.2846 13.2279 10.2679 13.0241C10.2506 12.8116 10.25 12.5324 10.25 12.1V11.9C10.25 11.4676 10.2506 11.1884 10.2679 10.9759C10.2846 10.7721 10.3129 10.6966 10.3317 10.6595C10.4037 10.5184 10.5184 10.4037 10.6595 10.3317C10.6966 10.3129 10.7721 10.2846 10.9759 10.2679C11.1884 10.2506 11.4676 10.25 11.9 10.25H12.1C12.5324 10.25 12.8116 10.2506 13.0241 10.2679Z"
            fill="#303233" />
    </g>
    <defs>
        <clipPath id="clip0_1474_143">
            <rect width="16" height="16" fill="white" />
        </clipPath>
    </defs>
</svg>
