<svg width="24" height="24" viewBox="0 0 24 24" fill="none" xmlns="http://www.w3.org/2000/svg">
    <g clip-path="url(#clip0_53_7017)">
        <path
            d="M1.70711 0.292893C1.31658 -0.0976311 0.683417 -0.0976311 0.292893 0.292893C-0.0976311 0.683417 -0.0976311 1.31658 0.292893 1.70711L2.92775 4.34196C1.69824 5.76437 1 7.65077 1 9.48C1 11.3254 1.71464 13.0297 2.70703 14.5091C3.70022 15.9897 5.00758 17.2999 6.28889 18.3798C7.57395 19.4629 8.86027 20.3372 9.83637 20.9411C10.3251 21.2435 10.7404 21.4807 11.0442 21.6447C11.1953 21.7263 11.3238 21.7924 11.4229 21.8404C11.4711 21.8637 11.5213 21.8871 11.5681 21.9068C11.5902 21.9161 11.6241 21.9299 11.6632 21.9431C11.6823 21.9496 11.7153 21.9602 11.7551 21.9701C11.7805 21.9763 11.8763 22 12 22C12.1262 22 12.224 21.9754 12.249 21.9691L12.2501 21.9688C12.29 21.9587 12.3223 21.9481 12.3414 21.9416C12.3805 21.9281 12.4146 21.9141 12.4373 21.9045C12.4851 21.8842 12.5372 21.8598 12.588 21.8351C12.6923 21.7844 12.8282 21.7141 12.9886 21.627C13.3111 21.4519 13.7519 21.1985 14.2688 20.8757C15.1246 20.3413 16.2018 19.6088 17.3028 18.7171L22.2929 23.7071C22.6834 24.0976 23.3166 24.0976 23.7071 23.7071C24.0976 23.3166 24.0976 22.6834 23.7071 22.2929L1.70711 0.292893Z"
            fill="#303233" />
        <path
            d="M16.1111 2C14.2842 2 12.9341 2.71041 12.0002 3.51067C11.2469 2.8649 10.2198 2.27557 8.88144 2.07338C8.45428 2.00885 8.03397 2.22592 7.83932 2.61159C7.64467 2.99727 7.7197 3.46433 8.02534 3.76965L19.4133 15.1454C19.6192 15.3511 19.9045 15.4569 20.1947 15.4351C20.485 15.4134 20.7513 15.2663 20.9243 15.0322C22.1067 13.432 23 11.5439 23 9.48C23 5.97111 20.3423 2 16.1111 2Z"
            fill="#303233" />
    </g>
    <defs>
        <clipPath id="clip0_53_7017">
            <rect width="24" height="24" fill="white" />
        </clipPath>
    </defs>
</svg>
