<svg width="24" height="24" viewBox="0 0 24 24" fill="none" xmlns="http://www.w3.org/2000/svg">
    <path
        d="M2.53033 1.46967C2.23744 1.17678 1.76256 1.17678 1.46967 1.46967C1.17678 1.76256 1.17678 2.23744 1.46967 2.53033L5.41155 6.47221C3.00849 7.16148 1.25 9.37538 1.25 12C1.25 15.1756 3.82436 17.75 7 17.75H9C9.41421 17.75 9.75 17.4142 9.75 17C9.75 16.5858 9.41421 16.25 9 16.25H7C4.65279 16.25 2.75 14.3472 2.75 12C2.75 9.75372 4.49266 7.91447 6.69978 7.76044L10.1893 11.25H7C6.58579 11.25 6.25 11.5858 6.25 12C6.25 12.4142 6.58579 12.75 7 12.75H11.6893L21.4697 22.5303C21.7626 22.8232 22.2374 22.8232 22.5303 22.5303C22.8232 22.2374 22.8232 21.7626 22.5303 21.4697L2.53033 1.46967Z"
        fill="#303233" />
    <path
        d="M15 6.25C14.5858 6.25 14.25 6.58579 14.25 7C14.25 7.41421 14.5858 7.75 15 7.75H17C19.3472 7.75 21.25 9.65279 21.25 12C21.25 13.1756 20.7736 14.2386 20.0016 15.0088C19.7084 15.3013 19.7078 15.7762 20.0003 16.0695C20.2929 16.3627 20.7678 16.3633 21.061 16.0707C22.1036 15.0306 22.75 13.5901 22.75 12C22.75 8.82436 20.1756 6.25 17 6.25H15Z"
        fill="#303233" />
    <path
        d="M16.99 11.25C16.5758 11.25 16.24 11.5858 16.24 12C16.24 12.4142 16.5758 12.75 16.99 12.75H17C17.4142 12.75 17.75 12.4142 17.75 12C17.75 11.5858 17.4142 11.25 17 11.25H16.99Z"
        fill="#303233" />
</svg>
