<svg width="24" height="24" viewBox="0 0 24 24" fill="none" xmlns="http://www.w3.org/2000/svg">
    <path
        d="M8.75 12C8.75 10.2051 10.2051 8.75 12 8.75C13.7949 8.75 15.25 10.2051 15.25 12C15.25 13.7949 13.7949 15.25 12 15.25C10.2051 15.25 8.75 13.7949 8.75 12Z"
        fill="#303233" />
    <path fill-rule="evenodd" clip-rule="evenodd"
        d="M17.2321 2.25H6.7679C5.95506 2.24999 5.29944 2.24999 4.76853 2.29336C4.2219 2.33803 3.74175 2.43239 3.29754 2.65873C2.59193 3.01825 2.01825 3.59193 1.65873 4.29754C1.43239 4.74175 1.33803 5.2219 1.29336 5.76853C1.24999 6.29944 1.24999 6.95505 1.25 7.76789V16.2321C1.24999 17.0449 1.24999 17.7006 1.29336 18.2315C1.33803 18.7781 1.43239 19.2582 1.65873 19.7025C2.01825 20.4081 2.59193 20.9817 3.29754 21.3413C3.74175 21.5676 4.2219 21.662 4.76853 21.7066C5.29944 21.75 5.95505 21.75 6.76788 21.75H17.2321C18.045 21.75 18.7006 21.75 19.2315 21.7066C19.7781 21.662 20.2582 21.5676 20.7025 21.3413C21.4081 20.9817 21.9817 20.4081 22.3413 19.7025C22.5676 19.2582 22.662 18.7781 22.7066 18.2315C22.75 17.7006 22.75 17.045 22.75 16.2321V7.76788C22.75 6.95505 22.75 6.29944 22.7066 5.76853C22.662 5.2219 22.5676 4.74175 22.3413 4.29754C21.9817 3.59193 21.4081 3.01825 20.7025 2.65873C20.2582 2.43239 19.7781 2.33803 19.2315 2.29336C18.7006 2.24999 18.0449 2.24999 17.2321 2.25ZM12 7.25C9.37665 7.25 7.25 9.37665 7.25 12C7.25 14.6234 9.37665 16.75 12 16.75C14.6234 16.75 16.75 14.6234 16.75 12C16.75 9.37665 14.6234 7.25 12 7.25Z"
        fill="#303233" />
</svg>
