<svg width="24" height="24" viewBox="0 0 24 24" fill="none" xmlns="http://www.w3.org/2000/svg">
    <path fill-rule="evenodd" clip-rule="evenodd"
        d="M7.79734 2.25H16.2027C17.0292 2.24999 17.6958 2.24999 18.2354 2.29479C18.791 2.34093 19.2787 2.43844 19.7287 2.6722C20.4136 3.02798 20.972 3.58643 21.3278 4.27135C21.5616 4.72135 21.6591 5.20901 21.7052 5.76462C21.75 6.30417 21.75 6.97082 21.75 7.79734V16.2027C21.75 17.0292 21.75 17.6958 21.7052 18.2354C21.6591 18.791 21.5616 19.2787 21.3278 19.7287C20.972 20.4136 20.4136 20.972 19.7287 21.3278C19.2787 21.5616 18.791 21.6591 18.2354 21.7052C17.6958 21.75 17.0292 21.75 16.2027 21.75H7.79734C6.97082 21.75 6.30417 21.75 5.76462 21.7052C5.20901 21.6591 4.72135 21.5616 4.27135 21.3278C3.58643 20.972 3.02798 20.4136 2.6722 19.7287C2.43844 19.2787 2.34093 18.791 2.29479 18.2354C2.24999 17.6958 2.24999 17.0292 2.25 16.2027V7.79734C2.24999 6.97082 2.24999 6.30417 2.29479 5.76462C2.34093 5.20901 2.43844 4.72135 2.6722 4.27135C3.02798 3.58643 3.58643 3.02798 4.27135 2.6722C4.72135 2.43844 5.20901 2.34093 5.76462 2.29479C6.30417 2.24999 6.97082 2.24999 7.79734 2.25ZM5.88876 3.78965C5.42759 3.82795 5.16302 3.89932 4.96281 4.00332C4.55186 4.21679 4.21679 4.55186 4.00332 4.96281C3.89932 5.16302 3.82795 5.42759 3.78965 5.88876C3.7506 6.35892 3.75 6.96318 3.75 7.83V11.25H11.25V3.75H7.83C6.96318 3.75 6.35892 3.7506 5.88876 3.78965ZM12.75 3.75V11.25H20.25V7.83C20.25 6.96318 20.2494 6.35892 20.2104 5.88876C20.1721 5.42759 20.1007 5.16302 19.9967 4.96281C19.7832 4.55186 19.4481 4.21679 19.0372 4.00332C18.837 3.89932 18.5724 3.82795 18.1112 3.78965C17.6411 3.7506 17.0368 3.75 16.17 3.75H12.75ZM11.25 12.75H3.75V16.17C3.75 17.0368 3.7506 17.6411 3.78965 18.1112C3.82795 18.5724 3.89932 18.837 4.00332 19.0372C4.21679 19.4481 4.55186 19.7832 4.96281 19.9967C5.16302 20.1007 5.42759 20.1721 5.88876 20.2104C6.35892 20.2494 6.96318 20.25 7.83 20.25H11.25V12.75ZM12.75 20.25V12.75H20.25V16.17C20.25 17.0368 20.2494 17.6411 20.2104 18.1112C20.1721 18.5724 20.1007 18.837 19.9967 19.0372C19.7832 19.4481 19.4481 19.7832 19.0372 19.9967C18.837 20.1007 18.5724 20.1721 18.1112 20.2104C17.6411 20.2494 17.0368 20.25 16.17 20.25H12.75Z"
        fill="#303233" />
</svg>
