<svg width="24" height="24" viewBox="0 0 24 24" fill="none" xmlns="http://www.w3.org/2000/svg">
    <path
        d="M21.7071 3.70711C22.0976 3.31658 22.0976 2.68342 21.7071 2.29289C21.3166 1.90237 20.6834 1.90237 20.2929 2.29289L2.29289 20.2929C1.90237 20.6834 1.90237 21.3166 2.29289 21.7071C2.68342 22.0976 3.31658 22.0976 3.70711 21.7071L8.72278 16.6914C10.9664 18.7286 13.577 20.1377 16.3284 20.9186C16.8928 21.0788 17.1751 21.1589 17.588 21.1601C18.0462 21.1615 18.6667 21.0001 19.0662 20.7757C19.4263 20.5735 19.6911 20.3087 20.2207 19.779L20.3783 19.6214C20.9098 19.09 21.1755 18.8242 21.3198 18.5389C21.6069 17.9713 21.6069 17.301 21.3198 16.7335C21.1755 16.4481 20.9098 16.1824 20.3783 15.6509L20.1835 15.4561C19.8339 15.1064 19.6591 14.9316 19.4833 14.8174C18.8204 14.3864 17.9658 14.3864 17.3029 14.8174C17.1271 14.9316 16.9523 15.1064 16.6028 15.456C16.4885 15.5703 16.4313 15.6275 16.3644 15.6754C16.127 15.8454 15.7828 15.9041 15.5024 15.8224C15.4235 15.7994 15.3612 15.7694 15.2365 15.7096C14.0552 15.1424 12.9344 14.4074 11.9097 13.5045L21.7071 3.70711Z"
        fill="#303233" />
    <path
        d="M8.93565 10.7205C8.85976 10.8981 8.69723 11.0606 8.37216 11.3856L7.37925 12.3786C6.92813 12.8297 6.70258 13.0552 6.42895 13.1212C6.20239 13.1759 5.92453 13.1398 5.71945 13.0291C5.47177 12.8953 5.32381 12.6411 5.02789 12.1326C4.21929 10.7431 3.6004 9.27349 3.17123 7.76142C3.01103 7.19698 2.93092 6.91476 2.9297 6.50182C2.92833 6.0436 3.08969 5.42311 3.31411 5.0236C3.51636 4.66357 3.78117 4.39876 4.31079 3.86914L4.46843 3.7115C4.99987 3.18006 5.2656 2.91433 5.55098 2.76999C6.11854 2.48292 6.7888 2.48292 7.35636 2.76999C7.64174 2.91433 7.90747 3.18006 8.43891 3.7115L8.63378 3.90637C8.98338 4.25597 9.15819 4.43078 9.27247 4.60655C9.70347 5.26945 9.70347 6.12403 9.27247 6.78692C9.15819 6.96269 8.98338 7.1375 8.63378 7.4871C8.51947 7.60142 8.46231 7.65857 8.41447 7.72538C8.24446 7.96281 8.18576 8.30707 8.26748 8.58743C8.29048 8.66632 8.32041 8.72866 8.38028 8.85335C8.46094 9.02136 8.545 9.18815 8.63246 9.35361C8.87112 9.80513 8.99044 10.0309 9.01063 10.2229C9.02972 10.4045 9.0074 10.5526 8.93565 10.7205Z"
        fill="#303233" />
</svg>
