<svg width="24" height="24" viewBox="0 0 24 24" fill="none" xmlns="http://www.w3.org/2000/svg">
    <path fill-rule="evenodd" clip-rule="evenodd"
        d="M16 1C16.5523 1 17 1.44772 17 2V3H19C20.6569 3 22 4.34315 22 6V20C22 21.6569 20.6569 23 19 23H5C3.34315 23 2 21.6569 2 20V6C2 4.34315 3.34315 3 5 3H7V2C7 1.44772 7.44772 1 8 1C8.55228 1 9 1.44772 9 2V3H15V2C15 1.44772 15.4477 1 16 1ZM7 5V6C7 6.55228 7.44772 7 8 7C8.55228 7 9 6.55228 9 6V5H15V6C15 6.55228 15.4477 7 16 7C16.5523 7 17 6.55228 17 6V5H19C19.5523 5 20 5.44772 20 6V8C20 8.55228 19.5523 9 19 9H5C4.44772 9 4 8.55228 4 8V6C4 5.44772 4.44772 5 5 5H7ZM12.2929 11.2929C12.6834 10.9024 13.3166 10.9024 13.7071 11.2929L16.7071 14.2929C17.0976 14.6834 17.0976 15.3166 16.7071 15.7071L13.7071 18.7071C13.3166 19.0976 12.6834 19.0976 12.2929 18.7071C11.9024 18.3166 11.9024 17.6834 12.2929 17.2929L13.5858 16H8C7.44772 16 7 15.5523 7 15C7 14.4477 7.44772 14 8 14H13.5858L12.2929 12.7071C11.9024 12.3166 11.9024 11.6834 12.2929 11.2929Z"
        fill="#303233" />
</svg>
