<svg width="24" height="24" viewBox="0 0 24 24" fill="none" xmlns="http://www.w3.org/2000/svg">
    <path
        d="M1.25 4C1.25 2.48122 2.48122 1.25 4 1.25H13C14.5188 1.25 15.75 2.48122 15.75 4V7.5H11C9.067 7.5 7.5 9.067 7.5 11V15.75H4C2.48122 15.75 1.25 14.5188 1.25 13V4Z"
        fill="#303233" />
    <path
        d="M11 8.25C9.48122 8.25 8.25 9.48122 8.25 11V20C8.25 21.5188 9.48122 22.75 11 22.75H20C21.5188 22.75 22.75 21.5188 22.75 20V11C22.75 9.48122 21.5188 8.25 20 8.25H11Z"
        fill="#303233" />
</svg>
