<svg width="16" height="16" viewBox="0 0 16 16" fill="none" xmlns="http://www.w3.org/2000/svg">
    <path
        d="M8.00002 1C7.21724 1 6.45457 1.1957 5.7797 1.56002C5.64083 1.63498 5.5455 1.77111 5.52254 1.92725C5.49958 2.08338 5.55167 2.24119 5.66308 2.35297L12.2246 8.9362C12.3888 9.10093 12.6448 9.1307 12.8424 9.00804C13.04 8.88538 13.127 8.64267 13.0522 8.42245C12.7967 7.67033 12.6195 6.72568 12.6195 5.55C12.6195 4.3405 12.1307 3.18228 11.2634 2.32967C10.3965 1.47734 9.22246 1 8.00002 1Z"
        fill="#303233" />
    <path
        d="M3.55788 4.26499L1.64645 2.35355C1.45118 2.15829 1.45118 1.84171 1.64645 1.64645C1.84171 1.45118 2.15829 1.45118 2.35355 1.64645L14.3536 13.6464C14.5488 13.8417 14.5488 14.1583 14.3536 14.3536C14.1583 14.5488 13.8417 14.5488 13.6464 14.3536L11.2929 12H3.44838C3.0483 12 2.73282 12 2.50665 11.9914C2.39299 11.9871 2.28671 11.9802 2.19632 11.9672C2.13406 11.9583 1.97808 11.9355 1.84562 11.8401C1.77741 11.791 1.67536 11.7106 1.60106 11.5807C1.52609 11.4497 1.50912 11.3205 1.50199 11.2358C1.4929 11.1279 1.51712 11.0377 1.53098 10.9925C1.54739 10.939 1.56886 10.8884 1.58924 10.8448C1.63007 10.7575 1.68654 10.6566 1.75129 10.5475C1.8806 10.3296 2.07332 10.0289 2.3202 9.64362L2.32648 9.63383C2.8707 8.78458 3.38053 7.46836 3.38053 5.5C3.38053 5.07842 3.44126 4.66305 3.55788 4.26499Z"
        fill="#303233" />
    <path
        d="M10.3762 13.9206C10.5581 14.1283 10.5372 14.4442 10.3294 14.6262C9.70839 15.17 8.89215 15.5 8.00001 15.5C7.10787 15.5 6.29163 15.17 5.6706 14.6262C5.46286 14.4442 5.44193 14.1283 5.62385 13.9206C5.80578 13.7129 6.12167 13.6919 6.32941 13.8739C6.77442 14.2636 7.35849 14.5 8.00001 14.5C8.64152 14.5 9.22559 14.2636 9.6706 13.8739C9.87835 13.6919 10.1942 13.7129 10.3762 13.9206Z"
        fill="#303233" />
</svg>
