<svg width="24" height="24" viewBox="0 0 24 24" fill="none" xmlns="http://www.w3.org/2000/svg">
    <path fill-rule="evenodd" clip-rule="evenodd"
        d="M11.4419 23.8298L11.4453 23.8321C11.7812 24.056 12.2188 24.056 12.5547 23.8321L12.5581 23.8298L12.5648 23.8253L12.5877 23.8098C12.6072 23.7966 12.6349 23.7776 12.6704 23.753C12.7415 23.7038 12.8435 23.6321 12.9722 23.5392C13.2295 23.3534 13.5936 23.0822 14.0292 22.7354C14.8987 22.043 16.0606 21.0428 17.226 19.8127C19.5157 17.3958 22 13.9019 22 10C22 7.34784 20.9464 4.8043 19.0711 2.92893C17.1957 1.05357 14.6522 0 12 0C9.34784 0 6.8043 1.05357 4.92893 2.92893C3.05357 4.8043 2 7.34784 2 10C2 13.9019 4.48426 17.3958 6.77405 19.8127C7.93939 21.0428 9.10133 22.043 9.97082 22.7354C10.4064 23.0822 10.7705 23.3534 11.0278 23.5392C11.1565 23.6321 11.2585 23.7038 11.3296 23.753C11.3651 23.7776 11.3928 23.7966 11.4123 23.8098L11.4352 23.8253L11.4419 23.8298ZM9 10C9 8.34315 10.3431 7 12 7C13.6569 7 15 8.34315 15 10C15 11.6569 13.6569 13 12 13C10.3431 13 9 11.6569 9 10Z"
        fill="#303233" />
</svg>
