<svg width="16" height="16" viewBox="0 0 16 16" fill="none" xmlns="http://www.w3.org/2000/svg">
    <g clip-path="url(#clip0_53_4888)">
        <path fill-rule="evenodd" clip-rule="evenodd"
            d="M0.75 2.94444C0.75 1.73249 1.73249 0.75 2.94444 0.75H13.0556C14.2675 0.75 15.25 1.73249 15.25 2.94444V13.0556C15.25 14.2675 14.2675 15.25 13.0556 15.25H2.94444C1.73249 15.25 0.75 14.2675 0.75 13.0556V2.94444ZM6.25 5.25C6.66421 5.25 7 5.58579 7 6V10C7 10.4142 6.66421 10.75 6.25 10.75C5.83579 10.75 5.5 10.4142 5.5 10V6C5.5 5.58579 5.83579 5.25 6.25 5.25ZM10.5 6C10.5 5.58579 10.1642 5.25 9.75 5.25C9.33579 5.25 9 5.58579 9 6V10C9 10.4142 9.33579 10.75 9.75 10.75C10.1642 10.75 10.5 10.4142 10.5 10V6Z"
            fill="#303233" />
    </g>
    <defs>
        <clipPath id="clip0_53_4888">
            <rect width="16" height="16" fill="white" />
        </clipPath>
    </defs>
</svg>
