<svg width="24" height="24" viewBox="0 0 24 24" fill="none" xmlns="http://www.w3.org/2000/svg">
    <path fill-rule="evenodd" clip-rule="evenodd"
        d="M18 8C18 9.10457 17.1046 10 16 10C14.8954 10 14 9.10457 14 8C14 6.89543 14.8954 6 16 6C17.1046 6 18 6.89543 18 8ZM17 11.874C18.7252 11.4299 20 9.86384 20 8C20 6.13616 18.7252 4.57006 17 4.12602L17 3C17 2.44772 16.5523 2 16 2C15.4477 2 15 2.44772 15 3L15 4.12602C13.2748 4.57006 12 6.13616 12 8C12 9.86384 13.2748 11.4299 15 11.874L15 21C15 21.5523 15.4477 22 16 22C16.5523 22 17 21.5523 17 21L17 11.874ZM10 16C10 17.1046 9.10457 18 8 18C6.89543 18 6 17.1046 6 16C6 14.8954 6.89543 14 8 14C9.10457 14 10 14.8954 10 16ZM9 19.874C10.7252 19.4299 12 17.8638 12 16C12 14.1362 10.7252 12.5701 9 12.126L9 3C9 2.44772 8.55228 2 8 2C7.44771 2 7 2.44772 7 3L7 12.126C5.27477 12.5701 4 14.1362 4 16C4 17.8638 5.27477 19.4299 7 19.874L7 21C7 21.5523 7.44771 22 8 22C8.55229 22 9 21.5523 9 21L9 19.874Z"
        fill="#303233" />
</svg>
