<svg width="24" height="24" viewBox="0 0 24 24" fill="none" xmlns="http://www.w3.org/2000/svg">
    <path fill-rule="evenodd" clip-rule="evenodd"
        d="M10 1.25C5.16751 1.25 1.25 5.16751 1.25 10C1.25 11.1625 1.4771 12.2738 1.89006 13.2907C1.92768 13.3833 1.95031 13.4392 1.96604 13.4811C1.97371 13.5015 1.97738 13.5125 1.97875 13.5167L1.98037 13.525L1.98054 13.526L1.98059 13.527L1.98084 13.5378C1.98056 13.5411 1.97974 13.5495 1.97763 13.5651C1.97283 13.6004 1.96506 13.6476 1.95097 13.7321L1.41997 16.9181C1.39578 17.063 1.3701 17.2169 1.36012 17.3491C1.34933 17.492 1.34691 17.7062 1.44296 17.9301C1.56376 18.2118 1.7882 18.4362 2.06986 18.557C2.2938 18.6531 2.508 18.6507 2.65091 18.6399C2.78314 18.6299 2.93702 18.6042 3.08195 18.58L6.26788 18.049C6.35244 18.0349 6.39956 18.0272 6.43494 18.0224C6.44352 18.0212 6.44992 18.0204 6.45449 18.0199C6.45823 18.0195 6.46075 18.0193 6.46224 18.0192L6.47301 18.0194C6.47469 18.0195 6.47479 18.0195 6.47402 18.0194C6.47325 18.0194 6.47335 18.0193 6.47502 18.0196L6.4833 18.0213C6.48753 18.0226 6.49853 18.0263 6.51893 18.034C6.56084 18.0497 6.61671 18.0723 6.70934 18.1099C7.67725 18.503 8.73079 18.7277 9.83259 18.7484C10.8851 21.1065 13.2504 22.75 15.9995 22.75C16.896 22.75 17.7534 22.5748 18.5381 22.2562C18.6001 22.231 18.6379 22.2157 18.6655 22.2051L18.6924 22.2093L18.7678 22.2217L21.16 22.6204C21.2659 22.6381 21.3893 22.6587 21.4972 22.6669C21.6157 22.6758 21.8121 22.6797 22.0211 22.5901C22.2765 22.4805 22.4801 22.277 22.5896 22.0215C22.6793 21.8125 22.6754 21.6162 22.6664 21.4977C22.6583 21.3897 22.6377 21.2664 22.62 21.1604L22.2213 18.7683L22.2088 18.6929L22.2046 18.666C22.2152 18.6383 22.2305 18.6005 22.2557 18.5386C22.5744 17.7539 22.7495 16.8965 22.7495 16C22.7495 13.251 21.1063 10.8859 18.7484 9.83326C18.6596 5.07772 14.7768 1.25 10 1.25ZM18.6295 11.4553C18.0157 15.122 15.1215 18.0161 11.4546 18.6296C12.363 20.1963 14.0582 21.25 15.9995 21.25C16.6993 21.25 17.3652 21.1135 17.9737 20.8664L18.0039 20.8541C18.1021 20.8139 18.2277 20.7626 18.3457 20.7362C18.4522 20.7123 18.5462 20.7019 18.6554 20.7019C18.7759 20.7018 18.8973 20.7224 18.9884 20.7378L19.0144 20.7421L21.0871 21.0876L20.7417 19.0149L20.7373 18.9889C20.7219 18.8978 20.7014 18.7764 20.7014 18.6558C20.7014 18.5467 20.7118 18.4527 20.7357 18.3462C20.7622 18.2281 20.8135 18.1026 20.8536 18.0043L20.866 17.9741C21.1131 17.3657 21.2495 16.6997 21.2495 16C21.2495 14.0588 20.196 12.3637 18.6295 11.4553ZM2.75 10C2.75 5.99594 5.99594 2.75 10 2.75C14.0041 2.75 17.25 5.99594 17.25 10C17.25 14.0041 14.0041 17.25 10 17.25C9.03425 17.25 8.11438 17.0616 7.27376 16.7202L7.23475 16.7043C7.09907 16.649 6.95252 16.5892 6.81712 16.5588C6.69304 16.531 6.58605 16.5192 6.45888 16.5191C6.32048 16.5191 6.1798 16.5428 6.0546 16.5639L6.02128 16.5694L2.91241 17.0876L3.43056 13.9787L3.43615 13.9454C3.45721 13.8202 3.48087 13.6795 3.48085 13.5411C3.48083 13.414 3.46898 13.307 3.44117 13.1829C3.41082 13.0475 3.35105 12.9009 3.29571 12.7652L3.27982 12.7262C2.93843 11.8856 2.75 10.9657 2.75 10Z"
        fill="#303233" />
</svg>
