<svg width="24" height="24" viewBox="0 0 24 24" fill="none" xmlns="http://www.w3.org/2000/svg">
    <path
        d="M14.3575 8.98551C14.1841 8.69647 13.8767 8.51425 13.5399 8.5008C13.2031 8.48735 12.8822 8.64448 12.6863 8.91876L10.7812 11.5859L9.6 10.7C9.36777 10.5258 9.07132 10.4612 8.78765 10.5228C8.50399 10.5844 8.26111 10.7663 8.1221 11.0212L5.1221 16.5211C4.9531 16.831 4.95994 17.207 5.1401 17.5105C5.32026 17.814 5.64706 18 6 18H18C18.3603 18 18.6927 17.8062 18.8702 17.4927C19.0477 17.1792 19.0429 16.7944 18.8575 16.4855L14.3575 8.98551Z"
        fill="#303233" />
    <path fill-rule="evenodd" clip-rule="evenodd"
        d="M6 2C3.79086 2 2 3.79086 2 6V18C2 20.2091 3.79086 22 6 22H18C20.2091 22 22 20.2091 22 18V6C22 3.79086 20.2091 2 18 2H6ZM4 6C4 4.89543 4.89543 4 6 4H18C19.1046 4 20 4.89543 20 6V18C20 19.1046 19.1046 20 18 20H6C4.89543 20 4 19.1046 4 18V6Z"
        fill="#303233" />
</svg>
