<svg width="24" height="24" viewBox="0 0 24 24" fill="none" xmlns="http://www.w3.org/2000/svg">
    <path fill-rule="evenodd" clip-rule="evenodd"
        d="M2.81946 5.13002C1.85756 3.99257 2.66606 2.25 4.15571 2.25H19.8451C21.3348 2.25 22.1432 3.99257 21.1813 5.13002L14.7504 12.7346V20.191C14.7504 21.1202 13.7725 21.7246 12.9414 21.309L9.94139 19.809C9.51791 19.5973 9.2504 19.1644 9.2504 18.691V12.7346L2.81946 5.13002ZM4.15571 3.75C3.9429 3.75 3.8274 3.99894 3.96482 4.16143L10.4549 11.8359C10.6457 12.0616 10.7504 12.3475 10.7504 12.6431V18.5365L13.2504 19.7865V12.6431C13.2504 12.3475 13.3551 12.0616 13.5459 11.8359L20.036 4.16143C20.1734 3.99894 20.0579 3.75 19.8451 3.75H4.15571Z"
        fill="#303233" />
</svg>
