<svg width="16" height="16" viewBox="0 0 16 16" fill="none" xmlns="http://www.w3.org/2000/svg">
    <path
        d="M13.75 8C13.75 6.20507 12.2949 4.75 10.5 4.75H5.5C3.70507 4.75 2.25 6.20507 2.25 8C2.25 9.79493 3.70507 11.25 5.5 11.25H10.5C12.2949 11.25 13.75 9.79493 13.75 8ZM6.75 8C6.75 7.30964 6.19036 6.75 5.5 6.75C4.80964 6.75 4.25 7.30964 4.25 8C4.25 8.69036 4.80964 9.25 5.5 9.25C6.19036 9.25 6.75 8.69036 6.75 8ZM8.25 8C8.25 9.51878 7.01878 10.75 5.5 10.75C3.98122 10.75 2.75 9.51878 2.75 8C2.75 6.48122 3.98122 5.25 5.5 5.25C7.01878 5.25 8.25 6.48122 8.25 8ZM15.25 8C15.25 10.6234 13.1234 12.75 10.5 12.75H5.5C2.87665 12.75 0.75 10.6234 0.75 8C0.75 5.37665 2.87665 3.25 5.5 3.25H10.5C13.1234 3.25 15.25 5.37665 15.25 8Z"
        fill="#303233" />
</svg>
