<svg width="16" height="16" viewBox="0 0 16 16" fill="none" xmlns="http://www.w3.org/2000/svg">
    <path
        d="M9.19708 4.13634C8.90418 3.84345 8.42931 3.84345 8.13642 4.13634C7.84352 4.42923 7.84352 4.90411 8.13642 5.197L10.9394 8L8.13642 10.803C7.84352 11.0959 7.84352 11.5708 8.13642 11.8637C8.42931 12.1566 8.90418 12.1566 9.19708 11.8637L12.5304 8.53033C12.8233 8.23744 12.8233 7.76257 12.5304 7.46967L9.19708 4.13634Z"
        fill="#303233" />
    <path
        d="M4.53033 4.13634C4.23744 3.84345 3.76256 3.84345 3.46967 4.13634C3.17678 4.42923 3.17678 4.90411 3.46967 5.197L6.27267 8L3.46967 10.803C3.17678 11.0959 3.17678 11.5708 3.46967 11.8637C3.76256 12.1566 4.23744 12.1566 4.53033 11.8637L7.86366 8.53033C8.00432 8.38968 8.08333 8.19892 8.08333 8C8.08333 7.80109 8.00432 7.61033 7.86366 7.46967L4.53033 4.13634Z"
        fill="#303233" />
</svg>
