<svg width="24" height="24" viewBox="0 0 24 24" fill="none" xmlns="http://www.w3.org/2000/svg">
    <path
        d="M11 7.25C11.4142 7.25 11.75 7.58579 11.75 8V10.25H14C14.4142 10.25 14.75 10.5858 14.75 11C14.75 11.4142 14.4142 11.75 14 11.75H11.75V14C11.75 14.4142 11.4142 14.75 11 14.75C10.5858 14.75 10.25 14.4142 10.25 14V11.75H8C7.58579 11.75 7.25 11.4142 7.25 11C7.25 10.5858 7.58579 10.25 8 10.25H10.25V8C10.25 7.58579 10.5858 7.25 11 7.25Z"
        fill="#303233" />
    <path fill-rule="evenodd" clip-rule="evenodd"
        d="M11 19.75C13.1463 19.75 15.1122 18.9772 16.6344 17.6947L20.4701 21.5303C20.763 21.8232 21.2378 21.8232 21.5307 21.5303C21.8236 21.2374 21.8236 20.7626 21.5307 20.4697L17.6951 16.634C18.9774 15.1118 19.75 13.1461 19.75 11C19.75 6.16751 15.8325 2.25 11 2.25C6.16751 2.25 2.25 6.16751 2.25 11C2.25 15.8325 6.16751 19.75 11 19.75ZM11 3.75C6.99594 3.75 3.75 6.99594 3.75 11C3.75 15.0041 6.99594 18.25 11 18.25C12.9613 18.25 14.7407 17.4712 16.0458 16.206C16.068 16.1758 16.0928 16.147 16.1201 16.1197C16.1473 16.0924 16.1762 16.0677 16.2063 16.0455C17.4713 14.7404 18.25 12.9611 18.25 11C18.25 6.99594 15.0041 3.75 11 3.75Z"
        fill="#303233" />
</svg>
