<svg width="24" height="24" viewBox="0 0 24 24" fill="none" xmlns="http://www.w3.org/2000/svg">
    <path fill-rule="evenodd" clip-rule="evenodd"
        d="M3.94288 3.05134C3.9521 3.05549 3.96135 3.05965 3.97061 3.06382L20.7155 10.599C20.9488 10.7039 21.1681 10.8026 21.3365 10.8974C21.4955 10.9868 21.7567 11.1492 21.9034 11.446C22.0761 11.7952 22.0761 12.2049 21.9034 12.5541C21.7567 12.8509 21.4955 13.0132 21.3365 13.1027C21.1681 13.1975 20.9487 13.2962 20.7154 13.4011L3.9487 20.9462C3.70926 21.0539 3.48535 21.1547 3.29959 21.2191C3.12599 21.2792 2.82585 21.3694 2.50222 21.2791C2.12351 21.1734 1.81661 20.8957 1.67371 20.5294C1.5516 20.2164 1.61146 19.9088 1.65401 19.7301C1.69954 19.5388 1.77751 19.306 1.86089 19.057L4.20547 12.0534L4.21072 12.0376L4.20551 12.0218L1.86346 4.96556C1.86026 4.95592 1.85707 4.94631 1.85388 4.93671C1.77141 4.68832 1.69424 4.45589 1.64931 4.26493C1.60727 4.08624 1.54844 3.77916 1.67089 3.46694C1.81428 3.10133 2.12116 2.82436 2.49951 2.71909C2.82261 2.62919 3.12208 2.71909 3.29553 2.77918C3.4809 2.84339 3.70423 2.94391 3.94288 3.05134ZM3.25132 4.38508C3.26255 4.41907 3.27446 4.455 3.28709 4.49305L5.52981 11.25H10.5013C10.9155 11.25 11.2513 11.5858 11.2513 12C11.2513 12.4142 10.9155 12.75 10.5013 12.75H5.55409L3.29296 19.5043C3.28019 19.5425 3.26814 19.5785 3.25678 19.6126C3.28956 19.5979 3.32421 19.5823 3.36089 19.5658L20.0724 12.0456C20.108 12.0296 20.1417 12.0144 20.1735 12C20.1417 11.9857 20.108 11.9705 20.0724 11.9544L3.35506 4.4317C3.31851 4.41525 3.28398 4.39973 3.25132 4.38508Z"
        fill="#303233" />
</svg>
