<svg width="24" height="24" viewBox="0 0 24 24" fill="none" xmlns="http://www.w3.org/2000/svg">
    <path
        d="M1.70202 9.75371C4.41602 7.2667 8.03095 5.75 12.0018 5.75L12.0691 5.75014C12.4833 5.75193 12.8205 5.4176 12.8223 5.00339C12.8241 4.58918 12.4897 4.25194 12.0755 4.25016L12.0018 4.25C7.64126 4.25 3.66836 5.91728 0.688615 8.64781C0.383229 8.92766 0.362524 9.40208 0.642368 9.70746C0.922212 10.0128 1.39663 10.0336 1.70202 9.75371Z"
        fill="#303233" />
    <path
        d="M11.1348 10.7861C11.5476 10.7516 11.8542 10.389 11.8196 9.97619C11.7851 9.56342 11.4225 9.2568 11.0097 9.29135C8.42332 9.50779 6.07508 10.562 4.23813 12.1802C3.92732 12.454 3.89731 12.9279 4.17111 13.2387C4.44491 13.5495 4.91884 13.5796 5.22965 13.3058C6.83327 11.8931 8.88029 10.9748 11.1348 10.7861Z"
        fill="#303233" />
    <path
        d="M12.0018 15.75C10.7618 15.75 9.62394 16.179 8.72575 16.8973C8.40226 17.156 7.9303 17.1035 7.6716 16.78C7.41289 16.4565 7.46542 15.9845 7.78891 15.7258C8.94342 14.8026 10.4091 14.25 12.0018 14.25C13.5708 14.25 15.0165 14.7862 16.163 15.6848C16.489 15.9404 16.5461 16.4118 16.2906 16.7378C16.035 17.0638 15.5636 17.1209 15.2376 16.8654C14.3458 16.1663 13.2235 15.75 12.0018 15.75Z"
        fill="#303233" />
    <path
        d="M12.002 19.25C11.5877 19.25 11.252 19.5858 11.252 20C11.252 20.4142 11.5877 20.75 12.002 20.75H12.012C12.4262 20.75 12.762 20.4142 12.762 20C12.762 19.5858 12.4262 19.25 12.012 19.25H12.002Z"
        fill="#303233" />
    <path fill-rule="evenodd" clip-rule="evenodd"
        d="M18.002 6.25C16.4832 6.25 15.252 7.48122 15.252 9C15.252 10.5188 16.4832 11.75 18.002 11.75C19.5207 11.75 20.752 10.5188 20.752 9C20.752 7.48122 19.5207 6.25 18.002 6.25ZM13.752 9C13.752 6.65279 15.6547 4.75 18.002 4.75C20.3492 4.75 22.252 6.65279 22.252 9C22.252 9.90271 21.9705 10.7397 21.4906 11.428L22.5323 12.4697C22.8252 12.7626 22.8252 13.2374 22.5323 13.5303C22.2394 13.8232 21.7645 13.8232 21.4716 13.5303L20.4299 12.4886C19.7416 12.9686 18.9047 13.25 18.002 13.25C15.6547 13.25 13.752 11.3472 13.752 9Z"
        fill="#303233" />
</svg>
