<svg width="16" height="16" viewBox="0 0 16 16" fill="none" xmlns="http://www.w3.org/2000/svg">
    <path fill-rule="evenodd" clip-rule="evenodd"
        d="M3 1.75C1.75735 1.75 0.749991 2.75737 0.75 4.00002L0.750056 12C0.750065 13.2427 1.75742 14.25 3.00006 14.25H13.0001C14.2427 14.25 15.2501 13.2426 15.2501 12V5C15.2501 3.75736 14.2427 2.75 13.0001 2.75H9.20712C8.82072 2.75 8.45015 2.59649 8.17694 2.32324C7.80997 1.9562 7.3122 1.75 6.79318 1.75H3ZM3.75 7.5C3.75 7.91421 4.08579 8.25 4.5 8.25H5.68934L3.96967 9.96967C3.67678 10.2626 3.67678 10.7374 3.96967 11.0303C4.26256 11.3232 4.73744 11.3232 5.03033 11.0303L6.75 9.31066V10.5C6.75 10.9142 7.08579 11.25 7.5 11.25C7.91421 11.25 8.25 10.9142 8.25 10.5V7.5C8.25 7.08579 7.91421 6.75 7.5 6.75H4.5C4.08579 6.75 3.75 7.08579 3.75 7.5Z"
        fill="#303233" />
</svg>
