<svg width="16" height="16" viewBox="0 0 16 16" fill="none" xmlns="http://www.w3.org/2000/svg">
    <path fill-rule="evenodd" clip-rule="evenodd"
        d="M5.1786 1.5H10.8214C11.3633 1.5 11.8004 1.49999 12.1543 1.52891C12.5187 1.55868 12.8388 1.62159 13.135 1.77248C13.6054 2.01217 13.9878 2.39462 14.2275 2.86502C14.3784 3.16117 14.4413 3.48126 14.4711 3.84569C14.5 4.19963 14.5 4.6367 14.5 5.17858V10.8214C14.5 11.3633 14.5 11.8004 14.4711 12.1543C14.4413 12.5187 14.3784 12.8388 14.2275 13.135C13.9878 13.6054 13.6054 13.9878 13.135 14.2275C12.8388 14.3784 12.5187 14.4413 12.1543 14.4711C11.8004 14.5 11.3633 14.5 10.8214 14.5H5.17858C4.6367 14.5 4.19963 14.5 3.84569 14.4711C3.48126 14.4413 3.16117 14.3784 2.86502 14.2275C2.39462 13.9878 2.01217 13.6054 1.77248 13.135C1.62159 12.8388 1.55868 12.5187 1.52891 12.1543C1.49999 11.8004 1.5 11.3633 1.5 10.8214V5.1786C1.5 4.6367 1.49999 4.19963 1.52891 3.84569C1.55868 3.48126 1.62159 3.16117 1.77248 2.86502C2.01217 2.39462 2.39462 2.01217 2.86502 1.77248C3.16117 1.62159 3.48126 1.55868 3.84569 1.52891C4.19963 1.49999 4.6367 1.5 5.1786 1.5ZM6.5 13.5H9.5V2.5H6.5V13.5ZM5.5 2.5V13.5H5.2C4.6317 13.5 4.23554 13.4996 3.92712 13.4744C3.62454 13.4497 3.45069 13.4036 3.31901 13.3365C3.03677 13.1927 2.8073 12.9632 2.66349 12.681C2.5964 12.5493 2.55031 12.3755 2.52559 12.0729C2.50039 11.7645 2.5 11.3683 2.5 10.8V5.2C2.5 4.6317 2.50039 4.23554 2.52559 3.92712C2.55031 3.62454 2.5964 3.45069 2.66349 3.31901C2.8073 3.03677 3.03677 2.8073 3.31901 2.66349C3.45069 2.5964 3.62454 2.55031 3.92712 2.52559C4.23554 2.50039 4.6317 2.5 5.2 2.5H5.5ZM10.5 2.5V13.5H10.8C11.3683 13.5 11.7645 13.4996 12.0729 13.4744C12.3755 13.4497 12.5493 13.4036 12.681 13.3365C12.9632 13.1927 13.1927 12.9632 13.3365 12.681C13.4036 12.5493 13.4497 12.3755 13.4744 12.0729C13.4996 11.7645 13.5 11.3683 13.5 10.8V5.2C13.5 4.6317 13.4996 4.23554 13.4744 3.92712C13.4497 3.62454 13.4036 3.45069 13.3365 3.31901C13.1927 3.03677 12.9632 2.8073 12.681 2.66349C12.5493 2.5964 12.3755 2.55031 12.0729 2.52559C11.7645 2.50039 11.3683 2.5 10.8 2.5H10.5Z"
        fill="#303233" />
</svg>
