<svg width="16" height="16" viewBox="0 0 16 16" fill="none" xmlns="http://www.w3.org/2000/svg">
    <g clip-path="url(#clip0_2941_3275)">
        <path
            d="M2.25 8C2.25 4.82436 4.82436 2.25 8 2.25C11.1756 2.25 13.75 4.82436 13.75 8C13.75 8.32374 13.7233 8.64068 13.6722 8.9489C13.6044 9.35753 13.8807 9.74374 14.2893 9.81153C14.698 9.87932 15.0842 9.60301 15.152 9.19438C15.2165 8.80535 15.25 8.40631 15.25 8C15.25 3.99594 12.0041 0.75 8 0.75C3.99594 0.75 0.75 3.99594 0.75 8C0.75 12.0041 3.99594 15.25 8 15.25C8.75649 15.25 9.48728 15.1339 10.1747 14.918C10.5699 14.7938 10.7897 14.3729 10.6655 13.9777C10.5414 13.5825 10.1204 13.3628 9.72526 13.4869C9.18157 13.6577 8.60228 13.75 8 13.75C4.82436 13.75 2.25 11.1756 2.25 8Z"
            fill="#303233" />
        <path
            d="M8.00195 3.75C8.41617 3.75 8.75195 4.08579 8.75195 4.5V7.62525L10.4503 8.90021C10.7815 9.14889 10.8485 9.61902 10.5998 9.95027C10.3511 10.2815 9.88098 10.3485 9.54973 10.0998L7.55168 8.59983C7.36299 8.45818 7.25195 8.23598 7.25195 8.00004V4.5C7.25195 4.08579 7.58774 3.75 8.00195 3.75Z"
            fill="#303233" />
        <path
            d="M12.1751 10.324C12.435 10.1991 12.7434 10.2343 12.9685 10.4144L15.4685 12.4144C15.6464 12.5567 15.75 12.7722 15.75 13C15.75 13.2278 15.6464 13.4433 15.4685 13.5857L12.9685 15.5857C12.7434 15.7658 12.435 15.8009 12.1751 15.676C11.9153 15.5511 11.75 15.2883 11.75 15V11C11.75 10.7117 11.9153 10.4489 12.1751 10.324Z"
            fill="#303233" />
    </g>
    <defs>
        <clipPath id="clip0_2941_3275">
            <rect width="16" height="16" fill="white" />
        </clipPath>
    </defs>
</svg>
