<svg width="16" height="16" viewBox="0 0 16 16" fill="none" xmlns="http://www.w3.org/2000/svg">
    <path fill-rule="evenodd" clip-rule="evenodd"
        d="M15 8C15 4.712 11.887 2 8 2C4.113 2 1 4.712 1 8C1 8.984 1.276 9.91399 1.767 10.736C1.866 10.901 1.908 11.1 1.838 11.279L1.035 13.317C0.968 13.486 0.999 13.679 1.115 13.819C1.231 13.959 1.414 14.025 1.593 13.991L4.712 13.398C4.82 13.377 4.93 13.395 5.032 13.436C5.971 13.811 6.98 14.003 8.001 14C11.887 14 15 11.288 15 8Z"
        fill="#303233" />
</svg>
