<svg width="24" height="24" viewBox="0 0 24 24" fill="none" xmlns="http://www.w3.org/2000/svg">
    <g clip-path="url(#clip0_3716_8)">
        <path fill-rule="evenodd" clip-rule="evenodd"
            d="M13.7587 6H17.2413C18.0463 5.99999 18.7106 5.99998 19.2518 6.0442C19.8139 6.09012 20.3306 6.18868 20.816 6.43598C21.5686 6.81947 22.1805 7.43139 22.564 8.18404C22.8113 8.66937 22.9099 9.18608 22.9558 9.74818C23 10.2894 23 10.9537 23 11.7587V12C23 12.5523 22.5523 13 22 13C21.4477 13 21 12.5523 21 12V11.8C21 10.9434 20.9992 10.3611 20.9625 9.91104C20.9266 9.47262 20.8617 9.24842 20.782 9.09202C20.5903 8.7157 20.2843 8.40974 19.908 8.21799C19.7516 8.1383 19.5274 8.07337 19.089 8.03755C18.6389 8.00078 18.0566 8 17.2 8H13.8C12.9434 8 12.3611 8.00078 11.911 8.03755C11.4726 8.07337 11.2484 8.1383 11.092 8.21799C10.7157 8.40974 10.4097 8.7157 10.218 9.09202C10.1383 9.24842 10.0734 9.47262 10.0376 9.91104C10.0008 10.3611 10 10.9434 10 11.8V18.2C10 19.0566 10.0008 19.6389 10.0376 20.089C10.0734 20.5274 10.1383 20.7516 10.218 20.908C10.4097 21.2843 10.7157 21.5903 11.092 21.782C11.2484 21.8617 11.4726 21.9266 11.911 21.9624C12.3611 21.9992 12.9434 22 13.8 22H14C14.5523 22 15 22.4477 15 23C15 23.5523 14.5523 24 14 24H13.7587C12.9537 24 12.2894 24 11.7482 23.9558C11.1861 23.9099 10.6694 23.8113 10.184 23.564C9.43139 23.1805 8.81947 22.5686 8.43598 21.816C8.18868 21.3306 8.09012 20.8139 8.0442 20.2518C7.99998 19.7106 7.99999 19.0463 8 18.2413V11.7587C7.99999 10.9537 7.99998 10.2894 8.0442 9.74818C8.09012 9.18608 8.18868 8.66938 8.43598 8.18404C8.81947 7.43139 9.43139 6.81947 10.184 6.43598C10.6694 6.18868 11.1861 6.09012 11.7482 6.0442C12.2894 5.99998 12.9537 5.99999 13.7587 6ZM20 15C20.5523 15 21 15.4477 21 16V18H23C23.5523 18 24 18.4477 24 19C24 19.5523 23.5523 20 23 20H21V22C21 22.5523 20.5523 23 20 23C19.4477 23 19 22.5523 19 22V20H17C16.4477 20 16 19.5523 16 19C16 18.4477 16.4477 18 17 18H19V16C19 15.4477 19.4477 15 20 15Z"
            fill="#303233" />
        <path fill-rule="evenodd" clip-rule="evenodd"
            d="M6.7587 4.31291e-07L12 9.08128e-07C14.2091 9.08128e-07 16 1.79086 16 4C16 4.55229 15.5523 5 15 5C14.4477 5 14 4.55229 14 4C14 2.89543 13.1046 2 12 2H6.8C5.94342 2 5.36113 2.00078 4.91104 2.03755C4.47262 2.07337 4.24842 2.1383 4.09202 2.21799C3.7157 2.40973 3.40973 2.7157 3.21799 3.09202C3.1383 3.24842 3.07337 3.47262 3.03755 3.91104C3.00078 4.36113 3 4.94342 3 5.8V12.2C3 13.0566 3.00078 13.6389 3.03755 14.089C3.07337 14.5274 3.1383 14.7516 3.21799 14.908C3.40973 15.2843 3.7157 15.5903 4.09202 15.782C4.3771 15.9273 4.79825 15.9899 6.00695 15.9983C6.55922 16.0022 7.00381 16.453 6.99998 17.0053C6.99614 17.5575 6.54532 18.0021 5.99305 17.9983C4.8719 17.9905 3.96036 17.9596 3.18404 17.564C2.43139 17.1805 1.81947 16.5686 1.43597 15.816C1.18868 15.3306 1.09012 14.8139 1.04419 14.2518C0.999977 13.7106 0.999988 13.0463 1 12.2413V5.7587C0.999988 4.95373 0.999977 4.28937 1.04419 3.74817C1.09012 3.18608 1.18868 2.66937 1.43597 2.18404C1.81947 1.43139 2.43139 0.819468 3.18404 0.435975C3.66937 0.188684 4.18608 0.0901197 4.74818 0.0441945C5.28937 -2.28137e-05 5.95373 -1.23241e-05 6.7587 4.31291e-07Z"
            fill="#303233" />
        <path fill-rule="evenodd" clip-rule="evenodd"
            d="M13.8759 6H17.1241C17.9834 5.99999 18.6925 5.99997 19.2688 6.05015C19.8679 6.10231 20.417 6.2144 20.927 6.49477C21.5922 6.86045 22.1396 7.40783 22.5052 8.07299C22.7856 8.58299 22.8977 9.13211 22.9498 9.73119C23 10.3075 23 11.0166 23 11.8758V12C23 12.5523 22.5523 13 22 13C21.4477 13 21 12.5523 21 12V11.92C21 11.0056 20.9991 10.384 20.9574 9.90466C20.9168 9.43824 20.8433 9.20148 20.7526 9.03649C20.5698 8.70391 20.2961 8.43022 19.9635 8.24739C19.7985 8.15669 19.5618 8.08323 19.0953 8.04262C18.616 8.00088 17.9944 8 17.08 8H13.92C13.0056 8 12.384 8.00088 11.9047 8.04262C11.4382 8.08323 11.2015 8.15669 11.0365 8.24739C10.7039 8.43022 10.4302 8.70391 10.2474 9.03649C10.1567 9.20148 10.0832 9.43824 10.0426 9.90466C10.0009 10.384 10 11.0056 10 11.92V18.08C10 18.9944 10.0009 19.616 10.0426 20.0953C10.0832 20.5618 10.1567 20.7985 10.2474 20.9635C10.4302 21.2961 10.7039 21.5698 11.0365 21.7526C11.2015 21.8433 11.4382 21.9168 11.9047 21.9574C12.384 21.9991 13.0056 22 13.92 22L14 22C14.5523 22 15 22.4477 15 23C15 23.5523 14.5523 24 14 24L13.8759 24C13.0167 24 12.3075 24 11.7312 23.9498C11.1321 23.8977 10.583 23.7856 10.073 23.5052C9.40783 23.1396 8.86045 22.5922 8.49477 21.927C8.2144 21.417 8.10231 20.8679 8.05015 20.2688C7.99997 19.6925 7.99999 18.9834 8 18.1241V11.8759C7.99999 11.0166 7.99997 10.3075 8.05015 9.73119C8.10231 9.13211 8.2144 8.58299 8.49477 8.07299C8.86045 7.40783 9.40783 6.86045 10.073 6.49477C10.583 6.2144 11.1321 6.10231 11.7312 6.05015C12.3075 5.99997 13.0166 5.99999 13.8759 6Z"
            fill="#303233" />
    </g>
    <defs>
        <clipPath id="clip0_3716_8">
            <rect width="24" height="24" fill="white" />
        </clipPath>
    </defs>
</svg>
