<svg width="16" height="16" viewBox="0 0 16 16" fill="none" xmlns="http://www.w3.org/2000/svg">
    <g clip-path="url(#clip0_53_9830)">
        <path fill-rule="evenodd" clip-rule="evenodd"
            d="M3.44018 2.25007C2.96874 2.24653 2.69224 2.37155 2.53189 2.53189C2.37155 2.69224 2.24653 2.96874 2.25007 3.44018C2.25363 3.91533 2.39044 4.52564 2.68467 5.2402C2.87423 5.70057 3.12302 6.18942 3.42703 6.69435C3.89116 6.11196 4.40775 5.53303 4.97034 4.97044C5.53297 4.40781 6.11194 3.89119 6.69437 3.42704C6.18943 3.12303 5.70057 2.87423 5.2402 2.68467C4.52564 2.39044 3.91533 2.25363 3.44018 2.25007ZM8.0001 2.47733C7.25105 1.98411 6.51225 1.58626 5.81132 1.29765C4.98809 0.958669 4.18139 0.755587 3.45143 0.750112C2.71776 0.744609 2.00106 0.941402 1.47123 1.47123C0.941402 2.00106 0.744609 2.71776 0.750112 3.45143C0.755587 4.18139 0.958669 4.98809 1.29765 5.81132C1.58626 6.51224 1.9841 7.25104 2.47731 8.00007C1.98411 8.74909 1.58628 9.48787 1.29768 10.1888C0.958698 11.012 0.755615 11.8187 0.75014 12.5487C0.744637 13.2823 0.94143 13.999 1.47126 14.5289C2.00109 15.0587 2.71779 15.2555 3.45146 15.25C4.18142 15.2445 4.98812 15.0414 5.81135 14.7024C6.51227 14.4138 7.25106 14.016 8.00009 13.5228C8.74906 14.0159 9.48779 14.4137 10.1886 14.7023C11.0119 15.0413 11.8186 15.2444 12.5485 15.2499C13.2822 15.2554 13.9989 15.0586 14.5287 14.5287C15.0586 13.9989 15.2554 13.2822 15.2499 12.5485C15.2444 11.8186 15.0413 11.0119 14.7023 10.1886C14.4137 9.48778 14.0159 8.74904 13.5228 8.00007C14.0159 7.25108 14.4138 6.51233 14.7023 5.81145C15.0413 4.98822 15.2444 4.18152 15.2499 3.45156C15.2554 2.71789 15.0586 2.00119 14.5288 1.47136C13.9989 0.94153 13.2822 0.744737 12.5486 0.75024C11.8186 0.755715 11.0119 0.958797 10.1887 1.29778C9.48781 1.58637 8.74907 1.98417 8.0001 2.47733ZM8.00008 4.31257C7.34441 4.8067 6.67992 5.38218 6.031 6.0311C5.38212 6.67998 4.80667 7.34443 4.31255 8.00007C4.80666 8.65569 5.38211 9.32013 6.03097 9.969C6.6799 10.6179 7.3444 11.1934 8.00008 11.6876C8.65571 11.1934 9.32016 10.618 9.96902 9.96912C10.6179 9.32022 11.1934 8.65573 11.6875 8.00007C11.1934 7.34439 10.6179 6.67989 9.969 6.03097C9.32014 5.38211 8.6557 4.80667 8.00008 4.31257ZM12.5731 6.69433C12.1089 6.1119 11.5923 5.53294 11.0297 4.97031C10.4671 4.40774 9.88818 3.89117 9.30581 3.42706C9.81069 3.1231 10.2995 2.87434 10.7598 2.68479C11.4744 2.39056 12.0847 2.25376 12.5598 2.2502C13.0313 2.24666 13.3078 2.37168 13.4681 2.53202C13.6284 2.69236 13.7535 2.96887 13.7499 3.44031C13.7464 3.91545 13.6096 4.52577 13.3153 5.24033C13.1258 5.70065 12.877 6.18945 12.5731 6.69433ZM12.5731 9.3058C12.1089 9.88822 11.5923 10.4672 11.0297 11.0298C10.4671 11.5924 9.88819 12.1089 9.30582 12.5731C9.81068 12.877 10.2995 13.1258 10.7598 13.3153C11.4743 13.6095 12.0846 13.7463 12.5598 13.7499C13.0312 13.7534 13.3077 13.6284 13.4681 13.4681C13.6284 13.3077 13.7534 13.0312 13.7499 12.5598C13.7463 12.0846 13.6095 11.4743 13.3153 10.7598C13.1258 10.2995 12.877 9.81067 12.5731 9.3058ZM6.69436 12.5731C6.11192 12.1089 5.53295 11.5923 4.97031 11.0297C4.40773 10.4671 3.89116 9.88816 3.42703 9.30579C3.12304 9.81071 2.87425 10.2995 2.68469 10.7599C2.39046 11.4745 2.25366 12.0848 2.2501 12.5599C2.24656 13.0314 2.37158 13.3079 2.53192 13.4682C2.69226 13.6285 2.96877 13.7536 3.44021 13.75C3.91535 13.7465 4.52567 13.6097 5.24023 13.3154C5.70059 13.1259 6.18943 12.8771 6.69436 12.5731ZM6.89655 8.00011C6.89655 7.39069 7.39059 6.89665 8.00001 6.89665C8.60944 6.89665 9.10347 7.39069 9.10347 8.00011C9.10347 8.60954 8.60944 9.10357 8.00001 9.10357C7.39059 9.10357 6.89655 8.60954 6.89655 8.00011Z"
            fill="#303233" />
    </g>
    <defs>
        <clipPath id="clip0_53_9830">
            <rect width="16" height="16" fill="white" />
        </clipPath>
    </defs>
</svg>
