<svg width="24" height="24" viewBox="0 0 24 24" fill="none" xmlns="http://www.w3.org/2000/svg">
    <g clip-path="url(#clip0_53_9502)">
        <path fill-rule="evenodd" clip-rule="evenodd"
            d="M1.70711 0.292893C1.31658 -0.0976311 0.683417 -0.0976311 0.292893 0.292893C-0.0976311 0.683418 -0.0976311 1.31658 0.292893 1.70711L22.2929 23.7071C22.6834 24.0976 23.3166 24.0976 23.7071 23.7071C24.0976 23.3166 24.0976 22.6834 23.7071 22.2929L22.0279 20.6137C22.2368 20.3717 22.4172 20.1042 22.564 19.816C22.8113 19.3306 22.9099 18.8139 22.9558 18.2518C23 17.7106 23 17.0463 23 16.2413V7.75868C23 6.95372 23 6.28936 22.9558 5.74817C22.9099 5.18608 22.8113 4.66937 22.564 4.18404C22.1805 3.43139 21.5686 2.81947 20.816 2.43597C20.3306 2.18868 19.8139 2.09012 19.2518 2.04419C18.7106 1.99998 18.0463 1.99999 17.2413 2H6.7587C5.95373 1.99999 5.28937 1.99998 4.74818 2.04419C4.36462 2.07553 4.00221 2.13138 3.65648 2.24226L1.70711 0.292893ZM16.1715 14.7573L20.6061 19.1919C20.6722 19.1027 20.7311 19.0078 20.782 18.908C20.8617 18.7516 20.9266 18.5274 20.9625 18.089C20.9992 17.6389 21 17.0566 21 16.2V7.8C21 6.94342 20.9992 6.36113 20.9625 5.91104C20.9266 5.47262 20.8617 5.24842 20.782 5.09202C20.5903 4.7157 20.2843 4.40973 19.908 4.21799C19.7516 4.1383 19.5274 4.07337 19.089 4.03755C18.6389 4.00078 18.0566 4 17.2 4H6.8C6.23655 4 5.79178 4.00034 5.42525 4.01103L9.2427 7.82849C10.0332 7.30521 10.9818 7 12 7C14.7614 7 17 9.23858 17 12C17 13.0182 16.6948 13.9668 16.1715 14.7573ZM14.7078 13.2936C14.8952 12.9022 15 12.4638 15 12C15 10.3431 13.6569 9 12 9C11.5362 9 11.0978 9.10476 10.7064 9.29218L14.7078 13.2936Z"
            fill="#303233" />
        <path
            d="M2 6.5C2.55229 6.5 3 6.94772 3 7.5V16.2C3 17.0566 3.00078 17.6389 3.03755 18.089C3.07337 18.5274 3.1383 18.7516 3.21799 18.908C3.40973 19.2843 3.7157 19.5903 4.09202 19.782C4.24842 19.8617 4.47262 19.9266 4.91104 19.9624C5.36113 19.9992 5.94342 20 6.8 20H15.5C16.0523 20 16.5 20.4477 16.5 21C16.5 21.5523 16.0523 22 15.5 22H6.75873C5.95379 22 5.28935 22 4.74818 21.9558C4.18608 21.9099 3.66937 21.8113 3.18404 21.564C2.43139 21.1805 1.81947 20.5686 1.43597 19.816C1.18868 19.3306 1.09012 18.8139 1.04419 18.2518C0.999977 17.7106 0.999988 17.0463 1 16.2413L1 7.5C1 6.94772 1.44772 6.5 2 6.5Z"
            fill="#303233" />
        <path
            d="M9 12C9 11.4477 8.55229 11 8 11C7.44772 11 7 11.4477 7 12C7 14.7614 9.23858 17 12 17C12.5523 17 13 16.5523 13 16C13 15.4477 12.5523 15 12 15C10.3431 15 9 13.6569 9 12Z"
            fill="#303233" />
    </g>
    <defs>
        <clipPath id="clip0_53_9502">
            <rect width="24" height="24" fill="white" />
        </clipPath>
    </defs>
</svg>
