<svg width="16" height="16" viewBox="0 0 16 16" fill="none" xmlns="http://www.w3.org/2000/svg">
    <path
        d="M9 4C9 4.55228 8.55228 5 8 5C7.44772 5 7 4.55228 7 4C7 3.44772 7.44772 3 8 3C8.55228 3 9 3.44772 9 4Z"
        fill="#303233" />
    <path
        d="M9 8C9 8.55228 8.55228 9 8 9C7.44772 9 7 8.55228 7 8C7 7.44772 7.44772 7 8 7C8.55228 7 9 7.44772 9 8Z"
        fill="#303233" />
    <path
        d="M8 13C8.55228 13 9 12.5523 9 12C9 11.4477 8.55228 11 8 11C7.44772 11 7 11.4477 7 12C7 12.5523 7.44772 13 8 13Z"
        fill="#303233" />
</svg>
