<svg width="16" height="16" viewBox="0 0 16 16" fill="none" xmlns="http://www.w3.org/2000/svg">
    <path fill-rule="evenodd" clip-rule="evenodd"
        d="M4.27981 3.03411C3.88644 3.02473 3.51161 3.20112 3.2681 3.51021C3.09235 3.7333 3.04375 4.01092 3.02208 4.25396C2.99998 4.50188 2.99999 4.82047 3 5.20024V10.7998C2.99999 11.1795 2.99998 11.4981 3.02208 11.746C3.04375 11.9891 3.09235 12.2667 3.2681 12.4898C3.51161 12.7989 3.88644 12.9753 4.27981 12.9659C4.56374 12.9591 4.80863 12.8196 5.00971 12.6814C5.21483 12.5404 5.46031 12.3373 5.75293 12.0953L9.14229 9.29154C9.3178 9.14638 9.47332 9.01775 9.59182 8.9013C9.71681 8.77847 9.83986 8.63262 9.91209 8.44113C10.0193 8.15682 10.0193 7.84318 9.91209 7.55888C9.83986 7.36738 9.71681 7.22153 9.59182 7.09871C9.47331 6.98225 9.31779 6.85361 9.14227 6.70844L5.75292 3.90474C5.4603 3.66267 5.21483 3.4596 5.00971 3.31861C4.80863 3.18039 4.56374 3.04088 4.27981 3.03411Z"
        fill="#303233" />
    <path fill-rule="evenodd" clip-rule="evenodd"
        d="M12.4993 3C12.2231 3 11.9993 3.22386 11.9993 3.5V12.5006C11.9993 12.7768 12.2231 13.0006 12.4993 13.0006C12.7754 13.0006 12.9993 12.7768 12.9993 12.5006V3.5C12.9993 3.22386 12.7754 3 12.4993 3Z"
        fill="#303233" />
</svg>
