<svg width="16" height="16" viewBox="0 0 16 16" fill="none" xmlns="http://www.w3.org/2000/svg">
    <path
        d="M6.25 8C6.25 7.0335 7.0335 6.25 8 6.25C8.9665 6.25 9.75 7.0335 9.75 8C9.75 8.9665 8.9665 9.75 8 9.75C7.0335 9.75 6.25 8.9665 6.25 8Z"
        fill="#303233" />
    <path fill-rule="evenodd" clip-rule="evenodd"
        d="M13.7485 1.54973C13.4112 1.37789 13.0546 1.31078 12.6747 1.27974C12.3104 1.24998 11.8646 1.24999 11.3305 1.25L4.66957 1.25C4.13541 1.24999 3.68956 1.24998 3.32533 1.27974C2.94545 1.31078 2.58879 1.37789 2.25153 1.54974C1.73408 1.81339 1.31338 2.23408 1.04973 2.75153C0.877889 3.08879 0.810778 3.44545 0.77974 3.82533C0.749982 4.18956 0.74999 4.63541 0.75 5.16956V10.8304C0.74999 11.3646 0.749982 11.8104 0.77974 12.1747C0.810778 12.5546 0.877889 12.9112 1.04973 13.2485C1.31338 13.7659 1.73408 14.1866 2.25153 14.4503C2.58879 14.6221 2.94545 14.6892 3.32533 14.7203C3.68955 14.75 4.13538 14.75 4.66951 14.75L11.3305 14.75C11.8646 14.75 12.3105 14.75 12.6747 14.7203C13.0546 14.6892 13.4112 14.6221 13.7485 14.4503C14.2659 14.1866 14.6866 13.7659 14.9503 13.2485C15.1221 12.9112 15.1892 12.5546 15.2203 12.1747C15.25 11.8105 15.25 11.3646 15.25 10.8305V5.16955C15.25 4.63542 15.25 4.18955 15.2203 3.82533C15.1892 3.44545 15.1221 3.08879 14.9503 2.75153C14.6866 2.23408 14.2659 1.81338 13.7485 1.54973ZM8 4.75C6.20507 4.75 4.75 6.20507 4.75 8C4.75 9.79492 6.20507 11.25 8 11.25C9.79493 11.25 11.25 9.79493 11.25 8C11.25 6.20507 9.79493 4.75 8 4.75Z"
        fill="#303233" />
</svg>
