<svg width="16" height="16" viewBox="0 0 16 16" fill="none" xmlns="http://www.w3.org/2000/svg">
    <g clip-path="url(#clip0_53_7029)">
        <path
            d="M1.35355 0.646447C1.15829 0.451184 0.841709 0.451184 0.646447 0.646447C0.451184 0.841709 0.451184 1.15829 0.646447 1.35355L3.05533 3.76243C2.38273 4.53633 2 5.56589 2 6.564C2 7.56589 2.38802 8.4936 2.93039 9.30216C3.47317 10.1113 4.18851 10.8285 4.89111 11.4207C5.59559 12.0144 6.30097 12.4939 6.83631 12.8251C7.10431 12.9909 7.33187 13.1209 7.49807 13.2106C7.58077 13.2553 7.65072 13.2913 7.70435 13.3172C7.7305 13.3299 7.75725 13.3423 7.78182 13.3526C7.79348 13.3575 7.81093 13.3646 7.83081 13.3714C7.84058 13.3747 7.85719 13.38 7.87725 13.385C7.89002 13.3881 7.93803 13.4 8 13.4C8.06306 13.4 8.11251 13.3876 8.12513 13.3844C8.14521 13.3794 8.16152 13.374 8.17127 13.3707C8.19118 13.3638 8.20876 13.3566 8.22069 13.3516C8.24581 13.3409 8.27347 13.328 8.30089 13.3147C8.35707 13.2873 8.43068 13.2493 8.51795 13.2019C8.69327 13.1068 8.93332 12.9689 9.21514 12.7931C9.68748 12.4985 10.2836 12.0933 10.8925 11.5996L14.6464 15.3536C14.8417 15.5488 15.1583 15.5488 15.3536 15.3536C15.5488 15.1583 15.5488 14.8417 15.3536 14.6464L1.35355 0.646447Z"
            fill="#303233" />
        <path
            d="M10.2611 2.5C9.24941 2.5 8.50764 2.90157 8.00008 3.34704C7.58867 2.98579 7.02178 2.65227 6.27733 2.5398C6.06374 2.50753 5.85359 2.61607 5.75627 2.8089C5.65894 3.00174 5.69645 3.23527 5.84927 3.38793L12.1126 9.64459C12.2156 9.74743 12.3583 9.80032 12.5034 9.78945C12.6485 9.77858 12.7817 9.70502 12.8681 9.58799C13.5149 8.71268 14 7.68456 14 6.564C14 4.65318 12.5528 2.5 10.2611 2.5Z"
            fill="#303233" />
    </g>
    <defs>
        <clipPath id="clip0_53_7029">
            <rect width="16" height="16" fill="white" />
        </clipPath>
    </defs>
</svg>
