<svg width="24" height="24" viewBox="0 0 24 24" fill="none" xmlns="http://www.w3.org/2000/svg">
    <path fill-rule="evenodd" clip-rule="evenodd"
        d="M3.53082 2.46967C3.23793 2.17678 2.76305 2.17678 2.47016 2.46967C2.17726 2.76256 2.17726 3.23744 2.47016 3.53033L5.57002 6.63019C5.45678 6.71897 5.34589 6.80879 5.23734 6.89938C3.53859 8.31719 2.37123 9.95969 1.786 10.8864L1.76406 10.921C1.64538 11.1082 1.51398 11.3154 1.44668 11.609C1.39277 11.8442 1.39277 12.1558 1.44668 12.391C1.51398 12.6846 1.64538 12.8919 1.76406 13.079L1.786 13.1137C2.37123 14.0403 3.53859 15.6829 5.23734 17.1007C6.93786 18.5199 9.21602 19.75 12.0004 19.75C13.995 19.75 15.7299 19.1188 17.1787 18.2389L20.4702 21.5303C20.7631 21.8232 21.2379 21.8232 21.5308 21.5303C21.8237 21.2374 21.8237 20.7626 21.5308 20.4697L3.53082 2.46967ZM14.0685 15.1287L12.9706 14.0307C12.6768 14.1713 12.3479 14.25 12.0005 14.25C10.7578 14.25 9.75049 13.2427 9.75049 12C9.75049 11.6527 9.82921 11.3237 9.96977 11.0299L8.87179 9.93197C8.47915 10.5248 8.25049 11.2357 8.25049 12C8.25049 14.0711 9.92942 15.75 12.0005 15.75C12.7648 15.75 13.4757 15.5214 14.0685 15.1287Z"
        fill="#303233" />
    <path
        d="M12.0007 4.25C11.5314 4.25 11.0755 4.28504 10.6335 4.35038C10.3532 4.39182 10.1202 4.58765 10.0312 4.85661C9.94215 5.12557 10.0123 5.42175 10.2124 5.62224L12.9598 8.37383C14.2618 8.71735 15.2865 9.74349 15.6281 11.0463L19.686 15.1104C19.8347 15.2593 20.0392 15.3389 20.2496 15.3297C20.4599 15.3205 20.6566 15.2233 20.7918 15.0619C21.4232 14.3078 21.8998 13.6127 22.2135 13.1162L22.2357 13.0811C22.355 12.8931 22.487 12.6849 22.5544 12.3912C22.6083 12.156 22.6083 11.8444 22.5544 11.6092C22.4871 11.3155 22.3557 11.1082 22.237 10.921L22.2151 10.8863C21.6298 9.95967 20.4625 8.31717 18.7637 6.89936C17.0632 5.48009 14.785 4.25 12.0007 4.25Z"
        fill="#303233" />
</svg>
