<svg width="24" height="24" viewBox="0 0 24 24" fill="none" xmlns="http://www.w3.org/2000/svg">
    <path fill-rule="evenodd" clip-rule="evenodd"
        d="M10.25 7C10.25 4.37665 12.3766 2.25 15 2.25C17.6234 2.25 19.75 4.37665 19.75 7C19.75 9.62335 17.6234 11.75 15 11.75C12.3766 11.75 10.25 9.62335 10.25 7Z"
        fill="#303233" />
    <path fill-rule="evenodd" clip-rule="evenodd"
        d="M5.5 5.25C5.80455 5.25 6.07885 5.43416 6.19416 5.71603L10.6942 16.716C10.7888 16.9473 10.762 17.2106 10.6227 17.418C10.4834 17.6255 10.2499 17.75 10 17.75H1C0.750098 17.75 0.51661 17.6255 0.377315 17.418C0.238021 17.2106 0.211221 16.9473 0.305843 16.716L4.80584 5.71603C4.92115 5.43416 5.19546 5.25 5.5 5.25Z"
        fill="#303233" />
    <path fill-rule="evenodd" clip-rule="evenodd"
        d="M14 14.25C13.5858 14.25 13.25 14.5858 13.25 15V21C13.25 21.4142 13.5858 21.75 14 21.75H22C22.4142 21.75 22.75 21.4142 22.75 21V15C22.75 14.5858 22.4142 14.25 22 14.25H14Z"
        fill="#303233" />
</svg>
