<svg width="24" height="24" viewBox="0 0 24 24" fill="none" xmlns="http://www.w3.org/2000/svg">
    <g clip-path="url(#clip0_53_4554)">
        <path fill-rule="evenodd" clip-rule="evenodd"
            d="M0.46975 1.52975L22.4697 23.5298C22.7617 23.8228 23.2378 23.8228 23.5298 23.5298C23.8228 23.2378 23.8228 22.7617 23.5298 22.4697L1.52975 0.46975C1.23775 0.17675 0.76175 0.17675 0.46975 0.46975C0.17675 0.76175 0.17675 1.23775 0.46975 1.52975Z"
            fill="#303233" />
        <path fill-rule="evenodd" clip-rule="evenodd"
            d="M16.4915 2.76774C16.304 2.75073 16.0474 2.75 15.6372 2.75H7.5C7.08579 2.75 6.75 2.41421 6.75 2C6.75 1.58579 7.08579 1.25 7.5 1.25L15.6693 1.25C16.0376 1.24998 16.3635 1.24996 16.627 1.27388C16.9003 1.29868 17.2102 1.35568 17.4903 1.54138C17.8747 1.79619 18.143 2.19243 18.2368 2.64396C18.3052 2.97302 18.243 3.28191 18.1645 3.54483C18.0889 3.79844 17.9678 4.10098 17.831 4.44294L16.8112 6.99245C16.7887 7.04886 16.7763 7.07989 16.7674 7.10373C16.7597 7.12428 16.7592 7.12678 16.7592 7.12678C16.7559 7.13902 16.7535 7.1515 16.7521 7.16411C16.7521 7.16411 16.7515 7.16659 16.7511 7.18852C16.7505 7.21397 16.7504 7.24738 16.7504 7.30813V9.43875C16.7504 9.54838 16.7506 9.6093 16.7524 9.65553C16.754 9.69572 16.7563 9.70304 16.7555 9.69948C16.7601 9.72154 16.7676 9.7429 16.7778 9.76296C16.7761 9.75971 16.7789 9.76686 16.8028 9.79924C16.8303 9.83648 16.8682 9.88413 16.9367 9.96974L18.5103 11.9368C18.6904 12.1618 18.8524 12.3643 18.9899 12.5438C19.2419 12.8725 19.1796 13.3433 18.8508 13.5953C18.5221 13.8472 18.0513 13.785 17.7993 13.4562C17.6723 13.2905 17.5198 13.0998 17.3352 12.869L15.7654 10.9068C15.757 10.8962 15.7484 10.8856 15.7399 10.875C15.6357 10.7451 15.5241 10.6061 15.442 10.4454C15.3703 10.305 15.3179 10.1555 15.2862 10.001C15.2499 9.82423 15.2501 9.64601 15.2504 9.47953C15.2504 9.46585 15.2504 9.45226 15.2504 9.43875V7.30813C15.2504 7.3007 15.2504 7.29322 15.2504 7.2857C15.2503 7.19319 15.2503 7.0941 15.2618 6.99325C15.2719 6.905 15.2888 6.81765 15.3121 6.73195C15.3389 6.63402 15.3757 6.54204 15.4102 6.45617C15.413 6.4492 15.4158 6.44226 15.4185 6.43536L16.4264 3.91568C16.5787 3.53481 16.6734 3.29626 16.7272 3.11591C16.7603 3.00493 16.7653 2.95432 16.7661 2.94011C16.7519 2.88236 16.7175 2.83156 16.6691 2.79688C16.6557 2.79233 16.6068 2.77821 16.4915 2.76774ZM8.00043 7.68875C8.41464 7.68875 8.75043 8.02454 8.75043 8.43875C8.75043 8.54311 8.75043 8.87381 8.74785 9.19129C8.74657 9.34975 8.74462 9.50819 8.7416 9.63482C8.74011 9.69767 8.73826 9.75687 8.73586 9.80607L8.73565 9.81066C8.7343 9.83947 8.73031 9.92498 8.7147 10.001C8.683 10.1555 8.63057 10.305 8.55883 10.4454C8.47671 10.6061 8.36517 10.7451 8.26096 10.875C8.25241 10.8856 8.24391 10.8962 8.23547 10.9068L6.66569 12.869C6.32348 13.2968 6.09986 13.5775 5.95667 13.7941C5.86573 13.9316 5.83876 13.9988 5.8317 14.0179C5.83625 14.0812 5.86471 14.1404 5.91127 14.1835C5.93065 14.19 5.99994 14.2109 6.16415 14.2258C6.42273 14.2493 6.78162 14.25 7.32943 14.25H15C15.4142 14.25 15.75 14.5858 15.75 15C15.75 15.4142 15.4142 15.75 15 15.75H12.7504V22C12.7504 22.4142 12.4146 22.75 12.0004 22.75C11.5862 22.75 11.2504 22.4142 11.2504 22L11.2504 15.75H7.29395C6.79141 15.75 6.3633 15.75 6.02846 15.7196C5.6996 15.6897 5.30753 15.6217 4.98931 15.3677C4.57279 15.0352 4.33048 14.5311 4.33106 13.9981C4.3315 13.5909 4.52329 13.2423 4.70541 12.9668C4.89083 12.6864 5.15827 12.3521 5.47221 11.9597L7.06417 9.96974C7.13266 9.88413 7.17061 9.83648 7.19805 9.79924C7.22192 9.76686 7.22471 9.75972 7.22306 9.76296C7.22893 9.75147 7.23389 9.73956 7.23791 9.72733C7.23933 9.69659 7.24073 9.65358 7.24203 9.59916C7.24476 9.48432 7.24664 9.3351 7.2479 9.17912C7.25043 8.86804 7.25043 8.54276 7.25043 8.43875C7.25043 8.02454 7.58622 7.68875 8.00043 7.68875ZM7.23583 9.76235C7.23583 9.76235 7.23592 9.761 7.23614 9.75867L7.23583 9.76235Z"
            fill="#303233" />
    </g>
    <defs>
        <clipPath id="clip0_53_4554">
            <rect width="24" height="24" fill="white" />
        </clipPath>
    </defs>
</svg>
