<svg width="16" height="16" viewBox="0 0 16 16" fill="none" xmlns="http://www.w3.org/2000/svg">
    <path fill-rule="evenodd" clip-rule="evenodd"
        d="M4.50049 2C3.11978 2 2.00049 3.11929 2.00049 4.5C2.00049 5.88071 3.11978 7 4.50049 7C5.8812 7 7.00049 5.88071 7.00049 4.5C7.00049 3.11929 5.8812 2 4.50049 2ZM3.00049 4.5C3.00049 3.67157 3.67206 3 4.50049 3C5.32892 3 6.00049 3.67157 6.00049 4.5C6.00049 5.32843 5.32892 6 4.50049 6C3.67206 6 3.00049 5.32843 3.00049 4.5Z"
        fill="#303233" />
    <path fill-rule="evenodd" clip-rule="evenodd"
        d="M8.30594 5.93943C8.803 5.22144 9.86435 5.22144 10.3614 5.93943L14.93 12.5385C15.5039 13.3675 14.9106 14.5 13.9023 14.5L2.06851 14.5C1.07014 14.5 0.474649 13.3873 1.02845 12.5566L3.62706 8.65868C4.12184 7.91651 5.21241 7.91651 5.70718 8.65868L6.05853 9.18569L8.30594 5.93943ZM9.53923 6.50864C9.43981 6.36504 9.22754 6.36504 9.12813 6.50864L4.28796 13.5H13.9023C14.1039 13.5 14.2226 13.2735 14.1078 13.1077L9.53923 6.50864ZM5.44626 10.0701L3.07172 13.5H2.06851C1.86883 13.5 1.74974 13.2774 1.8605 13.1113L4.45911 9.21338C4.55806 9.06494 4.77618 9.06494 4.87513 9.21338L5.44626 10.0701Z"
        fill="#303233" />
</svg>
