<svg width="24" height="24" viewBox="0 0 24 24" fill="none" xmlns="http://www.w3.org/2000/svg">
    <path
        d="M9.16957 7.25L10 7.25C10.4142 7.25 10.75 7.58579 10.75 8C10.75 8.41421 10.4142 8.75 10 8.75H9.2C8.62757 8.75 8.24336 8.75058 7.94748 8.77476C7.66036 8.79822 7.52307 8.8401 7.43251 8.88624C7.19731 9.00608 7.00608 9.19731 6.88624 9.43251C6.8401 9.52307 6.79822 9.66036 6.77476 9.94748C6.75058 10.2434 6.75 10.6276 6.75 11.2V12.8C6.75 13.3724 6.75058 13.7566 6.77476 14.0525C6.79822 14.3396 6.8401 14.4769 6.88624 14.5675C7.00608 14.8027 7.19731 14.9939 7.43251 15.1138C7.52307 15.1599 7.66036 15.2018 7.94748 15.2252C8.24336 15.2494 8.62757 15.25 9.2 15.25H10C10.4142 15.25 10.75 15.5858 10.75 16C10.75 16.4142 10.4142 16.75 10 16.75H9.16955C8.63542 16.75 8.18955 16.75 7.82533 16.7203C7.44545 16.6892 7.08879 16.6221 6.75153 16.4503C6.23408 16.1866 5.81338 15.7659 5.54973 15.2485C5.37789 14.9112 5.31078 14.5546 5.27974 14.1747C5.24998 13.8104 5.24999 13.3646 5.25 12.8304V11.1696C5.24999 10.6354 5.24998 10.1896 5.27974 9.82533C5.31078 9.44545 5.37789 9.08879 5.54973 8.75153C5.81338 8.23408 6.23408 7.81338 6.75153 7.54973C7.08879 7.37789 7.44545 7.31078 7.82533 7.27974C8.18956 7.24998 8.63541 7.24999 9.16957 7.25Z"
        fill="#303233" />
    <path
        d="M18 7.25L17.1696 7.25C16.6354 7.24999 16.1896 7.24998 15.8253 7.27974C15.4454 7.31078 15.0888 7.37789 14.7515 7.54973C14.2341 7.81338 13.8134 8.23408 13.5497 8.75153C13.3779 9.08879 13.3108 9.44545 13.2797 9.82533C13.25 10.1896 13.25 10.6354 13.25 11.1696V12.8304C13.25 13.3646 13.25 13.8104 13.2797 14.1747C13.3108 14.5546 13.3779 14.9112 13.5497 15.2485C13.8134 15.7659 14.2341 16.1866 14.7515 16.4503C15.0888 16.6221 15.4454 16.6892 15.8253 16.7203C16.1896 16.75 16.6354 16.75 17.1695 16.75H18C18.4142 16.75 18.75 16.4142 18.75 16C18.75 15.5858 18.4142 15.25 18 15.25H17.2C16.6276 15.25 16.2434 15.2494 15.9475 15.2252C15.6604 15.2018 15.5231 15.1599 15.4325 15.1138C15.1973 14.9939 15.0061 14.8027 14.8862 14.5675C14.8401 14.4769 14.7982 14.3396 14.7748 14.0525C14.7506 13.7566 14.75 13.3724 14.75 12.8V11.2C14.75 10.6276 14.7506 10.2434 14.7748 9.94748C14.7982 9.66036 14.8401 9.52307 14.8862 9.43251C15.0061 9.19731 15.1973 9.00608 15.4325 8.88624C15.5231 8.8401 15.6604 8.79822 15.9475 8.77476C16.2434 8.75058 16.6276 8.75 17.2 8.75H18C18.4142 8.75 18.75 8.41421 18.75 8C18.75 7.58579 18.4142 7.25 18 7.25Z"
        fill="#303233" />
    <path fill-rule="evenodd" clip-rule="evenodd"
        d="M17.2321 3.25H6.7679C5.95506 3.24999 5.29944 3.24999 4.76853 3.29336C4.2219 3.33803 3.74175 3.43239 3.29754 3.65873C2.59193 4.01825 2.01825 4.59193 1.65873 5.29754C1.43239 5.74175 1.33803 6.2219 1.29336 6.76853C1.24999 7.29944 1.24999 7.95505 1.25 8.76788V15.2321C1.24999 16.0449 1.24999 16.7006 1.29336 17.2315C1.33803 17.7781 1.43239 18.2582 1.65873 18.7025C2.01825 19.4081 2.59193 19.9817 3.29754 20.3413C3.74175 20.5676 4.2219 20.662 4.76853 20.7066C5.29944 20.75 5.95505 20.75 6.76788 20.75H17.2321C18.045 20.75 18.7006 20.75 19.2315 20.7066C19.7781 20.662 20.2582 20.5676 20.7025 20.3413C21.4081 19.9817 21.9817 19.4081 22.3413 18.7025C22.5676 18.2582 22.662 17.7781 22.7066 17.2315C22.75 16.7006 22.75 16.045 22.75 15.2321V8.76788C22.75 7.95505 22.75 7.29944 22.7066 6.76853C22.662 6.2219 22.5676 5.74176 22.3413 5.29754C21.9817 4.59193 21.4081 4.01825 20.7025 3.65873C20.2582 3.43239 19.7781 3.33803 19.2315 3.29336C18.7006 3.24999 18.0449 3.24999 17.2321 3.25ZM3.97852 4.99524C4.17604 4.8946 4.43681 4.82547 4.89068 4.78838C5.35331 4.75058 5.94755 4.75 6.8 4.75H17.2C18.0525 4.75 18.6467 4.75058 19.1093 4.78838C19.5632 4.82547 19.824 4.8946 20.0215 4.99524C20.4448 5.21095 20.789 5.55516 21.0048 5.97852C21.1054 6.17604 21.1745 6.43681 21.2116 6.89068C21.2494 7.35331 21.25 7.94755 21.25 8.8V15.2C21.25 16.0525 21.2494 16.6467 21.2116 17.1093C21.1745 17.5632 21.1054 17.824 21.0048 18.0215C20.789 18.4448 20.4448 18.789 20.0215 19.0048C19.824 19.1054 19.5632 19.1745 19.1093 19.2116C18.6467 19.2494 18.0525 19.25 17.2 19.25H6.8C5.94755 19.25 5.35331 19.2494 4.89068 19.2116C4.43681 19.1745 4.17604 19.1054 3.97852 19.0048C3.55516 18.789 3.21095 18.4448 2.99524 18.0215C2.8946 17.824 2.82547 17.5632 2.78838 17.1093C2.75058 16.6467 2.75 16.0525 2.75 15.2V8.8C2.75 7.94755 2.75058 7.35331 2.78838 6.89068C2.82547 6.43681 2.8946 6.17604 2.99524 5.97852C3.21095 5.55516 3.55516 5.21095 3.97852 4.99524Z"
        fill="#303233" />
</svg>
