<svg width="24" height="23" viewBox="0 0 24 23" fill="none" xmlns="http://www.w3.org/2000/svg">
    <path fill-rule="evenodd" clip-rule="evenodd"
        d="M13.8286 0.0555881C14.2306 0.195448 14.5 0.574432 14.5 1.00006V9.00006H20C20.3835 9.00006 20.7332 9.21936 20.9002 9.56457C21.0672 9.90978 21.0221 10.3201 20.7841 10.6208L11.2841 22.6208C11.0199 22.9545 10.5734 23.0844 10.1714 22.9445C9.76942 22.8047 9.50001 22.4257 9.50001 22.0001V14.0001H4.00001C3.61652 14.0001 3.26682 13.7808 3.09981 13.4355C2.93281 13.0903 2.97793 12.68 3.21596 12.3794L12.716 0.379355C12.9801 0.0456451 13.4266 -0.0842718 13.8286 0.0555881ZM6.06711 12.0001H10.5C11.0523 12.0001 11.5 12.4478 11.5 13.0001V19.1258L17.9329 11.0001H13.5C12.9477 11.0001 12.5 10.5523 12.5 10.0001V3.87429L6.06711 12.0001Z"
        fill="#303233" />
</svg>
