<svg width="24" height="24" viewBox="0 0 24 24" fill="none" xmlns="http://www.w3.org/2000/svg">
    <path fill-rule="evenodd" clip-rule="evenodd"
        d="M9 3C9 2.44772 8.55228 2 8 2C7.44772 2 7 2.44772 7 3V4H2C1.44772 4 1 4.44772 1 5C1 5.55228 1.44772 6 2 6H9.93811C9.73422 7.63507 9.0369 9.11691 7.99987 10.2918C7.4321 9.64856 6.96608 8.91321 6.62707 8.11082C6.41212 7.60208 5.82546 7.36391 5.31672 7.57886C4.80798 7.7938 4.56981 8.38047 4.78475 8.88921C5.20827 9.8916 5.79071 10.8107 6.50057 11.6149C5.21835 12.489 3.66885 13 2 13C1.44772 13 1 13.4477 1 14C1 14.5523 1.44772 15 2 15C4.25125 15 6.32875 14.2561 8.00009 13.0007C9.33331 14.0022 10.9252 14.6783 12.658 14.9107L10.124 19.5181C9.85781 20.002 10.0343 20.6101 10.5183 20.8762C11.0022 21.1424 11.6102 20.9658 11.8764 20.4819L13.2415 18H19.7589L21.124 20.4819C21.3901 20.9658 21.9982 21.1424 22.4821 20.8762C22.966 20.6101 23.1426 20.002 22.8764 19.5181L17.3764 9.51808C17.2006 9.19853 16.8649 9 16.5002 9C16.1355 9 15.7997 9.19853 15.624 9.51808L13.7117 12.9949C12.1533 12.9397 10.7079 12.4387 9.49951 11.6151C10.8486 10.0868 11.7379 8.1429 11.9506 6H14C14.5523 6 15 5.55228 15 5C15 4.44772 14.5523 4 14 4H9V3ZM14.3415 16H18.6589L16.5002 12.075L14.3415 16Z"
        fill="#303233" />
</svg>
