<svg width="24" height="24" viewBox="0 0 24 24" fill="none" xmlns="http://www.w3.org/2000/svg">
    <path
        d="M9.25 11.5C9.25 9.98122 10.4812 8.75 12 8.75C13.5188 8.75 14.75 9.98122 14.75 11.5C14.75 13.0188 13.5188 14.25 12 14.25C10.4812 14.25 9.25 13.0188 9.25 11.5Z"
        fill="#303233" />
    <path fill-rule="evenodd" clip-rule="evenodd"
        d="M15.2321 1.25H8.7679C7.95506 1.24999 7.29944 1.24999 6.76853 1.29336C6.2219 1.33803 5.74175 1.43239 5.29754 1.65873C4.59193 2.01825 4.01825 2.59193 3.65873 3.29754C3.43239 3.74175 3.33803 4.2219 3.29336 4.76853C3.24999 5.29944 3.24999 5.95505 3.25 6.76789V17.2321C3.24999 18.0449 3.24999 18.7006 3.29336 19.2315C3.33803 19.7781 3.43239 20.2582 3.65873 20.7025C4.01825 21.4081 4.59193 21.9817 5.29754 22.3413C5.74175 22.5676 6.2219 22.662 6.76853 22.7066C7.29944 22.75 7.95505 22.75 8.76788 22.75H15.2321C16.045 22.75 16.7006 22.75 17.2315 22.7066C17.7781 22.662 18.2582 22.5676 18.7025 22.3413C19.4081 21.9817 19.9817 21.4081 20.3413 20.7025C20.5676 20.2582 20.662 19.7781 20.7066 19.2315C20.75 18.7006 20.75 18.045 20.75 17.2321V6.76788C20.75 5.95505 20.75 5.29944 20.7066 4.76853C20.662 4.2219 20.5676 3.74175 20.3413 3.29754C19.9817 2.59193 19.4081 2.01825 18.7025 1.65873C18.2582 1.43239 17.7781 1.33803 17.2315 1.29336C16.7006 1.24999 16.0449 1.24999 15.2321 1.25ZM12 7.25C9.65279 7.25 7.75 9.15279 7.75 11.5C7.75 13.8472 9.65279 15.75 12 15.75C12.9027 15.75 13.7397 15.4686 14.428 14.9886L15.4697 16.0303C15.7626 16.3232 16.2374 16.3232 16.5303 16.0303C16.8232 15.7374 16.8232 15.2626 16.5303 14.9697L15.4886 13.928C15.9686 13.2397 16.25 12.4027 16.25 11.5C16.25 9.15279 14.3472 7.25 12 7.25Z"
        fill="#303233" />
</svg>
