<svg width="16" height="16" viewBox="0 0 16 16" fill="none" xmlns="http://www.w3.org/2000/svg">
    <path fill-rule="evenodd" clip-rule="evenodd"
        d="M8 1C4.13401 1 1 4.13401 1 8C1 11.866 4.13401 15 8 15C11.866 15 15 11.866 15 8C15 4.13401 11.866 1 8 1ZM9.99503 5.25C9.58356 5.25 9.25 5.58579 9.25 6C9.25 6.41421 9.58356 6.75 9.99503 6.75H10.005C10.4164 6.75 10.75 6.41421 10.75 6C10.75 5.58579 10.4164 5.25 10.005 5.25H9.99503ZM5.5 9.5C5.22386 9.5 5 9.72386 5 10C5 10.2761 5.22386 10.5 5.5 10.5H10.5C10.7761 10.5 11 10.2761 11 10C11 9.72386 10.7761 9.5 10.5 9.5H5.5ZM5.25 6C5.25 5.58579 5.58356 5.25 5.99503 5.25H6.00497C6.41644 5.25 6.75 5.58579 6.75 6C6.75 6.41421 6.41644 6.75 6.00497 6.75H5.99503C5.58356 6.75 5.25 6.41421 5.25 6Z"
        fill="#303233" />
</svg>
