<svg width="24" height="24" viewBox="0 0 24 24" fill="none" xmlns="http://www.w3.org/2000/svg">
    <path
        d="M8 12.25C7.58579 12.25 7.25 12.5858 7.25 13C7.25 13.4142 7.58579 13.75 8 13.75H16C16.4142 13.75 16.75 13.4142 16.75 13C16.75 12.5858 16.4142 12.25 16 12.25H8Z"
        fill="#303233" />
    <path fill-rule="evenodd" clip-rule="evenodd"
        d="M4 2.25C2.48122 2.25 1.25 3.48122 1.25 5V19C1.25 20.5188 2.48122 21.75 4 21.75H20C21.5188 21.75 22.75 20.5188 22.75 19V7C22.75 5.48122 21.5188 4.25 20 4.25H13.8284C13.2317 4.25 12.6594 4.01295 12.2374 3.59099L11.409 2.76256C11.0808 2.43437 10.6357 2.25 10.1716 2.25H4ZM2.75 7C2.75 6.30964 3.30964 5.75 4 5.75H20C20.6904 5.75 21.25 6.30964 21.25 7V19C21.25 19.6904 20.6904 20.25 20 20.25H4C3.30964 20.25 2.75 19.6904 2.75 19V7Z"
        fill="#303233" />
</svg>
