<svg width="24" height="24" viewBox="0 0 24 24" fill="none" xmlns="http://www.w3.org/2000/svg">
    <path fill-rule="evenodd" clip-rule="evenodd"
        d="M8 4H4.36392C3.97485 3.99998 3.62468 3.99996 3.33337 4.02376C3.02141 4.04925 2.68993 4.10694 2.36503 4.27249C1.89462 4.51217 1.51217 4.89462 1.27249 5.36503C1.10694 5.68993 1.04925 6.02141 1.02376 6.33337C0.999961 6.62467 0.99998 6.97479 1 7.36385L1 9.17071C1 9.59453 1.26717 9.97231 1.66676 10.1135C2.4449 10.3886 3 11.1308 3 12C3 12.8693 2.4449 13.6114 1.66676 13.8865C1.26717 14.0277 1 14.4055 1 14.8293L1 16.6361C0.99998 17.0252 0.999961 17.3753 1.02376 17.6666C1.04925 17.9786 1.10694 18.3101 1.27249 18.635C1.51217 19.1054 1.89462 19.4878 2.36503 19.7275C2.68993 19.8931 3.02141 19.9508 3.33337 19.9762C3.6247 20 3.97484 20 4.36394 20L8 20V17C8 16.4477 8.44772 16 9 16C9.55229 16 10 16.4477 10 17V20L19.6361 20C20.0252 20 20.3753 20 20.6666 19.9762C20.9786 19.9508 21.3101 19.8931 21.635 19.7275C22.1054 19.4878 22.4878 19.1054 22.7275 18.635C22.8931 18.3101 22.9508 17.9786 22.9762 17.6666C23 17.3753 23 17.0252 23 16.6362V14.8293C23 14.4055 22.7328 14.0277 22.3333 13.8865C21.5551 13.6114 21 12.8693 21 12C21 11.1308 21.5551 10.3886 22.3333 10.1135C22.7328 9.97231 23 9.59453 23 9.17071V7.3639C23 6.97484 23 6.62467 22.9762 6.33337C22.9508 6.02141 22.8931 5.68993 22.7275 5.36503C22.4878 4.89462 22.1054 4.51217 21.635 4.27249C21.3101 4.10694 20.9786 4.04925 20.6666 4.02376C20.3753 3.99996 20.0252 3.99998 19.6362 4H10V7C10 7.55229 9.55229 8 9 8C8.44772 8 8 7.55229 8 7V4ZM10 11C10 10.4477 9.55229 10 9 10C8.44772 10 8 10.4477 8 11V13C8 13.5523 8.44772 14 9 14C9.55229 14 10 13.5523 10 13V11Z"
        fill="#303233" />
</svg>
