<svg width="16" height="16" viewBox="0 0 16 16" fill="none" xmlns="http://www.w3.org/2000/svg">
    <path fill-rule="evenodd" clip-rule="evenodd"
        d="M5.25 2.75L3.07379 2.75C2.81632 2.74998 2.5798 2.74997 2.38213 2.76612C2.169 2.78353 1.93583 2.8234 1.70552 2.94074C1.37624 3.10852 1.10852 3.37624 0.940742 3.70552C0.823395 3.93583 0.783532 4.169 0.766119 4.38213C0.749968 4.5798 0.749984 4.81627 0.750001 5.07373L0.750004 6.06301C0.750004 6.40523 0.981648 6.70404 1.31306 6.78934C1.85235 6.92814 2.25 7.41858 2.25 8C2.25 8.58142 1.85235 9.07186 1.31306 9.21067C0.981648 9.29597 0.750004 9.59478 0.750004 9.93699L0.750001 10.9262C0.749984 11.1837 0.749968 11.4202 0.766119 11.6179C0.783532 11.831 0.823395 12.0642 0.940742 12.2945C1.10852 12.6238 1.37624 12.8915 1.70552 13.0593C1.93583 13.1766 2.169 13.2165 2.38213 13.2339C2.57981 13.25 2.81629 13.25 3.07377 13.25H5.25V11C5.25 10.5858 5.58579 10.25 6 10.25C6.41421 10.25 6.75 10.5858 6.75 11V13.25H12.9262C13.1837 13.25 13.4202 13.25 13.6179 13.2339C13.831 13.2165 14.0642 13.1766 14.2945 13.0593C14.6238 12.8915 14.8915 12.6238 15.0593 12.2945C15.1766 12.0642 15.2165 11.831 15.2339 11.6179C15.25 11.4202 15.25 11.1837 15.25 10.9262L15.25 9.93699C15.25 9.59478 15.0184 9.29597 14.6869 9.21067C14.1477 9.07186 13.75 8.58142 13.75 8C13.75 7.41858 14.1477 6.92814 14.6869 6.78934C15.0184 6.70404 15.25 6.40523 15.25 6.06301L15.25 5.07377C15.25 4.81629 15.25 4.57981 15.2339 4.38213C15.2165 4.169 15.1766 3.93583 15.0593 3.70552C14.8915 3.37624 14.6238 3.10852 14.2945 2.94074C14.0642 2.82339 13.831 2.78353 13.6179 2.76612C13.4202 2.74997 13.1837 2.74998 12.9263 2.75L6.75 2.75V5C6.75 5.41421 6.41421 5.75 6 5.75C5.58579 5.75 5.25 5.41421 5.25 5V2.75ZM6 6.75C6.41421 6.75 6.75 7.08579 6.75 7.5V8.5C6.75 8.91421 6.41421 9.25 6 9.25C5.58579 9.25 5.25 8.91421 5.25 8.5V7.5C5.25 7.08579 5.58579 6.75 6 6.75Z"
        fill="#303233" />
</svg>
