<svg width="24" height="24" viewBox="0 0 24 24" fill="none" xmlns="http://www.w3.org/2000/svg">
    <path d="M9 9.5C9 8.67157 9.67157 8 10.5 8H11V11H10.5C9.67157 11 9 10.3284 9 9.5Z"
        fill="#303233" />
    <path
        d="M13 16V13H13.9998C14.8283 13 15.4998 13.6716 15.4998 14.5C15.4998 15.3284 14.8283 16 13.9998 16H13Z"
        fill="#303233" />
    <path fill-rule="evenodd" clip-rule="evenodd"
        d="M12 1C5.92487 1 1 5.92487 1 12C1 18.0751 5.92487 23 12 23C18.0751 23 23 18.0751 23 12C23 5.92487 18.0751 1 12 1ZM10.5 6H11V5C11 4.44772 11.4477 4 12 4C12.5523 4 13 4.44772 13 5V6H15.5C16.0523 6 16.5 6.44772 16.5 7C16.5 7.55228 16.0523 8 15.5 8H13V11H13.9998C15.9328 11 17.4998 12.567 17.4998 14.5C17.4998 16.433 15.9328 18 13.9998 18H13V19C13 19.5523 12.5523 20 12 20C11.4477 20 11 19.5523 11 19V18H8C7.44772 18 7 17.5523 7 17C7 16.4477 7.44772 16 8 16H11V13H10.5C8.567 13 7 11.433 7 9.5C7 7.567 8.567 6 10.5 6Z"
        fill="#303233" />
</svg>
