<svg width="24" height="24" viewBox="0 0 24 24" fill="none" xmlns="http://www.w3.org/2000/svg">
    <path fill-rule="evenodd" clip-rule="evenodd"
        d="M1.25 7C1.25 5.53079 2.37362 4.25 3.86667 4.25H14.1333C15.6264 4.25 16.75 5.53079 16.75 7V8.78648L21.6646 6.32918C21.8971 6.21293 22.1732 6.22536 22.3943 6.36201C22.6154 6.49867 22.75 6.74007 22.75 7V17C22.75 17.2599 22.6154 17.5013 22.3943 17.638C22.1732 17.7746 21.8971 17.7871 21.6646 17.6708L16.75 15.2135V17C16.75 18.4692 15.6264 19.75 14.1333 19.75H3.86667C2.37362 19.75 1.25 18.4692 1.25 17V7ZM6 11.25C5.58579 11.25 5.25 11.5858 5.25 12C5.25 12.4142 5.58579 12.75 6 12.75H12C12.4142 12.75 12.75 12.4142 12.75 12C12.75 11.5858 12.4142 11.25 12 11.25H6Z"
        fill="#303233" />
</svg>
