<svg width="24" height="24" viewBox="0 0 24 24" fill="none" xmlns="http://www.w3.org/2000/svg">
    <path fill-rule="evenodd" clip-rule="evenodd"
        d="M12 2.75C12.5387 2.75 12.95 3.17434 12.95 3.66667V10.8889C12.95 11.3031 13.2858 11.6389 13.7 11.6389C14.1142 11.6389 14.45 11.3031 14.45 10.8889V4.77778C14.45 4.28545 14.8613 3.86111 15.4 3.86111C15.9387 3.86111 16.35 4.28545 16.35 4.77778V14.2222C16.35 14.6364 16.6858 14.9722 17.1 14.9722C17.5142 14.9722 17.85 14.6364 17.85 14.2222V11.4444C17.85 10.9521 18.2613 10.5278 18.8 10.5278C19.3387 10.5278 19.75 10.9521 19.75 11.4444V13.6667C19.75 17.8409 16.2943 21.25 12 21.25C7.70572 21.25 4.25 17.8409 4.25 13.6667V8.11111C4.25 7.61878 4.66126 7.19444 5.2 7.19444C5.73874 7.19444 6.15 7.61878 6.15 8.11111V10.8889C6.15 11.3031 6.48579 11.6389 6.9 11.6389C7.31421 11.6389 7.65 11.3031 7.65 10.8889V4.77778C7.65 4.28545 8.06126 3.86111 8.6 3.86111C9.13874 3.86111 9.55 4.28545 9.55 4.77778V10.8889C9.55 11.3031 9.88579 11.6389 10.3 11.6389C10.7142 11.6389 11.05 11.3031 11.05 10.8889V3.66667C11.05 3.17434 11.4613 2.75 12 2.75ZM9.77322 2.65622C10.1631 1.82148 11.0205 1.25 12 1.25C12.9795 1.25 13.8369 1.82148 14.2268 2.65622C14.5765 2.46776 14.9769 2.36111 15.4 2.36111C16.739 2.36111 17.85 3.42916 17.85 4.77778V9.21668C18.1431 9.09488 18.4644 9.02778 18.8 9.02778C20.139 9.02778 21.25 10.0958 21.25 11.4444V13.6667C21.25 18.6972 17.0946 22.75 12 22.75C6.90544 22.75 2.75 18.6972 2.75 13.6667V8.11111C2.75 6.76249 3.86097 5.69444 5.2 5.69444C5.53563 5.69444 5.85693 5.76155 6.15 5.88335V4.77778C6.15 3.42916 7.26097 2.36111 8.6 2.36111C9.02313 2.36111 9.42349 2.46776 9.77322 2.65622Z"
        fill="#303233" />
</svg>
