<svg width="24" height="23" viewBox="0 0 24 23" fill="none" xmlns="http://www.w3.org/2000/svg">
    <g clip-path="url(#clip0_155_477)">
        <path
            d="M1.77327 8.93803C4.44297 6.49161 7.99824 5 11.9042 5L11.9703 5.00014C12.5226 5.00252 12.9723 4.55674 12.9746 4.00446C12.977 3.45218 12.5312 3.00254 11.979 3.00016L11.9042 3C7.47865 3 3.4461 4.69237 0.422059 7.4635C0.0148785 7.83662 -0.0127286 8.46918 0.360397 8.87636C0.733522 9.28355 1.36608 9.31115 1.77327 8.93803Z"
            fill="#303233" />
        <path
            d="M11.058 10.0353C11.6083 9.98919 12.0172 9.5057 11.9711 8.95534C11.925 8.40498 11.4416 7.99616 10.8912 8.04222C8.2495 8.26329 5.85106 9.34015 3.97522 10.9926C3.5608 11.3577 3.52079 11.9896 3.88586 12.404C4.25093 12.8184 4.88283 12.8584 5.29725 12.4933C6.86199 11.115 8.8588 10.2193 11.058 10.0353Z"
            fill="#303233" />
        <path
            d="M11.9042 15C10.7229 15 9.63971 15.4084 8.78423 16.0926C8.35291 16.4375 7.72363 16.3675 7.3787 15.9361C7.03376 15.5048 7.10379 14.8755 7.53511 14.5306C8.73235 13.5732 10.2527 13 11.9042 13C13.531 13 15.0307 13.5562 16.2195 14.4881C16.6542 14.8288 16.7304 15.4574 16.3897 15.892C16.0489 16.3267 15.4204 16.4028 14.9857 16.0621C14.1364 15.3964 13.068 15 11.9042 15Z"
            fill="#303233" />
        <path
            d="M11.9043 18C11.352 18 10.9043 18.4477 10.9043 19C10.9043 19.5523 11.352 20 11.9043 20H11.9143C12.4666 20 12.9143 19.5523 12.9143 19C12.9143 18.4477 12.4666 18 11.9143 18H11.9043Z"
            fill="#303233" />
        <path fill-rule="evenodd" clip-rule="evenodd"
            d="M18.9043 3C21.6657 3 23.9043 5.23858 23.9043 8C23.9043 10.7614 21.6657 13 18.9043 13C16.1429 13 13.9043 10.7614 13.9043 8C13.9043 5.23858 16.1429 3 18.9043 3ZM21.9043 8C21.9043 6.34315 20.5612 5 18.9043 5C18.4411 5 18.0024 5.10497 17.6108 5.29242L21.6119 9.29352C21.7993 8.90186 21.9043 8.46319 21.9043 8ZM20.1976 10.7077L16.1966 6.70669C16.0092 7.0983 15.9043 7.53689 15.9043 8C15.9043 9.65685 17.2474 11 18.9043 11C19.3674 11 19.806 10.8951 20.1976 10.7077Z"
            fill="#303233" />
    </g>
    <defs>
        <clipPath id="clip0_155_477">
            <rect width="23.8066" height="23" fill="white" transform="translate(0.0976562)" />
        </clipPath>
    </defs>
</svg>
