<svg width="16" height="16" viewBox="0 0 16 16" fill="none" xmlns="http://www.w3.org/2000/svg">
    <path fill-rule="evenodd" clip-rule="evenodd"
        d="M15 8C15 4.712 11.887 2 8 2C4.113 2 1 4.712 1 8C1 8.984 1.276 9.91399 1.767 10.736C1.866 10.901 1.908 11.1 1.838 11.279L1.035 13.317C0.968 13.486 0.999 13.679 1.115 13.819C1.231 13.959 1.414 14.025 1.593 13.991L4.712 13.398C4.82 13.377 4.93 13.395 5.032 13.436C5.971 13.811 6.98 14.003 8.001 14C11.887 14 15 11.288 15 8ZM10.8536 5.14645C11.0488 5.34171 11.0488 5.65829 10.8536 5.85355L8.70711 8L10.8536 10.1464C11.0488 10.3417 11.0488 10.6583 10.8536 10.8536C10.6583 11.0488 10.3417 11.0488 10.1464 10.8536L8 8.70711L5.85355 10.8536C5.65829 11.0488 5.34171 11.0488 5.14645 10.8536C4.95118 10.6583 4.95118 10.3417 5.14645 10.1464L7.29289 8L5.14645 5.85355C4.95118 5.65829 4.95118 5.34171 5.14645 5.14645C5.34171 4.95118 5.65829 4.95118 5.85355 5.14645L8 7.29289L10.1464 5.14645C10.3417 4.95118 10.6583 4.95118 10.8536 5.14645Z"
        fill="#303233" />
</svg>
