<svg width="16" height="16" viewBox="0 0 16 16" fill="none" xmlns="http://www.w3.org/2000/svg">
    <path fill-rule="evenodd" clip-rule="evenodd"
        d="M8 1C4.13401 1 1 4.13401 1 8C1 11.866 4.13401 15 8 15C11.866 15 15 11.866 15 8C15 4.13401 11.866 1 8 1ZM9.99528 5.25C9.58381 5.25 9.25024 5.58579 9.25024 6C9.25024 6.41421 9.58381 6.75 9.99528 6.75H10.0052C10.4167 6.75 10.7502 6.41421 10.7502 6C10.7502 5.58579 10.4167 5.25 10.0052 5.25H9.99528ZM10.8635 9.8685C11.0532 9.66789 11.0445 9.35143 10.8438 9.16166C10.6432 8.9719 10.3268 8.9807 10.137 9.18131C9.82171 9.51463 9.06274 10.1667 7.99992 10.1667C6.93777 10.1667 6.17908 9.51546 5.86339 9.1819C5.67358 8.98134 5.35711 8.97263 5.15655 9.16245C4.95599 9.35226 4.94728 9.66872 5.1371 9.86928C5.52019 10.2741 6.52584 11.1667 7.99992 11.1667C9.47491 11.1667 10.4809 10.273 10.8635 9.8685ZM5.00024 6C5.00024 5.72386 5.2241 5.5 5.50024 5.5H6.50024C6.77639 5.5 7.00024 5.72386 7.00024 6C7.00024 6.27614 6.77639 6.5 6.50024 6.5H5.50024C5.2241 6.5 5.00024 6.27614 5.00024 6Z"
        fill="#303233" />
</svg>
