<svg width="24" height="24" viewBox="0 0 24 24" fill="none" xmlns="http://www.w3.org/2000/svg">
    <path fill-rule="evenodd" clip-rule="evenodd"
        d="M12 3.25C10.5069 3.25 9.02224 3.28606 7.54673 3.35737L7.38716 3.36505C5.79229 3.44162 4.75393 3.49148 3.79796 4.01105C3.01357 4.43738 2.24608 5.22375 1.83895 6.01828C1.34276 6.9866 1.31816 8.02611 1.28036 9.62278L1.27657 9.78256C1.25889 10.5196 1.25 11.2588 1.25 12C1.25 12.7412 1.25889 13.4804 1.27657 14.2174L1.28036 14.3772C1.31816 15.9739 1.34276 17.0134 1.83895 17.9817C2.24608 18.7762 3.01357 19.5626 3.79796 19.9889C4.75393 20.5085 5.7923 20.5584 7.38718 20.635L7.54673 20.6426C9.02224 20.7139 10.5069 20.75 12 20.75C13.4931 20.75 14.9778 20.7139 16.4533 20.6426L16.6128 20.635C18.2077 20.5584 19.2461 20.5085 20.202 19.9889C20.9864 19.5626 21.7539 18.7762 22.1611 17.9817C22.6572 17.0134 22.6818 15.9739 22.7196 14.3772L22.7234 14.2174C22.7411 13.4804 22.75 12.7412 22.75 12C22.75 11.2588 22.7411 10.5196 22.7234 9.78256L22.7196 9.62279C22.6818 8.02613 22.6572 6.9866 22.1611 6.01829C21.7539 5.22376 20.9864 4.43739 20.202 4.01106C19.2461 3.49148 18.2077 3.44162 16.6128 3.36505L16.4533 3.35737C14.9778 3.28606 13.4931 3.25 12 3.25ZM9.01014 11.8821H11.3982V12.073C11.3982 12.5072 11.347 12.8915 11.2447 13.2258C11.1449 13.5352 10.9765 13.8247 10.7394 14.0942C10.2029 14.6981 9.52043 15 8.69198 15C7.8835 15 7.19105 14.708 6.61463 14.1241C6.03821 13.5377 5.75 12.8341 5.75 12.0131C5.75 11.1747 6.0432 10.4635 6.6296 9.8796C7.216 9.2932 7.92966 9 8.77059 9C9.22224 9 9.64395 9.09233 10.0357 9.27698C10.41 9.46163 10.7781 9.76107 11.1399 10.1753L10.5186 10.7704C10.0444 10.1391 9.46678 9.82346 8.78556 9.82346C8.1742 9.82346 7.66142 10.0343 7.24719 10.456C6.83297 10.8702 6.62586 11.3893 6.62586 12.0131C6.62586 12.6569 6.85668 13.1871 7.31831 13.6039C7.75 13.9906 8.21787 14.184 8.72193 14.184C9.15112 14.184 9.53665 14.0393 9.87851 13.7498C10.2204 13.4579 10.4113 13.1085 10.4512 12.7018H9.01014V11.8821ZM13.3707 9.11229V14.8915H12.4986V9.11229H13.3707ZM15.6315 9.932H17.6452V9.11229H14.7594V14.8915H15.6315V12.1404H17.5741V11.3206H15.6315V9.932Z"
        fill="#303233" />
</svg>
