<svg width="16" height="16" viewBox="0 0 16 16" fill="none" xmlns="http://www.w3.org/2000/svg">
    <g clip-path="url(#clip0_53_9514)">
        <path fill-rule="evenodd" clip-rule="evenodd"
            d="M1.53033 0.46967C1.23744 0.176777 0.762563 0.176777 0.46967 0.46967C0.176777 0.762563 0.176777 1.23744 0.46967 1.53033L14.4697 15.5303C14.7626 15.8232 15.2374 15.8232 15.5303 15.5303C15.8232 15.2374 15.8232 14.7626 15.5303 14.4697L14.7046 13.6439C14.797 13.5199 14.8793 13.3877 14.9503 13.2485C15.1221 12.9112 15.1892 12.5546 15.2203 12.1747C15.25 11.8105 15.25 11.3646 15.25 10.8305V5.16955C15.25 4.63542 15.25 4.18955 15.2203 3.82533C15.1892 3.44545 15.1221 3.08879 14.9503 2.75153C14.6866 2.23408 14.2659 1.81338 13.7485 1.54973C13.4112 1.37789 13.0546 1.31078 12.6747 1.27974C12.3104 1.24998 11.8646 1.24999 11.3305 1.25L4.66957 1.25C4.13541 1.24999 3.68956 1.24998 3.32533 1.27974C3.03824 1.3032 2.76442 1.34726 2.50221 1.44155L1.53033 0.46967ZM6.29393 5.23327L7.41192 6.35126C7.59572 6.2857 7.79369 6.25 8 6.25C8.9665 6.25 9.75 7.0335 9.75 8C9.75 8.20631 9.7143 8.40428 9.64874 8.58808L10.7667 9.70607C11.0732 9.21018 11.25 8.62574 11.25 8C11.25 6.20507 9.79493 4.75 8 4.75C7.37426 4.75 6.78982 4.92684 6.29393 5.23327Z"
            fill="#303233" />
        <path
            d="M0.75 5.16954C0.749991 4.69608 0.749984 4.292 0.770707 3.95264L4.75069 7.93262C4.75023 7.95502 4.75 7.97748 4.75 8C4.75 9.79492 6.20507 11.25 8 11.25C8.02252 11.25 8.04498 11.2498 8.06738 11.2493L11.568 14.7499L4.66951 14.75C4.13538 14.75 3.68955 14.75 3.32533 14.7203C2.94545 14.6892 2.58879 14.6221 2.25153 14.4503C1.73408 14.1866 1.31339 13.7659 1.04973 13.2485C0.877889 12.9112 0.810778 12.5546 0.77974 12.1747C0.749982 11.8104 0.74999 11.3646 0.75 10.8305V5.16954Z"
            fill="#303233" />
    </g>
    <defs>
        <clipPath id="clip0_53_9514">
            <rect width="16" height="16" fill="white" />
        </clipPath>
    </defs>
</svg>
