<svg width="16" height="16" viewBox="0 0 16 16" fill="none" xmlns="http://www.w3.org/2000/svg">
    <path
        d="M2.03396 13.3721C1.96234 13.5312 1.89533 13.6801 1.85252 13.8037C1.81247 13.9193 1.75253 14.1189 1.81246 14.3343C1.88265 14.5866 2.06729 14.7911 2.31103 14.8867C2.51918 14.9684 2.7239 14.9292 2.84302 14.9011C2.97033 14.8712 3.12528 14.8197 3.29088 14.7647L7.49973 13.3678V8.99937C7.49973 8.72323 7.72358 8.49937 7.99973 8.49937C8.27587 8.49937 8.49973 8.72323 8.49973 8.99937V13.3525L12.7044 14.7601C12.8704 14.8157 13.0256 14.8676 13.1531 14.898C13.2723 14.9264 13.4774 14.9663 13.686 14.8849C13.9302 14.7896 14.1154 14.585 14.1858 14.3325C14.246 14.1168 14.1859 13.9167 14.1458 13.8009C14.1029 13.6771 14.0357 13.5279 13.9639 13.3682L8.93382 2.19038C8.86385 2.03484 8.79805 1.88858 8.73487 1.77632C8.67522 1.67033 8.56697 1.49622 8.3691 1.39839C8.13632 1.2833 7.8632 1.2833 7.63042 1.39839C7.43255 1.49622 7.3243 1.67033 7.26465 1.77632C7.20147 1.88858 7.13568 2.03483 7.06571 2.19036L2.03396 13.3721Z"
        fill="#303233" />
</svg>
