<svg width="24" height="24" viewBox="0 0 24 24" fill="none" xmlns="http://www.w3.org/2000/svg">
    <path fill-rule="evenodd" clip-rule="evenodd"
        d="M14.25 3C14.25 2.58579 14.5858 2.25 15 2.25H21C21.4142 2.25 21.75 2.58579 21.75 3V9C21.75 9.41421 21.4142 9.75 21 9.75C20.5858 9.75 20.25 9.41421 20.25 9V4.81066L14.5303 10.5303C14.2374 10.8232 13.7626 10.8232 13.4697 10.5303C13.1768 10.2374 13.1768 9.76256 13.4697 9.46967L19.1893 3.75H15C14.5858 3.75 14.25 3.41421 14.25 3ZM10.5303 13.4697C10.8232 13.7626 10.8232 14.2374 10.5303 14.5303L4.81066 20.25H9C9.41421 20.25 9.75 20.5858 9.75 21C9.75 21.4142 9.41421 21.75 9 21.75H3C2.80109 21.75 2.61032 21.671 2.46967 21.5303C2.32902 21.3897 2.25 21.1989 2.25 21L2.25 15C2.25 14.5858 2.58579 14.25 3 14.25C3.41421 14.25 3.75 14.5858 3.75 15L3.75 19.1893L9.46967 13.4697C9.76256 13.1768 10.2374 13.1768 10.5303 13.4697Z"
        fill="#303233" />
</svg>
