<svg width="24" height="24" viewBox="0 0 24 24" fill="none" xmlns="http://www.w3.org/2000/svg">
    <path fill-rule="evenodd" clip-rule="evenodd"
        d="M2.29338 2.29289C2.68391 1.90237 3.31707 1.90237 3.7076 2.29289L21.7076 20.2929C22.0981 20.6834 22.0981 21.3166 21.7076 21.7071C21.3171 22.0976 20.6839 22.0976 20.2934 21.7071L17.1395 18.5532C15.6942 19.3991 13.9729 20 12.0004 20C9.13873 20 6.80575 18.7353 5.07715 17.2926C3.3509 15.8518 2.16737 14.1857 1.57462 13.2471L1.55054 13.2092C1.43292 13.024 1.2802 12.7836 1.203 12.4468C1.14067 12.1749 1.14067 11.8251 1.203 11.5532C1.2802 11.2163 1.43292 10.976 1.55054 10.7908L1.57462 10.7528C2.16737 9.81427 3.3509 8.14816 5.07715 6.70741C5.11638 6.67468 5.15591 6.64203 5.19576 6.60949L2.29338 3.70711C1.90286 3.31658 1.90286 2.68342 2.29338 2.29289ZM8.5543 9.96803C8.20242 10.5635 8.00049 11.2582 8.00049 12C8.00049 14.2091 9.79135 16 12.0005 16C12.7423 16 13.4369 15.7981 14.0324 15.4462L12.5185 13.9322C12.3533 13.9764 12.1796 14 12.0005 14C10.8959 14 10.0005 13.1046 10.0005 12C10.0005 11.8208 10.024 11.6472 10.0682 11.482L8.5543 9.96803Z"
        fill="#303233" />
    <path
        d="M12.0002 4C11.5184 4 11.0503 4.03597 10.5964 4.10307C10.2228 4.15832 9.91209 4.41943 9.79337 4.77805C9.67465 5.13666 9.76815 5.53156 10.0351 5.79888L12.2398 8.00704C14.2604 8.12628 15.8776 9.74541 15.9938 11.7668L19.5086 15.287C19.7069 15.4856 19.9796 15.5918 20.26 15.5795C20.5404 15.5672 20.8028 15.4376 20.983 15.2224C21.623 14.4581 22.106 13.7536 22.4244 13.2497L22.4487 13.2113C22.5669 13.0254 22.7203 12.7841 22.7975 12.4471C22.8599 12.1751 22.8599 11.8253 22.7976 11.5533C22.7204 11.2164 22.5677 10.976 22.45 10.7908L22.426 10.7528C21.8332 9.81429 20.6497 8.14818 18.9234 6.70743C17.1948 5.26472 14.8618 4 12.0002 4Z"
        fill="#303233" />
</svg>
