<svg width="16" height="16" viewBox="0 0 16 16" fill="none" xmlns="http://www.w3.org/2000/svg">
    <path d="M6 6.25C6 5.55964 6.55964 5 7.25 5H7.5V7.5H7.25C6.55964 7.5 6 6.94036 6 6.25Z"
        fill="#303233" />
    <path
        d="M8.5 11V8.5H9.25C9.94036 8.5 10.5 9.05964 10.5 9.75C10.5 10.4404 9.94036 11 9.25 11H8.5Z"
        fill="#303233" />
    <path fill-rule="evenodd" clip-rule="evenodd"
        d="M8 1C4.13401 1 1 4.13401 1 8C1 11.866 4.13401 15 8 15C11.866 15 15 11.866 15 8C15 4.13401 11.866 1 8 1ZM7.25 4H7.5V3.5C7.5 3.22386 7.72386 3 8 3C8.27614 3 8.5 3.22386 8.5 3.5V4H10.5C10.7761 4 11 4.22386 11 4.5C11 4.77614 10.7761 5 10.5 5H8.5V7.5H9.25C10.4926 7.5 11.5 8.50736 11.5 9.75C11.5 10.9926 10.4926 12 9.25 12H8.5V12.5C8.5 12.7761 8.27614 13 8 13C7.72386 13 7.5 12.7761 7.5 12.5V12H5.5C5.22386 12 5 11.7761 5 11.5C5 11.2239 5.22386 11 5.5 11H7.5V8.5H7.25C6.00736 8.5 5 7.49264 5 6.25C5 5.00736 6.00736 4 7.25 4Z"
        fill="#303233" />
</svg>
