<svg width="24" height="24" viewBox="0 0 24 24" fill="none" xmlns="http://www.w3.org/2000/svg">
    <path fill-rule="evenodd" clip-rule="evenodd"
        d="M2 5C2 3.34315 3.34315 2 5 2H19C20.6569 2 22 3.34315 22 5V19C22 20.6569 20.6569 22 19 22H5C3.34315 22 2 20.6569 2 19V5ZM9 8C9.55228 8 10 8.44772 10 9V15C10 15.5523 9.55228 16 9 16C8.44772 16 8 15.5523 8 15V9C8 8.44772 8.44772 8 9 8ZM16 9C16 8.44772 15.5523 8 15 8C14.4477 8 14 8.44772 14 9V15C14 15.5523 14.4477 16 15 16C15.5523 16 16 15.5523 16 15V9Z"
        fill="#303233" />
</svg>
