<svg width="24" height="24" viewBox="0 0 24 24" fill="none" xmlns="http://www.w3.org/2000/svg">
    <path fill-rule="evenodd" clip-rule="evenodd"
        d="M8.20514 5.28348C8.21687 5.29287 8.22865 5.30229 8.24046 5.31174L14.0822 9.98511C14.3286 10.1822 14.5625 10.3693 14.743 10.5422C14.9366 10.7276 15.1541 10.9742 15.2783 11.3152C15.4395 11.7575 15.4395 12.2425 15.2783 12.6848C15.1541 13.0258 14.9366 13.2724 14.743 13.4578C14.5625 13.6307 14.3286 13.8178 14.0822 14.0149L8.20511 18.7165C7.81231 19.0308 7.4645 19.3091 7.16942 19.5036C6.8811 19.6936 6.47265 19.9243 5.97971 19.9193C5.38639 19.9133 4.82637 19.6441 4.45102 19.1845C4.13918 18.8028 4.06416 18.3397 4.03242 17.9959C3.99995 17.6439 3.99997 17.1985 4 16.6954L4 7.34981C4 7.33468 4 7.3196 4 7.30457C3.99997 6.80151 3.99995 6.35606 4.03242 6.00415C4.06416 5.6603 4.13918 5.19725 4.45102 4.81545C4.82637 4.35591 5.38639 4.08675 5.97971 4.08073C6.47265 4.07573 6.8811 4.3064 7.16942 4.49643C7.46451 4.69091 7.81233 4.9692 8.20514 5.28348ZM6.02881 6.14057C6.02717 6.15509 6.02554 6.17086 6.02396 6.18793C6.00103 6.43642 6 6.78763 6 7.34981V16.6502C6 17.2124 6.00103 17.5636 6.02396 17.8121C6.02554 17.8291 6.02717 17.8449 6.02881 17.8594C6.04118 17.8516 6.05451 17.8431 6.06883 17.8336C6.27719 17.6963 6.55208 17.4777 6.99107 17.1265L12.8038 12.4763C13.0897 12.2476 13.2516 12.1169 13.3595 12.0136C13.3645 12.0088 13.3691 12.0043 13.3735 12C13.3691 11.9957 13.3645 11.9912 13.3595 11.9864C13.2516 11.8831 13.0897 11.7524 12.8038 11.5237L6.99107 6.87348C6.55208 6.52229 6.27719 6.30369 6.06883 6.16637C6.05451 6.15693 6.04118 6.14835 6.02881 6.14057Z"
        fill="#303233" />
    <path fill-rule="evenodd" clip-rule="evenodd"
        d="M19 4C19.5523 4 20 4.44772 20 5V19C20 19.5523 19.5523 20 19 20C18.4477 20 18 19.5523 18 19V5C18 4.44772 18.4477 4 19 4Z"
        fill="#303233" />
</svg>
