<svg width="16" height="16" viewBox="0 0 16 16" fill="none" xmlns="http://www.w3.org/2000/svg">
    <path
        d="M10 5.75C9.58579 5.75 9.25 6.08579 9.25 6.5C9.25 6.91421 9.58579 7.25 10 7.25H12C12.4142 7.25 12.75 6.91421 12.75 6.5C12.75 6.08579 12.4142 5.75 12 5.75H10Z"
        fill="#303233" />
    <path fill-rule="evenodd" clip-rule="evenodd"
        d="M6.33935 0.750001C6.03609 0.749985 5.76474 0.749972 5.53933 0.768389C5.29841 0.788073 5.04465 0.832477 4.79652 0.958907C4.43588 1.14266 4.14266 1.43588 3.95891 1.79652C3.83248 2.04465 3.78807 2.29841 3.76839 2.53933C3.74997 2.76475 3.74998 3.03607 3.75 3.33936L3.75 3.75611C3.57949 3.76028 3.42236 3.76729 3.27826 3.77906C2.90671 3.80942 2.55623 3.87517 2.22431 4.04428C1.71627 4.30314 1.30323 4.71619 1.04437 5.22423C0.875249 5.55614 0.8095 5.90662 0.779143 6.27817C0.750065 6.63407 0.750074 7.06944 0.750085 7.58969L0.750042 8.99627C0.749694 9.50564 0.749425 9.8983 0.842086 10.2441C1.09157 11.1752 1.81886 11.9046 2.75127 12.1544C3.03858 12.2314 3.35881 12.2464 3.75654 12.2493C3.75923 12.3224 3.76303 12.3919 3.76839 12.4575C3.78806 12.6984 3.83244 12.9523 3.95891 13.2005C4.14256 13.5609 4.43568 13.8544 4.79652 14.0383C5.04272 14.1637 5.29478 14.2093 5.53662 14.23C5.76989 14.2499 6.05065 14.25 6.36667 14.25H9.63334C9.94935 14.25 10.2301 14.2499 10.4634 14.23C10.7052 14.2093 10.9573 14.1637 11.2035 14.0383C11.5643 13.8544 11.8574 13.5609 12.0411 13.2005C12.1676 12.9523 12.2119 12.6984 12.2316 12.4575C12.237 12.3919 12.2408 12.3224 12.2435 12.2493C12.6413 12.2464 12.9616 12.2314 13.2489 12.1544C14.1813 11.9046 14.9086 11.1752 15.1581 10.2441C15.2507 9.89831 15.2505 9.50565 15.2501 8.99629L15.2501 7.58967C15.2501 7.06943 15.2501 6.63407 15.221 6.27817C15.1907 5.90662 15.1249 5.55614 14.9558 5.22423C14.6969 4.71619 14.2839 4.30314 13.7759 4.04428C13.4439 3.87517 13.0935 3.80942 12.7219 3.77906C12.5778 3.76728 12.4206 3.76028 12.25 3.75611V3.33936C12.25 3.03608 12.25 2.76475 12.2316 2.53933C12.2119 2.29841 12.1675 2.04465 12.0411 1.79652C11.8573 1.43588 11.5641 1.14266 11.2035 0.958907C10.9554 0.832477 10.7016 0.788073 10.4607 0.768389C10.2353 0.749972 9.96397 0.749985 9.6607 0.750001H6.33935ZM10.75 3.75V3.36667C10.75 3.0276 10.7494 2.8184 10.7366 2.66148C10.7247 2.5159 10.706 2.48017 10.7046 2.47761C10.6647 2.39921 10.6009 2.33536 10.5225 2.29542C10.5199 2.29408 10.4841 2.2753 10.3385 2.26341C10.1816 2.25059 9.97241 2.25 9.63334 2.25H6.36667C6.0276 2.25 5.8184 2.25059 5.66148 2.26341C5.5159 2.2753 5.48017 2.29402 5.47761 2.29536C5.39921 2.33531 5.33536 2.39911 5.29542 2.47751C5.29408 2.48007 5.2753 2.5159 5.26341 2.66148C5.25059 2.8184 5.25 3.0276 5.25 3.36667V3.75H10.75ZM3.75 10.7486C3.37961 10.7449 3.24236 10.7331 3.1395 10.7056C2.72606 10.5948 2.40211 10.2707 2.29097 9.85589C2.2565 9.72723 2.25009 9.55228 2.25009 8.9V7.62C2.25009 7.06157 2.25067 6.68786 2.27416 6.40032C2.29694 6.12153 2.33746 5.99043 2.38088 5.90521C2.49593 5.67942 2.6795 5.49584 2.9053 5.38079C2.99051 5.33738 3.12162 5.29686 3.4004 5.27408C3.68794 5.25059 4.06166 5.25 4.62009 5.25H11.3801C11.9385 5.25 12.3122 5.25059 12.5998 5.27408C12.8786 5.29686 13.0097 5.33738 13.0949 5.38079C13.3207 5.49584 13.5042 5.67942 13.6193 5.90521C13.6627 5.99043 13.7032 6.12153 13.726 6.40032C13.7495 6.68786 13.7501 7.06157 13.7501 7.62V8.9C13.7501 9.55228 13.7437 9.72723 13.7092 9.85589C13.5981 10.2707 13.2741 10.5948 12.8607 10.7056C12.7578 10.7331 12.6205 10.7449 12.25 10.7486V10.3394C12.25 10.0361 12.25 9.76474 12.2316 9.53933C12.2119 9.29841 12.1675 9.04465 12.0411 8.79652C11.8573 8.43588 11.5641 8.14266 11.2035 7.95891C10.9554 7.83248 10.7016 7.78807 10.4607 7.76839C10.2353 7.74997 9.96395 7.74999 9.66067 7.75H6.33935C6.03607 7.74999 5.76475 7.74997 5.53933 7.76839C5.29841 7.78807 5.04465 7.83248 4.79652 7.95891C4.43588 8.14266 4.14266 8.43588 3.95891 8.79652C3.83248 9.04465 3.78807 9.29841 3.76839 9.53933C3.74997 9.76475 3.74998 10.0361 3.75 10.3394L3.75 10.7486ZM5.47751 9.29542C5.39911 9.33536 5.33536 9.39911 5.29542 9.47751C5.29408 9.48007 5.2753 9.5159 5.26341 9.66148C5.25059 9.8184 5.25 10.0276 5.25 10.3667V11.63C5.25 11.9691 5.25058 12.1784 5.26341 12.3354C5.27531 12.4812 5.29406 12.5169 5.29536 12.5194C5.33541 12.598 5.39931 12.6619 5.47751 12.7017C5.48171 12.7039 5.51894 12.723 5.66419 12.7354C5.82001 12.7487 6.02929 12.75 6.36667 12.75H9.63334C9.97071 12.75 10.18 12.7487 10.3358 12.7354C10.4811 12.723 10.5181 12.704 10.5223 12.7018C10.6005 12.662 10.6645 12.5981 10.7046 12.5195C10.7059 12.517 10.7247 12.4812 10.7366 12.3354C10.7494 12.1784 10.75 11.9691 10.75 11.63V10.3667C10.75 10.0276 10.7494 9.8184 10.7366 9.66148C10.7247 9.5159 10.706 9.48017 10.7046 9.47761C10.6647 9.39921 10.6009 9.33536 10.5225 9.29542C10.5199 9.29408 10.4841 9.2753 10.3385 9.26341C10.1816 9.25059 9.97241 9.25 9.63334 9.25H6.36667C6.0276 9.25 5.8184 9.25059 5.66148 9.26341C5.5159 9.2753 5.48006 9.29408 5.47751 9.29542Z"
        fill="#303233" />
</svg>
