<svg width="24" height="24" viewBox="0 0 24 24" fill="none" xmlns="http://www.w3.org/2000/svg">
    <path fill-rule="evenodd" clip-rule="evenodd"
        d="M11 1C4.92487 1 0 5.92487 0 12C0 18.0751 4.92487 23 11 23C12.1061 23 13.1741 22.8367 14.1811 22.533L14.1852 22.5167C14.546 21.0997 15.4104 19.8835 16.5774 19.0713C16.2109 18.4671 16 17.7582 16 17C16 14.7909 17.7908 13 20 13C20.6882 13 21.3358 13.1738 21.9013 13.4799C21.9664 12.9959 22 12.5019 22 12C22 5.92487 17.0751 1 11 1ZM12 6C12 5.44772 11.5523 5 11 5C10.4477 5 10 5.44772 10 6V12C10 12.3788 10.214 12.725 10.5528 12.8944L14.5528 14.8944C15.0468 15.1414 15.6474 14.9412 15.8944 14.4472C16.1414 13.9532 15.9412 13.3526 15.4472 13.1056L12 11.382V6Z"
        fill="#303233" />
    <path
        d="M18 17C18 15.8954 18.8954 15 20 15C21.1046 15 22 15.8954 22 17C22 18.1046 21.1046 19 20 19C18.8954 19 18 18.1046 18 17Z"
        fill="#303233" />
    <path
        d="M23.8766 23.0101C23.4361 21.2798 21.8675 20 20 20C18.1325 20 16.5639 21.2798 16.1234 23.0101C15.9872 23.5453 16.4477 24 17 24H23C23.5523 24 24.0128 23.5453 23.8766 23.0101Z"
        fill="#303233" />
</svg>
