<svg width="24" height="24" viewBox="0 0 24 24" fill="none" xmlns="http://www.w3.org/2000/svg">
    <g clip-path="url(#clip0_53_5620)">
        <path
            d="M0.46967 0.46967C0.762563 0.176777 1.23744 0.176777 1.53033 0.46967L23.5303 22.4697C23.8232 22.7626 23.8232 23.2374 23.5303 23.5303C23.2374 23.8232 22.7626 23.8232 22.4697 23.5303L16.924 17.9847C15.7355 18.9626 14.2819 19.5648 12.75 19.7136V22.25H16C16.4142 22.25 16.75 22.5858 16.75 23C16.75 23.4142 16.4142 23.75 16 23.75H8C7.58579 23.75 7.25 23.4142 7.25 23C7.25 22.5858 7.58579 22.25 8 22.25H11.25V19.7136C9.46988 19.5406 7.79547 18.7556 6.51992 17.4801C5.06652 16.0267 4.25 14.0554 4.25 12V10C4.25 9.58579 4.58579 9.25 5 9.25C5.41421 9.25 5.75 9.58579 5.75 10V12C5.75 13.6576 6.40848 15.2473 7.58058 16.4194C8.75268 17.5915 10.3424 18.25 12 18.25C13.4056 18.25 14.7624 17.7765 15.8572 16.9178L14.0678 15.1284C13.4589 15.5308 12.7407 15.75 12 15.75C11.0054 15.75 10.0516 15.3549 9.34835 14.6517C8.64509 13.9484 8.25 12.9946 8.25 12V9.31067L0.46967 1.53033C0.176777 1.23744 0.176777 0.762563 0.46967 0.46967Z"
            fill="#303233" />
        <path
            d="M15.75 9.30901C15.75 9.97719 14.9421 10.3118 14.4697 9.83934L8.51797 3.88765C8.35943 3.7291 8.27577 3.50703 8.31841 3.28691C8.45965 2.55774 8.81556 1.88114 9.34835 1.34835C10.0516 0.645088 11.0054 0.25 12 0.25C12.9946 0.25 13.9484 0.645088 14.6517 1.34835C15.3549 2.05161 15.75 3.00544 15.75 4V9.30901Z"
            fill="#303233" />
        <path
            d="M19.7498 10C19.7498 9.58579 19.414 9.25 18.9998 9.25C18.5856 9.25 18.2498 9.58579 18.2498 10V11.9993C18.2495 12.3676 18.2166 12.7351 18.1516 13.0976C18.0784 13.5053 18.3496 13.8951 18.7573 13.9682C19.165 14.0414 19.5548 13.7701 19.628 13.3624C19.7086 12.913 19.7494 12.4566 19.7498 12V10Z"
            fill="#303233" />
    </g>
    <defs>
        <clipPath id="clip0_53_5620">
            <rect width="24" height="24" fill="white" />
        </clipPath>
    </defs>
</svg>
