<svg width="16" height="16" viewBox="0 0 16 16" fill="none" xmlns="http://www.w3.org/2000/svg">
    <g clip-path="url(#clip0_3961_206)">
        <path fill-rule="evenodd" clip-rule="evenodd"
            d="M3.52918 0.750001C3.19309 0.749986 2.89685 0.749974 2.65162 0.77001C2.39084 0.791316 2.12239 0.838964 1.86152 0.971882C1.47848 1.16705 1.16705 1.47848 0.971882 1.86152C0.838964 2.12239 0.791316 2.39084 0.77001 2.65162C0.749974 2.89685 0.749986 3.19305 0.750001 3.52915V8.47082C0.749986 8.80692 0.749974 9.10316 0.77001 9.34839C0.791316 9.60917 0.838964 9.87762 0.971882 10.1385C1.16705 10.5215 1.47848 10.833 1.86152 11.0281C2.12239 11.161 2.39084 11.2087 2.65162 11.23C2.89684 11.25 3.19304 11.25 3.52912 11.25H4.75V12.4708C4.74999 12.8069 4.74997 13.1031 4.77001 13.3484C4.79132 13.6092 4.83896 13.8776 4.97188 14.1385C5.16705 14.5215 5.47848 14.833 5.86152 15.0281C6.12239 15.161 6.39084 15.2087 6.65162 15.23C6.89685 15.25 7.19306 15.25 7.52917 15.25H12.4708C12.8069 15.25 13.1031 15.25 13.3484 15.23C13.6092 15.2087 13.8776 15.161 14.1385 15.0281C14.5215 14.833 14.833 14.5215 15.0281 14.1385C15.161 13.8776 15.2087 13.6092 15.23 13.3484C15.25 13.1031 15.25 12.8069 15.25 12.4708V7.52921C15.25 7.19311 15.25 6.89685 15.23 6.65162C15.2087 6.39084 15.161 6.12239 15.0281 5.86152C14.833 5.47848 14.5215 5.16705 14.1385 4.97188C13.8776 4.83896 13.6092 4.79132 13.3484 4.77001C13.1031 4.74997 12.8069 4.74999 12.4708 4.75H11.25V3.52917C11.25 3.19308 11.25 2.89684 11.23 2.65162C11.2087 2.39084 11.161 2.12239 11.0281 1.86152C10.833 1.47848 10.5215 1.16705 10.1385 0.971882C9.87762 0.838964 9.60917 0.791316 9.34839 0.77001C9.10316 0.749974 8.80695 0.749986 8.47086 0.750001H3.52918ZM9.75 4.75V3.55715C9.75 3.18474 9.74942 2.95053 9.73498 2.77376C9.72125 2.60575 9.69883 2.55667 9.69161 2.54251C9.64025 2.44171 9.5583 2.35975 9.4575 2.30839C9.44333 2.30117 9.39426 2.27876 9.22624 2.26503C9.04947 2.25059 8.81527 2.25 8.44286 2.25H3.55715C3.18474 2.25 2.95053 2.25059 2.77376 2.26503C2.60575 2.27876 2.55667 2.30117 2.54251 2.30839C2.44171 2.35975 2.35975 2.44171 2.30839 2.54251C2.30117 2.55667 2.27876 2.60575 2.26503 2.77376C2.25059 2.95053 2.25 3.18474 2.25 3.55715V8.44286C2.25 8.81527 2.25059 9.04947 2.26503 9.22624C2.27876 9.39426 2.30117 9.44333 2.30839 9.4575C2.35975 9.5583 2.44171 9.64025 2.54251 9.69161C2.55667 9.69883 2.60575 9.72125 2.77376 9.73498C2.95053 9.74942 3.18474 9.75 3.55715 9.75H4.75L4.75 7.52918C4.74999 7.19308 4.74997 6.89686 4.77001 6.65162C4.79132 6.39084 4.83896 6.12239 4.97188 5.86152C5.16705 5.47848 5.47848 5.16705 5.86152 4.97188C6.12239 4.83896 6.39084 4.79132 6.65162 4.77001C6.89686 4.74997 7.19307 4.74999 7.52918 4.75L9.75 4.75ZM6.54251 6.30839C6.55667 6.30118 6.60575 6.27876 6.77376 6.26503C6.95053 6.25059 7.18474 6.25 7.55715 6.25H12.4429C12.8153 6.25 13.0495 6.25059 13.2262 6.26503C13.3943 6.27876 13.4433 6.30118 13.4575 6.30839C13.5583 6.35975 13.6403 6.44171 13.6916 6.54251C13.6988 6.55667 13.7212 6.60575 13.735 6.77377C13.7494 6.95053 13.75 7.18474 13.75 7.55715V12.4429C13.75 12.8153 13.7494 13.0495 13.735 13.2262C13.7212 13.3943 13.6988 13.4433 13.6916 13.4575C13.6403 13.5583 13.5583 13.6403 13.4575 13.6916C13.4433 13.6988 13.3943 13.7212 13.2262 13.735C13.0495 13.7494 12.8153 13.75 12.4429 13.75H7.55715C7.18474 13.75 6.95053 13.7494 6.77377 13.735C6.60575 13.7212 6.55667 13.6988 6.54251 13.6916C6.44171 13.6403 6.35975 13.5583 6.30839 13.4575C6.30118 13.4433 6.27876 13.3943 6.26503 13.2262C6.25059 13.0495 6.25 12.8153 6.25 12.4429V7.55715C6.25 7.18474 6.25059 6.95053 6.26503 6.77376C6.27876 6.60575 6.30118 6.55667 6.30839 6.54251C6.35975 6.44171 6.44171 6.35975 6.54251 6.30839Z"
            fill="#303233" />
    </g>
    <defs>
        <clipPath id="clip0_3961_206">
            <rect width="16" height="16" fill="white" />
        </clipPath>
    </defs>
</svg>
