<svg width="24" height="24" viewBox="0 0 24 24" fill="none" xmlns="http://www.w3.org/2000/svg">
    <path fill-rule="evenodd" clip-rule="evenodd"
        d="M15.2413 1H8.7587C7.95374 0.999988 7.28937 0.999978 6.74818 1.04419C6.18608 1.09012 5.66937 1.18868 5.18404 1.43598C4.43139 1.81947 3.81947 2.43139 3.43598 3.18404C3.18868 3.66937 3.09012 4.18608 3.04419 4.74818C2.99998 5.28937 2.99999 5.95372 3 6.75869V17.2413C2.99999 18.0463 2.99998 18.7106 3.04419 19.2518C3.09012 19.8139 3.18868 20.3306 3.43598 20.816C3.81947 21.5686 4.43139 22.1805 5.18404 22.564C5.66937 22.8113 6.18608 22.9099 6.74818 22.9558C7.28936 23 7.95372 23 8.75868 23H15.2413C16.0463 23 16.7106 23 17.2518 22.9558C17.8139 22.9099 18.3306 22.8113 18.816 22.564C19.5686 22.1805 20.1805 21.5686 20.564 20.816C20.8113 20.3306 20.9099 19.8139 20.9558 19.2518C21 18.7106 21 18.0463 21 17.2413V6.75868C21 5.95372 21 5.28936 20.9558 4.74818C20.9099 4.18608 20.8113 3.66937 20.564 3.18404C20.1805 2.43139 19.5686 1.81947 18.816 1.43598C18.3306 1.18868 17.8139 1.09012 17.2518 1.04419C16.7106 0.999978 16.0463 0.999988 15.2413 1ZM7 8C7 7.44772 7.44772 7 8 7H9C9.55229 7 10 7.44772 10 8V9C10 9.55228 9.55229 10 9 10H8C7.44772 10 7 9.55228 7 9V8ZM11.5 7C10.9477 7 10.5 7.44772 10.5 8V9C10.5 9.55228 10.9477 10 11.5 10H12.5C13.0523 10 13.5 9.55228 13.5 9V8C13.5 7.44772 13.0523 7 12.5 7H11.5ZM15 7C14.4477 7 14 7.44772 14 8V9C14 9.55228 14.4477 10 15 10H16C16.5523 10 17 9.55228 17 9V8C17 7.44772 16.5523 7 16 7H15ZM11.5 14C10.9477 14 10.5 14.4477 10.5 15V16C10.5 16.5523 10.9477 17 11.5 17H12.5C13.0523 17 13.5 16.5523 13.5 16V15C13.5 14.4477 13.0523 14 12.5 14H11.5ZM14 15C14 14.4477 14.4477 14 15 14H16C16.5523 14 17 14.4477 17 15V16C17 16.5523 16.5523 17 16 17H15C14.4477 17 14 16.5523 14 16V15ZM8 14C7.44772 14 7 14.4477 7 15V16C7 16.5523 7.44772 17 8 17H9C9.55229 17 10 16.5523 10 16V15C10 14.4477 9.55229 14 9 14H8ZM10.5 11.5C10.5 10.9477 10.9477 10.5 11.5 10.5H12.5C13.0523 10.5 13.5 10.9477 13.5 11.5V12.5C13.5 13.0523 13.0523 13.5 12.5 13.5H11.5C10.9477 13.5 10.5 13.0523 10.5 12.5V11.5ZM15 10.5C14.4477 10.5 14 10.9477 14 11.5V12.5C14 13.0523 14.4477 13.5 15 13.5H16C16.5523 13.5 17 13.0523 17 12.5V11.5C17 10.9477 16.5523 10.5 16 10.5H15ZM7 11.5C7 10.9477 7.44772 10.5 8 10.5H9C9.55229 10.5 10 10.9477 10 11.5V12.5C10 13.0523 9.55229 13.5 9 13.5H8C7.44772 13.5 7 13.0523 7 12.5V11.5Z"
        fill="#303233" />
</svg>
