<svg width="24" height="24" viewBox="0 0 24 24" fill="none" xmlns="http://www.w3.org/2000/svg">
    <path fill-rule="evenodd" clip-rule="evenodd"
        d="M12 1.25C6.06294 1.25 1.25 6.06294 1.25 12C1.25 17.9371 6.06294 22.75 12 22.75C17.9371 22.75 22.75 17.9371 22.75 12C22.75 11.9601 22.7498 11.9203 22.7493 11.8804C22.7469 11.6538 22.6421 11.4405 22.4642 11.3C22.2864 11.1596 22.0545 11.1071 21.8335 11.1572C21.5662 11.2178 21.2873 11.25 21 11.25C18.9289 11.25 17.25 9.57107 17.25 7.5C17.25 7.08579 16.9142 6.75 16.5 6.75C14.4289 6.75 12.75 5.07107 12.75 3C12.75 2.71271 12.7822 2.43384 12.8428 2.16647C12.8929 1.94546 12.8404 1.71363 12.7 1.53578C12.5595 1.35793 12.3462 1.25312 12.1196 1.25065C12.0798 1.25022 12.0399 1.25 12 1.25ZM8.75 9.5C8.75 10.1904 8.19036 10.75 7.5 10.75C6.80964 10.75 6.25 10.1904 6.25 9.5C6.25 8.80964 6.80964 8.25 7.5 8.25C8.19036 8.25 8.75 8.80964 8.75 9.5ZM9.75 15.5C9.75 16.1904 9.19036 16.75 8.5 16.75C7.80964 16.75 7.25 16.1904 7.25 15.5C7.25 14.8096 7.80964 14.25 8.5 14.25C9.19036 14.25 9.75 14.8096 9.75 15.5ZM14.5 17.75C15.1904 17.75 15.75 17.1904 15.75 16.5C15.75 15.8096 15.1904 15.25 14.5 15.25C13.8096 15.25 13.25 15.8096 13.25 16.5C13.25 17.1904 13.8096 17.75 14.5 17.75ZM13.75 11.5C13.75 12.1904 13.1904 12.75 12.5 12.75C11.8096 12.75 11.25 12.1904 11.25 11.5C11.25 10.8096 11.8096 10.25 12.5 10.25C13.1904 10.25 13.75 10.8096 13.75 11.5Z"
        fill="#303233" />
</svg>
