<svg width="16" height="16" viewBox="0 0 16 16" fill="none" xmlns="http://www.w3.org/2000/svg">
    <path
        d="M3 2C1.89543 2 0.999992 2.89544 1 4.00001L1.00006 12C1.00006 13.1046 1.89549 14 3.00006 14H9.5C9.77614 14 10 13.7761 10 13.5C10 13.2239 9.77614 13 9.5 13L9.4986 13H3.00015C2.44787 13 2.00015 12.5523 2.00015 12V5C2.00015 4.44772 2.44787 4 3.00015 4H13.0002C13.5524 4 14.0002 4.44772 14.0002 5V5.98756L14 6C14 6.27614 14.2239 6.5 14.5 6.5C14.7761 6.5 15 6.27614 15 6L15.0001 5C15.0001 3.89543 14.1046 3 13.0001 3H9.20712C8.75441 3 8.32024 2.82014 8.00015 2.5C7.68006 2.17986 7.24589 2 6.79318 2H3Z"
        fill="#303233" />
    <path
        d="M13.5 8.5C13.7761 8.5 14 8.72386 14 9V10.5H15.5C15.7761 10.5 16 10.7239 16 11C16 11.2761 15.7761 11.5 15.5 11.5H14V13C14 13.2761 13.7761 13.5 13.5 13.5C13.2239 13.5 13 13.2761 13 13V11.5H11.5C11.2239 11.5 11 11.2761 11 11C11 10.7239 11.2239 10.5 11.5 10.5H13V9C13 8.72386 13.2239 8.5 13.5 8.5Z"
        fill="#303233" />
</svg>
