<svg width="24" height="24" viewBox="0 0 24 24" fill="none" xmlns="http://www.w3.org/2000/svg">
    <path
        d="M8.7587 1H15.2413C16.0463 0.999988 16.7106 0.999979 17.2518 1.0442C17.8139 1.09012 18.3306 1.18868 18.816 1.43598C19.5686 1.81947 20.1805 2.43139 20.564 3.18404C20.8113 3.66938 20.9099 4.18608 20.9558 4.74818C21 5.28937 21 5.95372 21 6.75868V13.1261C20.6803 13.0438 20.3451 13 19.9997 13C17.7906 13 15.9997 14.7909 15.9997 17C15.9997 17.7582 16.2107 18.4671 16.5771 19.0713C15.4101 19.8835 14.5457 21.0997 14.185 22.5167C14.1427 22.6827 14.115 22.8439 14.1005 23H8.75868C7.95372 23 7.28937 23 6.74818 22.9558C6.18608 22.9099 5.66938 22.8113 5.18404 22.564C4.43139 22.1805 3.81947 21.5686 3.43598 20.816C3.18868 20.3306 3.09012 19.8139 3.0442 19.2518C2.99998 18.7106 2.99999 18.0463 3 17.2413V6.7587C2.99999 5.95375 2.99998 5.28936 3.0442 4.74818C3.09012 4.18608 3.18868 3.66938 3.43598 3.18404C3.81947 2.43139 4.43139 1.81947 5.18404 1.43598C5.66938 1.18868 6.18608 1.09012 6.74818 1.0442C7.28936 0.999979 7.95375 0.999988 8.7587 1Z"
        fill="#303233" />
    <path
        d="M17.9998 17C17.9998 15.8954 18.8953 15 19.9998 15C21.1044 15 21.9998 15.8954 21.9998 17C21.9998 18.1046 21.1044 19 19.9998 19C18.8953 19 17.9998 18.1046 17.9998 17Z"
        fill="#303233" />
    <path
        d="M23.8764 23.0101C23.4359 21.2798 21.8673 20 19.9998 20C18.1324 20 16.5638 21.2798 16.1233 23.0101C15.987 23.5453 16.4476 24 16.9998 24H22.9998C23.5521 24 24.0127 23.5453 23.8764 23.0101Z"
        fill="#303233" />
</svg>
