<svg width="16" height="16" viewBox="0 0 16 16" fill="none" xmlns="http://www.w3.org/2000/svg">
    <path fill-rule="evenodd" clip-rule="evenodd"
        d="M6.75 3.83508L5.00804 5.56803C5.00023 5.5758 4.99213 5.58391 4.98375 5.5923C4.8955 5.68065 4.7759 5.80038 4.62926 5.88978C4.50258 5.96701 4.3646 6.02384 4.22039 6.05829C4.0536 6.09812 3.8845 6.09759 3.75928 6.0972C3.74739 6.09717 3.7359 6.09713 3.72484 6.09713H2.56667C2.4183 6.09713 2.32253 6.09745 2.25284 6.1001C2.25032 6.16875 2.25 6.26302 2.25 6.40828V9.59173C2.25 9.73698 2.25032 9.83126 2.25284 9.89991C2.32253 9.90255 2.4183 9.90287 2.56667 9.90287H3.72484C3.7359 9.90287 3.74739 9.90284 3.75928 9.9028C3.8845 9.90241 4.0536 9.90188 4.22039 9.94172C4.3646 9.97616 4.50258 10.033 4.62926 10.1102C4.7759 10.1996 4.8955 10.3194 4.98375 10.4077C4.99213 10.4161 5.00023 10.4242 5.00804 10.432L6.75 12.1649V3.83508ZM7.08198 1.75331C7.42607 1.72637 7.76347 1.86479 7.98919 2.1277C8.1946 2.36695 8.22558 2.65286 8.23706 2.78178C8.25007 2.92784 8.25004 3.10784 8.25001 3.28529C8.25001 3.29418 8.25 3.30308 8.25 3.31196L8.25001 12.7147C8.25004 12.8922 8.25007 13.0722 8.23706 13.2182C8.22558 13.3471 8.1946 13.633 7.98919 13.8723C7.76347 14.1352 7.42607 14.2736 7.08198 14.2467C6.76928 14.2222 6.54589 14.0434 6.44618 13.9603C6.33339 13.8664 6.20566 13.7393 6.07946 13.6137L3.95014 11.4954C3.92062 11.466 3.898 11.4435 3.87826 11.4242C3.87 11.4162 3.86295 11.4094 3.85689 11.4036C3.8483 11.4034 3.83822 11.4032 3.82629 11.4031C3.79859 11.4029 3.76657 11.4029 3.72484 11.4029L2.54382 11.4029C2.37701 11.4029 2.21016 11.4029 2.06805 11.3914C1.9108 11.3786 1.71923 11.348 1.52492 11.2496C1.25867 11.1146 1.04148 10.8989 0.905129 10.6326C0.805445 10.438 0.774521 10.246 0.761604 10.0887C0.749953 9.94685 0.749977 9.78041 0.750002 9.61465L0.750005 6.40828C0.750005 6.40064 0.750003 6.393 0.750002 6.38536C0.749977 6.2196 0.749953 6.05316 0.761604 5.91129C0.774521 5.75401 0.805445 5.56199 0.905129 5.36736C1.04148 5.10113 1.25867 4.88541 1.52492 4.75045C1.71923 4.65195 1.9108 4.62141 2.06805 4.60863C2.21016 4.59708 2.37702 4.5971 2.54384 4.59713C2.55145 4.59713 2.55906 4.59713 2.56667 4.59713H3.72484C3.76657 4.59713 3.79859 4.59712 3.82629 4.59687C3.83822 4.59677 3.8483 4.59662 3.85689 4.59644C3.86295 4.59065 3.87 4.58384 3.87826 4.57577C3.898 4.55648 3.92062 4.53398 3.95014 4.50462L6.0606 2.40508C6.06687 2.39884 6.07316 2.39258 6.07944 2.38633C6.20564 2.26073 6.33339 2.13361 6.44618 2.03967C6.54589 1.95662 6.76928 1.7778 7.08198 1.75331Z"
        fill="#303233" />
    <path fill-rule="evenodd" clip-rule="evenodd"
        d="M10.0685 4.81239C10.4088 4.57625 10.8761 4.6607 11.1123 5.001C11.7025 5.85162 12.0485 6.88649 12.0485 8C12.0485 9.11352 11.7025 10.1484 11.1123 10.999C10.8761 11.3393 10.4088 11.4238 10.0685 11.1876C9.72822 10.9515 9.64377 10.4842 9.87991 10.1439C10.3012 9.53669 10.5485 8.79866 10.5485 8C10.5485 7.20135 10.3012 6.46331 9.87991 5.85615C9.64377 5.51584 9.72822 5.04853 10.0685 4.81239Z"
        fill="#303233" />
</svg>
