<svg width="24" height="24" viewBox="0 0 24 24" fill="none" xmlns="http://www.w3.org/2000/svg">
    <g clip-path="url(#clip0_4728_3)">
        <path
            d="M19 16C18.4477 16 18 16.4477 18 17C18 17.5523 18.4477 18 19 18C19.5523 18 20.001 17.5523 20.001 17C20.001 16.4477 19.5523 16 19 16Z"
            fill="#303233" />
        <path fill-rule="evenodd" clip-rule="evenodd"
            d="M4.16146 3H15.8385C16.3657 2.99998 16.8205 2.99997 17.195 3.03057C17.5904 3.06287 17.9836 3.13419 18.362 3.32698C18.9265 3.6146 19.3854 4.07355 19.673 4.63803C19.8658 5.01641 19.9371 5.40963 19.9694 5.80498C19.9969 6.14076 19.9997 6.54099 20 7.00003C20.459 7.00031 20.8592 7.00314 21.195 7.03057C21.5904 7.06287 21.9836 7.13419 22.362 7.32698C22.9265 7.6146 23.3854 8.07354 23.673 8.63803C23.8658 9.01641 23.9371 9.40963 23.9694 9.80497C24 10.1795 24 10.6342 24 11.1613V16.8385C24 17.3656 24 17.8205 23.9694 18.195C23.9371 18.5904 23.8658 18.9836 23.673 19.362C23.3854 19.9265 22.9265 20.3854 22.362 20.673C21.9836 20.8658 21.5904 20.9371 21.195 20.9694C20.8205 21 20.3658 21 19.8387 21H18.1615C17.6344 21 17.1795 21 16.805 20.9694C16.4096 20.9371 16.0164 20.8658 15.638 20.673C15.0735 20.3854 14.6146 19.9265 14.327 19.362C14.1342 18.9836 14.0629 18.5904 14.0306 18.195C14.0254 18.1323 14.0212 18.0672 14.0176 18H4.16148C3.63434 18 3.17955 18 2.80498 17.9694C2.40963 17.9371 2.01641 17.8658 1.63803 17.673C1.07355 17.3854 0.614605 16.9265 0.326985 16.362C0.134191 15.9836 0.0628751 15.5904 0.0305741 15.195C-2.68985e-05 14.8205 -1.41413e-05 14.3658 6.47149e-07 13.8387V7.16146C-1.41413e-05 6.63437 -2.68985e-05 6.17951 0.0305741 5.80498C0.0628751 5.40963 0.134191 5.01641 0.326985 4.63803C0.614605 4.07355 1.07355 3.6146 1.63803 3.32698C2.01641 3.13419 2.40963 3.06287 2.80498 3.03057C3.17953 2.99997 3.63434 2.99998 4.16146 3ZM14 16V11.1615C14 10.6343 14 10.1795 14.0306 9.80497C14.0629 9.40963 14.1342 9.01641 14.327 8.63803C14.6146 8.07354 15.0735 7.6146 15.638 7.32698C16.0164 7.13419 16.4096 7.06287 16.805 7.03057C17.1407 7.00314 17.5409 7.00031 17.9999 7.00003C17.9995 6.53491 17.9964 6.21699 17.9761 5.96784C17.9539 5.69618 17.9162 5.59546 17.891 5.54601C17.7951 5.35785 17.6422 5.20487 17.454 5.109C17.4046 5.0838 17.3038 5.04613 17.0322 5.02393C16.7488 5.00078 16.3766 5 15.8 5H4.2C3.62345 5 3.25118 5.00078 2.96784 5.02393C2.69618 5.04613 2.59546 5.0838 2.54601 5.109C2.35785 5.20487 2.20487 5.35785 2.109 5.54601C2.08381 5.59546 2.04613 5.69618 2.02393 5.96784C2.00078 6.25118 2 6.62345 2 7.2V13.8C2 14.3766 2.00078 14.7488 2.02393 15.0322C2.04613 15.3038 2.08381 15.4046 2.109 15.454C2.20487 15.6422 2.35785 15.7951 2.54601 15.891C2.59546 15.9162 2.69618 15.9539 2.96784 15.9761C3.25118 15.9992 3.62345 16 4.2 16H14ZM16.546 9.109C16.5955 9.0838 16.6962 9.04613 16.9678 9.02393C17.2512 9.00078 17.6234 9 18.2 9H19.8C20.3766 9 20.7488 9.00078 21.0322 9.02393C21.3038 9.04613 21.4045 9.0838 21.454 9.109C21.6422 9.20487 21.7951 9.35785 21.891 9.54601C21.9162 9.59546 21.9539 9.69618 21.9761 9.96784C21.9992 10.2512 22 10.6234 22 11.2V16.8C22 17.3766 21.9992 17.7488 21.9761 18.0322C21.9539 18.3038 21.9162 18.4045 21.891 18.454C21.7951 18.6422 21.6422 18.7951 21.454 18.891C21.4045 18.9162 21.3038 18.9539 21.0322 18.9761C20.7488 18.9992 20.3766 19 19.8 19H18.2C17.6234 19 17.2512 18.9992 16.9678 18.9761C16.6962 18.9539 16.5955 18.9162 16.546 18.891C16.3579 18.7951 16.2049 18.6422 16.109 18.454C16.0838 18.4045 16.0461 18.3038 16.0239 18.0322C16.0008 17.7488 16 17.3766 16 16.8V11.2C16 10.6234 16.0008 10.2512 16.0239 9.96784C16.0461 9.69618 16.0838 9.59546 16.109 9.54601C16.2049 9.35785 16.3579 9.20487 16.546 9.109Z"
            fill="#303233" />
        <path
            d="M7 20C7 19.4477 7.44772 19 8 19H12C12.5523 19 13 19.4477 13 20C13 20.5523 12.5523 21 12 21H8C7.44772 21 7 20.5523 7 20Z"
            fill="#303233" />
    </g>
    <defs>
        <clipPath id="clip0_4728_3">
            <rect width="24" height="24" fill="white" />
        </clipPath>
    </defs>
</svg>
