<svg width="24" height="24" viewBox="0 0 24 24" fill="none" xmlns="http://www.w3.org/2000/svg">
    <path fill-rule="evenodd" clip-rule="evenodd"
        d="M12.75 2C12.75 1.58579 12.4142 1.25 12 1.25C11.5858 1.25 11.25 1.58579 11.25 2V3.25H10C7.37665 3.25 5.25 5.37665 5.25 8C5.25 10.6234 7.37665 12.75 10 12.75H11.25V19.25H6C5.58579 19.25 5.25 19.5858 5.25 20C5.25 20.4142 5.58579 20.75 6 20.75H11.25V22C11.25 22.4142 11.5858 22.75 12 22.75C12.4142 22.75 12.75 22.4142 12.75 22V20.75H15C17.6234 20.75 19.75 18.6234 19.75 16C19.75 13.3766 17.6234 11.25 15 11.25H12.75V4.75H18C18.4142 4.75 18.75 4.41421 18.75 4C18.75 3.58579 18.4142 3.25 18 3.25H12.75V2ZM11.25 4.75H10C8.20507 4.75 6.75 6.20507 6.75 8C6.75 9.79493 8.20507 11.25 10 11.25H11.25V4.75ZM12.75 12.75V19.25H15C16.7949 19.25 18.25 17.7949 18.25 16C18.25 14.2051 16.7949 12.75 15 12.75H12.75Z"
        fill="#303233" />
</svg>
