<svg width="24" height="24" viewBox="0 0 24 24" fill="none" xmlns="http://www.w3.org/2000/svg">
    <path fill-rule="evenodd" clip-rule="evenodd"
        d="M7.78799 2H16.212C17.0305 1.99999 17.7061 1.99998 18.2561 2.04565C18.8274 2.0931 19.3523 2.19496 19.8439 2.45035C20.5745 2.82985 21.1702 3.42553 21.5497 4.1561C21.805 4.64774 21.9069 5.17258 21.9543 5.74393C22 6.29393 22 6.96946 22 7.78798V16.212C22 17.0305 22 17.7061 21.9543 18.2561C21.9069 18.8274 21.805 19.3523 21.5497 19.8439C21.1702 20.5745 20.5745 21.1702 19.8439 21.5497C19.3523 21.805 18.8274 21.9069 18.2561 21.9543C17.7061 22 17.0305 22 16.212 22H7.78802C6.96951 22 6.29393 22 5.74393 21.9543C5.17258 21.9069 4.64774 21.805 4.1561 21.5497C3.42553 21.1702 2.82985 20.5745 2.45035 19.8439C2.19496 19.3523 2.0931 18.8274 2.04565 18.2561C1.99998 17.7061 1.99999 17.0305 2 16.212V7.78799C1.99999 6.96948 1.99998 6.29393 2.04565 5.74393C2.0931 5.17258 2.19496 4.64774 2.45035 4.1561C2.82985 3.42553 3.42553 2.82985 4.1561 2.45035C4.64774 2.19496 5.17258 2.0931 5.74393 2.04565C6.29393 1.99998 6.96948 1.99999 7.78799 2ZM5.90945 4.03879C5.46402 4.07578 5.23663 4.1428 5.07805 4.22517C4.71277 4.41493 4.41493 4.71277 4.22517 5.07805C4.1428 5.23663 4.07578 5.46402 4.03879 5.90945C4.0008 6.36686 4 6.95898 4 7.83V11H11V4H7.83C6.95898 4 6.36686 4.0008 5.90945 4.03879ZM13 4V11H20V7.83C20 6.95898 19.9992 6.36686 19.9612 5.90945C19.9242 5.46402 19.8572 5.23663 19.7748 5.07805C19.5851 4.71277 19.2872 4.41493 18.9219 4.22517C18.7634 4.1428 18.536 4.07578 18.0905 4.03879C17.6331 4.0008 17.041 4 16.17 4H13ZM11 13H4V16.17C4 17.041 4.0008 17.6331 4.03879 18.0905C4.07578 18.536 4.1428 18.7634 4.22517 18.9219C4.41493 19.2872 4.71277 19.5851 5.07805 19.7748C5.23663 19.8572 5.46402 19.9242 5.90945 19.9612C6.36686 19.9992 6.95898 20 7.83 20H11V13ZM13 20V13H20V16.17C20 17.041 19.9992 17.6331 19.9612 18.0905C19.9242 18.536 19.8572 18.7634 19.7748 18.9219C19.5851 19.2872 19.2872 19.5851 18.9219 19.7748C18.7634 19.8572 18.536 19.9242 18.0905 19.9612C17.6331 19.9992 17.041 20 16.17 20H13Z"
        fill="#303233" />
</svg>
