<svg width="24" height="24" viewBox="0 0 24 24" fill="none" xmlns="http://www.w3.org/2000/svg">
    <path fill-rule="evenodd" clip-rule="evenodd"
        d="M18.4697 3.46967C18.7626 3.17678 19.2374 3.17678 19.5303 3.46967L22.5303 6.46967C22.8232 6.76256 22.8232 7.23744 22.5303 7.53033C22.2374 7.82322 21.7626 7.82322 21.4697 7.53033L19.75 5.81066V16.5C19.75 18.8472 17.8472 20.75 15.5 20.75C13.1528 20.75 11.25 18.8472 11.25 16.5V7.5C11.25 5.98122 10.0188 4.75 8.5 4.75C6.98122 4.75 5.75 5.98122 5.75 7.5V18.1893L7.46967 16.4697C7.76256 16.1768 8.23744 16.1768 8.53033 16.4697C8.82322 16.7626 8.82322 17.2374 8.53033 17.5303L5.53033 20.5303C5.38968 20.671 5.19891 20.75 5 20.75C4.80109 20.75 4.61032 20.671 4.46967 20.5303L1.46967 17.5303C1.17678 17.2374 1.17678 16.7626 1.46967 16.4697C1.76256 16.1768 2.23744 16.1768 2.53033 16.4697L4.25 18.1893L4.25 7.5C4.25 5.15279 6.15279 3.25 8.5 3.25C10.8472 3.25 12.75 5.15279 12.75 7.5V16.5C12.75 18.0188 13.9812 19.25 15.5 19.25C17.0188 19.25 18.25 18.0188 18.25 16.5V5.81066L16.5303 7.53033C16.2374 7.82322 15.7626 7.82322 15.4697 7.53033C15.1768 7.23744 15.1768 6.76256 15.4697 6.46967L18.4697 3.46967Z"
        fill="#303233" />
</svg>
