<svg width="24" height="16" viewBox="0 0 24 16" fill="none" xmlns="http://www.w3.org/2000/svg">
    <path fill-rule="evenodd" clip-rule="evenodd"
        d="M2.54865 5.42703C2.18288 6.03874 2 6.89009 2 7.98108C2 9.08468 2.18288 9.94865 2.54865 10.573C2.92072 11.191 3.55766 11.5 4.45946 11.5C5.36126 11.5 5.99504 11.191 6.36081 10.573C6.73288 9.94865 6.91892 9.08468 6.91892 7.98108C6.91892 6.89009 6.73288 6.03874 6.36081 5.42703C5.99504 4.80901 5.36126 4.5 4.45946 4.5C3.55766 4.5 2.92072 4.80901 2.54865 5.42703ZM5.7554 6.68514C5.82477 7.03829 5.85946 7.47027 5.85946 7.98108C5.85946 8.51081 5.82793 8.95541 5.76486 9.31486C5.7018 9.67432 5.56622 9.96441 5.35811 10.1851C5.15631 10.4059 4.85676 10.5162 4.45946 10.5162C4.06216 10.5162 3.75946 10.4059 3.55135 10.1851C3.34955 9.96441 3.21712 9.67432 3.15405 9.31486C3.09099 8.95541 3.05946 8.51081 3.05946 7.98108C3.05946 7.47027 3.09099 7.03829 3.15405 6.68514C3.22342 6.33198 3.35901 6.04505 3.56081 5.82432C3.76261 5.5973 4.06216 5.48378 4.45946 5.48378C4.85676 5.48378 5.15631 5.5973 5.35811 5.82432C5.55991 6.04505 5.69234 6.33198 5.7554 6.68514Z"
        fill="#303233" />
    <path
        d="M14.3785 5.47159H11.1791V7.37213C11.3128 7.19385 11.5102 7.04423 11.7712 6.92326C12.0386 6.80228 12.3219 6.7418 12.6212 6.7418C13.156 6.7418 13.589 6.8564 13.9201 7.08562C14.2575 7.31483 14.4963 7.60452 14.6363 7.95471C14.7828 8.30489 14.856 8.67418 14.856 9.06256C14.856 9.53372 14.7637 9.95394 14.579 10.3232C14.4008 10.6861 14.1302 10.9727 13.7673 11.1828C13.4107 11.3929 12.9714 11.4979 12.4493 11.4979C11.7553 11.4979 11.1982 11.326 10.778 10.9822C10.3577 10.6384 10.1062 10.1831 10.0235 9.61649H11.0836C11.1536 9.91574 11.3096 10.1545 11.5515 10.3328C11.7935 10.5047 12.0959 10.5906 12.4588 10.5906C12.9109 10.5906 13.2483 10.4537 13.4712 10.18C13.7004 9.90619 13.815 9.54327 13.815 9.09121C13.815 8.63279 13.7004 8.28261 13.4712 8.04066C13.242 7.79235 12.9045 7.66819 12.4588 7.66819C12.1469 7.66819 11.8826 7.74778 11.6661 7.90696C11.456 8.05976 11.3032 8.26987 11.2077 8.53729H10.1763V4.51654H14.3785V5.47159Z"
        fill="#303233" />
    <path
        d="M16.6464 6.64645C16.8417 6.45118 17.1583 6.45118 17.3536 6.64645L19 8.29289L20.6464 6.64645C20.8417 6.45118 21.1583 6.45118 21.3536 6.64645C21.5488 6.84171 21.5488 7.15829 21.3536 7.35355L19.7071 9L21.3536 10.6464C21.5488 10.8417 21.5488 11.1583 21.3536 11.3536C21.1583 11.5488 20.8417 11.5488 20.6464 11.3536L19 9.70711L17.3536 11.3536C17.1583 11.5488 16.8417 11.5488 16.6464 11.3536C16.4512 11.1583 16.4512 10.8417 16.6464 10.6464L18.2929 9L16.6464 7.35355C16.4512 7.15829 16.4512 6.84171 16.6464 6.64645Z"
        fill="#303233" />
    <path
        d="M8.5 11.5C8.77614 11.5 9 11.2761 9 11C9 10.7239 8.77614 10.5 8.5 10.5C8.22386 10.5 8 10.7239 8 11C8 11.2761 8.22386 11.5 8.5 11.5Z"
        fill="#303233" />
</svg>
