<svg width="16" height="16" viewBox="0 0 16 16" fill="none" xmlns="http://www.w3.org/2000/svg">
    <path
        d="M2.24185 6.2359C2.71844 5.76589 3.36702 5.5 4.04545 5.5H6.02273C6.43694 5.5 6.77273 5.16421 6.77273 4.75C6.77273 4.33579 6.43694 4 6.02273 4H4.04545C2.97587 4 1.94803 4.41893 1.18858 5.1679C0.428784 5.91722 0 6.93575 0 8C0 9.06425 0.428784 10.0828 1.18858 10.8321C1.5647 11.203 2.01065 11.4967 2.50072 11.6969C2.99076 11.8971 3.51563 12 4.04545 12H6.02273C6.43694 12 6.77273 11.6642 6.77273 11.25C6.77273 10.8358 6.43694 10.5 6.02273 10.5H4.04545C3.70975 10.5 3.37756 10.4348 3.06796 10.3083C2.75838 10.1818 2.47776 9.99675 2.24185 9.7641C1.76561 9.29443 1.5 8.65965 1.5 8C1.5 7.34035 1.76561 6.70557 2.24185 6.2359Z"
        fill="#303233" />
    <path
        d="M9.97727 4C9.56306 4 9.22727 4.33579 9.22727 4.75C9.22727 5.16421 9.56306 5.5 9.97727 5.5H11.9545C12.2903 5.5 12.6224 5.56522 12.932 5.6917C13.2416 5.81816 13.5222 6.00325 13.7582 6.2359C13.994 6.46853 14.1806 6.74414 14.3077 7.04671C14.4347 7.34925 14.5 7.67315 14.5 8C14.5 8.32685 14.4347 8.65075 14.3077 8.95329C14.1806 9.25586 13.994 9.53147 13.7582 9.7641C13.5222 9.99675 13.2416 10.1818 12.932 10.3083C12.6224 10.4348 12.2903 10.5 11.9545 10.5H9.97727C9.56306 10.5 9.22727 10.8358 9.22727 11.25C9.22727 11.6642 9.56306 12 9.97727 12H11.9545C12.4844 12 13.0092 11.8971 13.4993 11.6969C13.9893 11.4967 14.4353 11.203 14.8114 10.8321C15.1876 10.4611 15.4865 10.0202 15.6906 9.53415C15.8948 9.04808 16 8.52674 16 8C16 7.47326 15.8948 6.95192 15.6906 6.46585C15.4865 5.9798 15.1876 5.53885 14.8114 5.1679C14.4353 4.79697 13.9893 4.50328 13.4993 4.30309C13.0092 4.1029 12.4844 4 11.9545 4H9.97727Z"
        fill="#303233" />
    <path
        d="M5.36328 7.25C4.94907 7.25 4.61328 7.58579 4.61328 8C4.61328 8.41421 4.94907 8.75 5.36328 8.75H10.636C11.0502 8.75 11.386 8.41421 11.386 8C11.386 7.58579 11.0502 7.25 10.636 7.25H5.36328Z"
        fill="#303233" />
</svg>
