<svg width="16" height="16" viewBox="0 0 16 16" fill="none" xmlns="http://www.w3.org/2000/svg">
    <path
        d="M9.14902 1.56222C9.17663 1.3421 9.05589 1.13011 8.85248 1.04156C8.64908 0.953004 8.41164 1.00907 8.26933 1.17926L6.71996 3.03212C6.54282 3.24396 6.57095 3.55929 6.78279 3.73643C6.99463 3.91357 7.30996 3.88544 7.4871 3.6736L7.94504 3.12596L7.77761 4.46083C7.74324 4.73482 7.9375 4.9848 8.21149 5.01917C8.48549 5.05353 8.73546 4.85928 8.76983 4.58528L9.14902 1.56222Z"
        fill="#303233" />
    <path
        d="M13.6931 6.3828C13.5261 6.24831 13.3302 6.22165 13.2127 6.21105C13.0898 6.19996 12.9371 6.19998 12.7765 6.2L10.4507 6.2C10.1745 6.2 9.95066 6.42385 9.95066 6.7C9.95066 6.97614 10.1745 7.2 10.4507 7.2L12.8009 7.20001L11.9297 8.24188C11.7526 8.45372 11.7807 8.76905 11.9925 8.94619C12.2044 9.12333 12.5197 9.0952 12.6969 8.88336L13.5539 7.85847C13.6566 7.73563 13.7545 7.61857 13.8247 7.51727C13.8918 7.42046 13.9973 7.25256 14.0006 7.03746C14.0044 6.78324 13.8907 6.54192 13.6931 6.3828Z"
        fill="#303233" />
    <path fill-rule="evenodd" clip-rule="evenodd"
        d="M1.64645 1.64645C1.84171 1.45118 2.15829 1.45118 2.35355 1.64645L14.3536 13.6464C14.5488 13.8417 14.5488 14.1583 14.3536 14.3536C14.1583 14.5488 13.8417 14.5488 13.6464 14.3536L10.6378 11.3449L7.73133 14.8207C7.58902 14.9909 7.35158 15.047 7.14818 14.9584C6.94477 14.8699 6.82404 14.6579 6.85165 14.4378L7.43337 9.8L3.22415 9.8C3.06359 9.80002 2.91084 9.80003 2.78795 9.78895C2.67047 9.77835 2.47453 9.75169 2.30753 9.6172C2.10994 9.45807 1.99625 9.21675 2.00009 8.96253C2.00335 8.74744 2.10883 8.57954 2.17592 8.48273C2.24614 8.38142 2.34402 8.26439 2.44677 8.14154L4.71815 5.42525L1.64645 2.35355C1.45118 2.15829 1.45118 1.84171 1.64645 1.64645ZM8.48911 9.19622L9.92791 10.635L8.05562 12.874L8.49611 9.36222C8.50313 9.30628 8.50057 9.25021 8.48911 9.19622ZM5.42806 6.13517L8.10377 8.81088C8.06994 8.8037 8.03518 8.8 8 8.8L3.19974 8.79998L5.42806 6.13517Z"
        fill="#303233" />
</svg>
