<svg width="24" height="24" viewBox="0 0 24 24" fill="none" xmlns="http://www.w3.org/2000/svg">
    <path fill-rule="evenodd" clip-rule="evenodd"
        d="M3.05192 20.057C3.05607 20.0478 3.06023 20.0386 3.0644 20.0293L10.5995 3.28444C10.7045 3.05115 10.8032 2.83179 10.898 2.6634C10.9874 2.50441 11.1498 2.24325 11.4466 2.0965C11.7958 1.92387 12.2055 1.92387 12.5546 2.0965C12.8514 2.24325 13.0138 2.50441 13.1033 2.6634C13.1981 2.83179 13.2967 3.05117 13.4017 3.28449L20.9467 20.0512C21.0545 20.2907 21.1553 20.5146 21.2197 20.7003C21.2798 20.8739 21.37 21.1741 21.2797 21.4977C21.174 21.8764 20.8963 22.1833 20.53 22.3262C20.217 22.4483 19.9094 22.3885 19.7306 22.3459C19.5394 22.3004 19.3066 22.2224 19.0576 22.139L12.054 19.7945L12.0382 19.7892L12.0224 19.7944L4.96614 22.1365C4.9565 22.1397 4.94689 22.1429 4.93729 22.146C4.6889 22.2285 4.45647 22.3057 4.26551 22.3506C4.08682 22.3927 3.77974 22.4515 3.46752 22.329C3.10191 22.1856 2.82494 21.8788 2.71967 21.5004C2.62977 21.1773 2.71967 20.8778 2.77976 20.7044C2.84397 20.519 2.94449 20.2957 3.05192 20.057ZM4.38566 20.7486C4.41965 20.7374 4.45558 20.7255 4.49363 20.7128L11.2506 18.4701V13.4986C11.2506 13.0844 11.5864 12.7486 12.0006 12.7486C12.4148 12.7486 12.7506 13.0844 12.7506 13.4986V18.4458L19.5049 20.707C19.543 20.7197 19.5791 20.7318 19.6132 20.7431C19.5985 20.7104 19.5829 20.6757 19.5664 20.639L12.0462 3.92757C12.0302 3.89189 12.015 3.85821 12.0006 3.82639C11.9862 3.85821 11.9711 3.89189 11.955 3.92757L4.43228 20.6449C4.41583 20.6814 4.40031 20.7159 4.38566 20.7486Z"
        fill="#303233" />
</svg>
