<svg width="24" height="24" viewBox="0 0 24 24" fill="none" xmlns="http://www.w3.org/2000/svg">
    <path fill-rule="evenodd" clip-rule="evenodd"
        d="M15.0002 2C11.1342 2 8.00019 5.13401 8.00019 9C8.00019 9.31836 8.02151 9.63227 8.06292 9.94028C8.09317 10.1653 8.11193 10.3061 8.12184 10.4087C8.1236 10.427 8.12485 10.442 8.12574 10.4541L8.11684 10.464C8.06813 10.5175 7.99814 10.5878 7.87222 10.7138L2.76171 15.8243L2.72556 15.8603C2.59091 15.9942 2.42137 16.1629 2.29491 16.3692C2.18525 16.5482 2.10444 16.7432 2.05545 16.9473C1.99895 17.1827 1.99959 17.4218 2.0001 17.6117L2.00019 17.6627L2.00019 19.4319C2.00016 19.6843 2.00013 19.9301 2.01714 20.1382C2.03581 20.3668 2.07988 20.6366 2.21818 20.908C2.40993 21.2843 2.71589 21.5903 3.09221 21.782C3.36363 21.9203 3.63337 21.9644 3.86196 21.9831C4.07008 22.0001 4.31582 22 4.56816 22L7.00019 22C7.55248 22 8.00019 21.5523 8.00019 21V20H9.00019C9.55248 20 10.0002 19.5523 10.0002 19V18H11.0002C11.2654 18 11.5198 17.8946 11.7073 17.7071L13.2864 16.128C13.4124 16.0021 13.4827 15.9321 13.5362 15.8833L13.5461 15.8745C13.5582 15.8753 13.5732 15.8766 13.5915 15.8784C13.6941 15.8883 13.8349 15.907 14.0599 15.9373C14.3679 15.9787 14.6818 16 15.0002 16C18.8662 16 22.0002 12.866 22.0002 9C22.0002 5.13401 18.8662 2 15.0002 2ZM15 8C14.4477 8 14 8.44772 14 9C14 9.55228 14.4477 10 15 10H15.01C15.5623 10 16.01 9.55228 16.01 9C16.01 8.44772 15.5623 8 15.01 8H15Z"
        fill="#303233" />
</svg>
