<svg width="24" height="24" viewBox="0 0 24 24" fill="none" xmlns="http://www.w3.org/2000/svg">
    <path
        d="M7.53033 5.46967C7.23744 5.17678 6.76256 5.17678 6.46967 5.46967C6.17678 5.76256 6.17678 6.23744 6.46967 6.53033L11.4697 11.5303C11.7626 11.8232 12.2374 11.8232 12.5303 11.5303L17.5303 6.53033C17.8232 6.23744 17.8232 5.76256 17.5303 5.46967C17.2374 5.17678 16.7626 5.17678 16.4697 5.46967L12 9.93934L7.53033 5.46967Z"
        fill="#303233" />
    <path
        d="M7.53033 12.4697C7.23744 12.1768 6.76256 12.1768 6.46967 12.4697C6.17678 12.7626 6.17678 13.2374 6.46967 13.5303L11.4697 18.5303C11.7626 18.8232 12.2374 18.8232 12.5303 18.5303L17.5303 13.5303C17.8232 13.2374 17.8232 12.7626 17.5303 12.4697C17.2374 12.1768 16.7626 12.1768 16.4697 12.4697L12 16.9393L7.53033 12.4697Z"
        fill="#303233" />
</svg>
