<svg width="16" height="16" viewBox="0 0 16 16" fill="none" xmlns="http://www.w3.org/2000/svg">
    <path
        d="M5 2.5C5 2.22386 4.77614 2 4.5 2C4.22386 2 4 2.22386 4 2.5V12.2929L2.35355 10.6464C2.15829 10.4512 1.84171 10.4512 1.64645 10.6464C1.45118 10.8417 1.45118 11.1583 1.64645 11.3536L4.14645 13.8536C4.34171 14.0488 4.65829 14.0488 4.85355 13.8536L7.35355 11.3536C7.54882 11.1583 7.54882 10.8417 7.35355 10.6464C7.15829 10.4512 6.84171 10.4512 6.64645 10.6464L5 12.2929V2.5Z"
        fill="#303233" />
    <path
        d="M8.5 2C8.22386 2 8 2.22386 8 2.5C8 2.77614 8.22386 3 8.5 3H14C14.2761 3 14.5 2.77614 14.5 2.5C14.5 2.22386 14.2761 2 14 2H8.5Z"
        fill="#303233" />
    <path
        d="M8 5.5C8 5.22386 8.22386 5 8.5 5H11.25C11.5261 5 11.75 5.22386 11.75 5.5C11.75 5.77614 11.5261 6 11.25 6H8.5C8.22386 6 8 5.77614 8 5.5Z"
        fill="#303233" />
    <path
        d="M8.5 8C8.22386 8 8 8.22386 8 8.5C8 8.77614 8.22386 9 8.5 9H9.5C9.77614 9 10 8.77614 10 8.5C10 8.22386 9.77614 8 9.5 8H8.5Z"
        fill="#303233" />
</svg>
