<svg width="24" height="24" viewBox="0 0 24 24" fill="none" xmlns="http://www.w3.org/2000/svg">
    <path fill-rule="evenodd" clip-rule="evenodd"
        d="M3.86667 4C2.21959 4 1 5.40925 1 7V17C1 18.5908 2.21959 20 3.86667 20H14.1333C15.7804 20 17 18.5908 17 17V15.618L21.5528 17.8944C21.8628 18.0494 22.2309 18.0329 22.5257 17.8507C22.8205 17.6684 23 17.3466 23 17V7C23 6.65342 22.8205 6.33156 22.5257 6.14935C22.2309 5.96714 21.8628 5.95058 21.5528 6.10557L17 8.38197V7C17 5.40925 15.7804 4 14.1333 4H3.86667ZM9 8C9.55229 8 10 8.44772 10 9V11H12C12.5523 11 13 11.4477 13 12C13 12.5523 12.5523 13 12 13H10V15C10 15.5523 9.55229 16 9 16C8.44772 16 8 15.5523 8 15V13H6C5.44772 13 5 12.5523 5 12C5 11.4477 5.44772 11 6 11H8V9C8 8.44772 8.44772 8 9 8Z"
        fill="#303233" />
</svg>
