<svg width="16" height="16" viewBox="0 0 16 16" fill="none" xmlns="http://www.w3.org/2000/svg">
    <path fill-rule="evenodd" clip-rule="evenodd"
        d="M6.5 0.75C5.5335 0.75 4.75 1.5335 4.75 2.5V3.25H2C1.58579 3.25 1.25 3.58579 1.25 4C1.25 4.41421 1.58579 4.75 2 4.75H2.75V13C2.75 14.2426 3.75736 15.25 5 15.25H11C12.2426 15.25 13.25 14.2426 13.25 13V4.75H14C14.4142 4.75 14.75 4.41421 14.75 4C14.75 3.58579 14.4142 3.25 14 3.25H11.25V2.5C11.25 1.5335 10.4665 0.75 9.5 0.75H6.5ZM9.75 3.25V2.5C9.75 2.36193 9.63807 2.25 9.5 2.25H6.5C6.36193 2.25 6.25 2.36193 6.25 2.5V3.25H9.75Z"
        fill="#303233" />
</svg>
