<svg width="16" height="16" viewBox="0 0 16 16" fill="none" xmlns="http://www.w3.org/2000/svg">
    <path
        d="M3 2C1.89542 2 0.999992 2.89544 1 4.00001L1.00006 12C1.00006 13.1046 1.89549 14 3.00006 14H13.0001C14.1046 14 15.0001 13.1046 15.0001 12V9C15 9 15.0001 9 15.0001 9H9.70711L10.8536 10.1464C11.0488 10.3417 11.0488 10.6583 10.8536 10.8536C10.6583 11.0488 10.3417 11.0488 10.1464 10.8536L8.14645 8.85355C7.95118 8.65829 7.95118 8.34171 8.14645 8.14645L10.1464 6.14645C10.3417 5.95118 10.6583 5.95118 10.8536 6.14645C11.0488 6.34171 11.0488 6.65829 10.8536 6.85355L9.70711 8H15C15 8 15 8 15 8L15.0001 5C15.0001 3.89543 14.1046 3 13.0001 3H9.20712C8.75441 3 8.32024 2.82014 8.00015 2.5C7.68006 2.17986 7.24589 2 6.79318 2H3Z"
        fill="#303233" />
</svg>
