<svg width="16" height="16" viewBox="0 0 16 16" fill="none" xmlns="http://www.w3.org/2000/svg">
    <g clip-path="url(#clip0_53_7134)">
        <path
            d="M3.08334 0.750001C2.82154 0.749983 2.58105 0.749967 2.38016 0.76665C2.16348 0.784644 1.92656 0.825859 1.6933 0.94703C1.37367 1.11306 1.11306 1.37367 0.94703 1.6933C0.825859 1.92656 0.784644 2.16348 0.76665 2.38016C0.749967 2.58105 0.749983 2.82148 0.750001 3.08328V4.91667C0.749983 5.17847 0.749967 5.41896 0.76665 5.61984C0.784644 5.83652 0.825859 6.07344 0.94703 6.30671C1.11306 6.62633 1.37367 6.88694 1.6933 7.05298C1.92656 7.17415 2.16348 7.21536 2.38016 7.23336C2.58106 7.25004 2.82151 7.25002 3.08332 7.25H4.91667C5.17848 7.25002 5.41895 7.25004 5.61984 7.23336C5.83652 7.21536 6.07344 7.17415 6.30671 7.05298C6.62633 6.88694 6.88694 6.62633 7.05298 6.30671C7.17415 6.07344 7.21536 5.83652 7.23336 5.61984C7.25004 5.41895 7.25002 5.1785 7.25 4.91669V3.08334C7.25002 2.82152 7.25004 2.58106 7.23336 2.38016C7.21536 2.16348 7.17415 1.92656 7.05298 1.6933C6.88694 1.37367 6.62633 1.11306 6.30671 0.94703C6.07344 0.825859 5.83652 0.784644 5.61984 0.76665C5.41896 0.749967 5.17852 0.749983 4.91673 0.750001H3.08334Z"
            fill="#303233" />
        <path
            d="M11.0833 0.750001C10.8215 0.749983 10.5811 0.749967 10.3802 0.76665C10.1635 0.784644 9.92656 0.825859 9.6933 0.94703C9.37367 1.11306 9.11306 1.37367 8.94703 1.6933C8.82586 1.92656 8.78464 2.16348 8.76665 2.38016C8.74997 2.58106 8.74998 2.8215 8.75 3.08331V4.91667C8.74998 5.17848 8.74997 5.41895 8.76665 5.61984C8.78464 5.83652 8.82586 6.07344 8.94703 6.30671C9.11306 6.62633 9.37367 6.88694 9.6933 7.05298C9.92656 7.17415 10.1635 7.21536 10.3802 7.23336C10.5811 7.25004 10.8215 7.25002 11.0833 7.25H12.9167C13.1785 7.25002 13.4189 7.25004 13.6198 7.23336C13.8365 7.21536 14.0734 7.17415 14.3067 7.05298C14.6263 6.88694 14.8869 6.62633 15.053 6.30671C15.1741 6.07344 15.2154 5.83652 15.2334 5.61984C15.25 5.41894 15.25 5.17849 15.25 4.91667V3.08334C15.25 2.82152 15.25 2.58107 15.2334 2.38016C15.2154 2.16348 15.1741 1.92656 15.053 1.6933C14.8869 1.37367 14.6263 1.11306 14.3067 0.94703C14.0734 0.825859 13.8365 0.784644 13.6198 0.76665C13.419 0.749967 13.1785 0.749983 12.9167 0.750001H11.0833Z"
            fill="#303233" />
        <path
            d="M3.08334 8.75H4.91667C5.17848 8.74998 5.41895 8.74997 5.61984 8.76665C5.83652 8.78464 6.07344 8.82586 6.30671 8.94703C6.62633 9.11306 6.88694 9.37367 7.05298 9.6933C7.17415 9.92656 7.21536 10.1635 7.23336 10.3802C7.25004 10.5811 7.25002 10.8215 7.25 11.0833V12.9167C7.25002 13.1785 7.25004 13.4189 7.23336 13.6198C7.21536 13.8365 7.17415 14.0734 7.05298 14.3067C6.88694 14.6263 6.62633 14.8869 6.30671 15.053C6.07344 15.1741 5.83652 15.2154 5.61984 15.2334C5.41894 15.25 5.17849 15.25 4.91667 15.25H3.08334C2.82152 15.25 2.58107 15.25 2.38016 15.2334C2.16348 15.2154 1.92656 15.1741 1.6933 15.053C1.37367 14.8869 1.11306 14.6263 0.94703 14.3067C0.825859 14.0734 0.784644 13.8365 0.76665 13.6198C0.749967 13.419 0.749983 13.1785 0.750001 12.9167V11.0833C0.749983 10.8215 0.749967 10.5811 0.76665 10.3802C0.784644 10.1635 0.825859 9.92656 0.94703 9.6933C1.11306 9.37367 1.37367 9.11306 1.6933 8.94703C1.92656 8.82586 2.16348 8.78464 2.38016 8.76665C2.58106 8.74997 2.82153 8.74998 3.08334 8.75Z"
            fill="#303233" />
        <path
            d="M11.0833 8.75C10.8215 8.74998 10.5811 8.74997 10.3802 8.76665C10.1635 8.78464 9.92656 8.82586 9.6933 8.94703C9.37367 9.11306 9.11306 9.37367 8.94703 9.6933C8.82586 9.92656 8.78464 10.1635 8.76665 10.3802C8.74997 10.5811 8.74998 10.8215 8.75 11.0833V12.9167C8.74998 13.1785 8.74997 13.4189 8.76665 13.6198C8.78464 13.8365 8.82586 14.0734 8.94703 14.3067C9.11306 14.6263 9.37367 14.8869 9.6933 15.053C9.92656 15.1741 10.1635 15.2154 10.3802 15.2334C10.5811 15.25 10.8215 15.25 11.0833 15.25H12.9167C13.1785 15.25 13.4189 15.25 13.6198 15.2334C13.8365 15.2154 14.0734 15.1741 14.3067 15.053C14.6263 14.8869 14.8869 14.6263 15.053 14.3067C15.1741 14.0734 15.2154 13.8365 15.2334 13.6198C15.25 13.4189 15.25 13.1785 15.25 12.9167V11.0833C15.25 10.8215 15.25 10.5811 15.2334 10.3802C15.2154 10.1635 15.1741 9.92656 15.053 9.6933C14.8869 9.37367 14.6263 9.11306 14.3067 8.94703C14.0734 8.82586 13.8365 8.78464 13.6198 8.76665C13.4189 8.74997 13.1785 8.74998 12.9167 8.75H11.0833Z"
            fill="#303233" />
    </g>
    <defs>
        <clipPath id="clip0_53_7134">
            <rect width="16" height="16" fill="white" />
        </clipPath>
    </defs>
</svg>
