<svg width="24" height="24" viewBox="0 0 24 24" fill="none" xmlns="http://www.w3.org/2000/svg">
    <path fill-rule="evenodd" clip-rule="evenodd"
        d="M6 2C3.79086 2 2 3.79086 2 6C2 8.20914 3.79086 10 6 10C8.20914 10 10 8.20914 10 6C10 3.79086 8.20914 2 6 2ZM4 6C4 4.89543 4.89543 4 6 4C7.10457 4 8 4.89543 8 6C8 7.10457 7.10457 8 6 8C4.89543 8 4 7.10457 4 6Z"
        fill="#303233" />
    <path fill-rule="evenodd" clip-rule="evenodd"
        d="M12.3555 8.61838C13.1508 7.46961 14.849 7.46961 15.6443 8.61839L22.7357 18.8616C23.654 20.188 22.7046 22 21.0913 22L2.8686 22C1.27121 22 0.318424 20.2197 1.2045 18.8906L5.33598 12.6934C6.12762 11.5059 7.87254 11.5059 8.66418 12.6934L9.09106 13.3337L12.3555 8.61838ZM7.86653 15.1024L4.47592 20H2.8686L7.00008 13.8028L7.86653 15.1024ZM6.90845 20L21.0913 20L13.9999 9.7568L6.90845 20Z"
        fill="#303233" />
</svg>
