<svg width="24" height="24" viewBox="0 0 24 24" fill="none" xmlns="http://www.w3.org/2000/svg">
    <path
        d="M1 5C1 3.34315 2.34315 2 4 2H10.1716C10.702 2 11.2107 2.21071 11.5858 2.58579L12.4142 3.41421C12.7893 3.78929 13.298 4 13.8284 4H20C21.6569 4 23 5.34315 23 7V14C23 12.3431 21.6569 11 20 11C18.3431 11 17 12.3431 17 14C15.3431 14 14 15.3431 14 17C14 18.6569 15.3431 20 17 20C17 20.7684 17.2889 21.4692 17.7639 22H4C2.34315 22 1 20.6569 1 19V5Z"
        fill="#303233" />
    <path
        d="M21 14C21 13.4477 20.5523 13 20 13C19.4477 13 19 13.4477 19 14V16H17C16.4477 16 16 16.4477 16 17C16 17.5523 16.4477 18 17 18H19V20C19 20.5523 19.4477 21 20 21C20.5523 21 21 20.5523 21 20V18H23C23.5523 18 24 17.5523 24 17C24 16.4477 23.5523 16 23 16H21V14Z"
        fill="#303233" />
</svg>
