<svg width="16" height="16" viewBox="0 0 16 16" fill="none" xmlns="http://www.w3.org/2000/svg">
    <path fill-rule="evenodd" clip-rule="evenodd"
        d="M5.00915 1.67112C6.43756 0.996095 8.05231 0.824124 9.59085 1.18317C11.1294 1.54222 12.5012 2.41117 13.4833 3.64874C14.4654 4.8863 14.9999 6.41968 15 7.99956V8.64959C15 9.29937 14.7419 9.92254 14.2824 10.382C13.8229 10.8415 13.1998 11.0996 12.55 11.0996C11.9002 11.0996 11.2771 10.8415 10.8176 10.382C10.6732 10.2376 10.5487 10.077 10.4458 9.90455C9.87852 10.6319 8.99388 11.0996 8 11.0996C6.28792 11.0996 4.90001 9.71168 4.90001 7.99959C4.90001 6.28751 6.28792 4.8996 8 4.8996C8.81016 4.8996 9.54773 5.21037 10.1 5.71922V5.39959C10.1 5.12345 10.3239 4.8996 10.6 4.8996C10.8761 4.8996 11.1 5.12345 11.1 5.39959V8.64959C11.1 9.03416 11.2528 9.40297 11.5247 9.6749C11.7966 9.94683 12.1654 10.0996 12.55 10.0996C12.9346 10.0996 13.3034 9.94683 13.5753 9.6749C13.8472 9.40297 14 9.03416 14 8.64959V7.99963C14 7.99961 14 7.99964 14 7.99963C13.9999 6.64545 13.5417 5.33111 12.7 4.27035C11.8582 3.20958 10.6823 2.46476 9.36359 2.15701C8.04484 1.84925 6.66076 1.99665 5.43641 2.57525C4.21206 3.15384 3.21944 4.1296 2.61996 5.34386C2.02048 6.55812 1.84939 7.93947 2.13451 9.26329C2.41963 10.5871 3.14419 11.7756 4.19038 12.6354C5.23658 13.4952 6.54286 13.9758 7.89684 13.9991C9.25083 14.0224 10.5729 13.587 11.648 12.7636C11.8672 12.5957 12.1811 12.6374 12.349 12.8566C12.5169 13.0758 12.4752 13.3897 12.256 13.5576C11.0017 14.5181 9.4593 15.0261 7.87965 14.999C6.30001 14.9718 4.776 14.4111 3.55545 13.4079C2.33489 12.4048 1.48956 11.0183 1.15692 9.47384C0.824283 7.92938 1.02389 6.31781 1.72329 4.90117C2.42268 3.48453 3.58074 2.34615 5.00915 1.67112ZM10.1 7.99959C10.1 6.8398 9.1598 5.89959 8 5.89959C6.84021 5.89959 5.90001 6.8398 5.90001 7.99959C5.90001 9.15939 6.84021 10.0996 8 10.0996C9.1598 10.0996 10.1 9.15939 10.1 7.99959Z"
        fill="#303233" />
</svg>
