<svg width="24" height="24" viewBox="0 0 24 24" fill="none" xmlns="http://www.w3.org/2000/svg">
    <path fill-rule="evenodd" clip-rule="evenodd"
        d="M12 1.25C6.06294 1.25 1.25 6.06294 1.25 12C1.25 17.9371 6.06294 22.75 12 22.75C17.9371 22.75 22.75 17.9371 22.75 12C22.75 6.06294 17.9371 1.25 12 1.25ZM4.60477 6.44276C6.29268 4.20015 8.97699 2.75 12 2.75C12.6329 2.75 13.251 2.81357 13.8482 2.93466L12.9459 7.44601C12.874 7.8056 12.6478 8.11547 12.3272 8.29356L9.18923 10.0369C8.39632 10.4774 8.55235 11.6612 9.43233 11.8812L15.0988 13.2978C15.7121 13.4511 16.1143 14.0382 16.0359 14.6655L15.8336 16.2839C15.8019 16.5374 15.6933 16.7751 15.5224 16.965L11.6711 21.2443C11.5138 21.2388 11.3576 21.2293 11.2024 21.2161L10.7713 14.3184C10.7373 13.7748 10.3553 13.3158 9.82692 13.1837L7.24697 12.5387C6.83235 12.435 6.49943 12.1267 6.36428 11.7213L4.60477 6.44276Z"
        fill="#303233" />
</svg>
