<svg width="16" height="16" viewBox="0 0 16 16" fill="none" xmlns="http://www.w3.org/2000/svg">
    <path fill-rule="evenodd" clip-rule="evenodd"
        d="M11.5701 11.4994C11.5619 11.4998 11.5537 11.5 11.5454 11.5L3.54549 11.5C1.86581 11.5 0.5 10.1442 0.5 8.46667C0.5 7.07001 1.44656 5.89665 2.73289 5.54264C2.85462 3.01138 4.95467 1 7.52277 1C9.36082 1 10.9576 2.02988 11.7624 3.54178C13.8473 3.67631 15.5 5.40245 15.5 7.51667C15.5 9.69547 13.7448 11.4621 11.5701 11.4994ZM8.35355 6.64645C8.15829 6.45118 7.84171 6.45118 7.64645 6.64645L5.64645 8.64645C5.45118 8.84171 5.45118 9.15829 5.64645 9.35355C5.84171 9.54882 6.15829 9.54882 6.35355 9.35355L7.5 8.20711V13.5C7.5 13.7761 7.72386 14 8 14C8.27614 14 8.5 13.7761 8.5 13.5V8.20711L9.64645 9.35355C9.84171 9.54882 10.1583 9.54882 10.3536 9.35355C10.5488 9.15829 10.5488 8.84171 10.3536 8.64645L8.35355 6.64645Z"
        fill="#303233" />
</svg>
