<svg width="24" height="24" viewBox="0 0 24 24" fill="none" xmlns="http://www.w3.org/2000/svg">
    <path fill-rule="evenodd" clip-rule="evenodd"
        d="M6 1.25C6.41421 1.25 6.75 1.58579 6.75 2V5.99852L6.75 6L6.75 6.00148V14.8C6.75 15.3724 6.75058 15.7566 6.77476 16.0525C6.79822 16.3396 6.8401 16.4769 6.88624 16.5675C7.00608 16.8027 7.19731 16.9939 7.43251 17.1138C7.52307 17.1599 7.66035 17.2018 7.94748 17.2252C8.24336 17.2494 8.62757 17.25 9.2 17.25L17.9986 17.25L18 17.25L18.0014 17.25H22C22.4142 17.25 22.75 17.5858 22.75 18C22.75 18.4142 22.4142 18.75 22 18.75H18.75V22C18.75 22.4142 18.4142 22.75 18 22.75C17.5858 22.75 17.25 22.4142 17.25 22V18.75L9.16955 18.75C8.6354 18.75 8.18956 18.75 7.82533 18.7203C7.44545 18.6892 7.08879 18.6221 6.75153 18.4503C6.23408 18.1866 5.81338 17.7659 5.54973 17.2485C5.37789 16.9112 5.31078 16.5546 5.27974 16.1747C5.24998 15.8104 5.24999 15.3646 5.25 14.8304L5.25 6.75H2C1.58579 6.75 1.25 6.41421 1.25 6C1.25 5.58578 1.58579 5.25 2 5.25H5.25V2C5.25 1.58579 5.58578 1.25 6 1.25ZM16.0525 6.77476C15.7566 6.75058 15.3724 6.75 14.8 6.75H10C9.58579 6.75 9.25 6.41421 9.25 6C9.25 5.58578 9.58579 5.25 10 5.25L14.8304 5.25C15.3646 5.24999 15.8104 5.24998 16.1747 5.27974C16.5546 5.31078 16.9112 5.37789 17.2485 5.54973C17.7659 5.81338 18.1866 6.23408 18.4503 6.75152C18.6221 7.08879 18.6892 7.44544 18.7203 7.82533C18.75 8.18956 18.75 8.6354 18.75 9.16955V14C18.75 14.4142 18.4142 14.75 18 14.75C17.5858 14.75 17.25 14.4142 17.25 14V9.2C17.25 8.62757 17.2494 8.24336 17.2252 7.94748C17.2018 7.66035 17.1599 7.52307 17.1138 7.43251C16.9939 7.19731 16.8027 7.00608 16.5675 6.88624C16.4769 6.8401 16.3396 6.79821 16.0525 6.77476Z"
        fill="#303233" />
</svg>
