<svg width="16" height="16" viewBox="0 0 16 16" fill="none" xmlns="http://www.w3.org/2000/svg">
    <path
        d="M13 1.5C13 1.22386 12.7761 1 12.5 1C12.2239 1 12 1.22386 12 1.5V3H10.5C10.2239 3 10 3.22386 10 3.5C10 3.77614 10.2239 4 10.5 4H12V5.5C12 5.77614 12.2239 6 12.5 6C12.7761 6 13 5.77614 13 5.5V4H14.5C14.7761 4 15 3.77614 15 3.5C15 3.22386 14.7761 3 14.5 3H13V1.5Z"
        fill="#303233" />
    <path
        d="M5.74467 1.5L8.5 1.5C8.77614 1.5 9 1.72386 9 2C9 2.27614 8.77614 2.5 8.5 2.5H5.76667C5.01168 2.5 4.47551 2.50039 4.05592 2.53467C3.64217 2.56848 3.386 2.63273 3.18302 2.73615C2.77534 2.94388 2.44388 3.27534 2.23615 3.68302C2.13273 3.886 2.06848 4.14217 2.03467 4.55592C2.00039 4.97551 2 5.51168 2 6.26667V9.73333C2 10.4883 2.00039 11.0245 2.03467 11.4441C2.06848 11.8578 2.13273 12.114 2.23615 12.317C2.44388 12.7247 2.77534 13.0561 3.18302 13.2638C3.386 13.3673 3.64217 13.4315 4.05592 13.4653C4.47551 13.4996 5.01168 13.5 5.76667 13.5L10.2333 13.5C10.9883 13.5 11.5245 13.4996 11.9441 13.4653C12.3578 13.4315 12.614 13.3673 12.817 13.2638C13.2247 13.0561 13.5561 12.7247 13.7638 12.317C13.8673 12.114 13.9315 11.8578 13.9653 11.4441C13.9996 11.0245 14 10.4883 14 9.73333V7.66667C14 7.39053 14.2239 7.16667 14.5 7.16667C14.7761 7.16667 15 7.39053 15 7.66667V9.75535C15 10.4834 15 11.0604 14.962 11.5255C14.9232 12.0011 14.8421 12.4035 14.6549 12.771C14.3513 13.3668 13.8668 13.8513 13.271 14.1549C12.9035 14.3421 12.5011 14.4232 12.0255 14.462C11.5604 14.5 10.9834 14.5 10.2553 14.5L5.74465 14.5C5.01656 14.5 4.43957 14.5 3.97449 14.462C3.4989 14.4232 3.09648 14.3421 2.72903 14.1549C2.13318 13.8513 1.64875 13.3668 1.34515 12.771C1.15792 12.4035 1.07685 12.0011 1.03799 11.5255C0.999993 11.0604 0.999996 10.4834 1 9.75533V6.24467C0.999996 5.51657 0.999993 4.93957 1.03799 4.47449C1.07685 3.9989 1.15792 3.59648 1.34515 3.22903C1.64875 2.63318 2.13318 2.14875 2.72903 1.84515C3.09648 1.65792 3.4989 1.57685 3.97449 1.53799C4.43957 1.49999 5.01657 1.5 5.74467 1.5Z"
        fill="#303233" />
    <path fill-rule="evenodd" clip-rule="evenodd"
        d="M5 8C5 6.34315 6.34315 5 8 5C9.65685 5 11 6.34315 11 8C11 9.65685 9.65685 11 8 11C6.34315 11 5 9.65685 5 8ZM8 6C6.89543 6 6 6.89543 6 8C6 9.10457 6.89543 10 8 10C9.10457 10 10 9.10457 10 8C10 6.89543 9.10457 6 8 6Z"
        fill="#303233" />
</svg>
