<svg width="16" height="16" viewBox="0 0 16 16" fill="none" xmlns="http://www.w3.org/2000/svg">
    <g clip-path="url(#clip0_53_7178)">
        <path fill-rule="evenodd" clip-rule="evenodd"
            d="M1.532 4.723L1.527 4.732C1.03 5.714 0.75 6.824 0.75 8C0.75 12.004 3.996 15.25 8 15.25C12.004 15.25 15.25 12.004 15.25 8C15.25 4.584 12.887 1.719 9.707 0.953003C9.692 0.949003 9.677 0.945001 9.662 0.942001C9.128 0.816001 8.572 0.75 8 0.75C5.176 0.75 2.728 2.365 1.532 4.723ZM8.38 9.568L8.16 10.007L8.541 11.149H9.548L10.126 10.284L8.708 9.677L8.38 9.568ZM8.712 2.294C8.479 2.265 8.241 2.25 8 2.25C5.988 2.25 4.217 3.284 3.19 4.85L5.24 6.314L5.694 5.708L5.84 5.536C5.889 5.49 5.944 5.446 6.002 5.409L6.187 5.313L8.582 4.248L8.712 2.294Z"
            fill="#303233" />
    </g>
    <defs>
        <clipPath id="clip0_53_7178">
            <rect width="16" height="16" fill="white" />
        </clipPath>
    </defs>
</svg>
