<svg width="24" height="24" viewBox="0 0 24 24" fill="none" xmlns="http://www.w3.org/2000/svg">
    <path fill-rule="evenodd" clip-rule="evenodd"
        d="M8.32504 1C8.33821 1 8.35142 1 8.36466 1L15.6778 1C16.0394 0.999969 16.3755 0.999939 16.6506 1.02491C16.9385 1.05104 17.2978 1.11316 17.6294 1.33301C18.0687 1.62422 18.3753 2.07707 18.4825 2.5931C18.5635 2.98268 18.4877 3.33932 18.4051 3.61632C18.3261 3.88107 18.2013 4.19305 18.0669 4.52883L17.0443 7.0853C17.0214 7.1427 17.0102 7.17072 17.0025 7.1913L17.002 7.1927L17.002 7.19419C17.0015 7.21616 17.0014 7.24632 17.0014 7.30814V9.43876C17.0014 9.55027 17.0016 9.60549 17.0032 9.64564L17.0033 9.64856L17.005 9.65092C17.0289 9.68326 17.0632 9.7265 17.1329 9.81357L18.7305 11.8106C19.0395 12.1968 19.3132 12.5388 19.505 12.829C19.6923 13.1123 19.9203 13.5133 19.9208 13.9978C19.9214 14.6069 19.6445 15.1831 19.1685 15.5631C18.7898 15.8654 18.3343 15.9379 17.996 15.9686C17.6496 16.0001 17.2116 16 16.7169 16L13.0014 16L13.0014 22C13.0014 22.5523 12.5537 23 12.0014 23C11.4491 23 11.0014 22.5523 11.0014 22L11.0014 16L7.28594 16C6.79125 16 6.35319 16.0001 6.00682 15.9686C5.66856 15.9379 5.21301 15.8654 4.83433 15.5631C4.3583 15.1831 4.08137 14.6069 4.08203 13.9978C4.08256 13.5133 4.31052 13.1123 4.49784 12.829C4.68964 12.5388 4.96331 12.1968 5.27236 11.8105L6.86993 9.81357C6.93959 9.7265 6.97394 9.68327 6.99778 9.65092L6.99952 9.64856L6.99964 9.64564C7.00123 9.60549 7.00141 9.55027 7.00141 9.43876V7.30814C7.00141 7.24632 7.00135 7.21617 7.00085 7.1942L7.00081 7.1927L7.00029 7.1913C6.9926 7.17072 6.98145 7.1427 6.95849 7.0853L5.95062 4.56562C5.9457 4.55333 5.9408 4.54107 5.9359 4.52884C5.80156 4.19306 5.67673 3.88107 5.59773 3.61632C5.51506 3.33932 5.43932 2.98268 5.52027 2.5931C5.6275 2.07707 5.93409 1.62422 6.37339 1.33301C6.70504 1.11316 7.0643 1.05104 7.3522 1.02491C7.62735 0.999939 7.96338 0.999969 8.32504 1Z"
        fill="#303233" />
</svg>
