<svg width="24" height="24" viewBox="0 0 24 24" fill="none" xmlns="http://www.w3.org/2000/svg">
    <path fill-rule="evenodd" clip-rule="evenodd"
        d="M17.8304 2.25H6.16957C5.63542 2.24999 5.18956 2.24998 4.82533 2.27974C4.44544 2.31078 4.08879 2.37789 3.75153 2.54973C3.23408 2.81339 2.81338 3.23408 2.54973 3.75153C2.37789 4.08879 2.31078 4.44545 2.27974 4.82533C2.24998 5.18956 2.24999 5.6354 2.25 6.16955V17.8305C2.24999 18.3646 2.24998 18.8104 2.27974 19.1747C2.31078 19.5546 2.37789 19.9112 2.54973 20.2485C2.81338 20.7659 3.23408 21.1866 3.75153 21.4503C4.08879 21.6221 4.44544 21.6892 4.82533 21.7203C5.18956 21.75 5.6354 21.75 6.16955 21.75H10C10.4142 21.75 10.75 21.4142 10.75 21C10.75 20.5858 10.4142 20.25 10 20.25H6.2C5.62757 20.25 5.24336 20.2494 4.94748 20.2252C4.66035 20.2018 4.52307 20.1599 4.43251 20.1138C4.19731 19.9939 4.00609 19.8027 3.88624 19.5675C3.8401 19.4769 3.79822 19.3396 3.77476 19.0525C3.75058 18.7566 3.75 18.3724 3.75 17.8V6.2C3.75 5.62757 3.75058 5.24336 3.77476 4.94748C3.79822 4.66036 3.8401 4.52307 3.88624 4.43251C4.00609 4.19731 4.19731 4.00608 4.43251 3.88624C4.52307 3.8401 4.66035 3.79822 4.94748 3.77476C5.24336 3.75058 5.62757 3.75 6.2 3.75H17.8C18.3724 3.75 18.7566 3.75058 19.0525 3.77476C19.3396 3.79822 19.4769 3.8401 19.5675 3.88624C19.8027 4.00609 19.9939 4.19731 20.1138 4.43251C20.1599 4.52307 20.2018 4.66036 20.2252 4.94748C20.2494 5.24336 20.25 5.62757 20.25 6.2V10C20.25 10.4142 20.5858 10.75 21 10.75C21.4142 10.75 21.75 10.4142 21.75 10V6.16957C21.75 5.63541 21.75 5.18956 21.7203 4.82533C21.6892 4.44545 21.6221 4.08879 21.4503 3.75153C21.1866 3.23408 20.7659 2.81339 20.2485 2.54973C19.9112 2.37789 19.5546 2.31078 19.1747 2.27974C18.8104 2.24998 18.3646 2.24999 17.8304 2.25ZM7 12.75C7.41422 12.75 7.75 12.4142 7.75 12L7.75 8.81066L11.4697 12.5303C11.7626 12.8232 12.2374 12.8232 12.5303 12.5303C12.8232 12.2374 12.8232 11.7626 12.5303 11.4697L8.81066 7.75L12 7.75C12.4142 7.75 12.75 7.41421 12.75 7C12.75 6.58579 12.4142 6.25 12 6.25L7 6.25C6.80109 6.25 6.61032 6.32902 6.46967 6.46967C6.32902 6.61032 6.25 6.80109 6.25 7L6.25 12C6.25 12.4142 6.58579 12.75 7 12.75ZM17.8304 13.25C18.3646 13.25 18.8104 13.25 19.1747 13.2797C19.5546 13.3108 19.9112 13.3779 20.2485 13.5497C20.7659 13.8134 21.1866 14.2341 21.4503 14.7515C21.6221 15.0888 21.6892 15.4454 21.7203 15.8253C21.75 16.1896 21.75 16.6354 21.75 17.1696V17.8304C21.75 18.3646 21.75 18.8104 21.7203 19.1747C21.6892 19.5546 21.6221 19.9112 21.4503 20.2485C21.1866 20.7659 20.7659 21.1866 20.2485 21.4503C19.9112 21.6221 19.5546 21.6892 19.1747 21.7203C18.8104 21.75 18.3646 21.75 17.8304 21.75H17.1696C16.6354 21.75 16.1896 21.75 15.8253 21.7203C15.4454 21.6892 15.0888 21.6221 14.7515 21.4503C14.2341 21.1866 13.8134 20.7659 13.5497 20.2485C13.3779 19.9112 13.3108 19.5546 13.2797 19.1747C13.25 18.8104 13.25 18.3646 13.25 17.8304V17.1696C13.25 16.6354 13.25 16.1896 13.2797 15.8253C13.3108 15.4454 13.3779 15.0888 13.5497 14.7515C13.8134 14.2341 14.2341 13.8134 14.7515 13.5497C15.0888 13.3779 15.4454 13.3108 15.8253 13.2797C16.1896 13.25 16.6354 13.25 17.1696 13.25H17.8304ZM19.5675 14.8862C19.4769 14.8401 19.3396 14.7982 19.0525 14.7748C18.7566 14.7506 18.3724 14.75 17.8 14.75H17.2C16.6276 14.75 16.2434 14.7506 15.9475 14.7748C15.6604 14.7982 15.5231 14.8401 15.4325 14.8862C15.1973 15.0061 15.0061 15.1973 14.8862 15.4325C14.8401 15.5231 14.7982 15.6604 14.7748 15.9475C14.7506 16.2434 14.75 16.6276 14.75 17.2V17.8C14.75 18.3724 14.7506 18.7566 14.7748 19.0525C14.7982 19.3396 14.8401 19.4769 14.8862 19.5675C15.0061 19.8027 15.1973 19.9939 15.4325 20.1138C15.5231 20.1599 15.6604 20.2018 15.9475 20.2252C16.2434 20.2494 16.6276 20.25 17.2 20.25H17.8C18.3724 20.25 18.7566 20.2494 19.0525 20.2252C19.3396 20.2018 19.4769 20.1599 19.5675 20.1138C19.8027 19.9939 19.9939 19.8027 20.1138 19.5675C20.1599 19.4769 20.2018 19.3396 20.2252 19.0525C20.2494 18.7566 20.25 18.3724 20.25 17.8V17.2C20.25 16.6276 20.2494 16.2434 20.2252 15.9475C20.2018 15.6604 20.1599 15.5231 20.1138 15.4325C19.9939 15.1973 19.8027 15.0061 19.5675 14.8862Z"
        fill="#303233" />
</svg>
