<svg width="16" height="16" viewBox="0 0 16 16" fill="none" xmlns="http://www.w3.org/2000/svg">
    <g clip-path="url(#clip0_3668_61)">
        <path
            d="M9.35355 4.64645C9.15829 4.45118 8.84171 4.45118 8.64645 4.64645C8.45118 4.84171 8.45118 5.15829 8.64645 5.35355L10.2929 7.00001H7.49999C5.567 7.00001 4 8.56701 4 10.5C4 10.7761 4.22386 11 4.5 11C4.77614 11 5 10.7761 5 10.5C5 9.1193 6.11928 8.00001 7.49999 8.00001H10.2929L8.64645 9.64645C8.45118 9.84171 8.45118 10.1583 8.64645 10.3536C8.84171 10.5488 9.15829 10.5488 9.35355 10.3536L11.8536 7.85357C11.9473 7.7598 12 7.63262 12 7.50001C12 7.36741 11.9473 7.24023 11.8536 7.14646L9.35355 4.64645Z"
            fill="#303233" />
        <path fill-rule="evenodd" clip-rule="evenodd"
            d="M8 0.5C3.85786 0.5 0.5 3.85786 0.5 8C0.5 12.1421 3.85786 15.5 8 15.5C12.1421 15.5 15.5 12.1421 15.5 8C15.5 3.85786 12.1421 0.5 8 0.5ZM1.5 8C1.5 4.41015 4.41015 1.5 8 1.5C11.5899 1.5 14.5 4.41015 14.5 8C14.5 11.5899 11.5899 14.5 8 14.5C4.41015 14.5 1.5 11.5899 1.5 8Z"
            fill="#303233" />
    </g>
    <defs>
        <clipPath id="clip0_3668_61">
            <rect width="16" height="16" fill="white" />
        </clipPath>
    </defs>
</svg>
