<svg width="24" height="24" viewBox="0 0 24 24" fill="none" xmlns="http://www.w3.org/2000/svg">
    <path fill-rule="evenodd" clip-rule="evenodd"
        d="M17.4249 3.23335C13.9272 1.92173 10.0728 1.92173 6.57514 3.23335L5.03441 3.81112C3.96107 4.21362 3.25 5.23971 3.25 6.38603V12C3.25 14.8673 4.88625 17.2553 6.62617 18.993C8.37744 20.742 10.3348 21.9346 11.1969 22.419C11.6995 22.7014 12.3005 22.7014 12.8031 22.419C13.6652 21.9346 15.6226 20.742 17.3738 18.993C19.1138 17.2553 20.75 14.8673 20.75 12V6.38603C20.75 5.23971 20.0389 4.21362 18.9656 3.81112L17.4249 3.23335ZM15.5303 10.5303C15.8232 10.2374 15.8232 9.76256 15.5303 9.46967C15.2374 9.17678 14.7626 9.17678 14.4697 9.46967L11 12.9393L9.53033 11.4697C9.23744 11.1768 8.76256 11.1768 8.46967 11.4697C8.17678 11.7626 8.17678 12.2374 8.46967 12.5303L10.4697 14.5303C10.6103 14.671 10.8011 14.75 11 14.75C11.1989 14.75 11.3897 14.671 11.5303 14.5303L15.5303 10.5303Z"
        fill="#303233" />
</svg>
