<svg width="24" height="24" viewBox="0 0 24 24" fill="none" xmlns="http://www.w3.org/2000/svg">
    <path fill-rule="evenodd" clip-rule="evenodd"
        d="M13.3982 1.0827C13.8054 1.25947 14.0473 1.68354 13.9922 2.12404L13.3925 6.92175C13.324 7.46977 12.8242 7.85849 12.2762 7.78999C11.7282 7.72149 11.3395 7.2217 11.408 6.67368L11.5846 5.26046L11.341 5.55283C10.9874 5.97711 10.3568 6.03444 9.93257 5.68087C9.50829 5.32731 9.45097 4.69674 9.80453 4.27247L12.2317 1.35982C12.5159 1.01878 12.9909 0.90593 13.3982 1.0827ZM2.29289 2.29289C2.68342 1.90237 3.31658 1.90237 3.70711 2.29289L8.69991 7.2857C8.70533 7.29099 8.71067 7.29634 8.71594 7.30173L16.7 15.2857C16.7053 15.291 16.7107 15.2963 16.7159 15.3017L21.7071 20.2929C22.0976 20.6834 22.0976 21.3166 21.7071 21.7071C21.3166 22.0976 20.6834 22.0976 20.2929 21.7071L16.0672 17.4814L11.7682 22.6402C11.484 22.9812 11.009 23.0941 10.6018 22.9173C10.1946 22.7405 9.95266 22.3165 10.0077 21.876L10.8672 15L4.67223 15C4.43124 15 4.18714 15.0001 3.98772 14.982C3.79911 14.965 3.43794 14.9198 3.12473 14.6667C2.76615 14.3769 2.56074 13.9384 2.56769 13.4774C2.57376 13.0747 2.77027 12.7684 2.8779 12.6125C2.9917 12.4478 3.14801 12.2603 3.30233 12.0751C3.30997 12.066 3.31761 12.0568 3.32523 12.0477L6.64715 8.06137L2.29289 3.70711C1.90237 3.31658 1.90237 2.68342 2.29289 2.29289ZM8.0672 9.48141L5.13504 13H11.5858L8.0672 9.48141ZM12.9609 14.3751L12.4153 18.7395L14.6472 16.0614L12.9609 14.3751ZM18.865 11L17.782 12.2995C17.4285 12.7238 17.4858 13.3544 17.9101 13.7079C18.3343 14.0615 18.9649 14.0042 19.3185 13.5799L20.6976 11.9249C20.852 11.7398 21.0083 11.5522 21.1221 11.3875C21.2297 11.2316 21.4262 10.9253 21.4323 10.5226C21.4393 10.0616 21.2338 9.62309 20.8753 9.33332C20.5621 9.08021 20.2009 9.03504 20.0123 9.01796C19.8129 8.99991 19.5688 8.99995 19.3278 9L15.65 9C15.0978 9 14.65 9.44772 14.65 10C14.65 10.5523 15.0978 11 15.65 11H18.865Z"
        fill="#303233" />
</svg>
