<svg width="16" height="16" viewBox="0 0 16 16" fill="none" xmlns="http://www.w3.org/2000/svg">
    <path fill-rule="evenodd" clip-rule="evenodd"
        d="M3.25676 1.6079C4.49261 1.22764 6.16948 1 8 1C9.83052 1 11.5074 1.22764 12.7432 1.6079C13.3581 1.79709 13.8921 2.03256 14.2833 2.31718C14.6636 2.59383 15 2.98723 15 3.5V6.99334C15 7.4038 14.7857 7.73835 14.5048 7.99803C14.7852 8.25668 15 8.59022 15 9V12.5C15 13.0116 14.6671 13.4052 14.2874 13.6829C13.8975 13.9681 13.3652 14.2037 12.7514 14.3928C11.5178 14.773 9.84077 15 8 15C6.15923 15 4.48216 14.773 3.24858 14.3928C2.63483 14.2037 2.10248 13.9681 1.71262 13.6829C1.33289 13.4052 1 13.0116 1 12.5V9C1 8.59022 1.21482 8.25668 1.4952 7.99803C1.21433 7.73835 1 7.4038 1 6.99334V3.5C1 2.98723 1.33637 2.59383 1.71667 2.31718C2.10791 2.03256 2.6419 1.79709 3.25676 1.6079ZM2.39278 8.56546C2.36188 8.58559 2.33259 8.60572 2.30494 8.62584C2.0274 8.82774 2 8.96048 2 9C2 9.03952 2.0274 9.17226 2.30494 9.37416C2.57153 9.5681 2.98944 9.76358 3.55085 9.93632C4.66754 10.2799 6.24066 10.5 8 10.5C9.75934 10.5 11.3325 10.2799 12.4492 9.93632C13.0106 9.76358 13.4285 9.5681 13.6951 9.37416C13.9726 9.17226 14 9.03952 14 9C14 8.96048 13.9726 8.82774 13.6951 8.62584C13.6674 8.60572 13.6381 8.58559 13.6072 8.56546C13.3477 8.68436 13.0598 8.79112 12.7514 8.88616C11.5178 9.26631 9.84077 9.49334 8 9.49334C6.15923 9.49334 4.48216 9.26631 3.24858 8.88616C2.94018 8.79112 2.65233 8.68436 2.39278 8.56546ZM2.30494 3.12584C2.0274 3.32774 2 3.46048 2 3.5C2 3.53952 2.0274 3.67226 2.30494 3.87416C2.57153 4.0681 2.98944 4.26358 3.55085 4.43632C4.66754 4.77992 6.24066 5 8 5C9.75934 5 11.3325 4.77992 12.4492 4.43632C13.0106 4.26358 13.4285 4.0681 13.6951 3.87416C13.9726 3.67226 14 3.53952 14 3.5C14 3.46048 13.9726 3.32774 13.6951 3.12584C13.4285 2.93191 13.0106 2.73642 12.4492 2.56368C11.3325 2.22008 9.75934 2 8 2C6.24066 2 4.66754 2.22008 3.55085 2.56368C2.98944 2.73642 2.57153 2.93191 2.30494 3.12584Z"
        fill="#303233" />
</svg>
