<svg width="16" height="16" viewBox="0 0 16 16" fill="none" xmlns="http://www.w3.org/2000/svg">
    <path fill-rule="evenodd" clip-rule="evenodd"
        d="M1.64693 1.64645C1.8422 1.45118 2.15878 1.45118 2.35404 1.64645L14.354 13.6464C14.5493 13.8417 14.5493 14.1583 14.354 14.3536C14.1588 14.5488 13.8422 14.5488 13.6469 14.3536L11.3572 12.0638C10.4125 12.6113 9.28801 13 8 13C6.16424 13 4.66061 12.2104 3.53642 11.2969C2.4137 10.3846 1.64193 9.32748 1.25476 8.7306L1.2399 8.70777C1.1619 8.58805 1.07301 8.45159 1.02748 8.25823C0.990838 8.10257 0.990838 7.89748 1.02748 7.74182C1.07301 7.54847 1.1619 7.41201 1.2399 7.29229L1.25476 7.26945C1.64193 6.67258 2.4137 5.61546 3.53642 4.70316C3.62031 4.635 3.70631 4.56753 3.7944 4.50102L1.64693 2.35355C1.45167 2.15829 1.45167 1.84171 1.64693 1.64645ZM5.9144 6.62102C5.65252 7.0163 5.5 7.49035 5.5 8.00003C5.5 9.38074 6.61929 10.5 8 10.5C8.50967 10.5 8.98373 10.3475 9.37901 10.0856L8.64706 9.35368C8.45115 9.44749 8.23171 9.50003 8 9.50003C7.17157 9.50003 6.5 8.82846 6.5 8.00003C6.5 7.76832 6.55254 7.54888 6.64635 7.35297L5.9144 6.62102Z"
        fill="#303233" />
    <path
        d="M8.00023 3C7.6908 3 7.39017 3.02249 7.0987 3.06445C6.91021 3.09158 6.75351 3.22342 6.69452 3.40448C6.63554 3.58554 6.68453 3.78439 6.82087 3.91733L8.494 5.5488C9.4578 5.74197 10.2213 6.48936 10.438 7.44443L13.0762 10.0168C13.175 10.1132 13.3092 10.1644 13.4471 10.1584C13.585 10.1523 13.7143 10.0895 13.8043 9.98489C14.2218 9.49949 14.5369 9.05198 14.7444 8.73219L14.7595 8.70906C14.8378 8.58883 14.9272 8.45179 14.9727 8.25837C15.0094 8.1027 15.0094 7.89755 14.9728 7.74188C14.9272 7.54849 14.8383 7.41201 14.7603 7.29226L14.7455 7.26943C14.3583 6.67255 13.5865 5.61543 12.4638 4.70314C11.3396 3.78965 9.83599 3 8.00023 3Z"
        fill="#303233" />
</svg>
