<svg width="24" height="24" viewBox="0 0 24 24" fill="none" xmlns="http://www.w3.org/2000/svg">
    <path d="M5 8.76954V7H8.30589V17H6.33059V8.76954H5Z" fill="#303233" />
    <path
        d="M12.7071 9.29289C12.3166 8.90237 11.6834 8.90237 11.2929 9.29289C10.9024 9.68342 10.9024 10.3166 11.2929 10.7071L13.5858 13L11.2929 15.2929C10.9024 15.6834 10.9024 16.3166 11.2929 16.7071C11.6834 17.0976 12.3166 17.0976 12.7071 16.7071L15 14.4142L17.2929 16.7071C17.6834 17.0976 18.3166 17.0976 18.7071 16.7071C19.0976 16.3166 19.0976 15.6834 18.7071 15.2929L16.4142 13L18.7071 10.7071C19.0976 10.3166 19.0976 9.68342 18.7071 9.29289C18.3166 8.90237 17.6834 8.90237 17.2929 9.29289L15 11.5858L12.7071 9.29289Z"
        fill="#303233" />
</svg>
