<svg width="24" height="24" viewBox="0 0 24 24" fill="none" xmlns="http://www.w3.org/2000/svg">
    <path fill-rule="evenodd" clip-rule="evenodd"
        d="M8 3C8 1.89543 8.89543 1 10 1H14C15.1046 1 16 1.89543 16 3V7C16 8.10457 15.1046 9 14 9H13V11H22C22.5523 11 23 11.4477 23 12C23 12.5523 22.5523 13 22 13H19V15H20C21.1046 15 22 15.8954 22 17V21C22 22.1046 21.1046 23 20 23H16C14.8954 23 14 22.1046 14 21V17C14 15.8954 14.8954 15 16 15H17V13H7V15H8C9.10457 15 10 15.8954 10 17V21C10 22.1046 9.10457 23 8 23H4C2.89543 23 2 22.1046 2 21V17C2 15.8954 2.89543 15 4 15H5V13H2C1.44772 13 1 12.5523 1 12C1 11.4477 1.44772 11 2 11H11V9H10C8.89543 9 8 8.10457 8 7V3Z"
        fill="#303233" />
</svg>
