<svg width="16" height="16" viewBox="0 0 16 16" fill="none" xmlns="http://www.w3.org/2000/svg">
    <path
        d="M8.35355 3.85355C8.54882 3.65829 8.54882 3.34171 8.35355 3.14645C8.15829 2.95118 7.84171 2.95118 7.64645 3.14645L3.14645 7.64642C3.05268 7.74019 3 7.86737 3 7.99998C3 8.13259 3.05268 8.25976 3.14645 8.35353L7.64645 12.8536C7.84171 13.0488 8.15829 13.0488 8.35355 12.8536C8.54882 12.6583 8.54882 12.3417 8.35355 12.1464L4.70712 8.5H12.5C12.7761 8.5 13 8.27614 13 8C13 7.72386 12.7761 7.5 12.5 7.5H4.70709L8.35355 3.85355Z"
        fill="#303233" />
</svg>
