<svg width="24" height="24" viewBox="0 0 24 24" fill="none" xmlns="http://www.w3.org/2000/svg">
    <path fill-rule="evenodd" clip-rule="evenodd"
        d="M11.25 6.25H10.5C8.70507 6.25 7.25 7.70507 7.25 9.5C7.25 11.2949 8.70508 12.75 10.5 12.75H11.25V16.25H8C7.58579 16.25 7.25 16.5858 7.25 17C7.25 17.4142 7.58579 17.75 8 17.75H11.25V19C11.25 19.4142 11.5858 19.75 12 19.75C12.4142 19.75 12.75 19.4142 12.75 19V17.75H13.9998C15.7948 17.75 17.2498 16.2949 17.2498 14.5C17.2498 12.7051 15.7948 11.25 13.9998 11.25H12.75V7.75H15.5C15.9142 7.75 16.25 7.41421 16.25 7C16.25 6.58579 15.9142 6.25 15.5 6.25H12.75V5C12.75 4.58579 12.4142 4.25 12 4.25C11.5858 4.25 11.25 4.58579 11.25 5V6.25ZM10.5 7.75C9.5335 7.75 8.75 8.5335 8.75 9.5C8.75 10.4665 9.5335 11.25 10.5 11.25H11.25V7.75H10.5ZM12.75 12.75V16.25H13.9998C14.9663 16.25 15.7498 15.4665 15.7498 14.5C15.7498 13.5335 14.9663 12.75 13.9998 12.75H12.75Z"
        fill="#303233" />
    <path fill-rule="evenodd" clip-rule="evenodd"
        d="M1.25 12C1.25 6.06294 6.06294 1.25 12 1.25C17.9371 1.25 22.75 6.06294 22.75 12C22.75 17.9371 17.9371 22.75 12 22.75C6.06294 22.75 1.25 17.9371 1.25 12ZM12 2.75C6.89137 2.75 2.75 6.89137 2.75 12C2.75 17.1086 6.89137 21.25 12 21.25C17.1086 21.25 21.25 17.1086 21.25 12C21.25 6.89137 17.1086 2.75 12 2.75Z"
        fill="#303233" />
</svg>
