<svg width="24" height="24" viewBox="0 0 24 24" fill="none" xmlns="http://www.w3.org/2000/svg">
    <path fill-rule="evenodd" clip-rule="evenodd"
        d="M8.00019 9C8.00019 5.13401 11.1342 2 15.0002 2C18.8662 2 22.0002 5.13401 22.0002 9C22.0002 12.866 18.8662 16 15.0002 16C14.6818 16 14.3679 15.9787 14.0599 15.9373C13.8349 15.907 13.6941 15.8883 13.5915 15.8784C13.5732 15.8766 13.5582 15.8753 13.5461 15.8745C13.543 15.8771 13.5398 15.8801 13.5362 15.8833C13.4827 15.9321 13.4124 16.0021 13.2864 16.128L8.17593 21.2385C8.16421 21.2502 8.1522 21.2623 8.1399 21.2746C8.00597 21.4093 7.83733 21.5788 7.63097 21.7053C7.45203 21.8149 7.25694 21.8957 7.05287 21.9447C6.81754 22.0012 6.5784 22.0006 6.38849 22.0001C6.37105 22 6.35402 22 6.33745 22L4.56828 22C4.3159 22 4.07011 22.0001 3.86196 21.9831C3.63337 21.9644 3.36363 21.9203 3.09221 21.782C2.71589 21.5903 2.40993 21.2843 2.21818 20.908C2.07988 20.6366 2.03581 20.3668 2.01714 20.1382C2.00013 19.9301 2.00016 19.6843 2.00019 19.4319L2.00019 17.6627C2.00019 17.6462 2.00015 17.6291 2.0001 17.6117C1.99959 17.4218 1.99895 17.1827 2.05545 16.9473C2.10444 16.7432 2.18525 16.5482 2.29491 16.3692C2.42137 16.1629 2.59091 15.9942 2.72556 15.8603C2.73793 15.848 2.75 15.836 2.76171 15.8243L7.87222 10.7138C7.99814 10.5878 8.06813 10.5175 8.11684 10.464C8.12009 10.4604 8.12304 10.4572 8.12574 10.4541C8.12485 10.442 8.1236 10.427 8.12184 10.4087C8.11193 10.3061 8.09317 10.1653 8.06292 9.94028C8.02151 9.63227 8.00019 9.31836 8.00019 9ZM14.0002 9C14.0002 8.44772 14.4479 8 15.0002 8H15.0102C15.5625 8 16.0102 8.44772 16.0102 9C16.0102 9.55228 15.5625 10 15.0102 10H15.0002C14.4479 10 14.0002 9.55228 14.0002 9Z"
        fill="#303233" />
</svg>
