<svg width="24" height="24" viewBox="0 0 24 24" fill="none" xmlns="http://www.w3.org/2000/svg">
    <path fill-rule="evenodd" clip-rule="evenodd"
        d="M9.56811 1C9.31573 0.999973 9.06993 0.999943 8.86178 1.01695C8.63318 1.03563 8.36345 1.07969 8.09202 1.21799C7.7157 1.40974 7.40974 1.7157 7.21799 2.09202C7.07969 2.36345 7.03563 2.63318 7.01695 2.86178C7.01315 2.90824 7.01021 2.95657 7.00792 3.00644C6.65186 3.01677 6.3466 3.04323 6.0663 3.11053C4.6037 3.46166 3.46174 4.60363 3.1106 6.06622C2.99943 6.52927 2.99969 7.06046 3.00004 7.7762V18.2238C2.99969 18.9395 2.99943 19.4707 3.1106 19.9338C3.46174 21.3964 4.6037 22.5383 6.0663 22.8895C6.52935 23.0007 7.06053 23.0004 7.77626 23H16.2239C16.9396 23.0004 17.4708 23.0007 17.9339 22.8895C19.3965 22.5383 20.5384 21.3964 20.8896 19.9338C21.0007 19.4707 21.0005 18.9395 21.0001 18.2238V7.77621C21.0005 7.06047 21.0007 6.52928 20.8896 6.06622C20.5384 4.60363 19.3965 3.46166 17.9339 3.11053C17.6535 3.04322 17.3482 3.01676 16.9921 3.00644C16.9898 2.95657 16.9869 2.90824 16.9831 2.86178C16.9644 2.63318 16.9203 2.36345 16.782 2.09202C16.5903 1.7157 16.2843 1.40974 15.908 1.21799C15.6366 1.07969 15.3668 1.03563 15.1382 1.01695C14.9301 0.999943 14.6843 0.999973 14.4319 1L9.56811 1ZM9.01031 3.02464L9.01145 3.01145L9.02464 3.01031C9.14122 3.00078 9.30348 3.00001 9.60001 3.00001H14.4C14.6965 3.00001 14.8588 3.00078 14.9754 3.01031L14.9886 3.01145L14.9897 3.02464C14.9992 3.14122 15 3.30348 15 3.60001V4.40001C15 4.69653 14.9992 4.85879 14.9897 4.97537L14.9886 4.98856L14.9754 4.9897C14.8588 4.99923 14.6965 5.00001 14.4 5.00001H9.60001C9.30348 5.00001 9.14122 4.99923 9.02464 4.9897L9.01145 4.98856L9.01031 4.97537C9.00078 4.85879 9.00001 4.69653 9.00001 4.40001V3.60001C9.00001 3.30348 9.00078 3.14122 9.01031 3.02464Z"
        fill="#303233" />
</svg>
