<svg width="16" height="16" viewBox="0 0 16 16" fill="none" xmlns="http://www.w3.org/2000/svg">
    <path
        d="M3.00002 2C1.89545 2 1.00001 2.89544 1.00002 4.00001V6.5L1 6.50463C1 6.78077 1.22386 7.00463 1.5 7.00463C1.77614 7.00463 2 6.78077 2 6.50463L2.00017 5C2.00017 4.44772 2.44789 4 3.00017 4H13.0002C13.5525 4 14.0002 4.44772 14.0002 5V12C14.0002 12.5523 13.5525 13 13.0002 13L8.50002 13L8.49862 13C8.22248 13 7.99862 13.2239 7.99862 13.5C7.99862 13.7761 8.22248 14 8.49862 14L13.0001 14C14.1047 14 15.0001 13.1046 15.0001 12V5C15.0001 3.89543 14.1047 3 13.0001 3H9.20714C8.75443 3 8.32026 2.82014 8.00017 2.5C7.68008 2.17986 7.24591 2 6.7932 2H3.00002Z"
        fill="#303233" />
    <path
        d="M6.35569 8.64857C6.40258 8.69602 6.43804 8.75051 6.46208 8.80861C6.48699 8.8688 6.49963 8.93287 6.50001 8.997L6.50002 9.00035V13.5C6.50002 13.7761 6.27616 14 6.00002 14C5.72388 14 5.50002 13.7761 5.50002 13.5V10.2071L1.85357 13.8536C1.65831 14.0488 1.34173 14.0488 1.14647 13.8536C0.951205 13.6583 0.951205 13.3417 1.14647 13.1464L4.79291 9.5H1.50002C1.22388 9.5 1.00002 9.27614 1.00002 9C1.00002 8.72386 1.22388 8.5 1.50002 8.5H5.99993C6.13693 8.5 6.26114 8.55509 6.35145 8.64433L6.35569 8.64857Z"
        fill="#303233" />
</svg>
