<svg width="16" height="16" viewBox="0 0 16 16" fill="none" xmlns="http://www.w3.org/2000/svg">
    <path fill-rule="evenodd" clip-rule="evenodd"
        d="M6.79607 0.781432C7.50878 0.244161 8.49122 0.244162 9.20393 0.781432L14.2039 4.55066C14.7052 4.92857 15 5.51992 15 6.14771V13.1C15 13.6091 14.7912 14.094 14.4249 14.449C14.0592 14.8035 13.5663 15 13.0556 15H10C9.72386 15 9.5 14.7762 9.5 14.5V10.5C9.5 10.2239 9.27614 10 9 10H7C6.72386 10 6.5 10.2239 6.5 10.5V14.5C6.5 14.7762 6.27614 15 6 15H2.94444C2.4337 15 1.94085 14.8035 1.57508 14.449C1.20878 14.094 1 13.6091 1 13.1V6.14771C1 5.51992 1.29477 4.92857 1.79607 4.55066L6.79607 0.781432Z"
        fill="#303233" />
</svg>
