<svg width="24" height="24" viewBox="0 0 24 24" fill="none" xmlns="http://www.w3.org/2000/svg">
    <path fill-rule="evenodd" clip-rule="evenodd"
        d="M15.2321 1.25H8.7679C7.95506 1.24999 7.29944 1.24999 6.76853 1.29336C6.2219 1.33803 5.74175 1.43239 5.29754 1.65873C4.59193 2.01825 4.01825 2.59193 3.65873 3.29754C3.43239 3.74175 3.33803 4.2219 3.29336 4.76853C3.24999 5.29944 3.24999 5.95505 3.25 6.76789V17.2321C3.24999 18.0449 3.24999 18.7006 3.29336 19.2315C3.33803 19.7781 3.43239 20.2582 3.65873 20.7025C4.01825 21.4081 4.59193 21.9817 5.29754 22.3413C5.74175 22.5676 6.2219 22.662 6.76853 22.7066C7.29944 22.75 7.95505 22.75 8.76788 22.75H15.0855C15.0246 22.7006 14.9657 22.6476 14.909 22.591L12.909 20.591C12.0303 19.7123 12.0303 18.2877 12.909 17.409C13.7877 16.5303 15.2123 16.5303 16.091 17.409L16.5 17.818L19.409 14.909C19.7847 14.5334 20.2601 14.3183 20.75 14.2638V6.76788C20.75 5.95505 20.75 5.29944 20.7066 4.76853C20.662 4.2219 20.5676 3.74175 20.3413 3.29754C19.9817 2.59193 19.4081 2.01825 18.7025 1.65873C18.2582 1.43239 17.7781 1.33803 17.2315 1.29336C16.7006 1.24999 16.0449 1.24999 15.2321 1.25Z"
        fill="#303233" />
    <path fill-rule="evenodd" clip-rule="evenodd"
        d="M21.5303 15.9697C21.8232 16.2626 21.8232 16.7374 21.5303 17.0303L17.0303 21.5303C16.7374 21.8232 16.2626 21.8232 15.9697 21.5303L13.9697 19.5303C13.6768 19.2374 13.6768 18.7626 13.9697 18.4697C14.2626 18.1768 14.7374 18.1768 15.0303 18.4697L16.5 19.9393L20.4697 15.9697C20.7626 15.6768 21.2374 15.6768 21.5303 15.9697Z"
        fill="#303233" />
</svg>
