<svg width="24" height="24" viewBox="0 0 24 24" fill="none" xmlns="http://www.w3.org/2000/svg">
    <g clip-path="url(#clip0_53_3345)">
        <path
            d="M12 0C12.5523 0 13 0.447715 13 1V3C13 3.55228 12.5523 4 12 4C11.4477 4 11 3.55228 11 3V1C11 0.447715 11.4477 0 12 0Z"
            fill="#303233" />
        <path fill-rule="evenodd" clip-rule="evenodd"
            d="M6 12C6 8.68629 8.68629 6 12 6C15.3137 6 18 8.68629 18 12C18 15.3137 15.3137 18 12 18C8.68629 18 6 15.3137 6 12ZM12 8C9.79086 8 8 9.79086 8 12C8 14.2091 9.79086 16 12 16C14.2091 16 16 14.2091 16 12C16 9.79086 14.2091 8 12 8Z"
            fill="#303233" />
        <path
            d="M13 21C13 20.4477 12.5523 20 12 20C11.4477 20 11 20.4477 11 21V23C11 23.5523 11.4477 24 12 24C12.5523 24 13 23.5523 13 23V21Z"
            fill="#303233" />
        <path
            d="M3.51262 3.51289C3.90314 3.12237 4.53631 3.12237 4.92683 3.51289L6.34683 4.93289C6.73736 5.32342 6.73736 5.95658 6.34683 6.34711C5.95631 6.73763 5.32314 6.73763 4.93262 6.34711L3.51262 4.92711C3.1221 4.53658 3.1221 3.90342 3.51262 3.51289Z"
            fill="#303233" />
        <path
            d="M19.0675 17.6529C18.6769 17.2624 18.0438 17.2624 17.6532 17.6529C17.2627 18.0434 17.2627 18.6766 17.6532 19.0671L19.0732 20.4871C19.4638 20.8776 20.0969 20.8776 20.4875 20.4871C20.878 20.0966 20.878 19.4634 20.4875 19.0729L19.0675 17.6529Z"
            fill="#303233" />
        <path
            d="M0 12C0 11.4477 0.447715 11 1 11H3C3.55228 11 4 11.4477 4 12C4 12.5523 3.55228 13 3 13H1C0.447715 13 0 12.5523 0 12Z"
            fill="#303233" />
        <path
            d="M21 11C20.4477 11 20 11.4477 20 12C20 12.5523 20.4477 13 21 13H23C23.5523 13 24 12.5523 24 12C24 11.4477 23.5523 11 23 11H21Z"
            fill="#303233" />
        <path
            d="M6.34683 17.6529C6.73736 18.0434 6.73736 18.6766 6.34683 19.0671L4.92683 20.4871C4.53631 20.8776 3.90314 20.8776 3.51262 20.4871C3.1221 20.0966 3.1221 19.4634 3.51262 19.0729L4.93262 17.6529C5.32314 17.2624 5.95631 17.2624 6.34683 17.6529Z"
            fill="#303233" />
        <path
            d="M20.4875 4.92711C20.878 4.53658 20.878 3.90342 20.4875 3.51289C20.0969 3.12237 19.4638 3.12237 19.0732 3.51289L17.6532 4.93289C17.2627 5.32342 17.2627 5.95658 17.6532 6.34711C18.0438 6.73763 18.6769 6.73763 19.0675 6.34711L20.4875 4.92711Z"
            fill="#303233" />
    </g>
    <defs>
        <clipPath id="clip0_53_3345">
            <rect width="24" height="24" fill="white" />
        </clipPath>
    </defs>
</svg>
