<svg width="16" height="16" viewBox="0 0 16 16" fill="none" xmlns="http://www.w3.org/2000/svg">
    <path
        d="M9.5 1C9.5 1.27614 9.72386 1.5 10 1.5H12.2929L8 5.79289L3.85355 1.64645C3.65829 1.45118 3.34171 1.45118 3.14645 1.64645C2.95118 1.84171 2.95118 2.15829 3.14645 2.35355L7.64645 6.85355C7.84171 7.04882 8.15829 7.04882 8.35355 6.85355L13 2.20711V4.5C13 4.77614 13.2239 5 13.5 5C13.7761 5 14 4.77614 14 4.5V1C14 0.723858 13.7761 0.5 13.5 0.5H10C9.72386 0.5 9.5 0.723858 9.5 1Z"
        fill="#303233" />
    <path fill-rule="evenodd" clip-rule="evenodd"
        d="M8.00003 8.39999C5.81128 8.39999 3.75357 8.96751 1.96759 9.9638L1.9564 9.97004C1.75992 10.0796 1.62381 10.1555 1.43897 10.309C1.01549 10.6607 0.644822 11.2919 0.544006 11.8331C0.499932 12.0697 0.49997 12.2792 0.500025 12.5816L0.500014 12.8026C0.49989 13.0765 0.499796 13.2843 0.535899 13.4674C0.684982 14.2238 1.27626 14.815 2.03258 14.9641C2.21573 15.0002 2.4235 15.0001 2.69735 15L2.94349 15C3.08194 15 3.18685 15.0001 3.28057 14.9908C4.18227 14.9018 4.89564 14.1884 4.98467 13.2867C4.99393 13.193 4.99391 13.0881 4.99387 12.9496L4.99387 12.9246C4.99387 12.8991 4.99389 12.886 4.99406 12.8759C4.99416 12.8699 4.9943 12.867 4.99439 12.8655C4.99442 12.8651 4.99445 12.8647 4.99447 12.8645C4.99917 12.8037 5.05742 12.7215 5.11322 12.6969C5.11733 12.6951 5.11897 12.6944 5.12124 12.6936L5.14915 12.6836C6.04066 12.3705 6.9999 12.2 8.00003 12.2C9.00016 12.2 9.9594 12.3705 10.8509 12.6836L10.8788 12.6936C10.8811 12.6944 10.8827 12.6951 10.8868 12.6969C10.9426 12.7215 11.0009 12.8037 11.0056 12.8645C11.0056 12.865 11.0057 12.8659 11.0058 12.8675C11.0058 12.8693 11.0059 12.8719 11.006 12.8759C11.0062 12.886 11.0062 12.8991 11.0062 12.9246L11.0062 12.9496C11.0062 13.0881 11.0061 13.193 11.0154 13.2867C11.1044 14.1884 11.8178 14.9018 12.7195 14.9908C12.8132 15.0001 12.9181 15 13.0566 15L13.3027 15C13.5765 15.0001 13.7843 15.0002 13.9675 14.9641C14.7238 14.815 15.3151 14.2238 15.4642 13.4674C15.5003 13.2843 15.5002 13.0765 15.5 12.8026L15.5 12.5816C15.5001 12.2792 15.5001 12.0697 15.4561 11.8331C15.3552 11.2919 14.9846 10.6607 14.5611 10.309C14.3763 10.1555 14.2401 10.0796 14.0437 9.97005L14.0325 9.9638C12.2465 8.96751 10.1888 8.39999 8.00003 8.39999ZM2.45476 10.8371C4.09564 9.92176 5.98615 9.39999 8.00003 9.39999C10.0139 9.39999 11.9044 9.92176 13.5453 10.8371C13.7475 10.9499 13.8121 10.9869 13.9222 11.0784C14.166 11.2808 14.4149 11.7047 14.473 12.0162C14.4984 12.1525 14.5 12.2692 14.5 12.6144V12.7531C14.5 13.0992 14.4977 13.1999 14.483 13.2741C14.4124 13.6323 14.1323 13.9124 13.7741 13.983C13.7 13.9976 13.5993 14 13.2531 14H13.0816C12.9068 14 12.8557 13.9994 12.8177 13.9956C12.3906 13.9535 12.0527 13.6156 12.0105 13.1884C12.0068 13.1505 12.0062 13.0994 12.0062 12.9246L12.0062 12.916C12.0062 12.8762 12.0062 12.8341 12.0026 12.7873C11.9695 12.3591 11.6831 11.955 11.2901 11.7818C11.2474 11.763 11.216 11.752 11.186 11.7415L11.1823 11.7402C10.1858 11.3901 9.11457 11.2 8.00003 11.2C6.88549 11.2 5.81429 11.3901 4.81776 11.7402L4.814 11.7415C4.78403 11.752 4.75261 11.763 4.71 11.7818C4.317 11.955 4.0306 12.3591 3.99745 12.7873C3.99383 12.8341 3.99385 12.8762 3.99387 12.916L3.99387 12.9246C3.99387 13.0994 3.99326 13.1505 3.98951 13.1884C3.94734 13.6156 3.60943 13.9535 3.18231 13.9956C3.14437 13.9994 3.09329 14 2.91843 14H2.74695C2.4008 14 2.3001 13.9976 2.22597 13.983C1.86772 13.9124 1.58764 13.6323 1.51702 13.2741C1.50241 13.1999 1.50003 13.0992 1.50003 12.7531V12.6144C1.50003 12.2692 1.5017 12.1525 1.52709 12.0162C1.58514 11.7047 1.83402 11.2808 2.07784 11.0784C2.18792 10.9869 2.25255 10.9499 2.45476 10.8371Z"
        fill="#303233" />
</svg>
