<svg width="16" height="16" viewBox="0 0 16 16" fill="none" xmlns="http://www.w3.org/2000/svg">
    <path
        d="M7.6593 9.04781L14.8536 1.85355C15.0488 1.65829 15.0488 1.34171 14.8536 1.14645C14.6583 0.951184 14.3417 0.951184 14.1464 1.14645L1.14645 14.1464C0.951184 14.3417 0.951184 14.6583 1.14645 14.8536C1.34171 15.0488 1.65829 15.0488 1.85355 14.8536L5.43398 11.2731C7.02684 12.753 8.89282 13.7723 10.8619 14.3312C11.2563 14.4432 11.4535 14.4991 11.7421 14.5C12.0622 14.5009 12.4958 14.3882 12.7749 14.2314C13.0265 14.0901 13.2115 13.9051 13.5816 13.535L13.6917 13.4248C14.063 13.0535 14.2487 12.8679 14.3496 12.6685C14.5501 12.2719 14.5501 11.8036 14.3496 11.407C14.2487 11.2076 14.063 11.0219 13.6917 10.6506L13.5556 10.5144C13.3113 10.2702 13.1891 10.148 13.0663 10.0682C12.6031 9.76703 12.006 9.76703 11.5429 10.0682C11.42 10.148 11.2979 10.2702 11.0536 10.5144C10.9738 10.5943 10.9338 10.6342 10.8871 10.6677C10.7212 10.7865 10.4807 10.8275 10.2848 10.7704C10.2297 10.7543 10.1861 10.7334 10.099 10.6916C9.22914 10.2739 8.40615 9.726 7.6593 9.04781Z"
        fill="#303233" />
    <path
        d="M6.1231 7.69804C6.08498 7.79394 5.99846 7.88046 5.82541 8.05351L4.70463 9.17429C4.48734 9.39158 4.37869 9.50023 4.24896 9.53484C4.13958 9.56402 4.01008 9.55244 3.9076 9.50434C3.78606 9.44728 3.70328 9.32812 3.53773 9.08982C2.68583 7.86356 2.06284 6.52645 1.66877 5.13805C1.55683 4.74367 1.50086 4.54647 1.50001 4.25794C1.49905 3.93777 1.6118 3.50422 1.76861 3.22508C1.90992 2.97352 2.09495 2.78849 2.46501 2.41843L2.57515 2.30829C2.94648 1.93696 3.13215 1.75129 3.33155 1.65044C3.72811 1.44985 4.19644 1.44985 4.59301 1.65044C4.79241 1.75129 4.97807 1.93696 5.3494 2.30829L5.48556 2.44445C5.72984 2.68872 5.85198 2.81086 5.93183 2.93368C6.23297 3.39685 6.23297 3.99397 5.93183 4.45714C5.85198 4.57996 5.72984 4.7021 5.48556 4.94638C5.40569 5.02624 5.36575 5.06619 5.33232 5.11287C5.21353 5.27876 5.17252 5.51931 5.22962 5.71519C5.24569 5.77031 5.2666 5.81387 5.30842 5.90098C5.48837 6.27577 5.69251 6.64187 5.92082 6.99692C6.06349 7.21878 6.13483 7.32971 6.15172 7.43151C6.16737 7.52586 6.15842 7.60917 6.1231 7.69804Z"
        fill="#303233" />
</svg>
