<svg width="24" height="24" viewBox="0 0 24 24" fill="none" xmlns="http://www.w3.org/2000/svg">
    <path fill-rule="evenodd" clip-rule="evenodd"
        d="M5.63604 1.22182C6.02656 1.61234 6.02656 2.24551 5.63604 2.63603C2.12132 6.15075 2.12132 11.8492 5.63604 15.364C9.15076 18.8787 14.8492 18.8787 18.364 15.364C18.7545 14.9734 19.3876 14.9734 19.7782 15.364C20.1687 15.7545 20.1687 16.3876 19.7782 16.7782C17.8849 18.6714 15.4732 19.7303 13 19.9547V21H15C15.5523 21 16 21.4477 16 22C16 22.5523 15.5523 23 15 23H9C8.44772 23 8 22.5523 8 22C8 21.4477 8.44772 21 9 21H11V19.9547C8.52682 19.7303 6.1151 18.6714 4.22183 16.7782C-0.0739417 12.4824 -0.0739417 5.51759 4.22183 1.22182C4.61235 0.831293 5.24551 0.831293 5.63604 1.22182ZM4 8.99999C4 4.58171 7.58172 0.999993 12 0.999993C16.4183 0.999993 20 4.58171 20 8.99999C20 13.4183 16.4183 17 12 17C7.58172 17 4 13.4183 4 8.99999Z"
        fill="#303233" />
</svg>
