<svg width="16" height="16" viewBox="0 0 16 16" fill="none" xmlns="http://www.w3.org/2000/svg">
    <g clip-path="url(#clip0_7445_15)">
        <path fill-rule="evenodd" clip-rule="evenodd"
            d="M8.75 5.75H9.33333C10.1157 5.75 10.75 5.11574 10.75 4.33333V1.66667C10.75 0.884264 10.1157 0.25 9.33333 0.25H6.66667C5.88426 0.25 5.25 0.884264 5.25 1.66667V4.33333C5.25 5.11574 5.88426 5.75 6.66667 5.75H7.25V7.25H1C0.585786 7.25 0.25 7.58579 0.25 8C0.25 8.41421 0.585786 8.75 1 8.75H3.25V10.25H2.66667C1.88426 10.25 1.25 10.8843 1.25 11.6667V14.3333C1.25 15.1157 1.88426 15.75 2.66667 15.75H5.33333C6.11574 15.75 6.75 15.1157 6.75 14.3333V11.6667C6.75 10.8843 6.11574 10.25 5.33333 10.25H4.75V8.75H11.25V10.25H10.6667C9.88426 10.25 9.25 10.8843 9.25 11.6667V14.3333C9.25 15.1157 9.88426 15.75 10.6667 15.75H13.3333C14.1157 15.75 14.75 15.1157 14.75 14.3333V11.6667C14.75 10.8843 14.1157 10.25 13.3333 10.25H12.75V8.75H15C15.4142 8.75 15.75 8.41421 15.75 8C15.75 7.58579 15.4142 7.25 15 7.25H8.75V5.75Z"
            fill="#303233" />
    </g>
    <defs>
        <clipPath id="clip0_7445_15">
            <rect width="16" height="16" fill="white" />
        </clipPath>
    </defs>
</svg>
