<svg width="16" height="16" viewBox="0 0 16 16" fill="none" xmlns="http://www.w3.org/2000/svg">
    <path fill-rule="evenodd" clip-rule="evenodd"
        d="M1.85355 1.14645C1.65829 0.951184 1.34171 0.951184 1.14645 1.14645C0.951185 1.34171 0.951185 1.65829 1.14645 1.85355L1.88476 2.59186C1.6328 2.80515 1.42408 3.06749 1.27248 3.36502C1.12159 3.66117 1.05868 3.98126 1.02891 4.34569C0.999991 4.69963 0.999995 5.1367 1 5.67859V8.3214C0.999995 8.86329 0.999991 9.30037 1.02891 9.65431C1.05868 10.0187 1.12159 10.3388 1.27248 10.635C1.51217 11.1054 1.89462 11.4878 2.36502 11.7275C2.66117 11.8784 2.98126 11.9413 3.34569 11.9711C3.69961 12 4.13667 12 4.67853 12H11.2929L14.1464 14.8536C14.3417 15.0488 14.6583 15.0488 14.8536 14.8536C15.0488 14.6583 15.0488 14.3417 14.8536 14.1464L11.8538 11.1467L1.85355 1.14645Z"
        fill="#303233" />
    <path fill-rule="evenodd" clip-rule="evenodd"
        d="M12.6543 2.02891C13.0187 2.05868 13.3388 2.12159 13.635 2.27248C14.1054 2.51217 14.4878 2.89462 14.7275 3.36502C14.8784 3.66117 14.9413 3.98126 14.9711 4.34569C15 4.69961 15 5.13667 15 5.67853V8.31781C15 8.82936 15 9.24675 14.9761 9.58773C14.9518 9.93567 14.9007 10.2442 14.7777 10.5283C14.7119 10.6803 14.5751 10.7899 14.4123 10.8209C14.2496 10.8519 14.0821 10.8002 13.965 10.683L6.1462 2.85331C6.00335 2.71025 5.9607 2.49525 6.03813 2.3085C6.11556 2.12175 6.29783 2 6.5 2L11.3214 2C11.8633 2 12.3004 1.99999 12.6543 2.02891Z"
        fill="#303233" />
    <path
        d="M8.0001 14C7.0077 14 6.06941 14.2483 5.23458 14.6916C4.99069 14.8211 4.68799 14.7284 4.55849 14.4845C4.42899 14.2406 4.52173 13.9379 4.76562 13.8084C5.73938 13.2914 6.83808 13 8.0001 13C9.16212 13 10.2608 13.2914 11.2346 13.8084C11.4785 13.9379 11.5712 14.2406 11.4417 14.4845C11.3122 14.7284 11.0095 14.8211 10.7656 14.6916C9.93079 14.2483 8.9925 14 8.0001 14Z"
        fill="#303233" />
</svg>
