<svg width="24" height="24" viewBox="0 0 24 24" fill="none" xmlns="http://www.w3.org/2000/svg">
    <path
        d="M14.9917 7.75C14.3059 7.75 13.75 8.30964 13.75 9C13.75 9.69036 14.3059 10.25 14.9917 10.25H15.0083C15.6941 10.25 16.25 9.69036 16.25 9C16.25 8.30964 15.6941 7.75 15.0083 7.75H14.9917Z"
        fill="#303233" />
    <path
        d="M7.75 9C7.75 8.30964 8.30594 7.75 8.99172 7.75H9.00828C9.69406 7.75 10.25 8.30964 10.25 9C10.25 9.69036 9.69406 10.25 9.00828 10.25H8.99172C8.30594 10.25 7.75 9.69036 7.75 9Z"
        fill="#303233" />
    <path fill-rule="evenodd" clip-rule="evenodd"
        d="M6 12.25C5.58579 12.25 5.25 12.5858 5.25 13C5.25 14.4631 6.05742 15.9039 7.25455 16.9563C8.46313 18.0188 10.1359 18.75 12 18.75C13.8641 18.75 15.5369 18.0188 16.7454 16.9563C17.9426 15.9039 18.75 14.4631 18.75 13C18.75 12.5858 18.4142 12.25 18 12.25H6ZM8.24495 15.8298C7.53136 15.2024 7.05826 14.4629 6.85828 13.75H17.1417C16.9417 14.4629 16.4686 15.2024 15.7551 15.8298C14.7971 16.6719 13.4699 17.25 12 17.25C10.5301 17.25 9.20287 16.6719 8.24495 15.8298Z"
        fill="#303233" />
    <path fill-rule="evenodd" clip-rule="evenodd"
        d="M12 1.25C6.06294 1.25 1.25 6.06294 1.25 12C1.25 17.9371 6.06294 22.75 12 22.75C17.9371 22.75 22.75 17.9371 22.75 12C22.75 6.06294 17.9371 1.25 12 1.25ZM2.75 12C2.75 6.89137 6.89137 2.75 12 2.75C17.1086 2.75 21.25 6.89137 21.25 12C21.25 17.1086 17.1086 21.25 12 21.25C6.89137 21.25 2.75 17.1086 2.75 12Z"
        fill="#303233" />
</svg>
