<svg width="24" height="24" viewBox="0 0 24 24" fill="none" xmlns="http://www.w3.org/2000/svg">
    <g clip-path="url(#clip0_53_5583)">
        <path fill-rule="evenodd" clip-rule="evenodd"
            d="M1.7065 0.294544C1.3165 -0.0954575 0.682502 -0.0954575 0.292501 0.294544C-0.0975002 0.684544 -0.0975002 1.31855 0.292501 1.70855L7.99951 9.41556V12.0026C8.00051 12.7936 8.23551 13.5656 8.67451 14.2226C9.11451 14.8796 9.73852 15.3926 10.4695 15.6946C11.1995 15.9976 12.0035 16.0766 12.7785 15.9226C13.2219 15.8346 13.6444 15.6725 14.0296 15.4456L15.4765 16.8925C14.7994 17.374 14.0265 17.7122 13.2047 17.8806C12.8215 17.9591 12.4334 17.9996 12.046 18.0027C12.0306 18.0019 12.0151 18.0016 11.9995 18.0016C11.9839 18.0016 11.9684 18.0019 11.953 18.0027C11.1876 17.9967 10.4262 17.8445 9.71168 17.5496C8.60668 17.0936 7.66268 16.3176 7.00068 15.3216C6.33968 14.3256 5.99067 13.1546 5.99968 11.9586V10.0016C5.99968 9.44958 5.55167 9.00158 4.99967 9.00158C4.44767 9.00158 3.99967 9.44958 3.99967 10.0016V11.9496C3.98967 13.5416 4.45367 15.1016 5.33467 16.4276C6.21668 17.7556 7.47568 18.7906 8.94868 19.3986C9.60884 19.6709 10.2987 19.8519 10.9995 19.9401V22.0016H7.99951C7.44751 22.0016 6.99951 22.4496 6.99951 23.0016C6.99951 23.5536 7.44751 24.0016 7.99951 24.0016H11.9975C11.9982 24.0016 11.9989 24.0016 11.9995 24.0016C12.0002 24.0016 12.0008 24.0016 12.0015 24.0016H15.9995C16.5515 24.0016 16.9995 23.5536 16.9995 23.0016C16.9995 22.4496 16.5515 22.0016 15.9995 22.0016H12.9995V19.9399C13.2026 19.9143 13.4052 19.8809 13.6067 19.8396C14.8131 19.5926 15.9409 19.0713 16.9058 18.3218L22.2926 23.7086C22.6826 24.0986 23.3166 24.0986 23.7066 23.7086C24.0966 23.3186 24.0966 22.6846 23.7066 22.2946L1.7065 0.294544ZM9.99952 12.0006V11.4156L12.5155 13.9316C12.4735 13.9426 12.4315 13.9526 12.3895 13.9606C12.0015 14.0376 11.5995 13.9976 11.2345 13.8466C10.8695 13.6956 10.5565 13.4396 10.3375 13.1106C10.1175 12.7826 9.99952 12.3956 9.99952 12.0006Z"
            fill="#303233" />
        <path
            d="M15.9995 9.34157V4.00155C16.0005 3.01055 15.6325 2.05355 14.9685 1.31755C14.3045 0.581544 13.3885 0.118543 12.4015 0.0185426C11.4145 -0.0804576 10.4255 0.189543 9.62752 0.777545C8.82851 1.36655 8.27651 2.23055 8.07951 3.20255C7.96951 3.74355 8.31951 4.27155 8.86051 4.38155C9.40152 4.49155 9.92952 4.14155 10.0395 3.60055C10.1385 3.11455 10.4135 2.68255 10.8135 2.38855C11.2125 2.09455 11.7075 1.95855 12.2005 2.00855C12.6935 2.05855 13.1515 2.28955 13.4835 2.65755C13.8165 3.02655 13.9995 3.50455 13.9995 4.00055V9.34157C13.9995 9.89357 14.4475 10.3416 14.9995 10.3416C15.5515 10.3416 15.9995 9.89357 15.9995 9.34157Z"
            fill="#303233" />
        <path
            d="M17.9997 11.9506V10.0016C17.9997 9.44958 18.4477 9.00158 18.9997 9.00158C19.5517 9.00158 19.9997 9.44958 19.9997 10.0016V11.9526C19.9997 12.4236 19.9577 12.8946 19.8747 13.3576C19.7767 13.9016 19.2567 14.2636 18.7137 14.1656C18.1697 14.0686 17.8077 13.5486 17.9057 13.0056C17.9677 12.6566 17.9997 12.3046 17.9997 11.9506Z"
            fill="#303233" />
    </g>
    <defs>
        <clipPath id="clip0_53_5583">
            <rect width="24" height="24" fill="white" />
        </clipPath>
    </defs>
</svg>
