<svg width="16" height="16" viewBox="0 0 16 16" fill="none" xmlns="http://www.w3.org/2000/svg">
    <path fill-rule="evenodd" clip-rule="evenodd"
        d="M11.7241 1.67531C9.323 0.774897 6.677 0.774897 4.2759 1.67531L3.21664 2.07253C2.48482 2.34696 2 3.04656 2 3.82815V7.68777C2 9.65296 3.12153 11.2909 4.31654 12.4844C5.5191 13.6854 6.8634 14.5045 7.45554 14.8372C7.79629 15.0286 8.20371 15.0286 8.54446 14.8372C9.1366 14.5045 10.4809 13.6854 11.6835 12.4844C12.8785 11.2909 14 9.65296 14 7.68777V3.82815C14 3.04656 13.5152 2.34696 12.7834 2.07253L11.7241 1.67531ZM10.1036 6.35355C10.2988 6.15829 10.2988 5.84171 10.1036 5.64645C9.90829 5.45118 9.59171 5.45118 9.39645 5.64645L8 7.04289L6.60355 5.64645C6.40829 5.45118 6.09171 5.45118 5.89645 5.64645C5.70118 5.84171 5.70118 6.15829 5.89645 6.35355L7.29289 7.75L5.89645 9.14645C5.70118 9.34171 5.70118 9.65829 5.89645 9.85355C6.09171 10.0488 6.40829 10.0488 6.60355 9.85355L8 8.45711L9.39645 9.85355C9.59171 10.0488 9.90829 10.0488 10.1036 9.85355C10.2988 9.65829 10.2988 9.34171 10.1036 9.14645L8.70711 7.75L10.1036 6.35355Z"
        fill="#303233" />
</svg>
