<svg width="16" height="16" viewBox="0 0 16 16" fill="none" xmlns="http://www.w3.org/2000/svg">
    <path fill-rule="evenodd" clip-rule="evenodd"
        d="M8 1C4.13401 1 1 4.13401 1 8C1 11.866 4.13401 15 8 15C11.866 15 15 11.866 15 8C15 4.13401 11.866 1 8 1ZM6.81851 5.61438C7.03149 5.79015 7.06165 6.10529 6.88588 6.31827C6.539 6.73859 6.04322 7.00001 5.50025 7.00001C4.95225 7.00001 4.47104 6.73447 4.12053 6.3253C3.94088 6.11558 3.96525 5.79994 4.17497 5.62029C4.38469 5.44064 4.70033 5.46501 4.87998 5.67473C5.07613 5.90371 5.29492 6.00001 5.50025 6.00001C5.71062 6.00001 5.93484 5.8996 6.11462 5.68176C6.29039 5.46878 6.60553 5.43861 6.81851 5.61438ZM11.8859 6.31827C12.0617 6.10529 12.0315 5.79015 11.8185 5.61438C11.6055 5.43861 11.2904 5.46878 11.1146 5.68176C10.9348 5.8996 10.7106 6.00001 10.5003 6.00001C10.2949 6.00001 10.0761 5.90371 9.87998 5.67473C9.70033 5.46501 9.38469 5.44064 9.17497 5.62029C8.96525 5.79994 8.94088 6.11558 9.12053 6.3253C9.47104 6.73447 9.95225 7.00001 10.5003 7.00001C11.0432 7.00001 11.539 6.73859 11.8859 6.31827ZM10.8635 9.8685C11.0532 9.66789 11.0445 9.35143 10.8438 9.16166C10.6432 8.9719 10.3268 8.9807 10.137 9.18131C9.82171 9.51463 9.06274 10.1667 7.99992 10.1667C6.93777 10.1667 6.17908 9.51546 5.86339 9.1819C5.67358 8.98134 5.35711 8.97263 5.15655 9.16245C4.95599 9.35226 4.94728 9.66872 5.1371 9.86928C5.52019 10.2741 6.52584 11.1667 7.99992 11.1667C9.47491 11.1667 10.4809 10.273 10.8635 9.8685Z"
        fill="#303233" />
</svg>
