<svg width="24" height="24" viewBox="0 0 24 24" fill="none" xmlns="http://www.w3.org/2000/svg">
    <path fill-rule="evenodd" clip-rule="evenodd"
        d="M7.88889 4C5.0756 4 3 6.73389 3 9.48C3 10.8014 3.51314 12.1206 4.36797 13.395C5.222 14.6682 6.38131 15.8421 7.57778 16.8505C8.7705 17.8557 9.97307 18.6738 10.8886 19.2403C11.3457 19.5231 11.727 19.7405 11.9943 19.8848C11.9962 19.8859 11.9981 19.8869 12 19.8879C12.0019 19.8869 12.0038 19.8859 12.0057 19.8848C12.273 19.7405 12.6543 19.5231 13.1114 19.2403C14.0269 18.6738 15.2295 17.8557 16.4222 16.8505C17.6187 15.8421 18.778 14.6682 19.632 13.395C20.4869 12.1206 21 10.8014 21 9.48C21 6.73389 18.9244 4 16.1111 4C14.4699 4 13.4035 4.81824 12.7612 5.57222C12.5712 5.79526 12.293 5.92375 12 5.92375C11.707 5.92375 11.4288 5.79526 11.2388 5.57222C10.5965 4.81824 9.53014 4 7.88889 4ZM1 9.48C1 5.97111 3.65774 2 7.88889 2C9.71593 2 11.0661 2.7105 12 3.51082C12.9339 2.7105 14.2841 2 16.1111 2C20.3423 2 23 5.97111 23 9.48C23 11.3254 22.2854 13.0297 21.293 14.5091C20.2998 15.9897 18.9924 17.2999 17.7111 18.3798C16.4261 19.4629 15.1397 20.3372 14.1636 20.9411C13.6749 21.2435 13.2596 21.4807 12.9558 21.6447C12.8047 21.7263 12.6762 21.7924 12.5771 21.8404C12.5289 21.8637 12.4787 21.8871 12.4319 21.9068C12.4098 21.9161 12.3759 21.9299 12.3368 21.9431C12.3177 21.9496 12.2854 21.9601 12.2456 21.9699L12.2449 21.9701C12.2195 21.9763 12.1237 22 12 22C11.8763 22 11.7805 21.9763 11.7551 21.9701L11.7544 21.9699C11.7146 21.9601 11.6823 21.9496 11.6632 21.9431C11.6241 21.9299 11.5902 21.9161 11.5681 21.9068C11.5213 21.8871 11.4711 21.8637 11.4229 21.8404C11.3238 21.7924 11.1953 21.7263 11.0442 21.6447C10.7404 21.4807 10.3251 21.2435 9.83637 20.9411C8.86027 20.3372 7.57395 19.4629 6.28889 18.3798C5.00758 17.2999 3.70022 15.9897 2.70703 14.5091C1.71464 13.0297 1 11.3254 1 9.48Z"
        fill="#303233" />
</svg>
