<svg width="16" height="16" viewBox="0 0 16 16" fill="none" xmlns="http://www.w3.org/2000/svg">
    <path fill-rule="evenodd" clip-rule="evenodd"
        d="M1 3.99968C1 3.99966 1 3.99971 1 3.99968V3.875C1 2.8694 1.7828 2 2.8 2H13.2C14.2172 2 15 2.8694 15 3.875V3.99258C15.0001 3.99729 15.0001 4.002 15 4.0067V12.125C15 13.1306 14.2172 14 13.2 14H2.8C1.7828 14 1 13.1306 1 12.125V3.99968ZM2.00689 3.75908C2.06053 3.31294 2.41938 3 2.8 3H13.2C13.5806 3 13.9395 3.31296 13.9931 3.75912L8.00002 8.36919L2.00689 3.75908ZM14 5.01545V12.125C14 12.6319 13.6128 13 13.2 13H2.8C2.3872 13 2 12.6319 2 12.125V5.01541L7.69517 9.39631C7.8749 9.53456 8.12515 9.53456 8.30488 9.39631L14 5.01545Z"
        fill="#303233" />
</svg>
