<svg width="16" height="16" viewBox="0 0 16 16" fill="none" xmlns="http://www.w3.org/2000/svg">
    <path
        d="M6.25 2C6.25 1.58579 5.91421 1.25 5.5 1.25C5.08579 1.25 4.75 1.58579 4.75 2V2.14C4.75 2.74043 4.74942 3.14565 4.72388 3.4582C4.69906 3.762 4.65445 3.91163 4.60286 4.01289C4.47343 4.26691 4.26691 4.47343 4.01289 4.60286C3.91163 4.65445 3.762 4.69906 3.4582 4.72388C3.14565 4.74942 2.74043 4.75 2.14 4.75H2C1.58579 4.75 1.25 5.08579 1.25 5.5C1.25 5.91421 1.58579 6.25 2 6.25H2.17066C2.73263 6.25001 3.19945 6.25002 3.58035 6.2189C3.97691 6.1865 4.34591 6.11666 4.69387 5.93937C5.23013 5.66613 5.66613 5.23013 5.93937 4.69387C6.11666 4.34591 6.1865 3.97691 6.2189 3.58035C6.25002 3.19945 6.25001 2.73263 6.25 2.17066V2Z"
        fill="#303233" />
    <path
        d="M9.75 2C9.75 1.58579 10.0858 1.25 10.5 1.25C10.9142 1.25 11.25 1.58579 11.25 2V2.14C11.25 2.74043 11.2506 3.14565 11.2761 3.4582C11.3009 3.762 11.3455 3.91163 11.3971 4.01289C11.5266 4.26691 11.7331 4.47343 11.9871 4.60286C12.0884 4.65445 12.238 4.69906 12.5418 4.72388C12.8544 4.74942 13.2596 4.75 13.86 4.75H14C14.4142 4.75 14.75 5.08579 14.75 5.5C14.75 5.91421 14.4142 6.25 14 6.25H13.8293C13.2674 6.25001 12.8005 6.25002 12.4197 6.2189C12.0231 6.1865 11.6541 6.11666 11.3061 5.93937C10.7699 5.66613 10.3339 5.23013 10.0606 4.69387C9.88334 4.34591 9.8135 3.97691 9.7811 3.58035C9.74998 3.19945 9.74999 2.73263 9.75 2.17066V2Z"
        fill="#303233" />
    <path
        d="M5.5 14.75C5.91421 14.75 6.25 14.4142 6.25 14V13.8293C6.25001 13.2674 6.25002 12.8005 6.2189 12.4197C6.1865 12.0231 6.11666 11.6541 5.93937 11.3061C5.66613 10.7699 5.23013 10.3339 4.69387 10.0606C4.34591 9.88334 3.97691 9.8135 3.58035 9.7811C3.19945 9.74998 2.73263 9.74999 2.17066 9.75H2C1.58579 9.75 1.25 10.0858 1.25 10.5C1.25 10.9142 1.58579 11.25 2 11.25H2.14C2.74043 11.25 3.14565 11.2506 3.4582 11.2761C3.762 11.3009 3.91163 11.3455 4.01289 11.3971C4.26691 11.5266 4.47343 11.7331 4.60286 11.9871C4.65445 12.0884 4.69906 12.238 4.72388 12.5418C4.74942 12.8544 4.75 13.2596 4.75 13.86V14C4.75 14.4142 5.08579 14.75 5.5 14.75Z"
        fill="#303233" />
    <path
        d="M9.75 14C9.75 14.4142 10.0858 14.75 10.5 14.75C10.9142 14.75 11.25 14.4142 11.25 14V13.86C11.25 13.2596 11.2506 12.8544 11.2761 12.5418C11.3009 12.238 11.3455 12.0884 11.3971 11.9871C11.5266 11.7331 11.7331 11.5266 11.9871 11.3971C12.0884 11.3455 12.238 11.3009 12.5418 11.2761C12.8544 11.2506 13.2596 11.25 13.86 11.25H14C14.4142 11.25 14.75 10.9142 14.75 10.5C14.75 10.0858 14.4142 9.75 14 9.75H13.8293C13.2674 9.74999 12.8005 9.74998 12.4197 9.7811C12.0231 9.8135 11.6541 9.88334 11.3061 10.0606C10.7699 10.3339 10.3339 10.7699 10.0606 11.3061C9.88334 11.6541 9.8135 12.0231 9.7811 12.4197C9.74998 12.8005 9.74999 13.2674 9.75 13.8293V14Z"
        fill="#303233" />
</svg>
