<svg width="24" height="24" viewBox="0 0 24 24" fill="none" xmlns="http://www.w3.org/2000/svg">
    <path fill-rule="evenodd" clip-rule="evenodd"
        d="M9.56811 0.999997C9.31573 0.999967 9.06993 0.999938 8.86178 1.01694C8.63318 1.03562 8.36345 1.07969 8.09202 1.21799C7.7157 1.40973 7.40974 1.71569 7.21799 2.09202C7.07969 2.36344 7.03563 2.63318 7.01695 2.86177C7.01315 2.90823 7.01021 2.95657 7.00792 3.00643C6.65186 3.01676 6.3466 3.04323 6.0663 3.11052C4.6037 3.46166 3.46174 4.60362 3.1106 6.06622C2.99943 6.52927 2.99969 7.06046 3.00004 7.77619V18.2238C2.99969 18.9395 2.99943 19.4707 3.1106 19.9338C3.46174 21.3964 4.6037 22.5383 6.0663 22.8895C6.52935 23.0006 7.06053 23.0004 7.77626 23H16.2239C16.9396 23.0004 17.4708 23.0006 17.9339 22.8895C19.3965 22.5383 20.5384 21.3964 20.8896 19.9338C21.0007 19.4707 21.0005 18.9395 21.0001 18.2238V7.77621C21.0005 7.06047 21.0007 6.52927 20.8896 6.06622C20.5384 4.60362 19.3965 3.46166 17.9339 3.11052C17.6535 3.04322 17.3482 3.01676 16.9921 3.00643C16.9898 2.95657 16.9869 2.90823 16.9831 2.86177C16.9644 2.63318 16.9203 2.36344 16.782 2.09202C16.5903 1.71569 16.2843 1.40973 15.908 1.21799C15.6366 1.07969 15.3668 1.03562 15.1382 1.01694C14.9301 0.999938 14.6843 0.999967 14.4319 0.999997L9.56811 0.999997ZM16.9914 5.00773C16.9892 5.05259 16.9865 5.09618 16.9831 5.13823C16.9644 5.36682 16.9203 5.63656 16.782 5.90798C16.5903 6.2843 16.2843 6.59027 15.908 6.78201C15.6366 6.92031 15.3668 6.96438 15.1382 6.98305C14.9301 7.00006 14.6843 7.00003 14.4319 7H9.56811C9.31572 7.00003 9.06993 7.00006 8.86178 6.98305C8.63318 6.96438 8.36345 6.92031 8.09202 6.78201C7.7157 6.59027 7.40974 6.2843 7.21799 5.90798C7.07969 5.63656 7.03563 5.36682 7.01695 5.13823C7.01351 5.09618 7.01078 5.0526 7.00859 5.00773C6.77128 5.01511 6.64199 5.02914 6.53319 5.05526C5.80189 5.23083 5.23091 5.80181 5.05534 6.53311C5.00704 6.73427 5.00008 7.00553 5.00008 7.9V18.1C5.00008 18.9945 5.00704 19.2657 5.05534 19.4669C5.23091 20.1982 5.80189 20.7692 6.53319 20.9447C6.73435 20.993 7.0056 21 7.90008 21H16.1001C16.9946 21 17.2658 20.993 17.467 20.9447C18.1983 20.7692 18.7692 20.1982 18.9448 19.4669C18.9931 19.2657 19.0001 18.9945 19.0001 18.1V7.9C19.0001 7.00553 18.9931 6.73427 18.9448 6.53311C18.7692 5.80181 18.1983 5.23083 17.467 5.05526C17.3581 5.02913 17.2288 5.0151 16.9914 5.00773ZM9.01031 3.02463L9.01145 3.01145L9.02464 3.0103C9.14122 3.00078 9.30348 3 9.60001 3H14.4C14.6965 3 14.8588 3.00078 14.9754 3.0103L14.9886 3.01145L14.9897 3.02463C14.9992 3.14122 15 3.30347 15 3.6V4.4C15 4.69653 14.9992 4.85878 14.9897 4.97537L14.9886 4.98855L14.9754 4.9897C14.8588 4.99922 14.6965 5 14.4 5H9.60001C9.30348 5 9.14122 4.99922 9.02464 4.9897L9.01145 4.98855L9.01031 4.97537C9.00078 4.85878 9.00001 4.69653 9.00001 4.4V3.6C9.00001 3.30347 9.00078 3.14122 9.01031 3.02463Z"
        fill="#303233" />
</svg>
