<svg width="16" height="16" viewBox="0 0 16 16" fill="none" xmlns="http://www.w3.org/2000/svg">
    <path fill-rule="evenodd" clip-rule="evenodd"
        d="M10.2215 1H5.77853C5.21919 0.999995 4.769 0.999992 4.40464 1.02976C4.02979 1.06039 3.70198 1.125 3.39915 1.2793C2.91698 1.52497 2.52497 1.91698 2.2793 2.39915C2.125 2.70198 2.06039 3.02979 2.02976 3.40464C1.99999 3.769 2 4.21919 2 4.77853V11.2215C2 11.7808 1.99999 12.231 2.02976 12.5954C2.06039 12.9702 2.125 13.298 2.2793 13.6009C2.52497 14.083 2.91698 14.475 3.39915 14.7207C3.70198 14.875 4.02979 14.9396 4.40464 14.9702C4.76899 15 5.21918 15 5.77851 15H10.2215C10.7808 15 11.231 15 11.5954 14.9702C11.9702 14.9396 12.298 14.875 12.6009 14.7207C13.083 14.475 13.475 14.083 13.7207 13.6009C13.875 13.298 13.9396 12.9702 13.9702 12.5954C14 12.231 14 11.7808 14 11.2215V4.77851C14 4.21918 14 3.76899 13.9702 3.40464C13.9396 3.02979 13.875 2.70198 13.7207 2.39915C13.475 1.91698 13.083 1.52497 12.6009 1.2793C12.298 1.125 11.9702 1.06039 11.5954 1.02976C11.231 0.999992 10.7808 0.999995 10.2215 1ZM8.13524 6.51478C7.88859 6.47371 7.63568 6.519 7.42202 6.64092C7.20865 6.76268 7.04996 6.95176 6.97023 7.17181C6.87617 7.43143 6.58945 7.56565 6.32982 7.47159C6.07019 7.37752 5.93597 7.0908 6.03004 6.83117C6.19227 6.38339 6.51116 6.00933 6.9264 5.77238C7.34135 5.53559 7.82753 5.44976 8.29952 5.52837C8.77162 5.60699 9.20279 5.84575 9.51518 6.20607C9.82781 6.56666 10.0008 7.02549 10.0001 7.50161C9.99989 8.26657 9.43236 8.77159 9.02734 9.0414C8.80953 9.1865 8.59528 9.29319 8.43745 9.36328C8.35783 9.39864 8.29078 9.42548 8.24247 9.44387C8.21827 9.45308 8.19866 9.46022 8.18438 9.46529L8.16701 9.47137L8.16148 9.47325L8.15954 9.47391L8.15844 9.47428C7.89645 9.56154 7.61302 9.42 7.52576 9.15801C7.43855 8.89619 7.57995 8.61327 7.8416 8.5258L7.84959 8.523C7.85728 8.52026 7.86989 8.51569 7.88671 8.50929C7.92043 8.49645 7.97057 8.47645 8.03157 8.44936C8.15499 8.39454 8.31574 8.31387 8.47293 8.20916C8.81782 7.9794 9.00013 7.73514 9.00013 7.50112C9.00049 7.26939 8.91649 7.04208 8.75961 6.86114C8.60244 6.67985 8.38178 6.55584 8.13524 6.51478ZM7.49514 11C7.49514 10.7239 7.71899 10.5 7.99514 10.5H8.00014C8.27628 10.5 8.50014 10.7239 8.50014 11C8.50014 11.2761 8.27628 11.5 8.00014 11.5H7.99514C7.71899 11.5 7.49514 11.2761 7.49514 11Z"
        fill="#303233" />
</svg>
