<svg width="16" height="16" viewBox="0 0 16 16" fill="none" xmlns="http://www.w3.org/2000/svg">
    <path
        d="M4 7.5C4 7.77614 4.22386 8 4.5 8H6.29289L4.14645 10.1464C3.95118 10.3417 3.95118 10.6583 4.14645 10.8536C4.34171 11.0488 4.65829 11.0488 4.85355 10.8536L7 8.70711V10.5C7 10.7761 7.22386 11 7.5 11C7.77614 11 8 10.7761 8 10.5V7.5C8 7.22386 7.77614 7 7.5 7H4.5C4.22386 7 4 7.22386 4 7.5Z"
        fill="#303233" />
    <path fill-rule="evenodd" clip-rule="evenodd"
        d="M1 4.00001C0.999992 2.89544 1.89543 2 3 2H6.79318C7.24589 2 7.68006 2.17986 8.00015 2.5C8.32024 2.82014 8.75441 3 9.20712 3H13.0001C14.1046 3 15.0001 3.89543 15.0001 5V12C15.0001 13.1046 14.1046 14 13.0001 14H3.00006C1.89549 14 1.00006 13.1046 1.00006 12L1 4.00001ZM2.00015 5C2.00015 4.44772 2.44787 4 3.00015 4H13.0002C13.5524 4 14.0002 4.44772 14.0002 5V12C14.0002 12.5523 13.5524 13 13.0002 13H3.00015C2.44787 13 2.00015 12.5523 2.00015 12V5Z"
        fill="#303233" />
</svg>
