<svg width="24" height="24" viewBox="0 0 24 24" fill="none" xmlns="http://www.w3.org/2000/svg">
    <path
        d="M4.25 14C4.25 13.5858 4.58579 13.25 5 13.25H13C13.4142 13.25 13.75 13.5858 13.75 14C13.75 14.4142 13.4142 14.75 13 14.75H5C4.58579 14.75 4.25 14.4142 4.25 14Z"
        fill="#303233" />
    <path
        d="M17 13.25C16.5858 13.25 16.25 13.5858 16.25 14C16.25 14.4142 16.5858 14.75 17 14.75H19C19.4142 14.75 19.75 14.4142 19.75 14C19.75 13.5858 19.4142 13.25 19 13.25H17Z"
        fill="#303233" />
    <path fill-rule="evenodd" clip-rule="evenodd"
        d="M0.25 6C0.25 4.48122 1.48122 3.25 3 3.25H21C22.5188 3.25 23.75 4.48122 23.75 6V18C23.75 19.5188 22.5188 20.75 21 20.75H3C1.48122 20.75 0.25 19.5188 0.25 18V6ZM1.75 6C1.75 5.30964 2.30964 4.75 3 4.75H21C21.6904 4.75 22.25 5.30964 22.25 6V9.25H1.75V6ZM22.25 10.75V18C22.25 18.6904 21.6904 19.25 21 19.25H3C2.30964 19.25 1.75 18.6904 1.75 18V10.75H22.25Z"
        fill="#303233" />
</svg>
