<svg width="16" height="16" viewBox="0 0 16 16" fill="none" xmlns="http://www.w3.org/2000/svg">
    <path fill-rule="evenodd" clip-rule="evenodd"
        d="M6.61304 1.5H9.38696C9.74306 1.49999 10.0403 1.49999 10.2831 1.51983C10.5364 1.54052 10.7741 1.58526 10.999 1.69982C11.3439 1.87559 11.6244 2.15605 11.8002 2.50102C11.9147 2.72586 11.9595 2.96363 11.9802 3.21689C12 3.45971 12 3.75693 12 4.11303V7L13.4508 7C13.6225 6.99999 13.7801 6.99998 13.9119 7.01074C14.054 7.02235 14.2095 7.04893 14.363 7.12716C14.5825 7.23901 14.761 7.41749 14.8728 7.63701C14.9511 7.79055 14.9776 7.946 14.9893 8.08809C15 8.21987 15 8.37753 15 8.54918L15 13.5C15.2761 13.5 15.5 13.7239 15.5 14C15.5 14.2761 15.2761 14.5 15 14.5H1C0.723858 14.5 0.5 14.2761 0.5 14C0.5 13.7239 0.723858 13.5 1 13.5V8.54919C0.999987 8.37753 0.999976 8.21988 1.01074 8.08809C1.02235 7.946 1.04893 7.79055 1.12716 7.63701C1.23901 7.41749 1.41749 7.23901 1.63701 7.12716C1.79055 7.04893 1.946 7.02235 2.08809 7.01074C2.21988 6.99998 2.37754 6.99999 2.5492 7L4 7L4 4.11304C3.99999 3.75694 3.99999 3.45971 4.01983 3.21689C4.04052 2.96363 4.08526 2.72586 4.19982 2.50102C4.37559 2.15605 4.65605 1.87559 5.00102 1.69982C5.22586 1.58526 5.46363 1.54052 5.71689 1.51983C5.95971 1.49999 6.25694 1.49999 6.61304 1.5ZM5 7.5L5 13.5H11V4.13333C11 3.75172 10.9996 3.49557 10.9835 3.29832C10.9679 3.1069 10.9399 3.01538 10.9092 2.95501C10.8293 2.79821 10.7018 2.67072 10.545 2.59083C10.4846 2.56007 10.3931 2.53214 10.2017 2.51651C10.0044 2.50039 9.74829 2.5 9.36667 2.5H6.63333C6.25171 2.5 5.99557 2.50039 5.79832 2.51651C5.6069 2.53214 5.51538 2.56007 5.45501 2.59083C5.29821 2.67072 5.17072 2.79821 5.09083 2.95501C5.06007 3.01538 5.03214 3.1069 5.01651 3.29832C5.00039 3.49557 5 3.75171 5 4.13333L5 7.5ZM12 8V13.5H14L14 8.56667C14 8.37173 13.9996 8.2556 13.9926 8.16952C13.9883 8.11698 13.9826 8.0949 13.9808 8.08898C13.9651 8.05922 13.9408 8.0349 13.911 8.01922C13.9051 8.01738 13.883 8.01172 13.8305 8.00742C13.7444 8.00039 13.6283 8 13.4333 8H12ZM13.9802 8.08725L13.9808 8.08898L13.9802 8.08725ZM4 13.5V8H2.56667C2.37173 8 2.2556 8.00039 2.16952 8.00742C2.11698 8.01172 2.09489 8.01738 2.08897 8.01922C2.05921 8.0349 2.03489 8.05922 2.01922 8.08898C2.01738 8.0949 2.01171 8.11698 2.00742 8.16952C2.00039 8.2556 2 8.37173 2 8.56667L2 13.5H4ZM2.01982 8.08725L2.01922 8.08898L2.01982 8.08725ZM2.08725 8.01982L2.08897 8.01922L2.08725 8.01982Z"
        fill="#303233" />
    <path fill-rule="evenodd" clip-rule="evenodd"
        d="M6.75 5C6.75 4.72386 6.97386 4.5 7.25 4.5H8.75C9.02614 4.5 9.25 4.72386 9.25 5C9.25 5.27614 9.02614 5.5 8.75 5.5H7.25C6.97386 5.5 6.75 5.27614 6.75 5ZM6.75 7.5C6.75 7.22386 6.97386 7 7.25 7H8.75C9.02614 7 9.25 7.22386 9.25 7.5C9.25 7.77614 9.02614 8 8.75 8H7.25C6.97386 8 6.75 7.77614 6.75 7.5ZM6.75 10C6.75 9.72386 6.97386 9.5 7.25 9.5H8.75C9.02614 9.5 9.25 9.72386 9.25 10C9.25 10.2761 9.02614 10.5 8.75 10.5H7.25C6.97386 10.5 6.75 10.2761 6.75 10Z"
        fill="#303233" />
</svg>
