<svg width="16" height="16" viewBox="0 0 16 16" fill="none" xmlns="http://www.w3.org/2000/svg">
    <path
        d="M7.99888 3C5.87968 3 4.06723 4.31859 3.33956 6.18189C3.23911 6.43911 2.94915 6.5662 2.69193 6.46574C2.43471 6.36529 2.30762 6.07534 2.40807 5.81811C3.28054 3.58405 5.45411 2 7.99888 2C9.65747 2 11.1597 2.67364 12.2452 3.76105L13.7793 5.29514V3.5C13.7793 3.22386 14.0032 3 14.2793 3C14.5554 3 14.7793 3.22386 14.7793 3.5V6.5C14.7793 6.77614 14.5554 7 14.2793 7H11.2793C11.0032 7 10.7793 6.77614 10.7793 6.5C10.7793 6.22386 11.0032 6 11.2793 6H13.0699L11.5381 4.46816C10.6325 3.56081 9.38143 3 7.99888 3Z"
        fill="#303233" />
    <path
        d="M2.21875 12.5V10.7052L3.75418 12.2406C4.83958 13.327 6.34111 14 7.99888 14C10.5436 14 12.7172 12.416 13.5897 10.1819C13.6901 9.92466 13.563 9.63471 13.3058 9.53426C13.0486 9.4338 12.7586 9.56089 12.6582 9.81811C11.9305 11.6814 10.1181 13 7.99888 13C6.61708 13 5.3668 12.4399 4.46129 11.5335L2.92781 10H4.71875C4.99489 10 5.21875 9.77614 5.21875 9.5C5.21875 9.22386 4.99489 9 4.71875 9H1.71875C1.44261 9 1.21875 9.22386 1.21875 9.5V12.5C1.21875 12.7761 1.44261 13 1.71875 13C1.99489 13 2.21875 12.7761 2.21875 12.5Z"
        fill="#303233" />
</svg>
