<svg width="16" height="16" viewBox="0 0 16 16" fill="none" xmlns="http://www.w3.org/2000/svg">
    <path
        d="M13.0303 0.46967C12.7374 0.176777 12.2626 0.176777 11.9697 0.46967L9.71967 2.71967C9.42678 3.01256 9.42678 3.48744 9.71967 3.78033C10.0126 4.07322 10.4874 4.07322 10.7803 3.78033L11.75 2.81066V6C11.75 6.41421 12.0858 6.75 12.5 6.75C12.9142 6.75 13.25 6.41421 13.25 6V2.81066L14.2197 3.78033C14.5126 4.07322 14.9874 4.07322 15.2803 3.78033C15.5732 3.48744 15.5732 3.01256 15.2803 2.71967L13.0303 0.46967Z"
        fill="#303233" />
    <path
        d="M7.09717 3.30834C7.50789 3.25468 7.79734 2.87822 7.74368 2.46749C7.69002 2.05677 7.31356 1.76732 6.90283 1.82098C3.51868 2.26314 0.75 4.77693 0.75 7.99997C0.75 8.70578 0.882075 9.37713 1.12406 10H1.12857C1.24524 10.2984 1.38743 10.5869 1.55311 10.8639C1.61211 10.9629 1.64711 11.0799 1.60511 11.1869L0.802116 13.2249C0.702117 13.4789 0.748117 13.7679 0.922115 13.9779C1.09711 14.1889 1.37211 14.2879 1.64011 14.2369L4.75708 13.6429C4.81908 13.6319 4.88108 13.6439 4.93908 13.6669C5.90708 14.0549 6.94907 14.2529 8.00106 14.2499C11.212 14.2491 13.903 12.4537 14.8682 10H14.8724C14.978 9.72858 15.0631 9.44789 15.1258 9.15908C15.2136 8.75429 14.9567 8.35492 14.5519 8.26704C14.1471 8.17917 13.7478 8.43608 13.6599 8.84087C13.5725 9.24364 13.4209 9.63309 13.213 10H13.2208C12.3035 11.6362 10.2951 12.7499 8.00006 12.7499H7.99806C7.13807 12.7529 6.28707 12.5909 5.49608 12.2749C5.17208 12.1449 4.81908 12.1049 4.47609 12.1699L2.6971 12.5089L3.0011 11.7369C3.2131 11.1979 3.1371 10.5919 2.8401 10.094C2.8215 10.0628 2.80329 10.0315 2.78549 10H2.79035C2.44183 9.38328 2.25 8.70225 2.25 7.99997C2.25 5.72338 4.25114 3.68019 7.09717 3.30834Z"
        fill="#303233" />
</svg>
