<svg width="16" height="16" viewBox="0 0 16 16" fill="none" xmlns="http://www.w3.org/2000/svg">
    <path fill-rule="evenodd" clip-rule="evenodd"
        d="M1.95357 0.999929L2.0001 0.999981H14.0001L14.0466 0.999929C14.231 0.999623 14.4122 0.999321 14.5736 1.04257C15.005 1.15816 15.3419 1.49509 15.4575 1.92646C15.5008 2.08788 15.5005 2.26908 15.5002 2.45345L15.5001 2.49998L15.5002 2.54652C15.5005 2.73088 15.5008 2.91208 15.4575 3.0735C15.3419 3.50487 15.005 3.8418 14.5736 3.95739C14.4122 4.00064 14.231 4.00034 14.0466 4.00003L14.0001 3.99998H2.0001L1.95357 4.00003C1.76921 4.00034 1.588 4.00064 1.42658 3.95739C0.995214 3.8418 0.65828 3.50487 0.542696 3.0735C0.499443 2.91208 0.499745 2.73088 0.500051 2.54652L0.500103 2.49998L0.500051 2.45344C0.499745 2.26908 0.499443 2.08788 0.542696 1.92646C0.65828 1.49509 0.995214 1.15816 1.42658 1.04257C1.588 0.999321 1.7692 0.999623 1.95357 0.999929ZM1.74941 2.00266C1.69608 2.00509 1.68353 2.009 1.6854 2.0085C1.59913 2.03162 1.53174 2.099 1.50862 2.18528C1.50912 2.18341 1.50521 2.19596 1.50278 2.24928C1.50022 2.3053 1.5001 2.3792 1.5001 2.49998C1.5001 2.62076 1.50022 2.69466 1.50278 2.75068C1.50521 2.804 1.50912 2.81655 1.50862 2.81469C1.53174 2.90096 1.59913 2.96835 1.6854 2.99146C1.68715 2.99188 1.70251 2.99517 1.74941 2.99731C1.80542 2.99986 1.87933 2.99998 2.0001 2.99998H14.0001C14.1209 2.99998 14.1948 2.99986 14.2508 2.99731C14.3041 2.99487 14.3167 2.99096 14.3148 2.99146C14.4011 2.96835 14.4685 2.90096 14.4916 2.81469C14.4911 2.81655 14.495 2.804 14.4974 2.75068C14.5 2.69466 14.5001 2.62076 14.5001 2.49998C14.5001 2.3792 14.5 2.3053 14.4974 2.24928C14.4953 2.20239 14.492 2.18703 14.4916 2.18528C14.4685 2.099 14.4011 2.03162 14.3148 2.0085C14.3148 2.00849 14.3009 2.00494 14.2508 2.00266C14.1948 2.0001 14.1209 1.99998 14.0001 1.99998H2.0001C1.87932 1.99998 1.80542 2.0001 1.74941 2.00266Z"
        fill="#303233" />
    <path fill-rule="evenodd" clip-rule="evenodd"
        d="M1.95357 5.99993L2.0001 5.99998H14.0001L14.0466 5.99993C14.231 5.99962 14.4122 5.99932 14.5736 6.04257C15.005 6.15816 15.3419 6.49509 15.4575 6.92646C15.5008 7.08788 15.5005 7.26908 15.5002 7.45344L15.5001 7.49998L15.5002 7.54652C15.5005 7.73088 15.5008 7.91208 15.4575 8.0735C15.3419 8.50487 15.005 8.8418 14.5736 8.95739C14.4122 9.00064 14.231 9.00034 14.0466 9.00003L14.0001 8.99998H2.0001L1.95357 9.00003C1.7692 9.00034 1.588 9.00064 1.42658 8.95739C0.995214 8.8418 0.65828 8.50487 0.542696 8.0735C0.499443 7.91208 0.499745 7.73088 0.500051 7.54652L0.500103 7.49998L0.500051 7.45344C0.499745 7.26908 0.499443 7.08788 0.542696 6.92646C0.65828 6.49509 0.995214 6.15816 1.42658 6.04257C1.588 5.99932 1.7692 5.99962 1.95357 5.99993ZM1.74941 7.00266C1.69608 7.00509 1.68353 7.009 1.6854 7.0085C1.59913 7.03162 1.53174 7.099 1.50862 7.18528C1.50912 7.18341 1.50521 7.19596 1.50278 7.24928C1.50022 7.3053 1.5001 7.3792 1.5001 7.49998C1.5001 7.62076 1.50022 7.69466 1.50278 7.75068C1.50507 7.80085 1.50866 7.81493 1.50867 7.81486C1.53178 7.90113 1.59913 7.96835 1.6854 7.99146C1.68715 7.99188 1.70251 7.99517 1.74941 7.99731C1.80542 7.99986 1.87933 7.99998 2.0001 7.99998H14.0001C14.1209 7.99998 14.1948 7.99986 14.2508 7.99731C14.3007 7.99503 14.3149 7.99146 14.315 7.99142C14.315 7.99142 14.3151 7.99139 14.315 7.99142C14.4013 7.9683 14.4685 7.90096 14.4916 7.81469C14.4911 7.81655 14.495 7.804 14.4974 7.75068C14.5 7.69466 14.5001 7.62076 14.5001 7.49998C14.5001 7.3792 14.5 7.3053 14.4974 7.24928C14.4953 7.20239 14.492 7.18703 14.4916 7.18528C14.4685 7.099 14.4011 7.03162 14.3148 7.0085C14.3167 7.009 14.3041 7.00509 14.2508 7.00266C14.1948 7.0001 14.1209 6.99998 14.0001 6.99998H2.0001C1.87932 6.99998 1.80542 7.0001 1.74941 7.00266Z"
        fill="#303233" />
    <path fill-rule="evenodd" clip-rule="evenodd"
        d="M2.0001 11L1.95357 10.9999C1.7692 10.9996 1.588 10.9993 1.42658 11.0426C0.995214 11.1582 0.65828 11.4951 0.542696 11.9265C0.499443 12.0879 0.499745 12.2691 0.500051 12.4534L0.500103 12.5L0.500051 12.5465C0.499745 12.7309 0.499443 12.9121 0.542696 13.0735C0.65828 13.5049 0.995214 13.8418 1.42658 13.9574C1.588 14.0006 1.7692 14.0003 1.95357 14L2.0001 14H14.0001L14.0466 14C14.231 14.0003 14.4122 14.0006 14.5736 13.9574C15.005 13.8418 15.3419 13.5049 15.4575 13.0735C15.5008 12.9121 15.5005 12.7309 15.5002 12.5465L15.5001 12.5L15.5002 12.4534C15.5005 12.2691 15.5008 12.0879 15.4575 11.9265C15.3419 11.4951 15.005 11.1582 14.5736 11.0426C14.4122 10.9993 14.231 10.9996 14.0466 10.9999L14.0001 11H2.0001ZM1.6854 12.0085C1.68353 12.009 1.69608 12.0051 1.74941 12.0027C1.80542 12.0001 1.87932 12 2.0001 12H14.0001C14.1209 12 14.1948 12.0001 14.2508 12.0027C14.3041 12.0051 14.3167 12.009 14.3148 12.0085C14.4011 12.0316 14.4685 12.099 14.4916 12.1853C14.492 12.187 14.4953 12.2024 14.4974 12.2493C14.5 12.3053 14.5001 12.3792 14.5001 12.5C14.5001 12.6208 14.5 12.6947 14.4974 12.7507C14.495 12.804 14.4911 12.8166 14.4916 12.8147C14.4685 12.901 14.4011 12.9683 14.3148 12.9915C14.3167 12.991 14.3041 12.9949 14.2508 12.9973C14.1948 12.9999 14.1209 13 14.0001 13H2.0001C1.87933 13 1.80542 12.9999 1.74941 12.9973C1.70251 12.9952 1.68715 12.9919 1.6854 12.9915C1.59913 12.9683 1.53174 12.901 1.50862 12.8147C1.50912 12.8166 1.50521 12.804 1.50278 12.7507C1.50022 12.6947 1.5001 12.6208 1.5001 12.5C1.5001 12.3792 1.50022 12.3053 1.50278 12.2493C1.50507 12.1991 1.50867 12.185 1.50867 12.1851C1.50866 12.1851 1.50869 12.185 1.50867 12.1851C1.53178 12.0988 1.59913 12.0316 1.6854 12.0085Z"
        fill="#303233" />
</svg>
