<svg width="24" height="24" viewBox="0 0 24 24" fill="none" xmlns="http://www.w3.org/2000/svg">
    <path fill-rule="evenodd" clip-rule="evenodd"
        d="M13.3982 1.08269C13.8054 1.25946 14.0473 1.68353 13.9922 2.12403L13.3925 6.92174C13.3448 7.3035 13.0823 7.62403 12.7174 7.74607C12.3526 7.8681 11.9501 7.77 11.6823 7.49376L9.85477 5.6087C9.4989 5.24162 9.47723 4.66523 9.80453 4.27246L12.2317 1.35981C12.5159 1.01878 12.9909 0.905925 13.3982 1.08269ZM2.29289 2.29289C2.68342 1.90236 3.31658 1.90236 3.70711 2.29289L8.69991 7.28569C8.70533 7.29099 8.71067 7.29633 8.71594 7.30172L16.7 15.2857C16.7053 15.291 16.7107 15.2963 16.7159 15.3017L21.7071 20.2929C22.0976 20.6834 22.0976 21.3166 21.7071 21.7071C21.3166 22.0976 20.6834 22.0976 20.2929 21.7071L16.0672 17.4814L11.7682 22.6402C11.484 22.9812 11.009 23.0941 10.6018 22.9173C10.1946 22.7405 9.95266 22.3165 10.0077 21.876L10.8672 15L4.67223 15C4.43124 15 4.18714 15.0001 3.98772 14.982C3.79911 14.965 3.43794 14.9198 3.12473 14.6667C2.76615 14.3769 2.56074 13.9383 2.56769 13.4774C2.57376 13.0747 2.77027 12.7684 2.8779 12.6125C2.9917 12.4478 3.14801 12.2603 3.30233 12.0751C3.30997 12.066 3.31761 12.0568 3.32523 12.0477L6.64715 8.06136L2.29289 3.7071C1.90237 3.31658 1.90237 2.68341 2.29289 2.29289ZM20.0123 9.01796C20.2009 9.03503 20.5621 9.08021 20.8753 9.33331C21.2338 9.62308 21.4393 10.0616 21.4323 10.5226C21.4262 10.9253 21.2297 11.2316 21.1221 11.3875C21.0083 11.5522 20.852 11.7397 20.6976 11.9249L19.3185 13.5799C19.1378 13.7966 18.8741 13.927 18.5922 13.9388C18.3103 13.9507 18.0365 13.8429 17.8384 13.642L14.9382 10.7023C14.655 10.4153 14.5719 9.9862 14.7275 9.61419C14.883 9.24218 15.2468 9 15.65 9L19.3278 8.99999C19.5688 8.99995 19.8129 8.9999 20.0123 9.01796Z"
        fill="#303233" />
</svg>
