<svg width="16" height="16" viewBox="0 0 16 16" fill="none" xmlns="http://www.w3.org/2000/svg">
    <g clip-path="url(#clip0_53_7927)">
        <path fill-rule="evenodd" clip-rule="evenodd"
            d="M5.76942 0.75H10.2306C10.7821 0.749991 11.2411 0.749983 11.6157 0.780592C12.006 0.812481 12.3704 0.881296 12.7143 1.05655C13.2436 1.32619 13.6738 1.75645 13.9435 2.28565C14.1187 2.6296 14.1875 2.99397 14.2194 3.38428C14.25 3.75893 14.25 4.21787 14.25 4.7694V7.25H15C15.4142 7.25 15.75 7.58579 15.75 8C15.75 8.41421 15.4142 8.75 15 8.75H1C0.585786 8.75 0.25 8.41421 0.25 8C0.25 7.58579 0.585786 7.25 1 7.25H1.75V4.76942C1.74999 4.21789 1.74998 3.75893 1.78059 3.38428C1.81248 2.99397 1.8813 2.6296 2.05655 2.28565C2.32619 1.75645 2.75645 1.32619 3.28565 1.05655C3.6296 0.881296 3.99397 0.812481 4.38428 0.780592C4.75892 0.749983 5.21789 0.749991 5.76942 0.75ZM3.25 7.25H12.75V4.8C12.75 4.21007 12.7494 3.81273 12.7244 3.50643C12.7001 3.20888 12.6565 3.06388 12.6069 2.96664C12.4811 2.71968 12.2803 2.51889 12.0334 2.39306C11.9361 2.34351 11.7911 2.29992 11.4936 2.27561C11.1873 2.25058 10.7899 2.25 10.2 2.25H5.8C5.21007 2.25 4.81273 2.25058 4.50643 2.27561C4.20888 2.29992 4.06388 2.34351 3.96664 2.39306C3.71968 2.51889 3.51889 2.71968 3.39306 2.96664C3.34351 3.06388 3.29992 3.20888 3.27561 3.50643C3.25058 3.81273 3.25 4.21007 3.25 4.8V7.25Z"
            fill="#303233" />
        <path
            d="M2.5 12.5C2.91421 12.5 3.25 12.8358 3.25 13.25C3.25 13.5261 3.47386 13.75 3.75 13.75C4.16421 13.75 4.5 14.0858 4.5 14.5C4.5 14.9142 4.16421 15.25 3.75 15.25C2.64543 15.25 1.75 14.3546 1.75 13.25C1.75 12.8358 2.08579 12.5 2.5 12.5Z"
            fill="#303233" />
        <path
            d="M13.5 12.5C13.9142 12.5 14.25 12.8358 14.25 13.25C14.25 14.3546 13.3546 15.25 12.25 15.25C11.8358 15.25 11.5 14.9142 11.5 14.5C11.5 14.0858 11.8358 13.75 12.25 13.75C12.5261 13.75 12.75 13.5261 12.75 13.25C12.75 12.8358 13.0858 12.5 13.5 12.5Z"
            fill="#303233" />
        <path
            d="M3.25 10.75C3.25 10.3358 2.91421 10 2.5 10C2.08579 10 1.75 10.3358 1.75 10.75C1.75 11.1642 2.08579 11.5 2.5 11.5C2.91421 11.5 3.25 11.1642 3.25 10.75Z"
            fill="#303233" />
        <path
            d="M13.5 10C13.9142 10 14.25 10.3358 14.25 10.75C14.25 11.1642 13.9142 11.5 13.5 11.5C13.0858 11.5 12.75 11.1642 12.75 10.75C12.75 10.3358 13.0858 10 13.5 10Z"
            fill="#303233" />
        <path
            d="M6.75 13.75C6.33579 13.75 6 14.0858 6 14.5C6 14.9142 6.33579 15.25 6.75 15.25H9.25C9.66421 15.25 10 14.9142 10 14.5C10 14.0858 9.66421 13.75 9.25 13.75H6.75Z"
            fill="#303233" />
    </g>
    <defs>
        <clipPath id="clip0_53_7927">
            <rect width="16" height="16" fill="white" />
        </clipPath>
    </defs>
</svg>
