<svg width="24" height="24" viewBox="0 0 24 24" fill="none" xmlns="http://www.w3.org/2000/svg">
    <path
        d="M4 1.25C2.48122 1.25 1.25 2.48122 1.25 4V6C1.25 6.41421 1.58579 6.75 2 6.75C2.41421 6.75 2.75 6.41421 2.75 6V4C2.75 3.30964 3.30964 2.75 4 2.75H6C6.41421 2.75 6.75 2.41421 6.75 2C6.75 1.58579 6.41421 1.25 6 1.25H4Z"
        fill="#303233" />
    <path
        d="M10 1.25C9.58579 1.25 9.25 1.58579 9.25 2C9.25 2.41421 9.58579 2.75 10 2.75H14C14.4142 2.75 14.75 2.41421 14.75 2C14.75 1.58579 14.4142 1.25 14 1.25H10Z"
        fill="#303233" />
    <path
        d="M18 1.25C17.5858 1.25 17.25 1.58579 17.25 2C17.25 2.41421 17.5858 2.75 18 2.75H20C20.6904 2.75 21.25 3.30964 21.25 4V6C21.25 6.41421 21.5858 6.75 22 6.75C22.4142 6.75 22.75 6.41421 22.75 6V4C22.75 2.48122 21.5188 1.25 20 1.25H18Z"
        fill="#303233" />
    <path
        d="M2.75 10C2.75 9.58579 2.41421 9.25 2 9.25C1.58579 9.25 1.25 9.58579 1.25 10V14C1.25 14.4142 1.58579 14.75 2 14.75C2.41421 14.75 2.75 14.4142 2.75 14V10Z"
        fill="#303233" />
    <path
        d="M22.75 10C22.75 9.58579 22.4142 9.25 22 9.25C21.5858 9.25 21.25 9.58579 21.25 10V14C21.25 14.4142 21.5858 14.75 22 14.75C22.4142 14.75 22.75 14.4142 22.75 14V10Z"
        fill="#303233" />
    <path
        d="M2.75 18C2.75 17.5858 2.41421 17.25 2 17.25C1.58579 17.25 1.25 17.5858 1.25 18V20C1.25 21.5188 2.48122 22.75 4 22.75H6C6.41421 22.75 6.75 22.4142 6.75 22C6.75 21.5858 6.41421 21.25 6 21.25H4C3.30964 21.25 2.75 20.6904 2.75 20V18Z"
        fill="#303233" />
    <path
        d="M22.75 18C22.75 17.5858 22.4142 17.25 22 17.25C21.5858 17.25 21.25 17.5858 21.25 18V20C21.25 20.6904 20.6904 21.25 20 21.25H18C17.5858 21.25 17.25 21.5858 17.25 22C17.25 22.4142 17.5858 22.75 18 22.75H20C21.5188 22.75 22.75 21.5188 22.75 20V18Z"
        fill="#303233" />
    <path
        d="M10 21.25C9.58579 21.25 9.25 21.5858 9.25 22C9.25 22.4142 9.58579 22.75 10 22.75H14C14.4142 22.75 14.75 22.4142 14.75 22C14.75 21.5858 14.4142 21.25 14 21.25H10Z"
        fill="#303233" />
    <path
        d="M5 4.25C4.58579 4.25 4.25 4.58579 4.25 5V19C4.25 19.4142 4.58579 19.75 5 19.75H19C19.4142 19.75 19.75 19.4142 19.75 19V5C19.75 4.58579 19.4142 4.25 19 4.25H5Z"
        fill="#303233" />
</svg>
