<svg width="24" height="24" viewBox="0 0 24 24" fill="none" xmlns="http://www.w3.org/2000/svg">
    <path
        d="M8 4C8 3.44772 7.55228 3 7 3C6.44772 3 6 3.44772 6 4V17.5858L3.70711 15.2929C3.31658 14.9024 2.68342 14.9024 2.29289 15.2929C1.90237 15.6834 1.90237 16.3166 2.29289 16.7071L6.29289 20.7071C6.68342 21.0976 7.31658 21.0976 7.70711 20.7071L11.7071 16.7071C12.0976 16.3166 12.0976 15.6834 11.7071 15.2929C11.3166 14.9024 10.6834 14.9024 10.2929 15.2929L8 17.5858V4Z"
        fill="#303233" />
    <path
        d="M13 11C12.4477 11 12 11.4477 12 12C12 12.5523 12.4477 13 13 13H21C21.5523 13 22 12.5523 22 12C22 11.4477 21.5523 11 21 11H13Z"
        fill="#303233" />
    <path
        d="M12 8C12 7.44772 12.4477 7 13 7H17C17.5523 7 18 7.44772 18 8C18 8.55228 17.5523 9 17 9H13C12.4477 9 12 8.55228 12 8Z"
        fill="#303233" />
    <path
        d="M13 3C12.4477 3 12 3.44772 12 4C12 4.55228 12.4477 5 13 5H14C14.5523 5 15 4.55228 15 4C15 3.44772 14.5523 3 14 3H13Z"
        fill="#303233" />
</svg>
