<svg width="24" height="24" viewBox="0 0 24 24" fill="none" xmlns="http://www.w3.org/2000/svg">
    <path fill-rule="evenodd" clip-rule="evenodd"
        d="M12.2413 4H6.7587C5.95374 3.99999 5.28937 3.99998 4.74818 4.04419C4.18608 4.09012 3.66937 4.18868 3.18404 4.43598C2.43139 4.81947 1.81947 5.43139 1.43598 6.18404C1.18868 6.66937 1.09012 7.18608 1.04419 7.74818C0.999978 8.28937 0.999988 8.95372 1 9.75869V14.2413C0.999988 15.0463 0.999978 15.7106 1.04419 16.2518C1.09012 16.8139 1.18868 17.3306 1.43598 17.816C1.81947 18.5686 2.43139 19.1805 3.18404 19.564C3.66937 19.8113 4.18608 19.9099 4.74818 19.9558C5.28937 20 5.95373 20 6.7587 20H8.5V23C8.5 23.5523 8.94771 24 9.5 24C10.0523 24 10.5 23.5523 10.5 23V20H12.2413C13.0462 20 13.7106 20 14.2518 19.9558C14.8139 19.9099 15.3306 19.8113 15.816 19.564C16.5686 19.1805 17.1805 18.5686 17.564 17.816C17.8113 17.3306 17.9099 16.8139 17.9558 16.2518C17.9968 15.7499 17.9998 15.142 18 14.4142L19.9536 16.3678C20.1447 16.559 20.3326 16.7469 20.4973 16.8848C20.6442 17.0078 20.9537 17.2545 21.3823 17.2883C21.861 17.3259 22.3288 17.1322 22.6406 16.7671C22.9198 16.4401 22.9642 16.0469 22.9811 15.856C23.0001 15.642 23 15.3763 23 15.1059V8.8941C23 8.62374 23.0001 8.35798 22.9811 8.14403C22.9642 7.95314 22.9198 7.55988 22.6406 7.23294C22.3288 6.86782 21.861 6.67406 21.3823 6.71173C20.9537 6.74547 20.6442 6.99217 20.4973 7.11519C20.3326 7.25306 20.1448 7.44097 19.9536 7.63215L18 9.5858C17.9998 8.85803 17.9968 8.25013 17.9558 7.74818C17.9099 7.18608 17.8113 6.66937 17.564 6.18404C17.1805 5.43139 16.5686 4.81947 15.816 4.43598C15.3306 4.18868 14.8139 4.09012 14.2518 4.04419C13.7106 3.99998 13.0463 3.99999 12.2413 4ZM10.5 20V15.4142L11.7929 16.7071C12.1834 17.0976 12.8166 17.0976 13.2071 16.7071C13.5976 16.3166 13.5976 15.6834 13.2071 15.2929L10.2071 12.2929C10.1112 12.197 10.0007 12.1247 9.88278 12.0759C9.76488 12.027 9.63559 12 9.5 12C9.36441 12 9.23512 12.027 9.11722 12.0759C9.00195 12.1236 8.8938 12.1937 8.79945 12.2864L8.7923 12.2935L5.79289 15.2929C5.40237 15.6834 5.40237 16.3166 5.79289 16.7071C6.18342 17.0976 6.81658 17.0976 7.20711 16.7071L8.5 15.4142V20H10.5Z"
        fill="#303233" />
</svg>
