<svg width="24" height="24" viewBox="0 0 24 24" fill="none" xmlns="http://www.w3.org/2000/svg">
    <path
        d="M11.1328 10.7861C11.5456 10.7516 11.8522 10.389 11.8177 9.97619C11.7831 9.56342 11.4205 9.2568 11.0077 9.29135C8.42137 9.50779 6.07313 10.562 4.23618 12.1802C3.92537 12.454 3.89536 12.9279 4.16916 13.2387C4.44296 13.5495 4.91689 13.5796 5.2277 13.3058C6.83133 11.8931 8.87835 10.9748 11.1328 10.7861Z"
        fill="#303233" />
    <path
        d="M11.9999 15.75C10.7598 15.75 9.62199 16.179 8.7238 16.8973C8.40031 17.156 7.92835 17.1035 7.66965 16.78C7.41095 16.4565 7.46347 15.9845 7.78696 15.7258C8.94147 14.8026 10.4072 14.25 11.9999 14.25C13.5688 14.25 15.0146 14.7862 16.161 15.6848C16.487 15.9404 16.5441 16.4118 16.2886 16.7378C16.0331 17.0638 15.5616 17.1209 15.2357 16.8654C14.3439 16.1663 13.2215 15.75 11.9999 15.75Z"
        fill="#303233" />
    <path
        d="M12 19.25C11.5858 19.25 11.25 19.5858 11.25 20C11.25 20.4142 11.5858 20.75 12 20.75H12.01C12.4242 20.75 12.76 20.4142 12.76 20C12.76 19.5858 12.4242 19.25 12.01 19.25H12Z"
        fill="#303233" />
    <path fill-rule="evenodd" clip-rule="evenodd"
        d="M19 4.25C19.317 4.25 19.5997 4.44925 19.7063 4.74775L20.4403 6.80294C20.5664 7.15588 20.8441 7.43365 21.1971 7.5597L23.2523 8.29369C23.5508 8.4003 23.75 8.68304 23.75 9C23.75 9.31696 23.5508 9.5997 23.2523 9.70631L21.1971 10.4403C20.8441 10.5664 20.5664 10.8441 20.4403 11.1971L19.7063 13.2523C19.5997 13.5507 19.317 13.75 19 13.75C18.683 13.75 18.4003 13.5507 18.2937 13.2523L17.5597 11.1971C17.4336 10.8441 17.1559 10.5664 16.8029 10.4403L14.7478 9.70631C14.4493 9.5997 14.25 9.31696 14.25 9C14.25 8.68304 14.4493 8.4003 14.7478 8.29369L16.8029 7.5597C17.1559 7.43365 17.4336 7.15588 17.5597 6.80294L18.2937 4.74775C18.4003 4.44925 18.683 4.25 19 4.25Z"
        fill="#303233" />
    <path fill-rule="evenodd" clip-rule="evenodd"
        d="M0.688614 8.64781C3.66836 5.91728 7.64125 4.25 12.0019 4.25C12.7096 4.25 13.4074 4.29394 14.0927 4.37931C14.5038 4.43052 14.7955 4.80524 14.7443 5.21628C14.693 5.62731 14.3183 5.91901 13.9073 5.86781C13.2834 5.79008 12.6475 5.75 12.0019 5.75C8.03094 5.75 4.41601 7.2667 1.70202 9.75371C1.39663 10.0336 0.922212 10.0128 0.642368 9.70746C0.362524 9.40208 0.383229 8.92766 0.688614 8.64781Z"
        fill="#303233" />
</svg>
