<svg width="16" height="16" viewBox="0 0 16 16" fill="none" xmlns="http://www.w3.org/2000/svg">
    <path
        d="M12.5 13.25C12.5 13.5261 12.2761 13.75 12 13.75C11.7239 13.75 11.5 13.5261 11.5 13.25V3.95711L9.10355 6.35355C8.90829 6.54882 8.59171 6.54882 8.39645 6.35355C8.20118 6.15829 8.20118 5.84171 8.39645 5.64645L11.6464 2.39645C11.8416 2.20127 12.158 2.20117 12.3533 2.39623L15.6073 5.64623C15.8027 5.84137 15.8029 6.15795 15.6078 6.35334C15.4126 6.54872 15.096 6.54891 14.9007 6.35377L12.5 3.95606V13.25Z"
        fill="#303233" />
    <path
        d="M4.5 2.75C4.5 2.47386 4.27614 2.25 4 2.25C3.72386 2.25 3.5 2.47386 3.5 2.75V12.0429L1.10355 9.64645C0.908291 9.45119 0.591709 9.45119 0.396447 9.64645C0.201184 9.84171 0.201184 10.1583 0.396447 10.3536L3.64645 13.6036C3.84162 13.7987 4.15804 13.7988 4.35334 13.6038L7.60734 10.3538C7.80272 10.1586 7.80291 9.84205 7.60777 9.64667C7.41263 9.45128 7.09605 9.45109 6.90066 9.64623L4.5 12.0439V2.75Z"
        fill="#303233" />
</svg>
