<svg width="16" height="16" viewBox="0 0 16 16" fill="none" xmlns="http://www.w3.org/2000/svg">
    <g clip-path="url(#clip0_2174_1102)">
        <path fill-rule="evenodd" clip-rule="evenodd"
            d="M4.66957 4.75H11.3304C11.8646 4.74999 12.3104 4.74998 12.6747 4.77974C13.0546 4.81078 13.4112 4.87789 13.7485 5.04973C14.2659 5.31338 14.6866 5.73408 14.9503 6.25153C15.1221 6.58879 15.1892 6.94545 15.2203 7.32533C15.25 7.68956 15.25 8.1354 15.25 8.66955V11.3305C15.25 11.8646 15.25 12.3104 15.2203 12.6747C15.1892 13.0546 15.1221 13.4112 14.9503 13.7485C14.6866 14.2659 14.2659 14.6866 13.7485 14.9503C13.4112 15.1221 13.0546 15.1892 12.6747 15.2203C12.3104 15.25 11.8646 15.25 11.3305 15.25H4.66955C4.1354 15.25 3.68956 15.25 3.32533 15.2203C2.94545 15.1892 2.58879 15.1221 2.25153 14.9503C1.73408 14.6866 1.31338 14.2659 1.04973 13.7485C0.877889 13.4112 0.810778 13.0546 0.77974 12.6747C0.749981 12.3104 0.74999 11.8646 0.75 11.3304V8.66957C0.74999 8.13541 0.749981 7.68956 0.77974 7.32533C0.810778 6.94545 0.877889 6.58879 1.04973 6.25153C1.31338 5.73408 1.73408 5.31338 2.25153 5.04973C2.58879 4.87789 2.94545 4.81078 3.32533 4.77974C3.68956 4.74998 4.13541 4.74999 4.66957 4.75ZM3.44748 6.27476C3.16036 6.29822 3.02307 6.3401 2.93251 6.38624C2.69731 6.50608 2.50608 6.69731 2.38624 6.93251C2.3401 7.02307 2.29822 7.16035 2.27476 7.44748C2.25058 7.74336 2.25 8.12757 2.25 8.7V11.3C2.25 11.8724 2.25058 12.2566 2.27476 12.5525C2.29822 12.8396 2.3401 12.9769 2.38624 13.0675C2.50608 13.3027 2.69731 13.4939 2.93251 13.6138C3.02307 13.6599 3.16036 13.7018 3.44748 13.7252C3.74336 13.7494 4.12757 13.75 4.7 13.75H11.3C11.8724 13.75 12.2566 13.7494 12.5525 13.7252C12.8396 13.7018 12.9769 13.6599 13.0675 13.6138C13.3027 13.4939 13.4939 13.3027 13.6138 13.0675C13.6599 12.9769 13.7018 12.8396 13.7252 12.5525C13.7494 12.2566 13.75 11.8724 13.75 11.3V8.7C13.75 8.12757 13.7494 7.74336 13.7252 7.44748C13.7018 7.16035 13.6599 7.02307 13.6138 6.93251C13.4939 6.69731 13.3027 6.50608 13.0675 6.38624C12.9769 6.3401 12.8396 6.29822 12.5525 6.27476C12.2566 6.25058 11.8724 6.25 11.3 6.25H4.7C4.12757 6.25 3.74336 6.25058 3.44748 6.27476Z"
            fill="#303233" />
        <path
            d="M8.33044 0.75H7.66957C7.13543 0.74999 6.68956 0.749982 6.32533 0.779741C5.94545 0.810778 5.58879 0.87789 5.25153 1.04973C4.82073 1.26924 4.457 1.59759 4.19511 2H11.8049C11.543 1.59759 11.1793 1.26924 10.7485 1.04973C10.4112 0.87789 10.0546 0.810778 9.67467 0.779741C9.31044 0.749982 8.86458 0.74999 8.33044 0.75Z"
            fill="#303233" />
        <path
            d="M6.16984 2.75H9.83071C10.3649 2.74999 10.8107 2.74998 11.1749 2.77974C11.5548 2.81078 11.9115 2.87789 12.2487 3.04973C12.6795 3.26924 13.0433 3.59759 13.3052 4H2.69538C2.95726 3.59759 3.321 3.26924 3.7518 3.04973C4.08906 2.87789 4.44572 2.81078 4.8256 2.77974C5.18983 2.74998 5.63569 2.74999 6.16984 2.75Z"
            fill="#303233" />
        <path
            d="M6.5 7.93426C6.5 7.53491 6.94507 7.29672 7.27735 7.51823L10.376 9.58398C10.6728 9.78189 10.6728 10.2181 10.376 10.416L7.27735 12.4818C6.94507 12.7033 6.5 12.4651 6.5 12.0657V7.93426Z"
            fill="#303233" />
    </g>
    <defs>
        <clipPath id="clip0_2174_1102">
            <rect width="16" height="16" fill="white" />
        </clipPath>
    </defs>
</svg>
