<svg width="16" height="16" viewBox="0 0 16 16" fill="none" xmlns="http://www.w3.org/2000/svg">
    <path
        d="M12.5304 5.19699C12.8233 4.9041 12.8233 4.42923 12.5304 4.13633C12.2375 3.84344 11.7626 3.84344 11.4698 4.13633L8.13642 7.46967C7.84352 7.76256 7.84352 8.23743 8.13642 8.53033L11.4698 11.8637C11.7626 12.1566 12.2375 12.1566 12.5304 11.8637C12.8233 11.5708 12.8233 11.0959 12.5304 10.803L9.72741 8L12.5304 5.19699Z"
        fill="#303233" />
    <path
        d="M7.86366 5.19699C8.15656 4.9041 8.15656 4.42923 7.86366 4.13633C7.57077 3.84344 7.0959 3.84344 6.803 4.13633L3.46967 7.46967C3.32902 7.61032 3.25 7.80108 3.25 8C3.25 8.19891 3.32902 8.38968 3.46967 8.53033L6.803 11.8637C7.0959 12.1566 7.57077 12.1566 7.86366 11.8637C8.15656 11.5708 8.15656 11.0959 7.86366 10.803L5.06066 8L7.86366 5.19699Z"
        fill="#303233" />
</svg>
