<svg width="24" height="24" viewBox="0 0 24 24" fill="none" xmlns="http://www.w3.org/2000/svg">
    <path fill-rule="evenodd" clip-rule="evenodd"
        d="M10 7C11.6569 7 13 8.34315 13 10C13 11.6569 11.6569 13 10 13C8.34315 13 7 11.6569 7 10C7 8.34315 8.34315 7 10 7Z"
        fill="#303233" />
    <path fill-rule="evenodd" clip-rule="evenodd"
        d="M15.2412 1C16.0462 0.999988 16.7108 0.999729 17.252 1.04395C17.814 1.08987 18.3311 1.18827 18.8164 1.43555C19.5689 1.81902 20.181 2.43109 20.5645 3.18359C20.8117 3.6689 20.9101 4.18599 20.9561 4.74805C21.0003 5.28924 21 5.95383 21 6.75879V17.2412C21 18.0462 21.0003 18.7108 20.9561 19.252C20.9101 19.814 20.8117 20.3311 20.5645 20.8164C20.181 21.5689 19.5689 22.181 18.8164 22.5645C18.3311 22.8117 17.814 22.9101 17.252 22.9561C16.7108 23.0003 16.0462 23 15.2412 23H8.75879C7.95383 23 7.28924 23.0003 6.74805 22.9561C6.18599 22.9101 5.6689 22.8117 5.18359 22.5645C4.43109 22.181 3.81902 21.5689 3.43555 20.8164C3.18827 20.3311 3.08987 19.814 3.04395 19.252C2.99973 18.7108 2.99999 18.0462 3 17.2412V6.75879C2.99999 5.95382 2.99973 5.28924 3.04395 4.74805C3.08988 4.18599 3.18827 3.6689 3.43555 3.18359C3.81902 2.43109 4.43109 1.81902 5.18359 1.43555C5.6689 1.18827 6.18599 1.08988 6.74805 1.04395C7.28924 0.999729 7.95382 0.999988 8.75879 1H15.2412ZM8.79981 3C7.94342 3 7.36117 3.00035 6.91113 3.03711C6.47272 3.07293 6.2482 3.13808 6.0918 3.21777C5.71555 3.40951 5.40951 3.71555 5.21777 4.0918C5.13808 4.2482 5.07293 4.47272 5.03711 4.91113C5.00035 5.36117 5 5.94342 5 6.79981V17.2002C5 18.0566 5.00035 18.6388 5.03711 19.0889C5.07293 19.5273 5.13808 19.7518 5.21777 19.9082C5.26855 20.0078 5.32758 20.1024 5.39356 20.1914L14.1611 11.4238C14.3475 11.2375 14.5294 11.0549 14.6953 10.9141C14.8702 10.7656 15.0921 10.6059 15.3818 10.5117C15.7333 10.3975 16.1085 10.3841 16.4658 10.4697L16.6182 10.5117L16.8232 10.5938C17.016 10.6853 17.1736 10.8028 17.3047 10.9141C17.4706 11.0549 17.6525 11.2375 17.8389 11.4238L19 12.585V6.79981C19 5.94342 18.9997 5.36117 18.9629 4.91113C18.9271 4.47272 18.8619 4.2482 18.7822 4.0918C18.5905 3.71554 18.2845 3.40951 17.9082 3.21777C17.7518 3.13808 17.5273 3.07293 17.0889 3.03711C16.6388 3.00035 16.0566 3 15.2002 3H8.79981Z"
        fill="#303233" />
</svg>
