<svg width="16" height="16" viewBox="0 0 16 16" fill="none" xmlns="http://www.w3.org/2000/svg">
    <path
        d="M7 3.25C4.92893 3.25 3.25 4.92893 3.25 7C3.25 9.07107 4.92893 10.75 7 10.75C9.07107 10.75 10.75 9.07107 10.75 7C10.75 4.92893 9.07107 3.25 7 3.25Z"
        fill="#303233" />
    <path fill-rule="evenodd" clip-rule="evenodd"
        d="M1.25 7C1.25 3.82436 3.82436 1.25 7 1.25C10.1756 1.25 12.75 3.82436 12.75 7C12.75 8.31975 12.3054 9.53566 11.5577 10.5061C11.5828 10.5255 11.6069 10.5467 11.6299 10.5697L14.5299 13.4697C14.8228 13.7626 14.8228 14.2374 14.5299 14.5303C14.237 14.8232 13.7622 14.8232 13.4693 14.5303L10.5693 11.6303C10.5463 11.6073 10.5251 11.5832 10.5057 11.5581C9.53529 12.3055 8.31955 12.75 7 12.75C3.82436 12.75 1.25 10.1756 1.25 7ZM7 2.75C4.65279 2.75 2.75 4.65279 2.75 7C2.75 9.34721 4.65279 11.25 7 11.25C9.34721 11.25 11.25 9.34721 11.25 7C11.25 4.65279 9.34721 2.75 7 2.75Z"
        fill="#303233" />
</svg>
