<svg width="16" height="16" viewBox="0 0 16 16" fill="none" xmlns="http://www.w3.org/2000/svg">
    <path
        d="M7.1306 1.81096C8.47242 1.62218 9.83925 1.87459 11.0251 2.53016C12.211 3.18574 13.1518 4.20897 13.7056 5.44567C14.2593 6.68238 14.3962 8.06556 14.0956 9.38682C13.7949 10.7081 13.073 11.8958 12.0385 12.7711C11.0041 13.6464 9.71328 14.1618 8.36048 14.2397C7.00768 14.3175 5.66622 13.9536 4.53822 13.2028C3.41022 12.452 2.55679 11.3549 2.10652 10.0768C1.96888 9.68617 2.174 9.25789 2.56468 9.12025C2.95535 8.9826 3.38364 9.18773 3.52128 9.5784C3.86349 10.5497 4.5121 11.3835 5.36938 11.9541C6.22666 12.5248 7.24617 12.8013 8.27429 12.7421C9.30242 12.683 10.2835 12.2913 11.0696 11.6261C11.8558 10.9608 12.4044 10.0581 12.6329 9.05399C12.8615 8.04983 12.7574 6.99861 12.3365 6.05871C11.9157 5.11882 11.2007 4.34116 10.2994 3.84293C9.39816 3.34469 8.35936 3.15286 7.33958 3.29633C6.31979 3.43981 5.37426 3.91083 4.64545 4.63841C4.63772 4.64612 4.62983 4.65366 4.62178 4.66103L3.4313 5.75H5.5C5.91421 5.75 6.25 6.08579 6.25 6.5C6.25 6.91421 5.91421 7.25 5.5 7.25H1.5C1.08579 7.25 0.75 6.91421 0.75 6.5V2.5C0.75 2.08579 1.08579 1.75 1.5 1.75C1.91421 1.75 2.25 2.08579 2.25 2.5V4.79768L3.59766 3.56493C4.55499 2.61436 5.79435 1.99897 7.1306 1.81096Z"
        fill="#303233" />
    <path
        d="M8 4.25C8.41421 4.25 8.75 4.58579 8.75 5V7.53647L10.3354 8.32918C10.7059 8.51442 10.8561 8.96493 10.6708 9.33541C10.4856 9.70589 10.0351 9.85606 9.66459 9.67082L7.66459 8.67082C7.4105 8.54378 7.25 8.28408 7.25 8V5C7.25 4.58579 7.58579 4.25 8 4.25Z"
        fill="#303233" />
</svg>
