<svg width="24" height="24" viewBox="0 0 24 24" fill="none" xmlns="http://www.w3.org/2000/svg">
    <path
        d="M12.5304 14.9697C12.2375 14.6768 11.7626 14.6768 11.4697 14.9697L8.46969 17.9697C8.25519 18.1842 8.19103 18.5068 8.30711 18.787C8.4232 19.0673 8.69668 19.25 9.00002 19.25H15C15.3034 19.25 15.5768 19.0673 15.6929 18.787C15.809 18.5068 15.7449 18.1842 15.5304 17.9697L12.5304 14.9697Z"
        fill="#303233" />
    <path fill-rule="evenodd" clip-rule="evenodd"
        d="M6.6 1.25H17.4C18.144 1.25 18.51 1.296 18.795 1.441C19.124 1.609 19.391 1.876 19.559 2.205C19.704 2.49 19.75 2.856 19.75 3.6V5.675C19.75 6.253 19.739 6.541 19.674 6.814C19.607 7.094 19.496 7.362 19.345 7.608C19.199 7.847 19.002 8.059 18.593 8.468L15.662 11.399L15.301 11.768C15.286 11.7846 15.2716 11.7994 15.2582 11.8132C15.2198 11.8527 15.1896 11.8837 15.177 11.923H15.176C15.16 11.973 15.16 12.027 15.176 12.077H15.177C15.1896 12.1163 15.2198 12.1473 15.2582 12.1868C15.2716 12.2006 15.286 12.2154 15.301 12.232C15.395 12.334 15.513 12.453 15.662 12.601L18.593 15.532C19.002 15.941 19.198 16.153 19.345 16.391V16.392C19.496 16.638 19.607 16.906 19.674 17.186C19.739 17.459 19.75 17.747 19.75 18.326V20.4C19.75 21.144 19.704 21.51 19.559 21.795C19.391 22.124 19.124 22.391 18.794 22.559C18.51 22.704 18.144 22.75 17.4 22.75H6.6C5.856 22.75 5.49 22.704 5.205 22.559C4.876 22.391 4.609 22.124 4.441 21.794C4.296 21.51 4.25 21.144 4.25 20.4V18.325C4.25 17.747 4.261 17.459 4.326 17.186C4.393 16.906 4.504 16.638 4.655 16.392V16.391C4.801 16.153 4.998 15.941 5.407 15.532L8.338 12.601L8.699 12.232C8.71428 12.2151 8.72893 12.2001 8.74256 12.1861C8.78066 12.1469 8.81074 12.116 8.824 12.077C8.84 12.027 8.84 11.973 8.824 11.923C8.81074 11.884 8.78066 11.8531 8.74256 11.8139C8.72893 11.7999 8.71428 11.7849 8.699 11.768C8.605 11.666 8.487 11.547 8.338 11.399L5.407 8.468C4.998 8.059 4.801 7.847 4.655 7.608C4.504 7.362 4.393 7.094 4.326 6.813C4.261 6.541 4.25 6.253 4.25 5.675V3.6C4.25 2.856 4.296 2.49 4.441 2.206C4.609 1.877 4.876 1.609 5.205 1.441H5.206C5.49 1.296 5.856 1.25 6.6 1.25ZM17.916 2.756C17.777 2.75 17.61 2.75 17.4 2.75H6.6C6.39 2.75 6.223 2.75 6.084 2.756C6.0615 2.75705 6.04064 2.75727 6.02121 2.75748C5.96638 2.75807 5.92292 2.75854 5.886 2.777C5.839 2.801 5.801 2.839 5.777 2.887C5.75854 2.92318 5.75807 2.96645 5.75748 3.02124C5.75727 3.04065 5.75705 3.0615 5.756 3.084C5.75 3.223 5.75 3.39 5.75 3.6V5.675C5.75 5.74488 5.74966 5.80866 5.74936 5.86733C5.7479 6.14452 5.74704 6.30784 5.785 6.463C5.815 6.591 5.866 6.713 5.934 6.825C6.01679 6.96024 6.13249 7.07466 6.32738 7.26737C6.37025 7.30977 6.41696 7.35596 6.468 7.407L9.399 10.338C9.925 10.864 10.152 11.156 10.25 11.459C10.364 11.811 10.364 12.189 10.25 12.541C10.152 12.844 9.925 13.136 9.399 13.662L6.468 16.593C6.41696 16.644 6.37025 16.6902 6.32737 16.7326C6.13249 16.9253 6.01678 17.0398 5.934 17.175C5.866 17.287 5.815 17.409 5.785 17.537C5.74704 17.6921 5.7479 17.8555 5.74936 18.1332C5.74966 18.192 5.75 18.2559 5.75 18.326V20.4C5.75 20.61 5.75 20.777 5.756 20.916C5.75705 20.9385 5.75727 20.9594 5.75748 20.9788C5.75807 21.0336 5.75854 21.0771 5.777 21.114C5.801 21.161 5.84 21.199 5.887 21.223C5.92318 21.2415 5.96645 21.2419 6.02124 21.2425C6.04065 21.2427 6.0615 21.243 6.084 21.244C6.223 21.25 6.39 21.25 6.6 21.25H17.4C17.61 21.25 17.777 21.25 17.916 21.244C17.9385 21.243 17.9594 21.2427 17.9788 21.2425C18.0336 21.2419 18.0768 21.2415 18.113 21.223C18.161 21.199 18.199 21.161 18.223 21.113C18.2415 21.0768 18.2419 21.0336 18.2425 20.9788C18.2427 20.9594 18.243 20.9385 18.244 20.916C18.25 20.777 18.25 20.61 18.25 20.4V18.325C18.25 18.2551 18.2503 18.1913 18.2506 18.1327C18.2521 17.8555 18.253 17.6922 18.215 17.537C18.185 17.409 18.134 17.287 18.066 17.175C17.9832 17.0398 17.8675 16.9253 17.6726 16.7326C17.6298 16.6902 17.583 16.644 17.532 16.593L14.601 13.662C14.075 13.136 13.848 12.844 13.75 12.541C13.636 12.189 13.636 11.811 13.75 11.459C13.848 11.156 14.075 10.864 14.601 10.338L17.532 7.407C17.583 7.35596 17.6298 7.30977 17.6726 7.26737C17.8675 7.07466 17.9832 6.96024 18.066 6.825C18.134 6.713 18.185 6.591 18.215 6.463C18.253 6.30784 18.2521 6.14451 18.2506 5.86733C18.2503 5.80866 18.25 5.74488 18.25 5.675V3.6C18.25 3.39 18.25 3.223 18.244 3.084C18.243 3.0615 18.2427 3.04065 18.2425 3.02123C18.2419 2.96645 18.2415 2.92318 18.223 2.887C18.199 2.84 18.161 2.801 18.114 2.777C18.0771 2.75854 18.0336 2.75807 17.9788 2.75748C17.9594 2.75727 17.9385 2.75705 17.916 2.756Z"
        fill="#303233" />
</svg>
