<svg width="16" height="16" viewBox="0 0 16 16" fill="none" xmlns="http://www.w3.org/2000/svg">
    <path
        d="M9.81152 0.658054C10.7614 0.484985 11.7414 0.605738 12.6211 1.00376C12.8454 1.10526 13.0057 1.31037 13.0498 1.55259C13.0938 1.79459 13.0166 2.04264 12.8428 2.21665L10.3926 4.66684L11.332 5.6063L13.7822 3.1561L13.8506 3.09555C14.018 2.96479 14.2345 2.91058 14.4463 2.94907C14.6885 2.9932 14.8936 3.15347 14.9951 3.37778C15.3932 4.25745 15.5139 5.23746 15.3408 6.18735C15.1677 7.13721 14.7091 8.01147 14.0264 8.69419C13.429 9.29154 12.6851 9.71747 11.8721 9.93052L11.5195 10.0086C10.7448 10.1498 9.95108 10.0921 9.20703 9.85141L4.94238 14.117C4.58722 14.4721 4.12142 14.6909 3.62598 14.7401L3.41211 14.7508C2.83818 14.7508 2.28767 14.5229 1.88184 14.117C1.47601 13.7112 1.24807 13.1607 1.24805 12.5868C1.24805 12.0128 1.47605 11.4623 1.88184 11.0565L6.14648 6.79087C5.90609 6.04717 5.84915 5.25366 5.99023 4.47934C6.16333 3.52949 6.62198 2.65523 7.30469 1.97251C7.98739 1.2898 8.86168 0.831166 9.81152 0.658054ZM2.74805 12.5868C2.74807 12.7629 2.81786 12.932 2.94238 13.0565C3.06691 13.181 3.236 13.2508 3.41211 13.2508L3.54199 13.2381C3.66978 13.2127 3.78832 13.15 3.88184 13.0565L8.48828 8.45005L8.57617 8.37485C8.79198 8.21686 9.07914 8.18406 9.32812 8.29673C9.93002 8.56909 10.601 8.65148 11.251 8.53305L11.4922 8.47934C12.0483 8.33354 12.5572 8.04226 12.9658 7.63364C13.4329 7.1666 13.7467 6.56856 13.8652 5.9188C13.9118 5.66345 13.925 5.40459 13.9102 5.14829L12.3242 6.7352C12.0594 6.99477 11.7028 7.14048 11.332 7.14048C10.9613 7.14042 10.6056 6.99472 10.3408 6.7352L10.335 6.73032L9.26855 5.66391L9.26367 5.65805C9.03647 5.42626 8.89655 5.12485 8.86523 4.80454L8.8584 4.66684L8.86523 4.52817C8.89667 4.20809 9.03662 3.9063 9.26367 3.67466L10.8496 2.08774C10.5938 2.07303 10.3359 2.08724 10.0811 2.13364C9.4311 2.25206 8.83239 2.5659 8.36523 3.03305C7.89821 3.5001 7.5843 4.09813 7.46582 4.7479C7.3474 5.39783 7.4298 6.06887 7.70215 6.67075C7.83085 6.95516 7.76957 7.28985 7.54883 7.51059L2.94238 12.117C2.8179 12.2416 2.74805 12.4107 2.74805 12.5868Z"
        fill="#303233" />
</svg>
