<svg width="24" height="24" viewBox="0 0 24 24" fill="none" xmlns="http://www.w3.org/2000/svg">
    <path
        d="M21.25 12C21.25 9.10051 18.8995 6.75 16 6.75H8C5.10051 6.75 2.75 9.10051 2.75 12C2.75 14.8995 5.10051 17.25 8 17.25H16C18.8995 17.25 21.25 14.8995 21.25 12ZM18.25 12C18.25 10.7574 17.2426 9.75 16 9.75C14.7574 9.75 13.75 10.7574 13.75 12C13.75 13.2426 14.7574 14.25 16 14.25C17.2426 14.25 18.25 13.2426 18.25 12ZM19.75 12C19.75 14.0711 18.0711 15.75 16 15.75C13.9289 15.75 12.25 14.0711 12.25 12C12.25 9.92893 13.9289 8.25 16 8.25C18.0711 8.25 19.75 9.92893 19.75 12ZM22.75 12C22.75 15.7279 19.7279 18.75 16 18.75H8C4.27208 18.75 1.25 15.7279 1.25 12C1.25 8.27208 4.27208 5.25 8 5.25H16C19.7279 5.25 22.75 8.27208 22.75 12Z"
        fill="#303233" />
</svg>
