<svg width="24" height="24" viewBox="0 0 24 24" fill="none" xmlns="http://www.w3.org/2000/svg">
    <path fill-rule="evenodd" clip-rule="evenodd"
        d="M1.25 4C1.25 2.48122 2.48122 1.25 4 1.25H6C6.41421 1.25 6.75 1.58579 6.75 2C6.75 2.41421 6.41421 2.75 6 2.75H4C3.30964 2.75 2.75 3.30964 2.75 4V6C2.75 6.41421 2.41421 6.75 2 6.75C1.58579 6.75 1.25 6.41421 1.25 6V4ZM9.25 2C9.25 1.58579 9.58579 1.25 10 1.25H14C14.4142 1.25 14.75 1.58579 14.75 2C14.75 2.41421 14.4142 2.75 14 2.75H10C9.58579 2.75 9.25 2.41421 9.25 2ZM17.25 2C17.25 1.58579 17.5858 1.25 18 1.25H20C21.5188 1.25 22.75 2.48122 22.75 4V6C22.75 6.41421 22.4142 6.75 22 6.75C21.5858 6.75 21.25 6.41421 21.25 6V4C21.25 3.30964 20.6904 2.75 20 2.75H18C17.5858 2.75 17.25 2.41421 17.25 2ZM2 9.25C2.41421 9.25 2.75 9.58579 2.75 10V14C2.75 14.4142 2.41421 14.75 2 14.75C1.58579 14.75 1.25 14.4142 1.25 14V10C1.25 9.58579 1.58579 9.25 2 9.25ZM22 9.25C22.4142 9.25 22.75 9.58579 22.75 10V14C22.75 14.4142 22.4142 14.75 22 14.75C21.5858 14.75 21.25 14.4142 21.25 14V10C21.25 9.58579 21.5858 9.25 22 9.25ZM2 17.25C2.41421 17.25 2.75 17.5858 2.75 18V20C2.75 20.6904 3.30964 21.25 4 21.25H6C6.41421 21.25 6.75 21.5858 6.75 22C6.75 22.4142 6.41421 22.75 6 22.75H4C2.48122 22.75 1.25 21.5188 1.25 20L1.25 18C1.25 17.5858 1.58579 17.25 2 17.25ZM22 17.25C22.4142 17.25 22.75 17.5858 22.75 18V20C22.75 21.5188 21.5188 22.75 20 22.75H18C17.5858 22.75 17.25 22.4142 17.25 22C17.25 21.5858 17.5858 21.25 18 21.25H20C20.6904 21.25 21.25 20.6904 21.25 20V18C21.25 17.5858 21.5858 17.25 22 17.25ZM9.25 22C9.25 21.5858 9.58579 21.25 10 21.25H14C14.4142 21.25 14.75 21.5858 14.75 22C14.75 22.4142 14.4142 22.75 14 22.75H10C9.58579 22.75 9.25 22.4142 9.25 22Z"
        fill="#303233" />
</svg>
