<svg width="24" height="24" viewBox="0 0 24 24" fill="none" xmlns="http://www.w3.org/2000/svg">
    <path fill-rule="evenodd" clip-rule="evenodd"
        d="M7.31399 9.979L11.044 3.78799L11.046 3.78399C11.146 3.62099 11.286 3.48599 11.453 3.39199C11.62 3.29899 11.808 3.24899 11.999 3.24899C12.19 3.24899 12.378 3.29899 12.545 3.39199C12.712 3.48599 12.852 3.62099 12.952 3.78399L12.954 3.78799L16.68 9.97599C17.746 9.44499 21.134 7.756 21.131 7.757C21.329 7.657 21.553 7.618 21.774 7.646C21.994 7.674 22.202 7.76699 22.369 7.91299C22.537 8.05999 22.657 8.25299 22.713 8.46799C22.769 8.67899 22.761 8.90199 22.692 9.10799L19.388 19.232C19.317 19.449 19.152 19.622 18.938 19.702C18.725 19.782 18.486 19.76 18.291 19.643C18.291 19.643 16.034 18.32 11.997 18.32C7.96099 18.32 5.70399 19.643 5.70399 19.643C5.50799 19.76 5.26899 19.782 5.05599 19.701C4.84199 19.621 4.67699 19.449 4.60599 19.232C4.60599 19.232 1.31499 9.13499 1.31099 9.12299C1.23899 8.91299 1.22999 8.68599 1.28799 8.47099C1.34499 8.25699 1.46399 8.064 1.63199 7.918C1.79799 7.772 2.00599 7.67899 2.22599 7.65099C2.44599 7.62299 2.66999 7.66099 2.86599 7.75999L7.31399 9.979ZM3.01499 9.51099L5.76699 17.953C6.85399 17.499 8.98199 16.82 11.997 16.82C15.013 16.82 17.14 17.499 18.228 17.953L20.984 9.507L17.033 11.477L17.03 11.478C16.779 11.602 16.491 11.627 16.222 11.549C15.953 11.471 15.724 11.294 15.579 11.055L15.578 11.053C15.578 11.053 12.939 6.67099 11.999 5.10999L8.41699 11.055C8.27199 11.296 8.04199 11.474 7.77199 11.552C7.50099 11.631 7.21199 11.605 6.95999 11.479L3.01499 9.51099Z"
        fill="#303233" />
</svg>
