<svg width="16" height="16" viewBox="0 0 16 16" fill="none" xmlns="http://www.w3.org/2000/svg">
    <g clip-path="url(#clip0_53_8763)">
        <path fill-rule="evenodd" clip-rule="evenodd"
            d="M11.649 0.948247C11.965 0.817364 12.3036 0.75 12.6456 0.75C12.9876 0.75 13.3263 0.817364 13.6423 0.948247C13.9583 1.07913 14.2454 1.27097 14.4872 1.51281C14.729 1.75465 14.9209 2.04175 15.0518 2.35773C15.1827 2.67371 15.25 3.01238 15.25 3.35439C15.25 3.6964 15.1827 4.03506 15.0518 4.35104C14.9209 4.66702 14.729 4.95413 14.4872 5.19596L5.63628 14.0469C5.54399 14.1392 5.42921 14.2058 5.30329 14.2401L1.69736 15.2236C1.4377 15.2944 1.16 15.2206 0.969687 15.0303C0.779375 14.84 0.705628 14.5623 0.776445 14.3027L1.75988 10.6967C1.79422 10.5708 1.86083 10.456 1.95312 10.3637L10.8041 1.51281C11.0459 1.27097 11.333 1.07913 11.649 0.948247Z"
            fill="#303233" />
    </g>
    <defs>
        <clipPath id="clip0_53_8763">
            <rect width="16" height="16" fill="white" />
        </clipPath>
    </defs>
</svg>
