<svg width="16" height="16" viewBox="0 0 16 16" fill="none" xmlns="http://www.w3.org/2000/svg">
    <path
        d="M5.25 2.5C5.25 2.08579 4.91421 1.75 4.5 1.75C4.08579 1.75 3.75 2.08579 3.75 2.5V11.6893L2.53033 10.4697C2.23744 10.1768 1.76256 10.1768 1.46967 10.4697C1.17678 10.7626 1.17678 11.2374 1.46967 11.5303L3.96967 14.0303C4.26256 14.3232 4.73744 14.3232 5.03033 14.0303L7.53033 11.5303C7.82322 11.2374 7.82322 10.7626 7.53033 10.4697C7.23744 10.1768 6.76256 10.1768 6.46967 10.4697L5.25 11.6893V2.5Z"
        fill="#303233" />
    <path
        d="M8.5 7.75C8.08579 7.75 7.75 8.08579 7.75 8.5C7.75 8.91421 8.08579 9.25 8.5 9.25H14C14.4142 9.25 14.75 8.91421 14.75 8.5C14.75 8.08579 14.4142 7.75 14 7.75H8.5Z"
        fill="#303233" />
    <path
        d="M7.75 5.5C7.75 5.08579 8.08579 4.75 8.5 4.75H11.25C11.6642 4.75 12 5.08579 12 5.5C12 5.91421 11.6642 6.25 11.25 6.25H8.5C8.08579 6.25 7.75 5.91421 7.75 5.5Z"
        fill="#303233" />
    <path
        d="M8.5 1.75C8.08579 1.75 7.75 2.08579 7.75 2.5C7.75 2.91421 8.08579 3.25 8.5 3.25H9.5C9.91421 3.25 10.25 2.91421 10.25 2.5C10.25 2.08579 9.91421 1.75 9.5 1.75H8.5Z"
        fill="#303233" />
</svg>
