<svg width="24" height="24" viewBox="0 0 24 24" fill="none" xmlns="http://www.w3.org/2000/svg">
    <path
        d="M1.25 5C1.25 3.48122 2.48122 2.25 4 2.25H10.1716C10.6357 2.25 11.0808 2.43437 11.409 2.76256L12.2374 3.59099C12.6594 4.01295 13.2317 4.25 13.8284 4.25H20C21.5188 4.25 22.75 5.48122 22.75 7V11C22.75 11.4142 22.4142 11.75 22 11.75C21.5858 11.75 21.25 11.4142 21.25 11V7C21.25 6.30964 20.6904 5.75 20 5.75H4C3.30964 5.75 2.75 6.30964 2.75 7V19C2.75 19.6904 3.30964 20.25 4 20.25H12C12.4142 20.25 12.75 20.5858 12.75 21C12.75 21.4142 12.4142 21.75 12 21.75H4C2.48122 21.75 1.25 20.5188 1.25 19V5Z"
        fill="#303233" />
    <path fill-rule="evenodd" clip-rule="evenodd"
        d="M14.25 18C14.25 15.3766 16.3766 13.25 19 13.25C21.6234 13.25 23.75 15.3766 23.75 18C23.75 20.6234 21.6234 22.75 19 22.75C16.3766 22.75 14.25 20.6234 14.25 18ZM19 14.75C17.2051 14.75 15.75 16.2051 15.75 18C15.75 18.6258 15.9269 19.2102 16.2333 19.7061L20.7061 15.2333C20.2102 14.9269 19.6258 14.75 19 14.75ZM19 21.25C18.3743 21.25 17.7898 21.0732 17.294 20.7667L21.7667 16.294C22.0732 16.7898 22.25 17.3743 22.25 18C22.25 19.7949 20.7949 21.25 19 21.25Z"
        fill="#303233" />
</svg>
