<svg width="24" height="24" viewBox="0 0 24 24" fill="none" xmlns="http://www.w3.org/2000/svg">
    <path
        d="M14 2C13.4477 2 13 2.44772 13 3C13 3.55228 13.4477 4 14 4H16.5858L12 8.58579L7.70711 4.29289C7.31658 3.90237 6.68342 3.90237 6.29289 4.29289C5.90237 4.68342 5.90237 5.31658 6.29289 5.70711L11.2929 10.7071C11.4804 10.8946 11.7348 11 12 11C12.2652 11 12.5196 10.8946 12.7071 10.7071L18 5.41422V8C18 8.55228 18.4477 9 19 9C19.5523 9 20 8.55228 20 8V3C20 2.44772 19.5523 2 19 2H14Z"
        fill="#303233" />
    <path fill-rule="evenodd" clip-rule="evenodd"
        d="M23 18.504V18.306C23 17.742 22.993 17.461 22.932 17.138C22.781 16.326 22.191 15.321 21.555 14.793C21.292 14.574 21.115 14.47 20.757 14.27C18.165 12.824 15.179 12 12 12C8.821 12 5.835 12.824 3.243 14.27C2.885 14.47 2.709 14.574 2.445 14.793C1.809 15.321 1.219 16.326 1.068 17.138C1.007 17.461 1 17.742 1 18.306V18.504C1 19.066 1.011 19.347 1.057 19.58C1.292 20.774 2.226 21.708 3.42 21.943C3.653 21.989 3.934 22 4.496 22H4.741C5.024 22 5.166 21.997 5.286 21.985C6.71 21.845 7.836 20.719 7.977 19.295C7.988 19.175 7.991 19.033 7.991 18.749C7.991 18.7372 7.99086 18.7278 7.99073 18.7196C7.99053 18.7063 7.99038 18.6966 7.991 18.686C8.00108 18.6814 8.0078 18.6794 8.01886 18.676L8.022 18.675C9.267 18.238 10.606 18 12 18C13.394 18 14.733 18.237 15.978 18.675L15.9807 18.6758C15.992 18.6793 15.9987 18.6814 16.008 18.686C16.0094 18.6983 16.0093 18.7101 16.0091 18.7271C16.0091 18.7335 16.009 18.7407 16.009 18.749C16.009 19.033 16.012 19.175 16.023 19.295C16.164 20.719 17.29 21.845 18.714 21.985C18.834 21.997 18.976 22 19.259 22H19.504C20.066 22 20.346 21.989 20.58 21.943C21.774 21.708 22.708 20.774 22.943 19.58C22.989 19.347 23 19.066 23 18.504ZM3 18.504V18.306C3 18.2537 2.99987 18.205 2.99975 18.1593C2.99898 17.8663 2.99854 17.696 3.034 17.504C3.109 17.098 3.405 16.596 3.722 16.332C3.8676 16.2114 3.97251 16.1531 4.15006 16.0543C4.17127 16.0425 4.19352 16.0301 4.217 16.017C6.521 14.732 9.175 14 12 14C14.825 14 17.479 14.732 19.783 16.017C19.8065 16.0301 19.8287 16.0425 19.8499 16.0543C20.0275 16.1531 20.1324 16.2114 20.278 16.332C20.595 16.596 20.891 17.098 20.966 17.504C21.0015 17.696 21.001 17.8663 21.0002 18.1593C21.0001 18.205 21 18.2537 21 18.306V18.504C21 18.5883 21.0006 18.6627 21.0011 18.7292C21.0029 18.9466 21.004 19.0789 20.981 19.193C20.903 19.591 20.591 19.903 20.193 19.981C20.0789 20.004 19.9466 20.0029 19.7292 20.0012C19.6627 20.0006 19.5883 20 19.504 20C19.487 19.999 19.47 20 19.451 20H19.259C19.2161 20 19.1782 20.0002 19.1444 20.0003C19.0357 20.0008 18.969 20.0011 18.911 19.995C18.436 19.948 18.061 19.573 18.014 19.098C18.0079 19.0401 18.0082 18.9734 18.0087 18.8643C18.0088 18.8303 18.009 18.7922 18.009 18.749C18.009 18.644 18.007 18.591 18.003 18.531C17.949 17.833 17.457 17.138 16.816 16.856C16.756 16.829 16.717 16.815 16.641 16.788C15.189 16.278 13.627 16 12 16C10.373 16 8.812 16.278 7.359 16.788C7.283 16.815 7.245 16.829 7.185 16.855C6.544 17.138 6.051 17.833 5.997 18.531C5.993 18.591 5.991 18.644 5.991 18.749C5.991 18.7922 5.99117 18.8303 5.99132 18.8643C5.9918 18.9734 5.9921 19.0401 5.986 19.098C5.939 19.573 5.564 19.948 5.089 19.995C5.03103 20.0011 4.96434 20.0008 4.85564 20.0003C4.82183 20.0002 4.78395 20 4.741 20H4.496C4.41171 20 4.33728 20.0006 4.27082 20.0012C4.05341 20.0029 3.92111 20.004 3.807 19.981C3.409 19.903 3.097 19.591 3.019 19.193C2.99602 19.0789 2.9971 18.9466 2.99886 18.7292C2.9994 18.6627 3 18.5883 3 18.504Z"
        fill="#303233" />
</svg>
