<svg width="16" height="16" viewBox="0 0 16 16" fill="none" xmlns="http://www.w3.org/2000/svg">
    <path fill-rule="evenodd" clip-rule="evenodd"
        d="M6.85325 1.14645C6.65799 0.951184 6.34141 0.951184 6.14614 1.14645L3.99985 3.29274L1.85355 1.14645C1.65829 0.951184 1.34171 0.951184 1.14645 1.14645C0.951184 1.34171 0.951184 1.65829 1.14645 1.85355L3.29274 3.99985L2.39376 4.89883C2.0106 5.28198 1.7015 5.59108 1.47168 5.86179C1.23505 6.14053 1.05319 6.41135 0.950484 6.72746C0.787339 7.22957 0.787339 7.77043 0.950484 8.27254C1.05319 8.58865 1.23505 8.85947 1.47168 9.13821C1.7015 9.40892 2.01055 9.71797 2.39371 10.1011L3.8985 11.6059C4.28167 11.9891 4.59077 12.2982 4.86149 12.528C5.14023 12.7646 5.41105 12.9465 5.72716 13.0492C6.22926 13.2124 6.77013 13.2124 7.27224 13.0492C7.58835 12.9465 7.85917 12.7646 8.13791 12.528C8.40863 12.2982 8.7177 11.9891 9.10088 11.6059L12.8533 7.85355C13.0485 7.65829 13.0485 7.34171 12.8533 7.14645L6.85325 1.14645ZM3.99985 4.70696L3.11599 5.59081C2.71414 5.99266 2.43429 6.27306 2.23402 6.50897C2.03755 6.74041 1.94721 6.89592 1.90154 7.03647C1.80365 7.33774 1.80365 7.66226 1.90154 7.96353C1.94721 8.10408 2.03755 8.25959 2.23402 8.49103C2.43429 8.72694 2.71414 9.00734 3.11599 9.40919L4.59051 10.8837C4.99236 11.2856 5.27276 11.5654 5.50867 11.7657C5.74011 11.9622 5.89562 12.0525 6.03617 12.0982C6.33744 12.196 6.66196 12.196 6.96322 12.0982C7.10378 12.0525 7.25929 11.9622 7.49073 11.7657C7.72664 11.5654 8.00704 11.2856 8.40889 10.8837L11.7926 7.5L6.4997 2.20711L4.70696 3.99985L5.98402 5.27691C6.28177 5.10097 6.6291 5 7 5C8.10457 5 9 5.89543 9 7C9 8.10457 8.10457 9 7 9C5.89543 9 5 8.10457 5 7C5 6.6291 5.10097 6.28177 5.27691 5.98402L3.99985 4.70696ZM7 6C6.44772 6 6 6.44772 6 7C6 7.55228 6.44772 8 7 8C7.55228 8 8 7.55228 8 7C8 6.44772 7.55228 6 7 6Z"
        fill="#303233" />
    <path fill-rule="evenodd" clip-rule="evenodd"
        d="M13.4472 9.77645C13.3626 9.60704 13.1894 9.50001 13 9.5C12.8106 9.49999 12.6375 9.60699 12.5528 9.77639L10.5528 13.7764C10.4753 13.9314 10.4836 14.1155 10.5747 14.2629C10.6658 14.4103 10.8267 14.5 11 14.5H14.9993C15.1726 14.5 15.3336 14.4103 15.4247 14.2629C15.5158 14.1155 15.5241 13.9314 15.4466 13.7765L13.4472 9.77645ZM14.1905 13.5H11.809L12.9999 11.1182L14.1905 13.5Z"
        fill="#303233" />
</svg>
