<svg width="16" height="16" viewBox="0 0 16 16" fill="none" xmlns="http://www.w3.org/2000/svg">
    <g clip-path="url(#clip0_53_7191)">
        <path fill-rule="evenodd" clip-rule="evenodd"
            d="M8 0.75C3.99594 0.75 0.75 3.99594 0.75 8C0.75 12.0041 3.99594 15.25 8 15.25C12.0041 15.25 15.25 12.0041 15.25 8C15.25 3.99594 12.0041 0.75 8 0.75ZM3.48067 4.44459C4.53356 3.1081 6.16657 2.25 8 2.25C8.30496 2.25 8.60438 2.27374 8.8965 2.31948L8.42119 4.69601C8.34928 5.0556 8.12309 5.36547 7.80252 5.54356L6.23952 6.41189C5.4466 6.8524 5.60266 8.0362 6.48263 8.25619L9.34904 8.9728C9.96235 9.12612 10.3646 9.71322 10.2862 10.3405L10.2589 10.5589C10.2272 10.8124 10.1186 11.0501 9.9477 11.24L7.7257 13.7089L7.47161 9.64338C7.43763 9.09979 7.0556 8.64077 6.52721 8.50867L5.34726 8.21369C4.93264 8.11003 4.59972 7.80174 4.46457 7.39629L3.48067 4.44459ZM2.51151 6.28051C2.34158 6.82346 2.25 7.40103 2.25 8C2.25 10.5498 3.90961 12.7119 6.20754 13.4651L5.98594 9.91952L4.98346 9.6689C4.0713 9.44086 3.33888 8.76261 3.04155 7.87063L2.51151 6.28051ZM10.0429 13.3765C12.21 12.5526 13.75 10.4561 13.75 8C13.75 5.65796 12.3498 3.64296 10.3408 2.74647L9.89207 4.99018C9.73385 5.78128 9.23622 6.463 8.53099 6.8548L8.075 7.10812L9.71285 7.51758C11.0621 7.8549 11.9471 9.14651 11.7746 10.5266L11.7473 10.7449C11.6776 11.3027 11.4387 11.8257 11.0626 12.2435L10.0429 13.3765Z"
            fill="#303233" />
    </g>
    <defs>
        <clipPath id="clip0_53_7191">
            <rect width="16" height="16" fill="white" />
        </clipPath>
    </defs>
</svg>
