<svg width="24" height="24" viewBox="0 0 24 24" fill="none" xmlns="http://www.w3.org/2000/svg">
    <path fill-rule="evenodd" clip-rule="evenodd"
        d="M9.7587 4H14.2413C15.0463 3.99999 15.7106 3.99998 16.2518 4.04419C16.8139 4.09012 17.3306 4.18868 17.816 4.43597C18.5686 4.81947 19.1805 5.43139 19.564 6.18404C19.8113 6.66937 19.9099 7.18608 19.9558 7.74817C20 8.28936 20 8.95372 20 9.75868V14.2413C20 15.0463 20 15.7106 19.9558 16.2518C19.9099 16.8139 19.8113 17.3306 19.564 17.816C19.1805 18.5686 18.5686 19.1805 17.816 19.564C17.3306 19.8113 16.8139 19.9099 16.2518 19.9558C15.7106 20 15.0463 20 14.2413 20H9.75868C8.95372 20 8.28936 20 7.74817 19.9558C7.18608 19.9099 6.66937 19.8113 6.18404 19.564C5.43139 19.1805 4.81947 18.5686 4.43597 17.816C4.18868 17.3306 4.09012 16.8139 4.04419 16.2518C3.99998 15.7106 3.99999 15.0463 4 14.2413V9.7587C3.99999 8.95373 3.99998 8.28937 4.04419 7.74817C4.09012 7.18608 4.18868 6.66937 4.43597 6.18404C4.81947 5.43139 5.43139 4.81947 6.18404 4.43597C6.66937 4.18868 7.18608 4.09012 7.74817 4.04419C8.28937 3.99998 8.95373 3.99999 9.7587 4Z"
        fill="#303233" />
</svg>
