<svg width="24" height="24" viewBox="0 0 24 24" fill="none" xmlns="http://www.w3.org/2000/svg">
    <path fill-rule="evenodd" clip-rule="evenodd"
        d="M17.2413 2H6.7587C5.95374 1.99999 5.28937 1.99998 4.74818 2.04419C4.18608 2.09012 3.66937 2.18868 3.18404 2.43598C2.43139 2.81947 1.81947 3.43139 1.43598 4.18404C1.18868 4.66937 1.09012 5.18608 1.04419 5.74818C0.999978 6.28937 0.999988 6.95372 1 7.75869V16.2413C0.999988 17.0463 0.999978 17.7106 1.04419 18.2518C1.09012 18.8139 1.18868 19.3306 1.43598 19.816C1.81947 20.5686 2.43139 21.1805 3.18404 21.564C3.66937 21.8113 4.18608 21.9099 4.74818 21.9558C5.28937 22 5.95372 22 6.75868 22H17.2413C18.0463 22 18.7106 22 19.2518 21.9558C19.8139 21.9099 20.3306 21.8113 20.816 21.564C21.5686 21.1805 22.1805 20.5686 22.564 19.816C22.8113 19.3306 22.9099 18.8139 22.9558 18.2518C23 17.7106 23 17.0463 23 16.2413V7.75868C23 6.95372 23 6.28937 22.9558 5.74818C22.9099 5.18608 22.8113 4.66937 22.564 4.18404C22.1805 3.43139 21.5686 2.81947 20.816 2.43598C20.3306 2.18868 19.8139 2.09012 19.2518 2.04419C18.7106 1.99998 18.0463 1.99999 17.2413 2ZM5.8 7.4C5.46863 6.95817 4.84183 6.86863 4.4 7.2C3.95817 7.53137 3.86863 8.15817 4.2 8.6L6.75 12L4.2 15.4C3.86863 15.8418 3.95817 16.4686 4.4 16.8C4.84183 17.1314 5.46863 17.0418 5.8 16.6L8 13.6667L10.2 16.6C10.5314 17.0418 11.1582 17.1314 11.6 16.8C12.0418 16.4686 12.1314 15.8418 11.8 15.4L9.25 12L11.8 8.6C12.1314 8.15817 12.0418 7.53137 11.6 7.2C11.1582 6.86863 10.5314 6.95817 10.2 7.4L8 10.3333L5.8 7.4ZM16 9C15.4477 9 15 9.44772 15 10C15 10.5523 15.4477 11 16 11H17C18.6569 11 20 12.3431 20 14C20 15.6569 18.6569 17 17 17H16C14.8883 17 13.9192 16.3948 13.402 15.5007C13.1254 15.0227 13.2888 14.4109 13.7668 14.1344C14.2449 13.8579 14.8566 14.0212 15.1332 14.4993C15.3076 14.8008 15.6311 15 16 15H17C17.5523 15 18 14.5523 18 14C18 13.4477 17.5523 13 17 13H16C14.3431 13 13 11.6569 13 10C13 8.34315 14.3431 7 16 7H17C18.1117 7 19.0808 7.60518 19.598 8.49927C19.8746 8.97734 19.7112 9.58906 19.2332 9.86561C18.7551 10.1421 18.1434 9.97879 17.8668 9.50073C17.6924 9.19922 17.3689 9 17 9H16Z"
        fill="#303233" />
</svg>
