<svg width="16" height="16" viewBox="0 0 16 16" fill="none" xmlns="http://www.w3.org/2000/svg">
    <path fill-rule="evenodd" clip-rule="evenodd"
        d="M13.9129 9.52664C13.0487 8.62914 10.7839 8.9143 10.0034 9.01257C9.95029 9.01925 9.90405 9.02508 9.86559 9.0296C9.00742 8.20575 8.41478 7.21597 8.1839 6.83038L8.16144 6.7929C8.48097 5.83432 8.694 4.87574 8.7295 3.84616C8.7295 2.95858 8.37447 2 7.38038 2C7.02535 2 6.70582 2.21301 6.52831 2.49704C6.10227 3.24261 6.27978 4.73373 6.95435 6.26036L6.88253 6.46325C6.51772 7.49507 6.14764 8.54179 5.21469 10.3077C4.18511 10.7337 2.01942 11.7278 1.84191 12.7929C1.7709 13.1125 1.87741 13.432 2.12594 13.6805C2.37445 13.8936 2.69398 14 3.0135 14C4.32712 14 5.60523 12.1894 6.49281 10.6627C7.23837 10.4142 8.40997 10.0592 9.58157 9.84617C10.9662 11.0533 12.1733 11.2308 12.8123 11.2308C13.6644 11.2308 13.984 10.8757 14.0904 10.5562C14.2679 10.2012 14.1615 9.81067 13.9129 9.52664ZM7.38038 2.63905C7.27388 2.63905 7.16737 2.71005 7.09635 2.81657C6.91884 3.13609 6.81234 4.13017 7.34488 5.55029C7.5934 4.84024 7.73542 4.09467 7.77092 3.34911C7.77092 3.02958 7.6999 2.63905 7.38038 2.63905ZM12.1023 10.4852C12.6703 10.6272 12.9899 10.3787 13.0254 10.1302C13.0964 9.77515 12.8123 9.59764 12.5283 9.52664C11.7828 9.38463 10.7532 9.49114 10.2916 9.56214C10.8242 9.98818 11.4277 10.3077 12.1023 10.4852ZM7.02535 9.70415C7.30938 9.1361 7.6999 8.14202 7.84192 7.71598C8.16144 8.24854 8.694 8.88759 8.97801 9.17162C8.97801 9.1859 8.7998 9.22893 8.53129 9.29376C8.13251 9.39004 7.53455 9.53442 7.02535 9.70415ZM2.80049 13.3255C3.26203 13.3255 4.1141 12.4734 4.93068 11.1243C3.51056 11.7633 2.58748 12.4379 2.48096 12.9349C2.44546 13.077 2.48096 13.1834 2.58748 13.2545C2.65848 13.29 2.72949 13.3255 2.80049 13.3255Z"
        fill="#303233" />
</svg>
