<svg width="24" height="24" viewBox="0 0 24 24" fill="none" xmlns="http://www.w3.org/2000/svg">
    <path fill-rule="evenodd" clip-rule="evenodd"
        d="M16 1.25C16.4142 1.25 16.75 1.58579 16.75 2V3.25H19C20.5188 3.25 21.75 4.48122 21.75 6V20C21.75 21.5188 20.5188 22.75 19 22.75H5C3.48122 22.75 2.25 21.5188 2.25 20V6C2.25 4.48122 3.48122 3.25 5 3.25H7.25V2C7.25 1.58579 7.58579 1.25 8 1.25C8.41421 1.25 8.75 1.58579 8.75 2V3.25H15.25V2C15.25 1.58579 15.5858 1.25 16 1.25ZM7.25 4.75V6C7.25 6.41421 7.58579 6.75 8 6.75C8.41421 6.75 8.75 6.41421 8.75 6V4.75H15.25V6C15.25 6.41421 15.5858 6.75 16 6.75C16.4142 6.75 16.75 6.41421 16.75 6V4.75H19C19.6904 4.75 20.25 5.30964 20.25 6V8C20.25 8.69036 19.6904 9.25 19 9.25H5C4.30964 9.25 3.75 8.69036 3.75 8V6C3.75 5.30964 4.30964 4.75 5 4.75H7.25ZM9 12.25C8.58579 12.25 8.25 12.5858 8.25 13C8.25 13.4142 8.58679 13.751 9.001 13.751C9.41521 13.751 9.751 13.4142 9.751 13C9.751 12.5858 9.41421 12.25 9 12.25ZM12 12.25C11.5858 12.25 11.25 12.5858 11.25 13C11.25 13.4142 11.5868 13.751 12.001 13.751C12.4152 13.751 12.751 13.4142 12.751 13C12.751 12.5858 12.4142 12.25 12 12.25ZM11.25 16C11.25 15.5858 11.5858 15.25 12 15.25C12.4142 15.25 12.751 15.5858 12.751 16C12.751 16.4142 12.4152 16.751 12.001 16.751C11.5868 16.751 11.25 16.4142 11.25 16ZM18 12.25C17.5858 12.25 17.25 12.5858 17.25 13C17.25 13.4142 17.5868 13.751 18.001 13.751C18.4152 13.751 18.751 13.4142 18.751 13C18.751 12.5858 18.4142 12.25 18 12.25ZM17.25 16C17.25 15.5858 17.5858 15.25 18 15.25C18.4142 15.25 18.751 15.5858 18.751 16C18.751 16.4142 18.4152 16.751 18.001 16.751C17.5868 16.751 17.25 16.4142 17.25 16ZM9 15.25C8.58579 15.25 8.25 15.5858 8.25 16C8.25 16.4142 8.58679 16.751 9.001 16.751C9.41521 16.751 9.751 16.4142 9.751 16C9.751 15.5858 9.41421 15.25 9 15.25ZM5.25 16C5.25 15.5858 5.58579 15.25 6 15.25C6.41421 15.25 6.751 15.5858 6.751 16C6.751 16.4142 6.41521 16.751 6.001 16.751C5.58679 16.751 5.25 16.4142 5.25 16ZM12 18.25C11.5858 18.25 11.25 18.5858 11.25 19C11.25 19.4142 11.5868 19.751 12.001 19.751C12.4152 19.751 12.751 19.4142 12.751 19C12.751 18.5858 12.4142 18.25 12 18.25ZM14.25 13C14.25 12.5858 14.5858 12.25 15 12.25C15.4142 12.25 15.751 12.5858 15.751 13C15.751 13.4142 15.4152 13.751 15.001 13.751C14.5868 13.751 14.25 13.4142 14.25 13ZM15 15.25C14.5858 15.25 14.25 15.5858 14.25 16C14.25 16.4142 14.5868 16.751 15.001 16.751C15.4152 16.751 15.751 16.4142 15.751 16C15.751 15.5858 15.4142 15.25 15 15.25ZM8.25 19C8.25 18.5858 8.58579 18.25 9 18.25C9.41421 18.25 9.751 18.5858 9.751 19C9.751 19.4142 9.41521 19.751 9.001 19.751C8.58679 19.751 8.25 19.4142 8.25 19ZM6 18.25C5.58579 18.25 5.25 18.5858 5.25 19C5.25 19.4142 5.58679 19.751 6.001 19.751C6.41521 19.751 6.751 19.4142 6.751 19C6.751 18.5858 6.41421 18.25 6 18.25Z"
        fill="#303233" />
</svg>
