<svg width="24" height="24" viewBox="0 0 24 24" fill="none" xmlns="http://www.w3.org/2000/svg">
    <path
        d="M5.788 2H16.212C17.0305 1.99999 17.7061 1.99998 18.2561 2.04565C18.8274 2.0931 19.3523 2.19496 19.8439 2.45035C20.5745 2.82985 21.1702 3.42553 21.5497 4.1561C21.8326 4.70071 21.9281 5.28898 21.9684 5.93808C22.0026 6.48931 21.5834 6.96389 21.0322 6.99808C20.481 7.03228 20.0064 6.61315 19.9722 6.06192C19.9383 5.51493 19.867 5.25544 19.7748 5.07805C19.5851 4.71277 19.2872 4.41493 18.9219 4.22517C18.7634 4.1428 18.536 4.07578 18.0905 4.03879C17.6331 4.00081 17.041 4 16.17 4H5.83C4.95898 4 4.36686 4.00081 3.90946 4.03879C3.46402 4.07578 3.23663 4.1428 3.07805 4.22517C2.71277 4.41493 2.41493 4.71277 2.22518 5.07805C2.1428 5.23663 2.07578 5.46402 2.03879 5.90945C2.00081 6.36686 2 6.95898 2 7.83V14.17C2 15.041 2.00081 15.6331 2.03879 16.0905C2.07578 16.536 2.1428 16.7634 2.22518 16.9219C2.41493 17.2872 2.71277 17.5851 3.07805 17.7748C3.23663 17.8572 3.46402 17.9242 3.90946 17.9612C4.36687 17.9992 4.95898 18 5.83 18H6C6.55229 18 7 18.4477 7 19C7 19.5523 6.55229 20 6 20H5.788C4.96951 20 4.29392 20 3.74393 19.9543C3.17258 19.9069 2.64774 19.805 2.15611 19.5497C1.42553 19.1702 0.829851 18.5745 0.450349 17.8439C0.194964 17.3523 0.0931012 16.8274 0.045653 16.2561C-2.07499e-05 15.7061 -1.12021e-05 15.0305 3.66677e-07 14.212V7.78796C-1.12021e-05 6.96947 -2.07499e-05 6.29392 0.045653 5.74393C0.0931012 5.17258 0.194964 4.64774 0.450349 4.1561C0.829851 3.42553 1.42553 2.82985 2.15611 2.45035C2.64774 2.19496 3.17258 2.0931 3.74393 2.04565C4.29393 1.99998 4.96949 1.99999 5.788 2Z"
        fill="#303233" />
    <path fill-rule="evenodd" clip-rule="evenodd"
        d="M14.788 9H18.212C19.0305 8.99999 19.7061 8.99998 20.2561 9.04565C20.8274 9.0931 21.3523 9.19496 21.8439 9.45035C22.5745 9.82985 23.1702 10.4255 23.5497 11.1561C23.805 11.6477 23.9069 12.1726 23.9543 12.7439C24 13.2939 24 13.9695 24 14.788V16.212C24 17.0305 24 17.7061 23.9543 18.2561C23.9069 18.8274 23.805 19.3523 23.5497 19.8439C23.1702 20.5745 22.5745 21.1702 21.8439 21.5497C21.3523 21.805 20.8274 21.9069 20.2561 21.9543C19.7061 22 19.0305 22 18.212 22H14.788C13.9695 22 13.2939 22 12.7439 21.9543C12.1726 21.9069 11.6477 21.805 11.1561 21.5497C10.4255 21.1702 9.82985 20.5745 9.45035 19.8439C9.19496 19.3523 9.0931 18.8274 9.04565 18.2561C8.99998 17.7061 8.99999 17.0305 9 16.2121V14.7879C8.99999 13.9695 8.99998 13.2939 9.04565 12.7439C9.0931 12.1726 9.19496 11.6477 9.45035 11.1561C9.82985 10.4255 10.4255 9.82985 11.1561 9.45035C11.6477 9.19496 12.1726 9.0931 12.7439 9.04565C13.2939 8.99998 13.9695 8.99999 14.788 9ZM16.5 15.5C17.7828 15.5 18.8227 14.4926 18.8227 13.25C18.8227 12.0074 17.7828 11 16.5 11C15.2172 11 14.1773 12.0074 14.1773 13.25C14.1773 14.4926 15.2172 15.5 16.5 15.5ZM20.4518 20C20.801 20 21.0739 19.7019 20.982 19.3755C20.4445 17.4662 18.6414 16.0625 16.5 16.0625C14.3586 16.0625 12.5555 17.4662 12.018 19.3755C11.9261 19.7019 12.1989 20 12.5482 20H20.4518Z"
        fill="#303233" />
</svg>
