<svg width="16" height="16" viewBox="0 0 16 16" fill="none" xmlns="http://www.w3.org/2000/svg">
    <g clip-path="url(#clip0_53_6384)">
        <path fill-rule="evenodd" clip-rule="evenodd"
            d="M7.96695 1.99957C9.63305 0.333476 12.3343 0.333475 14.0004 1.99957C15.6665 3.66567 15.6665 6.36695 14.0004 8.03305L13.0059 9.02761C12.713 9.32051 12.2381 9.32051 11.9452 9.02761C11.6523 8.73472 11.6523 8.25984 11.9452 7.96695L12.9398 6.97239C14.0201 5.89208 14.0201 4.14055 12.9398 3.06023C11.8595 1.97992 10.1079 1.97992 9.02761 3.06023L8.03305 4.0548C7.74016 4.34769 7.26528 4.34769 6.97239 4.0548C6.6795 3.7619 6.6795 3.28703 6.97239 2.99414L7.96695 1.99957ZM10.9917 5.00824C11.2846 5.30113 11.2846 5.776 10.9917 6.0689L6.06891 10.9917C5.77602 11.2846 5.30115 11.2846 5.00825 10.9917C4.71536 10.6988 4.71536 10.224 5.00825 9.93107L9.93109 5.00824C10.224 4.71534 10.6989 4.71534 10.9917 5.00824ZM4.0548 6.97239C4.34769 7.26528 4.34769 7.74016 4.0548 8.03305L3.06023 9.02761C1.97992 10.1079 1.97992 11.8595 3.06023 12.9398C4.14055 14.0201 5.89208 14.0201 6.97239 12.9398L7.96695 11.9452C8.25984 11.6523 8.73472 11.6523 9.02761 11.9452C9.32051 12.2381 9.32051 12.713 9.02761 13.0059L8.03305 14.0004C6.36695 15.6665 3.66567 15.6665 1.99957 14.0004C0.333475 12.3343 0.333476 9.63305 1.99957 7.96695L2.99414 6.97239C3.28703 6.6795 3.7619 6.6795 4.0548 6.97239Z"
            fill="#303233" />
    </g>
    <defs>
        <clipPath id="clip0_53_6384">
            <rect width="16" height="16" fill="white" />
        </clipPath>
    </defs>
</svg>
