<svg width="24" height="24" viewBox="0 0 24 24" fill="none" xmlns="http://www.w3.org/2000/svg">
    <path fill-rule="evenodd" clip-rule="evenodd"
        d="M9 12C9 10.3431 10.3431 9 12 9C13.6569 9 15 10.3431 15 12C15 13.6569 13.6569 15 12 15C10.3431 15 9 13.6569 9 12ZM12 11C11.4477 11 11 11.4477 11 12C11 12.5523 11.4477 13 12 13C12.5523 13 13 12.5523 13 12C13 11.4477 12.5523 11 12 11Z"
        fill="#303233" />
    <path fill-rule="evenodd" clip-rule="evenodd"
        d="M18 5.00146V5C18 2.79086 16.2091 1 14 1H5C2.79086 1 1 2.79086 1 5V14C1 16.2091 2.79086 18 5 18H5.00146C5.00451 18.4744 5.0139 18.8885 5.04276 19.2476C5.08719 19.8004 5.18251 20.309 5.42182 20.7879C5.809 21.5628 6.43723 22.191 7.21209 22.5782C7.69104 22.8175 8.19958 22.9128 8.75241 22.9572C9.2848 23 9.93801 23 10.7294 23H17.2706C18.062 23 18.7152 23 19.2476 22.9572C19.8004 22.9128 20.309 22.8175 20.7879 22.5782C21.5628 22.191 22.191 21.5628 22.5782 20.7879C22.8175 20.309 22.9128 19.8004 22.9572 19.2476C23 18.7152 23 18.062 23 17.2706V17.0174L23.0001 17.005L23 16.9826V10.7294C23 9.93801 23 9.2848 22.9572 8.75241C22.9128 8.19958 22.8175 7.69104 22.5782 7.21209C22.191 6.43723 21.5628 5.809 20.7879 5.42182C20.309 5.18251 19.8004 5.08719 19.2476 5.04276C18.8885 5.0139 18.4744 5.00451 18 5.00146ZM3 14C3 15.1046 3.89543 16 5 16L5 10.7294C4.99999 9.93799 4.99998 9.2848 5.04276 8.75241C5.08719 8.19958 5.18251 7.69104 5.42182 7.21209C5.809 6.43723 6.43723 5.809 7.21209 5.42182C7.69104 5.18251 8.19958 5.08719 8.75241 5.04276C9.2848 4.99998 9.93799 4.99999 10.7294 5L16 5C16 3.89543 15.1046 3 14 3H5C3.89543 3 3 3.89543 3 5V14ZM21 14.5856V10.77C21 9.92785 20.9992 9.35538 20.9637 8.91262C20.929 8.48124 20.8661 8.26024 20.7891 8.10604C20.5955 7.71862 20.2814 7.4045 19.894 7.21091C19.7398 7.13386 19.5188 7.071 19.0874 7.03633C18.6446 7.00075 18.0721 7 17.23 7H10.77C9.92785 7 9.35538 7.00075 8.91262 7.03633C8.48124 7.071 8.26024 7.13386 8.10604 7.21091C7.71862 7.4045 7.4045 7.71862 7.21091 8.10604C7.13386 8.26024 7.071 8.48124 7.03633 8.91262C7.00075 9.35538 7 9.92785 7 10.77V17.23C7 18.0721 7.00075 18.6446 7.03633 19.0874C7.071 19.5188 7.13386 19.7398 7.21091 19.894C7.4045 20.2814 7.71862 20.5955 8.10604 20.7891C8.22529 20.8487 8.38448 20.8998 8.65003 20.9359L16.1842 13.4017C16.3627 13.2232 16.5364 13.0494 16.6957 12.9142C16.8705 12.7658 17.0924 12.6062 17.3821 12.5121C17.7838 12.3816 18.2165 12.3816 18.6182 12.5121C18.9079 12.6062 19.1298 12.7658 19.3046 12.9142C19.4638 13.0494 19.6376 13.2232 19.816 13.4017L21 14.5856ZM11.4144 21H17.23C18.0721 21 18.6446 20.9992 19.0874 20.9637C19.5188 20.929 19.7398 20.8661 19.894 20.7891C20.2814 20.5955 20.5955 20.2814 20.7891 19.894C20.8661 19.7398 20.929 19.5188 20.9637 19.0874C20.9966 18.6777 20.9997 18.1568 21 17.414L18.4244 14.8385C18.2147 14.6288 18.0995 14.5146 18.0103 14.4389L18.0002 14.4304L17.99 14.4389C17.9008 14.5146 17.7856 14.6288 17.5759 14.8385L11.4144 21Z"
        fill="#303233" />
</svg>
