<svg width="16" height="16" viewBox="0 0 16 16" fill="none" xmlns="http://www.w3.org/2000/svg">
    <path
        d="M8 0.25C6.48122 0.25 5.25 1.48122 5.25 3V8C5.25 9.51878 6.48122 10.75 8 10.75C8.41421 10.75 8.75 10.4142 8.75 10C8.75 9.58579 8.41421 9.25 8 9.25C7.30964 9.25 6.75 8.69036 6.75 8V3C6.75 2.30964 7.30964 1.75 8 1.75C8.69036 1.75 9.25 2.30964 9.25 3V8C9.25 8.41421 9.58579 8.75 10 8.75C10.4142 8.75 10.75 8.41421 10.75 8V3C10.75 1.48122 9.51878 0.25 8 0.25Z"
        fill="#303233" />
    <path
        d="M4.25 6.5C4.25 6.08579 3.91421 5.75 3.5 5.75C3.08579 5.75 2.75 6.08579 2.75 6.5V8C2.75 10.6042 4.64531 12.7642 7.13177 13.1784C7.54035 13.2465 7.92675 12.9705 7.99482 12.5619C8.06289 12.1533 7.78685 11.7669 7.37827 11.6988C5.60322 11.4031 4.25 9.85884 4.25 8V6.5Z"
        fill="#303233" />
    <path
        d="M13.25 6.5C13.25 6.08579 12.9142 5.75 12.5 5.75C12.0858 5.75 11.75 6.08579 11.75 6.5V7.25C11.75 7.66421 12.0858 8 12.5 8C12.9142 8 13.25 7.66421 13.25 7.25V6.5Z"
        fill="#303233" />
    <path
        d="M5.5 14.25C5.08579 14.25 4.75 14.5858 4.75 15C4.75 15.4142 5.08579 15.75 5.5 15.75H8C8.41421 15.75 8.75 15.4142 8.75 15C8.75 14.5858 8.41421 14.25 8 14.25H5.5Z"
        fill="#303233" />
    <path fill-rule="evenodd" clip-rule="evenodd"
        d="M9.25 12.5C9.25 10.7051 10.7051 9.25 12.5 9.25C14.2949 9.25 15.75 10.7051 15.75 12.5C15.75 14.2949 14.2949 15.75 12.5 15.75C10.7051 15.75 9.25 14.2949 9.25 12.5ZM12.5 10.75C11.5335 10.75 10.75 11.5335 10.75 12.5C10.75 12.7061 10.7856 12.9038 10.851 13.0874L13.0874 10.851C12.9038 10.7856 12.7061 10.75 12.5 10.75ZM12.5 14.25C12.2934 14.25 12.0952 14.2142 11.9112 14.1485L14.1485 11.9112C14.2142 12.0952 14.25 12.2934 14.25 12.5C14.25 13.4665 13.4665 14.25 12.5 14.25Z"
        fill="#303233" />
</svg>
