<svg width="24" height="24" viewBox="0 0 24 24" fill="none" xmlns="http://www.w3.org/2000/svg">
    <path fill-rule="evenodd" clip-rule="evenodd"
        d="M12 2.75C8.57714 2.75 5.58753 4.60876 3.98703 7.37554C3.77962 7.73409 3.32082 7.85661 2.96228 7.6492C2.60373 7.4418 2.48121 6.983 2.68862 6.62446C4.54621 3.41323 8.02004 1.25 12 1.25C17.9371 1.25 22.75 6.06294 22.75 12C22.75 17.9371 17.9371 22.75 12 22.75C8.02004 22.75 4.54621 20.5868 2.68862 17.3755C2.48121 17.017 2.60373 16.5582 2.96228 16.3508C3.32082 16.1434 3.77962 16.2659 3.98703 16.6245C5.58753 19.3912 8.57714 21.25 12 21.25C17.1086 21.25 21.25 17.1086 21.25 12C21.25 6.89137 17.1086 2.75 12 2.75ZM11.4697 8.53033C11.1768 8.23744 11.1768 7.76256 11.4697 7.46967C11.7626 7.17678 12.2374 7.17678 12.5303 7.46967L16.5303 11.4697C16.8232 11.7626 16.8232 12.2374 16.5303 12.5303L12.5303 16.5303C12.2374 16.8232 11.7626 16.8232 11.4697 16.5303C11.1768 16.2374 11.1768 15.7626 11.4697 15.4697L14.1893 12.75H3C2.58579 12.75 2.25 12.4142 2.25 12C2.25 11.5858 2.58579 11.25 3 11.25H14.1893L11.4697 8.53033Z"
        fill="#303233" />
</svg>
