<svg width="24" height="24" viewBox="0 0 24 24" fill="none" xmlns="http://www.w3.org/2000/svg">
    <path
        d="M21.5303 2.46967C21.8232 2.76256 21.8232 3.23744 21.5303 3.53033L15.8107 9.25H20C20.4142 9.25 20.75 9.58579 20.75 10C20.75 10.4142 20.4142 10.75 20 10.75H14C13.8983 10.75 13.8013 10.7298 13.7129 10.6931C13.6265 10.6573 13.5453 10.6047 13.4746 10.5352L13.4648 10.5254C13.3953 10.4547 13.3427 10.3735 13.3069 10.2871C13.2702 10.1987 13.25 10.1017 13.25 10V4C13.25 3.58579 13.5858 3.25 14 3.25C14.4142 3.25 14.75 3.58579 14.75 4V8.18934L20.4697 2.46967C20.7626 2.17678 21.2374 2.17678 21.5303 2.46967Z"
        fill="#303233" />
    <path
        d="M10 13.25H4C3.58579 13.25 3.25 13.5858 3.25 14C3.25 14.4142 3.58579 14.75 4 14.75H8.18934L2.46967 20.4697C2.17678 20.7626 2.17678 21.2374 2.46967 21.5303C2.76256 21.8232 3.23744 21.8232 3.53033 21.5303L9.25 15.8107V20C9.25 20.4142 9.58579 20.75 10 20.75C10.4142 20.75 10.75 20.4142 10.75 20V14C10.75 13.7954 10.6681 13.6099 10.5352 13.4746C10.532 13.4713 10.5287 13.468 10.5254 13.4648C10.4547 13.3953 10.3735 13.3427 10.2871 13.3069C10.1987 13.2702 10.1017 13.25 10 13.25Z"
        fill="#303233" />
</svg>
