<svg width="16" height="16" viewBox="0 0 16 16" fill="none" xmlns="http://www.w3.org/2000/svg">
    <path fill-rule="evenodd" clip-rule="evenodd"
        d="M3 2C1.89543 2 0.999992 2.89544 1 4.00001L1.00006 12C1.00006 13.1046 1.89549 14 3.00006 14H13.0001C14.1046 14 15.0001 13.1046 15.0001 12V5C15.0001 3.89543 14.1046 3 13.0001 3H9.20712C8.75441 3 8.32024 2.82014 8.00015 2.5C7.68006 2.17986 7.24589 2 6.79318 2H3ZM5.50024 8C5.2241 8 5.00024 8.22386 5.00024 8.5C5.00024 8.77614 5.2241 9 5.50024 9H10.5002C10.7764 9 11.0002 8.77614 11.0002 8.5C11.0002 8.22386 10.7764 8 10.5002 8H5.50024Z"
        fill="#303233" />
</svg>
