<svg width="16" height="16" viewBox="0 0 16 16" fill="none" xmlns="http://www.w3.org/2000/svg">
    <path fill-rule="evenodd" clip-rule="evenodd"
        d="M5 1.25C5.41421 1.25 5.75 1.58579 5.75 2L5.75 7.85352C6.90425 8.17998 7.75 9.24122 7.75 10.5C7.75 11.7588 6.90425 12.82 5.75 13.1465L5.75 14C5.75 14.4142 5.41421 14.75 5 14.75C4.58579 14.75 4.25 14.4142 4.25 14L4.25 13.1465C3.09575 12.82 2.25 11.7588 2.25 10.5C2.25 9.24122 3.09575 8.17998 4.25 7.85352L4.25 2C4.25 1.58579 4.58579 1.25 5 1.25ZM11 1.25C11.4142 1.25 11.75 1.58579 11.75 2V2.85352C12.9043 3.17998 13.75 4.24122 13.75 5.5C13.75 6.75878 12.9043 7.82002 11.75 8.14648V14C11.75 14.4142 11.4142 14.75 11 14.75C10.5858 14.75 10.25 14.4142 10.25 14V8.14648C9.09575 7.82002 8.25 6.75878 8.25 5.5C8.25 4.24122 9.09575 3.17998 10.25 2.85352V2C10.25 1.58579 10.5858 1.25 11 1.25ZM11 4.25C10.3096 4.25 9.75 4.80964 9.75 5.5C9.75 6.19036 10.3096 6.75 11 6.75C11.6904 6.75 12.25 6.19036 12.25 5.5C12.25 4.80964 11.6904 4.25 11 4.25ZM5 9.25C4.30964 9.25 3.75 9.80964 3.75 10.5C3.75 11.1904 4.30964 11.75 5 11.75C5.69036 11.75 6.25 11.1904 6.25 10.5C6.25 9.80964 5.69036 9.25 5 9.25Z"
        fill="#303233" />
</svg>
