<svg width="16" height="16" viewBox="0 0 16 16" fill="none" xmlns="http://www.w3.org/2000/svg">
    <g clip-path="url(#clip0_53_9164)">
        <path fill-rule="evenodd" clip-rule="evenodd"
            d="M8 0.75C3.99594 0.75 0.75 3.99594 0.75 8C0.75 12.0041 3.99594 15.25 8 15.25C12.0041 15.25 15.25 12.0041 15.25 8C15.25 3.99594 12.0041 0.75 8 0.75ZM8.75 3.99998C8.75 3.58577 8.41421 3.24998 8 3.24998C7.58579 3.24998 7.25 3.58577 7.25 3.99998V7.99998C7.25 8.28406 7.4105 8.54376 7.66459 8.6708L10.3313 10.0041C10.7017 10.1894 11.1522 10.0392 11.3375 9.66873C11.5227 9.29824 11.3726 8.84774 11.0021 8.6625L8.75 7.53646V3.99998Z"
            fill="#303233" />
    </g>
    <defs>
        <clipPath id="clip0_53_9164">
            <rect width="16" height="16" fill="white" />
        </clipPath>
    </defs>
</svg>
