<svg width="24" height="24" viewBox="0 0 24 24" fill="none" xmlns="http://www.w3.org/2000/svg">
    <path fill-rule="evenodd" clip-rule="evenodd"
        d="M2.70711 1.29289C2.31658 0.902369 1.68342 0.902369 1.29289 1.29289C0.902369 1.68342 0.902369 2.31658 1.29289 2.70711L1.97206 3.38627C1.76316 3.62828 1.58282 3.89584 1.43598 4.18404C1.18868 4.66937 1.09012 5.18608 1.04419 5.74818C0.999978 6.28937 0.999988 6.95372 1 7.75868V12.2413C0.999988 13.0463 0.999978 13.7106 1.04419 14.2518C1.09012 14.8139 1.18868 15.3306 1.43598 15.816C1.81947 16.5686 2.43139 17.1805 3.18404 17.564C3.66937 17.8113 4.18608 17.9099 4.74818 17.9558C5.28937 18 5.95373 18 6.7587 18H16.5858L21.2929 22.7071C21.6834 23.0976 22.3166 23.0976 22.7071 22.7071C23.0976 22.3166 23.0976 21.6834 22.7071 21.2929L4.26024 2.84603C4.19613 2.75707 4.11954 2.68146 4.03436 2.62014L2.70711 1.29289Z"
        fill="#303233" />
    <path fill-rule="evenodd" clip-rule="evenodd"
        d="M20.816 2.43597C20.3306 2.18868 19.8139 2.09012 19.2518 2.04419C18.7106 1.99998 18.0463 1.99999 17.2413 2L8 2C7.59559 2 7.23099 2.24358 7.07618 2.61718C6.92136 2.99078 7.00681 3.42085 7.29269 3.7069L20.4101 16.8321C20.8001 17.2223 21.4324 17.223 21.8232 16.8336C22.1205 16.5374 22.3712 16.1945 22.564 15.816C22.8113 15.3306 22.9099 14.8139 22.9558 14.2518C23 13.7106 23 13.0463 23 12.2413V7.75868C23 6.95372 23 6.28936 22.9558 5.74817C22.9099 5.18608 22.8113 4.66937 22.564 4.18404C22.1805 3.43139 21.5686 2.81947 20.816 2.43597Z"
        fill="#303233" />
    <path
        d="M8.00427 21.9017C9.20626 21.3252 10.562 21 12 21C13.438 21 14.7937 21.3252 15.9957 21.9017C16.4937 22.1405 17.091 21.9304 17.3298 21.4325C17.5687 20.9345 17.3586 20.3372 16.8606 20.0983C15.393 19.3944 13.7421 19 12 19C10.2579 19 8.60697 19.3944 7.13936 20.0983C6.64139 20.3372 6.43132 20.9345 6.67016 21.4325C6.909 21.9304 7.5063 22.1405 8.00427 21.9017Z"
        fill="#303233" />
</svg>
