<svg width="24" height="24" viewBox="0 0 24 24" fill="none" xmlns="http://www.w3.org/2000/svg">
    <path fill-rule="evenodd" clip-rule="evenodd"
        d="M6.7679 2.25L17.2321 2.25C18.0449 2.24999 18.7006 2.24999 19.2315 2.29337C19.7781 2.33803 20.2582 2.43239 20.7025 2.65873C21.4081 3.01825 21.9818 3.59193 22.3413 4.29754C22.5676 4.74176 22.662 5.2219 22.7066 5.76853C22.75 6.29944 22.75 6.95505 22.75 7.76788V16.2321C22.75 17.045 22.75 17.7006 22.7066 18.2315C22.662 18.7781 22.5676 19.2582 22.3413 19.7025C21.9818 20.4081 21.4081 20.9817 20.7025 21.3413C20.2582 21.5676 19.7781 21.662 19.2315 21.7066C18.7006 21.75 18.045 21.75 17.2321 21.75H6.76798C5.9551 21.75 5.29946 21.75 4.76853 21.7066C4.22189 21.662 3.74175 21.5676 3.29754 21.3413C2.59193 20.9817 2.01825 20.4081 1.65873 19.7025C1.43239 19.2582 1.33803 18.7781 1.29336 18.2315C1.24999 17.7006 1.24999 17.0449 1.25 16.2321L1.25 9.00057C1.25 9.00038 1.25 9.00076 1.25 9.00057C1.25 9.00038 1.25 8.99962 1.25 8.99943L1.25 7.7679C1.24999 6.95506 1.24999 6.29944 1.29336 5.76853C1.33803 5.2219 1.43239 4.74175 1.65873 4.29754C2.01825 3.59193 2.59193 3.01825 3.29754 2.65873C3.74176 2.43238 4.2219 2.33803 4.76853 2.29336C5.29944 2.24999 5.95506 2.24999 6.7679 2.25ZM2.75 9.75L2.75 16.2C2.75 17.0525 2.75058 17.6467 2.78838 18.1093C2.82547 18.5632 2.8946 18.824 2.99524 19.0215C3.21095 19.4448 3.55516 19.789 3.97852 20.0048C4.17604 20.1054 4.43681 20.1745 4.89068 20.2116C5.35331 20.2494 5.94755 20.25 6.8 20.25H17.2C18.0525 20.25 18.6467 20.2494 19.1093 20.2116C19.5632 20.1745 19.824 20.1054 20.0215 20.0048C20.4448 19.789 20.7891 19.4448 21.0048 19.0215C21.1054 18.824 21.1745 18.5632 21.2116 18.1093C21.2494 17.6467 21.25 17.0525 21.25 16.2V9.75H2.75ZM21.25 8.25H2.75V7.8C2.75 6.94755 2.75058 6.35331 2.78838 5.89068C2.82547 5.4368 2.8946 5.17604 2.99524 4.97852C3.21095 4.55516 3.55516 4.21095 3.97852 3.99524C4.17604 3.8946 4.43681 3.82546 4.89068 3.78838C5.35331 3.75058 5.94755 3.75 6.8 3.75L17.2 3.75C18.0525 3.75 18.6467 3.75059 19.1093 3.78838C19.5632 3.82547 19.824 3.8946 20.0215 3.99524C20.4448 4.21095 20.7891 4.55516 21.0048 4.97852C21.1054 5.17604 21.1745 5.43681 21.2116 5.89068C21.2494 6.35331 21.25 6.94755 21.25 7.8V8.25Z"
        fill="#303233" />
</svg>
