<svg width="24" height="24" viewBox="0 0 24 24" fill="none" xmlns="http://www.w3.org/2000/svg">
    <path fill-rule="evenodd" clip-rule="evenodd"
        d="M12.6139 3.74437C12.2528 3.46351 11.7472 3.46351 11.3861 3.74437L4.38606 9.18881C4.14247 9.37827 4 9.66958 4 9.97817V20C4 20.2652 4.10536 20.5196 4.29289 20.7071C4.48043 20.8946 4.73478 21 5 21H8V16C8 14.3431 9.34315 13 11 13H13C14.6569 13 16 14.3431 16 16V21H19C19.2652 21 19.5196 20.8946 19.7071 20.7071C19.8946 20.5196 20 20.2652 20 20V9.97817C20 9.66958 19.8575 9.37827 19.6139 9.18882L12.6139 3.74437ZM10.1582 2.16566C11.2415 1.32307 12.7585 1.32308 13.8418 2.16567L20.8418 7.61011C21.5726 8.17848 22 9.0524 22 9.97817V20C22 20.7957 21.6839 21.5587 21.1213 22.1213C20.5587 22.6839 19.7957 23 19 23H15C14.4477 23 14 22.5523 14 22V16C14 15.4477 13.5523 15 13 15H11C10.4477 15 10 15.4477 10 16V22C10 22.5523 9.55228 23 9 23H5C4.20435 23 3.44129 22.6839 2.87868 22.1213C2.31607 21.5587 2 20.7957 2 20V9.97817C2 9.0524 2.42742 8.17848 3.15818 7.61011L10.1582 2.16566Z"
        fill="#303233" />
</svg>
