<svg width="24" height="24" viewBox="0 0 24 24" fill="none" xmlns="http://www.w3.org/2000/svg">
    <path
        d="M8 2.25H7.7679C6.95506 2.24999 6.29944 2.24999 5.76853 2.29336C5.2219 2.33803 4.74175 2.43239 4.29754 2.65873C3.59193 3.01825 3.01825 3.59193 2.65873 4.29754C2.43239 4.74175 2.33803 5.2219 2.29336 5.76853C2.24999 6.29944 2.24999 6.95505 2.25 7.76789V8C2.25 8.41421 2.58579 8.75 3 8.75C3.41421 8.75 3.75 8.41421 3.75 8V7.8C3.75 6.94755 3.75058 6.35331 3.78838 5.89068C3.82547 5.43681 3.8946 5.17604 3.99524 4.97852C4.21095 4.55516 4.55516 4.21095 4.97852 3.99524C5.17604 3.8946 5.43681 3.82547 5.89068 3.78838C6.35331 3.75058 6.94755 3.75 7.8 3.75H8C8.41421 3.75 8.75 3.41421 8.75 3C8.75 2.58579 8.41421 2.25 8 2.25Z"
        fill="#303233" />
    <path
        d="M16.2 3.75C17.0525 3.75 17.6467 3.75058 18.1093 3.78838C18.5632 3.82547 18.824 3.8946 19.0215 3.99524C19.4448 4.21095 19.789 4.55516 20.0048 4.97852C20.1054 5.17604 20.1745 5.43681 20.2116 5.89068C20.2494 6.35331 20.25 6.94755 20.25 7.8V8C20.25 8.41421 20.5858 8.75 21 8.75C21.4142 8.75 21.75 8.41421 21.75 8V7.76788C21.75 6.95505 21.75 6.29944 21.7066 5.76853C21.662 5.2219 21.5676 4.74175 21.3413 4.29754C20.9817 3.59193 20.4081 3.01825 19.7025 2.65873C19.2582 2.43239 18.7781 2.33803 18.2315 2.29336C17.7006 2.24999 17.045 2.24999 16.2321 2.25H16C15.5858 2.25 15.25 2.58579 15.25 3C15.25 3.41421 15.5858 3.75 16 3.75H16.2Z"
        fill="#303233" />
    <path
        d="M3.75 16C3.75 15.5858 3.41421 15.25 3 15.25C2.58579 15.25 2.25 15.5858 2.25 16V16.2321C2.24999 17.0449 2.24999 17.7006 2.29336 18.2315C2.33803 18.7781 2.43239 19.2582 2.65873 19.7025C3.01825 20.4081 3.59193 20.9817 4.29754 21.3413C4.74175 21.5676 5.2219 21.662 5.76853 21.7066C6.29944 21.75 6.95505 21.75 7.76788 21.75H8C8.41421 21.75 8.75 21.4142 8.75 21C8.75 20.5858 8.41421 20.25 8 20.25H7.8C6.94755 20.25 6.35331 20.2494 5.89068 20.2116C5.43681 20.1745 5.17604 20.1054 4.97852 20.0048C4.55516 19.789 4.21095 19.4448 3.99524 19.0215C3.8946 18.824 3.82547 18.5632 3.78838 18.1093C3.75058 17.6467 3.75 17.0525 3.75 16.2V16Z"
        fill="#303233" />
    <path fill-rule="evenodd" clip-rule="evenodd"
        d="M15.3711 12.25H20.6289C21.0243 12.25 21.3653 12.25 21.6463 12.2729C21.9428 12.2972 22.2377 12.3506 22.5215 12.4952C22.9448 12.711 23.2891 13.0552 23.5048 13.4785C23.6494 13.7623 23.7028 14.0572 23.7271 14.3537C23.75 14.6347 23.75 14.9757 23.75 15.3711V20.6289C23.75 21.0243 23.75 21.3653 23.7271 21.6463C23.7028 21.9428 23.6494 22.2377 23.5048 22.5215C23.2891 22.9448 22.9448 23.2891 22.5215 23.5048C22.2377 23.6494 21.9428 23.7028 21.6463 23.7271C21.3653 23.75 21.0243 23.75 20.6289 23.75H15.3711C14.9757 23.75 14.6347 23.75 14.3537 23.7271C14.0572 23.7028 13.7623 23.6494 13.4785 23.5048C13.0552 23.2891 12.711 22.9448 12.4952 22.5215C12.3506 22.2377 12.2972 21.9428 12.2729 21.6463C12.25 21.3653 12.25 21.0243 12.25 20.6289V15.3711C12.25 14.9757 12.25 14.6347 12.2729 14.3537C12.2972 14.0572 12.3506 13.7623 12.4952 13.4785C12.711 13.0552 13.0552 12.711 13.4785 12.4952C13.7623 12.3506 14.0572 12.2972 14.3537 12.2729C14.6347 12.25 14.9757 12.25 15.3711 12.25ZM15.25 18C15.25 16.4812 16.4812 15.25 18 15.25C19.5188 15.25 20.75 16.4812 20.75 18C20.75 19.5188 19.5188 20.75 18 20.75C16.4812 20.75 15.25 19.5188 15.25 18Z"
        fill="#303233" />
</svg>
