<svg width="16" height="16" viewBox="0 0 16 16" fill="none" xmlns="http://www.w3.org/2000/svg">
    <path
        d="M9.55116 6.23849C9.46397 6.0964 9.3117 6.00712 9.14513 6.00041C8.97855 5.9937 8.81959 6.07044 8.72126 6.20506L7.14174 8.36724L6.04568 7.56347C5.93006 7.47868 5.78361 7.4476 5.64352 7.47814C5.50344 7.50867 5.3832 7.59787 5.31335 7.72308L3.06335 11.7564C2.97696 11.9113 2.97905 12.1003 3.06884 12.2532C3.15863 12.4061 3.32268 12.5 3.5 12.5H12.5C12.681 12.5 12.8479 12.4022 12.9363 12.2442C13.0247 12.0862 13.0208 11.8928 12.9262 11.7385L9.55116 6.23849Z"
        fill="#303233" />
    <path fill-rule="evenodd" clip-rule="evenodd"
        d="M3.25 1C2.00736 1 1 2.00736 1 3.25V12.75C1 13.9926 2.00736 15 3.25 15H12.75C13.9926 15 15 13.9926 15 12.75V3.25C15 2.00736 13.9926 1 12.75 1H3.25ZM2 3.25C2 2.55964 2.55964 2 3.25 2H12.75C13.4404 2 14 2.55964 14 3.25V12.75C14 13.4404 13.4404 14 12.75 14H3.25C2.55964 14 2 13.4404 2 12.75V3.25Z"
        fill="#303233" />
</svg>
