<svg width="16" height="16" viewBox="0 0 16 16" fill="none" xmlns="http://www.w3.org/2000/svg">
    <path fill-rule="evenodd" clip-rule="evenodd"
        d="M4.25 1C3.14543 1 2.25 1.89543 2.25 3V13C2.25 14.1046 3.14543 15 4.25 15H11.75C12.8546 15 13.75 14.1046 13.75 13V4.70919C13.75 4.35115 13.6078 4.00777 13.3546 3.75459L10.9954 1.39541C10.7422 1.14223 10.3989 1 10.0408 1H4.25ZM10.8354 3.08536C10.8039 3.05386 10.75 3.07617 10.75 3.12071V4.2C10.75 4.22761 10.7724 4.25 10.8 4.25H11.8793C11.9238 4.25 11.9461 4.19614 11.9146 4.16464L10.8354 3.08536Z"
        fill="#303233" />
</svg>
