<svg width="16" height="16" viewBox="0 0 16 16" fill="none" xmlns="http://www.w3.org/2000/svg">
    <g clip-path="url(#clip0_953_324)">
        <path fill-rule="evenodd" clip-rule="evenodd"
            d="M8 5.25C6.48122 5.25 5.25 6.48122 5.25 8C5.25 9.51878 6.48122 10.75 8 10.75C9.51878 10.75 10.75 9.51878 10.75 8C10.75 6.48122 9.51878 5.25 8 5.25ZM6.75 8C6.75 7.30964 7.30964 6.75 8 6.75C8.69036 6.75 9.25 7.30964 9.25 8C9.25 8.69036 8.69036 9.25 8 9.25C7.30964 9.25 6.75 8.69036 6.75 8Z"
            fill="#303233" />
        <path fill-rule="evenodd" clip-rule="evenodd"
            d="M8 0.75C8.41421 0.75 8.75 1.08579 8.75 1.5V2.29847C11.3258 2.634 13.366 4.67421 13.7015 7.25H14.5C14.9142 7.25 15.25 7.58579 15.25 8C15.25 8.41421 14.9142 8.75 14.5 8.75H13.7015C13.366 11.3258 11.3258 13.366 8.75 13.7015V14.5C8.75 14.9142 8.41421 15.25 8 15.25C7.58579 15.25 7.25 14.9142 7.25 14.5V13.7015C4.67421 13.366 2.634 11.3258 2.29847 8.75H1.5C1.08579 8.75 0.75 8.41421 0.75 8C0.75 7.58579 1.08579 7.25 1.5 7.25H2.29847C2.634 4.67421 4.67421 2.634 7.25 2.29847V1.5C7.25 1.08579 7.58579 0.75 8 0.75ZM3.75 8C3.75 10.3472 5.65279 12.25 8 12.25C10.3472 12.25 12.25 10.3472 12.25 8C12.25 5.65279 10.3472 3.75 8 3.75C5.65279 3.75 3.75 5.65279 3.75 8Z"
            fill="#303233" />
    </g>
    <defs>
        <clipPath id="clip0_953_324">
            <rect width="16" height="16" fill="white" />
        </clipPath>
    </defs>
</svg>
