<svg width="24" height="24" viewBox="0 0 24 24" fill="none" xmlns="http://www.w3.org/2000/svg">
    <path fill-rule="evenodd" clip-rule="evenodd"
        d="M7.25 4V5.25H3C2.58579 5.25 2.25 5.58579 2.25 6C2.25 6.41421 2.58579 6.75 3 6.75H4.25V20C4.25 20.7293 4.53973 21.4288 5.05546 21.9445C5.57118 22.4603 6.27065 22.75 7 22.75H17C17.7293 22.75 18.4288 22.4603 18.9445 21.9445C19.4603 21.4288 19.75 20.7293 19.75 20V6.75H21C21.4142 6.75 21.75 6.41421 21.75 6C21.75 5.58579 21.4142 5.25 21 5.25H16.75V4C16.75 3.27065 16.4603 2.57118 15.9445 2.05546C15.4288 1.53973 14.7293 1.25 14 1.25H10C9.27065 1.25 8.57118 1.53973 8.05546 2.05546C7.53973 2.57118 7.25 3.27065 7.25 4ZM10 2.75C9.66848 2.75 9.35054 2.8817 9.11612 3.11612C8.8817 3.35054 8.75 3.66848 8.75 4V5.25H15.25V4C15.25 3.66848 15.1183 3.35054 14.8839 3.11612C14.6495 2.8817 14.3315 2.75 14 2.75H10ZM10 10.25C10.4142 10.25 10.75 10.5858 10.75 11V17C10.75 17.4142 10.4142 17.75 10 17.75C9.58579 17.75 9.25 17.4142 9.25 17V11C9.25 10.5858 9.58579 10.25 10 10.25ZM14 10.25C14.4142 10.25 14.75 10.5858 14.75 11V17C14.75 17.4142 14.4142 17.75 14 17.75C13.5858 17.75 13.25 17.4142 13.25 17V11C13.25 10.5858 13.5858 10.25 14 10.25Z"
        fill="#303233" />
</svg>
