<svg width="16" height="16" viewBox="0 0 16 16" fill="none" xmlns="http://www.w3.org/2000/svg">
    <path fill-rule="evenodd" clip-rule="evenodd"
        d="M9.25228 0.293247C9.55144 0.399477 9.75131 0.68255 9.75131 1.00001V6.25001L13.5 6.25001C13.7894 6.25001 14.0529 6.41645 14.1772 6.67771C14.3016 6.93898 14.2645 7.24846 14.082 7.47301L7.58075 15.473C7.38053 15.7194 7.0469 15.813 6.74774 15.7068C6.44858 15.6005 6.24871 15.3175 6.24871 15V9.75001H2.50001C2.21066 9.75001 1.94713 9.58357 1.82279 9.32231C1.69845 9.06104 1.73549 8.75155 1.91797 8.52701L8.41927 0.527009C8.61948 0.280643 8.95312 0.187017 9.25228 0.293247Z"
        fill="#303233" />
</svg>
