<svg width="24" height="24" viewBox="0 0 24 24" fill="none" xmlns="http://www.w3.org/2000/svg">
    <path fill-rule="evenodd" clip-rule="evenodd"
        d="M6 3.25C6.41421 3.25 6.75 3.58579 6.75 4V18.1893L10.4697 14.4697C10.7626 14.1768 11.2374 14.1768 11.5303 14.4697C11.8232 14.7626 11.8232 15.2374 11.5303 15.5303L6.53033 20.5303C6.23744 20.8232 5.76256 20.8232 5.46967 20.5303L0.46967 15.5303C0.176777 15.2374 0.176777 14.7626 0.46967 14.4697C0.762563 14.1768 1.23744 14.1768 1.53033 14.4697L5.25 18.1893V4C5.25 3.58579 5.58579 3.25 6 3.25ZM17.4697 3.46967C17.7626 3.17678 18.2374 3.17678 18.5303 3.46967L23.5303 8.46967C23.8232 8.76256 23.8232 9.23744 23.5303 9.53033C23.2374 9.82322 22.7626 9.82322 22.4697 9.53033L18.75 5.81066V20C18.75 20.4142 18.4142 20.75 18 20.75C17.5858 20.75 17.25 20.4142 17.25 20V5.81066L13.5303 9.53033C13.2374 9.82322 12.7626 9.82322 12.4697 9.53033C12.1768 9.23744 12.1768 8.76256 12.4697 8.46967L17.4697 3.46967Z"
        fill="#303233" />
</svg>
