<svg width="16" height="16" viewBox="0 0 16 16" fill="none" xmlns="http://www.w3.org/2000/svg">
    <g clip-path="url(#clip0_53_9030)">
        <path
            d="M3.97731 5.775C3.97731 3.83157 5.56129 2.25 7.52277 2.25C8.96744 2.25 10.2099 3.10874 10.7626 4.34074C10.8852 4.61396 11.1586 4.78807 11.458 4.78364C11.472 4.78344 11.486 4.78333 11.5 4.78333C13.0222 4.78333 14.25 6.01046 14.25 7.51667C14.25 8.99847 13.0087 10.2306 11.4905 10.2498C11.0763 10.255 10.7448 10.595 10.7501 11.0092C10.7553 11.4234 11.0953 11.7549 11.5095 11.7497C13.8154 11.7205 15.75 9.85228 15.75 7.51667C15.75 5.31568 14.0656 3.51183 11.9166 3.30343C11.0503 1.77892 9.40696 0.75 7.52277 0.75C4.88165 0.75 2.70958 2.77296 2.49476 5.35398C1.19139 5.79071 0.25 7.01702 0.25 8.46667C0.25 10.2834 1.72907 11.75 3.54568 11.75L4.50022 11.7497C4.91444 11.7496 5.25012 11.4137 5.25 10.9995C5.24988 10.5853 4.91399 10.2496 4.49978 10.2497L3.54523 10.25C2.55036 10.2499 1.75 9.4481 1.75 8.46667C1.75 7.55986 2.43349 6.8059 3.32224 6.6969C3.71001 6.64935 3.99633 6.31208 3.98032 5.92173C3.97832 5.87311 3.97731 5.82419 3.97731 5.775Z"
            fill="#303233" />
        <path
            d="M8 8C8.41421 8 8.75 8.33579 8.75 8.75V13.4393L9.46967 12.7197C9.76256 12.4268 10.2374 12.4268 10.5303 12.7197C10.8232 13.0126 10.8232 13.4874 10.5303 13.7803L8.53033 15.7803C8.45842 15.8522 8.37555 15.9065 8.28709 15.9431C8.19866 15.9798 8.10169 16 8 16C7.89831 16 7.80134 15.9798 7.71291 15.9431C7.62445 15.9065 7.54158 15.8522 7.46967 15.7803L5.46967 13.7803C5.17678 13.4874 5.17678 13.0126 5.46967 12.7197C5.76256 12.4268 6.23744 12.4268 6.53033 12.7197L7.25 13.4393V8.75C7.25 8.33579 7.58579 8 8 8Z"
            fill="#303233" />
    </g>
    <defs>
        <clipPath id="clip0_53_9030">
            <rect width="16" height="16" fill="white" />
        </clipPath>
    </defs>
</svg>
