<svg width="16" height="16" viewBox="0 0 16 16" fill="none" xmlns="http://www.w3.org/2000/svg">
    <path fill-rule="evenodd" clip-rule="evenodd"
        d="M5.66957 0.75H10.3304C10.8646 0.74999 11.3104 0.749981 11.6747 0.77974C12.0546 0.810778 12.4112 0.877889 12.7485 1.04973C13.2659 1.31338 13.6866 1.73408 13.9503 2.25153C14.1221 2.58879 14.1892 2.94545 14.2203 3.32533C14.25 3.68956 14.25 4.1354 14.25 4.66955V5C14.25 5.41421 13.9142 5.75 13.5 5.75C13.0858 5.75 12.75 5.41421 12.75 5V4.7C12.75 4.12757 12.7494 3.74336 12.7252 3.44748C12.7018 3.16036 12.6599 3.02307 12.6138 2.93251C12.4939 2.69731 12.3027 2.50608 12.0675 2.38624C11.9769 2.3401 11.8396 2.29822 11.5525 2.27476C11.2566 2.25058 10.8724 2.25 10.3 2.25H5.7C5.12757 2.25 4.74336 2.25058 4.44748 2.27476C4.16036 2.29822 4.02307 2.3401 3.93251 2.38624C3.69731 2.50608 3.50608 2.69731 3.38624 2.93251C3.3401 3.02307 3.29822 3.16036 3.27476 3.44748C3.25058 3.74336 3.25 4.12757 3.25 4.7V11.3C3.25 11.8724 3.25058 12.2566 3.27476 12.5525C3.29822 12.8396 3.3401 12.9769 3.38624 13.0675C3.50608 13.3027 3.69731 13.4939 3.93251 13.6138C4.02307 13.6599 4.16035 13.7018 4.44748 13.7252C4.74336 13.7494 5.12757 13.75 5.7 13.75H8C8.41421 13.75 8.75 14.0858 8.75 14.5C8.75 14.9142 8.41421 15.25 8 15.25H5.66955C5.1354 15.25 4.68956 15.25 4.32533 15.2203C3.94545 15.1892 3.58879 15.1221 3.25153 14.9503C2.73408 14.6866 2.31338 14.2659 2.04973 13.7485C1.87789 13.4112 1.81078 13.0546 1.77974 12.6747C1.74998 12.3104 1.74999 11.8646 1.75 11.3304V4.66957C1.74999 4.13541 1.74998 3.68956 1.77974 3.32533C1.81078 2.94545 1.87789 2.58879 2.04973 2.25153C2.31338 1.73408 2.73408 1.31338 3.25153 1.04973C3.58879 0.877889 3.94545 0.810778 4.32533 0.77974C4.68956 0.749981 5.13541 0.74999 5.66957 0.75Z"
        fill="#303233" />
    <path fill-rule="evenodd" clip-rule="evenodd"
        d="M13.4998 8.25C13.3618 8.25 13.2498 8.36193 13.2498 8.5V12C13.2498 12.4142 12.9141 12.75 12.4998 12.75C12.0856 12.75 11.7498 12.4142 11.7498 12V8.5C11.7498 7.5335 12.5333 6.75 13.4998 6.75C14.4663 6.75 15.2498 7.5335 15.2498 8.5V12C15.2498 13.5188 14.0186 14.75 12.4998 14.75C10.9811 14.75 9.74984 13.5188 9.74984 12V9.5C9.74984 9.08579 10.0856 8.75 10.4998 8.75C10.9141 8.75 11.2498 9.08579 11.2498 9.5V12C11.2498 12.6904 11.8095 13.25 12.4998 13.25C13.1902 13.25 13.7498 12.6904 13.7498 12V8.5C13.7498 8.36193 13.6379 8.25 13.4998 8.25Z"
        fill="#303233" />
</svg>
