<svg width="16" height="16" viewBox="0 0 16 16" fill="none" xmlns="http://www.w3.org/2000/svg">
    <g clip-path="url(#clip0_6454_25)">
        <path fill-rule="evenodd" clip-rule="evenodd"
            d="M2.94444 0.75C2.36244 0.75 1.80428 0.9812 1.39274 1.39274C0.9812 1.80428 0.75 2.36244 0.75 2.94444V14.5C0.75 14.8033 0.932732 15.0768 1.21299 15.1929C1.49324 15.309 1.81583 15.2448 2.03033 15.0303L4.81066 12.25H13.0556C13.6376 12.25 14.1957 12.0188 14.6073 11.6073C15.0188 11.1957 15.25 10.6376 15.25 10.0556V2.94444C15.25 2.36244 15.0188 1.80428 14.6073 1.39274C14.1957 0.9812 13.6376 0.75 13.0556 0.75H2.94444ZM8.75 4C8.75 3.58579 8.41421 3.25 8 3.25C7.58579 3.25 7.25 3.58579 7.25 4V6.5C7.25 6.91421 7.58579 7.25 8 7.25C8.41421 7.25 8.75 6.91421 8.75 6.5V4ZM8.75 9C8.75 8.58579 8.41421 8.25 8 8.25C7.58579 8.25 7.25 8.58579 7.25 9V9.01C7.25 9.42422 7.58579 9.76 8 9.76C8.41421 9.76 8.75 9.42422 8.75 9.01V9Z"
            fill="#303233" />
    </g>
    <defs>
        <clipPath id="clip0_6454_25">
            <rect width="16" height="16" fill="white" />
        </clipPath>
    </defs>
</svg>
