<svg width="16" height="16" viewBox="0 0 16 16" fill="none" xmlns="http://www.w3.org/2000/svg">
    <path fill-rule="evenodd" clip-rule="evenodd"
        d="M8 2C4.68629 2 2 4.68629 2 8C2 11.3137 4.68629 14 8 14C8.80081 14 9.45 13.3508 9.45 12.55V12.225C9.45 12.2121 9.45 12.1993 9.45 12.1868C9.44995 11.9218 9.44992 11.74 9.47096 11.5802C9.6157 10.4808 10.4808 9.6157 11.5802 9.47096C11.74 9.44992 11.9218 9.44995 12.1868 9.45C12.1993 9.45 12.2121 9.45 12.225 9.45H12.55C13.3508 9.45 14 8.80081 14 8C14 4.68629 11.3137 2 8 2ZM1 8C1 4.13401 4.13401 1 8 1C11.866 1 15 4.13401 15 8C15 9.3531 13.9031 10.45 12.55 10.45H12.225C11.9072 10.45 11.7968 10.4511 11.7107 10.4624C11.0601 10.5481 10.5481 11.0601 10.4624 11.7107C10.4511 11.7968 10.45 11.9072 10.45 12.225V12.55C10.45 13.9031 9.3531 15 8 15C4.13401 15 1 11.866 1 8ZM5.55 4.75C5.55 4.11487 6.06487 3.6 6.7 3.6C7.33513 3.6 7.85 4.11487 7.85 4.75C7.85 5.38513 7.33513 5.9 6.7 5.9C6.06487 5.9 5.55 5.38513 5.55 4.75ZM9.45 5.4C9.45 4.76487 9.96487 4.25 10.6 4.25C11.2351 4.25 11.75 4.76487 11.75 5.4C11.75 6.03513 11.2351 6.55 10.6 6.55C9.96487 6.55 9.45 6.03513 9.45 5.4ZM3.6 8C3.6 7.36487 4.11487 6.85 4.75 6.85C5.38513 6.85 5.9 7.36487 5.9 8C5.9 8.63513 5.38513 9.15 4.75 9.15C4.11487 9.15 3.6 8.63513 3.6 8Z"
        fill="#303233" />
</svg>
