<svg width="16" height="16" viewBox="0 0 16 16" fill="none" xmlns="http://www.w3.org/2000/svg">
    <path
        d="M13.75 8C13.75 6.20507 12.2949 4.75 10.5 4.75H5.5C3.70507 4.75 2.25 6.20507 2.25 8C2.25 9.79493 3.70507 11.25 5.5 11.25H10.5C12.2949 11.25 13.75 9.79493 13.75 8ZM11.75 8C11.75 7.30964 11.1904 6.75 10.5 6.75C9.80964 6.75 9.25 7.30964 9.25 8C9.25 8.69036 9.80964 9.25 10.5 9.25C11.1904 9.25 11.75 8.69036 11.75 8ZM13.25 8C13.25 9.51878 12.0188 10.75 10.5 10.75C8.98122 10.75 7.75 9.51878 7.75 8C7.75 6.48122 8.98122 5.25 10.5 5.25C12.0188 5.25 13.25 6.48122 13.25 8ZM15.25 8C15.25 10.6234 13.1234 12.75 10.5 12.75H5.5C2.87665 12.75 0.75 10.6234 0.75 8C0.75 5.37665 2.87665 3.25 5.5 3.25H10.5C13.1234 3.25 15.25 5.37665 15.25 8Z"
        fill="#303233" />
</svg>
