<svg width="16" height="16" viewBox="0 0 16 16" fill="none" xmlns="http://www.w3.org/2000/svg">
    <path fill-rule="evenodd" clip-rule="evenodd"
        d="M11.4681 3.04889C11.324 3.11876 11.1333 3.22228 10.8578 3.3725C9.76881 3.96613 8.21716 4.67016 6.8625 4.67016H4.62C4.06157 4.67016 3.68786 4.67074 3.40032 4.69424C3.12153 4.71701 2.99042 4.75753 2.90521 4.80095C2.67942 4.916 2.49584 5.09958 2.38079 5.32537C2.33737 5.41059 2.29685 5.54169 2.27408 5.82048C2.25058 6.10802 2.25 6.48173 2.25 7.04016L2.25 7.82016C2.25 8.13328 2.25041 8.33057 2.26063 8.48041C2.2704 8.62352 2.28655 8.6678 2.29187 8.68064C2.34769 8.8154 2.45476 8.92247 2.58953 8.97829C2.60236 8.98361 2.64665 8.99977 2.78975 9.00953C2.9396 9.01975 3.13688 9.02016 3.45 9.02016C3.86422 9.02016 4.2 9.35595 4.2 9.77016V12.5327C4.2 12.7014 4.20091 12.7314 4.20265 12.7491C4.22837 13.0102 4.43497 13.2168 4.69609 13.2425C4.71374 13.2442 4.74374 13.2452 4.9125 13.2452C5.08126 13.2452 5.11127 13.2442 5.12891 13.2425C5.39004 13.2168 5.59663 13.0102 5.62235 12.7491C5.62409 12.7314 5.625 12.7014 5.625 12.5327V9.77016C5.625 9.35595 5.96079 9.02016 6.375 9.02016H6.8625C8.21716 9.02016 9.76881 9.72419 10.8578 10.3178C11.1333 10.468 11.324 10.5716 11.4681 10.6414C11.4746 10.4949 11.475 10.2975 11.475 10.0131V3.67725C11.475 3.39284 11.4746 3.19545 11.4681 3.04889ZM10.9274 1.64585C11.1184 1.55967 11.4176 1.43788 11.7452 1.47801C12.1456 1.52705 12.4789 1.72499 12.7136 2.05307C12.9023 2.31678 12.941 2.62557 12.9575 2.833C12.975 3.05396 12.975 3.33372 12.975 3.64809V10.0422C12.975 10.3566 12.975 10.6364 12.9575 10.8573C12.941 11.0647 12.9023 11.3735 12.7136 11.6372C12.4789 11.9653 12.1456 12.1633 11.7452 12.2123C11.4176 12.2524 11.1184 12.1306 10.9274 12.0445C10.7174 11.9497 10.4595 11.8091 10.165 11.6486L10.1398 11.6348C9.15899 11.1002 8.02986 10.6158 7.125 10.5327V12.5327C7.125 12.5423 7.12501 12.5519 7.12501 12.5615C7.12507 12.6832 7.12513 12.7946 7.11513 12.8961C7.01927 13.8694 6.24923 14.6394 5.27594 14.7353C5.17443 14.7453 5.06309 14.7452 4.94135 14.7452C4.9318 14.7452 4.92218 14.7452 4.9125 14.7452C4.90282 14.7452 4.89321 14.7452 4.88366 14.7452C4.76191 14.7452 4.65057 14.7453 4.54907 14.7353C3.57577 14.6394 2.80573 13.8694 2.70987 12.8961C2.69988 12.7946 2.69993 12.6832 2.69999 12.5615C2.7 12.5519 2.7 12.5423 2.7 12.5327V10.5069C2.69587 10.5066 2.69175 10.5063 2.68765 10.5061C2.46816 10.4911 2.24157 10.4578 2.0155 10.3641C1.51319 10.156 1.11411 9.75697 0.90605 9.25466C0.812408 9.02859 0.779086 8.802 0.764111 8.58252C0.749981 8.37543 0.749991 8.12639 0.750001 7.84342L0.75 7.00985C0.749989 6.4896 0.74998 6.05423 0.779058 5.69833C0.809414 5.32678 0.875163 4.9763 1.04428 4.64439C1.30314 4.13635 1.71619 3.7233 2.22423 3.46444C2.55614 3.29532 2.90662 3.22958 3.27817 3.19922C3.63407 3.17014 4.06944 3.17015 4.58969 3.17016L6.8625 3.17016C7.8042 3.17016 9.06161 2.64324 10.1398 2.05548L10.165 2.04177C10.4595 1.8812 10.7174 1.74059 10.9274 1.64585ZM14.5 4.79516C14.9142 4.79516 15.25 5.13095 15.25 5.54516V8.14516C15.25 8.55937 14.9142 8.89516 14.5 8.89516C14.0858 8.89516 13.75 8.55937 13.75 8.14516V5.54516C13.75 5.13095 14.0858 4.79516 14.5 4.79516Z"
        fill="#303233" />
</svg>
