<svg width="24" height="24" viewBox="0 0 24 24" fill="none" xmlns="http://www.w3.org/2000/svg">
    <path fill-rule="evenodd" clip-rule="evenodd"
        d="M14.25 5.5C14.25 3.70507 15.7051 2.25 17.5 2.25C19.2949 2.25 20.75 3.70507 20.75 5.5C20.75 7.29493 19.2949 8.75 17.5 8.75C16.5581 8.75 15.7097 8.34928 15.1161 7.709L9.56862 10.8445C9.68637 11.2085 9.75 11.5968 9.75 12C9.75 12.3572 9.70005 12.7028 9.60676 13.0301L14.0602 15.3458C14.9136 14.0814 16.3597 13.25 18 13.25C20.6234 13.25 22.75 15.3766 22.75 18C22.75 20.6234 20.6234 22.75 18 22.75C15.3766 22.75 13.25 20.6234 13.25 18C13.25 17.5521 13.312 17.1186 13.4279 16.7077L8.91401 14.3605C8.22648 15.2082 7.17651 15.75 6 15.75C3.92893 15.75 2.25 14.0711 2.25 12C2.25 9.92893 3.92893 8.25 6 8.25C7.12941 8.25 8.1422 8.74928 8.82971 9.53917L14.3773 6.40359C14.2944 6.11673 14.25 5.81355 14.25 5.5Z"
        fill="#303233" />
</svg>
