<svg width="16" height="16" viewBox="0 0 16 16" fill="none" xmlns="http://www.w3.org/2000/svg">
    <path fill-rule="evenodd" clip-rule="evenodd"
        d="M7.99732 4C5.35006 4 2.9401 5.01114 1.13077 6.66914C0.927183 6.8557 0.610902 6.8419 0.424339 6.63831C0.237776 6.43472 0.25158 6.11844 0.45517 5.93187C2.44167 4.11152 5.09026 3 7.99732 3C10.9044 3 13.553 4.11152 15.5395 5.93187C15.7431 6.11844 15.7569 6.43472 15.5703 6.63831C15.3837 6.8419 15.0675 6.8557 14.8639 6.66914C13.0545 5.01114 10.6446 4 7.99732 4ZM7.99738 7.33333C6.2664 7.33333 4.68681 7.9763 3.48253 9.03717C3.27532 9.2197 2.95937 9.1997 2.77683 8.99249C2.5943 8.78528 2.6143 8.46933 2.82151 8.28679C4.20139 7.07124 6.01383 6.33333 7.99738 6.33333C9.98094 6.33333 11.7934 7.07124 13.1733 8.28679C13.3805 8.46933 13.4005 8.78528 13.2179 8.99249C13.0354 9.1997 12.7194 9.2197 12.5122 9.03717C11.308 7.9763 9.72837 7.33333 7.99738 7.33333ZM7.99732 10.6667C7.1706 10.6667 6.41205 10.9527 5.81326 11.4315C5.5976 11.604 5.28296 11.569 5.11049 11.3533C4.93802 11.1377 4.97304 10.823 5.1887 10.6506C5.95838 10.035 6.93552 9.66667 7.99732 9.66667C9.04327 9.66667 10.0071 10.0241 10.7714 10.6232C10.9887 10.7936 11.0268 11.1079 10.8565 11.3252C10.6861 11.5425 10.3718 11.5806 10.1545 11.4102C9.55997 10.9442 8.81176 10.6667 7.99732 10.6667ZM7.4974 13.5C7.4974 13.2239 7.72126 13 7.9974 13H8.00407C8.28021 13 8.50407 13.2239 8.50407 13.5C8.50407 13.7761 8.28021 14 8.00407 14H7.9974C7.72126 14 7.4974 13.7761 7.4974 13.5Z"
        fill="#303233" />
</svg>
