<svg width="16" height="16" viewBox="0 0 16 16" fill="none" xmlns="http://www.w3.org/2000/svg">
    <g clip-path="url(#clip0_53_6752)">
        <path
            d="M9.76424 6.10774C9.63346 5.89461 9.40505 5.76068 9.15519 5.75061C8.90533 5.74054 8.66689 5.85567 8.51938 6.05759L7.08761 8.01753L6.19352 7.36186C6.02009 7.23468 5.80041 7.18807 5.59028 7.23387C5.38015 7.27967 5.19979 7.41347 5.09502 7.60129L2.84502 11.6346C2.71545 11.8669 2.71858 12.1504 2.85326 12.3798C2.98795 12.6091 3.23403 12.75 3.5 12.75H12.5C12.7715 12.75 13.0219 12.6032 13.1545 12.3663C13.2871 12.1293 13.2813 11.8392 13.1392 11.6077L9.76424 6.10774Z"
            fill="#303233" />
        <path fill-rule="evenodd" clip-rule="evenodd"
            d="M3.25 0.75C1.86929 0.75 0.75 1.86929 0.75 3.25V12.75C0.75 14.1307 1.86929 15.25 3.25 15.25H12.75C14.1307 15.25 15.25 14.1307 15.25 12.75V3.25C15.25 1.86929 14.1307 0.75 12.75 0.75H3.25ZM2.25 3.25C2.25 2.69772 2.69772 2.25 3.25 2.25H12.75C13.3023 2.25 13.75 2.69772 13.75 3.25V12.75C13.75 13.3023 13.3023 13.75 12.75 13.75H3.25C2.69772 13.75 2.25 13.3023 2.25 12.75V3.25Z"
            fill="#303233" />
    </g>
    <defs>
        <clipPath id="clip0_53_6752">
            <rect width="16" height="16" fill="white" />
        </clipPath>
    </defs>
</svg>
