<svg width="16" height="16" viewBox="0 0 16 16" fill="none" xmlns="http://www.w3.org/2000/svg">
    <path fill-rule="evenodd" clip-rule="evenodd"
        d="M4.67927 3H8.32073C8.86319 3 9.29965 2.99999 9.65287 3.02782C10.0159 3.05642 10.334 3.11674 10.6285 3.26144C11.0973 3.4918 11.4819 3.86109 11.7241 4.31943C11.8774 4.60951 11.941 4.92283 11.971 5.27682C12 5.6196 12 6.04234 12 6.56371V6.81791L13.3465 5.51103C13.4627 5.39818 13.5728 5.29135 13.6682 5.21378C13.756 5.14246 13.9191 5.01909 14.1384 5.00235C14.3876 4.98331 14.6353 5.08065 14.8035 5.27177C14.9528 5.44144 14.9788 5.6494 14.9889 5.76038C15 5.88191 15 6.03391 15 6.19288V9.80708C15 9.96604 15 10.1181 14.9889 10.2396C14.9788 10.3506 14.9528 10.5586 14.8035 10.7282C14.6353 10.9193 14.3876 11.0167 14.1384 10.9976C13.9191 10.9809 13.756 10.8575 13.6682 10.7862C13.5727 10.7086 13.4627 10.6018 13.3465 10.489L12 9.18208V9.43628C12 9.95765 12 10.3804 11.971 10.7232C11.941 11.0772 11.8774 11.3905 11.7241 11.6806C11.4819 12.1389 11.0973 12.5082 10.6285 12.7386C10.4608 12.8209 10.2856 12.876 10.0979 12.9135C9.82714 12.9676 9.56377 12.7919 9.50968 12.5211C9.4556 12.2503 9.63128 11.9869 9.90207 11.9329C10.0211 11.9091 10.1112 11.8785 10.1875 11.841C10.4713 11.7016 10.6986 11.4808 10.8399 11.2134C10.9046 11.0909 10.95 10.928 10.9745 10.6388C10.9996 10.3432 11 9.96289 11 9.41429V6.58571C11 6.03711 10.9996 5.65684 10.9745 5.36125C10.95 5.07205 10.9046 4.90907 10.8399 4.78661C10.6986 4.51918 10.4713 4.2984 10.1875 4.15896C10.0542 4.09346 9.87831 4.04868 9.57432 4.02473C9.26502 4.00036 8.86801 4 8.3 4H4.7C4.13199 4 3.73498 4.00036 3.42568 4.02473C3.12169 4.04868 2.94582 4.09346 2.81251 4.15896C2.52871 4.2984 2.30138 4.51918 2.16007 4.78661C2.09536 4.90907 2.04997 5.07205 2.02546 5.36125C2.00042 5.65684 2 6.03711 2 6.58571V9.41429C2 9.96289 2.00042 10.3432 2.02546 10.6388C2.04997 10.928 2.09536 11.0909 2.16007 11.2134C2.30138 11.4808 2.52871 11.7016 2.81251 11.841C2.88875 11.8785 2.97891 11.9091 3.09793 11.9329C3.36873 11.9869 3.5444 12.2503 3.49032 12.5211C3.43623 12.7919 3.17286 12.9676 2.90207 12.9135C2.71441 12.876 2.53918 12.8209 2.37153 12.7386C1.90268 12.5082 1.51809 12.1389 1.27591 11.6806C1.12263 11.3905 1.05903 11.0772 1.02903 10.7232C0.99999 10.3804 0.999995 9.95766 1 9.43629V6.56371C0.999995 6.04234 0.99999 5.6196 1.02903 5.27682C1.05903 4.92283 1.12263 4.60951 1.27591 4.31943C1.51809 3.86109 1.90268 3.4918 2.37153 3.26144C2.66605 3.11674 2.98411 3.05642 3.34713 3.02782C3.70034 2.99999 4.13681 3 4.67927 3ZM12.2179 8L14 6.27029V9.7297L12.2179 8Z"
        fill="#303233" />
    <path
        d="M6.5 8C6.62796 8 6.75592 8.04882 6.85355 8.14645L8.85355 10.1464C9.04882 10.3417 9.04882 10.6583 8.85355 10.8536C8.65829 11.0488 8.34171 11.0488 8.14645 10.8536L7 9.70711V15C7 15.2761 6.77614 15.5 6.5 15.5C6.22386 15.5 6 15.2761 6 15V9.70711L4.85355 10.8536C4.65829 11.0488 4.34171 11.0488 4.14645 10.8536C3.95118 10.6583 3.95118 10.3417 4.14645 10.1464L6.14645 8.14645C6.24408 8.04882 6.37204 8 6.5 8Z"
        fill="#303233" />
</svg>
