<svg width="16" height="16" viewBox="0 0 16 16" fill="none" xmlns="http://www.w3.org/2000/svg">
    <path fill-rule="evenodd" clip-rule="evenodd"
        d="M8.32073 3H4.67927C4.13681 3 3.70035 2.99999 3.34713 3.02782C2.98411 3.05642 2.66605 3.11674 2.37153 3.26144C1.90268 3.4918 1.51809 3.86109 1.27591 4.31943C1.12263 4.60951 1.05903 4.92283 1.02903 5.27682C0.99999 5.6196 0.999995 6.04234 1 6.56371V9.43629C0.999995 9.95766 0.99999 10.3804 1.02903 10.7232C1.05903 11.0772 1.12263 11.3905 1.27591 11.6806C1.51809 12.1389 1.90268 12.5082 2.37153 12.7386C2.66605 12.8833 2.98411 12.9436 3.34713 12.9722C3.70035 13 4.13681 13 4.67929 13H8.32071C8.86319 13 9.29965 13 9.65287 12.9722C10.0159 12.9436 10.334 12.8833 10.6285 12.7386C11.0973 12.5082 11.4819 12.1389 11.7241 11.6806C11.8774 11.3905 11.941 11.0772 11.971 10.7232C12 10.3804 12 9.95765 12 9.43628V9.18208L13.3465 10.489C13.4627 10.6018 13.5727 10.7086 13.6682 10.7862C13.756 10.8575 13.9191 10.9809 14.1384 10.9976C14.3876 11.0167 14.6353 10.9193 14.8035 10.7282C14.9528 10.5586 14.9788 10.3506 14.9889 10.2396C15 10.1181 15 9.96608 15 9.80711V6.19291C15 6.03395 15 5.88191 14.9889 5.76038C14.9788 5.6494 14.9528 5.44144 14.8035 5.27177C14.6353 5.08065 14.3876 4.98331 14.1384 5.00235C13.9191 5.01909 13.756 5.14246 13.6682 5.21378C13.5728 5.29135 13.4627 5.39815 13.3465 5.511L12 6.81791V6.56372C12 6.04235 12 5.61961 11.971 5.27682C11.941 4.92283 11.8774 4.60951 11.7241 4.31943C11.4819 3.86109 11.0973 3.4918 10.6285 3.26144C10.334 3.11674 10.0159 3.05642 9.65287 3.02782C9.29966 2.99999 8.86319 3 8.32073 3Z"
        fill="#303233" />
</svg>
