<svg width="24" height="24" viewBox="0 0 24 24" fill="none" xmlns="http://www.w3.org/2000/svg">
    <path
        d="M11 8.75C10.3096 8.75 9.75 9.30964 9.75 10C9.75 10.6904 10.3096 11.25 11 11.25C11.6904 11.25 12.25 10.6904 12.25 10C12.25 9.30964 11.6904 8.75 11 8.75Z"
        fill="black" />
    <path fill-rule="evenodd" clip-rule="evenodd"
        d="M10.5304 1.46967C10.2375 1.17678 9.7626 1.17678 9.46971 1.46967L6.50002 4.43936L3.53033 1.46967C3.23744 1.17678 2.76256 1.17678 2.46967 1.46967C2.17678 1.76256 2.17678 2.23744 2.46967 2.53033L5.43936 5.50002L3.84113 7.09825C3.26635 7.67301 2.80276 8.1366 2.45802 8.54268C2.10307 8.9608 1.83028 9.36703 1.67621 9.84119C1.4315 10.5943 1.4315 11.4057 1.67621 12.1588C1.83028 12.633 2.10306 13.0392 2.45801 13.4573C2.80275 13.8634 3.26633 14.327 3.84109 14.9017L6.09827 17.1589C6.67304 17.7337 7.13663 18.1973 7.54272 18.542C7.96083 18.897 8.36706 19.1698 8.84122 19.3238C9.59438 19.5685 10.4057 19.5685 11.1588 19.3238C11.633 19.1698 12.0392 18.897 12.4573 18.542C12.8634 18.1973 13.327 17.7337 13.9018 17.1589L19.5304 11.5303C19.8233 11.2374 19.8233 10.7626 19.5304 10.4697L10.5304 1.46967ZM5.43936 5.50002L8.59848 8.65914C8.37652 9.05582 8.25 9.51313 8.25 10C8.25 11.5188 9.48122 12.75 11 12.75C12.5188 12.75 13.75 11.5188 13.75 10C13.75 8.48122 12.5188 7.25 11 7.25C10.5131 7.25 10.0558 7.37652 9.65914 7.59848L6.50002 4.43936L5.43936 5.50002Z"
        fill="black" />
    <path
        d="M20.1923 14.7115C20.0759 14.4321 19.8028 14.25 19.5 14.25C19.1972 14.25 18.9241 14.4321 18.8077 14.7115L16.3077 20.7115C16.2112 20.943 16.2369 21.2074 16.376 21.416C16.5151 21.6247 16.7492 21.75 17 21.75H22C22.2508 21.75 22.4849 21.6247 22.624 21.416C22.7631 21.2074 22.7888 20.943 22.6923 20.7115L20.1923 14.7115Z"
        fill="black" />
</svg>
