<svg width="16" height="16" viewBox="0 0 16 16" fill="none" xmlns="http://www.w3.org/2000/svg">
    <path
        d="M2 8C2 4.68629 4.68629 2 8 2C11.3137 2 14 4.68629 14 8C14 8.3375 13.9722 8.66813 13.9188 8.98982C13.8736 9.26223 14.0578 9.51971 14.3303 9.5649C14.6027 9.61009 14.8601 9.42589 14.9053 9.15347C14.9676 8.77791 15 8.39255 15 8C15 4.13401 11.866 1 8 1C4.13401 1 1 4.13401 1 8C1 11.866 4.13401 15 8 15C8.73079 15 9.43633 14.8878 10.0998 14.6795C10.3633 14.5967 10.5098 14.3161 10.427 14.0526C10.3443 13.7892 10.0636 13.6427 9.80017 13.7254C9.23252 13.9037 8.62798 14 8 14C4.68629 14 2 11.3137 2 8Z"
        fill="#303233" />
    <path
        d="M8.00195 4C8.2781 4 8.50195 4.22386 8.50195 4.5V7.75018L10.3002 9.10014C10.521 9.26592 10.5656 9.57934 10.3999 9.80018C10.2341 10.021 9.92066 10.0656 9.69982 9.89986L7.70177 8.3999C7.57597 8.30546 7.50195 8.15733 7.50195 8.00004V4.5C7.50195 4.22386 7.72581 4 8.00195 4Z"
        fill="#303233" />
    <path
        d="M12.2834 10.5494C12.4566 10.4661 12.6623 10.4895 12.8123 10.6096L15.3123 12.6096C15.431 12.7045 15.5 12.8481 15.5 13C15.5 13.1519 15.431 13.2956 15.3123 13.3904L12.8123 15.3904C12.6623 15.5105 12.4566 15.5339 12.2834 15.4507C12.1102 15.3674 12 15.1922 12 15V11C12 10.8078 12.1102 10.6326 12.2834 10.5494Z"
        fill="#303233" />
</svg>
