<svg width="24" height="24" viewBox="0 0 24 24" fill="none" xmlns="http://www.w3.org/2000/svg">
    <path fill-rule="evenodd" clip-rule="evenodd"
        d="M6.7587 2H17.2413C18.0463 1.99999 18.7106 1.99998 19.2518 2.0442C19.8139 2.09012 20.3306 2.18868 20.816 2.43598C21.5686 2.81947 22.1805 3.43139 22.564 4.18404C22.8113 4.66938 22.9099 5.18608 22.9558 5.74818C23 6.28937 23 6.95372 23 7.75868V16.2413C23 17.0463 23 17.7106 22.9558 18.2518C22.9099 18.8139 22.8113 19.3306 22.564 19.816C22.1805 20.5686 21.5686 21.1805 20.816 21.564C20.3306 21.8113 19.8139 21.9099 19.2518 21.9558C18.7106 22 18.0463 22 17.2413 22H6.75868C5.95372 22 5.28937 22 4.74818 21.9558C4.18608 21.9099 3.66938 21.8113 3.18404 21.564C2.43139 21.1805 1.81947 20.5686 1.43598 19.816C1.18868 19.3306 1.09012 18.8139 1.0442 18.2518C0.999979 17.7106 0.999988 17.0463 1 16.2413V7.75869C0.999988 6.95373 0.999979 6.28936 1.0442 5.74818C1.09012 5.18608 1.18868 4.66938 1.43598 4.18404C1.81947 3.43139 2.43139 2.81947 3.18404 2.43598C3.66938 2.18868 4.18608 2.09012 4.74818 2.0442C5.28936 1.99998 5.95375 1.99999 6.7587 2ZM5 13C5 12.4477 5.44772 12 6 12H13C13.5523 12 14 12.4477 14 13C14 13.5523 13.5523 14 13 14H6C5.44772 14 5 13.5523 5 13ZM10 17C10 16.4477 10.4477 16 11 16H18C18.5523 16 19 16.4477 19 17C19 17.5523 18.5523 18 18 18H11C10.4477 18 10 17.5523 10 17ZM16 12C15.4477 12 15 12.4477 15 13C15 13.5523 15.4477 14 16 14H18C18.5523 14 19 13.5523 19 13C19 12.4477 18.5523 12 18 12H16ZM5 17C5 16.4477 5.44772 16 6 16H8C8.55229 16 9 16.4477 9 17C9 17.5523 8.55229 18 8 18H6C5.44772 18 5 17.5523 5 17Z"
        fill="#303233" />
</svg>
