<svg width="16" height="16" viewBox="0 0 16 16" fill="none" xmlns="http://www.w3.org/2000/svg">
    <path fill-rule="evenodd" clip-rule="evenodd"
        d="M5.76942 0.75H10.2306C10.7821 0.74999 11.2411 0.749981 11.6157 0.780591C12.006 0.812481 12.3704 0.881295 12.7143 1.05654C13.2436 1.32619 13.6738 1.75645 13.9435 2.28565C14.1187 2.6296 14.1875 2.99397 14.2194 3.38428C14.25 3.75893 14.25 4.21787 14.25 4.7694V11.2306C14.25 11.7821 14.25 12.2411 14.2194 12.6157C14.1875 13.006 14.1187 13.3704 13.9435 13.7143C13.6738 14.2436 13.2436 14.6738 12.7143 14.9435C12.3704 15.1187 12.006 15.1875 11.6157 15.2194C11.2411 15.25 10.7821 15.25 10.2306 15.25H5.7694C5.21787 15.25 4.75893 15.25 4.38428 15.2194C3.99397 15.1875 3.6296 15.1187 3.28565 14.9435C2.75645 14.6738 2.32619 14.2436 2.05654 13.7143C1.88129 13.3704 1.81248 13.006 1.78059 12.6157C1.74998 12.2411 1.74999 11.7821 1.75 11.2306V4.76942C1.74999 4.21788 1.74998 3.75893 1.78059 3.38428C1.81248 2.99397 1.88129 2.6296 2.05654 2.28565C2.32619 1.75645 2.75645 1.32619 3.28565 1.05654C3.6296 0.881295 3.99397 0.812481 4.38428 0.780591C4.75893 0.749981 5.21788 0.74999 5.76942 0.75ZM4.50643 2.27561C4.20888 2.29992 4.06388 2.34351 3.96664 2.39305C3.71968 2.51889 3.51889 2.71968 3.39305 2.96664C3.34351 3.06388 3.29992 3.20888 3.27561 3.50643C3.25058 3.81273 3.25 4.21007 3.25 4.8V11.2C3.25 11.7899 3.25058 12.1873 3.27561 12.4936C3.29992 12.7911 3.34351 12.9361 3.39305 13.0334C3.51889 13.2803 3.71968 13.4811 3.96664 13.6069C4.06388 13.6565 4.20888 13.7001 4.50643 13.7244C4.81273 13.7494 5.21007 13.75 5.8 13.75H10.2C10.7899 13.75 11.1873 13.7494 11.4936 13.7244C11.7911 13.7001 11.9361 13.6565 12.0334 13.6069C12.2803 13.4811 12.4811 13.2803 12.6069 13.0334C12.6565 12.9361 12.7001 12.7911 12.7244 12.4936C12.7494 12.1873 12.75 11.7899 12.75 11.2V4.8C12.75 4.21007 12.7494 3.81273 12.7244 3.50643C12.7001 3.20888 12.6565 3.06388 12.6069 2.96664C12.4811 2.71968 12.2803 2.51889 12.0334 2.39305C11.9361 2.34351 11.7911 2.29992 11.4936 2.27561C11.1873 2.25058 10.7899 2.25 10.2 2.25H5.8C5.21007 2.25 4.81273 2.25058 4.50643 2.27561Z"
        fill="#303233" />
    <path fill-rule="evenodd" clip-rule="evenodd"
        d="M9 5.25C8.86193 5.25 8.75 5.36193 8.75 5.5V9.5C8.75 9.91422 8.41421 10.25 8 10.25C7.58579 10.25 7.25 9.91422 7.25 9.5V5.5C7.25 4.5335 8.0335 3.75 9 3.75C9.9665 3.75 10.75 4.5335 10.75 5.5V9.5C10.75 11.0188 9.51878 12.25 8 12.25C6.48122 12.25 5.25 11.0188 5.25 9.5V6.5C5.25 6.08579 5.58579 5.75 6 5.75C6.41421 5.75 6.75 6.08579 6.75 6.5V9.5C6.75 10.1904 7.30964 10.75 8 10.75C8.69036 10.75 9.25 10.1904 9.25 9.5V5.5C9.25 5.36193 9.13807 5.25 9 5.25Z"
        fill="#303233" />
</svg>
