<svg width="16" height="16" viewBox="0 0 16 16" fill="none" xmlns="http://www.w3.org/2000/svg">
    <path fill-rule="evenodd" clip-rule="evenodd"
        d="M8.32128 3H4.67983C4.13736 3 3.7009 2.99999 3.34769 3.02782C2.98466 3.05642 2.6666 3.11674 2.37209 3.26144C1.90324 3.4918 1.51865 3.86109 1.27646 4.31943C1.0964 4.66019 1.03911 5.03584 1.01631 5.47403C1.00197 5.7498 1.21389 5.98498 1.48966 5.99933C1.76543 6.01367 2.00062 5.80174 2.01496 5.52597C2.03548 5.13155 2.08368 4.93222 2.16062 4.78661C2.30193 4.51918 2.52926 4.2984 2.81306 4.15896C2.94637 4.09346 3.12225 4.04868 3.42623 4.02473C3.73554 4.00036 4.13254 4 4.70056 4H8.30056C8.86857 4 9.26557 4.00036 9.57488 4.02473C9.87886 4.04868 10.0547 4.09346 10.188 4.15896C10.4718 4.2984 10.6992 4.51918 10.8405 4.78661C10.9052 4.90907 10.9506 5.07205 10.9751 5.36125C11.0001 5.65684 11.0006 6.03711 11.0006 6.58571V7.97641C11.0002 7.98425 11 7.99211 11 8C11 8.00788 11.0002 8.01574 11.0006 8.02358V9.41429C11.0006 9.96289 11.0001 10.3432 10.9751 10.6388C10.9506 10.928 10.9052 11.0909 10.8405 11.2134C10.6992 11.4808 10.4718 11.7016 10.188 11.841C10.0631 11.9024 9.90025 11.9458 9.62897 11.9707C9.35241 11.996 8.99926 11.9996 8.50018 12C8.22404 12.0002 8.00035 12.2242 8.00056 12.5003C8.00076 12.7765 8.22479 13.0002 8.50093 13C8.9902 12.9996 9.39026 12.9967 9.72021 12.9665C10.0554 12.9358 10.3524 12.8745 10.629 12.7386C11.0979 12.5082 11.4825 12.1389 11.7246 11.6806C11.8779 11.3905 11.9415 11.0772 11.9715 10.7232C12.0006 10.3804 12.0006 9.95765 12.0006 9.43628V9.18262L13.3465 10.489C13.4627 10.6018 13.5727 10.7086 13.6682 10.7862C13.756 10.8575 13.9191 10.9809 14.1384 10.9976C14.3876 11.0167 14.6353 10.9193 14.8035 10.7282C14.9528 10.5586 14.9788 10.3506 14.9889 10.2396C15 10.1181 15 9.96608 15 9.80711V6.19291C15 6.03395 15 5.88191 14.9889 5.76038C14.9788 5.6494 14.9528 5.44144 14.8035 5.27177C14.6353 5.08065 14.3876 4.98331 14.1384 5.00235C13.9191 5.01909 13.756 5.14246 13.6682 5.21378C13.5728 5.29133 13.4628 5.39811 13.3466 5.51094L12.0006 6.81737V6.56372C12.0006 6.04235 12.0006 5.61961 11.9715 5.27682C11.9415 4.92283 11.8779 4.60951 11.7246 4.31943C11.4825 3.86109 11.0979 3.4918 10.629 3.26144C10.3345 3.11674 10.0164 3.05642 9.65342 3.02782C9.30021 2.99999 8.86375 3 8.32128 3ZM14 6.27029L12.2179 8L14 9.7297V6.27029Z"
        fill="#303233" />
    <path
        d="M6.46206 7.80861C6.43802 7.75051 6.40256 7.69602 6.35567 7.64857L6.35143 7.64433C6.26112 7.55509 6.13699 7.5 6 7.5H1.5C1.22386 7.5 1 7.72386 1 8C1 8.27614 1.22386 8.5 1.5 8.5H4.79289L1.14645 12.1464C0.951184 12.3417 0.951184 12.6583 1.14645 12.8536C1.34171 13.0488 1.65829 13.0488 1.85355 12.8536L5.5 9.20711V12.5C5.5 12.7761 5.72386 13 6 13C6.27614 13 6.5 12.7761 6.5 12.5V8.00035L6.49999 7.997C6.49961 7.93287 6.48697 7.8688 6.46206 7.80861Z"
        fill="#303233" />
</svg>
