<svg width="16" height="16" viewBox="0 0 16 16" fill="none" xmlns="http://www.w3.org/2000/svg">
    <g clip-path="url(#clip0_8284_37)">
        <path fill-rule="evenodd" clip-rule="evenodd"
            d="M0.75 1.5C0.75 1.08579 1.08579 0.75 1.5 0.75H14.5C14.9142 0.75 15.25 1.08579 15.25 1.5V11.5C15.25 13.5711 13.5711 15.25 11.5 15.25H4.5C2.42893 15.25 0.75 13.5711 0.75 11.5V1.5ZM2.25 2.25V11.5C2.25 12.7426 3.25736 13.75 4.5 13.75H11.5C12.7426 13.75 13.75 12.7426 13.75 11.5V2.25H2.25Z"
            fill="#303233" />
        <path
            d="M8 8C8.85517 8 9.54845 7.32843 9.54845 6.5C9.54845 5.67157 8.85517 5 8 5C7.14483 5 6.45156 5.67157 6.45156 6.5C6.45156 7.32843 7.14483 8 8 8Z"
            fill="#303233" />
        <path
            d="M10.6346 11C10.8673 11 11.0493 10.8013 10.988 10.5837C10.6296 9.31077 9.42762 8.375 8 8.375C6.57239 8.375 5.37037 9.31077 5.01199 10.5837C4.95074 10.8013 5.13263 11 5.36545 11H10.6346Z"
            fill="#303233" />
    </g>
    <defs>
        <clipPath id="clip0_8284_37">
            <rect width="16" height="16" fill="white" />
        </clipPath>
    </defs>
</svg>
