<svg width="16" height="16" viewBox="0 0 16 16" fill="none" xmlns="http://www.w3.org/2000/svg">
    <path fill-rule="evenodd" clip-rule="evenodd"
        d="M2.03396 13.372C2.03673 13.3658 2.0395 13.3597 2.04228 13.3535L7.06572 2.19025C7.13568 2.03472 7.20147 1.88848 7.26465 1.77623C7.3243 1.67023 7.43255 1.49613 7.63042 1.3983C7.8632 1.2832 8.13632 1.28321 8.3691 1.3983C8.56697 1.49613 8.67522 1.67023 8.73487 1.77622C8.79805 1.88849 8.86384 2.03474 8.93382 2.19028L13.9639 13.3682C14.0357 13.5278 14.1029 13.677 14.1458 13.8009C14.1859 13.9166 14.246 14.1167 14.1858 14.3324C14.1154 14.5849 13.9302 14.7895 13.686 14.8848C13.4774 14.9662 13.2723 14.9263 13.1531 14.8979C13.0256 14.8676 12.8704 14.8156 12.7044 14.76L8.03537 13.1969L8.02483 13.1934L8.01428 13.1969L3.31011 14.7583C3.30368 14.7604 3.29727 14.7625 3.29088 14.7647C3.12528 14.8196 2.97033 14.8711 2.84302 14.901C2.7239 14.9291 2.51918 14.9683 2.31103 14.8866C2.06729 14.7911 1.88265 14.5865 1.81246 14.3342C1.75253 14.1188 1.81247 13.9192 1.85252 13.8036C1.89533 13.68 1.96234 13.5311 2.03396 13.372ZM2.92312 13.833C2.94578 13.8255 2.96974 13.8176 2.9951 13.8092L7.49976 12.314V8.99969C7.49976 8.72355 7.72362 8.49969 7.99976 8.49969C8.2759 8.49969 8.49976 8.72355 8.49976 8.99969V12.2978L13.0026 13.8053C13.028 13.8138 13.0521 13.8218 13.0748 13.8294C13.065 13.8075 13.0546 13.7844 13.0436 13.76L8.03016 2.619C8.01945 2.59522 8.00934 2.57277 7.99976 2.55155C7.99018 2.57277 7.98007 2.59522 7.96936 2.619L2.9542 13.7639C2.94324 13.7882 2.93289 13.8113 2.92312 13.833Z"
        fill="#303233" />
</svg>
