<svg width="24" height="24" viewBox="0 0 24 24" fill="none" xmlns="http://www.w3.org/2000/svg">
    <path fill-rule="evenodd" clip-rule="evenodd"
        d="M0.25 5C0.25 3.48122 1.48122 2.25 3 2.25H9.17157C9.6357 2.25 10.0808 2.43437 10.409 2.76256L11.2374 3.59099C11.6594 4.01295 12.2317 4.25 12.8284 4.25H17C18.2588 4.25 19.32 5.09575 19.6465 6.25H20.7842C22.4763 6.25 23.767 7.76362 23.4996 9.43447L21.8996 19.4345C21.6862 20.7686 20.5352 21.75 19.1842 21.75H3C1.48122 21.75 0.25 20.5188 0.25 19V5ZM3.21611 20.25C2.44697 20.25 1.86015 19.562 1.98166 18.8025L3.58166 8.80251C3.67869 8.1961 4.20185 7.75 4.81597 7.75H20.7842C21.5533 7.75 22.1401 8.43801 22.0186 9.19749L20.4186 19.1975C20.3216 19.8039 19.7984 20.25 19.1843 20.25H3.21611Z"
        fill="#303233" />
</svg>
