<svg width="24" height="24" viewBox="0 0 24 24" fill="none" xmlns="http://www.w3.org/2000/svg">
    <path
        d="M10 15C12.7614 15 15 12.7614 15 10C15 7.23858 12.7614 5 10 5C7.23858 5 5 7.23858 5 10C5 12.7614 7.23858 15 10 15Z"
        fill="#303233" />
    <path fill-rule="evenodd" clip-rule="evenodd"
        d="M10 2C5.58172 2 2 5.58172 2 10C2 14.4183 5.58172 18 10 18C11.8487 18 13.551 17.3729 14.9057 16.3198L20.2929 21.7071C20.6834 22.0976 21.3166 22.0976 21.7071 21.7071C22.0976 21.3166 22.0976 20.6834 21.7071 20.2929L16.3199 14.9056C17.3729 13.5509 18 11.8487 18 10C18 5.58172 14.4183 2 10 2ZM4 10C4 6.68629 6.68629 4 10 4C13.3137 4 16 6.68629 16 10C16 13.3137 13.3137 16 10 16C6.68629 16 4 13.3137 4 10Z"
        fill="#303233" />
</svg>
