<svg width="16" height="16" viewBox="0 0 16 16" fill="none" xmlns="http://www.w3.org/2000/svg">
    <path
        d="M9.5 2C9.5 1.72386 9.72386 1.5 10 1.5H12.6667C13.1529 1.5 13.6192 1.69315 13.963 2.03697C14.3068 2.38079 14.5 2.8471 14.5 3.33333V12.6667C14.5 13.1529 14.3068 13.6192 13.963 13.963C13.6192 14.3068 13.1529 14.5 12.6667 14.5H10C9.72386 14.5 9.5 14.2761 9.5 14C9.5 13.7239 9.72386 13.5 10 13.5H12.6667C12.8877 13.5 13.0996 13.4122 13.2559 13.2559C13.4122 13.0996 13.5 12.8877 13.5 12.6667V3.33333C13.5 3.11232 13.4122 2.90036 13.2559 2.74408C13.0996 2.5878 12.8877 2.5 12.6667 2.5H10C9.72386 2.5 9.5 2.27614 9.5 2Z"
        fill="#303233" />
    <path
        d="M6.14645 4.14661C6.34171 3.95134 6.65829 3.95134 6.85355 4.14661L10.3459 7.63895C10.4409 7.72996 10.5 7.85808 10.5 8C10.5 8.14199 10.4408 8.27016 10.3458 8.36118L6.85355 11.8534C6.65829 12.0486 6.34171 12.0486 6.14645 11.8534C5.95118 11.6581 5.95118 11.3415 6.14645 11.1463L8.79273 8.5H2C1.72386 8.5 1.5 8.27614 1.5 8C1.5 7.72386 1.72386 7.5 2 7.5H8.79273L6.14645 4.85371C5.95118 4.65845 5.95118 4.34187 6.14645 4.14661Z"
        fill="#303233" />
</svg>
