<svg width="16" height="16" viewBox="0 0 16 16" fill="none" xmlns="http://www.w3.org/2000/svg">
    <path fill-rule="evenodd" clip-rule="evenodd"
        d="M7.35182 1.79159C7.55523 1.88014 7.67596 2.09213 7.64835 2.31226L7.06663 6.95003L11.2759 6.95003C11.4364 6.95001 11.5892 6.94999 11.7121 6.96108C11.8295 6.97168 12.0255 6.99834 12.1925 7.13283C12.3901 7.29195 12.5038 7.53327 12.4999 7.78749C12.4967 8.00259 12.3912 8.17049 12.3241 8.2673C12.2539 8.3686 12.156 8.48563 12.0532 8.60847L6.23133 15.5708C6.08902 15.741 5.85158 15.797 5.64818 15.7085C5.44477 15.6199 5.32404 15.4079 5.35165 15.1878L5.93337 10.55L1.72415 10.55C1.56359 10.55 1.41084 10.5501 1.28795 10.539C1.17047 10.5284 0.974535 10.5017 0.807534 10.3672C0.609944 10.2081 0.496248 9.96678 0.500095 9.71256C0.503349 9.49747 0.608827 9.32957 0.675923 9.23276C0.746139 9.13144 0.844031 9.01441 0.946786 8.89155L6.76867 1.92929C6.91098 1.7591 7.14842 1.70303 7.35182 1.79159ZM6.44438 3.87599L1.7266 9.51787C1.71734 9.52895 1.70839 9.53966 1.69974 9.55001C1.71394 9.55002 1.72864 9.55003 1.74389 9.55003H6.5C6.64345 9.55003 6.77999 9.61164 6.87491 9.71921C6.96982 9.82677 7.01397 9.96992 6.99611 10.1123L6.55562 13.6241L11.2734 7.98218C11.2827 7.9711 11.2916 7.9604 11.3003 7.95004C11.2861 7.95003 11.2714 7.95003 11.2561 7.95003H6.5C6.35655 7.95003 6.22001 7.88841 6.12509 7.78085C6.03018 7.67329 5.98603 7.53014 6.00389 7.3878L6.44438 3.87599Z"
        fill="#303233" />
    <path fill-rule="evenodd" clip-rule="evenodd"
        d="M9.94199 4.16666L9.83007 5.06202C9.79582 5.33603 9.54592 5.53039 9.27191 5.49614C8.9979 5.46189 8.80354 5.21199 8.83779 4.93798L9.19309 2.09564C9.30703 1.18407 10.0819 0.5 11.0006 0.5C11.9193 0.5 12.6942 1.18407 12.8081 2.09564L13.1634 4.93798C13.1977 5.21199 13.0033 5.46189 12.7293 5.49614C12.4553 5.53039 12.2054 5.33603 12.1711 5.06202L12.0592 4.16666H9.94199ZM10.1854 2.21968C10.2368 1.80853 10.5863 1.5 11.0006 1.5C11.4149 1.5 11.7644 1.80853 11.8158 2.21968L11.9342 3.16666H10.067L10.1854 2.21968Z"
        fill="#303233" />
</svg>
