<svg width="24" height="24" viewBox="0 0 24 24" fill="none" xmlns="http://www.w3.org/2000/svg">
    <path fill-rule="evenodd" clip-rule="evenodd"
        d="M12 1.25C12.4142 1.25 12.75 1.58579 12.75 2V3C12.75 3.41421 12.4142 3.75 12 3.75C11.5858 3.75 11.25 3.41421 11.25 3V2C11.25 1.58579 11.5858 1.25 12 1.25ZM4.36957 4.36957C4.66247 4.07668 5.13734 4.07668 5.43023 4.36957L6.03033 4.96967C6.32322 5.26256 6.32322 5.73744 6.03033 6.03033C5.73744 6.32322 5.26256 6.32322 4.96967 6.03033L4.36957 5.43023C4.07668 5.13734 4.07668 4.66247 4.36957 4.36957ZM19.6306 4.36964C19.9235 4.66257 19.9234 5.13744 19.6305 5.4303L19.0303 6.0304C18.7373 6.32325 18.2625 6.32319 17.9696 6.03026C17.6767 5.73733 17.6768 5.26246 17.9697 4.9696L18.57 4.36951C18.8629 4.07665 19.3378 4.07671 19.6306 4.36964ZM5.25 12C5.25 8.27208 8.27208 5.25 12 5.25C15.7279 5.25 18.75 8.27208 18.75 12C18.75 14.7485 17.1072 17.1134 14.75 18.1663V20C14.75 21.5188 13.5188 22.75 12 22.75C10.4812 22.75 9.25 21.5188 9.25 20V18.1663C6.89277 17.1134 5.25 14.7485 5.25 12ZM10.75 18.6345V20C10.75 20.6904 11.3096 21.25 12 21.25C12.6904 21.25 13.25 20.6904 13.25 20V18.6345C12.8449 18.7103 12.4271 18.75 12 18.75C11.5729 18.75 11.1551 18.7103 10.75 18.6345ZM1.25 12C1.25 11.5858 1.58579 11.25 2 11.25H3C3.41421 11.25 3.75 11.5858 3.75 12C3.75 12.4142 3.41421 12.75 3 12.75H2C1.58579 12.75 1.25 12.4142 1.25 12ZM20.25 12C20.25 11.5858 20.5858 11.25 21 11.25H22C22.4142 11.25 22.75 11.5858 22.75 12C22.75 12.4142 22.4142 12.75 22 12.75H21C20.5858 12.75 20.25 12.4142 20.25 12Z"
        fill="#303233" />
</svg>
