<svg width="24" height="24" viewBox="0 0 24 24" fill="none" xmlns="http://www.w3.org/2000/svg">
    <path
        d="M12 18C11.4477 18 11 17.5523 11 17V13.4142L9.70711 14.7071C9.31658 15.0976 8.68342 15.0976 8.29289 14.7071C7.90237 14.3166 7.90237 13.6834 8.29289 13.2929L11.2929 10.2929C11.6834 9.90237 12.3166 9.90237 12.7071 10.2929L15.7071 13.2929C16.0976 13.6834 16.0976 14.3166 15.7071 14.7071C15.3166 15.0976 14.6834 15.0976 14.2929 14.7071L13 13.4142V17C13 17.5523 12.5523 18 12 18Z"
        fill="#303233" />
    <path fill-rule="evenodd" clip-rule="evenodd"
        d="M1 5C1 3.34315 2.34315 2 4 2H20C21.6569 2 23 3.34315 23 5C23 6.30622 22.1652 7.41746 21 7.82929V16.2413C21 17.0463 21 17.7106 20.9558 18.2518C20.9099 18.8139 20.8113 19.3306 20.564 19.816C20.1805 20.5686 19.5686 21.1805 18.816 21.564C18.3306 21.8113 17.8139 21.9099 17.2518 21.9558C16.7106 22 16.0463 22 15.2413 22H8.75872C7.95376 22 7.28936 22 6.74817 21.9558C6.18608 21.9099 5.66937 21.8113 5.18404 21.564C4.43139 21.1805 3.81947 20.5686 3.43597 19.816C3.18868 19.3306 3.09012 18.8139 3.04419 18.2518C2.99998 17.7106 2.99999 17.0463 3 16.2413L3 7.82929C1.83481 7.41746 1 6.30622 1 5ZM5 8H19V16.2C19 17.0566 18.9992 17.6389 18.9624 18.089C18.9266 18.5274 18.8617 18.7516 18.782 18.908C18.5903 19.2843 18.2843 19.5903 17.908 19.782C17.7516 19.8617 17.5274 19.9266 17.089 19.9625C16.6389 19.9992 16.0566 20 15.2 20H8.8C7.94342 20 7.36113 19.9992 6.91104 19.9625C6.47262 19.9266 6.24842 19.8617 6.09202 19.782C5.7157 19.5903 5.40973 19.2843 5.21799 18.908C5.1383 18.7516 5.07337 18.5274 5.03755 18.089C5.00078 17.6389 5 17.0566 5 16.2V8ZM4 4C3.44772 4 3 4.44772 3 5C3 5.55228 3.44772 6 4 6H20C20.5523 6 21 5.55228 21 5C21 4.44772 20.5523 4 20 4H4Z"
        fill="#303233" />
</svg>
