<svg width="24" height="24" viewBox="0 0 24 24" fill="none" xmlns="http://www.w3.org/2000/svg">
    <path fill-rule="evenodd" clip-rule="evenodd"
        d="M6.7587 4H12.2413C13.0463 3.99999 13.7106 3.99998 14.2518 4.04419C14.8139 4.09012 15.3306 4.18868 15.816 4.43597C16.5686 4.81947 17.1805 5.43139 17.564 6.18404C17.8113 6.66937 17.9099 7.18608 17.9558 7.74817C17.9968 8.25013 17.9998 8.85803 18 9.5858L19.9536 7.63221C20.1447 7.44101 20.3326 7.25308 20.4973 7.11519C20.6442 6.99217 20.9537 6.74547 21.3823 6.71173C21.861 6.67406 22.3288 6.86782 22.6406 7.23294C22.9198 7.55988 22.9642 7.95314 22.9811 8.14403C23.0001 8.35799 23 8.62373 23 8.8941V15.1059C23 15.3763 23.0001 15.642 22.9811 15.856C22.9642 16.0469 22.9198 16.4401 22.6406 16.7671C22.3288 17.1322 21.861 17.3259 21.3823 17.2883C20.9537 17.2545 20.6442 17.0078 20.4973 16.8848C20.3326 16.7469 20.1447 16.559 19.9536 16.3678L18 14.4142C17.9998 15.142 17.9968 15.7499 17.9558 16.2518C17.9099 16.8139 17.8113 17.3306 17.564 17.816C17.1805 18.5686 16.5686 19.1805 15.816 19.564C15.3306 19.8113 14.8139 19.9099 14.2518 19.9558C13.7106 20 13.0463 20 12.2413 20H6.75872C5.95374 20 5.28938 20 4.74817 19.9558C4.18608 19.9099 3.66937 19.8113 3.18404 19.564C2.43139 19.1805 1.81947 18.5686 1.43597 17.816C1.18868 17.3306 1.09012 16.8139 1.04419 16.2518C0.999977 15.7106 0.999988 15.0463 1 14.2413V9.7587C0.999988 8.95373 0.999977 8.28937 1.04419 7.74818C1.09012 7.18608 1.18868 6.66937 1.43597 6.18404C1.81947 5.43139 2.43139 4.81947 3.18404 4.43597C3.66937 4.18868 4.18608 4.09012 4.74817 4.04419C5.28937 3.99998 5.95373 3.99999 6.7587 4Z"
        fill="#303233" />
</svg>
