<svg width="24" height="24" viewBox="0 0 24 24" fill="none" xmlns="http://www.w3.org/2000/svg">
    <path
        d="M9 12.25C8.58579 12.25 8.25 12.5858 8.25 13C8.25 13.4142 8.58679 13.751 9.001 13.751C9.41521 13.751 9.751 13.4142 9.751 13C9.751 12.5858 9.41421 12.25 9 12.25Z"
        fill="#303233" />
    <path
        d="M12 12.25C11.5858 12.25 11.25 12.5858 11.25 13C11.25 13.4142 11.5868 13.751 12.001 13.751C12.4152 13.751 12.751 13.4142 12.751 13C12.751 12.5858 12.4142 12.25 12 12.25Z"
        fill="#303233" />
    <path
        d="M12 15.25C11.5858 15.25 11.25 15.5858 11.25 16C11.25 16.4142 11.5858 16.751 12 16.751C12.4142 16.751 12.751 16.4152 12.751 16.001C12.751 15.5868 12.4142 15.25 12 15.25Z"
        fill="#303233" />
    <path
        d="M18 12.25C17.5858 12.25 17.25 12.5858 17.25 13C17.25 13.4142 17.5858 13.751 18 13.751H18.001C18.4152 13.751 18.751 13.4142 18.751 13C18.751 12.5858 18.4152 12.25 18.001 12.25H18Z"
        fill="#303233" />
    <path
        d="M18 15.25C17.5858 15.25 17.25 15.5858 17.25 16C17.25 16.4142 17.5858 16.751 18 16.751H18.001C18.4152 16.751 18.751 16.4152 18.751 16.001C18.751 15.5868 18.4152 15.25 18.001 15.25H18Z"
        fill="#303233" />
    <path
        d="M9 15.25C8.58579 15.25 8.25 15.5858 8.25 16C8.25 16.4142 8.58679 16.751 9.001 16.751C9.41521 16.751 9.751 16.4142 9.751 16C9.751 15.5858 9.41421 15.25 9 15.25Z"
        fill="#303233" />
    <path
        d="M6 15.25C5.58579 15.25 5.25 15.5858 5.25 16C5.25 16.4142 5.58579 16.751 6 16.751C6.41421 16.751 6.751 16.4152 6.751 16.001C6.751 15.5868 6.41421 15.25 6 15.25Z"
        fill="#303233" />
    <path
        d="M12 18.25C11.5858 18.25 11.25 18.5858 11.25 19C11.25 19.4142 11.5868 19.751 12.001 19.751C12.4152 19.751 12.751 19.4142 12.751 19C12.751 18.5858 12.4142 18.25 12 18.25Z"
        fill="#303233" />
    <path
        d="M15 12.25C14.5858 12.25 14.25 12.5858 14.25 13C14.25 13.4142 14.5858 13.751 15 13.751H15.001C15.4152 13.751 15.751 13.4152 15.751 13.001C15.751 12.5868 15.4152 12.25 15.001 12.25H15Z"
        fill="#303233" />
    <path
        d="M15 15.25C14.5858 15.25 14.25 15.5858 14.25 16C14.25 16.4142 14.5858 16.751 15 16.751H15.001C15.4152 16.751 15.751 16.4142 15.751 16C15.751 15.5858 15.4152 15.25 15.001 15.25H15Z"
        fill="#303233" />
    <path
        d="M15 18.25C14.5858 18.25 14.25 18.5858 14.25 19C14.25 19.4142 14.5858 19.751 15 19.751H15.001C15.4152 19.751 15.751 19.4152 15.751 19.001C15.751 18.5868 15.4152 18.25 15.001 18.25H15Z"
        fill="#303233" />
    <path
        d="M9 18.25C8.58579 18.25 8.25 18.5858 8.25 19C8.25 19.4142 8.58679 19.751 9.001 19.751C9.41521 19.751 9.751 19.4142 9.751 19C9.751 18.5858 9.41421 18.25 9 18.25Z"
        fill="#303233" />
    <path
        d="M6 18.25C5.58579 18.25 5.25 18.5858 5.25 19C5.25 19.4142 5.58579 19.751 6 19.751C6.41421 19.751 6.751 19.4152 6.751 19.001C6.751 18.5868 6.41421 18.25 6 18.25Z"
        fill="#303233" />
    <path fill-rule="evenodd" clip-rule="evenodd"
        d="M16.75 2C16.75 1.58579 16.4142 1.25 16 1.25C15.5858 1.25 15.25 1.58579 15.25 2V3.25H8.75V2C8.75 1.58579 8.41421 1.25 8 1.25C7.58579 1.25 7.25 1.58579 7.25 2V3.25H5C3.48122 3.25 2.25 4.48122 2.25 6V20C2.25 21.5188 3.48122 22.75 5 22.75H19C20.5188 22.75 21.75 21.5188 21.75 20V6C21.75 4.48122 20.5188 3.25 19 3.25H16.75V2ZM20.25 9.25V6C20.25 5.30964 19.6904 4.75 19 4.75H16.75V6C16.75 6.41421 16.4142 6.75 16 6.75C15.5858 6.75 15.25 6.41421 15.25 6V4.75H8.75V6C8.75 6.41421 8.41421 6.75 8 6.75C7.58579 6.75 7.25 6.41421 7.25 6V4.75H5C4.30964 4.75 3.75 5.30964 3.75 6V9.25H20.25ZM3.75 10.75V20C3.75 20.6904 4.30964 21.25 5 21.25H19C19.6904 21.25 20.25 20.6904 20.25 20V10.75H3.75Z"
        fill="#303233" />
</svg>
