<svg width="24" height="24" viewBox="0 0 24 24" fill="none" xmlns="http://www.w3.org/2000/svg">
    <path fill-rule="evenodd" clip-rule="evenodd"
        d="M4 2C2.34315 2 1 3.34315 1 5V19C1 20.6569 2.34315 22 4 22H20C21.6569 22 23 20.6569 23 19V7C23 5.34315 21.6569 4 20 4H13.8284C13.298 4 12.7893 3.78929 12.4142 3.41421L11.5858 2.58579C11.2107 2.21071 10.702 2 10.1716 2H4ZM4 6C3.44772 6 3 6.44772 3 7V19C3 19.5523 3.44772 20 4 20H20C20.5523 20 21 19.5523 21 19V7C21 6.44772 20.5523 6 20 6H4Z"
        fill="#303233" />
</svg>
