<svg width="16" height="16" viewBox="0 0 16 16" fill="none" xmlns="http://www.w3.org/2000/svg">
    <path fill-rule="evenodd" clip-rule="evenodd"
        d="M8.00006 1.75C12.035 1.75 15.25 4.58498 15.25 7.99995C15.25 11.4139 12.036 14.2489 8.00106 14.2499C6.94907 14.2529 5.90708 14.0549 4.93908 13.6669C4.88108 13.6439 4.81908 13.6319 4.75708 13.6429L1.64011 14.2369C1.37211 14.2879 1.09711 14.1889 0.922115 13.9779C0.748117 13.7679 0.702117 13.4789 0.802116 13.2249L1.60511 11.1869C1.64711 11.0799 1.61211 10.9629 1.55311 10.8639C1.03811 10.0029 0.750117 9.02994 0.750117 7.99995C0.750117 4.58498 3.96509 1.75 8.00006 1.75ZM11.1972 6.53033C11.4901 6.23744 11.4901 5.76256 11.1972 5.46967C10.9043 5.17678 10.4294 5.17678 10.1365 5.46967L7.00016 8.60601L5.86383 7.46967C5.57093 7.17678 5.09606 7.17678 4.80317 7.46967C4.51027 7.76256 4.51027 8.23744 4.80317 8.53033L6.46983 10.197C6.61049 10.3376 6.80125 10.4167 7.00016 10.4167C7.19908 10.4167 7.38984 10.3376 7.53049 10.197L11.1972 6.53033Z"
        fill="#303233" />
</svg>
