<svg width="24" height="24" viewBox="0 0 24 24" fill="none" xmlns="http://www.w3.org/2000/svg">
    <path
        d="M1.25 5C1.25 3.48122 2.48122 2.25 4 2.25H10.1716C10.6357 2.25 11.0808 2.43437 11.409 2.76256L12.2374 3.59099C12.6594 4.01295 13.2317 4.25 13.8284 4.25H20C21.5188 4.25 22.75 5.48122 22.75 7V19C22.75 20.5188 21.5188 21.75 20 21.75H12C11.5858 21.75 11.25 21.4142 11.25 21C11.25 20.5858 11.5858 20.25 12 20.25H20C20.6904 20.25 21.25 19.6904 21.25 19V7C21.25 6.30964 20.6904 5.75 20 5.75H4C3.30964 5.75 2.75 6.30964 2.75 7V11C2.75 11.4142 2.41421 11.75 2 11.75C1.58579 11.75 1.25 11.4142 1.25 11V5Z"
        fill="#303233" />
    <path
        d="M1.25 15C1.25 15.4142 1.58579 15.75 2 15.75H6.18934L1.46967 20.4697C1.17678 20.7626 1.17678 21.2374 1.46967 21.5303C1.76256 21.8232 2.23744 21.8232 2.53033 21.5303L7.25 16.8107V21C7.25 21.4142 7.58579 21.75 8 21.75C8.41421 21.75 8.75 21.4142 8.75 21V15C8.75 14.5858 8.41421 14.25 8 14.25H2C1.58579 14.25 1.25 14.5858 1.25 15Z"
        fill="#303233" />
</svg>
