<svg width="16" height="16" viewBox="0 0 16 16" fill="none" xmlns="http://www.w3.org/2000/svg">
    <g clip-path="url(#clip0_53_5872)">
        <path fill-rule="evenodd" clip-rule="evenodd"
            d="M7 0.5C3.41015 0.5 0.5 3.41015 0.5 7C0.5 7.86368 0.668717 8.6892 0.975455 9.44448C1.00354 9.51364 1.02088 9.55644 1.03304 9.58883C1.04102 9.61006 1.04391 9.61947 1.04455 9.62155C1.04699 9.63266 1.04754 9.63764 1.04754 9.63764C1.04754 9.63764 1.04812 9.64289 1.04814 9.65539C1.04814 9.65539 1.04752 9.66473 1.04516 9.68219C1.0414 9.70988 1.03538 9.74631 1.02488 9.80937L0.626811 12.1977C0.608495 12.3075 0.589676 12.4203 0.582412 12.5165C0.574606 12.6199 0.573483 12.7687 0.639658 12.923C0.72394 13.1195 0.880528 13.2761 1.07703 13.3603C1.23132 13.4265 1.38006 13.4254 1.48348 13.4176C1.57972 13.4103 1.69248 13.3915 1.80224 13.3732L4.19063 12.9751C4.25369 12.9646 4.29012 12.9586 4.31781 12.9548C4.3431 12.9514 4.34752 12.9519 4.34402 12.9519C4.35715 12.9519 4.36239 12.9525 4.36239 12.9525C4.36239 12.9525 4.36718 12.953 4.37845 12.9555C4.38053 12.9561 4.38994 12.959 4.41117 12.967C4.44356 12.9791 4.48636 12.9965 4.55552 13.0245C5.15919 13.2697 5.80774 13.4267 6.48477 13.4799C7.39601 14.7058 8.85535 15.5 10.5002 15.5C11.1644 15.5 11.7995 15.3703 12.3806 15.1342C12.4331 15.1129 12.4634 15.1007 12.4858 15.0923L12.4927 15.0897L12.4951 15.09C12.5135 15.0925 12.5387 15.0967 12.5867 15.1047L14.38 15.4036C14.4603 15.417 14.5502 15.432 14.6282 15.4379C14.7133 15.4443 14.8486 15.4465 14.9917 15.3852C15.1686 15.3093 15.3095 15.1684 15.3853 14.9915C15.4467 14.8485 15.4445 14.7131 15.438 14.628C15.4322 14.55 15.4171 14.4601 15.4037 14.3798L15.1049 12.5865C15.0968 12.5385 15.0927 12.5133 15.0902 12.4949L15.0899 12.4925L15.0924 12.4856C15.1009 12.4632 15.1131 12.4329 15.1344 12.3804C15.3704 11.7993 15.5002 11.1642 15.5002 10.5C15.5002 8.85508 14.7059 7.39568 13.4799 6.48445C13.2171 3.13561 10.4163 0.5 7 0.5ZM13.4513 7.79978C13.0893 10.7501 10.7504 13.0891 7.80012 13.4512C8.51167 14.1026 9.45952 14.5 10.5002 14.5C11.0332 14.5 11.5407 14.396 12.0043 14.2077L12.0268 14.1986C12.1016 14.168 12.1905 14.1317 12.2735 14.1131C12.3489 14.0962 12.4148 14.0889 12.4921 14.0889C12.5769 14.0889 12.6626 14.1034 12.7318 14.115L12.7511 14.1183L14.3919 14.3917L14.1185 12.7509L14.1152 12.7316C14.1036 12.6624 14.0891 12.5767 14.0891 12.4919C14.0891 12.4146 14.0964 12.3487 14.1133 12.2733C14.1319 12.1903 14.1682 12.1014 14.1988 12.0266L14.2079 12.0041C14.3962 11.5405 14.5002 11.033 14.5002 10.5C14.5002 9.45926 14.1027 8.51134 13.4513 7.79978ZM1.5 7C1.5 3.96243 3.96243 1.5 7 1.5C10.0376 1.5 12.5 3.96243 12.5 7C12.5 10.0376 10.0376 12.5 7 12.5C6.26749 12.5 5.56961 12.3571 4.9318 12.098L4.90328 12.0864C4.80007 12.0444 4.69528 12.0017 4.59917 11.9801C4.51059 11.9603 4.43493 11.9519 4.34415 11.9519C4.24589 11.9518 4.14563 11.9687 4.05055 11.9847L1.60829 12.3917L2.01534 9.94945C2.03131 9.85438 2.04815 9.75411 2.04814 9.65585C2.04813 9.56507 2.03975 9.48941 2.01989 9.40083C1.99835 9.30472 1.95564 9.19994 1.91357 9.09672L1.90196 9.0682C1.64293 8.43039 1.5 7.73251 1.5 7Z"
            fill="#303233" />
    </g>
    <defs>
        <clipPath id="clip0_53_5872">
            <rect width="16" height="16" fill="white" />
        </clipPath>
    </defs>
</svg>
