<svg width="16" height="16" viewBox="0 0 16 16" fill="none" xmlns="http://www.w3.org/2000/svg">
    <path
        d="M10.8635 9.8685C11.0532 9.66789 11.0445 9.35143 10.8438 9.16166C10.6432 8.9719 10.3268 8.9807 10.137 9.18131C9.82171 9.51463 9.06274 10.1667 7.99992 10.1667C6.93777 10.1667 6.17908 9.51546 5.86339 9.1819C5.67358 8.98134 5.35711 8.97263 5.15655 9.16245C4.95599 9.35226 4.94728 9.66872 5.1371 9.86928C5.52019 10.2741 6.52584 11.1667 7.99992 11.1667C9.47491 11.1667 10.4809 10.273 10.8635 9.8685Z"
        fill="#303233" />
    <path
        d="M11.8183 5.61438C12.0312 5.79015 12.0614 6.10529 11.8856 6.31827C11.5388 6.73859 11.043 7.00001 10.5 7.00001C9.952 7.00001 9.4708 6.73447 9.12029 6.3253C8.94064 6.11558 8.96501 5.79994 9.17473 5.62029C9.38444 5.44064 9.70008 5.46501 9.87973 5.67473C10.0759 5.90371 10.2947 6.00001 10.5 6.00001C10.7104 6.00001 10.9346 5.8996 11.1144 5.68176C11.2901 5.46878 11.6053 5.43861 11.8183 5.61438Z"
        fill="#303233" />
    <path
        d="M6.88564 6.31827C7.06141 6.10529 7.03125 5.79015 6.81827 5.61438C6.60529 5.43861 6.29015 5.46878 6.11438 5.68176C5.93459 5.8996 5.71037 6.00001 5.50001 6.00001C5.29468 6.00001 5.07589 5.90371 4.87973 5.67473C4.70008 5.46501 4.38444 5.44064 4.17473 5.62029C3.96501 5.79994 3.94064 6.11558 4.12029 6.3253C4.4708 6.73447 4.952 7.00001 5.50001 7.00001C6.04298 7.00001 6.53876 6.73859 6.88564 6.31827Z"
        fill="#303233" />
    <path fill-rule="evenodd" clip-rule="evenodd"
        d="M8 1C4.13401 1 1 4.13401 1 8C1 11.866 4.13401 15 8 15C11.866 15 15 11.866 15 8C15 4.13401 11.866 1 8 1ZM2 8C2 4.68629 4.68629 2 8 2C11.3137 2 14 4.68629 14 8C14 11.3137 11.3137 14 8 14C4.68629 14 2 11.3137 2 8Z"
        fill="#303233" />
</svg>
