<svg width="16" height="16" viewBox="0 0 16 16" fill="none" xmlns="http://www.w3.org/2000/svg">
    <g clip-path="url(#clip0_53_9847)">
        <path fill-rule="evenodd" clip-rule="evenodd"
            d="M4.90233 1.44509C6.38176 0.745955 8.05418 0.567843 9.64767 0.939716C11.2412 1.31159 12.662 2.21157 13.6791 3.49333C14.6963 4.77509 15.2499 6.36324 15.25 7.99955V8.64959C15.25 9.36568 14.9655 10.0524 14.4592 10.5588C13.9528 11.0651 13.2661 11.3496 12.55 11.3496C11.8339 11.3496 11.1472 11.0651 10.6408 10.5588C10.5629 10.4809 10.4903 10.3987 10.4231 10.3128C9.8131 10.9516 8.95302 11.3496 8 11.3496C6.14985 11.3496 4.65001 9.84975 4.65001 7.99959C4.65001 6.14944 6.14985 4.6496 8 4.6496C8.69314 4.6496 9.33712 4.86011 9.87148 5.22068C9.95171 4.89285 10.2474 4.6496 10.6 4.6496C11.0142 4.6496 11.35 4.98538 11.35 5.3996V8.64959C11.35 8.96785 11.4764 9.27308 11.7015 9.49812C11.9265 9.72316 12.2317 9.84959 12.55 9.84959C12.8683 9.84959 13.1735 9.72316 13.3985 9.49812C13.6236 9.27308 13.75 8.96785 13.75 8.64959V7.99964C13.75 7.99963 13.75 7.99966 13.75 7.99964C13.7499 6.7019 13.3108 5.4423 12.5041 4.42575C11.6974 3.40918 10.5706 2.6954 9.30677 2.40047C8.04297 2.10553 6.71657 2.24679 5.54323 2.80128C4.36989 3.35577 3.41863 4.29087 2.84413 5.45453C2.26962 6.6182 2.10566 7.94199 2.3789 9.21066C2.65214 10.4793 3.34652 11.6182 4.34912 12.4422C5.35172 13.2662 6.60358 13.7268 7.90114 13.7492C9.19871 13.7715 10.4657 13.3542 11.496 12.5651C11.8249 12.3133 12.2956 12.3757 12.5475 12.7046C12.7993 13.0335 12.7369 13.5042 12.408 13.756C11.1089 14.7509 9.51141 15.2771 7.87535 15.2489C6.23929 15.2208 4.66086 14.64 3.39671 13.6011C2.13256 12.5621 1.25705 11.1261 0.912528 9.52648C0.568007 7.92686 0.774742 6.25773 1.49912 4.7905C2.22349 3.32327 3.42291 2.14423 4.90233 1.44509ZM9.85 7.99959C9.85 6.97787 9.02173 6.14959 8 6.14959C6.97828 6.14959 6.15001 6.97787 6.15001 7.99959C6.15001 9.02132 6.97828 9.84959 8 9.84959C9.02173 9.84959 9.85 9.02132 9.85 7.99959Z"
            fill="#303233" />
    </g>
    <defs>
        <clipPath id="clip0_53_9847">
            <rect width="16" height="16" fill="white" />
        </clipPath>
    </defs>
</svg>
