<svg width="16" height="16" viewBox="0 0 16 16" fill="none" xmlns="http://www.w3.org/2000/svg">
    <path fill-rule="evenodd" clip-rule="evenodd"
        d="M4.1 1C4.37614 1 4.6 1.22386 4.6 1.5V4.09901V4.10099V9.82C4.6 10.1923 4.60039 10.4414 4.61605 10.6331C4.63124 10.819 4.65825 10.9064 4.68719 10.9632C4.76389 11.1137 4.88628 11.2361 5.03681 11.3128C5.09362 11.3418 5.18102 11.3688 5.36688 11.3839C5.55857 11.3996 5.80771 11.4 6.18 11.4L11.8994 11.4H11.9006H14.5C14.7761 11.4 15 11.6239 15 11.9C15 12.1761 14.7761 12.4 14.5 12.4H12.4V14.5C12.4 14.7761 12.1761 15 11.9 15C11.6239 15 11.4 14.7761 11.4 14.5V12.4L6.15978 12.4C5.81295 12.4 5.52271 12.4 5.28545 12.3806C5.03775 12.3604 4.80409 12.3166 4.58282 12.2038C4.24413 12.0312 3.96876 11.7559 3.79619 11.4172C3.68344 11.1959 3.63961 10.9623 3.61937 10.7146C3.59999 10.4773 3.59999 10.187 3.6 9.84021L3.6 4.6H1.5C1.22386 4.6 1 4.37614 1 4.1C1 3.82386 1.22386 3.6 1.5 3.6H3.6V1.5C3.6 1.22386 3.82386 1 4.1 1ZM10.6331 4.61605C10.4414 4.60039 10.1923 4.6 9.82 4.6H6.7C6.42386 4.6 6.2 4.37614 6.2 4.1C6.2 3.82386 6.42386 3.6 6.7 3.6L9.84021 3.6C10.187 3.59999 10.4773 3.59999 10.7146 3.61937C10.9623 3.63961 11.1959 3.68344 11.4172 3.79619C11.7559 3.96876 12.0312 4.24412 12.2038 4.58282C12.3166 4.80409 12.3604 5.03775 12.3806 5.28545C12.4 5.52271 12.4 5.81295 12.4 6.15978V9.3C12.4 9.57614 12.1761 9.8 11.9 9.8C11.6239 9.8 11.4 9.57614 11.4 9.3V6.18C11.4 5.80771 11.3996 5.55857 11.3839 5.36688C11.3688 5.18102 11.3418 5.09362 11.3128 5.03681C11.2361 4.88628 11.1137 4.76389 10.9632 4.68719C10.9064 4.65825 10.819 4.63124 10.6331 4.61605Z"
        fill="#303233" />
</svg>
