<svg width="16" height="16" viewBox="0 0 16 16" fill="none" xmlns="http://www.w3.org/2000/svg">
    <path fill-rule="evenodd" clip-rule="evenodd"
        d="M10.2306 0.75H5.76942C5.21789 0.74999 4.75893 0.749982 4.38428 0.780592C3.99397 0.812481 3.6296 0.881295 3.28565 1.05655C2.75645 1.32619 2.32619 1.75645 2.05655 2.28565C1.8813 2.6296 1.81248 2.99397 1.78059 3.38428C1.74998 3.75893 1.74999 4.21787 1.75 4.76941V11.2306C1.74999 11.7821 1.74998 12.2411 1.78059 12.6157C1.81248 13.006 1.8813 13.3704 2.05655 13.7143C2.32619 14.2436 2.75645 14.6738 3.28565 14.9435C3.6296 15.1187 3.99397 15.1875 4.38428 15.2194C4.75893 15.25 5.21787 15.25 5.7694 15.25H10.068L8.90901 14.091C8.03033 13.2123 8.03033 11.7877 8.90901 10.909C9.28783 10.5302 9.76812 10.3147 10.2624 10.2625C10.381 9.1315 11.3376 8.25 12.5 8.25C13.2068 8.25 13.8375 8.57592 14.25 9.08567V4.7694C14.25 4.21787 14.25 3.75893 14.2194 3.38428C14.1875 2.99397 14.1187 2.6296 13.9435 2.28565C13.6738 1.75645 13.2436 1.32619 12.7143 1.05655C12.3704 0.881295 12.006 0.812481 11.6157 0.780592C11.2411 0.749982 10.7821 0.74999 10.2306 0.75Z"
        fill="#303233" />
    <path fill-rule="evenodd" clip-rule="evenodd"
        d="M12.5 9.75C12.9142 9.75 13.25 10.0858 13.25 10.5V12.6893L13.9697 11.9697C14.2626 11.6768 14.7374 11.6768 15.0303 11.9697C15.3232 12.2626 15.3232 12.7374 15.0303 13.0303L13.0303 15.0303C12.7374 15.3232 12.2626 15.3232 11.9697 15.0303L9.96967 13.0303C9.67678 12.7374 9.67678 12.2626 9.96967 11.9697C10.2626 11.6768 10.7374 11.6768 11.0303 11.9697L11.75 12.6893V10.5C11.75 10.0858 12.0858 9.75 12.5 9.75Z"
        fill="#303233" />
</svg>
