<svg width="16" height="16" viewBox="0 0 16 16" fill="none" xmlns="http://www.w3.org/2000/svg">
    <g clip-path="url(#clip0_3062_191)">
        <path fill-rule="evenodd" clip-rule="evenodd"
            d="M8 2.25C4.82436 2.25 2.25 4.82436 2.25 8C2.25 11.1756 4.82436 13.75 8 13.75C11.1756 13.75 13.75 11.1756 13.75 8C13.75 4.82436 11.1756 2.25 8 2.25ZM0.75 8C0.75 3.99594 3.99594 0.75 8 0.75C12.0041 0.75 15.25 3.99594 15.25 8C15.25 12.0041 12.0041 15.25 8 15.25C3.99594 15.25 0.75 12.0041 0.75 8Z"
            fill="#303233" />
        <path fill-rule="evenodd" clip-rule="evenodd"
            d="M6.77978 5.25C6.78656 5.25 6.7933 5.25 6.8 5.25H9.2C9.2067 5.25 9.21344 5.25 9.22022 5.25C9.34238 5.24997 9.47483 5.24994 9.58947 5.2593C9.71923 5.2699 9.89066 5.29614 10.0675 5.38624C10.3027 5.50608 10.4939 5.69731 10.6138 5.93251C10.7039 6.10934 10.7301 6.28077 10.7407 6.41053C10.7501 6.52517 10.75 6.65762 10.75 6.77979C10.75 6.78656 10.75 6.7933 10.75 6.8V9.2C10.75 9.2067 10.75 9.21344 10.75 9.22021C10.75 9.34237 10.7501 9.47483 10.7407 9.58947C10.7301 9.71923 10.7039 9.89066 10.6138 10.0675C10.4939 10.3027 10.3027 10.4939 10.0675 10.6138C9.89066 10.7039 9.71923 10.7301 9.58947 10.7407C9.47483 10.7501 9.34237 10.75 9.22021 10.75C9.21344 10.75 9.2067 10.75 9.2 10.75H6.8C6.7933 10.75 6.78656 10.75 6.77979 10.75C6.65762 10.75 6.52517 10.7501 6.41053 10.7407C6.28077 10.7301 6.10934 10.7039 5.93251 10.6138C5.69731 10.4939 5.50608 10.3027 5.38624 10.0675C5.29614 9.89066 5.2699 9.71923 5.2593 9.58947C5.24994 9.47483 5.24997 9.34238 5.25 9.22022C5.25 9.21344 5.25 9.2067 5.25 9.2V6.8C5.25 6.7933 5.25 6.78656 5.25 6.77978C5.24997 6.65762 5.24994 6.52517 5.2593 6.41053C5.2699 6.28077 5.29614 6.10934 5.38624 5.93251C5.50608 5.69731 5.69731 5.50608 5.93251 5.38624C6.10934 5.29614 6.28077 5.2699 6.41053 5.2593C6.52517 5.24994 6.65762 5.24997 6.77978 5.25Z"
            fill="#303233" />
    </g>
    <defs>
        <clipPath id="clip0_3062_191">
            <rect width="16" height="16" fill="white" />
        </clipPath>
    </defs>
</svg>
