<svg width="16" height="16" viewBox="0 0 16 16" fill="none" xmlns="http://www.w3.org/2000/svg">
    <path
        d="M2.36364 2.25C1.19045 2.25 0.25 3.20728 0.25 4.375V5.75H15.75V4.375C15.75 3.20728 14.8095 2.25 13.6364 2.25H2.36364Z"
        fill="#303233" />
    <path fill-rule="evenodd" clip-rule="evenodd"
        d="M15.75 7.25H0.25V11.625C0.25 12.7927 1.19045 13.75 2.36364 13.75H13.6364C14.8095 13.75 15.75 12.7927 15.75 11.625V7.25ZM4 8.25C3.58579 8.25 3.25 8.58579 3.25 9C3.25 9.41421 3.58579 9.75 4 9.75H9C9.41421 9.75 9.75 9.41421 9.75 9C9.75 8.58579 9.41421 8.25 9 8.25H4ZM10.25 9C10.25 8.58579 10.5858 8.25 11 8.25H12C12.4142 8.25 12.75 8.58579 12.75 9C12.75 9.41421 12.4142 9.75 12 9.75H11C10.5858 9.75 10.25 9.41421 10.25 9Z"
        fill="#303233" />
</svg>
