<svg width="24" height="24" viewBox="0 0 24 24" fill="none" xmlns="http://www.w3.org/2000/svg">
    <path
        d="M11 9C10.4477 9 10 9.44772 10 10C10 10.5523 10.4477 11 11 11C11.5523 11 12 10.5523 12 10C12 9.44772 11.5523 9 11 9Z"
        fill="black" />
    <path fill-rule="evenodd" clip-rule="evenodd"
        d="M10.7071 1.29289C10.3166 0.902369 9.68345 0.902369 9.29293 1.29289L6.50002 4.0858L3.70711 1.29289C3.31658 0.902369 2.68342 0.902369 2.29289 1.29289C1.90237 1.68342 1.90237 2.31658 2.29289 2.70711L5.0858 5.50002L3.65784 6.92798C3.08864 7.49717 2.61885 7.96694 2.26743 8.38089C1.90244 8.81083 1.60677 9.24589 1.43845 9.76393C1.17742 10.5673 1.17742 11.4327 1.43845 12.2361C1.60677 12.7541 1.90244 13.1892 2.26743 13.6191C2.61885 14.0331 3.08863 14.5028 3.65785 15.072L5.92802 17.3422C6.49721 17.9114 6.96698 18.3812 7.38093 18.7326C7.81086 19.0976 8.24592 19.3933 8.76397 19.5616C9.56734 19.8226 10.4327 19.8226 11.2361 19.5616C11.7541 19.3933 12.1892 19.0976 12.6191 18.7326C13.0331 18.3812 13.5029 17.9114 14.0721 17.3422L19.7071 11.7071C20.0977 11.3166 20.0977 10.6834 19.7071 10.2929L10.7071 1.29289ZM5.0858 5.50002L8.29237 8.70658C8.10495 9.09822 8 9.53685 8 10C8 11.6569 9.34315 13 11 13C12.6569 13 14 11.6569 14 10C14 8.34315 12.6569 7 11 7C10.5369 7 10.0982 7.10495 9.70658 7.29237L6.50002 4.0858L5.0858 5.50002Z"
        fill="black" />
    <path
        d="M20.4231 14.6154C20.2678 14.2427 19.9037 14 19.5 14C19.0963 14 18.7322 14.2427 18.5769 14.6154L16.0769 20.6154C15.9483 20.924 15.9825 21.2765 16.168 21.5547C16.3534 21.8329 16.6657 22 17 22H22C22.3344 22 22.6466 21.8329 22.8321 21.5547C23.0175 21.2765 23.0517 20.924 22.9231 20.6154L20.4231 14.6154Z"
        fill="black" />
</svg>
