<svg width="24" height="24" viewBox="0 0 24 24" fill="none" xmlns="http://www.w3.org/2000/svg">
    <path
        d="M12 3.25C9.37665 3.25 7.25 5.37665 7.25 8C7.25 10.6234 9.37665 12.75 12 12.75C14.6234 12.75 16.75 10.6234 16.75 8C16.75 5.37665 14.6234 3.25 12 3.25Z"
        fill="#303233" />
    <path
        d="M11.9999 14.25C7.92175 14.25 4.49693 17.0393 3.52563 20.8131C3.46784 21.0376 3.51715 21.2763 3.65921 21.4595C3.80127 21.6428 4.0201 21.75 4.25196 21.75H19.7479C19.9798 21.75 20.1986 21.6428 20.3406 21.4595C20.4827 21.2763 20.532 21.0376 20.4742 20.8131C19.5029 17.0393 16.0781 14.25 11.9999 14.25Z"
        fill="#303233" />
</svg>
