<svg width="16" height="16" viewBox="0 0 16 16" fill="none" xmlns="http://www.w3.org/2000/svg">
    <path
        d="M2.24418 3.24408C2.40046 3.0878 2.61242 3 2.83343 3H13.1668C13.3878 3 13.5997 3.0878 13.756 3.24408C13.9123 3.40036 14.0001 3.61232 14.0001 3.83333V12.1667C14.0001 12.3877 13.9123 12.5996 13.756 12.7559C13.5997 12.9122 13.3878 13 13.1668 13H9.5001C9.22396 13 9.0001 13.2239 9.0001 13.5C9.0001 13.7761 9.22396 14 9.5001 14H13.1668C13.653 14 14.1193 13.8068 14.4631 13.463C14.8069 13.1192 15.0001 12.6529 15.0001 12.1667V3.83333C15.0001 3.3471 14.8069 2.88079 14.4631 2.53697C14.1193 2.19315 13.653 2 13.1668 2H2.83343C2.3472 2 1.88089 2.19315 1.53707 2.53697C1.19325 2.88079 1.0001 3.3471 1.0001 3.83333V5.5C1.0001 5.77614 1.22396 6 1.5001 6C1.77624 6 2.0001 5.77614 2.0001 5.5V3.83333C2.0001 3.61232 2.0879 3.40036 2.24418 3.24408Z"
        fill="#303233" />
    <path
        d="M1.55537 7.70306C1.28092 7.67254 1.03369 7.87028 1.00316 8.14473C0.972638 8.41918 1.17038 8.66641 1.44483 8.69694C2.68587 8.83496 3.843 9.39119 4.72595 10.2741C5.60891 11.1571 6.16513 12.3142 6.30316 13.5553C6.33369 13.8297 6.58092 14.0275 6.85537 13.9969C7.12982 13.9664 7.32756 13.7192 7.29703 13.4447C7.13391 11.978 6.47656 10.6105 5.43306 9.56704C4.38957 8.52354 3.02205 7.86619 1.55537 7.70306Z"
        fill="#303233" />
    <path
        d="M1.60001 10.4101C1.32944 10.3549 1.06536 10.5295 1.01018 10.8001C0.955001 11.0707 1.12961 11.3347 1.40018 11.3899C1.94469 11.501 2.44452 11.7697 2.83747 12.1626C3.23042 12.5556 3.49913 13.0554 3.61018 13.5999C3.66536 13.8705 3.92944 14.0451 4.20001 13.9899C4.47059 13.9347 4.6452 13.6707 4.59001 13.4001C4.43977 12.6634 4.07621 11.9872 3.54457 11.4555C3.01294 10.9239 2.3367 10.5603 1.60001 10.4101Z"
        fill="#303233" />
    <path
        d="M1.50012 13C1.22398 13 1.00012 13.2239 1.00012 13.5C1.00012 13.7761 1.22398 14 1.50012 14H1.50679C1.78293 14 2.00679 13.7761 2.00679 13.5C2.00679 13.2239 1.78293 13 1.50679 13H1.50012Z"
        fill="#303233" />
</svg>
