<svg width="16" height="16" viewBox="0 0 16 16" fill="none" xmlns="http://www.w3.org/2000/svg">
    <g clip-path="url(#clip0_155_208)">
        <path fill-rule="evenodd" clip-rule="evenodd"
            d="M7.45161 1.56238C7.75672 1.69521 7.93782 2.0132 7.89641 2.34338L7.34995 6.70004H11.2561C11.2645 6.70004 11.2729 6.70004 11.2813 6.70004C11.4367 6.7 11.6 6.69996 11.7345 6.7121C11.8607 6.72349 12.1212 6.75445 12.3493 6.93813C12.6067 7.14542 12.7549 7.4599 12.7499 7.79129C12.7454 8.08521 12.6016 8.3057 12.5296 8.40972C12.4526 8.52069 12.348 8.64582 12.2485 8.76467L6.42311 15.7312C6.20965 15.9864 5.8535 16.0705 5.54839 15.9377C5.24328 15.8049 5.06218 15.4869 5.10359 15.1567L5.65005 10.8H1.74389C1.7355 10.8 1.72709 10.8 1.71865 10.8C1.56328 10.8001 1.40002 10.8001 1.26548 10.788C1.1393 10.7766 0.878811 10.7456 0.650729 10.562C0.393324 10.3547 0.245109 10.0402 0.250123 9.70879C0.25457 9.41488 0.398351 9.19439 0.470448 9.09036C0.547359 8.97939 0.652044 8.85426 0.751481 8.7354C0.756899 8.72893 0.762302 8.72247 0.767683 8.71603L6.57689 1.76893C6.79035 1.51365 7.1465 1.42955 7.45161 1.56238Z"
            fill="#303233" />
        <path fill-rule="evenodd" clip-rule="evenodd"
            d="M10.1628 4.41666L10.0783 5.09303C10.0269 5.50404 9.65205 5.79559 9.24104 5.74421C8.83002 5.69283 8.53848 5.31799 8.58986 4.90697L8.94515 2.06463C9.07473 1.02795 9.95599 0.25 11.0007 0.25C12.0455 0.25 12.9267 1.02795 13.0563 2.06463L13.4116 4.90697C13.463 5.31799 13.1714 5.69283 12.7604 5.74421C12.3494 5.79559 11.9746 5.50404 11.9232 5.09303L11.8386 4.41666H10.1628ZM10.4336 2.25068C10.4693 1.96465 10.7125 1.75 11.0007 1.75C11.289 1.75 11.5321 1.96465 11.5679 2.25068L11.6511 2.91666H10.3503L10.4336 2.25068Z"
            fill="#303233" />
    </g>
    <defs>
        <clipPath id="clip0_155_208">
            <rect width="16" height="16" fill="white" />
        </clipPath>
    </defs>
</svg>
