<svg width="24" height="24" viewBox="0 0 24 24" fill="none" xmlns="http://www.w3.org/2000/svg">
    <path fill-rule="evenodd" clip-rule="evenodd"
        d="M9.16962 1.25H14.8305C15.3646 1.24999 15.8105 1.24998 16.1747 1.27974C16.5546 1.31078 16.9113 1.37789 17.2485 1.54973C17.766 1.81338 18.1867 2.23408 18.4503 2.75153C18.6222 3.08879 18.6893 3.44545 18.7203 3.82533C18.7501 4.18956 18.7501 4.6354 18.75 5.16955V6.26598C18.921 6.27229 19.0813 6.28109 19.2315 6.29336C19.7782 6.33803 20.2583 6.43239 20.7025 6.65873C21.4081 7.01825 21.9818 7.59193 22.3413 8.29754C22.5677 8.74176 22.662 9.2219 22.7067 9.76853C22.7501 10.2994 22.7501 10.955 22.75 11.7679V14C22.75 14.0392 22.7501 14.0778 22.7501 14.1158C22.7503 14.9338 22.7505 15.4919 22.6223 15.9706C22.2755 17.2647 21.2647 18.2755 19.9706 18.6222C19.627 18.7143 19.2424 18.7402 18.75 18.7474V18.8305C18.7501 19.3646 18.7501 19.8104 18.7203 20.1747C18.6893 20.5546 18.6222 20.9112 18.4503 21.2485C18.1867 21.7659 17.766 22.1866 17.2485 22.4503C16.9113 22.6221 16.5546 22.6892 16.1747 22.7203C15.8105 22.75 15.3646 22.75 14.8305 22.75H9.1696C8.63545 22.75 8.18961 22.75 7.82538 22.7203C7.44549 22.6892 7.08884 22.6221 6.75158 22.4503C6.23413 22.1866 5.81343 21.7659 5.54978 21.2485C5.37794 20.9112 5.31083 20.5546 5.27979 20.1747C5.25003 19.8104 5.25004 19.3646 5.25005 18.8304L5.25005 18.7474C4.75774 18.7402 4.37312 18.7143 4.02948 18.6222C2.73538 18.2755 1.72458 17.2647 1.37783 15.9706C1.24957 15.4919 1.24975 14.9338 1.25002 14.1158C1.25004 14.0778 1.25005 14.0392 1.25005 14L1.25005 11.7679C1.25004 10.9551 1.25004 10.2994 1.29341 9.76853C1.33807 9.2219 1.43243 8.74176 1.65877 8.29754C2.0183 7.59193 2.59198 7.01825 3.29759 6.65873C3.7418 6.43239 4.22194 6.33803 4.76858 6.29336C4.91884 6.28109 5.07908 6.27229 5.25005 6.26598L5.25005 5.16957C5.25004 4.63542 5.25003 4.18957 5.27979 3.82533C5.31083 3.44545 5.37794 3.08879 5.54978 2.75153C5.81343 2.23408 6.23413 1.81338 6.75158 1.54973C7.08884 1.37789 7.44549 1.31078 7.82538 1.27974C8.18961 1.24998 8.63546 1.24999 9.16962 1.25ZM6.75005 6.25C6.75601 6.25 6.76198 6.25 6.76795 6.25H17.2321C17.2381 6.25 17.2441 6.25 17.25 6.25V5.2C17.25 4.62757 17.2495 4.24336 17.2253 3.94748C17.2018 3.66036 17.16 3.52307 17.1138 3.43251C16.994 3.19731 16.8027 3.00608 16.5675 2.88624C16.477 2.8401 16.3397 2.79822 16.0526 2.77476C15.7567 2.75058 15.3725 2.75 14.8 2.75H9.20005C8.62762 2.75 8.24341 2.75058 7.94753 2.77476C7.6604 2.79822 7.52312 2.8401 7.43256 2.88624C7.19736 3.00608 7.00613 3.19731 6.88629 3.43251C6.84015 3.52307 6.79827 3.66036 6.77481 3.94748C6.75063 4.24336 6.75005 4.62757 6.75005 5.2V6.25ZM6.75005 18.8C6.75005 19.3724 6.75063 19.7566 6.77481 20.0525C6.79827 20.3396 6.84015 20.4769 6.88629 20.5675C7.00613 20.8027 7.19736 20.9939 7.43256 21.1138C7.52312 21.1599 7.6604 21.2018 7.94753 21.2252C8.24341 21.2494 8.62762 21.25 9.20005 21.25H14.8C15.3725 21.25 15.7567 21.2494 16.0526 21.2252C16.3397 21.2018 16.477 21.1599 16.5675 21.1138C16.8027 20.9939 16.994 20.8027 17.1138 20.5675C17.16 20.4769 17.2018 20.3396 17.2253 20.0525C17.2495 19.7566 17.25 19.3724 17.25 18.8V17.2C17.25 16.6276 17.2495 16.2434 17.2253 15.9475C17.2018 15.6604 17.16 15.5231 17.1138 15.4325C16.994 15.1973 16.8027 15.0061 16.5675 14.8862C16.477 14.8401 16.3397 14.7982 16.0526 14.7748C15.7567 14.7506 15.3725 14.75 14.8 14.75H9.20005C8.62762 14.75 8.24341 14.7506 7.94753 14.7748C7.6604 14.7982 7.52312 14.8401 7.43256 14.8862C7.19736 15.0061 7.00613 15.1973 6.88629 15.4325C6.84015 15.5231 6.79827 15.6604 6.77481 15.9475C6.75063 16.2434 6.75005 16.6276 6.75005 17.2V18.8ZM14.25 10.5C14.25 10.0858 14.5858 9.75 15 9.75H18C18.4143 9.75 18.75 10.0858 18.75 10.5C18.75 10.9142 18.4143 11.25 18 11.25H15C14.5858 11.25 14.25 10.9142 14.25 10.5Z"
        fill="#303233" />
</svg>
