<svg width="16" height="16" viewBox="0 0 16 16" fill="none" xmlns="http://www.w3.org/2000/svg">
    <path fill-rule="evenodd" clip-rule="evenodd"
        d="M13 0.75C11.6193 0.75 10.5 1.86929 10.5 3.25C10.5 4.63071 11.6193 5.75 13 5.75C14.3807 5.75 15.5 4.63071 15.5 3.25C15.5 1.86929 14.3807 0.75 13 0.75ZM11.5 3.25C11.5 2.42157 12.1716 1.75 13 1.75C13.8284 1.75 14.5 2.42157 14.5 3.25C14.5 4.07843 13.8284 4.75 13 4.75C12.1716 4.75 11.5 4.07843 11.5 3.25Z"
        fill="#303233" />
    <path
        d="M2.00001 8C2.00001 5.31362 4.60474 3 8.00001 3C8.27615 3 8.50001 2.77614 8.50001 2.5C8.50001 2.22386 8.27615 2 8.00001 2C4.21557 2 1.00001 4.61125 1.00001 8C1.00001 8.99227 1.28083 9.92636 1.77345 10.7464C1.88858 10.938 1.90562 11.1397 1.84394 11.2939L1.03577 13.3143C0.968204 13.4832 0.997713 13.6755 1.11282 13.8164C1.22793 13.9573 1.41046 14.0245 1.58945 13.992L4.75858 13.4157C4.8542 13.3984 4.96325 13.4094 5.07467 13.4533C5.96657 13.8049 6.95791 14 8.00001 14C11.7844 14 15 11.3887 15 8C15 7.72386 14.7761 7.5 14.5 7.5C14.2239 7.5 14 7.72386 14 8C14 10.6864 11.3953 13 8.00001 13C7.08265 13 6.2158 12.8283 5.44143 12.523C5.17827 12.4192 4.8802 12.3772 4.57969 12.4319L2.29998 12.8464L2.77242 11.6653C2.97075 11.1694 2.87606 10.6399 2.63066 10.2314C2.22535 9.55671 2.00001 8.79929 2.00001 8Z"
        fill="#303233" />
</svg>
