<svg width="24" height="24" viewBox="0 0 24 24" fill="none" xmlns="http://www.w3.org/2000/svg">
    <path
        d="M12.4697 11.4697C12.7626 11.1768 13.2374 11.1768 13.5303 11.4697L16.5303 14.4697C16.6022 14.5416 16.6565 14.6245 16.6931 14.7129C16.7298 14.8013 16.75 14.8983 16.75 15C16.75 15.1017 16.7298 15.1987 16.6931 15.2871C16.6565 15.3755 16.6022 15.4584 16.5303 15.5303L13.5303 18.5303C13.2374 18.8232 12.7626 18.8232 12.4697 18.5303C12.1768 18.2374 12.1768 17.7626 12.4697 17.4697L14.1893 15.75H8C7.58579 15.75 7.25 15.4142 7.25 15C7.25 14.5858 7.58579 14.25 8 14.25H14.1893L12.4697 12.5303C12.1768 12.2374 12.1768 11.7626 12.4697 11.4697Z"
        fill="#303233" />
    <path fill-rule="evenodd" clip-rule="evenodd"
        d="M16 1.25C16.4142 1.25 16.75 1.58579 16.75 2V3.25H19C20.5188 3.25 21.75 4.48122 21.75 6V20C21.75 21.5188 20.5188 22.75 19 22.75H5C3.48122 22.75 2.25 21.5188 2.25 20V6C2.25 4.48122 3.48122 3.25 5 3.25H7.25V2C7.25 1.58579 7.58579 1.25 8 1.25C8.41421 1.25 8.75 1.58579 8.75 2V3.25H15.25V2C15.25 1.58579 15.5858 1.25 16 1.25ZM20.25 6V7.25H3.75V6C3.75 5.30964 4.30964 4.75 5 4.75H7.25V5C7.25 5.41421 7.58579 5.75 8 5.75C8.41421 5.75 8.75 5.41421 8.75 5V4.75H15.25V5C15.25 5.41421 15.5858 5.75 16 5.75C16.4142 5.75 16.75 5.41421 16.75 5V4.75H19C19.6904 4.75 20.25 5.30964 20.25 6ZM3.75 20V8.75H20.25V20C20.25 20.6904 19.6904 21.25 19 21.25H5C4.30964 21.25 3.75 20.6904 3.75 20Z"
        fill="#303233" />
</svg>
