<svg width="16" height="16" viewBox="0 0 16 16" fill="none" xmlns="http://www.w3.org/2000/svg">
    <path
        d="M1.13468 6.66914C2.94401 5.01114 5.35397 4 8.00123 4L8.04605 4.0001C8.32219 4.00129 8.54701 3.7784 8.5482 3.50226C8.54939 3.22612 8.3265 3.0013 8.05036 3.00011L8.00123 3C5.09417 3 2.44558 4.11152 0.459076 5.93187C0.255486 6.11844 0.241683 6.43472 0.428245 6.63831C0.614808 6.8419 0.931089 6.8557 1.13468 6.66914Z"
        fill="#303233" />
    <path
        d="M7.42319 7.35741C7.69837 7.33438 7.90278 7.09264 7.87975 6.81746C7.85672 6.54228 7.61498 6.33787 7.3398 6.3609C5.61555 6.5052 4.05005 7.208 2.82542 8.28679C2.61821 8.46933 2.59821 8.78528 2.78074 8.99249C2.96327 9.1997 3.27922 9.2197 3.48643 9.03717C4.55552 8.0954 5.9202 7.4832 7.42319 7.35741Z"
        fill="#303233" />
    <path
        d="M8.00123 10.6667C7.17451 10.6667 6.41596 10.9527 5.81717 11.4315C5.60151 11.604 5.28687 11.569 5.1144 11.3533C4.94193 11.1377 4.97694 10.823 5.19261 10.6506C5.96228 10.035 6.93942 9.66667 8.00123 9.66667C9.04718 9.66667 10.011 10.0241 10.7753 10.6232C10.9926 10.7936 11.0307 11.1079 10.8604 11.3252C10.69 11.5425 10.3757 11.5806 10.1584 11.4102C9.56387 10.9442 8.81566 10.6667 8.00123 10.6667Z"
        fill="#303233" />
    <path
        d="M8.00131 13C7.72516 13 7.50131 13.2239 7.50131 13.5C7.50131 13.7761 7.72516 14 8.00131 14H8.00797C8.28411 14 8.50797 13.7761 8.50797 13.5C8.50797 13.2239 8.28411 13 8.00797 13H8.00131Z"
        fill="#303233" />
    <path fill-rule="evenodd" clip-rule="evenodd"
        d="M12.502 3C14.1588 3 15.502 4.34315 15.502 6C15.502 7.65685 14.1588 9 12.502 9C10.8451 9 9.50195 7.65685 9.50195 6C9.50195 4.34315 10.8451 3 12.502 3ZM14.502 6C14.502 4.89543 13.6065 4 12.502 4C12.131 4 11.7837 4.10098 11.4859 4.27694L14.225 7.01603C14.401 6.71826 14.502 6.37092 14.502 6ZM13.5179 7.72312L10.7788 4.98406C10.6029 5.28181 10.502 5.62912 10.502 6C10.502 7.10457 11.3974 8 12.502 8C12.8728 8 13.2201 7.89905 13.5179 7.72312Z"
        fill="#303233" />
</svg>
