<svg width="24" height="24" viewBox="0 0 24 24" fill="none" xmlns="http://www.w3.org/2000/svg">
    <path fill-rule="evenodd" clip-rule="evenodd"
        d="M12 1C5.92487 1 1 5.92487 1 12C1 18.0751 5.92487 23 12 23C18.0751 23 23 18.0751 23 12C23 5.92487 18.0751 1 12 1ZM4.88369 6.48948C6.53005 4.36645 9.10545 3 12 3C12.5297 3 13.0487 3.04576 13.5533 3.13354L12.7006 7.39696C12.643 7.68463 12.4621 7.93253 12.2056 8.07501L9.06764 9.81834C8.0765 10.369 8.27155 11.8487 9.37152 12.1237L15.0379 13.5403C15.5286 13.663 15.8504 14.1327 15.7877 14.6345L15.5854 16.2529C15.56 16.4557 15.4731 16.6459 15.3364 16.7978L11.5638 20.9896C11.5218 20.9876 11.4799 20.9853 11.4381 20.9827L11.0206 14.3028C10.9799 13.6505 10.5214 13.0996 9.88737 12.9411L7.30742 12.2961C6.97573 12.2132 6.70939 11.9666 6.60127 11.6422L4.88369 6.48948ZM3.56438 8.85608C3.19946 9.83479 3 10.8941 3 12C3 16.0709 5.70275 19.5105 9.41172 20.6223L9.04737 14.7927L6.82235 14.2364C5.82727 13.9877 5.02826 13.2477 4.70391 12.2747L3.56438 8.85608ZM14.5839 20.6236C18.2951 19.5132 21 16.0725 21 12C21 8.26319 18.7226 5.05828 15.4801 3.69752L14.6617 7.7892C14.4891 8.65221 13.9463 9.3959 13.1769 9.82332L11.6994 10.6441L15.523 11.6C16.9949 11.968 17.9604 13.377 17.7722 14.8826L17.5699 16.5009C17.4939 17.1094 17.2332 17.6799 16.823 18.1357L14.5839 20.6236Z"
        fill="#303233" />
</svg>
