<svg width="24" height="24" viewBox="0 0 24 24" fill="none" xmlns="http://www.w3.org/2000/svg">
    <path fill-rule="evenodd" clip-rule="evenodd"
        d="M6 2C3.79086 2 2 3.79086 2 6V18C2 20.2091 3.79086 22 6 22H18C20.2091 22 22 20.2091 22 18V6C22 3.79086 20.2091 2 18 2H6ZM17.9993 20C18.6127 20 19.1615 19.7239 19.5284 19.2892C18.4178 16.2051 15.4661 14 11.9993 14C8.53259 14 5.58087 16.2051 4.47029 19.2892C4.83716 19.7239 5.38601 20 5.99934 20H17.9993ZM11.9993 5C9.79021 5 7.99934 6.79086 7.99934 9C7.99934 11.2091 9.79021 13 11.9993 13C14.2085 13 15.9993 11.2091 15.9993 9C15.9993 6.79086 14.2085 5 11.9993 5Z"
        fill="#303233" />
</svg>
