<svg width="24" height="24" viewBox="0 0 24 24" fill="none" xmlns="http://www.w3.org/2000/svg">
    <path fill-rule="evenodd" clip-rule="evenodd"
        d="M8 4.25C6.48122 4.25 5.25 5.48122 5.25 7V17C5.25 18.5188 6.48122 19.75 8 19.75C9.51878 19.75 10.75 18.5188 10.75 17V7C10.75 5.48122 9.51878 4.25 8 4.25ZM6.75 7C6.75 6.30964 7.30964 5.75 8 5.75C8.69036 5.75 9.25 6.30964 9.25 7V17C9.25 17.6904 8.69036 18.25 8 18.25C7.30964 18.25 6.75 17.6904 6.75 17V7Z"
        fill="#303233" />
    <path fill-rule="evenodd" clip-rule="evenodd"
        d="M16 4.25C14.4812 4.25 13.25 5.48122 13.25 7V17C13.25 18.5188 14.4812 19.75 16 19.75C17.5188 19.75 18.75 18.5188 18.75 17V7C18.75 5.48122 17.5188 4.25 16 4.25ZM14.75 7C14.75 6.30964 15.3096 5.75 16 5.75C16.6904 5.75 17.25 6.30964 17.25 7V17C17.25 17.6904 16.6904 18.25 16 18.25C15.3096 18.25 14.75 17.6904 14.75 17V7Z"
        fill="#303233" />
</svg>
