<svg width="24" height="24" viewBox="0 0 24 24" fill="none" xmlns="http://www.w3.org/2000/svg">
    <path
        d="M8.7679 1.25H15.2321C16.0449 1.24999 16.7006 1.24999 17.2315 1.29336C17.7781 1.33803 18.2582 1.43239 18.7025 1.65873C19.4081 2.01825 19.9817 2.59193 20.3413 3.29754C20.5676 3.74176 20.662 4.2219 20.7066 4.76853C20.75 5.29944 20.75 5.95505 20.75 6.76788V13.5806C20.5083 13.5278 20.2573 13.5 19.9998 13.5C18.0668 13.5 16.4998 15.067 16.4998 17C16.4998 17.8397 16.7955 18.6104 17.2885 19.2135C15.9724 19.9607 14.9952 21.2353 14.6428 22.75H8.76788C7.95505 22.75 7.29944 22.75 6.76853 22.7066C6.2219 22.662 5.74176 22.5676 5.29754 22.3413C4.59193 21.9817 4.01825 21.4081 3.65873 20.7025C3.43239 20.2582 3.33803 19.7781 3.29336 19.2315C3.24999 18.7006 3.24999 18.045 3.25 17.2321V6.7679C3.24999 5.95506 3.24999 5.29944 3.29336 4.76853C3.33803 4.2219 3.43239 3.74176 3.65873 3.29754C4.01825 2.59193 4.59193 2.01825 5.29754 1.65873C5.74176 1.43239 6.2219 1.33803 6.76853 1.29336C7.29944 1.24999 7.95506 1.24999 8.7679 1.25Z"
        fill="#303233" />
    <path
        d="M18 17C18 15.8954 18.8954 15 20 15C21.1045 15 22 15.8954 22 17C22 18.1046 21.1045 19 20 19C18.8954 19 18 18.1046 18 17Z"
        fill="#303233" />
    <path
        d="M23.9305 23.2541C23.5811 21.4014 21.9542 20 20 20C18.0458 20 16.4188 21.4014 16.0694 23.2541C15.9926 23.6611 16.3358 24 16.75 24H23.25C23.6642 24 24.0073 23.6611 23.9305 23.2541Z"
        fill="#303233" />
</svg>
