<svg width="24" height="24" viewBox="0 0 24 24" fill="none" xmlns="http://www.w3.org/2000/svg">
    <path fill-rule="evenodd" clip-rule="evenodd"
        d="M8.33254 1.25C8.34321 1.25 8.35392 1.25 8.36466 1.25L15.6703 1.25C16.0386 1.24998 16.3644 1.24996 16.628 1.27389C16.9013 1.29868 17.2112 1.35568 17.4913 1.54138C17.8757 1.79619 18.1439 2.19243 18.2378 2.64396C18.3062 2.97302 18.244 3.28192 18.1655 3.54483C18.0898 3.79844 17.9688 4.10098 17.832 4.44294L16.8122 6.99245C16.7896 7.04886 16.7773 7.0799 16.7684 7.10374C16.7607 7.12429 16.7598 7.12848 16.7602 7.12678C16.7569 7.13903 16.7545 7.1515 16.753 7.16411C16.7532 7.16235 16.7525 7.16659 16.752 7.18852C16.7515 7.21397 16.7514 7.24738 16.7514 7.30813V9.43875C16.7514 9.54839 16.7515 9.60931 16.7534 9.65553C16.755 9.69572 16.7572 9.70305 16.7565 9.69948C16.761 9.72155 16.7685 9.7429 16.7788 9.76296C16.7771 9.75972 16.7799 9.76686 16.8038 9.79924C16.8312 9.83648 16.8692 9.88413 16.9377 9.96974L18.5296 11.9597C18.8436 12.3521 19.111 12.6864 19.2964 12.9668C19.4785 13.2423 19.6703 13.5909 19.6708 13.9981C19.6714 14.5311 19.429 15.0352 19.0125 15.3677C18.6943 15.6217 18.3022 15.6897 17.9734 15.7196C17.6385 15.75 17.2104 15.75 16.7079 15.75H12.7514V22C12.7514 22.4142 12.4156 22.75 12.0014 22.75C11.5872 22.75 11.2514 22.4142 11.2514 22L11.2514 15.75H7.29493C6.79238 15.75 6.36428 15.75 6.02944 15.7196C5.70058 15.6897 5.30851 15.6217 4.99029 15.3677C4.57377 15.0352 4.33146 14.5311 4.33203 13.9981C4.33247 13.5909 4.52427 13.2423 4.70638 12.9668C4.8918 12.6864 5.15924 12.3521 5.47319 11.9597L7.06514 9.96974C7.13363 9.88413 7.17158 9.83648 7.19903 9.79924C7.22289 9.76687 7.22569 9.75972 7.22404 9.76296C7.23428 9.7429 7.24177 9.72155 7.2463 9.69948C7.24557 9.70305 7.24785 9.69572 7.24944 9.65553C7.25127 9.6093 7.25141 9.54839 7.25141 9.43875V7.30813C7.25141 7.24738 7.25136 7.21397 7.25079 7.18853C7.25029 7.16659 7.24958 7.16235 7.24978 7.16411C7.24833 7.1515 7.24593 7.13902 7.24259 7.12678C7.24306 7.12849 7.24214 7.12429 7.23446 7.10374C7.22554 7.0799 7.21317 7.04886 7.19061 6.99245L6.18274 4.47277C6.17875 4.4628 6.17477 4.45286 6.17081 4.44295C6.034 4.10098 5.91297 3.79845 5.83729 3.54484C5.75883 3.28192 5.69666 2.97302 5.76504 2.64396C5.85887 2.19243 6.12714 1.79619 6.51152 1.54138C6.79165 1.35568 7.10154 1.29868 7.3748 1.27389C7.63837 1.24996 7.96422 1.24998 8.33254 1.25ZM16.6724 14.25C17.2202 14.25 17.5791 14.2493 17.8377 14.2258C18.0019 14.2109 18.0712 14.19 18.0906 14.1835C18.1371 14.1404 18.1656 14.0812 18.1701 14.0179C18.1631 13.9988 18.1361 13.9316 18.0452 13.7941C17.902 13.5775 17.6784 13.2968 17.3361 12.869L15.7664 10.9068C15.7579 10.8962 15.7494 10.8856 15.7409 10.875C15.6367 10.7451 15.5251 10.6061 15.443 10.4454C15.3713 10.305 15.3188 10.1555 15.2871 10.001C15.2508 9.82423 15.2511 9.64601 15.2514 9.47953C15.2514 9.46585 15.2514 9.45226 15.2514 9.43875V7.30813C15.2514 7.3007 15.2514 7.29323 15.2514 7.28571C15.2513 7.1932 15.2512 7.0941 15.2628 6.99325C15.2729 6.905 15.2897 6.81765 15.3131 6.73196C15.3398 6.63402 15.3767 6.54205 15.4111 6.45618C15.4139 6.4492 15.4167 6.44226 15.4195 6.43537L16.4274 3.91568C16.5797 3.53481 16.6743 3.29626 16.7282 3.11591C16.7613 3.00493 16.7663 2.95433 16.7671 2.94012C16.7528 2.88236 16.7185 2.83156 16.6701 2.79688C16.6566 2.79233 16.6078 2.77821 16.4924 2.76775C16.305 2.75073 16.0484 2.75 15.6382 2.75H8.36466C7.95445 2.75 7.69781 2.75073 7.51037 2.76775C7.39503 2.77821 7.34618 2.79233 7.33269 2.79688C7.28436 2.83156 7.24997 2.88236 7.23572 2.94012C7.2365 2.95433 7.24154 3.00493 7.27465 3.11591C7.32847 3.29626 7.42311 3.53481 7.57545 3.91569L8.58333 6.43537C8.58609 6.44226 8.58887 6.4492 8.59166 6.45617C8.62609 6.54204 8.66298 6.63402 8.6897 6.73196C8.71308 6.81765 8.7299 6.905 8.74002 6.99325C8.75158 7.09411 8.7515 7.1932 8.75142 7.28572C8.75141 7.29324 8.75141 7.30071 8.75141 7.30813V9.43875C8.75141 9.45226 8.75143 9.46585 8.75145 9.47952C8.7517 9.64601 8.75196 9.82423 8.71568 10.001C8.68398 10.1555 8.63155 10.305 8.55981 10.4454C8.47769 10.6061 8.36614 10.7451 8.26194 10.875C8.25339 10.8856 8.24488 10.8962 8.23645 10.9068L6.66667 12.869C6.32446 13.2968 6.10084 13.5775 5.95765 13.7941C5.86671 13.9316 5.83974 13.9988 5.83268 14.0179C5.83722 14.0812 5.86568 14.1404 5.91225 14.1835C5.93162 14.19 6.00091 14.2109 6.16513 14.2258C6.42371 14.2493 6.7826 14.25 7.33041 14.25H16.6724Z"
        fill="#303233" />
</svg>
