<svg width="24" height="24" viewBox="0 0 24 24" fill="none" xmlns="http://www.w3.org/2000/svg">
    <g clip-path="url(#clip0_53_4157)">
        <path
            d="M8 2H7.7587C6.95374 1.99999 6.28937 1.99998 5.74818 2.04419C5.18608 2.09012 4.66937 2.18868 4.18404 2.43598C3.43139 2.81947 2.81947 3.43139 2.43598 4.18404C2.18868 4.66937 2.09012 5.18608 2.04419 5.74818C1.99998 6.28937 1.99999 6.95372 2 7.75869V8C2 8.55229 2.44772 9 3 9C3.55229 9 4 8.55229 4 8V7.8C4 6.94342 4.00078 6.36113 4.03755 5.91104C4.07337 5.47262 4.1383 5.24842 4.21799 5.09202C4.40973 4.7157 4.7157 4.40973 5.09202 4.21799C5.24842 4.1383 5.47262 4.07337 5.91104 4.03755C6.36113 4.00078 6.94342 4 7.8 4H8C8.55229 4 9 3.55229 9 3C9 2.44772 8.55229 2 8 2Z"
            fill="#303233" />
        <path
            d="M16.2 4C17.0566 4 17.6389 4.00078 18.089 4.03755C18.5274 4.07337 18.7516 4.1383 18.908 4.21799C19.2843 4.40974 19.5903 4.7157 19.782 5.09202C19.8617 5.24842 19.9266 5.47262 19.9624 5.91104C19.9992 6.36113 20 6.94342 20 7.8V8C20 8.55229 20.4477 9 21 9C21.5523 9 22 8.55229 22 8V7.75868C22 6.95372 22 6.28936 21.9558 5.74818C21.9099 5.18608 21.8113 4.66937 21.564 4.18404C21.1805 3.43139 20.5686 2.81947 19.816 2.43598C19.3306 2.18868 18.8139 2.09012 18.2518 2.04419C17.7106 1.99998 17.0463 1.99999 16.2413 2H16C15.4477 2 15 2.44772 15 3C15 3.55229 15.4477 4 16 4H16.2Z"
            fill="#303233" />
        <path
            d="M4 16C4 15.4477 3.55229 15 3 15C2.44772 15 2 15.4477 2 16V16.2413C1.99999 17.0463 1.99998 17.7106 2.04419 18.2518C2.09012 18.8139 2.18868 19.3306 2.43598 19.816C2.81947 20.5686 3.43139 21.1805 4.18404 21.564C4.66937 21.8113 5.18608 21.9099 5.74818 21.9558C6.28937 22 6.95372 22 7.75868 22H8C8.55229 22 9 21.5523 9 21C9 20.4477 8.55229 20 8 20H7.8C6.94342 20 6.36113 19.9992 5.91104 19.9624C5.47262 19.9266 5.24842 19.8617 5.09202 19.782C4.7157 19.5903 4.40974 19.2843 4.21799 18.908C4.1383 18.7516 4.07337 18.5274 4.03755 18.089C4.00078 17.6389 4 17.0566 4 16.2V16Z"
            fill="#303233" />
        <path fill-rule="evenodd" clip-rule="evenodd"
            d="M15.3639 12H20.6361C21.0251 12 21.3753 12 21.6666 12.0238C21.9786 12.0492 22.3101 12.1069 22.635 12.2725C23.1054 12.5122 23.4878 12.8946 23.7275 13.365C23.8931 13.6899 23.9508 14.0214 23.9762 14.3334C24 14.6247 24 14.9748 24 15.3639V20.6361C24 21.0252 24 21.3753 23.9762 21.6666C23.9508 21.9786 23.8931 22.3101 23.7275 22.635C23.4878 23.1054 23.1054 23.4878 22.635 23.7275C22.3101 23.8931 21.9786 23.9508 21.6666 23.9762C21.3753 24 21.0252 24 20.6361 24H15.3639C14.9748 24 14.6247 24 14.3334 23.9762C14.0214 23.9508 13.6899 23.8931 13.365 23.7275C12.8946 23.4878 12.5122 23.1054 12.2725 22.635C12.1069 22.3101 12.0492 21.9786 12.0238 21.6666C12 21.3753 12 21.0252 12 20.6362V15.3639C12 14.9749 12 14.6247 12.0238 14.3334C12.0492 14.0214 12.1069 13.6899 12.2725 13.365C12.5122 12.8946 12.8946 12.5122 13.365 12.2725C13.6899 12.1069 14.0214 12.0492 14.3334 12.0238C14.6247 12 14.9749 12 15.3639 12ZM15 18C15 16.3431 16.3431 15 18 15C19.6569 15 21 16.3431 21 18C21 19.6569 19.6569 21 18 21C16.3431 21 15 19.6569 15 18Z"
            fill="#303233" />
    </g>
    <defs>
        <clipPath id="clip0_53_4157">
            <rect width="24" height="24" fill="white" />
        </clipPath>
    </defs>
</svg>
