<svg width="24" height="24" viewBox="0 0 24 24" fill="none" xmlns="http://www.w3.org/2000/svg">
    <path fill-rule="evenodd" clip-rule="evenodd"
        d="M11 5.25C7.82436 5.25 5.25 7.82436 5.25 11C5.25 14.1756 7.82436 16.75 11 16.75C14.1756 16.75 16.75 14.1756 16.75 11C16.75 7.82436 14.1756 5.25 11 5.25ZM8 10.25C7.58579 10.25 7.25 10.5858 7.25 11C7.25 11.4142 7.58579 11.75 8 11.75H14C14.4142 11.75 14.75 11.4142 14.75 11C14.75 10.5858 14.4142 10.25 14 10.25H8Z"
        fill="#303233" />
    <path fill-rule="evenodd" clip-rule="evenodd"
        d="M19.75 11C19.75 13.1461 18.9774 15.1118 17.6951 16.634L21.5307 20.4697C21.8236 20.7626 21.8236 21.2374 21.5307 21.5303C21.2378 21.8232 20.763 21.8232 20.4701 21.5303L16.6344 17.6947C15.1122 18.9772 13.1463 19.75 11 19.75C6.16751 19.75 2.25 15.8325 2.25 11C2.25 6.16751 6.16751 2.25 11 2.25C15.8325 2.25 19.75 6.16751 19.75 11ZM3.75 11C3.75 6.99594 6.99594 3.75 11 3.75C15.0041 3.75 18.25 6.99594 18.25 11C18.25 12.9611 17.4714 14.7403 16.2064 16.0454C16.1762 16.0676 16.1473 16.0924 16.1201 16.1197C16.0928 16.147 16.068 16.1758 16.0458 16.206C14.7407 17.4712 12.9613 18.25 11 18.25C6.99594 18.25 3.75 15.0041 3.75 11Z"
        fill="#303233" />
</svg>
