<svg width="24" height="24" viewBox="0 0 24 24" fill="none" xmlns="http://www.w3.org/2000/svg">
<path d="M17.8002 11.6C21.2243 11.6001 24.0004 14.3761 24.0004 17.8002C24.0003 21.2242 21.2242 24.0003 17.8002 24.0004C14.3761 24.0004 11.6001 21.2243 11.6 17.8002C11.6 14.376 14.376 11.6 17.8002 11.6ZM17.6 19.35C17.1858 19.35 16.85 19.6858 16.85 20.1C16.8501 20.5142 17.1858 20.85 17.6 20.85C18.0142 20.85 18.3499 20.5142 18.35 20.1C18.35 19.6858 18.0142 19.35 17.6 19.35ZM17.6 14.6C17.1858 14.6 16.85 14.9358 16.85 15.35V17.85C16.85 18.2642 17.1858 18.6 17.6 18.6C18.0142 18.6 18.35 18.2642 18.35 17.85V15.35C18.35 14.9358 18.0142 14.6 17.6 14.6Z" fill="#303233"/>
</svg>
