<svg width="24" height="24" viewBox="0 0 24 24" fill="none" xmlns="http://www.w3.org/2000/svg">
    <path fill-rule="evenodd" clip-rule="evenodd"
        d="M6.78799 2H18.212C19.0305 1.99999 19.7061 1.99998 20.2561 2.04565C20.8274 2.0931 21.3523 2.19496 21.8439 2.45035C22.5745 2.82985 23.1702 3.42553 23.5497 4.1561C23.805 4.64774 23.9069 5.17258 23.9543 5.74393C24 6.29392 24 6.96944 24 7.78793V16.212C24 17.0305 24 17.7061 23.9543 18.2561C23.9069 18.8274 23.805 19.3523 23.5497 19.8439C23.1702 20.5745 22.5745 21.1702 21.8439 21.5497C21.3523 21.805 20.8274 21.9069 20.2561 21.9543C19.7061 22 19.0306 22 18.2121 22H6.78802C5.96953 22 5.29392 22 4.74393 21.9543C4.17258 21.9069 3.64774 21.805 3.1561 21.5497C2.42553 21.1702 1.82985 20.5745 1.45035 19.8439C1.19496 19.3523 1.0931 18.8274 1.04565 18.2561C0.999977 17.7061 0.999988 17.0305 1 16.212V7.78799C0.999988 6.96948 0.999977 6.29393 1.04565 5.74393C1.0931 5.17258 1.19496 4.64774 1.45035 4.1561C1.82985 3.42553 2.42553 2.82985 3.1561 2.45035C3.64774 2.19496 4.17258 2.0931 4.74393 2.04565C5.29393 1.99998 5.96948 1.99999 6.78799 2ZM4.90945 4.03879C4.46402 4.07578 4.23663 4.1428 4.07805 4.22517C3.71277 4.41493 3.41493 4.71277 3.22517 5.07805C3.1428 5.23663 3.07578 5.46402 3.03879 5.90945C3.0008 6.36686 3 6.95898 3 7.83V8H8V4H6.83C5.95898 4 5.36686 4.0008 4.90945 4.03879ZM3 10H8V14H3V10ZM10 10V14H15V10H10ZM17 10V14H22V10H17ZM15 16H10V20H15V16ZM17 20V16H22V16.17C22 17.041 21.9992 17.6331 21.9612 18.0905C21.9242 18.536 21.8572 18.7634 21.7748 18.9219C21.5851 19.2872 21.2872 19.5851 20.9219 19.7748C20.7634 19.8572 20.536 19.9242 20.0905 19.9612C19.6331 19.9992 19.041 20 18.17 20H17ZM17 8V4H18.17C19.041 4 19.6331 4.0008 20.0905 4.03879C20.536 4.07578 20.7634 4.1428 20.9219 4.22517C21.2872 4.41493 21.5851 4.71277 21.7748 5.07805C21.8572 5.23663 21.9242 5.46402 21.9612 5.90945C21.9992 6.36686 22 6.95898 22 7.83V8H17ZM15 4V8H10V4H15ZM3 16H8V20H6.83C5.95898 20 5.36686 19.9992 4.90945 19.9612C4.46402 19.9242 4.23663 19.8572 4.07805 19.7748C3.71277 19.5851 3.41493 19.2872 3.22517 18.9219C3.1428 18.7634 3.07578 18.536 3.03879 18.0905C3.0008 17.6331 3 17.041 3 16.17V16Z"
        fill="#303233" />
</svg>
