<svg width="24" height="24" viewBox="0 0 24 24" fill="none" xmlns="http://www.w3.org/2000/svg">
    <path fill-rule="evenodd" clip-rule="evenodd"
        d="M3 2.25C2.58579 2.25 2.25 2.58579 2.25 3V17C2.25 19.6234 4.37665 21.75 7 21.75H17C19.6234 21.75 21.75 19.6234 21.75 17V3C21.75 2.58579 21.4142 2.25 21 2.25H3ZM8.5 5.25C6.70507 5.25 5.25 6.70507 5.25 8.5C5.25 10.2949 6.70507 11.75 8.5 11.75C10.2949 11.75 11.75 10.2949 11.75 8.5C11.75 6.70507 10.2949 5.25 8.5 5.25ZM14 9.25C13.5858 9.25 13.25 9.58579 13.25 10V14C13.25 14.4142 13.5858 14.75 14 14.75H18C18.4142 14.75 18.75 14.4142 18.75 14V10C18.75 9.58579 18.4142 9.25 18 9.25H14ZM10 13.25C10.2361 13.25 10.4584 13.3611 10.6 13.55L13.6 17.55C13.7705 17.7773 13.7979 18.0813 13.6708 18.3354C13.5438 18.5895 13.2841 18.75 13 18.75H7C6.71593 18.75 6.45623 18.5895 6.32918 18.3354C6.20214 18.0813 6.22956 17.7773 6.4 17.55L9.4 13.55C9.54165 13.3611 9.76394 13.25 10 13.25Z"
        fill="#303233" />
</svg>
