<svg width="24" height="24" viewBox="0 0 24 24" fill="none" xmlns="http://www.w3.org/2000/svg">
    <path fill-rule="evenodd" clip-rule="evenodd"
        d="M12 2.75C6.89137 2.75 2.75 6.89137 2.75 12C2.75 17.1086 6.89137 21.25 12 21.25C17.1086 21.25 21.25 17.1086 21.25 12C21.25 6.89137 17.1086 2.75 12 2.75ZM1.25 12C1.25 6.06294 6.06294 1.25 12 1.25C17.9371 1.25 22.75 6.06294 22.75 12C22.75 17.9371 17.9371 22.75 12 22.75C6.06294 22.75 1.25 17.9371 1.25 12ZM12 6.25C12.4142 6.25 12.75 6.58579 12.75 7V12C12.75 12.4142 12.4142 12.75 12 12.75C11.5858 12.75 11.25 12.4142 11.25 12V7C11.25 6.58579 11.5858 6.25 12 6.25ZM8.45051 8.39989C8.78167 8.6487 8.84843 9.11886 8.59962 9.45002C8.06595 10.1603 7.75 11.0422 7.75 12C7.75 14.3472 9.65279 16.25 12 16.25C14.3472 16.25 16.25 14.3472 16.25 12C16.25 11.0422 15.9341 10.1603 15.4004 9.45002C15.1516 9.11886 15.2183 8.6487 15.5495 8.39989C15.8807 8.15108 16.3508 8.21785 16.5996 8.54901C17.3218 9.51018 17.75 10.7062 17.75 12C17.75 15.1756 15.1756 17.75 12 17.75C8.82436 17.75 6.25 15.1756 6.25 12C6.25 10.7062 6.67823 9.51018 7.40038 8.54901C7.64919 8.21785 8.11935 8.15108 8.45051 8.39989Z"
        fill="#303233" />
</svg>
