<svg width="24" height="24" viewBox="0 0 24 24" fill="none" xmlns="http://www.w3.org/2000/svg">
    <path fill-rule="evenodd" clip-rule="evenodd"
        d="M17.9754 4.08078C18.6002 4.07309 19.1927 4.35785 19.577 4.85055C19.8698 5.22596 19.9399 5.674 19.9696 6.00669C20.0001 6.3475 20 6.77817 20 7.26447V16.7355C20 17.2218 20.0001 17.6525 19.9696 17.9933C19.9399 18.326 19.8698 18.774 19.577 19.1495C19.1927 19.6421 18.6002 19.9269 17.9754 19.9192C17.4993 19.9134 17.1057 19.6882 16.8273 19.5036C16.5422 19.3144 16.2059 19.0454 15.8262 18.7416L9.89928 14C9.66106 13.8095 9.43488 13.6286 9.25971 13.4618C9.07202 13.283 8.86026 13.0458 8.73424 12.7183C8.55629 12.256 8.55629 11.744 8.73424 11.2817C8.86026 10.9542 9.07202 10.717 9.25971 10.5382C9.43487 10.3714 9.66105 10.1905 9.89927 9.99996C9.90859 9.9925 9.91793 9.98503 9.92728 9.97755L15.8262 5.25844C16.2059 4.95462 16.5422 4.68556 16.8273 4.49644C17.1057 4.31184 17.4993 4.08664 17.9754 4.08078ZM17.9327 6.1632C17.7314 6.29672 17.4658 6.50801 17.0414 6.84748L11.1767 11.5393C10.9003 11.7604 10.7438 11.8867 10.6391 11.9865C10.6341 11.9912 10.6294 11.9957 10.625 12C10.6294 12.0043 10.6341 12.0088 10.6391 12.0135C10.7438 12.1133 10.9003 12.2396 11.1767 12.4607L17.0414 17.1525C17.4658 17.492 17.7314 17.7033 17.9327 17.8368C17.9471 17.8463 17.9605 17.855 17.9728 17.8628C17.9744 17.8483 17.976 17.8324 17.9775 17.8153C17.999 17.5747 18 17.2352 18 16.6918V7.30819C18 6.76477 17.999 6.42535 17.9775 6.18473C17.976 6.16756 17.9744 6.15174 17.9728 6.13722C17.9605 6.14504 17.9471 6.15367 17.9327 6.1632Z"
        fill="#303233" />
    <path fill-rule="evenodd" clip-rule="evenodd"
        d="M5 4C5.55228 4 6 4.44772 6 5V19C6 19.5523 5.55228 20 5 20C4.44772 20 4 19.5523 4 19V5C4 4.44772 4.44772 4 5 4Z"
        fill="#303233" />
</svg>
