<svg width="16" height="16" viewBox="0 0 16 16" fill="none" xmlns="http://www.w3.org/2000/svg">
    <path
        d="M7.44209 7.60654C7.85486 7.572 8.16147 7.20938 8.12693 6.79661C8.09239 6.38384 7.72977 6.07722 7.317 6.11177C5.53743 6.26069 3.92173 6.98615 2.65822 8.0992C2.3474 8.373 2.31739 8.84692 2.59119 9.15774C2.865 9.46855 3.33892 9.49856 3.64974 9.22476C4.67993 8.31725 5.99441 7.7277 7.44209 7.60654Z"
        fill="#303233" />
    <path
        d="M7.99928 10.9167C7.23133 10.9167 6.52743 11.1821 5.97135 11.6268C5.64786 11.8855 5.1759 11.833 4.9172 11.5095C4.6585 11.186 4.71102 10.714 5.03451 10.4553C5.84691 9.80563 6.8787 9.41667 7.99928 9.41667C9.1031 9.41667 10.1209 9.79411 10.9276 10.4265C11.2536 10.682 11.3107 11.1534 11.0552 11.4794C10.7996 11.8054 10.3282 11.8625 10.0022 11.607C9.45013 11.1743 8.75583 10.9167 7.99928 10.9167Z"
        fill="#303233" />
    <path
        d="M7.99935 12.75C7.58514 12.75 7.24935 13.0858 7.24935 13.5C7.24935 13.9142 7.58514 14.25 7.99935 14.25H8.00602C8.42023 14.25 8.75602 13.9142 8.75602 13.5C8.75602 13.0858 8.42023 12.75 8.00602 12.75H7.99935Z"
        fill="#303233" />
    <path fill-rule="evenodd" clip-rule="evenodd"
        d="M0.290177 5.74756C2.32097 3.88661 5.02922 2.75 8.00124 2.75C8.36122 2.75 8.71751 2.76668 9.06935 2.79936C9.48179 2.83766 9.78509 3.20305 9.74679 3.61549C9.70849 4.02793 9.3431 4.33123 8.93066 4.29293C8.62486 4.26453 8.31485 4.25 8.00124 4.25C5.41891 4.25 3.06862 5.23604 1.30358 6.85346C0.998197 7.1333 0.523775 7.11259 0.243931 6.80721C-0.0359136 6.50182 -0.0152084 6.0274 0.290177 5.74756Z"
        fill="#303233" />
    <path fill-rule="evenodd" clip-rule="evenodd"
        d="M12.5 2.75C12.817 2.75 13.0997 2.94925 13.2063 3.24775L13.6518 4.49507C13.7106 4.65978 13.8402 4.7894 14.0049 4.84822L15.2523 5.29369C15.5507 5.4003 15.75 5.68304 15.75 6C15.75 6.31696 15.5507 6.5997 15.2523 6.70631L14.0049 7.15178C13.8402 7.2106 13.7106 7.34022 13.6518 7.50493L13.2063 8.75225C13.0997 9.05075 12.817 9.25 12.5 9.25C12.183 9.25 11.9003 9.05075 11.7937 8.75225L11.3482 7.50493C11.2894 7.34022 11.1598 7.2106 10.9951 7.15178L9.74775 6.70631C9.44925 6.5997 9.25 6.31696 9.25 6C9.25 5.68304 9.44925 5.4003 9.74775 5.29369L10.9951 4.84822C11.1598 4.7894 11.2894 4.65978 11.3482 4.49507L11.7937 3.24775C11.9003 2.94925 12.183 2.75 12.5 2.75Z"
        fill="#303233" />
</svg>
