<svg width="16" height="16" viewBox="0 0 16 16" fill="none" xmlns="http://www.w3.org/2000/svg">
    <path
        d="M2.75 5C2.75 3.20507 4.20507 1.75 6 1.75C7.79493 1.75 9.25 3.20507 9.25 5C9.25 6.79493 7.79493 8.25 6 8.25C4.20507 8.25 2.75 6.79493 2.75 5Z"
        fill="#303233" />
    <path
        d="M0.364606 13.3508C0.897431 10.7259 3.21692 8.75 5.9996 8.75C8.78227 8.75 11.1018 10.7259 11.6346 13.3508C11.6794 13.5714 11.6227 13.8004 11.4803 13.9747C11.3378 14.1489 11.1247 14.25 10.8996 14.25H1.09962C0.874544 14.25 0.66137 14.1489 0.518927 13.9747C0.376484 13.8004 0.319832 13.5714 0.364606 13.3508Z"
        fill="#303233" />
    <path
        d="M10.4697 7.46967C10.1768 7.76256 10.1768 8.23744 10.4697 8.53033L12.4697 10.5303C12.7626 10.8232 13.2374 10.8232 13.5303 10.5303C13.8232 10.2374 13.8232 9.76256 13.5303 9.46967L12.8107 8.75H15C15.4142 8.75 15.75 8.41421 15.75 8C15.75 7.58579 15.4142 7.25 15 7.25H12.8107L13.5303 6.53033C13.8232 6.23744 13.8232 5.76256 13.5303 5.46967C13.2374 5.17678 12.7626 5.17678 12.4697 5.46967L10.4697 7.46967Z"
        fill="#303233" />
</svg>
