<svg width="24" height="24" viewBox="0 0 24 24" fill="none" xmlns="http://www.w3.org/2000/svg">
    <path fill-rule="evenodd" clip-rule="evenodd"
        d="M1.46967 1.46967C1.76256 1.17678 2.23744 1.17678 2.53033 1.46967L22.5303 21.4697C22.8232 21.7626 22.8232 22.2374 22.5303 22.5303C22.2374 22.8232 21.7626 22.8232 21.4697 22.5303L17.0795 18.1402C16.4023 19.1129 15.2761 19.75 14 19.75H5C2.92893 19.75 1.25 18.0711 1.25 16V8C1.25 6.46189 2.17602 5.14006 3.50096 4.56162L1.46967 2.53033C1.17678 2.23744 1.17678 1.76256 1.46967 1.46967ZM4.7081 5.76876C3.60336 5.91187 2.75 6.85628 2.75 8V16C2.75 17.2426 3.75736 18.25 5 18.25H14C14.8623 18.25 15.6126 17.7645 15.9902 17.0509L4.7081 5.76876ZM14.1093 5.78838C13.6467 5.75058 13.0525 5.75 12.2 5.75H9.5C9.08579 5.75 8.75 5.41421 8.75 5C8.75 4.58579 9.08579 4.25 9.5 4.25H12.2321C13.0449 4.24999 13.7006 4.24999 14.2315 4.29336C14.7781 4.33803 15.2582 4.43238 15.7025 4.65873C16.4081 5.01825 16.9817 5.59193 17.3413 6.29754C17.5676 6.74175 17.662 7.2219 17.7066 7.76853C17.75 8.29944 17.75 8.95505 17.75 9.76788V10.1893L20.1258 7.81355C20.3211 7.61818 20.5018 7.43743 20.6578 7.30688C20.8005 7.18739 21.0575 6.98807 21.4019 6.96096C21.8008 6.92957 22.1906 7.09103 22.4505 7.3953C22.6749 7.65804 22.7157 7.98068 22.7321 8.16609C22.75 8.36866 22.75 8.62426 22.75 8.90054V15.0995C22.75 15.3757 22.75 15.6313 22.7321 15.8339C22.7157 16.0193 22.6749 16.342 22.4505 16.6047C22.1906 16.909 21.8008 17.0704 21.4019 17.039C21.0575 17.0119 20.8005 16.8126 20.6578 16.6931C20.5019 16.5626 20.3212 16.3818 20.1258 16.1865L16.4697 12.5303C16.329 12.3897 16.25 12.1989 16.25 12V9.8C16.25 8.94755 16.2494 8.35331 16.2116 7.89068C16.1745 7.4368 16.1054 7.17604 16.0048 6.97852C15.789 6.55516 15.4448 6.21095 15.0215 5.99523C14.824 5.8946 14.5632 5.82546 14.1093 5.78838ZM18.0607 12L21.1646 15.104C21.1947 15.134 21.2231 15.1624 21.2499 15.1892C21.25 15.1512 21.25 15.1111 21.25 15.0686V8.93137C21.25 8.88891 21.25 8.84878 21.2499 8.81081C21.2231 8.83763 21.1947 8.86599 21.1646 8.89602L18.0607 12Z"
        fill="#303233" />
</svg>
