<svg width="24" height="24" viewBox="0 0 24 24" fill="none" xmlns="http://www.w3.org/2000/svg">
    <path
        d="M12 1.25C10.6398 1.25 9.32202 1.66053 8.2122 2.41292C8.02697 2.5385 7.90749 2.74023 7.8864 2.96302C7.86531 3.1858 7.9448 3.40637 8.10317 3.56448L18.1185 13.5632C18.3612 13.8054 18.7372 13.8523 19.0319 13.677C19.3265 13.5017 19.4648 13.1489 19.3677 12.8201C19.0118 11.6144 18.75 10.036 18.75 8C18.75 6.20979 18.0388 4.4929 16.773 3.22703C15.5071 1.96116 13.7902 1.25 12 1.25Z"
        fill="#303233" />
    <path
        d="M3.53033 2.46967C3.23744 2.17678 2.76256 2.17678 2.46967 2.46967C2.17678 2.76256 2.17678 3.23744 2.46967 3.53033L5.42259 6.48325C5.30877 6.97681 5.25 7.4854 5.25 8C5.25 10.9571 4.50611 12.9344 3.71288 14.2092L3.70378 14.2238C3.34415 14.8017 3.06348 15.2528 2.87519 15.5795C2.78088 15.7431 2.69878 15.8943 2.63951 16.0248C2.60991 16.09 2.57892 16.1653 2.55531 16.2446C2.53528 16.3119 2.50091 16.4441 2.51382 16.6019C2.52408 16.7273 2.54834 16.9183 2.65643 17.1129C2.76451 17.3075 2.9139 17.429 3.01495 17.5039C3.21395 17.6516 3.44896 17.6868 3.54072 17.7004C3.67464 17.7202 3.83124 17.7307 3.99726 17.7371C4.32756 17.75 4.78766 17.75 5.36961 17.75H16.6893L20.4697 21.5303C20.7626 21.8232 21.2374 21.8232 21.5303 21.5303C21.8232 21.2374 21.8232 20.7626 21.5303 20.4697L6.8173 5.75664C6.79883 5.73599 6.77916 5.7163 6.75837 5.69771L3.53033 2.46967Z"
        fill="#303233" />
    <path
        d="M9.85048 20.4377C9.53992 20.1636 9.06597 20.1931 8.79187 20.5037C8.51777 20.8143 8.54732 21.2882 8.85788 21.5623C9.69477 22.301 10.7959 22.75 12 22.75C13.2041 22.75 14.3052 22.301 15.1421 21.5623C15.4527 21.2882 15.4822 20.8143 15.2081 20.5037C14.934 20.1931 14.4601 20.1636 14.1495 20.4377C13.5761 20.9438 12.8248 21.25 12 21.25C11.1752 21.25 10.4239 20.9438 9.85048 20.4377Z"
        fill="#303233" />
</svg>
