<svg width="24" height="24" viewBox="0 0 24 24" fill="none" xmlns="http://www.w3.org/2000/svg">
    <path
        d="M3.29285 5.29289C3.48038 5.10536 3.73474 5 3.99995 5H20C20.2652 5 20.5195 5.10536 20.7071 5.29289C20.8946 5.48043 21 5.73478 21 6V18C21 18.2652 20.8946 18.5196 20.7071 18.7071C20.5195 18.8946 20.2652 19 20 19H14C13.4477 19 13 19.4477 13 20C13 20.5523 13.4477 21 14 21H20C20.7956 21 21.5587 20.6839 22.1213 20.1213C22.6839 19.5587 23 18.7957 23 18V6C23 5.20435 22.6839 4.44129 22.1213 3.87868C21.5587 3.31607 20.7956 3 20 3H3.99995C3.2043 3 2.44124 3.31607 1.87863 3.87868C1.31602 4.44129 0.999953 5.20435 0.999953 6V8C0.999953 8.55228 1.44767 9 1.99995 9C2.55224 9 2.99995 8.55228 2.99995 8V6C2.99995 5.73478 3.10531 5.48043 3.29285 5.29289Z"
        fill="#303233" />
    <path
        d="M2.11049 11.0561C1.56159 10.9951 1.06713 11.3906 1.00608 11.9395C0.945032 12.4884 1.34051 12.9828 1.88941 13.0439C3.69456 13.2446 5.37766 14.0537 6.66196 15.338C7.94626 16.6223 8.75531 18.3054 8.95608 20.1105C9.01713 20.6594 9.51159 21.0549 10.0605 20.9939C10.6094 20.9328 11.0049 20.4384 10.9438 19.8895C10.6929 17.633 9.68155 15.5292 8.07617 13.9238C6.4708 12.3184 4.36692 11.3071 2.11049 11.0561Z"
        fill="#303233" />
    <path
        d="M2.19978 15.1202C1.65864 15.0098 1.13049 15.359 1.02012 15.9002C0.909759 16.4413 1.25898 16.9695 1.80012 17.0798C2.56884 17.2366 3.27448 17.616 3.82923 18.1707C4.38398 18.7255 4.76335 19.4311 4.92012 20.1998C5.03049 20.741 5.55864 21.0902 6.09978 20.9798C6.64093 20.8695 6.99015 20.3413 6.87978 19.8002C6.64462 18.6471 6.07557 17.5886 5.24344 16.7565C4.41131 15.9244 3.35285 15.3553 2.19978 15.1202Z"
        fill="#303233" />
    <path
        d="M2 19C1.44772 19 1 19.4477 1 20C1 20.5523 1.44772 21 2 21H2.01C2.56228 21 3.01 20.5523 3.01 20C3.01 19.4477 2.56228 19 2.01 19H2Z"
        fill="#303233" />
</svg>
