<svg width="24" height="24" viewBox="0 0 24 24" fill="none" xmlns="http://www.w3.org/2000/svg">
    <path
        d="M21.5303 3.53033C21.8232 3.23744 21.8232 2.76256 21.5303 2.46967C21.2374 2.17678 20.7626 2.17678 20.4697 2.46967L2.46967 20.4697C2.17678 20.7626 2.17678 21.2374 2.46967 21.5303C2.76256 21.8232 3.23744 21.8232 3.53033 21.5303L8.53862 16.522C10.823 18.6507 13.5014 20.1162 16.3284 20.9186C16.8928 21.0788 17.1751 21.1589 17.588 21.1601C18.0462 21.1615 18.6667 21.0001 19.0662 20.7757C19.4263 20.5735 19.6911 20.3087 20.2207 19.779L20.3783 19.6214C20.9098 19.09 21.1755 18.8242 21.3198 18.5389C21.6069 17.9713 21.6069 17.301 21.3198 16.7335C21.1755 16.4481 20.9098 16.1824 20.3783 15.6509L20.1835 15.4561C19.8339 15.1064 19.6591 14.9316 19.4833 14.8174C18.8204 14.3864 17.9658 14.3864 17.3029 14.8174C17.1271 14.9316 16.9523 15.1064 16.6028 15.456C16.4885 15.5703 16.4313 15.6275 16.3644 15.6754C16.127 15.8454 15.7828 15.9041 15.5024 15.8224C15.4235 15.7994 15.3612 15.7694 15.2365 15.7096C13.9832 15.1078 12.7978 14.3171 11.7232 13.3374L21.5303 3.53033Z"
        fill="#303233" />
    <path
        d="M9.43745 11.296C9.38028 11.4381 9.25192 11.5664 8.99521 11.8232L7.46382 13.3545C7.13554 13.6828 6.9714 13.847 6.77512 13.8985C6.61001 13.9419 6.41371 13.9231 6.25984 13.8492C6.07691 13.7613 5.95449 13.5803 5.70966 13.2181C4.56012 11.5179 3.71397 9.67362 3.17123 7.76142C3.01103 7.19698 2.93092 6.91476 2.9297 6.50182C2.92833 6.0436 3.08969 5.42311 3.31412 5.0236C3.51636 4.66357 3.78117 4.39876 4.31079 3.86914L4.46843 3.7115C4.99987 3.18006 5.2656 2.91433 5.55098 2.76999C6.11854 2.48292 6.7888 2.48292 7.35636 2.76999C7.64174 2.91433 7.90747 3.18006 8.43891 3.7115L8.63378 3.90637C8.98338 4.25597 9.15819 4.43078 9.27247 4.60655C9.70347 5.26945 9.70347 6.12403 9.27247 6.78692C9.15819 6.96269 8.98338 7.1375 8.63378 7.4871C8.51947 7.60142 8.46231 7.65857 8.41447 7.72538C8.24446 7.96281 8.18576 8.30707 8.26748 8.58743C8.29048 8.66632 8.32041 8.72866 8.38028 8.85335C8.60877 9.32926 8.86451 9.79535 9.14749 10.2493C9.35526 10.5826 9.45914 10.7492 9.48272 10.9006C9.50462 11.0411 9.49056 11.164 9.43745 11.296Z"
        fill="#303233" />
</svg>
