<svg width="16" height="16" viewBox="0 0 16 16" fill="none" xmlns="http://www.w3.org/2000/svg">
    <g clip-path="url(#clip0_53_5291)">
        <path
            d="M7.71291 0.806909C7.62445 0.843509 7.54158 0.897763 7.46967 0.96967L5.46967 2.96967C5.17678 3.26256 5.17678 3.73744 5.46967 4.03033C5.76256 4.32322 6.23744 4.32322 6.53033 4.03033L7.25 3.31066V5.5C7.25 5.91421 7.58579 6.25 8 6.25C8.41421 6.25 8.75 5.91421 8.75 5.5V3.31066L9.46967 4.03033C9.76256 4.32322 10.2374 4.32322 10.5303 4.03033C10.8232 3.73744 10.8232 3.26256 10.5303 2.96967L8.53033 0.96967C8.39461 0.833947 8.20711 0.75 8 0.75L7.71291 0.806909Z"
            fill="#303233" />
        <path
            d="M4.03033 6.53033C4.32322 6.23744 4.32322 5.76256 4.03033 5.46967C3.73744 5.17678 3.26256 5.17678 2.96967 5.46967L0.96967 7.46967C0.676777 7.76256 0.676777 8.23744 0.96967 8.53033L2.96967 10.5303C3.26256 10.8232 3.73744 10.8232 4.03033 10.5303C4.32322 10.2374 4.32322 9.76256 4.03033 9.46967L3.31066 8.75H5.5C5.91421 8.75 6.25 8.41421 6.25 8C6.25 7.58579 5.91421 7.25 5.5 7.25H3.31066L4.03033 6.53033Z"
            fill="#303233" />
        <path
            d="M13.0303 5.46967C12.7374 5.17678 12.2626 5.17678 11.9697 5.46967C11.6768 5.76256 11.6768 6.23744 11.9697 6.53033L12.6893 7.25H10.5C10.0858 7.25 9.75 7.58579 9.75 8C9.75 8.41421 10.0858 8.75 10.5 8.75H12.6893L11.9697 9.46967C11.6768 9.76256 11.6768 10.2374 11.9697 10.5303C12.2626 10.8232 12.7374 10.8232 13.0303 10.5303L15.0303 8.53033C15.1022 8.45842 15.1565 8.37555 15.1931 8.28709C15.2298 8.19866 15.25 8.10169 15.25 8C15.25 7.80806 15.1768 7.61612 15.0303 7.46967L13.0303 5.46967Z"
            fill="#303233" />
        <path
            d="M5.46967 11.9697C5.76256 11.6768 6.23744 11.6768 6.53033 11.9697L7.25 12.6893V10.5C7.25 10.0858 7.58579 9.75 8 9.75C8.41421 9.75 8.75 10.0858 8.75 10.5V12.6893L9.46967 11.9697C9.76256 11.6768 10.2374 11.6768 10.5303 11.9697C10.8232 12.2626 10.8232 12.7374 10.5303 13.0303L8.53033 15.0303C8.38388 15.1768 8.19194 15.25 8 15.25C7.89831 15.25 7.80134 15.2298 7.71291 15.1931C7.62445 15.1565 7.54158 15.1022 7.46967 15.0303L5.46967 13.0303C5.17678 12.7374 5.17678 12.2626 5.46967 11.9697Z"
            fill="#303233" />
    </g>
    <defs>
        <clipPath id="clip0_53_5291">
            <rect width="16" height="16" fill="white" />
        </clipPath>
    </defs>
</svg>
