<svg width="16" height="16" viewBox="0 0 16 16" fill="none" xmlns="http://www.w3.org/2000/svg">
    <path
        d="M2 8C2 4.68629 4.68629 2 8 2C11.3137 2 14 4.68629 14 8C14 8.27614 14.2239 8.5 14.5 8.5C14.7761 8.5 15 8.27614 15 8C15 4.13401 11.866 1 8 1C4.13401 1 1 4.13401 1 8C1 11.866 4.13401 15 8 15C8.1809 15 8.3603 14.9931 8.53793 14.9796C8.81327 14.9587 9.01951 14.7185 8.99856 14.4431C8.97761 14.1678 8.73742 13.9615 8.46207 13.9825C8.30966 13.9941 8.15557 14 8 14C4.68629 14 2 11.3137 2 8Z"
        fill="#303233" />
    <path
        d="M8.5 4.5C8.5 4.22386 8.27614 4 8 4C7.72386 4 7.5 4.22386 7.5 4.5V8C7.5 8.18939 7.607 8.36252 7.77639 8.44721L9.77639 9.44721C10.0234 9.57071 10.3237 9.4706 10.4472 9.22361C10.5707 8.97662 10.4706 8.67628 10.2236 8.55279L8.5 7.69098V4.5Z"
        fill="#303233" />
    <path
        d="M14.5001 11C14.5001 11.8284 13.8285 12.5 13.0001 12.5C12.1717 12.5 11.5001 11.8284 11.5001 11C11.5001 10.1716 12.1717 9.5 13.0001 9.5C13.8285 9.5 14.5001 10.1716 14.5001 11Z"
        fill="#303233" />
    <path
        d="M15.959 15.5021C15.7218 14.0822 14.4873 13 13.0001 13C11.5129 13 10.2784 14.0822 10.0412 15.5021C9.99571 15.7745 10.2239 16 10.5001 16H15.5001C15.7762 16 16.0044 15.7745 15.959 15.5021Z"
        fill="#303233" />
</svg>
