<svg width="24" height="24" viewBox="0 0 24 24" fill="none" xmlns="http://www.w3.org/2000/svg">
    <path fill-rule="evenodd" clip-rule="evenodd"
        d="M21.75 5C21.75 5.41421 21.4142 5.75 21 5.75L17 5.75C16.5858 5.75 16.25 5.41421 16.25 5C16.25 4.58579 16.5858 4.25 17 4.25L21 4.25C21.4142 4.25 21.75 4.58579 21.75 5ZM21.75 12C21.75 12.4142 21.4142 12.75 21 12.75L17.6465 12.75C17.32 13.9043 16.2588 14.75 15 14.75C13.4812 14.75 12.25 13.5188 12.25 12C12.25 10.4812 13.4812 9.25 15 9.25C16.2588 9.25 17.32 10.0957 17.6465 11.25L21 11.25C21.4142 11.25 21.75 11.5858 21.75 12ZM21.75 19C21.75 19.4142 21.4142 19.75 21 19.75L15 19.75C14.5858 19.75 14.25 19.4142 14.25 19C14.25 18.5858 14.5858 18.25 15 18.25L21 18.25C21.4142 18.25 21.75 18.5858 21.75 19ZM11 2.25C12.5188 2.25 13.75 3.48122 13.75 5C13.75 6.51878 12.5188 7.75 11 7.75C9.74122 7.75 8.67998 6.90425 8.35352 5.75L3 5.75C2.58579 5.75 2.25 5.41421 2.25 5C2.25 4.58579 2.58579 4.25 3 4.25L8.35352 4.25C8.67998 3.09575 9.74122 2.25 11 2.25ZM9 16.25C10.5188 16.25 11.75 17.4812 11.75 19C11.75 20.5188 10.5188 21.75 9 21.75C7.74122 21.75 6.67998 20.9043 6.35352 19.75L3 19.75C2.58579 19.75 2.25 19.4142 2.25 19C2.25 18.5858 2.58579 18.25 3 18.25L6.35352 18.25C6.67998 17.0957 7.74122 16.25 9 16.25ZM9.75 12C9.75 12.4142 9.41421 12.75 9 12.75L3 12.75C2.58579 12.75 2.25 12.4142 2.25 12C2.25 11.5858 2.58579 11.25 3 11.25L9 11.25C9.41421 11.25 9.75 11.5858 9.75 12Z"
        fill="#303233" />
</svg>
