<svg width="24" height="24" viewBox="0 0 24 24" fill="none" xmlns="http://www.w3.org/2000/svg">
    <path
        d="M12.7071 3.29289C12.3166 2.90237 11.6834 2.90237 11.2929 3.29289L7.29289 7.29289C6.90237 7.68342 6.90237 8.31658 7.29289 8.70711C7.68342 9.09763 8.31658 9.09763 8.70711 8.70711L12 5.41421L15.2929 8.70711C15.6834 9.09763 16.3166 9.09763 16.7071 8.70711C17.0976 8.31658 17.0976 7.68342 16.7071 7.29289L12.7071 3.29289Z"
        fill="#303233" />
    <path
        d="M8.70711 15.2929C8.31658 14.9024 7.68342 14.9024 7.29289 15.2929C6.90237 15.6834 6.90237 16.3166 7.29289 16.7071L11.2929 20.7071C11.6834 21.0976 12.3166 21.0976 12.7071 20.7071L16.7071 16.7071C17.0976 16.3166 17.0976 15.6834 16.7071 15.2929C16.3166 14.9024 15.6834 14.9024 15.2929 15.2929L12 18.5858L8.70711 15.2929Z"
        fill="#303233" />
</svg>
