<svg width="16" height="16" viewBox="0 0 16 16" fill="none" xmlns="http://www.w3.org/2000/svg">
    <path fill-rule="evenodd" clip-rule="evenodd"
        d="M3.25 1C2.00736 1 1 2.00736 1 3.25V12.75C1 13.9926 2.00736 15 3.25 15H12.75C13.9926 15 15 13.9926 15 12.75V3.25C15 2.00736 13.9926 1 12.75 1H3.25ZM8.00015 9.5C10.586 9.5 12.7134 11.463 12.9734 13.9801C12.9009 13.9932 12.8263 14 12.75 14H3.25C3.17383 14 3.09926 13.9932 3.02685 13.9801C3.28688 11.463 5.41428 9.5 8.00015 9.5ZM8.00015 3.5C6.61944 3.5 5.50015 4.61929 5.50015 6C5.50015 7.38071 6.61944 8.5 8.00015 8.5C9.38086 8.5 10.5002 7.38071 10.5002 6C10.5002 4.61929 9.38086 3.5 8.00015 3.5Z"
        fill="#303233" />
</svg>
