<svg width="16" height="16" viewBox="0 0 16 16" fill="none" xmlns="http://www.w3.org/2000/svg">
    <g clip-path="url(#clip0_53_3422)">
        <path
            d="M8 0C8.27614 0 8.5 0.223858 8.5 0.5V1.86364C8.5 2.13978 8.27614 2.36364 8 2.36364C7.72386 2.36364 7.5 2.13978 7.5 1.86364V0.5C7.5 0.223858 7.72386 0 8 0Z"
            fill="#303233" />
        <path
            d="M4 8C4 5.79086 5.79086 4 8 4C10.2091 4 12 5.79086 12 8C12 10.2091 10.2091 12 8 12C5.79086 12 4 10.2091 4 8Z"
            fill="#303233" />
        <path
            d="M8.5 14.1364C8.5 13.8602 8.27614 13.6364 8 13.6364C7.72386 13.6364 7.5 13.8602 7.5 14.1364V15.5C7.5 15.7761 7.72386 16 8 16C8.27614 16 8.5 15.7761 8.5 15.5V14.1364Z"
            fill="#303233" />
        <path
            d="M2.34176 2.34191C2.53703 2.14665 2.85361 2.14665 3.04887 2.34192L4.01703 3.3101C4.21229 3.50536 4.21229 3.82194 4.01703 4.0172C3.82176 4.21246 3.50518 4.21246 3.30992 4.0172L2.34176 3.04902C2.1465 2.85375 2.1465 2.53717 2.34176 2.34191Z"
            fill="#303233" />
        <path
            d="M12.6905 11.9828C12.4952 11.7876 12.1786 11.7875 11.9834 11.9828C11.7881 12.1781 11.7881 12.4947 11.9834 12.6899L12.9515 13.6581C13.1468 13.8534 13.4634 13.8534 13.6586 13.6581C13.8539 13.4628 13.8539 13.1463 13.6586 12.951L12.6905 11.9828Z"
            fill="#303233" />
        <path
            d="M0 8C0 7.72386 0.223858 7.5 0.5 7.5H1.86361C2.13975 7.5 2.36361 7.72386 2.36361 8C2.36361 8.27614 2.13975 8.5 1.86361 8.5H0.5C0.223858 8.5 0 8.27614 0 8Z"
            fill="#303233" />
        <path
            d="M14.1367 7.5C13.8606 7.5 13.6367 7.72386 13.6367 8C13.6367 8.27614 13.8606 8.5 14.1367 8.5H15.5003C15.7765 8.5 16.0003 8.27614 16.0003 8C16.0003 7.72386 15.7765 7.5 15.5003 7.5H14.1367Z"
            fill="#303233" />
        <path
            d="M4.01703 11.9828C4.21229 12.1781 4.21229 12.4947 4.01703 12.6899L3.04887 13.6581C2.85361 13.8534 2.53703 13.8534 2.34176 13.6581C2.1465 13.4628 2.1465 13.1463 2.34176 12.951L3.30992 11.9828C3.50518 11.7876 3.82176 11.7875 4.01703 11.9828Z"
            fill="#303233" />
        <path
            d="M13.6586 3.04902C13.8539 2.85375 13.8539 2.53717 13.6586 2.34191C13.4634 2.14665 13.1468 2.14665 12.9515 2.34192L11.9834 3.3101C11.7881 3.50536 11.7881 3.82194 11.9834 4.0172C12.1786 4.21246 12.4952 4.21246 12.6905 4.0172L13.6586 3.04902Z"
            fill="#303233" />
    </g>
    <defs>
        <clipPath id="clip0_53_3422">
            <rect width="16" height="16" fill="white" />
        </clipPath>
    </defs>
</svg>
