<svg width="24" height="24" viewBox="0 0 24 24" fill="none" xmlns="http://www.w3.org/2000/svg">
    <path fill-rule="evenodd" clip-rule="evenodd"
        d="M5.16957 6.25H18.8304C19.3646 6.24999 19.8104 6.24998 20.1747 6.27974C20.5546 6.31078 20.9112 6.37789 21.2485 6.54973C21.7659 6.81338 22.1866 7.23408 22.4503 7.75153C22.6221 8.08879 22.6892 8.44545 22.7203 8.82533C22.75 9.18956 22.75 9.6354 22.75 10.1695V13.8305C22.75 14.3646 22.75 14.8104 22.7203 15.1747C22.6892 15.5546 22.6221 15.9112 22.4503 16.2485C22.1866 16.7659 21.7659 17.1866 21.2485 17.4503C20.9112 17.6221 20.5546 17.6892 20.1747 17.7203C19.8104 17.75 19.3646 17.75 18.8305 17.75H5.16955C4.6354 17.75 4.18956 17.75 3.82533 17.7203C3.44545 17.6892 3.08879 17.6221 2.75153 17.4503C2.23408 17.1866 1.81338 16.7659 1.54973 16.2485C1.37789 15.9112 1.31078 15.5546 1.27974 15.1747C1.24998 14.8104 1.24999 14.3646 1.25 13.8304V10.1696C1.24999 9.63541 1.24998 9.18956 1.27974 8.82533C1.31078 8.44545 1.37789 8.08879 1.54973 7.75153C1.81338 7.23408 2.23408 6.81338 2.75153 6.54973C3.08879 6.37789 3.44545 6.31078 3.82533 6.27974C4.18956 6.24998 4.63541 6.24999 5.16957 6.25ZM3.94748 7.77476C3.66036 7.79822 3.52307 7.8401 3.43251 7.88624C3.19731 8.00608 3.00608 8.19731 2.88624 8.43251C2.8401 8.52307 2.79822 8.66036 2.77476 8.94748C2.75058 9.24336 2.75 9.62757 2.75 10.2V13.8C2.75 14.3724 2.75058 14.7566 2.77476 15.0525C2.79822 15.3396 2.8401 15.4769 2.88624 15.5675C3.00608 15.8027 3.19731 15.9939 3.43251 16.1138C3.52307 16.1599 3.66036 16.2018 3.94748 16.2252C4.24336 16.2494 4.62757 16.25 5.2 16.25H18.8C19.3724 16.25 19.7566 16.2494 20.0525 16.2252C20.3396 16.2018 20.4769 16.1599 20.5675 16.1138C20.8027 15.9939 20.9939 15.8027 21.1138 15.5675C21.1599 15.4769 21.2018 15.3396 21.2252 15.0525C21.2494 14.7566 21.25 14.3724 21.25 13.8V10.2C21.25 9.62757 21.2494 9.24336 21.2252 8.94748C21.2018 8.66036 21.1599 8.52307 21.1138 8.43251C20.9939 8.19731 20.8027 8.00608 20.5675 7.88624C20.4769 7.8401 20.3396 7.79822 20.0525 7.77476C19.7566 7.75058 19.3724 7.75 18.8 7.75H5.2C4.62757 7.75 4.24336 7.75058 3.94748 7.77476ZM6 12C6 11.4477 6.44772 11 7 11C7.55229 11 8 11.4477 8 12C8 12.5523 7.55229 13 7 13C6.44772 13 6 12.5523 6 12ZM11 12C11 11.4477 11.4477 11 12 11C12.5523 11 13 11.4477 13 12C13 12.5523 12.5523 13 12 13C11.4477 13 11 12.5523 11 12ZM16 12C16 11.4477 16.4477 11 17 11C17.5523 11 18 11.4477 18 12C18 12.5523 17.5523 13 17 13C16.4477 13 16 12.5523 16 12Z"
        fill="#303233" />
</svg>
