<svg width="16" height="16" viewBox="0 0 16 16" fill="none" xmlns="http://www.w3.org/2000/svg">
    <path
        d="M13 0.25C13.4142 0.25 13.75 0.585786 13.75 1V2.25H15C15.4142 2.25 15.75 2.58579 15.75 3C15.75 3.41421 15.4142 3.75 15 3.75H13.75V5C13.75 5.41421 13.4142 5.75 13 5.75C12.5858 5.75 12.25 5.41421 12.25 5V3.75H11C10.5858 3.75 10.25 3.41421 10.25 3C10.25 2.58579 10.5858 2.25 11 2.25H12.25V1C12.25 0.585786 12.5858 0.25 13 0.25Z"
        fill="#303233" />
    <path
        d="M12.75 8C12.7503 9.21601 12.2865 10.4321 11.3588 11.3599C10.7761 11.9425 10.3218 12.3635 9.97222 12.6667V10.4456C9.97222 10.0314 9.63644 9.69557 9.22222 9.69557C8.80801 9.69557 8.47222 10.0314 8.47222 10.4456L8.47222 14.1122C8.47222 14.3111 8.55124 14.5019 8.69189 14.6426C8.83254 14.7832 9.02331 14.8622 9.22222 14.8622H12.8889C13.3031 14.8622 13.6389 14.5265 13.6389 14.1122C13.6389 13.698 13.3031 13.3622 12.8889 13.3622H11.4431C11.7273 13.0998 12.051 12.7889 12.4194 12.4205C13.6401 11.1999 14.2503 9.59989 14.25 8C14.25 7.58579 13.9142 7.25 13.5 7.25C13.0858 7.25 12.75 7.58579 12.75 8Z"
        fill="#303233" />
    <path
        d="M3.11114 1.14001C2.69692 1.14 2.36112 1.47578 2.36111 1.88999C2.3611 2.3042 2.69687 2.64 3.11109 2.64001L4.55701 2.64006C4.27274 2.90253 3.94901 3.2134 3.58058 3.58183C1.13981 6.02261 1.13981 9.97989 3.58058 12.4207C4.44454 13.2846 5.50055 13.8437 6.61183 14.0959C7.01577 14.1875 7.41754 13.9344 7.50919 13.5304C7.60084 13.1265 7.34768 12.7247 6.94373 12.6331C6.10033 12.4417 5.29928 12.018 4.64124 11.36C2.78625 9.50501 2.78625 6.49748 4.64124 4.64249C5.22389 4.05984 5.67818 3.63889 6.02778 3.33569V5.55668C6.02778 5.97089 6.36356 6.30668 6.77778 6.30668C7.19199 6.30668 7.52778 5.97089 7.52778 5.55668V1.89013C7.52778 1.47593 7.19201 1.14015 6.7778 1.14013L3.11114 1.14001Z"
        fill="#303233" />
</svg>
