<svg width="16" height="16" viewBox="0 0 16 16" fill="none" xmlns="http://www.w3.org/2000/svg">
    <g clip-path="url(#clip0_53_3306)">
        <path
            d="M5.5 4.25C4.80964 4.25 4.25 4.80964 4.25 5.5C4.25 6.19035 4.80964 6.75 5.5 6.75C6.19036 6.75 6.75 6.19036 6.75 5.5C6.75 4.80964 6.19036 4.25 5.5 4.25Z"
            fill="#303233" />
        <path fill-rule="evenodd" clip-rule="evenodd"
            d="M7.35913 0.807086C7.11874 0.749374 6.87185 0.749657 6.60762 0.74996L3.57752 0.750003C3.23306 0.749988 2.93051 0.749975 2.68024 0.770424C2.41441 0.792142 2.14223 0.840614 1.87812 0.975181C1.48939 1.17325 1.17334 1.4893 0.975265 1.87804C0.840699 2.14214 0.792226 2.41433 0.770508 2.68015C0.750059 2.93043 0.750072 3.23297 0.750087 3.57743L0.750043 6.60753C0.749741 6.87176 0.749458 7.11866 0.80717 7.35905C0.85778 7.56985 0.941254 7.77137 1.05453 7.95622C1.1837 8.16701 1.35848 8.34139 1.54553 8.52801L6.65376 13.6362C7.02633 14.0088 7.33773 14.3202 7.613 14.5539C7.90024 14.7977 8.19711 15.0007 8.55413 15.1167C9.10122 15.2944 9.69054 15.2944 10.2376 15.1167C10.5946 15.0007 10.8915 14.7977 11.1788 14.5539C11.454 14.3202 11.7654 14.0088 12.138 13.6362L13.6363 12.1379C14.0088 11.7653 14.3203 11.4539 14.5539 11.1787C14.7978 10.8914 15.0008 10.5946 15.1168 10.2375C15.2945 9.69045 15.2945 9.10114 15.1168 8.55405C15.0008 8.19703 14.7978 7.90016 14.5539 7.61292C14.3203 7.33764 14.0089 7.02625 13.6363 6.65369L8.5281 1.54545C8.34147 1.3584 8.16709 1.18362 7.9563 1.05444C7.77146 0.94117 7.56993 0.857696 7.35913 0.807086ZM6.54979 2.25C6.90736 2.25 6.9639 2.25482 7.00896 2.26564C7.06671 2.27951 7.12192 2.30237 7.17256 2.3334C7.21207 2.35762 7.25546 2.39419 7.5083 2.64703L12.5541 7.69286C12.9537 8.09247 13.2211 8.36069 13.4104 8.58368C13.5941 8.79997 13.6597 8.92389 13.6902 9.01758C13.7701 9.2634 13.7701 9.52819 13.6902 9.77402C13.6597 9.86771 13.5941 9.99162 13.4104 10.2079C13.2211 10.4309 12.9537 10.6991 12.5541 11.0987L11.0988 12.554C10.6992 12.9536 10.431 13.2211 10.208 13.4104C9.9917 13.594 9.86779 13.6597 9.7741 13.6901C9.52828 13.77 9.26348 13.77 9.01766 13.6901C8.92397 13.6597 8.80006 13.594 8.58377 13.4104C8.36078 13.2211 8.09255 12.9537 7.69294 12.554L2.64712 7.50822C2.39428 7.25538 2.3577 7.21198 2.33349 7.17247C2.30246 7.12183 2.27959 7.06663 2.26573 7.00888C2.25491 6.96382 2.25009 6.90727 2.25009 6.5497L2.25009 3.60555C2.25009 3.22467 2.25067 2.98411 2.26553 2.8023C2.27967 2.62924 2.30291 2.57643 2.31177 2.55903C2.36604 2.45253 2.45262 2.36595 2.55911 2.31169C2.57651 2.30282 2.62932 2.27958 2.80238 2.26544C2.9842 2.25059 3.22475 2.25 3.60563 2.25L6.54979 2.25Z"
            fill="#303233" />
    </g>
    <defs>
        <clipPath id="clip0_53_3306">
            <rect width="16" height="16" fill="white" />
        </clipPath>
    </defs>
</svg>
