<svg width="24" height="24" viewBox="0 0 24 24" fill="none" xmlns="http://www.w3.org/2000/svg">
    <path
        d="M8.7587 1H15.2413C16.0463 0.999988 16.7106 0.999979 17.2518 1.0442C17.8139 1.09012 18.3306 1.18868 18.816 1.43598C19.5686 1.81947 20.1805 2.43139 20.564 3.18404C20.8113 3.66938 20.9099 4.18608 20.9558 4.74818C21 5.28937 21 5.95372 21 6.75868V12C21 12.5523 20.5523 13 20 13C19.4477 13 19 12.5523 19 12V6.8C19 5.94342 18.9992 5.36113 18.9624 4.91104C18.9266 4.47262 18.8617 4.24842 18.782 4.09202C18.5903 3.7157 18.2843 3.40974 17.908 3.21799C17.7516 3.1383 17.5274 3.07337 17.089 3.03755C16.6389 3.00078 16.0566 3 15.2 3H8.8C7.94342 3 7.36113 3.00078 6.91104 3.03755C6.47262 3.07337 6.24842 3.1383 6.09202 3.21799C5.7157 3.40974 5.40974 3.7157 5.21799 4.09202C5.1383 4.24842 5.07337 4.47262 5.03755 4.91104C5.00078 5.36113 5 5.94342 5 6.8V17.2C5 18.0566 5.00078 18.6389 5.03755 19.089C5.07337 19.5274 5.1383 19.7516 5.21799 19.908C5.40974 20.2843 5.7157 20.5903 6.09202 20.782C6.24842 20.8617 6.47262 20.9266 6.91104 20.9624C7.36113 20.9992 7.94342 21 8.8 21H13C13.5523 21 14 21.4477 14 22C14 22.5523 13.5523 23 13 23H8.75868C7.95372 23 7.28937 23 6.74818 22.9558C6.18608 22.9099 5.66938 22.8113 5.18404 22.564C4.43139 22.1805 3.81947 21.5686 3.43598 20.816C3.18868 20.3306 3.09012 19.8139 3.0442 19.2518C2.99998 18.7106 2.99999 18.0463 3 17.2413V6.75869C2.99999 5.95373 2.99998 5.28936 3.0442 4.74818C3.09012 4.18608 3.18868 3.66938 3.43598 3.18404C3.81947 2.43139 4.43139 1.81947 5.18404 1.43598C5.66938 1.18868 6.18608 1.09012 6.74818 1.0442C7.28936 0.999979 7.95375 0.999988 8.7587 1Z"
        fill="#303233" />
    <path
        d="M19 22C19 22.5523 18.5523 23 18 23C17.4477 23 17 22.5523 17 22V18.4142L15.7071 19.7071C15.3166 20.0976 14.6834 20.0976 14.2929 19.7071C13.9024 19.3166 13.9024 18.6834 14.2929 18.2929L17.2929 15.2929C17.6834 14.9024 18.3166 14.9024 18.7071 15.2929L21.7071 18.2929C22.0976 18.6834 22.0976 19.3166 21.7071 19.7071C21.3166 20.0976 20.6834 20.0976 20.2929 19.7071L19 18.4142V22Z"
        fill="#303233" />
</svg>
