<svg width="24" height="24" viewBox="0 0 24 24" fill="none" xmlns="http://www.w3.org/2000/svg">
    <path fill-rule="evenodd" clip-rule="evenodd"
        d="M17.2321 2.25L6.7679 2.25C5.95506 2.24999 5.29944 2.24999 4.76853 2.29336C4.2219 2.33803 3.74175 2.43239 3.29754 2.65873C2.59193 3.01825 2.01825 3.59193 1.65873 4.29754C1.43239 4.74175 1.33803 5.2219 1.29336 5.76853C1.24999 6.29944 1.24999 6.95505 1.25 7.76789V16.2321C1.24999 17.0449 1.24999 17.7006 1.29336 18.2315C1.33803 18.7781 1.43239 19.2582 1.65873 19.7025C2.01825 20.4081 2.59193 20.9817 3.29754 21.3413C3.74175 21.5676 4.2219 21.662 4.76853 21.7066C5.29944 21.75 5.95505 21.75 6.76788 21.75H17.2321C18.045 21.75 18.7006 21.75 19.2315 21.7066C19.7781 21.662 20.2582 21.5676 20.7025 21.3413C21.4081 20.9817 21.9817 20.4081 22.3413 19.7025C22.5676 19.2582 22.662 18.7781 22.7066 18.2315C22.75 17.7006 22.75 17.045 22.75 16.2321V7.76788C22.75 6.95505 22.75 6.29944 22.7066 5.76853C22.662 5.2219 22.5676 4.74175 22.3413 4.29754C21.9817 3.59193 21.4081 3.01825 20.7025 2.65873C20.2582 2.43239 19.7781 2.33803 19.2315 2.29336C18.7006 2.24999 18.0449 2.24999 17.2321 2.25ZM5.60001 7.54998C5.35149 7.21861 4.88138 7.15145 4.55001 7.39998C4.21864 7.64851 4.15149 8.11861 4.40001 8.44998L7.06251 12L4.40001 15.55C4.15149 15.8814 4.21864 16.3515 4.55001 16.6C4.88138 16.8485 5.35149 16.7814 5.60001 16.45L8.00001 13.25L10.4 16.45C10.6485 16.7814 11.1186 16.8485 11.45 16.6C11.7814 16.3515 11.8485 15.8814 11.6 15.55L8.93751 12L11.6 8.44998C11.8485 8.11861 11.7814 7.64851 11.45 7.39998C11.1186 7.15145 10.6485 7.21861 10.4 7.54998L8.00001 10.75L5.60001 7.54998ZM15 7.25C15.4142 7.25 15.75 7.58579 15.75 8V15.25H19C19.4142 15.25 19.75 15.5858 19.75 16C19.75 16.4142 19.4142 16.75 19 16.75H15C14.5858 16.75 14.25 16.4142 14.25 16V8C14.25 7.58579 14.5858 7.25 15 7.25Z"
        fill="#303233" />
</svg>
