<svg width="16" height="16" viewBox="0 0 16 16" fill="none" xmlns="http://www.w3.org/2000/svg">
    <path fill-rule="evenodd" clip-rule="evenodd"
        d="M10.8214 1.5H5.1786C4.63671 1.5 4.19963 1.49999 3.84569 1.52891C3.48126 1.55868 3.16117 1.62159 2.86502 1.77248C2.39462 2.01217 2.01217 2.39462 1.77248 2.86502C1.62159 3.16117 1.55868 3.48126 1.52891 3.84569C1.49999 4.19963 1.5 4.6367 1.5 5.17859V10.8214C1.5 11.3633 1.49999 11.8004 1.52891 12.1543C1.55868 12.5187 1.62159 12.8388 1.77248 13.135C2.01217 13.6054 2.39462 13.9878 2.86502 14.2275C3.16117 14.3784 3.48126 14.4413 3.84569 14.4711C4.19961 14.5 4.63667 14.5 5.17853 14.5H10.8214C11.3633 14.5 11.8004 14.5 12.1543 14.4711C12.5187 14.4413 12.8388 14.3784 13.135 14.2275C13.6054 13.9878 13.9878 13.6054 14.2275 13.135C14.3784 12.8388 14.4413 12.5187 14.4711 12.1543C14.5 11.8004 14.5 11.3633 14.5 10.8215V5.17858C14.5 4.63672 14.5 4.19961 14.4711 3.84569C14.4413 3.48126 14.3784 3.16117 14.2275 2.86502C13.9878 2.39462 13.6054 2.01217 13.135 1.77248C12.8388 1.62159 12.5187 1.55868 12.1543 1.52891C11.8004 1.49999 11.3633 1.5 10.8214 1.5ZM11.3536 6.35355C11.5488 6.15829 11.5488 5.84171 11.3536 5.64645C11.1583 5.45118 10.8417 5.45118 10.6464 5.64645L7 9.29289L5.35355 7.64645C5.15829 7.45118 4.84171 7.45118 4.64645 7.64645C4.45118 7.84171 4.45118 8.15829 4.64645 8.35355L6.64645 10.3536C6.84171 10.5488 7.15829 10.5488 7.35355 10.3536L11.3536 6.35355Z"
        fill="#303233" />
</svg>
