<svg width="16" height="16" viewBox="0 0 16 16" fill="none" xmlns="http://www.w3.org/2000/svg">
    <path fill-rule="evenodd" clip-rule="evenodd"
        d="M14.75 5C14.75 5.41421 14.4142 5.75 14 5.75L8.14648 5.75C7.82002 6.90425 6.75878 7.75 5.5 7.75C4.24122 7.75 3.17998 6.90425 2.85352 5.75L2 5.75C1.58579 5.75 1.25 5.41421 1.25 5C1.25 4.58579 1.58579 4.25 2 4.25L2.85352 4.25C3.17998 3.09575 4.24122 2.25 5.5 2.25C6.75878 2.25 7.82002 3.09575 8.14648 4.25L14 4.25C14.4142 4.25 14.75 4.58579 14.75 5ZM14.75 11C14.75 11.4142 14.4142 11.75 14 11.75L13.1465 11.75C12.82 12.9043 11.7588 13.75 10.5 13.75C9.24122 13.75 8.17998 12.9043 7.85352 11.75L2 11.75C1.58579 11.75 1.25 11.4142 1.25 11C1.25 10.5858 1.58579 10.25 2 10.25L7.85352 10.25C8.17998 9.09575 9.24122 8.25 10.5 8.25C11.7588 8.25 12.82 9.09575 13.1465 10.25L14 10.25C14.4142 10.25 14.75 10.5858 14.75 11Z"
        fill="#303233" />
</svg>
