<svg width="24" height="24" viewBox="0 0 24 24" fill="none" xmlns="http://www.w3.org/2000/svg">
    <path fill-rule="evenodd" clip-rule="evenodd"
        d="M19.75 18C19.75 18.4142 19.4142 18.75 19 18.75L5 18.75C4.58579 18.75 4.25 18.4142 4.25 18C4.25 17.5858 4.58579 17.25 5 17.25L19 17.25C19.4142 17.25 19.75 17.5858 19.75 18ZM19.6694 12.9981C19.6699 13.531 19.4276 14.0352 19.0111 14.3677C18.6929 14.6217 18.3008 14.6897 17.972 14.7196C17.6371 14.75 17.209 14.75 16.7065 14.75L7.29352 14.75C6.79098 14.75 6.36287 14.75 6.02803 14.7196C5.69917 14.6897 5.3071 14.6217 4.98888 14.3677C4.57236 14.0352 4.33005 13.531 4.33063 12.9981C4.33106 12.5909 4.52286 12.2423 4.70497 11.9668C4.8904 11.6864 5.15784 11.3521 5.47179 10.9597L10.1835 5.06996C10.3811 4.82298 10.5589 4.60071 10.721 4.43104C10.8923 4.25167 11.1032 4.06796 11.3861 3.96198C11.7819 3.8137 12.2181 3.8137 12.6139 3.96198C12.8968 4.06796 13.1077 4.25167 13.279 4.43104C13.4411 4.6007 13.6189 4.82298 13.8164 5.06995L18.5282 10.9597C18.8422 11.3521 19.1096 11.6864 19.295 11.9668C19.4771 12.2423 19.6689 12.5909 19.6694 12.9981Z"
        fill="#303233" />
</svg>
