<svg width="16" height="16" viewBox="0 0 16 16" fill="none" xmlns="http://www.w3.org/2000/svg">
    <path
        d="M9.25 2C9.25 1.58579 9.58579 1.25 10 1.25H12.6667C13.2192 1.25 13.7491 1.46949 14.1398 1.86019C14.5305 2.25089 14.75 2.7808 14.75 3.33333V12.6667C14.75 13.2192 14.5305 13.7491 14.1398 14.1398C13.7491 14.5305 13.2192 14.75 12.6667 14.75H10C9.58579 14.75 9.25 14.4142 9.25 14C9.25 13.5858 9.58579 13.25 10 13.25H12.6667C12.8214 13.25 12.9697 13.1885 13.0791 13.0791C13.1885 12.9697 13.25 12.8214 13.25 12.6667V3.33333C13.25 3.17862 13.1885 3.03025 13.0791 2.92085C12.9697 2.81146 12.8214 2.75 12.6667 2.75H10C9.58579 2.75 9.25 2.41421 9.25 2Z"
        fill="#303233" />
    <path
        d="M5.96967 3.96983C6.26256 3.67694 6.73744 3.67694 7.03033 3.96983L10.521 7.46049C10.6622 7.59687 10.75 7.78818 10.75 8C10.75 8.2119 10.6621 8.40328 10.5208 8.53967L7.03033 12.0302C6.73744 12.3231 6.26256 12.3231 5.96967 12.0302C5.67678 11.7373 5.67678 11.2624 5.96967 10.9695L8.18917 8.75H2C1.58579 8.75 1.25 8.41421 1.25 8C1.25 7.58579 1.58579 7.25 2 7.25H8.18918L5.96967 5.03049C5.67678 4.7376 5.67678 4.26272 5.96967 3.96983Z"
        fill="#303233" />
</svg>
