<svg width="16" height="16" viewBox="0 0 16 16" fill="none" xmlns="http://www.w3.org/2000/svg">
    <path fill-rule="evenodd" clip-rule="evenodd"
        d="M6.93586 2.75H9.06414C9.64467 2.74999 10.1255 2.74998 10.5175 2.78201C10.9251 2.81532 11.3024 2.88697 11.6575 3.0679C12.2063 3.34753 12.6525 3.79372 12.9321 4.34253C13.113 4.69762 13.1847 5.07485 13.218 5.48253C13.25 5.87455 13.25 6.35535 13.25 6.93589V9.06411C13.25 9.64465 13.25 10.1255 13.218 10.5175C13.1847 10.9251 13.113 11.3024 12.9321 11.6575C12.6525 12.2063 12.2063 12.6525 11.6575 12.9321C11.3024 13.113 10.9251 13.1847 10.5175 13.218C10.1255 13.25 9.64465 13.25 9.06411 13.25H6.93589C6.35535 13.25 5.87455 13.25 5.48253 13.218C5.07485 13.1847 4.69762 13.113 4.34253 12.9321C3.79372 12.6525 3.34753 12.2063 3.0679 11.6575C2.88697 11.3024 2.81532 10.9251 2.78201 10.5175C2.74998 10.1255 2.74999 9.64467 2.75 9.06414V6.93586C2.74999 6.35533 2.74998 5.87454 2.78201 5.48253C2.81532 5.07485 2.88697 4.69762 3.0679 4.34253C3.34753 3.79372 3.79372 3.34753 4.34253 3.0679C4.69762 2.88697 5.07485 2.81532 5.48253 2.78201C5.87454 2.74998 6.35533 2.74999 6.93586 2.75ZM5.60468 4.27703C5.28976 4.30276 5.1319 4.34918 5.02351 4.40441C4.75695 4.54023 4.54023 4.75695 4.40441 5.02351C4.34918 5.1319 4.30276 5.28976 4.27703 5.60468C4.25058 5.92835 4.25 6.34757 4.25 6.96667V9.03333C4.25 9.65243 4.25058 10.0717 4.27703 10.3953C4.30276 10.7102 4.34918 10.8681 4.40441 10.9765C4.54023 11.243 4.75695 11.4598 5.02351 11.5956C5.1319 11.6508 5.28976 11.6972 5.60468 11.723C5.92835 11.7494 6.34757 11.75 6.96667 11.75H9.03333C9.65243 11.75 10.0717 11.7494 10.3953 11.723C10.7102 11.6972 10.8681 11.6508 10.9765 11.5956C11.243 11.4598 11.4598 11.243 11.5956 10.9765C11.6508 10.8681 11.6972 10.7102 11.723 10.3953C11.7494 10.0717 11.75 9.65243 11.75 9.03333V6.96667C11.75 6.34757 11.7494 5.92835 11.723 5.60468C11.6972 5.28976 11.6508 5.1319 11.5956 5.02351C11.4598 4.75695 11.243 4.54023 10.9765 4.40441C10.8681 4.34918 10.7102 4.30276 10.3953 4.27703C10.0717 4.25058 9.65243 4.25 9.03333 4.25H6.96667C6.34757 4.25 5.92835 4.25058 5.60468 4.27703Z"
        fill="#303233" />
</svg>
