<svg width="16" height="16" viewBox="0 0 16 16" fill="none" xmlns="http://www.w3.org/2000/svg">
    <path
        d="M8 0.5C7.33696 0.5 6.70107 0.763392 6.23223 1.23223C5.76339 1.70107 5.5 2.33696 5.5 3V8C5.5 8.66304 5.76339 9.29892 6.23223 9.76777C6.70107 10.2366 7.33696 10.5 8 10.5C8.66304 10.5 9.29893 10.2366 9.76777 9.76777C10.2366 9.29892 10.5 8.66304 10.5 8V3C10.5 2.33696 10.2366 1.70107 9.76777 1.23223C9.29893 0.763392 8.66304 0.5 8 0.5Z"
        fill="#303233" />
    <path
        d="M4 6.5C4 6.22386 3.77614 6 3.5 6C3.22386 6 3 6.22386 3 6.5V7.95238C3 9.27846 3.52678 10.5502 4.46447 11.4879C5.28355 12.307 6.35755 12.8125 7.5 12.9273V14.5H5.5C5.22386 14.5 5 14.7239 5 15C5 15.2761 5.22386 15.5 5.5 15.5H10.5C10.7761 15.5 11 15.2761 11 15C11 14.7239 10.7761 14.5 10.5 14.5H8.5V12.9273C9.64245 12.8125 10.7165 12.307 11.5355 11.4879C12.4732 10.5502 13 9.27846 13 7.95238V6.5C13 6.22386 12.7761 6 12.5 6C12.2239 6 12 6.22386 12 6.5V7.95238C12 9.01324 11.5786 10.0307 10.8284 10.7808C10.0783 11.531 9.06087 11.9524 8 11.9524C6.93913 11.9524 5.92172 11.531 5.17157 10.7808C4.42143 10.0307 4 9.01324 4 7.95238V6.5Z"
        fill="#303233" />
</svg>
