<svg width="36" height="24" viewBox="0 0 36 24" fill="none" xmlns="http://www.w3.org/2000/svg">
    <path d="M4.90039 7V8.42661H6.17611V17H7.75361V7H4.90039Z" fill="#303233" />
    <path
        d="M15.5562 8.38791H20.1268V7.02356H14.1236V12.7675H15.5971C15.7336 12.3855 15.9519 12.0853 16.252 11.867C16.5613 11.6396 16.9387 11.5259 17.3844 11.5259C18.0211 11.5259 18.5032 11.7033 18.8306 12.058C19.1581 12.4037 19.3218 12.9039 19.3218 13.5588C19.3218 14.2046 19.1581 14.7231 18.8306 15.1142C18.5123 15.5053 18.0302 15.7008 17.3844 15.7008C16.866 15.7008 16.4339 15.578 16.0883 15.3325C15.7427 15.0778 15.5198 14.7367 15.4198 14.3092H13.9053C14.0236 15.1187 14.3829 15.7691 14.9832 16.2602C15.5835 16.7514 16.3794 16.997 17.3708 16.997C18.1166 16.997 18.7442 16.8469 19.2536 16.5467C19.772 16.2466 20.1586 15.8373 20.4133 15.3188C20.6771 14.7913 20.809 14.191 20.809 13.5179C20.809 12.963 20.7044 12.4355 20.4952 11.9352C20.2951 11.435 19.954 11.0211 19.4719 10.6937C18.9989 10.3662 18.3804 10.2025 17.6164 10.2025C17.1889 10.2025 16.7841 10.2889 16.4021 10.4617C16.0292 10.6345 15.7472 10.8483 15.5562 11.103V8.38791Z"
        fill="#303233" />
    <path
        d="M23.4701 9.71967C23.763 9.42678 24.2378 9.42678 24.5307 9.71967L27.0004 12.1893L29.4701 9.71967C29.763 9.42678 30.2378 9.42678 30.5307 9.71967C30.8236 10.0126 30.8236 10.4874 30.5307 10.7803L28.0611 13.25L30.5307 15.7197C30.8236 16.0126 30.8236 16.4874 30.5307 16.7803C30.2378 17.0732 29.763 17.0732 29.4701 16.7803L27.0004 14.3107L24.5307 16.7803C24.2378 17.0732 23.763 17.0732 23.4701 16.7803C23.1772 16.4874 23.1772 16.0126 23.4701 15.7197L25.9397 13.25L23.4701 10.7803C23.1772 10.4874 23.1772 10.0126 23.4701 9.71967Z"
        fill="#303233" />
    <path
        d="M11.0004 17C11.4146 17 11.7504 16.6642 11.7504 16.25C11.7504 15.8358 11.4146 15.5 11.0004 15.5C10.5862 15.5 10.2504 15.8358 10.2504 16.25C10.2504 16.6642 10.5862 17 11.0004 17Z"
        fill="#303233" />
</svg>
