<svg width="24" height="24" viewBox="0 0 24 24" fill="none" xmlns="http://www.w3.org/2000/svg">
    <path
        d="M8 12C7.44772 12 7 12.4477 7 13C7 13.5523 7.44772 14 8 14H16C16.5523 14 17 13.5523 17 13C17 12.4477 16.5523 12 16 12H8Z"
        fill="#303233" />
    <path fill-rule="evenodd" clip-rule="evenodd"
        d="M1 5C1 3.34315 2.34315 2 4 2H10.1716C10.702 2 11.2107 2.21071 11.5858 2.58579L12.4142 3.41421C12.7893 3.78929 13.298 4 13.8284 4H20C21.6569 4 23 5.34315 23 7V19C23 20.6569 21.6569 22 20 22H4C2.34315 22 1 20.6569 1 19V5ZM3 7C3 6.44772 3.44772 6 4 6H20C20.5523 6 21 6.44772 21 7V19C21 19.5523 20.5523 20 20 20H4C3.44772 20 3 19.5523 3 19V7Z"
        fill="#303233" />
</svg>
