<svg width="24" height="24" viewBox="0 0 24 24" fill="none" xmlns="http://www.w3.org/2000/svg">
    <path fill-rule="evenodd" clip-rule="evenodd"
        d="M11 1.25C5.06294 1.25 0.25 6.06294 0.25 12C0.25 17.9371 5.06294 22.75 11 22.75C12.3611 22.75 13.6632 22.497 14.8617 22.0355C15.3202 20.837 16.1854 19.84 17.2888 19.2135C16.7958 18.6104 16.5 17.8397 16.5 17C16.5 15.067 18.0671 13.5 20 13.5C20.5711 13.5 21.1101 13.6367 21.5863 13.8793C21.6939 13.269 21.75 12.6411 21.75 12C21.75 6.06294 16.9371 1.25 11 1.25ZM11.75 6C11.75 5.58579 11.4142 5.25 11 5.25C10.5858 5.25 10.25 5.58579 10.25 6V12C10.25 12.2841 10.4105 12.5438 10.6646 12.6708L14.6646 14.6708C15.0351 14.8561 15.4856 14.7059 15.6708 14.3354C15.8561 13.9649 15.7059 13.5144 15.3354 13.3292L11.75 11.5365V6Z"
        fill="#303233" />
    <path
        d="M18 17C18 15.8954 18.8954 15 20 15C21.1045 15 22 15.8954 22 17C22 18.1046 21.1045 19 20 19C18.8954 19 18 18.1046 18 17Z"
        fill="#303233" />
    <path
        d="M23.9305 23.2541C23.5811 21.4014 21.9542 20 20 20C18.0458 20 16.4188 21.4014 16.0694 23.2541C15.9926 23.6611 16.3358 24 16.75 24H23.25C23.6642 24 24.0073 23.6611 23.9305 23.2541Z"
        fill="#303233" />
</svg>
