<svg width="24" height="24" viewBox="0 0 24 24" fill="none" xmlns="http://www.w3.org/2000/svg">
    <path fill-rule="evenodd" clip-rule="evenodd"
        d="M8 4C6.34315 4 5 5.34315 5 7V17C5 18.6569 6.34315 20 8 20C9.65685 20 11 18.6569 11 17V7C11 5.34315 9.65685 4 8 4ZM7 7C7 6.44772 7.44772 6 8 6C8.55228 6 9 6.44772 9 7V17C9 17.5523 8.55228 18 8 18C7.44772 18 7 17.5523 7 17V7Z"
        fill="#303233" />
    <path fill-rule="evenodd" clip-rule="evenodd"
        d="M16 4C14.3431 4 13 5.34315 13 7V17C13 18.6569 14.3431 20 16 20C17.6569 20 19 18.6569 19 17V7C19 5.34315 17.6569 4 16 4ZM15 7C15 6.44772 15.4477 6 16 6C16.5523 6 17 6.44772 17 7V17C17 17.5523 16.5523 18 16 18C15.4477 18 15 17.5523 15 17V7Z"
        fill="#303233" />
</svg>
