<svg width="24" height="24" viewBox="0 0 24 24" fill="none" xmlns="http://www.w3.org/2000/svg">
    <path fill-rule="evenodd" clip-rule="evenodd"
        d="M12 1.25C6.06294 1.25 1.25 6.06294 1.25 12C1.25 17.9371 6.06294 22.75 12 22.75C17.9371 22.75 22.75 17.9371 22.75 12C22.75 6.06294 17.9371 1.25 12 1.25ZM12.75 6C12.75 5.58579 12.4142 5.25 12 5.25C11.5858 5.25 11.25 5.58579 11.25 6V12C11.25 12.2841 11.4105 12.5438 11.6646 12.6708L15.6646 14.6708C16.0351 14.8561 16.4856 14.7059 16.6708 14.3354C16.8561 13.9649 16.7059 13.5144 16.3354 13.3292L12.75 11.5365V6Z"
        fill="#303233" />
</svg>
