<svg width="16" height="16" viewBox="0 0 16 16" fill="none" xmlns="http://www.w3.org/2000/svg">
    <path fill-rule="evenodd" clip-rule="evenodd"
        d="M7.999 7.26699C9.179 6.01099 10.391 4.89999 12.016 4.89999C13.998 4.89999 15 6.44399 15 7.99999C15 9.55599 13.997 11.1 12.016 11.1C11.075 11.1 10.271 10.741 9.536 10.187C8.998 9.78099 8.497 9.26899 7.998 8.73399C6.808 9.98699 5.517 11.1 3.735 11.1C1.938 11.1 1 9.56699 1 7.99999C1 6.43299 1.938 4.89999 3.735 4.89999C5.517 4.89999 6.808 6.01399 7.999 7.26699ZM7.319 7.99999C6.312 6.91899 5.254 5.89999 3.735 5.89999C2.551 5.89999 2 6.96699 2 7.99999C2 9.03299 2.551 10.1 3.735 10.1C5.254 10.1 6.312 9.08099 7.319 7.99999ZM12.016 5.89999C11.301 5.89999 10.697 6.19099 10.138 6.61199C9.627 6.99699 9.154 7.48999 8.681 7.99999C9.153 8.50999 9.627 9.00299 10.138 9.38799C10.697 9.80899 11.301 10.1 12.016 10.1C13.346 10.1 14 9.04399 14 7.99999C14 6.95599 13.347 5.89999 12.016 5.89999Z"
        fill="#303233" />
</svg>
