<svg width="16" height="16" viewBox="0 0 16 16" fill="none" xmlns="http://www.w3.org/2000/svg">
    <path fill-rule="evenodd" clip-rule="evenodd"
        d="M15.25 7.99995C15.25 4.58498 12.035 1.75 8.00006 1.75C3.96509 1.75 0.750117 4.58498 0.750117 7.99995C0.750117 9.02994 1.03811 10.0029 1.55311 10.8639C1.61211 10.9629 1.64711 11.0799 1.60511 11.1869L0.802116 13.2249C0.702117 13.4789 0.748117 13.7679 0.922115 13.9779C1.09711 14.1889 1.37211 14.2879 1.64011 14.2369L4.75708 13.6429C4.81908 13.6319 4.88108 13.6439 4.93908 13.6669C5.90708 14.0549 6.94907 14.2529 8.00106 14.2499C12.036 14.2489 15.25 11.4139 15.25 7.99995Z"
        fill="#303233" />
</svg>
