<svg width="24" height="24" viewBox="0 0 24 24" fill="none" xmlns="http://www.w3.org/2000/svg">
    <path fill-rule="evenodd" clip-rule="evenodd"
        d="M8.7679 1.25H15.2321C16.0449 1.24999 16.7006 1.24999 17.2315 1.29336C17.7781 1.33803 18.2582 1.43239 18.7025 1.65873C19.4081 2.01825 19.9818 2.59193 20.3413 3.29754C20.5676 3.74175 20.662 4.2219 20.7066 4.76853C20.75 5.29944 20.75 5.95505 20.75 6.76788V9.5C20.75 9.91421 20.4142 10.25 20 10.25C19.5858 10.25 19.25 9.91421 19.25 9.5V6.8C19.25 5.94755 19.2494 5.35331 19.2116 4.89068C19.1745 4.4368 19.1054 4.17604 19.0048 3.97852C18.7891 3.55516 18.4448 3.21095 18.0215 2.99524C17.824 2.8946 17.5632 2.82547 17.1093 2.78838C16.6467 2.75058 16.0525 2.75 15.2 2.75H8.8C7.94755 2.75 7.35331 2.75058 6.89068 2.78838C6.4368 2.82547 6.17604 2.8946 5.97852 2.99524C5.55516 3.21095 5.21095 3.55516 4.99524 3.97852C4.8946 4.17604 4.82547 4.4368 4.78838 4.89068C4.75058 5.35331 4.75 5.94755 4.75 6.8V17.2C4.75 18.0525 4.75058 18.6467 4.78838 19.1093C4.82547 19.5632 4.8946 19.824 4.99524 20.0215C5.21095 20.4448 5.55516 20.789 5.97852 21.0048C6.17604 21.1054 6.4368 21.1745 6.89068 21.2116C7.35331 21.2494 7.94755 21.25 8.8 21.25H14C14.4142 21.25 14.75 21.5858 14.75 22C14.75 22.4142 14.4142 22.75 14 22.75H8.76788C7.95505 22.75 7.29944 22.75 6.76853 22.7066C6.2219 22.662 5.74175 22.5676 5.29754 22.3413C4.59193 21.9817 4.01825 21.4081 3.65873 20.7025C3.43239 20.2582 3.33803 19.7781 3.29336 19.2315C3.24999 18.7006 3.24999 18.0449 3.25 17.2321V6.7679C3.24999 5.95506 3.24999 5.29944 3.29336 4.76853C3.33803 4.2219 3.43239 3.74175 3.65873 3.29754C4.01825 2.59193 4.59193 2.01825 5.29754 1.65873C5.74175 1.43239 6.2219 1.33803 6.76853 1.29336C7.29944 1.24999 7.95506 1.24999 8.7679 1.25ZM18.8742 14.2716C18.5255 14.2118 18.1668 14.2773 17.8617 14.4566C17.5567 14.6359 17.3249 14.9173 17.2075 15.2511C17.07 15.6419 16.6419 15.8472 16.2511 15.7097C15.8604 15.5723 15.655 15.1441 15.7925 14.7534C16.0275 14.0854 16.4913 13.5222 17.1017 13.1634C17.7122 12.8046 18.4299 12.6735 19.1278 12.7932C19.8257 12.9129 20.4587 13.2757 20.9147 13.8174C21.3707 14.3591 21.6203 15.0447 21.6192 15.7528C21.6187 16.8998 20.7683 17.6572 20.1611 18.062C19.8346 18.2796 19.5134 18.4397 19.2768 18.5448C19.1575 18.5979 19.0569 18.6381 18.9845 18.6657C18.9482 18.6796 18.9188 18.6903 18.8974 18.6979L18.8714 18.707L18.8631 18.7098L18.8602 18.7108L18.859 18.7112C18.4661 18.8422 18.0404 18.6301 17.9094 18.2372C17.7785 17.8445 17.9905 17.4201 18.3828 17.2888L18.3949 17.2846C18.4064 17.2805 18.4253 17.2736 18.4505 17.264C18.5011 17.2448 18.5762 17.2148 18.6676 17.1741C18.8526 17.0919 19.0935 16.9709 19.3291 16.8139C19.8458 16.4694 20.1192 16.103 20.1192 15.7517V15.7506C20.1198 15.3967 19.9951 15.0541 19.7672 14.7834C19.5393 14.5127 19.223 14.3314 18.8742 14.2716ZM17.9 21C17.9 20.5858 18.2358 20.25 18.65 20.25H18.66C19.0742 20.25 19.41 20.5858 19.41 21C19.41 21.4142 19.0742 21.75 18.66 21.75H18.65C18.2358 21.75 17.9 21.4142 17.9 21Z"
        fill="#303233" />
</svg>
