<svg width="24" height="24" viewBox="0 0 24 24" fill="none" xmlns="http://www.w3.org/2000/svg">
    <path fill-rule="evenodd" clip-rule="evenodd"
        d="M16.6176 3.34056C16.2159 3.21005 15.7832 3.21005 15.3815 3.34056C15.2146 3.3948 15.0101 3.50743 14.6748 3.79211C14.3305 4.08437 13.9182 4.49556 13.3125 5.10126L7.41376 11L12.9995 16.5858L18.8983 10.687C19.504 10.0813 19.9152 9.66905 20.2075 9.32479C20.4921 8.98945 20.6048 8.78501 20.659 8.61807C20.7895 8.21638 20.7895 7.78369 20.659 7.382C20.6048 7.21506 20.4921 7.01062 20.2075 6.67528C19.9152 6.33102 19.504 5.91872 18.8983 5.31303L18.6866 5.10125C18.0809 4.49556 17.6686 4.08437 17.3243 3.79211C16.989 3.50743 16.7845 3.3948 16.6176 3.34056ZM20.3417 12.0721C20.9109 11.5029 21.3807 11.0331 21.7322 10.6191C22.0971 10.1892 22.3928 9.75415 22.5611 9.2361C22.8222 8.43273 22.8222 7.56734 22.5611 6.76397C22.3928 6.24592 22.0971 5.81086 21.7322 5.38093C21.3807 4.96697 20.9109 4.49719 20.3417 3.92799L20.0715 3.6578C19.5023 3.08861 19.0326 2.61884 18.6187 2.26743C18.1887 1.90244 17.7537 1.60677 17.2356 1.43845C16.4322 1.17742 15.5669 1.17742 14.7635 1.43845C14.2454 1.60677 13.8104 1.90244 13.3804 2.26743C12.9665 2.61884 12.4967 3.08862 11.9276 3.65782L3.65734 11.928C3.08814 12.4972 2.61836 12.967 2.26694 13.3809C1.90195 13.8109 1.60628 14.2459 1.43796 14.764C1.17693 15.5673 1.17693 16.4327 1.43796 17.2361C1.60628 17.7541 1.90195 18.1892 2.26694 18.6191C2.61836 19.0331 3.08814 19.5029 3.65734 20.072L4.35518 20.7699C4.37498 20.7897 4.3946 20.8093 4.41406 20.8288C4.70151 21.1168 4.95494 21.3707 5.26048 21.558C5.52889 21.7224 5.82153 21.8437 6.12764 21.9171C6.47608 22.0008 6.83482 22.0005 7.24171 22.0001C7.26926 22.0001 7.29703 22 7.32503 22H8.67406C8.70206 22 8.72983 22.0001 8.75738 22.0001C8.81186 22.0001 8.86548 22.0002 8.91832 22H20.9995C21.5518 22 21.9995 21.5523 21.9995 21C21.9995 20.4478 21.5518 20 20.9995 20H12.4138L20.3417 12.0721ZM11.5853 18L5.99955 12.4142L5.10077 13.313C4.49507 13.9187 4.08388 14.331 3.79162 14.6753C3.50694 15.0106 3.39432 15.2151 3.34007 15.382C3.20956 15.7837 3.20956 16.2164 3.34007 16.6181C3.39432 16.785 3.50694 16.9895 3.79162 17.3248C4.08388 17.6691 4.49507 18.0813 5.10076 18.687L5.76939 19.3557C6.14895 19.7352 6.22803 19.8052 6.30548 19.8527C6.39495 19.9075 6.49249 19.9479 6.59453 19.9724C6.68285 19.9936 6.78825 20 7.32503 20H8.67406C9.21084 20 9.31625 19.9936 9.40456 19.9724C9.5066 19.9479 9.60415 19.9075 9.69362 19.8527C9.77106 19.8052 9.85014 19.7352 10.2297 19.3557L11.5853 18Z"
        fill="#303233" />
</svg>
