<svg width="24" height="24" viewBox="0 0 24 24" fill="none" xmlns="http://www.w3.org/2000/svg">
    <path fill-rule="evenodd" clip-rule="evenodd"
        d="M11 5C11.5523 5 12 5.44772 12 6V11.382L15.4472 13.1056C15.9412 13.3526 16.1414 13.9532 15.8944 14.4472C15.6474 14.9412 15.0468 15.1414 14.5528 14.8944L10.5528 12.8944C10.214 12.725 10 12.3788 10 12V6C10 5.44772 10.4477 5 11 5Z"
        fill="#303233" />
    <path
        d="M20 15C18.8954 15 18 15.8954 18 17C18 18.1046 18.8954 19 20 19C21.1046 19 22 18.1046 22 17C22 15.8954 21.1046 15 20 15Z"
        fill="#303233" />
    <path
        d="M20 20C21.8675 20 23.4361 21.2798 23.8766 23.0101C24.0128 23.5453 23.5523 24 23 24H17C16.4477 24 15.9872 23.5453 16.1234 23.0101C16.5639 21.2798 18.1325 20 20 20Z"
        fill="#303233" />
    <path fill-rule="evenodd" clip-rule="evenodd"
        d="M11 3C6.02944 3 2 7.02944 2 12C2 16.9706 6.02944 21 11 21C11.6177 21 12.2199 20.9379 12.801 20.8199C13.3423 20.71 13.8701 21.0597 13.98 21.6009C14.0899 22.1422 13.7402 22.67 13.199 22.7799C12.4877 22.9243 11.7522 23 11 23C4.92487 23 0 18.0751 0 12C0 5.92487 4.92487 1 11 1C17.0751 1 22 5.92487 22 12C22 12.5523 21.5523 13 21 13C20.4477 13 20 12.5523 20 12C20 7.02944 15.9706 3 11 3Z"
        fill="#303233" />
</svg>
