<svg width="16" height="16" viewBox="0 0 16 16" fill="none" xmlns="http://www.w3.org/2000/svg">
    <path fill-rule="evenodd" clip-rule="evenodd"
        d="M15 8C15 11.866 11.866 15 8 15C4.13401 15 1 11.866 1 8C1 4.13401 4.13401 1 8 1C11.866 1 15 4.13401 15 8ZM7.64645 5.85355C7.45118 5.65829 7.45118 5.34171 7.64645 5.14645C7.84171 4.95118 8.15829 4.95118 8.35355 5.14645L10.8536 7.64645C11.0488 7.84171 11.0488 8.15829 10.8536 8.35355L8.35355 10.8536C8.15829 11.0488 7.84171 11.0488 7.64645 10.8536C7.45118 10.6583 7.45118 10.3417 7.64645 10.1464L9.29289 8.5H5.5C5.22386 8.5 5 8.27614 5 8C5 7.72386 5.22386 7.5 5.5 7.5H9.29289L7.64645 5.85355Z"
        fill="#303233" />
</svg>
