<svg width="24" height="24" viewBox="0 0 24 24" fill="none" xmlns="http://www.w3.org/2000/svg">
    <path fill-rule="evenodd" clip-rule="evenodd"
        d="M14 8C11.7909 8 10 9.79086 10 12C10 14.2091 11.7909 16 14 16C16.2091 16 18 14.2091 18 12C18 9.79086 16.2091 8 14 8ZM12 12C12 10.8954 12.8954 10 14 10C15.1046 10 16 10.8954 16 12C16 13.1046 15.1046 14 14 14C12.8954 14 12 13.1046 12 12Z"
        fill="#303233" />
    <path fill-rule="evenodd" clip-rule="evenodd"
        d="M14.8385 1H5.16146C4.63433 0.999984 4.17954 0.999969 3.80497 1.03057C3.40963 1.06287 3.01641 1.13419 2.63803 1.32698C2.07354 1.6146 1.6146 2.07354 1.32698 2.63803C1.13419 3.01641 1.06287 3.40963 1.03057 3.80497C0.999969 4.17954 0.999984 4.63428 1 5.16142V14.8385C0.999984 15.3657 0.999969 15.8205 1.03057 16.195C1.06287 16.5904 1.13419 16.9836 1.32698 17.362C1.6146 17.9265 2.07354 18.3854 2.63803 18.673C3.01641 18.8658 3.40963 18.9371 3.80497 18.9694C4.14076 18.9969 4.54098 18.9997 5.00003 19C5.00031 19.459 5.00314 19.8592 5.03057 20.195C5.06287 20.5904 5.13419 20.9836 5.32698 21.362C5.6146 21.9265 6.07354 22.3854 6.63803 22.673C7.01641 22.8658 7.40963 22.9371 7.80497 22.9694C8.17954 23 8.6343 23 9.16144 23H18.8386C19.3657 23 19.8205 23 20.195 22.9694C20.5904 22.9371 20.9836 22.8658 21.362 22.673C21.9265 22.3854 22.3854 21.9265 22.673 21.362C22.8658 20.9836 22.9371 20.5904 22.9694 20.195C23 19.8205 23 19.3657 23 18.8386V9.16144C23 8.6343 23 8.17954 22.9694 7.80497C22.9371 7.40963 22.8658 7.01641 22.673 6.63803C22.3854 6.07354 21.9265 5.6146 21.362 5.32698C20.9836 5.13419 20.5904 5.06287 20.195 5.03057C19.8592 5.00314 19.459 5.00031 19 5.00003C18.9997 4.54098 18.9969 4.14076 18.9694 3.80497C18.9371 3.40963 18.8658 3.01641 18.673 2.63803C18.3854 2.07354 17.9265 1.6146 17.362 1.32698C16.9836 1.13419 16.5904 1.06287 16.195 1.03057C15.8205 0.999969 15.3657 0.999984 14.8385 1ZM16.9999 5C16.9995 4.5349 16.9964 4.21698 16.9761 3.96784C16.9539 3.69618 16.9162 3.59546 16.891 3.54601C16.7951 3.35785 16.6422 3.20487 16.454 3.109C16.4045 3.0838 16.3038 3.04613 16.0322 3.02393C15.7488 3.00078 15.3766 3 14.8 3H5.2C4.62345 3 4.25118 3.00078 3.96784 3.02393C3.69618 3.04613 3.59546 3.0838 3.54601 3.109C3.35785 3.20487 3.20487 3.35785 3.109 3.54601C3.0838 3.59546 3.04613 3.69618 3.02393 3.96784C3.00078 4.25118 3 4.62345 3 5.2V14.8C3 15.3766 3.00078 15.7488 3.02393 16.0322C3.04613 16.3038 3.0838 16.4045 3.109 16.454C3.20487 16.6422 3.35785 16.7951 3.54601 16.891C3.59546 16.9162 3.69618 16.9539 3.96784 16.9761C4.21698 16.9964 4.5349 16.9995 5 16.9999V9.16146C4.99998 8.63431 4.99997 8.17955 5.03057 7.80497C5.06287 7.40963 5.13419 7.01641 5.32698 6.63803C5.6146 6.07354 6.07354 5.6146 6.63803 5.32698C7.01641 5.13419 7.40963 5.06287 7.80497 5.03057C8.17955 4.99997 8.63431 4.99998 9.16146 5H16.9999ZM7.96784 7.02393C7.69618 7.04613 7.59546 7.0838 7.54601 7.109C7.35785 7.20487 7.20487 7.35785 7.109 7.54601C7.0838 7.59546 7.04613 7.69618 7.02393 7.96784C7.00078 8.25118 7 8.62345 7 9.2V18.8C7 19.3766 7.00078 19.7488 7.02393 20.0322C7.04613 20.3038 7.0838 20.4045 7.109 20.454C7.15118 20.5368 7.20441 20.6127 7.26683 20.68C8.68885 18.4678 11.1728 17 14.0011 17C16.8288 17 19.3123 18.4671 20.7345 20.6786C20.7963 20.6117 20.8491 20.5362 20.891 20.454C20.9162 20.4045 20.9539 20.3038 20.9761 20.0322C20.9992 19.7488 21 19.3766 21 18.8V9.2C21 8.62345 20.9992 8.25118 20.9761 7.96784C20.9539 7.69618 20.9162 7.59546 20.891 7.54601C20.7951 7.35785 20.6422 7.20487 20.454 7.109C20.4045 7.0838 20.3038 7.04613 20.0322 7.02393C19.7488 7.00078 19.3766 7 18.8 7H9.2C8.62345 7 8.25118 7.00078 7.96784 7.02393ZM14.0011 19C15.7773 19 17.3743 19.7717 18.4736 21H9.52867C10.628 19.7717 12.225 19 14.0011 19Z"
        fill="#303233" />
</svg>
