<svg width="24" height="24" viewBox="0 0 24 24" fill="none" xmlns="http://www.w3.org/2000/svg">
    <path fill-rule="evenodd" clip-rule="evenodd"
        d="M3.86667 4.25C2.37362 4.25 1.25 5.53079 1.25 7V10.75H8C9.24264 10.75 10.25 11.7574 10.25 13V19.75H14.1333C15.6264 19.75 16.75 18.4692 16.75 17V15.2135L21.6646 17.6708C21.8971 17.7871 22.1732 17.7746 22.3943 17.638C22.6154 17.5013 22.75 17.2599 22.75 17V7C22.75 6.74007 22.6154 6.49867 22.3943 6.36201C22.1732 6.22536 21.8971 6.21293 21.6646 6.32918L16.75 8.78648V7C16.75 5.53079 15.6264 4.25 14.1333 4.25H3.86667ZM1.25 13C1.25 13.4142 1.58579 13.75 2 13.75H6.18934L1.46967 18.4697C1.17678 18.7626 1.17678 19.2374 1.46967 19.5303C1.76256 19.8232 2.23744 19.8232 2.53033 19.5303L7.25 14.8107V19C7.25 19.4142 7.58579 19.75 8 19.75C8.41421 19.75 8.75 19.4142 8.75 19V13C8.75 12.5858 8.41421 12.25 8 12.25H2C1.58579 12.25 1.25 12.5858 1.25 13Z"
        fill="#303233" />
</svg>
