<svg width="16" height="16" viewBox="0 0 16 16" fill="none" xmlns="http://www.w3.org/2000/svg">
    <g clip-path="url(#clip0_2630_1275)">
        <path fill-rule="evenodd" clip-rule="evenodd"
            d="M2.03033 0.96967C1.73744 0.676777 1.26256 0.676777 0.96967 0.96967C0.676777 1.26256 0.676777 1.73744 0.96967 2.03033L3.75 4.81066V6.36732C3.57911 6.40912 3.41309 6.46741 3.25153 6.54973C2.73408 6.81338 2.31338 7.23408 2.04973 7.75153C1.87789 8.08879 1.81078 8.44545 1.77974 8.82533C1.74998 9.18956 1.74999 9.63541 1.75 10.1696V10.8304C1.74999 11.3646 1.74998 11.8104 1.77974 12.1747C1.81078 12.5546 1.87789 12.9112 2.04973 13.2485C2.31338 13.7659 2.73408 14.1866 3.25153 14.4503C3.58879 14.6221 3.94545 14.6892 4.32533 14.7203C4.68956 14.75 5.13539 14.75 5.66953 14.75H10.3304C10.8646 14.75 11.3104 14.75 11.6747 14.7203C12.0546 14.6892 12.4112 14.6221 12.7485 14.4503C12.8877 14.3793 13.0199 14.297 13.1439 14.2046L13.9697 15.0303C14.2626 15.3232 14.7374 15.3232 15.0303 15.0303C15.3232 14.7374 15.3232 14.2626 15.0303 13.9697L7.53079 6.47013L7.52987 6.46921L5.0307 3.97004L5.02996 3.9693L2.03033 0.96967ZM6.68934 7.75H5.7C5.12757 7.75 4.74336 7.75058 4.44748 7.77476C4.16036 7.79822 4.02307 7.8401 3.93251 7.88624C3.69731 8.00608 3.50608 8.19731 3.38624 8.43251C3.3401 8.52307 3.29822 8.66035 3.27476 8.94748C3.25058 9.24336 3.25 9.62757 3.25 10.2V10.8C3.25 11.3724 3.25058 11.7566 3.27476 12.0525C3.29822 12.3396 3.3401 12.4769 3.38624 12.5675C3.50608 12.8027 3.69731 12.9939 3.93251 13.1138C4.02307 13.1599 4.16036 13.2018 4.44748 13.2252C4.74336 13.2494 5.12757 13.25 5.7 13.25H10.3C10.8724 13.25 11.2566 13.2494 11.5525 13.2252C11.8297 13.2026 11.9672 13.1628 12.0579 13.1185L6.68934 7.75Z"
            fill="#303233" />
        <path
            d="M5.66594 1.94782C6.33621 1.50666 7.13927 1.25 8 1.25C10.3472 1.25 12.25 3.15279 12.25 5.5V6.36732C12.4209 6.40912 12.5869 6.46741 12.7485 6.54973C13.2659 6.81338 13.6866 7.23408 13.9503 7.75153C14.1221 8.08879 14.1892 8.44545 14.2203 8.82533C14.25 9.18955 14.25 9.63538 14.25 10.1695V10.5C14.25 10.9142 13.9142 11.25 13.5 11.25C13.0858 11.25 12.75 10.9142 12.75 10.5V10.2C12.75 9.62757 12.7494 9.24336 12.7252 8.94748C12.7018 8.66035 12.6599 8.52307 12.6138 8.43251C12.4939 8.19731 12.3027 8.00608 12.0675 7.88624C11.9769 7.8401 11.8396 7.79822 11.5525 7.77476C11.2566 7.75058 10.8724 7.75 10.3 7.75H10C9.58579 7.75 9.25 7.41421 9.25 7C9.25 6.58579 9.58579 6.25 10 6.25L10.3304 6.25C10.4768 6.25 10.6167 6.24999 10.75 6.25061V5.5C10.75 3.98122 9.51878 2.75 8 2.75C7.44127 2.75 6.92355 2.91583 6.49061 3.20078C6.44007 3.23405 6.39068 3.26894 6.3425 3.3054C6.01221 3.55536 5.54182 3.49023 5.29186 3.15993C5.04191 2.82964 5.10703 2.35925 5.43733 2.1093C5.51165 2.05305 5.58789 1.99919 5.66594 1.94782Z"
            fill="#303233" />
    </g>
    <defs>
        <clipPath id="clip0_2630_1275">
            <rect width="16" height="16" fill="white" />
        </clipPath>
    </defs>
</svg>
