<svg width="16" height="16" viewBox="0 0 16 16" fill="none" xmlns="http://www.w3.org/2000/svg">
    <path
        d="M10.3304 0.75H5.66957C5.13542 0.74999 4.68956 0.749982 4.32533 0.77974C3.94545 0.810778 3.58879 0.877889 3.25153 1.04973C2.73408 1.31338 2.31339 1.73408 2.04973 2.25153C1.87789 2.58879 1.81078 2.94545 1.77974 3.32533C1.74998 3.68956 1.74999 4.1354 1.75 4.66955V11.3304C1.74999 11.8646 1.74998 12.3104 1.77974 12.6747C1.81078 13.0546 1.87789 13.4112 2.04973 13.7485C2.31338 14.2659 2.73408 14.6866 3.25153 14.9503C3.58879 15.1221 3.94545 15.1892 4.32533 15.2203C4.68955 15.25 5.13538 15.25 5.66951 15.25L7.5 15.25C7.91421 15.25 8.25 14.9142 8.25 14.5C8.25 14.0858 7.91422 13.75 7.5 13.75L5.7 13.75C5.12757 13.75 4.74336 13.7494 4.44748 13.7252C4.16035 13.7018 4.02307 13.6599 3.93251 13.6138C3.69731 13.4939 3.50608 13.3027 3.38624 13.0675C3.3401 12.9769 3.29822 12.8396 3.27476 12.5525C3.25058 12.2566 3.25 11.8724 3.25 11.3V4.7C3.25 4.12757 3.25058 3.74336 3.27476 3.44748C3.29822 3.16036 3.3401 3.02307 3.38624 2.93251C3.50608 2.69731 3.69731 2.50608 3.93251 2.38624C4.02307 2.3401 4.16036 2.29822 4.44748 2.27476C4.74336 2.25058 5.12757 2.25 5.7 2.25H10.3C10.8724 2.25 11.2566 2.25058 11.5525 2.27476C11.8396 2.29822 11.9769 2.3401 12.0675 2.38624C12.3027 2.50608 12.4939 2.69731 12.6138 2.93251C12.6599 3.02307 12.7018 3.16036 12.7252 3.44748C12.7494 3.74336 12.75 4.12757 12.75 4.7V7C12.75 7.41422 13.0858 7.75 13.5 7.75C13.9142 7.75 14.25 7.41422 14.25 7V4.66955C14.25 4.13542 14.25 3.68955 14.2203 3.32533C14.1892 2.94545 14.1221 2.58879 13.9503 2.25153C13.6866 1.73408 13.2659 1.31338 12.7485 1.04973C12.4112 0.877889 12.0546 0.810778 11.6747 0.77974C11.3104 0.749982 10.8646 0.74999 10.3304 0.75Z"
        fill="#303233" />
    <path
        d="M11.0303 9.96967C10.7374 9.67678 10.2626 9.67678 9.96967 9.96967C9.67678 10.2626 9.67678 10.7374 9.96967 11.0303L11.1893 12.25L9.96967 13.4697C9.67678 13.7626 9.67678 14.2374 9.96967 14.5303C10.2626 14.8232 10.7374 14.8232 11.0303 14.5303L12.25 13.3107L13.4697 14.5303C13.7626 14.8232 14.2374 14.8232 14.5303 14.5303C14.8232 14.2374 14.8232 13.7626 14.5303 13.4697L13.3107 12.25L14.5303 11.0303C14.8232 10.7374 14.8232 10.2626 14.5303 9.96967C14.2374 9.67678 13.7626 9.67678 13.4697 9.96967L12.25 11.1893L11.0303 9.96967Z"
        fill="#303233" />
</svg>
