<svg width="24" height="24" viewBox="0 0 24 24" fill="none" xmlns="http://www.w3.org/2000/svg">
    <path fill-rule="evenodd" clip-rule="evenodd"
        d="M15.2413 1H8.7587C7.95374 0.999988 7.28937 0.999978 6.74818 1.04419C6.18608 1.09012 5.66937 1.18868 5.18404 1.43598C4.43139 1.81947 3.81947 2.43139 3.43598 3.18404C3.18868 3.66937 3.09012 4.18608 3.04419 4.74818C2.99998 5.28937 2.99999 5.95372 3 6.75869V17.2413C2.99999 18.0463 2.99998 18.7106 3.04419 19.2518C3.09012 19.8139 3.18868 20.3306 3.43598 20.816C3.81947 21.5686 4.43139 22.1805 5.18404 22.564C5.66937 22.8113 6.18608 22.9099 6.74818 22.9558C7.28936 23 7.95372 23 8.75868 23H14.101C12.8045 21.7295 12 19.9587 12 18C12 14.134 15.134 11 19 11C19.695 11 20.3663 11.1013 21 11.2899V6.75868C21 5.95372 21 5.28936 20.9558 4.74818C20.9099 4.18608 20.8113 3.66937 20.564 3.18404C20.1805 2.43139 19.5686 1.81947 18.816 1.43598C18.3306 1.18868 17.8139 1.09012 17.2518 1.04419C16.7106 0.999978 16.0463 0.999988 15.2413 1Z"
        fill="#303233" />
    <path fill-rule="evenodd" clip-rule="evenodd"
        d="M19 13C16.2386 13 14 15.2386 14 18C14 20.7614 16.2386 23 19 23C21.7614 23 24 20.7614 24 18C24 15.2386 21.7614 13 19 13ZM16 18C16 16.3431 17.3431 15 19 15C19.4632 15 19.9018 15.105 20.2935 15.2924L16.2924 19.2935C16.105 18.9018 16 18.4632 16 18ZM17.7066 20.7077C18.0983 20.8951 18.5369 21 19 21C20.6569 21 22 19.6569 22 18C22 17.5369 21.8951 17.0983 21.7077 16.7066L17.7066 20.7077Z"
        fill="#303233" />
</svg>
