<svg width="16" height="16" viewBox="0 0 16 16" fill="none" xmlns="http://www.w3.org/2000/svg">
    <g clip-path="url(#clip0_53_6418)">
        <path fill-rule="evenodd" clip-rule="evenodd"
            d="M0.75 8C0.75 3.99594 3.99594 0.75 8 0.75C12.0041 0.75 15.25 3.99594 15.25 8C15.25 12.0041 12.0041 15.25 8 15.25C3.99594 15.25 0.75 12.0041 0.75 8ZM2.60714 6.00062C2.37618 6.62334 2.25 7.29693 2.25 8C2.25 8.70306 2.37618 9.37666 2.60713 9.99937L4.23402 9.34861C4.08316 8.92726 4.00098 8.47322 4.00098 7.99999C4.00098 7.52676 4.08316 7.07273 4.23402 6.65138L2.60714 6.00062ZM3.31352 11.3324C3.68649 11.8559 4.145 12.3144 4.66867 12.6872L5.34659 10.9924C5.22731 10.8865 5.11441 10.7736 5.00853 10.6544L3.31352 11.3324ZM6.65233 11.7669L6.00179 13.3933C6.62418 13.624 7.29737 13.75 8 13.75C8.7035 13.75 9.37749 13.6237 10.0005 13.3924L9.35024 11.7667C8.92871 11.9177 8.47445 12 8.00098 12C7.52774 12 7.07369 11.9178 6.65233 11.7669ZM10.6559 10.992C10.7748 10.8864 10.8873 10.7738 10.9929 10.6549L12.6865 11.3324C12.314 11.8553 11.8562 12.3132 11.3334 12.6857L10.6559 10.992ZM13.3929 9.99936L11.7677 9.34929C11.9187 8.92775 12.001 8.47348 12.001 7.99999C12.001 7.52651 11.9187 7.07223 11.7677 6.65069L13.3929 6.00062C13.6238 6.62333 13.75 7.29693 13.75 8C13.75 8.70306 13.6238 9.37665 13.3929 9.99936ZM12.6865 4.66763C12.3137 4.14431 11.8554 3.68608 11.3321 3.31333L10.6546 5.00694C10.774 5.11283 10.887 5.22575 10.9929 5.34505L12.6865 4.66763ZM9.34878 4.23274L9.99906 2.60702C9.37718 2.37642 8.70455 2.2503 8.00251 2.25L7.99749 2.25C7.29522 2.2503 6.62238 2.3765 6.00032 2.60725L6.65085 4.23358C7.07263 4.08237 7.52718 3.99999 8.00098 3.99999C8.4739 3.99999 8.92766 4.08207 9.34878 4.23274ZM5.34534 5.00868L4.66736 3.31372C4.14424 3.6864 3.68618 4.14449 3.31353 4.66763L5.00853 5.34563C5.11404 5.22677 5.22653 5.11424 5.34534 5.00868ZM8.00098 5.49999C6.62026 5.49999 5.50098 6.61928 5.50098 7.99999C5.50098 9.3807 6.62026 10.5 8.00098 10.5C9.38169 10.5 10.501 9.3807 10.501 7.99999C10.501 6.61928 9.38169 5.49999 8.00098 5.49999Z"
            fill="#303233" />
    </g>
    <defs>
        <clipPath id="clip0_53_6418">
            <rect width="16" height="16" fill="white" />
        </clipPath>
    </defs>
</svg>
