<svg width="24" height="24" viewBox="0 0 24 24" fill="none" xmlns="http://www.w3.org/2000/svg">
    <path
        d="M14.7412 1.10964C16.141 0.854642 17.5855 1.0328 18.8818 1.61941L18.4688 2.52956L19.1768 3.23757L15.416 6.99733L15.4131 6.99929L16.999 8.58523L20.7627 4.82253C20.9948 4.59073 21.3257 4.48742 21.6484 4.54616C21.9714 4.605 22.2455 4.81841 22.3809 5.11745C22.9675 6.41374 23.1446 7.85828 22.8896 9.25808C22.6346 10.6579 21.9592 11.9472 20.9531 12.9534C19.947 13.9595 18.6577 14.6348 17.2578 14.8899C16.0903 15.1026 14.8922 15.0134 13.7744 14.638L7.32617 21.0872C6.74083 21.6724 5.94688 22.0012 5.11914 22.0012C4.2914 22.0012 3.49742 21.6725 2.91211 21.0872C2.32681 20.5019 1.99809 19.7079 1.99805 18.8801C1.99805 18.0524 2.32687 17.2585 2.91211 16.6731L9.36035 10.2239C8.98523 9.1065 8.89673 7.90857 9.10938 6.74148C9.36446 5.34165 10.0398 4.0523 11.0459 3.04616C12.052 2.04009 13.3414 1.36469 14.7412 1.10964ZM18.8818 1.61941C19.1807 1.7548 19.3943 2.02801 19.4531 2.35085C19.5119 2.67378 19.4089 3.00546 19.1768 3.23757L18.4688 2.52956L18.8818 1.61941ZM3.99805 18.8801C3.99809 19.1775 4.11594 19.4629 4.32617 19.6731C4.53641 19.8834 4.82183 20.0012 5.11914 20.0012C5.41644 20.0012 5.70184 19.8833 5.91211 19.6731L12.8223 12.763L12.9395 12.6624C13.2271 12.4522 13.6097 12.4089 13.9414 12.5589C14.8674 12.9779 15.8995 13.1053 16.8994 12.9231C17.8992 12.7409 18.8195 12.2578 19.5381 11.5393C20.2568 10.8206 20.7397 9.8996 20.9219 8.89968C21.0099 8.4165 21.0241 7.92613 20.9697 7.44362L18.3994 10.0139C18.0256 10.3804 17.5225 10.5862 16.999 10.5862C16.541 10.5861 16.0989 10.4286 15.7451 10.1438L15.5996 10.0139L15.5918 10.0071L13.9922 8.40749L13.9854 8.39968C13.619 8.0259 13.4132 7.52363 13.4131 7.00026C13.4131 6.47676 13.6189 5.97373 13.9854 5.59987L16.5557 3.02859C16.0732 2.9742 15.5827 2.9894 15.0996 3.07741C14.0997 3.2596 13.1787 3.74251 12.46 4.4612C11.7415 5.17978 11.2594 6.1002 11.0771 7.09987C10.895 8.0998 11.0214 9.13189 11.4404 10.0579C11.612 10.4371 11.5306 10.8827 11.2363 11.177L4.32617 18.0872C4.116 18.2975 3.99805 18.5828 3.99805 18.8801Z"
        fill="#303233" />
</svg>
