<svg width="16" height="16" viewBox="0 0 16 16" fill="none" xmlns="http://www.w3.org/2000/svg">
    <path fill-rule="evenodd" clip-rule="evenodd"
        d="M8.00001 1.43152C7.68492 1.43152 7.37515 1.51273 7.10058 1.66731C6.82602 1.82189 6.59593 2.04463 6.43251 2.31403L0.784359 11.743L0.780352 11.75C0.620273 12.0272 0.535571 12.3415 0.534675 12.6616C0.533779 12.9817 0.616719 13.2965 0.775243 13.5746C0.933767 13.8527 1.16235 14.0845 1.43825 14.2468C1.71415 14.4092 2.02775 14.4965 2.34785 14.5L13.6467 14.5L13.6522 14.5C13.9723 14.4965 14.2859 14.4092 14.5618 14.2468C14.8377 14.0845 15.0663 13.8527 15.2248 13.5746C15.3833 13.2965 15.4662 12.9817 15.4654 12.6616C15.4645 12.3415 15.3798 12.0272 15.2197 11.75L9.56895 2.31641L9.56751 2.31403C9.4041 2.04463 9.17401 1.82189 8.89944 1.66731C8.62488 1.51273 8.3151 1.43152 8.00001 1.43152ZM8.00002 6C8.27616 6 8.50002 6.22386 8.50002 6.5V9C8.50002 9.27614 8.27616 9.5 8.00002 9.5C7.72387 9.5 7.50002 9.27614 7.50002 9V6.5C7.50002 6.22386 7.72387 6 8.00002 6ZM7.50002 11.5C7.50002 11.2239 7.72387 11 8.00002 11H8.00668C8.28282 11 8.50668 11.2239 8.50668 11.5C8.50668 11.7761 8.28282 12 8.00668 12H8.00002C7.72387 12 7.50002 11.7761 7.50002 11.5Z"
        fill="#303233" />
</svg>
