<svg width="16" height="16" viewBox="0 0 16 16" fill="none" xmlns="http://www.w3.org/2000/svg">
    <path
        d="M2.5 2C1.67157 2 1 2.67157 1 3.5C1 4.32843 1.67157 5 2.5 5H13.5C14.3284 5 15 4.32843 15 3.5C15 2.67157 14.3284 2 13.5 2H2.5Z"
        fill="#303233" />
    <path fill-rule="evenodd" clip-rule="evenodd"
        d="M2.5 6.5C2.5 6.22386 2.72386 6 3 6H13C13.2761 6 13.5 6.22386 13.5 6.5V10.8214C13.5 11.3633 13.5 11.8004 13.4711 12.1543C13.4413 12.5187 13.3784 12.8388 13.2275 13.135C12.9878 13.6054 12.6054 13.9878 12.135 14.2275C11.8388 14.3784 11.5187 14.4413 11.1543 14.4711C10.8004 14.5 10.3633 14.5 9.82147 14.5H6.17858C5.63672 14.5 5.19961 14.5 4.84569 14.4711C4.48126 14.4413 4.16117 14.3784 3.86502 14.2275C3.39462 13.9878 3.01217 13.6054 2.77248 13.135C2.62159 12.8388 2.55868 12.5187 2.52891 12.1543C2.49999 11.8004 2.49999 11.3633 2.5 10.8214V6.5ZM6 8.5C6 8.22386 6.22386 8 6.5 8H9.5C9.77614 8 10 8.22386 10 8.5C10 8.77614 9.77614 9 9.5 9H6.5C6.22386 9 6 8.77614 6 8.5Z"
        fill="#303233" />
</svg>
