<svg width="24" height="24" viewBox="0 0 24 24" fill="none" xmlns="http://www.w3.org/2000/svg">
    <path
        d="M3.99062 14.9864C4.86137 14.2608 5.55525 13.6576 6.07225 13.1769C6.58926 12.6871 7.0201 12.1791 7.36477 11.6531C7.70944 11.127 7.88178 10.61 7.88178 10.102C7.88178 9.63946 7.77293 9.27664 7.55525 9.01361C7.33756 8.75057 7.00196 8.61905 6.54844 8.61905C6.09493 8.61905 5.74572 8.77324 5.50082 9.08163C5.25593 9.38095 5.12894 9.79365 5.11987 10.3197H3.26953C3.30581 9.23129 3.62781 8.4059 4.23552 7.84354C4.8523 7.28118 5.63234 7 6.57565 7C7.60967 7 8.40332 7.27664 8.95661 7.82993C9.50989 8.37415 9.78654 9.09524 9.78654 9.9932C9.78654 10.7007 9.59606 11.3764 9.21511 12.0204C8.83416 12.6644 8.39878 13.2268 7.90899 13.7075C7.41919 14.1791 6.77974 14.7506 5.99062 15.4218H10.0042V17H3.28314V15.585L3.99062 14.9864Z"
        fill="#303233" />
    <path
        d="M13.7066 9.29289C13.3161 8.90237 12.683 8.90237 12.2924 9.29289C11.9019 9.68342 11.9019 10.3166 12.2924 10.7071L14.5853 13L12.2924 15.2929C11.9019 15.6834 11.9019 16.3166 12.2924 16.7071C12.683 17.0976 13.3161 17.0976 13.7066 16.7071L15.9995 14.4142L18.2924 16.7071C18.683 17.0976 19.3161 17.0976 19.7066 16.7071C20.0972 16.3166 20.0972 15.6834 19.7066 15.2929L17.4138 13L19.7066 10.7071C20.0972 10.3166 20.0972 9.68342 19.7066 9.29289C19.3161 8.90237 18.683 8.90237 18.2924 9.29289L15.9995 11.5858L13.7066 9.29289Z"
        fill="#303233" />
</svg>
