<svg width="16" height="16" viewBox="0 0 16 16" fill="none" xmlns="http://www.w3.org/2000/svg">
    <path fill-rule="evenodd" clip-rule="evenodd"
        d="M11.9697 1.96967C12.2626 1.67678 12.7374 1.67678 13.0303 1.96967L15.0303 3.96967C15.3232 4.26256 15.3232 4.73744 15.0303 5.03033C14.7374 5.32322 14.2626 5.32322 13.9697 5.03033L13.25 4.31066V11.25C13.25 12.9069 11.9069 14.25 10.25 14.25C8.59315 14.25 7.25 12.9069 7.25 11.25V4.75C7.25 3.92157 6.57843 3.25 5.75 3.25C4.92157 3.25 4.25 3.92157 4.25 4.75L4.25 11.6893L4.96967 10.9697C5.26256 10.6768 5.73744 10.6768 6.03033 10.9697C6.32322 11.2626 6.32322 11.7374 6.03033 12.0303L4.03033 14.0303C3.73744 14.3232 3.26256 14.3232 2.96967 14.0303L0.96967 12.0303C0.676777 11.7374 0.676777 11.2626 0.96967 10.9697C1.26256 10.6768 1.73744 10.6768 2.03033 10.9697L2.75 11.6893L2.75 4.75C2.75 3.09315 4.09315 1.75 5.75 1.75C7.40685 1.75 8.75 3.09315 8.75 4.75V11.25C8.75 12.0784 9.42157 12.75 10.25 12.75C11.0784 12.75 11.75 12.0784 11.75 11.25V4.31066L11.0303 5.03033C10.7374 5.32322 10.2626 5.32322 9.96967 5.03033C9.67678 4.73744 9.67678 4.26256 9.96967 3.96967L11.9697 1.96967Z"
        fill="#303233" />
</svg>
