<svg width="16" height="16" viewBox="0 0 16 16" fill="none" xmlns="http://www.w3.org/2000/svg">
    <path
        d="M3.5 9C3.5 8.72386 3.72386 8.5 4 8.5H9C9.27614 8.5 9.5 8.72386 9.5 9C9.5 9.27614 9.27614 9.5 9 9.5H4C3.72386 9.5 3.5 9.27614 3.5 9Z"
        fill="#303233" />
    <path
        d="M11 8.5C10.7239 8.5 10.5 8.72386 10.5 9C10.5 9.27614 10.7239 9.5 11 9.5H12C12.2761 9.5 12.5 9.27614 12.5 9C12.5 8.72386 12.2761 8.5 12 8.5H11Z"
        fill="#303233" />
    <path fill-rule="evenodd" clip-rule="evenodd"
        d="M2.36364 2.5C1.33047 2.5 0.5 3.34339 0.5 4.375V11.625C0.5 12.6566 1.33047 13.5 2.36364 13.5H13.6364C14.6695 13.5 15.5 12.6566 15.5 11.625V4.375C15.5 3.34339 14.6695 2.5 13.6364 2.5H2.36364ZM1.5 4.375C1.5 3.88783 1.89057 3.5 2.36364 3.5H13.6364C14.1094 3.5 14.5 3.88783 14.5 4.375L14.5 6H1.5V4.375ZM1.5 7V11.625C1.5 12.1122 1.89057 12.5 2.36364 12.5H13.6364C14.1094 12.5 14.5 12.1122 14.5 11.625L14.5 7H1.5Z"
        fill="#303233" />
</svg>
