<svg width="16" height="16" viewBox="0 0 16 16" fill="none" xmlns="http://www.w3.org/2000/svg">
    <path fill-rule="evenodd" clip-rule="evenodd"
        d="M8.00001 1.18152C7.64196 1.18152 7.28994 1.2738 6.97794 1.44946C6.66593 1.62513 6.40446 1.87824 6.21876 2.18438L0.569864 11.6146L0.563854 11.625C0.381946 11.94 0.285695 12.2972 0.284676 12.6609C0.283658 13.0247 0.377907 13.3824 0.558049 13.6984C0.73819 14.0145 0.997943 14.2778 1.31147 14.4623C1.62499 14.6468 1.98135 14.746 2.3451 14.75L13.6467 14.7501L13.6549 14.75C14.0187 14.746 14.375 14.6468 14.6886 14.4623C15.0021 14.2778 15.2618 14.0145 15.442 13.6984C15.6221 13.3824 15.7164 13.0247 15.7154 12.6609C15.7143 12.2972 15.6182 11.9399 15.4363 11.6249L9.78342 2.18794L9.78126 2.18438C9.59557 1.87824 9.3341 1.62513 9.02209 1.44946C8.71009 1.2738 8.35807 1.18152 8.00001 1.18152ZM8.00002 5.25C8.41423 5.25 8.75002 5.58579 8.75002 6V8.5C8.75002 8.91421 8.41423 9.25 8.00002 9.25C7.5858 9.25 7.25002 8.91421 7.25002 8.5V6C7.25002 5.58579 7.5858 5.25 8.00002 5.25ZM7.25002 11.25C7.25002 10.8358 7.5858 10.5 8.00002 10.5H8.00668C8.4209 10.5 8.75668 10.8358 8.75668 11.25C8.75668 11.6642 8.4209 12 8.00668 12H8.00002C7.5858 12 7.25002 11.6642 7.25002 11.25Z"
        fill="#303233" />
</svg>
