<svg width="16" height="16" viewBox="0 0 16 16" fill="none" xmlns="http://www.w3.org/2000/svg">
    <path fill-rule="evenodd" clip-rule="evenodd"
        d="M10.2305 0.750001C10.7818 0.749991 11.2407 0.749706 11.6152 0.780274C12.0054 0.812153 12.37 0.881521 12.7139 1.05664C13.2431 1.32629 13.6737 1.75693 13.9434 2.28613C14.1185 2.62998 14.1878 2.99459 14.2197 3.38477C14.2503 3.75932 14.25 4.21825 14.25 4.76953V11.2305C14.25 11.7818 14.2503 12.2407 14.2197 12.6152C14.1878 13.0054 14.1185 13.37 13.9434 13.7139C13.6737 14.2431 13.2431 14.6737 12.7139 14.9434C12.37 15.1185 12.0054 15.1878 11.6152 15.2197C11.2407 15.2503 10.7818 15.25 10.2305 15.25H5.76953C5.21825 15.25 4.75932 15.2503 4.38477 15.2197C3.99459 15.1878 3.62998 15.1185 3.28613 14.9434C2.75693 14.6737 2.32629 14.2431 2.05664 13.7139C1.88152 13.37 1.81215 13.0054 1.78027 12.6152C1.74971 12.2407 1.74999 11.7818 1.75 11.2305V4.76953C1.74999 4.21825 1.74971 3.75932 1.78027 3.38477C1.81215 2.99459 1.88152 2.62998 2.05664 2.28613C2.32629 1.75693 2.75693 1.32629 3.28613 1.05664C3.62998 0.88152 3.99459 0.812153 4.38477 0.780274C4.75932 0.749706 5.21825 0.749991 5.76953 0.750001H10.2305ZM7.5 8.75C7.08579 8.75 6.75 9.08579 6.75 9.5C6.75 10.1904 7.30965 10.75 8 10.75C8.69036 10.75 9.25 10.1904 9.25 9.5C9.25 9.08579 8.91421 8.75 8.5 8.75H7.5ZM7.5 6.75C7.08579 6.75 6.75 7.08579 6.75 7.5C6.75 7.91421 7.08579 8.25 7.5 8.25H8.5C8.91421 8.25 9.25 7.91421 9.25 7.5C9.25 7.08579 8.91421 6.75 8.5 6.75H7.5ZM7.5 4.75C7.08579 4.75 6.75 5.08579 6.75 5.5C6.75 5.91421 7.08579 6.25 7.5 6.25H8.5C8.91421 6.25 9.25 5.91421 9.25 5.5C9.25 5.08579 8.91421 4.75 8.5 4.75H7.5ZM7.5 2.75C7.08579 2.75 6.75 3.08579 6.75 3.5C6.75 3.91421 7.08579 4.25 7.5 4.25H8.5C8.91421 4.25 9.25 3.91421 9.25 3.5C9.25 3.08579 8.91421 2.75 8.5 2.75H7.5Z"
        fill="#303233" />
</svg>
