<svg width="16" height="16" viewBox="0 0 16 16" fill="none" xmlns="http://www.w3.org/2000/svg">
    <g clip-path="url(#clip0_8980_10)">
        <path fill-rule="evenodd" clip-rule="evenodd"
            d="M8.00098 0.719727C8.43163 0.719874 8.78027 1.06931 8.78027 1.5C8.78026 1.93068 8.43162 2.28013 8.00098 2.28027L8 2.2793C6.26088 2.27936 4.71698 2.49777 3.63379 2.83105C3.08744 2.99917 2.70239 3.18401 2.4707 3.35254C2.38039 3.41824 2.33043 3.46776 2.30371 3.5C2.33043 3.53224 2.38042 3.58178 2.4707 3.64746C2.7024 3.81598 3.08745 4.00084 3.63379 4.16895C4.71698 4.50223 6.26088 4.71869 8 4.71875L8.00098 4.71973C8.43163 4.71987 8.78027 5.06931 8.78027 5.5C8.78026 5.93068 8.43162 6.28013 8.00098 6.28027C7.99125 6.28027 7.98132 6.27867 7.97168 6.27832C6.13242 6.27594 4.43737 6.04864 3.1748 5.66016C2.85734 5.56247 2.55569 5.45109 2.28027 5.3252V7.96875C2.29503 7.99318 2.34214 8.05394 2.4707 8.14746C2.7024 8.31598 3.08744 8.50084 3.63379 8.66895C4.71712 9.00228 6.26157 9.21973 8.00098 9.21973C9.74008 9.2197 11.2839 9.0022 12.3672 8.66895C12.9136 8.50081 13.2996 8.31601 13.5312 8.14746C13.6615 8.05266 13.7076 7.99144 13.7217 7.96777C13.7387 7.55204 14.0811 7.21973 14.501 7.21973C14.9316 7.21987 15.2803 7.56931 15.2803 8V12.5C15.2803 13.1451 14.8582 13.6116 14.4492 13.9092C14.0231 14.2192 13.456 14.4664 12.8262 14.6602C11.5571 15.0506 9.85121 15.2803 8.00098 15.2803C6.15053 15.2803 4.44401 15.0507 3.1748 14.6602C2.54505 14.4664 1.97884 14.2192 1.55273 13.9092C1.14366 13.6116 0.720704 13.1453 0.720703 12.5V3.5C0.720703 2.85472 1.14366 2.38841 1.55273 2.09082C1.97884 1.78084 2.54505 1.53363 3.1748 1.33984C4.44385 0.949368 6.1508 0.719785 8.00098 0.719727ZM13.7207 9.8252C13.4453 9.9511 13.1437 10.0625 12.8262 10.1602C11.5571 10.5506 9.85121 10.7803 8.00098 10.7803C6.15053 10.7803 4.44401 10.5507 3.1748 10.1602C2.85734 10.0625 2.55569 9.95109 2.28027 9.8252V12.4688C2.29503 12.4932 2.34214 12.5539 2.4707 12.6475C2.7024 12.816 3.08744 13.0008 3.63379 13.1689C4.71712 13.5023 6.26157 13.7197 8.00098 13.7197C9.74008 13.7197 11.2839 13.5022 12.3672 13.1689C12.9136 13.0008 13.2996 12.816 13.5312 12.6475C13.6595 12.5542 13.7059 12.4932 13.7207 12.4688V9.8252Z"
            fill="#303233" />
        <path fill-rule="evenodd" clip-rule="evenodd"
            d="M13 0C14.6566 0.000255096 16 1.3433 16 3C16 4.6567 14.6566 5.99974 13 6C11.3431 6 10 4.65685 10 3C10 1.34315 11.3431 0 13 0ZM13 4C12.7239 4 12.5 4.22386 12.5 4.5C12.5 4.77614 12.7239 5.00098 13 5.00098C13.2759 5.00072 13.5 4.77696 13.5 4.50098C13.5 4.22499 13.2759 4.00026 13 4ZM13 1C12.7239 1 12.5 1.22386 12.5 1.5V3C12.5 3.27614 12.7239 3.5 13 3.5C13.2759 3.49975 13.5 3.27599 13.5 3V1.5C13.5 1.22401 13.2759 1.00025 13 1Z"
            fill="#303233" />
    </g>
    <defs>
        <clipPath id="clip0_8980_10">
            <rect width="16" height="16" fill="white" />
        </clipPath>
    </defs>
</svg>
