<svg width="16" height="16" viewBox="0 0 16 16" fill="none" xmlns="http://www.w3.org/2000/svg">
    <path
        d="M4.6786 1.5H10.3214C10.8633 1.5 11.3004 1.49999 11.6543 1.52891C12.0187 1.55868 12.3388 1.62159 12.635 1.77248C13.1054 2.01217 13.4878 2.39462 13.7275 2.86502C13.8947 3.19318 13.9544 3.55223 13.9799 3.96953C13.9896 4.12951 13.9946 4.30356 13.9972 4.49319C14.0009 4.76931 13.7802 4.99619 13.504 4.99995C13.2279 5.00372 13.001 4.78293 12.9973 4.50681C12.9948 4.32492 12.9902 4.16831 12.9817 4.03047C12.9593 3.66335 12.9113 3.46587 12.8365 3.31901C12.6927 3.03677 12.4632 2.8073 12.181 2.66349C12.0493 2.5964 11.8755 2.55031 11.5729 2.52559C11.2645 2.50039 10.8683 2.5 10.3 2.5H4.7C4.1317 2.5 3.73554 2.50039 3.42712 2.52559C3.12454 2.55031 2.95069 2.5964 2.81901 2.66349C2.53677 2.8073 2.3073 3.03677 2.16349 3.31901C2.0964 3.45069 2.05031 3.62454 2.02559 3.92712C2.00039 4.23554 2 4.6317 2 5.2V9.3C2 9.8683 2.00039 10.2645 2.02559 10.5729C2.05031 10.8755 2.0964 11.0493 2.16349 11.181C2.3073 11.4632 2.53677 11.6927 2.81901 11.8365C3.02957 11.9438 3.32232 11.988 4.00678 11.9972C4.15563 11.9993 4.31892 11.9998 4.50039 11.9999C4.77653 12.0002 5.00022 12.2242 5 12.5003C4.99978 12.7765 4.77575 13.0002 4.49961 12.9999C4.31738 12.9998 4.1488 12.9993 3.99323 12.9972C3.32758 12.9881 2.80983 12.9542 2.36502 12.7275C1.89462 12.4878 1.51217 12.1054 1.27248 11.635C1.12159 11.3388 1.05868 11.0187 1.02891 10.6543C0.999992 10.3004 0.999995 9.8633 1 9.32141V5.17859C0.999995 4.6367 0.999992 4.19963 1.02891 3.84569C1.05868 3.48126 1.12159 3.16117 1.27248 2.86502C1.51217 2.39462 1.89462 2.01217 2.36502 1.77248C2.66117 1.62159 2.98126 1.55868 3.34569 1.52891C3.69963 1.49999 4.13671 1.5 4.6786 1.5Z"
        fill="#303233" />
    <path fill-rule="evenodd" clip-rule="evenodd"
        d="M9.9501 6.5H12.0499C12.5567 6.49999 12.9689 6.49999 13.3033 6.5287C13.649 6.55839 13.9567 6.6215 14.2415 6.77447C14.6712 7.00527 15.0186 7.36592 15.2389 7.80461C15.384 8.09328 15.444 8.4051 15.4724 8.75878C15.5 9.1024 15.5 9.52685 15.5 10.0526V10.9474C15.5 11.4732 15.5 11.8976 15.4724 12.2412C15.444 12.5949 15.384 12.9067 15.2389 13.1954C15.0186 13.6341 14.6712 13.9947 14.2415 14.2255C13.9567 14.3785 13.649 14.4416 13.3033 14.4713C12.9689 14.5 12.5567 14.5 12.0499 14.5H9.95005C9.44325 14.5 9.03105 14.5 8.69672 14.4713C8.35099 14.4416 8.04328 14.3785 7.75852 14.2255C7.32885 13.9947 6.98142 13.6341 6.76106 13.1954C6.61605 12.9067 6.55599 12.5949 6.52759 12.2412C6.49999 11.8976 6.5 11.4732 6.5 10.9474V10.0526C6.5 9.52685 6.49999 9.10239 6.52759 8.75878C6.55599 8.4051 6.61605 8.09328 6.76106 7.80461C6.98142 7.36592 7.32885 7.00527 7.75852 6.77447C8.04328 6.6215 8.35099 6.55839 8.69672 6.5287C9.03106 6.49999 9.44329 6.49999 9.9501 6.5ZM11 10.5C11.8552 10.5 12.5484 9.82843 12.5484 9C12.5484 8.17157 11.8552 7.5 11 7.5C10.1448 7.5 9.45156 8.17157 9.45156 9C9.45156 9.82843 10.1448 10.5 11 10.5ZM13.6346 13.5C13.8673 13.5 14.0493 13.3013 13.988 13.0837C13.6296 11.8108 12.4276 10.875 11 10.875C9.57239 10.875 8.37037 11.8108 8.01199 13.0837C7.95074 13.3013 8.13263 13.5 8.36545 13.5H13.6346Z"
        fill="#303233" />
</svg>
