<svg width="16" height="16" viewBox="0 0 16 16" fill="none" xmlns="http://www.w3.org/2000/svg">
    <g clip-path="url(#clip0_53_6668)">
        <path fill-rule="evenodd" clip-rule="evenodd"
            d="M0.75 3.25C0.75 1.86929 1.86929 0.75 3.25 0.75H8C8.41421 0.75 8.75 1.08579 8.75 1.5C8.75 1.91421 8.41421 2.25 8 2.25H3.25C2.69772 2.25 2.25 2.69772 2.25 3.25V12.75C2.25 13.0107 2.34977 13.2481 2.51321 13.4261L9.26256 6.67678C9.94598 5.99336 11.054 5.99336 11.7374 6.67678L14.7374 9.67678C15.0656 10.005 15.25 10.4501 15.25 10.9142V12.75C15.25 14.1307 14.1307 15.25 12.75 15.25H3.25C1.86929 15.25 0.75 14.1307 0.75 12.75V3.25ZM4.31066 13.75H12.75C13.3023 13.75 13.75 13.3023 13.75 12.75V10.9142C13.75 10.8479 13.7237 10.7843 13.6768 10.7374L10.6768 7.73744C10.5791 7.63981 10.4209 7.63981 10.3232 7.73744L4.31066 13.75Z"
            fill="#303233" />
        <path
            d="M15 2.25C15.4142 2.25 15.75 2.58579 15.75 3C15.75 3.41421 15.4142 3.75 15 3.75H11C10.5858 3.75 10.25 3.41421 10.25 3C10.25 2.58579 10.5858 2.25 11 2.25H15Z"
            fill="#303233" />
        <path fill-rule="evenodd" clip-rule="evenodd"
            d="M6 3.75C4.75736 3.75 3.75 4.75736 3.75 6C3.75 7.24264 4.75736 8.25 6 8.25C7.24264 8.25 8.25 7.24264 8.25 6C8.25 4.75736 7.24264 3.75 6 3.75ZM5.25 6C5.25 5.58579 5.58579 5.25 6 5.25C6.41421 5.25 6.75 5.58579 6.75 6C6.75 6.41421 6.41421 6.75 6 6.75C5.58579 6.75 5.25 6.41421 5.25 6Z"
            fill="#303233" />
    </g>
    <defs>
        <clipPath id="clip0_53_6668">
            <rect width="16" height="16" fill="white" />
        </clipPath>
    </defs>
</svg>
