<svg width="16" height="16" viewBox="0 0 16 16" fill="none" xmlns="http://www.w3.org/2000/svg">
    <path fill-rule="evenodd" clip-rule="evenodd"
        d="M3.21956 4H12.7804C13.1551 3.99999 13.4663 3.99999 13.7202 4.02073C13.9846 4.04234 14.2306 4.08889 14.4626 4.20709C14.8201 4.38925 15.1108 4.67991 15.2929 5.03742C15.4111 5.26939 15.4577 5.51539 15.4793 5.77977C15.5 6.03371 15.5 6.34493 15.5 6.71959V9.28041C15.5 9.65507 15.5 9.96629 15.4793 10.2202C15.4577 10.4846 15.4111 10.7306 15.2929 10.9626C15.1108 11.3201 14.8201 11.6108 14.4626 11.7929C14.2306 11.9111 13.9846 11.9577 13.7202 11.9793C13.4663 12 13.1551 12 12.7804 12H3.21957C2.84492 12 2.5337 12 2.27977 11.9793C2.01539 11.9577 1.76939 11.9111 1.53742 11.7929C1.17991 11.6108 0.889248 11.3201 0.707088 10.9626C0.588892 10.7306 0.542335 10.4846 0.520735 10.2202C0.499988 9.9663 0.499993 9.65509 0.5 9.28044V6.71956C0.499993 6.34491 0.499988 6.0337 0.520735 5.77977C0.542335 5.51539 0.588892 5.26939 0.707088 5.03742C0.889248 4.67991 1.17991 4.38925 1.53742 4.20709C1.76939 4.08889 2.01539 4.04234 2.27977 4.02073C2.5337 3.99999 2.84491 3.99999 3.21956 4ZM3.825 8C3.825 7.62721 4.12721 7.325 4.5 7.325C4.87279 7.325 5.175 7.62721 5.175 8C5.175 8.37279 4.87279 8.675 4.5 8.675C4.12721 8.675 3.825 8.37279 3.825 8ZM7.325 8C7.325 7.62721 7.62721 7.325 8 7.325C8.37279 7.325 8.675 7.62721 8.675 8C8.675 8.37279 8.37279 8.675 8 8.675C7.62721 8.675 7.325 8.37279 7.325 8ZM10.825 8C10.825 7.62721 11.1272 7.325 11.5 7.325C11.8728 7.325 12.175 7.62721 12.175 8C12.175 8.37279 11.8728 8.675 11.5 8.675C11.1272 8.675 10.825 8.37279 10.825 8Z"
        fill="#303233" />
</svg>
