<svg width="24" height="24" viewBox="0 0 24 24" fill="none" xmlns="http://www.w3.org/2000/svg">
    <path fill-rule="evenodd" clip-rule="evenodd"
        d="M17.3895 3.96432C17.1492 4.07272 16.824 4.24924 16.3229 4.52237C14.6487 5.43504 12.2917 6.5 10.25 6.5H6.8C5.94342 6.5 5.36113 6.50078 4.91104 6.53755C4.47262 6.57337 4.24842 6.6383 4.09202 6.71799C3.71569 6.90973 3.40973 7.21569 3.21799 7.59202C3.1383 7.74842 3.07337 7.97262 3.03755 8.41104C3.00078 8.86113 3 9.44342 3 10.3L3 11.5C3 11.9796 3.00054 12.2893 3.01671 12.5262C3.03227 12.7542 3.05889 12.8411 3.07612 12.8827C3.17762 13.1277 3.37229 13.3224 3.61732 13.4239C3.65893 13.4411 3.74576 13.4677 3.97376 13.4833C4.21074 13.4995 4.52038 13.5 5 13.5C5.55229 13.5 6 13.9477 6 14.5V18.75C6 19.006 6.00122 19.0614 6.00482 19.098C6.05158 19.5728 6.42721 19.9484 6.90199 19.9952C6.93855 19.9988 6.99404 20 7.25 20C7.50597 20 7.56145 19.9988 7.59802 19.9952C8.0728 19.9484 8.44843 19.5728 8.49519 19.098C8.49879 19.0614 8.5 19.006 8.5 18.75V14.5C8.5 13.9477 8.94772 13.5 9.5 13.5H10.25C12.2917 13.5 14.6487 14.565 16.3229 15.4776C16.824 15.7508 17.1492 15.9273 17.3895 16.0357C17.4214 16.0501 17.4492 16.062 17.4733 16.0719C17.4755 16.0514 17.4777 16.0281 17.4798 16.002C17.4992 15.7574 17.5 15.4134 17.5 14.8737V5.12628C17.5 4.58659 17.4992 4.24259 17.4798 3.99804C17.4777 3.97186 17.4755 3.94862 17.4733 3.92812C17.4492 3.938 17.4214 3.94994 17.3895 3.96432ZM16.5669 2.14129C16.8593 2.00936 17.2851 1.83944 17.7431 1.89555C18.3164 1.96576 18.7906 2.24735 19.1266 2.71707C19.3906 3.08607 19.4484 3.5239 19.4735 3.83963C19.5 4.17335 19.5 4.59838 19.5 5.08614V14.9139C19.5 15.4016 19.5 15.8266 19.4735 16.1604C19.4484 16.4761 19.3906 16.9139 19.1266 17.2829C18.7906 17.7526 18.3164 18.0342 17.7431 18.1045C17.2851 18.1606 16.8593 17.9906 16.5669 17.8587C16.2493 17.7154 15.8569 17.5015 15.4002 17.2525L15.3657 17.2337C13.797 16.3785 11.9561 15.5913 10.5 15.5074V18.75C10.5 18.7641 10.5 18.7781 10.5 18.7919C10.5001 18.9822 10.5002 19.1458 10.4856 19.2941C10.3453 20.7184 9.21839 21.8453 7.79405 21.9856C7.64585 22.0002 7.48227 22.0001 7.29198 22C7.27813 22 7.26414 22 7.25 22C7.23587 22 7.22188 22 7.20803 22C7.01774 22.0001 6.85416 22.0002 6.70595 21.9856C5.28162 21.8453 4.15473 20.7184 4.01445 19.2941C3.99985 19.1458 3.99992 18.9822 3.99999 18.7919C4 18.7781 4 18.7641 4 18.75V15.4877C3.94407 15.4852 3.88994 15.4822 3.83762 15.4787C3.50779 15.4561 3.17788 15.4066 2.85195 15.2716C2.11687 14.9672 1.53285 14.3831 1.22837 13.6481C1.09336 13.3221 1.04386 12.9922 1.02135 12.6624C0.999978 12.3491 0.999989 11.9706 1 11.532L1 10.2587C0.999987 9.45373 0.999976 8.78937 1.04419 8.24818C1.09012 7.68608 1.18868 7.16937 1.43597 6.68404C1.81947 5.93139 2.43139 5.31947 3.18404 4.93597C3.66937 4.68868 4.18608 4.59012 4.74817 4.54419C5.28937 4.49998 5.95373 4.49999 6.7587 4.5L10.25 4.5C11.7411 4.5 13.7058 3.67119 15.3657 2.76634L15.4002 2.74748C15.857 2.4985 16.2493 2.28461 16.5669 2.14129ZM22 7C22.5523 7 23 7.44772 23 8V12C23 12.5523 22.5523 13 22 13C21.4477 13 21 12.5523 21 12V8C21 7.44772 21.4477 7 22 7Z"
        fill="#303233" />
</svg>
