<svg width="24" height="24" viewBox="0 0 24 24" fill="none" xmlns="http://www.w3.org/2000/svg">
    <path
        d="M4 4.5C3.44772 4.5 3 4.94772 3 5.5C3 6.05228 3.44772 6.5 4 6.5H20C20.5523 6.5 21 6.05228 21 5.5C21 4.94772 20.5523 4.5 20 4.5H4Z"
        fill="#303233" />
    <path fill-rule="evenodd" clip-rule="evenodd"
        d="M6 8.5C4.34315 8.5 3 9.84315 3 11.5V12.5C3 14.1569 4.34315 15.5 6 15.5H18C19.6569 15.5 21 14.1569 21 12.5V11.5C21 9.84315 19.6569 8.5 18 8.5H6ZM5 11.5C5 10.9477 5.44772 10.5 6 10.5H18C18.5523 10.5 19 10.9477 19 11.5V12.5C19 13.0523 18.5523 13.5 18 13.5H6C5.44772 13.5 5 13.0523 5 12.5V11.5Z"
        fill="#303233" />
    <path
        d="M3 18.5C3 17.9477 3.44772 17.5 4 17.5H20C20.5523 17.5 21 17.9477 21 18.5C21 19.0523 20.5523 19.5 20 19.5H4C3.44772 19.5 3 19.0523 3 18.5Z"
        fill="#303233" />
</svg>
