<svg width="16" height="16" viewBox="0 0 16 16" fill="none" xmlns="http://www.w3.org/2000/svg">
    <path fill-rule="evenodd" clip-rule="evenodd"
        d="M0.75 4.5C0.75 3.5335 1.5335 2.75 2.5 2.75H9.5C10.4665 2.75 11.25 3.5335 11.25 4.5V5.28648L14.1646 3.82918C14.3971 3.71293 14.6732 3.72536 14.8943 3.86201C15.1154 3.99867 15.25 4.24007 15.25 4.5V11.5C15.25 11.7599 15.1154 12.0013 14.8943 12.138C14.6732 12.2746 14.3971 12.2871 14.1646 12.1708L11.25 10.7135V11.5C11.25 12.4665 10.4665 13.25 9.5 13.25H2.5C1.5335 13.25 0.75 12.4665 0.75 11.5V4.5ZM4 7.25C3.58579 7.25 3.25 7.58579 3.25 8C3.25 8.41421 3.58579 8.75 4 8.75H8C8.41421 8.75 8.75 8.41421 8.75 8C8.75 7.58579 8.41421 7.25 8 7.25H4Z"
        fill="#303233" />
</svg>
