<svg width="24" height="24" viewBox="0 0 24 24" fill="none" xmlns="http://www.w3.org/2000/svg">
    <path
        d="M10.0118 2.75C10.7812 2.75 11.0437 2.75482 11.2826 2.81217C11.5122 2.86729 11.7317 2.9582 11.933 3.08156C12.1424 3.20992 12.3315 3.39212 12.8756 3.93622L20.4697 11.5303C20.7626 11.8232 21.2374 11.8232 21.5303 11.5303C21.8232 11.2374 21.8232 10.7626 21.5303 10.4697L13.8758 2.81511C13.4152 2.35426 13.0964 2.03526 12.7167 1.8026C12.3812 1.59699 12.0154 1.44548 11.6328 1.35361C11.1998 1.24967 10.7488 1.2498 10.0972 1.24999L6 1.25C5.58579 1.25 5.25 1.58579 5.25 2C5.25 2.41422 5.58579 2.75 6 2.75H10.0118Z"
        fill="#303233" />
    <path fill-rule="evenodd" clip-rule="evenodd"
        d="M9.63281 5.35361C9.19984 5.24967 8.74883 5.2498 8.09727 5.24999L6.1696 5.25C5.63544 5.24999 5.1896 5.24998 4.82536 5.27974C4.44548 5.31078 4.08882 5.37789 3.75156 5.54973C3.23411 5.81339 2.81342 6.23408 2.54976 6.75153C2.37792 7.08879 2.31081 7.44545 2.27977 7.82533C2.25001 8.18956 2.25002 8.63541 2.25003 9.16957L2.25002 11.0972C2.24983 11.7488 2.2497 12.1998 2.35364 12.6328C2.44551 13.0154 2.59702 13.3812 2.80263 13.7167C3.03529 14.0964 3.35429 14.4152 3.81514 14.8758L9.77649 20.8371C10.2329 21.2936 10.6075 21.6682 10.9371 21.948C11.2787 22.238 11.621 22.4699 12.0266 22.6017C12.6593 22.8073 13.3408 22.8073 13.9734 22.6017C14.3791 22.4699 14.7214 22.2379 15.063 21.948C15.3926 21.6682 15.7671 21.2936 16.2236 20.8371L17.8372 19.2235C18.2936 18.7671 18.6682 18.3925 18.948 18.0629C19.238 17.7213 19.4699 17.3791 19.6017 16.9734C19.8073 16.3407 19.8073 15.6593 19.6017 15.0266C19.4699 14.6209 19.238 14.2787 18.948 13.9371C18.6682 13.6075 18.2936 13.2329 17.8371 12.7765L11.8758 6.81512C11.4152 6.35426 11.0964 6.03526 10.7168 5.8026C10.3812 5.59699 10.0154 5.44548 9.63281 5.35361ZM8.01181 6.75C8.78128 6.75 9.04377 6.75482 9.28264 6.81217C9.51222 6.86729 9.7317 6.9582 9.93301 7.08156C10.1425 7.20992 10.3315 7.39212 10.8756 7.93622L16.7544 13.815C17.2384 14.299 17.5691 14.6305 17.8045 14.9078C18.0342 15.1785 18.1289 15.3478 18.1752 15.4901C18.2828 15.8215 18.2828 16.1785 18.1752 16.5099C18.1289 16.6522 18.0342 16.8215 17.8045 17.0922C17.5691 17.3695 17.2384 17.701 16.7544 18.185L15.185 19.7544C14.701 20.2384 14.3695 20.569 14.0922 20.8045C13.8216 21.0342 13.6522 21.1289 13.5099 21.1751C13.1785 21.2828 12.8215 21.2828 12.4902 21.1751C12.3478 21.1289 12.1785 21.0342 11.9079 20.8045C11.6305 20.569 11.299 20.2384 10.8151 19.7544L4.93625 13.8756C4.39215 13.3315 4.20995 13.1424 4.08159 12.933C3.95823 12.7317 3.86732 12.5122 3.8122 12.2826C3.75485 12.0437 3.75003 11.7812 3.75003 11.0118V9.2C3.75003 8.62757 3.75062 8.24336 3.77479 7.94748C3.79825 7.66036 3.84013 7.52307 3.88627 7.43251C4.00612 7.19731 4.19734 7.00609 4.43254 6.88624C4.5231 6.8401 4.66039 6.79822 4.94751 6.77476C5.24339 6.75059 5.6276 6.75 6.20003 6.75H8.01181Z"
        fill="#303233" />
</svg>
