<svg width="24" height="24" viewBox="0 0 24 24" fill="none" xmlns="http://www.w3.org/2000/svg">
    <path
        d="M9.00005 1C9.33441 1 9.64664 1.1671 9.8321 1.4453L11.0001 3.19722C11.1532 3.42699 11.4637 3.48908 11.6934 3.3359L13.4454 2.16795C13.7891 1.93878 14.2384 1.9446 14.5761 2.18258C14.9138 2.42057 15.0704 2.84173 14.9702 3.24254L13.9702 7.24254C13.9649 7.26392 13.9588 7.28499 13.9522 7.30574C13.9837 7.53264 14 7.76442 14 8C14 10.7614 11.7614 13 9 13C6.23858 13 4 10.7614 4 8C4 7.76434 4.0163 7.53248 4.04784 7.3055C4.04122 7.28483 4.03524 7.26384 4.02991 7.24254L3.02991 3.24254C2.92971 2.84173 3.0863 2.42057 3.42401 2.18258C3.76171 1.9446 4.211 1.93878 4.55475 2.16795L6.30668 3.3359C6.53644 3.48908 6.84688 3.42699 7.00005 3.19722L8.168 1.4453C8.35347 1.1671 8.6657 1 9.00005 1Z"
        fill="#303233" />
    <path
        d="M8.99993 14C4.80492 14 1.28257 16.8692 0.283525 20.7507C0.206466 21.0501 0.272217 21.3683 0.461627 21.6127C0.651038 21.857 0.942809 22 1.25196 22H16.7479C17.057 22 17.3488 21.857 17.5382 21.6127C17.7276 21.3683 17.7934 21.0501 17.7163 20.7507C16.7173 16.8692 13.1949 14 8.99993 14Z"
        fill="#303233" />
    <path
        d="M17 11C16.4477 11 16 11.4477 16 12C16 12.5523 16.4477 13 17 13H23C23.5523 13 24 12.5523 24 12C24 11.4477 23.5523 11 23 11H17Z"
        fill="#303233" />
</svg>
