<svg width="16" height="16" viewBox="0 0 16 16" fill="none" xmlns="http://www.w3.org/2000/svg">
    <path
        d="M7.29725 8.70276C6.45768 7.86319 5.79474 6.91388 5.30843 5.901C5.2666 5.81388 5.24569 5.77032 5.22962 5.71519C5.17252 5.51931 5.21353 5.27876 5.33232 5.11287C5.36575 5.06619 5.40569 5.02625 5.48556 4.94638C5.72984 4.7021 5.85198 4.57996 5.93183 4.45714C6.23297 3.99397 6.23297 3.39685 5.93183 2.93368C5.85198 2.81086 5.72984 2.68872 5.48556 2.44445L5.3494 2.30829C4.97807 1.93696 4.79241 1.75129 4.59301 1.65044C4.19644 1.44985 3.72811 1.44985 3.33155 1.65044C3.13214 1.75129 2.94648 1.93696 2.57515 2.30829L2.46501 2.41843C2.09495 2.78849 1.90992 2.97352 1.76861 3.22508C1.6118 3.50422 1.49905 3.93777 1.50001 4.25794C1.50086 4.54647 1.55683 4.74367 1.66877 5.13805C2.27035 7.25754 3.4054 9.25754 5.07393 10.9261C6.74246 12.5946 8.74245 13.7296 10.8619 14.3312C11.2563 14.4432 11.4535 14.4991 11.7421 14.5C12.0622 14.5009 12.4958 14.3882 12.7749 14.2314C13.0265 14.0901 13.2115 13.9051 13.5816 13.535L13.6917 13.4248C14.063 13.0535 14.2487 12.8679 14.3496 12.6685C14.5501 12.2719 14.5501 11.8036 14.3496 11.407C14.2487 11.2076 14.063 11.0219 13.6917 10.6506L13.5556 10.5144C13.3113 10.2702 13.1891 10.148 13.0663 10.0682C12.6031 9.76703 12.006 9.76703 11.5429 10.0682C11.42 10.148 11.2979 10.2702 11.0536 10.5144C10.9738 10.5943 10.9338 10.6342 10.8871 10.6677C10.7212 10.7865 10.4807 10.8275 10.2848 10.7704C10.2297 10.7543 10.1861 10.7334 10.099 10.6916C9.08613 10.2053 8.13681 9.54232 7.29725 8.70276Z"
        fill="#303233" />
    <path
        d="M9.64645 2.14643C9.84171 1.95117 10.1583 1.95117 10.3536 2.14643L12 3.79285L13.6464 2.14645C13.8416 1.95118 14.1582 1.95118 14.3535 2.14645C14.5487 2.34171 14.5487 2.65829 14.3535 2.85355L12.7071 4.49995L14.3536 6.14643C14.5488 6.34169 14.5488 6.65828 14.3536 6.85354C14.1583 7.0488 13.8417 7.0488 13.6464 6.85354L12 5.20706L10.3535 6.85355C10.1582 7.04882 9.84163 7.04882 9.64637 6.85355C9.45111 6.65829 9.45111 6.34171 9.64637 6.14645L11.2929 4.49995L9.64645 2.85354C9.45118 2.65828 9.45118 2.34169 9.64645 2.14643Z"
        fill="#303233" />
</svg>
