<svg width="24" height="24" viewBox="0 0 24 24" fill="none" xmlns="http://www.w3.org/2000/svg">
    <path fill-rule="evenodd" clip-rule="evenodd"
        d="M3 1.99997C3.00002 1.44768 3.44775 0.999982 4.00003 1L10 1.00019C10.5523 1.00021 11 1.44792 11 2.00019V8C11 8.55228 10.5523 9 10 9C9.44772 9 9 8.55228 9 8L9 3.87449C8.38306 4.38647 7.52152 5.16497 6.34315 6.34334C3.21895 9.46754 3.21895 14.5329 6.34315 17.6571C7.45114 18.765 8.80057 19.4788 10.2213 19.8012C10.7599 19.9234 11.0974 20.459 10.9752 20.9976C10.853 21.5362 10.3173 21.8738 9.77873 21.7516C8.00086 21.3482 6.31149 20.4538 4.92893 19.0713C1.02369 15.166 1.02369 8.83437 4.92893 4.92913C5.72698 4.13108 6.39518 3.49986 6.9537 3.0001L3.99997 3C3.44768 2.99998 2.99998 2.55225 3 1.99997ZM13.0248 3.00256C13.147 2.46396 13.6827 2.12641 14.2213 2.24861C15.9991 2.652 17.6885 3.54638 19.0711 4.92893C22.9763 8.83418 22.9763 15.1658 19.0711 19.0711C18.2731 19.8691 17.6049 20.5003 17.0464 21H20C20.5523 21 21 21.4477 21 22C21 22.5523 20.5523 23 20 23H14C13.7348 23 13.4804 22.8946 13.2929 22.7071C13.1054 22.5196 13 22.2652 13 22L13 16C13 15.4477 13.4477 15 14 15C14.5523 15 15 15.4477 15 16L15 20.1257C15.6169 19.6137 16.4785 18.8352 17.6569 17.6569C20.781 14.5327 20.781 9.46734 17.6569 6.34315C16.5489 5.23515 15.1994 4.52139 13.7787 4.19904C13.2401 4.07684 12.9026 3.54115 13.0248 3.00256Z"
        fill="#303233" />
</svg>
