<svg width="24" height="24" viewBox="0 0 24 24" fill="none" xmlns="http://www.w3.org/2000/svg">
    <path fill-rule="evenodd" clip-rule="evenodd"
        d="M2.53033 1.46967C2.23744 1.17678 1.76256 1.17678 1.46967 1.46967C1.17678 1.76256 1.17678 2.23744 1.46967 2.53033L2.31819 3.37885C2.0548 3.64834 1.83192 3.95763 1.65873 4.29754C1.43239 4.74175 1.33803 5.2219 1.29336 5.76853C1.24999 6.29944 1.24999 6.95505 1.25 7.76788V12.2321C1.24999 13.0449 1.24999 13.7006 1.29336 14.2315C1.33803 14.7781 1.43239 15.2582 1.65873 15.7025C2.01825 16.4081 2.59193 16.9817 3.29754 17.3413C3.74176 17.5676 4.2219 17.662 4.76853 17.7066C5.29944 17.75 5.95505 17.75 6.76788 17.75H16.6893L21.4697 22.5303C21.7626 22.8232 22.2374 22.8232 22.5303 22.5303C22.8232 22.2374 22.8232 21.7626 22.5303 21.4697L4.06817 3.00751C4.01439 2.92893 3.9479 2.86356 3.87316 2.8125L2.53033 1.46967Z"
        fill="#303233" />
    <path fill-rule="evenodd" clip-rule="evenodd"
        d="M20.7025 2.65873C20.2582 2.43239 19.7781 2.33803 19.2315 2.29336C18.7006 2.24999 18.0449 2.24999 17.2321 2.25L8 2.25C7.69669 2.25 7.42325 2.43268 7.30713 2.71289C7.19102 2.99309 7.25511 3.31564 7.46951 3.53017L20.5869 16.6554C20.8794 16.948 21.3537 16.9485 21.6468 16.6565C21.9255 16.3788 22.1605 16.0573 22.3413 15.7025C22.5676 15.2582 22.662 14.7781 22.7066 14.2315C22.75 13.7006 22.75 13.045 22.75 12.2321V7.76788C22.75 6.95505 22.75 6.29944 22.7066 5.76853C22.662 5.2219 22.5676 4.74175 22.3413 4.29754C21.9817 3.59193 21.4081 3.01825 20.7025 2.65873Z"
        fill="#303233" />
    <path
        d="M7.89616 21.6762C9.13134 21.0838 10.524 20.75 12 20.75C13.476 20.75 14.8687 21.0838 16.1038 21.6762C16.4773 21.8554 16.9253 21.6978 17.1044 21.3243C17.2836 20.9509 17.126 20.5029 16.7525 20.3238C15.3181 19.6358 13.7041 19.25 12 19.25C10.2959 19.25 8.68188 19.6358 7.24747 20.3238C6.87399 20.5029 6.71644 20.9509 6.89557 21.3243C7.0747 21.6978 7.52268 21.8554 7.89616 21.6762Z"
        fill="#303233" />
</svg>
