<svg width="16" height="16" viewBox="0 0 16 16" fill="none" xmlns="http://www.w3.org/2000/svg">
    <path fill-rule="evenodd" clip-rule="evenodd"
        d="M8.95161 0.812351C9.25672 0.945181 9.43782 1.26317 9.39641 1.59335L8.84995 5.95001H12.7561C12.7645 5.95001 12.7729 5.95001 12.7813 5.95001C12.9367 5.94997 13.1 5.94993 13.2345 5.96207C13.3607 5.97346 13.6212 6.00442 13.8493 6.1881C14.1067 6.39539 14.2549 6.70987 14.2499 7.04126C14.2454 7.33518 14.1016 7.55567 14.0296 7.65969C13.9526 7.77066 13.848 7.89579 13.7485 8.01464L7.92311 14.9811C7.70965 15.2364 7.3535 15.3205 7.04839 15.1877C6.74328 15.0548 6.56218 14.7369 6.60359 14.4067L7.15005 10.05H3.24389C3.2355 10.05 3.22709 10.05 3.21865 10.05C3.06328 10.0501 2.90002 10.0501 2.76548 10.0379C2.6393 10.0266 2.37881 9.9956 2.15073 9.81192C1.89332 9.60463 1.74511 9.29015 1.75012 8.95876C1.75457 8.66485 1.89835 8.44436 1.97045 8.34033C2.04736 8.22936 2.15204 8.10423 2.25148 7.98537C2.2569 7.9789 2.2623 7.97244 2.26768 7.966L8.07689 1.0189C8.29035 0.763619 8.6465 0.679522 8.95161 0.812351Z"
        fill="#303233" />
</svg>
