<svg width="24" height="24" viewBox="0 0 24 24" fill="none" xmlns="http://www.w3.org/2000/svg">
    <path
        d="M20 0C20.5523 0 21 0.447715 21 1V3H23C23.5523 3 24 3.44772 24 4C24 4.55228 23.5523 5 23 5H21V7C21 7.55228 20.5523 8 20 8C19.4477 8 19 7.55228 19 7V5H17C16.4477 5 16 4.55228 16 4C16 3.44772 16.4477 3 17 3H19V1C19 0.447715 19.4477 0 20 0Z"
        fill="#303233" />
    <path
        d="M7.5 9C7.5 8.17157 8.16823 7.5 8.99254 7.5H9.00746C9.83177 7.5 10.5 8.17157 10.5 9C10.5 9.82843 9.83177 10.5 9.00746 10.5H8.99254C8.16823 10.5 7.5 9.82843 7.5 9Z"
        fill="#303233" />
    <path
        d="M8.79692 13.3958C8.46474 12.9576 7.84049 12.8697 7.40006 13.2C6.95823 13.5314 6.86869 14.1582 7.20006 14.6L7.20107 14.6013L7.20222 14.6029L7.20496 14.6065L7.21217 14.6159L7.23347 14.6432C7.25071 14.6649 7.27407 14.6938 7.30342 14.7288C7.36207 14.7987 7.44506 14.8933 7.55151 15.0044C7.76358 15.2257 8.07349 15.5172 8.47439 15.8087C9.27233 16.3891 10.4745 17 12.0001 17C13.5256 17 14.7278 16.3891 15.5257 15.8087C15.9266 15.5172 16.2365 15.2257 16.4486 15.0044C16.5551 14.8933 16.6381 14.7987 16.6967 14.7288C16.7261 14.6938 16.7494 14.6649 16.7666 14.6432L16.7879 14.6159L16.7952 14.6065L16.7979 14.6029L16.799 14.6013L16.8001 14.6C17.1314 14.1582 17.0419 13.5314 16.6001 13.2C16.1596 12.8697 15.5354 12.9576 15.2032 13.3958L15.1986 13.4018C15.1926 13.4093 15.1813 13.4234 15.1647 13.4431C15.1316 13.4826 15.0779 13.5442 15.0046 13.6206C14.8573 13.7743 14.636 13.9828 14.3494 14.1913C13.7723 14.6109 12.9745 15 12.0001 15C11.0256 15 10.2278 14.6109 9.65073 14.1913C9.36413 13.9828 9.14278 13.7743 8.99548 13.6206C8.92225 13.5442 8.86852 13.4826 8.83537 13.4431C8.81883 13.4234 8.80751 13.4093 8.80156 13.4018L8.79692 13.3958Z"
        fill="#303233" />
    <path
        d="M14.9925 7.5C14.1682 7.5 13.5 8.17157 13.5 9C13.5 9.82843 14.1682 10.5 14.9925 10.5H15.0075C15.8318 10.5 16.5 9.82843 16.5 9C16.5 8.17157 15.8318 7.5 15.0075 7.5H14.9925Z"
        fill="#303233" />
    <path
        d="M3 12C3 7.02944 7.02944 3 12 3C12.3045 3 12.6051 3.01508 12.9012 3.04448C13.4508 3.09905 13.9405 2.69776 13.9951 2.14818C14.0497 1.59859 13.6484 1.10883 13.0988 1.05427C12.7371 1.01836 12.3705 1 12 1C5.92487 1 1 5.92487 1 12C1 18.0751 5.92487 23 12 23C18.0751 23 23 18.0751 23 12C23 11.6295 22.9816 11.2629 22.9457 10.9012C22.8912 10.3516 22.4014 9.95033 21.8518 10.0049C21.3022 10.0595 20.901 10.5492 20.9555 11.0988C20.9849 11.3949 21 11.6955 21 12C21 16.9706 16.9706 21 12 21C7.02944 21 3 16.9706 3 12Z"
        fill="#303233" />
</svg>
