<svg width="16" height="16" viewBox="0 0 16 16" fill="none" xmlns="http://www.w3.org/2000/svg">
    <path fill-rule="evenodd" clip-rule="evenodd"
        d="M1.31051 1.89645C1.50577 1.70118 1.82236 1.70118 2.01762 1.89645L14.0176 13.8964C14.2129 14.0917 14.2129 14.4083 14.0176 14.6036C13.8224 14.7988 13.5058 14.7988 13.3105 14.6036L10.2673 11.5603C10.2278 11.5435 10.1899 11.5213 10.1545 11.4936C9.99696 11.3701 9.82863 11.2598 9.65113 11.1645C9.14536 10.894 8.57867 10.7509 8.00059 10.7509C7.27415 10.7509 6.56571 10.9769 5.97351 11.3976C5.95959 11.4075 5.94535 11.4166 5.93083 11.4248C5.89099 11.454 5.8518 11.4841 5.81326 11.5149C5.5976 11.6873 5.28296 11.6523 5.11049 11.4367C4.93802 11.221 4.97304 10.9064 5.1887 10.7339C5.95838 10.1184 6.93552 9.75 7.99732 9.75C8.16135 9.75 8.32335 9.75879 8.48288 9.77593L6.32871 7.62175C5.25769 7.89047 4.28654 8.41224 3.48253 9.1205C3.27532 9.30303 2.95937 9.28303 2.77683 9.07582C2.5943 8.86861 2.6143 8.55266 2.82151 8.37013C3.59973 7.68459 4.51562 7.15081 5.5227 6.81574L3.72754 5.02058C2.77267 5.46311 1.89776 6.04963 1.13077 6.75247C0.927183 6.93904 0.610902 6.92523 0.424339 6.72164C0.237776 6.51805 0.25158 6.20177 0.45517 6.01521C1.20847 5.32491 2.05698 4.73649 2.9789 4.27194L1.31051 2.60355C1.11525 2.40829 1.11525 2.09171 1.31051 1.89645ZM7.99735 4.08508C7.6129 4.08508 7.23051 4.10687 6.85187 4.14979C6.57749 4.1809 6.32984 3.98369 6.29873 3.7093C6.26762 3.43492 6.46483 3.18727 6.73922 3.15616C7.15512 3.10901 7.57512 3.08508 7.99735 3.08508C10.7162 3.08508 13.3417 4.07704 15.3813 5.8749C15.5885 6.0575 15.6084 6.37346 15.4258 6.58061C15.2432 6.78776 14.9272 6.80767 14.7201 6.62507C12.8631 4.98821 10.4727 4.08508 7.99735 4.08508ZM9.72799 7.10128C9.81013 6.83764 10.0904 6.6905 10.3541 6.77265C11.3285 7.07623 12.2415 7.56957 13.0374 8.23249C13.2496 8.40922 13.2783 8.72449 13.1016 8.93668C12.9249 9.14886 12.6096 9.17759 12.3974 9.00086C11.7031 8.42258 10.9067 7.99222 10.0566 7.72738C9.79299 7.64524 9.64585 7.36493 9.72799 7.10128ZM7.4974 13.5833C7.4974 13.3072 7.72126 13.0833 7.9974 13.0833H8.00407C8.28021 13.0833 8.50407 13.3072 8.50407 13.5833C8.50407 13.8595 8.28021 14.0833 8.00407 14.0833H7.9974C7.72126 14.0833 7.4974 13.8595 7.4974 13.5833Z"
        fill="#303233" />
</svg>
