<svg width="24" height="24" viewBox="0 0 24 24" fill="none" xmlns="http://www.w3.org/2000/svg">
    <path fill-rule="evenodd" clip-rule="evenodd"
        d="M15.2321 1.25H8.7679C7.95506 1.24999 7.29944 1.24999 6.76853 1.29336C6.2219 1.33803 5.74175 1.43239 5.29754 1.65873C4.59193 2.01825 4.01825 2.59193 3.65873 3.29754C3.43239 3.74175 3.33803 4.2219 3.29336 4.76853C3.24999 5.29944 3.24999 5.95505 3.25 6.76789V17.2321C3.24999 18.0449 3.24999 18.7006 3.29336 19.2315C3.33803 19.7781 3.43239 20.2582 3.65873 20.7025C4.01825 21.4081 4.59193 21.9817 5.29754 22.3413C5.74175 22.5676 6.2219 22.662 6.76853 22.7066C7.29944 22.75 7.95505 22.75 8.76788 22.75H15.2321C15.3472 22.75 15.4591 22.75 15.5679 22.7499L13.409 20.591C12.5303 19.7123 12.5303 18.2877 13.409 17.409C14.0421 16.776 14.9585 16.599 15.75 16.8781V16C15.75 14.7574 16.7574 13.75 18 13.75C19.2426 13.75 20.25 14.7574 20.25 16V16.8781C20.4126 16.8208 20.5804 16.7827 20.75 16.7638V6.76788C20.75 5.95505 20.75 5.29944 20.7066 4.76853C20.662 4.2219 20.5676 3.74175 20.3413 3.29754C19.9817 2.59193 19.4081 2.01825 18.7025 1.65873C18.2582 1.43239 17.7781 1.33803 17.2315 1.29336C16.7006 1.24999 16.0449 1.24999 15.2321 1.25Z"
        fill="#303233" />
    <path fill-rule="evenodd" clip-rule="evenodd"
        d="M18 15.25C18.4142 15.25 18.75 15.5858 18.75 16V20.1893L20.4697 18.4697C20.7626 18.1768 21.2374 18.1768 21.5303 18.4697C21.8232 18.7626 21.8232 19.2374 21.5303 19.5303L18.5303 22.5303C18.2374 22.8232 17.7626 22.8232 17.4697 22.5303L14.4697 19.5303C14.1768 19.2374 14.1768 18.7626 14.4697 18.4697C14.7626 18.1768 15.2374 18.1768 15.5303 18.4697L17.25 20.1893V16C17.25 15.5858 17.5858 15.25 18 15.25Z"
        fill="#303233" />
</svg>
