<svg width="24" height="24" viewBox="0 0 24 24" fill="none" xmlns="http://www.w3.org/2000/svg">
    <path fill-rule="evenodd" clip-rule="evenodd"
        d="M3.25 1.99998C3.25001 1.58576 3.58581 1.24999 4.00002 1.25L10 1.25019C10.4142 1.25021 10.75 1.58599 10.75 2.00019V8C10.75 8.41421 10.4142 8.75 10 8.75C9.58579 8.75 9.25 8.41421 9.25 8L9.25 3.35231C8.61399 3.8469 7.63179 4.70114 6.16637 6.16657C2.94454 9.38839 2.94454 14.612 6.16637 17.8338C7.30868 18.9761 8.70061 19.7125 10.166 20.045C10.5699 20.1366 10.8231 20.5384 10.7314 20.9423C10.6398 21.3463 10.238 21.5994 9.83405 21.5078C8.10083 21.1145 6.45394 20.2427 5.10571 18.8945C1.2981 15.0869 1.2981 8.91352 5.10571 5.10591C6.15594 4.05568 6.97807 3.29783 7.61866 2.75012L3.99998 2.75C3.58576 2.74999 3.24999 2.41419 3.25 1.99998ZM13.2686 3.05788C13.3602 2.65393 13.762 2.40077 14.166 2.49242C15.8992 2.88567 17.5461 3.75748 18.8943 5.10571C22.7019 8.91332 22.7019 15.0867 18.8943 18.8943C17.8441 19.9445 17.022 20.7023 16.3814 21.25H20C20.4142 21.25 20.75 21.5858 20.75 22C20.75 22.4142 20.4142 22.75 20 22.75H14C13.8011 22.75 13.6103 22.671 13.4697 22.5303C13.329 22.3897 13.25 22.1989 13.25 22L13.25 16C13.25 15.5858 13.5858 15.25 14 15.25C14.4142 15.25 14.75 15.5858 14.75 16L14.75 20.6479C15.386 20.1533 16.3682 19.2991 17.8336 17.8336C21.0555 14.6118 21.0555 9.3882 17.8336 6.16637C16.6913 5.02406 15.2994 4.28771 13.834 3.95524C13.4301 3.86358 13.1769 3.46182 13.2686 3.05788Z"
        fill="#303233" />
</svg>
