<svg width="16" height="16" viewBox="0 0 16 16" fill="none" xmlns="http://www.w3.org/2000/svg">
    <path
        d="M9.99935 0.833344C10.2755 0.833344 10.4993 1.0572 10.4993 1.33334V2.33334C10.4993 2.60949 10.2755 2.83334 9.99935 2.83334C9.72321 2.83334 9.49935 2.60949 9.49935 2.33334V1.33334C9.49935 1.0572 9.72321 0.833344 9.99935 0.833344Z"
        fill="#303233" />
    <path
        d="M6.31246 2.31312C6.50772 2.11786 6.82431 2.11786 7.01957 2.31312L7.68624 2.97979C7.8815 3.17505 7.8815 3.49163 7.68624 3.6869C7.49097 3.88216 7.17439 3.88216 6.97913 3.6869L6.31246 3.02023C6.1172 2.82497 6.1172 2.50839 6.31246 2.31312Z"
        fill="#303233" />
    <path
        d="M13.6862 2.31312C13.8815 2.50839 13.8815 2.82497 13.6862 3.02023L13.0196 3.6869C12.8243 3.88216 12.5077 3.88216 12.3125 3.6869C12.1172 3.49163 12.1172 3.17505 12.3125 2.97979L12.9791 2.31312C13.1744 2.11786 13.491 2.11786 13.6862 2.31312Z"
        fill="#303233" />
    <path
        d="M13.166 6.00001C13.166 5.72387 13.3899 5.50001 13.666 5.50001H14.666C14.9422 5.50001 15.166 5.72387 15.166 6.00001C15.166 6.27615 14.9422 6.50001 14.666 6.50001H13.666C13.3899 6.50001 13.166 6.27615 13.166 6.00001Z"
        fill="#303233" />
    <path
        d="M12.3125 8.31312C12.5077 8.11786 12.8243 8.11786 13.0196 8.31312L13.6862 8.97979C13.8815 9.17505 13.8815 9.49164 13.6862 9.6869C13.491 9.88216 13.1744 9.88216 12.9791 9.6869L12.3125 9.02023C12.1172 8.82497 12.1172 8.50839 12.3125 8.31312Z"
        fill="#303233" />
    <path fill-rule="evenodd" clip-rule="evenodd"
        d="M8.63938 4.83325C8.8737 4.75711 9.1261 4.75711 9.36042 4.83325C9.52431 4.8865 9.65302 4.97762 9.7617 5.06989C9.86249 5.15546 9.97395 5.26693 10.0953 5.38831L10.6115 5.90454C10.7329 6.02587 10.8445 6.13743 10.93 6.23821C11.0223 6.34689 11.1134 6.4756 11.1667 6.63948C11.2428 6.8738 11.2428 7.12621 11.1667 7.36052C11.1134 7.52441 11.0223 7.65312 10.93 7.7618C10.8444 7.8626 10.733 7.97406 10.6116 8.09543L4.42868 14.2783C4.30731 14.3997 4.19583 14.5112 4.09503 14.5968C3.98635 14.6891 3.85764 14.7802 3.69375 14.8334C3.45944 14.9096 3.20703 14.9096 2.97271 14.8334C2.80883 14.7802 2.68012 14.6891 2.57144 14.5968C2.47064 14.5112 2.35918 14.3997 2.23781 14.2784L1.72159 13.7621C1.6002 13.6408 1.48869 13.5293 1.40312 13.4285C1.31085 13.3198 1.21973 13.1911 1.16648 13.0272C1.09034 12.7929 1.09034 12.5405 1.16648 12.3062C1.21973 12.1423 1.31085 12.0136 1.40311 11.9049C1.48869 11.8041 1.60017 11.6926 1.72156 11.5712L7.90447 5.38833C8.02584 5.26694 8.1373 5.15546 8.2381 5.06989C8.34678 4.97762 8.47549 4.8865 8.63938 4.83325ZM6.66633 8.04068L2.44103 12.266C2.30319 12.4038 2.22135 12.4862 2.16545 12.5521C2.13134 12.5922 2.11973 12.6119 2.11684 12.6173C2.10689 12.6495 2.10689 12.6839 2.11684 12.716C2.11973 12.7215 2.13134 12.7411 2.16545 12.7813C2.22135 12.8471 2.30319 12.9295 2.44103 13.0674L2.93254 13.5589C3.07038 13.6967 3.15277 13.7786 3.21861 13.8344C3.2588 13.8686 3.27842 13.8802 3.2839 13.8831C3.31603 13.893 3.35043 13.893 3.38256 13.8831C3.38804 13.8802 3.40766 13.8686 3.44785 13.8344C3.5137 13.7786 3.59609 13.6967 3.73393 13.5589L7.95922 9.33357L6.66633 8.04068ZM8.66633 8.62647L7.37344 7.33357L8.59921 6.1078C8.73704 5.96996 8.81944 5.88812 8.88528 5.83223C8.92547 5.79811 8.94509 5.7865 8.95057 5.78361C8.9827 5.77366 9.0171 5.77366 9.04923 5.78361C9.05471 5.7865 9.07433 5.79811 9.11452 5.83223C9.18036 5.88812 9.26275 5.96996 9.40059 6.1078L9.8921 6.59931C10.0299 6.73715 10.1118 6.81954 10.1677 6.88539C10.2018 6.92557 10.2134 6.94519 10.2163 6.95068C10.2262 6.98281 10.2262 7.0172 10.2163 7.04933C10.2134 7.05481 10.2018 7.07443 10.1677 7.11462C10.1118 7.18047 10.0299 7.26286 9.8921 7.4007L8.66633 8.62647Z"
        fill="#303233" />
</svg>
