<svg width="24" height="24" viewBox="0 0 24 24" fill="none" xmlns="http://www.w3.org/2000/svg">
    <path
        d="M10.0118 3C10.7931 3 11.0208 3.00643 11.2242 3.05526C11.4283 3.10426 11.6234 3.18506 11.8024 3.29472C11.9807 3.40402 12.1463 3.56048 12.6988 4.11299L20.2929 11.7071C20.6834 12.0976 21.3166 12.0976 21.7071 11.7071C22.0976 11.3166 22.0976 10.6834 21.7071 10.2929L14.041 2.62671C13.5922 2.1775 13.2531 1.83807 12.8474 1.58944C12.4895 1.37013 12.0993 1.20851 11.6911 1.11052C11.2284 0.999439 10.7487 0.999668 10.1137 0.99997L6 1C5.44772 1 5 1.44772 5 2C5 2.55229 5.44772 3 6 3H10.0118Z"
        fill="#303233" />
    <path
        d="M9.6912 5.11052C9.22851 4.99944 8.74872 4.99967 8.11372 4.99997L6.16152 5C5.63438 4.99998 5.1796 4.99997 4.80504 5.03057C4.40969 5.06287 4.01647 5.13419 3.63809 5.32698C3.07361 5.6146 2.61466 6.07354 2.32704 6.63803C2.13425 7.01641 2.06293 7.40963 2.03063 7.80497C2.00003 8.17955 2.00004 8.63431 2.00006 9.16146L2.00003 11.1137C1.99973 11.7487 1.9995 12.2284 2.11058 12.6911C2.20857 13.0993 2.37019 13.4895 2.5895 13.8474C2.83813 14.2531 3.17756 14.5922 3.62678 15.041L9.60586 21.02C10.0571 21.4712 10.4379 21.8521 10.7753 22.1386C11.1287 22.4386 11.4999 22.6934 11.9494 22.8395C12.6323 23.0614 13.3679 23.0614 14.0507 22.8395C14.5003 22.6934 14.8714 22.4386 15.2248 22.1386C15.5622 21.8521 15.943 21.4713 16.3941 21.0202L18.0201 19.3942C18.4713 18.943 18.8521 18.5622 19.1386 18.2247C19.4386 17.8713 19.6935 17.5002 19.8395 17.0507C20.0614 16.3678 20.0614 15.6322 19.8395 14.9493C19.6935 14.4998 19.4386 14.1287 19.1386 13.7753C18.8521 13.4378 18.4713 13.057 18.0201 12.6058L12.041 6.62671C11.5922 6.1775 11.2531 5.83806 10.8474 5.58944C10.4895 5.37013 10.0993 5.20851 9.6912 5.11052Z"
        fill="#303233" />
</svg>
