<svg width="16" height="16" viewBox="0 0 16 16" fill="none" xmlns="http://www.w3.org/2000/svg">
    <path
        d="M9.39708 1.59335C9.43849 1.26316 9.25739 0.945173 8.95228 0.812344C8.64717 0.679514 8.29102 0.763611 8.07756 1.01889L6.52818 2.87176C6.26247 3.18951 6.30466 3.66251 6.62242 3.92822C6.90842 4.16738 7.32018 4.1571 7.59337 3.92096L7.52956 4.42972C7.478 4.84071 7.76939 5.21568 8.18038 5.26723C8.59138 5.31878 8.96634 5.02739 9.01789 4.6164L9.39708 1.59335Z"
        fill="#303233" />
    <path
        d="M13.8499 6.18809C13.6219 6.00441 13.3614 5.97345 13.2352 5.96206C13.1006 5.94993 12.9374 5.94996 12.782 5.95L10.4507 5.95C10.0365 5.95 9.70067 6.28579 9.70067 6.7C9.70067 7.11422 10.0365 7.45 10.4507 7.45H12.266L11.7379 8.08151C11.4722 8.39927 11.5144 8.87227 11.8322 9.13798C12.1499 9.40369 12.6229 9.3615 12.8886 9.04374L13.7492 8.01464C13.8486 7.89579 13.9533 7.77065 14.0302 7.65968C14.1023 7.55566 14.2461 7.33517 14.2505 7.04125C14.2556 6.70986 14.1073 6.39538 13.8499 6.18809Z"
        fill="#303233" />
    <path fill-rule="evenodd" clip-rule="evenodd"
        d="M1.46967 1.46967C1.76256 1.17678 2.23744 1.17678 2.53033 1.46967L14.5303 13.4697C14.8232 13.7626 14.8232 14.2374 14.5303 14.5303C14.2374 14.8232 13.7626 14.8232 13.4697 14.5303L10.6543 11.715L7.92311 14.9811C7.70965 15.2364 7.3535 15.3205 7.04839 15.1877C6.74328 15.0548 6.56218 14.7368 6.60359 14.4067L7.15005 10.05L3.21868 10.05C3.06332 10.05 2.90002 10.0501 2.76548 10.0379C2.6393 10.0266 2.37881 9.99559 2.15073 9.81191C1.89332 9.60462 1.74511 9.29014 1.75012 8.95876C1.75457 8.66484 1.89835 8.44435 1.97045 8.34032C2.04736 8.22935 2.15204 8.10423 2.25148 7.98537L4.37966 5.44032L1.46967 2.53033C1.17678 2.23744 1.17678 1.76256 1.46967 1.46967ZM8.69831 9.75897L9.58942 10.6501L8.40955 12.0611L8.69831 9.75897ZM5.44453 6.50519L7.48934 8.55H3.73466L5.44453 6.50519Z"
        fill="#303233" />
</svg>
