<svg width="16" height="16" viewBox="0 0 16 16" fill="none" xmlns="http://www.w3.org/2000/svg">
    <path
        d="M5 7.5C4.72386 7.5 4.5 7.72386 4.5 8C4.5 8.27614 4.72386 8.5 5 8.5H11C11.2761 8.5 11.5 8.27614 11.5 8C11.5 7.72386 11.2761 7.5 11 7.5H5Z"
        fill="#303233" />
    <path fill-rule="evenodd" clip-rule="evenodd"
        d="M2.94444 1C1.87056 1 1 1.87056 1 2.94444V13.0556C1 14.1294 1.87056 15 2.94444 15H13.0556C14.1294 15 15 14.1294 15 13.0556V2.94444C15 1.87056 14.1294 1 13.0556 1H2.94444ZM2 2.94444C2 2.42284 2.42284 2 2.94444 2H13.0556C13.5772 2 14 2.42284 14 2.94444V13.0556C14 13.5772 13.5772 14 13.0556 14H2.94444C2.42284 14 2 13.5772 2 13.0556V2.94444Z"
        fill="#303233" />
</svg>
