<svg width="16" height="16" viewBox="0 0 16 16" fill="none" xmlns="http://www.w3.org/2000/svg">
    <path
        d="M3 5C3 3.34315 4.34315 2 6 2C7.65685 2 9 3.34315 9 5C9 6.65685 7.65685 8 6 8C4.34315 8 3 6.65685 3 5Z"
        fill="#303233" />
    <path
        d="M0.609607 13.4005C1.11925 10.8899 3.33816 9 5.9996 9C8.66103 9 10.8799 10.8899 11.3896 13.4005C11.4194 13.5476 11.3817 13.7003 11.2867 13.8164C11.1917 13.9326 11.0496 14 10.8996 14H1.09961C0.949566 14 0.80745 13.9326 0.712488 13.8164C0.617526 13.7003 0.579758 13.5476 0.609607 13.4005Z"
        fill="#303233" />
    <path
        d="M14.8536 6.35355C15.0488 6.15829 15.0488 5.84171 14.8536 5.64645C14.6583 5.45118 14.3417 5.45118 14.1464 5.64645L12 7.79289L10.8536 6.64644C10.6583 6.45118 10.3417 6.45118 10.1464 6.64644C9.95118 6.84171 9.95118 7.15829 10.1464 7.35355L11.6464 8.85355C11.7402 8.94732 11.8674 9 12 9C12.1326 9 12.2598 8.94732 12.3536 8.85355L14.8536 6.35355Z"
        fill="#303233" />
</svg>
