<svg width="24" height="24" viewBox="0 0 24 24" fill="none" xmlns="http://www.w3.org/2000/svg">
    <path
        d="M5 2C4.20435 2 3.44129 2.31607 2.87868 2.87868C2.31607 3.44129 2 4.20435 2 5V8C2 8.55228 2.44772 9 3 9C3.55228 9 4 8.55228 4 8V5C4 4.73478 4.10536 4.48043 4.29289 4.29289C4.48043 4.10536 4.73478 4 5 4H8C8.55228 4 9 3.55228 9 3C9 2.44772 8.55228 2 8 2H5Z"
        fill="#303233" />
    <path
        d="M16 2C15.4477 2 15 2.44772 15 3C15 3.55228 15.4477 4 16 4H19C19.2652 4 19.5196 4.10536 19.7071 4.29289C19.8946 4.48043 20 4.73478 20 5V8C20 8.55228 20.4477 9 21 9C21.5523 9 22 8.55228 22 8V5C22 4.20435 21.6839 3.44129 21.1213 2.87868C20.5587 2.31607 19.7957 2 19 2H16Z"
        fill="#303233" />
    <path
        d="M4 16C4 15.4477 3.55228 15 3 15C2.44772 15 2 15.4477 2 16V19C2 19.7957 2.31607 20.5587 2.87868 21.1213C3.44129 21.6839 4.20435 22 5 22H8C8.55228 22 9 21.5523 9 21C9 20.4477 8.55228 20 8 20H5C4.73478 20 4.48043 19.8946 4.29289 19.7071C4.10536 19.5196 4 19.2652 4 19V16Z"
        fill="#303233" />
    <path
        d="M22 16C22 15.4477 21.5523 15 21 15C20.4477 15 20 15.4477 20 16V19C20 19.2652 19.8946 19.5196 19.7071 19.7071C19.5196 19.8946 19.2652 20 19 20H16C15.4477 20 15 20.4477 15 21C15 21.5523 15.4477 22 16 22H19C19.7957 22 20.5587 21.6839 21.1213 21.1213C21.6839 20.5587 22 19.7957 22 19V16Z"
        fill="#303233" />
    <path
        d="M7 11C6.44772 11 6 11.4477 6 12C6 12.5523 6.44772 13 7 13H17C17.5523 13 18 12.5523 18 12C18 11.4477 17.5523 11 17 11H7Z"
        fill="#303233" />
</svg>
