<svg width="16" height="16" viewBox="0 0 16 16" fill="none" xmlns="http://www.w3.org/2000/svg">
    <g clip-path="url(#clip0_53_4329)">
        <path
            d="M2.94444 0.75C2.36244 0.75 1.80428 0.9812 1.39274 1.39274C0.9812 1.80428 0.75 2.36244 0.75 2.94444V5.11111C0.75 5.52532 1.08579 5.86111 1.5 5.86111C1.91421 5.86111 2.25 5.52532 2.25 5.11111V2.94444C2.25 2.76027 2.32316 2.58363 2.4534 2.4534C2.58363 2.32316 2.76027 2.25 2.94444 2.25H5.11111C5.52532 2.25 5.86111 1.91421 5.86111 1.5C5.86111 1.08579 5.52532 0.75 5.11111 0.75H2.94444Z"
            fill="#303233" />
        <path
            d="M10.8889 0.75C10.4747 0.75 10.1389 1.08579 10.1389 1.5C10.1389 1.91421 10.4747 2.25 10.8889 2.25H13.0556C13.2397 2.25 13.4164 2.32316 13.5466 2.4534C13.6768 2.58363 13.75 2.76027 13.75 2.94444V5.11111C13.75 5.52532 14.0858 5.86111 14.5 5.86111C14.9142 5.86111 15.25 5.52532 15.25 5.11111V2.94444C15.25 2.36244 15.0188 1.80428 14.6073 1.39274C14.1957 0.9812 13.6376 0.75 13.0556 0.75H10.8889Z"
            fill="#303233" />
        <path
            d="M2.25 10.8889C2.25 10.4747 1.91421 10.1389 1.5 10.1389C1.08579 10.1389 0.75 10.4747 0.75 10.8889V13.0556C0.75 13.6376 0.9812 14.1957 1.39274 14.6073C1.80428 15.0188 2.36244 15.25 2.94444 15.25H5.11111C5.52532 15.25 5.86111 14.9142 5.86111 14.5C5.86111 14.0858 5.52532 13.75 5.11111 13.75H2.94444C2.76027 13.75 2.58363 13.6768 2.4534 13.5466C2.32316 13.4164 2.25 13.2397 2.25 13.0556V10.8889Z"
            fill="#303233" />
        <path
            d="M15.25 10.8889C15.25 10.4747 14.9142 10.1389 14.5 10.1389C14.0858 10.1389 13.75 10.4747 13.75 10.8889V13.0556C13.75 13.2397 13.6768 13.4164 13.5466 13.5466C13.4164 13.6768 13.2397 13.75 13.0556 13.75H10.8889C10.4747 13.75 10.1389 14.0858 10.1389 14.5C10.1389 14.9142 10.4747 15.25 10.8889 15.25H13.0556C13.6376 15.25 14.1957 15.0188 14.6073 14.6073C15.0188 14.1957 15.25 13.6376 15.25 13.0556V10.8889Z"
            fill="#303233" />
        <path
            d="M4.5 7.25C4.08579 7.25 3.75 7.58579 3.75 8C3.75 8.41421 4.08579 8.75 4.5 8.75H11.5C11.9142 8.75 12.25 8.41421 12.25 8C12.25 7.58579 11.9142 7.25 11.5 7.25H4.5Z"
            fill="#303233" />
    </g>
    <defs>
        <clipPath id="clip0_53_4329">
            <rect width="16" height="16" fill="white" />
        </clipPath>
    </defs>
</svg>
