<svg width="16" height="16" viewBox="0 0 16 16" fill="none" xmlns="http://www.w3.org/2000/svg">
    <path fill-rule="evenodd" clip-rule="evenodd"
        d="M7 5C7 3.067 8.567 1.5 10.5 1.5C12.433 1.5 14 3.067 14 5C14 6.933 12.433 8.5 10.5 8.5C8.567 8.5 7 6.933 7 5ZM10.5 2.5C9.11929 2.5 8 3.61929 8 5C8 6.38071 9.11929 7.5 10.5 7.5C11.8807 7.5 13 6.38071 13 5C13 3.61929 11.8807 2.5 10.5 2.5Z"
        fill="#303233" />
    <path fill-rule="evenodd" clip-rule="evenodd"
        d="M4 3C4.20843 3 4.39499 3.12929 4.46817 3.32444L7.46817 11.3244C7.52575 11.478 7.50437 11.65 7.41097 11.7848C7.31756 11.9196 7.16399 12 7 12H1C0.836013 12 0.682448 11.9196 0.58904 11.7848C0.495632 11.65 0.474258 11.478 0.531838 11.3244L3.53184 3.32444C3.60502 3.12929 3.79158 3 4 3ZM6.2785 11L4 4.924L1.7215 11H6.2785Z"
        fill="#303233" />
    <path fill-rule="evenodd" clip-rule="evenodd"
        d="M10 9.5C9.72386 9.5 9.5 9.72386 9.5 10V14C9.5 14.2761 9.72386 14.5 10 14.5H15C15.2761 14.5 15.5 14.2761 15.5 14V10C15.5 9.72386 15.2761 9.5 15 9.5H10ZM14.5 13.5H10.5V10.5H14.5V13.5Z"
        fill="#303233" />
</svg>
