<svg width="24" height="24" viewBox="0 0 24 24" fill="none" xmlns="http://www.w3.org/2000/svg">
    <path
        d="M12.3004 7.77792C11.7767 7.68809 11.2381 7.7865 10.78 8.05573C10.3219 8.32496 9.97388 8.74763 9.79755 9.24888C9.6601 9.63962 9.23191 9.84495 8.84117 9.7075C8.45042 9.57005 8.24509 9.14186 8.38255 8.75112C8.67643 7.9157 9.25649 7.21125 10.02 6.76253C10.7835 6.31382 11.6812 6.14979 12.554 6.29951C13.4269 6.44922 14.2186 6.90302 14.7889 7.58053C15.3591 8.25786 15.6712 9.1151 15.67 10.0005C15.6698 11.3984 14.6313 12.3439 13.8361 12.874C13.4156 13.1544 13.0005 13.3614 12.6934 13.4979C12.5388 13.5666 12.4089 13.6186 12.316 13.654C12.2694 13.6717 12.2319 13.6854 12.205 13.6949L12.1727 13.7063L12.1628 13.7096L12.1594 13.7108L12.1582 13.7112C12.1582 13.7112 12.0524 13.3969 12.0045 13.2534L12.1572 13.7115C11.7643 13.8425 11.3395 13.6301 11.2085 13.2372C11.0777 12.8446 11.2895 12.4203 11.6817 12.2889L11.6846 12.2879L11.7025 12.2816C11.7195 12.2756 11.7465 12.2658 11.782 12.2523C11.853 12.2252 11.9575 12.1834 12.0842 12.1271C12.3396 12.0136 12.6745 11.8456 13.004 11.626C13.7087 11.1562 14.17 10.6018 14.17 10L14.17 9.99888C14.1708 9.46752 13.9836 8.95303 13.6414 8.54653C13.2992 8.14002 12.8241 7.86775 12.3004 7.77792Z"
        fill="#303233" />
    <path
        d="M12 16.25C11.5858 16.25 11.25 16.5858 11.25 17C11.25 17.4142 11.5858 17.75 12 17.75H12.01C12.4242 17.75 12.76 17.4142 12.76 17C12.76 16.5858 12.4242 16.25 12.01 16.25H12Z"
        fill="#303233" />
    <path fill-rule="evenodd" clip-rule="evenodd"
        d="M1.25 12C1.25 6.06294 6.06294 1.25 12 1.25C17.9371 1.25 22.75 6.06294 22.75 12C22.75 17.9371 17.9371 22.75 12 22.75C6.06294 22.75 1.25 17.9371 1.25 12ZM12 2.75C6.89137 2.75 2.75 6.89137 2.75 12C2.75 17.1086 6.89137 21.25 12 21.25C17.1086 21.25 21.25 17.1086 21.25 12C21.25 6.89137 17.1086 2.75 12 2.75Z"
        fill="#303233" />
</svg>
