<svg width="16" height="16" viewBox="0 0 16 16" fill="none" xmlns="http://www.w3.org/2000/svg">
    <path
        d="M0.75 4.00002C0.749991 2.75737 1.75735 1.75 3 1.75H6.79318C7.3122 1.75 7.80997 1.9562 8.17694 2.32324C8.45015 2.59649 8.82072 2.75 9.20712 2.75H13.0001C14.2427 2.75 15.2501 3.75736 15.2501 5L15.25 5.5C15.25 5.91421 14.9142 6.25 14.5 6.25C14.0858 6.25 13.75 5.91421 13.75 5.5V5L13.7501 4.98932C13.7444 4.58003 13.4108 4.25 13.0002 4.25H3.00015C2.58594 4.25 2.25015 4.58579 2.25015 5V12C2.25015 12.4142 2.58594 12.75 3.00015 12.75H13.0002C13.4108 12.75 13.7444 12.42 13.7501 12.0107L13.75 12V11.5C13.75 11.0858 14.0858 10.75 14.5 10.75C14.9142 10.75 15.25 11.0858 15.25 11.5V12C15.25 13.2426 14.2427 14.25 13.0001 14.25H3.00006C1.75742 14.25 0.750065 13.2427 0.750056 12L0.75 4.00002Z"
        fill="#303233" />
    <path
        d="M11.0303 7.03033C11.3232 6.73744 11.3232 6.26256 11.0303 5.96967C10.7374 5.67678 10.2626 5.67678 9.96967 5.96967L7.96967 7.96967C7.67678 8.26256 7.67678 8.73744 7.96967 9.03033L9.96967 11.0303C10.2626 11.3232 10.7374 11.3232 11.0303 11.0303C11.3232 10.7374 11.3232 10.2626 11.0303 9.96967L10.3107 9.25H15C15.4142 9.25 15.75 8.91421 15.75 8.5C15.75 8.08579 15.4142 7.75 15 7.75H10.3107L11.0303 7.03033Z"
        fill="#303233" />
</svg>
