<svg width="24" height="24" viewBox="0 0 24 24" fill="none" xmlns="http://www.w3.org/2000/svg">
    <path
        d="M14 2.25C13.5858 2.25 13.25 2.58579 13.25 3C13.25 3.41421 13.5858 3.75 14 3.75H17.1893L12 8.93934L7.53033 4.46967C7.23744 4.17678 6.76256 4.17678 6.46967 4.46967C6.17678 4.76256 6.17678 5.23744 6.46967 5.53033L11.4697 10.5303C11.6103 10.671 11.8011 10.75 12 10.75C12.1989 10.75 12.3897 10.671 12.5303 10.5303L18.25 4.81066V8C18.25 8.41421 18.5858 8.75 19 8.75C19.4142 8.75 19.75 8.41421 19.75 8V3C19.75 2.58579 19.4142 2.25 19 2.25H14Z"
        fill="#303233" />
    <path fill-rule="evenodd" clip-rule="evenodd"
        d="M12 12.25C8.86701 12.25 5.92146 13.0624 3.36488 14.4885L3.34828 14.4978C3.06782 14.6542 2.8709 14.764 2.60429 14.9854C1.99289 15.4932 1.45903 16.4023 1.31347 17.1836C1.24989 17.5249 1.24995 17.8273 1.25004 18.2578L1.25002 18.577C1.24983 18.9663 1.24968 19.2666 1.30196 19.5318C1.51774 20.6265 2.37354 21.4823 3.46821 21.6981C3.73343 21.7504 4.03374 21.7502 4.42299 21.75L4.77729 21.75C4.97408 21.7501 5.12575 21.7501 5.26147 21.7367C6.56657 21.6078 7.59907 20.5753 7.72794 19.2702C7.74134 19.1345 7.7413 18.9829 7.74125 18.7861L7.74125 18.7494C7.74125 18.713 7.74127 18.6946 7.74151 18.6805L7.74184 18.6688L7.74199 18.6663C7.7477 18.5926 7.82276 18.4866 7.89044 18.4568C7.89571 18.4545 7.89744 18.4538 7.90006 18.4529L7.91268 18.4483L7.9392 18.4389C9.20904 17.9929 10.5754 17.75 12 17.75C13.4247 17.75 14.7911 17.9929 16.0609 18.4389L16.0874 18.4483L16.1 18.4529C16.102 18.4536 16.1034 18.4541 16.1062 18.4553C16.1072 18.4557 16.1083 18.4562 16.1097 18.4568C16.1773 18.4866 16.2524 18.5926 16.2581 18.6663C16.2581 18.6663 16.2584 18.6696 16.2586 18.6805C16.2588 18.6946 16.2588 18.713 16.2588 18.7494L16.2588 18.7861C16.2588 18.9829 16.2588 19.1345 16.2722 19.2702C16.401 20.5753 17.4335 21.6078 18.7386 21.7367C18.8743 21.7501 19.0259 21.7501 19.2227 21.75L19.5771 21.75C19.9664 21.7502 20.2667 21.7504 20.5319 21.6981C21.6266 21.4823 22.4824 20.6265 22.6981 19.5318C22.7504 19.2666 22.7503 18.9663 22.7501 18.577L22.7501 18.2578C22.7501 17.8273 22.7502 17.5249 22.6866 17.1836C22.5411 16.4023 22.0072 15.4932 21.3958 14.9854C21.1292 14.764 20.9323 14.6542 20.6518 14.4978L20.6352 14.4885C18.0786 13.0624 15.1331 12.25 12 12.25ZM4.09563 15.7985C6.43457 14.4937 9.12932 13.75 12 13.75C14.8708 13.75 17.5655 14.4937 19.9045 15.7985C20.1933 15.9596 20.283 16.0112 20.4375 16.1394C20.7794 16.4233 21.1306 17.0214 21.212 17.4583C21.2475 17.6491 21.25 17.8123 21.25 18.3062V18.5044C21.25 19.0006 21.2465 19.1401 21.2264 19.2417C21.1284 19.7393 20.7394 20.1283 20.2418 20.2264C20.1402 20.2464 20.0006 20.25 19.5044 20.25H19.2595C19.0088 20.25 18.938 20.2491 18.886 20.2439C18.2928 20.1854 17.8235 19.7161 17.7649 19.1228C17.7598 19.0708 17.7588 19 17.7588 18.7494L17.7588 18.7369C17.7589 18.6804 17.7589 18.6188 17.7536 18.5505C17.7053 17.9257 17.2879 17.3369 16.7145 17.0842C16.6523 17.0568 16.6063 17.0406 16.5635 17.0256L16.558 17.0237C15.1306 16.5223 13.5963 16.25 12 16.25C10.4038 16.25 8.86948 16.5223 7.44211 17.0237L7.43662 17.0256C7.39377 17.0406 7.34777 17.0568 7.28561 17.0842C6.71214 17.3369 6.29483 17.9257 6.24647 18.5505C6.24118 18.6188 6.24121 18.6804 6.24124 18.7369L6.24125 18.7494C6.24125 19 6.24033 19.0708 6.2352 19.1228C6.17662 19.7161 5.7073 20.1854 5.11408 20.2439C5.06208 20.2491 4.99126 20.25 4.74061 20.25H4.49565C3.99946 20.25 3.85992 20.2464 3.7583 20.2264C3.26073 20.1283 2.87173 19.7393 2.77365 19.2417C2.75362 19.1401 2.75005 19.0006 2.75005 18.5044V18.3062C2.75005 17.8123 2.75256 17.6491 2.7881 17.4583C2.8695 17.0214 3.2207 16.4233 3.56259 16.1394C3.71705 16.0112 3.80678 15.9596 4.09563 15.7985Z"
        fill="#303233" />
</svg>
