<svg width="24" height="24" viewBox="0 0 24 24" fill="none" xmlns="http://www.w3.org/2000/svg">
    <path fill-rule="evenodd" clip-rule="evenodd"
        d="M0.25 5C0.25 3.48122 1.48122 2.25 3 2.25H9.17157C9.6357 2.25 10.0808 2.43437 10.409 2.76256L11.2374 3.59099C11.6594 4.01295 12.2317 4.25 12.8284 4.25H17C18.2588 4.25 19.32 5.09575 19.6465 6.25H20.7842C22.4763 6.25 23.767 7.76362 23.4996 9.43447L21.8996 19.4345C21.6862 20.7686 20.5352 21.75 19.1842 21.75H3C1.48122 21.75 0.25 20.5188 0.25 19V5ZM11.5415 11.2497L11.5803 11.2507L11.6179 11.2537L11.6541 11.2587L11.6901 11.2647L11.7247 11.2737L11.7591 11.2837L11.7752 11.2897L11.7828 11.2917L11.7922 11.2957L11.8054 11.3007L11.8241 11.3087L11.8334 11.3137L11.8464 11.3197L11.8769 11.3357L11.906 11.3537L11.9141 11.3597C11.9593 11.3897 12.0005 11.4267 12.0366 11.4697C12.0728 11.5127 12.1024 11.5597 12.1245 11.6097L12.129 11.6187L12.142 11.6507L12.1473 11.6677L12.1502 11.6747L12.1527 11.6837L12.1565 11.6977L12.1599 11.7077L12.1648 11.7277L12.1676 11.7417L12.174 11.7767L12.1783 11.8127L12.1816 11.8487L12.1818 11.8857L12.1809 11.9227L12.1779 11.9607L12.1727 11.9997L11.3808 16.9997C11.3152 17.4137 10.926 17.7497 10.512 17.7497C10.098 17.7497 9.81521 17.4137 9.88078 16.9997L10.3859 13.8107L6.07685 17.5297C5.73845 17.8227 5.26245 17.8227 5.01685 17.5297C4.7701 17.2377 4.84549 16.7617 5.18474 16.4697L9.49292 12.7497H6.30393C5.88993 12.7497 5.60715 12.4137 5.67272 11.9997C5.73829 11.5857 6.1275 11.2497 6.5415 11.2497H11.5415Z"
        fill="#303233" />
</svg>
