<svg width="16" height="16" viewBox="0 0 16 16" fill="none" xmlns="http://www.w3.org/2000/svg">
    <path
        d="M7.58687 15.876C7.58708 15.8761 7.58727 15.8762 8 15.25L8.41273 15.8762C8.16233 16.0413 7.83728 16.041 7.58687 15.876Z"
        fill="#303233" />
    <path fill-rule="evenodd" clip-rule="evenodd"
        d="M8 3.5C6.20507 3.5 4.75 4.95507 4.75 6.75C4.75 8.54493 6.20507 10 8 10C9.79493 10 11.25 8.54493 11.25 6.75C11.25 4.95507 9.79493 3.5 8 3.5ZM6.25 6.75C6.25 5.7835 7.0335 5 8 5C8.9665 5 9.75 5.7835 9.75 6.75C9.75 7.7165 8.9665 8.5 8 8.5C7.0335 8.5 6.25 7.7165 6.25 6.75Z"
        fill="#303233" />
    <path fill-rule="evenodd" clip-rule="evenodd"
        d="M7.58687 15.876L8 15.25C8.41273 15.8762 8.41346 15.8757 8.41367 15.8756L8.41515 15.8746L8.41974 15.8716L8.43532 15.8612C8.4485 15.8523 8.46722 15.8397 8.49111 15.8233C8.53889 15.7906 8.60738 15.743 8.69363 15.6814C8.86606 15.5583 9.10991 15.3788 9.40142 15.1493C9.98325 14.6913 10.7611 14.0294 11.5415 13.2149C13.0707 11.6192 14.75 9.29332 14.75 6.68182C14.75 4.90691 14.0367 3.20644 12.7699 1.95404C11.5034 0.701917 9.78746 0 8 0C6.21254 0 4.49658 0.701917 3.23007 1.95404C1.96327 3.20644 1.25 4.90691 1.25 6.68182C1.25 9.29332 2.92935 11.6192 4.45849 13.2149C5.23893 14.0294 6.01675 14.6913 6.59858 15.1493C6.89009 15.3788 7.13394 15.5583 7.30637 15.6814C7.39262 15.743 7.46111 15.7906 7.50889 15.8233C7.53278 15.8397 7.5515 15.8523 7.56468 15.8612L7.58026 15.8716L7.58485 15.8746L7.58687 15.876ZM4.28465 3.02074C5.26857 2.048 6.60487 1.5 8 1.5C9.39513 1.5 10.7314 2.048 11.7153 3.02074C12.699 3.9932 13.25 5.3103 13.25 6.68182C13.25 8.68395 11.9293 10.6422 10.4585 12.1771C9.73893 12.928 9.01675 13.5431 8.47358 13.9707C8.29296 14.1129 8.13282 14.2338 8 14.3316C7.86718 14.2338 7.70704 14.1129 7.52642 13.9707C6.98325 13.5431 6.26107 12.928 5.54151 12.1771C4.07065 10.6422 2.75 8.68395 2.75 6.68182C2.75 5.3103 3.30102 3.9932 4.28465 3.02074Z"
        fill="#303233" />
</svg>
