<svg width="24" height="24" viewBox="0 0 24 24" fill="none" xmlns="http://www.w3.org/2000/svg">
    <path
        d="M14.1604 1.00611C13.6115 0.945131 13.1171 1.34068 13.0561 1.88958C12.9951 2.43849 13.3907 2.9329 13.9396 2.99388C15.7434 3.19427 17.4254 4.00204 18.7096 5.28456C19.9937 6.56707 20.8036 8.24811 21.0062 10.0517C21.0679 10.6005 21.5628 10.9954 22.1117 10.9337C22.6605 10.8721 23.0554 10.3772 22.9937 9.82833C22.7404 7.5739 21.7281 5.4726 20.1229 3.86945C18.5177 2.2663 16.4152 1.2566 14.1604 1.00611Z"
        fill="#303233" />
    <path
        d="M14.2415 5.0185C13.6994 4.91274 13.1743 5.26644 13.0685 5.8085C12.9627 6.35057 13.3164 6.87573 13.8585 6.98149C14.6399 7.13394 15.358 7.5161 15.921 8.07904C16.4839 8.64198 16.866 9.3601 17.0185 10.1415C17.1243 10.6836 17.6494 11.0372 18.1915 10.9315C18.7336 10.8257 19.0872 10.3006 18.9815 9.7585C18.7528 8.58642 18.1796 7.50924 17.3352 6.66483C16.4907 5.82041 15.4136 5.24718 14.2415 5.0185Z"
        fill="#303233" />
    <path
        d="M11.2266 12.8632C10.0251 11.6616 9.07627 10.303 8.38028 8.85335C8.32041 8.72866 8.29048 8.66632 8.26748 8.58743C8.18576 8.30707 8.24446 7.96281 8.41447 7.72538C8.46231 7.65857 8.51947 7.60142 8.63378 7.4871C8.98338 7.1375 9.15819 6.96269 9.27247 6.78692C9.70347 6.12403 9.70347 5.26944 9.27247 4.60655C9.15819 4.43078 8.98338 4.25597 8.63378 3.90637L8.43891 3.7115C7.90747 3.18006 7.64174 2.91433 7.35636 2.76999C6.7888 2.48292 6.11854 2.48292 5.55098 2.76999C5.2656 2.91433 4.99987 3.18006 4.46843 3.7115L4.3108 3.86913C3.78118 4.39876 3.51636 4.66357 3.31411 5.0236C3.08969 5.42311 2.92833 6.0436 2.9297 6.50182C2.93092 6.91476 3.01103 7.19698 3.17123 7.76142C4.0322 10.7948 5.65668 13.6572 8.04466 16.0452C10.4326 18.4332 13.295 20.0576 16.3284 20.9186C16.8928 21.0788 17.1751 21.1589 17.588 21.1601C18.0462 21.1615 18.6667 21.0001 19.0662 20.7757C19.4263 20.5735 19.6911 20.3087 20.2207 19.779L20.3783 19.6214C20.9098 19.09 21.1755 18.8242 21.3198 18.5389C21.6069 17.9713 21.6069 17.301 21.3198 16.7335C21.1755 16.4481 20.9098 16.1824 20.3783 15.6509L20.1835 15.4561C19.8339 15.1064 19.6591 14.9316 19.4833 14.8174C18.8204 14.3864 17.9658 14.3864 17.3029 14.8174C17.1271 14.9316 16.9523 15.1064 16.6027 15.4561C16.4884 15.5704 16.4313 15.6275 16.3644 15.6754C16.127 15.8454 15.7828 15.9041 15.5024 15.8224C15.4235 15.7994 15.3612 15.7694 15.2365 15.7096C13.7869 15.0136 12.4282 14.0648 11.2266 12.8632Z"
        fill="#303233" />
</svg>
