<svg width="24" height="24" viewBox="0 0 24 24" fill="none" xmlns="http://www.w3.org/2000/svg">
    <path fill-rule="evenodd" clip-rule="evenodd"
        d="M4.57756 2C4.32094 1.99997 4.07102 1.99994 3.85948 2.0175C3.62705 2.0368 3.35295 2.08237 3.07806 2.22517C2.71277 2.41492 2.41493 2.71276 2.22518 3.07805C2.08238 3.35295 2.03681 3.62705 2.01751 3.85947C1.99994 4.07102 1.99997 4.32093 2 4.57756V8.42244C1.99997 8.67907 1.99994 8.92898 2.01751 9.14053C2.03681 9.37295 2.08238 9.64705 2.22518 9.92195C2.41493 10.2872 2.71277 10.5851 3.07806 10.7748C3.35295 10.9176 3.62705 10.9632 3.85948 10.9825C4.07102 11.0001 4.32093 11 4.57755 11H8.42246C8.67908 11 8.92899 11.0001 9.14054 10.9825C9.37296 10.9632 9.64706 10.9176 9.92195 10.7748C10.2872 10.5851 10.5851 10.2872 10.7748 9.92195C10.9176 9.64705 10.9632 9.37295 10.9825 9.14053C11.0001 8.92899 11 8.67908 11 8.42246V4.57754C11 4.32092 11.0001 4.07101 10.9825 3.85947C10.9632 3.62705 10.9176 3.35295 10.7748 3.07805C10.5851 2.71276 10.2872 2.41492 9.92195 2.22517C9.64706 2.08237 9.37296 2.0368 9.14054 2.0175C8.92899 1.99994 8.67907 1.99997 8.42245 2H4.57756ZM4.01065 4.02499L4.01181 4.01181L4.025 4.01064C4.14348 4.0008 4.30847 4 4.61001 4H8.39001C8.69154 4 8.85653 4.0008 8.97501 4.01064L8.9882 4.01181L8.98936 4.02499C8.9992 4.14347 9.00001 4.30847 9.00001 4.61V8.39C9.00001 8.69153 8.9992 8.85653 8.98936 8.97501L8.9882 8.98819L8.97501 8.98936C8.85653 8.9992 8.69154 9 8.39001 9H4.61001C4.30848 9 4.14348 8.9992 4.025 8.98936L4.01181 8.98819L4.01065 8.97501C4.00081 8.85653 4.00001 8.69153 4.00001 8.39V4.61C4.00001 4.30847 4.00081 4.14347 4.01065 4.02499Z"
        fill="#303233" />
    <path fill-rule="evenodd" clip-rule="evenodd"
        d="M15.5776 2C15.3209 1.99997 15.071 1.99994 14.8595 2.0175C14.6271 2.0368 14.353 2.08237 14.0781 2.22517C13.7128 2.41492 13.4149 2.71276 13.2252 3.07805C13.0824 3.35295 13.0368 3.62705 13.0175 3.85947C12.9999 4.07102 13 4.32093 13 4.57756V8.42244C13 8.67907 12.9999 8.92898 13.0175 9.14053C13.0368 9.37295 13.0824 9.64705 13.2252 9.92195C13.4149 10.2872 13.7128 10.5851 14.0781 10.7748C14.353 10.9176 14.6271 10.9632 14.8595 10.9825C15.071 11.0001 15.3209 11 15.5775 11H19.4225C19.6791 11 19.929 11.0001 20.1405 10.9825C20.373 10.9632 20.6471 10.9176 20.922 10.7748C21.2872 10.5851 21.5851 10.2872 21.7748 9.92195C21.9176 9.64705 21.9632 9.37295 21.9825 9.14053C22.0001 8.92902 22 8.67915 22 8.42256V4.57754C22 4.32096 22.0001 4.07098 21.9825 3.85947C21.9632 3.62705 21.9176 3.35295 21.7748 3.07805C21.5851 2.71276 21.2872 2.41492 20.922 2.22517C20.6471 2.08237 20.373 2.0368 20.1405 2.0175C19.929 1.99994 19.6791 1.99997 19.4224 2H15.5776ZM15.0106 4.02499L15.0118 4.01181L15.025 4.01064C15.1435 4.0008 15.3085 4 15.61 4H19.39C19.6915 4 19.8565 4.0008 19.975 4.01064L19.9882 4.01181L19.9894 4.02499C19.9992 4.14347 20 4.30847 20 4.61V8.39C20 8.69153 19.9992 8.85653 19.9894 8.97501L19.9882 8.98819L19.975 8.98936C19.8565 8.9992 19.6915 9 19.39 9H15.61C15.3085 9 15.1435 8.9992 15.025 8.98936L15.0118 8.98819L15.0106 8.97501C15.0008 8.85653 15 8.69153 15 8.39V4.61C15 4.30847 15.0008 4.14347 15.0106 4.02499Z"
        fill="#303233" />
    <path fill-rule="evenodd" clip-rule="evenodd"
        d="M15.5776 13H19.4224C19.6791 13 19.929 12.9999 20.1405 13.0175C20.373 13.0368 20.6471 13.0824 20.922 13.2252C21.2872 13.4149 21.5851 13.7128 21.7748 14.0781C21.9176 14.3529 21.9632 14.627 21.9825 14.8595C22.0001 15.071 22 15.3209 22 15.5775V19.4225C22 19.6791 22.0001 19.929 21.9825 20.1405C21.9632 20.3729 21.9176 20.6471 21.7748 20.9219C21.5851 21.2872 21.2872 21.5851 20.922 21.7748C20.6471 21.9176 20.373 21.9632 20.1405 21.9825C19.929 22.0001 19.6791 22 19.4225 22H15.5775C15.321 22 15.071 22.0001 14.8595 21.9825C14.6271 21.9632 14.353 21.9176 14.0781 21.7748C13.7128 21.5851 13.4149 21.2872 13.2252 20.9219C13.0824 20.6471 13.0368 20.3729 13.0175 20.1405C12.9999 19.929 13 19.6791 13 19.4224V15.5776C13 15.3209 12.9999 15.071 13.0175 14.8595C13.0368 14.627 13.0824 14.3529 13.2252 14.0781C13.4149 13.7128 13.7128 13.4149 14.0781 13.2252C14.353 13.0824 14.6271 13.0368 14.8595 13.0175C15.071 12.9999 15.3209 13 15.5776 13ZM15.0118 15.0118L15.0106 15.025C15.0008 15.1435 15 15.3085 15 15.61V19.39C15 19.6915 15.0008 19.8565 15.0106 19.975L15.0118 19.9882L15.025 19.9894C15.1435 19.9992 15.3085 20 15.61 20H19.39C19.6915 20 19.8565 19.9992 19.975 19.9894L19.9882 19.9882L19.9894 19.975C19.9992 19.8565 20 19.6915 20 19.39V15.61C20 15.3085 19.9992 15.1435 19.9894 15.025L19.9882 15.0118L19.975 15.0106C19.8565 15.0008 19.6915 15 19.39 15H15.61C15.3085 15 15.1435 15.0008 15.025 15.0106L15.0118 15.0118Z"
        fill="#303233" />
    <path fill-rule="evenodd" clip-rule="evenodd"
        d="M4.57756 13C4.32094 13 4.07102 12.9999 3.85948 13.0175C3.62705 13.0368 3.35295 13.0824 3.07806 13.2252C2.71277 13.4149 2.41493 13.7128 2.22518 14.0781C2.08238 14.3529 2.03681 14.627 2.01751 14.8595C1.99994 15.071 1.99997 15.3209 2 15.5776V19.4224C1.99997 19.6791 1.99994 19.929 2.01751 20.1405C2.03681 20.3729 2.08238 20.6471 2.22518 20.9219C2.41493 21.2872 2.71277 21.5851 3.07806 21.7748C3.35295 21.9176 3.62705 21.9632 3.85948 21.9825C4.07101 22.0001 4.3209 22 4.57751 22H8.42246C8.67907 22 8.929 22.0001 9.14054 21.9825C9.37296 21.9632 9.64706 21.9176 9.92195 21.7748C10.2872 21.5851 10.5851 21.2872 10.7748 20.9219C10.9176 20.6471 10.9632 20.3729 10.9825 20.1405C11.0001 19.929 11 19.6791 11 19.4225V15.5775C11 15.3209 11.0001 15.071 10.9825 14.8595C10.9632 14.627 10.9176 14.3529 10.7748 14.0781C10.5851 13.7128 10.2872 13.4149 9.92195 13.2252C9.64706 13.0824 9.37296 13.0368 9.14054 13.0175C8.92899 12.9999 8.67907 13 8.42245 13H4.57756ZM4.01065 15.025L4.01181 15.0118L4.025 15.0106C4.14348 15.0008 4.30847 15 4.61001 15H8.39001C8.69154 15 8.85653 15.0008 8.97501 15.0106L8.9882 15.0118L8.98936 15.025C8.9992 15.1435 9.00001 15.3085 9.00001 15.61V19.39C9.00001 19.6915 8.9992 19.8565 8.98936 19.975L8.9882 19.9882L8.97501 19.9894C8.85653 19.9992 8.69154 20 8.39001 20H4.61001C4.30848 20 4.14348 19.9992 4.025 19.9894L4.01181 19.9882L4.01065 19.975C4.00081 19.8565 4.00001 19.6915 4.00001 19.39V15.61C4.00001 15.3085 4.00081 15.1435 4.01065 15.025Z"
        fill="#303233" />
</svg>
