<svg width="16" height="16" viewBox="0 0 16 16" fill="none" xmlns="http://www.w3.org/2000/svg">
    <path
        d="M12.5304 5.19699C12.8233 4.90409 12.8233 4.42922 12.5304 4.13633C12.2375 3.84343 11.7626 3.84343 11.4698 4.13633L8.13642 7.46966C7.84352 7.76255 7.84352 8.23743 8.13642 8.53032L11.4698 11.8637C11.7626 12.1565 12.2375 12.1565 12.5304 11.8637C12.8233 11.5708 12.8233 11.0959 12.5304 10.803L9.72741 7.99999L12.5304 5.19699Z"
        fill="#303233" />
    <path
        d="M7.86366 5.19699C8.15656 4.90409 8.15656 4.42922 7.86366 4.13633C7.57077 3.84343 7.0959 3.84343 6.803 4.13633L3.46967 7.46966C3.32902 7.61031 3.25 7.80108 3.25 7.99999C3.25 8.1989 3.32902 8.38967 3.46967 8.53032L6.803 11.8637C7.0959 12.1565 7.57077 12.1565 7.86366 11.8637C8.15656 11.5708 8.15656 11.0959 7.86366 10.803L5.06066 7.99999L7.86366 5.19699Z"
        fill="#303233" />
</svg>
