<svg width="16" height="16" viewBox="0 0 16 16" fill="none" xmlns="http://www.w3.org/2000/svg">
    <path fill-rule="evenodd" clip-rule="evenodd"
        d="M3.25 7C3.25 4.92893 4.92893 3.25 7 3.25C9.07107 3.25 10.75 4.92893 10.75 7C10.75 9.07107 9.07107 10.75 7 10.75C4.92893 10.75 3.25 9.07107 3.25 7ZM7 4.75C7.41421 4.75 7.75 5.08579 7.75 5.5V6.25H8.5C8.91421 6.25 9.25 6.58579 9.25 7C9.25 7.41421 8.91421 7.75 8.5 7.75H7.75V8.5C7.75 8.91421 7.41421 9.25 7 9.25C6.58579 9.25 6.25 8.91421 6.25 8.5V7.75H5.5C5.08579 7.75 4.75 7.41421 4.75 7C4.75 6.58579 5.08579 6.25 5.5 6.25H6.25V5.5C6.25 5.08579 6.58579 4.75 7 4.75Z"
        fill="#303233" />
    <path fill-rule="evenodd" clip-rule="evenodd"
        d="M7 1.25C3.82436 1.25 1.25 3.82436 1.25 7C1.25 10.1756 3.82436 12.75 7 12.75C8.31955 12.75 9.53529 12.3055 10.5057 11.5581C10.5251 11.5832 10.5463 11.6073 10.5693 11.6303L13.4693 14.5303C13.7622 14.8232 14.237 14.8232 14.5299 14.5303C14.8228 14.2374 14.8228 13.7626 14.5299 13.4697L11.6299 10.5697C11.6069 10.5467 11.5828 10.5255 11.5577 10.5061C12.3054 9.53566 12.75 8.31975 12.75 7C12.75 3.82436 10.1756 1.25 7 1.25ZM2.75 7C2.75 4.65279 4.65279 2.75 7 2.75C9.34721 2.75 11.25 4.65279 11.25 7C11.25 9.34721 9.34721 11.25 7 11.25C4.65279 11.25 2.75 9.34721 2.75 7Z"
        fill="#303233" />
</svg>
