<svg width="16" height="16" viewBox="0 0 16 16" fill="none" xmlns="http://www.w3.org/2000/svg">
    <path fill-rule="evenodd" clip-rule="evenodd"
        d="M11.4415 2.78524C11.2789 2.85859 11.0616 2.97667 10.7381 3.15299C9.65094 3.74564 8.14833 4.42015 6.8625 4.42015H4.62C4.0657 4.42015 3.68004 4.42054 3.37996 4.44506C3.08571 4.4691 2.91804 4.51383 2.79171 4.5782C2.51888 4.71721 2.29706 4.93903 2.15804 5.21187C2.09367 5.3382 2.04895 5.50587 2.02491 5.80012C2.00039 6.1002 2 6.48585 2 7.04016L2 7.82015C2 8.12986 2.00027 8.33709 2.01121 8.49742C2.02184 8.65326 2.04086 8.72793 2.0609 8.7763C2.14209 8.97232 2.29783 9.12806 2.49385 9.20926C2.54223 9.22929 2.6169 9.24831 2.77273 9.25894C2.93306 9.26988 3.1403 9.27015 3.45 9.27015C3.72614 9.27015 3.95 9.49401 3.95 9.77015V12.5327C3.95 12.6955 3.95061 12.7406 3.95385 12.7736C3.99126 13.1534 4.29177 13.4539 4.67159 13.4913C4.70454 13.4945 4.74969 13.4952 4.9125 13.4952C5.07531 13.4952 5.12047 13.4945 5.15342 13.4913C5.53324 13.4539 5.83374 13.1534 5.87115 12.7736C5.87439 12.7406 5.875 12.6955 5.875 12.5327V9.77015C5.875 9.49401 6.09886 9.27015 6.375 9.27015H6.8625C8.14833 9.27015 9.65094 9.94467 10.7381 10.5373C11.0616 10.7136 11.2789 10.8317 11.4415 10.9051C11.5476 10.953 11.5974 10.9655 11.6108 10.9689C11.6351 10.9644 11.6472 10.9583 11.6533 10.9546C11.6596 10.9509 11.6712 10.9428 11.6875 10.9225C11.691 10.9098 11.703 10.8641 11.7114 10.7583C11.7246 10.592 11.725 10.3612 11.725 10.0131V3.67724C11.725 3.32907 11.7246 3.09833 11.7114 2.932C11.703 2.82624 11.691 2.78051 11.6875 2.76778C11.6712 2.74747 11.6596 2.73941 11.6533 2.73569C11.6472 2.73205 11.6351 2.72594 11.6108 2.72141C11.5974 2.72482 11.5476 2.73733 11.4415 2.78524ZM11.0302 1.87372C11.2188 1.78861 11.4619 1.69517 11.7148 1.72615C12.0457 1.76668 12.3163 1.92737 12.5103 2.19852C12.6563 2.4026 12.6922 2.65088 12.7083 2.8528C12.725 3.06365 12.725 3.33471 12.725 3.65603V10.0343C12.725 10.3556 12.725 10.6267 12.7083 10.8375C12.6922 11.0394 12.6563 11.2877 12.5103 11.4918C12.3163 11.7629 12.0457 11.9236 11.7148 11.9642C11.4619 11.9951 11.2188 11.9017 11.0302 11.8166C10.829 11.7258 10.5782 11.5891 10.2776 11.4252L10.2595 11.4153C9.18393 10.829 7.88378 10.2747 6.875 10.2702V12.5327C6.875 12.5408 6.875 12.5488 6.87501 12.5568C6.87504 12.684 6.87506 12.7829 6.86633 12.8716C6.78216 13.7262 6.10603 14.4023 5.25143 14.4865C5.1628 14.4952 5.06389 14.4952 4.93665 14.4952H4.88836C4.76111 14.4952 4.66221 14.4952 4.57357 14.4865C3.71897 14.4023 3.04284 13.7262 2.95867 12.8716C2.94994 12.7829 2.94996 12.684 2.95 12.5568C2.95 12.5488 2.95 12.5408 2.95 12.5327V10.2669C2.86184 10.265 2.78013 10.2618 2.70466 10.2566C2.49791 10.2425 2.3017 10.2121 2.11117 10.1331C1.67012 9.95045 1.31971 9.60004 1.13702 9.15899C1.0581 8.96846 1.02764 8.77225 1.01353 8.56549C0.999992 8.36706 0.999996 8.12552 1 7.83692L1 7.01882C0.999995 6.49088 0.99999 6.06429 1.02823 5.71868C1.05732 5.3626 1.11886 5.04868 1.26703 4.75788C1.50192 4.29688 1.87673 3.92208 2.33772 3.68719C2.62852 3.53902 2.94244 3.47748 3.29853 3.44838C3.64413 3.42015 4.07072 3.42015 4.59866 3.42015L6.8625 3.42015C7.87302 3.42015 9.17948 2.86372 10.2595 2.27498L10.2776 2.26508C10.5782 2.1012 10.829 1.96451 11.0302 1.87372ZM14.5 5.04516C14.7761 5.04516 15 5.26901 15 5.54516V8.14516C15 8.4213 14.7761 8.64516 14.5 8.64516C14.2239 8.64516 14 8.4213 14 8.14516V5.54516C14 5.26901 14.2239 5.04516 14.5 5.04516Z"
        fill="#303233" />
</svg>
