<svg width="16" height="16" viewBox="0 0 16 16" fill="none" xmlns="http://www.w3.org/2000/svg">
    <g clip-path="url(#clip0_8799_14)">
        <path
            d="M8.96973 6.96959C9.26258 6.67674 9.73737 6.67681 10.0303 6.96959C10.3232 7.26248 10.3232 7.73724 10.0303 8.03014L6.53028 11.5301C6.23738 11.823 5.76262 11.823 5.46973 11.5301L3.46973 9.53014L3.41797 9.4735C3.17777 9.17892 3.19517 8.74416 3.46973 8.46959C3.74429 8.19503 4.17906 8.17763 4.47364 8.41783L4.53028 8.46959L6 9.93932L8.96973 6.96959Z"
            fill="black" />
        <path fill-rule="evenodd" clip-rule="evenodd"
            d="M11.7998 0.249864C12.3474 0.249864 12.8037 0.248841 13.1748 0.279161C13.5545 0.310197 13.9109 0.377971 14.2481 0.549669C14.7655 0.813316 15.1866 1.2344 15.4502 1.75182C15.6219 2.08893 15.6897 2.44536 15.7207 2.82506C15.751 3.19617 15.75 3.65243 15.75 4.20006V9.74986C15.75 10.3928 15.7582 10.8806 15.6318 11.2977C15.3652 12.1766 14.6767 12.8651 13.7979 13.1317L13.6387 13.1727C13.5056 13.2018 13.3645 13.217 13.2139 13.2284C13.1809 13.588 13.1137 13.9268 12.9502 14.2479C12.6866 14.7653 12.2655 15.1864 11.7481 15.4501L11.6211 15.5096C11.3217 15.638 11.0072 15.6934 10.6748 15.7206C10.3037 15.7509 9.84748 15.7499 9.29981 15.7499H4.2002C3.65252 15.7499 3.19633 15.7509 2.8252 15.7206C2.44547 15.6895 2.0891 15.6218 1.75196 15.4501L1.5625 15.3436C1.13171 15.0794 0.78051 14.7007 0.549809 14.2479L0.490238 14.121C0.361867 13.8216 0.306461 13.507 0.279301 13.1747C0.248988 12.8036 0.250004 12.3473 0.250004 11.7997V6.70006C0.250004 6.15243 0.248981 5.69616 0.279301 5.32506C0.306467 4.99271 0.361852 4.67813 0.490238 4.37877L0.549809 4.25182C0.813464 3.73441 1.23454 3.31331 1.75196 3.04967C2.07283 2.88625 2.41125 2.81808 2.77051 2.78502C2.78186 2.63469 2.79816 2.49405 2.82715 2.36119L2.86817 2.20201C3.13481 1.32316 3.82329 0.634629 4.70215 0.368028C5.11922 0.24166 5.60709 0.249864 6.25 0.249864H11.7998ZM4.2002 4.24986C3.62778 4.24986 3.24315 4.2501 2.94727 4.27428C2.66032 4.29774 2.52316 4.34046 2.43262 4.38658C2.19754 4.50639 2.00655 4.69741 1.88672 4.93248L1.85254 5.01061C1.82021 5.10084 1.79202 5.23195 1.77442 5.44713C1.75025 5.74299 1.75 6.12769 1.75 6.70006V11.7997C1.75 12.372 1.75025 12.7567 1.77442 13.0526C1.79201 13.2678 1.82022 13.3989 1.85254 13.4891L1.88672 13.5672C1.9916 13.773 2.15087 13.9452 2.34668 14.0653L2.43262 14.1131C2.52316 14.1593 2.66028 14.202 2.94727 14.2255C3.24315 14.2496 3.62777 14.2499 4.2002 14.2499H9.29981C9.87224 14.2499 10.2569 14.2496 10.5527 14.2255C10.768 14.2079 10.899 14.1797 10.9893 14.1473L11.0674 14.1131C11.3025 13.9933 11.4935 13.8023 11.6133 13.5672C11.6594 13.4767 11.7021 13.3395 11.7256 13.0526C11.7498 12.7567 11.75 12.372 11.75 11.7997V6.70006C11.75 6.12769 11.7498 5.74299 11.7256 5.44713C11.7021 5.16021 11.6594 5.02301 11.6133 4.93248C11.4935 4.69741 11.3025 4.50639 11.0674 4.38658C10.9768 4.34046 10.8397 4.29774 10.5527 4.27428C10.2569 4.2501 9.87223 4.24986 9.29981 4.24986H4.2002ZM6.25 1.74986C5.49786 1.74986 5.28731 1.75792 5.13672 1.80358C4.73755 1.92479 4.42497 2.23743 4.30372 2.63658L4.28028 2.74986H9.29981C9.84748 2.74986 10.3037 2.74884 10.6748 2.77916C11.0545 2.81019 11.4109 2.87797 11.7481 3.04967C12.2655 3.31331 12.6865 3.73441 12.9502 4.25182C13.1219 4.58893 13.1897 4.94537 13.2207 5.32506C13.251 5.69616 13.25 6.15243 13.25 6.70006V11.7196L13.3633 11.6962C13.7624 11.5749 14.0751 11.2623 14.1963 10.8631C14.2419 10.7126 14.25 10.502 14.25 9.74986V4.20006C14.25 3.62768 14.2498 3.24299 14.2256 2.94713C14.2021 2.66019 14.1594 2.52301 14.1133 2.43248C13.9935 2.1974 13.8025 2.00641 13.5674 1.88658C13.4769 1.84045 13.3397 1.79774 13.0527 1.77428C12.7569 1.75011 12.3722 1.74986 11.7998 1.74986H6.25Z"
            fill="black" />
    </g>
    <defs>
        <clipPath id="clip0_8799_14">
            <rect width="16" height="16" fill="white" />
        </clipPath>
    </defs>
</svg>
