<svg width="16" height="16" viewBox="0 0 16 16" fill="none" xmlns="http://www.w3.org/2000/svg">
    <path fill-rule="evenodd" clip-rule="evenodd"
        d="M1 8C1 4.13401 4.13401 1 8 1C11.866 1 15 4.13401 15 8C15 11.866 11.866 15 8 15C4.13401 15 1 11.866 1 8ZM2 7.99809L2 8.00191C2.00026 8.8255 2.16645 9.6103 2.46696 10.3247L4.55793 9.48831C4.36043 9.03205 4.25098 8.5288 4.25098 7.99999C4.25098 7.47119 4.36043 6.96794 4.55792 6.51169L2.46697 5.6753C2.16645 6.3897 2.00026 7.1745 2 7.99809ZM5.6751 2.46705L6.5113 4.55753C6.96792 4.35967 7.47164 4.24999 8.00098 4.24999C8.52952 4.24999 9.03252 4.35934 9.48859 4.55664L10.3245 2.46688C9.61038 2.16652 8.82593 2.00036 8.0027 2H7.9973C7.17392 2.00036 6.38932 2.16658 5.6751 2.46705ZM13.533 5.6753L11.4437 6.51102C11.6414 6.96745 11.751 7.47093 11.751 7.99999C11.751 8.52906 11.6414 9.03254 11.4437 9.48897L13.533 10.3247C13.8338 9.60974 14 8.82428 14 8C14 7.17571 13.8338 6.39025 13.533 5.6753ZM10.3257 13.5326L9.48982 11.4428C9.03342 11.6405 8.52999 11.75 8.00098 11.75C7.47212 11.75 6.96883 11.6405 6.51253 11.443L5.67634 13.5335C6.39101 13.8339 7.17611 14 8 14C8.82468 14 9.61051 13.8336 10.3257 13.5326ZM8.00098 5.24999C6.48219 5.24999 5.25098 6.48121 5.25098 7.99999C5.25098 9.51878 6.48219 10.75 8.00098 10.75C9.51976 10.75 10.751 9.51878 10.751 7.99999C10.751 6.48121 9.51976 5.24999 8.00098 5.24999Z"
        fill="#303233" />
</svg>
