<svg width="16" height="16" viewBox="0 0 16 16" fill="none" xmlns="http://www.w3.org/2000/svg">
    <path fill-rule="evenodd" clip-rule="evenodd"
        d="M1 2.94444C1 1.87056 1.87056 1 2.94444 1H13.0556C14.1294 1 15 1.87056 15 2.94444V13.0556C15 14.1294 14.1294 15 13.0556 15H2.94444C1.87056 15 1 14.1294 1 13.0556V2.94444ZM6 5.5C6.27614 5.5 6.5 5.72386 6.5 6V10C6.5 10.2761 6.27614 10.5 6 10.5C5.72386 10.5 5.5 10.2761 5.5 10V6C5.5 5.72386 5.72386 5.5 6 5.5ZM10.5 6C10.5 5.72386 10.2761 5.5 10 5.5C9.72386 5.5 9.5 5.72386 9.5 6V10C9.5 10.2761 9.72386 10.5 10 10.5C10.2761 10.5 10.5 10.2761 10.5 10V6Z"
        fill="#303233" />
</svg>
