<svg width="24" height="24" viewBox="0 0 24 24" fill="none" xmlns="http://www.w3.org/2000/svg">
    <path
        d="M3.94288 3.05134C3.70423 2.94391 3.4809 2.84339 3.29553 2.77918C3.12208 2.71909 2.82261 2.62919 2.49951 2.71909C2.12116 2.82436 1.81428 3.10133 1.67089 3.46694C1.54844 3.77916 1.60727 4.08624 1.64931 4.26493C1.69424 4.45589 1.77141 4.68832 1.85388 4.93671L3.94934 11.25H10.502C10.9162 11.25 11.252 11.5858 11.252 12C11.252 12.4142 10.9162 12.75 10.502 12.75H3.97227L1.86089 19.057C1.77751 19.306 1.69954 19.5388 1.65401 19.7301C1.61146 19.9088 1.5516 20.2164 1.67371 20.5294C1.81661 20.8957 2.12351 21.1734 2.50222 21.2791C2.82585 21.3694 3.12599 21.2792 3.29959 21.2191C3.48535 21.1547 3.70926 21.0539 3.9487 20.9462L20.7154 13.4011C20.9487 13.2962 21.1681 13.1975 21.3365 13.1027C21.4955 13.0132 21.7567 12.8509 21.9034 12.5541C22.0761 12.2049 22.0761 11.7952 21.9034 11.446C21.7567 11.1492 21.4955 10.9868 21.3365 10.8974C21.1681 10.8026 20.9488 10.7039 20.7155 10.599L3.94288 3.05134Z"
        fill="#303233" />
</svg>
