<svg width="24" height="24" viewBox="0 0 24 24" fill="none" xmlns="http://www.w3.org/2000/svg">
    <path fill-rule="evenodd" clip-rule="evenodd"
        d="M6.90502 3.66222C6.62124 3.51868 6.2861 3.51868 6.00232 3.66222C5.8956 3.7162 5.76256 3.83146 5.17554 4.41848L5.0179 4.57612C4.45769 5.13634 4.30668 5.29836 4.18597 5.51324C4.04606 5.76231 3.92884 6.21305 3.92969 6.49872C3.93045 6.75293 3.96798 6.90602 4.13324 7.48827C4.94884 10.3618 6.48744 13.0736 8.75177 15.3379C11.0161 17.6023 13.7279 19.1409 16.6014 19.9565C17.1837 20.1217 17.3368 20.1593 17.591 20.16C17.8767 20.1609 18.3274 20.0437 18.5765 19.9037C18.7914 19.783 18.9534 19.632 19.5136 19.0718L19.6712 18.9142C20.2582 18.3271 20.3735 18.1941 20.4275 18.0874C20.571 17.8036 20.571 17.4685 20.4275 17.1847C20.3735 17.078 20.2583 16.9449 19.6712 16.3579L19.4764 16.163C19.0907 15.7773 19.0039 15.6984 18.9382 15.6556C18.6067 15.4401 18.1795 15.4401 17.848 15.6556C17.7823 15.6984 17.6955 15.7773 17.3098 16.163C17.3022 16.1707 17.2944 16.1785 17.2864 16.1865C17.1967 16.2766 17.0831 16.3906 16.9466 16.4883C16.4597 16.837 15.7976 16.9499 15.2226 16.7823C15.0622 16.7355 14.9302 16.6719 14.8275 16.6224C14.8193 16.6185 14.8114 16.6146 14.8037 16.6109C13.2537 15.8667 11.802 14.8527 10.5195 13.5702C9.23706 12.2877 8.22297 10.836 7.4788 9.28605C7.47507 9.2783 7.47125 9.27036 7.46733 9.26224C7.41783 9.15954 7.35419 9.02754 7.30744 8.86716C7.13981 8.29213 7.25271 7.63006 7.60141 7.14307C7.69911 7.00664 7.81314 6.89302 7.9032 6.80329C7.91122 6.79529 7.91906 6.78749 7.92667 6.77987C8.31238 6.39416 8.39136 6.30744 8.43409 6.24171C8.64959 5.91026 8.64959 5.48297 8.4341 5.15153C8.39136 5.08579 8.31238 4.99906 7.92667 4.61335L7.7318 4.41848C7.14478 3.83146 7.01174 3.7162 6.90502 3.66222ZM5.09963 1.87752C5.95097 1.44691 6.95637 1.44691 7.80771 1.87752C8.24031 2.09632 8.61586 2.47284 9.0503 2.90839C9.08188 2.94005 9.11377 2.97202 9.14601 3.00427L9.34088 3.19914C9.36213 3.22039 9.38318 3.2414 9.40402 3.2622C9.69068 3.54838 9.93761 3.79489 10.1108 4.06134C10.7573 5.05568 10.7573 6.33755 10.1108 7.33189C9.93761 7.59834 9.69068 7.84485 9.40402 8.13102C9.38318 8.15182 9.36213 8.17284 9.34088 8.19409C9.28328 8.2517 9.25389 8.28124 9.23342 8.30289C9.23304 8.30453 9.23268 8.30633 9.23235 8.30827C9.23198 8.31044 9.23171 8.31245 9.23151 8.31426C9.23481 8.32157 9.23927 8.33124 9.24542 8.34431C9.25503 8.36473 9.26632 8.38827 9.28176 8.42041C9.92958 9.76969 10.8131 11.0353 11.9337 12.156C13.0544 13.2766 14.32 14.1601 15.6693 14.808C15.7014 14.8234 15.725 14.8347 15.7454 14.8443C15.7585 14.8504 15.7681 14.8549 15.7755 14.8582C15.7773 14.858 15.7793 14.8577 15.7814 14.8574C15.7834 14.857 15.7852 14.8567 15.7868 14.8563C15.8085 14.8358 15.838 14.8064 15.8956 14.7488C15.9169 14.7276 15.9379 14.7065 15.9587 14.6857C16.2449 14.399 16.4914 14.1521 16.7578 13.9789C17.7522 13.3324 19.034 13.3324 20.0284 13.9789C20.2948 14.1521 20.5413 14.399 20.8275 14.6857C20.8483 14.7065 20.8693 14.7276 20.8906 14.7488L21.0854 14.9437C21.1177 14.9759 21.1497 15.0078 21.1813 15.0394C21.6169 15.4738 21.9934 15.8494 22.2122 16.282C22.6428 17.1333 22.6428 18.1387 22.2122 18.9901C21.9934 19.4227 21.6169 19.7982 21.1813 20.2327C21.1497 20.2643 21.1177 20.2961 21.0854 20.3284L20.9278 20.486C20.905 20.5089 20.8824 20.5314 20.8601 20.5538C20.3948 21.0195 20.0381 21.3767 19.556 21.6475C19.0061 21.9564 18.2158 22.1619 17.585 22.16C17.0332 22.1584 16.6307 22.044 16.1117 21.8965C16.0931 21.8912 16.0743 21.8859 16.0554 21.8805C12.8621 20.9741 9.84919 19.2638 7.33755 16.7522C4.82592 14.2405 3.11557 11.2276 2.20923 8.03436C2.20386 8.01543 2.19853 7.99666 2.19323 7.97804C2.04573 7.45903 1.93134 7.05656 1.9297 6.50467C1.92782 5.8739 2.13333 5.08366 2.44226 4.53372C2.71306 4.05165 3.07021 3.69486 3.53594 3.2296C3.55828 3.20729 3.58086 3.18474 3.60369 3.1619L3.76132 3.00427C3.79357 2.97202 3.82546 2.94005 3.85704 2.90839C4.29148 2.47284 4.66703 2.09632 5.09963 1.87752Z"
        fill="#303233" />
</svg>
