<svg width="24" height="24" viewBox="0 0 24 24" fill="none" xmlns="http://www.w3.org/2000/svg">
    <g clip-path="url(#clip0_53_7000)">
        <path fill-rule="evenodd" clip-rule="evenodd"
            d="M1.70711 0.292893C1.31658 -0.0976311 0.683417 -0.0976311 0.292893 0.292893C-0.0976311 0.683417 -0.0976311 1.31658 0.292893 1.70711L2.92775 4.34196C1.69824 5.76437 1 7.65077 1 9.48C1 11.3254 1.71464 13.0297 2.70703 14.5091C3.70022 15.9897 5.00758 17.2999 6.28889 18.3798C7.57395 19.4629 8.86027 20.3372 9.83637 20.9411C10.3251 21.2435 10.7404 21.4807 11.0442 21.6447C11.1953 21.7263 11.3238 21.7924 11.4229 21.8404C11.4711 21.8637 11.5213 21.8871 11.5681 21.9068C11.5902 21.9161 11.6241 21.9299 11.6632 21.9431C11.6823 21.9496 11.7146 21.9601 11.7544 21.9699C11.7798 21.9762 11.8763 22 12 22C12.1262 22 12.224 21.9754 12.249 21.9691L12.2501 21.9688C12.29 21.9587 12.3223 21.9481 12.3414 21.9416C12.3805 21.9281 12.4146 21.9141 12.4373 21.9045C12.4851 21.8842 12.5372 21.8598 12.588 21.8351C12.6923 21.7844 12.8282 21.7141 12.9886 21.627C13.3111 21.4519 13.7519 21.1985 14.2688 20.8757C15.1246 20.3413 16.2018 19.6088 17.3028 18.7171L22.2929 23.7071C22.6834 24.0976 23.3166 24.0976 23.7071 23.7071C24.0976 23.3166 24.0976 22.6834 23.7071 22.2929L1.70711 0.292893ZM15.8802 17.2945L4.3471 5.76132C3.49516 6.80093 3 8.16831 3 9.48C3 10.8014 3.51314 12.1206 4.36797 13.395C5.222 14.6682 6.38131 15.8421 7.57778 16.8505C8.7705 17.8557 9.97307 18.6738 10.8886 19.2403C11.3457 19.5231 11.727 19.7405 11.9943 19.8848L12 19.8879L12.0344 19.8693C12.3198 19.7143 12.7256 19.4815 13.2095 19.1793C13.9708 18.7039 14.9141 18.064 15.8802 17.2945Z"
            fill="#303233" />
        <path
            d="M12.7612 5.57222C13.4035 4.81824 14.4699 4 16.1111 4C18.9244 4 21 6.73389 21 9.48C21 10.9599 20.3558 12.4361 19.3158 13.8436C18.9876 14.2878 19.0816 14.9139 19.5257 15.2422C19.9699 15.5704 20.5961 15.4764 20.9243 15.0322C22.1067 13.432 23 11.5439 23 9.48C23 5.97111 20.3423 2 16.1111 2C14.2842 2 12.9341 2.71041 12.0002 3.51067C11.2469 2.8649 10.2198 2.27557 8.88144 2.07338C8.33536 1.99088 7.82579 2.36669 7.74329 2.91278C7.66079 3.45887 8.0366 3.96844 8.58269 4.05094C9.8285 4.23915 10.6876 4.92516 11.2388 5.57222C11.4288 5.79526 11.707 5.92375 12 5.92375C12.293 5.92375 12.5712 5.79526 12.7612 5.57222Z"
            fill="#303233" />
    </g>
    <defs>
        <clipPath id="clip0_53_7000">
            <rect width="24" height="24" fill="white" />
        </clipPath>
    </defs>
</svg>
