<svg width="24" height="24" viewBox="0 0 24 24" fill="none" xmlns="http://www.w3.org/2000/svg">
    <path fill-rule="evenodd" clip-rule="evenodd"
        d="M4 2C2.34315 2 1 3.34315 1 5V19C1 20.6569 2.34315 22 4 22H20C21.6569 22 23 20.6569 23 19V7C23 5.34315 21.6569 4 20 4H13.8284C13.298 4 12.7893 3.78929 12.4142 3.41421L11.5858 2.58579C11.2107 2.21071 10.702 2 10.1716 2H4ZM12 8C12.5523 8 13 8.44772 13 9V12H16C16.5523 12 17 12.4477 17 13C17 13.5523 16.5523 14 16 14H13V17C13 17.5523 12.5523 18 12 18C11.4477 18 11 17.5523 11 17V14H8C7.44772 14 7 13.5523 7 13C7 12.4477 7.44772 12 8 12H11V9C11 8.44772 11.4477 8 12 8Z"
        fill="#303233" />
</svg>
