<svg width="24" height="24" viewBox="0 0 24 24" fill="none" xmlns="http://www.w3.org/2000/svg">
    <path fill-rule="evenodd" clip-rule="evenodd"
        d="M8.7679 1.25H15.2321C16.0449 1.24999 16.7006 1.24999 17.2315 1.29336C17.7781 1.33803 18.2582 1.43239 18.7025 1.65873C19.4081 2.01825 19.9818 2.59193 20.3413 3.29754C20.5676 3.74175 20.662 4.2219 20.7066 4.76853C20.75 5.29944 20.75 5.95505 20.75 6.76788V10C20.75 10.4142 20.4142 10.75 20 10.75C19.5858 10.75 19.25 10.4142 19.25 10V6.8C19.25 5.94755 19.2494 5.35331 19.2116 4.89068C19.1745 4.4368 19.1054 4.17604 19.0048 3.97852C18.789 3.55516 18.4448 3.21095 18.0215 2.99524C17.824 2.8946 17.5632 2.82547 17.1093 2.78838C16.6467 2.75058 16.0525 2.75 15.2 2.75H8.8C7.94755 2.75 7.35331 2.75058 6.89068 2.78838C6.4368 2.82547 6.17604 2.8946 5.97852 2.99524C5.55516 3.21095 5.21095 3.55516 4.99524 3.97852C4.8946 4.17604 4.82547 4.4368 4.78838 4.89068C4.75058 5.35331 4.75 5.94755 4.75 6.8V17.2C4.75 18.0525 4.75058 18.6467 4.78838 19.1093C4.82547 19.5632 4.8946 19.824 4.99524 20.0215C5.21095 20.4448 5.55516 20.789 5.97852 21.0048C6.17604 21.1054 6.4368 21.1745 6.89068 21.2116C7.35331 21.2494 7.94755 21.25 8.8 21.25H12C12.4142 21.25 12.75 21.5858 12.75 22C12.75 22.4142 12.4142 22.75 12 22.75H8.76788C7.95505 22.75 7.29944 22.75 6.76853 22.7066C6.2219 22.662 5.74175 22.5676 5.29754 22.3413C4.59193 21.9817 4.01825 21.4081 3.65873 20.7025C3.43239 20.2582 3.33803 19.7781 3.29336 19.2315C3.24999 18.7006 3.24999 18.0449 3.25 17.2321V6.7679C3.24999 5.95506 3.24999 5.29944 3.29336 4.76853C3.33803 4.2219 3.43239 3.74175 3.65873 3.29754C4.01825 2.59193 4.59193 2.01825 5.29754 1.65873C5.74175 1.43239 6.2219 1.33803 6.76853 1.29336C7.29944 1.24999 7.95506 1.24999 8.7679 1.25Z"
        fill="#303233" />
    <path fill-rule="evenodd" clip-rule="evenodd"
        d="M19 13.25C16.3766 13.25 14.25 15.3766 14.25 18C14.25 20.6234 16.3766 22.75 19 22.75C21.6234 22.75 23.75 20.6234 23.75 18C23.75 15.3766 21.6234 13.25 19 13.25ZM15.75 18C15.75 16.2051 17.2051 14.75 19 14.75C19.6258 14.75 20.2102 14.9269 20.7061 15.2333L16.2333 19.7061C15.9269 19.2102 15.75 18.6258 15.75 18ZM17.294 20.7667C17.7898 21.0732 18.3743 21.25 19 21.25C20.7949 21.25 22.25 19.7949 22.25 18C22.25 17.3743 22.0732 16.7898 21.7667 16.294L17.294 20.7667Z"
        fill="#303233" />
</svg>
