<svg width="16" height="16" viewBox="0 0 16 16" fill="none" xmlns="http://www.w3.org/2000/svg">
    <path fill-rule="evenodd" clip-rule="evenodd"
        d="M9.5 4C9.5 2.89543 10.3954 2 11.5 2C12.6046 2 13.5 2.89543 13.5 4C13.5 5.10457 12.6046 6 11.5 6C10.9104 6 10.3805 5.74491 10.0144 5.33909L6.38076 7.23492C6.45819 7.47605 6.5 7.73314 6.5 8C6.5 8.23663 6.46713 8.46557 6.40569 8.68252L9.56826 10.2427C10.1133 9.48982 10.9994 9 12 9C13.6569 9 15 10.3431 15 12C15 13.6569 13.6569 15 12 15C10.3431 15 9 13.6569 9 12C9 11.7008 9.04379 11.4119 9.1253 11.1393L5.94528 9.57045C5.48697 10.1374 4.78583 10.5 4 10.5C2.61929 10.5 1.5 9.38071 1.5 8C1.5 6.61929 2.61929 5.5 4 5.5C4.75472 5.5 5.43133 5.83443 5.88972 6.36319L9.55146 4.45272C9.51779 4.30725 9.5 4.1557 9.5 4ZM11.5 3C10.9477 3 10.5 3.44772 10.5 4C10.5 4.55228 10.9477 5 11.5 5C12.0523 5 12.5 4.55228 12.5 4C12.5 3.44772 12.0523 3 11.5 3ZM4 6.5C3.17157 6.5 2.5 7.17157 2.5 8C2.5 8.82843 3.17157 9.5 4 9.5C4.82843 9.5 5.5 8.82843 5.5 8C5.5 7.17157 4.82843 6.5 4 6.5ZM10 12C10 10.8954 10.8954 10 12 10C13.1046 10 14 10.8954 14 12C14 13.1046 13.1046 14 12 14C10.8954 14 10 13.1046 10 12Z"
        fill="#303233" />
</svg>
