<svg width="16" height="16" viewBox="0 0 16 16" fill="none" xmlns="http://www.w3.org/2000/svg">
    <g clip-path="url(#clip0_53_6833)">
        <path fill-rule="evenodd" clip-rule="evenodd"
            d="M3.75 6C3.75 4.75736 4.75736 3.75 6 3.75C7.24264 3.75 8.25 4.75736 8.25 6C8.25 7.24264 7.24264 8.25 6 8.25C4.75736 8.25 3.75 7.24264 3.75 6ZM6 5.25C5.58579 5.25 5.25 5.58579 5.25 6C5.25 6.41421 5.58579 6.75 6 6.75C6.41421 6.75 6.75 6.41421 6.75 6C6.75 5.58579 6.41421 5.25 6 5.25Z"
            fill="#303233" />
        <path fill-rule="evenodd" clip-rule="evenodd"
            d="M0.75 3.25C0.75 1.86929 1.86929 0.75 3.25 0.75H12.75C14.1307 0.75 15.25 1.86929 15.25 3.25V12.75C15.25 14.1307 14.1307 15.25 12.75 15.25H3.25C1.86929 15.25 0.75 14.1307 0.75 12.75V3.25ZM3.25 2.25C2.69772 2.25 2.25 2.69772 2.25 3.25V12.75C2.25 13.0111 2.35007 13.2488 2.51394 13.4269L9.61786 6.63175C10.2071 6.06809 11.1388 6.07843 11.7154 6.65504L13.75 8.68967V3.25C13.75 2.69772 13.3023 2.25 12.75 2.25H3.25ZM13.75 10.811L10.6547 7.7157L4.34624 13.75H12.75C13.3023 13.75 13.75 13.3023 13.75 12.75V10.811Z"
            fill="#303233" />
    </g>
    <defs>
        <clipPath id="clip0_53_6833">
            <rect width="16" height="16" fill="white" />
        </clipPath>
    </defs>
</svg>
