<svg width="24" height="24" viewBox="0 0 24 24" fill="none" xmlns="http://www.w3.org/2000/svg">
    <path
        d="M4.57756 2C4.32094 1.99997 4.07102 1.99994 3.85948 2.01751C3.62705 2.03681 3.35295 2.08238 3.07806 2.22518C2.71277 2.41493 2.41493 2.71277 2.22518 3.07806C2.08238 3.35295 2.03681 3.62705 2.01751 3.85948C1.99994 4.07102 1.99997 4.32094 2 4.57756V8.42245C1.99997 8.67907 1.99994 8.92899 2.01751 9.14054C2.03681 9.37296 2.08238 9.64706 2.22518 9.92195C2.41493 10.2872 2.71277 10.5851 3.07806 10.7748C3.35295 10.9176 3.62705 10.9632 3.85948 10.9825C4.07102 11.0001 4.32093 11 4.57755 11H8.42246C8.67908 11 8.92899 11.0001 9.14054 10.9825C9.37296 10.9632 9.64706 10.9176 9.92195 10.7748C10.2872 10.5851 10.5851 10.2872 10.7748 9.92195C10.9176 9.64706 10.9632 9.37296 10.9825 9.14054C11.0001 8.92899 11 8.67908 11 8.42246V4.57755C11 4.32093 11.0001 4.07102 10.9825 3.85948C10.9632 3.62705 10.9176 3.35295 10.7748 3.07806C10.5851 2.71277 10.2872 2.41493 9.92195 2.22518C9.64706 2.08238 9.37296 2.03681 9.14054 2.01751C8.92899 1.99994 8.67907 1.99997 8.42245 2H4.57756Z"
        fill="#303233" />
    <path
        d="M15.5776 2C15.3209 1.99997 15.071 1.99994 14.8595 2.01751C14.6271 2.03681 14.353 2.08238 14.0781 2.22518C13.7128 2.41493 13.4149 2.71277 13.2252 3.07806C13.0824 3.35295 13.0368 3.62705 13.0175 3.85948C12.9999 4.07102 13 4.32094 13 4.57756V8.42245C13 8.67907 12.9999 8.92899 13.0175 9.14054C13.0368 9.37296 13.0824 9.64706 13.2252 9.92195C13.4149 10.2872 13.7128 10.5851 14.0781 10.7748C14.353 10.9176 14.6271 10.9632 14.8595 10.9825C15.071 11.0001 15.3209 11 15.5775 11H19.4225C19.6791 11 19.929 11.0001 20.1405 10.9825C20.373 10.9632 20.6471 10.9176 20.922 10.7748C21.2872 10.5851 21.5851 10.2872 21.7748 9.92195C21.9176 9.64706 21.9632 9.37296 21.9825 9.14054C22.0001 8.92902 22 8.67915 22 8.42256V4.57755C22 4.32096 22.0001 4.07099 21.9825 3.85948C21.9632 3.62705 21.9176 3.35295 21.7748 3.07806C21.5851 2.71277 21.2872 2.41493 20.922 2.22518C20.6471 2.08238 20.373 2.03681 20.1405 2.01751C19.929 1.99994 19.6791 1.99997 19.4224 2H15.5776Z"
        fill="#303233" />
    <path
        d="M4.57756 13H8.42245C8.67907 13 8.92899 12.9999 9.14054 13.0175C9.37296 13.0368 9.64706 13.0824 9.92195 13.2252C10.2872 13.4149 10.5851 13.7128 10.7748 14.0781C10.9176 14.353 10.9632 14.6271 10.9825 14.8595C11.0001 15.071 11 15.3209 11 15.5775V19.4225C11 19.6791 11.0001 19.929 10.9825 20.1405C10.9632 20.373 10.9176 20.6471 10.7748 20.922C10.5851 21.2872 10.2872 21.5851 9.92195 21.7748C9.64706 21.9176 9.37296 21.9632 9.14054 21.9825C8.92901 22.0001 8.67913 22 8.42253 22H4.57755C4.32095 22 4.071 22.0001 3.85948 21.9825C3.62705 21.9632 3.35295 21.9176 3.07806 21.7748C2.71277 21.5851 2.41493 21.2872 2.22518 20.922C2.08238 20.6471 2.03681 20.373 2.01751 20.1405C1.99994 19.929 1.99997 19.6791 2 19.4224V15.5776C1.99997 15.3209 1.99994 15.071 2.01751 14.8595C2.03681 14.6271 2.08238 14.353 2.22518 14.0781C2.41493 13.7128 2.71277 13.4149 3.07806 13.2252C3.35295 13.0824 3.62705 13.0368 3.85948 13.0175C4.07102 12.9999 4.32094 13 4.57756 13Z"
        fill="#303233" />
    <path
        d="M15.5776 13C15.3209 13 15.071 12.9999 14.8595 13.0175C14.6271 13.0368 14.353 13.0824 14.0781 13.2252C13.7128 13.4149 13.4149 13.7128 13.2252 14.0781C13.0824 14.353 13.0368 14.6271 13.0175 14.8595C12.9999 15.071 13 15.3209 13 15.5776V19.4224C13 19.6791 12.9999 19.929 13.0175 20.1405C13.0368 20.373 13.0824 20.6471 13.2252 20.922C13.4149 21.2872 13.7128 21.5851 14.0781 21.7748C14.353 21.9176 14.6271 21.9632 14.8595 21.9825C15.071 22.0001 15.3209 22 15.5775 22H19.4225C19.6791 22 19.929 22.0001 20.1405 21.9825C20.373 21.9632 20.6471 21.9176 20.922 21.7748C21.2872 21.5851 21.5851 21.2872 21.7748 20.922C21.9176 20.6471 21.9632 20.373 21.9825 20.1405C22.0001 19.929 22 19.6791 22 19.4225V15.5775C22 15.3209 22.0001 15.071 21.9825 14.8595C21.9632 14.6271 21.9176 14.353 21.7748 14.0781C21.5851 13.7128 21.2872 13.4149 20.922 13.2252C20.6471 13.0824 20.373 13.0368 20.1405 13.0175C19.929 12.9999 19.6791 13 19.4224 13H15.5776Z"
        fill="#303233" />
</svg>
