<svg width="16" height="16" viewBox="0 0 16 16" fill="none" xmlns="http://www.w3.org/2000/svg">
    <path fill-rule="evenodd" clip-rule="evenodd"
        d="M8 1C4.13401 1 1 4.13401 1 8C1 11.866 4.13401 15 8 15C11.866 15 15 11.866 15 8C15 4.13401 11.866 1 8 1ZM8.5 4.5C8.5 4.22386 8.27614 4 8 4C7.72386 4 7.5 4.22386 7.5 4.5V8C7.5 8.27614 7.72386 8.5 8 8.5C8.27614 8.5 8.5 8.27614 8.5 8V4.5ZM5.59975 6.2C5.76562 5.97922 5.72111 5.66578 5.50034 5.49991C5.27956 5.33404 4.96613 5.37855 4.80025 5.59932C4.29789 6.26796 4 7.09991 4 8C4 10.2091 5.79086 12 8 12C10.2091 12 12 10.2091 12 8C12 7.09991 11.7021 6.26796 11.1997 5.59932C11.0339 5.37855 10.7204 5.33404 10.4997 5.49991C10.2789 5.66578 10.2344 5.97922 10.4003 6.2C10.777 6.7014 11 7.32393 11 8C11 9.65685 9.65685 11 8 11C6.34315 11 5 9.65685 5 8C5 7.32393 5.22304 6.7014 5.59975 6.2Z"
        fill="#303233" />
</svg>
