<svg width="16" height="16" viewBox="0 0 16 16" fill="none" xmlns="http://www.w3.org/2000/svg">
    <path
        d="M8.83398 2C8.83398 1.72386 9.05784 1.5 9.33398 1.5C9.61013 1.5 9.83498 1.72386 9.83498 2C9.83498 2.27614 9.61113 2.5 9.33498 2.5C9.05884 2.5 8.83398 2.27614 8.83398 2Z"
        fill="#303233" />
    <path
        d="M3.25 4C3.25 3.58579 3.58579 3.25 4 3.25C4.41421 3.25 4.751 3.58579 4.751 4C4.751 4.41421 4.41521 4.75 4.001 4.75C3.58679 4.75 3.25 4.41421 3.25 4Z"
        fill="#303233" />
    <path
        d="M6.66602 5.54169C6.0447 5.54169 5.54102 6.04537 5.54102 6.66669C5.54102 7.28801 6.0447 7.79169 6.66602 7.79169C7.28734 7.79169 7.79202 7.28801 7.79202 6.66669C7.79202 6.04537 7.28734 5.54169 6.66602 5.54169Z"
        fill="#303233" />
    <path
        d="M9.33398 5.54169C8.71266 5.54169 8.20898 6.04537 8.20898 6.66669C8.20898 7.28801 8.71266 7.79169 9.33398 7.79169C9.95531 7.79169 10.46 7.28801 10.46 6.66669C10.46 6.04537 9.95531 5.54169 9.33398 5.54169Z"
        fill="#303233" />
    <path
        d="M5.54102 9.33337C5.54102 8.71205 6.0447 8.20837 6.66602 8.20837C7.28734 8.20837 7.79202 8.71205 7.79202 9.33337C7.79202 9.95469 7.28834 10.4584 6.66702 10.4584C6.0457 10.4584 5.54102 9.95469 5.54102 9.33337Z"
        fill="#303233" />
    <path
        d="M4 5.91669C3.58579 5.91669 3.25 6.25247 3.25 6.66669C3.25 7.0809 3.58579 7.41669 4 7.41669C4.41421 7.41669 4.751 7.0809 4.751 6.66669C4.751 6.25247 4.41421 5.91669 4 5.91669Z"
        fill="#303233" />
    <path
        d="M3.25 9.33337C3.25 8.91916 3.58579 8.58337 4 8.58337C4.41421 8.58337 4.751 8.91916 4.751 9.33337C4.751 9.74759 4.41521 10.0834 4.001 10.0834C3.58679 10.0834 3.25 9.74759 3.25 9.33337Z"
        fill="#303233" />
    <path
        d="M12 5.91669C11.5858 5.91669 11.25 6.25247 11.25 6.66669C11.25 7.0809 11.5858 7.41669 12 7.41669H12.001C12.4152 7.41669 12.751 7.0809 12.751 6.66669C12.751 6.25247 12.4152 5.91669 12.001 5.91669H12Z"
        fill="#303233" />
    <path
        d="M12 3.25C11.5858 3.25 11.25 3.58579 11.25 4C11.25 4.41421 11.5858 4.75 12 4.75H12.001C12.4152 4.75 12.751 4.41421 12.751 4C12.751 3.58579 12.4152 3.25 12.001 3.25H12Z"
        fill="#303233" />
    <path
        d="M11.25 9.33337C11.25 8.91916 11.5858 8.58337 12 8.58337H12.001C12.4152 8.58337 12.751 8.91916 12.751 9.33337C12.751 9.74759 12.4152 10.0834 12.001 10.0834H12C11.5858 10.0834 11.25 9.74759 11.25 9.33337Z"
        fill="#303233" />
    <path
        d="M4 11.25C3.58579 11.25 3.25 11.5858 3.25 12C3.25 12.4142 3.58579 12.75 4 12.75C4.41421 12.75 4.751 12.4142 4.751 12C4.751 11.5858 4.41421 11.25 4 11.25Z"
        fill="#303233" />
    <path
        d="M8.58398 12C8.58398 11.5858 8.91977 11.25 9.33398 11.25C9.7482 11.25 10.085 11.5858 10.085 12C10.085 12.4142 9.7492 12.75 9.33498 12.75C8.92077 12.75 8.58398 12.4142 8.58398 12Z"
        fill="#303233" />
    <path
        d="M6.66602 11.25C6.2518 11.25 5.91602 11.5858 5.91602 12C5.91602 12.4142 6.2518 12.75 6.66602 12.75C7.08023 12.75 7.41702 12.4142 7.41702 12C7.41702 11.5858 7.08023 11.25 6.66602 11.25Z"
        fill="#303233" />
    <path
        d="M8.58398 4C8.58398 3.58579 8.91977 3.25 9.33398 3.25C9.7482 3.25 10.085 3.58579 10.085 4C10.085 4.41421 9.7492 4.75 9.33498 4.75C8.92077 4.75 8.58398 4.41421 8.58398 4Z"
        fill="#303233" />
    <path
        d="M6.66602 3.25C6.2518 3.25 5.91602 3.58579 5.91602 4C5.91602 4.41421 6.2518 4.75 6.66602 4.75C7.08023 4.75 7.41702 4.41421 7.41702 4C7.41702 3.58579 7.08023 3.25 6.66602 3.25Z"
        fill="#303233" />
    <path
        d="M6.66602 1.5C6.38987 1.5 6.16602 1.72386 6.16602 2C6.16602 2.27614 6.38987 2.5 6.66602 2.5C6.94216 2.5 7.16702 2.27614 7.16702 2C7.16702 1.72386 6.94216 1.5 6.66602 1.5Z"
        fill="#303233" />
    <path
        d="M1.5 6.66669C1.5 6.39054 1.72386 6.16669 2 6.16669C2.27614 6.16669 2.501 6.39054 2.501 6.66669C2.501 6.94283 2.27714 7.16669 2.001 7.16669C1.72486 7.16669 1.5 6.94283 1.5 6.66669Z"
        fill="#303233" />
    <path
        d="M2 8.83337C1.72386 8.83337 1.5 9.05723 1.5 9.33337C1.5 9.60952 1.72386 9.83337 2 9.83337C2.27614 9.83337 2.501 9.60952 2.501 9.33337C2.501 9.05723 2.27614 8.83337 2 8.83337Z"
        fill="#303233" />
    <path
        d="M13.5 6.66669C13.5 6.39054 13.7239 6.16669 14 6.16669H14.001C14.2771 6.16669 14.501 6.39054 14.501 6.66669C14.501 6.94283 14.2771 7.16669 14.001 7.16669H14C13.7239 7.16669 13.5 6.94283 13.5 6.66669Z"
        fill="#303233" />
    <path
        d="M14 8.83337C13.7239 8.83337 13.5 9.05723 13.5 9.33337C13.5 9.60952 13.7239 9.83337 14 9.83337H14.001C14.2771 9.83337 14.501 9.60952 14.501 9.33337C14.501 9.05723 14.2771 8.83337 14.001 8.83337H14Z"
        fill="#303233" />
    <path
        d="M8.83398 14C8.83398 13.7239 9.05784 13.5 9.33398 13.5C9.61013 13.5 9.83498 13.7239 9.83498 14C9.83498 14.2761 9.61113 14.5 9.33498 14.5C9.05884 14.5 8.83398 14.2761 8.83398 14Z"
        fill="#303233" />
    <path
        d="M6.66602 13.5C6.38987 13.5 6.16602 13.7239 6.16602 14C6.16602 14.2761 6.38987 14.5 6.66602 14.5C6.94216 14.5 7.16702 14.2761 7.16702 14C7.16702 13.7239 6.94216 13.5 6.66602 13.5Z"
        fill="#303233" />
    <path
        d="M11.25 12C11.25 11.5858 11.5858 11.25 12 11.25H12.001C12.4152 11.25 12.751 11.5858 12.751 12C12.751 12.4142 12.4152 12.75 12.001 12.75H12C11.5858 12.75 11.25 12.4142 11.25 12Z"
        fill="#303233" />
    <path
        d="M9.33398 8.20837C8.71266 8.20837 8.20898 8.71205 8.20898 9.33337C8.20898 9.95469 8.71266 10.4584 9.33398 10.4584C9.95531 10.4584 10.46 9.95469 10.46 9.33337C10.46 8.71205 9.95531 8.20837 9.33398 8.20837Z"
        fill="#303233" />
</svg>
