<svg width="16" height="16" viewBox="0 0 16 16" fill="none" xmlns="http://www.w3.org/2000/svg">
    <path
        d="M3 5C3 3.34315 4.34315 2 6 2C7.65685 2 9 3.34315 9 5C9 6.65685 7.65685 8 6 8C4.34315 8 3 6.65685 3 5Z"
        fill="#303233" />
    <path
        d="M0.609607 13.4005C1.11925 10.8899 3.33816 9 5.9996 9C8.66103 9 10.8799 10.8899 11.3896 13.4005C11.4194 13.5476 11.3817 13.7003 11.2867 13.8164C11.1917 13.9326 11.0496 14 10.8996 14H1.09961C0.949566 14 0.80745 13.9326 0.712488 13.8164C0.617526 13.7003 0.579758 13.5476 0.609607 13.4005Z"
        fill="#303233" />
    <path
        d="M12.6464 5.64645L10.6464 7.64645C10.4512 7.84171 10.4512 8.15829 10.6464 8.35355L12.6464 10.3536C12.8417 10.5488 13.1583 10.5488 13.3536 10.3536C13.5488 10.1583 13.5488 9.84171 13.3536 9.64645L12.2071 8.5H15C15.2761 8.5 15.5 8.27614 15.5 8C15.5 7.72386 15.2761 7.5 15 7.5H12.2071L13.3536 6.35355C13.5488 6.15829 13.5488 5.84171 13.3536 5.64645C13.1583 5.45118 12.8417 5.45118 12.6464 5.64645Z"
        fill="#303233" />
</svg>
