<svg width="24" height="24" viewBox="0 0 24 24" fill="none" xmlns="http://www.w3.org/2000/svg">
    <path fill-rule="evenodd" clip-rule="evenodd"
        d="M2 3C2 2.44772 2.44772 2 3 2H21C21.5523 2 22 2.44772 22 3V17C22 19.7614 19.7614 22 17 22H7C4.23858 22 2 19.7614 2 17V3ZM4 4V17C4 18.6569 5.34315 20 7 20H17C18.6569 20 20 18.6569 20 17V4H4Z"
        fill="#303233" />
    <path
        d="M10.9999 12C12.1044 12 12.9999 11.1046 12.9999 10C12.9999 8.89543 12.1044 8 10.9999 8C9.8953 8 8.99986 8.89543 8.99986 10C8.99986 11.1046 9.8953 12 10.9999 12Z"
        fill="#303233" />
    <path
        d="M14.4027 16C14.7033 16 14.9383 15.735 14.8592 15.4449C14.3963 13.7477 12.8438 12.5 10.9999 12.5C9.15592 12.5 7.60337 13.7477 7.14048 15.4449C7.06138 15.735 7.2963 16 7.59702 16H14.4027Z"
        fill="#303233" />
    <path
        d="M12.8805 11.6472C13.2662 11.2073 13.4999 10.631 13.4999 10C13.4999 9.36905 13.2662 8.79269 12.8805 8.35278C12.7633 8.21912 12.8221 8 12.9999 8C14.1044 8 14.9999 8.89543 14.9999 10C14.9999 11.1046 14.1044 12 12.9999 12C12.8221 12 12.7633 11.7809 12.8805 11.6472Z"
        fill="#303233" />
    <path
        d="M15.9157 16C15.6629 16 15.4527 15.8104 15.3994 15.5633C15.1562 14.4365 14.5251 13.5023 13.661 12.8699C13.5204 12.7669 13.5912 12.5396 13.7623 12.5726C15.2611 12.8618 16.4618 13.9877 16.8592 15.4449C16.9384 15.735 16.7034 16 16.4027 16H15.9157Z"
        fill="#303233" />
</svg>
