<svg width="24" height="24" viewBox="0 0 24 24" fill="none" xmlns="http://www.w3.org/2000/svg">
    <path
        d="M9.91603 7.37596C9.68588 7.22254 9.38997 7.20823 9.14611 7.33875C8.90224 7.46926 8.75 7.7234 8.75 8V16C8.75 16.2766 8.90224 16.5307 9.14611 16.6613C9.38997 16.7918 9.68588 16.7775 9.91603 16.624L15.916 12.624C16.1247 12.4849 16.25 12.2508 16.25 12C16.25 11.7492 16.1247 11.5151 15.916 11.376L9.91603 7.37596Z"
        fill="#303233" />
    <path fill-rule="evenodd" clip-rule="evenodd"
        d="M5 2.25C3.48122 2.25 2.25 3.48122 2.25 5V19C2.25 20.5188 3.48122 21.75 5 21.75H19C20.5188 21.75 21.75 20.5188 21.75 19V5C21.75 3.48122 20.5188 2.25 19 2.25H5ZM3.75 5C3.75 4.30964 4.30964 3.75 5 3.75H19C19.6904 3.75 20.25 4.30964 20.25 5V19C20.25 19.6904 19.6904 20.25 19 20.25H5C4.30964 20.25 3.75 19.6904 3.75 19V5Z"
        fill="#303233" />
</svg>
