<svg width="24" height="24" viewBox="0 0 24 24" fill="none" xmlns="http://www.w3.org/2000/svg">
    <path fill-rule="evenodd" clip-rule="evenodd"
        d="M8.2122 2.41292C9.32202 1.66053 10.6398 1.25 12 1.25C13.7902 1.25 15.5071 1.96116 16.773 3.22703C18.0388 4.4929 18.75 6.20979 18.75 8C18.75 10.036 19.0118 11.6144 19.3677 12.8201C19.485 13.2173 19.258 13.6344 18.8608 13.7517C18.4635 13.869 18.0464 13.642 17.9291 13.2448C17.5286 11.8881 17.25 10.1655 17.25 8C17.25 6.60761 16.6969 5.27225 15.7123 4.28769C14.7277 3.30312 13.3924 2.75 12 2.75C10.9421 2.75 9.91717 3.06927 9.05392 3.6545C8.71107 3.88693 8.24471 3.79742 8.01228 3.45457C7.77984 3.11172 7.86935 2.64536 8.2122 2.41292ZM2.46967 2.46967C2.76256 2.17678 3.23744 2.17678 3.53033 2.46967L6.75837 5.69771C6.77916 5.7163 6.79883 5.73599 6.8173 5.75664L21.5303 20.4697C21.8232 20.7626 21.8232 21.2374 21.5303 21.5303C21.2374 21.8232 20.7626 21.8232 20.4697 21.5303L16.6893 17.75H5.36966C4.78769 17.75 4.32757 17.75 3.99726 17.7371C3.83124 17.7307 3.67464 17.7202 3.54072 17.7004C3.44896 17.6868 3.21395 17.6516 3.01495 17.5039C2.9139 17.429 2.76451 17.3075 2.65643 17.1129C2.54834 16.9183 2.52408 16.7273 2.51382 16.6019C2.50091 16.4441 2.53528 16.3119 2.55531 16.2446C2.57892 16.1653 2.60991 16.09 2.63951 16.0248C2.69878 15.8943 2.78088 15.7431 2.87519 15.5795C3.06348 15.2528 3.34415 14.8017 3.70378 14.2238L3.71288 14.2092C4.50611 12.9344 5.25 10.9571 5.25 8C5.25 7.4854 5.30877 6.97681 5.42259 6.48325L2.46967 3.53033C2.17678 3.23744 2.17678 2.76256 2.46967 2.46967ZM6.75329 7.81395C6.7511 7.87584 6.75 7.93786 6.75 8C6.75 11.2233 5.93483 13.4775 4.98645 15.0017C4.64945 15.5432 4.39802 15.9475 4.22435 16.2434C4.50919 16.2499 4.88961 16.25 5.38885 16.25H15.1893L6.75329 7.81395ZM8.79187 20.5037C9.06597 20.1931 9.53992 20.1636 9.85048 20.4377C10.4239 20.9438 11.1752 21.25 12 21.25C12.8248 21.25 13.5761 20.9438 14.1495 20.4377C14.4601 20.1636 14.934 20.1931 15.2081 20.5037C15.4822 20.8143 15.4527 21.2882 15.1421 21.5623C14.3052 22.301 13.2041 22.75 12 22.75C10.7959 22.75 9.69477 22.301 8.85788 21.5623C8.54732 21.2882 8.51777 20.8143 8.79187 20.5037Z"
        fill="#303233" />
</svg>
