<svg width="16" height="16" viewBox="0 0 16 16" fill="none" xmlns="http://www.w3.org/2000/svg">
    <path
        d="M8.35355 1.64645C8.15829 1.45118 7.84171 1.45118 7.64645 1.64645L4.64645 4.64645C4.45118 4.84171 4.45118 5.15829 4.64645 5.35355C4.84171 5.54882 5.15829 5.54882 5.35355 5.35355L8 2.70711L10.6464 5.35355C10.8417 5.54882 11.1583 5.54882 11.3536 5.35355C11.5488 5.15829 11.5488 4.84171 11.3536 4.64645L8.35355 1.64645Z"
        fill="#303233" />
    <path
        d="M5.35355 10.6464C5.15829 10.4512 4.84171 10.4512 4.64645 10.6464C4.45118 10.8417 4.45118 11.1583 4.64645 11.3536L7.64645 14.3536C7.84171 14.5488 8.15829 14.5488 8.35355 14.3536L11.3536 11.3536C11.5488 11.1583 11.5488 10.8417 11.3536 10.6464C11.1583 10.4512 10.8417 10.4512 10.6464 10.6464L8 13.2929L5.35355 10.6464Z"
        fill="#303233" />
</svg>
