<svg width="16" height="16" viewBox="0 0 16 16" fill="none" xmlns="http://www.w3.org/2000/svg">
    <path
        d="M13.75 10.5C13.75 10.0858 13.4142 9.75 13 9.75C12.5858 9.75 12.25 10.0858 12.25 10.5V11.75H11C10.5858 11.75 10.25 12.0858 10.25 12.5C10.25 12.9142 10.5858 13.25 11 13.25H12.25V14.5C12.25 14.9142 12.5858 15.25 13 15.25C13.4142 15.25 13.75 14.9142 13.75 14.5V13.25H15C15.4142 13.25 15.75 12.9142 15.75 12.5C15.75 12.0858 15.4142 11.75 15 11.75H13.75V10.5Z"
        fill="#303233" />
    <path fill-rule="evenodd" clip-rule="evenodd"
        d="M8.16957 3.25H10.8304C11.3646 3.24999 11.8104 3.24998 12.1747 3.27974C12.5546 3.31078 12.9112 3.37789 13.2485 3.54973C13.7659 3.81338 14.1866 4.23408 14.4503 4.75153C14.6221 5.08879 14.6892 5.44545 14.7203 5.82533C14.75 6.18956 14.75 6.6354 14.75 7.16955V8C14.75 8.41422 14.4142 8.75 14 8.75C13.5858 8.75 13.25 8.41422 13.25 8V7.2C13.25 6.62757 13.2494 6.24336 13.2252 5.94748C13.2018 5.66036 13.1599 5.52307 13.1138 5.43251C12.9939 5.19731 12.8027 5.00608 12.5675 4.88624C12.4769 4.8401 12.3396 4.79822 12.0525 4.77476C11.7566 4.75058 11.3724 4.75 10.8 4.75H8.2C7.62757 4.75 7.24336 4.75058 6.94748 4.77476C6.66035 4.79822 6.52307 4.8401 6.43251 4.88624C6.19731 5.00608 6.00608 5.19731 5.88624 5.43251C5.8401 5.52307 5.79822 5.66036 5.77476 5.94748C5.75058 6.24336 5.75 6.62757 5.75 7.2V11.8C5.75 12.3724 5.75058 12.7566 5.77476 13.0525C5.79822 13.3396 5.8401 13.4769 5.88624 13.5675C6.00608 13.8027 6.19731 13.9939 6.43251 14.1138C6.52307 14.1599 6.66035 14.2018 6.94748 14.2252C7.24336 14.2494 7.62757 14.25 8.2 14.25H9C9.41422 14.25 9.75 14.5858 9.75 15C9.75 15.4142 9.41422 15.75 9 15.75H8.16955C7.6354 15.75 7.18956 15.75 6.82533 15.7203C6.44545 15.6892 6.08879 15.6221 5.75153 15.4503C5.23408 15.1866 4.81338 14.7659 4.54973 14.2485C4.37789 13.9112 4.31078 13.5546 4.27974 13.1747C4.24998 12.8104 4.24999 12.3646 4.25 11.8304V7.16957C4.24999 6.63541 4.24998 6.18956 4.27974 5.82533C4.31078 5.44545 4.37789 5.08879 4.54973 4.75153C4.81338 4.23408 5.23408 3.81338 5.75153 3.54973C6.08879 3.37789 6.44545 3.31078 6.82533 3.27974C7.18956 3.24998 7.63541 3.24999 8.16957 3.25Z"
        fill="#303233" />
    <path fill-rule="evenodd" clip-rule="evenodd"
        d="M5.16957 0.25L9 0.250001C10.0188 0.250001 10.9073 0.804437 11.3816 1.62446C11.589 1.983 11.4665 2.4418 11.108 2.64921C10.7494 2.85661 10.2906 2.73409 10.0832 2.37555C9.86597 1.99996 9.46173 1.75 9 1.75H5.2C4.62757 1.75 4.24336 1.75058 3.94748 1.77476C3.66036 1.79822 3.52307 1.8401 3.43251 1.88624C3.19731 2.00608 3.00608 2.19731 2.88624 2.43251C2.8401 2.52307 2.79822 2.66036 2.77476 2.94748C2.75058 3.24336 2.75 3.62757 2.75 4.2V10C2.75 10.4617 2.99996 10.866 3.37555 11.0832C3.73409 11.2906 3.85661 11.7494 3.64921 12.108C3.4418 12.4665 2.983 12.589 2.62446 12.3816C1.80444 11.9073 1.25 11.0188 1.25 10L1.25 4.16957C1.24999 3.63541 1.24998 3.18956 1.27974 2.82533C1.31078 2.44545 1.37789 2.08879 1.54973 1.75153C1.81338 1.23408 2.23408 0.813385 2.75153 0.549733C3.08879 0.377889 3.44545 0.310778 3.82533 0.27974C4.18956 0.249981 4.63541 0.24999 5.16957 0.25Z"
        fill="#303233" />
</svg>
