<svg width="16" height="16" viewBox="0 0 16 16" fill="none" xmlns="http://www.w3.org/2000/svg">
    <g clip-path="url(#clip0_53_4282)">
        <path fill-rule="evenodd" clip-rule="evenodd"
            d="M4.66957 4.75H11.3304C11.8646 4.74999 12.3104 4.74998 12.6747 4.77974C13.0546 4.81078 13.4112 4.87789 13.7485 5.04973C14.2659 5.31338 14.6866 5.73408 14.9503 6.25153C15.1221 6.58879 15.1892 6.94545 15.2203 7.32533C15.25 7.68956 15.25 8.1354 15.25 8.66955V11.3305C15.25 11.8646 15.25 12.3104 15.2203 12.6747C15.1892 13.0546 15.1221 13.4112 14.9503 13.7485C14.6866 14.2659 14.2659 14.6866 13.7485 14.9503C13.4112 15.1221 13.0546 15.1892 12.6747 15.2203C12.3104 15.25 11.8646 15.25 11.3305 15.25H4.66955C4.1354 15.25 3.68956 15.25 3.32533 15.2203C2.94545 15.1892 2.58879 15.1221 2.25153 14.9503C1.73408 14.6866 1.31338 14.2659 1.04973 13.7485C0.877889 13.4112 0.810778 13.0546 0.77974 12.6747C0.749981 12.3104 0.74999 11.8646 0.75 11.3304V8.66957C0.74999 8.13541 0.749981 7.68956 0.77974 7.32533C0.810778 6.94545 0.877889 6.58879 1.04973 6.25153C1.31338 5.73408 1.73408 5.31338 2.25153 5.04973C2.58879 4.87789 2.94545 4.81078 3.32533 4.77974C3.68956 4.74998 4.13541 4.74999 4.66957 4.75Z"
            fill="#303233" />
        <path
            d="M8.33064 0.75H7.66977C7.13563 0.74999 6.68976 0.749982 6.32553 0.779741C5.94565 0.810778 5.58899 0.87789 5.25173 1.04973C4.82093 1.26924 4.4572 1.59759 4.19531 2H11.8051C11.5432 1.59759 11.1795 1.26924 10.7487 1.04973C10.4114 0.87789 10.0548 0.810778 9.67487 0.779741C9.31065 0.749982 8.86478 0.74999 8.33064 0.75Z"
            fill="#303233" />
        <path
            d="M6.16977 2.75H9.83064C10.3648 2.74999 10.8106 2.74998 11.1749 2.77974C11.5548 2.81078 11.9114 2.87789 12.2487 3.04973C12.6795 3.26923 13.0432 3.59759 13.3051 4H2.69531C2.9572 3.59759 3.32093 3.26923 3.75173 3.04973C4.08899 2.87789 4.44565 2.81078 4.82553 2.77974C5.18976 2.74998 5.63562 2.74999 6.16977 2.75Z"
            fill="#303233" />
    </g>
    <defs>
        <clipPath id="clip0_53_4282">
            <rect width="16" height="16" fill="white" />
        </clipPath>
    </defs>
</svg>
