<svg width="24" height="24" viewBox="0 0 24 24" fill="none" xmlns="http://www.w3.org/2000/svg">
    <path
        d="M7.36772 9.86471C6.92134 9.5395 6.82312 8.914 7.14834 8.46762C8.2376 6.97255 10.0052 5.99765 12.0005 5.99765C14.7828 5.99765 17.1229 7.89155 17.8018 10.4605C18.1496 10.3449 18.5484 10.4255 18.8252 10.7023C19.2157 11.0928 19.2157 11.726 18.8252 12.1165L17.6487 13.293C17.4612 13.4805 17.2069 13.5859 16.9416 13.5859C16.6764 13.5859 16.4221 13.4805 16.2345 13.293L15.0581 12.1165C14.6675 11.726 14.6675 11.0928 15.0581 10.7023C15.2302 10.5301 15.4496 10.4339 15.6745 10.4135C15.0609 8.99232 13.6468 7.99765 12.0005 7.99765C10.6715 7.99765 9.49383 8.64471 8.76482 9.64533C8.4396 10.0917 7.8141 10.1899 7.36772 9.86471Z"
        fill="#303233" />
    <path
        d="M5.17571 13.293C4.78518 12.9025 4.78518 12.2693 5.17571 11.8788L6.35218 10.7023C6.53971 10.5148 6.79407 10.4094 7.05928 10.4094C7.3245 10.4094 7.57885 10.5148 7.76639 10.7023L8.94286 11.8788C9.33339 12.2693 9.33339 12.9025 8.94286 13.293C8.77068 13.4652 8.55133 13.5614 8.32641 13.5818C8.94001 15.003 10.3541 15.9977 12.0005 15.9977C13.3294 15.9977 14.5071 15.3506 15.2361 14.35C15.5613 13.9036 16.1868 13.8054 16.6332 14.1306C17.0796 14.4558 17.1778 15.0813 16.8526 15.5277C15.7633 17.0228 13.9957 17.9977 12.0005 17.9977C9.21808 17.9977 6.87805 16.1038 6.19916 13.5348C5.85133 13.6504 5.45255 13.5698 5.17571 13.293Z"
        fill="#303233" />
    <path fill-rule="evenodd" clip-rule="evenodd"
        d="M17.2413 2H6.7587C5.95375 1.99999 5.28936 1.99998 4.74818 2.0442C4.18608 2.09012 3.66938 2.18868 3.18404 2.43598C2.43139 2.81947 1.81947 3.43139 1.43598 4.18404C1.18869 4.66938 1.09012 5.18608 1.0442 5.74818C0.999979 6.28936 0.999989 6.95372 1 7.75867V16.2413C0.999989 17.0463 0.999979 17.7106 1.0442 18.2518C1.09012 18.8139 1.18869 19.3306 1.43598 19.816C1.81947 20.5686 2.43139 21.1805 3.18404 21.564C3.66938 21.8113 4.18608 21.9099 4.74818 21.9558C5.28937 22 5.95372 22 6.75868 22H17.2413C18.0463 22 18.7106 22 19.2518 21.9558C19.8139 21.9099 20.3306 21.8113 20.816 21.564C21.5686 21.1805 22.1805 20.5686 22.564 19.816C22.8113 19.3306 22.9099 18.8139 22.9558 18.2518C23 17.7106 23 17.0463 23 16.2413V7.75868C23 6.95372 23 6.28937 22.9558 5.74818C22.9099 5.18608 22.8113 4.66938 22.564 4.18404C22.1805 3.43139 21.5686 2.81947 20.816 2.43598C20.3306 2.18869 19.8139 2.09012 19.2518 2.0442C18.7106 1.99998 18.0462 1.99999 17.2413 2ZM4.09202 4.21799C4.24842 4.1383 4.47262 4.07337 4.91104 4.03755C5.36113 4.00078 5.94342 4 6.8 4H17.2C18.0566 4 18.6389 4.00078 19.089 4.03755C19.5274 4.07337 19.7516 4.1383 19.908 4.21799C20.2843 4.40974 20.5903 4.7157 20.782 5.09202C20.8617 5.24842 20.9266 5.47263 20.9624 5.91104C20.9992 6.36113 21 6.94342 21 7.8V16.2C21 17.0566 20.9992 17.6389 20.9624 18.089C20.9266 18.5274 20.8617 18.7516 20.782 18.908C20.5903 19.2843 20.2843 19.5903 19.908 19.782C19.7516 19.8617 19.5274 19.9266 19.089 19.9624C18.6389 19.9992 18.0566 20 17.2 20H6.8C5.94342 20 5.36113 19.9992 4.91104 19.9624C4.47263 19.9266 4.24842 19.8617 4.09202 19.782C3.7157 19.5903 3.40974 19.2843 3.21799 18.908C3.1383 18.7516 3.07337 18.5274 3.03755 18.089C3.00078 17.6389 3 17.0566 3 16.2V7.8C3 6.94342 3.00078 6.36113 3.03755 5.91104C3.07337 5.47262 3.1383 5.24842 3.21799 5.09202C3.40974 4.7157 3.7157 4.40974 4.09202 4.21799Z"
        fill="#303233" />
</svg>
