<svg width="24" height="24" viewBox="0 0 24 24" fill="none" xmlns="http://www.w3.org/2000/svg">
    <path fill-rule="evenodd" clip-rule="evenodd"
        d="M12 3C9.23858 3 7 5.23858 7 8C7 10.7614 9.23858 13 12 13C14.7614 13 17 10.7614 17 8C17 5.23858 14.7614 3 12 3ZM9 8C9 6.34315 10.3431 5 12 5C13.6569 5 15 6.34315 15 8C15 9.65685 13.6569 11 12 11C10.3431 11 9 9.65685 9 8Z"
        fill="#303233" />
    <path
        d="M5.22063 21.2493C5.99776 18.2299 8.73981 16 12.0002 16C15.2605 16 18.0026 18.2299 18.7797 21.2493C18.9173 21.7841 19.4625 22.1061 19.9974 21.9684C20.5322 21.8308 20.8542 21.2856 20.7166 20.7507C19.7175 16.8692 16.1952 14 12.0002 14C7.80515 14 4.2828 16.8692 3.28376 20.7507C3.1461 21.2856 3.46808 21.8308 4.00294 21.9684C4.53779 22.1061 5.08297 21.7841 5.22063 21.2493Z"
        fill="#303233" />
</svg>
