<svg width="16" height="16" viewBox="0 0 16 16" fill="none" xmlns="http://www.w3.org/2000/svg">
    <g clip-path="url(#clip0_53_3314)">
        <path fill-rule="evenodd" clip-rule="evenodd"
            d="M7.35913 0.807079C7.11874 0.749366 6.87185 0.749649 6.60762 0.749952L3.57752 0.749995C3.23306 0.74998 2.93051 0.749967 2.68024 0.770416C2.41441 0.792134 2.14223 0.840607 1.87812 0.975173C1.48939 1.17324 1.17334 1.4893 0.975265 1.87803C0.840699 2.14213 0.792226 2.41432 0.770508 2.68014C0.750059 2.93042 0.750072 3.23296 0.750087 3.57742L0.750043 6.60753C0.749741 6.87176 0.749458 7.11865 0.80717 7.35904C0.85778 7.56984 0.941254 7.77137 1.05453 7.95621C1.1837 8.167 1.35848 8.34138 1.54553 8.52801L6.65376 13.6362C7.02633 14.0088 7.33773 14.3202 7.613 14.5539C7.90024 14.7977 8.19711 15.0007 8.55413 15.1167C9.10122 15.2944 9.69054 15.2944 10.2376 15.1167C10.5946 15.0007 10.8915 14.7977 11.1788 14.5539C11.454 14.3202 11.7654 14.0087 12.138 13.6361L13.6363 12.1379C14.0088 11.7653 14.3203 11.4539 14.5539 11.1787C14.7978 10.8914 15.0008 10.5946 15.1168 10.2375C15.2945 9.69045 15.2945 9.10113 15.1168 8.55404C15.0008 8.19702 14.7978 7.90015 14.5539 7.61291C14.3203 7.33764 14.0089 7.02625 13.6363 6.65368L8.5281 1.54544C8.34147 1.35839 8.16709 1.18361 7.9563 1.05444C7.77146 0.941162 7.56993 0.857688 7.35913 0.807079ZM5.5 4.25C4.80964 4.25 4.25 4.80964 4.25 5.5C4.25 6.19035 4.80964 6.75 5.5 6.75C6.19036 6.75 6.75 6.19036 6.75 5.5C6.75 4.80964 6.19036 4.25 5.5 4.25Z"
            fill="#303233" />
    </g>
    <defs>
        <clipPath id="clip0_53_3314">
            <rect width="16" height="16" fill="white" />
        </clipPath>
    </defs>
</svg>
