<svg width="24" height="24" viewBox="0 0 24 24" fill="none" xmlns="http://www.w3.org/2000/svg">
    <path
        d="M5.25 11C5.25 7.82436 7.82436 5.25 11 5.25C14.1756 5.25 16.75 7.82436 16.75 11C16.75 14.1756 14.1756 16.75 11 16.75C7.82436 16.75 5.25 14.1756 5.25 11Z"
        fill="#303233" />
    <path fill-rule="evenodd" clip-rule="evenodd"
        d="M17.6951 16.634C18.9774 15.1118 19.75 13.1461 19.75 11C19.75 6.16751 15.8325 2.25 11 2.25C6.16751 2.25 2.25 6.16751 2.25 11C2.25 15.8325 6.16751 19.75 11 19.75C13.1463 19.75 15.1122 18.9772 16.6344 17.6947L20.4701 21.5303C20.763 21.8232 21.2378 21.8232 21.5307 21.5303C21.8236 21.2374 21.8236 20.7626 21.5307 20.4697L17.6951 16.634ZM11 3.75C6.99594 3.75 3.75 6.99594 3.75 11C3.75 15.0041 6.99594 18.25 11 18.25C12.9613 18.25 14.7407 17.4712 16.0458 16.206C16.068 16.1758 16.0928 16.147 16.1201 16.1197C16.1473 16.0924 16.1762 16.0676 16.2064 16.0454C17.4714 14.7403 18.25 12.9611 18.25 11C18.25 6.99594 15.0041 3.75 11 3.75Z"
        fill="#303233" />
</svg>
