<svg width="16" height="16" viewBox="0 0 16 16" fill="none" xmlns="http://www.w3.org/2000/svg">
    <path fill-rule="evenodd" clip-rule="evenodd"
        d="M7 3.5C5.067 3.5 3.5 5.067 3.5 7C3.5 8.933 5.067 10.5 7 10.5C8.933 10.5 10.5 8.933 10.5 7C10.5 5.067 8.933 3.5 7 3.5ZM7 5C7.27614 5 7.5 5.22386 7.5 5.5V6.5H8.5C8.77614 6.5 9 6.72386 9 7C9 7.27614 8.77614 7.5 8.5 7.5H7.5V8.5C7.5 8.77614 7.27614 9 7 9C6.72386 9 6.5 8.77614 6.5 8.5V7.5H5.5C5.22386 7.5 5 7.27614 5 7C5 6.72386 5.22386 6.5 5.5 6.5H6.5V5.5C6.5 5.22386 6.72386 5 7 5Z"
        fill="#303233" />
    <path fill-rule="evenodd" clip-rule="evenodd"
        d="M7 1.5C3.96243 1.5 1.5 3.96243 1.5 7C1.5 10.0376 3.96243 12.5 7 12.5C8.36411 12.5 9.61223 12.0034 10.5734 11.1811L13.6412 14.3479C13.8334 14.5462 14.1499 14.5513 14.3483 14.3591C14.5466 14.167 14.5516 13.8504 14.3595 13.6521L11.2717 10.4647C12.0397 9.51899 12.5 8.31325 12.5 7C12.5 3.96243 10.0376 1.5 7 1.5ZM2.5 7C2.5 4.51472 4.51472 2.5 7 2.5C9.48528 2.5 11.5 4.51472 11.5 7C11.5 9.48528 9.48528 11.5 7 11.5C4.51472 11.5 2.5 9.48528 2.5 7Z"
        fill="#303233" />
</svg>
