<svg width="16" height="16" viewBox="0 0 16 16" fill="none" xmlns="http://www.w3.org/2000/svg">
    <path
        d="M4.72777 6.54968C4.39298 6.30576 4.31932 5.83664 4.56323 5.50185C5.33472 4.44294 6.58681 3.75232 8.00013 3.75232C9.95305 3.75232 11.5983 5.06954 12.096 6.864C12.3442 6.80053 12.6185 6.86594 12.8128 7.06023C13.1057 7.35312 13.1057 7.82799 12.8128 8.12089L11.9893 8.94441C11.6964 9.23731 11.2215 9.23731 10.9286 8.94441L10.1051 8.12089C9.8122 7.82799 9.8122 7.35312 10.1051 7.06023C10.2167 6.94859 10.3548 6.8795 10.4992 6.85297C10.0639 5.90816 9.1086 5.25232 8.00013 5.25232C7.08653 5.25232 6.27689 5.69707 5.77559 6.38514C5.53168 6.71992 5.06255 6.79359 4.72777 6.54968Z"
        fill="#303233" />
    <path
        d="M3.18744 8.94441C2.89455 8.65152 2.89455 8.17665 3.18744 7.88375L4.01097 7.06023C4.30387 6.76733 4.77874 6.76733 5.07163 7.06023L5.89516 7.88375C6.18806 8.17665 6.18806 8.65152 5.89516 8.94441C5.78353 9.05605 5.64545 9.12514 5.5011 9.15167C5.93635 10.0965 6.89165 10.7523 8.00013 10.7523C8.91372 10.7523 9.72336 10.3076 10.2247 9.6195C10.4686 9.28472 10.9377 9.21105 11.2725 9.45496C11.6073 9.69888 11.6809 10.168 11.437 10.5028C10.6655 11.5617 9.41344 12.2523 8.00013 12.2523C6.0472 12.2523 4.40193 10.9351 3.90429 9.14064C3.65609 9.20411 3.38173 9.1387 3.18744 8.94441Z"
        fill="#303233" />
    <path fill-rule="evenodd" clip-rule="evenodd"
        d="M13.7485 1.54973C13.4112 1.37789 13.0546 1.31078 12.6747 1.27974C12.3104 1.24998 11.8646 1.24999 11.3305 1.25L4.66957 1.25C4.13541 1.24999 3.68957 1.24998 3.32533 1.27974C2.94545 1.31078 2.58879 1.37789 2.25153 1.54974C1.73408 1.81339 1.31339 2.23408 1.04973 2.75153C0.87789 3.08879 0.810779 3.44545 0.779741 3.82533C0.749983 4.18956 0.749991 4.63541 0.75 5.16954V10.8305C0.749991 11.3646 0.749983 11.8105 0.779741 12.1747C0.810779 12.5546 0.87789 12.9112 1.04973 13.2485C1.31339 13.7659 1.73408 14.1866 2.25153 14.4503C2.58879 14.6221 2.94545 14.6892 3.32533 14.7203C3.68955 14.75 4.13538 14.75 4.66951 14.75L11.3305 14.75C11.8646 14.75 12.3105 14.75 12.6747 14.7203C13.0546 14.6892 13.4112 14.6221 13.7485 14.4503C14.2659 14.1866 14.6866 13.7659 14.9503 13.2485C15.1221 12.9112 15.1892 12.5546 15.2203 12.1747C15.25 11.8105 15.25 11.3646 15.25 10.8305V5.16955C15.25 4.63542 15.25 4.18955 15.2203 3.82533C15.1892 3.44545 15.1221 3.08879 14.9503 2.75153C14.6866 2.23408 14.2659 1.81339 13.7485 1.54973ZM11.3 2.75C11.8724 2.75 12.2566 2.75059 12.5525 2.77476C12.8396 2.79822 12.9769 2.8401 13.0675 2.88624C13.3027 3.00609 13.4939 3.19731 13.6138 3.43251C13.6599 3.52307 13.7018 3.66036 13.7252 3.94748C13.7494 4.24336 13.75 4.62757 13.75 5.2V10.8C13.75 11.3724 13.7494 11.7566 13.7252 12.0525C13.7018 12.3396 13.6599 12.4769 13.6138 12.5675C13.4939 12.8027 13.3027 12.9939 13.0675 13.1138C12.9769 13.1599 12.8396 13.2018 12.5525 13.2252C12.2566 13.2494 11.8724 13.25 11.3 13.25L4.7 13.25C4.12757 13.25 3.74336 13.2494 3.44748 13.2252C3.16036 13.2018 3.02307 13.1599 2.93251 13.1138C2.69731 12.9939 2.50609 12.8027 2.38624 12.5675C2.3401 12.4769 2.29822 12.3396 2.27476 12.0525C2.25059 11.7566 2.25 11.3724 2.25 10.8V5.2C2.25 4.62758 2.25059 4.24336 2.27476 3.94748C2.29822 3.66036 2.3401 3.52308 2.38624 3.43252C2.50609 3.19731 2.69731 3.00609 2.93251 2.88625C3.02307 2.8401 3.16036 2.79822 3.44748 2.77476C3.74336 2.75059 4.12757 2.75 4.7 2.75L11.3 2.75Z"
        fill="#303233" />
</svg>
