<svg width="24" height="24" viewBox="0 0 24 24" fill="none" xmlns="http://www.w3.org/2000/svg">
    <path fill-rule="evenodd" clip-rule="evenodd"
        d="M12.75 8.75H14C14.9665 8.75 15.75 7.9665 15.75 7V3C15.75 2.0335 14.9665 1.25 14 1.25H10C9.0335 1.25 8.25 2.0335 8.25 3V7C8.25 7.9665 9.0335 8.75 10 8.75H11.25V11.25H2C1.58579 11.25 1.25 11.5858 1.25 12C1.25 12.4142 1.58579 12.75 2 12.75H5.25V15.25H4C3.0335 15.25 2.25 16.0335 2.25 17V21C2.25 21.9665 3.0335 22.75 4 22.75H8C8.9665 22.75 9.75 21.9665 9.75 21V17C9.75 16.0335 8.9665 15.25 8 15.25H6.75V12.75H17.25V15.25H16C15.0335 15.25 14.25 16.0335 14.25 17V21C14.25 21.9665 15.0335 22.75 16 22.75H20C20.9665 22.75 21.75 21.9665 21.75 21V17C21.75 16.0335 20.9665 15.25 20 15.25H18.75V12.75H22C22.4142 12.75 22.75 12.4142 22.75 12C22.75 11.5858 22.4142 11.25 22 11.25H12.75V8.75Z"
        fill="#303233" />
</svg>
