<svg width="16" height="16" viewBox="0 0 16 16" fill="none" xmlns="http://www.w3.org/2000/svg">
    <path
        d="M1 8C1 4.13401 4.13401 1 8 1C11.866 1 15 4.13401 15 8V10.8889C15 10.9113 14.9985 10.9335 14.9957 10.9551C14.8882 13.4833 12.8046 15.5 10.25 15.5H7.625C7.14175 15.5 6.75 15.1082 6.75 14.625C6.75 14.1418 7.14175 13.75 7.625 13.75H8.375C8.81581 13.75 9.18048 14.076 9.24114 14.5H10.25C11.507 14.5 12.6195 13.8815 13.2999 12.9323C13.1239 12.9765 12.9397 13 12.75 13C11.5074 13 10.5 11.9926 10.5 10.75V9.25C10.5 8.00736 11.5074 7 12.75 7C13.1979 7 13.6153 7.13089 13.9659 7.35651C13.6448 4.34539 11.0963 2 8 2C4.90368 2 2.35516 4.34539 2.0341 7.3565C2.38472 7.13089 2.80208 7 3.25 7C4.49264 7 5.5 8.00736 5.5 9.25V10.75C5.5 11.9926 4.49264 13 3.25 13C2.09553 13 1.14414 12.1305 1.01494 11.0107C1.00518 10.9717 1 10.9309 1 10.8889V8Z"
        fill="#303233" />
</svg>
