<svg width="16" height="16" viewBox="0 0 16 16" fill="none" xmlns="http://www.w3.org/2000/svg">
    <path
        d="M7.46965 6.28033C7.76254 6.57322 8.23741 6.57322 8.53031 6.28033L10.5303 4.28033C10.7448 4.06583 10.809 3.74324 10.6929 3.46299C10.5768 3.18273 10.3033 3 9.99998 3L5.99998 3C5.69663 3 5.42315 3.18273 5.30707 3.46299C5.19098 3.74324 5.25515 4.06583 5.46965 4.28033L7.46965 6.28033Z"
        fill="#303233" />
    <path fill-rule="evenodd" clip-rule="evenodd"
        d="M5.484 8.205L5.68 7.999C5.627 7.942 5.554 7.865 5.484 7.795L3.579 5.89C3.291 5.602 3.155 5.451 3.052 5.283C2.94 5.099 2.857 4.899 2.807 4.69C2.761 4.499 2.75 4.296 2.75 3.888V2.54C2.75 1.992 2.796 1.724 2.903 1.514C3.037 1.251 3.251 1.037 3.514 0.903C3.51413 0.902867 3.51454 0.902465 3.515 0.902C3.724 0.796 3.992 0.75 4.54 0.75H11.46C12.008 0.75 12.276 0.796 12.486 0.902C12.749 1.036 12.963 1.251 13.097 1.514C13.203 1.724 13.25 1.992 13.25 2.54V3.888C13.25 4.296 13.239 4.498 13.193 4.69C13.143 4.899 13.06 5.099 12.948 5.283C12.845 5.451 12.709 5.602 12.421 5.89L10.516 7.795L10.32 8.001C10.373 8.058 10.446 8.135 10.516 8.205L12.421 10.11C12.709 10.398 12.845 10.549 12.948 10.717C13.06 10.901 13.143 11.101 13.193 11.31C13.239 11.502 13.25 11.704 13.25 12.112V13.46C13.25 14.008 13.204 14.276 13.098 14.486C12.964 14.749 12.749 14.963 12.486 15.097C12.276 15.203 12.008 15.25 11.46 15.25H4.54C3.992 15.25 3.724 15.204 3.515 15.098L3.514 15.097C3.251 14.963 3.037 14.749 2.903 14.486C2.796 14.276 2.75 14.008 2.75 13.46V12.112C2.75 11.704 2.761 11.501 2.807 11.31C2.857 11.101 2.94 10.901 3.052 10.717C3.155 10.549 3.291 10.398 3.579 10.11L5.484 8.205ZM11.75 2.54C11.75 2.441 11.747 2.334 11.744 2.256C11.666 2.253 11.559 2.25 11.46 2.25H4.54C4.441 2.25 4.334 2.253 4.256 2.256C4.253 2.334 4.25 2.441 4.25 2.54V3.888C4.25 3.94627 4.24929 3.99716 4.24865 4.04244C4.2468 4.17507 4.24562 4.25948 4.265 4.34C4.279 4.396 4.301 4.45 4.331 4.499C4.37437 4.5693 4.43509 4.62841 4.5307 4.7215C4.56294 4.7529 4.59915 4.78815 4.64 4.829L6.545 6.734C6.932 7.122 7.09 7.344 7.162 7.567C7.254 7.849 7.254 8.151 7.162 8.433C7.09 8.656 6.932 8.878 6.545 9.266L4.64 11.171C4.59915 11.2118 4.56294 11.2471 4.5307 11.2785C4.43509 11.3716 4.37437 11.4307 4.331 11.501C4.301 11.55 4.279 11.604 4.265 11.66C4.24562 11.7405 4.2468 11.8249 4.24865 11.9576C4.24929 12.0028 4.25 12.0537 4.25 12.112V13.46C4.25 13.559 4.253 13.666 4.256 13.744C4.334 13.747 4.441 13.75 4.54 13.75H11.46C11.559 13.75 11.666 13.747 11.744 13.744C11.747 13.666 11.75 13.559 11.75 13.46V12.112C11.75 12.0537 11.7507 12.0028 11.7513 11.9576C11.7532 11.8249 11.7544 11.7405 11.735 11.66C11.721 11.604 11.699 11.55 11.669 11.501C11.6256 11.4307 11.5649 11.3716 11.4693 11.2785C11.4371 11.2471 11.4009 11.2118 11.36 11.171L9.455 9.266C9.068 8.878 8.91 8.656 8.838 8.433C8.746 8.151 8.746 7.849 8.838 7.567C8.91 7.344 9.068 7.122 9.455 6.734L11.36 4.829C11.4009 4.78815 11.4371 4.75289 11.4693 4.7215C11.5649 4.62841 11.6256 4.5693 11.669 4.499C11.699 4.45 11.721 4.396 11.735 4.34C11.7544 4.25948 11.7532 4.17507 11.7513 4.04244C11.7507 3.99716 11.75 3.94627 11.75 3.888V2.54Z"
        fill="#303233" />
</svg>
