<svg width="24" height="24" viewBox="0 0 24 24" fill="none" xmlns="http://www.w3.org/2000/svg">
    <path fill-rule="evenodd" clip-rule="evenodd"
        d="M12 0C10.9391 0 9.92172 0.421427 9.17157 1.17157C8.42143 1.92172 8 2.93913 8 4V12C8 13.0609 8.42143 14.0783 9.17157 14.8284C9.92172 15.5786 10.9391 16 12 16C13.0609 16 14.0783 15.5786 14.8284 14.8284C15.5786 14.0783 16 13.0609 16 12V4C16 2.93913 15.5786 1.92172 14.8284 1.17157C14.0783 0.421427 13.0609 0 12 0ZM10.5858 2.58579C10.9609 2.21071 11.4696 2 12 2C12.5304 2 13.0391 2.21071 13.4142 2.58579C13.7893 2.96086 14 3.46957 14 4V12C14 12.5304 13.7893 13.0391 13.4142 13.4142C13.0391 13.7893 12.5304 14 12 14C11.4696 14 10.9609 13.7893 10.5858 13.4142C10.2107 13.0391 10 12.5304 10 12V4C10 3.46957 10.2107 2.96086 10.5858 2.58579Z"
        fill="#303233" />
    <path
        d="M6 10C6 9.44771 5.55228 9 5 9C4.44772 9 4 9.44771 4 10V12C4 14.1217 4.84285 16.1566 6.34315 17.6569C7.60577 18.9195 9.247 19.7165 11 19.9373V22H8C7.44772 22 7 22.4477 7 23C7 23.5523 7.44772 24 8 24H16C16.5523 24 17 23.5523 17 23C17 22.4477 16.5523 22 16 22H13V19.9373C14.753 19.7165 16.3942 18.9195 17.6569 17.6569C19.1571 16.1566 20 14.1217 20 12V10C20 9.44771 19.5523 9 19 9C18.4477 9 18 9.44771 18 10V12C18 13.5913 17.3679 15.1174 16.2426 16.2426C15.1174 17.3679 13.5913 18 12 18C10.4087 18 8.88258 17.3679 7.75736 16.2426C6.63214 15.1174 6 13.5913 6 12V10Z"
        fill="#303233" />
</svg>
