<svg width="24" height="24" viewBox="0 0 24 24" fill="none" xmlns="http://www.w3.org/2000/svg">
    <g clip-path="url(#clip0_53_4552)">
        <path fill-rule="evenodd" clip-rule="evenodd"
            d="M7.00167 8.41576L0.294454 1.70855C-0.0955471 1.31855 -0.0955471 0.684546 0.294454 0.294545C0.684455 -0.0954556 1.31846 -0.0954556 1.70846 0.294545L15.6774 14.2634C15.6983 14.2826 15.7183 14.3027 15.7375 14.3236L23.7085 22.2946C24.0985 22.6846 24.0985 23.3186 23.7085 23.7086C23.3185 24.0986 22.6845 24.0986 22.2945 23.7086L14.5859 16H13.0014L13.0014 22C13.0014 22.5523 12.5537 23 12.0014 23C11.4491 23 11.0014 22.5523 11.0014 22L11.0014 16L7.28594 16C6.79126 16 6.35319 16.0001 6.00682 15.9686C5.66856 15.9379 5.21301 15.8654 4.83433 15.5631C4.3583 15.1831 4.08137 14.6069 4.08203 13.9978C4.08256 13.5133 4.31052 13.1123 4.49784 12.829C4.68964 12.5388 4.96331 12.1968 5.27236 11.8105L6.86993 9.81357C6.93349 9.73412 6.96766 9.69117 6.99126 9.65969L6.99308 9.59323C6.99576 9.48035 6.99762 9.33266 6.99889 9.17709C7.0014 8.86714 7.00141 8.54277 7.00141 8.43876C7.00141 8.43107 7.00149 8.42341 7.00167 8.41576ZM8.89086 10.305C8.86065 10.392 8.82444 10.4769 8.78244 10.5591C8.68798 10.744 8.56021 10.903 8.45876 11.0292L8.43167 11.063L6.86189 13.0252C6.51656 13.4568 6.30162 13.7271 6.16619 13.932C6.15671 13.9463 6.1481 13.9596 6.14029 13.972C6.15482 13.9736 6.17061 13.9752 6.18774 13.9768C6.4323 13.999 6.77761 14 7.33041 14H12.5859L8.89086 10.305Z"
            fill="#303233" />
        <path
            d="M15.6382 3C16.0531 3 16.2964 3.00098 16.4698 3.01672L16.4959 3.01929L16.4886 3.04443C16.4388 3.21134 16.3494 3.43753 16.1952 3.82284L15.1785 6.36464C15.1449 6.44823 15.1027 6.55352 15.0719 6.66615C15.0452 6.76409 15.026 6.86392 15.0144 6.96478C15.0011 7.08076 15.0013 7.19421 15.0014 7.28428L15.0014 9.43876L15.0013 9.48205C15.001 9.64398 15.0005 9.84793 15.0422 10.0513C15.0785 10.2278 15.1384 10.3987 15.2204 10.5591C15.3148 10.744 15.4426 10.903 15.5441 11.0292L15.5711 11.063L17.1409 13.0252C17.3261 13.2566 17.4768 13.4451 17.6019 13.6083C17.9378 14.0467 18.5655 14.1297 19.0039 13.7937C19.4422 13.4578 19.5252 12.8301 19.1893 12.3917C19.0502 12.2103 18.8869 12.0061 18.7079 11.7824L17.1329 9.81357C17.0632 9.7265 17.0289 9.68326 17.005 9.65092L17.0033 9.64856L17.0032 9.64564C17.0016 9.60549 17.0014 9.55027 17.0014 9.43876V7.30814C17.0014 7.24632 17.0015 7.21616 17.002 7.19419L17.002 7.1927L17.0025 7.1913C17.0102 7.17072 17.0214 7.1427 17.0443 7.0853L18.0669 4.52883C18.2012 4.19308 18.3261 3.88105 18.4051 3.61632C18.4877 3.33932 18.5635 2.98268 18.4825 2.5931C18.3753 2.07707 18.0687 1.62422 17.6294 1.33301C17.2978 1.11316 16.9385 1.05104 16.6506 1.02491C16.3755 0.999939 16.0394 0.999969 15.6778 1L7.50098 1C6.94869 1 6.50098 1.44772 6.50098 2C6.50098 2.55229 6.94869 3 7.50098 3H15.6382Z"
            fill="#303233" />
    </g>
    <defs>
        <clipPath id="clip0_53_4552">
            <rect width="24" height="24" fill="white" />
        </clipPath>
    </defs>
</svg>
