<svg width="24" height="24" viewBox="0 0 24 24" fill="none" xmlns="http://www.w3.org/2000/svg">
    <path fill-rule="evenodd" clip-rule="evenodd"
        d="M11.82 2.38177C11.9652 2.6393 11.9455 2.95808 11.7698 3.1958C10.8501 4.44001 10.4076 5.97298 10.5226 7.5159C10.6377 9.05883 11.3027 10.5092 12.3968 11.6032C13.4908 12.6973 14.9412 13.3623 16.4841 13.4774C18.027 13.5924 19.56 13.1499 20.8042 12.2302C21.0419 12.0545 21.3607 12.0348 21.6182 12.18C21.8758 12.3251 22.024 12.608 21.9968 12.9023C21.8217 14.7974 21.1105 16.6034 19.9464 18.109C18.7823 19.6146 17.2135 20.7575 15.4236 21.4041C13.6336 22.0506 11.6966 22.174 9.83907 21.7598C7.98155 21.3457 6.28041 20.411 4.93469 19.0653C3.58898 17.7196 2.65435 16.0184 2.24016 14.1609C1.82598 12.3034 1.94938 10.3664 2.59592 8.57641C3.24246 6.78647 4.3854 5.21767 5.891 4.0536C7.3966 2.88952 9.20259 2.17831 11.0977 2.00318C11.392 1.97598 11.6749 2.12423 11.82 2.38177Z"
        fill="#303233" />
</svg>
