<svg width="24" height="24" viewBox="0 0 24 24" fill="none" xmlns="http://www.w3.org/2000/svg">
    <path fill-rule="evenodd" clip-rule="evenodd"
        d="M12.0821 2.50903C12.2756 2.85241 12.2493 3.27744 12.015 3.59441C11.1608 4.75007 10.7498 6.17394 10.8566 7.60705C10.9635 9.04016 11.5812 10.3873 12.5974 11.4035C13.6136 12.4197 14.9607 13.0374 16.3938 13.1442C17.8269 13.2511 19.2508 12.8401 20.4065 11.9858C20.7234 11.7515 21.1485 11.7253 21.4919 11.9188C21.8352 12.1124 22.0329 12.4895 21.9966 12.882C21.8218 14.7734 21.112 16.5758 19.9502 18.0785C18.7885 19.5811 17.2227 20.7218 15.4363 21.3671C13.6499 22.0123 11.7166 22.1355 9.86275 21.7221C8.00888 21.3088 6.31107 20.376 4.968 19.0329C3.62492 17.6898 2.69212 15.992 2.27875 14.1381C1.86539 12.2843 1.98854 10.351 2.63381 8.56457C3.27908 6.77814 4.41978 5.21243 5.92243 4.05064C7.42507 2.88884 9.22752 2.17903 11.1189 2.00424C11.5113 1.96797 11.8885 2.16564 12.0821 2.50903Z"
        fill="#303233" />
</svg>
