<svg width="16" height="16" viewBox="0 0 16 16" fill="none" xmlns="http://www.w3.org/2000/svg">
    <path
        d="M5.47902 1.7291C6.22412 1.25644 7.09896 1 7.99998 1C9.22046 1 10.3938 1.47064 11.2612 2.31286C12.1291 3.15556 12.6194 4.3017 12.6194 5.5C12.6194 6.74816 12.8245 7.73229 13.1113 8.49991C13.2079 8.75859 13.0766 9.04664 12.8179 9.14329C12.5592 9.23994 12.2712 9.1086 12.1745 8.84992C11.8433 7.96332 11.6194 6.85993 11.6194 5.5C11.6194 4.57657 11.2418 3.68788 10.5646 3.03029C9.88683 2.37222 8.96459 2 7.99998 2C7.2884 2 6.59939 2.20262 6.01469 2.57353C5.78151 2.72145 5.47256 2.65234 5.32464 2.41915C5.17672 2.18597 5.24583 1.87703 5.47902 1.7291Z"
        fill="#303233" />
    <path fill-rule="evenodd" clip-rule="evenodd"
        d="M1.64645 2.35355L3.55788 4.26499C3.44126 4.66305 3.38053 5.07842 3.38053 5.5C3.38053 7.46836 2.8707 8.78458 2.32648 9.63383L2.3202 9.64362C2.07332 10.0289 1.8806 10.3296 1.75129 10.5475C1.68654 10.6566 1.63007 10.7575 1.58924 10.8448C1.56886 10.8884 1.54739 10.939 1.53098 10.9925C1.51712 11.0377 1.4929 11.1279 1.50199 11.2358C1.50912 11.3205 1.52609 11.4497 1.60106 11.5807C1.67536 11.7106 1.77741 11.791 1.84562 11.8401C1.97808 11.9355 2.13406 11.9583 2.19632 11.9672C2.28671 11.9802 2.39299 11.9871 2.50665 11.9914C2.73284 12 3.04826 12 3.44838 12H11.2929L13.6464 14.3536C13.8417 14.5488 14.1583 14.5488 14.3536 14.3536C14.5488 14.1583 14.5488 13.8417 14.3536 13.6464L2.35355 1.64645C2.15829 1.45118 1.84171 1.45118 1.64645 1.64645C1.45118 1.84171 1.45118 2.15829 1.64645 2.35355ZM4.38053 5.5C4.38053 5.36913 4.38811 5.239 4.40304 5.11015L10.2929 11H3.46093C3.11143 11 2.84616 10.9999 2.64876 10.9953C2.76784 10.7986 2.93932 10.5309 3.16843 10.1734C3.81995 9.1567 4.38053 7.65188 4.38053 5.5Z"
        fill="#303233" />
    <path
        d="M10.3294 14.6262C10.5372 14.4442 10.5581 14.1283 10.3762 13.9206C10.1942 13.7129 9.87835 13.6919 9.6706 13.8739C9.22559 14.2636 8.64152 14.5 8.00001 14.5C7.35849 14.5 6.77442 14.2636 6.32941 13.8739C6.12167 13.6919 5.80578 13.7129 5.62385 13.9206C5.44193 14.1283 5.46286 14.4442 5.6706 14.6262C6.29163 15.17 7.10787 15.5 8.00001 15.5C8.89215 15.5 9.70839 15.17 10.3294 14.6262Z"
        fill="#303233" />
</svg>
