<svg width="24" height="24" viewBox="0 0 24 24" fill="none" xmlns="http://www.w3.org/2000/svg">
    <path fill-rule="evenodd" clip-rule="evenodd"
        d="M8.751 4C8.751 3.0335 7.9675 2.25 7.001 2.25H4.001C3.0345 2.25 2.251 3.0335 2.251 4V7C2.251 7.9665 3.0345 8.75 4.001 8.75H7.001C7.9675 8.75 8.751 7.9665 8.751 7V4ZM7.001 3.75C7.13907 3.75 7.251 3.86193 7.251 4V7C7.251 7.13807 7.13907 7.25 7.001 7.25H4.001C3.86293 7.25 3.751 7.13807 3.751 7V4C3.751 3.86193 3.86293 3.75 4.001 3.75H7.001Z"
        fill="#303233" />
    <path
        d="M3.001 11.25C3.41521 11.25 3.751 11.5858 3.751 12C3.751 12.4142 3.41521 12.75 3.001 12.75C2.58679 12.75 2.25 12.4142 2.25 12C2.25 11.5858 2.58679 11.25 3.001 11.25Z"
        fill="#303233" />
    <path
        d="M21.001 11.25C21.4152 11.25 21.751 11.5858 21.751 12C21.751 12.4142 21.4152 12.75 21.001 12.75C20.5868 12.75 20.25 12.4142 20.25 12C20.25 11.5858 20.5868 11.25 21.001 11.25Z"
        fill="#303233" />
    <path
        d="M16.001 16.25C16.4152 16.25 16.751 16.5858 16.751 17C16.751 17.4142 16.4152 17.75 16.001 17.75H16C15.5858 17.75 15.25 17.4142 15.25 17C15.25 16.5858 15.5858 16.25 16 16.25H16.001Z"
        fill="#303233" />
    <path
        d="M12.751 21C12.751 20.5858 12.4152 20.25 12.001 20.25H12C11.5858 20.25 11.25 20.5858 11.25 21C11.25 21.4142 11.5858 21.75 12 21.75H12.001C12.4152 21.75 12.751 21.4142 12.751 21Z"
        fill="#303233" />
    <path fill-rule="evenodd" clip-rule="evenodd"
        d="M20.001 2.25C20.9675 2.25 21.751 3.0335 21.751 4V7C21.751 7.9665 20.9675 8.75 20.001 8.75H17.001C16.0345 8.75 15.251 7.9665 15.251 7V4C15.251 3.0335 16.0345 2.25 17.001 2.25H20.001ZM20.251 4C20.251 3.86193 20.1391 3.75 20.001 3.75H17.001C16.8629 3.75 16.751 3.86193 16.751 4V7C16.751 7.13807 16.8629 7.25 17.001 7.25H20.001C20.1391 7.25 20.251 7.13807 20.251 7V4Z"
        fill="#303233" />
    <path fill-rule="evenodd" clip-rule="evenodd"
        d="M8.751 17C8.751 16.0335 7.9675 15.25 7.001 15.25H4.001C3.0345 15.25 2.251 16.0335 2.251 17V20C2.251 20.9665 3.0345 21.75 4.001 21.75H7.001C7.9675 21.75 8.751 20.9665 8.751 20V17ZM7.001 16.75C7.13907 16.75 7.251 16.8619 7.251 17V20C7.251 20.1381 7.13907 20.25 7.001 20.25H4.001C3.86293 20.25 3.751 20.1381 3.751 20V17C3.751 16.8619 3.86293 16.75 4.001 16.75H7.001Z"
        fill="#303233" />
    <path
        d="M11.25 3C11.25 2.58579 11.5858 2.25 12 2.25C12.4142 2.25 12.75 2.58579 12.75 3V8C12.75 8.41421 12.4142 8.75 12 8.75C11.5858 8.75 11.25 8.41421 11.25 8V3Z"
        fill="#303233" />
    <path
        d="M17 11.25C17.4142 11.25 17.75 11.5858 17.75 12C17.75 12.4142 17.4142 12.75 17 12.75H13C12.8619 12.75 12.75 12.8619 12.75 13V17C12.75 17.4142 12.4142 17.75 12 17.75C11.5858 17.75 11.25 17.4142 11.25 17V13C11.25 12.0335 12.0335 11.25 13 11.25H17Z"
        fill="#303233" />
    <path
        d="M8 11.25C8.41421 11.25 8.75 11.5858 8.75 12C8.75 12.4142 8.41421 12.75 8 12.75H7C6.58579 12.75 6.25 12.4142 6.25 12C6.25 11.5858 6.58579 11.25 7 11.25H8Z"
        fill="#303233" />
    <path
        d="M21 16.25C21.4142 16.25 21.75 16.5858 21.75 17C21.75 17.4142 21.4142 17.75 21 17.75H20C19.5858 17.75 19.25 17.4142 19.25 17C19.25 16.5858 19.5858 16.25 20 16.25H21Z"
        fill="#303233" />
    <path
        d="M21 20.25C21.4142 20.25 21.75 20.5858 21.75 21C21.75 21.4142 21.4142 21.75 21 21.75H16C15.5858 21.75 15.25 21.4142 15.25 21C15.25 20.5858 15.5858 20.25 16 20.25H21Z"
        fill="#303233" />
</svg>
