<svg width="16" height="16" viewBox="0 0 16 16" fill="none" xmlns="http://www.w3.org/2000/svg">
    <g clip-path="url(#clip0_4613_149)">
        <path
            d="M7.78058 9.28032C8.07347 8.98743 8.07346 8.51255 7.78057 8.21966C7.48767 7.92677 7.0128 7.92678 6.71991 8.21968L6.46987 8.46972C5.34858 9.59104 5.34859 11.409 6.4699 12.5304C7.59123 13.6517 9.40926 13.6517 10.5306 12.5303L10.7806 12.2803C11.0735 11.9874 11.0735 11.5126 10.7806 11.2197C10.4877 10.9268 10.0128 10.9268 9.71991 11.2197L9.46991 11.4697C8.93438 12.0052 8.0661 12.0052 7.53056 11.4697C6.99503 10.9342 6.99502 10.0659 7.53055 9.53036L7.78058 9.28032Z"
            fill="#303233" />
        <path
            d="M8.46817 6.47096C9.58937 5.34893 11.408 5.34859 12.5296 6.4702C13.6506 7.59123 13.651 9.40866 12.5303 10.5301L12.2805 10.7801C11.9877 11.0731 11.5129 11.0733 11.2199 10.7805C10.9269 10.4877 10.9267 10.0128 11.2195 9.71984L11.4693 9.46984C12.0045 8.93425 12.0043 8.06626 11.4689 7.53086C10.9333 6.99519 10.0647 6.99535 9.52923 7.53122L9.28053 7.78011C8.98774 8.07311 8.51287 8.07329 8.21987 7.7805C7.92687 7.48772 7.92669 7.01284 8.21947 6.71984L8.46817 6.47096Z"
            fill="#303233" />
        <path
            d="M11.0303 9.03033C11.3232 8.73744 11.3232 8.26256 11.0303 7.96967C10.7374 7.67678 10.2626 7.67678 9.96967 7.96967L7.96967 9.96967C7.67678 10.2626 7.67678 10.7374 7.96967 11.0303C8.26256 11.3232 8.73744 11.3232 9.03033 11.0303L11.0303 9.03033Z"
            fill="#303233" />
        <path fill-rule="evenodd" clip-rule="evenodd"
            d="M4.16957 0.25H8.83044C9.36458 0.24999 9.81044 0.249982 10.1747 0.27974C10.5546 0.310778 10.9112 0.377889 11.2485 0.549733C11.7659 0.813385 12.1866 1.23408 12.4503 1.75153C12.6117 2.06835 12.6805 2.40164 12.7141 2.75503C12.7287 2.90881 12.7373 3.07618 12.7424 3.2576C12.8976 3.26197 13.0416 3.26887 13.1747 3.27974C13.5546 3.31078 13.9112 3.37789 14.2485 3.54973C14.7659 3.81339 15.1866 4.23408 15.4503 4.75153C15.6221 5.08879 15.6892 5.44545 15.7203 5.82533C15.75 6.18955 15.75 6.63538 15.75 7.16951V11.8305C15.75 12.3646 15.75 12.8105 15.7203 13.1747C15.6892 13.5546 15.6221 13.9112 15.4503 14.2485C15.1866 14.7659 14.7659 15.1866 14.2485 15.4503C13.9112 15.6221 13.5546 15.6892 13.1747 15.7203C12.8105 15.75 12.3646 15.75 11.8305 15.75H7.16955C6.63542 15.75 6.18955 15.75 5.82533 15.7203C5.44545 15.6892 5.08879 15.6221 4.75153 15.4503C4.23408 15.1866 3.81339 14.7659 3.54973 14.2485C3.37789 13.9112 3.31078 13.5546 3.27974 13.1747C3.26887 13.0416 3.26197 12.8976 3.2576 12.7424C3.07618 12.7373 2.90881 12.7287 2.75503 12.7141C2.40164 12.6805 2.06835 12.6117 1.75153 12.4503C1.23408 12.1866 0.813385 11.7659 0.549733 11.2485C0.377889 10.9112 0.310778 10.5546 0.27974 10.1747C0.249982 9.81044 0.24999 9.3646 0.25 8.83045V4.16957C0.24999 3.63542 0.249982 3.18956 0.27974 2.82533C0.310778 2.44545 0.377889 2.08879 0.549733 1.75153C0.813385 1.23408 1.23408 0.813385 1.75153 0.549733C2.08879 0.377889 2.44545 0.310778 2.82533 0.27974C3.18956 0.249982 3.63542 0.24999 4.16957 0.25ZM11.2208 2.8969C11.2306 3.00058 11.2372 3.11656 11.2416 3.25H7.16957C6.63541 3.24999 6.18956 3.24998 5.82533 3.27974C5.44545 3.31078 5.08879 3.37789 4.75153 3.54973C4.23408 3.81339 3.81339 4.23408 3.54973 4.75153C3.37789 5.08879 3.31078 5.44545 3.27974 5.82533C3.24998 6.18956 3.24999 6.63541 3.25 7.16957V11.2416C3.11656 11.2372 3.00058 11.2306 2.8969 11.2208C2.64378 11.1967 2.51726 11.1569 2.43251 11.1138C2.19731 10.9939 2.00608 10.8027 1.88624 10.5675C1.8401 10.4769 1.79822 10.3396 1.77476 10.0525C1.75058 9.75664 1.75 9.37243 1.75 8.8V4.2C1.75 3.62757 1.75058 3.24336 1.77476 2.94748C1.79822 2.66036 1.8401 2.52307 1.88624 2.43251C2.00608 2.19731 2.19731 2.00608 2.43251 1.88624C2.52307 1.8401 2.66036 1.79822 2.94748 1.77476C3.24336 1.75058 3.62757 1.75 4.2 1.75H8.8C9.37243 1.75 9.75664 1.75058 10.0525 1.77476C10.3396 1.79822 10.4769 1.8401 10.5675 1.88624C10.8027 2.00608 10.9939 2.19731 11.1138 2.43251C11.1569 2.51726 11.1967 2.64378 11.2208 2.8969ZM5.94748 4.77476C5.66036 4.79822 5.52307 4.8401 5.43251 4.88624C5.19731 5.00608 5.00608 5.19731 4.88624 5.43251C4.8401 5.52307 4.79822 5.66036 4.77476 5.94748C4.75058 6.24336 4.75 6.62757 4.75 7.2V11.8C4.75 12.3724 4.75058 12.7566 4.77476 13.0525C4.79822 13.3396 4.8401 13.4769 4.88624 13.5675C5.00608 13.8027 5.19731 13.9939 5.43251 14.1138C5.52307 14.1599 5.66036 14.2018 5.94748 14.2252C6.24336 14.2494 6.62757 14.25 7.2 14.25H11.8C12.3724 14.25 12.7566 14.2494 13.0525 14.2252C13.3396 14.2018 13.4769 14.1599 13.5675 14.1138C13.8027 13.9939 13.9939 13.8027 14.1138 13.5675C14.1599 13.4769 14.2018 13.3396 14.2252 13.0525C14.2494 12.7566 14.25 12.3724 14.25 11.8V7.2C14.25 6.62757 14.2494 6.24336 14.2252 5.94748C14.2018 5.66036 14.1599 5.52307 14.1138 5.43251C13.9939 5.19731 13.8027 5.00608 13.5675 4.88624C13.4769 4.8401 13.3396 4.79822 13.0525 4.77476C12.7566 4.75058 12.3724 4.75 11.8 4.75H7.2C6.62757 4.75 6.24336 4.75058 5.94748 4.77476Z"
            fill="#303233" />
    </g>
    <defs>
        <clipPath id="clip0_4613_149">
            <rect width="16" height="16" fill="white" />
        </clipPath>
    </defs>
</svg>
