<svg width="16" height="16" viewBox="0 0 16 16" fill="none" xmlns="http://www.w3.org/2000/svg">
    <g clip-path="url(#clip0_53_9696)">
        <path fill-rule="evenodd" clip-rule="evenodd"
            d="M5.5 0.25C5.91421 0.25 6.25 0.585786 6.25 1V1.75H9.75V1C9.75 0.585786 10.0858 0.25 10.5 0.25C10.9142 0.25 11.25 0.585786 11.25 1V1.75H13.0556C14.2099 1.75 15.25 2.62735 15.25 3.83333V13.1667C15.25 14.3727 14.2099 15.25 13.0556 15.25H2.94444C1.79014 15.25 0.75 14.3727 0.75 13.1667V3.83333C0.75 2.62735 1.79014 1.75 2.94444 1.75H4.75V1C4.75 0.585786 5.08579 0.25 5.5 0.25ZM9.75 3.25V4C9.75 4.41421 10.0858 4.75 10.5 4.75C10.9142 4.75 11.25 4.41421 11.25 4V3.25H13.0556C13.4967 3.25 13.75 3.56656 13.75 3.83333V5.16667C13.75 5.43344 13.4967 5.75 13.0556 5.75H2.94444C2.50326 5.75 2.25 5.43344 2.25 5.16667V3.83333C2.25 3.56656 2.50326 3.25 2.94444 3.25H4.75V4C4.75 4.41421 5.08579 4.75 5.5 4.75C5.91421 4.75 6.25 4.41421 6.25 4V3.25H9.75ZM6.75 7.75C6.33579 7.75 6 8.08579 6 8.5C6 8.91421 6.33679 9.251 6.751 9.251C7.16521 9.251 7.501 8.91421 7.501 8.5C7.501 8.08579 7.16421 7.75 6.75 7.75ZM11.75 7.75C11.3358 7.75 11 8.08579 11 8.5C11 8.91421 11.3368 9.251 11.751 9.251C12.1652 9.251 12.501 8.91421 12.501 8.5C12.501 8.08579 12.1642 7.75 11.75 7.75ZM8.5 8.5C8.5 8.08579 8.83579 7.75 9.25 7.75C9.66421 7.75 10.001 8.08579 10.001 8.5C10.001 8.91421 9.66521 9.251 9.251 9.251C8.83679 9.251 8.5 8.91421 8.5 8.5ZM4.25 11.75C3.83579 11.75 3.5 12.0858 3.5 12.5C3.5 12.9142 3.83679 13.251 4.251 13.251C4.66521 13.251 5.001 12.9142 5.001 12.5C5.001 12.0858 4.66421 11.75 4.25 11.75ZM6 12.5C6 12.0858 6.33579 11.75 6.75 11.75C7.16421 11.75 7.501 12.0858 7.501 12.5C7.501 12.9142 7.16521 13.251 6.751 13.251C6.33679 13.251 6 12.9142 6 12.5ZM9.25 11.75C8.83579 11.75 8.5 12.0858 8.5 12.5C8.5 12.9142 8.83679 13.251 9.251 13.251C9.66521 13.251 10.001 12.9142 10.001 12.5C10.001 12.0858 9.66421 11.75 9.25 11.75ZM3.5 10.5C3.5 10.0858 3.83579 9.75 4.25 9.75C4.66421 9.75 5.001 10.0858 5.001 10.5C5.001 10.9142 4.66521 11.251 4.251 11.251C3.83679 11.251 3.5 10.9142 3.5 10.5ZM6.75 9.75C6.33579 9.75 6 10.0858 6 10.5C6 10.9142 6.33679 11.251 6.751 11.251C7.16521 11.251 7.501 10.9142 7.501 10.5C7.501 10.0858 7.16421 9.75 6.75 9.75ZM11 10.5C11 10.0858 11.3358 9.75 11.75 9.75C12.1642 9.75 12.501 10.0858 12.501 10.5C12.501 10.9142 12.1652 11.251 11.751 11.251C11.3368 11.251 11 10.9142 11 10.5ZM9.25 9.75C8.83579 9.75 8.5 10.0858 8.5 10.5C8.5 10.9142 8.83679 11.251 9.251 11.251C9.66521 11.251 10.001 10.9142 10.001 10.5C10.001 10.0858 9.66421 9.75 9.25 9.75Z"
            fill="#303233" />
    </g>
    <defs>
        <clipPath id="clip0_53_9696">
            <rect width="16" height="16" fill="white" />
        </clipPath>
    </defs>
</svg>
