<svg width="16" height="16" viewBox="0 0 16 16" fill="none" xmlns="http://www.w3.org/2000/svg">
    <g clip-path="url(#clip0_53_4631)">
        <path fill-rule="evenodd" clip-rule="evenodd"
            d="M1.78285 5.42488C1.32295 4.41154 1.50966 3.17647 2.34298 2.34315C3.17632 1.5098 4.41144 1.32311 5.42481 1.78306C5.81615 0.74131 6.8215 0 8 0C9.17848 0 10.1838 0.741283 10.5752 1.78301C11.5885 1.32314 12.8235 1.50986 13.6569 2.34316C14.4902 3.17646 14.6769 4.41149 14.217 5.42483C15.2587 5.81619 16 6.82153 16 8C16 9.17851 15.2587 10.1839 14.2169 10.5752C14.6768 11.5886 14.4901 12.8236 13.6568 13.6569C12.8235 14.4902 11.5885 14.677 10.5751 14.2171C10.1837 15.2588 9.17843 16 8 16C6.82152 16 5.81617 15.2587 5.42482 14.217C4.41147 14.6769 3.17638 14.4902 2.34305 13.6569C1.50974 12.8236 1.32303 11.5885 1.78292 10.5751C0.741243 10.1838 0 9.17844 0 8C0 6.82158 0.741209 5.81629 1.78285 5.42488ZM5.25 3.48241L5.1714 3.40381C4.68325 2.91565 3.89179 2.91565 3.40364 3.40381C2.91548 3.89196 2.91548 4.68342 3.40364 5.17158L3.48206 5.25H4.75C4.94058 5.25 5.12663 5.26939 5.3063 5.3063C5.26939 5.12664 5.25 4.94058 5.25 4.75V3.48241ZM6.89937 5.34306C6.85933 5.26891 6.82657 5.19026 6.80204 5.10806C6.84281 5.18353 6.87525 5.26232 6.89937 5.34306ZM7.99992 4.19066C7.89896 4.03747 7.78108 3.89216 7.64628 3.75736L6.75 2.86108V2.75C6.75 2.05964 7.30964 1.5 8 1.5C8.69036 1.5 9.25 2.05964 9.25 2.75V2.86092L8.35355 3.75737C8.21875 3.89217 8.10088 4.03748 7.99992 4.19066ZM7.49206 7.78947C7.54482 7.74413 7.59627 7.69645 7.64628 7.64645C7.69633 7.59639 7.74406 7.54488 7.78945 7.49206C7.85894 7.49732 7.92916 7.5 8 7.5C8.07078 7.5 8.14094 7.49733 8.21038 7.49207C8.25577 7.5449 8.30349 7.5964 8.35355 7.64646C8.40361 7.69652 8.45511 7.74423 8.50793 7.78962C8.50268 7.85906 8.5 7.92922 8.5 8C8.5 8.0708 8.50268 8.14097 8.50793 8.21041C8.45508 8.25583 8.40355 8.30357 8.35347 8.35365C8.30345 8.40367 8.25576 8.45514 8.21039 8.50793C8.14095 8.50267 8.07079 8.5 8 8.5C7.92918 8.5 7.85898 8.50268 7.78951 8.50794C7.74412 8.45512 7.69641 8.40362 7.64635 8.35357C7.59633 8.30354 7.54485 8.25584 7.49206 8.21048C7.49732 8.14101 7.5 8.07082 7.5 8C7.5 7.92917 7.49732 7.85896 7.49206 7.78947ZM4.19041 8.00003C4.03728 8.10097 3.89202 8.21881 3.75727 8.35357L2.86083 9.25H2.75C2.05964 9.25 1.5 8.69036 1.5 8C1.5 7.30964 2.05964 6.75 2.75 6.75H2.86074L3.75719 7.64645C3.89197 7.78122 4.03725 7.89908 4.19041 8.00003ZM5.10697 6.80171C5.18306 6.8429 5.26253 6.87562 5.34398 6.89987C5.26923 6.85943 5.1899 6.82638 5.10697 6.80171ZM10.8283 12.5963L10.75 12.5179V11.25C10.75 11.0594 10.7306 10.8734 10.6937 10.6937C10.8734 10.7306 11.0594 10.75 11.25 10.75H12.5176L12.5961 10.8285C13.0843 11.3167 13.0843 12.1081 12.5961 12.5963C12.108 13.0844 11.3165 13.0844 10.8283 12.5963ZM13.25 9.25H13.1389L12.2426 8.35365C12.1078 8.21888 11.9625 8.10102 11.8094 8.00008C11.9625 7.89912 12.1078 7.78125 12.2426 7.64646L13.1391 6.75H13.25C13.9404 6.75 14.5 7.30964 14.5 8C14.5 8.69036 13.9404 9.25 13.25 9.25ZM10.8921 9.198C10.8165 9.15715 10.7376 9.12465 10.6567 9.10051C10.731 9.14062 10.8097 9.17344 10.8921 9.198ZM9.10001 10.6558C9.14053 10.7307 9.17363 10.8101 9.19833 10.8932C9.15706 10.817 9.12429 10.7374 9.10001 10.6558ZM8.35347 12.2427C8.2187 12.108 8.10084 11.9627 7.99989 11.8095C7.89895 11.9626 7.78111 12.1079 7.64635 12.2427L6.75 13.139V13.25C6.75 13.9404 7.30964 14.5 8 14.5C8.69036 14.5 9.25 13.9404 9.25 13.25V13.1393L8.35347 12.2427ZM9.19816 5.10738C9.15711 5.18327 9.12448 5.26251 9.10027 5.34373C9.14058 5.26918 9.17354 5.19008 9.19816 5.10738ZM10.6562 6.89977C10.7375 6.87555 10.8168 6.8429 10.8927 6.80181C10.8099 6.82645 10.7308 6.85943 10.6562 6.89977ZM12.5178 5.25H11.25C11.0594 5.25 10.8734 5.26939 10.6937 5.3063C10.7306 5.12664 10.75 4.94058 10.75 4.75V3.48224L10.8284 3.40382C11.3166 2.91566 12.108 2.91566 12.5962 3.40382C13.0843 3.89197 13.0843 4.68343 12.5962 5.17159L12.5178 5.25ZM3.40371 10.8284L3.48215 10.75H4.75C4.94058 10.75 5.12663 10.7306 5.3063 10.6937C5.26939 10.8734 5.25 11.0594 5.25 11.25V12.5177L5.17148 12.5962C4.68333 13.0844 3.89187 13.0844 3.40371 12.5962C2.91556 12.1081 2.91556 11.3166 3.40371 10.8284ZM6.80194 10.8923C6.84285 10.8166 6.87538 10.7376 6.89954 10.6566C6.85937 10.731 6.82651 10.8098 6.80194 10.8923ZM5.1072 9.19822C5.18999 9.17357 5.26918 9.14059 5.3438 9.10023C5.2625 9.12445 5.18317 9.15711 5.1072 9.19822Z"
            fill="#303233" />
    </g>
    <defs>
        <clipPath id="clip0_53_4631">
            <rect width="16" height="16" fill="white" />
        </clipPath>
    </defs>
</svg>
