<svg width="16" height="16" viewBox="0 0 16 16" fill="none" xmlns="http://www.w3.org/2000/svg">
    <g clip-path="url(#clip0_3961_156)">
        <path fill-rule="evenodd" clip-rule="evenodd"
            d="M9.5 5.5C8.11929 5.5 7 6.61929 7 8C7 9.38071 8.11929 10.5 9.5 10.5C10.8807 10.5 12 9.38071 12 8C12 6.61929 10.8807 5.5 9.5 5.5ZM8 8C8 7.17157 8.67157 6.5 9.5 6.5C10.3284 6.5 11 7.17157 11 8C11 8.82843 10.3284 9.5 9.5 9.5C8.67157 9.5 8 8.82843 8 8Z"
            fill="#303233" />
        <path fill-rule="evenodd" clip-rule="evenodd"
            d="M3.50275 12.5C2.97492 12.4994 2.5986 12.4907 2.27433 12.3923C1.47533 12.15 0.850066 11.5247 0.607691 10.7257C0.499638 10.3695 0.499793 9.95048 0.50002 9.33685L0.500042 4.17858C0.500037 3.63668 0.500033 3.19961 0.528951 2.84567C0.558725 2.48124 0.621632 2.16115 0.772525 1.865C1.01221 1.3946 1.39466 1.01215 1.86507 0.772464C2.16121 0.621571 2.4813 0.558664 2.84573 0.52889C3.19967 0.499971 3.63675 0.499975 4.17864 0.49998L9.33691 0.499959C9.95055 0.499732 10.3696 0.499577 10.7258 0.60763C11.5248 0.850005 12.15 1.47527 12.3924 2.27427C12.4908 2.59855 12.4994 2.97489 12.5 3.50275C12.745 3.50602 12.9619 3.51319 13.1543 3.52891C13.5187 3.55868 13.8388 3.62159 14.135 3.77248C14.6054 4.01217 14.9878 4.39462 15.2275 4.86502C15.3784 5.16117 15.4413 5.48126 15.4711 5.84569C15.5 6.19961 15.5 6.63667 15.5 7.17853V11.8214C15.5 12.3633 15.5 12.8004 15.4711 13.1543C15.4413 13.5187 15.3784 13.8388 15.2275 14.135C14.9878 14.6054 14.6054 14.9878 14.135 15.2275C13.8388 15.3784 13.5187 15.4413 13.1543 15.4711C12.8004 15.5 12.3633 15.5 11.8215 15.5H7.17858C6.63672 15.5 6.19961 15.5 5.84569 15.4711C5.48126 15.4413 5.16117 15.3784 4.86502 15.2275C4.39462 14.9878 4.01217 14.6054 3.77248 14.135C3.62159 13.8388 3.55868 13.5187 3.52891 13.1543C3.51319 12.9619 3.50602 12.745 3.50275 12.5ZM9.25004 1.49998C9.9842 1.49998 10.2404 1.50541 10.4355 1.56457C10.9149 1.71 11.29 2.08515 11.4355 2.56455C11.4873 2.7356 11.4979 2.95372 11.4997 3.5H7.1786C6.6367 3.5 6.19963 3.49999 5.84569 3.52891C5.48126 3.55868 5.16117 3.62159 4.86502 3.77248C4.39462 4.01217 4.01217 4.39462 3.77248 4.86502C3.62159 5.16117 3.55868 5.48126 3.52891 5.84569C3.49999 6.19963 3.5 6.6367 3.5 7.1786V11.4996C2.95376 11.4978 2.73565 11.4873 2.56461 11.4354C2.08521 11.29 1.71006 10.9148 1.56463 10.4354C1.50547 10.2404 1.50004 9.98414 1.50004 9.24998V4.19998C1.50004 3.63168 1.50043 3.23552 1.52563 2.9271C1.55035 2.62452 1.59644 2.45067 1.66353 2.31899C1.80734 2.03675 2.03681 1.80728 2.31906 1.66347C2.45073 1.59638 2.62458 1.55029 2.92716 1.52557C3.23558 1.50037 3.63174 1.49998 4.20004 1.49998H9.25004ZM5.92712 4.52559C5.62454 4.55031 5.45069 4.5964 5.31901 4.66349C5.03677 4.8073 4.8073 5.03677 4.66349 5.31901C4.5964 5.45069 4.55031 5.62454 4.52559 5.92712C4.50039 6.23554 4.5 6.6317 4.5 7.2V11.8C4.5 12.3683 4.50039 12.7645 4.52559 13.0729C4.55031 13.3755 4.5964 13.5493 4.66349 13.681C4.75821 13.8669 4.89008 14.0299 5.04971 14.1606C5.99759 12.7098 7.63644 11.75 9.50023 11.75C11.3639 11.75 13.0027 12.7097 13.9506 14.1603C14.1101 14.0297 14.2419 13.8668 14.3365 13.681C14.4036 13.5493 14.4497 13.3755 14.4744 13.0729C14.4996 12.7645 14.5 12.3683 14.5 11.8V7.2C14.5 6.6317 14.4996 6.23554 14.4744 5.92712C14.4497 5.62454 14.4036 5.45069 14.3365 5.31901C14.1927 5.03677 13.9632 4.8073 13.681 4.66349C13.5493 4.5964 13.3755 4.55031 13.0729 4.52559C12.7645 4.50039 12.3683 4.5 11.8 4.5H7.2C6.6317 4.5 6.23554 4.50039 5.92712 4.52559ZM7.2 14.5C6.70106 14.5 6.33481 14.4997 6.04413 14.4826C6.83094 13.4303 8.08647 12.75 9.50023 12.75C10.914 12.75 12.1695 13.4303 12.9563 14.4825C12.6656 14.4997 12.2992 14.5 11.8 14.5H7.2Z"
            fill="#303233" />
    </g>
    <defs>
        <clipPath id="clip0_3961_156">
            <rect width="16" height="16" fill="white" />
        </clipPath>
    </defs>
</svg>
