<svg width="24" height="24" viewBox="0 0 24 24" fill="none" xmlns="http://www.w3.org/2000/svg">
    <path fill-rule="evenodd" clip-rule="evenodd"
        d="M20 18C20 18.5523 19.5523 19 19 19L5 19C4.44771 19 4 18.5523 4 18C4 17.4477 4.44771 17 5 17L19 17C19.5523 17 20 17.4477 20 18ZM19.9194 12.9978C19.92 13.6069 19.6431 14.1831 19.1671 14.5631C18.7884 14.8653 18.3328 14.9379 17.9946 14.9686C17.6482 15 17.2102 15 16.7155 15L7.28453 15C6.78985 15 6.35179 15 6.00542 14.9686C5.66715 14.9379 5.2116 14.8653 4.83292 14.5631C4.3569 14.1831 4.07997 13.6069 4.08063 12.9978C4.08115 12.5133 4.30911 12.1123 4.49643 11.8289C4.68824 11.5388 4.96192 11.1968 5.27097 10.8105L9.99252 4.90856C10.1863 4.66625 10.3703 4.43619 10.5402 4.25836C10.7223 4.06771 10.9642 3.85307 11.2984 3.72787C11.7508 3.5584 12.2492 3.5584 12.7016 3.72787C13.0358 3.85307 13.2777 4.06771 13.4598 4.25836C13.6297 4.43619 13.8137 4.66623 14.0075 4.90853C14.015 4.91801 14.0226 4.92751 14.0303 4.93703L18.729 10.8105C19.0381 11.1968 19.3118 11.5388 19.5036 11.8289C19.6909 12.1123 19.9188 12.5133 19.9194 12.9978Z"
        fill="#303233" />
</svg>
