<svg width="16" height="16" viewBox="0 0 16 16" fill="none" xmlns="http://www.w3.org/2000/svg">
    <path
        d="M5.76942 0.75H10.2306C10.7821 0.749991 11.2411 0.749983 11.6157 0.780592C12.006 0.812481 12.3704 0.881296 12.7143 1.05655C13.2436 1.32619 13.6738 1.75645 13.9435 2.28565C14.1187 2.6296 14.1875 2.99397 14.2194 3.38428C14.25 3.75893 14.25 4.21787 14.25 4.7694V8.26385C13.594 8.19093 12.912 8.40598 12.409 8.90901L12.25 9.06802L12.091 8.90901C11.2123 8.03033 9.78769 8.03033 8.90901 8.90901C8.03033 9.78769 8.03033 11.2123 8.90901 12.091L9.06802 12.25L8.90901 12.409C8.13665 13.1814 8.04319 14.3756 8.62865 15.25H5.7694C5.21787 15.25 4.75893 15.25 4.38428 15.2194C3.99397 15.1875 3.6296 15.1187 3.28565 14.9435C2.75645 14.6738 2.32619 14.2436 2.05655 13.7143C1.8813 13.3704 1.81248 13.006 1.78059 12.6157C1.74998 12.2411 1.74999 11.7821 1.75 11.2306V4.76942C1.74999 4.2179 1.74998 3.75892 1.78059 3.38428C1.81248 2.99397 1.8813 2.6296 2.05655 2.28565C2.32619 1.75645 2.75645 1.32619 3.28565 1.05655C3.6296 0.881296 3.99397 0.812481 4.38428 0.780592C4.75892 0.749983 5.2179 0.749991 5.76942 0.75Z"
        fill="#303233" />
    <path
        d="M11.0303 9.96967C10.7374 9.67678 10.2626 9.67678 9.96967 9.96967C9.67678 10.2626 9.67678 10.7374 9.96967 11.0303L11.1893 12.25L9.96967 13.4697C9.67678 13.7626 9.67678 14.2374 9.96967 14.5303C10.2626 14.8232 10.7374 14.8232 11.0303 14.5303L12.25 13.3107L13.4697 14.5303C13.7626 14.8232 14.2374 14.8232 14.5303 14.5303C14.8232 14.2374 14.8232 13.7626 14.5303 13.4697L13.3107 12.25L14.5303 11.0303C14.8232 10.7374 14.8232 10.2626 14.5303 9.96967C14.2374 9.67678 13.7626 9.67678 13.4697 9.96967L12.25 11.1893L11.0303 9.96967Z"
        fill="#303233" />
</svg>
