<svg width="16" height="16" viewBox="0 0 16 16" fill="none" xmlns="http://www.w3.org/2000/svg">
    <g clip-path="url(#clip0_53_6924)">
        <path fill-rule="evenodd" clip-rule="evenodd"
            d="M8.45147 1.77957C8.18421 1.57809 7.81579 1.57809 7.54853 1.77957L2.54853 5.5488C2.36054 5.69052 2.25 5.91228 2.25 6.1477V13.1C2.25 13.2647 2.31728 13.4276 2.44505 13.5514C2.57361 13.676 2.75284 13.75 2.94444 13.75H5.25V10.5C5.25 9.5335 6.0335 8.75 7 8.75H9C9.9665 8.75 10.75 9.5335 10.75 10.5V13.75H13.0556C13.2472 13.75 13.4264 13.676 13.555 13.5514C13.6827 13.4276 13.75 13.2647 13.75 13.1V6.14769C13.75 5.91227 13.6395 5.69052 13.4515 5.5488L8.45147 1.77957ZM6.64558 0.581786C7.44738 -0.0226441 8.55262 -0.0226433 9.35442 0.581786L14.3544 4.35102C14.9184 4.77616 15.25 5.44144 15.25 6.14769V13.1C15.25 13.6779 15.0129 14.2272 14.5989 14.6285C14.1857 15.029 13.6301 15.25 13.0556 15.25H10C9.58579 15.25 9.25 14.9142 9.25 14.5V10.5C9.25 10.3619 9.13807 10.25 9 10.25H7C6.86193 10.25 6.75 10.3619 6.75 10.5V14.5C6.75 14.9142 6.41421 15.25 6 15.25H2.94444C2.36987 15.25 1.8143 15.029 1.40109 14.6285C0.987082 14.2272 0.75 13.6779 0.75 13.1V6.1477C0.75 5.44144 1.08162 4.77616 1.64558 4.35102L6.64558 0.581786Z"
            fill="#303233" />
    </g>
    <defs>
        <clipPath id="clip0_53_6924">
            <rect width="16" height="16" fill="white" />
        </clipPath>
    </defs>
</svg>
