<svg width="24" height="24" viewBox="0 0 24 24" fill="none" xmlns="http://www.w3.org/2000/svg">
    <path fill-rule="evenodd" clip-rule="evenodd"
        d="M12 1C5.92487 1 1 5.92487 1 12C1 18.0751 5.92487 23 12 23C18.0751 23 23 18.0751 23 12C23 5.92487 18.0751 1 12 1ZM8.99254 7.5C8.16823 7.5 7.5 8.17157 7.5 9C7.5 9.82843 8.16823 10.5 8.99254 10.5H9.00746C9.83177 10.5 10.5 9.82843 10.5 9C10.5 8.17157 9.83177 7.5 9.00746 7.5H8.99254ZM7.40006 16.7999C7.84049 17.1303 8.46474 17.0423 8.79692 16.6041L8.80156 16.5982C8.80751 16.5907 8.81883 16.5766 8.83537 16.5569C8.86852 16.5174 8.92225 16.4558 8.99548 16.3793C9.14278 16.2256 9.36413 16.0171 9.65073 15.8087C10.2278 15.389 11.0256 14.9999 12.0001 14.9999C12.9745 14.9999 13.7723 15.389 14.3494 15.8087C14.636 16.0171 14.8573 16.2256 15.0046 16.3793C15.0779 16.4558 15.1316 16.5174 15.1647 16.5569C15.1813 16.5766 15.1926 16.5907 15.1986 16.5982L15.2032 16.6041C15.5354 17.0423 16.1596 17.1303 16.6001 16.7999C17.0419 16.4686 17.1314 15.8418 16.8001 15.3999L16.7979 15.3971L16.7952 15.3934L16.7879 15.384L16.7666 15.3568C16.7494 15.335 16.7261 15.3061 16.6967 15.2711C16.6381 15.2013 16.5551 15.1066 16.4486 14.9955C16.2365 14.7742 15.9266 14.4828 15.5257 14.1912C14.7278 13.6109 13.5256 12.9999 12.0001 12.9999C10.4745 12.9999 9.27233 13.6109 8.47439 14.1912C8.07349 14.4828 7.76358 14.7742 7.55151 14.9955C7.44506 15.1066 7.36207 15.2013 7.30342 15.2711C7.27407 15.3061 7.25071 15.335 7.23347 15.3568L7.21217 15.384L7.20496 15.3934L7.20222 15.3971L7.20107 15.3986L7.20006 15.3999C6.86869 15.8418 6.95823 16.4686 7.40006 16.7999ZM13.5 9C13.5 8.17157 14.1682 7.5 14.9925 7.5H15.0075C15.8318 7.5 16.5 8.17157 16.5 9C16.5 9.82843 15.8318 10.5 15.0075 10.5H14.9925C14.1682 10.5 13.5 9.82843 13.5 9Z"
        fill="#303233" />
</svg>
