<svg width="24" height="24" viewBox="0 0 24 24" fill="none" xmlns="http://www.w3.org/2000/svg">
    <path
        d="M10.0118 2.75C10.7812 2.75 11.0437 2.75482 11.2826 2.81217C11.5122 2.86729 11.7317 2.9582 11.933 3.08156C12.1424 3.20992 12.3315 3.39212 12.8756 3.93622L20.4697 11.5303C20.7626 11.8232 21.2374 11.8232 21.5303 11.5303C21.8232 11.2374 21.8232 10.7626 21.5303 10.4697L13.8758 2.81511C13.4152 2.35426 13.0964 2.03526 12.7167 1.8026C12.3812 1.59699 12.0154 1.44548 11.6328 1.35361C11.1998 1.24967 10.7488 1.2498 10.0972 1.24999L6 1.25C5.58579 1.25 5.25 1.58579 5.25 2C5.25 2.41422 5.58579 2.75 6 2.75H10.0118Z"
        fill="#303233" />
    <path
        d="M9.63281 5.35361C9.19984 5.24967 8.74883 5.2498 8.09727 5.24999L6.1696 5.25C5.63544 5.24999 5.1896 5.24998 4.82536 5.27974C4.44548 5.31078 4.08882 5.37789 3.75156 5.54973C3.23411 5.81339 2.81342 6.23408 2.54976 6.75153C2.37792 7.08879 2.31081 7.44545 2.27977 7.82533C2.25001 8.18956 2.25002 8.63541 2.25003 9.16957L2.25002 11.0972C2.24983 11.7488 2.2497 12.1998 2.35364 12.6328C2.44551 13.0154 2.59702 13.3812 2.80263 13.7167C3.03529 14.0964 3.35429 14.4152 3.81514 14.8758L9.77649 20.8371C10.2329 21.2936 10.6075 21.6682 10.9371 21.948C11.2787 22.238 11.621 22.4699 12.0266 22.6017C12.6593 22.8073 13.3408 22.8073 13.9734 22.6017C14.3791 22.4699 14.7214 22.2379 15.063 21.948C15.3926 21.6682 15.7671 21.2936 16.2236 20.8371L17.8372 19.2235C18.2936 18.7671 18.6682 18.3925 18.948 18.0629C19.238 17.7213 19.4699 17.3791 19.6017 16.9734C19.8073 16.3407 19.8073 15.6593 19.6017 15.0266C19.4699 14.6209 19.238 14.2787 18.948 13.9371C18.6682 13.6075 18.2936 13.2329 17.8371 12.7765L11.8758 6.81512C11.4152 6.35426 11.0964 6.03526 10.7168 5.8026C10.3812 5.59699 10.0154 5.44548 9.63281 5.35361Z"
        fill="#303233" />
</svg>
