<svg width="24" height="24" viewBox="0 0 24 24" fill="none" xmlns="http://www.w3.org/2000/svg">
    <path fill-rule="evenodd" clip-rule="evenodd"
        d="M14.2929 3.29289C14.6834 2.90237 15.3166 2.90237 15.7071 3.29289L20.7071 8.29289C21.0976 8.68342 21.0976 9.31658 20.7071 9.70711L15.7071 14.7071C15.3166 15.0976 14.6834 15.0976 14.2929 14.7071C13.9024 14.3166 13.9024 13.6834 14.2929 13.2929L17.5858 10H13.6C11.9033 10 10.691 10.0008 9.74064 10.0784C8.80197 10.1551 8.20732 10.3018 7.73005 10.545C6.78924 11.0243 6.02433 11.7892 5.54497 12.73C5.30179 13.2073 5.15512 13.802 5.07842 14.7406C5.00078 15.691 5 16.9033 5 18.6V20C5 20.5523 4.55229 21 4 21C3.44772 21 3 20.5523 3 20L3 18.5556C2.99999 16.913 2.99999 15.6191 3.08507 14.5778C3.17186 13.5154 3.35217 12.6283 3.76295 11.8221C4.43407 10.5049 5.50493 9.43407 6.82207 8.76295C7.62827 8.35217 8.51543 8.17186 9.57778 8.08507C10.6191 7.99999 11.913 7.99999 13.5556 8H17.5858L14.2929 4.70711C13.9024 4.31658 13.9024 3.68342 14.2929 3.29289Z"
        fill="#303233" />
</svg>
