<svg width="24" height="24" viewBox="0 0 24 24" fill="none" xmlns="http://www.w3.org/2000/svg">
    <path fill-rule="evenodd" clip-rule="evenodd"
        d="M1.25 5C1.25 3.48122 2.48122 2.25 4 2.25H10.1716C10.6357 2.25 11.0808 2.43437 11.409 2.76256L12.2374 3.59099C12.6594 4.01295 13.2317 4.25 13.8284 4.25H20C21.5188 4.25 22.75 5.48122 22.75 7V19C22.75 20.5188 21.5188 21.75 20 21.75H4C2.48122 21.75 1.25 20.5188 1.25 19V5ZM5.25 12C5.25 12.4142 5.58579 12.75 6 12.75H9.18934L5.46967 16.4697C5.17678 16.7626 5.17678 17.2374 5.46967 17.5303C5.76256 17.8232 6.23744 17.8232 6.53033 17.5303L10.25 13.8107V17C10.25 17.4142 10.5858 17.75 11 17.75C11.4142 17.75 11.75 17.4142 11.75 17V12C11.75 11.5858 11.4142 11.25 11 11.25H6C5.58579 11.25 5.25 11.5858 5.25 12Z"
        fill="#303233" />
</svg>
