<svg width="16" height="16" viewBox="0 0 16 16" fill="none" xmlns="http://www.w3.org/2000/svg">
    <path fill-rule="evenodd" clip-rule="evenodd"
        d="M10.2215 1H5.77853C5.21919 0.999995 4.769 0.999992 4.40464 1.02976C4.02979 1.06039 3.70198 1.125 3.39915 1.2793C2.91698 1.52497 2.52497 1.91698 2.2793 2.39915C2.125 2.70198 2.06039 3.02979 2.02976 3.40464C1.99999 3.769 2 4.21919 2 4.77853V11.2215C2 11.7808 1.99999 12.231 2.02976 12.5954C2.06039 12.9702 2.125 13.298 2.2793 13.6009C2.52497 14.083 2.91698 14.475 3.39915 14.7207C3.70198 14.875 4.02979 14.9396 4.40464 14.9702C4.76899 15 5.21918 15 5.77851 15H10.2215C10.7808 15 11.231 15 11.5954 14.9702C11.9702 14.9396 12.298 14.875 12.6009 14.7207C13.083 14.475 13.475 14.083 13.7207 13.6009C13.875 13.298 13.9396 12.9702 13.9702 12.5954C14 12.231 14 11.7808 14 11.2215V4.77851C14 4.21918 14 3.76899 13.9702 3.40464C13.9396 3.02979 13.875 2.70198 13.7207 2.39915C13.475 1.91698 13.083 1.52497 12.6009 1.2793C12.298 1.125 11.9702 1.06039 11.5954 1.02976C11.231 0.999992 10.7808 0.999995 10.2215 1ZM5.25 4.75C4.97386 4.75 4.75 4.97386 4.75 5.25V5.75C4.75 6.02614 4.97386 6.25 5.25 6.25H5.75C6.02614 6.25 6.25 6.02614 6.25 5.75V5.25C6.25 4.97386 6.02614 4.75 5.75 4.75H5.25ZM7.75 4.75C7.47386 4.75 7.25 4.97386 7.25 5.25V5.75C7.25 6.02614 7.47386 6.25 7.75 6.25H8.25C8.52614 6.25 8.75 6.02614 8.75 5.75V5.25C8.75 4.97386 8.52614 4.75 8.25 4.75H7.75ZM9.75 5.25C9.75 4.97386 9.97386 4.75 10.25 4.75H10.75C11.0261 4.75 11.25 4.97386 11.25 5.25V5.75C11.25 6.02614 11.0261 6.25 10.75 6.25H10.25C9.97386 6.25 9.75 6.02614 9.75 5.75V5.25ZM5.25 7.25C4.97386 7.25 4.75 7.47386 4.75 7.75V8.25C4.75 8.52614 4.97386 8.75 5.25 8.75H5.75C6.02614 8.75 6.25 8.52614 6.25 8.25V7.75C6.25 7.47386 6.02614 7.25 5.75 7.25H5.25ZM7.25 7.75C7.25 7.47386 7.47386 7.25 7.75 7.25H8.25C8.52614 7.25 8.75 7.47386 8.75 7.75V8.25C8.75 8.52614 8.52614 8.75 8.25 8.75H7.75C7.47386 8.75 7.25 8.52614 7.25 8.25V7.75ZM10.25 7.25C9.97386 7.25 9.75 7.47386 9.75 7.75V8.25C9.75 8.52614 9.97386 8.75 10.25 8.75H10.75C11.0261 8.75 11.25 8.52614 11.25 8.25V7.75C11.25 7.47386 11.0261 7.25 10.75 7.25H10.25ZM9.75 10.25C9.75 9.97386 9.97386 9.75 10.25 9.75H10.75C11.0261 9.75 11.25 9.97386 11.25 10.25V10.75C11.25 11.0261 11.0261 11.25 10.75 11.25H10.25C9.97386 11.25 9.75 11.0261 9.75 10.75V10.25ZM5.25 9.75C4.97386 9.75 4.75 9.97386 4.75 10.25V10.75C4.75 11.0261 4.97386 11.25 5.25 11.25H5.75C6.02614 11.25 6.25 11.0261 6.25 10.75V10.25C6.25 9.97386 6.02614 9.75 5.75 9.75H5.25ZM7.25 10.25C7.25 9.97386 7.47386 9.75 7.75 9.75H8.25C8.52614 9.75 8.75 9.97386 8.75 10.25V10.75C8.75 11.0261 8.52614 11.25 8.25 11.25H7.75C7.47386 11.25 7.25 11.0261 7.25 10.75V10.25Z"
        fill="#303233" />
</svg>
