<svg width="24" height="24" viewBox="0 0 24 24" fill="none" xmlns="http://www.w3.org/2000/svg">
    <path fill-rule="evenodd" clip-rule="evenodd"
        d="M5.16146 7H18.8385C19.3657 6.99998 19.8205 6.99997 20.195 7.03057C20.5904 7.06287 20.9836 7.13419 21.362 7.32698C21.9265 7.6146 22.3854 8.07354 22.673 8.63803C22.8658 9.01641 22.9371 9.40963 22.9694 9.80497C23 10.1795 23 10.6343 23 11.1614V18.8386C23 19.3657 23 19.8205 22.9694 20.195C22.9371 20.5904 22.8658 20.9836 22.673 21.362C22.3854 21.9265 21.9265 22.3854 21.362 22.673C20.9836 22.8658 20.5904 22.9371 20.195 22.9694C19.8205 23 19.3657 23 18.8385 23H5.16148C4.63432 23 4.17955 23 3.80497 22.9694C3.40963 22.9371 3.01641 22.8658 2.63803 22.673C2.07354 22.3854 1.6146 21.9265 1.32698 21.362C1.13419 20.9836 1.06287 20.5904 1.03057 20.195C0.999967 19.8205 0.999983 19.3657 1 18.8385V11.1615C0.999983 10.6343 0.999967 10.1795 1.03057 9.80497C1.06287 9.40963 1.13419 9.01641 1.32698 8.63803C1.6146 8.07354 2.07354 7.6146 2.63803 7.32698C3.01641 7.13419 3.40963 7.06287 3.80497 7.03057C4.17955 6.99997 4.63431 6.99998 5.16146 7ZM3.96784 9.02393C3.69617 9.04613 3.59546 9.0838 3.54601 9.109C3.35785 9.20487 3.20487 9.35785 3.109 9.54601C3.0838 9.59546 3.04612 9.69617 3.02393 9.96784C3.00078 10.2512 3 10.6234 3 11.2V18.8C3 19.3766 3.00078 19.7488 3.02393 20.0322C3.04612 20.3038 3.0838 20.4045 3.109 20.454C3.20487 20.6422 3.35785 20.7951 3.54601 20.891C3.59546 20.9162 3.69617 20.9539 3.96784 20.9761C4.25118 20.9992 4.62345 21 5.2 21H18.8C19.3766 21 19.7488 20.9992 20.0322 20.9761C20.3038 20.9539 20.4045 20.9162 20.454 20.891C20.6422 20.7951 20.7951 20.6422 20.891 20.454C20.9162 20.4045 20.9539 20.3038 20.9761 20.0322C20.9992 19.7488 21 19.3766 21 18.8V11.2C21 10.6234 20.9992 10.2512 20.9761 9.96784C20.9539 9.69617 20.9162 9.59546 20.891 9.54601C20.7951 9.35785 20.6422 9.20487 20.454 9.109C20.4045 9.0838 20.3038 9.04613 20.0322 9.02393C19.7488 9.00078 19.3766 9 18.8 9H5.2C4.62345 9 4.25117 9.00078 3.96784 9.02393Z"
        fill="#303233" />
    <path
        d="M16.8371 4H7.15996C6.63283 3.99998 6.17804 3.99997 5.80348 4.03057C5.40813 4.06287 5.01492 4.13419 4.63654 4.32698C4.07205 4.6146 3.61311 5.07354 3.32549 5.63803C3.26469 5.75735 3.21598 5.87814 3.17676 6H20.8203C20.781 5.87814 20.7323 5.75735 20.6715 5.63803C20.3839 5.07354 19.925 4.6146 19.3605 4.32698C18.9821 4.13419 18.5889 4.06287 18.1935 4.03057C17.819 3.99997 17.3642 3.99998 16.8371 4Z"
        fill="#303233" />
    <path
        d="M13.8361 1H10.159C9.63186 0.999984 9.17707 0.999969 8.8025 1.03057C8.40716 1.06287 8.01394 1.13419 7.63556 1.32698C7.07107 1.6146 6.61213 2.07354 6.32451 2.63803C6.26372 2.75735 6.215 2.87814 6.17578 3H10.1561C10.1698 3 10.1836 3 10.1975 3H13.7975C13.8115 3 13.8253 3 13.839 3H17.8193C17.7801 2.87814 17.7313 2.75735 17.6706 2.63803C17.3829 2.07354 16.924 1.6146 16.3595 1.32698C15.9811 1.13419 15.5879 1.06287 15.1926 1.03057C14.818 0.999969 14.3632 0.999984 13.8361 1Z"
        fill="#303233" />
</svg>
