<svg width="16" height="16" viewBox="0 0 16 16" fill="none" xmlns="http://www.w3.org/2000/svg">
    <path fill-rule="evenodd" clip-rule="evenodd"
        d="M6.47825 0.250001C6.26398 0.249989 6.06711 0.249978 5.90179 0.261257C5.72415 0.273378 5.52881 0.30099 5.33031 0.383213C4.90151 0.560828 4.56083 0.901507 4.38321 1.33031C4.32154 1.4792 4.29059 1.62632 4.27386 1.76553C4.12498 1.77642 3.98779 1.79485 3.85809 1.82598C2.85256 2.06739 2.06746 2.85249 1.82605 3.85803C1.74954 4.17673 1.74975 4.5407 1.75003 5.01206V11.9879C1.74975 12.4593 1.74954 12.8233 1.82605 13.142C2.06746 14.1475 2.85256 14.9326 3.85809 15.174C4.1768 15.2505 4.54076 15.2503 5.01212 15.25H10.988C11.4594 15.2503 11.8233 15.2505 12.142 15.174C13.1476 14.9326 13.9327 14.1475 14.1741 13.142C14.2506 12.8233 14.2504 12.4593 14.2501 11.9879V5.01205C14.2504 4.5407 14.2506 4.17673 14.1741 3.85803C13.9327 2.85249 13.1476 2.06739 12.142 1.82598C12.0123 1.79484 11.8751 1.77641 11.7261 1.76552C11.7094 1.62632 11.6785 1.4792 11.6168 1.33031C11.4392 0.901507 11.0985 0.560828 10.6697 0.383213C10.4712 0.30099 10.2759 0.273378 10.0982 0.261257C9.9329 0.249978 9.73606 0.249989 9.5218 0.250001H6.47825ZM5.77031 1.90131C5.79558 1.84248 5.84248 1.79558 5.90131 1.77031C5.90867 1.76844 5.93707 1.76234 6.0039 1.75778C6.11191 1.75041 6.25677 1.75 6.5 1.75H9.5C9.74323 1.75 9.8881 1.75041 9.9961 1.75778C10.0629 1.76234 10.0913 1.76844 10.0987 1.77031C10.1575 1.79558 10.2044 1.84248 10.2297 1.90131C10.2316 1.90867 10.2377 1.93707 10.2422 2.0039C10.2496 2.11191 10.25 2.25677 10.25 2.5C10.25 2.74323 10.2496 2.8881 10.2422 2.9961C10.2377 3.06293 10.2316 3.09134 10.2297 3.09869C10.2044 3.15753 10.1575 3.20442 10.0987 3.2297C10.0913 3.23157 10.0629 3.23767 9.9961 3.24223C9.8881 3.2496 9.74323 3.25 9.5 3.25H6.5C6.25677 3.25 6.11191 3.2496 6.0039 3.24223C5.93707 3.23767 5.90867 3.23157 5.90131 3.2297C5.84248 3.20442 5.79558 3.15753 5.77031 3.09869C5.76844 3.09134 5.76234 3.06294 5.75778 2.9961C5.75041 2.8881 5.75 2.74323 5.75 2.5C5.75 2.25677 5.75041 2.11191 5.75778 2.0039C5.76234 1.93707 5.76844 1.90867 5.77031 1.90131Z"
        fill="#303233" />
</svg>
