<svg width="16" height="16" viewBox="0 0 16 16" fill="none" xmlns="http://www.w3.org/2000/svg">
    <path fill-rule="evenodd" clip-rule="evenodd"
        d="M5.68 7.999L5.484 8.205L3.579 10.11C3.291 10.398 3.155 10.549 3.052 10.717C2.94 10.901 2.857 11.101 2.807 11.31C2.761 11.501 2.75 11.704 2.75 12.112V13.46C2.75 14.008 2.796 14.276 2.903 14.486C3.037 14.749 3.251 14.963 3.514 15.097C3.514 15.097 3.514 15.097 3.515 15.098C3.724 15.204 3.992 15.25 4.54 15.25H11.46C12.008 15.25 12.276 15.204 12.486 15.098C12.486 15.097 12.486 15.097 12.486 15.097C12.749 14.963 12.963 14.749 13.097 14.486C13.097 14.486 13.097 14.486 13.098 14.486C13.204 14.276 13.25 14.008 13.25 13.46V12.112C13.25 11.704 13.239 11.502 13.193 11.31C13.143 11.101 13.06 10.901 12.948 10.717C12.845 10.549 12.709 10.398 12.421 10.11L10.516 8.205C10.446 8.135 10.373 8.058 10.32 8.001L10.516 7.795L12.421 5.89C12.709 5.602 12.845 5.451 12.948 5.283C13.06 5.099 13.143 4.899 13.193 4.69C13.239 4.498 13.25 4.296 13.25 3.888V2.54C13.25 1.992 13.204 1.724 13.098 1.514C13.097 1.514 13.097 1.514 13.097 1.514C12.963 1.251 12.749 1.037 12.486 0.903C12.486 0.903 12.486 0.903 12.486 0.902C12.276 0.796 12.008 0.75 11.46 0.75H4.54C3.992 0.75 3.724 0.796 3.515 0.902C3.514 0.903 3.514 0.903 3.514 0.903C3.251 1.037 3.037 1.251 2.903 1.514C2.796 1.724 2.75 1.992 2.75 2.54V3.888C2.75 4.296 2.761 4.499 2.807 4.69C2.857 4.899 2.94 5.099 3.052 5.283C3.155 5.451 3.291 5.602 3.579 5.89L5.484 7.795C5.554 7.865 5.627 7.942 5.68 7.999ZM11.744 2.256C11.747 2.334 11.75 2.441 11.75 2.54V3.888C11.75 4.117 11.761 4.232 11.735 4.34C11.721 4.396 11.699 4.45 11.669 4.499C11.611 4.593 11.522 4.667 11.36 4.829L9.455 6.734C9.068 7.122 8.91 7.344 8.838 7.567C8.746 7.849 8.746 8.151 8.838 8.433C8.91 8.656 9.068 8.878 9.455 9.266L11.36 11.171C11.522 11.333 11.611 11.407 11.669 11.501C11.699 11.55 11.721 11.604 11.735 11.66C11.761 11.768 11.75 11.883 11.75 12.112V13.46C11.75 13.559 11.747 13.666 11.744 13.744C11.666 13.747 11.559 13.75 11.46 13.75H4.54C4.441 13.75 4.334 13.747 4.256 13.744C4.253 13.666 4.25 13.559 4.25 13.46V12.112C4.25 11.883 4.239 11.768 4.265 11.66C4.279 11.604 4.301 11.55 4.331 11.501C4.389 11.407 4.478 11.333 4.64 11.171L6.545 9.266C6.932 8.878 7.09 8.656 7.162 8.433C7.254 8.151 7.254 7.849 7.162 7.567C7.09 7.344 6.932 7.122 6.545 6.734L4.64 4.829C4.478 4.667 4.389 4.593 4.331 4.499C4.301 4.45 4.279 4.396 4.265 4.34C4.239 4.232 4.25 4.117 4.25 3.888V2.54C4.25 2.441 4.253 2.334 4.256 2.256C4.334 2.253 4.441 2.25 4.54 2.25H11.46C11.559 2.25 11.666 2.253 11.744 2.256Z"
        fill="#303233" />
</svg>
