<svg width="16" height="16" viewBox="0 0 16 16" fill="none" xmlns="http://www.w3.org/2000/svg">
    <path fill-rule="evenodd" clip-rule="evenodd"
        d="M4.50049 2C3.11978 2 2.00049 3.11929 2.00049 4.5C2.00049 5.88071 3.11978 7 4.50049 7C5.8812 7 7.00049 5.88071 7.00049 4.5C7.00049 3.11929 5.8812 2 4.50049 2Z"
        fill="#303233" />
    <path fill-rule="evenodd" clip-rule="evenodd"
        d="M8.30594 5.93943C8.803 5.22144 9.86435 5.22144 10.3614 5.93943L14.93 12.5385C15.5039 13.3675 14.9106 14.5 13.9023 14.5L2.06851 14.5C1.07014 14.5 0.474649 13.3873 1.02845 12.5566L3.62706 8.65868C4.12184 7.91651 5.21241 7.91651 5.70718 8.65868L6.05853 9.18569L8.30594 5.93943Z"
        fill="#303233" />
</svg>
