<svg width="16" height="16" viewBox="0 0 16 16" fill="none" xmlns="http://www.w3.org/2000/svg">
    <g clip-path="url(#clip0_4414_55)">
        <path
            d="M11 0.5C11.2761 0.5 11.5 0.723858 11.5 1V2.5H13C13.2761 2.5 13.5 2.72386 13.5 3C13.5 3.27614 13.2761 3.5 13 3.5H11.5V5C11.5 5.27614 11.2761 5.5 11 5.5C10.7239 5.5 10.5 5.27614 10.5 5V3.5H9C8.72386 3.5 8.5 3.27614 8.5 3C8.5 2.72386 8.72386 2.5 9 2.5H10.5V1C10.5 0.723858 10.7239 0.5 11 0.5Z"
            fill="#303233" />
        <path
            d="M14 4.5C14.2761 4.5 14.5 4.72386 14.5 5V5.5H15C15.2761 5.5 15.5 5.72386 15.5 6C15.5 6.27614 15.2761 6.5 15 6.5H14.5V7C14.5 7.27614 14.2761 7.5 14 7.5C13.7239 7.5 13.5 7.27614 13.5 7V6.5H13C12.7239 6.5 12.5 6.27614 12.5 6C12.5 5.72386 12.7239 5.5 13 5.5H13.5V5C13.5 4.72386 13.7239 4.5 14 4.5Z"
            fill="#303233" />
        <path fill-rule="evenodd" clip-rule="evenodd"
            d="M7.45328 4.18497C7.13309 3.28844 5.8652 3.28844 5.54501 4.18497L4.39741 7.39826L1.18411 8.54587C0.287584 8.86606 0.28759 10.1339 1.18412 10.4541L4.39741 11.6017L5.54501 14.815C5.8652 15.7116 7.13309 15.7116 7.45328 14.815L8.60089 11.6017L11.8142 10.4541C12.7107 10.1339 12.7107 8.86606 11.8142 8.54587L8.60089 7.39826L7.45328 4.18497ZM6.48676 4.52131C6.48809 4.51759 6.48997 4.51396 6.48997 4.51396C6.48997 4.51396 6.49454 4.51257 6.49915 4.51257C6.50376 4.51257 6.50833 4.51396 6.50833 4.51396C6.50833 4.51396 6.51021 4.51759 6.51154 4.52131L7.65914 7.7346C7.75999 8.01695 7.9822 8.23916 8.26455 8.34001L11.4778 9.48761C11.4816 9.48894 11.4852 9.49082 11.4852 9.49082C11.4852 9.49082 11.4866 9.49539 11.4866 9.5C11.4866 9.50461 11.4852 9.50918 11.4852 9.50918C11.4852 9.50918 11.4816 9.51107 11.4778 9.51239L8.26455 10.66C7.9822 10.7608 7.75999 10.983 7.65914 11.2654L6.51154 14.4787C6.51021 14.4824 6.50833 14.486 6.50833 14.486C6.50833 14.486 6.50376 14.4874 6.49915 14.4874C6.49454 14.4874 6.48997 14.486 6.48997 14.486C6.48997 14.486 6.48808 14.4824 6.48676 14.4787L5.33915 11.2654C5.23831 10.9831 5.0161 10.7608 4.73375 10.66L1.52045 9.51239C1.51673 9.51106 1.51311 9.50918 1.51311 9.50918C1.51311 9.50918 1.51172 9.50461 1.51172 9.5C1.51172 9.49539 1.51311 9.49082 1.51311 9.49082C1.51311 9.49082 1.51673 9.48894 1.52045 9.48761L4.73375 8.34001C5.0161 8.23916 5.23831 8.01695 5.33915 7.7346L6.48676 4.52131Z"
            fill="#303233" />
    </g>
    <defs>
        <clipPath id="clip0_4414_55">
            <rect width="16" height="16" fill="white" />
        </clipPath>
    </defs>
</svg>
