<svg width="24" height="24" viewBox="0 0 24 24" fill="none" xmlns="http://www.w3.org/2000/svg">
    <path fill-rule="evenodd" clip-rule="evenodd"
        d="M10.872 1.08289C10.5236 0.999231 10.1648 0.999565 9.75792 0.999943L5.16156 0.999994C4.63441 0.999976 4.17965 0.999961 3.80507 1.03056C3.40973 1.06287 3.01651 1.13418 2.63813 1.32698C2.07364 1.6146 1.6147 2.07354 1.32708 2.63802C1.13429 3.0164 1.06297 3.40962 1.03067 3.80497C1.00007 4.17954 1.00008 4.6343 1.0001 5.16145L1.00005 9.75782C0.999672 10.1647 0.999338 10.5235 1.08299 10.8719C1.15648 11.178 1.2777 11.4706 1.44218 11.7391C1.62942 12.0446 1.88333 12.298 2.17131 12.5855L9.92805 20.3422C10.4973 20.9114 10.967 21.3812 11.381 21.7326C11.8109 22.0976 12.246 22.3933 12.764 22.5616C13.5674 22.8226 14.4328 22.8226 15.2362 22.5616C15.7542 22.3933 16.1893 22.0976 16.6192 21.7326C17.0332 21.3812 17.5029 20.9114 18.0721 20.3422L20.3423 18.072C20.9115 17.5029 21.3813 17.033 21.7327 16.6191C22.0977 16.1892 22.3934 15.7541 22.5617 15.2361C22.8227 14.4327 22.8227 13.5673 22.5617 12.7639C22.3934 12.2459 22.0977 11.8108 21.7327 11.3809C21.3813 10.967 20.9115 10.4972 20.3424 9.92804L12.5856 2.1712C12.2981 1.88322 12.0447 1.62931 11.7392 1.44207C11.4708 1.27759 11.1781 1.15638 10.872 1.08289ZM8 6.5C7.17157 6.5 6.5 7.17157 6.5 8C6.5 8.82843 7.17157 9.5 8 9.5C8.82843 9.5 9.5 8.82843 9.5 8C9.5 7.17157 8.82843 6.5 8 6.5Z"
        fill="#303233" />
</svg>
