<svg width="24" height="24" viewBox="0 0 24 24" fill="none" xmlns="http://www.w3.org/2000/svg">
    <path
        d="M8.14109 4.99634C9.66003 4.15881 11.41 3.83764 13.1274 4.08123C14.8448 4.32483 16.4364 5.11998 17.6626 6.34688C17.6697 6.35404 17.677 6.36108 17.6843 6.36802L20.4793 9H17C16.4477 9 16 9.44772 16 10C16 10.5523 16.4477 11 17 11H23C23.1604 11 23.3119 10.9623 23.4462 10.8952C23.5154 10.8607 23.5814 10.8177 23.6426 10.7663C23.8611 10.5828 24 10.3076 24 10V4C24 3.44772 23.5523 3 23 3C22.4477 3 22 3.44772 22 4V7.68483L19.0662 4.92214C17.5351 3.39475 15.5498 2.40482 13.4083 2.10105C11.2616 1.79656 9.07407 2.19802 7.17538 3.24494C5.2767 4.29185 3.76971 5.92751 2.8815 7.90542C1.9933 9.88332 1.772 12.0963 2.25095 14.211C2.7299 16.3256 3.88316 18.2273 5.53694 19.6294C7.19072 21.0316 9.25541 21.8583 11.4199 21.9849C13.5844 22.1115 15.7314 21.5312 17.5374 20.3315C19.3434 19.1317 20.7105 17.3775 21.4328 15.3331C21.6167 14.8124 21.3437 14.2411 20.823 14.0571C20.3023 13.8731 19.731 14.1461 19.547 14.6669C18.9692 16.3024 17.8755 17.7057 16.4307 18.6656C14.9859 19.6254 13.2683 20.0896 11.5367 19.9883C9.80511 19.887 8.15335 19.2257 6.83033 18.1039C5.50731 16.9822 4.58471 15.4609 4.20154 13.7692C3.81838 12.0775 3.99542 10.307 4.70598 8.72472C5.41655 7.14239 6.62214 5.83387 8.14109 4.99634Z"
        fill="#303233" />
</svg>
