<svg width="16" height="16" viewBox="0 0 16 16" fill="none" xmlns="http://www.w3.org/2000/svg">
    <path fill-rule="evenodd" clip-rule="evenodd"
        d="M10.1357 4.35352C10.2428 4.34507 10.3804 4.342 10.5313 4.37402L10.6855 4.41797L10.7861 4.46094C11.0154 4.56981 11.2068 4.7471 11.334 4.96875C11.4453 5.16293 11.4769 5.35753 11.4893 5.5C11.5009 5.63541 11.5 5.79549 11.5 5.94434V9.5L11.4912 9.67871C11.4016 10.5612 10.6561 11.25 9.75 11.25C8.78357 11.25 8.0001 10.4664 8 9.5C8.0001 8.53359 8.78356 7.75 9.75 7.75C9.83497 7.75 9.91827 7.75783 10 7.76953V5.94434C10 5.92384 9.99905 5.90411 9.99902 5.88574C9.98099 5.88873 9.96152 5.89216 9.94141 5.89551L7.54199 6.29492C7.52727 6.29738 7.5131 6.29957 7.5 6.30176V10L7.49121 10.1787C7.40162 11.0612 6.65611 11.75 5.75 11.75C4.78356 11.75 4.0001 10.9664 4 10C4.0001 9.03359 4.78356 8.25 5.75 8.25C5.83497 8.25 5.91827 8.25783 6 8.26953V6.34473C6 6.23577 5.99973 6.11196 6.00781 6.00488C6.01664 5.88834 6.03807 5.73715 6.10938 5.57813L6.19238 5.42383C6.28595 5.27538 6.41045 5.14776 6.55762 5.04981L6.66602 4.98633C6.77321 4.93134 6.8758 4.89982 6.96094 4.87891C7.06525 4.85331 7.18738 4.83335 7.29492 4.81543L9.69531 4.41504C9.84232 4.39054 10.0001 4.36422 10.1357 4.35352ZM5.75 9.75C5.61199 9.75 5.5001 9.86201 5.5 10C5.5001 10.138 5.61199 10.25 5.75 10.25C5.88801 10.25 5.9999 10.138 6 10C5.9999 9.86201 5.88801 9.75 5.75 9.75ZM9.75 9.25C9.61199 9.25 9.5001 9.36201 9.5 9.5C9.5001 9.63799 9.61199 9.75 9.75 9.75C9.88801 9.75 9.9999 9.63799 10 9.5C9.9999 9.36201 9.88801 9.25 9.75 9.25Z"
        fill="#303233" />
    <path fill-rule="evenodd" clip-rule="evenodd"
        d="M10.2305 0.750001C10.7818 0.74999 11.2407 0.749706 11.6152 0.780274C12.0054 0.812153 12.37 0.881521 12.7139 1.05664C13.2431 1.32629 13.6737 1.75693 13.9434 2.28613C14.1185 2.62998 14.1878 2.99459 14.2197 3.38477C14.2503 3.75932 14.25 4.21825 14.25 4.76953V11.2305C14.25 11.7818 14.2503 12.2407 14.2197 12.6152C14.1878 13.0054 14.1185 13.37 13.9434 13.7139C13.6737 14.2431 13.2431 14.6737 12.7139 14.9434C12.37 15.1185 12.0054 15.1878 11.6152 15.2197C11.2407 15.2503 10.7818 15.25 10.2305 15.25H5.76953C5.21825 15.25 4.75932 15.2503 4.38477 15.2197C3.99459 15.1878 3.62998 15.1185 3.28613 14.9434C2.75693 14.6737 2.32629 14.2431 2.05664 13.7139C1.88152 13.37 1.81215 13.0054 1.78027 12.6152C1.74971 12.2407 1.74999 11.7818 1.75 11.2305V4.76953C1.74999 4.21824 1.74971 3.75932 1.78027 3.38477C1.81215 2.99459 1.88152 2.62998 2.05664 2.28613C2.32629 1.75693 2.75693 1.32629 3.28613 1.05664C3.62998 0.88152 3.99459 0.812153 4.38477 0.780274C4.75932 0.749706 5.21824 0.74999 5.76953 0.750001H10.2305ZM5.79981 2.25C5.21026 2.25 4.81305 2.2504 4.50684 2.27539C4.20962 2.29968 4.06404 2.3431 3.9668 2.39258C3.71984 2.51841 3.51841 2.71984 3.39258 2.9668C3.3431 3.06404 3.29968 3.20962 3.27539 3.50684C3.2504 3.81305 3.25 4.21025 3.25 4.79981V11.2002C3.25 11.7897 3.2504 12.187 3.27539 12.4932C3.29968 12.7904 3.3431 12.936 3.39258 13.0332C3.51841 13.2802 3.71984 13.4816 3.9668 13.6074C4.06404 13.6569 4.20961 13.7003 4.50684 13.7246C4.81305 13.7496 5.21025 13.75 5.79981 13.75H10.2002C10.7897 13.75 11.187 13.7496 11.4932 13.7246C11.7904 13.7003 11.936 13.6569 12.0332 13.6074C12.2802 13.4816 12.4816 13.2802 12.6074 13.0332C12.6569 12.936 12.7003 12.7904 12.7246 12.4932C12.7496 12.187 12.75 11.7897 12.75 11.2002V4.79981C12.75 4.21025 12.7496 3.81305 12.7246 3.50684C12.7003 3.20961 12.6569 3.06404 12.6074 2.9668C12.4816 2.71984 12.2802 2.51841 12.0332 2.39258C11.936 2.3431 11.7904 2.29968 11.4932 2.27539C11.187 2.2504 10.7897 2.25 10.2002 2.25H5.79981Z"
        fill="#303233" />
</svg>
