<svg width="16" height="16" viewBox="0 0 16 16" fill="none" xmlns="http://www.w3.org/2000/svg">
    <path
        d="M13.25 1.5C13.25 1.08579 12.9142 0.75 12.5 0.75C12.0858 0.75 11.75 1.08579 11.75 1.5V2.75H10.5C10.0858 2.75 9.75 3.08579 9.75 3.5C9.75 3.91421 10.0858 4.25 10.5 4.25H11.75V5.5C11.75 5.91421 12.0858 6.25 12.5 6.25C12.9142 6.25 13.25 5.91421 13.25 5.5V4.25H14.5C14.9142 4.25 15.25 3.91421 15.25 3.5C15.25 3.08579 14.9142 2.75 14.5 2.75H13.25V1.5Z"
        fill="#303233" />
    <path
        d="M5.73499 1.25L8.5 1.25C8.91421 1.25 9.25 1.58579 9.25 2C9.25 2.41421 8.91421 2.75 8.5 2.75H5.76667C5.00755 2.75 4.48333 2.75058 4.07628 2.78384C3.67799 2.81638 3.45838 2.87643 3.29652 2.9589C2.93588 3.14266 2.64266 3.43587 2.4589 3.79652C2.37643 3.95838 2.31638 4.17799 2.28384 4.57628C2.25058 4.98333 2.25 5.50756 2.25 6.26667V9.73333C2.25 10.4924 2.25058 11.0167 2.28384 11.4237C2.31638 11.822 2.37643 12.0416 2.4589 12.2035C2.64266 12.5641 2.93587 12.8573 3.29652 13.0411C3.45838 13.1236 3.67799 13.1836 4.07628 13.2162C4.48333 13.2494 5.00755 13.25 5.76667 13.25L10.2333 13.25C10.9924 13.25 11.5167 13.2494 11.9237 13.2162C12.322 13.1836 12.5416 13.1236 12.7035 13.0411C13.0641 12.8573 13.3573 12.5641 13.5411 12.2035C13.6236 12.0416 13.6836 11.822 13.7162 11.4237C13.7494 11.0167 13.75 10.4924 13.75 9.73333V7.66667C13.75 7.25245 14.0858 6.91667 14.5 6.91667C14.9142 6.91667 15.25 7.25245 15.25 7.66667V9.76503C15.25 10.4849 15.25 11.0705 15.2112 11.5459C15.1711 12.0369 15.0858 12.4759 14.8776 12.8845C14.55 13.5274 14.0274 14.05 13.3845 14.3776C12.9759 14.5858 12.5369 14.6711 12.0459 14.7112C11.5705 14.75 10.9849 14.75 10.265 14.75L5.73497 14.75C5.01514 14.75 4.42947 14.75 3.95413 14.7112C3.46308 14.6711 3.0241 14.5858 2.61553 14.3776C1.97265 14.05 1.44996 13.5274 1.1224 12.8845C0.91422 12.4759 0.828943 12.0369 0.788823 11.5459C0.749986 11.0705 0.749992 10.4849 0.75 9.76502V6.23499C0.749992 5.51515 0.749986 4.92947 0.788823 4.45413C0.828943 3.96308 0.91422 3.5241 1.1224 3.11553C1.44996 2.47265 1.97265 1.94996 2.61553 1.62239C3.0241 1.41422 3.46308 1.32894 3.95413 1.28882C4.42948 1.24999 5.01515 1.24999 5.73499 1.25Z"
        fill="#303233" />
    <path fill-rule="evenodd" clip-rule="evenodd"
        d="M4.75 8C4.75 6.20508 6.20507 4.75 8 4.75C9.79493 4.75 11.25 6.20508 11.25 8C11.25 9.79493 9.79493 11.25 8 11.25C6.20507 11.25 4.75 9.79493 4.75 8ZM8 6.25C7.0335 6.25 6.25 7.0335 6.25 8C6.25 8.9665 7.0335 9.75 8 9.75C8.9665 9.75 9.75 8.9665 9.75 8C9.75 7.0335 8.9665 6.25 8 6.25Z"
        fill="#303233" />
</svg>
