<svg width="16" height="16" viewBox="0 0 16 16" fill="none" xmlns="http://www.w3.org/2000/svg">
    <g clip-path="url(#clip0_53_6426)">
        <path fill-rule="evenodd" clip-rule="evenodd"
            d="M0.75 8C0.75 3.99594 3.99594 0.75 8 0.75C12.0041 0.75 15.25 3.99594 15.25 8C15.25 12.0041 12.0041 15.25 8 15.25C3.99594 15.25 0.75 12.0041 0.75 8ZM2.60714 6.00062C2.37618 6.62334 2.25 7.29693 2.25 8C2.25 8.70306 2.37618 9.37666 2.60713 9.99937L4.23402 9.34861C4.08316 8.92726 4.00098 8.47322 4.00098 7.99999C4.00098 7.52676 4.08316 7.07273 4.23402 6.65138L2.60714 6.00062ZM6.65233 11.7669L6.00179 13.3933C6.62418 13.624 7.29737 13.75 8 13.75C8.7035 13.75 9.37749 13.6237 10.0005 13.3924L9.35024 11.7667C8.92871 11.9177 8.47445 12 8.00098 12C7.52774 12 7.07369 11.9178 6.65233 11.7669ZM13.3929 9.99936L11.7677 9.34929C11.9187 8.92775 12.001 8.47348 12.001 7.99999C12.001 7.52651 11.9187 7.07223 11.7677 6.65069L13.3929 6.00062C13.6238 6.62333 13.75 7.29693 13.75 8C13.75 8.70306 13.6238 9.37665 13.3929 9.99936ZM9.34878 4.23274L9.99906 2.60702C9.37718 2.37642 8.70455 2.2503 8.00251 2.25L7.99749 2.25C7.29522 2.2503 6.62238 2.3765 6.00032 2.60725L6.65085 4.23358C7.07263 4.08237 7.52718 3.99999 8.00098 3.99999C8.4739 3.99999 8.92766 4.08207 9.34878 4.23274ZM8.00098 5.49999C6.62026 5.49999 5.50098 6.61928 5.50098 7.99999C5.50098 9.3807 6.62026 10.5 8.00098 10.5C9.38169 10.5 10.501 9.3807 10.501 7.99999C10.501 6.61928 9.38169 5.49999 8.00098 5.49999Z"
            fill="#303233" />
    </g>
    <defs>
        <clipPath id="clip0_53_6426">
            <rect width="16" height="16" fill="white" />
        </clipPath>
    </defs>
</svg>
