<svg width="16" height="16" viewBox="0 0 16 16" fill="none" xmlns="http://www.w3.org/2000/svg">
    <path
        d="M13.25 1.5C13.25 1.08579 12.9142 0.75 12.5 0.75C12.0858 0.75 11.75 1.08579 11.75 1.5V2.75H10.5C10.0858 2.75 9.75 3.08579 9.75 3.5C9.75 3.91421 10.0858 4.25 10.5 4.25H11.75V5.5C11.75 5.91421 12.0858 6.25 12.5 6.25C12.9142 6.25 13.25 5.91421 13.25 5.5V4.25H14.5C14.9142 4.25 15.25 3.91421 15.25 3.5C15.25 3.08579 14.9142 2.75 14.5 2.75H13.25V1.5Z"
        fill="#303233" />
    <path
        d="M4.66957 1.25L10.2637 1.25L10.2624 1.2624C9.13145 1.38109 8.25 2.33761 8.25 3.5C8.25 3.99354 8.4089 4.44996 8.67834 4.8209C8.45955 4.77444 8.23263 4.75 8 4.75C6.20508 4.75 4.75 6.20507 4.75 8C4.75 9.79492 6.20507 11.25 8 11.25C9.79493 11.25 11.25 9.79492 11.25 8C11.25 7.76737 11.2256 7.54044 11.1791 7.32166C11.55 7.59109 12.0065 7.75 12.5 7.75C13.6624 7.75 14.6189 6.86855 14.7376 5.7376C14.9154 5.71894 15.087 5.67958 15.25 5.62197V10.8305C15.25 11.3646 15.25 11.8105 15.2203 12.1747C15.1892 12.5546 15.1221 12.9112 14.9503 13.2485C14.6866 13.7659 14.2659 14.1866 13.7485 14.4503C13.4112 14.6221 13.0546 14.6892 12.6747 14.7203C12.3105 14.75 11.8646 14.75 11.3305 14.75L4.66951 14.75C4.13538 14.75 3.68955 14.75 3.32533 14.7203C2.94545 14.6892 2.58879 14.6221 2.25153 14.4503C1.73408 14.1866 1.31339 13.7659 1.04973 13.2485C0.87789 12.9112 0.810779 12.5546 0.779741 12.1747C0.749983 11.8104 0.749991 11.3646 0.75 10.8305V5.16954C0.749991 4.6354 0.749983 4.18955 0.779741 3.82533C0.810779 3.44545 0.87789 3.08879 1.04973 2.75153C1.31339 2.23408 1.73408 1.81339 2.25153 1.54973C2.58879 1.37789 2.94545 1.31078 3.32533 1.27974C3.68957 1.24998 4.13541 1.24999 4.66957 1.25Z"
        fill="#303233" />
    <path
        d="M6.25 8C6.25 7.0335 7.0335 6.25 8 6.25C8.9665 6.25 9.75 7.0335 9.75 8C9.75 8.9665 8.9665 9.75 8 9.75C7.0335 9.75 6.25 8.9665 6.25 8Z"
        fill="#303233" />
</svg>
