<svg width="16" height="16" viewBox="0 0 16 16" fill="none" xmlns="http://www.w3.org/2000/svg">
    <g clip-path="url(#clip0_53_2405)">
        <path fill-rule="evenodd" clip-rule="evenodd"
            d="M1 4.5C1 3.67157 1.67157 3 2.5 3H3.70711L11 10.2929V11.5C11 12.3284 10.3284 13 9.5 13H2.5C1.67157 13 1 12.3284 1 11.5V4.5Z"
            fill="#303233" />
        <path fill-rule="evenodd" clip-rule="evenodd"
            d="M0.396447 0.396447C0.591709 0.201184 0.908291 0.201184 1.10355 0.396447L15.6036 14.8964C15.7988 15.0917 15.7988 15.4083 15.6036 15.6036C15.4083 15.7988 15.0917 15.7988 14.8964 15.6036L0.396447 1.10355C0.201184 0.908291 0.201184 0.591709 0.396447 0.396447Z"
            fill="#303233" />
        <path
            d="M14.283 4.04997L14.276 4.05297L11 5.69097V4.49997C11 3.67797 10.339 3.01097 9.519 3.00097L9.5 2.99997H7.5C7.297 2.99997 7.115 3.12197 7.038 3.30897C6.962 3.49297 7.00201 3.70397 7.14001 3.84697L7.146 3.85397L10.148 6.85597L14.146 10.854C14.289 10.997 14.504 11.04 14.691 10.962C14.875 10.886 14.996 10.708 15 10.51V10.5V4.49997C15 4.32697 14.91 4.16597 14.763 4.07497C14.617 3.98497 14.437 3.97597 14.283 4.04997Z"
            fill="#303233" />
    </g>
    <defs>
        <clipPath id="clip0_53_2405">
            <rect width="16" height="16" fill="white" />
        </clipPath>
    </defs>
</svg>
