<svg width="24" height="24" viewBox="0 0 24 24" fill="none" xmlns="http://www.w3.org/2000/svg">
    <path
        d="M19.75 18C19.75 18.4142 19.4142 18.75 19 18.75C18.5858 18.75 18.25 18.4142 18.25 18C18.25 17.5858 18.5858 17.25 19 17.25C19.4142 17.25 19.75 17.5858 19.75 18Z"
        fill="#303233" />
    <path
        d="M14.5 17.25C14.0858 17.25 13.75 17.5858 13.75 18C13.75 18.4142 14.0858 18.75 14.5 18.75H16C16.4142 18.75 16.75 18.4142 16.75 18C16.75 17.5858 16.4142 17.25 16 17.25H14.5Z"
        fill="#303233" />
    <path fill-rule="evenodd" clip-rule="evenodd"
        d="M1.02051 17.5924C1.00695 17.7264 1 17.8624 1 18C1 20.2091 2.79086 22 5 22H19C21.2091 22 23 20.2091 23 18C23 17.8624 22.9931 17.7264 22.9795 17.5924C22.9389 17.1189 22.8417 16.4773 22.7202 15.7704C22.5531 14.7981 22.3224 13.6073 22.0662 12.3497C21.5536 9.83311 20.9337 7.02271 20.5029 5.10351C20.0934 3.27918 18.4734 2 16.6135 2H7.38654C5.52656 2 3.90662 3.27918 3.49709 5.10351C3.06627 7.02271 2.44637 9.83311 1.93377 12.3497C1.67761 13.6073 1.44689 14.7981 1.27979 15.7704C1.15831 16.4773 1.0611 17.1189 1.02051 17.5924ZM20.9916 17.8153C20.9972 17.8896 21 17.9513 21 18C21 19.1046 20.1046 20 19 20H5C3.89543 20 3 19.1046 3 18C3 17.9513 3.0028 17.8896 3.00841 17.8153C3.10162 16.7973 3.9577 16 5 16H19C20.0423 16 20.8984 16.7973 20.9916 17.8153Z"
        fill="#303233" />
</svg>
