<svg width="24" height="24" viewBox="0 0 24 24" fill="none" xmlns="http://www.w3.org/2000/svg">
    <g clip-path="url(#clip0_53_5611)">
        <path
            d="M0.292893 0.292893C0.683417 -0.0976311 1.31658 -0.0976311 1.70711 0.292893L23.7071 22.2929C24.0976 22.6834 24.0976 23.3166 23.7071 23.7071C23.3166 24.0976 22.6834 24.0976 22.2929 23.7071L16.9054 18.3196C15.7724 19.1991 14.423 19.758 13 19.9373V22H16C16.5523 22 17 22.4477 17 23C17 23.5523 16.5523 24 16 24H8C7.44772 24 7 23.5523 7 23C7 22.4477 7.44772 22 8 22H11V19.9373C9.247 19.7165 7.60577 18.9195 6.34315 17.6569C4.84285 16.1566 4 14.1217 4 12V10C4 9.44771 4.44772 9 5 9C5.55228 9 6 9.44771 6 10V12C6 13.5913 6.63214 15.1174 7.75736 16.2426C8.88258 17.3679 10.4087 18 12 18C13.254 18 14.4675 17.6075 15.4762 16.8904L14.0298 15.4441C13.6448 15.6708 13.2224 15.8327 12.7794 15.9207C12.0039 16.0747 11.2002 15.9955 10.4697 15.6931C9.73927 15.3906 9.11481 14.8785 8.67524 14.2213C8.23567 13.5642 8.0007 12.7915 8 12.0009V9.41421L0.292893 1.70711C-0.0976311 1.31658 -0.0976311 0.683417 0.292893 0.292893Z"
            fill="#303233" />
        <path
            d="M19.9998 10C19.9998 9.44771 19.5521 9 18.9998 9C18.4475 9 17.9998 9.44771 17.9998 10V11.9991C17.9995 12.3526 17.968 12.7054 17.9055 13.0534C17.808 13.597 18.1696 14.1168 18.7132 14.2143C19.2568 14.3118 19.7766 13.9502 19.8741 13.4066C19.9573 12.9426 19.9994 12.4714 19.9998 12V10Z"
            fill="#303233" />
        <path
            d="M14.2927 10.0487C14.9227 10.6786 15.9998 10.2325 15.9998 9.34157V4C15.9998 2.93913 15.5784 1.92172 14.8282 1.17157C14.0781 0.421427 13.0607 2.23517e-08 11.9998 2.23517e-08C10.9389 2.23517e-08 9.92152 0.421427 9.17138 1.17157C8.58429 1.75866 8.19855 2.50944 8.05859 3.31664C8.00976 3.59827 8.12249 3.87847 8.3246 4.08058L14.2927 10.0487Z"
            fill="#303233" />
    </g>
    <defs>
        <clipPath id="clip0_53_5611">
            <rect width="24" height="24" fill="white" />
        </clipPath>
    </defs>
</svg>
