<svg width="24" height="24" viewBox="0 0 24 24" fill="none" xmlns="http://www.w3.org/2000/svg">
    <path
        d="M21 12C21 9.23858 18.7614 7 16 7H8C5.23858 7 3 9.23858 3 12C3 14.7614 5.23858 17 8 17H16C18.7614 17 21 14.7614 21 12ZM10 12C10 10.8954 9.10457 10 8 10C6.89543 10 6 10.8954 6 12C6 13.1046 6.89543 14 8 14C9.10457 14 10 13.1046 10 12ZM12 12C12 14.2091 10.2091 16 8 16C5.79086 16 4 14.2091 4 12C4 9.79086 5.79086 8 8 8C10.2091 8 12 9.79086 12 12ZM23 12C23 15.866 19.866 19 16 19H8C4.13401 19 1 15.866 1 12C1 8.13401 4.13401 5 8 5H16C19.866 5 23 8.13401 23 12Z"
        fill="#303233" />
</svg>
