<svg width="16" height="16" viewBox="0 0 16 16" fill="none" xmlns="http://www.w3.org/2000/svg">
    <g clip-path="url(#clip0_53_6086)">
        <path fill-rule="evenodd" clip-rule="evenodd"
            d="M0.75 8C0.75 4.02287 3.86172 0.75 7.75926 0.75C9.04041 0.75 10.2422 1.10617 11.2751 1.72667C11.6302 1.93997 11.7451 2.40072 11.5318 2.7558C11.3185 3.11087 10.8577 3.2258 10.5027 3.0125C9.6943 2.5269 8.75828 2.25 7.75926 2.25C4.74301 2.25 2.25 4.79743 2.25 8C2.25 11.2026 4.74301 13.75 7.75926 13.75C8.75828 13.75 9.6943 13.4731 10.5027 12.9875C10.8577 12.7742 11.3185 12.8891 11.5318 13.2442C11.7451 13.5993 11.6302 14.06 11.2751 14.2733C10.2422 14.8938 9.04041 15.25 7.75926 15.25C3.86172 15.25 0.75 11.9771 0.75 8ZM11.9697 4.96967C12.2626 4.67678 12.7374 4.67678 13.0303 4.96967L15.5303 7.46967C15.8232 7.76256 15.8232 8.23744 15.5303 8.53033L13.0303 11.0303C12.7374 11.3232 12.2626 11.3232 11.9697 11.0303C11.6768 10.7374 11.6768 10.2626 11.9697 9.96967L13.1893 8.75H6.5C6.08579 8.75 5.75 8.41421 5.75 8C5.75 7.58579 6.08579 7.25 6.5 7.25H13.1893L11.9697 6.03033C11.6768 5.73744 11.6768 5.26256 11.9697 4.96967Z"
            fill="#303233" />
    </g>
    <defs>
        <clipPath id="clip0_53_6086">
            <rect width="16" height="16" fill="white" />
        </clipPath>
    </defs>
</svg>
