<svg width="16" height="16" viewBox="0 0 16 16" fill="none" xmlns="http://www.w3.org/2000/svg">
    <path fill-rule="evenodd" clip-rule="evenodd"
        d="M4.6786 3H8.3214C8.8633 3 9.30037 2.99999 9.65431 3.02891C10.0187 3.05868 10.3388 3.12159 10.635 3.27248C11.1054 3.51217 11.4878 3.89462 11.7275 4.36502C11.8784 4.66117 11.9413 4.98126 11.9711 5.34569C12 5.69961 12 6.13667 12 6.67853V6.79291L13.549 5.24395C14.0844 4.70848 15 5.08772 15 5.84499V8.00002C15 8.27616 14.7761 8.50002 14.5 8.50002C14.2239 8.50002 14 8.27616 14 8.00002V6.20712L11.8536 8.35357C11.6583 8.54883 11.3417 8.54883 11.1464 8.35357C11.0487 8.25581 10.9999 8.12765 11 7.99953M11 7.99953V6.7C11 6.1317 10.9996 5.73554 10.9744 5.42712C10.9497 5.12454 10.9036 4.95069 10.8365 4.81901C10.6927 4.53677 10.4632 4.3073 10.181 4.16349C10.0493 4.0964 9.87546 4.05031 9.57288 4.02559C9.26446 4.00039 8.8683 4 8.3 4H4.7C4.1317 4 3.73554 4.00039 3.42712 4.02559C3.12454 4.05031 2.95069 4.0964 2.81901 4.16349C2.53677 4.3073 2.3073 4.53677 2.16349 4.81901C2.0964 4.95069 2.05031 5.12454 2.02559 5.42712C2.00039 5.73554 2 6.1317 2 6.7V9.3C2 9.8683 2.00039 10.2645 2.02559 10.5729C2.05031 10.8755 2.0964 11.0493 2.16349 11.181C2.3073 11.4632 2.53677 11.6927 2.81901 11.8365C2.95069 11.9036 3.12454 11.9497 3.42712 11.9744C3.73554 11.9996 4.1317 12 4.7 12H7.5C7.77614 12 8 12.2239 8 12.5C8 12.7761 7.77614 13 7.5 13H4.67858C4.13672 13 3.69961 13 3.34569 12.9711C2.98126 12.9413 2.66117 12.8784 2.36502 12.7275C1.89462 12.4878 1.51217 12.1054 1.27248 11.635C1.12159 11.3388 1.05868 11.0187 1.02891 10.6543C0.999991 10.3004 0.999995 9.8633 1 9.32141V6.6786C0.999995 6.13671 0.999991 5.69963 1.02891 5.34569C1.05868 4.98126 1.12159 4.66117 1.27248 4.36502C1.51217 3.89462 1.89462 3.51217 2.36502 3.27248C2.66117 3.12159 2.98126 3.05868 3.34569 3.02891C3.69963 2.99999 4.1367 3 4.6786 3"
        fill="#303233" />
    <path fill-rule="evenodd" clip-rule="evenodd"
        d="M12.5 9.5C10.8431 9.5 9.5 10.8431 9.5 12.5C9.5 14.1569 10.8431 15.5 12.5 15.5C14.1569 15.5 15.5 14.1569 15.5 12.5C15.5 10.8431 14.1569 9.5 12.5 9.5ZM10.5 12.5C10.5 11.3954 11.3954 10.5 12.5 10.5C12.8709 10.5 13.2182 10.601 13.516 10.7769L10.7769 13.516C10.601 13.2182 10.5 12.8709 10.5 12.5ZM11.484 14.2231C11.7818 14.399 12.1291 14.5 12.5 14.5C13.6046 14.5 14.5 13.6046 14.5 12.5C14.5 12.1291 14.399 11.7818 14.2231 11.484L11.484 14.2231Z"
        fill="#303233" />
</svg>
