<svg width="24" height="24" viewBox="0 0 24 24" fill="none" xmlns="http://www.w3.org/2000/svg">
    <path fill-rule="evenodd" clip-rule="evenodd"
        d="M2.25 4.98542C2.25 3.47469 3.47469 2.25 4.98542 2.25H19.0146C20.5253 2.25 21.75 3.47469 21.75 4.98542V19.0146C21.75 20.5253 20.5253 21.75 19.0146 21.75H4.98542C3.47469 21.75 2.25 20.5253 2.25 19.0146V4.98542ZM9.25 8.25C9.66421 8.25 10 8.58579 10 9V15C10 15.4142 9.66421 15.75 9.25 15.75C8.83579 15.75 8.5 15.4142 8.5 15V9C8.5 8.58579 8.83579 8.25 9.25 8.25ZM15.5 9C15.5 8.58579 15.1642 8.25 14.75 8.25C14.3358 8.25 14 8.58579 14 9V15C14 15.4142 14.3358 15.75 14.75 15.75C15.1642 15.75 15.5 15.4142 15.5 15V9Z"
        fill="#303233" />
</svg>
