<svg width="24" height="24" viewBox="0 0 24 24" fill="none" xmlns="http://www.w3.org/2000/svg">
    <path
        d="M3.11626 5.11612C3.35068 4.8817 3.66863 4.75 4.00015 4.75H20.0001C20.3317 4.75 20.6496 4.8817 20.884 5.11612C21.1185 5.35054 21.2501 5.66848 21.2501 6V18C21.2501 18.3315 21.1185 18.6495 20.884 18.8839C20.6496 19.1183 20.3317 19.25 20.0001 19.25H14.0001C13.5859 19.25 13.2501 19.5858 13.2501 20C13.2501 20.4142 13.5859 20.75 14.0001 20.75H20.0001C20.7295 20.75 21.429 20.4603 21.9447 19.9445C22.4604 19.4288 22.7501 18.7293 22.7501 18V6C22.7501 5.27065 22.4604 4.57118 21.9447 4.05546C21.429 3.53973 20.7295 3.25 20.0001 3.25H4.00015C3.2708 3.25 2.57133 3.53973 2.0556 4.05546C1.53988 4.57118 1.25015 5.27065 1.25015 6V8C1.25015 8.41421 1.58593 8.75 2.00015 8.75C2.41436 8.75 2.75015 8.41421 2.75015 8V6C2.75015 5.66848 2.88184 5.35054 3.11626 5.11612Z"
        fill="#303233" />
    <path
        d="M2.08305 11.3046C1.67138 11.2588 1.30053 11.5554 1.25474 11.9671C1.20896 12.3788 1.50557 12.7496 1.91724 12.7954C3.7788 13.0024 5.5145 13.8368 6.83893 15.1612C8.16337 16.4857 8.9977 18.2213 9.20474 20.0829C9.25053 20.4946 9.62138 20.7912 10.0331 20.7454C10.4447 20.6996 10.7413 20.3288 10.6956 19.9171C10.4509 17.7171 9.46484 15.6658 7.89959 14.1006C6.33435 12.5353 4.28307 11.5493 2.08305 11.3046Z"
        fill="#303233" />
    <path
        d="M2.15002 15.3651C1.74416 15.2824 1.34805 15.5443 1.26527 15.9501C1.1825 16.356 1.44442 16.7521 1.85027 16.8349C2.66703 17.0014 3.41678 17.4045 4.0062 17.9939C4.59562 18.5834 4.9987 19.3331 5.16527 20.1499C5.24805 20.5557 5.64416 20.8176 6.05002 20.7349C6.45588 20.6521 6.71779 20.256 6.63502 19.8501C6.40966 18.7451 5.86432 17.7307 5.06686 16.9333C4.2694 16.1358 3.25505 15.5905 2.15002 15.3651Z"
        fill="#303233" />
    <path
        d="M2.00012 19.25C1.58591 19.25 1.25012 19.5858 1.25012 20C1.25012 20.4142 1.58591 20.75 2.00012 20.75H2.01012C2.42434 20.75 2.76012 20.4142 2.76012 20C2.76012 19.5858 2.42434 19.25 2.01012 19.25H2.00012Z"
        fill="#303233" />
</svg>
