<svg width="24" height="24" viewBox="0 0 24 24" fill="none" xmlns="http://www.w3.org/2000/svg">
    <path fill-rule="evenodd" clip-rule="evenodd"
        d="M22 5C22 5.55228 21.5523 6 21 6L17 6C16.4477 6 16 5.55228 16 5C16 4.44772 16.4477 4 17 4L21 4C21.5523 4 22 4.44772 22 5ZM22 12C22 12.5523 21.5523 13 21 13L17.8293 13C17.4175 14.1652 16.3062 15 15 15C13.3431 15 12 13.6569 12 12C12 10.3431 13.3431 9 15 9C16.3062 9 17.4175 9.83481 17.8293 11L21 11C21.5523 11 22 11.4477 22 12ZM22 19C22 19.5523 21.5523 20 21 20L15 20C14.4477 20 14 19.5523 14 19C14 18.4477 14.4477 18 15 18L21 18C21.5523 18 22 18.4477 22 19ZM11 2C12.6569 2 14 3.34315 14 5C14 6.65685 12.6569 8 11 8C9.69378 8 8.58254 7.16519 8.17071 6L3 6C2.44772 6 2 5.55228 2 5C2 4.44771 2.44772 4 3 4L8.17071 4C8.58254 2.83481 9.69378 2 11 2ZM9 16C10.6569 16 12 17.3431 12 19C12 20.6569 10.6569 22 9 22C7.69378 22 6.58254 21.1652 6.17071 20L3 20C2.44771 20 2 19.5523 2 19C2 18.4477 2.44772 18 3 18L6.17071 18C6.58254 16.8348 7.69378 16 9 16ZM10 12C10 12.5523 9.55228 13 9 13L3 13C2.44772 13 2 12.5523 2 12C2 11.4477 2.44772 11 3 11L9 11C9.55228 11 10 11.4477 10 12Z"
        fill="#303233" />
</svg>
