<svg width="16" height="16" viewBox="0 0 16 16" fill="none" xmlns="http://www.w3.org/2000/svg">
    <path fill-rule="evenodd" clip-rule="evenodd"
        d="M15 2.5C15 1.67157 14.3284 1 13.5 1H11.5C10.6716 1 10 1.67157 10 2.5V4.5C10 5.32843 10.6716 6 11.5 6H13.5C14.3284 6 15 5.32843 15 4.5V2.5ZM13.5 2C13.7761 2 14 2.22386 14 2.5V4.5C14 4.77614 13.7761 5 13.5 5H11.5C11.2239 5 11 4.77614 11 4.5V2.5C11 2.22386 11.2239 2 11.5 2H13.5Z"
        fill="#303233" />
    <path
        d="M2 7.5C2.27614 7.5 2.5 7.72386 2.5 8C2.5 8.27614 2.27614 8.5 2 8.5H1.5C1.22386 8.5 1 8.27614 1 8C1 7.72386 1.22386 7.5 1.5 7.5H2Z"
        fill="#303233" />
    <path
        d="M14.5 7.5C14.7761 7.5 15 7.72386 15 8C15 8.27614 14.7761 8.5 14.5 8.5H14C13.7239 8.5 13.5 8.27614 13.5 8C13.5 7.72386 13.7239 7.5 14 7.5H14.5Z"
        fill="#303233" />
    <path
        d="M10.5 10.75C10.7761 10.75 11 10.9739 11 11.25C11 11.5261 10.7761 11.75 10.5 11.75H10.499C10.2229 11.75 9.999 11.5261 9.999 11.25C9.999 10.9739 10.2229 10.75 10.499 10.75H10.5Z"
        fill="#303233" />
    <path
        d="M8 13.5C7.72386 13.5 7.5 13.7239 7.5 14V14.5C7.5 14.7761 7.72386 15 8 15C8.27614 15 8.5 14.7761 8.5 14.5V14C8.5 13.7239 8.27614 13.5 8 13.5Z"
        fill="#303233" />
    <path fill-rule="evenodd" clip-rule="evenodd"
        d="M4.5 1C5.32843 1 6 1.67157 6 2.5V4.5C6 5.32843 5.32843 6 4.5 6H2.5C1.67157 6 1 5.32843 1 4.5V2.5C1 1.67157 1.67157 1 2.5 1H4.5ZM5 2.5C5 2.22386 4.77614 2 4.5 2H2.5C2.22386 2 2 2.22386 2 2.5V4.5C2 4.77614 2.22386 5 2.5 5H4.5C4.77614 5 5 4.77614 5 4.5V2.5Z"
        fill="#303233" />
    <path fill-rule="evenodd" clip-rule="evenodd"
        d="M6 11.5C6 10.6716 5.32843 10 4.5 10H2.5C1.67157 10 1 10.6716 1 11.5V13.5C1 14.3284 1.67157 15 2.5 15H4.5C5.32843 15 6 14.3284 6 13.5V11.5ZM4.5 11C4.77614 11 5 11.2239 5 11.5V13.5C5 13.7761 4.77614 14 4.5 14H2.5C2.22386 14 2 13.7761 2 13.5V11.5C2 11.2239 2.22386 11 2.5 11H4.5Z"
        fill="#303233" />
    <path
        d="M7.5 1.5C7.5 1.22386 7.72386 1 8 1C8.27614 1 8.5 1.22386 8.5 1.5V5.5C8.5 5.77614 8.27614 6 8 6C7.72386 6 7.5 5.77614 7.5 5.5V1.5Z"
        fill="#303233" />
    <path
        d="M11.5 7.5C11.7761 7.5 12 7.72386 12 8C12 8.27614 11.7761 8.5 11.5 8.5H9C8.72386 8.5 8.5 8.72386 8.5 9L8.5 11.5C8.5 11.7761 8.27614 12 8 12C7.72386 12 7.5 11.7761 7.5 11.5L7.5 9C7.5 8.17157 8.17157 7.5 9 7.5H11.5Z"
        fill="#303233" />
    <path
        d="M5.5 7.5C5.77614 7.5 6 7.72386 6 8C6 8.27614 5.77614 8.5 5.5 8.5H4.5C4.22386 8.5 4 8.27614 4 8C4 7.72386 4.22386 7.5 4.5 7.5H5.5Z"
        fill="#303233" />
    <path
        d="M14.5 10.8333C14.7761 10.8333 15 11.0572 15 11.3333C15 11.6095 14.7761 11.8333 14.5 11.8333H13.3333C13.0572 11.8333 12.8333 11.6095 12.8333 11.3333C12.8333 11.0572 13.0572 10.8333 13.3333 10.8333H14.5Z"
        fill="#303233" />
    <path
        d="M14.5 14C14.7761 14 15 14.2239 15 14.5C15 14.7761 14.7761 15 14.5 15H10.5C10.2239 15 10 14.7761 10 14.5C10 14.2239 10.2239 14 10.5 14H14.5Z"
        fill="#303233" />
</svg>
