<svg width="16" height="16" viewBox="0 0 16 16" fill="none" xmlns="http://www.w3.org/2000/svg">
    <path fill-rule="evenodd" clip-rule="evenodd"
        d="M3.21873 2.1096C2.76003 1.81294 2.16602 2.14788 2.16602 2.68389V5.31609C2.16602 5.8521 2.76003 6.18704 3.21873 5.89038L5.25373 4.57428C5.67011 4.30499 5.67011 3.69499 5.25373 3.4257L3.21873 2.1096Z"
        fill="#303233" />
    <path
        d="M7.75 3.5C7.47386 3.5 7.25 3.72386 7.25 4C7.25 4.27614 7.47386 4.5 7.75 4.5H12.75C13.0261 4.5 13.25 4.27614 13.25 4C13.25 3.72386 13.0261 3.5 12.75 3.5H7.75Z"
        fill="#303233" />
    <path
        d="M2.75 7.5C2.47386 7.5 2.25 7.72386 2.25 8C2.25 8.27614 2.47386 8.5 2.75 8.5H12.75C13.0261 8.5 13.25 8.27614 13.25 8C13.25 7.72386 13.0261 7.5 12.75 7.5H2.75Z"
        fill="#303233" />
    <path
        d="M2.25 12C2.25 11.7239 2.47386 11.5 2.75 11.5H12.75C13.0261 11.5 13.25 11.7239 13.25 12C13.25 12.2761 13.0261 12.5 12.75 12.5H2.75C2.47386 12.5 2.25 12.2761 2.25 12Z"
        fill="#303233" />
</svg>
