<svg width="16" height="16" viewBox="0 0 16 16" fill="none" xmlns="http://www.w3.org/2000/svg">
    <path
        d="M5.77853 1H10.2215C10.7808 0.999996 11.231 0.999992 11.5954 1.02976C11.9702 1.06039 12.298 1.125 12.6009 1.2793C13.083 1.52497 13.475 1.91698 13.7207 2.39915C13.875 2.70198 13.9396 3.02979 13.9702 3.40464C14 3.76899 14 4.21918 14 4.77851V9C13.6161 9 13.2322 9.14645 12.9393 9.43934L12.25 10.1287L11.5607 9.43934C10.9749 8.85355 10.0251 8.85355 9.43934 9.43934C8.85355 10.0251 8.85355 10.9749 9.43934 11.5607L10.1287 12.25L9.43934 12.9393C8.87337 13.5053 8.85422 14.411 9.38191 15H5.77851C5.21918 15 4.76899 15 4.40464 14.9702C4.02979 14.9396 3.70198 14.875 3.39915 14.7207C2.91698 14.475 2.52497 14.083 2.2793 13.6009C2.125 13.298 2.06039 12.9702 2.02976 12.5954C1.99999 12.231 2 11.7808 2 11.2215V4.77853C2 4.21919 1.99999 3.769 2.02976 3.40464C2.06039 3.02979 2.125 2.70198 2.2793 2.39915C2.52497 1.91698 2.91698 1.52497 3.39915 1.2793C3.70198 1.125 4.02979 1.06039 4.40464 1.02976C4.769 0.999992 5.21919 0.999996 5.77853 1Z"
        fill="#303233" />
    <path
        d="M10.8536 10.1464C10.6583 9.95118 10.3417 9.95118 10.1464 10.1464C9.95118 10.3417 9.95118 10.6583 10.1464 10.8536L11.5429 12.25L10.1464 13.6464C9.95118 13.8417 9.95118 14.1583 10.1464 14.3536C10.3417 14.5488 10.6583 14.5488 10.8536 14.3536L12.25 12.9571L13.6464 14.3536C13.8417 14.5488 14.1583 14.5488 14.3536 14.3536C14.5488 14.1583 14.5488 13.8417 14.3536 13.6464L12.9571 12.25L14.3536 10.8536C14.5488 10.6583 14.5488 10.3417 14.3536 10.1464C14.1583 9.95118 13.8417 9.95118 13.6464 10.1464L12.25 11.5429L10.8536 10.1464Z"
        fill="#303233" />
</svg>
