<svg width="24" height="24" viewBox="0 0 24 24" fill="none" xmlns="http://www.w3.org/2000/svg">
    <path
        d="M10.159 1H13.8361C14.3632 0.999984 14.818 0.99997 15.1926 1.03057C15.5879 1.06287 15.9811 1.13419 16.3595 1.32698C16.924 1.6146 17.3829 2.07355 17.6706 2.63803C17.7313 2.75735 17.7801 2.87814 17.8193 3.00001H6.17578C6.215 2.87814 6.26372 2.75735 6.32451 2.63803C6.61213 2.07355 7.07107 1.6146 7.63556 1.32698C8.01394 1.13419 8.40716 1.06287 8.8025 1.03057C9.17706 0.99997 9.63187 0.999984 10.159 1Z"
        fill="#303233" />
    <path
        d="M16.8371 4H7.15996C6.63283 3.99998 6.17804 3.99997 5.80348 4.03057C5.40813 4.06287 5.01492 4.13419 4.63654 4.32698C4.07205 4.6146 3.61311 5.07355 3.32549 5.63803C3.26469 5.75735 3.21598 5.87814 3.17676 6H20.8203C20.781 5.87814 20.7323 5.75735 20.6715 5.63803C20.3839 5.07355 19.925 4.6146 19.3605 4.32698C18.9821 4.13419 18.5889 4.06287 18.1935 4.03057C17.819 3.99997 17.3642 3.99998 16.8371 4Z"
        fill="#303233" />
    <path fill-rule="evenodd" clip-rule="evenodd"
        d="M11 10C9.34315 10 8 11.3431 8 13C8 14.6569 9.34315 16 11 16C12.6569 16 14 14.6569 14 13C14 11.3431 12.6569 10 11 10ZM10 13C10 12.4477 10.4477 12 11 12C11.5523 12 12 12.4477 12 13C12 13.5523 11.5523 14 11 14C10.4477 14 10 13.5523 10 13Z"
        fill="#303233" />
    <path fill-rule="evenodd" clip-rule="evenodd"
        d="M5.16146 7H18.8385C19.3657 6.99998 19.8205 6.99997 20.195 7.03057C20.5904 7.06287 20.9836 7.13419 21.362 7.32698C21.9265 7.6146 22.3854 8.07354 22.673 8.63803C22.8658 9.01641 22.9371 9.40963 22.9694 9.80497C23 10.1795 23 10.6343 23 11.1614V18.8386C23 19.3657 23 19.8205 22.9694 20.195C22.9371 20.5904 22.8658 20.9836 22.673 21.362C22.3854 21.9265 21.9265 22.3854 21.362 22.673C20.9836 22.8658 20.5904 22.9371 20.195 22.9694C19.8205 23 19.3658 23 18.8388 23H5.16148C4.63442 23 4.1795 23 3.80497 22.9694C3.40963 22.9371 3.01641 22.8658 2.63803 22.673C2.07354 22.3854 1.6146 21.9265 1.32698 21.362C1.13419 20.9836 1.06287 20.5904 1.03057 20.195C0.999969 19.8205 0.999984 19.3657 1 18.8386V11.1615C0.999984 10.6343 0.999969 10.1795 1.03057 9.80497C1.06287 9.40963 1.13419 9.01641 1.32698 8.63803C1.6146 8.07354 2.07354 7.6146 2.63803 7.32698C3.01641 7.13419 3.40963 7.06287 3.80497 7.03057C4.17955 6.99997 4.63431 6.99998 5.16146 7ZM18.8 21H11.4142L17 15.4142L20.9981 19.4124C20.9956 19.666 20.9898 19.8646 20.9761 20.0322C20.9539 20.3038 20.9162 20.4045 20.891 20.454C20.7951 20.6422 20.6422 20.7951 20.454 20.891C20.4045 20.9162 20.3038 20.9539 20.0322 20.9761C19.7488 20.9992 19.3766 21 18.8 21ZM11 18.5858L15.5858 14C16.3668 13.219 17.6332 13.219 18.4142 14L21 16.5858V11.2C21 10.6234 20.9992 10.2512 20.9761 9.96784C20.9539 9.69617 20.9162 9.59546 20.891 9.54601C20.7951 9.35785 20.6422 9.20487 20.454 9.109C20.4045 9.0838 20.3038 9.04613 20.0322 9.02393C19.7488 9.00078 19.3766 9 18.8 9H5.2C4.62345 9 4.25118 9.00078 3.96784 9.02393C3.69618 9.04613 3.59546 9.0838 3.54601 9.109C3.35785 9.20487 3.20487 9.35785 3.109 9.54601C3.0838 9.59546 3.04613 9.69617 3.02393 9.96784C3.00078 10.2512 3 10.6234 3 11.2V18.8C3 19.3766 3.00078 19.7488 3.02393 20.0322C3.04613 20.3038 3.0838 20.4045 3.109 20.454C3.11156 20.459 3.11416 20.464 3.1168 20.469L6.58579 17C7.36684 16.219 8.63317 16.219 9.41422 17L11 18.5858ZM5.41421 21L8 18.4142L9.58579 20L8.58579 21H5.41421Z"
        fill="#303233" />
</svg>
