<svg width="16" height="16" viewBox="0 0 16 16" fill="none" xmlns="http://www.w3.org/2000/svg">
    <path fill-rule="evenodd" clip-rule="evenodd"
        d="M3.93414 0.873479C4.22703 1.16637 4.22703 1.64125 3.93414 1.93414C1.68862 4.17965 1.68862 7.82035 3.93414 10.0659C5.05645 11.1882 6.52728 11.7496 7.99825 11.75C9.47039 11.7504 10.9427 11.1891 12.0659 10.0659C12.3588 9.77297 12.8336 9.77297 13.1265 10.0659C13.4194 10.3588 13.4194 10.8336 13.1265 11.1265C11.9019 12.3512 10.3482 13.0461 8.75 13.2113V13.75H10C10.4142 13.75 10.75 14.0858 10.75 14.5C10.75 14.9142 10.4142 15.25 10 15.25H6C5.58579 15.25 5.25 14.9142 5.25 14.5C5.25 14.0858 5.58579 13.75 6 13.75H7.25V13.2113C5.65185 13.0461 4.09811 12.3512 2.87348 11.1265C0.0421748 8.29523 0.0421748 3.70478 2.87348 0.873479C3.16637 0.580585 3.64124 0.580585 3.93414 0.873479ZM2.75 6C2.75 3.1005 5.1005 0.75 8 0.75C10.8995 0.75 13.25 3.1005 13.25 6C13.25 8.8995 10.8995 11.25 8 11.25C5.1005 11.25 2.75 8.8995 2.75 6Z"
        fill="#303233" />
</svg>
