<svg width="24" height="24" viewBox="0 0 24 24" fill="none" xmlns="http://www.w3.org/2000/svg">
    <path fill-rule="evenodd" clip-rule="evenodd"
        d="M1.29289 1.29289C1.68342 0.902369 2.31658 0.902369 2.70711 1.29289L22.7071 21.2929C23.0976 21.6834 23.0976 22.3166 22.7071 22.7071C22.3166 23.0976 21.6834 23.0976 21.2929 22.7071L17.1061 18.5203C16.373 19.4228 15.2546 20 14 20H5C2.79086 20 1 18.2091 1 16V8C1 6.48774 1.83921 5.17148 3.07732 4.49154L1.29289 2.70711C0.902369 2.31658 0.902369 1.68342 1.29289 1.29289ZM4.62154 6.03576C3.69794 6.21265 3 7.02482 3 8V16C3 17.1046 3.89543 18 5 18H14C14.7012 18 15.3196 17.6387 15.6768 17.091L4.62154 6.03576ZM14.089 6.03755C13.6389 6.00078 13.0566 6 12.2 6H9.5C8.94772 6 8.5 5.55228 8.5 5C8.5 4.44772 8.94772 4 9.5 4L12.2413 4C13.0463 3.99999 13.7106 3.99998 14.2518 4.04419C14.8139 4.09012 15.3306 4.18868 15.816 4.43597C16.5686 4.81947 17.1805 5.43139 17.564 6.18404C17.8113 6.66937 17.9099 7.18608 17.9558 7.74817C17.9968 8.25013 17.9998 8.85803 18 9.5858L19.9536 7.63222C20.1447 7.44101 20.3326 7.25308 20.4973 7.11519C20.6442 6.99217 20.9537 6.74547 21.3823 6.71173C21.861 6.67406 22.3288 6.86782 22.6406 7.23293C22.9198 7.55988 22.9642 7.95314 22.9811 8.14403C23.0001 8.35799 23 8.62373 23 8.8941V15.1059C23 15.3763 23.0001 15.642 22.9811 15.856C22.9642 16.0469 22.9198 16.4401 22.6406 16.7671C22.3288 17.1322 21.861 17.3259 21.3823 17.2883C20.9537 17.2545 20.6442 17.0078 20.4973 16.8848C20.3326 16.7469 20.1447 16.559 19.9536 16.3678L16.2929 12.7071C16.1054 12.5196 16 12.2652 16 12V9.8C16 8.94342 15.9992 8.36113 15.9624 7.91104C15.9266 7.47262 15.8617 7.24842 15.782 7.09202C15.5903 6.71569 15.2843 6.40973 14.908 6.21799C14.7516 6.1383 14.5274 6.07337 14.089 6.03755ZM18.4142 12L21 14.5858V9.41422L18.4142 12Z"
        fill="#303233" />
</svg>
