<svg width="24" height="24" viewBox="0 0 24 24" fill="none" xmlns="http://www.w3.org/2000/svg">
    <path fill-rule="evenodd" clip-rule="evenodd"
        d="M22 12C22 7.064 17.553 3 12 3C6.447 3 2 7.064 2 12C2 13.371 2.341 14.672 2.952 15.838C3.129 16.176 3.219 16.569 3.085 16.926L2.064 19.649C1.936 19.989 2.003 20.371 2.238 20.648C2.473 20.924 2.84 21.052 3.196 20.981L7.291 20.162C7.525 20.115 7.765 20.157 7.986 20.245C9.263 20.747 10.625 21.005 12.002 21C17.554 20.999 22 16.936 22 12Z"
        fill="#303233" />
</svg>
