<svg width="16" height="16" viewBox="0 0 16 16" fill="none" xmlns="http://www.w3.org/2000/svg">
    <g clip-path="url(#clip0_53_9578)">
        <path fill-rule="evenodd" clip-rule="evenodd"
            d="M5.5 0.25C5.91421 0.25 6.25 0.585786 6.25 1V1.75H9.75V1C9.75 0.585786 10.0858 0.25 10.5 0.25C10.9142 0.25 11.25 0.585786 11.25 1V1.75H13.0556C14.2099 1.75 15.25 2.62735 15.25 3.83333V13.1667C15.25 14.3727 14.2099 15.25 13.0556 15.25H2.94444C1.79014 15.25 0.75 14.3727 0.75 13.1667V3.83333C0.75 2.62735 1.79014 1.75 2.94444 1.75H4.75V1C4.75 0.585786 5.08579 0.25 5.5 0.25ZM9.75 3.25V4C9.75 4.41421 10.0858 4.75 10.5 4.75C10.9142 4.75 11.25 4.41421 11.25 4V3.25H13.0556C13.4967 3.25 13.75 3.56656 13.75 3.83333V5.16667C13.75 5.43344 13.4967 5.75 13.0556 5.75H2.94444C2.50326 5.75 2.25 5.43344 2.25 5.16667V3.83333C2.25 3.56656 2.50326 3.25 2.94444 3.25H4.75V4C4.75 4.41421 5.08579 4.75 5.5 4.75C5.91421 4.75 6.25 4.41421 6.25 4V3.25H9.75ZM8.75 8C8.75 7.58579 8.41421 7.25 8 7.25C7.58579 7.25 7.25 7.58579 7.25 8V9.25H6C5.58579 9.25 5.25 9.58579 5.25 10C5.25 10.4142 5.58579 10.75 6 10.75H7.25V12C7.25 12.4142 7.58579 12.75 8 12.75C8.41421 12.75 8.75 12.4142 8.75 12V10.75H10C10.4142 10.75 10.75 10.4142 10.75 10C10.75 9.58579 10.4142 9.25 10 9.25H8.75V8Z"
            fill="#303233" />
    </g>
    <defs>
        <clipPath id="clip0_53_9578">
            <rect width="16" height="16" fill="white" />
        </clipPath>
    </defs>
</svg>
