<svg width="24" height="24" viewBox="0 0 24 24" fill="none" xmlns="http://www.w3.org/2000/svg">
    <path fill-rule="evenodd" clip-rule="evenodd"
        d="M10.7067 1.29289C10.3161 0.902369 9.68296 0.902369 9.29244 1.29289L6.49977 4.08556L3.70711 1.29289C3.31658 0.902369 2.68342 0.902369 2.29289 1.29289C1.90237 1.68342 1.90237 2.31658 2.29289 2.70711L5.08556 5.49977L3.65735 6.92798C3.08815 7.49717 2.61836 7.96694 2.26694 8.38089C1.90195 8.81083 1.60628 9.24589 1.43796 9.76393C1.17693 10.5673 1.17693 11.4327 1.43796 12.2361C1.60628 12.7541 1.90195 13.1892 2.26694 13.6191C2.61836 14.0331 3.08815 14.5028 3.65736 15.072L5.92754 17.3422C6.49672 17.9114 6.96649 18.3812 7.38044 18.7326C7.81037 19.0976 8.24543 19.3933 8.76348 19.5616C9.56685 19.8226 10.4322 19.8226 11.2356 19.5616C11.7537 19.3933 12.1887 19.0976 12.6187 18.7326C13.0326 18.3812 13.5024 17.9114 14.0716 17.3422L19.7067 11.7071C20.0972 11.3166 20.0972 10.6834 19.7067 10.2929L10.7067 1.29289ZM6.49977 6.91399L5.10077 8.31299C4.49507 8.91869 4.08388 9.33098 3.79162 9.67525C3.50694 10.0106 3.39432 10.215 3.34007 10.382C3.20956 10.7837 3.20956 11.2163 3.34007 11.618C3.39432 11.785 3.50694 11.9894 3.79162 12.3248C4.08388 12.669 4.49507 13.0813 5.10076 13.687L7.31254 15.8988C7.91823 16.5045 8.33053 16.9157 8.67479 17.2079C9.01013 17.4926 9.21457 17.6052 9.38151 17.6595C9.7832 17.79 10.2159 17.79 10.6176 17.6595C10.7845 17.6052 10.989 17.4926 11.3243 17.2079C11.6686 16.9157 12.0809 16.5045 12.6865 15.8988L17.5853 11L9.99955 3.41421L7.91399 5.49977L9.70658 7.29237C10.0982 7.10495 10.5369 7 11 7C12.6569 7 14 8.34315 14 10C14 11.6569 12.6569 13 11 13C9.34315 13 8 11.6569 8 10C8 9.53685 8.10495 9.09822 8.29237 8.70658L6.49977 6.91399ZM11 9C10.4477 9 10 9.44772 10 10C10 10.5523 10.4477 11 11 11C11.5523 11 12 10.5523 12 10C12 9.44772 11.5523 9 11 9Z"
        fill="#303233" />
    <path fill-rule="evenodd" clip-rule="evenodd"
        d="M20.4231 14.6154C20.2678 14.2427 19.9037 14 19.5 14C19.0963 14 18.7322 14.2427 18.5769 14.6154L16.0769 20.6154C15.9483 20.924 15.9825 21.2765 16.168 21.5547C16.3534 21.8329 16.6657 22 17 22H22C22.3344 22 22.6466 21.8329 22.8321 21.5547C23.0175 21.2765 23.0517 20.924 22.9231 20.6154L20.4231 14.6154ZM19.5 17.6L20.5 20H18.5L19.5 17.6Z"
        fill="#303233" />
</svg>
