<svg width="24" height="24" viewBox="0 0 24 24" fill="none" xmlns="http://www.w3.org/2000/svg">
    <path fill-rule="evenodd" clip-rule="evenodd"
        d="M10.4634 2.78454C10.3397 2.75482 10.1994 2.75 9.67457 2.75L5.20006 2.75C4.62763 2.75 4.24341 2.75058 3.94753 2.77476C3.66041 2.79822 3.52313 2.8401 3.43257 2.88624C3.19736 3.00609 3.00614 3.19731 2.8863 3.43251C2.84015 3.52307 2.79827 3.66036 2.77481 3.94748C2.75064 4.24336 2.75006 4.62757 2.75006 5.2L2.75005 9.67452C2.75005 10.1994 2.75487 10.3396 2.78459 10.4634C2.81521 10.5909 2.86572 10.7129 2.93425 10.8247C3.00077 10.9332 3.0965 11.0358 3.46764 11.4069L11.1363 19.0756C11.739 19.6783 12.1596 20.0981 12.5135 20.3985C12.8607 20.6932 13.0939 20.8287 13.3048 20.8972C13.7567 21.0441 14.2434 21.0441 14.6953 20.8972C14.9062 20.8287 15.1394 20.6932 15.4866 20.3985C15.8405 20.0981 16.2611 19.6783 16.8638 19.0756L19.0756 16.8638C19.6784 16.261 20.0982 15.8404 20.3986 15.4865C20.6933 15.1394 20.8288 14.9061 20.8973 14.6953C21.0441 14.2434 21.0441 13.7566 20.8973 13.3047C20.8288 13.0939 20.6933 12.8606 20.3986 12.5135C20.0982 12.1596 19.6784 11.739 19.0756 11.1362L11.407 3.46759C11.0358 3.09644 10.9333 3.00072 10.8247 2.9342C10.7129 2.86566 10.591 2.81516 10.4634 2.78454ZM9.74704 1.24997C10.1657 1.24973 10.4952 1.24954 10.8136 1.32598C11.0942 1.39335 11.3624 1.50446 11.6085 1.65524C11.8877 1.82634 12.1206 2.05949 12.4164 2.35566C12.4333 2.37255 12.4503 2.38964 12.4676 2.40693L20.159 10.0983C20.7338 10.673 21.1973 11.1366 21.5421 11.5427C21.897 11.9608 22.1698 12.367 22.3239 12.8412C22.5686 13.5943 22.5686 14.4057 22.3239 15.1588C22.1698 15.633 21.897 16.0392 21.5421 16.4573C21.1973 16.8634 20.7338 17.327 20.159 17.9017L17.9018 20.1589C17.327 20.7337 16.8635 21.1973 16.4574 21.542C16.0393 21.897 15.633 22.1698 15.1589 22.3238C14.4057 22.5685 13.5944 22.5685 12.8412 22.3238C12.3671 22.1698 11.9608 21.897 11.5427 21.542C11.1367 21.1973 10.6731 20.7337 10.0984 20.159L2.40698 12.4676C2.38969 12.4503 2.3726 12.4332 2.35572 12.4164C2.05954 12.1205 1.82639 11.8877 1.65529 11.6084C1.50452 11.3624 1.3934 11.0941 1.32604 10.8135C1.24959 10.4951 1.24978 10.1656 1.25003 9.74699C1.25004 9.72313 1.25005 9.69897 1.25005 9.67452L1.25005 5.16957C1.25004 4.63541 1.25004 4.18956 1.27979 3.82533C1.31083 3.44545 1.37794 3.08879 1.54979 2.75153C1.81344 2.23408 2.23414 1.81339 2.75158 1.54973C3.08884 1.37789 3.4455 1.31078 3.82539 1.27974C4.18962 1.24998 4.63547 1.24999 5.16962 1.25L9.67457 1.25C9.69903 1.25 9.72318 1.24999 9.74704 1.24997ZM6.75006 8C6.75006 7.30965 7.3097 6.75 8.00006 6.75C8.69041 6.75 9.25006 7.30965 9.25006 8C9.25006 8.69036 8.69041 9.25 8.00006 9.25C7.3097 9.25 6.75006 8.69036 6.75006 8Z"
        fill="#303233" />
</svg>
