<svg width="16" height="16" viewBox="0 0 16 16" fill="none" xmlns="http://www.w3.org/2000/svg">
    <path fill-rule="evenodd" clip-rule="evenodd"
        d="M6.5 1.25C3.6005 1.25 1.25 3.6005 1.25 6.5C1.25 9.3995 3.6005 11.75 6.5 11.75C7.67925 11.75 8.76769 11.3612 9.64413 10.7048L13.4696 14.5303C13.7625 14.8232 14.2374 14.8232 14.5303 14.5303C14.8232 14.2374 14.8232 13.7626 14.5303 13.4697L10.7048 9.64413C11.3612 8.76769 11.75 7.67925 11.75 6.5C11.75 3.6005 9.3995 1.25 6.5 1.25ZM2.75 6.5C2.75 4.42893 4.42893 2.75 6.5 2.75C8.57107 2.75 10.25 4.42893 10.25 6.5C10.25 8.57107 8.57107 10.25 6.5 10.25C4.42893 10.25 2.75 8.57107 2.75 6.5Z"
        fill="#303233" />
</svg>
