<svg width="24" height="24" viewBox="0 0 24 24" fill="none" xmlns="http://www.w3.org/2000/svg">
    <path fill-rule="evenodd" clip-rule="evenodd"
        d="M2.92973 12C3.81355 13.0954 5.09705 13.8679 6.60376 14.3869C6.8801 14.4821 7.16252 14.5682 7.44953 14.6459C7.32912 13.7558 7.26791 12.8676 7.25016 12.0156C7.24995 12.0052 7.24995 11.9948 7.25016 11.9844C7.26791 11.1324 7.32911 10.2442 7.44952 9.35411C7.16251 9.43177 6.8801 9.5179 6.60376 9.61308C5.09705 10.1321 3.81355 10.9046 2.92973 12ZM9.01677 9.01677C8.85304 10.0077 8.77122 11.0202 8.75017 12C8.77122 12.9798 8.85304 13.9923 9.01678 14.9832C10.0077 15.147 11.0202 15.2288 12 15.2498C12.9798 15.2288 13.9923 15.147 14.9832 14.9832C15.147 13.9923 15.2288 12.9798 15.2498 12C15.2288 11.0202 15.147 10.0077 14.9832 9.01678C13.9923 8.85304 12.9798 8.77122 12 8.75017C11.0202 8.77122 10.0077 8.85304 9.01677 9.01677ZM14.6459 7.44953C13.7558 7.32912 12.8676 7.26791 12.0156 7.25016C12.0052 7.24995 11.9948 7.24995 11.9844 7.25016C11.1324 7.26791 10.2442 7.32911 9.35411 7.44952C9.43177 7.16251 9.5179 6.8801 9.61308 6.60376C10.1321 5.09705 10.9046 3.81355 12 2.92973C13.0954 3.81355 13.8679 5.09705 14.3869 6.60376C14.4821 6.8801 14.5682 7.16252 14.6459 7.44953ZM16.5505 9.35411C16.6709 10.2442 16.7321 11.1324 16.7498 11.9844C16.7501 11.9948 16.7501 12.0052 16.7498 12.0156C16.7321 12.8676 16.6709 13.7558 16.5505 14.6459C16.8375 14.5682 17.1199 14.4821 17.3962 14.3869C18.9029 13.8679 20.1864 13.0954 21.0703 12C20.1864 10.9046 18.9029 10.1321 17.3962 9.61308C17.1199 9.5179 16.8375 9.43177 16.5505 9.35411ZM20.9958 14.1627C20.077 14.886 19.0068 15.4187 17.8847 15.8051C17.3568 15.987 16.8131 16.138 16.2621 16.2621C16.138 16.8131 15.987 17.3568 15.8051 17.8847C15.4187 19.0068 14.886 20.077 14.1627 20.9958C17.5343 20.1882 20.1882 17.5343 20.9958 14.1627ZM12 21.0703C13.0954 20.1864 13.8679 18.903 14.3869 17.3962C14.4821 17.1199 14.5682 16.8375 14.6459 16.5505C13.7558 16.6709 12.8676 16.7321 12.0156 16.7498C12.0052 16.7501 11.9948 16.7501 11.9844 16.7498C11.1324 16.7321 10.2442 16.6709 9.35411 16.5505C9.43177 16.8375 9.5179 17.1199 9.61308 17.3962C10.1321 18.9029 10.9046 20.1864 12 21.0703ZM7.73792 16.2621C7.18692 16.138 6.64324 15.987 6.11527 15.8051C4.99323 15.4187 3.92304 14.886 3.00419 14.1627C3.81181 17.5343 6.46572 20.1882 9.83733 20.9958C9.11399 20.077 8.58133 19.0068 8.19486 17.8847C8.013 17.3568 7.86198 16.8131 7.73792 16.2621ZM3.00419 9.83733C3.92304 9.11399 4.99322 8.58133 6.11527 8.19485C6.64324 8.013 7.18691 7.86198 7.73792 7.73792C7.86197 7.18691 8.013 6.64324 8.19485 6.11527C8.58133 4.99322 9.11399 3.92304 9.83733 3.00419C6.46572 3.8118 3.8118 6.46572 3.00419 9.83733ZM14.1627 3.00419C14.886 3.92303 15.4187 4.99322 15.8051 6.11526C15.987 6.64324 16.138 7.18691 16.2621 7.73792C16.8131 7.86198 17.3568 8.013 17.8847 8.19485C19.0068 8.58133 20.077 9.11399 20.9958 9.83734C20.1882 6.46572 17.5343 3.8118 14.1627 3.00419ZM1.25 12C1.25 6.06294 6.06294 1.25 12 1.25C17.9371 1.25 22.75 6.06294 22.75 12C22.75 17.9371 17.9371 22.75 12 22.75C6.06294 22.75 1.25 17.9371 1.25 12Z"
        fill="#303233" />
</svg>
