<svg width="24" height="24" viewBox="0 0 24 24" fill="none" xmlns="http://www.w3.org/2000/svg">
    <path fill-rule="evenodd" clip-rule="evenodd"
        d="M8.05608 5.4844L13.9207 10.1761C14.1718 10.3769 14.3978 10.5577 14.57 10.7227C14.7522 10.8971 14.9382 11.1121 15.0434 11.4008C15.1845 11.7878 15.1845 12.2122 15.0434 12.5992C14.9382 12.8879 14.7522 13.1029 14.57 13.2773C14.3978 13.4423 14.1718 13.623 13.9207 13.8239L8.05607 18.5156C7.65702 18.8349 7.31711 19.1068 7.03185 19.2948C6.75157 19.4795 6.39651 19.6735 5.98224 19.6693C5.46309 19.664 4.97307 19.4285 4.64465 19.0264C4.38257 18.7055 4.31221 18.3071 4.28136 17.9729C4.24997 17.6327 4.24998 17.1974 4.25 16.6863V7.31369C4.24998 6.80264 4.24997 6.36732 4.28136 6.02712C4.31221 5.69287 4.38257 5.29446 4.64465 4.9736C4.97307 4.5715 5.46309 4.33598 5.98224 4.33072C6.39651 4.32651 6.75157 4.52045 7.03185 4.70517C7.31711 4.89318 7.65703 5.16513 8.05608 5.4844ZM5.97908 5.8315C5.91792 5.83663 5.86075 5.86411 5.81854 5.90866C5.81184 5.92838 5.79038 5.99852 5.77502 6.16496C5.75077 6.42769 5.75 6.7927 5.75 7.34981V16.6502C5.75 17.2073 5.75077 17.5723 5.77502 17.835C5.79038 18.0015 5.81184 18.0716 5.81854 18.0913C5.86075 18.1359 5.91792 18.1634 5.97908 18.1685C5.99867 18.1614 6.06685 18.1344 6.2064 18.0424C6.42671 17.8972 6.71221 17.6698 7.14724 17.3217L12.96 12.6715C13.2423 12.4457 13.4146 12.307 13.5324 12.1941C13.6043 12.1252 13.6296 12.0898 13.6362 12.0797C13.6536 12.028 13.6536 11.972 13.6362 11.9203C13.6296 11.9102 13.6043 11.8748 13.5324 11.8059C13.4146 11.693 13.2423 11.5543 12.96 11.3285L7.14724 6.67826C6.71221 6.33024 6.42671 6.10282 6.2064 5.95763C6.06684 5.86565 5.99867 5.83859 5.97908 5.8315Z"
        fill="#303233" />
    <path fill-rule="evenodd" clip-rule="evenodd"
        d="M19 4.25C19.4142 4.25 19.75 4.58579 19.75 5V19C19.75 19.4142 19.4142 19.75 19 19.75C18.5858 19.75 18.25 19.4142 18.25 19V5C18.25 4.58579 18.5858 4.25 19 4.25Z"
        fill="#303233" />
</svg>
