<svg width="24" height="24" viewBox="0 0 24 24" fill="none" xmlns="http://www.w3.org/2000/svg">
    <path fill-rule="evenodd" clip-rule="evenodd"
        d="M14 5.5C14 3.567 15.567 2 17.5 2C19.433 2 21 3.567 21 5.5C21 7.433 19.433 9 17.5 9C16.5572 9 15.7015 8.62723 15.0722 8.02104L9.86465 10.9644C9.95293 11.2947 10 11.6419 10 12C10 12.3094 9.96487 12.6106 9.89837 12.8999L13.9821 15.0234C14.8932 13.7957 16.3537 13 18 13C20.7614 13 23 15.2386 23 18C23 20.7614 20.7614 23 18 23C15.2386 23 13 20.7614 13 18C13 17.5998 13.047 17.2106 13.1358 16.8376L8.97495 14.6739C8.24273 15.4881 7.18115 16 6 16C3.79086 16 2 14.2091 2 12C2 9.79086 3.79086 8 6 8C7.13088 8 8.15215 8.4693 8.87968 9.22377L14.0873 6.28033C14.0302 6.02941 14 5.76823 14 5.5ZM17.5 4C16.6716 4 16 4.67157 16 5.5C16 6.32843 16.6716 7 17.5 7C18.3284 7 19 6.32843 19 5.5C19 4.67157 18.3284 4 17.5 4ZM6 10C4.89543 10 4 10.8954 4 12C4 13.1046 4.89543 14 6 14C7.10457 14 8 13.1046 8 12C8 10.8954 7.10457 10 6 10ZM15 18C15 16.3431 16.3431 15 18 15C19.6569 15 21 16.3431 21 18C21 19.6569 19.6569 21 18 21C16.3431 21 15 19.6569 15 18Z"
        fill="#303233" />
</svg>
