<svg width="24" height="24" viewBox="0 0 24 24" fill="none" xmlns="http://www.w3.org/2000/svg">
    <path fill-rule="evenodd" clip-rule="evenodd"
        d="M4.87594 2.91931C4.16764 2.46123 3.25 2.97826 3.25 3.80648V8.19349C3.25 9.02171 4.16764 9.53873 4.87594 9.08066L8.26761 6.88716C8.9108 6.47118 8.9108 5.52878 8.26761 5.11281L4.87594 2.91931ZM4.75 7.37574V4.62423L6.87725 5.99998L4.75 7.37574Z"
        fill="#303233" />
    <path
        d="M11.25 6C11.25 5.58579 11.5858 5.25 12 5.25H20C20.4142 5.25 20.75 5.58579 20.75 6C20.75 6.41421 20.4142 6.75 20 6.75H12C11.5858 6.75 11.25 6.41421 11.25 6Z"
        fill="#303233" />
    <path
        d="M4 11.25C3.58579 11.25 3.25 11.5858 3.25 12C3.25 12.4142 3.58579 12.75 4 12.75L20 12.75C20.4142 12.75 20.75 12.4142 20.75 12C20.75 11.5858 20.4142 11.25 20 11.25L4 11.25Z"
        fill="#303233" />
    <path
        d="M4 17.25C3.58579 17.25 3.25 17.5858 3.25 18C3.25 18.4142 3.58579 18.75 4 18.75H20C20.4142 18.75 20.75 18.4142 20.75 18C20.75 17.5858 20.4142 17.25 20 17.25H4Z"
        fill="#303233" />
</svg>
