<svg width="24" height="24" viewBox="0 0 24 24" fill="none" xmlns="http://www.w3.org/2000/svg">
    <path
        d="M20.75 1C20.75 0.585786 20.4142 0.25 20 0.25C19.5858 0.25 19.25 0.585786 19.25 1V3.25H17C16.5858 3.25 16.25 3.58579 16.25 4C16.25 4.41421 16.5858 4.75 17 4.75H19.25V7C19.25 7.41421 19.5858 7.75 20 7.75C20.4142 7.75 20.75 7.41421 20.75 7V4.75H23C23.4142 4.75 23.75 4.41421 23.75 4C23.75 3.58579 23.4142 3.25 23 3.25H20.75V1Z"
        fill="#303233" />
    <path
        d="M12 2.75C6.89137 2.75 2.75 6.89137 2.75 12C2.75 17.1086 6.89137 21.25 12 21.25C17.1086 21.25 21.25 17.1086 21.25 12C21.25 11.6873 21.2345 11.3784 21.2043 11.0741C21.1634 10.6619 21.4643 10.2946 21.8765 10.2537C22.2887 10.2127 22.656 10.5137 22.697 10.9259C22.7321 11.2794 22.75 11.6377 22.75 12C22.75 17.9371 17.9371 22.75 12 22.75C6.06294 22.75 1.25 17.9371 1.25 12C1.25 6.06294 6.06294 1.25 12 1.25C12.3623 1.25 12.7206 1.26795 13.0741 1.30304C13.4863 1.34397 13.7873 1.71129 13.7463 2.12348C13.7054 2.53566 13.3381 2.83663 12.9259 2.79571C12.6216 2.76549 12.3127 2.75 12 2.75Z"
        fill="#303233" />
    <path
        d="M13.75 9C13.75 8.30964 14.3059 7.75 14.9917 7.75H15.0083C15.6941 7.75 16.25 8.30964 16.25 9C16.25 9.69036 15.6941 10.25 15.0083 10.25H14.9917C14.3059 10.25 13.75 9.69036 13.75 9Z"
        fill="#303233" />
    <path
        d="M11.995 16.75C10.5408 16.7487 9.39093 16.1662 8.62142 15.6066C8.23481 15.3254 7.93597 15.0443 7.73199 14.8314C7.62969 14.7247 7.55036 14.6342 7.4949 14.5681C7.46742 14.5354 7.44573 14.5085 7.42994 14.4886L7.40992 14.463L7.40387 14.4551L7.40149 14.4519L7.40069 14.4509L7.39998 14.4499C7.15153 14.1186 7.2187 13.6485 7.55004 13.4C7.88037 13.1523 8.34853 13.2182 8.59765 13.5469L8.60478 13.556L8.60553 13.5569C8.6129 13.5662 8.62572 13.5822 8.64386 13.6038C8.6802 13.6471 8.73758 13.7128 8.81497 13.7936C8.97037 13.9557 9.20278 14.1746 9.50367 14.3935C10.1084 14.8333 10.9568 15.25 12 15.25C13.0433 15.25 13.8917 14.8333 14.4964 14.3935C14.7973 14.1746 15.0297 13.9557 15.1851 13.7936C15.2625 13.7128 15.3199 13.6471 15.3562 13.6038C15.3744 13.5822 15.3872 13.5662 15.3946 13.5569L15.3953 13.556L15.4025 13.5469C15.6516 13.2182 16.1197 13.1523 16.4501 13.4C16.7814 13.6485 16.8486 14.1186 16.6001 14.4499L16.5986 14.4519L16.5962 14.4551L16.5902 14.463L16.5702 14.4886C16.5544 14.5085 16.5327 14.5354 16.5052 14.5681C16.4497 14.6342 16.3704 14.7247 16.2681 14.8314C16.0641 15.0443 15.7653 15.3254 15.3787 15.6066C14.6092 16.1662 13.4493 16.7487 11.995 16.75Z"
        fill="#303233" />
    <path
        d="M8.99172 7.75C8.30594 7.75 7.75 8.30964 7.75 9C7.75 9.69036 8.30594 10.25 8.99172 10.25H9.00828C9.69406 10.25 10.25 9.69036 10.25 9C10.25 8.30964 9.69406 7.75 9.00828 7.75H8.99172Z"
        fill="#303233" />
</svg>
