<svg width="24" height="24" viewBox="0 0 24 24" fill="none" xmlns="http://www.w3.org/2000/svg">
    <path fill-rule="evenodd" clip-rule="evenodd"
        d="M6.57514 3.23335C10.0728 1.92173 13.9272 1.92173 17.4249 3.23335L18.9656 3.81112C20.0389 4.21362 20.75 5.23971 20.75 6.38603V12C20.75 14.8673 19.1138 17.2553 17.3738 18.993C15.6226 20.742 13.6652 21.9346 12.8031 22.419C12.3005 22.7014 11.6995 22.7014 11.1969 22.419C10.3348 21.9346 8.37744 20.742 6.62617 18.993C4.88625 17.2553 3.25 14.8673 3.25 12V6.38603C3.25 5.23971 3.96107 4.21362 5.03441 3.81112L6.57514 3.23335ZM16.8982 4.63784C13.7401 3.45356 10.2599 3.45356 7.10183 4.63784L5.5611 5.21562C5.07322 5.39857 4.75 5.86497 4.75 6.38603V12C4.75 14.2832 6.06125 16.3088 7.68615 17.9316C9.2997 19.5431 11.1245 20.6578 11.9317 21.1113C11.9779 21.1373 12.0221 21.1373 12.0683 21.1113C12.8755 20.6578 14.7003 19.5431 16.3139 17.9316C17.9387 16.3088 19.25 14.2832 19.25 12V6.38603C19.25 5.86497 18.9268 5.39857 18.4389 5.21562L16.8982 4.63784Z"
        fill="#303233" />
    <path
        d="M12 11.25C12.4142 11.25 12.75 11.5858 12.75 12V16C12.75 16.4142 12.4142 16.75 12 16.75C11.5858 16.75 11.25 16.4142 11.25 16V12C11.25 11.5858 11.5858 11.25 12 11.25Z"
        fill="#303233" />
    <path
        d="M12 7.25C11.5858 7.25 11.25 7.58579 11.25 8C11.25 8.41421 11.5858 8.75 12 8.75H12.01C12.4242 8.75 12.76 8.41421 12.76 8C12.76 7.58579 12.4242 7.25 12.01 7.25H12Z"
        fill="#303233" />
</svg>
