<svg width="24" height="24" viewBox="0 0 24 24" fill="none" xmlns="http://www.w3.org/2000/svg">
    <path
        d="M4 1C2.34315 1 1 2.34315 1 4V6C1 6.55228 1.44772 7 2 7C2.55228 7 3 6.55228 3 6V4C3 3.44772 3.44772 3 4 3H6C6.55228 3 7 2.55228 7 2C7 1.44772 6.55228 1 6 1H4Z"
        fill="#303233" />
    <path
        d="M10 1C9.44772 1 9 1.44772 9 2C9 2.55228 9.44772 3 10 3H14C14.5523 3 15 2.55228 15 2C15 1.44772 14.5523 1 14 1H10Z"
        fill="#303233" />
    <path
        d="M18 1C17.4477 1 17 1.44772 17 2C17 2.55228 17.4477 3 18 3H20C20.5523 3 21 3.44772 21 4V6C21 6.55228 21.4477 7 22 7C22.5523 7 23 6.55228 23 6V4C23 2.34315 21.6569 1 20 1H18Z"
        fill="#303233" />
    <path
        d="M3 10C3 9.44772 2.55228 9 2 9C1.44772 9 1 9.44772 1 10V14C1 14.5523 1.44772 15 2 15C2.55228 15 3 14.5523 3 14V10Z"
        fill="#303233" />
    <path
        d="M23 10C23 9.44772 22.5523 9 22 9C21.4477 9 21 9.44772 21 10V14C21 14.5523 21.4477 15 22 15C22.5523 15 23 14.5523 23 14V10Z"
        fill="#303233" />
    <path
        d="M3 18C3 17.4477 2.55228 17 2 17C1.44772 17 1 17.4477 1 18V20C1 21.6569 2.34315 23 4 23H6C6.55228 23 7 22.5523 7 22C7 21.4477 6.55228 21 6 21H4C3.44772 21 3 20.5523 3 20V18Z"
        fill="#303233" />
    <path
        d="M23 18C23 17.4477 22.5523 17 22 17C21.4477 17 21 17.4477 21 18V20C21 20.5523 20.5523 21 20 21H18C17.4477 21 17 21.4477 17 22C17 22.5523 17.4477 23 18 23H20C21.6569 23 23 21.6569 23 20V18Z"
        fill="#303233" />
    <path
        d="M10 21C9.44772 21 9 21.4477 9 22C9 22.5523 9.44772 23 10 23H14C14.5523 23 15 22.5523 15 22C15 21.4477 14.5523 21 14 21H10Z"
        fill="#303233" />
    <path
        d="M5 4C4.44772 4 4 4.44772 4 5V19C4 19.5523 4.44772 20 5 20H19C19.5523 20 20 19.5523 20 19V5C20 4.44772 19.5523 4 19 4H5Z"
        fill="#303233" />
</svg>
