<svg width="16" height="16" viewBox="0 0 16 16" fill="none" xmlns="http://www.w3.org/2000/svg">
    <path fill-rule="evenodd" clip-rule="evenodd"
        d="M10.5684 3.24998C10.8735 3.24969 11.1426 3.24944 11.4039 3.31218C11.6335 3.3673 11.853 3.45821 12.0543 3.58157C12.2835 3.722 12.4735 3.91244 12.6891 4.12843C12.7037 4.14305 12.7184 4.15778 12.7333 4.17263L14.9175 6.35683C15.0996 6.5389 15.2668 6.70611 15.3952 6.85732C15.5336 7.02034 15.6703 7.21341 15.7501 7.45924C15.8643 7.81071 15.8643 8.18932 15.7501 8.54079C15.6703 8.78662 15.5336 8.97969 15.3952 9.14271C15.2668 9.29391 15.0996 9.46112 14.9175 9.64318L12.7333 11.8274C12.7184 11.8423 12.7037 11.857 12.6891 11.8716C12.4735 12.0876 12.2835 12.278 12.0543 12.4185C11.853 12.5418 11.6335 12.6327 11.4039 12.6878C11.1426 12.7506 10.8735 12.7503 10.5684 12.7501C10.5477 12.75 10.5269 12.75 10.5059 12.75H3.87108C3.47572 12.75 3.13466 12.75 2.85373 12.7271C2.55722 12.7029 2.26231 12.6494 1.97852 12.5048C1.55516 12.2891 1.21095 11.9449 0.995237 11.5215C0.850641 11.2377 0.797154 10.9428 0.772928 10.6463C0.749976 10.3654 0.749987 10.0243 0.750001 9.62892V6.37111C0.749987 5.97575 0.749976 5.63467 0.772928 5.35374C0.797154 5.05724 0.850641 4.76232 0.995237 4.47854C1.21095 4.05517 1.55516 3.71097 1.97852 3.49525C2.26231 3.35065 2.55722 3.29717 2.85373 3.27294C3.13466 3.24999 3.47573 3.25 3.87109 3.25001L10.5059 3.25002C10.5269 3.25002 10.5477 3.25 10.5684 3.24998Z"
        fill="#303233" />
</svg>
