<svg width="16" height="16" viewBox="0 0 16 16" fill="none" xmlns="http://www.w3.org/2000/svg">
    <path fill-rule="evenodd" clip-rule="evenodd"
        d="M3 5C3 3.34315 4.34315 2 6 2C7.65685 2 9 3.34315 9 5C9 6.65685 7.65685 8 6 8C4.34315 8 3 6.65685 3 5ZM6 3C4.89543 3 4 3.89543 4 5C4 6.10457 4.89543 7 6 7C7.10457 7 8 6.10457 8 5C8 3.89543 7.10457 3 6 3Z"
        fill="#303233" />
    <path
        d="M13 5.5C13 5.22386 12.7761 5 12.5 5C12.2239 5 12 5.22386 12 5.5V7H10.5C10.2239 7 10 7.22386 10 7.5C10 7.77614 10.2239 8 10.5 8H12V9.5C12 9.77614 12.2239 10 12.5 10C12.7761 10 13 9.77614 13 9.5V8H14.5C14.7761 8 15 7.77614 15 7.5C15 7.22386 14.7761 7 14.5 7H13V5.5Z"
        fill="#303233" />
    <path
        d="M1.58971 13.5995C2.00661 11.5457 3.82321 10 5.99969 10C8.17617 10 9.99276 11.5457 10.4097 13.5995C10.4646 13.8701 10.7285 14.0449 10.9991 13.99C11.2698 13.9351 11.4446 13.6712 11.3897 13.4005C10.88 10.8899 8.66112 9 5.99969 9C3.33825 9 1.11934 10.8899 0.609701 13.4005C0.554767 13.6712 0.729618 13.9351 1.00024 13.99C1.27086 14.0449 1.53478 13.8701 1.58971 13.5995Z"
        fill="#303233" />
</svg>
