<svg width="16" height="16" viewBox="0 0 16 16" fill="none" xmlns="http://www.w3.org/2000/svg">
    <path
        d="M14 8C14 6.067 12.433 4.5 10.5 4.5H5.5C3.567 4.5 2 6.067 2 8C2 9.933 3.567 11.5 5.5 11.5H10.5C12.433 11.5 14 9.933 14 8ZM7 8C7 7.17157 6.32843 6.5 5.5 6.5C4.67157 6.5 4 7.17157 4 8C4 8.82843 4.67157 9.5 5.5 9.5C6.32843 9.5 7 8.82843 7 8ZM8 8C8 9.38071 6.88071 10.5 5.5 10.5C4.11929 10.5 3 9.38071 3 8C3 6.61929 4.11929 5.5 5.5 5.5C6.88071 5.5 8 6.61929 8 8ZM15 8C15 10.4853 12.9853 12.5 10.5 12.5H5.5C3.01472 12.5 1 10.4853 1 8C1 5.51472 3.01472 3.5 5.5 3.5H10.5C12.9853 3.5 15 5.51472 15 8Z"
        fill="#303233" />
</svg>
