<svg width="16" height="16" viewBox="0 0 16 16" fill="none" xmlns="http://www.w3.org/2000/svg">
    <g clip-path="url(#clip0_53_10138)">
        <path
            d="M8.53033 4.96967C8.82322 5.26256 8.82322 5.73744 8.53033 6.03033L7.31066 7.25H10.5C10.9142 7.25 11.25 7.58579 11.25 8C11.25 8.41421 10.9142 8.75 10.5 8.75H7.31066L8.53033 9.96967C8.82322 10.2626 8.82322 10.7374 8.53033 11.0303C8.23744 11.3232 7.76256 11.3232 7.46967 11.0303L4.96967 8.53033C4.8238 8.38446 4.75057 8.19344 4.75 8.00225L4.75 8L4.75 7.99775C4.7503 7.89688 4.77051 7.80069 4.80691 7.71291C4.84351 7.62445 4.89776 7.54158 4.96967 7.46967L7.46967 4.96967C7.76256 4.67678 8.23744 4.67678 8.53033 4.96967Z"
            fill="#303233" />
        <path fill-rule="evenodd" clip-rule="evenodd"
            d="M0.75 8C0.75 3.99594 3.99594 0.75 8 0.75C12.0041 0.75 15.25 3.99594 15.25 8C15.25 12.0041 12.0041 15.25 8 15.25C3.99594 15.25 0.75 12.0041 0.75 8ZM8 2.25C4.82436 2.25 2.25 4.82436 2.25 8C2.25 11.1756 4.82436 13.75 8 13.75C11.1756 13.75 13.75 11.1756 13.75 8C13.75 4.82436 11.1756 2.25 8 2.25Z"
            fill="#303233" />
    </g>
    <defs>
        <clipPath id="clip0_53_10138">
            <rect width="16" height="16" fill="white" />
        </clipPath>
    </defs>
</svg>
