<svg width="16" height="16" viewBox="0 0 16 16" fill="none" xmlns="http://www.w3.org/2000/svg">
    <path
        d="M2.94444 1C2.42875 1 1.93417 1.20486 1.56951 1.56951C1.20486 1.93417 1 2.42875 1 2.94444V5.11111C1 5.38725 1.22386 5.61111 1.5 5.61111C1.77614 5.61111 2 5.38725 2 5.11111V2.94444C2 2.69396 2.0995 2.45374 2.27662 2.27662C2.45374 2.0995 2.69396 2 2.94444 2H5.11111C5.38725 2 5.61111 1.77614 5.61111 1.5C5.61111 1.22386 5.38725 1 5.11111 1H2.94444Z"
        fill="#303233" />
    <path
        d="M10.8889 1C10.6127 1 10.3889 1.22386 10.3889 1.5C10.3889 1.77614 10.6127 2 10.8889 2H13.0556C13.306 2 13.5463 2.0995 13.7234 2.27662C13.9005 2.45374 14 2.69396 14 2.94444V5.11111C14 5.38725 14.2239 5.61111 14.5 5.61111C14.7761 5.61111 15 5.38725 15 5.11111V2.94444C15 2.42875 14.7951 1.93417 14.4305 1.56951C14.0658 1.20486 13.5713 1 13.0556 1H10.8889Z"
        fill="#303233" />
    <path
        d="M2 10.8889C2 10.6127 1.77614 10.3889 1.5 10.3889C1.22386 10.3889 1 10.6127 1 10.8889V13.0556C1 13.5713 1.20486 14.0658 1.56951 14.4305C1.93417 14.7951 2.42875 15 2.94444 15H5.11111C5.38725 15 5.61111 14.7761 5.61111 14.5C5.61111 14.2239 5.38725 14 5.11111 14H2.94444C2.69396 14 2.45374 13.9005 2.27662 13.7234C2.0995 13.5463 2 13.306 2 13.0556V10.8889Z"
        fill="#303233" />
    <path
        d="M15 10.8889C15 10.6127 14.7761 10.3889 14.5 10.3889C14.2239 10.3889 14 10.6127 14 10.8889V13.0556C14 13.306 13.9005 13.5463 13.7234 13.7234C13.5463 13.9005 13.306 14 13.0556 14H10.8889C10.6127 14 10.3889 14.2239 10.3889 14.5C10.3889 14.7761 10.6127 15 10.8889 15H13.0556C13.5713 15 14.0658 14.7951 14.4305 14.4305C14.7951 14.0658 15 13.5713 15 13.0556V10.8889Z"
        fill="#303233" />
    <path
        d="M4.5 7.5C4.22386 7.5 4 7.72386 4 8C4 8.27614 4.22386 8.5 4.5 8.5H11.5C11.7761 8.5 12 8.27614 12 8C12 7.72386 11.7761 7.5 11.5 7.5H4.5Z"
        fill="#303233" />
</svg>
