<svg width="16" height="16" viewBox="0 0 16 16" fill="none" xmlns="http://www.w3.org/2000/svg">
    <path fill-rule="evenodd" clip-rule="evenodd"
        d="M5.6786 1H10.3214C10.8633 0.999995 11.3004 0.999991 11.6543 1.02891C12.0187 1.05868 12.3388 1.12159 12.635 1.27248C13.1054 1.51217 13.4878 1.89462 13.7275 2.36502C13.8784 2.66117 13.9413 2.98126 13.9711 3.34569C14 3.69963 14 4.1367 14 4.67858V7C14 7.27614 13.7761 7.5 13.5 7.5C13.2239 7.5 13 7.27614 13 7V4.7C13 4.1317 12.9996 3.73554 12.9744 3.42712C12.9497 3.12454 12.9036 2.95069 12.8365 2.81901C12.6927 2.53677 12.4632 2.3073 12.181 2.16349C12.0493 2.0964 11.8755 2.05031 11.5729 2.02559C11.2645 2.00039 10.8683 2 10.3 2H5.7C5.1317 2 4.73554 2.00039 4.42712 2.02559C4.12454 2.05031 3.95069 2.0964 3.81901 2.16349C3.53677 2.3073 3.3073 2.53677 3.16349 2.81901C3.0964 2.95069 3.05031 3.12454 3.02559 3.42712C3.00039 3.73554 3 4.1317 3 4.7V11.3C3 11.8683 3.00039 12.2645 3.02559 12.5729C3.05031 12.8755 3.0964 13.0493 3.16349 13.181C3.3073 13.4632 3.53677 13.6927 3.81901 13.8365C3.95069 13.9036 4.12454 13.9497 4.42712 13.9744C4.73554 13.9996 5.1317 14 5.7 14H8C8.27614 14 8.5 14.2239 8.5 14.5C8.5 14.7761 8.27614 15 8 15H5.67858C5.1367 15 4.69963 15 4.34569 14.9711C3.98126 14.9413 3.66117 14.8784 3.36502 14.7275C2.89462 14.4878 2.51217 14.1054 2.27248 13.635C2.12159 13.3388 2.05868 13.0187 2.02891 12.6543C1.99999 12.3004 2 11.8633 2 11.3214V4.6786C2 4.1367 1.99999 3.69963 2.02891 3.34569C2.05868 2.98126 2.12159 2.66117 2.27248 2.36502C2.51217 1.89462 2.89462 1.51217 3.36502 1.27248C3.66117 1.12159 3.98126 1.05868 4.34569 1.02891C4.69963 0.999991 5.1367 0.999995 5.6786 1Z"
        fill="#303233" />
    <path fill-rule="evenodd" clip-rule="evenodd"
        d="M12.5 9C10.8431 9 9.5 10.3431 9.5 12C9.5 13.6569 10.8431 15 12.5 15C14.1569 15 15.5 13.6569 15.5 12C15.5 10.3431 14.1569 9 12.5 9ZM10.5 12C10.5 10.8954 11.3954 10 12.5 10C12.8709 10 13.2182 10.101 13.516 10.2769L10.7769 13.016C10.601 12.7182 10.5 12.3709 10.5 12ZM11.484 13.7231C11.7818 13.899 12.1291 14 12.5 14C13.6046 14 14.5 13.1046 14.5 12C14.5 11.6291 14.399 11.2818 14.2231 10.984L11.484 13.7231Z"
        fill="#303233" />
</svg>
