<svg width="24" height="24" viewBox="0 0 24 24" fill="none" xmlns="http://www.w3.org/2000/svg">
    <path fill-rule="evenodd" clip-rule="evenodd"
        d="M12.0821 2.50902C12.2756 2.85241 12.2493 3.27744 12.015 3.59441C11.1608 4.75006 10.7498 6.17393 10.8566 7.60705C10.9635 9.04016 11.5812 10.3873 12.5974 11.4035C13.6136 12.4197 14.9607 13.0374 16.3938 13.1442C17.8269 13.2511 19.2508 12.8401 20.4065 11.9858C20.7234 11.7515 21.1485 11.7253 21.4919 11.9188C21.8352 12.1124 22.0329 12.4895 21.9966 12.882C21.8218 14.7734 21.112 16.5758 19.9502 18.0785C18.7885 19.5811 17.2227 20.7218 15.4363 21.3671C13.6499 22.0123 11.7166 22.1355 9.86275 21.7221C8.00888 21.3088 6.31107 20.376 4.968 19.0329C3.62492 17.6898 2.69212 15.992 2.27875 14.1381C1.86539 12.2843 1.98854 10.351 2.63381 8.56457C3.27908 6.77814 4.41978 5.21243 5.92243 4.05063C7.42507 2.88884 9.22752 2.17903 11.1189 2.00424C11.5113 1.96797 11.8885 2.16564 12.0821 2.50902ZM9.31727 4.43906C8.53965 4.72041 7.80648 5.12202 7.14575 5.63287C5.94364 6.5623 5.03108 7.81488 4.51486 9.24402C3.99865 10.6732 3.90012 12.2198 4.23082 13.7029C4.56151 15.186 5.30775 16.5442 6.38221 17.6187C7.45667 18.6931 8.81491 19.4394 10.298 19.7701C11.7811 20.1008 13.3277 20.0022 14.7569 19.486C16.186 18.9698 17.4386 18.0572 18.368 16.8551C18.8789 16.1944 19.2805 15.4612 19.5618 14.6836C18.5087 15.0646 17.3791 15.2233 16.2451 15.1387C14.3343 14.9962 12.5381 14.1726 11.1832 12.8177C9.82827 11.4628 9.00467 9.6666 8.86218 7.75578C8.77762 6.62181 8.93626 5.49218 9.31727 4.43906Z"
        fill="#303233" />
</svg>
