<svg width="16" height="16" viewBox="0 0 16 16" fill="none" xmlns="http://www.w3.org/2000/svg">
    <g clip-path="url(#clip0_53_3367)">
        <path
            d="M8 0C8.41421 0 8.75 0.335786 8.75 0.75V2.06818C8.75 2.4824 8.41421 2.81818 8 2.81818C7.58579 2.81818 7.25 2.4824 7.25 2.06818V0.75C7.25 0.335786 7.58579 0 8 0Z"
            fill="#303233" />
        <path fill-rule="evenodd" clip-rule="evenodd"
            d="M4 8C4 5.79086 5.79086 4 8 4C10.2091 4 12 5.79086 12 8C12 10.2091 10.2091 12 8 12C5.79086 12 4 10.2091 4 8ZM8 5.5C6.61929 5.5 5.5 6.61929 5.5 8C5.5 9.38071 6.61929 10.5 8 10.5C9.38071 10.5 10.5 9.38071 10.5 8C10.5 6.61929 9.38071 5.5 8 5.5Z"
            fill="#303233" />
        <path
            d="M8.75 13.9318C8.75 13.5176 8.41421 13.1818 8 13.1818C7.58579 13.1818 7.25 13.5176 7.25 13.9318V15.25C7.25 15.6642 7.58579 16 8 16C8.41421 16 8.75 15.6642 8.75 15.25V13.9318Z"
            fill="#303233" />
        <path
            d="M2.34173 2.34195C2.63462 2.04906 3.1095 2.04905 3.40239 2.34194L4.33832 3.27785C4.63122 3.57074 4.63123 4.04561 4.33834 4.33851C4.04545 4.63141 3.57057 4.63141 3.27768 4.33852L2.34175 3.40261C2.04885 3.10972 2.04884 2.63485 2.34173 2.34195Z"
            fill="#303233" />
        <path
            d="M12.7227 11.6615C12.4298 11.3686 11.9549 11.3686 11.662 11.6615C11.3692 11.9544 11.3692 12.4293 11.6621 12.7222L12.598 13.6581C12.8909 13.951 13.3658 13.9509 13.6586 13.6581C13.9515 13.3652 13.9515 12.8903 13.6586 12.5974L12.7227 11.6615Z"
            fill="#303233" />
        <path
            d="M0 8C0 7.58579 0.335786 7.25 0.75 7.25H2.06821C2.48242 7.25 2.81821 7.58579 2.81821 8C2.81821 8.41421 2.48242 8.75 2.06821 8.75H0.75C0.335786 8.75 0 8.41421 0 8Z"
            fill="#303233" />
        <path
            d="M13.9316 7.25C13.5174 7.25 13.1816 7.58579 13.1816 8C13.1816 8.41421 13.5174 8.75 13.9316 8.75H15.2499C15.6641 8.75 15.9999 8.41421 15.9999 8C15.9999 7.58579 15.6641 7.25 15.2499 7.25H13.9316Z"
            fill="#303233" />
        <path
            d="M4.33834 11.6615C4.63123 11.9544 4.63122 12.4293 4.33832 12.7222L3.40239 13.6581C3.1095 13.951 2.63462 13.9509 2.34173 13.6581C2.04884 13.3652 2.04885 12.8903 2.34175 12.5974L3.27768 11.6615C3.57057 11.3686 4.04545 11.3686 4.33834 11.6615Z"
            fill="#303233" />
        <path
            d="M13.6586 3.40261C13.9515 3.10972 13.9515 2.63485 13.6586 2.34195C13.3658 2.04906 12.8909 2.04905 12.598 2.34194L11.6621 3.27785C11.3692 3.57074 11.3692 4.04561 11.662 4.33851C11.9549 4.63141 12.4298 4.63141 12.7227 4.33852L13.6586 3.40261Z"
            fill="#303233" />
    </g>
    <defs>
        <clipPath id="clip0_53_3367">
            <rect width="16" height="16" fill="white" />
        </clipPath>
    </defs>
</svg>
