<svg width="16" height="16" viewBox="0 0 16 16" fill="none" xmlns="http://www.w3.org/2000/svg">
    <path
        d="M3.11803 1.92908C3.355 1.7873 3.43216 1.48027 3.29038 1.2433C3.1486 1.00633 2.84157 0.92917 2.6046 1.07095C1.59739 1.67357 0.988978 2.8061 1.00015 4.00467C1.00273 4.2808 1.22866 4.50256 1.50479 4.49999C1.78092 4.49742 2.00268 4.27148 2.00011 3.99535C1.99206 3.13229 2.43187 2.33962 3.11803 1.92908Z"
        fill="#303233" />
    <path
        d="M13.3954 1.07095C13.1584 0.929174 12.8514 1.00634 12.7096 1.2433C12.5678 1.48027 12.645 1.7873 12.882 1.92908C13.5681 2.33963 14.0079 3.13229 13.9999 3.99535C13.9973 4.27148 14.2191 4.49742 14.4952 4.49999C14.7713 4.50257 14.9973 4.28081 14.9998 4.00468C15.011 2.80611 14.4026 1.67358 13.3954 1.07095Z"
        fill="#303233" />
    <path
        d="M4.73878 2.31286C5.60614 1.47064 6.7795 1 7.99998 1C9.22046 1 10.3938 1.47064 11.2612 2.31286C12.1291 3.15556 12.6194 4.3017 12.6194 5.5C12.6194 7.46836 13.1293 8.78458 13.6735 9.63384L13.6797 9.64351C13.9266 10.0287 14.1194 10.3296 14.2487 10.5475C14.3134 10.6566 14.3699 10.7575 14.4107 10.8448C14.4311 10.8884 14.4526 10.939 14.469 10.9925C14.4828 11.0377 14.5071 11.1279 14.498 11.2358C14.4908 11.3205 14.4739 11.4497 14.3989 11.5807C14.3246 11.7106 14.2226 11.791 14.1543 11.8401C14.0219 11.9355 13.8659 11.9583 13.8036 11.9672C13.7133 11.9802 13.607 11.9871 13.4933 11.9914C13.2671 12 12.9517 12 12.5516 12H3.44841C3.04832 12 2.73283 12 2.50665 11.9914C2.39299 11.9871 2.28671 11.9802 2.19632 11.9672C2.13406 11.9583 1.97808 11.9355 1.84562 11.8401C1.77741 11.791 1.67536 11.7106 1.60106 11.5807C1.52609 11.4497 1.50912 11.3205 1.50199 11.2358C1.4929 11.1279 1.51712 11.0377 1.53098 10.9925C1.54739 10.939 1.56886 10.8884 1.58924 10.8448C1.63007 10.7575 1.68654 10.6566 1.75129 10.5475C1.8806 10.3296 2.07332 10.0289 2.3202 9.64362L2.32648 9.63383C2.8707 8.78458 3.38053 7.46836 3.38053 5.5C3.38053 4.3017 3.87091 3.15556 4.73878 2.31286Z"
        fill="#303233" />
    <path
        d="M10.3762 13.9206C10.5581 14.1283 10.5372 14.4442 10.3294 14.6262C9.70839 15.17 8.89215 15.5 8.00001 15.5C7.10787 15.5 6.29163 15.17 5.6706 14.6262C5.46286 14.4442 5.44193 14.1283 5.62385 13.9206C5.80578 13.7129 6.12167 13.6919 6.32941 13.8739C6.77442 14.2636 7.35849 14.5 8.00001 14.5C8.64152 14.5 9.22559 14.2636 9.6706 13.8739C9.87835 13.6919 10.1942 13.7129 10.3762 13.9206Z"
        fill="#303233" />
</svg>
