<svg width="24" height="24" viewBox="0 0 24 24" fill="none" xmlns="http://www.w3.org/2000/svg">
    <path fill-rule="evenodd" clip-rule="evenodd"
        d="M2 12C2 6.47715 6.47715 2 12 2C17.5228 2 22 6.47715 22 12V16.5C22 20.6421 18.6421 24 14.5 24H11.5C10.6716 24 10 23.3284 10 22.5C10 21.6716 10.6716 21 11.5 21H12.5C13.1531 21 13.7087 21.4174 13.9146 22H14.5C16.212 22 17.7414 21.2178 18.7501 19.9912C18.6675 19.997 18.5841 20 18.5 20C16.567 20 15 18.433 15 16.5V14.5C15 12.567 16.567 11 18.5 11C19.0257 11 19.5244 11.1159 19.9718 11.3236C19.6284 7.22187 16.1905 4 12 4C7.80955 4 4.3716 7.22187 4.02819 11.3236C4.47561 11.1159 4.97427 11 5.5 11C7.433 11 9 12.567 9 14.5V16.5C9 18.433 7.433 20 5.5 20C3.567 20 2 18.433 2 16.5V12ZM18.5 13C19.3284 13 20 13.6716 20 14.5V16.5C20 17.3284 19.3284 18 18.5 18C17.6716 18 17 17.3284 17 16.5V14.5C17 13.6716 17.6716 13 18.5 13ZM4 16.5C4 17.3284 4.67157 18 5.5 18C6.32843 18 7 17.3284 7 16.5V14.5C7 13.6716 6.32843 13 5.5 13C4.67157 13 4 13.6716 4 14.5V16.5Z"
        fill="#303233" />
</svg>
