<svg width="16" height="16" viewBox="0 0 16 16" fill="none" xmlns="http://www.w3.org/2000/svg">
    <path
        d="M8 1.25C8.41421 1.25 8.75 1.58579 8.75 2V8.18917L10.8028 6.13633C11.0957 5.84344 11.5706 5.84344 11.8635 6.13633C12.1564 6.42923 12.1564 6.9041 11.8635 7.19699L8.53965 10.5208C8.40325 10.6621 8.21189 10.75 8 10.75C7.85023 10.75 7.71071 10.7061 7.59361 10.6305C7.54914 10.6018 7.5075 10.5683 7.46951 10.5303L4.13617 7.19699C3.84328 6.9041 3.84328 6.42923 4.13617 6.13633C4.42907 5.84344 4.90394 5.84344 5.19683 6.13633L7.25 8.1895V2C7.25 1.58579 7.58579 1.25 8 1.25Z"
        fill="#303233" />
    <path
        d="M14.25 12C14.25 11.5858 13.9142 11.25 13.5 11.25C13.0858 11.25 12.75 11.5858 12.75 12C12.75 12.4142 12.4142 12.75 12 12.75H4C3.58579 12.75 3.25 12.4142 3.25 12C3.25 11.5858 2.91421 11.25 2.5 11.25C2.08579 11.25 1.75 11.5858 1.75 12C1.75 13.2426 2.75736 14.25 4 14.25H12C13.2426 14.25 14.25 13.2426 14.25 12Z"
        fill="#303233" />
</svg>
