<svg width="16" height="16" viewBox="0 0 16 16" fill="none" xmlns="http://www.w3.org/2000/svg">
    <path fill-rule="evenodd" clip-rule="evenodd"
        d="M3.25 1C2.00736 1 1 2.00736 1 3.25V12.75C1 13.9926 2.00736 15 3.25 15H12.75C13.9926 15 15 13.9926 15 12.75V3.25C15 2.00736 13.9926 1 12.75 1H3.25ZM2 3.25C2 2.55964 2.55964 2 3.25 2H12.75C13.4404 2 14 2.55964 14 3.25V12.75C14 13.3641 13.5572 13.8747 12.9734 13.9801C12.7134 11.463 10.586 9.5 8.00015 9.5C5.41428 9.5 3.28689 11.463 3.02686 13.9801C2.44297 13.8749 2 13.3642 2 12.75V3.25ZM4.0311 14H11.9692C11.7232 12.0268 10.04 10.5 8.00015 10.5C5.96034 10.5 4.27715 12.0268 4.0311 14ZM6.50015 6C6.50015 5.17157 7.17172 4.5 8.00015 4.5C8.82858 4.5 9.50015 5.17157 9.50015 6C9.50015 6.82843 8.82858 7.5 8.00015 7.5C7.17172 7.5 6.50015 6.82843 6.50015 6ZM8.00015 3.5C6.61944 3.5 5.50015 4.61929 5.50015 6C5.50015 7.38071 6.61944 8.5 8.00015 8.5C9.38086 8.5 10.5002 7.38071 10.5002 6C10.5002 4.61929 9.38086 3.5 8.00015 3.5Z"
        fill="#303233" />
</svg>
