<svg width="16" height="16" viewBox="0 0 16 16" fill="none" xmlns="http://www.w3.org/2000/svg">
    <path
        d="M4.87498 6.34762C4.65179 6.18501 4.60268 5.87226 4.76529 5.64907C5.49174 4.65196 6.6701 4.00232 8.00013 4.00232C9.9481 4.00232 11.5708 5.39477 11.9273 7.23862L11.9289 7.237C12.1242 7.04174 12.4408 7.04174 12.636 7.237C12.8313 7.43226 12.8313 7.74885 12.636 7.94411L11.8125 8.76764C11.6172 8.9629 11.3007 8.9629 11.1054 8.76764L10.2819 7.94411C10.0866 7.74885 10.0866 7.43226 10.2819 7.237C10.4434 7.07543 10.6881 7.04755 10.8783 7.15337C10.5121 5.90995 9.36213 5.00232 8.00013 5.00232C7.00324 5.00232 6.11986 5.48805 5.57353 6.23792C5.41092 6.46111 5.09817 6.51022 4.87498 6.34762Z"
        fill="#303233" />
    <path
        d="M3.36422 8.76764C3.16896 8.57238 3.16896 8.25579 3.36422 8.06053L4.18775 7.237C4.38301 7.04174 4.69959 7.04174 4.89486 7.237L5.71839 8.06053C5.91365 8.25579 5.91365 8.57238 5.71839 8.76764C5.55681 8.92921 5.31217 8.95709 5.12193 8.85127C5.48811 10.0947 6.63812 11.0023 8.00013 11.0023C8.99701 11.0023 9.88039 10.5166 10.4267 9.76672C10.5893 9.54353 10.9021 9.49442 11.1253 9.65702C11.3485 9.81963 11.3976 10.1324 11.235 10.3556C10.5085 11.3527 9.33016 12.0023 8.00013 12.0023C6.05216 12.0023 4.42941 10.6099 4.07295 8.76602L4.07133 8.76764C3.87606 8.9629 3.55948 8.9629 3.36422 8.76764Z"
        fill="#303233" />
    <path fill-rule="evenodd" clip-rule="evenodd"
        d="M13.635 1.77248C13.3388 1.62159 13.0187 1.55868 12.6543 1.52891C12.3004 1.49999 11.8633 1.5 11.3214 1.5L4.6786 1.5C4.1367 1.5 3.69963 1.49999 3.34569 1.52891C2.98126 1.55869 2.66117 1.62159 2.36502 1.77249C1.89462 2.01217 1.51217 2.39462 1.27248 2.86503C1.12159 3.16117 1.05868 3.48127 1.02891 3.84569C0.999992 4.19963 0.999996 4.6367 1 5.17859V10.8214C0.999996 11.3633 0.999992 11.8004 1.02891 12.1543C1.05868 12.5187 1.12159 12.8388 1.27248 13.135C1.51217 13.6054 1.89462 13.9878 2.36502 14.2275C2.66117 14.3784 2.98126 14.4413 3.34569 14.4711C3.69961 14.5 4.13667 14.5 4.67853 14.5L11.3214 14.5C11.8633 14.5 12.3004 14.5 12.6543 14.4711C13.0187 14.4413 13.3388 14.3784 13.635 14.2275C14.1054 13.9878 14.4878 13.6054 14.7275 13.135C14.8784 12.8388 14.9413 12.5187 14.9711 12.1543C15 11.8004 15 11.3633 15 10.8215V5.17858C15 4.63672 15 4.19962 14.9711 3.84569C14.9413 3.48126 14.8784 3.16117 14.7275 2.86502C14.4878 2.39462 14.1054 2.01217 13.635 1.77248ZM11.3 2.5C11.8683 2.5 12.2645 2.50039 12.5729 2.52559C12.8755 2.55031 13.0493 2.5964 13.181 2.66349C13.4632 2.8073 13.6927 3.03677 13.8365 3.31901C13.9036 3.45069 13.9497 3.62454 13.9744 3.92712C13.9996 4.23554 14 4.6317 14 5.2V10.8C14 11.3683 13.9996 11.7645 13.9744 12.0729C13.9497 12.3755 13.9036 12.5493 13.8365 12.681C13.6927 12.9632 13.4632 13.1927 13.181 13.3365C13.0493 13.4036 12.8755 13.4497 12.5729 13.4744C12.2645 13.4996 11.8683 13.5 11.3 13.5L4.7 13.5C4.1317 13.5 3.73554 13.4996 3.42712 13.4744C3.12454 13.4497 2.95069 13.4036 2.81901 13.3365C2.53677 13.1927 2.3073 12.9632 2.16349 12.681C2.0964 12.5493 2.05031 12.3755 2.02559 12.0729C2.00039 11.7645 2 11.3683 2 10.8V5.2C2 4.6317 2.00039 4.23554 2.02559 3.92712C2.05031 3.62454 2.0964 3.45069 2.16349 3.31902C2.3073 3.03677 2.53677 2.8073 2.81901 2.66349C2.95069 2.5964 3.12454 2.55031 3.42712 2.52559C3.73554 2.50039 4.1317 2.5 4.7 2.5L11.3 2.5Z"
        fill="#303233" />
</svg>
