<svg width="16" height="16" viewBox="0 0 16 16" fill="none" xmlns="http://www.w3.org/2000/svg">
    <path
        d="M6.5 9.5C8.15685 9.5 9.5 8.15685 9.5 6.5C9.5 4.84315 8.15685 3.5 6.5 3.5C4.84315 3.5 3.5 4.84315 3.5 6.5C3.5 8.15685 4.84315 9.5 6.5 9.5Z"
        fill="#303233" />
    <path fill-rule="evenodd" clip-rule="evenodd"
        d="M1.5 6.5C1.5 3.73858 3.73858 1.5 6.5 1.5C9.26142 1.5 11.5 3.73858 11.5 6.5C11.5 7.70063 11.0768 8.80243 10.3715 9.66437L14.3535 13.6465C14.5488 13.8417 14.5487 14.1583 14.3535 14.3536C14.1582 14.5488 13.8416 14.5488 13.6464 14.3535L9.66437 10.3715C8.80243 11.0768 7.70063 11.5 6.5 11.5C3.73858 11.5 1.5 9.26142 1.5 6.5ZM6.5 2.5C4.29086 2.5 2.5 4.29086 2.5 6.5C2.5 8.70914 4.29086 10.5 6.5 10.5C8.70914 10.5 10.5 8.70914 10.5 6.5C10.5 4.29086 8.70914 2.5 6.5 2.5Z"
        fill="#303233" />
</svg>
