<svg width="24" height="24" viewBox="0 0 24 24" fill="none" xmlns="http://www.w3.org/2000/svg">
    <path fill-rule="evenodd" clip-rule="evenodd"
        d="M18.2929 3.29289C18.6834 2.90237 19.3166 2.90237 19.7071 3.29289L22.7071 6.29289C23.0976 6.68342 23.0976 7.31658 22.7071 7.70711C22.3166 8.09763 21.6834 8.09763 21.2929 7.70711L20 6.41421V16.5C20 18.9853 17.9853 21 15.5 21C13.0147 21 11 18.9853 11 16.5V7.5C11 6.11929 9.88071 5 8.5 5C7.11929 5 6 6.11929 6 7.5V17.5858L7.29289 16.2929C7.68342 15.9024 8.31658 15.9024 8.70711 16.2929C9.09763 16.6834 9.09763 17.3166 8.70711 17.7071L5.70711 20.7071C5.51957 20.8946 5.26522 21 5 21C4.73478 21 4.48043 20.8946 4.29289 20.7071L1.29289 17.7071C0.902369 17.3166 0.902369 16.6834 1.29289 16.2929C1.68342 15.9024 2.31658 15.9024 2.70711 16.2929L4 17.5858L4 7.5C4 5.01472 6.01472 3 8.5 3C10.9853 3 13 5.01472 13 7.5V16.5C13 17.8807 14.1193 19 15.5 19C16.8807 19 18 17.8807 18 16.5V6.41421L16.7071 7.70711C16.3166 8.09763 15.6834 8.09763 15.2929 7.70711C14.9024 7.31658 14.9024 6.68342 15.2929 6.29289L18.2929 3.29289Z"
        fill="#303233" />
</svg>
