<svg width="24" height="24" viewBox="0 0 24 24" fill="none" xmlns="http://www.w3.org/2000/svg">
    <path fill-rule="evenodd" clip-rule="evenodd"
        d="M12 1.25C6.06294 1.25 1.25 6.06294 1.25 12C1.25 17.9371 6.06294 22.75 12 22.75C17.9371 22.75 22.75 17.9371 22.75 12C22.75 6.06294 17.9371 1.25 12 1.25ZM10.6 8.25L10.5738 8.25C10.3163 8.24998 10.0798 8.24997 9.88213 8.26612C9.669 8.28353 9.43583 8.32339 9.20552 8.44074C8.87624 8.60852 8.60852 8.87624 8.44074 9.20552C8.32339 9.43583 8.28353 9.669 8.26612 9.88213C8.24997 10.0798 8.24998 10.3163 8.25 10.5738L8.25 10.6L8.25 13.4262C8.24998 13.6837 8.24997 13.9202 8.26612 14.1179C8.28353 14.331 8.32339 14.5642 8.44074 14.7945C8.60852 15.1238 8.87624 15.3915 9.20552 15.5593C9.43583 15.6766 9.669 15.7165 9.88213 15.7339C10.0798 15.75 10.3163 15.75 10.5738 15.75H10.5738H13.4262H13.4262C13.6837 15.75 13.9202 15.75 14.1179 15.7339C14.331 15.7165 14.5642 15.6766 14.7945 15.5593C15.1238 15.3915 15.3915 15.1238 15.5593 14.7945C15.6766 14.5642 15.7165 14.331 15.7339 14.1179C15.75 13.9202 15.75 13.6837 15.75 13.4262V13.4262V10.5738V10.5738C15.75 10.3163 15.75 10.0798 15.7339 9.88213C15.7165 9.669 15.6766 9.43583 15.5593 9.20552C15.3915 8.87624 15.1238 8.60852 14.7945 8.44074C14.5642 8.32339 14.331 8.28353 14.1179 8.26612C13.9202 8.24997 13.6837 8.24998 13.4262 8.25L10.6 8.25Z"
        fill="#303233" />
</svg>
