<svg width="16" height="16" viewBox="0 0 16 16" fill="none" xmlns="http://www.w3.org/2000/svg">
    <path
        d="M11.9697 0.46967C12.2626 0.176777 12.7374 0.176777 13.0303 0.46967L15.2803 2.71967C15.5732 3.01256 15.5732 3.48744 15.2803 3.78033C14.9874 4.07322 14.5126 4.07322 14.2197 3.78033L13.25 2.81066V6C13.25 6.41421 12.9142 6.75 12.5 6.75C12.0858 6.75 11.75 6.41421 11.75 6V2.81066L10.7803 3.78033C10.4874 4.07322 10.0126 4.07322 9.71967 3.78033C9.42678 3.48744 9.42678 3.01256 9.71967 2.71967L11.9697 0.46967Z"
        fill="#303233" />
    <path
        d="M10.25 5.5C9.67417 5.5 9.09835 5.28033 8.65901 4.84099C7.81584 3.99782 7.78176 2.65193 8.5568 1.76813C8.37315 1.75612 8.18749 1.75 8.00006 1.75C3.96509 1.75 0.750117 4.58498 0.750117 7.99995C0.750117 9.02994 1.03811 10.0029 1.55311 10.8639C1.61211 10.9629 1.64711 11.0799 1.60511 11.1869L0.802116 13.2249C0.702117 13.4789 0.748117 13.7679 0.922115 13.9779C1.09711 14.1889 1.37211 14.2879 1.64011 14.2369L4.75708 13.6429C4.81908 13.6319 4.88108 13.6439 4.93908 13.6669C5.90708 14.0549 6.94907 14.2529 8.00106 14.2499C12.036 14.2489 15.25 11.4139 15.25 7.99995C15.25 7.19872 15.073 6.42942 14.75 5.72116V6C14.75 7.24264 13.7426 8.25 12.5 8.25C11.2574 8.25 10.25 7.24264 10.25 6V5.5Z"
        fill="#303233" />
</svg>
