<svg width="24" height="24" viewBox="0 0 24 24" fill="none" xmlns="http://www.w3.org/2000/svg">
    <path fill-rule="evenodd" clip-rule="evenodd"
        d="M8.563 12C8.489 12.082 8.326 12.26 8.162 12.424L5.23 15.356C4.8 15.786 4.596 16.01 4.442 16.261C4.278 16.529 4.156 16.822 4.083 17.128C4.014 17.414 4 17.717 4 18.325V20.4C4 21.205 4.061 21.6 4.218 21.908C4.41 22.284 4.716 22.59 5.092 22.782C5.4 22.939 5.795 23 6.6 23H17.4C18.205 23 18.6 22.939 18.908 22.782C19.284 22.59 19.59 22.284 19.782 21.908C19.939 21.6 20 21.205 20 20.4V18.325C20 17.717 19.986 17.414 19.917 17.128C19.844 16.822 19.722 16.53 19.558 16.261C19.404 16.01 19.2 15.786 18.77 15.356L15.839 12.424C15.674 12.26 15.511 12.082 15.437 12C15.511 11.918 15.674 11.74 15.838 11.576L18.77 8.644C19.2 8.214 19.404 7.99 19.558 7.739C19.722 7.471 19.844 7.178 19.917 6.872C19.986 6.586 20 6.283 20 5.675V3.6C20 2.795 19.939 2.4 19.782 2.092C19.59 1.716 19.284 1.41 18.908 1.218C18.6 1.061 18.205 1 17.4 1H6.6C5.795 1 5.4 1.061 5.092 1.218C4.716 1.41 4.41 1.716 4.218 2.092C4.061 2.4 4 2.795 4 3.6V5.675C4 6.283 4.014 6.586 4.083 6.872C4.156 7.178 4.278 7.471 4.442 7.739C4.596 7.99 4.8 8.214 5.23 8.644L8.162 11.576C8.326 11.74 8.489 11.918 8.563 12Z"
        fill="#303233" />
</svg>
