<svg width="24" height="24" viewBox="0 0 24 24" fill="none" xmlns="http://www.w3.org/2000/svg">
    <path fill-rule="evenodd" clip-rule="evenodd"
        d="M4.98542 2.25C3.47469 2.25 2.25 3.47469 2.25 4.98542V19.0146C2.25 20.5253 3.47469 21.75 4.98542 21.75H19.0146C20.5253 21.75 21.75 20.5253 21.75 19.0146V4.98542C21.75 3.47469 20.5253 2.25 19.0146 2.25H4.98542ZM15.7803 8.21967C16.0732 8.51256 16.0732 8.98744 15.7803 9.28033L13.0607 12L15.7803 14.7197C16.0732 15.0126 16.0732 15.4874 15.7803 15.7803C15.4874 16.0732 15.0126 16.0732 14.7197 15.7803L12 13.0607L9.28033 15.7803C8.98744 16.0732 8.51256 16.0732 8.21967 15.7803C7.92678 15.4874 7.92678 15.0126 8.21967 14.7197L10.9393 12L8.21967 9.28033C7.92678 8.98744 7.92678 8.51256 8.21967 8.21967C8.51256 7.92678 8.98744 7.92678 9.28033 8.21967L12 10.9393L14.7197 8.21967C15.0126 7.92678 15.4874 7.92678 15.7803 8.21967Z"
        fill="#303233" />
</svg>
