<svg width="16" height="16" viewBox="0 0 16 16" fill="none" xmlns="http://www.w3.org/2000/svg">
    <path fill-rule="evenodd" clip-rule="evenodd"
        d="M8.09032 1.38178C8.23546 1.63932 8.21578 1.95809 8.04006 2.19582C7.45329 2.98965 7.17093 3.96772 7.24434 4.95213C7.31776 5.93655 7.74206 6.86192 8.44008 7.55994C9.1381 8.25796 10.0635 8.68226 11.0479 8.75567C12.0323 8.82908 13.0104 8.54672 13.8042 7.95995C14.0419 7.78423 14.3607 7.76455 14.6182 7.9097C14.8758 8.05484 15.024 8.33773 14.9968 8.63209C14.8742 9.95854 14.3764 11.2226 13.5616 12.2765C12.7468 13.3303 11.6487 14.1304 10.3959 14.5829C9.143 15.0354 7.78715 15.1218 6.48697 14.8319C5.1868 14.542 3.99608 13.8878 3.05415 12.9459C2.11221 12.0039 1.45801 10.8132 1.1681 9.51304C0.878196 8.21287 0.964568 6.85702 1.41712 5.60414C1.86966 4.35127 2.66967 3.25319 3.72352 2.43839C4.77736 1.62359 6.04147 1.12578 7.36792 1.00319C7.66229 0.975992 7.94517 1.12424 8.09032 1.38178Z"
        fill="#303233" />
</svg>
