<svg width="24" height="24" viewBox="0 0 24 24" fill="none" xmlns="http://www.w3.org/2000/svg">
    <path fill-rule="evenodd" clip-rule="evenodd"
        d="M12 1C5.92487 1 1 5.92487 1 12C1 18.0751 5.92487 23 12 23C18.0751 23 23 18.0751 23 12C23 5.92487 18.0751 1 12 1ZM10.6315 8.46464C11.0597 8.81341 11.1242 9.44329 10.7754 9.87152C10.2153 10.5593 9.40287 11 8.50002 11C7.58716 11 6.79882 10.551 6.23634 9.88561C5.87979 9.46384 5.93266 8.83289 6.35443 8.47634C6.7762 8.11979 7.40716 8.17266 7.76371 8.59443C8.02123 8.89906 8.28289 9.00002 8.50002 9.00002C8.72717 9.00002 8.99479 8.89075 9.22464 8.60853C9.57341 8.1803 10.2033 8.11588 10.6315 8.46464ZM17.6315 8.46464C18.0597 8.81341 18.1242 9.44329 17.7754 9.87152C17.2153 10.5593 16.4029 11 15.5 11C14.5872 11 13.7988 10.551 13.2363 9.88561C12.8798 9.46384 12.9327 8.83289 13.3544 8.47634C13.7762 8.11979 14.4072 8.17266 14.7637 8.59443C15.0212 8.89906 15.2829 9.00002 15.5 9.00002C15.7272 9.00002 15.9948 8.89075 16.2246 8.60853C16.5734 8.1803 17.2033 8.11588 17.6315 8.46464ZM8.79692 16.6041C8.46474 17.0423 7.84049 17.1303 7.40006 16.7999C6.95823 16.4686 6.86869 15.8418 7.20006 15.3999L7.20107 15.3986L7.20222 15.3971L7.20496 15.3934L7.21217 15.384L7.23347 15.3568C7.25071 15.335 7.27407 15.3061 7.30342 15.2711C7.36207 15.2013 7.44506 15.1066 7.55151 14.9955C7.76358 14.7742 8.07349 14.4828 8.47439 14.1912C9.27233 13.6109 10.4745 12.9999 12.0001 12.9999C13.5256 12.9999 14.7278 13.6109 15.5257 14.1912C15.9266 14.4828 16.2365 14.7742 16.4486 14.9955C16.5551 15.1066 16.6381 15.2013 16.6967 15.2711C16.7261 15.3061 16.7494 15.335 16.7666 15.3568L16.7879 15.384L16.7952 15.3934L16.7979 15.3971L16.799 15.3986L16.8001 15.3999C17.1314 15.8418 17.0419 16.4686 16.6001 16.7999C16.1596 17.1303 15.5354 17.0423 15.2032 16.6041L15.1986 16.5982C15.1926 16.5907 15.1813 16.5766 15.1647 16.5569C15.1316 16.5174 15.0779 16.4558 15.0046 16.3793C14.8573 16.2256 14.636 16.0171 14.3494 15.8087C13.7723 15.389 12.9745 14.9999 12.0001 14.9999C11.0256 14.9999 10.2278 15.389 9.65073 15.8087C9.36413 16.0171 9.14278 16.2256 8.99548 16.3793C8.92225 16.4558 8.86852 16.5174 8.83537 16.5569C8.81883 16.5766 8.80751 16.5907 8.80156 16.5982L8.79692 16.6041Z"
        fill="#303233" />
</svg>
