<svg width="24" height="24" viewBox="0 0 24 24" fill="none" xmlns="http://www.w3.org/2000/svg">
    <path
        d="M11.4697 1.46967C11.5416 1.39776 11.6245 1.34351 11.7129 1.30691C11.8013 1.27024 11.8983 1.25 12 1.25C12.1919 1.25 12.3839 1.32322 12.5303 1.46967L16.5303 5.46967C16.8232 5.76256 16.8232 6.23744 16.5303 6.53033C16.2374 6.82322 15.7626 6.82322 15.4697 6.53033L12.75 3.81066V15C12.75 15.4142 12.4142 15.75 12 15.75C11.5858 15.75 11.25 15.4142 11.25 15V3.81066L8.53033 6.53033C8.23744 6.82322 7.76256 6.82322 7.46967 6.53033C7.17678 6.23744 7.17678 5.76256 7.46967 5.46967L11.4697 1.46967Z"
        fill="#303233" />
    <path
        d="M4.75 12C4.75 11.3096 5.30964 10.75 6 10.75H6.5C6.91421 10.75 7.25 10.4142 7.25 10C7.25 9.58579 6.91421 9.25 6.5 9.25H6C4.48122 9.25 3.25 10.4812 3.25 12V20C3.25 21.5188 4.48122 22.75 6 22.75H18C19.5188 22.75 20.75 21.5188 20.75 20V12C20.75 10.4812 19.5188 9.25 18 9.25H17.5C17.0858 9.25 16.75 9.58579 16.75 10C16.75 10.4142 17.0858 10.75 17.5 10.75H18C18.6904 10.75 19.25 11.3096 19.25 12V20C19.25 20.6904 18.6904 21.25 18 21.25H6C5.30964 21.25 4.75 20.6904 4.75 20V12Z"
        fill="#303233" />
</svg>
