<svg width="24" height="24" viewBox="0 0 24 24" fill="none" xmlns="http://www.w3.org/2000/svg">
    <path fill-rule="evenodd" clip-rule="evenodd"
        d="M11.9948 1.5H12.0052C12.2813 1.50013 12.505 1.7241 12.5049 2.00024C12.5048 2.27638 12.2808 2.50013 12.0047 2.5H11.9953C11.7192 2.50013 11.4952 2.27638 11.4951 2.00024C11.495 1.7241 11.7187 1.50013 11.9948 1.5ZM13.4563 2.0926C13.5098 1.82168 13.7727 1.6454 14.0436 1.69886L14.0537 1.70084C14.3245 1.75456 14.5006 2.0177 14.4468 2.28856C14.3931 2.55943 14.13 2.73546 13.8591 2.68173L13.85 2.67994C13.5791 2.62648 13.4028 2.36352 13.4563 2.0926ZM10.5437 2.0926C10.5972 2.36352 10.4209 2.62648 10.15 2.67994L10.1409 2.68173C9.87001 2.73546 9.60688 2.55943 9.55315 2.28856C9.49943 2.0177 9.67546 1.75456 9.94633 1.70084L9.95636 1.69886C10.2273 1.6454 10.4902 1.82168 10.5437 2.0926ZM15.3614 2.56564C15.4671 2.31051 15.7595 2.18933 16.0147 2.29498L16.0241 2.29891C16.2792 2.40481 16.4001 2.6974 16.2942 2.95243C16.1882 3.20746 15.8957 3.32835 15.6406 3.22244L15.6321 3.2189C15.3769 3.11324 15.2558 2.82077 15.3614 2.56564ZM8.63858 2.56564C8.74423 2.82077 8.62306 3.11324 8.36793 3.2189L8.35937 3.22244C8.10434 3.32835 7.81175 3.20746 7.70585 2.95243C7.59994 2.6974 7.72083 2.40481 7.97586 2.29891L7.98533 2.29498C8.24046 2.18933 8.53293 2.31051 8.63858 2.56564ZM17.1365 3.40367C17.29 3.17413 17.6005 3.1125 17.8301 3.26601L17.8386 3.27171C18.068 3.42545 18.1293 3.73603 17.9756 3.96542C17.8218 4.19482 17.5112 4.25615 17.2818 4.10241L17.2741 4.09725C17.0446 3.94374 16.983 3.63321 17.1365 3.40367ZM6.86352 3.40367C7.01703 3.63321 6.9554 3.94374 6.72586 4.09725L6.71815 4.10241C6.48876 4.25615 6.17817 4.19482 6.02444 3.96543C5.8707 3.73603 5.93203 3.42545 6.16142 3.27171L6.16994 3.26601C6.39948 3.1125 6.71001 3.17413 6.86352 3.40367ZM18.7139 4.5721C18.9091 4.37674 19.2256 4.37659 19.421 4.57175L19.4282 4.57901C19.6234 4.77436 19.6233 5.09095 19.4279 5.28611C19.2325 5.48128 18.916 5.48113 18.7208 5.28577L18.7142 5.2792C18.5189 5.08404 18.5187 4.76745 18.7139 4.5721ZM5.28611 4.5721C5.48128 4.76746 5.48112 5.08404 5.28577 5.27921L5.2792 5.28577C5.08404 5.48113 4.76745 5.48128 4.5721 5.28611C4.37674 5.09095 4.37659 4.77436 4.57175 4.57901L4.579 4.57176C4.77436 4.37659 5.09094 4.37674 5.28611 4.5721ZM20.0346 6.02444C20.264 5.8707 20.5745 5.93204 20.7283 6.16143L20.734 6.16994C20.8875 6.39948 20.8259 6.71001 20.5963 6.86352C20.3668 7.01703 20.0563 6.9554 19.9027 6.72586L19.8976 6.71815C19.7439 6.48876 19.8052 6.17817 20.0346 6.02444ZM3.96542 6.02444C4.19481 6.17818 4.25614 6.48876 4.10241 6.71815L4.09725 6.72586C3.94374 6.9554 3.63321 7.01703 3.40367 6.86352C3.17413 6.71001 3.1125 6.39948 3.26601 6.16994L3.27171 6.16143C3.42545 5.93204 3.73603 5.8707 3.96542 6.02444ZM21.0476 7.70585C21.3026 7.59995 21.5952 7.72084 21.7011 7.97586L21.705 7.98533C21.8107 8.24046 21.6895 8.53293 21.4344 8.63858C21.1792 8.74424 20.8868 8.62306 20.7811 8.36793L20.7776 8.35937C20.6717 8.10434 20.7925 7.81175 21.0476 7.70585ZM2.95243 7.70585C3.20745 7.81175 3.32834 8.10434 3.22244 8.35937L3.21889 8.36793C3.11324 8.62306 2.82077 8.74424 2.56564 8.63859C2.3105 8.53293 2.18933 8.24046 2.29498 7.98533L2.2989 7.97586C2.40481 7.72084 2.6974 7.59995 2.95243 7.70585ZM21.7114 9.55316C21.9823 9.49943 22.2454 9.67546 22.2992 9.94633L22.3011 9.95636C22.3546 10.2273 22.1783 10.4902 21.9074 10.5437C21.6365 10.5972 21.3735 10.4209 21.3201 10.15L21.3183 10.1409C21.2645 9.87001 21.4406 9.60688 21.7114 9.55316ZM2.28856 9.55316C2.55943 9.60688 2.73546 9.87001 2.68173 10.1409L2.67994 10.15C2.62648 10.4209 2.36352 10.5972 2.0926 10.5437C1.82168 10.4902 1.6454 10.2273 1.69885 9.95637L1.70084 9.94633C1.75456 9.67546 2.01769 9.49943 2.28856 9.55316ZM2.00024 11.4951C2.27638 11.4952 2.50013 11.7192 2.5 11.9953V12.0047C2.50013 12.2808 2.27638 12.5048 2.00024 12.5049C1.7241 12.505 1.50013 12.2813 1.5 12.0052V11.9948C1.50013 11.7187 1.7241 11.495 2.00024 11.4951ZM21.9998 11.4951C22.2759 11.495 22.4999 11.7187 22.5 11.9948V12.0052C22.4999 12.2813 22.2759 12.505 21.9998 12.5049C21.7236 12.5048 21.4999 12.2808 21.5 12.0047V11.9953C21.4999 11.7192 21.7236 11.4952 21.9998 11.4951ZM21.9074 13.4563C22.1783 13.5098 22.3546 13.7727 22.3011 14.0436L22.2992 14.0537C22.2454 14.3245 21.9823 14.5006 21.7114 14.4468C21.4406 14.3931 21.2645 14.13 21.3183 13.8591L21.3201 13.85C21.3735 13.5791 21.6365 13.4028 21.9074 13.4563ZM2.0926 13.4563C2.36352 13.4028 2.62648 13.5791 2.67994 13.85L2.68173 13.8591C2.73546 14.13 2.55943 14.3931 2.28856 14.4468C2.01769 14.5006 1.75456 14.3245 1.70084 14.0537L1.69885 14.0436C1.6454 13.7727 1.82168 13.5098 2.0926 13.4563ZM21.4344 15.3614C21.6895 15.4671 21.8107 15.7595 21.705 16.0147L21.7011 16.0241C21.5952 16.2792 21.3026 16.4001 21.0476 16.2942C20.7925 16.1883 20.6717 15.8957 20.7776 15.6406L20.7811 15.6321C20.8868 15.3769 21.1792 15.2558 21.4344 15.3614ZM2.56564 15.3614C2.82077 15.2558 3.11324 15.3769 3.21889 15.6321L3.22244 15.6406C3.32834 15.8957 3.20746 16.1883 2.95243 16.2942C2.6974 16.4001 2.40481 16.2792 2.2989 16.0241L2.29498 16.0147C2.18933 15.7595 2.31051 15.4671 2.56564 15.3614ZM20.5963 17.1365C20.8259 17.29 20.8875 17.6005 20.734 17.8301L20.7283 17.8386C20.5745 18.068 20.264 18.1293 20.0346 17.9756C19.8052 17.8218 19.7439 17.5112 19.8976 17.2819L19.9027 17.2741C20.0563 17.0446 20.3668 16.983 20.5963 17.1365ZM3.40367 17.1365C3.63321 16.983 3.94374 17.0446 4.09725 17.2741L4.10241 17.2819C4.25615 17.5112 4.19481 17.8218 3.96542 17.9756C3.73603 18.1293 3.42545 18.068 3.27171 17.8386L3.26601 17.8301C3.1125 17.6005 3.17413 17.29 3.40367 17.1365ZM4.5721 18.7139C4.76745 18.5187 5.08404 18.5189 5.2792 18.7142L5.28577 18.7208C5.48112 18.916 5.48128 19.2325 5.28611 19.4279C5.09094 19.6233 4.77436 19.6234 4.579 19.4282L4.57175 19.421C4.37659 19.2256 4.37674 18.9091 4.5721 18.7139ZM19.4279 18.7139C19.6233 18.9091 19.6234 19.2256 19.4282 19.421L19.421 19.4282C19.2256 19.6234 18.9091 19.6233 18.7139 19.4279C18.5187 19.2325 18.5189 18.916 18.7142 18.7208L18.7208 18.7142C18.916 18.5189 19.2325 18.5187 19.4279 18.7139ZM6.02444 20.0346C6.17817 19.8052 6.48876 19.7439 6.71815 19.8976L6.72586 19.9028C6.9554 20.0563 7.01703 20.3668 6.86352 20.5963C6.71001 20.8259 6.39948 20.8875 6.16994 20.734L6.16142 20.7283C5.93203 20.5746 5.8707 20.264 6.02444 20.0346ZM17.9756 20.0346C18.1293 20.264 18.068 20.5746 17.8386 20.7283L17.8301 20.734C17.6005 20.8875 17.29 20.8259 17.1365 20.5963C16.983 20.3668 17.0446 20.0563 17.2741 19.9027L17.2818 19.8976C17.5112 19.7439 17.8218 19.8052 17.9756 20.0346ZM7.70585 21.0476C7.81175 20.7925 8.10434 20.6717 8.35937 20.7776L8.36793 20.7811C8.62306 20.8868 8.74424 21.1792 8.63858 21.4344C8.53293 21.6895 8.24046 21.8107 7.98533 21.705L7.97586 21.7011C7.72083 21.5952 7.59994 21.3026 7.70585 21.0476ZM16.2942 21.0476C16.4001 21.3026 16.2792 21.5952 16.0241 21.7011L16.0147 21.705C15.7595 21.8107 15.4671 21.6895 15.3614 21.4344C15.2558 21.1792 15.3769 20.8868 15.6321 20.7811L15.6406 20.7776C15.8957 20.6717 16.1882 20.7925 16.2942 21.0476ZM9.55315 21.7114C9.60688 21.4406 9.87001 21.2645 10.1409 21.3183L10.15 21.3201C10.4209 21.3735 10.5972 21.6365 10.5437 21.9074C10.4902 22.1783 10.2273 22.3546 9.95636 22.3011L9.94633 22.2992C9.67546 22.2454 9.49943 21.9823 9.55315 21.7114ZM14.4468 21.7114C14.5006 21.9823 14.3245 22.2454 14.0537 22.2992L14.0436 22.3011C13.7727 22.3546 13.5098 22.1783 13.4563 21.9074C13.4028 21.6365 13.5791 21.3735 13.85 21.3201L13.8591 21.3183C14.13 21.2645 14.3931 21.4406 14.4468 21.7114ZM11.4951 21.9998C11.4952 21.7236 11.7192 21.4999 11.9953 21.5H12.0047C12.2808 21.4999 12.5048 21.7236 12.5049 21.9998C12.505 22.2759 12.2813 22.4999 12.0052 22.5H11.9948C11.7187 22.4999 11.495 22.2759 11.4951 21.9998Z"
        fill="#303233" />
    <path fill-rule="evenodd" clip-rule="evenodd"
        d="M12 18C15.3137 18 18 15.3137 18 12C18 8.68629 15.3137 6 12 6C8.68629 6 6 8.68629 6 12C6 15.3137 8.68629 18 12 18ZM12 19C15.866 19 19 15.866 19 12C19 8.13401 15.866 5 12 5C8.13401 5 5 8.13401 5 12C5 15.866 8.13401 19 12 19Z"
        fill="#303233" />
    <path fill-rule="evenodd" clip-rule="evenodd"
        d="M12 14C13.1046 14 14 13.1046 14 12C14 10.8954 13.1046 10 12 10C10.8954 10 10 10.8954 10 12C10 13.1046 10.8954 14 12 14ZM12 16C14.2091 16 16 14.2091 16 12C16 9.79086 14.2091 8 12 8C9.79086 8 8 9.79086 8 12C8 14.2091 9.79086 16 12 16Z"
        fill="#303233" />
</svg>
