<svg width="16" height="16" viewBox="0 0 16 16" fill="none" xmlns="http://www.w3.org/2000/svg">
    <path fill-rule="evenodd" clip-rule="evenodd"
        d="M3 1.75C1.75735 1.75 0.749991 2.75737 0.75 4.00002L0.750056 12C0.750065 13.2427 1.75742 14.25 3.00006 14.25H13.0001C14.2427 14.25 15.2501 13.2426 15.2501 12V5C15.2501 3.75736 14.2427 2.75 13.0001 2.75H9.20712C8.82072 2.75 8.45015 2.59649 8.17694 2.32324C7.80997 1.9562 7.3122 1.75 6.79318 1.75H3ZM5.50024 7.75C5.08603 7.75 4.75024 8.08579 4.75024 8.5C4.75024 8.91421 5.08603 9.25 5.50024 9.25H10.5002C10.9145 9.25 11.2502 8.91421 11.2502 8.5C11.2502 8.08579 10.9145 7.75 10.5002 7.75H5.50024Z"
        fill="#303233" />
</svg>
