<svg width="24" height="24" viewBox="0 0 24 24" fill="none" xmlns="http://www.w3.org/2000/svg">
    <path
        d="M4.03981 2.82081C3.80638 2.71572 3.57365 2.61095 3.37733 2.54295C3.1971 2.48051 2.83423 2.36645 2.43247 2.47824C1.97845 2.60457 1.6102 2.93692 1.43813 3.37565C1.28586 3.76389 1.36225 4.13651 1.40593 4.32218C1.45351 4.52442 1.53395 4.76664 1.61463 5.00959L3.60293 11H10.502C11.0542 11 11.502 11.4477 11.502 12C11.502 12.5523 11.0542 13 10.502 13H3.62492L1.62182 18.9835C1.54025 19.2271 1.45899 19.4696 1.41078 19.6722C1.36659 19.8578 1.28894 20.2311 1.44078 20.6203C1.61226 21.0598 1.98055 21.3931 2.435 21.5199C2.83742 21.6322 3.20112 21.5178 3.38141 21.4553C3.57809 21.3872 3.81136 21.2821 4.04553 21.1767L20.8236 13.6266C21.0517 13.524 21.2806 13.421 21.4591 13.3206C21.6249 13.2272 21.9451 13.0338 22.1275 12.6648C22.3347 12.2458 22.3347 11.7542 22.1275 11.3352C21.9451 10.9663 21.6249 10.7728 21.4591 10.6795C21.2806 10.579 21.0517 10.4761 20.8235 10.3735L4.03981 2.82081Z"
        fill="#303233" />
</svg>
