<svg width="16" height="16" viewBox="0 0 16 16" fill="none" xmlns="http://www.w3.org/2000/svg">
    <path fill-rule="evenodd" clip-rule="evenodd"
        d="M3.93414 2.86967C4.22703 3.16256 4.22703 3.63744 3.93414 3.93033C1.68862 6.17585 1.68862 9.81655 3.93414 12.0621C4.22703 12.355 4.22703 12.8298 3.93414 13.1227C3.64124 13.4156 3.16637 13.4156 2.87348 13.1227C0.0421748 10.2914 0.0421748 5.70097 2.87348 2.86967C3.16637 2.57678 3.64124 2.57678 3.93414 2.86967ZM12.0659 2.8697C12.3588 2.57681 12.8336 2.57681 13.1265 2.8697C15.9578 5.701 15.9578 10.2914 13.1265 13.1228C12.8336 13.4156 12.3588 13.4156 12.0659 13.1228C11.773 12.8299 11.773 12.355 12.0659 12.0621C14.3114 9.81658 14.3114 6.17588 12.0659 3.93036C11.773 3.63747 11.773 3.16259 12.0659 2.8697ZM5.77261 4.70813C6.06551 5.00102 6.06551 5.47589 5.77261 5.76879C4.54246 6.99894 4.54246 8.99341 5.77261 10.2236C6.06551 10.5165 6.06551 10.9913 5.77261 11.2842C5.47972 11.5771 5.00485 11.5771 4.71195 11.2842C2.89602 9.46828 2.89602 6.52406 4.71195 4.70813C5.00485 4.41523 5.47972 4.41523 5.77261 4.70813ZM10.2274 4.70815C10.5203 4.41526 10.9952 4.41526 11.288 4.70815C13.104 6.52409 13.104 9.4683 11.288 11.2842C10.9952 11.5771 10.5203 11.5771 10.2274 11.2842C9.93449 10.9913 9.93449 10.5165 10.2274 10.2236C11.4575 8.99343 11.4575 6.99896 10.2274 5.76881C9.93449 5.47592 9.93449 5.00104 10.2274 4.70815ZM8 7.4462C7.69624 7.4462 7.45 7.69244 7.45 7.9962C7.45 8.29995 7.69624 8.5462 8 8.5462C8.30376 8.5462 8.55 8.29995 8.55 7.9962C8.55 7.69244 8.30376 7.4462 8 7.4462ZM5.95 7.9962C5.95 6.86401 6.86782 5.9462 8 5.9462C9.13218 5.9462 10.05 6.86401 10.05 7.9962C10.05 9.12838 9.13218 10.0462 8 10.0462C6.86782 10.0462 5.95 9.12838 5.95 7.9962Z"
        fill="#303233" />
</svg>
