<svg width="24" height="24" viewBox="0 0 24 24" fill="none" xmlns="http://www.w3.org/2000/svg">
    <path fill-rule="evenodd" clip-rule="evenodd"
        d="M17.4 1.25H6.6C5.856 1.25 5.49 1.296 5.206 1.441H5.205C4.876 1.609 4.609 1.876 4.441 2.205C4.296 2.489 4.25 2.856 4.25 3.6V5.675C4.25 6.253 4.261 6.541 4.326 6.813C4.393 7.094 4.504 7.362 4.655 7.608C4.801 7.847 4.998 8.059 5.407 8.468L8.338 11.399C8.487 11.547 8.605 11.666 8.699 11.768C8.757 11.832 8.806 11.87 8.824 11.923C8.84 11.973 8.84 12.027 8.824 12.077C8.806 12.13 8.757 12.168 8.699 12.232L8.338 12.601L5.407 15.532C4.998 15.941 4.801 16.153 4.655 16.391V16.392C4.504 16.638 4.393 16.906 4.326 17.186C4.261 17.459 4.25 17.747 4.25 18.325V20.4C4.25 21.144 4.296 21.51 4.441 21.794C4.609 22.124 4.876 22.391 5.205 22.559C5.49 22.704 5.856 22.75 6.6 22.75H17.4C18.144 22.75 18.51 22.704 18.794 22.559C19.124 22.391 19.391 22.124 19.559 21.795C19.704 21.51 19.75 21.144 19.75 20.4V18.326C19.75 17.747 19.739 17.459 19.674 17.186C19.607 16.906 19.496 16.638 19.345 16.392V16.391C19.198 16.153 19.002 15.941 18.593 15.532L15.662 12.601C15.513 12.453 15.395 12.334 15.301 12.232C15.243 12.168 15.194 12.13 15.177 12.077H15.176C15.16 12.027 15.16 11.973 15.176 11.923H15.177C15.194 11.87 15.243 11.832 15.301 11.768L15.662 11.399L18.593 8.468C19.002 8.059 19.199 7.847 19.345 7.608C19.496 7.362 19.607 7.094 19.674 6.814C19.739 6.541 19.75 6.253 19.75 5.675V3.6C19.75 2.856 19.704 2.49 19.559 2.205C19.391 1.876 19.124 1.609 18.795 1.441C18.51 1.296 18.144 1.25 17.4 1.25Z"
        fill="#303233" />
</svg>
