<svg width="24" height="24" viewBox="0 0 24 24" fill="none" xmlns="http://www.w3.org/2000/svg">
    <path
        d="M10 14.75C12.6234 14.75 14.75 12.6234 14.75 10C14.75 7.37665 12.6234 5.25 10 5.25C7.37665 5.25 5.25 7.37665 5.25 10C5.25 12.6234 7.37665 14.75 10 14.75Z"
        fill="#303233" />
    <path fill-rule="evenodd" clip-rule="evenodd"
        d="M10 2.25C5.71979 2.25 2.25 5.71979 2.25 10C2.25 14.2802 5.71979 17.75 10 17.75C11.87 17.75 13.5854 17.0877 14.9242 15.9848L20.4697 21.5303C20.7626 21.8232 21.2374 21.8232 21.5303 21.5303C21.8232 21.2374 21.8232 20.7626 21.5303 20.4697L15.9849 14.9241C17.0877 13.5853 17.75 11.87 17.75 10C17.75 5.71979 14.2802 2.25 10 2.25ZM3.75 10C3.75 6.54822 6.54822 3.75 10 3.75C13.4518 3.75 16.25 6.54822 16.25 10C16.25 13.4518 13.4518 16.25 10 16.25C6.54822 16.25 3.75 13.4518 3.75 10Z"
        fill="#303233" />
</svg>
