<svg width="16" height="16" viewBox="0 0 16 16" fill="none" xmlns="http://www.w3.org/2000/svg">
    <path fill-rule="evenodd" clip-rule="evenodd"
        d="M4.18812 1.44123C6.64581 0.519591 9.35419 0.519591 11.8119 1.44123L12.8711 1.83845C13.7005 2.14947 14.25 2.94235 14.25 3.82815V7.68777C14.25 9.75032 13.0743 11.4487 11.8601 12.6613C10.6346 13.8852 9.26822 14.7173 8.66692 15.0552C8.25012 15.2893 7.74988 15.2893 7.33308 15.0552C6.73179 14.7173 5.36539 13.8852 4.13987 12.6613C2.9257 11.4487 1.75 9.75032 1.75 7.68777V3.82815C1.75 2.94235 2.29947 2.14947 3.12886 1.83845L4.18812 1.44123ZM6 4.25C6.41421 4.25 6.75 4.58579 6.75 5V9C6.75 9.41421 6.41421 9.75 6 9.75C5.58579 9.75 5.25 9.41421 5.25 9V5C5.25 4.58579 5.58579 4.25 6 4.25ZM10.75 5C10.75 4.58579 10.4142 4.25 10 4.25C9.58579 4.25 9.25 4.58579 9.25 5V9C9.25 9.41421 9.58579 9.75 10 9.75C10.4142 9.75 10.75 9.41421 10.75 9V5Z"
        fill="#303233" />
</svg>
