<svg width="24" height="24" viewBox="0 0 24 24" fill="none" xmlns="http://www.w3.org/2000/svg">
    <path fill-rule="evenodd" clip-rule="evenodd"
        d="M22.75 12C22.75 17.9371 17.9371 22.75 12 22.75C6.06294 22.75 1.25 17.9371 1.25 12C1.25 6.06294 6.06294 1.25 12 1.25C17.9371 1.25 22.75 6.06294 22.75 12ZM12 7C12.4142 7 12.75 7.33579 12.75 7.75V12.25C12.75 12.6642 12.4142 13 12 13C11.5858 13 11.25 12.6642 11.25 12.25V7.75C11.25 7.33579 11.5858 7 12 7ZM11.25 16.25C11.25 15.8358 11.5858 15.5 12 15.5H12.01C12.4242 15.5 12.76 15.8358 12.76 16.25C12.76 16.6642 12.4242 17 12.01 17H12C11.5858 17 11.25 16.6642 11.25 16.25Z"
        fill="#303233" />
</svg>
