<svg width="24" height="24" viewBox="0 0 24 24" fill="none" xmlns="http://www.w3.org/2000/svg">
    <path fill-rule="evenodd" clip-rule="evenodd"
        d="M2.82135 19.9601C2.82635 19.949 2.83136 19.9378 2.83637 19.9267L10.374 3.17636C10.4766 2.94818 10.5796 2.71933 10.68 2.54078C10.7734 2.37498 10.9668 2.05482 11.3357 1.8724C11.7548 1.66523 12.2464 1.66524 12.6654 1.8724C13.0343 2.05481 13.2278 2.37497 13.3211 2.54078C13.4216 2.71932 13.5245 2.94816 13.6271 3.17632L21.1773 19.9544C21.2827 20.1885 21.3877 20.4218 21.4558 20.6185C21.5183 20.7988 21.6328 21.1625 21.5205 21.5649C21.3936 22.0194 21.0604 22.3876 20.6208 22.5591C20.2316 22.711 19.8583 22.6333 19.6727 22.5891C19.4702 22.5409 19.2276 22.4597 18.984 22.3781L12.0378 20.0527L5.04485 22.3737C5.03327 22.3776 5.0217 22.3814 5.01012 22.3853C4.76717 22.4659 4.52495 22.5464 4.32272 22.594C4.13705 22.6377 3.76442 22.714 3.37619 22.5618C2.93746 22.3897 2.6051 22.0214 2.47877 21.5674C2.36698 21.1657 2.48105 20.8028 2.54348 20.6226C2.61148 20.4263 2.71626 20.1935 2.82135 19.9601ZM4.84713 20.3321L11.0006 18.2897V13.4986C11.0006 12.9463 11.4483 12.4986 12.0006 12.4986C12.5528 12.4986 13.0006 12.9463 13.0006 13.4986V18.2659L19.1508 20.3248L12.0006 4.43546L4.84713 20.3321Z"
        fill="#303233" />
</svg>
