<svg width="24" height="24" viewBox="0 0 24 24" fill="none" xmlns="http://www.w3.org/2000/svg">
    <path
        d="M11.2074 13.7071C11.598 13.3166 11.598 12.6834 11.2074 12.2929C10.8169 11.9024 10.1838 11.9024 9.79323 12.2929L9.54323 12.5429C7.91007 14.1761 7.91007 16.8239 9.54323 18.4571C11.1764 20.0903 13.8243 20.0903 15.4574 18.4571L15.7074 18.2071C16.098 17.8166 16.098 17.1834 15.7074 16.7929C15.3169 16.4024 14.6838 16.4024 14.2932 16.7929L14.0432 17.0429C13.1911 17.895 11.8096 17.895 10.9574 17.0429C10.1053 16.1908 10.1053 14.8092 10.9574 13.9571L11.2074 13.7071Z"
        fill="#303233" />
    <path
        d="M12.5429 9.54287C14.1761 7.9097 16.8239 7.9097 18.4571 9.54287C20.0903 11.176 20.0903 13.8239 18.4571 15.4571L18.2071 15.7071C17.8166 16.0976 17.1834 16.0976 16.7929 15.7071C16.4024 15.3166 16.4024 14.6834 16.7929 14.2929L17.0429 14.0429C17.895 13.1908 17.895 11.8092 17.0429 10.9571C16.1908 10.105 14.8092 10.105 13.9571 10.9571L13.7071 11.2071C13.3166 11.5976 12.6834 11.5976 12.2929 11.2071C11.9024 10.8166 11.9024 10.1834 12.2929 9.79287L12.5429 9.54287Z"
        fill="#303233" />
    <path
        d="M16.2071 13.2071C16.5976 12.8166 16.5976 12.1834 16.2071 11.7929C15.8166 11.4024 15.1834 11.4024 14.7929 11.7929L11.7929 14.7929C11.4024 15.1834 11.4024 15.8166 11.7929 16.2071C12.1834 16.5976 12.8166 16.5976 13.2071 16.2071L16.2071 13.2071Z"
        fill="#303233" />
    <path fill-rule="evenodd" clip-rule="evenodd"
        d="M5.16146 1H14.8385C15.3657 0.999984 15.8205 0.999969 16.195 1.03057C16.5904 1.06287 16.9836 1.13419 17.362 1.32698C17.9265 1.6146 18.3854 2.07354 18.673 2.63803C18.8658 3.01641 18.9371 3.40963 18.9694 3.80497C18.9969 4.14076 18.9997 4.54098 19 5.00003C19.459 5.00031 19.8592 5.00314 20.195 5.03057C20.5904 5.06287 20.9836 5.13419 21.362 5.32698C21.9265 5.6146 22.3854 6.07354 22.673 6.63803C22.8658 7.01641 22.9371 7.40963 22.9694 7.80497C23 8.17954 23 8.6343 23 9.16144V18.8386C23 19.3657 23 19.8205 22.9694 20.195C22.9371 20.5904 22.8658 20.9836 22.673 21.362C22.3854 21.9265 21.9265 22.3854 21.362 22.673C20.9836 22.8658 20.5904 22.9371 20.195 22.9694C19.8205 23 19.3657 23 18.8386 23H9.16144C8.6343 23 8.17954 23 7.80497 22.9694C7.40963 22.9371 7.01641 22.8658 6.63803 22.673C6.07354 22.3854 5.6146 21.9265 5.32698 21.362C5.13419 20.9836 5.06287 20.5904 5.03057 20.195C5.00314 19.8592 5.00031 19.459 5.00003 19C4.54098 18.9997 4.14076 18.9969 3.80497 18.9694C3.40963 18.9371 3.01641 18.8658 2.63803 18.673C2.07354 18.3854 1.6146 17.9265 1.32698 17.362C1.13419 16.9836 1.06287 16.5904 1.03057 16.195C0.999969 15.8205 0.999984 15.3657 1 14.8386V5.16146C0.999984 4.63433 0.999969 4.17954 1.03057 3.80497C1.06287 3.40963 1.13419 3.01641 1.32698 2.63803C1.6146 2.07354 2.07354 1.6146 2.63803 1.32698C3.01641 1.13419 3.40963 1.06287 3.80497 1.03057C4.17954 0.999969 4.63433 0.999984 5.16146 1ZM16.9761 3.96784C16.9964 4.21698 16.9995 4.5349 16.9999 5H9.16146C8.63431 4.99998 8.17955 4.99997 7.80497 5.03057C7.40963 5.06287 7.01641 5.13419 6.63803 5.32698C6.07354 5.6146 5.6146 6.07354 5.32698 6.63803C5.13419 7.01641 5.06287 7.40963 5.03057 7.80497C4.99997 8.17955 4.99998 8.63431 5 9.16146V16.9999C4.5349 16.9995 4.21698 16.9964 3.96784 16.9761C3.69618 16.9539 3.59546 16.9162 3.54601 16.891C3.35785 16.7951 3.20487 16.6422 3.109 16.454C3.0838 16.4045 3.04613 16.3038 3.02393 16.0322C3.00078 15.7488 3 15.3766 3 14.8V5.2C3 4.62345 3.00078 4.25118 3.02393 3.96784C3.04613 3.69618 3.0838 3.59546 3.109 3.54601C3.20487 3.35785 3.35785 3.20487 3.54601 3.109C3.59546 3.0838 3.69618 3.04613 3.96784 3.02393C4.25118 3.00078 4.62345 3 5.2 3H14.8C15.3766 3 15.7488 3.00078 16.0322 3.02393C16.3038 3.04613 16.4045 3.0838 16.454 3.109C16.6422 3.20487 16.7951 3.35785 16.891 3.54601C16.9162 3.59546 16.9539 3.69618 16.9761 3.96784ZM7.96784 7.02393C7.69618 7.04613 7.59546 7.0838 7.54601 7.109C7.35785 7.20487 7.20487 7.35785 7.109 7.54601C7.0838 7.59546 7.04613 7.69618 7.02393 7.96784C7.00078 8.25118 7 8.62345 7 9.2V18.8C7 19.3766 7.00078 19.7488 7.02393 20.0322C7.04613 20.3038 7.0838 20.4045 7.109 20.454C7.20487 20.6422 7.35785 20.7951 7.54601 20.891C7.59546 20.9162 7.69618 20.9539 7.96784 20.9761C8.25118 20.9992 8.62345 21 9.2 21H18.8C19.3766 21 19.7488 20.9992 20.0322 20.9761C20.3038 20.9539 20.4045 20.9162 20.454 20.891C20.6422 20.7951 20.7951 20.6422 20.891 20.454C20.9162 20.4045 20.9539 20.3038 20.9761 20.0322C20.9992 19.7488 21 19.3766 21 18.8V9.2C21 8.62345 20.9992 8.25118 20.9761 7.96784C20.9539 7.69618 20.9162 7.59546 20.891 7.54601C20.7951 7.35785 20.6422 7.20487 20.454 7.109C20.4045 7.0838 20.3038 7.04613 20.0322 7.02393C19.7488 7.00078 19.3766 7 18.8 7H9.2C8.62345 7 8.25118 7.00078 7.96784 7.02393Z"
        fill="#303233" />
</svg>
