<svg width="24" height="24" viewBox="0 0 24 24" fill="none" xmlns="http://www.w3.org/2000/svg">
    <path fill-rule="evenodd" clip-rule="evenodd"
        d="M12.75 12C12.75 11.5858 12.4142 11.25 12 11.25C11.5858 11.25 11.25 11.5858 11.25 12V21.1893L9.53033 19.4697C9.23744 19.1768 8.76256 19.1768 8.46967 19.4697C8.17678 19.7626 8.17678 20.2374 8.46967 20.5303L11.4697 23.5303C11.7626 23.8232 12.2374 23.8232 12.5303 23.5303L15.5303 20.5303C15.8232 20.2374 15.8232 19.7626 15.5303 19.4697C15.2374 19.1768 14.7626 19.1768 14.4697 19.4697L12.75 21.1893V12ZM3.75738 8.41436C3.93294 4.42798 7.22034 1.25 11.25 1.25C14.134 1.25 16.6364 2.87776 17.8911 5.26204C21.1607 5.46392 23.75 8.17958 23.75 11.5C23.75 14.9518 20.9518 17.75 17.5 17.75H5C2.37665 17.75 0.25 15.6234 0.25 13C0.25 10.8063 1.73647 8.96081 3.75738 8.41436Z"
        fill="#303233" />
</svg>
