<svg width="24" height="24" viewBox="0 0 24 24" fill="none" xmlns="http://www.w3.org/2000/svg">
    <path
        d="M11.2934 9.20711C11.6839 9.59763 12.317 9.59763 12.7076 9.20711L15.7076 6.20711C15.9936 5.92111 16.0791 5.49099 15.9243 5.11732C15.7696 4.74364 15.4049 4.5 15.0005 4.5L9.00046 4.5C8.596 4.5 8.23136 4.74364 8.07658 5.11732C7.9218 5.49099 8.00735 5.92111 8.29335 6.20711L11.2934 9.20711Z"
        fill="#303233" />
    <path fill-rule="evenodd" clip-rule="evenodd"
        d="M8.29872 12.424C8.46272 12.26 8.62572 12.082 8.69972 12C8.62572 11.918 8.46272 11.74 8.29872 11.576L5.36672 8.644C4.93672 8.214 4.73272 7.99 4.57872 7.739C4.41472 7.471 4.29272 7.178 4.21972 6.872C4.15072 6.586 4.13672 6.283 4.13672 5.675V3.6C4.13672 2.795 4.19772 2.4 4.35472 2.092C4.54672 1.716 4.85272 1.41 5.22872 1.218C5.53672 1.061 5.93172 1 6.73672 1H17.5367C18.3417 1 18.7367 1.061 19.0447 1.218C19.4207 1.41 19.7267 1.716 19.9187 2.092C20.0757 2.4 20.1367 2.795 20.1367 3.6V5.675C20.1367 6.283 20.1227 6.586 20.0537 6.872C19.9807 7.178 19.8587 7.471 19.6947 7.739C19.5407 7.99 19.3367 8.214 18.9067 8.644L15.9747 11.576C15.8107 11.74 15.6477 11.918 15.5737 12C15.6477 12.082 15.8107 12.26 15.9757 12.424L18.9067 15.356C19.3367 15.786 19.5407 16.01 19.6947 16.261C19.8587 16.53 19.9807 16.822 20.0537 17.128C20.1227 17.414 20.1367 17.717 20.1367 18.325V20.4C20.1367 21.205 20.0757 21.6 19.9187 21.908C19.7267 22.284 19.4207 22.59 19.0447 22.782C18.7367 22.939 18.3417 23 17.5367 23H6.73672C5.93172 23 5.53672 22.939 5.22872 22.782C4.85272 22.59 4.54672 22.284 4.35472 21.908C4.19772 21.6 4.13672 21.205 4.13672 20.4V18.325C4.13672 17.717 4.15072 17.414 4.21972 17.128C4.29272 16.822 4.41472 16.529 4.57872 16.261C4.73272 16.01 4.93672 15.786 5.36672 15.356L8.29872 12.424ZM18.1367 3.6C18.1367 3.367 18.1267 3.126 18.1207 3.016C18.0107 3.01 17.7697 3 17.5367 3H6.73672C6.50372 3 6.26272 3.01 6.15272 3.016C6.14672 3.126 6.13672 3.367 6.13672 3.6V5.675C6.13672 5.75621 6.13604 5.82855 6.13544 5.89385C6.13327 6.12607 6.13194 6.26919 6.16472 6.405C6.18872 6.507 6.22972 6.605 6.28372 6.694C6.35685 6.81304 6.45844 6.91271 6.62333 7.07449C6.67037 7.12064 6.72257 7.17185 6.78072 7.23L9.71272 10.161C10.2817 10.731 10.5177 11.054 10.6247 11.382C10.7547 11.784 10.7547 12.216 10.6247 12.618C10.5177 12.946 10.2817 13.269 9.71272 13.839L6.78072 16.77C6.72257 16.8282 6.67038 16.8794 6.62334 16.9255C6.45844 17.0873 6.35686 17.187 6.28372 17.306C6.22972 17.395 6.18872 17.493 6.16472 17.595C6.13194 17.7308 6.13327 17.8739 6.13544 18.1062C6.13604 18.1715 6.13672 18.2438 6.13672 18.325V20.4C6.13672 20.633 6.14672 20.874 6.15272 20.984C6.26272 20.99 6.50372 21 6.73672 21H17.5367C17.7697 21 18.0107 20.99 18.1207 20.984C18.1267 20.874 18.1367 20.633 18.1367 20.4V18.325C18.1367 18.2438 18.1374 18.1714 18.138 18.1062C18.1402 17.8739 18.1415 17.7308 18.1087 17.595C18.0847 17.493 18.0437 17.395 17.9897 17.306C17.9177 17.1887 17.8174 17.0903 17.657 16.9327C17.6081 16.8847 17.5537 16.8312 17.4927 16.77L14.5607 13.839C13.9917 13.269 13.7557 12.946 13.6487 12.618C13.5187 12.216 13.5187 11.784 13.6487 11.382C13.7557 11.054 13.9917 10.731 14.5607 10.162L17.4927 7.23C17.5537 7.16882 17.6081 7.11533 17.657 7.06733C17.8174 6.90975 17.9177 6.81127 17.9897 6.694C18.0437 6.605 18.0847 6.507 18.1087 6.405C18.1415 6.26919 18.1402 6.12607 18.138 5.89385C18.1374 5.82855 18.1367 5.75621 18.1367 5.675V3.6Z"
        fill="#303233" />
</svg>
