<svg width="16" height="16" viewBox="0 0 16 16" fill="none" xmlns="http://www.w3.org/2000/svg">
    <path fill-rule="evenodd" clip-rule="evenodd"
        d="M9.66667 1.5C9.66667 1.22386 9.89052 1 10.1667 1H14.5C14.7761 1 15 1.22386 15 1.5V5.83333C15 6.10948 14.7761 6.33333 14.5 6.33333C14.2239 6.33333 14 6.10948 14 5.83333V2.70711L9.798 6.90911C9.60274 7.10437 9.28615 7.10437 9.09089 6.90911C8.89563 6.71385 8.89563 6.39726 9.09089 6.202L13.2929 2H10.1667C9.89052 2 9.66667 1.77614 9.66667 1.5ZM6.90911 9.09089C7.10437 9.28615 7.10437 9.60274 6.90911 9.798L2.70711 14H5.83333C6.10948 14 6.33333 14.2239 6.33333 14.5C6.33333 14.7761 6.10948 15 5.83333 15H1.5C1.36739 15 1.24021 14.9473 1.14645 14.8536C1.05268 14.7598 1 14.6326 1 14.5L1 10.1667C1 9.89052 1.22386 9.66667 1.5 9.66667C1.77614 9.66667 2 9.89052 2 10.1667L2 13.2929L6.202 9.09089C6.39726 8.89563 6.71385 8.89563 6.90911 9.09089Z"
        fill="#303233" />
</svg>
