<svg width="24" height="24" viewBox="0 0 24 24" fill="none" xmlns="http://www.w3.org/2000/svg">
    <path fill-rule="evenodd" clip-rule="evenodd"
        d="M6 2C3.79086 2 2 3.79086 2 6C2 8.20914 3.79086 10 6 10C8.20914 10 10 8.20914 10 6C10 3.79086 8.20914 2 6 2Z"
        fill="#303233" />
    <path fill-rule="evenodd" clip-rule="evenodd"
        d="M12.3555 8.61842C13.1508 7.46964 14.849 7.46964 15.6443 8.61842L22.7357 18.8616C23.654 20.1881 22.7046 22 21.0913 22L2.8686 22C1.27121 22 0.318424 20.2197 1.2045 18.8906L5.33598 12.6934C6.12762 11.5059 7.87254 11.5059 8.66418 12.6934L9.09106 13.3337L12.3555 8.61842Z"
        fill="#303233" />
</svg>
