<svg width="24" height="24" viewBox="0 0 24 24" fill="none" xmlns="http://www.w3.org/2000/svg">
    <path fill-rule="evenodd" clip-rule="evenodd"
        d="M1 7C1 5.40925 2.21959 4 3.86667 4H14.1333C15.7804 4 17 5.40925 17 7V8.38197L21.5528 6.10557C21.8628 5.95058 22.2309 5.96714 22.5257 6.14935C22.8205 6.33156 23 6.65342 23 7V17C23 17.3466 22.8205 17.6684 22.5257 17.8507C22.2309 18.0329 21.8628 18.0494 21.5528 17.8944L17 15.618V17C17 18.5908 15.7804 20 14.1333 20H3.86667C2.21959 20 1 18.5908 1 17V7ZM6 11C5.44772 11 5 11.4477 5 12C5 12.5523 5.44772 13 6 13H12C12.5523 13 13 12.5523 13 12C13 11.4477 12.5523 11 12 11H6Z"
        fill="#303233" />
</svg>
