<svg width="24" height="24" viewBox="0 0 24 24" fill="none" xmlns="http://www.w3.org/2000/svg">
    <path fill-rule="evenodd" clip-rule="evenodd"
        d="M4.01671 15.9265C3.3277 16.5055 2.79769 17.5255 2.43868 18.5595C1.94568 19.9815 1.75667 21.4016 1.75667 21.4016C1.72567 21.6326 1.80367 21.8656 1.96968 22.0306C2.13468 22.1966 2.36768 22.2746 2.59869 22.2436C2.59869 22.2436 4.01871 22.0546 5.44073 21.5616C6.47375 21.2026 7.49376 20.6726 8.07277 19.9845C9.03079 18.8505 9.00279 17.1095 7.93677 16.0565C7.93377 16.0535 7.93077 16.0505 7.92777 16.0475C7.40476 15.5495 6.71675 15.2615 5.99474 15.2385C5.27373 15.2165 4.56872 15.4615 4.01671 15.9265ZM10.7018 7.13934C10.1908 7.01034 9.36879 6.83633 8.50378 6.78533C7.45376 6.72333 6.35475 6.86233 5.58373 7.37634C5.58373 7.37634 5.58273 7.37634 5.58273 7.37734C4.89472 7.83735 4.35471 8.67236 3.98171 9.52738C3.4747 10.6924 3.2617 11.8664 3.2617 11.8664C3.2217 12.0854 3.2817 12.3104 3.4237 12.4814C3.5667 12.6514 3.77771 12.7504 3.99971 12.7504H8.68878L11.2498 15.3115V20.0005C11.2498 20.2225 11.3488 20.4335 11.5188 20.5765C11.6898 20.7185 11.9148 20.7785 12.1338 20.7385C12.1338 20.7385 13.3079 20.5255 14.4729 20.0185C15.3279 19.6455 16.1629 19.1055 16.6229 18.4175C16.6239 18.4175 16.6239 18.4165 16.6239 18.4165C17.1379 17.6455 17.2769 16.5465 17.2149 15.4965C17.1649 14.6405 16.9929 13.8254 16.8639 13.3134C21.976 9.64838 22.75 4.7943 22.75 2.00026C22.75 1.58825 22.417 1.25325 22.005 1.25025C19.679 1.23625 17.3889 1.81626 15.3519 2.93727C13.4939 3.95929 11.9018 5.39931 10.7018 7.13934ZM4.98172 17.0745C4.98272 17.0745 4.98272 17.0745 4.98272 17.0735C5.25273 16.8465 5.59673 16.7275 5.94874 16.7385C6.29774 16.7485 6.63075 16.8875 6.88475 17.1265C7.39676 17.6365 7.38676 18.4715 6.92675 19.0165C6.92675 19.0165 6.92575 19.0175 6.92575 19.0185C6.49675 19.5285 5.71574 19.8785 4.94972 20.1435C4.41272 20.3305 3.87571 20.4685 3.4337 20.5655C3.5317 20.1245 3.6697 19.5875 3.85671 19.0505C4.12171 18.2845 4.47172 17.5035 4.98172 17.0745ZM15.5209 14.1624C14.6289 14.6735 13.7029 15.1245 12.7498 15.5115V19.0455C13.0838 18.9475 13.4789 18.8155 13.8729 18.6435C14.4599 18.3875 15.0599 18.0555 15.3759 17.5845C15.7259 17.0585 15.7599 16.2995 15.7179 15.5845C15.6869 15.0675 15.6059 14.5675 15.5209 14.1624ZM15.5899 12.3724C20.048 9.37938 21.074 5.39931 21.228 2.77027C19.4239 2.87327 17.6629 3.37828 16.0739 4.25129C14.2609 5.24931 12.7328 6.69333 11.6358 8.44836C11.6338 8.45036 11.6328 8.45236 11.6318 8.45436C10.9478 9.52237 10.3618 10.6484 9.8798 11.8194L12.1828 14.1224C13.3679 13.6414 14.5079 13.0554 15.5899 12.3724ZM9.8578 8.48336C9.44979 8.39736 8.94179 8.31336 8.41578 8.28236C7.70077 8.24036 6.94175 8.27436 6.41575 8.62436C5.94474 8.94037 5.61273 9.54037 5.35673 10.1274C5.18473 10.5214 5.05273 10.9164 4.95472 11.2504H8.49178C8.88378 10.2974 9.33979 9.37337 9.8578 8.48336Z"
        fill="#303233" />
</svg>
