<svg width="16" height="16" viewBox="0 0 16 16" fill="none" xmlns="http://www.w3.org/2000/svg">
    <path
        d="M12.9618 9.9334C13.3034 9.65873 13.5005 9.24377 13.5 8.8069C13.4996 8.45537 13.3354 8.16661 13.2054 7.9685C13.0723 7.76561 12.8829 7.52721 12.6718 7.26141L9.42847 3.1773C9.29625 3.01076 9.16844 2.84978 9.04997 2.72483C8.92254 2.59044 8.74863 2.43395 8.50562 2.34225C8.17968 2.21925 7.82032 2.21925 7.49439 2.34225C7.25138 2.43395 7.07746 2.59044 6.95004 2.72483C6.83156 2.84978 6.70377 3.01075 6.57155 3.17728L3.3282 7.2614C3.11709 7.5272 2.92774 7.7656 2.79458 7.9685C2.66457 8.16661 2.50038 8.45537 2.5 8.8069C2.49953 9.24377 2.69665 9.65873 3.03823 9.9334C3.31378 10.155 3.64342 10.2065 3.87861 10.228C4.11957 10.25 4.42308 10.25 4.76066 10.25H11.2393C11.5769 10.25 11.8804 10.25 12.1214 10.228C12.3566 10.2065 12.6862 10.155 12.9618 9.9334Z"
        fill="#303233" />
    <path
        d="M12.75 12.75C13.1642 12.75 13.5 12.4142 13.5 12C13.5 11.5858 13.1642 11.25 12.75 11.25H3.25C2.83579 11.25 2.5 11.5858 2.5 12C2.5 12.4142 2.83579 12.75 3.25 12.75H12.75Z"
        fill="#303233" />
</svg>
