<svg width="24" height="24" viewBox="0 0 24 24" fill="none" xmlns="http://www.w3.org/2000/svg">
    <path
        d="M4 2.25C2.48122 2.25 1.25 3.48122 1.25 5V19C1.25 20.5188 2.48122 21.75 4 21.75H17.878C17.7951 21.5154 17.75 21.263 17.75 21V20.25H17C15.7574 20.25 14.75 19.2426 14.75 18C14.75 16.7574 15.7574 15.75 17 15.75H17.75V15C17.75 13.7574 18.7574 12.75 20 12.75C21.2426 12.75 22.25 13.7574 22.25 15V15.75H22.75V7C22.75 5.48122 21.5188 4.25 20 4.25H13.8284C13.2317 4.25 12.6594 4.01295 12.2374 3.59099L11.409 2.76256C11.0808 2.43437 10.6357 2.25 10.1716 2.25H4Z"
        fill="#303233" />
    <path
        d="M20.75 15C20.75 14.5858 20.4142 14.25 20 14.25C19.5858 14.25 19.25 14.5858 19.25 15V17.25H17C16.5858 17.25 16.25 17.5858 16.25 18C16.25 18.4142 16.5858 18.75 17 18.75H19.25V21C19.25 21.4142 19.5858 21.75 20 21.75C20.4142 21.75 20.75 21.4142 20.75 21V18.75H23C23.4142 18.75 23.75 18.4142 23.75 18C23.75 17.5858 23.4142 17.25 23 17.25H20.75V15Z"
        fill="#303233" />
</svg>
