<svg width="24" height="24" viewBox="0 0 24 24" fill="none" xmlns="http://www.w3.org/2000/svg">
    <path
        d="M5.25 12C5.25 12.4142 5.58579 12.75 6 12.75H9.18934L5.46967 16.4697C5.17678 16.7626 5.17678 17.2374 5.46967 17.5303C5.76256 17.8232 6.23744 17.8232 6.53033 17.5303L10.25 13.8107V17C10.25 17.4142 10.5858 17.75 11 17.75C11.4142 17.75 11.75 17.4142 11.75 17V12C11.75 11.5858 11.4142 11.25 11 11.25H6C5.58579 11.25 5.25 11.5858 5.25 12Z"
        fill="#303233" />
    <path fill-rule="evenodd" clip-rule="evenodd"
        d="M4 2.25C2.48122 2.25 1.25 3.48122 1.25 5V19C1.25 20.5188 2.48122 21.75 4 21.75H20C21.5188 21.75 22.75 20.5188 22.75 19V7C22.75 5.48122 21.5188 4.25 20 4.25H13.8284C13.2317 4.25 12.6594 4.01295 12.2374 3.59099L11.409 2.76256C11.0808 2.43437 10.6357 2.25 10.1716 2.25H4ZM2.75 7C2.75 6.30964 3.30964 5.75 4 5.75H20C20.6904 5.75 21.25 6.30964 21.25 7V19C21.25 19.6904 20.6904 20.25 20 20.25H4C3.30964 20.25 2.75 19.6904 2.75 19V7Z"
        fill="#303233" />
</svg>
