<svg width="24" height="24" viewBox="0 0 24 24" fill="none" xmlns="http://www.w3.org/2000/svg">
    <path fill-rule="evenodd" clip-rule="evenodd"
        d="M2.53033 1.46967C2.23744 1.17678 1.76256 1.17678 1.46967 1.46967C1.17678 1.76256 1.17678 2.23744 1.46967 2.53033L5.01518 6.07584C3.99621 7.31309 3.35277 8.87294 3.26128 10.5785C1.49832 11.2724 0.25 12.9897 0.25 15C0.25 17.6234 2.37665 19.75 5 19.75H17.5C17.8727 19.75 18.2382 19.7173 18.5938 19.6545L21.4697 22.5303C21.7626 22.8232 22.2374 22.8232 22.5303 22.5303C22.8232 22.2374 22.8232 21.7626 22.5303 21.4697L2.53033 1.46967Z"
        fill="#303233" />
    <path
        d="M21.7009 17.1283C22.0479 17.3545 22.5126 17.2566 22.7388 16.9096C23.3784 15.9287 23.75 14.7566 23.75 13.5C23.75 10.1445 21.1058 7.40667 17.7874 7.25649C16.4679 4.86896 13.9237 3.25 11 3.25C10.5253 3.25 10.0599 3.29277 9.60764 3.37487C9.20009 3.44885 8.92967 3.83921 9.00366 4.24676C9.0349 4.41887 9.12256 4.56652 9.24412 4.67411C10.07 5.5 20.5726 16 21.7009 17.1283Z"
        fill="#303233" />
</svg>
