<svg width="24" height="24" viewBox="0 0 24 24" fill="none" xmlns="http://www.w3.org/2000/svg">
    <path fill-rule="evenodd" clip-rule="evenodd"
        d="M9 1.24997C9.41421 1.24997 9.75 1.58576 9.75 1.99997V3.99997C9.75 4.41418 9.41421 4.74997 9 4.74997C8.58579 4.74997 8.25 4.41418 8.25 3.99997V1.99997C8.25 1.58576 8.58579 1.24997 9 1.24997ZM13.591 3.69147C15.446 1.83647 18.4535 1.83647 20.3085 3.69146C22.1635 5.54646 22.1635 8.55399 20.3085 10.409L18.1872 12.5303C17.8943 12.8232 17.4194 12.8232 17.1265 12.5303C16.8336 12.2374 16.8336 11.7625 17.1265 11.4696L19.2478 9.34832C20.517 8.07911 20.517 6.02133 19.2478 4.75213C17.9786 3.48292 15.9209 3.48292 14.6516 4.75213L12.5303 6.87345C12.2374 7.16634 11.7626 7.16634 11.4697 6.87345C11.1768 6.58055 11.1768 6.10568 11.4697 5.81279L13.591 3.69147ZM2.96967 2.96964C3.26256 2.67675 3.73744 2.67675 4.03033 2.96964L5.44454 4.38385C5.73744 4.67675 5.73744 5.15162 5.44454 5.44451C5.15165 5.73741 4.67678 5.73741 4.38388 5.44451L2.96967 4.0303C2.67678 3.73741 2.67678 3.26253 2.96967 2.96964ZM1.25 8.99997C1.25 8.58576 1.58579 8.24997 2 8.24997H4C4.41421 8.24997 4.75 8.58576 4.75 8.99997C4.75 9.41418 4.41421 9.74997 4 9.74997H2C1.58579 9.74997 1.25 9.41418 1.25 8.99997ZM6.87348 11.4696C7.16637 11.7625 7.16637 12.2374 6.87348 12.5303L4.75216 14.6516C3.48295 15.9208 3.48295 17.9786 4.75216 19.2478C6.02136 20.517 8.07915 20.517 9.34835 19.2478L11.4697 17.1265C11.7626 16.8336 12.2374 16.8336 12.5303 17.1265C12.8232 17.4194 12.8232 17.8943 12.5303 18.1872L10.409 20.3085C8.55402 22.1635 5.54649 22.1635 3.6915 20.3085C1.8365 18.4535 1.8365 15.4459 3.69149 13.591L5.81282 11.4696C6.10571 11.1767 6.58058 11.1767 6.87348 11.4696ZM19.25 15C19.25 14.5858 19.5858 14.25 20 14.25H22C22.4142 14.25 22.75 14.5858 22.75 15C22.75 15.4142 22.4142 15.75 22 15.75H20C19.5858 15.75 19.25 15.4142 19.25 15ZM18.5555 18.5554C18.8484 18.2625 19.3232 18.2625 19.6161 18.5554L21.0303 19.9696C21.3232 20.2625 21.3232 20.7374 21.0303 21.0303C20.7374 21.3232 20.2626 21.3232 19.9697 21.0303L18.5555 19.6161C18.2626 19.3232 18.2626 18.8483 18.5555 18.5554ZM15 19.25C15.4142 19.25 15.75 19.5858 15.75 20V22C15.75 22.4142 15.4142 22.75 15 22.75C14.5858 22.75 14.25 22.4142 14.25 22V20C14.25 19.5858 14.5858 19.25 15 19.25Z"
        fill="#303233" />
</svg>
