<svg width="24" height="24" viewBox="0 0 24 24" fill="none" xmlns="http://www.w3.org/2000/svg">
    <g clip-path="url(#clip0_53_4562)">
        <path fill-rule="evenodd" clip-rule="evenodd"
            d="M0.46975 1.52975L22.4697 23.5298C22.7617 23.8228 23.2378 23.8228 23.5298 23.5298C23.8228 23.2378 23.8228 22.7617 23.5298 22.4697L1.52975 0.46975C1.23775 0.17675 0.76175 0.17675 0.46975 0.46975C0.17675 0.76175 0.17675 1.23775 0.46975 1.52975Z"
            fill="#303233" />
        <path fill-rule="evenodd" clip-rule="evenodd"
            d="M16.627 1.27389C16.9003 1.29868 17.2102 1.35568 17.4903 1.54138C17.8747 1.79619 18.143 2.19243 18.2368 2.64396C18.3052 2.97302 18.243 3.28192 18.1645 3.54483C18.0889 3.79844 17.9678 4.10098 17.831 4.44294L16.8112 6.99245C16.7887 7.04886 16.7763 7.0799 16.7674 7.10374C16.7597 7.12429 16.7592 7.12678 16.7592 7.12678C16.7559 7.13903 16.7535 7.1515 16.7521 7.16411C16.7521 7.16411 16.7515 7.16659 16.7511 7.18852C16.7505 7.21397 16.7504 7.24738 16.7504 7.30813V9.43875C16.7504 9.54839 16.7506 9.60931 16.7524 9.65553C16.754 9.69572 16.7563 9.70305 16.7555 9.69948C16.7601 9.72155 16.7676 9.7429 16.7778 9.76296C16.7761 9.75972 16.7789 9.76686 16.8028 9.79924C16.8303 9.83648 16.8682 9.88413 16.9367 9.96974L18.5103 11.9368C18.6904 12.1618 18.8524 12.3643 18.9899 12.5438C19.2302 12.8574 19.1861 13.3036 18.889 13.564C18.5918 13.8244 18.1436 13.8097 17.8643 13.5303L6.86428 2.53033C6.64978 2.31583 6.58561 1.99325 6.7017 1.71299C6.81778 1.43273 7.09126 1.25 7.39461 1.25L15.6693 1.25C16.0376 1.24998 16.3635 1.24996 16.627 1.27389ZM7.70226 7.75057C7.97656 7.63172 8.29525 7.68712 8.51335 7.89157L15 15C15.2245 15.2105 15.8106 14.9896 15.6975 15.2758C15.5843 15.562 15.3078 15.75 15 15.75H12.7504V22C12.7504 22.4142 12.4146 22.75 12.0004 22.75C11.5862 22.75 11.2504 22.4142 11.2504 22L11.2504 15.75H7.29395C6.79141 15.75 6.3633 15.75 6.02846 15.7196C5.6996 15.6897 5.30753 15.6217 4.98931 15.3677C4.57279 15.0352 4.33048 14.5311 4.33106 13.9981C4.3315 13.5909 4.52329 13.2423 4.70541 12.9668C4.89083 12.6864 5.15827 12.3521 5.47221 11.9597L7.06417 9.96974C7.13266 9.88413 7.17061 9.83648 7.19805 9.79924C7.22192 9.76687 7.22471 9.75972 7.22306 9.76296C7.22893 9.75147 7.23389 9.73956 7.23791 9.72734C7.23933 9.6966 7.24073 9.65358 7.24203 9.59917C7.24476 9.48432 7.24664 9.3351 7.2479 9.17912C7.25043 8.86804 7.25043 8.54276 7.25043 8.43875C7.25043 8.13981 7.42796 7.86942 7.70226 7.75057ZM7.23583 9.76235C7.23583 9.76235 7.23592 9.76101 7.23614 9.75867L7.23583 9.76235Z"
            fill="#303233" />
    </g>
    <defs>
        <clipPath id="clip0_53_4562">
            <rect width="24" height="24" fill="white" />
        </clipPath>
    </defs>
</svg>
