<svg width="16" height="16" viewBox="0 0 16 16" fill="none" xmlns="http://www.w3.org/2000/svg">
    <path fill-rule="evenodd" clip-rule="evenodd"
        d="M11.46 1H4.54C4.053 1 3.814 1.031 3.628 1.125C3.411 1.236 3.236 1.412 3.125 1.628C3.031 1.814 3 2.053 3 2.54V3.888C3 4.266 3.007 4.454 3.05 4.632C3.094 4.815 3.167 4.991 3.265 5.152C3.361 5.308 3.489 5.446 3.756 5.713L5.661 7.618C5.757 7.714 5.834 7.791 5.895 7.858C5.931 7.897 5.963 7.921 5.973 7.954C5.983 7.984 5.983 8.016 5.973 8.046C5.963 8.079 5.931 8.103 5.895 8.142L5.661 8.382L3.756 10.287C3.489 10.554 3.361 10.692 3.265 10.848C3.167 11.009 3.094 11.185 3.05 11.368C3.007 11.546 3 11.734 3 12.112V13.46C3 13.947 3.031 14.186 3.125 14.372C3.236 14.588 3.411 14.764 3.628 14.875C3.814 14.969 4.053 15 4.54 15H11.46C11.947 15 12.186 14.969 12.372 14.875C12.589 14.764 12.764 14.589 12.875 14.372C12.969 14.186 13 13.947 13 13.46V12.112C13 11.734 12.993 11.546 12.95 11.368C12.906 11.185 12.833 11.009 12.735 10.848C12.639 10.692 12.511 10.554 12.244 10.287L10.339 8.382C10.243 8.286 10.166 8.209 10.105 8.142C10.069 8.103 10.037 8.079 10.027 8.046C10.017 8.016 10.017 7.984 10.027 7.954C10.037 7.921 10.069 7.897 10.105 7.858L10.339 7.618L12.244 5.713C12.511 5.446 12.639 5.308 12.735 5.152C12.833 4.991 12.906 4.815 12.95 4.632C12.993 4.454 13 4.266 13 3.888V2.54C13 2.053 12.969 1.814 12.875 1.628C12.764 1.411 12.589 1.236 12.372 1.125C12.186 1.031 11.947 1 11.46 1ZM11.46 2C11.596 2 11.705 2 11.795 2.004C11.848 2.007 11.887 2.001 11.918 2.016C11.946 2.031 11.969 2.054 11.984 2.082C11.999 2.113 11.993 2.152 11.996 2.205C12 2.295 12 2.404 12 2.54V3.888C12 4.147 12.007 4.277 11.978 4.398C11.958 4.48 11.926 4.558 11.882 4.629V4.63C11.817 4.736 11.72 4.823 11.537 5.006L9.632 6.911C9.288 7.255 9.14 7.446 9.076 7.645C9 7.876 9 8.124 9.076 8.355C9.14 8.554 9.288 8.745 9.632 9.089L11.537 10.994C11.72 11.177 11.817 11.264 11.882 11.37V11.371C11.926 11.442 11.958 11.52 11.978 11.602C12.007 11.723 12 11.853 12 12.112V13.46C12 13.596 12 13.705 11.996 13.795C11.993 13.848 11.999 13.887 11.984 13.918C11.969 13.946 11.946 13.969 11.918 13.984C11.887 13.999 11.848 13.993 11.795 13.996C11.705 14 11.596 14 11.46 14H4.54C4.404 14 4.295 14 4.205 13.996C4.152 13.993 4.113 13.999 4.082 13.984C4.054 13.969 4.031 13.946 4.016 13.918C4.001 13.887 4.007 13.848 4.004 13.795C4 13.705 4 13.596 4 13.46V12.112C4 11.853 3.993 11.723 4.022 11.602C4.042 11.52 4.074 11.442 4.118 11.37C4.183 11.264 4.28 11.177 4.463 10.994L6.368 9.089C6.712 8.745 6.86 8.554 6.924 8.355C7 8.124 7 7.876 6.924 7.645C6.86 7.446 6.712 7.255 6.368 6.911L4.463 5.006C4.28 4.823 4.183 4.736 4.118 4.63C4.074 4.558 4.042 4.48 4.022 4.398C3.993 4.277 4 4.147 4 3.888V2.54C4 2.404 4 2.295 4.004 2.205C4.007 2.152 4.001 2.113 4.016 2.082C4.031 2.054 4.054 2.031 4.082 2.016C4.113 2.001 4.152 2.007 4.205 2.004C4.295 2 4.404 2 4.54 2H11.46Z"
        fill="#303233" />
</svg>
