<svg width="24" height="24" viewBox="0 0 24 24" fill="none" xmlns="http://www.w3.org/2000/svg">
    <path fill-rule="evenodd" clip-rule="evenodd"
        d="M22.75 12C22.75 17.9371 17.9371 22.75 12 22.75C6.06294 22.75 1.25 17.9371 1.25 12C1.25 6.06294 6.06294 1.25 12 1.25C17.9371 1.25 22.75 6.06294 22.75 12ZM11.4697 7.46967C11.5416 7.39776 11.6245 7.34351 11.7129 7.30691C11.8013 7.27024 11.8983 7.25 12 7.25C12.1919 7.25 12.3839 7.32322 12.5303 7.46967L16.5303 11.4697C16.8232 11.7626 16.8232 12.2374 16.5303 12.5303C16.2374 12.8232 15.7626 12.8232 15.4697 12.5303L12.75 9.81066V16C12.75 16.4142 12.4142 16.75 12 16.75C11.5858 16.75 11.25 16.4142 11.25 16V9.81066L8.53033 12.5303C8.23744 12.8232 7.76256 12.8232 7.46967 12.5303C7.17678 12.2374 7.17678 11.7626 7.46967 11.4697L11.4697 7.46967Z"
        fill="#303233" />
</svg>
