<svg width="24" height="24" viewBox="0 0 24 24" fill="none" xmlns="http://www.w3.org/2000/svg">
    <path fill-rule="evenodd" clip-rule="evenodd"
        d="M6.57514 3.23335C10.0728 1.92173 13.9272 1.92173 17.4249 3.23335L18.9656 3.81112C20.0389 4.21362 20.75 5.23971 20.75 6.38603V12C20.75 14.8673 19.1138 17.2553 17.3738 18.993C15.6226 20.742 13.6652 21.9346 12.8031 22.419C12.3005 22.7014 11.6995 22.7014 11.1969 22.419C10.3348 21.9346 8.37744 20.742 6.62617 18.993C4.88625 17.2553 3.25 14.8673 3.25 12V6.38603C3.25 5.23971 3.96107 4.21362 5.03441 3.81112L6.57514 3.23335ZM16.8982 4.63784C13.7401 3.45356 10.2599 3.45356 7.10183 4.63784L5.5611 5.21562C5.07322 5.39857 4.75 5.86497 4.75 6.38603V12C4.75 14.2832 6.06125 16.3088 7.68615 17.9316C9.2997 19.5431 11.1245 20.6578 11.9317 21.1113C11.9779 21.1373 12.0221 21.1373 12.0683 21.1113C12.8755 20.6578 14.7003 19.5431 16.3139 17.9316C17.9387 16.3088 19.25 14.2832 19.25 12V6.38603C19.25 5.86497 18.9268 5.39857 18.4389 5.21562L16.8982 4.63784Z"
        fill="#303233" />
    <path fill-rule="evenodd" clip-rule="evenodd"
        d="M15.5303 9.4697C15.8232 9.76259 15.8232 10.2375 15.5303 10.5304L11.5303 14.5304C11.3897 14.671 11.1989 14.75 11 14.75C10.8011 14.75 10.6103 14.671 10.4697 14.5304L8.46967 12.5304C8.17678 12.2375 8.17678 11.7626 8.46967 11.4697C8.76256 11.1768 9.23744 11.1768 9.53033 11.4697L11 12.9394L14.4697 9.4697C14.7626 9.1768 15.2374 9.1768 15.5303 9.4697Z"
        fill="#303233" />
</svg>
