<svg width="16" height="16" viewBox="0 0 16 16" fill="none" xmlns="http://www.w3.org/2000/svg">
    <path fill-rule="evenodd" clip-rule="evenodd"
        d="M7.98919 2.1277C7.76347 1.86479 7.42607 1.72637 7.08198 1.75331C6.76928 1.7778 6.54589 1.95662 6.44618 2.03967C6.33339 2.13361 6.20564 2.26073 6.07944 2.38633L3.95014 4.50462C3.92062 4.53398 3.898 4.55648 3.87826 4.57577L3.85689 4.59644L3.82629 4.59687C3.79859 4.59712 3.76657 4.59713 3.72484 4.59713L2.54384 4.59713C2.37702 4.5971 2.21016 4.59708 2.06805 4.60863C1.9108 4.62141 1.71923 4.65195 1.52492 4.75045C1.25867 4.88541 1.04148 5.10113 0.905129 5.36736C0.805445 5.56199 0.774521 5.75401 0.761604 5.91129C0.749953 6.05316 0.749977 6.2196 0.750002 6.38536V9.61465C0.749977 9.78041 0.749953 9.94685 0.761604 10.0887C0.774521 10.246 0.805445 10.438 0.905129 10.6326C1.04148 10.8989 1.25867 11.1146 1.52492 11.2496C1.71923 11.348 1.9108 11.3786 2.06805 11.3914C2.21015 11.4029 2.37698 11.4029 2.54378 11.4029L3.72484 11.4029C3.76657 11.4029 3.79859 11.4029 3.82629 11.4031L3.85689 11.4036L3.87826 11.4242C3.898 11.4435 3.92062 11.466 3.95014 11.4954L6.07946 13.6137C6.20566 13.7393 6.33339 13.8664 6.44618 13.9603C6.54589 14.0434 6.76928 14.2222 7.08198 14.2467C7.42607 14.2736 7.76347 14.1352 7.98919 13.8723C8.1946 13.633 8.22558 13.3471 8.23706 13.2182C8.25007 13.0722 8.25004 12.8922 8.25001 12.7147V3.28529C8.25004 3.10784 8.25007 2.92784 8.23706 2.78178C8.22558 2.65286 8.1946 2.36695 7.98919 2.1277ZM5.00804 5.56803L6.75 3.83508V12.1649L5.00804 10.432L4.98375 10.4077C4.8955 10.3194 4.7759 10.1996 4.62926 10.1102C4.50258 10.033 4.3646 9.97616 4.22039 9.94172C4.0536 9.90188 3.8845 9.90241 3.75928 9.9028L3.72484 9.90287H2.56667C2.4183 9.90287 2.32253 9.90255 2.25284 9.89991C2.25032 9.83126 2.25 9.73698 2.25 9.59173V6.40828C2.25 6.26302 2.25032 6.16875 2.25284 6.1001C2.32253 6.09745 2.4183 6.09713 2.56667 6.09713H3.72484L3.75928 6.0972C3.8845 6.09759 4.0536 6.09812 4.22039 6.05829C4.3646 6.02384 4.50258 5.96701 4.62926 5.88978C4.7759 5.80038 4.89549 5.68066 4.98375 5.5923L5.00804 5.56803Z"
        fill="#303233" />
    <path
        d="M13.6658 3.06352C13.4248 2.72668 12.9563 2.64903 12.6194 2.89009C12.2826 3.13114 12.2049 3.59963 12.446 3.93647C13.2642 5.07974 13.7462 6.482 13.7462 8C13.7462 9.51799 13.2642 10.9203 12.446 12.0635C12.2049 12.4004 12.2826 12.8688 12.6194 13.1099C12.9563 13.351 13.4248 13.2733 13.6658 12.9365C14.6605 11.5466 15.2462 9.84076 15.2462 8C15.2462 6.15924 14.6605 4.45342 13.6658 3.06352Z"
        fill="#303233" />
    <path
        d="M11.1123 5.001C10.8762 4.66069 10.4089 4.57624 10.0686 4.81238C9.72828 5.04852 9.64384 5.51583 9.87998 5.85614C10.3013 6.46331 10.5486 7.20134 10.5486 8C10.5486 8.79865 10.3013 9.53669 9.87998 10.1439C9.64384 10.4842 9.72828 10.9515 10.0686 11.1876C10.4089 11.4237 10.8762 11.3393 11.1123 10.999C11.7026 10.1484 12.0486 9.11351 12.0486 8C12.0486 6.88648 11.7026 5.85162 11.1123 5.001Z"
        fill="#303233" />
</svg>
