<svg width="24" height="24" viewBox="0 0 24 24" fill="none" xmlns="http://www.w3.org/2000/svg">
    <path
        d="M6 3.25C4.48122 3.25 3.25 4.48122 3.25 6V7C3.25 8.51878 4.48122 9.75 6 9.75H18C19.5188 9.75 20.75 8.51878 20.75 7V6C20.75 4.48122 19.5188 3.25 18 3.25H6Z"
        fill="#303233" />
    <path
        d="M4 20.25C3.58579 20.25 3.25 20.5858 3.25 21C3.25 21.4142 3.58579 21.75 4 21.75H10C10.4142 21.75 10.75 21.4142 10.75 21C10.75 20.5858 10.4142 20.25 10 20.25H4Z"
        fill="#303233" />
    <path
        d="M3.25 17C3.25 16.5858 3.58579 16.25 4 16.25H10C10.4142 16.25 10.75 16.5858 10.75 17C10.75 17.4142 10.4142 17.75 10 17.75H4C3.58579 17.75 3.25 17.4142 3.25 17Z"
        fill="#303233" />
    <path
        d="M4 12.25C3.58579 12.25 3.25 12.5858 3.25 13C3.25 13.4142 3.58579 13.75 4 13.75H10C10.4142 13.75 10.75 13.4142 10.75 13C10.75 12.5858 10.4142 12.25 10 12.25H4Z"
        fill="#303233" />
    <path
        d="M18.75 14.5607L21.7197 17.5303C22.0126 17.8232 22.4874 17.8232 22.7803 17.5303C23.0732 17.2374 23.0732 16.7626 22.7803 16.4697L18.5303 12.2197C18.2374 11.9268 17.7626 11.9268 17.4697 12.2197L13.2197 16.4697C12.9268 16.7626 12.9268 17.2374 13.2197 17.5303C13.5126 17.8232 13.9874 17.8232 14.2803 17.5303L17.25 14.5607V21C17.25 21.4142 17.5858 21.75 18 21.75C18.4142 21.75 18.75 21.4142 18.75 21V14.5607Z"
        fill="#303233" />
</svg>
