<svg width="24" height="24" viewBox="0 0 24 24" fill="none" xmlns="http://www.w3.org/2000/svg">
    <path fill-rule="evenodd" clip-rule="evenodd"
        d="M12 1C5.92487 1 1 5.92487 1 12C1 18.0751 5.92487 23 12 23C18.0751 23 23 18.0751 23 12C23 5.92487 18.0751 1 12 1ZM8.99254 7.5C8.16823 7.5 7.5 8.17157 7.5 9C7.5 9.82843 8.16823 10.5 8.99254 10.5H9.00746C9.83177 10.5 10.5 9.82843 10.5 9C10.5 8.17157 9.83177 7.5 9.00746 7.5H8.99254ZM8 14C7.44772 14 7 14.4477 7 15C7 15.5523 7.44772 16 8 16H16C16.5523 16 17 15.5523 17 15C17 14.4477 16.5523 14 16 14H8ZM13.5 9C13.5 8.17157 14.1682 7.5 14.9925 7.5H15.0075C15.8318 7.5 16.5 8.17157 16.5 9C16.5 9.82843 15.8318 10.5 15.0075 10.5H14.9925C14.1682 10.5 13.5 9.82843 13.5 9Z"
        fill="#303233" />
</svg>
