<svg width="24" height="24" viewBox="0 0 24 24" fill="none" xmlns="http://www.w3.org/2000/svg">
    <path fill-rule="evenodd" clip-rule="evenodd"
        d="M12 1C5.92487 1 1 5.92487 1 12C1 18.0751 5.92487 23 12 23C18.0751 23 23 18.0751 23 12C23 5.92487 18.0751 1 12 1ZM3 12C3 7.02944 7.02944 3 12 3C12.0859 3 12.1714 3.0012 12.2567 3.00359L7.90689 5.17851C7.04465 5.60963 6.5 6.4909 6.5 7.4549C6.5 7.89206 6.61022 8.30348 6.80439 8.66289C6.30976 9.11964 6 9.77364 6 10.5V13.9188C6 14.9949 6.68858 15.9503 7.70943 16.2906L9.10448 16.7556L9.66668 20.4099C9.68246 20.5124 9.7032 20.6128 9.7286 20.7109C5.8577 19.7044 3 16.1859 3 12ZM16.3732 19.8679C19.1331 18.3306 21 15.3833 21 12C21 11.4736 20.9548 10.9577 20.8681 10.4561C20.3627 11.2311 19.5296 11.7245 18.6199 11.8048C19.1668 12.6603 19.2512 13.7523 18.8063 14.6976L16.3732 19.8679ZM19.9722 7.81949C18.9905 5.9513 17.3714 4.47044 15.404 3.66601L8.80132 6.96736C8.61665 7.0597 8.5 7.24844 8.5 7.4549C8.5 7.75594 8.74404 7.99999 9.04508 7.99999H13.5C14.0523 7.99999 14.5 8.4477 14.5 8.99999C14.5 9.55227 14.0523 9.99999 13.5 9.99999H8.5C8.22386 9.99999 8 10.2238 8 10.5V13.9188C8 14.1341 8.13771 14.3251 8.34189 14.3932L10.3162 15.0513C10.6719 15.1699 10.9314 15.4774 10.9884 15.8479L11.6434 20.1058C11.735 20.7008 12.3277 21.0806 12.9065 20.9153L13.3519 20.788C13.6294 20.7087 13.8591 20.5134 13.982 20.2523L16.9967 13.8461C17.1762 13.4645 17.0971 13.0113 16.7989 12.7131L15.2929 11.2071C14.9885 10.9027 14.9131 10.4378 15.1056 10.0528C15.2981 9.66778 15.7153 9.44917 16.1414 9.51004L18.2144 9.80618C18.6405 9.86705 19.0577 9.64843 19.2502 9.26344L19.9722 7.81949Z"
        fill="#303233" />
</svg>
