<svg width="16" height="16" viewBox="0 0 16 16" fill="none" xmlns="http://www.w3.org/2000/svg">
    <g clip-path="url(#clip0_53_9148)">
        <path
            d="M8.75 4.5C8.75 4.08579 8.41421 3.75 8 3.75C7.58579 3.75 7.25 4.08579 7.25 4.5V8C7.25 8.28408 7.4105 8.54378 7.66459 8.67082L9.66459 9.67082C10.0351 9.85606 10.4856 9.70589 10.6708 9.33541C10.8561 8.96493 10.7059 8.51442 10.3354 8.32918L8.75 7.53647V4.5Z"
            fill="#303233" />
        <path fill-rule="evenodd" clip-rule="evenodd"
            d="M8 0.75C3.99594 0.75 0.75 3.99594 0.75 8C0.75 12.0041 3.99594 15.25 8 15.25C12.0041 15.25 15.25 12.0041 15.25 8C15.25 3.99594 12.0041 0.75 8 0.75ZM2.25 8C2.25 4.82436 4.82436 2.25 8 2.25C11.1756 2.25 13.75 4.82436 13.75 8C13.75 11.1756 11.1756 13.75 8 13.75C4.82436 13.75 2.25 11.1756 2.25 8Z"
            fill="#303233" />
    </g>
    <defs>
        <clipPath id="clip0_53_9148">
            <rect width="16" height="16" fill="white" />
        </clipPath>
    </defs>
</svg>
