<svg width="16" height="16" viewBox="0 0 16 16" fill="none" xmlns="http://www.w3.org/2000/svg">
    <path
        d="M13 11.5C13 11.7761 12.7761 12 12.5 12C12.2239 12 12 11.7761 12 11.5C12 11.2239 12.2239 11 12.5 11C12.7761 11 13 11.2239 13 11.5Z"
        fill="#303233" />
    <path
        d="M9.5 11C9.22386 11 9 11.2239 9 11.5C9 11.7761 9.22386 12 9.5 12H10.5C10.7761 12 11 11.7761 11 11.5C11 11.2239 10.7761 11 10.5 11H9.5Z"
        fill="#303233" />
    <path fill-rule="evenodd" clip-rule="evenodd"
        d="M1 11.5C1 10.6714 1.30743 8.96884 1.66598 7.24588C2.02959 5.49856 2.46169 3.65937 2.73673 2.51719C2.95277 1.62005 3.75526 1 4.67116 1H11.3288C12.2447 1 13.0472 1.62005 13.2633 2.51719C13.5383 3.65937 13.9704 5.49856 14.334 7.24588C14.6926 8.96884 15 10.6714 15 11.5C15 12.8807 13.8807 14 12.5 14H3.5C2.11929 14 1 12.8807 1 11.5ZM14 11.5C14 12.3284 13.3284 13 12.5 13H3.5C2.67157 13 2 12.3284 2 11.5C2 10.6716 2.67157 10 3.5 10H12.5C13.3284 10 14 10.6716 14 11.5Z"
        fill="#303233" />
</svg>
