<svg width="16" height="16" viewBox="0 0 16 16" fill="none" xmlns="http://www.w3.org/2000/svg">
    <path fill-rule="evenodd" clip-rule="evenodd"
        d="M5.5 4.5C4.39543 4.5 3.5 5.39543 3.5 6.5C3.5 7.60457 4.39543 8.5 5.5 8.5C6.60457 8.5 7.5 7.60457 7.5 6.5C7.5 5.39543 6.60457 4.5 5.5 4.5Z"
        fill="#303233" />
    <path fill-rule="evenodd" clip-rule="evenodd"
        d="M1 4.5C1 3.11929 2.11929 2 3.5 2H12.5C13.8807 2 15 3.11929 15 4.5V11.5C15 12.8807 13.8807 14 12.5 14H3.5C2.11929 14 1 12.8807 1 11.5V4.5ZM14 4.5V8.79287L12.325 7.11783C11.8693 6.66222 11.1307 6.66222 10.675 7.11783L7.25 10.5429L6.32496 9.61783C5.86935 9.16222 5.13065 9.16222 4.67504 9.61783L2.14645 12.1464C2.05274 11.9506 2 11.7316 2 11.5V4.5C2 3.67157 2.67157 3 3.5 3H12.5C13.3284 3 14 3.67157 14 4.5Z"
        fill="#303233" />
</svg>
