<svg width="16" height="16" viewBox="0 0 16 16" fill="none" xmlns="http://www.w3.org/2000/svg">
    <path fill-rule="evenodd" clip-rule="evenodd"
        d="M8.32953 2.75H4.67048C4.13555 2.74999 3.69063 2.74998 3.3275 2.77859C2.94971 2.80836 2.5961 2.87256 2.26129 3.03706C1.74618 3.29015 1.32227 3.69657 1.05487 4.20263C0.879448 4.53462 0.811293 4.88552 0.779928 5.25571C0.749979 5.60917 0.749989 6.04102 0.75 6.55452V9.44546C0.749989 9.95896 0.749979 10.3908 0.779928 10.7443C0.811293 11.1145 0.879448 11.4654 1.05487 11.7974C1.32227 12.3034 1.74618 12.7098 2.26129 12.9629C2.5961 13.1274 2.94971 13.1916 3.3275 13.2214C3.69063 13.25 4.13552 13.25 4.67044 13.25H8.32953C8.86445 13.25 9.30937 13.25 9.6725 13.2214C10.0503 13.1916 10.4039 13.1274 10.7387 12.9629C11.2538 12.7098 11.6777 12.3034 11.9451 11.7974C12.1206 11.4654 12.1887 11.1145 12.2201 10.7443C12.2434 10.4687 12.2486 10.1453 12.2497 9.77282L13.1763 10.6722C13.2888 10.7814 13.4062 10.8954 13.5106 10.9802C13.6032 11.0555 13.8181 11.2239 14.1193 11.2469C14.4453 11.2718 14.7701 11.1446 14.9912 10.8934C15.1972 10.6593 15.2272 10.3796 15.2379 10.2623C15.2501 10.129 15.25 9.9663 15.25 9.81255V6.18744C15.25 6.03369 15.2501 5.87099 15.2379 5.73765C15.2272 5.62038 15.1972 5.3407 14.9912 5.10661C14.7701 4.85537 14.4453 4.72818 14.1193 4.75307C13.8181 4.77609 13.6032 4.94449 13.5106 5.01976C13.4062 5.10456 13.2888 5.21855 13.1763 5.32779L12.2497 6.22717C12.2486 5.85465 12.2434 5.53135 12.2201 5.25571C12.1887 4.88552 12.1206 4.53462 11.9451 4.20263C11.6777 3.69657 11.2538 3.29015 10.7387 3.03706C10.4039 2.87256 10.0503 2.80836 9.6725 2.77859C9.30937 2.74998 8.86445 2.74999 8.32953 2.75Z"
        fill="#303233" />
</svg>
