<svg width="24" height="24" viewBox="0 0 24 24" fill="none" xmlns="http://www.w3.org/2000/svg">
    <path
        d="M8.82507 1.27974C9.1893 1.24998 9.63515 1.24999 10.1693 1.25H13.8302C14.3643 1.24999 14.8102 1.24998 15.1744 1.27974C15.5543 1.31078 15.9109 1.37789 16.2482 1.54973C16.7651 1.81312 17.1855 2.23325 17.4492 2.74999H6.55026C6.81396 2.23325 7.23433 1.81312 7.75127 1.54973C8.08853 1.37789 8.44519 1.31078 8.82507 1.27974Z"
        fill="#303233" />
    <path
        d="M7.16955 4.24999C6.63541 4.24998 6.18956 4.24997 5.82533 4.27973C5.44545 4.31077 5.08879 4.37788 4.75153 4.54972C4.23459 4.81312 3.81421 5.23324 3.55051 5.74999H20.4495C20.1858 5.23324 19.7654 4.81312 19.2485 4.54972C18.9112 4.37788 18.5546 4.31077 18.1747 4.27973C17.8104 4.24997 17.3646 4.24998 16.8305 4.24999H7.16955Z"
        fill="#303233" />
    <path
        d="M12.75 12C12.75 11.5858 12.4142 11.25 12 11.25C11.5858 11.25 11.25 11.5858 11.25 12V14.25H9C8.58579 14.25 8.25 14.5858 8.25 15C8.25 15.4142 8.58579 15.75 9 15.75H11.25V18C11.25 18.4142 11.5858 18.75 12 18.75C12.4142 18.75 12.75 18.4142 12.75 18V15.75H15C15.4142 15.75 15.75 15.4142 15.75 15C15.75 14.5858 15.4142 14.25 15 14.25H12.75V12Z"
        fill="#303233" />
    <path fill-rule="evenodd" clip-rule="evenodd"
        d="M5.16957 7.24999H18.8304C19.3646 7.24998 19.8104 7.24997 20.1747 7.27973C20.5546 7.31077 20.9112 7.37788 21.2485 7.54972C21.7659 7.81338 22.1866 8.23407 22.4503 8.75152C22.6221 9.08878 22.6892 9.44544 22.7203 9.82532C22.75 10.1896 22.75 10.6354 22.75 11.1695V18.8304C22.75 19.3646 22.75 19.8104 22.7203 20.1747C22.6892 20.5545 22.6221 20.9112 22.4503 21.2485C22.1866 21.7659 21.7659 22.1866 21.2485 22.4503C20.9112 22.6221 20.5546 22.6892 20.1747 22.7203C19.8105 22.75 19.3646 22.75 18.8305 22.75H5.16955C4.63544 22.75 4.18954 22.75 3.82533 22.7203C3.44545 22.6892 3.08879 22.6221 2.75153 22.4503C2.23408 22.1866 1.81339 21.7659 1.54973 21.2485C1.37789 20.9112 1.31078 20.5545 1.27974 20.1747C1.24998 19.8104 1.24999 19.3646 1.25 18.8304V11.1696C1.24999 10.6354 1.24998 10.1896 1.27974 9.82532C1.31078 9.44544 1.37789 9.08878 1.54973 8.75152C1.81339 8.23407 2.23408 7.81338 2.75153 7.54972C3.08879 7.37788 3.44545 7.31077 3.82533 7.27973C4.18956 7.24997 4.63541 7.24998 5.16957 7.24999ZM3.94748 8.77475C3.66036 8.79821 3.52307 8.84009 3.43251 8.88623C3.19731 9.00607 3.00608 9.1973 2.88624 9.4325C2.8401 9.52306 2.79822 9.66035 2.77476 9.94747C2.75058 10.2433 2.75 10.6276 2.75 11.2V18.8C2.75 19.3724 2.75058 19.7566 2.77476 20.0525C2.79822 20.3396 2.8401 20.4769 2.88624 20.5675C3.00608 20.8027 3.19731 20.9939 3.43251 21.1137C3.52307 21.1599 3.66036 21.2018 3.94748 21.2252C4.24336 21.2494 4.62757 21.25 5.2 21.25H18.8C19.3724 21.25 19.7566 21.2494 20.0525 21.2252C20.3396 21.2018 20.4769 21.1599 20.5675 21.1137C20.8027 20.9939 20.9939 20.8027 21.1138 20.5675C21.1599 20.4769 21.2018 20.3396 21.2252 20.0525C21.2494 19.7566 21.25 19.3724 21.25 18.8V11.2C21.25 10.6276 21.2494 10.2433 21.2252 9.94747C21.2018 9.66035 21.1599 9.52306 21.1138 9.4325C20.9939 9.1973 20.8027 9.00607 20.5675 8.88623C20.4769 8.84009 20.3396 8.79821 20.0525 8.77475C19.7566 8.75058 19.3724 8.74999 18.8 8.74999H5.2C4.62757 8.74999 4.24336 8.75058 3.94748 8.77475Z"
        fill="#303233" />
</svg>
