<svg width="16" height="16" viewBox="0 0 16 16" fill="none" xmlns="http://www.w3.org/2000/svg">
    <path fill-rule="evenodd" clip-rule="evenodd"
        d="M14.8537 10.6464C15.049 10.8417 15.049 11.1583 14.8537 11.3536L11.8537 14.3536C11.6585 14.5488 11.3419 14.5488 11.1466 14.3536L9.64661 12.8536C9.45135 12.6583 9.45135 12.3417 9.64661 12.1464C9.84187 11.9512 10.1585 11.9512 10.3537 12.1464L11.5002 13.2929L14.1466 10.6464C14.3419 10.4512 14.6585 10.4512 14.8537 10.6464Z"
        fill="#303233" />
    <path fill-rule="evenodd" clip-rule="evenodd"
        d="M5.6786 1H10.3214C10.8633 0.999995 11.3004 0.999991 11.6543 1.02891C12.0187 1.05868 12.3388 1.12159 12.635 1.27248C13.1054 1.51217 13.4878 1.89462 13.7275 2.36502C13.8784 2.66117 13.9413 2.98126 13.9711 3.34569C14 3.69963 14 4.1367 14 4.67858V8.5C14 8.77614 13.7761 9 13.5 9C13.2239 9 13 8.77614 13 8.5V4.7C13 4.1317 12.9996 3.73554 12.9744 3.42712C12.9497 3.12454 12.9036 2.95069 12.8365 2.81901C12.6927 2.53677 12.4632 2.3073 12.181 2.16349C12.0493 2.0964 11.8755 2.05031 11.5729 2.02559C11.2645 2.00039 10.8683 2 10.3 2H5.7C5.1317 2 4.73554 2.00039 4.42712 2.02559C4.12454 2.05031 3.95069 2.0964 3.81901 2.16349C3.53677 2.3073 3.3073 2.53677 3.16349 2.81901C3.0964 2.95069 3.05031 3.12454 3.02559 3.42712C3.00039 3.73554 3 4.1317 3 4.7V11.3C3 11.8683 3.00039 12.2645 3.02559 12.5729C3.05031 12.8755 3.0964 13.0493 3.16349 13.181C3.3073 13.4632 3.53677 13.6927 3.81901 13.8365C3.95069 13.9036 4.12454 13.9497 4.42712 13.9744C4.73554 13.9996 5.1317 14 5.7 14H8C8.27614 14 8.5 14.2239 8.5 14.5C8.5 14.7761 8.27614 15 8 15H5.67858C5.1367 15 4.69963 15 4.34569 14.9711C3.98126 14.9413 3.66117 14.8784 3.36502 14.7275C2.89462 14.4878 2.51217 14.1054 2.27248 13.635C2.12159 13.3388 2.05868 13.0187 2.02891 12.6543C1.99999 12.3004 2 11.8633 2 11.3214V4.6786C2 4.1367 1.99999 3.69963 2.02891 3.34569C2.05868 2.98126 2.12159 2.66117 2.27248 2.36502C2.51217 1.89462 2.89462 1.51217 3.36502 1.27248C3.66117 1.12159 3.98126 1.05868 4.34569 1.02891C4.69963 0.999991 5.1367 0.999995 5.6786 1Z"
        fill="#303233" />
</svg>
