<svg width="24" height="24" viewBox="0 0 24 24" fill="none" xmlns="http://www.w3.org/2000/svg">
    <path fill-rule="evenodd" clip-rule="evenodd"
        d="M14.1431 9.11413C14.0131 8.89735 13.7825 8.76069 13.5299 8.7506C13.2773 8.74051 13.0366 8.85836 12.8897 9.06407L10.8359 11.9394L9.45 10.9C9.27583 10.7694 9.05349 10.7209 8.84074 10.7671C8.62799 10.8133 8.44583 10.9497 8.34158 11.1409L5.34158 16.6409C5.21483 16.8732 5.21995 17.1552 5.35508 17.3828C5.4902 17.6105 5.7353 17.75 6 17.75H18C18.2702 17.75 18.5195 17.6047 18.6526 17.3695C18.7858 17.1344 18.7821 16.8458 18.6431 16.6141L14.1431 9.11413ZM11.6103 13.4359L13.4454 10.8668L16.6754 16.25H7.26341L9.24339 12.62L10.55 13.6C10.7115 13.7212 10.9151 13.7721 11.1147 13.7412C11.3143 13.7103 11.4929 13.6003 11.6103 13.4359Z"
        fill="#303233" />
    <path fill-rule="evenodd" clip-rule="evenodd"
        d="M6 2.25C3.92893 2.25 2.25 3.92893 2.25 6V18C2.25 20.0711 3.92893 21.75 6 21.75H18C20.0711 21.75 21.75 20.0711 21.75 18V6C21.75 3.92893 20.0711 2.25 18 2.25H6ZM3.75 6C3.75 4.75736 4.75736 3.75 6 3.75H18C19.2426 3.75 20.25 4.75736 20.25 6V18C20.25 19.2426 19.2426 20.25 18 20.25H6C4.75736 20.25 3.75 19.2426 3.75 18V6Z"
        fill="#303233" />
</svg>
