<svg width="16" height="16" viewBox="0 0 16 16" fill="none" xmlns="http://www.w3.org/2000/svg">
    <path fill-rule="evenodd" clip-rule="evenodd"
        d="M8 3C8.41421 3 8.75 3.33579 8.75 3.75V12.25C8.75 12.6642 8.41421 13 8 13C7.58579 13 7.25 12.6642 7.25 12.25V3.75C7.25 3.33579 7.58579 3 8 3Z"
        fill="#303233" />
    <path fill-rule="evenodd" clip-rule="evenodd"
        d="M3.21967 7.46967C3.51256 7.17678 3.98744 7.17678 4.28033 7.46967L8 11.1893L11.7197 7.46967C12.0126 7.17678 12.4874 7.17678 12.7803 7.46967C13.0732 7.76256 13.0732 8.23744 12.7803 8.53033L8.53033 12.7803C8.23744 13.0732 7.76256 13.0732 7.46967 12.7803L3.21967 8.53033C2.92678 8.23744 2.92678 7.76256 3.21967 7.46967Z"
        fill="#303233" />
</svg>
