<svg width="24" height="24" viewBox="0 0 24 24" fill="none" xmlns="http://www.w3.org/2000/svg">
    <path
        d="M8.7679 1.25H15.2321C16.0449 1.24999 16.7006 1.24999 17.2315 1.29336C17.7781 1.33803 18.2582 1.43239 18.7025 1.65873C19.4081 2.01825 19.9817 2.59193 20.3413 3.29754C20.5676 3.74176 20.662 4.2219 20.7066 4.76853C20.75 5.29944 20.75 5.95505 20.75 6.76788V11.7857C20.3255 11.5576 19.8638 11.3975 19.3815 11.3148C18.3345 11.1352 17.2577 11.3319 16.3418 11.8702C15.426 12.4084 14.7301 13.2535 14.3776 14.2556C13.9653 15.4278 14.5813 16.7124 15.7535 17.1247C15.9999 17.2114 16.2514 17.2527 16.4986 17.2529C16.338 17.708 16.322 18.2181 16.4865 18.7115C16.5893 19.0199 16.7524 19.2912 16.9583 19.5167C16.6108 19.9127 16.4001 20.4317 16.4001 21C16.4001 21.6844 16.7057 22.2974 17.1878 22.7101C16.6648 22.75 16.0228 22.75 15.2321 22.75H8.76788C7.95505 22.75 7.29944 22.75 6.76853 22.7066C6.2219 22.662 5.74176 22.5676 5.29754 22.3413C4.59193 21.9817 4.01825 21.4081 3.65873 20.7025C3.43239 20.2582 3.33803 19.7781 3.29336 19.2315C3.24999 18.7006 3.24999 18.0449 3.25 17.2321V6.76789C3.24999 5.95505 3.24999 5.29944 3.29336 4.76853C3.33803 4.2219 3.43239 3.74176 3.65873 3.29754C4.01825 2.59193 4.59193 2.01825 5.29754 1.65873C5.74176 1.43239 6.2219 1.33803 6.76853 1.29336C7.29944 1.24999 7.95506 1.24999 8.7679 1.25Z"
        fill="#303233" />
    <path
        d="M17.8619 14.4566C18.167 14.2773 18.5257 14.2118 18.8744 14.2716C19.2232 14.3314 19.5395 14.5127 19.7674 14.7834C19.9953 15.0541 20.12 15.3967 20.1194 15.7506V15.7517C20.1194 16.103 19.846 16.4694 19.3293 16.8139C19.0937 16.9709 18.8528 17.0919 18.6678 17.1741C18.5764 17.2148 18.5013 17.2448 18.4507 17.264C18.4255 17.2736 18.4066 17.2805 18.3951 17.2846L18.383 17.2888C17.9907 17.4201 17.7787 17.8445 17.9096 18.2372C18.0406 18.6301 18.4663 18.8422 18.8592 18.7112L18.8604 18.7108L18.8633 18.7098L18.8716 18.707L18.8976 18.6979C18.919 18.6903 18.9485 18.6796 18.9847 18.6657C19.0572 18.6381 19.1577 18.5979 19.277 18.5448C19.5136 18.4397 19.8348 18.2796 20.1613 18.062C20.7685 17.6572 21.6189 16.8998 21.6194 15.7528C21.6205 15.0447 21.3709 14.3591 20.9149 13.8174C20.4589 13.2757 19.8259 12.9129 19.128 12.7932C18.4301 12.6735 17.7124 12.8046 17.1019 13.1634C16.4915 13.5222 16.0277 14.0854 15.7927 14.7534C15.6552 15.1441 15.8606 15.5723 16.2513 15.7097C16.6421 15.8472 17.0703 15.6419 17.2077 15.2511C17.3251 14.9173 17.5569 14.6359 17.8619 14.4566Z"
        fill="#303233" />
    <path
        d="M18.6502 20.25C18.236 20.25 17.9002 20.5858 17.9002 21C17.9002 21.4142 18.236 21.75 18.6502 21.75H18.6602C19.0744 21.75 19.4102 21.4142 19.4102 21C19.4102 20.5858 19.0744 20.25 18.6602 20.25H18.6502Z"
        fill="#303233" />
</svg>
