<svg width="24" height="24" viewBox="0 0 24 24" fill="none" xmlns="http://www.w3.org/2000/svg">
    <path fill-rule="evenodd" clip-rule="evenodd"
        d="M16 6C14.8954 6 14 6.89543 14 8C14 9.10457 14.8954 10 16 10C17.1046 10 18 9.10457 18 8C18 6.89543 17.1046 6 16 6ZM12.126 7C12.5701 5.27477 14.1362 4 16 4C17.8638 4 19.4299 5.27477 19.874 7H21C21.5523 7 22 7.44772 22 8C22 8.55228 21.5523 9 21 9H19.874C19.4299 10.7252 17.8638 12 16 12C14.1362 12 12.5701 10.7252 12.126 9L3 9C2.44772 9 2 8.55228 2 8C2 7.44772 2.44772 7 3 7L12.126 7ZM8 14C6.89543 14 6 14.8954 6 16C6 17.1046 6.89543 18 8 18C9.10457 18 10 17.1046 10 16C10 14.8954 9.10457 14 8 14ZM4.12602 15C4.57006 13.2748 6.13616 12 8 12C9.86384 12 11.4299 13.2748 11.874 15L21 15C21.5523 15 22 15.4477 22 16C22 16.5523 21.5523 17 21 17L11.874 17C11.4299 18.7252 9.86384 20 8 20C6.13616 20 4.57006 18.7252 4.12602 17H3C2.44772 17 2 16.5523 2 16C2 15.4477 2.44772 15 3 15H4.12602Z"
        fill="#303233" />
</svg>
