<svg width="24" height="24" viewBox="0 0 24 24" fill="none" xmlns="http://www.w3.org/2000/svg">
    <path fill-rule="evenodd" clip-rule="evenodd"
        d="M17.5126 2.99927C13.9584 1.66642 10.0416 1.66642 6.48736 2.99927L4.94663 3.57704C3.77572 4.01613 3 5.13549 3 6.38603V12C3 14.9647 4.69041 17.413 6.44951 19.1699C8.22373 20.9418 10.2032 22.1474 11.0745 22.637C11.6531 22.962 12.3469 22.962 12.9255 22.637C13.7968 22.1474 15.7763 20.9418 17.5505 19.1699C19.3096 17.413 21 14.9647 21 12V6.38603C21 5.13549 20.2243 4.01613 19.0534 3.57704L17.5126 2.99927ZM10.2071 8.79289C9.81658 8.40237 9.18342 8.40237 8.79289 8.79289C8.40237 9.18342 8.40237 9.81658 8.79289 10.2071L10.5858 12L8.79289 13.7929C8.40237 14.1834 8.40237 14.8166 8.79289 15.2071C9.18342 15.5976 9.81658 15.5976 10.2071 15.2071L12 13.4142L13.7929 15.2071C14.1834 15.5976 14.8166 15.5976 15.2071 15.2071C15.5976 14.8166 15.5976 14.1834 15.2071 13.7929L13.4142 12L15.2071 10.2071C15.5976 9.81658 15.5976 9.18342 15.2071 8.79289C14.8166 8.40237 14.1834 8.40237 13.7929 8.79289L12 10.5858L10.2071 8.79289Z"
        fill="#303233" />
</svg>
