<svg width="24" height="24" viewBox="0 0 24 24" fill="none" xmlns="http://www.w3.org/2000/svg">
    <path
        d="M4.26408 15.0245C5.13602 14.2707 5.82176 13.653 6.3213 13.1717C6.82993 12.6812 7.25227 12.1726 7.58833 11.6458C7.92439 11.119 8.09242 10.5922 8.09242 10.0654C8.09242 9.52044 7.96072 9.09355 7.69732 8.78474C7.44301 8.47593 7.03883 8.32153 6.48479 8.32153C5.94891 8.32153 5.53111 8.4941 5.23138 8.83924C4.94074 9.17529 4.78633 9.62943 4.76817 10.2016H3.26953C3.29678 9.16621 3.60559 8.37602 4.19596 7.83106C4.79542 7.27702 5.55382 7 6.47117 7C7.46117 7 8.2332 7.27248 8.78724 7.81744C9.35037 8.3624 9.63193 9.08901 9.63193 9.99727C9.63193 10.6512 9.4639 11.2825 9.12784 11.891C8.80087 12.4905 8.40577 13.0309 7.94256 13.5123C7.48842 13.9846 6.90713 14.5341 6.19869 15.1608L5.58561 15.7057H9.90441V17H3.28316V15.8692L4.26408 15.0245Z"
        fill="#303233" />
    <path
        d="M13.5299 9.71967C13.237 9.42678 12.7621 9.42678 12.4692 9.71967C12.1763 10.0126 12.1763 10.4874 12.4692 10.7803L14.9389 13.25L12.4692 15.7197C12.1763 16.0126 12.1763 16.4874 12.4692 16.7803C12.7621 17.0732 13.237 17.0732 13.5299 16.7803L15.9995 14.3107L18.4692 16.7803C18.7621 17.0732 19.237 17.0732 19.5299 16.7803C19.8228 16.4874 19.8228 16.0126 19.5299 15.7197L17.0602 13.25L19.5299 10.7803C19.8228 10.4874 19.8228 10.0126 19.5299 9.71967C19.237 9.42678 18.7621 9.42678 18.4692 9.71967L15.9995 12.1893L13.5299 9.71967Z"
        fill="#303233" />
</svg>
