<svg width="24" height="24" viewBox="0 0 24 24" fill="none" xmlns="http://www.w3.org/2000/svg">
    <path fill-rule="evenodd" clip-rule="evenodd"
        d="M5.63604 4.22183C6.02656 4.61235 6.02656 5.24551 5.63604 5.63604C2.12132 9.15076 2.12132 14.8492 5.63604 18.364C6.02656 18.7545 6.02656 19.3877 5.63604 19.7782C5.24551 20.1687 4.61235 20.1687 4.22183 19.7782C-0.0739417 15.4824 -0.0739417 8.51759 4.22183 4.22183C4.61235 3.8313 5.24551 3.8313 5.63604 4.22183ZM18.364 4.22187C18.7545 3.83135 19.3876 3.83135 19.7782 4.22187C24.0739 8.51764 24.0739 15.4825 19.7782 19.7782C19.3876 20.1687 18.7545 20.1687 18.364 19.7782C17.9734 19.3877 17.9734 18.7545 18.364 18.364C21.8787 14.8493 21.8787 9.1508 18.364 5.63608C17.9734 5.24556 17.9734 4.6124 18.364 4.22187ZM8.46447 7.05022C8.85499 7.44074 8.85499 8.07391 8.46447 8.46443C6.51184 10.4171 6.51184 13.5829 8.46447 15.5355C8.85499 15.926 8.85499 16.5592 8.46447 16.9497C8.07394 17.3402 7.44078 17.3402 7.05025 16.9497C4.31658 14.216 4.31658 9.78389 7.05025 7.05022C7.44078 6.65969 8.07394 6.65969 8.46447 7.05022ZM15.5355 7.05025C15.9261 6.65973 16.5592 6.65973 16.9497 7.05025C19.6834 9.78392 19.6834 14.2161 16.9497 16.9497C16.5592 17.3403 15.9261 17.3403 15.5355 16.9497C15.145 16.5592 15.145 15.9261 15.5355 15.5355C17.4882 13.5829 17.4882 10.4171 15.5355 8.46447C15.145 8.07394 15.145 7.44078 15.5355 7.05025ZM12 11C11.4477 11 11 11.4477 11 12C11 12.5523 11.4477 13 12 13C12.5523 13 13 12.5523 13 12C13 11.4477 12.5523 11 12 11ZM9 12C9 10.3431 10.3431 9 12 9C13.6569 9 15 10.3431 15 12C15 13.6569 13.6569 15 12 15C10.3431 15 9 13.6569 9 12Z"
        fill="#303233" />
</svg>
