<svg width="16" height="16" viewBox="0 0 16 16" fill="none" xmlns="http://www.w3.org/2000/svg">
    <path
        d="M10.8635 9.8685C11.0532 9.66789 11.0445 9.35143 10.8438 9.16166C10.6432 8.9719 10.3268 8.9807 10.137 9.18131C9.82171 9.51463 9.06274 10.1667 7.99992 10.1667C6.93777 10.1667 6.17908 9.51546 5.86339 9.1819C5.67358 8.98134 5.35711 8.97263 5.15655 9.16245C4.95599 9.35226 4.94728 9.66872 5.1371 9.86928C5.52019 10.2741 6.52584 11.1667 7.99992 11.1667C9.47491 11.1667 10.4809 10.273 10.8635 9.8685Z"
        fill="#303233" />
    <path
        d="M9.25 6C9.25 5.58579 9.58356 5.25 9.99503 5.25H10.005C10.4164 5.25 10.75 5.58579 10.75 6C10.75 6.41421 10.4164 6.75 10.005 6.75H9.99503C9.58356 6.75 9.25 6.41421 9.25 6Z"
        fill="#303233" />
    <path
        d="M5.99503 5.25C5.58356 5.25 5.25 5.58579 5.25 6C5.25 6.41421 5.58356 6.75 5.99503 6.75H6.00497C6.41644 6.75 6.75 6.41421 6.75 6C6.75 5.58579 6.41644 5.25 6.00497 5.25H5.99503Z"
        fill="#303233" />
    <path fill-rule="evenodd" clip-rule="evenodd"
        d="M8 1C4.13401 1 1 4.13401 1 8C1 11.866 4.13401 15 8 15C11.866 15 15 11.866 15 8C15 4.13401 11.866 1 8 1ZM2 8C2 4.68629 4.68629 2 8 2C11.3137 2 14 4.68629 14 8C14 11.3137 11.3137 14 8 14C4.68629 14 2 11.3137 2 8Z"
        fill="#303233" />
</svg>
