<svg width="16" height="16" viewBox="0 0 16 16" fill="none" xmlns="http://www.w3.org/2000/svg">
    <g clip-path="url(#clip0_53_6438)">
        <path fill-rule="evenodd" clip-rule="evenodd"
            d="M5.08348 5.83333C5.08348 3.02589 7.35937 0.75 10.1668 0.75C12.9743 0.75 15.2501 3.02589 15.2501 5.83333C15.2501 8.64078 12.9743 10.9167 10.1668 10.9167C9.93565 10.9167 9.7077 10.9012 9.48402 10.8711C9.3213 10.8492 9.22022 10.8358 9.14674 10.8287C9.13915 10.828 9.13238 10.8273 9.12636 10.8268C9.08853 10.8614 9.03841 10.9113 8.94874 11.001L5.25782 14.6919C5.24935 14.7003 5.24064 14.7091 5.23169 14.7181C5.13533 14.815 5.01117 14.9399 4.85912 15.0331C4.7274 15.1138 4.58379 15.1733 4.43357 15.2093C4.26017 15.251 4.08408 15.2505 3.94743 15.2501C3.93473 15.25 3.92237 15.25 3.91039 15.25L2.63212 15.25C2.45035 15.25 2.27179 15.25 2.12027 15.2377C1.95346 15.224 1.75459 15.1917 1.55399 15.0895C1.27698 14.9484 1.05176 14.7232 0.91061 14.4462C0.808401 14.2456 0.776107 14.0467 0.762478 13.8799C0.750099 13.7284 0.750122 13.5498 0.750145 13.368L0.750147 12.0898C0.750147 12.0778 0.750113 12.0654 0.750077 12.0527C0.749691 11.9161 0.749195 11.74 0.790825 11.5666C0.82689 11.4164 0.886374 11.2728 0.967094 11.141C1.06027 10.989 1.18513 10.8648 1.28204 10.7685C1.29104 10.7595 1.2998 10.7508 1.30827 10.7423L4.99919 7.05141C5.08887 6.96173 5.13873 6.91161 5.1733 6.87379C5.1728 6.86777 5.1722 6.86099 5.17146 6.85341C5.16437 6.77993 5.15091 6.67884 5.12903 6.51612C5.09896 6.29245 5.08348 6.0645 5.08348 5.83333ZM10.1668 2.25C8.18779 2.25 6.58348 3.85431 6.58348 5.83333C6.58348 5.99747 6.59447 6.15866 6.61566 6.31626L6.61743 6.32948C6.63699 6.47493 6.65439 6.60434 6.66452 6.70926C6.67425 6.80998 6.68431 6.94875 6.66383 7.0919C6.636 7.28646 6.58743 7.43019 6.49154 7.60174C6.38918 7.78488 6.22773 7.94524 6.09798 8.07411C6.08492 8.08708 6.07218 8.09974 6.05985 8.11207L2.36893 11.803C2.30669 11.8652 2.27401 11.8981 2.25155 11.9224C2.2503 11.9554 2.25015 12.0017 2.25015 12.0898V13.3444C2.25015 13.5472 2.25067 13.6618 2.25643 13.7437C2.33831 13.7495 2.45292 13.75 2.6557 13.75H3.91039C3.99841 13.75 4.04479 13.7498 4.0778 13.7486C4.10202 13.7261 4.13492 13.6935 4.19716 13.6312L7.88808 9.9403C7.90041 9.92797 7.91307 9.91522 7.92604 9.90216C8.05491 9.77242 8.21527 9.61097 8.3984 9.50861C8.56996 9.41271 8.71369 9.36415 8.90825 9.33632C9.05139 9.31584 9.19017 9.3259 9.29089 9.33562C9.39581 9.34575 9.52523 9.36316 9.67068 9.38272L9.68389 9.38449C9.84149 9.40568 10.0027 9.41667 10.1668 9.41667C12.1458 9.41667 13.7501 7.81235 13.7501 5.83333C13.7501 3.85431 12.1458 2.25 10.1668 2.25ZM9.41681 5.83333C9.41681 5.41912 9.7526 5.08333 10.1668 5.08333H10.174C10.5883 5.08333 10.924 5.41912 10.924 5.83333C10.924 6.24755 10.5883 6.58333 10.174 6.58333H10.1668C9.7526 6.58333 9.41681 6.24755 9.41681 5.83333Z"
            fill="#303233" />
    </g>
    <defs>
        <clipPath id="clip0_53_6438">
            <rect width="16" height="16" fill="white" />
        </clipPath>
    </defs>
</svg>
