<svg width="24" height="24" viewBox="0 0 24 24" fill="none" xmlns="http://www.w3.org/2000/svg">
    <path
        d="M6.16435 6.16839C7.65829 4.67342 9.72059 3.75 12 3.75C16.5563 3.75 20.25 7.44365 20.25 12C20.25 15.9253 17.5079 19.2119 13.834 20.0456C13.4301 20.1372 13.1769 20.539 13.2686 20.9429C13.3603 21.3469 13.762 21.6 14.166 21.5084C18.5081 20.5231 21.75 16.6411 21.75 12C21.75 6.61522 17.3848 2.25 12 2.25C9.3066 2.25 6.86709 3.34311 5.10332 5.1081C4.30902 5.90295 3.44025 6.93745 2.75 7.79946V4C2.75 3.58579 2.41421 3.25 2 3.25C1.58579 3.25 1.25 3.58579 1.25 4V10C1.25 10.4142 1.58579 10.75 2 10.75H8C8.41421 10.75 8.75 10.4142 8.75 10C8.75 9.58579 8.41421 9.25 8 9.25H3.51481C3.60319 9.1371 3.69625 9.01903 3.7932 8.89706C4.4938 8.01572 5.38093 6.95235 6.16435 6.16839Z"
        fill="#303233" />
    <path
        d="M6.46768 15.0534H10.1339V13.959H5.31857V18.5664H6.50051C6.60995 18.26 6.78505 18.0192 7.02582 17.8441C7.27388 17.6617 7.57666 17.5705 7.93417 17.5705C8.44488 17.5705 8.83157 17.7128 9.09422 17.9973C9.35687 18.2745 9.4882 18.6758 9.4882 19.2011C9.4882 19.7191 9.35687 20.135 9.09422 20.4487C8.83886 20.7625 8.45218 20.9193 7.93417 20.9193C7.5183 20.9193 7.17174 20.8208 6.89449 20.6238C6.61725 20.4196 6.4385 20.146 6.35824 19.803H5.14347C5.23832 20.4524 5.5265 20.974 6.00804 21.368C6.48957 21.762 7.12796 21.959 7.92322 21.959C8.52149 21.959 9.02491 21.8386 9.43348 21.5979C9.84935 21.3571 10.1594 21.0288 10.3637 20.6129C10.5753 20.1897 10.6811 19.7082 10.6811 19.1683C10.6811 18.7232 10.5972 18.3001 10.4294 17.8988C10.2689 17.4975 9.99527 17.1656 9.60858 16.9029C9.2292 16.6403 8.73307 16.5089 8.12021 16.5089C7.7773 16.5089 7.45263 16.5782 7.1462 16.7169C6.84707 16.8555 6.6209 17.0269 6.46768 17.2312V15.0534Z"
        fill="#303233" />
    <path d="M1 13.9809V15.1191H2.01778V21.959H3.27633V13.9809H1Z" fill="#303233" />
</svg>
