<svg width="24" height="24" viewBox="0 0 24 24" fill="none" xmlns="http://www.w3.org/2000/svg">
    <g clip-path="url(#clip0_3961_159)">
        <path
            d="M10 12.75C9.30965 12.75 8.75 13.3096 8.75 14C8.75 14.6904 9.30965 15.25 10 15.25C10.6904 15.25 11.25 14.6904 11.25 14C11.25 13.3096 10.6904 12.75 10 12.75Z"
            fill="#303233" />
        <path
            d="M14 12.75C13.3096 12.75 12.75 13.3096 12.75 14C12.75 14.6904 13.3096 15.25 14 15.25C14.6904 15.25 15.25 14.6904 15.25 14C15.25 13.3096 14.6904 12.75 14 12.75Z"
            fill="#303233" />
        <path
            d="M18 12.75C17.3096 12.75 16.75 13.3096 16.75 14C16.75 14.6904 17.3096 15.25 18 15.25C18.6904 15.25 19.25 14.6904 19.25 14C19.25 13.3096 18.6904 12.75 18 12.75Z"
            fill="#303233" />
        <path fill-rule="evenodd" clip-rule="evenodd"
            d="M15.8385 4H4.16146C3.63433 3.99998 3.17954 3.99997 2.80498 4.03057C2.40963 4.06287 2.01641 4.13419 1.63803 4.32698C1.07355 4.6146 0.614604 5.07354 0.326984 5.63803C0.13419 6.01641 0.0628738 6.40963 0.0305728 6.80497C-2.94745e-05 7.17953 -1.54804e-05 7.63426 7.43439e-07 8.16138V11.8385C-1.54804e-05 12.3657 -2.94745e-05 12.8205 0.0305728 13.195C0.0628738 13.5904 0.13419 13.9836 0.326984 14.362C0.614604 14.9265 1.07355 15.3854 1.63803 15.673C2.01641 15.8658 2.40963 15.9371 2.80498 15.9694C3.14076 15.9969 3.54099 15.9997 4.00003 16C4.00031 16.459 4.00314 16.8592 4.03057 17.195C4.06287 17.5904 4.13419 17.9836 4.32698 18.362C4.6146 18.9265 5.07355 19.3854 5.63803 19.673C6.01641 19.8658 6.40963 19.9371 6.80498 19.9694C7.17952 20 7.63425 20 8.16136 20H19.8385C20.3656 20 20.8205 20 21.195 19.9694C21.5904 19.9371 21.9836 19.8658 22.362 19.673C22.9265 19.3854 23.3854 18.9265 23.673 18.362C23.8658 17.9836 23.9371 17.5904 23.9694 17.195C24 16.8205 24 16.3657 24 15.8386V12.1614C24 11.6343 24 11.1795 23.9694 10.805C23.9371 10.4096 23.8658 10.0164 23.673 9.63803C23.3854 9.07354 22.9265 8.6146 22.362 8.32698C21.9836 8.13419 21.5904 8.06287 21.195 8.03057C20.8592 8.00314 20.459 8.00031 20 8.00003C19.9997 7.54098 19.9969 7.14076 19.9694 6.80497C19.9371 6.40963 19.8658 6.01641 19.673 5.63803C19.3854 5.07354 18.9265 4.6146 18.362 4.32698C17.9836 4.13419 17.5904 4.06287 17.195 4.03057C16.8205 3.99997 16.3657 3.99998 15.8385 4ZM17.9999 8C17.9995 7.5349 17.9964 7.21698 17.9761 6.96784C17.9539 6.69618 17.9162 6.59546 17.891 6.54601C17.7951 6.35785 17.6422 6.20487 17.454 6.109C17.4045 6.0838 17.3038 6.04613 17.0322 6.02393C16.7488 6.00078 16.3766 6 15.8 6H4.2C3.62345 6 3.25118 6.00078 2.96784 6.02393C2.69618 6.04613 2.59546 6.0838 2.54601 6.109C2.35785 6.20487 2.20487 6.35785 2.109 6.54601C2.0838 6.59546 2.04613 6.69618 2.02393 6.96784C2.00078 7.25118 2 7.62345 2 8.2V11.8C2 12.3766 2.00078 12.7488 2.02393 13.0322C2.04613 13.3038 2.0838 13.4045 2.109 13.454C2.20487 13.6422 2.35785 13.7951 2.54601 13.891C2.59546 13.9162 2.69618 13.9539 2.96784 13.9761C3.21699 13.9964 3.5349 13.9995 4 13.9999V12.1615C3.99998 11.6343 3.99997 11.1795 4.03057 10.805C4.06287 10.4096 4.13419 10.0164 4.32698 9.63803C4.6146 9.07354 5.07355 8.6146 5.63803 8.32698C6.01641 8.13419 6.40963 8.06287 6.80498 8.03057C7.17955 7.99997 7.63431 7.99998 8.16146 8H17.9999ZM6 15.8C6 16.3766 6.00078 16.7488 6.02393 17.0322C6.04613 17.3038 6.0838 17.4045 6.109 17.454C6.20487 17.6422 6.35785 17.7951 6.54601 17.891C6.59546 17.9162 6.69618 17.9539 6.96784 17.9761C7.25118 17.9992 7.62345 18 8.2 18H19.8C20.3766 18 20.7488 17.9992 21.0322 17.9761C21.3038 17.9539 21.4045 17.9162 21.454 17.891C21.6422 17.7951 21.7951 17.6422 21.891 17.454C21.9162 17.4046 21.9539 17.3038 21.9761 17.0322C21.9992 16.7488 22 16.3766 22 15.8V12.2C22 11.6234 21.9992 11.2512 21.9761 10.9678C21.9539 10.6962 21.9162 10.5955 21.891 10.546C21.7951 10.3579 21.6422 10.2049 21.454 10.109C21.4045 10.0838 21.3038 10.0461 21.0322 10.0239C20.7488 10.0008 20.3766 10 19.8 10H8.2C7.62345 10 7.25118 10.0008 6.96784 10.0239C6.69618 10.0461 6.59546 10.0838 6.54601 10.109C6.35785 10.2049 6.20487 10.3579 6.109 10.546C6.0838 10.5955 6.04613 10.6962 6.02393 10.9678C6.00078 11.2512 6 11.6234 6 12.2V15.8Z"
            fill="#303233" />
    </g>
    <defs>
        <clipPath id="clip0_3961_159">
            <rect width="24" height="24" fill="white" />
        </clipPath>
    </defs>
</svg>
