<svg width="24" height="24" viewBox="0 0 24 24" fill="none" xmlns="http://www.w3.org/2000/svg">
    <path fill-rule="evenodd" clip-rule="evenodd"
        d="M11.9949 1.625H12.0051C12.2122 1.6251 12.38 1.79307 12.3799 2.00018C12.3798 2.20729 12.2118 2.3751 12.0047 2.375H11.9953C11.7882 2.3751 11.6202 2.20729 11.6201 2.00018C11.62 1.79307 11.7878 1.6251 11.9949 1.625ZM13.5789 2.1168C13.619 1.91361 13.8162 1.7814 14.0194 1.82149L14.0294 1.82345C14.2325 1.86374 14.3645 2.06109 14.3242 2.26424C14.2839 2.46739 14.0866 2.59941 13.8834 2.55912L13.8742 2.5573C13.6711 2.51721 13.5388 2.31999 13.5789 2.1168ZM10.4211 2.1168C10.4612 2.31999 10.3289 2.51721 10.1258 2.5573L10.1166 2.55912C9.91341 2.59941 9.71606 2.46739 9.67577 2.26424C9.63547 2.06109 9.7675 1.86374 9.97064 1.82345L9.98056 1.82149C10.1838 1.7814 10.381 1.91361 10.4211 2.1168ZM15.4769 2.61346C15.5561 2.42211 15.7755 2.33123 15.9668 2.41047L15.9762 2.41435C16.1675 2.49377 16.2581 2.71322 16.1787 2.90449C16.0993 3.09576 15.8798 3.18643 15.6886 3.107L15.6799 3.1034C15.4885 3.02417 15.3977 2.80481 15.4769 2.61346ZM8.52309 2.61346C8.60233 2.80481 8.51145 3.02417 8.3201 3.1034L8.31143 3.107C8.12016 3.18643 7.90072 3.09576 7.82129 2.90449C7.74186 2.71322 7.83253 2.49377 8.0238 2.41435L8.03315 2.41047C8.2245 2.33123 8.44385 2.42211 8.52309 2.61346ZM17.2404 3.47316C17.3555 3.30101 17.5884 3.25478 17.7606 3.36991L17.769 3.37555C17.941 3.49085 17.987 3.72379 17.8717 3.89583C17.7564 4.06788 17.5235 4.11387 17.3514 3.99857L17.3436 3.99334C17.1715 3.87821 17.1252 3.64532 17.2404 3.47316ZM6.75961 3.47316C6.87475 3.64532 6.82852 3.87821 6.65637 3.99334L6.64856 3.99857C6.47651 4.11387 6.24358 4.06788 6.12827 3.89583C6.01297 3.72379 6.05897 3.49085 6.23101 3.37555L6.23943 3.36992C6.41159 3.25478 6.64448 3.30101 6.75961 3.47316ZM18.8023 4.66044C18.9487 4.51392 19.1861 4.51381 19.3326 4.66018L19.3398 4.66735C19.4862 4.81387 19.4861 5.0513 19.3396 5.19768C19.193 5.34405 18.9556 5.34394 18.8092 5.19742L18.8026 5.19077C18.6561 5.0444 18.6559 4.80696 18.8023 4.66044ZM5.19768 4.66044C5.34405 4.80696 5.34394 5.0444 5.19742 5.19077L5.19077 5.19742C5.0444 5.34394 4.80696 5.34406 4.66044 5.19768C4.51392 5.0513 4.51381 4.81387 4.66018 4.66735L4.66735 4.66018C4.81387 4.51381 5.0513 4.51392 5.19768 4.66044ZM20.1042 6.12827C20.2762 6.01297 20.5091 6.05897 20.6244 6.23101L20.6301 6.23943C20.7452 6.41159 20.699 6.64448 20.5268 6.75961C20.3547 6.87475 20.1218 6.82852 20.0067 6.65637L20.0014 6.64856C19.8861 6.47651 19.9321 6.24358 20.1042 6.12827ZM3.89583 6.12828C4.06788 6.24358 4.11387 6.47652 3.99857 6.64856L3.99334 6.65637C3.87821 6.82852 3.64532 6.87475 3.47316 6.75961C3.30101 6.64448 3.25478 6.41159 3.36991 6.23943L3.37555 6.23102C3.49085 6.05897 3.72379 6.01297 3.89583 6.12828ZM21.0955 7.82129C21.2868 7.74186 21.5062 7.83253 21.5856 8.0238L21.5895 8.03315C21.6688 8.2245 21.5779 8.44385 21.3865 8.52309C21.1952 8.60233 20.9758 8.51145 20.8966 8.3201L20.893 8.31143C20.8136 8.12016 20.9042 7.90072 21.0955 7.82129ZM2.90449 7.82129C3.09576 7.90072 3.18643 8.12016 3.107 8.31143L3.1034 8.3201C3.02417 8.51145 2.80481 8.60233 2.61346 8.52309C2.42211 8.44386 2.33123 8.2245 2.41047 8.03315L2.41435 8.0238C2.49377 7.83253 2.71322 7.74186 2.90449 7.82129ZM21.7358 9.67577C21.9389 9.63547 22.1363 9.7675 22.1765 9.97064L22.1785 9.98056C22.2186 10.1838 22.0864 10.381 21.8832 10.4211C21.68 10.4612 21.4828 10.3289 21.4427 10.1258L21.4409 10.1166C21.4006 9.91341 21.5326 9.71606 21.7358 9.67577ZM2.26424 9.67577C2.46739 9.71606 2.59941 9.91341 2.55912 10.1166L2.5573 10.1258C2.51721 10.3289 2.31999 10.4612 2.1168 10.4211C1.91361 10.381 1.7814 10.1838 1.82149 9.98056L1.82345 9.97065C1.86374 9.7675 2.06109 9.63548 2.26424 9.67577ZM2.00018 11.6201C2.20729 11.6202 2.3751 11.7882 2.375 11.9953V12.0047C2.3751 12.2118 2.20729 12.3798 2.00018 12.3799C1.79307 12.38 1.6251 12.2122 1.625 12.0051V11.9949C1.6251 11.7878 1.79307 11.62 2.00018 11.6201ZM21.9998 11.6201C22.2069 11.62 22.3749 11.7878 22.375 11.9949V12.0051C22.3749 12.2122 22.2069 12.38 21.9998 12.3799C21.7927 12.3798 21.6249 12.2118 21.625 12.0047V11.9953C21.6249 11.7882 21.7927 11.6202 21.9998 11.6201ZM21.8832 13.5789C22.0864 13.619 22.2186 13.8162 22.1785 14.0194L22.1765 14.0294C22.1363 14.2325 21.9389 14.3645 21.7358 14.3242C21.5326 14.2839 21.4006 14.0866 21.4409 13.8834L21.4427 13.8742C21.4828 13.6711 21.68 13.5388 21.8832 13.5789ZM2.1168 13.5789C2.31999 13.5388 2.51721 13.6711 2.5573 13.8742L2.55912 13.8834C2.59941 14.0866 2.46739 14.2839 2.26424 14.3242C2.06109 14.3645 1.86374 14.2325 1.82345 14.0294L1.82149 14.0194C1.7814 13.8162 1.91361 13.619 2.1168 13.5789ZM21.3865 15.4769C21.5779 15.5561 21.6688 15.7755 21.5895 15.9668L21.5856 15.9762C21.5062 16.1675 21.2868 16.2581 21.0955 16.1787C20.9042 16.0993 20.8136 15.8798 20.893 15.6886L20.8966 15.6799C20.9758 15.4885 21.1952 15.3977 21.3865 15.4769ZM2.61346 15.4769C2.80481 15.3977 3.02417 15.4885 3.1034 15.6799L3.107 15.6886C3.18643 15.8798 3.09576 16.0993 2.90449 16.1787C2.71322 16.2581 2.49377 16.1675 2.41435 15.9762L2.41047 15.9668C2.33123 15.7755 2.42211 15.5561 2.61346 15.4769ZM20.5268 17.2404C20.699 17.3555 20.7452 17.5884 20.6301 17.7606L20.6244 17.769C20.5091 17.941 20.2762 17.987 20.1042 17.8717C19.9321 17.7564 19.8861 17.5235 20.0014 17.3514L20.0067 17.3436C20.1218 17.1715 20.3547 17.1252 20.5268 17.2404ZM3.47316 17.2404C3.64532 17.1253 3.87821 17.1715 3.99334 17.3436L3.99857 17.3514C4.11387 17.5235 4.06788 17.7564 3.89583 17.8717C3.72379 17.987 3.49085 17.941 3.37555 17.769L3.36992 17.7606C3.25478 17.5884 3.30101 17.3555 3.47316 17.2404ZM19.3396 18.8023C19.4861 18.9487 19.4862 19.1861 19.3398 19.3326L19.3326 19.3398C19.1861 19.4862 18.9487 19.4861 18.8023 19.3396C18.6559 19.193 18.6561 18.9556 18.8026 18.8092L18.8092 18.8026C18.9556 18.6561 19.193 18.6559 19.3396 18.8023ZM4.66044 18.8023C4.80696 18.6559 5.0444 18.6561 5.19077 18.8026L5.19742 18.8092C5.34394 18.9556 5.34406 19.193 5.19768 19.3396C5.0513 19.4861 4.81387 19.4862 4.66735 19.3398L4.66018 19.3326C4.51381 19.1861 4.51392 18.9487 4.66044 18.8023ZM6.12828 20.1042C6.24358 19.9321 6.47652 19.8861 6.64856 20.0014L6.65637 20.0067C6.82852 20.1218 6.87475 20.3547 6.75961 20.5268C6.64448 20.699 6.41159 20.7452 6.23943 20.6301L6.23102 20.6244C6.05897 20.5091 6.01297 20.2762 6.12828 20.1042ZM17.8717 20.1042C17.987 20.2762 17.941 20.5091 17.769 20.6244L17.7606 20.6301C17.5884 20.7452 17.3555 20.699 17.2404 20.5268C17.1253 20.3547 17.1715 20.1218 17.3436 20.0067L17.3514 20.0014C17.5235 19.8861 17.7564 19.9321 17.8717 20.1042ZM7.82129 21.0955C7.90072 20.9042 8.12016 20.8136 8.31143 20.893L8.3201 20.8966C8.51145 20.9758 8.60233 21.1952 8.52309 21.3865C8.44386 21.5779 8.2245 21.6688 8.03315 21.5895L8.0238 21.5856C7.83253 21.5062 7.74186 21.2868 7.82129 21.0955ZM16.1787 21.0955C16.2581 21.2868 16.1675 21.5062 15.9762 21.5856L15.9668 21.5895C15.7755 21.6688 15.5561 21.5779 15.4769 21.3865C15.3977 21.1952 15.4885 20.9758 15.6799 20.8966L15.6886 20.893C15.8798 20.8136 16.0993 20.9042 16.1787 21.0955ZM9.67577 21.7358C9.71606 21.5326 9.91341 21.4006 10.1166 21.4409L10.1258 21.4427C10.3289 21.4828 10.4612 21.68 10.4211 21.8832C10.381 22.0864 10.1838 22.2186 9.98056 22.1785L9.97065 22.1765C9.7675 22.1363 9.63548 21.9389 9.67577 21.7358ZM14.3242 21.7358C14.3645 21.9389 14.2325 22.1363 14.0294 22.1765L14.0194 22.1785C13.8162 22.2186 13.619 22.0864 13.5789 21.8832C13.5388 21.68 13.6711 21.4828 13.8742 21.4427L13.8834 21.4409C14.0866 21.4006 14.2839 21.5326 14.3242 21.7358ZM11.6201 21.9998C11.6202 21.7927 11.7882 21.6249 11.9953 21.625H12.0047C12.2118 21.6249 12.3798 21.7927 12.3799 21.9998C12.38 22.2069 12.2122 22.3749 12.0051 22.375H11.9949C11.7878 22.3749 11.62 22.2069 11.6201 21.9998Z"
        fill="#303233" />
    <path fill-rule="evenodd" clip-rule="evenodd"
        d="M12 18.25C15.4518 18.25 18.25 15.4518 18.25 12C18.25 8.54822 15.4518 5.75 12 5.75C8.54822 5.75 5.75 8.54822 5.75 12C5.75 15.4518 8.54822 18.25 12 18.25ZM12 19C15.866 19 19 15.866 19 12C19 8.13401 15.866 5 12 5C8.13401 5 5 8.13401 5 12C5 15.866 8.13401 19 12 19Z"
        fill="#303233" />
    <path fill-rule="evenodd" clip-rule="evenodd"
        d="M12 14.5C13.3807 14.5 14.5 13.3807 14.5 12C14.5 10.6193 13.3807 9.5 12 9.5C10.6193 9.5 9.5 10.6193 9.5 12C9.5 13.3807 10.6193 14.5 12 14.5ZM12 16C14.2091 16 16 14.2091 16 12C16 9.79086 14.2091 8 12 8C9.79086 8 8 9.79086 8 12C8 14.2091 9.79086 16 12 16Z"
        fill="#303233" />
</svg>
