<svg width="24" height="24" viewBox="0 0 24 24" fill="none" xmlns="http://www.w3.org/2000/svg">
    <path fill-rule="evenodd" clip-rule="evenodd"
        d="M5 2C5.55228 2 6 2.44772 6 3V7C6 7.55228 5.55228 8 5 8C4.44772 8 4 7.55228 4 7V3C4 2.44772 4.44772 2 5 2ZM12 2C12.5523 2 13 2.44772 13 3V6.17071C14.1652 6.58254 15 7.69378 15 9C15 10.6569 13.6569 12 12 12C10.3431 12 9 10.6569 9 9C9 7.69378 9.83481 6.58254 11 6.17071V3C11 2.44772 11.4477 2 12 2ZM19 2C19.5523 2 20 2.44772 20 3V9C20 9.55228 19.5523 10 19 10C18.4477 10 18 9.55228 18 9V3C18 2.44772 18.4477 2 19 2ZM12 8C11.4477 8 11 8.44772 11 9C11 9.55228 11.4477 10 12 10C12.5523 10 13 9.55228 13 9C13 8.44772 12.5523 8 12 8ZM5 12C4.44772 12 4 12.4477 4 13C4 13.5523 4.44772 14 5 14C5.55228 14 6 13.5523 6 13C6 12.4477 5.55228 12 5 12ZM2 13C2 11.3431 3.34315 10 5 10C6.65685 10 8 11.3431 8 13C8 14.3062 7.16519 15.4175 6 15.8293V21C6 21.5523 5.55228 22 5 22C4.44772 22 4 21.5523 4 21L4 15.8293C2.83481 15.4175 2 14.3062 2 13ZM19 14C18.4477 14 18 14.4477 18 15C18 15.5523 18.4477 16 19 16C19.5523 16 20 15.5523 20 15C20 14.4477 19.5523 14 19 14ZM16 15C16 13.3431 17.3431 12 19 12C20.6569 12 22 13.3431 22 15C22 16.3062 21.1652 17.4175 20 17.8293V21C20 21.5523 19.5523 22 19 22C18.4477 22 18 21.5523 18 21V17.8293C16.8348 17.4175 16 16.3062 16 15ZM12 14C12.5523 14 13 14.4477 13 15V21C13 21.5523 12.5523 22 12 22C11.4477 22 11 21.5523 11 21V15C11 14.4477 11.4477 14 12 14Z"
        fill="#303233" />
</svg>
