<svg width="24" height="24" viewBox="0 0 24 24" fill="none" xmlns="http://www.w3.org/2000/svg">
    <path fill-rule="evenodd" clip-rule="evenodd"
        d="M11 6H10.5C8.567 6 7 7.567 7 9.5C7 11.433 8.567 13 10.5 13H11V16H8C7.44772 16 7 16.4477 7 17C7 17.5523 7.44772 18 8 18H11V19C11 19.5523 11.4477 20 12 20C12.5523 20 13 19.5523 13 19V18H13.9998C15.9328 18 17.4998 16.433 17.4998 14.5C17.4998 12.567 15.9328 11 13.9998 11H13V8H15.5C16.0523 8 16.5 7.55228 16.5 7C16.5 6.44772 16.0523 6 15.5 6H13V5C13 4.44772 12.5523 4 12 4C11.4477 4 11 4.44772 11 5V6ZM10.5 8C9.67157 8 9 8.67157 9 9.5C9 10.3284 9.67157 11 10.5 11H11V8H10.5ZM13 13V16H13.9998C14.8283 16 15.4998 15.3284 15.4998 14.5C15.4998 13.6716 14.8283 13 13.9998 13H13Z"
        fill="#303233" />
    <path fill-rule="evenodd" clip-rule="evenodd"
        d="M1 12C1 5.92487 5.92487 1 12 1C18.0751 1 23 5.92487 23 12C23 18.0751 18.0751 23 12 23C5.92487 23 1 18.0751 1 12ZM12 3C7.02944 3 3 7.02944 3 12C3 16.9706 7.02944 21 12 21C16.9706 21 21 16.9706 21 12C21 7.02944 16.9706 3 12 3Z"
        fill="#303233" />
</svg>
