<svg width="16" height="16" viewBox="0 0 16 16" fill="none" xmlns="http://www.w3.org/2000/svg">
    <path fill-rule="evenodd" clip-rule="evenodd"
        d="M10.2215 1H5.77853C5.21919 0.999995 4.769 0.999992 4.40464 1.02976C4.02979 1.06039 3.70198 1.125 3.39915 1.2793C2.91698 1.52497 2.52497 1.91698 2.2793 2.39915C2.125 2.70198 2.06039 3.02979 2.02976 3.40464C1.99999 3.769 2 4.21919 2 4.77853V11.2215C2 11.7808 1.99999 12.231 2.02976 12.5954C2.06039 12.9702 2.125 13.298 2.2793 13.6009C2.52497 14.083 2.91698 14.475 3.39915 14.7207C3.70198 14.875 4.02979 14.9396 4.40464 14.9702C4.76899 15 5.21918 15 5.77851 15H10.2215C10.2749 15 10.3272 15 10.3787 15L8.93934 13.5607C8.35355 12.9749 8.35355 12.0251 8.93934 11.4393C9.52513 10.8536 10.4749 10.8536 11.0607 11.4393L11.5 11.8787L13.4393 9.93934C13.6031 9.77559 13.7953 9.65762 14 9.58542V4.77851C14 4.21918 14 3.76899 13.9702 3.40464C13.9396 3.02979 13.875 2.70198 13.7207 2.39915C13.475 1.91698 13.083 1.52497 12.6009 1.2793C12.298 1.125 11.9702 1.06039 11.5954 1.02976C11.231 0.999992 10.7808 0.999995 10.2215 1Z"
        fill="#303233" />
    <path fill-rule="evenodd" clip-rule="evenodd"
        d="M14.8536 10.6464C15.0488 10.8417 15.0488 11.1583 14.8536 11.3536L11.8536 14.3536C11.6583 14.5488 11.3417 14.5488 11.1464 14.3536L9.64645 12.8536C9.45118 12.6583 9.45118 12.3417 9.64645 12.1464C9.84171 11.9512 10.1583 11.9512 10.3536 12.1464L11.5 13.2929L14.1464 10.6464C14.3417 10.4512 14.6583 10.4512 14.8536 10.6464Z"
        fill="#303233" />
</svg>
