<svg width="24" height="24" viewBox="0 0 24 24" fill="none" xmlns="http://www.w3.org/2000/svg">
    <path fill-rule="evenodd" clip-rule="evenodd"
        d="M12 6C7.58172 6 4 9.58172 4 14C4 18.4183 7.58172 22 12 22C16.4183 22 20 18.4183 20 14C20 9.58172 16.4183 6 12 6ZM2 14C2 8.47715 6.47715 4 12 4C17.5228 4 22 8.47715 22 14C22 19.5228 17.5228 24 12 24C6.47715 24 2 19.5228 2 14Z"
        fill="#303233" />
    <path fill-rule="evenodd" clip-rule="evenodd"
        d="M9 2C9 1.44772 9.44772 1 10 1H14C14.5523 1 15 1.44772 15 2C15 2.55228 14.5523 3 14 3H10C9.44772 3 9 2.55228 9 2Z"
        fill="#303233" />
    <path fill-rule="evenodd" clip-rule="evenodd"
        d="M19.0711 4.10051C19.4616 3.70998 20.0948 3.70998 20.4853 4.10051L21.8995 5.51472C22.29 5.90524 22.29 6.53841 21.8995 6.92893C21.509 7.31946 20.8758 7.31946 20.4853 6.92893L19.0711 5.51472C18.6805 5.12419 18.6805 4.49103 19.0711 4.10051Z"
        fill="#303233" />
    <path
        d="M12 7V14L7.05025 18.9497C8.317 20.2165 10.067 21 12 21C15.866 21 19 17.866 19 14C19 10.134 15.866 7 12 7Z"
        fill="#303233" />
</svg>
