<svg width="24" height="24" viewBox="0 0 24 24" fill="none" xmlns="http://www.w3.org/2000/svg">
    <path fill-rule="evenodd" clip-rule="evenodd"
        d="M15.2413 1H8.7587C7.95374 0.999988 7.28937 0.999978 6.74818 1.04419C6.18608 1.09012 5.66937 1.18868 5.18404 1.43598C4.43139 1.81947 3.81947 2.43139 3.43598 3.18404C3.18868 3.66937 3.09012 4.18608 3.04419 4.74818C2.99998 5.28937 2.99999 5.95372 3 6.75869V17.2413C2.99999 18.0463 2.99998 18.7106 3.04419 19.2518C3.09012 19.8139 3.18868 20.3306 3.43598 20.816C3.81947 21.5686 4.43139 22.1805 5.18404 22.564C5.66937 22.8113 6.18608 22.9099 6.74818 22.9558C7.28936 23 7.95372 23 8.75868 23H14.7574L12.8787 21.1213C11.7071 19.9497 11.7071 18.0503 12.8787 16.8787C13.4645 16.2929 14.2322 16 15 16C15 14.3431 16.3431 13 18 13C19.6569 13 21 14.3431 21 16V6.75868C21 5.95372 21 5.28936 20.9558 4.74818C20.9099 4.18608 20.8113 3.66937 20.564 3.18404C20.1805 2.43139 19.5686 1.81947 18.816 1.43598C18.3306 1.18868 17.8139 1.09012 17.2518 1.04419C16.7106 0.999978 16.0463 0.999988 15.2413 1Z"
        fill="#303233" />
    <path fill-rule="evenodd" clip-rule="evenodd"
        d="M18 15C18.5523 15 19 15.4477 19 16V19.5858L20.2929 18.2929C20.6834 17.9024 21.3166 17.9024 21.7071 18.2929C22.0976 18.6834 22.0976 19.3166 21.7071 19.7071L18.7071 22.7071C18.3166 23.0976 17.6834 23.0976 17.2929 22.7071L14.2929 19.7071C13.9024 19.3166 13.9024 18.6834 14.2929 18.2929C14.6834 17.9024 15.3166 17.9024 15.7071 18.2929L17 19.5858V16C17 15.4477 17.4477 15 18 15Z"
        fill="#303233" />
</svg>
