<svg width="24" height="24" viewBox="0 0 24 24" fill="none" xmlns="http://www.w3.org/2000/svg">
    <path fill-rule="evenodd" clip-rule="evenodd"
        d="M6.25 7C6.25 3.82436 8.82436 1.25 12 1.25C15.1756 1.25 17.75 3.82436 17.75 7C17.75 7.41421 17.4142 7.75 17 7.75C16.5858 7.75 16.25 7.41421 16.25 7C16.25 4.65279 14.3472 2.75 12 2.75C9.65279 2.75 7.75 4.65279 7.75 7V10.2541C8.0586 10.25 8.39686 10.25 8.76788 10.25H15.2321C16.045 10.25 16.7006 10.25 17.2315 10.2934C17.7781 10.338 18.2582 10.4324 18.7025 10.6587C19.4081 11.0183 19.9818 11.5919 20.3413 12.2975C20.5676 12.7418 20.662 13.2219 20.7066 13.7685C20.75 14.2994 20.75 14.955 20.75 15.7679V16.2321C20.75 17.045 20.75 17.7006 20.7066 18.2315C20.662 18.7781 20.5676 19.2582 20.3413 19.7025C19.9818 20.4081 19.4081 20.9817 18.7025 21.3413C18.2582 21.5676 17.7781 21.662 17.2315 21.7066C16.7006 21.75 16.045 21.75 15.2321 21.75H8.76788C7.95505 21.75 7.29944 21.75 6.76853 21.7066C6.2219 21.662 5.74175 21.5676 5.29754 21.3413C4.59193 20.9817 4.01825 20.4081 3.65873 19.7025C3.43239 19.2582 3.33803 18.7781 3.29336 18.2315C3.24999 17.7006 3.24999 17.0449 3.25 16.2321V15.7679C3.24999 14.9551 3.24999 14.2994 3.29336 13.7685C3.33803 13.2219 3.43239 12.7418 3.65873 12.2975C4.01825 11.5919 4.59193 11.0183 5.29754 10.6587C5.59575 10.5068 5.91016 10.4143 6.25 10.3564V7Z"
        fill="#303233" />
</svg>
