<svg width="16" height="16" viewBox="0 0 16 16" fill="none" xmlns="http://www.w3.org/2000/svg">
    <g clip-path="url(#clip0_53_3592)">
        <path fill-rule="evenodd" clip-rule="evenodd"
            d="M3 0.75C3.41421 0.75 3.75 1.08579 3.75 1.5L3.75 4.5C3.75 4.91421 3.41421 5.25 3 5.25C2.58579 5.25 2.25 4.91421 2.25 4.5L2.25 1.5C2.25 1.08579 2.58579 0.75 3 0.75ZM8 0.75C8.41421 0.75 8.75 1.08579 8.75 1.5V3.87803C9.62389 4.18691 10.25 5.02034 10.25 6C10.25 7.24264 9.24264 8.25 8 8.25C6.75736 8.25 5.75 7.24264 5.75 6C5.75 5.02034 6.37611 4.18691 7.25 3.87803V1.5C7.25 1.08579 7.58579 0.75 8 0.75ZM13 0.75C13.4142 0.75 13.75 1.08579 13.75 1.5V6C13.75 6.41421 13.4142 6.75 13 6.75C12.5858 6.75 12.25 6.41421 12.25 6V1.5C12.25 1.08579 12.5858 0.75 13 0.75ZM0.75 9C0.75 7.75736 1.75736 6.75 3 6.75C4.24264 6.75 5.25 7.75736 5.25 9C5.25 9.97966 4.62389 10.8131 3.75 11.122V14.5C3.75 14.9142 3.41421 15.25 3 15.25C2.58579 15.25 2.25 14.9142 2.25 14.5V11.122C1.37611 10.8131 0.75 9.97966 0.75 9ZM10.75 10.5C10.75 9.25736 11.7574 8.25 13 8.25C14.2426 8.25 15.25 9.25736 15.25 10.5C15.25 11.4797 14.6239 12.3131 13.75 12.622V14.5C13.75 14.9142 13.4142 15.25 13 15.25C12.5858 15.25 12.25 14.9142 12.25 14.5V12.622C11.3761 12.3131 10.75 11.4797 10.75 10.5ZM8 9.75C8.41421 9.75 8.75 10.0858 8.75 10.5V14.5C8.75 14.9142 8.41421 15.25 8 15.25C7.58579 15.25 7.25 14.9142 7.25 14.5V10.5C7.25 10.0858 7.58579 9.75 8 9.75Z"
            fill="#303233" />
    </g>
    <defs>
        <clipPath id="clip0_53_3592">
            <rect width="16" height="16" fill="white" />
        </clipPath>
    </defs>
</svg>
