<svg width="24" height="24" viewBox="0 0 24 24" fill="none" xmlns="http://www.w3.org/2000/svg">
    <path fill-rule="evenodd" clip-rule="evenodd"
        d="M17.6445 7.06026C15.335 4.41487 11.405 3.68249 8.24898 5.50464C6.09051 6.75084 4.78521 8.90712 4.53978 11.2128C4.48133 11.762 3.98874 12.1598 3.43956 12.1014C2.89037 12.0429 2.49256 11.5503 2.55102 11.0012C2.8612 8.0871 4.51348 5.35193 7.24898 3.77259C11.3778 1.3888 16.5523 2.45658 19.4312 6.08066L19.5398 5.67519C19.6828 5.14172 20.2311 4.82514 20.7646 4.96808C21.298 5.11102 21.6146 5.65936 21.4717 6.19283L20.7396 8.92488C20.671 9.18106 20.5034 9.39948 20.2737 9.53208C20.044 9.66469 19.7711 9.70063 19.5149 9.63198L16.7828 8.89993C16.2494 8.75699 15.9328 8.20865 16.0757 7.67519C16.2187 7.14172 16.767 6.82514 17.3005 6.96808L17.6445 7.06026ZM20.5581 11.8987C21.1073 11.9571 21.5051 12.4497 21.4466 12.9989C21.1365 15.913 19.4842 18.6481 16.7487 20.2275C12.62 22.6111 7.44587 21.5436 4.56687 17.9199L4.45836 18.3249C4.31542 18.8583 3.76708 19.1749 3.23362 19.032C2.70015 18.889 2.38357 18.3407 2.52651 17.8072L3.25856 15.0752C3.4015 14.5417 3.94984 14.2251 4.48331 14.3681L7.21536 15.1001C7.74882 15.2431 8.06541 15.7914 7.92246 16.3249C7.77952 16.8583 7.23118 17.1749 6.69772 17.032L6.35299 16.9396C8.6625 19.5851 12.5925 20.3176 15.7487 18.4954C17.9071 17.2492 19.2124 15.0929 19.4579 12.7872C19.5163 12.238 20.0089 11.8402 20.5581 11.8987Z"
        fill="#303233" />
</svg>
