<svg width="16" height="16" viewBox="0 0 16 16" fill="none" xmlns="http://www.w3.org/2000/svg">
    <path fill-rule="evenodd" clip-rule="evenodd"
        d="M1 2.8C1 1.80589 1.80589 1 2.8 1H4C4.27614 1 4.5 1.22386 4.5 1.5C4.5 1.77614 4.27614 2 4 2H2.8C2.35817 2 2 2.35817 2 2.8L2 4C2 4.27614 1.77614 4.5 1.5 4.5C1.22386 4.5 1 4.27614 1 4L1 2.8ZM6 1.5C6 1.22386 6.22386 1 6.5 1H9.5C9.77614 1 10 1.22386 10 1.5C10 1.77614 9.77614 2 9.5 2H6.5C6.22386 2 6 1.77614 6 1.5ZM11.5 1.5C11.5 1.22386 11.7239 1 12 1H13.2C14.1941 1 15 1.80589 15 2.8V4C15 4.27614 14.7761 4.5 14.5 4.5C14.2239 4.5 14 4.27614 14 4V2.8C14 2.35817 13.6418 2 13.2 2H12C11.7239 2 11.5 1.77614 11.5 1.5ZM1.5 6C1.77614 6 2 6.22386 2 6.5V9.5C2 9.77614 1.77614 10 1.5 10C1.22386 10 1 9.77614 1 9.5V6.5C1 6.22386 1.22386 6 1.5 6ZM14.5 6C14.7761 6 15 6.22386 15 6.5V9.5C15 9.77614 14.7761 10 14.5 10C14.2239 10 14 9.77614 14 9.5V6.5C14 6.22386 14.2239 6 14.5 6ZM1.5 11.5C1.77614 11.5 2 11.7239 2 12L2 13.2C2 13.6418 2.35817 14 2.8 14H4C4.27614 14 4.5 14.2239 4.5 14.5C4.5 14.7761 4.27614 15 4 15H2.8C1.80589 15 1 14.1941 1 13.2L1 12C1 11.7239 1.22386 11.5 1.5 11.5ZM14.5 11.5C14.7761 11.5 15 11.7239 15 12V13.2C15 14.1941 14.1941 15 13.2 15H12C11.7239 15 11.5 14.7761 11.5 14.5C11.5 14.2239 11.7239 14 12 14H13.2C13.6418 14 14 13.6418 14 13.2V12C14 11.7239 14.2239 11.5 14.5 11.5ZM6 14.5C6 14.2239 6.22386 14 6.5 14H9.5C9.77614 14 10 14.2239 10 14.5C10 14.7761 9.77614 15 9.5 15H6.5C6.22386 15 6 14.7761 6 14.5Z"
        fill="#303233" />
</svg>
