<svg width="16" height="16" viewBox="0 0 16 16" fill="none" xmlns="http://www.w3.org/2000/svg">
    <path fill-rule="evenodd" clip-rule="evenodd"
        d="M2 6.564C2 4.65318 3.4472 2.5 5.73889 2.5C6.75064 2.5 7.49244 2.90162 8 3.34711C8.50756 2.90162 9.24936 2.5 10.2611 2.5C12.5528 2.5 14 4.65318 14 6.564C14 7.56589 13.612 8.4936 13.0696 9.30216C12.5268 10.1113 11.8115 10.8285 11.1089 11.4207C10.4044 12.0144 9.69903 12.4939 9.16369 12.8251C8.89569 12.9909 8.66813 13.1209 8.50193 13.2106C8.41923 13.2553 8.34928 13.2913 8.29565 13.3172C8.2695 13.3299 8.24275 13.3423 8.21818 13.3526C8.20652 13.3575 8.18907 13.3646 8.16919 13.3714C8.15942 13.3747 8.14314 13.38 8.12308 13.3849C8.11031 13.3881 8.06197 13.4 8 13.4C7.93803 13.4 7.89003 13.3881 7.87725 13.385C7.85719 13.38 7.84058 13.3747 7.83081 13.3714C7.81093 13.3646 7.79348 13.3575 7.78182 13.3526C7.75725 13.3423 7.7305 13.3299 7.70435 13.3172C7.65072 13.2913 7.58077 13.2553 7.49807 13.2106C7.33187 13.1209 7.10431 12.9909 6.83631 12.8251C6.30097 12.4939 5.59559 12.0144 4.89111 11.4207C4.18851 10.8285 3.47317 10.1113 2.93039 9.30216C2.38802 8.4936 2 7.56589 2 6.564Z"
        fill="#303233" />
</svg>
