<svg width="16" height="16" viewBox="0 0 16 16" fill="none" xmlns="http://www.w3.org/2000/svg">
    <path
        d="M2.75 5C2.75 3.20507 4.20507 1.75 6 1.75C7.79493 1.75 9.25 3.20507 9.25 5C9.25 6.79493 7.79493 8.25 6 8.25C4.20507 8.25 2.75 6.79493 2.75 5Z"
        fill="#303233" />
    <path
        d="M9.96601 8.24982C9.76617 8.24775 9.67902 8.01181 9.79912 7.85209C10.3964 7.05785 10.7503 6.07026 10.7503 5C10.7503 3.92974 10.3964 2.94215 9.79912 2.14791C9.67902 1.98819 9.76617 1.75225 9.966 1.75018L10.0003 1.75C11.7953 1.75 13.2503 3.20507 13.2503 5C13.2503 6.79493 11.7953 8.25 10.0003 8.25L9.96601 8.24982Z"
        fill="#303233" />
    <path
        d="M11.26 8.88846C11.0181 8.83439 10.8874 9.13899 11.0648 9.31213C12.1836 10.4045 12.9504 11.8557 13.1791 13.4798C13.2393 13.9069 13.5882 14.25 14.0195 14.25H14.8999C15.125 14.25 15.3382 14.1489 15.4806 13.9747C15.6231 13.8004 15.6797 13.5714 15.6349 13.3508C15.185 11.1343 13.461 9.38047 11.26 8.88846Z"
        fill="#303233" />
    <path
        d="M5.9996 8.75C3.21692 8.75 0.897431 10.7259 0.364606 13.3508C0.319832 13.5714 0.376484 13.8004 0.518927 13.9747C0.66137 14.1489 0.874544 14.25 1.09962 14.25H10.8996C11.1247 14.25 11.3378 14.1489 11.4803 13.9747C11.6227 13.8004 11.6794 13.5714 11.6346 13.3508C11.1018 10.7259 8.78227 8.75 5.9996 8.75Z"
        fill="#303233" />
</svg>
