<svg width="24" height="24" viewBox="0 0 24 24" fill="none" xmlns="http://www.w3.org/2000/svg">
    <path fill-rule="evenodd" clip-rule="evenodd"
        d="M6.25 8C6.25 6.48122 7.48122 5.25 9 5.25C10.5188 5.25 11.75 6.48122 11.75 8C11.75 9.51878 10.5188 10.75 9 10.75C7.48122 10.75 6.25 9.51878 6.25 8ZM9 6.75C8.30964 6.75 7.75 7.30964 7.75 8C7.75 8.69036 8.30964 9.25 9 9.25C9.69036 9.25 10.25 8.69036 10.25 8C10.25 7.30964 9.69036 6.75 9 6.75Z"
        fill="#303233" />
    <path fill-rule="evenodd" clip-rule="evenodd"
        d="M12 1.25C6.06294 1.25 1.25 6.06294 1.25 12C1.25 17.9371 6.06294 22.75 12 22.75C17.9371 22.75 22.75 17.9371 22.75 12C22.75 6.06294 17.9371 1.25 12 1.25ZM2.75 12C2.75 6.89137 6.89137 2.75 12 2.75C17.1086 2.75 21.25 6.89137 21.25 12C21.25 12.3798 21.2271 12.7542 21.1826 13.122L17.2374 9.17678C16.554 8.49336 15.446 8.49336 14.7626 9.17678L5.429 18.5103C3.77287 16.8389 2.75 14.5389 2.75 12ZM6.57078 19.4899C8.09554 20.5971 9.97152 21.25 12 21.25C16.1105 21.25 19.5947 18.5689 20.7994 14.86L16.1768 10.2374C16.0791 10.1398 15.9209 10.1398 15.8232 10.2374L6.57078 19.4899Z"
        fill="#303233" />
</svg>
