<svg width="16" height="16" viewBox="0 0 16 16" fill="none" xmlns="http://www.w3.org/2000/svg">
    <path
        d="M3.20592 4.84561C3.42925 4.68319 3.74195 4.73256 3.90437 4.95589L5.5 7.14988L7.09564 4.95589C7.25806 4.73256 7.57076 4.68319 7.79409 4.84561C8.01742 5.00803 8.06679 5.32073 7.90437 5.54406L6.11825 7.99997L7.90437 10.4559C8.06679 10.6792 8.01742 10.9919 7.79409 11.1543C7.57076 11.3168 7.25806 11.2674 7.09564 11.0441L5.5 8.85007L3.90437 11.0441C3.74195 11.2674 3.42925 11.3168 3.20592 11.1543C2.98259 10.9919 2.93322 10.6792 3.09564 10.4559L4.88176 7.99997L3.09564 5.54406C2.93322 5.32073 2.98259 5.00803 3.20592 4.84561Z"
        fill="#303233" />
    <path
        d="M9.5 6.625C9.5 6.15021 9.89441 5.75 10.4 5.75H11.1C11.4369 5.75 11.7275 5.92917 11.8819 6.19125C12.022 6.42919 12.3285 6.50847 12.5665 6.36833C12.8044 6.22818 12.8837 5.92169 12.7435 5.68375C12.4138 5.12385 11.7995 4.75 11.1 4.75H10.4C9.35919 4.75 8.5 5.58101 8.5 6.625C8.5 7.66899 9.35919 8.5 10.4 8.5H11.1C11.6056 8.5 12 8.90021 12 9.375C12 9.84979 11.6056 10.25 11.1 10.25H10.4C10.0631 10.25 9.77248 10.0708 9.61812 9.80875C9.47798 9.57081 9.17148 9.49153 8.93354 9.63167C8.69561 9.77182 8.61633 10.0783 8.75647 10.3162C9.08624 10.8761 9.70049 11.25 10.4 11.25H11.1C12.1408 11.25 13 10.419 13 9.375C13 8.33101 12.1408 7.5 11.1 7.5H10.4C9.89441 7.5 9.5 7.09979 9.5 6.625Z"
        fill="#303233" />
    <path fill-rule="evenodd" clip-rule="evenodd"
        d="M4.6786 2H11.3214C11.8633 2 12.3004 1.99999 12.6543 2.02891C13.0187 2.05868 13.3388 2.12159 13.635 2.27248C14.1054 2.51217 14.4878 2.89462 14.7275 3.36502C14.8784 3.66117 14.9413 3.98126 14.9711 4.34569C15 4.69961 15 5.13667 15 5.67853V10.3214C15 10.8633 15 11.3004 14.9711 11.6543C14.9413 12.0187 14.8784 12.3388 14.7275 12.635C14.4878 13.1054 14.1054 13.4878 13.635 13.7275C13.3388 13.8784 13.0187 13.9413 12.6543 13.9711C12.3004 14 11.8633 14 11.3215 14H4.67858C4.13672 14 3.69961 14 3.34569 13.9711C2.98126 13.9413 2.66117 13.8784 2.36502 13.7275C1.89462 13.4878 1.51217 13.1054 1.27248 12.635C1.12159 12.3388 1.05868 12.0187 1.02891 11.6543C0.999991 11.3004 0.999995 10.8633 1 10.3214V5.6786C0.999995 5.13671 0.999991 4.69963 1.02891 4.34569C1.05868 3.98126 1.12159 3.66117 1.27248 3.36502C1.51217 2.89462 1.89462 2.51217 2.36502 2.27248C2.66117 2.12159 2.98126 2.05868 3.34569 2.02891C3.69963 1.99999 4.1367 2 4.6786 2ZM3.42712 3.02559C3.12454 3.05031 2.95069 3.0964 2.81901 3.16349C2.53677 3.3073 2.3073 3.53677 2.16349 3.81901C2.0964 3.95069 2.05031 4.12454 2.02559 4.42712C2.00039 4.73554 2 5.1317 2 5.7V10.3C2 10.8683 2.00039 11.2645 2.02559 11.5729C2.05031 11.8755 2.0964 12.0493 2.16349 12.181C2.3073 12.4632 2.53677 12.6927 2.81901 12.8365C2.95069 12.9036 3.12454 12.9497 3.42712 12.9744C3.73554 12.9996 4.1317 13 4.7 13H11.3C11.8683 13 12.2645 12.9996 12.5729 12.9744C12.8755 12.9497 13.0493 12.9036 13.181 12.8365C13.4632 12.6927 13.6927 12.4632 13.8365 12.181C13.9036 12.0493 13.9497 11.8755 13.9744 11.5729C13.9996 11.2645 14 10.8683 14 10.3V5.7C14 5.1317 13.9996 4.73554 13.9744 4.42712C13.9497 4.12454 13.9036 3.95069 13.8365 3.81901C13.6927 3.53677 13.4632 3.3073 13.181 3.16349C13.0493 3.0964 12.8755 3.05031 12.5729 3.02559C12.2645 3.00039 11.8683 3 11.3 3H4.7C4.1317 3 3.73554 3.00039 3.42712 3.02559Z"
        fill="#303233" />
</svg>
