<svg width="16" height="16" viewBox="0 0 16 16" fill="none" xmlns="http://www.w3.org/2000/svg">
    <path fill-rule="evenodd" clip-rule="evenodd"
        d="M7.69892 2C5.4787 2 3.53949 3.20565 2.5013 5.00036C2.36303 5.23939 2.05717 5.32107 1.81814 5.1828C1.57911 5.04453 1.49743 4.73867 1.6357 4.49964C2.84528 2.40864 5.1073 1 7.69892 1C11.5649 1 14.6989 4.13401 14.6989 8C14.6989 11.866 11.5649 15 7.69892 15C5.1073 15 2.84528 13.5914 1.6357 11.5004C1.49743 11.2613 1.57911 10.9555 1.81814 10.8172C2.05717 10.6789 2.36303 10.7606 2.5013 10.9996C3.53949 12.7943 5.4787 14 7.69892 14C11.0126 14 13.6989 11.3137 13.6989 8C13.6989 4.68629 11.0126 2 7.69892 2ZM7.14561 5.14645C7.34087 4.95118 7.65746 4.95118 7.85272 5.14645L10.3527 7.64645C10.548 7.84171 10.548 8.15829 10.3527 8.35355L7.85272 10.8536C7.65746 11.0488 7.34087 11.0488 7.14561 10.8536C6.95035 10.6583 6.95035 10.3417 7.14561 10.1464L8.79206 8.5H2.06836C1.79222 8.5 1.56836 8.27614 1.56836 8C1.56836 7.72386 1.79222 7.5 2.06836 7.5H8.79206L7.14561 5.85355C6.95035 5.65829 6.95035 5.34171 7.14561 5.14645Z"
        fill="#303233" />
</svg>
