<svg width="16" height="16" viewBox="0 0 16 16" fill="none" xmlns="http://www.w3.org/2000/svg">
    <path fill-rule="evenodd" clip-rule="evenodd"
        d="M4.66957 1.25L11.3304 1.25C11.8646 1.24999 12.3104 1.24998 12.6747 1.27974C13.0546 1.31078 13.4112 1.37789 13.7485 1.54973C14.2659 1.81339 14.6866 2.23408 14.9503 2.75153C15.1221 3.08879 15.1892 3.44545 15.2203 3.82533C15.25 4.18956 15.25 4.6354 15.25 5.16955V10.8305C15.25 11.3646 15.25 11.8104 15.2203 12.1747C15.1892 12.5546 15.1221 12.9112 14.9503 13.2485C14.6866 13.7659 14.2659 14.1866 13.7485 14.4503C13.4112 14.6221 13.0546 14.6892 12.6747 14.7203C12.3104 14.75 11.8646 14.75 11.3305 14.75H4.66959C4.13543 14.75 3.68957 14.75 3.32533 14.7203C2.94544 14.6892 2.58879 14.6221 2.25153 14.4503C1.73408 14.1866 1.31338 13.7659 1.04973 13.2485C0.877889 12.9112 0.810778 12.5546 0.77974 12.1747C0.749981 11.8104 0.74999 11.3646 0.75 10.8304L0.750001 6.0004L0.750001 5.16957C0.74999 4.63541 0.749981 4.18956 0.77974 3.82533C0.810778 3.44545 0.877889 3.08879 1.04973 2.75153C1.31338 2.23408 1.73408 1.81338 2.25153 1.54973C2.58879 1.37789 2.94545 1.31078 3.32533 1.27974C3.68956 1.24998 4.13541 1.24999 4.66957 1.25ZM2.25 6.75L2.25 10.8C2.25 11.3724 2.25058 11.7566 2.27476 12.0525C2.29822 12.3396 2.3401 12.4769 2.38624 12.5675C2.50608 12.8027 2.69731 12.9939 2.93251 13.1138C3.02307 13.1599 3.16036 13.2018 3.44748 13.2252C3.74336 13.2494 4.12757 13.25 4.7 13.25H11.3C11.8724 13.25 12.2566 13.2494 12.5525 13.2252C12.8396 13.2018 12.9769 13.1599 13.0675 13.1138C13.3027 12.9939 13.4939 12.8027 13.6138 12.5675C13.6599 12.4769 13.7018 12.3396 13.7252 12.0525C13.7494 11.7566 13.75 11.3724 13.75 10.8V6.75H2.25ZM13.75 5.25H2.25V5.2C2.25 4.62757 2.25058 4.24336 2.27476 3.94748C2.29822 3.66036 2.3401 3.52307 2.38624 3.43251C2.50608 3.19731 2.69731 3.00608 2.93251 2.88624C3.02307 2.8401 3.16036 2.79822 3.44748 2.77476C3.74336 2.75058 4.12757 2.75 4.7 2.75L11.3 2.75C11.8724 2.75 12.2566 2.75058 12.5525 2.77476C12.8396 2.79822 12.9769 2.8401 13.0675 2.88624C13.3027 3.00609 13.4939 3.19731 13.6138 3.43251C13.6599 3.52307 13.7018 3.66035 13.7252 3.94748C13.7494 4.24336 13.75 4.62757 13.75 5.2V5.25ZM7.197 7.803C7.48989 8.0959 7.48989 8.57077 7.197 8.86366L6.06066 10L7.197 11.1363C7.48989 11.4292 7.48989 11.9041 7.197 12.197C6.9041 12.4899 6.42923 12.4899 6.13634 12.197L4.46967 10.5303C4.17678 10.2374 4.17678 9.76256 4.46967 9.46967L6.13634 7.803C6.42923 7.51011 6.9041 7.51011 7.197 7.803ZM8.803 7.803C9.0959 7.51011 9.57077 7.51011 9.86366 7.803L11.5303 9.46967C11.8232 9.76256 11.8232 10.2374 11.5303 10.5303L9.86366 12.197C9.57077 12.4899 9.0959 12.4899 8.803 12.197C8.51011 11.9041 8.51011 11.4292 8.803 11.1363L9.93934 10L8.803 8.86366C8.51011 8.57077 8.51011 8.0959 8.803 7.803Z"
        fill="#303233" />
</svg>
