<svg width="16" height="16" viewBox="0 0 16 16" fill="none" xmlns="http://www.w3.org/2000/svg">
    <path fill-rule="evenodd" clip-rule="evenodd"
        d="M8 3.75C5.10051 3.75 2.75 6.1005 2.75 9C2.75 11.8995 5.10051 14.25 8 14.25C10.8995 14.25 13.25 11.8995 13.25 9C13.25 6.1005 10.8995 3.75 8 3.75ZM1.25 9C1.25 5.27208 4.27208 2.25 8 2.25C11.7279 2.25 14.75 5.27208 14.75 9C14.75 12.7279 11.7279 15.75 8 15.75C4.27208 15.75 1.25 12.7279 1.25 9Z"
        fill="#303233" />
    <path fill-rule="evenodd" clip-rule="evenodd"
        d="M5.9165 1C5.9165 0.585786 6.25229 0.25 6.6665 0.25H9.33317C9.74739 0.25 10.0832 0.585786 10.0832 1C10.0832 1.41421 9.74739 1.75 9.33317 1.75H6.6665C6.25229 1.75 5.9165 1.41421 5.9165 1Z"
        fill="#303233" />
    <path fill-rule="evenodd" clip-rule="evenodd"
        d="M12.6552 2.3414C12.9481 2.04851 13.423 2.04851 13.7159 2.3414L14.6587 3.28421C14.9516 3.57711 14.9516 4.05198 14.6587 4.34487C14.3658 4.63777 13.8909 4.63777 13.598 4.34487L12.6552 3.40206C12.3623 3.10917 12.3623 2.6343 12.6552 2.3414Z"
        fill="#303233" />
    <path d="M8 4.5V8.99998L11.182 5.81801C10.3676 5.00368 9.24264 4.5 8 4.5Z" fill="#303233" />
</svg>
