<svg width="16" height="16" viewBox="0 0 16 16" fill="none" xmlns="http://www.w3.org/2000/svg">
    <path fill-rule="evenodd" clip-rule="evenodd"
        d="M7.03003 0.96967C6.73713 0.676777 6.26226 0.676777 5.96937 0.96967L3.99985 2.93919L2.03033 0.96967C1.73744 0.676777 1.26256 0.676777 0.96967 0.96967C0.676777 1.26256 0.676777 1.73744 0.96967 2.03033L2.93919 3.99985L2.21059 4.72845C1.83288 5.10615 1.51761 5.4214 1.2811 5.7C1.03443 5.99056 0.829688 6.29021 0.71272 6.6502C0.53326 7.20252 0.53326 7.79748 0.71272 8.3498C0.829688 8.70979 1.03443 9.00944 1.2811 9.3C1.51761 9.5786 1.83288 9.89386 2.21059 10.2716L3.72815 11.7891C4.1058 12.1668 4.42112 12.4821 4.69969 12.7186C4.99026 12.9653 5.28991 13.17 5.6499 13.287C6.20222 13.4664 6.79717 13.4664 7.34949 13.287C7.70949 13.17 8.00914 12.9653 8.2997 12.7186C8.5783 12.4821 8.89356 12.1668 9.27127 11.7891L13.03 8.03033C13.3229 7.73744 13.3229 7.26256 13.03 6.96967L7.03003 0.96967ZM3.99985 5.06051L3.29277 5.76759C2.888 6.17236 2.61673 6.44445 2.42461 6.67076C2.23817 6.89038 2.17071 7.01706 2.1393 7.11373C2.05773 7.36478 2.05773 7.63522 2.1393 7.88627C2.17071 7.98294 2.23817 8.10962 2.42461 8.32924C2.61673 8.55555 2.888 8.82764 3.29277 9.23241L4.76729 10.7069C5.17205 11.1117 5.44415 11.383 5.67046 11.5751C5.89007 11.7615 6.01676 11.829 6.11343 11.8604C6.36448 11.942 6.63491 11.942 6.88597 11.8604C6.98263 11.829 7.10932 11.7615 7.32894 11.5751C7.55525 11.383 7.82734 11.1117 8.23211 10.7069L11.439 7.5L6.4997 2.56066L5.06051 3.99985L6.02994 4.96928C6.32367 4.82871 6.65264 4.75 7 4.75C8.24264 4.75 9.25 5.75736 9.25 7C9.25 8.24264 8.24264 9.25 7 9.25C5.75736 9.25 4.75 8.24264 4.75 7C4.75 6.65264 4.82871 6.32367 4.96928 6.02994L3.99985 5.06051ZM7 6.25C6.58579 6.25 6.25 6.58579 6.25 7C6.25 7.41421 6.58579 7.75 7 7.75C7.41421 7.75 7.75 7.41421 7.75 7C7.75 6.58579 7.41421 6.25 7 6.25Z"
        fill="#303233" />
    <path fill-rule="evenodd" clip-rule="evenodd"
        d="M13.6709 9.66468C13.5438 9.41056 13.2841 9.25002 13 9.25C12.716 9.24998 12.4562 9.41049 12.3292 9.66459L10.3292 13.6646C10.2129 13.8971 10.2254 14.1732 10.362 14.3943C10.4987 14.6154 10.7401 14.75 11 14.75H14.9993C15.2593 14.75 15.5007 14.6154 15.6373 14.3943C15.774 14.1733 15.7864 13.8972 15.6702 13.6647L13.6709 9.66468ZM13.786 13.25H12.2135L12.9999 11.6773L13.786 13.25Z"
        fill="#303233" />
</svg>
