<svg width="16" height="16" viewBox="0 0 16 16" fill="none" xmlns="http://www.w3.org/2000/svg">
    <g clip-path="url(#clip0_53_8776)">
        <path fill-rule="evenodd" clip-rule="evenodd"
            d="M13.3333 0.502457C12.7593 0.502457 12.2088 0.730471 11.8029 1.13634L5.4696 7.46967C5.37349 7.56579 5.3053 7.68623 5.27233 7.8181L4.60566 10.4848C4.54177 10.7404 4.61665 11.0107 4.80294 11.197C4.98922 11.3833 5.25959 11.4582 5.51517 11.3943L8.18184 10.7276C8.31371 10.6946 8.43415 10.6265 8.53026 10.5303L14.8636 4.197C15.2695 3.79113 15.4975 3.24066 15.4975 2.66667C15.4975 2.09268 15.2695 1.54221 14.8636 1.13634C14.4577 0.730471 13.9073 0.502457 13.3333 0.502457ZM12.8636 2.197C12.9882 2.07244 13.1571 2.00246 13.3333 2.00246C13.5094 2.00246 13.6784 2.07244 13.8029 2.197C13.9275 2.32156 13.9975 2.49051 13.9975 2.66667C13.9975 2.84283 13.9275 3.01178 13.8029 3.13634L7.6165 9.32278L6.36404 9.63589L6.67716 8.38344L12.8636 2.197Z"
            fill="#303233" />
        <path
            d="M2.25 4.5C2.25 3.80964 2.80964 3.25 3.5 3.25H7.5C7.91421 3.25 8.25 2.91421 8.25 2.5C8.25 2.08579 7.91421 1.75 7.5 1.75H3.5C1.98122 1.75 0.75 2.98122 0.75 4.5V12.5C0.75 14.0188 1.98122 15.25 3.5 15.25H11.5C13.0188 15.25 14.25 14.0188 14.25 12.5V8.5C14.25 8.08579 13.9142 7.75 13.5 7.75C13.0858 7.75 12.75 8.08579 12.75 8.5V12.5C12.75 13.1904 12.1904 13.75 11.5 13.75H3.5C2.80964 13.75 2.25 13.1904 2.25 12.5V4.5Z"
            fill="#303233" />
    </g>
    <defs>
        <clipPath id="clip0_53_8776">
            <rect width="16" height="16" fill="white" />
        </clipPath>
    </defs>
</svg>
