<svg width="16" height="16" viewBox="0 0 16 16" fill="none" xmlns="http://www.w3.org/2000/svg">
    <path fill-rule="evenodd" clip-rule="evenodd"
        d="M1.54685 2.92027C0.905262 2.16203 1.44421 1 2.43746 1H13.5627C14.5559 1 15.0949 2.16203 14.4533 2.92027L10.0001 8.18315V13.9607C10.0001 14.5801 9.34813 14.9831 8.79405 14.706L6.46072 13.5393C6.1784 13.3982 6.00006 13.1096 6.00006 12.794V8.18315L1.54685 2.92027ZM2.43746 2C2.29557 2 2.21858 2.166 2.31023 2.27432L6.80288 7.58382C6.9302 7.73428 7.00006 7.925 7.00006 8.1221V12.691L9.00006 13.691V8.1221C9.00006 7.925 9.06992 7.73428 9.19724 7.58382L13.6899 2.27432C13.7815 2.166 13.7045 2 13.5627 2H2.43746Z"
        fill="#303233" />
</svg>
