<svg width="24" height="24" viewBox="0 0 24 24" fill="none" xmlns="http://www.w3.org/2000/svg">
    <path fill-rule="evenodd" clip-rule="evenodd"
        d="M6.7679 1.25H13.2321C14.0449 1.24999 14.7006 1.24999 15.2315 1.29336C15.7781 1.33803 16.2582 1.43239 16.7025 1.65873C17.301 1.96371 17.8046 2.42278 18.1631 2.98577C18.3856 3.33516 18.2827 3.79876 17.9333 4.02124C17.584 4.24373 17.1204 4.14085 16.8979 3.79145C16.6828 3.45366 16.3806 3.17822 16.0215 2.99524C15.824 2.8946 15.5632 2.82547 15.1093 2.78838C14.6467 2.75058 14.0525 2.75 13.2 2.75H6.8C5.94755 2.75 5.35331 2.75058 4.89068 2.78838C4.4368 2.82547 4.17604 2.8946 3.97852 2.99524C3.55516 3.21095 3.21095 3.55516 2.99524 3.97852C2.8946 4.17604 2.82547 4.4368 2.78838 4.89068C2.75058 5.35331 2.75 5.94755 2.75 6.8V17.2C2.75 18.0525 2.75058 18.6467 2.78838 19.1093C2.82547 19.5632 2.8946 19.824 2.99524 20.0215C3.21095 20.4448 3.55516 20.789 3.97852 21.0048C4.17604 21.1054 4.4368 21.1745 4.89068 21.2116C5.35331 21.2494 5.94755 21.25 6.8 21.25H13.2C14.0525 21.25 14.6467 21.2494 15.1093 21.2116C15.5632 21.1745 15.824 21.1054 16.0215 21.0048C16.4448 20.789 16.789 20.4448 17.0048 20.0215C17.1086 19.8177 17.1787 19.5472 17.2149 19.0675C17.2461 18.6544 17.6062 18.3449 18.0193 18.3761C18.4323 18.4073 18.7418 18.7674 18.7106 19.1805C18.6677 19.7486 18.5745 20.2448 18.3413 20.7025C17.9818 21.4081 17.4081 21.9817 16.7025 22.3413C16.2582 22.5676 15.7781 22.662 15.2315 22.7066C14.7006 22.75 14.045 22.75 13.2321 22.75H6.76788C5.95505 22.75 5.29944 22.75 4.76853 22.7066C4.2219 22.662 3.74175 22.5676 3.29754 22.3413C2.59193 21.9817 2.01825 21.4081 1.65873 20.7025C1.43239 20.2582 1.33803 19.7781 1.29336 19.2315C1.24999 18.7006 1.24999 18.0449 1.25 17.2321V6.7679C1.24999 5.95506 1.24999 5.29944 1.29336 4.76853C1.33803 4.2219 1.43239 3.74175 1.65873 3.29754C2.01825 2.59193 2.59193 2.01825 3.29754 1.65873C3.74175 1.43239 4.2219 1.33803 4.76853 1.29336C5.29944 1.24999 5.95506 1.24999 6.7679 1.25ZM5.25 7C5.25 6.58579 5.58579 6.25 6 6.25H14C14.4142 6.25 14.75 6.58579 14.75 7C14.75 7.41421 14.4142 7.75 14 7.75H6C5.58579 7.75 5.25 7.41421 5.25 7ZM5.25 12C5.25 11.5858 5.58579 11.25 6 11.25H9C9.41421 11.25 9.75 11.5858 9.75 12C9.75 12.4142 9.41421 12.75 9 12.75H6C5.58579 12.75 5.25 12.4142 5.25 12ZM5.25 17C5.25 16.5858 5.58579 16.25 6 16.25H8C8.41421 16.25 8.75 16.5858 8.75 17C8.75 17.4142 8.41421 17.75 8 17.75H6C5.58579 17.75 5.25 17.4142 5.25 17Z"
        fill="#303233" />
    <path fill-rule="evenodd" clip-rule="evenodd"
        d="M19.2197 6.21966C20.2029 5.23642 21.7971 5.2364 22.7804 6.21963C23.7636 7.20289 23.7637 8.79711 22.7804 9.78038L16.3235 16.2372C16.3164 16.2442 16.3093 16.2514 16.3022 16.2585C16.2146 16.3462 16.1209 16.4402 16.0117 16.5203C15.9163 16.5904 15.814 16.6506 15.7063 16.7C15.5833 16.7565 15.4556 16.7929 15.3364 16.8268C15.3267 16.8296 15.317 16.8323 15.3074 16.835L12.206 17.7211C11.9441 17.796 11.6623 17.7229 11.4697 17.5303C11.2771 17.3377 11.204 17.0559 11.2789 16.794L12.165 13.6926C12.1677 13.683 12.1705 13.6733 12.1732 13.6636C12.2071 13.5444 12.2435 13.4167 12.3 13.2937C12.3494 13.186 12.4096 13.0837 12.4797 12.9883C12.5598 12.8791 12.6538 12.7853 12.7415 12.6978C12.7487 12.6907 12.7558 12.6836 12.7628 12.6765L19.2197 6.21966ZM21.7197 7.28031C21.3222 6.88285 20.6778 6.88286 20.2803 7.28032L13.8235 13.7372C13.7659 13.7948 13.7341 13.8266 13.7107 13.8515C13.6957 13.8675 13.6901 13.8743 13.6888 13.8759C13.6788 13.8896 13.6702 13.9042 13.6631 13.9196C13.6642 13.9173 13.6614 13.9223 13.6524 13.9505C13.6421 13.9831 13.6296 14.0264 13.6072 14.1047L13.092 15.908L14.8953 15.3928C14.9736 15.3704 15.0169 15.3579 15.0495 15.3476C15.0777 15.3386 15.0827 15.3358 15.0804 15.3369C15.0958 15.3298 15.1104 15.3212 15.1241 15.3112C15.1221 15.3127 15.1269 15.3096 15.1485 15.2893C15.1734 15.2659 15.2052 15.2341 15.2628 15.1765L21.7197 8.71971C22.1172 8.32223 22.1172 7.67778 21.7197 7.28031Z"
        fill="#303233" />
</svg>
