<svg width="16" height="16" viewBox="0 0 16 16" fill="none" xmlns="http://www.w3.org/2000/svg">
    <path fill-rule="evenodd" clip-rule="evenodd"
        d="M3.07378 2.75C3.0825 2.75 3.09124 2.75 3.1 2.75L12.9262 2.75C13.1837 2.74998 13.4202 2.74997 13.6179 2.76612C13.831 2.78353 14.0642 2.82339 14.2945 2.94074C14.6238 3.10852 14.8915 3.37624 15.0593 3.70552C15.1766 3.93583 15.2165 4.169 15.2339 4.38213C15.25 4.57981 15.25 4.81629 15.25 5.07377L15.25 6.06301C15.25 6.40522 15.0184 6.70404 14.6869 6.78934C14.1477 6.92814 13.75 7.41858 13.75 8C13.75 8.58142 14.1477 9.07186 14.6869 9.21067C15.0184 9.29597 15.25 9.59478 15.25 9.93699L15.25 10.9262C15.25 11.1837 15.25 11.4202 15.2339 11.6179C15.2165 11.831 15.1766 12.0642 15.0593 12.2945C14.8915 12.6238 14.6238 12.8915 14.2945 13.0593C14.0642 13.1766 13.831 13.2165 13.6179 13.2339C13.4202 13.25 13.1837 13.25 12.9262 13.25H3.07377C2.81629 13.25 2.57981 13.25 2.38213 13.2339C2.169 13.2165 1.93583 13.1766 1.70552 13.0593C1.37624 12.8915 1.10852 12.6238 0.940741 12.2945C0.823394 12.0642 0.783531 11.831 0.766117 11.6179C0.749966 11.4202 0.749983 11.1837 0.750001 10.9262L0.750002 9.93699C0.750002 9.59478 0.981647 9.29597 1.31306 9.21067C1.85235 9.07186 2.25 8.58142 2.25 8C2.25 7.41858 1.85235 6.92814 1.31306 6.78934C0.981647 6.70404 0.750002 6.40522 0.750002 6.06301V5.1C0.750002 5.09124 0.750002 5.0825 0.750001 5.07378C0.749983 4.8163 0.749966 4.57982 0.766117 4.38213C0.783531 4.169 0.823394 3.93583 0.940741 3.70552C1.10852 3.37624 1.37624 3.10852 1.70552 2.94074C1.93583 2.82339 2.169 2.78353 2.38213 2.76612C2.57982 2.74997 2.8163 2.74998 3.07378 2.75ZM2.38088 4.27973L2.38239 4.27917L2.38088 4.27973ZM2.38346 4.27883C2.39234 4.27607 2.42547 4.26757 2.50428 4.26114C2.63341 4.25059 2.8076 4.25 3.1 4.25H12.9C13.1924 4.25 13.3666 4.25059 13.4957 4.26114C13.5745 4.26758 13.6077 4.27607 13.6165 4.27883C13.6612 4.30235 13.6977 4.33883 13.7212 4.38347C13.7239 4.39235 13.7324 4.42548 13.7389 4.50428C13.7494 4.63341 13.75 4.8076 13.75 5.1V5.5501C12.8598 6.00515 12.25 6.9307 12.25 8C12.25 9.0693 12.8598 9.99486 13.75 10.4499V10.9C13.75 11.1924 13.7494 11.3666 13.7389 11.4957C13.7324 11.5745 13.7239 11.6077 13.7212 11.6165C13.6977 11.6612 13.6612 11.6977 13.6165 11.7212C13.6077 11.7239 13.5745 11.7324 13.4957 11.7389C13.3666 11.7494 13.1924 11.75 12.9 11.75H3.1C2.8076 11.75 2.63341 11.7494 2.50428 11.7389C2.42546 11.7324 2.39234 11.7239 2.38346 11.7212C2.33883 11.6977 2.30235 11.6612 2.27883 11.6165C2.27607 11.6077 2.26757 11.5745 2.26114 11.4957C2.25059 11.3666 2.25 11.1924 2.25 10.9V10.4499C3.14018 9.99486 3.75 9.0693 3.75 8C3.75 6.9307 3.14018 6.00515 2.25 5.5501V5.1C2.25 4.8076 2.25059 4.63341 2.26114 4.50428C2.26757 4.42547 2.27607 4.39234 2.27883 4.38347C2.30235 4.33883 2.33883 4.30235 2.38346 4.27883ZM2.27973 4.38088L2.27917 4.38239L2.27973 4.38088ZM2.27973 11.6191L2.27918 11.6176L2.27973 11.6191ZM2.38088 11.7203L2.38235 11.7208L2.38088 11.7203ZM13.6191 11.7203L13.6176 11.7208L13.6191 11.7203ZM13.7203 11.6191L13.7208 11.6176L13.7203 11.6191ZM13.7203 4.38088L13.7208 4.38237L13.7203 4.38088ZM13.6191 4.27973L13.6176 4.27918L13.6191 4.27973Z"
        fill="#303233" />
    <path
        d="M6 3C6.41421 3 6.75 3.33579 6.75 3.75V5C6.75 5.41421 6.41421 5.75 6 5.75C5.58579 5.75 5.25 5.41421 5.25 5V3.75C5.25 3.33579 5.58579 3 6 3Z"
        fill="#303233" />
    <path
        d="M6 10.25C6.41421 10.25 6.75 10.5858 6.75 11V12.25C6.75 12.6642 6.41421 13 6 13C5.58579 13 5.25 12.6642 5.25 12.25V11C5.25 10.5858 5.58579 10.25 6 10.25Z"
        fill="#303233" />
    <path
        d="M6.75 7.5C6.75 7.08579 6.41421 6.75 6 6.75C5.58579 6.75 5.25 7.08579 5.25 7.5V8.5C5.25 8.91421 5.58579 9.25 6 9.25C6.41421 9.25 6.75 8.91421 6.75 8.5V7.5Z"
        fill="#303233" />
</svg>
