<svg width="16" height="16" viewBox="0 0 16 16" fill="none" xmlns="http://www.w3.org/2000/svg">
    <path
        d="M4.66957 1.25H10.3304C10.8646 1.24999 11.3104 1.24998 11.6747 1.27974C12.0546 1.31078 12.4112 1.37789 12.7485 1.54973C13.2659 1.81339 13.6866 2.23408 13.9503 2.75153C14.1406 3.12501 14.2032 3.52445 14.2294 3.95429C14.2395 4.11981 14.2446 4.29822 14.2472 4.48978C14.2528 4.90396 13.9216 5.24429 13.5075 5.24993C13.0933 5.25558 12.7529 4.92439 12.7473 4.51022C12.7449 4.33026 12.7403 4.17801 12.7322 4.04571C12.7106 3.69113 12.6655 3.53405 12.6138 3.43251C12.4939 3.19731 12.3027 3.00609 12.0675 2.88624C11.9769 2.8401 11.8396 2.79822 11.5525 2.77476C11.2566 2.75058 10.8724 2.75 10.3 2.75H4.7C4.12757 2.75 3.74336 2.75058 3.44748 2.77476C3.16036 2.79822 3.02307 2.8401 2.93251 2.88624C2.69731 3.00609 2.50609 3.19731 2.38624 3.43251C2.3401 3.52307 2.29822 3.66036 2.27476 3.94748C2.25058 4.24336 2.25 4.62757 2.25 5.2V9.3C2.25 9.87243 2.25058 10.2566 2.27476 10.5525C2.29822 10.8396 2.3401 10.9769 2.38624 11.0675C2.50609 11.3027 2.69731 11.4939 2.93251 11.6138C3.08451 11.6912 3.321 11.7379 4.01016 11.7473C4.15735 11.7493 4.31931 11.7498 4.50059 11.75C4.9148 11.7503 5.25032 12.0863 5.25 12.5005C5.24968 12.9147 4.91363 13.2503 4.49942 13.25C4.31699 13.2498 4.14709 13.2493 3.98984 13.2471C3.3289 13.2382 2.75489 13.2067 2.25153 12.9503C1.73408 12.6866 1.31339 12.2659 1.04973 11.7485C0.87789 11.4112 0.810779 11.0546 0.779741 10.6747C0.749982 10.3104 0.74999 9.8646 0.75 9.33045V5.16955C0.74999 4.63541 0.749982 4.18956 0.779741 3.82533C0.810779 3.44545 0.87789 3.08879 1.04973 2.75153C1.31339 2.23408 1.73408 1.81339 2.25153 1.54973C2.58879 1.37789 2.94545 1.31078 3.32533 1.27974C3.68956 1.24998 4.13543 1.24999 4.66957 1.25Z"
        fill="#303233" />
    <path fill-rule="evenodd" clip-rule="evenodd"
        d="M9.94091 6.25H12.0591C12.558 6.24999 12.9795 6.24998 13.3247 6.27962C13.6868 6.31072 14.0327 6.37852 14.3598 6.55423C14.8357 6.80987 15.2194 7.2087 15.4623 7.69239C15.6279 8.02195 15.692 8.37001 15.7216 8.73877C15.75 9.0925 15.75 9.52556 15.75 10.0437V10.9563C15.75 11.4744 15.75 11.9075 15.7216 12.2612C15.692 12.63 15.6279 12.9781 15.4623 13.3076C15.2194 13.7913 14.8357 14.1901 14.3598 14.4458C14.0327 14.6215 13.6868 14.6893 13.3247 14.7204C12.9795 14.75 12.558 14.75 12.0591 14.75H9.94086C9.44195 14.75 9.02049 14.75 8.67533 14.7204C8.31317 14.6893 7.96732 14.6215 7.64021 14.4458C7.1643 14.1901 6.78063 13.7913 6.53766 13.3076C6.37211 12.9781 6.308 12.63 6.27839 12.2612C6.24998 11.9075 6.24999 11.4744 6.25 10.9563V10.0438C6.24999 9.52558 6.24998 9.09251 6.27839 8.73877C6.308 8.37001 6.37211 8.02195 6.53766 7.69239C6.78063 7.2087 7.1643 6.80987 7.64021 6.55423C7.96732 6.37852 8.31317 6.31072 8.67533 6.27962C9.0205 6.24998 9.44198 6.24999 9.94091 6.25ZM11 10.5C11.7839 10.5 12.4194 9.88439 12.4194 9.125C12.4194 8.36561 11.7839 7.75 11 7.75C10.2161 7.75 9.58059 8.36561 9.58059 9.125C9.58059 9.88439 10.2161 10.5 11 10.5ZM13.415 13.25C13.6284 13.25 13.7952 13.0678 13.739 12.8684C13.4105 11.7015 12.3086 10.8438 11 10.8438C9.69135 10.8438 8.5895 11.7015 8.26099 12.8684C8.20485 13.0678 8.37158 13.25 8.585 13.25H13.415Z"
        fill="#303233" />
</svg>
