<svg width="16" height="16" viewBox="0 0 16 16" fill="none" xmlns="http://www.w3.org/2000/svg">
    <path
        d="M1.30358 6.85346C3.06862 5.23604 5.41892 4.25 8.00123 4.25L8.04497 4.25009C8.45918 4.25188 8.79641 3.91754 8.7982 3.50333C8.79998 3.08913 8.46565 2.75189 8.05144 2.75011L8.00123 2.75C5.02922 2.75 2.32097 3.88662 0.290177 5.74756C-0.0152083 6.0274 -0.0359136 6.50182 0.24393 6.80721C0.523774 7.1126 0.998196 7.1333 1.30358 6.85346Z"
        fill="#303233" />
    <path
        d="M7.44404 7.60654C7.85681 7.572 8.16343 7.20938 8.12888 6.79661C8.09434 6.38384 7.73172 6.07722 7.31895 6.11177C5.53939 6.2607 3.92369 6.98615 2.66017 8.0992C2.34935 8.373 2.31935 8.84692 2.59315 9.15774C2.86695 9.46855 3.34087 9.49856 3.65169 9.22476C4.68188 8.31725 5.99636 7.7277 7.44404 7.60654Z"
        fill="#303233" />
    <path
        d="M8.00123 10.9167C7.23328 10.9167 6.52938 11.1821 5.97331 11.6268C5.64982 11.8855 5.17786 11.833 4.91916 11.5095C4.66045 11.186 4.71298 10.714 5.03647 10.4553C5.84886 9.80563 6.88065 9.41667 8.00123 9.41667C9.10506 9.41667 10.1228 9.79411 10.9295 10.4265C11.2555 10.682 11.3127 11.1534 11.0571 11.4794C10.8016 11.8054 10.3302 11.8625 10.0042 11.607C9.45209 11.1743 8.75779 10.9167 8.00123 10.9167Z"
        fill="#303233" />
    <path
        d="M8.00131 12.75C7.58709 12.75 7.25131 13.0858 7.25131 13.5C7.25131 13.9142 7.58709 14.25 8.00131 14.25H8.00797C8.42219 14.25 8.75797 13.9142 8.75797 13.5C8.75797 13.0858 8.42219 12.75 8.00797 12.75H8.00131Z"
        fill="#303233" />
    <path fill-rule="evenodd" clip-rule="evenodd"
        d="M12.502 2.75C14.2969 2.75 15.752 4.20507 15.752 6C15.752 7.79493 14.2969 9.25 12.502 9.25C10.707 9.25 9.25195 7.79493 9.25195 6C9.25195 4.20507 10.707 2.75 12.502 2.75ZM14.252 6C14.252 5.0335 13.4685 4.25 12.502 4.25C12.2956 4.25 12.0976 4.28571 11.9138 4.35129L14.1507 6.58816C14.2162 6.40434 14.252 6.20634 14.252 6ZM13.0899 7.64877L10.8532 5.41201C10.7876 5.59578 10.752 5.79372 10.752 6C10.752 6.9665 11.5355 7.75 12.502 7.75C12.7082 7.75 12.9062 7.71431 13.0899 7.64877Z"
        fill="#303233" />
</svg>
