<svg width="16" height="16" viewBox="0 0 16 16" fill="none" xmlns="http://www.w3.org/2000/svg">
    <path fill-rule="evenodd" clip-rule="evenodd"
        d="M1.5 5.5C1.5 4.39543 2.39543 3.5 3.5 3.5H10.5C11.6046 3.5 12.5 4.39543 12.5 5.5V12.5C12.5 13.6046 11.6046 14.5 10.5 14.5H3.5C2.39543 14.5 1.5 13.6046 1.5 12.5V5.5ZM10 1.5C9.72386 1.5 9.5 1.72386 9.5 2C9.5 2.27614 9.72386 2.5 10 2.5H12.7927L6.39644 8.89645C6.20118 9.09171 6.20119 9.4083 6.39645 9.60356C6.59171 9.79882 6.9083 9.79881 7.10356 9.60355L13.5 3.20696V6C13.5 6.27614 13.7239 6.5 14 6.5C14.2761 6.5 14.5 6.27614 14.5 6V2C14.5 1.72386 14.2761 1.5 14 1.5H10Z"
        fill="#303233" />
</svg>
