<svg width="16" height="16" viewBox="0 0 16 16" fill="none" xmlns="http://www.w3.org/2000/svg">
    <path
        d="M5.76942 0.75H10.2306C10.7821 0.749991 11.2411 0.749983 11.6157 0.780592C12.006 0.812481 12.3704 0.881296 12.7143 1.05655C13.2436 1.32619 13.6738 1.75645 13.9435 2.28565C14.1187 2.6296 14.1875 2.99397 14.2194 3.38428C14.25 3.75893 14.25 4.21787 14.25 4.7694V9.75H10.5C9.25736 9.75 8.25 10.7574 8.25 12C8.25 13.2426 9.25736 14.25 10.5 14.25H13.5881C13.3474 14.5355 13.0509 14.772 12.7143 14.9435C12.3704 15.1187 12.006 15.1875 11.6157 15.2194C11.2411 15.25 10.7821 15.25 10.2306 15.25H5.7694C5.21787 15.25 4.75893 15.25 4.38428 15.2194C3.99397 15.1875 3.6296 15.1187 3.28565 14.9435C2.75645 14.6738 2.32619 14.2436 2.05655 13.7143C1.8813 13.3704 1.81248 13.006 1.78059 12.6157C1.74998 12.2411 1.74999 11.7821 1.75 11.2306V4.76942C1.74999 4.2179 1.74998 3.75892 1.78059 3.38428C1.81248 2.99397 1.8813 2.6296 2.05655 2.28565C2.32619 1.75645 2.75645 1.32619 3.28565 1.05655C3.6296 0.881296 3.99397 0.812481 4.38428 0.780592C4.75892 0.749983 5.2179 0.749991 5.76942 0.75Z"
        fill="#303233" />
    <path
        d="M10.5 11.25C10.0858 11.25 9.75 11.5858 9.75 12C9.75 12.4142 10.0858 12.75 10.5 12.75H14.5C14.9142 12.75 15.25 12.4142 15.25 12C15.25 11.5858 14.9142 11.25 14.5 11.25H10.5Z"
        fill="#303233" />
</svg>
