<svg width="24" height="24" viewBox="0 0 24 24" fill="none" xmlns="http://www.w3.org/2000/svg">
    <path fill-rule="evenodd" clip-rule="evenodd"
        d="M2 8C2 6.34315 3.34315 5 5 5H16C17.6569 5 19 6.34315 19 8V19C19 20.6569 17.6569 22 16 22H5C3.34315 22 2 20.6569 2 19V8ZM15 2C14.4477 2 14 2.44772 14 3C14 3.55228 14.4477 4 15 4H18.5858L9.29289 13.2929C8.90237 13.6834 8.90237 14.3166 9.29289 14.7071C9.68342 15.0976 10.3166 15.0976 10.7071 14.7071L20 5.41421V9C20 9.55228 20.4477 10 21 10C21.5523 10 22 9.55228 22 9V3C22 2.44772 21.5523 2 21 2H15Z"
        fill="#303233" />
</svg>
