<svg width="24" height="24" viewBox="0 0 24 24" fill="none" xmlns="http://www.w3.org/2000/svg">
    <path fill-rule="evenodd" clip-rule="evenodd"
        d="M6 1.25C4.48122 1.25 3.25 2.48122 3.25 4V20C3.25 21.5188 4.48122 22.75 6 22.75H18C19.5188 22.75 20.75 21.5188 20.75 20V6.32487C20.75 5.86074 20.5656 5.41563 20.2374 5.08744L16.9126 1.76256C16.5844 1.43437 16.1393 1.25 15.6751 1.25H6ZM16.1768 3.02678C16.0193 2.86929 15.75 2.98083 15.75 3.20355V6C15.75 6.13807 15.8619 6.25 16 6.25H18.7964C19.0192 6.25 19.1307 5.98072 18.9732 5.82323L16.1768 3.02678Z"
        fill="#303233" />
</svg>
