<svg width="16" height="16" viewBox="0 0 16 16" fill="none" xmlns="http://www.w3.org/2000/svg">
    <path
        d="M2.5 1.75C1.5335 1.75 0.75 2.5335 0.75 3.5V10.5C0.75 11.4665 1.5335 12.25 2.5 12.25H3.5C3.91421 12.25 4.25 11.9142 4.25 11.5C4.25 11.0858 3.91421 10.75 3.5 10.75H2.5C2.36193 10.75 2.25 10.6381 2.25 10.5V3.5C2.25 3.36193 2.36193 3.25 2.5 3.25H13.5C13.6381 3.25 13.75 3.36193 13.75 3.5V10.5C13.75 10.6381 13.6381 10.75 13.5 10.75H12.5C12.0858 10.75 11.75 11.0858 11.75 11.5C11.75 11.9142 12.0858 12.25 12.5 12.25H13.5C14.4665 12.25 15.25 11.4665 15.25 10.5V3.5C15.25 2.5335 14.4665 1.75 13.5 1.75H2.5Z"
        fill="#303233" />
    <path fill-rule="evenodd" clip-rule="evenodd"
        d="M8.58209 9.02706C8.43967 8.85177 8.22585 8.75 8 8.75C7.77415 8.75 7.56033 8.85177 7.41791 9.02706L4.16791 13.0271C3.98547 13.2516 3.94845 13.5611 4.0728 13.8223C4.19714 14.0836 4.46067 14.25 4.75 14.25H11.25C11.5393 14.25 11.8029 14.0836 11.9272 13.8223C12.0515 13.5611 12.0145 13.2516 11.8321 13.0271L8.58209 9.02706ZM9.67427 12.75H6.32573L8 10.6894L9.67427 12.75Z"
        fill="#303233" />
</svg>
