<svg width="16" height="16" viewBox="0 0 16 16" fill="none" xmlns="http://www.w3.org/2000/svg">
    <path
        d="M9.4625 8.00017C9.4625 8.80117 8.8135 9.45016 8.0125 9.45016C7.2125 9.45016 6.5625 8.80117 6.5625 8.00017C6.5625 7.19917 7.2125 6.55017 8.0125 6.55017C8.8135 6.55017 9.4625 7.19917 9.4625 8.00017Z"
        fill="#303233" />
    <path fill-rule="evenodd" clip-rule="evenodd"
        d="M5.4052 12.498C5.6022 12.612 5.7582 12.786 5.8502 12.994L6.2302 13.849C6.3822 14.191 6.6312 14.482 6.9452 14.687L6.9462 14.688C7.2602 14.891 7.6272 15 8.0022 15C8.3762 15 8.7432 14.891 9.0572 14.688L9.0582 14.687C9.3732 14.482 9.6212 14.191 9.7732 13.849L10.1522 12.995C10.2452 12.788 10.4002 12.615 10.5962 12.502C10.7942 12.388 11.0222 12.339 11.2492 12.363L12.1782 12.462C12.5512 12.501 12.9282 12.432 13.2622 12.261C13.5962 12.091 13.8732 11.829 14.0612 11.504C14.2482 11.179 14.3382 10.807 14.3182 10.433C14.2982 10.058 14.1702 9.696 13.9492 9.394L13.4002 8.63901C13.2662 8.45401 13.1952 8.231 13.1962 8.002V8C13.1962 7.772 13.2682 7.55001 13.4022 7.36501L13.9532 6.60899C14.1732 6.30599 14.3012 5.946 14.3212 5.571C14.3402 5.197 14.2512 4.825 14.0642 4.5C13.8772 4.176 13.5992 3.913 13.2662 3.742L13.2642 3.741C12.9302 3.571 12.5532 3.501 12.1802 3.542L11.2532 3.641C11.0262 3.664 10.7972 3.615 10.5992 3.502C10.4032 3.387 10.2482 3.214 10.1562 3.007L10.1552 3.005L9.7722 2.15C9.6212 1.809 9.3732 1.518 9.0582 1.313L9.0572 1.312C8.7432 1.109 8.3762 1 8.0022 1C7.6272 1 7.2602 1.109 6.9462 1.312L6.9452 1.313C6.6312 1.518 6.3822 1.809 6.2302 2.151L5.8502 3.006C5.7582 3.214 5.6032 3.387 5.4072 3.502C5.2092 3.615 4.9802 3.664 4.7532 3.641L3.8222 3.542C3.4502 3.501 3.0732 3.571 2.7392 3.741L2.7382 3.742C2.4042 3.913 2.1272 4.176 1.9402 4.5C1.7522 4.825 1.6632 5.197 1.6822 5.571C1.7022 5.946 1.8302 6.30599 2.0512 6.60899L2.6012 7.36501C2.7352 7.55001 2.8072 7.772 2.8072 8C2.8072 8.228 2.7352 8.44999 2.6012 8.63499L2.0512 9.39101C1.8302 9.69401 1.7022 10.054 1.6822 10.429C1.6632 10.803 1.7522 11.175 1.9402 11.5C2.1272 11.824 2.4042 12.087 2.7382 12.258L2.7392 12.259C3.0732 12.428 3.4492 12.497 3.8222 12.458L4.7502 12.359C4.9782 12.336 5.2072 12.385 5.4052 12.498ZM5.5625 8.00017C5.5625 9.35317 6.6595 10.4502 8.0125 10.4502C9.3665 10.4502 10.4625 9.35317 10.4625 8.00017C10.4625 6.64717 9.3665 5.55017 8.0125 5.55017C6.6595 5.55017 5.5625 6.64717 5.5625 8.00017Z"
        fill="#303233" />
</svg>
