<svg width="16" height="16" viewBox="0 0 16 16" fill="none" xmlns="http://www.w3.org/2000/svg">
    <path
        d="M9.0553 0.503055C8.78085 0.472566 8.53364 0.670338 8.50315 0.944792C8.47266 1.21925 8.67043 1.46645 8.94489 1.49694C10.3637 1.65456 11.6867 2.28991 12.6968 3.29869C13.7068 4.30746 14.3438 5.62969 14.5032 7.04828C14.5341 7.3227 14.7815 7.52016 15.0559 7.48932C15.3303 7.45849 15.5278 7.21103 15.497 6.93662C15.3122 5.29258 14.574 3.76022 13.4034 2.59113C12.2329 1.42205 10.6996 0.68572 9.0553 0.503055Z"
        fill="#303233" />
    <path
        d="M9.09584 3.52812C8.82481 3.47524 8.56223 3.65209 8.50935 3.92312C8.45647 4.19415 8.63332 4.45673 8.90435 4.50961C9.54383 4.63438 10.1315 4.94713 10.5922 5.40784C11.053 5.86855 11.3657 6.45626 11.4905 7.09575C11.5434 7.36678 11.8059 7.54362 12.077 7.49075C12.348 7.43787 12.5249 7.17528 12.472 6.90425C12.3091 6.06942 11.9008 5.30218 11.2994 4.70074C10.6979 4.09929 9.93067 3.691 9.09584 3.52812Z"
        fill="#303233" />
    <path fill-rule="evenodd" clip-rule="evenodd"
        d="M4.81868 1.20426C4.28022 0.931913 3.64433 0.931913 3.10587 1.20426C2.83336 1.3421 2.59356 1.58225 2.27864 1.89764L2.07316 2.10315C1.73916 2.43696 1.50813 2.66786 1.33268 2.9802C1.13362 3.33456 0.998798 3.85298 1.00001 4.25943C1.00107 4.61727 1.07419 4.8747 1.17887 5.24324L1.18777 5.27458C1.81203 7.47399 2.99002 9.54926 4.72038 11.2796C6.45074 13.01 8.52601 14.188 10.7254 14.8122L10.7568 14.8211C11.1253 14.9258 11.3827 14.9989 11.7406 15C12.147 15.0012 12.6654 14.8664 13.0198 14.6673C13.3321 14.4919 13.563 14.2608 13.8968 13.9268L14.1024 13.7214C14.4177 13.4064 14.6579 13.1666 14.7957 12.8941C15.0681 12.3557 15.0681 11.7198 14.7957 11.1813C14.6579 10.9088 14.4177 10.669 14.1024 10.3541L13.8715 10.1233C13.6642 9.91573 13.5067 9.75811 13.3389 9.64898C12.71 9.24009 11.8992 9.24009 11.2703 9.64898C11.1025 9.75812 10.945 9.91573 10.7376 10.1233L10.7001 10.1609C10.6096 10.2514 10.6018 10.257 10.596 10.2612C10.5549 10.2906 10.4733 10.3045 10.4247 10.2904C10.4216 10.2894 10.4171 10.2881 10.4033 10.2821C10.3851 10.2742 10.3619 10.2632 10.3154 10.2408C9.3527 9.77861 8.44992 9.14832 7.6508 8.3492C6.85168 7.55008 6.22139 6.6473 5.75917 5.68459C5.73684 5.63807 5.7258 5.61491 5.7179 5.59673C5.71191 5.58294 5.71055 5.5784 5.70964 5.57527C5.69549 5.52672 5.70941 5.44508 5.73885 5.40396C5.743 5.39817 5.74863 5.39041 5.83911 5.29993L5.8767 5.26236C6.08427 5.055 6.24189 4.89754 6.35102 4.72969C6.75991 4.10079 6.75991 3.29003 6.35102 2.66113C6.24188 2.49328 6.08427 2.33582 5.8767 2.12845L5.64592 1.89764C5.33099 1.58225 5.09119 1.3421 4.81868 1.20426ZM3.55722 2.09661C3.8119 1.9678 4.11266 1.9678 4.36733 2.09661C4.4774 2.15228 4.59673 2.26272 4.99585 2.66184L5.13201 2.798C5.39434 3.06033 5.46856 3.13843 5.51264 3.20623C5.70604 3.50368 5.70604 3.88715 5.51264 4.1846C5.46856 4.2524 5.39434 4.33049 5.13201 4.59282L5.11683 4.60798C5.05202 4.67265 4.98395 4.74057 4.9258 4.82177C4.71766 5.11245 4.64955 5.51189 4.7496 5.85512C4.77746 5.95071 4.81514 6.02898 4.85041 6.10226L4.85769 6.11741C5.36809 7.18046 6.06368 8.17629 6.94369 9.05631C7.82371 9.93632 8.81954 10.6319 9.88259 11.1423L9.89774 11.1496C9.97102 11.1849 10.0493 11.2225 10.1449 11.2504C10.4881 11.3505 10.8876 11.2823 11.1782 11.0742C11.2594 11.0161 11.3273 10.948 11.392 10.8832L11.4072 10.868C11.6695 10.6057 11.7476 10.5314 11.8154 10.4874C12.1129 10.294 12.4963 10.294 12.7938 10.4874C12.8616 10.5314 12.9397 10.6057 13.202 10.868L13.3382 11.0042C13.7373 11.4033 13.8477 11.5226 13.9034 11.6327C14.0322 11.8873 14.0322 12.1881 13.9034 12.4428C13.8477 12.5529 13.7373 12.6722 13.3382 13.0713L13.228 13.1814C12.8427 13.5668 12.709 13.6949 12.53 13.7955C12.3261 13.91 11.9774 14.0007 11.7436 14C11.5344 13.9994 11.4018 13.9647 10.9985 13.8502C8.95889 13.2713 7.03419 12.1792 5.42749 10.5725C3.82078 8.96581 2.72867 7.04111 2.14977 5.00153C2.03531 4.59824 2.00063 4.46562 2 4.25645C1.99931 4.02256 2.08998 3.67388 2.20453 3.46996C2.30508 3.29097 2.43321 3.15734 2.81856 2.77198L2.9287 2.66184C3.32782 2.26272 3.44715 2.15228 3.55722 2.09661Z"
        fill="#303233" />
</svg>
