<svg width="24" height="24" viewBox="0 0 24 24" fill="none" xmlns="http://www.w3.org/2000/svg">
    <path fill-rule="evenodd" clip-rule="evenodd"
        d="M2.185 7.029L2.182 7.035C1.426 8.527 1 10.214 1 12C1 18.075 5.925 23 12 23C18.075 23 23 18.075 23 12C23 6.797 19.388 2.438 14.535 1.294L14.532 1.293C13.72 1.101 12.872 1 12 1C7.713 1 3.999 3.452 2.185 7.029ZM12.507 14.223L12.08 15.077L12.721 17H14.465L15.501 15.446L13.144 14.436L12.507 14.223ZM13.259 3.088C12.847 3.03 12.427 3 12 3C8.797 3 5.986 4.673 4.391 7.193L7.786 9.618L8.575 8.567L8.773 8.332C8.846 8.261 8.926 8.197 9.011 8.142C9.075 8.101 9.143 8.064 9.284 8.002L13.042 6.331L13.259 3.088Z"
        fill="#303233" />
</svg>
