<svg width="16" height="16" viewBox="0 0 16 16" fill="none" xmlns="http://www.w3.org/2000/svg">
    <path fill-rule="evenodd" clip-rule="evenodd"
        d="M8.85182 1.04156C9.05523 1.13011 9.17596 1.3421 9.14835 1.56222L8.56663 6.2L12.7759 6.2C12.9364 6.19998 13.0892 6.19996 13.2121 6.21105C13.3295 6.22165 13.5255 6.24831 13.6925 6.3828C13.8901 6.54192 14.0038 6.78324 13.9999 7.03746C13.9967 7.25256 13.8912 7.42046 13.8241 7.51727C13.7539 7.61857 13.656 7.7356 13.5532 7.85844L7.73133 14.8207C7.58902 14.9909 7.35158 15.047 7.14818 14.9584C6.94477 14.8699 6.82404 14.6579 6.85165 14.4378L7.43337 9.8L3.22415 9.8C3.06359 9.80002 2.91084 9.80003 2.78795 9.78895C2.67047 9.77835 2.47453 9.75169 2.30753 9.6172C2.10994 9.45807 1.99625 9.21675 2.00009 8.96253C2.00335 8.74744 2.10883 8.57954 2.17592 8.48273C2.24614 8.38141 2.34403 8.26438 2.44679 8.14152L8.26867 1.17926C8.41098 1.00907 8.64842 0.953004 8.85182 1.04156ZM7.94438 3.12596L3.2266 8.76784C3.21734 8.77892 3.20839 8.78963 3.19974 8.79998C3.21394 8.79999 3.22864 8.8 3.24389 8.8H8C8.14345 8.8 8.27999 8.86161 8.37491 8.96917C8.46982 9.07674 8.51397 9.21989 8.49611 9.36222L8.05562 12.874L12.7734 7.23215C12.7827 7.22107 12.7916 7.21037 12.8003 7.20001C12.7861 7.2 12.7714 7.2 12.7561 7.2H8C7.85655 7.2 7.72001 7.13838 7.62509 7.03082C7.53018 6.92326 7.48603 6.78011 7.50389 6.63777L7.94438 3.12596Z"
        fill="#303233" />
</svg>
