<svg width="24" height="24" viewBox="0 0 24 24" fill="none" xmlns="http://www.w3.org/2000/svg">
    <path fill-rule="evenodd" clip-rule="evenodd"
        d="M10.4051 3.02763C10.3168 3.00643 10.2114 3 9.67462 3H5.2001C4.62355 3 4.25128 3.00078 3.96794 3.02393C3.69628 3.04612 3.59556 3.0838 3.54611 3.10899C3.35795 3.20487 3.20497 3.35785 3.1091 3.54601C3.0839 3.59545 3.04623 3.69617 3.02403 3.96784C3.00088 4.25117 3.0001 4.62345 3.0001 5.2L3.0001 9.67451C3.0001 10.2113 3.00653 10.3167 3.02773 10.405C3.05223 10.5071 3.09263 10.6046 3.14746 10.6941C3.19492 10.7715 3.26491 10.8506 3.64447 11.2302L11.3131 18.8988C11.9188 19.5045 12.3311 19.9157 12.6753 20.2079C13.0107 20.4926 13.2151 20.6052 13.3821 20.6595C13.7838 20.79 14.2164 20.79 14.6181 20.6595C14.7851 20.6052 14.9895 20.4926 15.3249 20.2079C15.6691 19.9157 16.0814 19.5045 16.6871 18.8988L18.8989 16.687C19.5046 16.0813 19.9158 15.669 20.208 15.3248C20.4927 14.9894 20.6053 14.785 20.6596 14.618C20.7901 14.2163 20.7901 13.7837 20.6596 13.382C20.6053 13.215 20.4927 13.0106 20.208 12.6752C19.9158 12.331 19.5046 11.9187 18.8989 11.313L11.2303 3.64437C10.8507 3.2648 10.7716 3.19482 10.6942 3.14736C10.6047 3.09253 10.5072 3.05213 10.4051 3.02763ZM9.75792 0.999949C10.1648 0.999571 10.5236 0.999237 10.872 1.08289C11.1781 1.15638 11.4708 1.27759 11.7392 1.44208C12.0447 1.62932 12.2981 1.88322 12.5856 2.17121C12.6051 2.1907 12.6247 2.21035 12.6445 2.23015L20.3423 9.928C20.9115 10.4972 21.3813 10.9669 21.7327 11.3809C22.0977 11.8108 22.3934 12.2459 22.5617 12.7639C22.8227 13.5673 22.8227 14.4327 22.5617 15.2361C22.3934 15.7541 22.0977 16.1892 21.7327 16.6191C21.3813 17.0331 20.9115 17.5028 20.3423 18.072L18.0721 20.3422C17.5029 20.9114 17.0332 21.3812 16.6192 21.7326C16.1893 22.0976 15.7542 22.3933 15.2362 22.5616C14.4328 22.8226 13.5674 22.8226 12.764 22.5616C12.246 22.3933 11.8109 22.0976 11.381 21.7326C10.967 21.3812 10.4973 20.9114 9.92805 20.3422L2.23025 12.6444C2.21046 12.6246 2.19081 12.605 2.17131 12.5855C1.88333 12.298 1.62942 12.0446 1.44218 11.7391C1.2777 11.4707 1.15648 11.178 1.08299 10.8719C0.999338 10.5235 0.999672 10.1647 1.00005 9.75782C1.00008 9.73028 1.0001 9.70251 1.0001 9.67451L1.0001 5.16146C1.00008 4.63431 1.00007 4.17954 1.03067 3.80497C1.06297 3.40963 1.13429 3.01641 1.32708 2.63803C1.6147 2.07354 2.07364 1.6146 2.63813 1.32698C3.01651 1.13419 3.40973 1.06287 3.80507 1.03057C4.17965 0.999967 4.63441 0.999982 5.16156 1L9.67462 1C9.70261 1 9.73038 0.999975 9.75792 0.999949ZM6.5001 8C6.5001 7.17157 7.17168 6.5 8.0001 6.5C8.82853 6.5 9.5001 7.17157 9.5001 8C9.5001 8.82843 8.82853 9.5 8.0001 9.5C7.17168 9.5 6.5001 8.82843 6.5001 8Z"
        fill="#303233" />
</svg>
