<svg width="24" height="24" viewBox="0 0 24 24" fill="none" xmlns="http://www.w3.org/2000/svg">
    <path fill-rule="evenodd" clip-rule="evenodd"
        d="M18.015 5.83107C17.9962 5.83811 17.9301 5.86498 17.7946 5.95486C17.5817 6.09603 17.3058 6.31585 16.8853 6.65226L11.0205 11.3441C10.7476 11.5624 10.581 11.6965 10.4666 11.8054C10.3966 11.8722 10.3717 11.9063 10.3653 11.916C10.3459 11.9703 10.3459 12.0297 10.3653 12.084C10.3717 12.0937 10.3966 12.1278 10.4666 12.1946C10.581 12.3035 10.7476 12.4376 11.0205 12.6559L16.8853 17.3477C17.3058 17.6841 17.5817 17.904 17.7946 18.0451C17.9301 18.135 17.9962 18.1619 18.015 18.1689C18.0803 18.165 18.1416 18.1356 18.1855 18.087C18.1917 18.0679 18.2121 17.9995 18.2265 17.8375C18.2493 17.5831 18.25 17.2303 18.25 16.6918V7.30819C18.25 6.76968 18.2493 6.41689 18.2265 6.16248C18.2121 6.0005 18.1917 5.93208 18.1855 5.91305C18.1416 5.86444 18.0803 5.83499 18.015 5.83107ZM17.9785 4.33076C18.5252 4.32403 19.0436 4.5732 19.3799 5.00431C19.6259 5.31976 19.6917 5.70548 19.7206 6.02894C19.75 6.35841 19.75 6.77929 19.75 7.27332V16.7267C19.75 17.2207 19.75 17.6416 19.7206 17.9711C19.6917 18.2945 19.6259 18.6802 19.3799 18.9957C19.0436 19.4268 18.5252 19.676 17.9785 19.6692C17.5784 19.6643 17.2362 19.4747 16.9655 19.2952C16.6899 19.1124 16.3612 18.8495 15.9755 18.5408L10.0606 13.8089C9.81779 13.6147 9.59926 13.4399 9.43213 13.2807C9.25552 13.1125 9.07422 12.9057 8.96756 12.6286C8.81186 12.224 8.81186 11.776 8.96756 11.3714C9.07422 11.0943 9.25552 10.8875 9.43213 10.7193C9.59926 10.5601 9.8178 10.3853 10.0606 10.191L15.9755 5.45916C16.3612 5.15053 16.6899 4.88761 16.9655 4.70479C17.2362 4.5253 17.5784 4.33568 17.9785 4.33076Z"
        fill="#303233" />
    <path fill-rule="evenodd" clip-rule="evenodd"
        d="M5 4.25C5.41421 4.25 5.75 4.58579 5.75 5V19C5.75 19.4142 5.41421 19.75 5 19.75C4.58579 19.75 4.25 19.4142 4.25 19V5C4.25 4.58579 4.58579 4.25 5 4.25Z"
        fill="#303233" />
</svg>
