<svg width="16" height="16" viewBox="0 0 16 16" fill="none" xmlns="http://www.w3.org/2000/svg">
    <path fill-rule="evenodd" clip-rule="evenodd"
        d="M8 1.5C5.79086 1.5 4 3.29086 4 5.5V6.57095C3.77344 6.60954 3.56383 6.67119 3.36502 6.77248C2.89462 7.01217 2.51217 7.39462 2.27248 7.86502C2.12159 8.16117 2.05868 8.48126 2.02891 8.84569C1.99999 9.19963 2 9.6367 2 10.1786V10.8214C2 11.3633 1.99999 11.8004 2.02891 12.1543C2.05868 12.5187 2.12159 12.8388 2.27248 13.135C2.51217 13.6054 2.89462 13.9878 3.36502 14.2275C3.66117 14.3784 3.98126 14.4413 4.34569 14.4711C4.69963 14.5 5.13671 14.5 5.67861 14.5H10.3214C10.8633 14.5 11.3004 14.5 11.6543 14.4711C12.0187 14.4413 12.3388 14.3784 12.635 14.2275C13.1054 13.9878 13.4878 13.6054 13.7275 13.135C13.8784 12.8388 13.9413 12.5187 13.9711 12.1543C14 11.8004 14 11.3633 14 10.8215V10.1786C14 9.63672 14 9.19961 13.9711 8.84569C13.9413 8.48126 13.8784 8.16117 13.7275 7.86502C13.4878 7.39462 13.1054 7.01217 12.635 6.77248C12.4362 6.67119 12.2266 6.60954 12 6.57095V5.5C12 3.29086 10.2091 1.5 8 1.5ZM11 6.50274V5.5C11 3.84315 9.65685 2.5 8 2.5C6.34315 2.5 5 3.84315 5 5.5V6.50274C5.20573 6.5 5.43123 6.5 5.67858 6.5H10.3214C10.5687 6.5 10.7943 6.5 11 6.50274Z"
        fill="#303233" />
</svg>
