<svg width="24" height="24" viewBox="0 0 24 24" fill="none" xmlns="http://www.w3.org/2000/svg">
    <path fill-rule="evenodd" clip-rule="evenodd"
        d="M11.997 10.899C12.768 10.072 13.543 9.278 14.375 8.651C15.503 7.801 16.735 7.25 18.178 7.25C21.215 7.25 22.75 9.617 22.75 12C22.75 14.383 21.214 16.75 18.178 16.75C16.735 16.75 15.502 16.199 14.375 15.349C13.543 14.722 12.768 13.929 11.997 13.101C10.165 15.031 8.181 16.75 5.439 16.75C2.686 16.75 1.25 14.401 1.25 12C1.25 9.599 2.686 7.25 5.439 7.25C8.181 7.25 10.165 8.969 11.997 10.899ZM10.978 12C9.421 10.328 7.787 8.75 5.439 8.75C3.606 8.75 2.75 10.401 2.75 12C2.75 13.599 3.606 15.25 5.439 15.25C7.787 15.25 9.421 13.672 10.978 12ZM18.178 8.75C17.074 8.75 16.141 9.199 15.278 9.849C14.486 10.446 13.753 11.209 13.021 12C13.753 12.791 14.485 13.554 15.278 14.151C16.14 14.801 17.073 15.25 18.178 15.25C20.237 15.25 21.25 13.617 21.25 12C21.25 10.383 20.238 8.75 18.178 8.75Z"
        fill="#303233" />
</svg>
