<svg width="16" height="16" viewBox="0 0 16 16" fill="none" xmlns="http://www.w3.org/2000/svg">
    <path
        d="M2.75 5C2.75 3.20507 4.20507 1.75 6 1.75C7.79493 1.75 9.25 3.20507 9.25 5C9.25 6.79493 7.79493 8.25 6 8.25C4.20507 8.25 2.75 6.79493 2.75 5Z"
        fill="#303233" />
    <path
        d="M0.364606 13.3508C0.897431 10.7259 3.21692 8.75 5.9996 8.75C8.78227 8.75 11.1018 10.7259 11.6346 13.3508C11.6794 13.5714 11.6227 13.8004 11.4803 13.9747C11.3378 14.1489 11.1247 14.25 10.8996 14.25H1.09962C0.874544 14.25 0.66137 14.1489 0.518927 13.9747C0.376484 13.8004 0.319832 13.5714 0.364606 13.3508Z"
        fill="#303233" />
    <path
        d="M12.5 4.75C12.9142 4.75 13.25 5.08579 13.25 5.5V6.75H14.5C14.9142 6.75 15.25 7.08579 15.25 7.5C15.25 7.91421 14.9142 8.25 14.5 8.25H13.25V9.5C13.25 9.91421 12.9142 10.25 12.5 10.25C12.0858 10.25 11.75 9.91421 11.75 9.5V8.25H10.5C10.0858 8.25 9.75 7.91421 9.75 7.5C9.75 7.08579 10.0858 6.75 10.5 6.75H11.75V5.5C11.75 5.08579 12.0858 4.75 12.5 4.75Z"
        fill="#303233" />
</svg>
