<svg width="16" height="16" viewBox="0 0 16 16" fill="none" xmlns="http://www.w3.org/2000/svg">
    <g clip-path="url(#clip0_53_6350)">
        <path
            d="M0.46967 0.46967C0.762563 0.176777 1.23744 0.176777 1.53033 0.46967L15.5303 14.4697C15.8232 14.7626 15.8232 15.2374 15.5303 15.5303C15.2374 15.8232 14.7626 15.8232 14.4697 15.5303L8.00011 9.06077L6.0696 10.9915C5.77682 11.2845 5.30195 11.2847 5.00894 10.9919C4.71593 10.6992 4.71575 10.2243 5.00852 9.93127L6.93945 8.00011L0.46967 1.53033C0.176777 1.23744 0.176777 0.762563 0.46967 0.46967Z"
            fill="#303233" />
        <path
            d="M7.96695 1.99957C9.63305 0.333476 12.3343 0.333475 14.0004 1.99957C15.6665 3.66567 15.6665 6.36695 14.0004 8.03305C13.9953 8.03813 13.9902 8.04314 13.985 8.04807L13.0858 8.89701C12.7846 9.18136 12.3099 9.16771 12.0255 8.86652C11.7412 8.56533 11.7548 8.09065 12.056 7.8063L12.9469 6.9652C14.0201 5.88432 14.0177 4.13815 12.9398 3.06023C11.8618 1.98229 10.1156 1.97993 9.03471 3.05316L8.19323 3.94387C7.90878 4.24497 7.4341 4.25846 7.133 3.974C6.8319 3.68955 6.81841 3.21487 7.10287 2.91377L7.9521 2.01485C7.95698 2.00969 7.96193 2.0046 7.96695 1.99957Z"
            fill="#303233" />
        <path
            d="M10.9916 6.06873C11.2844 5.77572 11.2842 5.30084 10.9912 5.00807C10.6982 4.71529 10.2233 4.71548 9.93056 5.00849L9.57925 5.36008C9.28647 5.65309 9.28666 6.12796 9.57967 6.42074C9.87268 6.71351 10.3476 6.71333 10.6403 6.42032L10.9916 6.06873Z"
            fill="#303233" />
        <path
            d="M3.97367 7.13335C4.25812 7.43445 4.24462 7.90913 3.94352 8.19358L3.05315 9.03472C1.97993 10.1156 1.98229 11.8618 3.06023 12.9398C4.13815 14.0177 5.88432 14.0201 6.9652 12.9469L7.80595 12.0564C8.0903 11.7552 8.56498 11.7415 8.86617 12.0259C9.16737 12.3102 9.18102 12.7849 8.89667 13.0861L8.04808 13.985C8.04314 13.9902 8.03813 13.9953 8.03305 14.0004C6.36695 15.6665 3.66567 15.6665 1.99957 14.0004C0.333475 12.3343 0.333476 9.63305 1.99957 7.96695C2.0046 7.96193 2.00969 7.95697 2.01486 7.95209L2.91343 7.1032C3.21453 6.81875 3.68921 6.83225 3.97367 7.13335Z"
            fill="#303233" />
    </g>
    <defs>
        <clipPath id="clip0_53_6350">
            <rect width="16" height="16" fill="white" />
        </clipPath>
    </defs>
</svg>
