<svg width="24" height="24" viewBox="0 0 24 24" fill="none" xmlns="http://www.w3.org/2000/svg">
    <path fill-rule="evenodd" clip-rule="evenodd"
        d="M10.2499 4.81081C10.2231 4.83762 10.1947 4.86599 10.1646 4.89601L6.99896 8.0617C6.98769 8.07297 6.97637 8.08433 6.96499 8.09576C6.8271 8.23413 6.67955 8.38219 6.50016 8.49212C6.34359 8.58807 6.17288 8.65878 5.99432 8.70165C5.78974 8.75076 5.58071 8.7504 5.38537 8.75006C5.36924 8.75003 5.3532 8.75 5.33726 8.75H3.6C3.3076 8.75 3.13341 8.75058 3.00428 8.76113C2.92547 8.76757 2.89234 8.77607 2.88347 8.77882C2.83883 8.80234 2.80235 8.83882 2.77883 8.88346C2.77607 8.89234 2.76757 8.92547 2.76114 9.00428C2.75059 9.1334 2.75 9.3076 2.75 9.6V14.4C2.75 14.6924 2.75059 14.8666 2.76114 14.9957C2.76757 15.0745 2.77607 15.1077 2.77883 15.1165C2.80235 15.1612 2.83883 15.1977 2.88347 15.2212C2.89235 15.2239 2.92548 15.2324 3.00428 15.2389C3.13341 15.2494 3.3076 15.25 3.6 15.25H5.33726C5.3532 15.25 5.36924 15.25 5.38537 15.2499C5.58071 15.2496 5.78973 15.2492 5.99432 15.2984C6.17288 15.3412 6.34359 15.4119 6.50016 15.5079C6.67955 15.6178 6.8271 15.7659 6.96498 15.9042C6.97637 15.9157 6.98769 15.927 6.99896 15.9383L10.1646 19.104C10.1947 19.134 10.2231 19.1624 10.2499 19.1892C10.25 19.1512 10.25 19.1111 10.25 19.0686V4.93137C10.25 4.88891 10.25 4.84878 10.2499 4.81081ZM2.88088 15.2203L2.88237 15.2208L2.88088 15.2203ZM2.77973 15.1191L2.77918 15.1176L2.77973 15.1191ZM2.77973 8.88087L2.77918 8.88236L2.77973 8.88087ZM2.88236 8.77918L2.88088 8.77973L2.88236 8.77918ZM10.4019 2.96096C10.8008 2.92957 11.1906 3.09103 11.4505 3.3953C11.6749 3.65804 11.7157 3.98068 11.7321 4.16609C11.7501 4.36867 11.75 4.62429 11.75 4.90057V19.0994C11.75 19.3757 11.7501 19.6313 11.7321 19.8339C11.7157 20.0193 11.6749 20.342 11.4505 20.6047C11.1906 20.909 10.8008 21.0704 10.4019 21.039C10.0575 21.0119 9.8005 20.8126 9.65778 20.6931C9.50184 20.5626 9.32112 20.3818 9.12578 20.1864L5.9383 16.999C5.84721 16.9079 5.7962 16.8571 5.7559 16.8203C5.72069 16.7882 5.71253 16.7845 5.71641 16.7868C5.69404 16.7731 5.66966 16.763 5.64415 16.7569C5.64859 16.758 5.64017 16.7548 5.59255 16.7527C5.53805 16.7502 5.46608 16.75 5.33726 16.75L3.57377 16.75C3.31629 16.75 3.07981 16.75 2.88213 16.7339C2.669 16.7165 2.43583 16.6766 2.20552 16.5593C1.87623 16.3915 1.60852 16.1238 1.44074 15.7945C1.32339 15.5642 1.28353 15.331 1.26612 15.1179C1.24997 14.9202 1.24998 14.6837 1.25 14.4262V9.57378C1.24998 9.3163 1.24997 9.07981 1.26612 8.88213C1.28353 8.669 1.32339 8.43582 1.44074 8.20552C1.60852 7.87623 1.87624 7.60852 2.20552 7.44074C2.43583 7.32339 2.669 7.28353 2.88213 7.26611C3.07982 7.24996 3.3163 7.24998 3.57379 7.25C3.5825 7.25 3.59124 7.25 3.6 7.25H5.33726C5.46608 7.25 5.53805 7.24982 5.59255 7.24733C5.62644 7.24578 5.64047 7.24375 5.64415 7.24309L5.64519 7.24288M10.4019 2.96096C10.0575 2.98807 9.8005 3.18739 9.65778 3.30688L10.4019 2.96096ZM9.65778 3.30688C9.50184 3.43743 9.32112 3.61818 9.12578 3.81356L9.65778 3.30688ZM5.9383 7.00104C5.84721 7.09213 5.79619 7.14289 5.75589 7.17967L5.9383 7.00104ZM5.75589 7.17967C5.73083 7.20254 5.71948 7.21103 5.71641 7.21316L5.75589 7.17967ZM5.71553 7.21374L5.71641 7.21316L5.71553 7.21374ZM15.4697 8.46967C15.7626 8.17678 16.2374 8.17678 16.5303 8.46967L19 10.9393L21.4697 8.46967C21.7626 8.17678 22.2374 8.17678 22.5303 8.46967C22.8232 8.76256 22.8232 9.23744 22.5303 9.53033L20.0607 12L22.5303 14.4697C22.8232 14.7626 22.8232 15.2374 22.5303 15.5303C22.2374 15.8232 21.7626 15.8232 21.4697 15.5303L19 13.0607L16.5303 15.5303C16.2374 15.8232 15.7626 15.8232 15.4697 15.5303C15.1768 15.2374 15.1768 14.7626 15.4697 14.4697L17.9393 12L15.4697 9.53033C15.1768 9.23744 15.1768 8.76256 15.4697 8.46967Z"
        fill="#303233" />
</svg>
