<svg width="16" height="16" viewBox="0 0 16 16" fill="none" xmlns="http://www.w3.org/2000/svg">
    <path
        d="M5.1786 1.5H10.8214C11.3633 1.5 11.8004 1.49999 12.1543 1.52891C12.5187 1.55868 12.8388 1.62159 13.135 1.77248C13.6054 2.01217 13.9878 2.39462 14.2275 2.86502C14.3784 3.16117 14.4413 3.48126 14.4711 3.84569C14.5 4.19963 14.5 4.6367 14.5 5.17858V10.8214C14.5 11.3633 14.5 11.8004 14.4711 12.1543C14.4413 12.5187 14.3784 12.8388 14.2275 13.135C13.9878 13.6054 13.6054 13.9878 13.135 14.2275C12.8388 14.3784 12.5187 14.4413 12.1543 14.4711C11.8004 14.5 11.3633 14.5 10.8214 14.5H5.17858C4.6367 14.5 4.19963 14.5 3.84569 14.4711C3.48126 14.4413 3.16117 14.3784 2.86502 14.2275C2.39462 13.9878 2.01217 13.6054 1.77248 13.135C1.62159 12.8388 1.55868 12.5187 1.52891 12.1543C1.49999 11.8004 1.5 11.3633 1.5 10.8214V5.1786C1.5 4.6367 1.49999 4.19963 1.52891 3.84569C1.55868 3.48126 1.62159 3.16117 1.77248 2.86502C2.01217 2.39462 2.39462 2.01217 2.86502 1.77248C3.16117 1.62159 3.48126 1.55868 3.84569 1.52891C4.19963 1.49999 4.6367 1.5 5.1786 1.5Z"
        fill="#303233" />
</svg>
