<svg width="24" height="24" viewBox="0 0 24 24" fill="none" xmlns="http://www.w3.org/2000/svg">
    <g clip-path="url(#clip0_7675_5)">
        <path
            d="M11.2374 1.59099C11.6594 2.01295 12.2317 2.25 12.8284 2.25H17C18.0188 2.25 18.9073 2.80444 19.3816 3.62446C19.589 3.983 19.4665 4.4418 19.108 4.6492C18.7494 4.85661 18.2906 4.73409 18.0832 4.37554C17.866 3.99996 17.4617 3.75 17 3.75H3C2.30964 3.75 1.75 4.30964 1.75 5V15C1.75 15.6904 2.30964 16.25 3 16.25H7C7.41421 16.25 7.75 16.5858 7.75 17C7.75 17.4142 7.41421 17.75 7 17.75H3C1.48122 17.75 0.25 16.5188 0.25 15V3C0.25 1.48122 1.48122 0.25 3 0.25H9.17157C9.6357 0.25 10.0808 0.434375 10.409 0.762563L11.2374 1.59099Z"
            fill="#303233" />
        <path fill-rule="evenodd" clip-rule="evenodd"
            d="M18.2027 7.25C19.0292 7.24999 19.6958 7.24999 20.2354 7.29479C20.791 7.34093 21.2787 7.43844 21.7287 7.6722C22.4136 8.02798 22.972 8.58643 23.3278 9.27135C23.5616 9.72135 23.6591 10.209 23.7052 10.7646C23.75 11.3042 23.75 11.9708 23.75 12.7973V18.2027C23.75 19.0292 23.75 19.6958 23.7052 20.2354C23.6591 20.791 23.5616 21.2787 23.3278 21.7287C22.972 22.4136 22.4136 22.972 21.7287 23.3278C21.2787 23.5616 20.791 23.6591 20.2354 23.7052C19.6958 23.75 19.0292 23.75 18.2027 23.75H15.7973C14.9709 23.75 14.3042 23.75 13.7646 23.7052C13.209 23.6591 12.7213 23.5616 12.2713 23.3278C11.5864 22.972 11.028 22.4136 10.6722 21.7287C10.4384 21.2787 10.3409 20.791 10.2948 20.2354C10.25 19.6958 10.25 19.0292 10.25 18.2027V12.7973C10.25 11.9708 10.25 11.3042 10.2948 10.7646C10.3409 10.209 10.4384 9.72135 10.6722 9.27135C11.028 8.58643 11.5864 8.02798 12.2713 7.6722C12.7213 7.43844 13.209 7.34093 13.7646 7.29479C14.3042 7.24999 14.9708 7.24999 15.7973 7.25H18.2027ZM13.8888 8.78965C13.4276 8.82795 13.163 8.89932 12.9628 9.00332C12.5519 9.21679 12.2168 9.55186 12.0033 9.96281C11.8993 10.163 11.8279 10.4276 11.7896 10.8888C11.7506 11.3589 11.75 11.9632 11.75 12.83V18.17C11.75 19.0368 11.7506 19.6411 11.7896 20.1112C11.8279 20.5724 11.8993 20.837 12.0033 21.0372C12.2168 21.4481 12.5519 21.7832 12.9628 21.9967C13.163 22.1007 13.4276 22.1721 13.8888 22.2104C14.3589 22.2494 14.9632 22.25 15.83 22.25H18.17C19.0368 22.25 19.6411 22.2494 20.1112 22.2104C20.5724 22.1721 20.837 22.1007 21.0372 21.9967C21.4481 21.7832 21.7832 21.4481 21.9967 21.0372C22.1007 20.837 22.1721 20.5724 22.2104 20.1112C22.2494 19.6411 22.25 19.0368 22.25 18.17V12.83C22.25 11.9632 22.2494 11.3589 22.2104 10.8888C22.1721 10.4276 22.1007 10.163 21.9967 9.96281C21.7832 9.55186 21.4481 9.21679 21.0372 9.00332C20.837 8.89932 20.5724 8.82795 20.1112 8.78965C19.6411 8.7506 19.0368 8.75 18.17 8.75H15.83C14.9632 8.75 14.3589 8.7506 13.8888 8.78965Z"
            fill="#303233" />
    </g>
    <defs>
        <clipPath id="clip0_7675_5">
            <rect width="24" height="24" fill="white" />
        </clipPath>
    </defs>
</svg>
