<svg width="16" height="16" viewBox="0 0 16 16" fill="none" xmlns="http://www.w3.org/2000/svg">
    <path
        d="M12.8536 3.14645C13.0488 3.34171 13.0488 3.65829 12.8536 3.85355L3.85355 12.8536C3.65829 13.0488 3.34171 13.0488 3.14645 12.8536C2.95118 12.6583 2.95118 12.3417 3.14645 12.1464L12.1464 3.14645C12.3417 2.95118 12.6583 2.95118 12.8536 3.14645Z"
        fill="#303233" />
    <path fill-rule="evenodd" clip-rule="evenodd"
        d="M3 4.75C3 3.7835 3.7835 3 4.75 3C5.7165 3 6.5 3.7835 6.5 4.75C6.5 5.7165 5.7165 6.5 4.75 6.5C3.7835 6.5 3 5.7165 3 4.75ZM4.75 4C4.33579 4 4 4.33579 4 4.75C4 5.16421 4.33579 5.5 4.75 5.5C5.16421 5.5 5.5 5.16421 5.5 4.75C5.5 4.33579 5.16421 4 4.75 4Z"
        fill="#303233" />
    <path fill-rule="evenodd" clip-rule="evenodd"
        d="M11.25 9.5C10.2835 9.5 9.5 10.2835 9.5 11.25C9.5 12.2165 10.2835 13 11.25 13C12.2165 13 13 12.2165 13 11.25C13 10.2835 12.2165 9.5 11.25 9.5ZM10.5 11.25C10.5 10.8358 10.8358 10.5 11.25 10.5C11.6642 10.5 12 10.8358 12 11.25C12 11.6642 11.6642 12 11.25 12C10.8358 12 10.5 11.6642 10.5 11.25Z"
        fill="#303233" />
</svg>
