<svg width="24" height="24" viewBox="0 0 24 24" fill="none" xmlns="http://www.w3.org/2000/svg">
    <g clip-path="url(#clip0_155_492)">
        <path
            d="M1.87092 9.93803C4.54063 7.49161 8.0959 6 12.0018 6L12.068 6.00014C12.6203 6.00252 13.0699 5.55674 13.0723 5.00446C13.0747 4.45218 12.6289 4.00254 12.0766 4.00016L12.0018 4C7.57631 4 3.54376 5.69237 0.519715 8.4635C0.112535 8.83662 0.0849277 9.46918 0.458053 9.87636C0.831178 10.2835 1.46374 10.3112 1.87092 9.93803Z"
            fill="#303233" />
        <path
            d="M11.1556 11.0353C11.706 10.9892 12.1148 10.5057 12.0688 9.95534C12.0227 9.40498 11.5392 8.99616 10.9888 9.04222C8.34716 9.26329 5.94871 10.3402 4.07288 11.9926C3.65846 12.3577 3.61845 12.9896 3.98352 13.404C4.34859 13.8184 4.98048 13.8584 5.39491 13.4933C6.95964 12.115 8.95646 11.2193 11.1556 11.0353Z"
            fill="#303233" />
        <path
            d="M12.0018 16C10.8205 16 9.73736 16.4084 8.88189 17.0926C8.45057 17.4375 7.82129 17.3675 7.47635 16.9361C7.13142 16.5048 7.20145 15.8755 7.63277 15.5306C8.83 14.5732 10.3504 14 12.0018 14C13.6286 14 15.1283 14.5562 16.3172 15.4881C16.7519 15.8288 16.828 16.4574 16.4873 16.892C16.1466 17.3267 15.518 17.4028 15.0834 17.0621C14.234 16.3964 13.1656 16 12.0018 16Z"
            fill="#303233" />
        <path
            d="M12.002 19C11.4497 19 11.002 19.4477 11.002 20C11.002 20.5523 11.4497 21 12.002 21H12.012C12.5642 21 13.012 20.5523 13.012 20C13.012 19.4477 12.5642 19 12.012 19H12.002Z"
            fill="#303233" />
        <path fill-rule="evenodd" clip-rule="evenodd"
            d="M19.002 4C21.7634 4 24.002 6.23858 24.002 9C24.002 11.7614 21.7634 14 19.002 14C16.2405 14 14.002 11.7614 14.002 9C14.002 6.23858 16.2405 4 19.002 4ZM22.002 9C22.002 7.34315 20.6588 6 19.002 6C18.5388 6 18.1001 6.10497 17.7084 6.29242L21.7095 10.2935C21.897 9.90186 22.002 9.46319 22.002 9ZM20.2953 11.7077L16.2943 7.70669C16.1069 8.0983 16.002 8.53689 16.002 9C16.002 10.6569 17.3451 12 19.002 12C19.4651 12 19.9037 11.8951 20.2953 11.7077Z"
            fill="#303233" />
    </g>
    <defs>
        <clipPath id="clip0_155_492">
            <rect width="24" height="24" fill="white" />
        </clipPath>
    </defs>
</svg>
