<svg width="16" height="16" viewBox="0 0 16 16" fill="none" xmlns="http://www.w3.org/2000/svg">
    <path fill-rule="evenodd" clip-rule="evenodd"
        d="M14.7297 3.42325C14.4981 3.14317 14.1492 2.98728 13.7863 3.00081C13.5062 3.01126 13.2711 3.15774 13.0878 3.29286C12.899 3.43212 12.6738 3.63157 12.4075 3.86746L9.04784 6.84366C8.9048 6.97035 8.77473 7.08556 8.67515 7.19017C8.56884 7.30186 8.46167 7.43698 8.39939 7.61375C8.31131 7.86375 8.31131 8.13625 8.39939 8.38625C8.46167 8.56303 8.56884 8.69814 8.67515 8.80983C8.77474 8.91445 8.90481 9.02966 9.04786 9.15636L12.4075 12.1325C12.6738 12.3684 12.899 12.5679 13.0878 12.7071C13.2711 12.8423 13.5062 12.9887 13.7863 12.9992C14.1492 13.0127 14.4981 12.8568 14.7297 12.5767C14.9087 12.3603 14.955 12.0869 14.9755 11.8605C14.9966 11.6272 14.9965 11.3268 14.9965 10.9719V5.02811C14.9965 4.67317 14.9966 4.37285 14.9755 4.13949C14.955 3.91312 14.9087 3.63971 14.7297 3.42325ZM7.39636 3.42325C7.16476 3.14317 6.81582 2.98728 6.45296 3.00081C6.17287 3.01126 5.9378 3.15774 5.75452 3.29286C5.56563 3.43212 5.34048 3.63157 5.07421 3.86746L1.71452 6.84365C1.57147 6.97035 1.4414 7.08555 1.34182 7.19017C1.23551 7.30186 1.12834 7.43697 1.06606 7.61375C0.977981 7.86375 0.977981 8.13625 1.06606 8.38625C1.12834 8.56303 1.23551 8.69814 1.34182 8.80983C1.4414 8.91445 1.57147 9.02965 1.71452 9.15635L5.07418 12.1325C5.34046 12.3684 5.56562 12.5679 5.75452 12.7071C5.9378 12.8423 6.17287 12.9887 6.45296 12.9992C6.81582 13.0127 7.16476 12.8568 7.39636 12.5767C7.57533 12.3603 7.62172 12.0869 7.64215 11.8605C7.66322 11.6272 7.66321 11.3268 7.6632 10.9719V5.02811C7.66321 4.67317 7.66322 4.37285 7.64215 4.13949C7.62172 3.91312 7.57533 3.63971 7.39636 3.42325Z"
        fill="#303233" />
</svg>
