<svg width="24" height="24" viewBox="0 0 24 24" fill="none" xmlns="http://www.w3.org/2000/svg">
    <path fill-rule="evenodd" clip-rule="evenodd"
        d="M12 2.75C6.89137 2.75 2.75 6.89137 2.75 12C2.75 17.1086 6.89137 21.25 12 21.25C17.1086 21.25 21.25 17.1086 21.25 12C21.25 6.89137 17.1086 2.75 12 2.75ZM1.25 12C1.25 6.06294 6.06294 1.25 12 1.25C17.9371 1.25 22.75 6.06294 22.75 12C22.75 17.9371 17.9371 22.75 12 22.75C6.06294 22.75 1.25 17.9371 1.25 12Z"
        fill="#303233" />
    <path fill-rule="evenodd" clip-rule="evenodd"
        d="M10.5738 8.25C10.5825 8.25 10.5912 8.25 10.6 8.25L13.4262 8.25C13.6837 8.24998 13.9202 8.24996 14.1179 8.26611C14.331 8.28353 14.5642 8.32339 14.7945 8.44074C15.1238 8.60852 15.3915 8.87623 15.5593 9.20552C15.6766 9.43582 15.7165 9.66899 15.7339 9.88213C15.75 10.0798 15.75 10.3163 15.75 10.5738V13.4262C15.75 13.6837 15.75 13.9202 15.7339 14.1179C15.7165 14.331 15.6766 14.5642 15.5593 14.7945C15.3915 15.1238 15.1238 15.3915 14.7945 15.5593C14.5642 15.6766 14.331 15.7165 14.1179 15.7339C13.9202 15.75 13.6837 15.75 13.4262 15.75H10.5738C10.3163 15.75 10.0798 15.75 9.88213 15.7339C9.66899 15.7165 9.43582 15.6766 9.20552 15.5593C8.87623 15.3915 8.60852 15.1238 8.44074 14.7945C8.32339 14.5642 8.28353 14.331 8.26611 14.1179C8.24996 13.9202 8.24998 13.6837 8.25 13.4262L8.25 10.6C8.25 10.5912 8.25 10.5825 8.25 10.5738C8.24998 10.3163 8.24996 10.0798 8.26611 9.88213C8.28353 9.66899 8.32339 9.43582 8.44074 9.20552C8.60852 8.87623 8.87623 8.60852 9.20552 8.44074C9.43582 8.32339 9.66899 8.28353 9.88213 8.26611C10.0798 8.24996 10.3163 8.24998 10.5738 8.25Z"
        fill="#303233" />
</svg>
