<svg width="16" height="16" viewBox="0 0 16 16" fill="none" xmlns="http://www.w3.org/2000/svg">
    <path
        d="M5.75 9.75C5.88801 9.75 5.9999 9.86201 6 10C5.9999 10.138 5.88801 10.25 5.75 10.25C5.61199 10.25 5.5001 10.138 5.5 10C5.5001 9.86201 5.61199 9.75 5.75 9.75Z"
        fill="#303233" />
    <path
        d="M9.75 9.25C9.88801 9.25 9.9999 9.36201 10 9.5C9.9999 9.63799 9.88801 9.75 9.75 9.75C9.61199 9.75 9.5001 9.63799 9.5 9.5C9.5001 9.36201 9.61199 9.25 9.75 9.25Z"
        fill="#303233" />
    <path fill-rule="evenodd" clip-rule="evenodd"
        d="M10.2305 0.750001C10.7818 0.74999 11.2407 0.749706 11.6152 0.780274C12.0054 0.812153 12.37 0.881521 12.7139 1.05664C13.2431 1.32629 13.6737 1.75693 13.9434 2.28613C14.1185 2.62998 14.1878 2.99459 14.2197 3.38477C14.2503 3.75932 14.25 4.21825 14.25 4.76953V11.2305C14.25 11.7818 14.2503 12.2407 14.2197 12.6152C14.1878 13.0054 14.1185 13.37 13.9434 13.7139C13.6737 14.2431 13.2431 14.6737 12.7139 14.9434C12.37 15.1185 12.0054 15.1878 11.6152 15.2197C11.2407 15.2503 10.7818 15.25 10.2305 15.25H5.76953C5.21825 15.25 4.75932 15.2503 4.38477 15.2197C3.99459 15.1878 3.62998 15.1185 3.28613 14.9434C2.75693 14.6737 2.32629 14.2431 2.05664 13.7139C1.88152 13.37 1.81215 13.0054 1.78027 12.6152C1.74971 12.2407 1.74999 11.7818 1.75 11.2305V4.76953C1.74999 4.21824 1.74971 3.75932 1.78027 3.38477C1.81215 2.99459 1.88152 2.62998 2.05664 2.28613C2.32629 1.75693 2.75693 1.32629 3.28613 1.05664C3.62998 0.88152 3.99459 0.812153 4.38477 0.780274C4.75932 0.749706 5.21824 0.74999 5.76953 0.750001H10.2305ZM10.1357 4.35352C10.0001 4.36422 9.84232 4.39054 9.69531 4.41504L7.29492 4.81543C7.18738 4.83335 7.06525 4.85331 6.96094 4.87891C6.8758 4.89982 6.77321 4.93134 6.66602 4.98633L6.55762 5.04981C6.41045 5.14776 6.28595 5.27538 6.19238 5.42383L6.10938 5.57813C6.03807 5.73715 6.01664 5.88834 6.00781 6.00488C5.99973 6.11196 6 6.23577 6 6.34473V8.26953C5.91827 8.25783 5.83497 8.25 5.75 8.25C4.78356 8.25 4.0001 9.03359 4 10C4.0001 10.9664 4.78356 11.75 5.75 11.75C6.65611 11.75 7.40162 11.0612 7.49121 10.1787L7.5 10V6.30176C7.5131 6.29957 7.52727 6.29738 7.54199 6.29492L9.94141 5.89551C9.96152 5.89216 9.98099 5.88873 9.99902 5.88574C9.99905 5.90411 10 5.92384 10 5.94434V7.76953C9.91827 7.75783 9.83497 7.75 9.75 7.75C8.78356 7.75 8.0001 8.53359 8 9.5C8.0001 10.4664 8.78357 11.25 9.75 11.25C10.6561 11.25 11.4016 10.5612 11.4912 9.67871L11.5 9.5V5.94434C11.5 5.79549 11.5009 5.63541 11.4893 5.5C11.4769 5.35753 11.4453 5.16293 11.334 4.96875C11.2068 4.7471 11.0154 4.56981 10.7861 4.46094L10.6855 4.41797L10.5313 4.37402C10.3804 4.342 10.2428 4.34507 10.1357 4.35352Z"
        fill="#303233" />
</svg>
