<svg width="24" height="24" viewBox="0 0 24 24" fill="none" xmlns="http://www.w3.org/2000/svg">
    <path fill-rule="evenodd" clip-rule="evenodd"
        d="M17.871 2.96925L18.595 4.71425C18.725 5.02825 18.974 5.27625 19.288 5.40625L21.032 6.12925C21.714 6.41125 22.256 6.95325 22.538 7.63525C22.821 8.31725 22.821 9.08325 22.538 9.76525L21.816 11.5092C21.686 11.8232 21.685 12.1762 21.816 12.4902L21.817 12.4922L22.538 14.2352C22.677 14.5722 22.75 14.9342 22.75 15.3002C22.75 15.6652 22.678 16.0272 22.538 16.3652C22.398 16.7032 22.193 17.0102 21.934 17.2682C21.676 17.5273 21.369 17.7322 21.031 17.8712L19.287 18.5942C18.973 18.7242 18.723 18.9732 18.592 19.2872L17.87 21.0322C17.587 21.7142 17.046 22.2563 16.364 22.5382C15.682 22.8202 14.916 22.8202 14.234 22.5382L12.491 21.8162C12.177 21.6863 11.824 21.6862 11.51 21.8172L9.763 22.5392C9.082 22.8212 8.317 22.8202 7.635 22.5382C6.954 22.2563 6.413 21.7152 6.13 21.0342L5.407 19.2872C5.277 18.9732 5.027 18.7232 4.713 18.5932L2.969 17.8702C2.287 17.5882 1.746 17.0462 1.463 16.3652C1.181 15.6842 1.18 14.9172 1.462 14.2362L2.184 12.4922C2.314 12.1782 2.314 11.8242 2.183 11.5102L1.462 9.76425C1.322 9.42625 1.25 9.06425 1.25 8.69925C1.25 8.33325 1.322 7.97125 1.462 7.63325C1.602 7.29625 1.807 6.98925 2.065 6.73025C2.324 6.47225 2.631 6.26725 2.968 6.12725L4.713 5.40525C5.027 5.27525 5.276 5.02625 5.407 4.71225L6.129 2.96825C6.412 2.28625 6.953 1.74425 7.635 1.46225C8.317 1.17925 9.083 1.17925 9.765 1.46225L11.508 2.18425C11.823 2.31425 12.176 2.31425 12.49 2.18325H12.491L14.236 1.46325C14.918 1.18125 15.684 1.18125 16.365 1.46325C17.047 1.74525 17.589 2.28725 17.871 2.96925ZM17.209 5.28925L16.485 3.54325C16.355 3.22925 16.106 2.97925 15.791 2.84925C15.477 2.71925 15.124 2.71925 14.809 2.84925L13.065 3.56925C12.383 3.85125 11.617 3.85225 10.935 3.57025L9.191 2.84825C8.877 2.71725 8.524 2.71725 8.209 2.84825C7.895 2.97825 7.645 3.22725 7.515 3.54225L6.792 5.28825C6.509 5.96825 5.967 6.50925 5.286 6.79125L3.542 7.51325C3.387 7.57725 3.245 7.67225 3.126 7.79125C3.007 7.91025 2.912 8.05225 2.848 8.20725C2.783 8.36325 2.75 8.53025 2.75 8.69825C2.75 8.86725 2.783 9.03425 2.848 9.19025L3.569 10.9362C3.852 11.6172 3.852 12.3832 3.57 13.0652L2.848 14.8092C2.718 15.1232 2.718 15.4762 2.849 15.7902C2.979 16.1052 3.229 16.3542 3.543 16.4842L5.288 17.2072C5.969 17.4902 6.511 18.0322 6.793 18.7142L7.516 20.4592C7.646 20.7732 7.895 21.0222 8.209 21.1522C8.523 21.2822 8.876 21.2832 9.19 21.1532L10.935 20.4312C11.616 20.1482 12.382 20.1482 13.064 20.4302L14.808 21.1522C15.123 21.2822 15.476 21.2822 15.79 21.1522C16.104 21.0222 16.354 20.7722 16.484 20.4582L17.207 18.7122C17.49 18.0312 18.032 17.4902 18.713 17.2082L20.457 16.4862C20.613 16.4212 20.755 16.3272 20.874 16.2072C20.993 16.0882 21.087 15.9472 21.152 15.7912C21.216 15.6352 21.25 15.4692 21.25 15.3002C21.25 15.1322 21.216 14.9642 21.152 14.8092L20.431 13.0672C20.147 12.3852 20.147 11.6172 20.43 10.9352L21.152 9.19125C21.283 8.87625 21.283 8.52325 21.152 8.20925C21.022 7.89525 20.772 7.64525 20.458 7.51525L18.713 6.79225C18.033 6.50925 17.492 5.96925 17.209 5.28925ZM10.25 9.00025C10.25 9.69025 9.69 10.2502 9 10.2502C8.31 10.2502 7.75 9.69025 7.75 9.00025C7.75 8.31025 8.31 7.75025 9 7.75025C9.69 7.75025 10.25 8.31025 10.25 9.00025ZM16.25 15.0002C16.25 15.6902 15.69 16.2502 15 16.2502C14.31 16.2502 13.75 15.6902 13.75 15.0002C13.75 14.3102 14.31 13.7502 15 13.7502C15.69 13.7502 16.25 14.3102 16.25 15.0002ZM15.47 7.47025C15.762 7.17725 16.238 7.17725 16.53 7.47025C16.823 7.76225 16.823 8.23825 16.53 8.53025L8.53 16.5302C8.238 16.8232 7.762 16.8232 7.47 16.5302C7.177 16.2382 7.177 15.7622 7.47 15.4702L15.47 7.47025Z"
        fill="#303233" />
</svg>
