<svg width="24" height="24" viewBox="0 0 24 24" fill="none" xmlns="http://www.w3.org/2000/svg">
    <path
        d="M3.11612 4.11612C3.35054 3.8817 3.66848 3.75 4 3.75H20C20.3315 3.75 20.6495 3.8817 20.8839 4.11612C21.1183 4.35054 21.25 4.66848 21.25 5V15C21.25 15.3315 21.1183 15.6495 20.8839 15.8839C20.6495 16.1183 20.3315 16.25 20 16.25H19C18.5858 16.25 18.25 16.5858 18.25 17C18.25 17.4142 18.5858 17.75 19 17.75H20C20.7293 17.75 21.4288 17.4603 21.9445 16.9445C22.4603 16.4288 22.75 15.7293 22.75 15V5C22.75 4.27065 22.4603 3.57118 21.9445 3.05546C21.4288 2.53973 20.7293 2.25 20 2.25H4C3.27065 2.25 2.57118 2.53973 2.05546 3.05546C1.53973 3.57118 1.25 4.27065 1.25 5V15C1.25 15.7293 1.53973 16.4288 2.05546 16.9445C2.57118 17.4603 3.27065 17.75 4 17.75H5C5.41421 17.75 5.75 17.4142 5.75 17C5.75 16.5858 5.41421 16.25 5 16.25H4C3.66848 16.25 3.35054 16.1183 3.11612 15.8839C2.8817 15.6495 2.75 15.3315 2.75 15V5C2.75 4.66848 2.8817 4.35054 3.11612 4.11612Z"
        fill="#303233" />
    <path fill-rule="evenodd" clip-rule="evenodd"
        d="M12.5762 14.5199C12.4337 14.3489 12.2226 14.25 12 14.25C11.7774 14.25 11.5663 14.3489 11.4238 14.5199L6.42383 20.5199C6.23753 20.7434 6.19737 21.0546 6.32081 21.3181C6.44424 21.5817 6.70899 21.75 7 21.75H17C17.291 21.75 17.5558 21.5817 17.6792 21.3181C17.8026 21.0546 17.7625 20.7434 17.5762 20.5199L12.5762 14.5199ZM12 16.1715L15.3987 20.25H8.60128L12 16.1715Z"
        fill="#303233" />
</svg>
