<svg width="16" height="16" viewBox="0 0 16 16" fill="none" xmlns="http://www.w3.org/2000/svg">
    <path
        d="M6.5 5.5C6.77614 5.5 7 5.72386 7 6V7.5H8.5C8.77614 7.5 9 7.72386 9 8C9 8.27614 8.77614 8.5 8.5 8.5H7V10C7 10.2761 6.77614 10.5 6.5 10.5C6.22386 10.5 6 10.2761 6 10V8.5H4.5C4.22386 8.5 4 8.27614 4 8C4 7.72386 4.22386 7.5 4.5 7.5H6V6C6 5.72386 6.22386 5.5 6.5 5.5Z"
        fill="#303233" />
    <path fill-rule="evenodd" clip-rule="evenodd"
        d="M8.32073 3H4.67927C4.13681 3 3.70035 2.99999 3.34713 3.02782C2.98411 3.05642 2.66605 3.11674 2.37153 3.26144C1.90268 3.4918 1.51809 3.86109 1.27591 4.31943C1.12263 4.60951 1.05903 4.92283 1.02903 5.27682C0.99999 5.6196 0.999995 6.04234 1 6.56371V9.43629C0.999995 9.95766 0.99999 10.3804 1.02903 10.7232C1.05903 11.0772 1.12263 11.3905 1.27591 11.6806C1.51809 12.1389 1.90268 12.5082 2.37153 12.7386C2.66605 12.8833 2.98411 12.9436 3.34713 12.9722C3.70035 13 4.13681 13 4.67929 13H8.32071C8.86319 13 9.29965 13 9.65287 12.9722C10.0159 12.9436 10.334 12.8833 10.6285 12.7386C11.0973 12.5082 11.4819 12.1389 11.7241 11.6806C11.8774 11.3905 11.941 11.0772 11.971 10.7232C12 10.3804 12 9.95765 12 9.43628V9.18208L13.3465 10.489C13.4627 10.6018 13.5727 10.7086 13.6682 10.7862C13.756 10.8575 13.9191 10.9809 14.1384 10.9976C14.3876 11.0167 14.6353 10.9193 14.8035 10.7282C14.9528 10.5586 14.9788 10.3506 14.9889 10.2396C15 10.1181 15 9.96608 15 9.80711V6.19291C15 6.03395 15 5.88191 14.9889 5.76038C14.9788 5.6494 14.9528 5.44144 14.8035 5.27177C14.6353 5.08065 14.3876 4.98331 14.1384 5.00235C13.9191 5.01909 13.756 5.14246 13.6682 5.21378C13.5728 5.29133 13.4628 5.39811 13.3466 5.51094L12 6.81791V6.56372C12 6.04235 12 5.61961 11.971 5.27682C11.941 4.92283 11.8774 4.60951 11.7241 4.31943C11.4819 3.86109 11.0973 3.4918 10.6285 3.26144C10.334 3.11674 10.0159 3.05642 9.65287 3.02782C9.29966 2.99999 8.86319 3 8.32073 3ZM11 7.99902V6.58571C11 6.03711 10.9996 5.65684 10.9745 5.36125C10.95 5.07205 10.9046 4.90907 10.8399 4.78661C10.6986 4.51918 10.4713 4.2984 10.1875 4.15896C10.0542 4.09346 9.87831 4.04868 9.57433 4.02473C9.26502 4.00036 8.86801 4 8.3 4H4.7C4.13199 4 3.73498 4.00036 3.42568 4.02473C3.12169 4.04868 2.94582 4.09346 2.81251 4.15896C2.52871 4.2984 2.30138 4.51918 2.16007 4.78661C2.09536 4.90907 2.04997 5.07205 2.02546 5.36125C2.00042 5.65684 2 6.03711 2 6.58571V9.41429C2 9.96289 2.00042 10.3432 2.02546 10.6388C2.04997 10.928 2.09536 11.0909 2.16007 11.2134C2.30138 11.4808 2.52871 11.7016 2.81251 11.841C2.94582 11.9065 3.12169 11.9513 3.42568 11.9753C3.73498 11.9996 4.13199 12 4.7 12H8.3C8.86801 12 9.26502 11.9996 9.57433 11.9753C9.87831 11.9513 10.0542 11.9065 10.1875 11.841C10.4713 11.7016 10.6986 11.4808 10.8399 11.2134C10.9046 11.0909 10.95 10.928 10.9745 10.6388C10.9996 10.3432 11 9.96289 11 9.41429V8.00097C11 8.00065 11 7.99934 11 7.99902C11 7.99934 11 7.99869 11 7.99902ZM14 6.27029L12.2179 8L14 9.7297V6.27029Z"
        fill="#303233" />
</svg>
