<svg width="16" height="16" viewBox="0 0 16 16" fill="none" xmlns="http://www.w3.org/2000/svg">
    <path
        d="M11 3.5C11.2762 3.5 11.5 3.72386 11.5 4V6C11.5 6.27614 11.2762 6.5 11 6.5C10.7239 6.5 10.5 6.27614 10.5 6V4C10.5 3.72386 10.7239 3.5 11 3.5Z"
        fill="#303233" />
    <path
        d="M9.50002 4C9.50002 3.72386 9.27616 3.5 9.00002 3.5C8.72388 3.5 8.50002 3.72386 8.50002 4V6C8.50002 6.27614 8.72388 6.5 9.00002 6.5C9.27616 6.5 9.50002 6.27614 9.50002 6V4Z"
        fill="#303233" />
    <path
        d="M7.00002 3.5C7.27616 3.5 7.50002 3.72386 7.50002 4V6C7.50002 6.27614 7.27616 6.5 7.00002 6.5C6.72388 6.5 6.50002 6.27614 6.50002 6V4C6.50002 3.72386 6.72388 3.5 7.00002 3.5Z"
        fill="#303233" />
    <path
        d="M5.50002 5C5.50002 4.72386 5.27616 4.5 5.00002 4.5C4.72388 4.5 4.50002 4.72386 4.50002 5V6C4.50002 6.27614 4.72388 6.5 5.00002 6.5C5.27616 6.5 5.50002 6.27614 5.50002 6V5Z"
        fill="#303233" />
    <path fill-rule="evenodd" clip-rule="evenodd"
        d="M10.4155 15C10.9409 15 11.3658 15 11.71 14.9717C12.0648 14.9426 12.3779 14.881 12.6679 14.7325C13.1275 14.4973 13.5006 14.1223 13.7344 13.6615C13.8818 13.3709 13.943 13.0572 13.9719 12.7013C14 12.3558 14 11.9293 14 11.4012V4.59873C14 4.07072 14 3.64422 13.9719 3.2987C13.943 2.94279 13.8818 2.62913 13.7344 2.33853C13.5006 1.87772 13.1275 1.50264 12.6679 1.26744C12.3779 1.11898 12.0648 1.05735 11.71 1.02823C11.3658 0.999983 10.941 0.999987 10.4156 0.999992L6.31823 0.999981C5.89786 0.999851 5.60409 0.99976 5.32194 1.06781C5.07265 1.12793 4.8344 1.22707 4.61595 1.36155C4.36876 1.51371 4.16133 1.72222 3.86409 2.02099L3.01563 2.87331C2.71804 3.17207 2.51057 3.38036 2.35923 3.62845C2.22553 3.84761 2.12705 4.08648 2.06735 4.33627C1.9998 4.61893 1.99988 4.91325 2.00001 5.33598L2.00002 11.4012C2.00002 11.9292 2.00001 12.3558 2.02811 12.7013C2.05706 13.0572 2.11828 13.3709 2.26568 13.6615C2.49941 14.1223 2.87259 14.4973 3.33211 14.7325C3.62216 14.881 3.93525 14.9426 4.29004 14.9717C4.63426 15 5.05907 15 5.58446 15H10.4155ZM5.55638 2.03994C5.70857 2.00323 5.87606 1.99999 6.37475 1.99999H10.3941C10.946 1.99999 11.3297 2.00038 11.6282 2.02488C11.9208 2.0489 12.0871 2.09354 12.2123 2.15761C12.4833 2.29632 12.704 2.51787 12.8425 2.79089C12.9067 2.91742 12.9513 3.08534 12.9752 3.37977C12.9996 3.67996 13 4.06573 13 4.61999V11.38C13 11.9343 12.9996 12.32 12.9752 12.6202C12.9513 12.9146 12.9067 13.0826 12.8425 13.2091C12.704 13.4821 12.4833 13.7037 12.2123 13.8424C12.0871 13.9064 11.9208 13.9511 11.6282 13.9751C11.3297 13.9996 10.946 14 10.3941 14H5.60628C5.05442 14 4.67034 13.9996 4.37184 13.9751C4.07925 13.9511 3.91292 13.9064 3.78774 13.8424C3.51674 13.7037 3.296 13.4821 3.15752 13.2091C3.09334 13.0826 3.04877 12.9146 3.02482 12.6202C3.00041 12.32 3.00002 11.9343 3.00002 11.38V5.39234C3.00002 4.89169 3.00321 4.7225 3.03996 4.56871C3.07537 4.42056 3.13375 4.279 3.21292 4.14922C3.29502 4.01463 3.4116 3.89299 3.76407 3.53892L4.53292 2.76657C4.88549 2.4124 5.00646 2.29544 5.14017 2.21313C5.26907 2.13378 5.40953 2.07535 5.55638 2.03994Z"
        fill="#303233" />
</svg>
