<svg width="16" height="16" viewBox="0 0 16 16" fill="none" xmlns="http://www.w3.org/2000/svg">
    <g clip-path="url(#clip0_53_7025)">
        <path
            d="M1.53033 0.46967C1.23744 0.176777 0.762563 0.176777 0.46967 0.46967C0.176777 0.762563 0.176777 1.23744 0.46967 1.53033L2.71815 3.77881C2.09797 4.57444 1.75 5.58257 1.75 6.564C1.75 7.63139 2.1632 8.60723 2.72278 9.44143C3.28294 10.2765 4.01679 11.0107 4.73 11.6118C5.44602 12.2153 6.16187 12.7018 6.70477 13.0377C6.97673 13.2059 7.20854 13.3384 7.3793 13.4306C7.46408 13.4764 7.53749 13.5142 7.59547 13.5422C7.62346 13.5558 7.65462 13.5703 7.68493 13.5831C7.69914 13.5891 7.72264 13.5987 7.75044 13.6081C7.76406 13.6127 7.78821 13.6205 7.81759 13.6278C7.83625 13.6324 7.90762 13.65 8 13.65C8.094 13.65 8.1676 13.6315 8.186 13.6269C8.21538 13.6195 8.23894 13.6118 8.25249 13.6071C8.28021 13.5976 8.30378 13.5879 8.31821 13.5818C8.34899 13.5687 8.38099 13.5537 8.41024 13.5395C8.47073 13.5101 8.54778 13.4702 8.63718 13.4217C8.81712 13.324 9.06153 13.1836 9.34746 13.0052C9.78073 12.7349 10.3173 12.3726 10.8738 11.9345L14.4697 15.5303C14.7626 15.8232 15.2374 15.8232 15.5303 15.5303C15.8232 15.2374 15.8232 14.7626 15.5303 14.4697L1.53033 0.46967Z"
            fill="#303233" />
        <path
            d="M10.2611 2.25C9.28041 2.25 8.53535 2.60297 8.00016 3.02238C7.57687 2.69052 7.02031 2.39921 6.31467 2.2926C5.9943 2.2442 5.67907 2.40701 5.53308 2.69626C5.38709 2.98552 5.44336 3.33582 5.67259 3.5648L11.936 9.82146C12.0904 9.97573 12.3044 10.0551 12.522 10.0387C12.7397 10.0224 12.9395 9.91211 13.0692 9.73656C13.7338 8.83716 14.25 7.75756 14.25 6.564C14.25 4.55783 12.73 2.25 10.2611 2.25Z"
            fill="#303233" />
    </g>
    <defs>
        <clipPath id="clip0_53_7025">
            <rect width="16" height="16" fill="white" />
        </clipPath>
    </defs>
</svg>
