<svg width="16" height="16" viewBox="0 0 16 16" fill="none" xmlns="http://www.w3.org/2000/svg">
    <g clip-path="url(#clip0_53_7935)">
        <path
            d="M10.2306 0.75H5.76942C5.2179 0.749991 4.75892 0.749983 4.38428 0.780592C3.99397 0.812482 3.6296 0.881296 3.28565 1.05655C2.75645 1.32619 2.32619 1.75645 2.05654 2.28565C1.88129 2.6296 1.81248 2.99397 1.78059 3.38428C1.74998 3.75893 1.74999 4.21787 1.75 4.76941V7.25H1C0.585786 7.25 0.25 7.58579 0.25 8C0.25 8.41422 0.585786 8.75 1 8.75H15C15.4142 8.75 15.75 8.41422 15.75 8C15.75 7.58579 15.4142 7.25 15 7.25H14.25V4.7694C14.25 4.21787 14.25 3.75893 14.2194 3.38428C14.1875 2.99397 14.1187 2.6296 13.9435 2.28565C13.6738 1.75645 13.2436 1.32619 12.7143 1.05655C12.3704 0.881296 12.006 0.812482 11.6157 0.780592C11.2411 0.749983 10.7821 0.749991 10.2306 0.75Z"
            fill="#303233" />
        <path
            d="M2.5 12.5C2.91421 12.5 3.25 12.8358 3.25 13.25C3.25 13.5261 3.47386 13.75 3.75 13.75C4.16421 13.75 4.5 14.0858 4.5 14.5C4.5 14.9142 4.16421 15.25 3.75 15.25C2.64543 15.25 1.75 14.3546 1.75 13.25C1.75 12.8358 2.08579 12.5 2.5 12.5Z"
            fill="#303233" />
        <path
            d="M13.5 12.5C13.9142 12.5 14.25 12.8358 14.25 13.25C14.25 14.3546 13.3546 15.25 12.25 15.25C11.8358 15.25 11.5 14.9142 11.5 14.5C11.5 14.0858 11.8358 13.75 12.25 13.75C12.5261 13.75 12.75 13.5261 12.75 13.25C12.75 12.8358 13.0858 12.5 13.5 12.5Z"
            fill="#303233" />
        <path
            d="M3.25 10.75C3.25 10.3358 2.91421 10 2.5 10C2.08579 10 1.75 10.3358 1.75 10.75C1.75 11.1642 2.08579 11.5 2.5 11.5C2.91421 11.5 3.25 11.1642 3.25 10.75Z"
            fill="#303233" />
        <path
            d="M13.5 10C13.9142 10 14.25 10.3358 14.25 10.75C14.25 11.1642 13.9142 11.5 13.5 11.5C13.0858 11.5 12.75 11.1642 12.75 10.75C12.75 10.3358 13.0858 10 13.5 10Z"
            fill="#303233" />
        <path
            d="M6.75 13.75C6.33579 13.75 6 14.0858 6 14.5C6 14.9142 6.33579 15.25 6.75 15.25H9.25C9.66421 15.25 10 14.9142 10 14.5C10 14.0858 9.66421 13.75 9.25 13.75H6.75Z"
            fill="#303233" />
    </g>
    <defs>
        <clipPath id="clip0_53_7935">
            <rect width="16" height="16" fill="white" />
        </clipPath>
    </defs>
</svg>
