<svg width="24" height="24" viewBox="0 0 24 24" fill="none" xmlns="http://www.w3.org/2000/svg">
    <path
        d="M12.7071 1.29289C12.3166 0.902369 11.6834 0.902369 11.2929 1.29289L8.29289 4.29289C7.90237 4.68342 7.90237 5.31658 8.29289 5.70711C8.68342 6.09763 9.31658 6.09763 9.70711 5.70711L11 4.41421V8C11 8.55228 11.4477 9 12 9C12.5523 9 13 8.55228 13 8V4.41421L14.2929 5.70711C14.6834 6.09763 15.3166 6.09763 15.7071 5.70711C16.0976 5.31658 16.0976 4.68342 15.7071 4.29289L12.7071 1.29289Z"
        fill="#303233" />
    <path
        d="M5.70711 9.70711C6.09763 9.31658 6.09763 8.68342 5.70711 8.29289C5.31658 7.90237 4.68342 7.90237 4.29289 8.29289L1.29289 11.2929C0.902369 11.6834 0.902369 12.3166 1.29289 12.7071L4.29289 15.7071C4.68342 16.0976 5.31658 16.0976 5.70711 15.7071C6.09763 15.3166 6.09763 14.6834 5.70711 14.2929L4.41421 13H8C8.55228 13 9 12.5523 9 12C9 11.4477 8.55228 11 8 11H4.41421L5.70711 9.70711Z"
        fill="#303233" />
    <path
        d="M11 19.5858L9.70711 18.2929C9.31658 17.9024 8.68342 17.9024 8.29289 18.2929C7.90237 18.6834 7.90237 19.3166 8.29289 19.7071L11.2929 22.7071C11.6834 23.0976 12.3166 23.0976 12.7071 22.7071L15.7071 19.7071C16.0976 19.3166 16.0976 18.6834 15.7071 18.2929C15.3166 17.9024 14.6834 17.9024 14.2929 18.2929L13 19.5858V16C13 15.4477 12.5523 15 12 15C11.4477 15 11 15.4477 11 16V19.5858Z"
        fill="#303233" />
    <path
        d="M19.7071 8.29289C19.3166 7.90237 18.6834 7.90237 18.2929 8.29289C17.9024 8.68342 17.9024 9.31658 18.2929 9.70711L19.5858 11H16C15.4477 11 15 11.4477 15 12C15 12.5523 15.4477 13 16 13H19.5858L18.2929 14.2929C17.9024 14.6834 17.9024 15.3166 18.2929 15.7071C18.6834 16.0976 19.3166 16.0976 19.7071 15.7071L22.7071 12.7071C23.0976 12.3166 23.0976 11.6834 22.7071 11.2929L19.7071 8.29289Z"
        fill="#303233" />
</svg>
