<svg width="16" height="16" viewBox="0 0 16 16" fill="none" xmlns="http://www.w3.org/2000/svg">
    <g clip-path="url(#clip0_53_5696)">
        <path fill-rule="evenodd" clip-rule="evenodd"
            d="M2.94444 2.25C2.76027 2.25 2.58363 2.32316 2.4534 2.4534C2.32316 2.58363 2.25 2.76027 2.25 2.94444V12.6893L3.96967 10.9697C4.11032 10.829 4.30109 10.75 4.5 10.75H13.0556C13.2397 10.75 13.4164 10.6768 13.5466 10.5466C13.6768 10.4164 13.75 10.2397 13.75 10.0556V2.94444C13.75 2.76027 13.6768 2.58363 13.5466 2.4534C13.4164 2.32316 13.2397 2.25 13.0556 2.25H2.94444ZM1.39274 1.39274C1.80428 0.9812 2.36244 0.75 2.94444 0.75H13.0556C13.6376 0.75 14.1957 0.9812 14.6073 1.39274C15.0188 1.80428 15.25 2.36244 15.25 2.94444V10.0556C15.25 10.6376 15.0188 11.1957 14.6073 11.6073C14.1957 12.0188 13.6376 12.25 13.0556 12.25H4.81066L2.03033 15.0303C1.81583 15.2448 1.49324 15.309 1.21299 15.1929C0.932732 15.0768 0.75 14.8033 0.75 14.5V2.94444C0.75 2.36244 0.9812 1.80428 1.39274 1.39274Z"
            fill="#303233" />
    </g>
    <defs>
        <clipPath id="clip0_53_5696">
            <rect width="16" height="16" fill="white" />
        </clipPath>
    </defs>
</svg>
