<svg width="16" height="16" viewBox="0 0 16 16" fill="none" xmlns="http://www.w3.org/2000/svg">
    <g clip-path="url(#clip0_2593_2233)">
        <path fill-rule="evenodd" clip-rule="evenodd"
            d="M4.32934 0.25H11.6707C12.2326 0.24999 12.6995 0.249982 13.0803 0.281102C13.4769 0.313503 13.8459 0.383339 14.1939 0.560632C14.7301 0.833871 15.1661 1.26987 15.4394 1.80613C15.6167 2.15409 15.6865 2.52309 15.7189 2.91965C15.75 3.30056 15.75 3.76738 15.75 4.32937V11.6706C15.75 12.2326 15.75 12.6994 15.7189 13.0803C15.6865 13.4769 15.6167 13.8459 15.4394 14.1939C15.1661 14.7301 14.7301 15.1661 14.1939 15.4394C13.8459 15.6167 13.4769 15.6865 13.0803 15.7189C12.6994 15.75 12.2326 15.75 11.6706 15.75H4.32937C3.76738 15.75 3.30056 15.75 2.91965 15.7189C2.52309 15.6865 2.15409 15.6167 1.80613 15.4394C1.26987 15.1661 0.833871 14.7301 0.560632 14.1939C0.383339 13.8459 0.313503 13.4769 0.281102 13.0803C0.249982 12.6995 0.24999 12.2326 0.25 11.6707V4.32934C0.24999 3.76736 0.249982 3.30055 0.281102 2.91965C0.313503 2.52309 0.383339 2.15409 0.560632 1.80613C0.833871 1.26987 1.26987 0.833871 1.80613 0.560632C2.15409 0.383339 2.52309 0.313503 2.91965 0.281102C3.30055 0.249982 3.76736 0.24999 4.32934 0.25ZM1.75 5.25V7.25H3.75V5.25H1.75ZM3.75 3.75H1.75163C1.75411 3.46263 1.76037 3.23459 1.77612 3.0418C1.80094 2.738 1.84555 2.58837 1.89714 2.48711C2.02657 2.23309 2.23309 2.02657 2.48711 1.89714C2.58837 1.84555 2.738 1.80094 3.0418 1.77612C3.23459 1.76037 3.46263 1.75411 3.75 1.75163V3.75ZM5.25 7.25H10.75V1.75H5.25V7.25ZM12.25 1.75163V3.75H14.2484C14.2459 3.46263 14.2396 3.23459 14.2239 3.0418C14.1991 2.738 14.1545 2.58837 14.1029 2.48711C13.9734 2.2331 13.7669 2.02657 13.5129 1.89714C13.4116 1.84555 13.262 1.80094 12.9582 1.77612C12.7654 1.76037 12.5374 1.75411 12.25 1.75163ZM14.25 5.25H12.25V7.25H14.25V5.25ZM14.25 8.75H12.25V10.75H14.25V8.75ZM14.2484 12.25H12.25V14.2484C12.5374 14.2459 12.7654 14.2396 12.9582 14.2239C13.262 14.1991 13.4116 14.1545 13.5129 14.1029C13.7669 13.9734 13.9734 13.7669 14.1029 13.5129C14.1545 13.4116 14.1991 13.262 14.2239 12.9582C14.2396 12.7654 14.2459 12.5374 14.2484 12.25ZM10.75 14.25V8.75H5.25V14.25H10.75ZM3.75 14.2484V12.25H1.75163C1.75411 12.5374 1.76037 12.7654 1.77612 12.9582C1.80094 13.262 1.84555 13.4116 1.89714 13.5129C2.02657 13.7669 2.2331 13.9734 2.48711 14.1029C2.58837 14.1545 2.738 14.1991 3.0418 14.2239C3.23459 14.2396 3.46263 14.2459 3.75 14.2484ZM1.75 10.75H3.75V8.75H1.75V10.75Z"
            fill="#303233" />
    </g>
    <defs>
        <clipPath id="clip0_2593_2233">
            <rect width="16" height="16" fill="white" />
        </clipPath>
    </defs>
</svg>
