<svg width="24" height="24" viewBox="0 0 24 24" fill="none" xmlns="http://www.w3.org/2000/svg">
    <path
        d="M20 1.12868C19.2385 1.12868 18.5082 1.43119 17.9697 1.96967L8.46969 11.4697C8.37357 11.5658 8.30538 11.6862 8.27241 11.8181L7.27241 15.8181C7.20851 16.0737 7.2834 16.344 7.46969 16.5303C7.65597 16.7166 7.92634 16.7915 8.18192 16.7276L12.1819 15.7276C12.3138 15.6946 12.4342 15.6264 12.5303 15.5303L22.0303 6.03033C22.5688 5.49185 22.8713 4.76152 22.8713 4C22.8713 3.23848 22.5688 2.50814 22.0303 1.96967C21.4919 1.43119 20.7615 1.12868 20 1.12868Z"
        fill="#303233" />
    <path
        d="M4 3.25C3.27065 3.25 2.57118 3.53973 2.05546 4.05546C1.53973 4.57118 1.25 5.27065 1.25 6V20C1.25 20.7293 1.53973 21.4288 2.05546 21.9445C2.57118 22.4603 3.27065 22.75 4 22.75H18C18.7293 22.75 19.4288 22.4603 19.9445 21.9445C20.4603 21.4288 20.75 20.7293 20.75 20V13C20.75 12.5858 20.4142 12.25 20 12.25C19.5858 12.25 19.25 12.5858 19.25 13V20C19.25 20.3315 19.1183 20.6495 18.8839 20.8839C18.6495 21.1183 18.3315 21.25 18 21.25H4C3.66848 21.25 3.35054 21.1183 3.11612 20.8839C2.8817 20.6495 2.75 20.3315 2.75 20V6C2.75 5.66848 2.8817 5.35054 3.11612 5.11612C3.35054 4.8817 3.66848 4.75 4 4.75H11C11.4142 4.75 11.75 4.41421 11.75 4C11.75 3.58579 11.4142 3.25 11 3.25H4Z"
        fill="#303233" />
</svg>
