<svg width="24" height="24" viewBox="0 0 24 24" fill="none" xmlns="http://www.w3.org/2000/svg">
    <path fill-rule="evenodd" clip-rule="evenodd"
        d="M10.2929 0.892894C10.6834 0.502369 11.3166 0.502369 11.7071 0.892894L13.7071 2.89289C14.0976 3.28342 14.0976 3.91658 13.7071 4.30711L11.7071 6.30711C11.3166 6.69763 10.6834 6.69763 10.2929 6.30711C9.90237 5.91658 9.90237 5.28342 10.2929 4.89289L10.5447 4.6411C7.09909 5.31863 4.5 8.35579 4.5 12C4.5 14.4924 5.71475 16.701 7.58885 18.0664C8.03523 18.3916 8.13345 19.0171 7.80824 19.4635C7.48302 19.9098 6.85752 20.0081 6.41114 19.6828C4.04258 17.9572 2.5 15.1587 2.5 12C2.5 7.2325 6.01184 3.28522 10.5897 2.60396L10.2929 2.30711C9.90237 1.91658 9.90237 1.28342 10.2929 0.892894ZM16.1918 4.53654C16.517 4.09017 17.1425 3.99194 17.5889 4.31716C19.9574 6.04281 21.5 8.84131 21.5 12C21.5 16.7675 17.9882 20.7148 13.4103 21.396L13.7071 21.6929C14.0976 22.0834 14.0976 22.7166 13.7071 23.1071C13.3166 23.4976 12.6834 23.4976 12.2929 23.1071L10.2929 21.1071C9.90237 20.7166 9.90237 20.0834 10.2929 19.6929L12.2929 17.6929C12.6834 17.3024 13.3166 17.3024 13.7071 17.6929C14.0976 18.0834 14.0976 18.7166 13.7071 19.1071L13.4553 19.3589C16.9009 18.6814 19.5 15.6442 19.5 12C19.5 9.50761 18.2853 7.29905 16.4111 5.93364C15.9648 5.60842 15.8665 4.98292 16.1918 4.53654Z"
        fill="#303233" />
</svg>
