<svg width="16" height="16" viewBox="0 0 16 16" fill="none" xmlns="http://www.w3.org/2000/svg">
    <g clip-path="url(#clip0_2978_25)">
        <path fill-rule="evenodd" clip-rule="evenodd"
            d="M4.68904 0.75H11.311C11.8541 0.74999 12.3075 0.749981 12.6776 0.780721C13.0638 0.812789 13.426 0.882149 13.7677 1.05961C14.2699 1.32052 14.6795 1.73005 14.9404 2.23232C15.1179 2.57396 15.1872 2.93625 15.2193 3.32239C15.25 3.69255 15.25 4.1459 15.25 4.68904V11.311C15.25 11.8541 15.25 12.3075 15.2193 12.6776C15.1872 13.0638 15.1179 13.426 14.9404 13.7677C14.6795 14.2699 14.2699 14.6795 13.7677 14.9404C13.426 15.1179 13.0638 15.1872 12.6776 15.2193C12.3075 15.25 11.8541 15.25 11.311 15.25H4.68904C4.1459 15.25 3.69255 15.25 3.32239 15.2193C2.93625 15.1872 2.57396 15.1179 2.23232 14.9404C1.73005 14.6795 1.32052 14.2699 1.05961 13.7677C0.882149 13.426 0.812789 13.0638 0.780721 12.6776C0.749981 12.3075 0.74999 11.8541 0.75 11.311V4.68904C0.74999 4.1459 0.749981 3.69255 0.780721 3.32239C0.812789 2.93625 0.882149 2.57396 1.05961 2.23232C1.32052 1.73005 1.73005 1.32052 2.23232 1.05961C2.57396 0.882149 2.93625 0.812789 3.32239 0.780721C3.69255 0.749981 4.1459 0.74999 4.68904 0.75ZM3.44653 2.27557C3.15482 2.2998 3.01563 2.34303 2.92378 2.39073C2.69548 2.50933 2.50933 2.69548 2.39073 2.92378C2.34303 3.01563 2.2998 3.15482 2.27557 3.44653C2.2506 3.74722 2.25 4.13792 2.25 4.72V7.25H7.25V2.25H4.72C4.13792 2.25 3.74722 2.2506 3.44653 2.27557ZM8.75 2.25V7.25H13.75V4.72C13.75 4.13792 13.7494 3.74722 13.7244 3.44653C13.7002 3.15482 13.657 3.01563 13.6093 2.92378C13.4907 2.69548 13.3045 2.50933 13.0762 2.39073C12.9844 2.34303 12.8452 2.2998 12.5535 2.27557C12.2528 2.2506 11.8621 2.25 11.28 2.25H8.75ZM7.25 8.75H2.25V11.28C2.25 11.8621 2.2506 12.2528 2.27557 12.5535C2.2998 12.8452 2.34303 12.9844 2.39073 13.0762C2.50933 13.3045 2.69548 13.4907 2.92378 13.6093C3.01563 13.657 3.15482 13.7002 3.44653 13.7244C3.74722 13.7494 4.13792 13.75 4.72 13.75H7.25V8.75ZM8.75 13.75V8.75H13.75V11.28C13.75 11.8621 13.7494 12.2528 13.7244 12.5535C13.7002 12.8452 13.657 12.9844 13.6093 13.0762C13.4907 13.3045 13.3045 13.4907 13.0762 13.6093C12.9844 13.657 12.8452 13.7002 12.5535 13.7244C12.2528 13.7494 11.8621 13.75 11.28 13.75H8.75Z"
            fill="#303233" />
    </g>
    <defs>
        <clipPath id="clip0_2978_25">
            <rect width="16" height="16" fill="white" />
        </clipPath>
    </defs>
</svg>
