<svg width="24" height="24" viewBox="0 0 24 24" fill="none" xmlns="http://www.w3.org/2000/svg">
    <path fill-rule="evenodd" clip-rule="evenodd"
        d="M22.75 6.01328V18C22.75 19.5142 21.5142 20.75 20 20.75H4C2.48579 20.75 1.25 19.5142 1.25 18V6C1.25 4.48579 2.48579 3.25 4 3.25H20C21.5085 3.25 22.7406 4.47643 22.7499 5.98279C22.7502 5.99296 22.7502 6.00312 22.75 6.01328ZM2.80177 5.6457C2.95604 5.13018 3.43706 4.75 4 4.75H20C20.563 4.75 21.044 5.13021 21.1983 5.64578L12.0001 12.0845L2.80177 5.6457ZM2.75 7.44045V18C2.75 18.6858 3.31421 19.25 4 19.25H20C20.6858 19.25 21.25 18.6858 21.25 18V7.44054L12.4302 13.6144C12.1719 13.7952 11.8282 13.7952 11.57 13.6144L2.75 7.44045Z"
        fill="#303233" />
</svg>
