<svg width="24" height="24" viewBox="0 0 24 24" fill="none" xmlns="http://www.w3.org/2000/svg">
    <path
        d="M8.75 9.5C8.75 8.5335 9.5335 7.75 10.5 7.75H11.25V11.25H10.5C9.5335 11.25 8.75 10.4665 8.75 9.5Z"
        fill="#303233" />
    <path
        d="M12.75 16.25V12.75H13.9998C14.9663 12.75 15.7498 13.5335 15.7498 14.5C15.7498 15.4665 14.9663 16.25 13.9998 16.25H12.75Z"
        fill="#303233" />
    <path fill-rule="evenodd" clip-rule="evenodd"
        d="M12 1.25C6.06294 1.25 1.25 6.06294 1.25 12C1.25 17.9371 6.06294 22.75 12 22.75C17.9371 22.75 22.75 17.9371 22.75 12C22.75 6.06294 17.9371 1.25 12 1.25ZM10.5 6.25H11.25V5C11.25 4.58579 11.5858 4.25 12 4.25C12.4142 4.25 12.75 4.58579 12.75 5V6.25H15.5C15.9142 6.25 16.25 6.58579 16.25 7C16.25 7.41421 15.9142 7.75 15.5 7.75H12.75V11.25H13.9998C15.7948 11.25 17.2498 12.7051 17.2498 14.5C17.2498 16.2949 15.7948 17.75 13.9998 17.75H12.75V19C12.75 19.4142 12.4142 19.75 12 19.75C11.5858 19.75 11.25 19.4142 11.25 19V17.75H8C7.58579 17.75 7.25 17.4142 7.25 17C7.25 16.5858 7.58579 16.25 8 16.25H11.25V12.75H10.5C8.70508 12.75 7.25 11.2949 7.25 9.5C7.25 7.70507 8.70507 6.25 10.5 6.25Z"
        fill="#303233" />
</svg>
