<svg width="16" height="16" viewBox="0 0 16 16" fill="none" xmlns="http://www.w3.org/2000/svg">
    <path fill-rule="evenodd" clip-rule="evenodd"
        d="M4 6C4 4.89543 4.89543 4 6 4C7.10457 4 8 4.89543 8 6C8 7.10457 7.10457 8 6 8C4.89543 8 4 7.10457 4 6ZM6 5C5.44772 5 5 5.44772 5 6C5 6.55228 5.44772 7 6 7C6.55228 7 7 6.55228 7 6C7 5.44772 6.55228 5 6 5Z"
        fill="#303233" />
    <path fill-rule="evenodd" clip-rule="evenodd"
        d="M8 1C4.13401 1 1 4.13401 1 8C1 11.866 4.13401 15 8 15C11.866 15 15 11.866 15 8C15 4.13401 11.866 1 8 1ZM2 8C2 4.68629 4.68629 2 8 2C11.3137 2 14 4.68629 14 8C14 8.40304 13.9603 8.79679 13.8845 9.17756L11.537 6.83005C11.0576 6.35071 10.2836 6.34079 9.79214 6.80769L3.9131 12.3929C2.73615 11.2974 2 9.73469 2 8ZM4.708 13.0171C5.65312 13.6385 6.78434 14 8 14C10.5123 14 12.6639 12.4559 13.5578 10.265L10.8299 7.53715C10.734 7.44129 10.5792 7.4393 10.4809 7.53268L4.708 13.0171Z"
        fill="#303233" />
</svg>
