<svg width="24" height="24" viewBox="0 0 24 24" fill="none" xmlns="http://www.w3.org/2000/svg">
    <path fill-rule="evenodd" clip-rule="evenodd"
        d="M19.3929 4.05056C19.1457 4.07007 18.8226 4.12324 18.3287 4.20556L11.1287 5.40556C10.7614 5.46679 10.5269 5.50638 10.3492 5.54996C10.1808 5.59131 10.1177 5.62425 10.0847 5.64617C9.96688 5.72453 9.87362 5.83461 9.8157 5.96371C9.7995 5.99983 9.77737 6.06748 9.76429 6.24046C9.7505 6.42284 9.75 6.66068 9.75 7.03311V18L9.75 18.0014C9.74927 20.0718 8.07062 21.75 6 21.75C3.92893 21.75 2.25 20.0711 2.25 18C2.25 15.9289 3.92893 14.25 6 14.25C6.8442 14.25 7.62326 14.529 8.25 14.9997L8.25 7.0071C8.24999 6.66816 8.24998 6.37307 8.26856 6.12734C8.28833 5.86594 8.33191 5.60655 8.44711 5.34975C8.62086 4.96245 8.90062 4.63219 9.2541 4.39713C9.48846 4.24128 9.73716 4.15566 9.99175 4.09318C10.2311 4.03445 10.5222 3.98595 10.8565 3.93024L18.1134 2.72076C18.5675 2.64507 18.9551 2.58045 19.2749 2.55521C19.609 2.52884 19.9485 2.53708 20.2834 2.66149C20.7766 2.84466 21.19 3.19485 21.4517 3.65118C21.6295 3.96112 21.6934 4.29458 21.7223 4.6285C21.75 4.94812 21.75 5.34108 21.75 5.80141V16C21.75 18.0711 20.0711 19.75 18 19.75C15.9289 19.75 14.25 18.0711 14.25 16C14.25 13.9289 15.9289 12.25 18 12.25C18.8442 12.25 19.6233 12.529 20.25 12.9997V5.83311C20.25 5.3324 20.2493 5.00503 20.2279 4.75793C20.2071 4.51782 20.1716 4.43426 20.1506 4.39752C20.0633 4.24541 19.9255 4.12868 19.7611 4.06762C19.7214 4.05288 19.6332 4.0316 19.3929 4.05056ZM20.25 16C20.25 14.7574 19.2426 13.75 18 13.75C16.7574 13.75 15.75 14.7574 15.75 16C15.75 17.2426 16.7574 18.25 18 18.25C19.2426 18.25 20.25 17.2426 20.25 16ZM6 15.75C7.24264 15.75 8.25 16.7574 8.25 18C8.25 19.2426 7.24264 20.25 6 20.25C4.75736 20.25 3.75 19.2426 3.75 18C3.75 16.7574 4.75736 15.75 6 15.75Z"
        fill="#303233" />
</svg>
