<svg width="16" height="16" viewBox="0 0 16 16" fill="none" xmlns="http://www.w3.org/2000/svg">
    <path
        d="M1 4.00001C0.999992 2.89544 1.89543 2 3 2H6.79318C7.24589 2 7.68006 2.17986 8.00015 2.5C8.32024 2.82014 8.75441 3 9.20712 3H13.0001C14.1046 3 15.0001 3.89543 15.0001 5V12C15.0001 13.1046 14.1046 14 13.0001 14H7.5V9.5C7.5 8.39543 6.60457 7.5 5.5 7.5H1.00002L1 4.00001Z"
        fill="#303233" />
    <path
        d="M6.35567 8.64857C6.40256 8.69602 6.43802 8.75051 6.46206 8.80861C6.48697 8.8688 6.49961 8.93287 6.49999 8.997L6.5 9.00035V13.5C6.5 13.7761 6.27614 14 6 14C5.72386 14 5.5 13.7761 5.5 13.5V10.2071L1.85355 13.8536C1.65829 14.0488 1.34171 14.0488 1.14645 13.8536C0.951184 13.6583 0.951184 13.3417 1.14645 13.1464L4.79289 9.5H1.5C1.22386 9.5 1 9.27614 1 9C1 8.72386 1.22386 8.5 1.5 8.5H5.99991C6.13691 8.5 6.26112 8.55509 6.35143 8.64433L6.35567 8.64857Z"
        fill="#303233" />
</svg>
