<svg width="16" height="16" viewBox="0 0 16 16" fill="none" xmlns="http://www.w3.org/2000/svg">
    <path
        d="M3.93414 3.93033C4.22703 3.63744 4.22703 3.16256 3.93414 2.86967C3.64124 2.57678 3.16637 2.57678 2.87348 2.86967C0.0421748 5.70097 0.0421748 10.2914 2.87348 13.1227C3.16637 13.4156 3.64124 13.4156 3.93414 13.1227C4.22703 12.8298 4.22703 12.355 3.93414 12.0621C1.68862 9.81655 1.68862 6.17585 3.93414 3.93033Z"
        fill="#303233" />
    <path
        d="M13.1265 2.8697C12.8336 2.57681 12.3588 2.57681 12.0659 2.8697C11.773 3.16259 11.773 3.63747 12.0659 3.93036C14.3114 6.17588 14.3114 9.81658 12.0659 12.0621C11.773 12.355 11.773 12.8299 12.0659 13.1228C12.3588 13.4156 12.8336 13.4156 13.1265 13.1228C15.9578 10.2914 15.9578 5.701 13.1265 2.8697Z"
        fill="#303233" />
    <path
        d="M5.77261 5.76879C6.06551 5.47589 6.06551 5.00102 5.77261 4.70813C5.47972 4.41523 5.00485 4.41523 4.71195 4.70813C2.89602 6.52406 2.89602 9.46828 4.71195 11.2842C5.00485 11.5771 5.47972 11.5771 5.77261 11.2842C6.06551 10.9913 6.06551 10.5165 5.77261 10.2236C4.54246 8.99341 4.54246 6.99894 5.77261 5.76879Z"
        fill="#303233" />
    <path
        d="M11.288 4.70815C10.9952 4.41526 10.5203 4.41526 10.2274 4.70815C9.93449 5.00104 9.93449 5.47592 10.2274 5.76881C11.4575 6.99896 11.4575 8.99343 10.2274 10.2236C9.93449 10.5165 9.93449 10.9913 10.2274 11.2842C10.5203 11.5771 10.9952 11.5771 11.288 11.2842C13.104 9.4683 13.104 6.52409 11.288 4.70815Z"
        fill="#303233" />
    <path fill-rule="evenodd" clip-rule="evenodd"
        d="M8.00476 6.36835C7.92008 6.31386 7.81841 6.24844 7.72638 6.20053C7.63388 6.15239 7.434 6.05628 7.17877 6.07451C6.88944 6.09518 6.62334 6.24046 6.4495 6.47266C6.29614 6.6775 6.2689 6.8976 6.25938 7.00144C6.24991 7.10476 6.24996 7.22565 6.25001 7.32635V8.90175C6.24996 9.00245 6.24991 9.12335 6.25938 9.22667C6.2689 9.33051 6.29614 9.55061 6.4495 9.75545C6.62334 9.98765 6.88944 10.1329 7.17877 10.1536C7.434 10.1718 7.63388 10.0757 7.72638 10.0276C7.81841 9.97968 7.92007 9.91426 8.00475 9.85976L9.231 9.07147C9.30378 9.02473 9.39567 8.96573 9.4709 8.90706C9.55186 8.84392 9.70233 8.71592 9.79218 8.50327C9.89732 8.25445 9.89732 7.97367 9.79218 7.72484C9.70233 7.51219 9.55186 7.38419 9.4709 7.32105C9.39567 7.26238 9.30378 7.20338 9.231 7.15665L8.00476 6.36835ZM7.75001 8.24031V7.9878L7.9464 8.11406L7.75001 8.24031Z"
        fill="#303233" />
</svg>
