<svg width="16" height="16" viewBox="0 0 16 16" fill="none" xmlns="http://www.w3.org/2000/svg">
    <g clip-path="url(#clip0_53_6606)">
        <path
            d="M11.5303 0.46967C11.2374 0.176777 10.7626 0.176777 10.4697 0.46967C10.1768 0.762563 10.1768 1.23744 10.4697 1.53033L11.9393 3L10.4697 4.46967C10.1768 4.76256 10.1768 5.23744 10.4697 5.53033C10.7626 5.82322 11.2374 5.82322 11.5303 5.53033L13 4.06066L14.4697 5.53033C14.7626 5.82322 15.2374 5.82322 15.5303 5.53033C15.8232 5.23744 15.8232 4.76256 15.5303 4.46967L14.0607 3L15.5303 1.53033C15.8232 1.23744 15.8232 0.762563 15.5303 0.46967C15.2374 0.176777 14.7626 0.176777 14.4697 0.46967L13 1.93934L11.5303 0.46967Z"
            fill="#303233" />
        <path
            d="M0.75 3.25C0.75 1.86929 1.86929 0.75 3.25 0.75H8C8.41421 0.75 8.75 1.08579 8.75 1.5C8.75 1.91421 8.41421 2.25 8 2.25H3.25C2.69772 2.25 2.25 2.69772 2.25 3.25V12.75C2.25 13.0107 2.34977 13.2481 2.51321 13.4261L9.26256 6.67678C9.94598 5.99336 11.054 5.99336 11.7374 6.67678L14.7374 9.67678C15.0656 10.005 15.25 10.4501 15.25 10.9142V12.75C15.25 14.1307 14.1307 15.25 12.75 15.25H3.25C1.86929 15.25 0.75 14.1307 0.75 12.75V3.25Z"
            fill="#303233" />
        <path
            d="M3.75 6C3.75 4.75736 4.75736 3.75 6 3.75C7.24264 3.75 8.25 4.75736 8.25 6C8.25 7.24264 7.24264 8.25 6 8.25C4.75736 8.25 3.75 7.24264 3.75 6Z"
            fill="#303233" />
    </g>
    <defs>
        <clipPath id="clip0_53_6606">
            <rect width="16" height="16" fill="white" />
        </clipPath>
    </defs>
</svg>
