<svg width="24" height="24" viewBox="0 0 24 24" fill="none" xmlns="http://www.w3.org/2000/svg">
    <path
        d="M12 1C10.5894 1 9.22283 1.42574 8.07192 2.20599C7.82494 2.37343 7.66564 2.6424 7.63751 2.93945C7.60939 3.2365 7.71538 3.53059 7.92654 3.7414L17.9419 13.7401C18.2654 14.0631 18.7668 14.1256 19.1597 13.8918C19.5526 13.6581 19.7369 13.1877 19.6075 12.7493C19.259 11.5687 19 10.0145 19 8C19 6.14348 18.2625 4.36301 16.9497 3.05025C15.637 1.7375 13.8565 1 12 1Z"
        fill="#303233" />
    <path
        d="M3.70711 2.29289C3.31658 1.90237 2.68342 1.90237 2.29289 2.29289C1.90237 2.68342 1.90237 3.31658 2.29289 3.70711L5.14901 6.56323C5.05064 7.03225 5 7.51354 5 8C5 10.9127 4.26799 12.8439 3.50062 14.0771L3.48878 14.0961C3.13148 14.6703 2.84901 15.1243 2.65859 15.4547C2.56317 15.6202 2.47624 15.7797 2.41187 15.9215C2.37975 15.9922 2.3438 16.079 2.31571 16.1733C2.29241 16.2515 2.24801 16.4187 2.26465 16.6223C2.27584 16.7591 2.30374 16.9928 2.43789 17.2343C2.57204 17.4758 2.75576 17.623 2.86601 17.7047C3.1163 17.8904 3.40373 17.9329 3.49966 17.947L3.50409 17.9477C3.6515 17.9695 3.81877 17.9804 3.98753 17.9869C4.32277 18 4.7869 18 5.3641 18H16.5858L20.2929 21.7071C20.6834 22.0976 21.3166 22.0976 21.7071 21.7071C22.0976 21.3166 22.0976 20.6834 21.7071 20.2929L6.9992 5.58498C6.97726 5.56077 6.95408 5.53757 6.92972 5.51551L3.70711 2.29289Z"
        fill="#303233" />
    <path
        d="M10.0159 20.2503C9.60184 19.8848 8.9699 19.9242 8.60444 20.3383C8.23897 20.7523 8.27837 21.3843 8.69244 21.7497C9.57325 22.5272 10.7326 23 12 23C13.2674 23 14.4267 22.5272 15.3076 21.7497C15.7216 21.3843 15.761 20.7523 15.3956 20.3383C15.0301 19.9242 14.3982 19.8848 13.9841 20.2503C13.4546 20.7176 12.7615 21 12 21C11.2385 21 10.5454 20.7176 10.0159 20.2503Z"
        fill="#303233" />
</svg>
