<svg width="16" height="16" viewBox="0 0 16 16" fill="none" xmlns="http://www.w3.org/2000/svg">
    <path
        d="M3.72731 5.775C3.72731 3.69237 5.42434 2 7.52277 2C9.06895 2 10.3989 2.91936 10.9907 4.2384C11.0725 4.42055 11.2547 4.53663 11.4543 4.53367C11.4695 4.53345 11.4847 4.53333 11.5 4.53333C13.1591 4.53333 14.5 5.87127 14.5 7.51667C14.5 9.14077 13.1431 10.4789 11.4937 10.4998C11.2176 10.5032 10.9965 10.7299 11 11.006C11.0035 11.2822 11.2302 11.5032 11.5063 11.4997C13.681 11.4722 15.5 9.70998 15.5 7.51667C15.5 5.40245 13.8473 3.67631 11.7624 3.54178C10.9576 2.02988 9.36082 1 7.52277 1C4.95467 1 2.85462 3.01138 2.73289 5.54264C1.44656 5.89665 0.5 7.07001 0.5 8.46667C0.5 10.1442 1.86593 11.5 3.5456 11.5L4.50015 11.4997C4.77629 11.4996 5.00008 11.2757 5 10.9996C4.99992 10.7234 4.77599 10.4996 4.49985 10.4997L3.54531 10.5C2.41346 10.4999 1.5 9.58732 1.5 8.46667C1.5 7.43108 2.28017 6.57283 3.29181 6.44876C3.55032 6.41706 3.7412 6.19222 3.73053 5.93198C3.72839 5.87995 3.72731 5.82761 3.72731 5.775Z"
        fill="#303233" />
    <path
        d="M8 8.25C8.27614 8.25 8.5 8.47386 8.5 8.75V14.0429L9.64645 12.8964C9.84171 12.7012 10.1583 12.7012 10.3536 12.8964C10.5488 13.0917 10.5488 13.4083 10.3536 13.6036L8.35355 15.6036C8.30562 15.6515 8.25036 15.6877 8.19139 15.7121C8.13331 15.7361 8.0697 15.7496 8.003 15.75L8 15.75L7.997 15.75C7.9303 15.7496 7.86669 15.7361 7.80861 15.7121C7.74964 15.6877 7.69439 15.6515 7.64645 15.6036L5.64645 13.6036C5.45118 13.4083 5.45118 13.0917 5.64645 12.8964C5.84171 12.7012 6.15829 12.7012 6.35355 12.8964L7.5 14.0429V8.75C7.5 8.47386 7.72386 8.25 8 8.25Z"
        fill="#303233" />
</svg>
