<svg width="16" height="16" viewBox="0 0 16 16" fill="none" xmlns="http://www.w3.org/2000/svg">
    <g clip-path="url(#clip0_8578_23)">
        <path
            d="M8 0.25C8.41421 0.25 8.75 0.585786 8.75 1V1.7C8.75 2.11421 8.41421 2.45 8 2.45C7.58579 2.45 7.25 2.11421 7.25 1.7V1C7.25 0.585786 7.58579 0.25 8 0.25Z"
            fill="#303233" />
        <path
            d="M2.4996 2.4996C2.79249 2.20671 3.26737 2.20671 3.56026 2.4996L3.98033 2.91967C4.27322 3.21256 4.27322 3.68744 3.98033 3.98033C3.68744 4.27322 3.21256 4.27322 2.91967 3.98033L2.4996 3.56026C2.20671 3.26737 2.20671 2.79249 2.4996 2.4996Z"
            fill="#303233" />
        <path
            d="M13.5006 2.49967C13.7934 2.7926 13.7934 3.26747 13.5004 3.56033L13.0803 3.9804C12.7873 4.27325 12.3125 4.27319 12.0196 3.98026C11.7267 3.68733 11.7268 3.21246 12.0197 2.9196L12.4399 2.49954C12.7328 2.20668 13.2077 2.20674 13.5006 2.49967Z"
            fill="#303233" />
        <path
            d="M0.25 8C0.25 7.58579 0.585786 7.25 1 7.25H1.7C2.11421 7.25 2.45 7.58579 2.45 8C2.45 8.41421 2.11421 8.75 1.7 8.75H1C0.585786 8.75 0.25 8.41421 0.25 8Z"
            fill="#303233" />
        <path
            d="M13.55 8C13.55 7.58579 13.8858 7.25 14.3 7.25H15C15.4142 7.25 15.75 7.58579 15.75 8C15.75 8.41421 15.4142 8.75 15 8.75H14.3C13.8858 8.75 13.55 8.41421 13.55 8Z"
            fill="#303233" />
        <path fill-rule="evenodd" clip-rule="evenodd"
            d="M3.25 8C3.25 5.37665 5.37665 3.25 8 3.25C10.6234 3.25 12.75 5.37665 12.75 8C12.75 9.80929 11.7384 11.3823 10.25 12.1843V13C10.25 14.2426 9.24264 15.25 8 15.25C6.75736 15.25 5.75 14.2426 5.75 13V12.1843C4.26157 11.3823 3.25 9.80929 3.25 8ZM7.25 12.6911V13C7.25 13.4142 7.58579 13.75 8 13.75C8.41421 13.75 8.75 13.4142 8.75 13V12.6911C8.5057 12.7299 8.2552 12.75 8 12.75C7.7448 12.75 7.4943 12.7299 7.25 12.6911Z"
            fill="#303233" />
    </g>
    <defs>
        <clipPath id="clip0_8578_23">
            <rect width="16" height="16" fill="white" />
        </clipPath>
    </defs>
</svg>
