<svg width="24" height="24" viewBox="0 0 24 24" fill="none" xmlns="http://www.w3.org/2000/svg">
    <path fill-rule="evenodd" clip-rule="evenodd"
        d="M19 1C16.7909 1 15 2.79086 15 5C15 7.20914 16.7909 9 19 9C21.2091 9 23 7.20914 23 5C23 2.79086 21.2091 1 19 1ZM17 5C17 3.89543 17.8954 3 19 3C20.1046 3 21 3.89543 21 5C21 6.10457 20.1046 7 19 7C17.8954 7 17 6.10457 17 5Z"
        fill="#303233" />
    <path
        d="M4.00002 12C4.00002 8.24148 7.46776 5 12 5C12.5523 5 13 4.55228 13 4C13 3.44772 12.5523 3 12 3C6.59115 3 2.00002 6.92196 2.00002 12C2.00002 13.3743 2.34254 14.676 2.95131 15.8378C3.16428 16.2443 3.19413 16.6344 3.0847 16.9262L2.06369 19.6489C1.9362 19.9888 2.003 20.3712 2.23822 20.6478C2.47343 20.9244 2.84009 21.0518 3.19613 20.9806L7.28745 20.1623C7.48919 20.122 7.73023 20.1453 7.98881 20.2473C9.21959 20.7324 10.5771 21 12 21C17.4089 21 22 17.078 22 12C22 11.4477 21.5523 11 21 11C20.4477 11 20 11.4477 20 12C20 15.7585 16.5323 19 12 19C10.8284 19 9.71967 18.7797 8.72218 18.3866C8.17599 18.1713 7.5417 18.0719 6.89522 18.2012L4.56804 18.6666L4.95736 17.6284C5.31548 16.6734 5.12791 15.6826 4.72286 14.9096C4.25735 14.0212 4.00002 13.0366 4.00002 12Z"
        fill="#303233" />
</svg>
