<svg width="16" height="16" viewBox="0 0 16 16" fill="none" xmlns="http://www.w3.org/2000/svg">
    <path
        d="M11.5728 1.36773C11.7758 1.32711 11.9075 1.12955 11.8669 0.926469C11.8263 0.723384 11.6288 0.591677 11.4257 0.632293L11.4207 0.633293C11.2176 0.673909 11.0859 0.871468 11.1265 1.07455C11.1671 1.27764 11.3647 1.40935 11.5678 1.36873L11.5728 1.36773Z"
        fill="#303233" />
    <path fill-rule="evenodd" clip-rule="evenodd"
        d="M5 5C5 3.34315 6.34315 2 8 2C9.65685 2 11 3.34315 11 5C11 6.65685 9.65685 8 8 8C6.34315 8 5 6.65685 5 5ZM8 3C6.89543 3 6 3.89543 6 5C6 6.10457 6.89543 7 8 7C9.10457 7 10 6.10457 10 5C10 3.89543 9.10457 3 8 3Z"
        fill="#303233" />
    <path
        d="M7.99969 10C5.82321 10 4.00661 11.5457 3.58971 13.5995C3.53478 13.8701 3.27086 14.0449 3.00024 13.99C2.72962 13.9351 2.55477 13.6712 2.6097 13.4005C3.11934 10.8899 5.33825 9 7.99969 9C10.6611 9 12.88 10.8899 13.3897 13.4005C13.4446 13.6712 13.2698 13.9351 12.9991 13.99C12.7285 14.0449 12.4646 13.8701 12.4097 13.5995C11.9928 11.5457 10.1762 10 7.99969 10Z"
        fill="#303233" />
    <path
        d="M14.7348 0.734835C14.8813 0.588388 15.1187 0.588388 15.2652 0.734835C15.4116 0.881282 15.4116 1.11872 15.2652 1.26517L12.7652 3.76517C12.6187 3.91161 12.3813 3.91161 12.2348 3.76517C12.0884 3.61872 12.0884 3.38128 12.2348 3.23483L14.7348 0.734835Z"
        fill="#303233" />
    <path
        d="M15.2652 4.76516C15.4116 4.61872 15.4116 4.38128 15.2652 4.23483C15.1187 4.08839 14.8813 4.08839 14.7348 4.23483L12.2348 6.73483C12.0884 6.88128 12.0884 7.11872 12.2348 7.26517C12.3813 7.41161 12.6187 7.41161 12.7652 7.26517L15.2652 4.76516Z"
        fill="#303233" />
    <path
        d="M4.26517 8.23484C4.41161 8.38128 4.41161 8.61872 4.26517 8.76517L1.26517 11.7652C1.11872 11.9116 0.881282 11.9116 0.734835 11.7652C0.588388 11.6187 0.588388 11.3813 0.734835 11.2348L3.73483 8.23484C3.88128 8.08839 4.11872 8.08839 4.26517 8.23484Z"
        fill="#303233" />
    <path
        d="M15.0786 11.8677C15.2817 11.8271 15.4134 11.6296 15.3728 11.4265C15.3322 11.2234 15.1346 11.0917 14.9315 11.1323L14.9265 11.1333C14.7234 11.1739 14.5917 11.3715 14.6324 11.5746C14.673 11.7776 14.8705 11.9093 15.0736 11.8687L15.0786 11.8677Z"
        fill="#303233" />
    <path
        d="M15.2652 8.26516L13.7652 9.76517C13.6187 9.91161 13.3813 9.91161 13.2348 9.76517C13.0884 9.61872 13.0884 9.38128 13.2348 9.23483L14.7348 7.73484C14.8813 7.58839 15.1187 7.58839 15.2652 7.73484C15.4116 7.88128 15.4116 8.11872 15.2652 8.26516Z"
        fill="#303233" />
    <path
        d="M3.76517 5.76516C3.91161 5.61872 3.91161 5.38128 3.76517 5.23484C3.61872 5.08839 3.38128 5.08839 3.23483 5.23484L0.734835 7.73483C0.588388 7.88128 0.588388 8.11872 0.734835 8.26517C0.881282 8.41161 1.11872 8.41161 1.26517 8.26517L3.76517 5.76516Z"
        fill="#303233" />
    <path
        d="M4.76516 0.734835C4.91161 0.881282 4.91161 1.11872 4.76516 1.26517L1.26517 4.76516C1.11872 4.91161 0.881282 4.91161 0.734835 4.76516C0.588388 4.61872 0.588388 4.38128 0.734835 4.23483L4.23483 0.734835C4.38128 0.588388 4.61872 0.588388 4.76516 0.734835Z"
        fill="#303233" />
    <path
        d="M1.375 1C1.375 0.792893 1.20711 0.625 1 0.625C0.792893 0.625 0.625 0.792893 0.625 1C0.625 1.20711 0.792893 1.376 1 1.376C1.20711 1.376 1.375 1.20711 1.375 1Z"
        fill="#303233" />
</svg>
