<svg width="16" height="16" viewBox="0 0 16 16" fill="none" xmlns="http://www.w3.org/2000/svg">
    <path fill-rule="evenodd" clip-rule="evenodd"
        d="M13 0.5C11.4812 0.5 10.25 1.73122 10.25 3.25C10.25 4.76878 11.4812 6 13 6C14.5188 6 15.75 4.76878 15.75 3.25C15.75 1.73122 14.5188 0.5 13 0.5ZM11.75 3.25C11.75 2.55964 12.3096 2 13 2C13.6904 2 14.25 2.55964 14.25 3.25C14.25 3.94036 13.6904 4.5 13 4.5C12.3096 4.5 11.75 3.94036 11.75 3.25Z"
        fill="#303233" />
    <path
        d="M2.25001 8C2.25001 5.48921 4.70204 3.25 8.00001 3.25C8.41422 3.25 8.75001 2.91421 8.75001 2.5C8.75001 2.08579 8.41422 1.75 8.00001 1.75C4.11827 1.75 0.750009 4.43566 0.750009 8C0.750009 9.04051 1.04471 10.0188 1.55915 10.8751C1.64171 11.0125 1.63933 11.1323 1.61183 11.201L0.803652 13.2215C0.702307 13.4748 0.74657 13.7633 0.919229 13.9746C1.09189 14.1859 1.36569 14.2867 1.63417 14.2379L4.8033 13.6617C4.84771 13.6536 4.9095 13.6569 4.98298 13.6859C5.90426 14.0491 6.92673 14.25 8.00001 14.25C11.8817 14.25 15.25 11.5643 15.25 8C15.25 7.58579 14.9142 7.25 14.5 7.25C14.0858 7.25 13.75 7.58579 13.75 8C13.75 10.5108 11.298 12.75 8.00001 12.75C7.11384 12.75 6.2781 12.5841 5.53313 12.2904C5.23202 12.1717 4.88671 12.122 4.53497 12.1859L2.69997 12.5195L3.00454 11.7581C3.23704 11.1769 3.12293 10.5654 2.84497 10.1027C2.46148 9.4643 2.25001 8.75105 2.25001 8Z"
        fill="#303233" />
</svg>
