<svg width="24" height="24" viewBox="0 0 24 24" fill="none" xmlns="http://www.w3.org/2000/svg">
    <path
        d="M20 2C20 1.44772 19.5523 1 19 1C18.4477 1 18 1.44772 18 2V4H16C15.4477 4 15 4.44772 15 5C15 5.55228 15.4477 6 16 6H18V8C18 8.55228 18.4477 9 19 9C19.5523 9 20 8.55228 20 8V6H22C22.5523 6 23 5.55228 23 5C23 4.44772 22.5523 4 22 4H20V2Z"
        fill="#303233" />
    <path
        d="M12.5 2H8.35719C7.27341 1.99999 6.39926 1.99998 5.69138 2.05782C4.96253 2.11737 4.32234 2.24318 3.73005 2.54497C2.78924 3.02433 2.02434 3.78924 1.54497 4.73005C1.24318 5.32234 1.11737 5.96253 1.05782 6.69138C0.999983 7.39925 0.999991 8.2734 1 9.35718V14.6428C0.999991 15.7266 0.999983 16.6007 1.05782 17.3086C1.11737 18.0375 1.24318 18.6777 1.54497 19.27C2.02434 20.2108 2.78924 20.9757 3.73005 21.455C4.32234 21.7568 4.96253 21.8826 5.69138 21.9422C6.39923 22 7.27334 22 8.35707 22H15.6428C16.7266 22 17.6008 22 18.3086 21.9422C19.0375 21.8826 19.6777 21.7568 20.27 21.455C21.2108 20.9757 21.9757 20.2108 22.455 19.27C22.7568 18.6777 22.8826 18.0375 22.9422 17.3086C23 16.6008 23 15.7267 23 14.6429V11.5C23 10.9477 22.5523 10.5 22 10.5C21.4477 10.5 21 10.9477 21 11.5V14.6C21 15.7366 20.9992 16.5289 20.9488 17.1458C20.8994 17.7509 20.8072 18.0986 20.673 18.362C20.3854 18.9265 19.9265 19.3854 19.362 19.673C19.0986 19.8072 18.7509 19.8994 18.1458 19.9488C17.5289 19.9992 16.7366 20 15.6 20H8.4C7.26339 20 6.47108 19.9992 5.85424 19.9488C5.24907 19.8994 4.90138 19.8072 4.63803 19.673C4.07354 19.3854 3.6146 18.9265 3.32698 18.362C3.1928 18.0986 3.10062 17.7509 3.05118 17.1458C3.00078 16.5289 3 15.7366 3 14.6V9.4C3 8.26339 3.00078 7.47108 3.05118 6.85424C3.10062 6.24907 3.1928 5.90138 3.32698 5.63803C3.6146 5.07354 4.07354 4.6146 4.63803 4.32698C4.90138 4.19279 5.24907 4.10062 5.85424 4.05118C6.47108 4.00078 7.2634 4 8.4 4H12.5C13.0523 4 13.5 3.55228 13.5 3C13.5 2.44772 13.0523 2 12.5 2Z"
        fill="#303233" />
    <path fill-rule="evenodd" clip-rule="evenodd"
        d="M12 7C9.23858 7 7 9.23858 7 12C7 14.7614 9.23858 17 12 17C14.7614 17 17 14.7614 17 12C17 9.23858 14.7614 7 12 7ZM9 12C9 10.3431 10.3431 9 12 9C13.6569 9 15 10.3431 15 12C15 13.6569 13.6569 15 12 15C10.3431 15 9 13.6569 9 12Z"
        fill="#303233" />
</svg>
