<svg width="24" height="24" viewBox="0 0 24 24" fill="none" xmlns="http://www.w3.org/2000/svg">
    <path fill-rule="evenodd" clip-rule="evenodd"
        d="M17.5126 2.99924C13.9584 1.66639 10.0416 1.66639 6.48736 2.99924L4.94663 3.57701C3.77572 4.0161 3 5.13546 3 6.386V12C3 14.9647 4.69041 17.413 6.44951 19.1698C8.22373 20.9418 10.2032 22.1474 11.0745 22.6369C11.6531 22.962 12.3469 22.962 12.9255 22.6369C13.7968 22.1474 15.7763 20.9418 17.5505 19.1698C19.3096 17.413 21 14.9647 21 12V6.386C21 5.13546 20.2243 4.0161 19.0534 3.57701L17.5126 2.99924ZM13 8C13 7.44772 12.5523 7 12 7C11.4477 7 11 7.44772 11 8V15C11 15.5523 11.4477 16 12 16C12.5523 16 13 15.5523 13 15V8Z"
        fill="#303233" />
</svg>
