<svg width="16" height="16" viewBox="0 0 16 16" fill="none" xmlns="http://www.w3.org/2000/svg">
    <path
        d="M9.19687 8.00017C9.19687 8.66317 8.65987 9.20016 7.99687 9.20016C7.33487 9.20016 6.79688 8.66317 6.79688 8.00017C6.79688 7.33717 7.33487 6.80017 7.99687 6.80017C8.65987 6.80017 9.19687 7.33717 9.19687 8.00017Z"
        fill="#303233" />
    <path fill-rule="evenodd" clip-rule="evenodd"
        d="M5.2789 12.715C5.4309 12.802 5.5509 12.936 5.6219 13.096L6.0019 13.951C6.1739 14.337 6.4539 14.665 6.8079 14.896L6.8099 14.898C7.1649 15.127 7.5789 15.25 8.0019 15.25C8.4249 15.25 8.8379 15.127 9.1929 14.898L9.1949 14.896C9.5499 14.665 9.8299 14.337 10.0009 13.951L10.3809 13.097C10.4519 12.938 10.5709 12.806 10.7209 12.718C10.8729 12.631 11.0489 12.594 11.2229 12.612L12.1519 12.711C12.5729 12.755 12.9979 12.677 13.3749 12.485C13.7519 12.293 14.0659 11.995 14.2769 11.629C14.4889 11.262 14.5899 10.842 14.5679 10.419C14.5449 9.997 14.4009 9.589 14.1519 9.247L13.6029 8.493C13.4999 8.351 13.4449 8.179 13.4459 8.004V8C13.4459 7.825 13.5009 7.654 13.6049 7.512L14.1549 6.756C14.4039 6.414 14.5479 6.007 14.5699 5.584C14.5929 5.161 14.4919 4.742 14.2799 4.375C14.0689 4.008 13.7549 3.711 13.3779 3.519C13.0009 3.327 12.5759 3.248 12.1549 3.293L11.2259 3.392C11.0519 3.41 10.8759 3.373 10.7249 3.286C10.5739 3.198 10.4549 3.065 10.3849 2.906L10.3829 2.902L9.9999 2.048C9.8299 1.663 9.5489 1.334 9.1939 1.103C8.8389 0.872997 8.4249 0.75 8.0019 0.75C7.5779 0.75 7.1639 0.872997 6.8089 1.103C6.4539 1.334 6.1739 1.663 6.0019 2.05L5.6209 2.906C5.5509 3.065 5.4319 3.198 5.2819 3.286C5.1299 3.373 4.9539 3.41 4.7799 3.392L3.8479 3.293C3.4269 3.248 3.0019 3.327 2.6249 3.519C2.2479 3.711 1.9349 4.008 1.7229 4.375C1.5109 4.742 1.4099 5.161 1.4329 5.584C1.4549 6.007 1.5989 6.414 1.8489 6.756L2.3989 7.512C2.5019 7.654 2.5569 7.825 2.5569 8C2.5569 8.175 2.5019 8.346 2.3989 8.488L1.8489 9.244C1.5989 9.586 1.4549 9.993 1.4329 10.416C1.4099 10.839 1.5109 11.259 1.7229 11.625C1.9349 11.992 2.2479 12.289 2.6249 12.481C3.0019 12.673 3.4269 12.751 3.8479 12.707L4.7769 12.608C4.9519 12.59 5.1269 12.627 5.2789 12.715ZM5.29688 8.00017C5.29688 9.49117 6.50587 10.7002 7.99687 10.7002C9.48887 10.7002 10.6969 9.49117 10.6969 8.00017C10.6969 6.50917 9.48887 5.30017 7.99687 5.30017C6.50587 5.30017 5.29688 6.50917 5.29688 8.00017Z"
        fill="#303233" />
</svg>
