<svg width="16" height="16" viewBox="0 0 16 16" fill="none" xmlns="http://www.w3.org/2000/svg">
    <path fill-rule="evenodd" clip-rule="evenodd"
        d="M9.25 4C9.25 2.75736 10.2574 1.75 11.5 1.75C12.7426 1.75 13.75 2.75736 13.75 4C13.75 5.24264 12.7426 6.25 11.5 6.25C10.9073 6.25 10.3681 6.02082 9.96624 5.64625L6.67584 7.36298C6.72433 7.56743 6.75 7.78072 6.75 8C6.75 8.18722 6.73129 8.37007 6.69564 8.54678L9.49584 9.92822C10.092 9.20849 10.9924 8.75 12 8.75C13.7949 8.75 15.25 10.2051 15.25 12C15.25 13.7949 13.7949 15.25 12 15.25C10.2051 15.25 8.75 13.7949 8.75 12C8.75 11.7501 8.7782 11.5068 8.83159 11.2731L6.00724 9.87977C5.50547 10.4153 4.79182 10.75 4 10.75C2.48122 10.75 1.25 9.51878 1.25 8C1.25 6.48122 2.48122 5.25 4 5.25C4.75845 5.25 5.44518 5.55704 5.94269 6.0536L9.27209 4.31653C9.25753 4.21311 9.25 4.10743 9.25 4Z"
        fill="#303233" />
</svg>
