<svg width="16" height="16" viewBox="0 0 16 16" fill="none" xmlns="http://www.w3.org/2000/svg">
    <path
        d="M5 7.5C4.72386 7.5 4.5 7.72386 4.5 8C4.5 8.27614 4.72386 8.5 5 8.5H11C11.2761 8.5 11.5 8.27614 11.5 8C11.5 7.72386 11.2761 7.5 11 7.5H5Z"
        fill="#303233" />
    <path fill-rule="evenodd" clip-rule="evenodd"
        d="M8 2C11.887 2 15 4.712 15 8C15 11.288 11.887 14 8.001 14C6.98 14.003 5.971 13.811 5.032 13.436C4.93 13.395 4.82 13.377 4.712 13.398L1.593 13.991C1.414 14.025 1.231 13.959 1.115 13.819C0.999 13.679 0.968 13.486 1.035 13.317L1.838 11.279C1.908 11.1 1.866 10.901 1.767 10.736C1.276 9.91399 1 8.984 1 8C1 4.712 4.113 2 8 2ZM8 13C11.292 13 14 10.786 14 8C14 5.214 11.292 3 8 3C4.708 3 2 5.214 2 8C2 8.8 2.226 9.554 2.626 10.222V10.223C2.883 10.654 2.952 11.178 2.768 11.645L2.298 12.839L4.522 12.416C4.818 12.359 5.123 12.395 5.403 12.506V12.507C6.224 12.835 7.106 13.003 7.998 13H8Z"
        fill="#303233" />
</svg>
