<svg width="16" height="16" viewBox="0 0 16 16" fill="none" xmlns="http://www.w3.org/2000/svg">
    <path fill-rule="evenodd" clip-rule="evenodd"
        d="M8.14373 2.17635C9.71219 0.607883 12.2552 0.607883 13.8236 2.17635C15.3921 3.74482 15.3921 6.2878 13.8236 7.85627L12.8291 8.85083C12.6338 9.0461 12.3172 9.0461 12.122 8.85083C11.9267 8.65557 11.9267 8.33899 12.122 8.14373L13.1165 7.14917C14.2945 5.97122 14.2945 4.0614 13.1165 2.88346C11.9386 1.70551 10.0288 1.70551 8.85083 2.88346L7.85627 3.87802C7.66101 4.07328 7.34443 4.07328 7.14917 3.87802C6.9539 3.68276 6.9539 3.36618 7.14917 3.17091L8.14373 2.17635ZM10.815 5.18501C11.0102 5.38028 11.0102 5.69686 10.815 5.89212L5.89214 10.815C5.69687 11.0102 5.38029 11.0102 5.18503 10.815C4.98977 10.6197 4.98977 10.3031 5.18503 10.1078L10.1079 5.18501C10.3031 4.98975 10.6197 4.98975 10.815 5.18501ZM3.87802 7.14917C4.07328 7.34443 4.07328 7.66101 3.87802 7.85627L2.88346 8.85084C1.70551 10.0288 1.70551 11.9386 2.88346 13.1165C4.0614 14.2945 5.97122 14.2945 7.14917 13.1165L8.14373 12.122C8.33899 11.9267 8.65557 11.9267 8.85083 12.122C9.0461 12.3172 9.0461 12.6338 8.85083 12.8291L7.85627 13.8237C6.2878 15.3921 3.74482 15.3921 2.17635 13.8237C0.607883 12.2552 0.607883 9.7122 2.17635 8.14373L3.17091 7.14917C3.36618 6.9539 3.68276 6.9539 3.87802 7.14917Z"
        fill="#303233" />
</svg>
