<svg width="24" height="24" viewBox="0 0 24 24" fill="none" xmlns="http://www.w3.org/2000/svg">
    <path
        d="M2.70711 1.29289C2.31658 0.902369 1.68342 0.902369 1.29289 1.29289C0.902369 1.68342 0.902369 2.31658 1.29289 2.70711L4.94642 6.36064C2.64407 7.19925 1 9.40763 1 12C1 15.3137 3.68629 18 7 18H9C9.55229 18 10 17.5523 10 17C10 16.4477 9.55229 16 9 16H7C4.79086 16 3 14.2091 3 12C3 9.92414 4.5813 8.21761 6.60504 8.01925L9.58579 11H7C6.44772 11 6 11.4477 6 12C6 12.5523 6.44772 13 7 13H11.5858L21.2929 22.7071C21.6834 23.0976 22.3166 23.0976 22.7071 22.7071C23.0976 22.3166 23.0976 21.6834 22.7071 21.2929L2.70711 1.29289Z"
        fill="#303233" />
    <path
        d="M17 6H15C14.4477 6 14 6.44772 14 7C14 7.55228 14.4477 8 15 8H17C19.2091 8 21 9.79086 21 12C21 13.1066 20.552 14.1066 19.825 14.8318C19.4341 15.2219 19.4333 15.855 19.8234 16.246C20.2134 16.637 20.8466 16.6378 21.2376 16.2477C22.3252 15.1626 23 13.6592 23 12C23 8.68629 20.3137 6 17 6Z"
        fill="#303233" />
    <path
        d="M16.99 11C16.4377 11 15.99 11.4477 15.99 12C15.99 12.5523 16.4377 13 16.99 13H17C17.5523 13 18 12.5523 18 12C18 11.4477 17.5523 11 17 11H16.99Z"
        fill="#303233" />
</svg>
