<svg width="24" height="24" viewBox="0 0 24 24" fill="none" xmlns="http://www.w3.org/2000/svg">
    <path
        d="M16.5 0.75C16.9142 0.75 17.25 1.08579 17.25 1.5V3.25H19C19.4142 3.25 19.75 3.58579 19.75 4C19.75 4.41421 19.4142 4.75 19 4.75H17.25V6.5C17.25 6.91421 16.9142 7.25 16.5 7.25C16.0858 7.25 15.75 6.91421 15.75 6.5V4.75H14C13.5858 4.75 13.25 4.41421 13.25 4C13.25 3.58579 13.5858 3.25 14 3.25H15.75V1.5C15.75 1.08579 16.0858 0.75 16.5 0.75Z"
        fill="#303233" />
    <path fill-rule="evenodd" clip-rule="evenodd"
        d="M8.58794 6.22541C9.06199 4.89808 10.9391 4.89808 11.4132 6.22541L13.0475 10.8017C13.0728 10.8722 13.1283 10.9278 13.1989 10.953L17.7752 12.5874C19.1025 13.0614 19.1025 14.9386 17.7752 15.4126L13.1989 17.047C13.1283 17.0722 13.0728 17.1278 13.0475 17.1983L11.4132 21.7746C10.9391 23.1019 9.06199 23.1019 8.58794 21.7746L6.95357 17.1983C6.92836 17.1278 6.87281 17.0722 6.80222 17.047L2.22596 15.4126C0.898641 14.9386 0.898633 13.0614 2.22596 12.5874L6.80222 10.953C6.87281 10.9278 6.92836 10.8722 6.95357 10.8017L8.58794 6.22541ZM11.6349 11.3062L10.0006 6.72991L8.36618 11.3062C8.18971 11.8003 7.80084 12.1892 7.30672 12.3656L2.73047 14L7.30672 15.6344C7.80084 15.8108 8.18971 16.1997 8.36618 16.6938L10.0006 21.2701L11.6349 16.6938C11.8114 16.1997 12.2003 15.8108 12.6944 15.6344L17.2706 14L12.6944 12.3656C12.2003 12.1892 11.8114 11.8003 11.6349 11.3062Z"
        fill="#303233" />
    <path
        d="M21.75 7C21.75 6.58579 21.4142 6.25 21 6.25C20.5858 6.25 20.25 6.58579 20.25 7V7.75H19.5C19.0858 7.75 18.75 8.08579 18.75 8.5C18.75 8.91421 19.0858 9.25 19.5 9.25H20.25V10C20.25 10.4142 20.5858 10.75 21 10.75C21.4142 10.75 21.75 10.4142 21.75 10V9.25H22.5C22.9142 9.25 23.25 8.91421 23.25 8.5C23.25 8.08579 22.9142 7.75 22.5 7.75H21.75V7Z"
        fill="#303233" />
</svg>
