<svg width="16" height="16" viewBox="0 0 16 16" fill="none" xmlns="http://www.w3.org/2000/svg">
    <path
        d="M8 9.75C8.9665 9.75 9.75 8.9665 9.75 8C9.75 7.0335 8.9665 6.25 8 6.25C7.0335 6.25 6.25 7.0335 6.25 8C6.25 8.9665 7.0335 9.75 8 9.75Z"
        stroke="#303233" stroke-width="1.5" stroke-linecap="round" stroke-linejoin="round" />
    <path
        d="M12.2045 9.70455C12.1289 9.87592 12.1064 10.066 12.1398 10.2503C12.1732 10.4347 12.2611 10.6047 12.392 10.7386L12.4261 10.7727C12.5318 10.8783 12.6156 11.0036 12.6728 11.1415C12.73 11.2795 12.7594 11.4274 12.7594 11.5767C12.7594 11.726 12.73 11.8739 12.6728 12.0119C12.6156 12.1498 12.5318 12.2751 12.4261 12.3807C12.3206 12.4863 12.1953 12.5702 12.0573 12.6273C11.9194 12.6845 11.7715 12.714 11.6222 12.714C11.4728 12.714 11.325 12.6845 11.187 12.6273C11.049 12.5702 10.9237 12.4863 10.8182 12.3807L10.7841 12.3466C10.6502 12.2156 10.4801 12.1277 10.2958 12.0943C10.1115 12.0609 9.92137 12.0835 9.75 12.1591C9.58195 12.2311 9.43863 12.3507 9.33767 12.5031C9.23672 12.6556 9.18255 12.8342 9.18182 13.017V13.1136C9.18182 13.415 9.06209 13.7041 8.84898 13.9172C8.63588 14.1303 8.34684 14.25 8.04545 14.25C7.74407 14.25 7.45503 14.1303 7.24192 13.9172C7.02881 13.7041 6.90909 13.415 6.90909 13.1136V13.0625C6.90469 12.8744 6.84382 12.692 6.73438 12.539C6.62494 12.386 6.47201 12.2695 6.29545 12.2045C6.12408 12.1289 5.93398 12.1064 5.74967 12.1398C5.56535 12.1732 5.39527 12.2611 5.26136 12.392L5.22727 12.4261C5.12173 12.5318 4.99641 12.6156 4.85845 12.6728C4.7205 12.73 4.57263 12.7594 4.4233 12.7594C4.27396 12.7594 4.12609 12.73 3.98814 12.6728C3.85018 12.6156 3.72486 12.5318 3.61932 12.4261C3.51366 12.3206 3.42985 12.1953 3.37266 12.0573C3.31547 11.9194 3.28604 11.7715 3.28604 11.6222C3.28604 11.4728 3.31547 11.325 3.37266 11.187C3.42985 11.049 3.51366 10.9237 3.61932 10.8182L3.65341 10.7841C3.7844 10.6502 3.87226 10.4801 3.90568 10.2958C3.9391 10.1115 3.91654 9.92137 3.84091 9.75C3.76888 9.58195 3.64929 9.43863 3.49686 9.33767C3.34442 9.23672 3.16579 9.18255 2.98295 9.18182H2.88636C2.58498 9.18182 2.29594 9.06209 2.08283 8.84898C1.86972 8.63588 1.75 8.34684 1.75 8.04545C1.75 7.74407 1.86972 7.45503 2.08283 7.24192C2.29594 7.02881 2.58498 6.90909 2.88636 6.90909H2.9375C3.12556 6.90469 3.30796 6.84382 3.46097 6.73438C3.61397 6.62494 3.73052 6.47201 3.79545 6.29545C3.87109 6.12408 3.89365 5.93398 3.86023 5.74967C3.82681 5.56535 3.73894 5.39527 3.60795 5.26136L3.57386 5.22727C3.46821 5.12173 3.38439 4.99641 3.3272 4.85845C3.27002 4.7205 3.24058 4.57263 3.24058 4.4233C3.24058 4.27396 3.27002 4.12609 3.3272 3.98814C3.38439 3.85018 3.46821 3.72486 3.57386 3.61932C3.6794 3.51366 3.80473 3.42985 3.94268 3.37266C4.08063 3.31547 4.22851 3.28604 4.37784 3.28604C4.52718 3.28604 4.67505 3.31547 4.813 3.37266C4.95095 3.42985 5.07628 3.51366 5.18182 3.61932L5.21591 3.65341C5.34982 3.7844 5.5199 3.87226 5.70421 3.90568C5.88853 3.9391 6.07863 3.91654 6.25 3.84091H6.29545C6.46351 3.76888 6.60683 3.64929 6.70778 3.49686C6.80873 3.34442 6.86291 3.16579 6.86364 2.98295V2.88636C6.86364 2.58498 6.98336 2.29594 7.19647 2.08283C7.40958 1.86972 7.69862 1.75 8 1.75C8.30138 1.75 8.59042 1.86972 8.80353 2.08283C9.01664 2.29594 9.13636 2.58498 9.13636 2.88636V2.9375C9.13709 3.12033 9.19127 3.29896 9.29222 3.4514C9.39317 3.60384 9.53649 3.72343 9.70455 3.79545C9.87592 3.87109 10.066 3.89365 10.2503 3.86023C10.4347 3.82681 10.6047 3.73894 10.7386 3.60795L10.7727 3.57386C10.8783 3.46821 11.0036 3.38439 11.1415 3.3272C11.2795 3.27002 11.4274 3.24058 11.5767 3.24058C11.726 3.24058 11.8739 3.27002 12.0119 3.3272C12.1498 3.38439 12.2751 3.46821 12.3807 3.57386C12.4863 3.6794 12.5702 3.80473 12.6273 3.94268C12.6845 4.08063 12.714 4.22851 12.714 4.37784C12.714 4.52718 12.6845 4.67505 12.6273 4.813C12.5702 4.95095 12.4863 5.07628 12.3807 5.18182L12.3466 5.21591C12.2156 5.34982 12.1277 5.5199 12.0943 5.70421C12.0609 5.88853 12.0835 6.07863 12.1591 6.25V6.29545C12.2311 6.46351 12.3507 6.60683 12.5031 6.70778C12.6556 6.80873 12.8342 6.86291 13.017 6.86364H13.1136C13.415 6.86364 13.7041 6.98336 13.9172 7.19647C14.1303 7.40958 14.25 7.69862 14.25 8C14.25 8.30138 14.1303 8.59042 13.9172 8.80353C13.7041 9.01664 13.415 9.13636 13.1136 9.13636H13.0625C12.8797 9.13709 12.701 9.19127 12.5486 9.29222C12.3962 9.39317 12.2766 9.53649 12.2045 9.70455Z"
        stroke="#303233" stroke-width="1.5" stroke-linecap="round" stroke-linejoin="round" />
</svg>
