<svg width="24" height="24" viewBox="0 0 24 24" fill="none" xmlns="http://www.w3.org/2000/svg">
    <path
        d="M10.159 1H13.8361C14.3632 0.999985 14.818 0.999972 15.1926 1.03057C15.5879 1.06287 15.9811 1.13419 16.3595 1.32698C16.924 1.6146 17.3829 2.07355 17.6706 2.63803C17.7313 2.75735 17.7801 2.87814 17.8193 3.00001H6.17578C6.21501 2.87814 6.26372 2.75735 6.32451 2.63803C6.61213 2.07355 7.07108 1.6146 7.63556 1.32698C8.01394 1.13419 8.40716 1.06287 8.80251 1.03057C9.17705 0.999972 9.63189 0.999985 10.159 1Z"
        fill="#303233" />
    <path
        d="M16.8371 4H7.15997C6.63285 3.99999 6.17804 3.99997 5.80348 4.03057C5.40814 4.06287 5.01492 4.13419 4.63654 4.32698C4.07205 4.6146 3.61311 5.07355 3.32549 5.63803C3.2647 5.75735 3.21598 5.87814 3.17676 6H20.8203C20.781 5.87814 20.7323 5.75735 20.6715 5.63803C20.3839 5.07355 19.925 4.6146 19.3605 4.32698C18.9821 4.13419 18.5889 4.06287 18.1935 4.03057C17.819 3.99997 17.3642 3.99999 16.8371 4Z"
        fill="#303233" />
    <path fill-rule="evenodd" clip-rule="evenodd"
        d="M5.16146 7H18.8385C19.3657 6.99998 19.8205 6.99997 20.195 7.03057C20.5904 7.06287 20.9836 7.13419 21.362 7.32698C21.9265 7.6146 22.3854 8.07354 22.673 8.63803C22.8658 9.01641 22.9371 9.40963 22.9694 9.80497C23 10.1795 23 10.6343 23 11.1614V18.8386C23 19.3657 23 19.8205 22.9694 20.195C22.9371 20.5904 22.8658 20.9836 22.673 21.362C22.3854 21.9265 21.9265 22.3854 21.362 22.673C20.9836 22.8658 20.5904 22.9371 20.195 22.9694C19.8205 23 19.3657 23 18.8385 23H5.16148C4.63432 23 4.17955 23 3.80497 22.9694C3.40963 22.9371 3.01641 22.8658 2.63803 22.673C2.07354 22.3854 1.6146 21.9265 1.32698 21.362C1.13419 20.9836 1.06287 20.5904 1.03057 20.195C0.999969 19.8205 0.999984 19.3657 1 18.8386V11.1615C0.999984 10.6343 0.999969 10.1795 1.03057 9.80497C1.06287 9.40963 1.13419 9.01641 1.32698 8.63803C1.6146 8.07354 2.07354 7.6146 2.63803 7.32698C3.01641 7.13419 3.40963 7.06287 3.80497 7.03057C4.17954 6.99997 4.63432 6.99998 5.16146 7ZM13 12C13 11.4477 12.5523 11 12 11C11.4477 11 11 11.4477 11 12V14H9C8.44772 14 8 14.4477 8 15C8 15.5523 8.44772 16 9 16H11V18C11 18.5523 11.4477 19 12 19C12.5523 19 13 18.5523 13 18V16H15C15.5523 16 16 15.5523 16 15C16 14.4477 15.5523 14 15 14H13V12Z"
        fill="#303233" />
</svg>
