<svg width="24" height="24" viewBox="0 0 24 24" fill="none" xmlns="http://www.w3.org/2000/svg">
    <path fill-rule="evenodd" clip-rule="evenodd"
        d="M5.16957 7.25H18.8304C19.3646 7.24999 19.8104 7.24998 20.1747 7.27974C20.5546 7.31078 20.9112 7.37789 21.2485 7.54973C21.7659 7.81338 22.1866 8.23408 22.4503 8.75152C22.6221 9.08879 22.6892 9.44544 22.7203 9.82533C22.75 10.1896 22.75 10.6354 22.75 11.1695V18.8305C22.75 19.3646 22.75 19.8104 22.7203 20.1747C22.6892 20.5546 22.6221 20.9112 22.4503 21.2485C22.1866 21.7659 21.7659 22.1866 21.2485 22.4503C20.9112 22.6221 20.5546 22.6892 20.1747 22.7203C19.8104 22.75 19.3646 22.75 18.8305 22.75H5.16955C4.6354 22.75 4.18956 22.75 3.82533 22.7203C3.44545 22.6892 3.08879 22.6221 2.75153 22.4503C2.23408 22.1866 1.81338 21.7659 1.54973 21.2485C1.37789 20.9112 1.31078 20.5546 1.27974 20.1747C1.24998 19.8104 1.24999 19.3646 1.25 18.8304V11.1696C1.24999 10.6354 1.24998 10.1896 1.27974 9.82533C1.31078 9.44544 1.37789 9.08879 1.54973 8.75152C1.81338 8.23408 2.23408 7.81338 2.75153 7.54973C3.08879 7.37789 3.44545 7.31078 3.82533 7.27974C4.18956 7.24998 4.63541 7.24999 5.16957 7.25ZM3.94748 8.77476C3.66036 8.79822 3.52307 8.8401 3.43251 8.88624C3.19731 9.00608 3.00608 9.19731 2.88624 9.43251C2.8401 9.52307 2.79822 9.66035 2.77476 9.94748C2.75058 10.2434 2.75 10.6276 2.75 11.2V18.8C2.75 19.3724 2.75058 19.7566 2.77476 20.0525C2.79822 20.3396 2.8401 20.4769 2.88624 20.5675C3.00608 20.8027 3.19731 20.9939 3.43251 21.1138C3.52307 21.1599 3.66036 21.2018 3.94748 21.2252C4.24336 21.2494 4.62757 21.25 5.2 21.25H18.8C19.3724 21.25 19.7566 21.2494 20.0525 21.2252C20.3396 21.2018 20.4769 21.1599 20.5675 21.1138C20.8027 20.9939 20.9939 20.8027 21.1138 20.5675C21.1599 20.4769 21.2018 20.3396 21.2252 20.0525C21.2494 19.7566 21.25 19.3724 21.25 18.8V11.2C21.25 10.6276 21.2494 10.2434 21.2252 9.94748C21.2018 9.66035 21.1599 9.52307 21.1138 9.43251C20.9939 9.19731 20.8027 9.00608 20.5675 8.88624C20.4769 8.8401 20.3396 8.79822 20.0525 8.77476C19.7566 8.75058 19.3724 8.75 18.8 8.75H5.2C4.62757 8.75 4.24336 8.75058 3.94748 8.77476Z"
        fill="#303233" />
    <path fill-rule="evenodd" clip-rule="evenodd"
        d="M7.16957 4.25C6.63542 4.24999 6.18956 4.24998 5.82533 4.27974C5.44545 4.31078 5.08879 4.37789 4.75153 4.54973C4.23459 4.81312 3.81421 5.23325 3.55051 5.75H20.4495C20.1858 5.23325 19.7654 4.81312 19.2485 4.54973C18.9112 4.37789 18.5546 4.31078 18.1747 4.27974C17.8104 4.24998 17.3646 4.24999 16.8305 4.25H7.16957Z"
        fill="#303233" />
    <path fill-rule="evenodd" clip-rule="evenodd"
        d="M10.1693 1.25001C9.63515 1.25 9.1893 1.24999 8.82507 1.27975C8.44519 1.31078 8.08853 1.3779 7.75127 1.54974C7.23433 1.81313 6.81396 2.23325 6.55026 2.74999H17.4492C17.1855 2.23325 16.7651 1.81313 16.2482 1.54974C15.9109 1.3779 15.5543 1.31078 15.1744 1.27975C14.8102 1.24999 14.3643 1.25 13.8302 1.25001H10.1693Z"
        fill="#303233" />
    <path
        d="M9.5 11.4158C9.5 11.0202 9.93762 10.7813 10.2704 10.9952L15.8458 14.5794C16.1519 14.7762 16.1519 15.2238 15.8458 15.4206L10.2704 19.0048C9.93762 19.2187 9.5 18.9798 9.5 18.5842V11.4158Z"
        fill="#303233" />
</svg>
