<svg width="16" height="16" viewBox="0 0 16 16" fill="none" xmlns="http://www.w3.org/2000/svg">
    <path
        d="M11.66 3.65855C10.6355 2.6333 9.22112 2 7.65789 2C4.53313 2 2 4.53313 2 7.65789C2 10.3499 3.88056 12.6039 6.40012 13.1756C6.66941 13.2367 6.83818 13.5045 6.77708 13.7738C6.71597 14.0431 6.44813 14.2119 6.17883 14.1508C3.21379 13.478 1 10.8271 1 7.65789C1 3.98084 3.98084 1 7.65789 1C9.49711 1 11.1629 1.74643 12.3674 2.95168C12.9194 3.50405 13.5241 4.22594 14 4.82135V2.18421C14 1.90807 14.2239 1.68421 14.5 1.68421C14.7761 1.68421 15 1.90807 15 2.18421V6.28947C15 6.56562 14.7761 6.78947 14.5 6.78947H10.3947C10.1186 6.78947 9.89474 6.56562 9.89474 6.28947C9.89474 6.01333 10.1186 5.78947 10.3947 5.78947H13.4905C13.4251 5.70581 13.3558 5.61781 13.2834 5.52665C12.8039 4.92352 12.1966 4.19548 11.66 3.65855Z"
        fill="#303233" />
    <path
        d="M12.1985 9.75239H14.719V9H11.4085V12.1676H12.2211C12.2963 11.9569 12.4167 11.7914 12.5822 11.671C12.7527 11.5456 12.9609 11.4829 13.2067 11.4829C13.5578 11.4829 13.8237 11.5807 14.0042 11.7763C14.1848 11.9669 14.2751 12.2428 14.2751 12.604C14.2751 12.9601 14.1848 13.246 14.0042 13.4617C13.8287 13.6774 13.5628 13.7852 13.2067 13.7852C12.9208 13.7852 12.6825 13.7175 12.4919 13.5821C12.3013 13.4416 12.1784 13.2535 12.1232 13.0178H11.2881C11.3533 13.4642 11.5514 13.8228 11.8825 14.0937C12.2135 14.3646 12.6524 14.5 13.1992 14.5C13.6105 14.5 13.9566 14.4172 14.2375 14.2517C14.5234 14.0862 14.7366 13.8605 14.877 13.5746C15.0225 13.2836 15.0952 12.9526 15.0952 12.5814C15.0952 12.2754 15.0375 11.9845 14.9221 11.7086C14.8118 11.4327 14.6237 11.2045 14.3579 11.0239C14.097 10.8434 13.7559 10.7531 13.3346 10.7531C13.0988 10.7531 12.8756 10.8007 12.665 10.896C12.4593 10.9913 12.3038 11.1092 12.1985 11.2497V9.75239Z"
        fill="#303233" />
    <path d="M8.43945 9.01505V9.79754H9.13918V14.5H10.0044V9.01505H8.43945Z" fill="#303233" />
</svg>
