<svg width="24" height="24" viewBox="0 0 24 24" fill="none" xmlns="http://www.w3.org/2000/svg">
    <path
        d="M4.25 8C4.25 5.37665 6.37665 3.25 9 3.25C11.6234 3.25 13.75 5.37665 13.75 8C13.75 10.6234 11.6234 12.75 9 12.75C6.37665 12.75 4.25 10.6234 4.25 8Z"
        fill="#303233" />
    <path
        d="M0.525632 20.8131C1.49693 17.0393 4.92175 14.25 8.99992 14.25C13.0781 14.25 16.5029 17.0393 17.4742 20.8131C17.532 21.0376 17.4827 21.2763 17.3406 21.4595C17.1986 21.6428 16.9798 21.75 16.7479 21.75H1.25196C1.0201 21.75 0.801267 21.6428 0.659209 21.4595C0.517151 21.2763 0.467838 21.0376 0.525632 20.8131Z"
        fill="#303233" />
    <path
        d="M17.4697 8.46967C17.7626 8.17678 18.2374 8.17678 18.5303 8.46967L20.5 10.4393L22.4697 8.46967C22.7626 8.17678 23.2374 8.17678 23.5303 8.46967C23.8232 8.76256 23.8232 9.23744 23.5303 9.53033L21.5607 11.5L23.5303 13.4697C23.8232 13.7626 23.8232 14.2374 23.5303 14.5303C23.2374 14.8232 22.7626 14.8232 22.4697 14.5303L20.5 12.5607L18.5303 14.5303C18.2374 14.8232 17.7626 14.8232 17.4697 14.5303C17.1768 14.2374 17.1768 13.7626 17.4697 13.4697L19.4393 11.5L17.4697 9.53033C17.1768 9.23744 17.1768 8.76256 17.4697 8.46967Z"
        fill="#303233" />
</svg>
