<svg width="24" height="24" viewBox="0 0 24 24" fill="none" xmlns="http://www.w3.org/2000/svg">
    <path
        d="M3.03033 7.03033C2.73744 7.32322 2.26256 7.32322 1.96967 7.03033C1.67678 6.73744 1.67678 6.26256 1.96967 5.96967L5.46967 2.46967C5.76256 2.17678 6.23744 2.17678 6.53033 2.46967L10.0303 5.96967C10.3232 6.26256 10.3232 6.73744 10.0303 7.03033C9.73744 7.32322 9.26256 7.32322 8.96967 7.03033L6.75002 4.81068V8.34903C6.75002 9.36309 6.75484 9.74789 6.83982 10.1018C6.91943 10.4335 7.05075 10.7505 7.22894 11.0413C7.41914 11.3516 7.68782 11.6271 8.40487 12.3442L10.722 14.6613C11.3157 15.2548 11.7101 15.649 12 16.0957C12.29 15.649 12.6843 15.2548 13.2781 14.6613L15.5952 12.3442C16.3122 11.6271 16.5809 11.3516 16.7711 11.0413C16.9493 10.7505 17.0806 10.4335 17.1602 10.1018C17.2452 9.74789 17.25 9.36309 17.25 8.34903V4.81064L15.0303 7.03033C14.7374 7.32322 14.2626 7.32322 13.9697 7.03033C13.6768 6.73744 13.6768 6.26256 13.9697 5.96967L17.4697 2.46967C17.7626 2.17678 18.2374 2.17678 18.5303 2.46967L22.0303 5.96967C22.3232 6.26256 22.3232 6.73744 22.0303 7.03033C21.7374 7.32322 21.2626 7.32322 20.9697 7.03033L18.75 4.81068L18.75 8.44256C18.7502 9.3314 18.7503 9.90425 18.6188 10.452C18.5024 10.9367 18.3105 11.4 18.0501 11.825C17.7557 12.3053 17.3506 12.7103 16.722 13.3387L14.4049 15.6558C13.6878 16.3729 13.4191 16.6484 13.2289 16.9587C13.0507 17.2495 12.9194 17.5665 12.8398 17.8982C12.7566 18.2447 12.7503 18.6208 12.75 19.5879C12.75 19.6087 12.75 19.6297 12.75 19.651V21C12.75 21.4142 12.4142 21.75 12 21.75C11.5858 21.75 11.25 21.4142 11.25 21V19.651C11.25 19.6297 11.25 19.6087 11.25 19.5879C11.2498 18.6208 11.2434 18.2447 11.1602 17.8982C11.0806 17.5665 10.9493 17.2495 10.7711 16.9587C10.5809 16.6484 10.3122 16.3729 9.59517 15.6558L7.27807 13.3387C6.64944 12.7103 6.24432 12.3053 5.94998 11.825C5.68954 11.4 5.49762 10.9367 5.38126 10.452C5.24976 9.90425 5.24986 9.33142 5.25001 8.44256L5.25002 4.81064L3.03033 7.03033Z"
        fill="#303233" />
</svg>
