<svg width="24" height="24" viewBox="0 0 24 24" fill="none" xmlns="http://www.w3.org/2000/svg">
    <path fill-rule="evenodd" clip-rule="evenodd"
        d="M20 18C20 18.5523 19.5523 19 19 19L5 19C4.44771 19 4 18.5523 4 18C4 17.4477 4.44771 17 5 17L19 17C19.5523 17 20 17.4477 20 18ZM19.9194 12.9978C19.92 13.6069 19.6431 14.1831 19.1671 14.5631C18.7884 14.8653 18.3328 14.9379 17.9946 14.9686C17.6482 15 17.2102 15 16.7155 15L7.28453 15C6.78985 15 6.35179 15 6.00542 14.9686C5.66715 14.9379 5.2116 14.8653 4.83292 14.5631C4.3569 14.1831 4.07997 13.6069 4.08063 12.9978C4.08115 12.5133 4.30911 12.1123 4.49643 11.8289C4.68824 11.5388 4.96192 11.1968 5.27097 10.8105L9.99252 4.90856C10.1863 4.66625 10.3703 4.43619 10.5402 4.25836C10.7223 4.06771 10.9642 3.85307 11.2984 3.72787C11.7508 3.5584 12.2492 3.5584 12.7016 3.72787C13.0358 3.85307 13.2777 4.06771 13.4598 4.25836C13.6297 4.43619 13.8137 4.66623 14.0075 4.90853C14.015 4.91801 14.0226 4.92751 14.0303 4.93703L18.729 10.8105C19.0381 11.1968 19.3118 11.5388 19.5036 11.8289C19.6909 12.1123 19.9188 12.5133 19.9194 12.9978ZM17.8352 12.9319C17.6998 12.7271 17.4848 12.4568 17.1395 12.0252L12.4685 6.18642C12.2436 5.90529 12.1151 5.74607 12.0136 5.63978C12.0088 5.63479 12.0043 5.63013 12 5.62578C11.9957 5.63013 11.9912 5.63479 11.9864 5.63978C11.8849 5.74607 11.7564 5.90529 11.5315 6.18642L6.86048 12.0252C6.51515 12.4568 6.30021 12.7271 6.16478 12.9319C6.1553 12.9463 6.14669 12.9596 6.13889 12.972C6.15341 12.9736 6.16921 12.9752 6.18634 12.9768C6.43089 12.999 6.77621 13 7.329 13L16.671 13C17.2238 13 17.5691 12.999 17.8137 12.9768C17.8308 12.9752 17.8466 12.9736 17.8611 12.972C17.8533 12.9596 17.8447 12.9463 17.8352 12.9319Z"
        fill="#303233" />
</svg>
