<svg width="24" height="24" viewBox="0 0 24 24" fill="none" xmlns="http://www.w3.org/2000/svg">
    <path
        d="M11.7071 1.29289C11.3166 0.902369 10.6834 0.902369 10.2929 1.29289C9.90237 1.68342 9.90237 2.31658 10.2929 2.70711L11.5858 4H9C4.58172 4 1 7.58172 1 12C1 15.1928 2.87043 17.9468 5.57091 19.2296C6.06977 19.4666 6.66628 19.2543 6.90326 18.7555C7.14024 18.2566 6.92795 17.6601 6.42909 17.4231C4.39967 16.459 3 14.392 3 12C3 8.68629 5.68629 6 9 6H11.5858L10.2929 7.29289C9.90237 7.68342 9.90237 8.31658 10.2929 8.70711C10.6834 9.09763 11.3166 9.09763 11.7071 8.70711L14.7071 5.70711C15.0976 5.31658 15.0976 4.68342 14.7071 4.29289L11.7071 1.29289Z"
        fill="#303233" />
    <path
        d="M15 20C19.4183 20 23 16.4183 23 12C23 11.4477 22.5523 11 22 11C21.4477 11 21 11.4477 21 12C21 15.3137 18.3137 18 15 18H12.4142L13.7071 16.7071C14.0976 16.3166 14.0976 15.6834 13.7071 15.2929C13.3166 14.9024 12.6834 14.9024 12.2929 15.2929L9.29289 18.2929C8.90237 18.6834 8.90237 19.3166 9.29289 19.7071L12.2929 22.7071C12.6834 23.0976 13.3166 23.0976 13.7071 22.7071C14.0976 22.3166 14.0976 21.6834 13.7071 21.2929L12.4142 20H15Z"
        fill="#303233" />
    <path fill-rule="evenodd" clip-rule="evenodd"
        d="M20.5 9C22.433 9 24 7.433 24 5.5C24 3.567 22.433 2 20.5 2C18.567 2 17 3.567 17 5.5C17 7.433 18.567 9 20.5 9ZM20 4.5V7.5H21V3.5H19.5V4.5H20Z"
        fill="#303233" />
</svg>
