<svg width="16" height="16" viewBox="0 0 16 16" fill="none" xmlns="http://www.w3.org/2000/svg">
    <path fill-rule="evenodd" clip-rule="evenodd"
        d="M2.62794 2.03422C2.63409 2.03699 2.64025 2.03976 2.64642 2.04254L13.8097 7.06598C13.9652 7.13594 14.1114 7.20173 14.2237 7.26491C14.3297 7.32456 14.5038 7.43281 14.6016 7.63068C14.7167 7.86346 14.7167 8.13658 14.6016 8.36936C14.5038 8.56723 14.3297 8.67548 14.2237 8.73513C14.1114 8.79831 13.9652 8.8641 13.8096 8.93408L2.63177 13.9641C2.47216 14.036 2.32291 14.1031 2.19907 14.146C2.08334 14.1861 1.88325 14.2463 1.6675 14.1861C1.41503 14.1156 1.21042 13.9305 1.11516 13.6863C1.03375 13.4776 1.07366 13.2725 1.10202 13.1534C1.13237 13.0259 1.18435 12.8707 1.23993 12.7047L2.80299 8.03563L2.8065 8.02509L2.80302 8.01454L1.24166 3.31037C1.23952 3.30394 1.23739 3.29753 1.23527 3.29114C1.18029 3.12554 1.12884 2.97059 1.09889 2.84328C1.07086 2.72416 1.03164 2.51944 1.11328 2.31129C1.20887 2.06755 1.41346 1.8829 1.66569 1.81272C1.88109 1.75279 2.08073 1.81272 2.19637 1.85278C2.31995 1.89559 2.46883 1.9626 2.62794 2.03422ZM2.1669 2.92338C2.17438 2.94604 2.18233 2.97 2.19074 2.99536L3.68589 7.50002H7.00023C7.27638 7.50002 7.50023 7.72388 7.50023 8.00002C7.50023 8.27616 7.27638 8.50002 7.00023 8.50002H3.70208L2.19465 13.0029C2.18614 13.0283 2.17811 13.0523 2.17054 13.075C2.19239 13.0652 2.21549 13.0549 2.23994 13.0439L13.3809 8.03042C13.4047 8.01971 13.4272 8.0096 13.4484 8.00002C13.4272 7.99044 13.4047 7.98033 13.3809 7.96962L2.23606 2.95446C2.21169 2.9435 2.18867 2.93315 2.1669 2.92338Z"
        fill="#303233" />
</svg>
