<svg width="16" height="16" viewBox="0 0 16 16" fill="none" xmlns="http://www.w3.org/2000/svg">
    <path
        d="M5.76942 0.75H10.2306C10.7821 0.749991 11.2411 0.749983 11.6157 0.780592C12.006 0.812481 12.3704 0.881296 12.7143 1.05655C13.2436 1.32619 13.6738 1.75645 13.9435 2.28565C14.1187 2.6296 14.1875 2.99397 14.2194 3.38428C14.25 3.75893 14.25 4.21787 14.25 4.7694V8.00778C13.535 7.52914 12.6751 7.25 11.75 7.25C9.26472 7.25 7.25 9.26472 7.25 11.75C7.25 13.1636 7.90183 14.425 8.92134 15.25H5.7694C5.21787 15.25 4.75893 15.25 4.38428 15.2194C3.99397 15.1875 3.6296 15.1187 3.28565 14.9435C2.75645 14.6738 2.32619 14.2436 2.05655 13.7143C1.8813 13.3704 1.81248 13.006 1.78059 12.6157C1.74998 12.2411 1.74999 11.7821 1.75 11.2306V4.76942C1.74999 4.2179 1.74998 3.75892 1.78059 3.38428C1.81248 2.99397 1.8813 2.6296 2.05655 2.28565C2.32619 1.75645 2.75645 1.32619 3.28565 1.05655C3.6296 0.881296 3.99397 0.812481 4.38428 0.780592C4.75892 0.749983 5.2179 0.749991 5.76942 0.75Z"
        fill="#303233" />
    <path fill-rule="evenodd" clip-rule="evenodd"
        d="M11.75 8.75C10.0931 8.75 8.75 10.0931 8.75 11.75C8.75 13.4069 10.0931 14.75 11.75 14.75C12.3064 14.75 12.8273 14.5986 13.274 14.3346L13.9697 15.0303C14.2626 15.3232 14.7374 15.3232 15.0303 15.0303C15.3232 14.7374 15.3232 14.2626 15.0303 13.9697L14.3346 13.274C14.5986 12.8273 14.75 12.3064 14.75 11.75C14.75 10.0931 13.4069 8.75 11.75 8.75ZM10.25 11.75C10.25 10.9216 10.9216 10.25 11.75 10.25C12.5784 10.25 13.25 10.9216 13.25 11.75C13.25 12.5784 12.5784 13.25 11.75 13.25C10.9216 13.25 10.25 12.5784 10.25 11.75Z"
        fill="#303233" />
</svg>
