<svg width="36" height="24" viewBox="0 0 36 24" fill="none" xmlns="http://www.w3.org/2000/svg">
    <path d="M4.68945 7V8.76954H6.02008V17H7.99543V7H4.68945Z" fill="#303233" />
    <path
        d="M20.1846 8.71339H15.7686V11.044C15.9594 10.8077 16.232 10.6169 16.5864 10.4716C16.9407 10.3171 17.3178 10.2399 17.7176 10.2399C18.4445 10.2399 19.0397 10.3989 19.5031 10.7169C19.9665 11.0349 20.3027 11.4438 20.5117 11.9435C20.7207 12.4342 20.8252 12.9612 20.8252 13.5245C20.8252 14.5694 20.5253 15.4099 19.9256 16.0459C19.335 16.682 18.49 17 17.3905 17C16.3547 17 15.5278 16.741 14.9099 16.2231C14.292 15.7052 13.9422 15.0283 13.8604 14.1924H15.7141C15.7958 14.5558 15.9776 14.8466 16.2592 15.0646C16.55 15.2827 16.918 15.3917 17.3633 15.3917C17.8994 15.3917 18.3037 15.2236 18.5763 14.8874C18.8489 14.5513 18.9852 14.106 18.9852 13.5518C18.9852 12.9884 18.8443 12.5614 18.5627 12.2706C18.2901 11.9708 17.8857 11.8209 17.3496 11.8209C16.968 11.8209 16.65 11.9163 16.3955 12.1071C16.1411 12.2979 15.9594 12.5523 15.8504 12.8703H14.024V7.03699H20.1846V8.71339Z"
        fill="#303233" />
    <path
        d="M10.9995 16.9999C11.5517 16.9999 11.9995 16.5522 11.9995 16C11.9995 15.4477 11.5517 15 10.9995 15C10.4472 15 9.99945 15.4477 9.99945 16C9.99945 16.5522 10.4472 16.9999 10.9995 16.9999Z"
        fill="#303233" />
    <path
        d="M24.7066 9.29289C24.316 8.90237 23.6829 8.90237 23.2923 9.29289C22.9018 9.68342 22.9018 10.3166 23.2923 10.7071L25.5852 13L23.2923 15.2929C22.9018 15.6834 22.9018 16.3166 23.2923 16.7071C23.6829 17.0976 24.316 17.0976 24.7066 16.7071L26.9995 14.4142L29.2923 16.7071C29.6829 17.0976 30.316 17.0976 30.7066 16.7071C31.0971 16.3166 31.0971 15.6834 30.7066 15.2929L28.4137 13L30.7066 10.7071C31.0971 10.3166 31.0971 9.68342 30.7066 9.29289C30.316 8.90237 29.6829 8.90237 29.2923 9.29289L26.9995 11.5858L24.7066 9.29289Z"
        fill="#303233" />
</svg>
