<svg width="24" height="24" viewBox="0 0 24 24" fill="none" xmlns="http://www.w3.org/2000/svg">
    <path fill-rule="evenodd" clip-rule="evenodd"
        d="M11.9997 5C9.79052 5 7.99966 6.79086 7.99966 9C7.99966 11.2091 9.79052 13 11.9997 13C14.2088 13 15.9997 11.2091 15.9997 9C15.9997 6.79086 14.2088 5 11.9997 5ZM9.99966 9C9.99966 7.89543 10.8951 7 11.9997 7C13.1042 7 13.9997 7.89543 13.9997 9C13.9997 10.1046 13.1042 11 11.9997 11C10.8951 11 9.99966 10.1046 9.99966 9Z"
        fill="#303233" />
    <path fill-rule="evenodd" clip-rule="evenodd"
        d="M12 1C5.92487 1 1 5.92487 1 12C1 18.0751 5.92487 23 12 23C18.0751 23 23 18.0751 23 12C23 5.92487 18.0751 1 12 1ZM3 12C3 7.02944 7.02944 3 12 3C16.9706 3 21 7.02944 21 12C21 14.2331 20.1867 16.2763 18.8401 17.8495C17.4367 15.5415 14.8982 14 11.9997 14C9.1013 14 6.56294 15.5413 5.1595 17.849C3.81316 16.2759 3 14.2329 3 12ZM6.66578 19.2496C8.15854 20.3498 10.0033 21 12 21C13.9964 21 15.8411 20.35 17.3337 19.25C16.3365 17.3196 14.3222 16 11.9997 16C9.67728 16 7.66307 17.3195 6.66578 19.2496Z"
        fill="#303233" />
</svg>
