<svg width="16" height="16" viewBox="0 0 16 16" fill="none" xmlns="http://www.w3.org/2000/svg">
    <path fill-rule="evenodd" clip-rule="evenodd"
        d="M6.94508 3H9.05492C9.64334 3 10.1154 2.99999 10.4971 3.03118C10.8893 3.06323 11.23 3.13067 11.544 3.29065C12.0457 3.54631 12.4537 3.95426 12.7094 4.45603C12.8693 4.77 12.9368 5.11067 12.9688 5.50289C13 5.88462 13 6.35669 13 6.94512V9.05488C13 9.64332 13 10.1154 12.9688 10.4971C12.9368 10.8893 12.8693 11.23 12.7094 11.544C12.4537 12.0457 12.0457 12.4537 11.544 12.7094C11.23 12.8693 10.8893 12.9368 10.4971 12.9688C10.1154 13 9.64332 13 9.05488 13H6.94512C6.35669 13 5.88462 13 5.50289 12.9688C5.11067 12.9368 4.77 12.8693 4.45603 12.7094C3.95426 12.4537 3.54631 12.0457 3.29065 11.544C3.13067 11.23 3.06323 10.8893 3.03118 10.4971C2.99999 10.1154 3 9.64334 3 9.05492V6.94508C3 6.35666 2.99999 5.88461 3.03118 5.50289C3.06323 5.11067 3.13067 4.77 3.29065 4.45603C3.54631 3.95426 3.95426 3.54631 4.45603 3.29065C4.77 3.13067 5.11067 3.06323 5.50289 3.03118C5.88461 2.99999 6.35666 3 6.94508 3ZM5.58432 4.02786C5.25394 4.05485 5.05952 4.10548 4.91002 4.18166C4.59641 4.34144 4.34144 4.59641 4.18166 4.91002C4.10548 5.05952 4.05485 5.25394 4.02786 5.58432C4.00039 5.92053 4 6.35169 4 6.96667V9.03333C4 9.64831 4.00039 10.0795 4.02786 10.4157C4.05485 10.7461 4.10548 10.9405 4.18166 11.09C4.34144 11.4036 4.59641 11.6586 4.91002 11.8183C5.05952 11.8945 5.25394 11.9451 5.58432 11.9721C5.92053 11.9996 6.35169 12 6.96667 12H9.03333C9.64831 12 10.0795 11.9996 10.4157 11.9721C10.7461 11.9451 10.9405 11.8945 11.09 11.8183C11.4036 11.6586 11.6586 11.4036 11.8183 11.09C11.8945 10.9405 11.9451 10.7461 11.9721 10.4157C11.9996 10.0795 12 9.64831 12 9.03333V6.96667C12 6.35169 11.9996 5.92053 11.9721 5.58432C11.9451 5.25394 11.8945 5.05952 11.8183 4.91002C11.6586 4.59641 11.4036 4.34144 11.09 4.18166C10.9405 4.10548 10.7461 4.05485 10.4157 4.02786C10.0795 4.00039 9.64831 4 9.03333 4H6.96667C6.35169 4 5.92053 4.00039 5.58432 4.02786Z"
        fill="#303233" />
</svg>
