<svg width="24" height="16" viewBox="0 0 24 16" fill="none" xmlns="http://www.w3.org/2000/svg">
    <path d="M3 4.5V5.73867H3.9314V11.4999H5.3141V4.5H3Z" fill="#303233" />
    <path
        d="M10.5381 5.69943H13.6292V4.52596H9.31695V8.60926H10.5954C10.6717 8.38665 10.7989 8.20856 10.977 8.07499C11.1551 7.94143 11.3777 7.87464 11.6448 7.87464C12.0201 7.87464 12.3031 7.97959 12.4939 8.18948C12.6911 8.39301 12.7897 8.69194 12.7897 9.08628C12.7897 9.47425 12.6943 9.78591 12.5034 10.0212C12.3126 10.2566 12.0296 10.3742 11.6543 10.3742C11.3427 10.3742 11.0851 10.2979 10.8816 10.1453C10.6844 9.99261 10.5572 9.78909 10.5 9.53468H9.20246C9.2597 10.1198 9.50457 10.5937 9.93707 10.9562C10.3696 11.3187 10.9484 11.5 11.6734 11.5C12.443 11.5 13.0345 11.2774 13.4479 10.8322C13.8677 10.387 14.0776 9.79863 14.0776 9.06719C14.0776 8.67286 14.0045 8.30396 13.8582 7.96051C13.7119 7.61069 13.4766 7.32448 13.1522 7.10187C12.8278 6.87926 12.4112 6.76796 11.9024 6.76796C11.6225 6.76796 11.3586 6.82202 11.1105 6.93014C10.8625 7.03191 10.6717 7.16547 10.5381 7.33084V5.69943Z"
        fill="#303233" />
    <path
        d="M8.25 10.75C8.25 11.1642 7.91421 11.5 7.5 11.5C7.08579 11.5 6.75 11.1642 6.75 10.75C6.75 10.3358 7.08579 10 7.5 10C7.91421 10 8.25 10.3358 8.25 10.75Z"
        fill="#303233" />
    <path
        d="M16.5303 6.21967C16.2374 5.92678 15.7626 5.92678 15.4697 6.21967C15.1768 6.51256 15.1768 6.98744 15.4697 7.28033L16.9393 8.75L15.4697 10.2197C15.1768 10.5126 15.1768 10.9874 15.4697 11.2803C15.7626 11.5732 16.2374 11.5732 16.5303 11.2803L18 9.81066L19.4697 11.2803C19.7626 11.5732 20.2374 11.5732 20.5303 11.2803C20.8232 10.9874 20.8232 10.5126 20.5303 10.2197L19.0607 8.75L20.5303 7.28033C20.8232 6.98744 20.8232 6.51256 20.5303 6.21967C20.2374 5.92678 19.7626 5.92678 19.4697 6.21967L18 7.68934L16.5303 6.21967Z"
        fill="#303233" />
</svg>
