<svg width="24" height="24" viewBox="0 0 24 24" fill="none" xmlns="http://www.w3.org/2000/svg">
<path d="M6.30691 6.71291C6.34324 6.62511 6.39696 6.5428 6.46808 6.47126L6.46967 6.46967L6.47126 6.46808C6.60686 6.33329 6.7937 6.25 7 6.25H17C17.4142 6.25 17.75 6.58579 17.75 7C17.75 7.41421 17.4142 7.75 17 7.75H8.81066L17.5303 16.4697C17.8232 16.7626 17.8232 17.2374 17.5303 17.5303C17.2374 17.8232 16.7626 17.8232 16.4697 17.5303L7.75 8.81066V17C7.75 17.4142 7.41421 17.75 7 17.75C6.58579 17.75 6.25 17.4142 6.25 17V7C6.25 6.89831 6.27024 6.80134 6.30691 6.71291Z" fill="#303233"/>
</svg>
