<svg width="16" height="16" viewBox="0 0 16 16" fill="none" xmlns="http://www.w3.org/2000/svg">
    <path fill-rule="evenodd" clip-rule="evenodd"
        d="M6.82261 0.739667C7.1155 0.446773 7.59038 0.446773 7.88327 0.739667L9.17739 2.03378C9.47028 2.32668 9.47028 2.80155 9.17739 3.09444L7.88327 4.38856C7.59038 4.68146 7.1155 4.68146 6.82261 4.38856C6.5577 4.12365 6.53239 3.70986 6.7467 3.4165C4.73146 3.96633 3.25 5.80986 3.25 7.99941C3.25 9.57784 4.01914 10.9765 5.20635 11.8415C5.54113 12.0854 5.6148 12.5545 5.37089 12.8893C5.12697 13.2241 4.65785 13.2978 4.32306 13.0539C2.76502 11.9187 1.75 10.0776 1.75 7.99941C1.75 4.9324 3.95916 2.38136 6.87303 1.85075L6.82261 1.80033C6.52972 1.50743 6.52972 1.03256 6.82261 0.739667ZM10.6291 3.1095C10.873 2.77471 11.3422 2.70105 11.6769 2.94496C13.235 4.0801 14.25 5.92126 14.25 7.99941C14.25 11.0664 12.0408 13.6175 9.12697 14.1481L9.17739 14.1985C9.47028 14.4914 9.47028 14.9663 9.17739 15.2592C8.8845 15.552 8.40962 15.552 8.11673 15.2592L6.82261 13.965C6.52972 13.6721 6.52972 13.1973 6.82261 12.9044L8.11673 11.6103C8.40962 11.3174 8.8845 11.3174 9.17739 11.6103C9.44231 11.8752 9.46761 12.289 9.2533 12.5823C11.2685 12.0325 12.75 10.189 12.75 7.99941C12.75 6.42098 11.9809 5.02227 10.7937 4.15732C10.4589 3.9134 10.3852 3.44428 10.6291 3.1095Z"
        fill="#303233" />
</svg>
