<svg width="24" height="24" viewBox="0 0 24 24" fill="none" xmlns="http://www.w3.org/2000/svg">
    <path fill-rule="evenodd" clip-rule="evenodd"
        d="M6.7587 1H17.2413C18.0463 0.999988 18.7106 0.999977 19.2518 1.04419C19.8139 1.09012 20.3306 1.18868 20.816 1.43597C21.5686 1.81947 22.1805 2.43139 22.564 3.18404C22.8113 3.66937 22.9099 4.18608 22.9558 4.74817C23 5.28936 23 5.95372 23 6.75868V17.2413C23 18.0463 23 18.7106 22.9558 19.2518C22.9099 19.8139 22.8113 20.3306 22.564 20.816C22.1805 21.5686 21.5686 22.1805 20.816 22.564C20.3306 22.8113 19.8139 22.9099 19.2518 22.9558C18.7106 23 18.0463 23 17.2413 23H6.75868C5.95372 23 5.28936 23 4.74817 22.9558C4.18608 22.9099 3.66937 22.8113 3.18404 22.564C2.43139 22.1805 1.81947 21.5686 1.43597 20.816C1.18868 20.3306 1.09012 19.8139 1.04419 19.2518C0.999977 18.7106 0.999988 18.0463 1 17.2413V6.7587C0.999988 5.95373 0.999977 5.28937 1.04419 4.74817C1.09012 4.18608 1.18868 3.66937 1.43597 3.18404C1.81947 2.43139 2.43139 1.81947 3.18404 1.43597C3.66937 1.18868 4.18608 1.09012 4.74817 1.04419C5.28937 0.999977 5.95373 0.999988 6.7587 1ZM3 8V11H6V8H3ZM6 6H3.00176C3.00489 5.55447 3.01357 5.20463 3.03755 4.91104C3.07337 4.47262 3.1383 4.24842 3.21799 4.09202C3.40973 3.7157 3.7157 3.40973 4.09202 3.21799C4.24842 3.1383 4.47262 3.07337 4.91104 3.03755C5.20463 3.01357 5.55447 3.00489 6 3.00176V6ZM8 11H16V3H8V11ZM18 3.00176V6H20.9982C20.9951 5.55447 20.9864 5.20463 20.9624 4.91104C20.9266 4.47262 20.8617 4.24842 20.782 4.09202C20.5903 3.7157 20.2843 3.40973 19.908 3.21799C19.7516 3.1383 19.5274 3.07337 19.089 3.03755C18.7954 3.01357 18.4455 3.00489 18 3.00176ZM21 8H18V11H21V8ZM21 13H18V16H21V13ZM20.9982 18H18V20.9982C18.4455 20.9951 18.7954 20.9864 19.089 20.9624C19.5274 20.9266 19.7516 20.8617 19.908 20.782C20.2843 20.5903 20.5903 20.2843 20.782 19.908C20.8617 19.7516 20.9266 19.5274 20.9624 19.089C20.9864 18.7954 20.9951 18.4455 20.9982 18ZM16 21V13H8V21H16ZM6 20.9982V18H3.00176C3.00489 18.4455 3.01357 18.7954 3.03755 19.089C3.07337 19.5274 3.1383 19.7516 3.21799 19.908C3.40973 20.2843 3.7157 20.5903 4.09202 20.782C4.24842 20.8617 4.47262 20.9266 4.91104 20.9624C5.20463 20.9864 5.55447 20.9951 6 20.9982ZM3 16H6V13H3V16Z"
        fill="#303233" />
</svg>
