<svg width="16" height="16" viewBox="0 0 16 16" fill="none" xmlns="http://www.w3.org/2000/svg">
    <path fill-rule="evenodd" clip-rule="evenodd"
        d="M8.95161 0.812344C9.25672 0.945173 9.43782 1.26316 9.39641 1.59335L8.84995 5.95H12.7561C12.7645 5.95 12.7729 5.95 12.7813 5.95C12.9367 5.94996 13.1 5.94993 13.2345 5.96206C13.3607 5.97345 13.6212 6.00441 13.8493 6.18809C14.1067 6.39538 14.2549 6.70986 14.2499 7.04125C14.2454 7.33517 14.1016 7.55566 14.0296 7.65968C13.9526 7.77065 13.848 7.89578 13.7485 8.01463L7.92311 14.9811C7.70965 15.2364 7.3535 15.3205 7.04839 15.1877C6.74328 15.0548 6.56218 14.7368 6.60359 14.4067L7.15005 10.05H3.24389C3.2355 10.05 3.22709 10.05 3.21865 10.05C3.06328 10.05 2.90002 10.0501 2.76548 10.0379C2.6393 10.0266 2.37881 9.99559 2.15073 9.81192C1.89332 9.60462 1.74511 9.29014 1.75012 8.95876C1.75457 8.66484 1.89835 8.44435 1.97045 8.34032C2.04736 8.22935 2.15204 8.10422 2.25148 7.98536C2.2569 7.97889 2.2623 7.97243 2.26768 7.96599L8.07689 1.01889C8.29035 0.763611 8.6465 0.679514 8.95161 0.812344ZM3.73466 8.55H8C8.21518 8.55 8.41999 8.64243 8.56236 8.80377C8.70474 8.96512 8.77095 9.17984 8.74417 9.39334L8.40956 12.0611L12.2653 7.45H8C7.78482 7.45 7.58001 7.35758 7.43764 7.19624C7.29526 7.03489 7.22905 6.82017 7.25583 6.60666L7.59044 3.93895L3.73466 8.55Z"
        fill="#303233" />
</svg>
