<svg width="24" height="24" viewBox="0 0 24 24" fill="none" xmlns="http://www.w3.org/2000/svg">
    <path fill-rule="evenodd" clip-rule="evenodd"
        d="M15.2412 1C16.0462 0.999988 16.7108 0.999729 17.252 1.04395C17.814 1.08987 18.3311 1.18827 18.8164 1.43555C19.5689 1.81902 20.181 2.43109 20.5645 3.18359C20.8117 3.6689 20.9101 4.18599 20.9561 4.74805C21.0003 5.28924 21 5.95383 21 6.75879V17.2412C21 18.0462 21.0003 18.7108 20.9561 19.252C20.9101 19.814 20.8117 20.3311 20.5645 20.8164C20.181 21.5689 19.5689 22.181 18.8164 22.5645C18.3311 22.8117 17.814 22.9101 17.252 22.9561C16.7108 23.0003 16.0462 23 15.2412 23H8.75879C7.95383 23 7.28924 23.0003 6.74805 22.9561C6.18599 22.9101 5.6689 22.8117 5.18359 22.5645C4.43109 22.181 3.81902 21.5689 3.43555 20.8164C3.18827 20.3311 3.08987 19.814 3.04395 19.252C2.99973 18.7108 2.99999 18.0462 3 17.2412V6.75879C2.99999 5.95382 2.99973 5.28924 3.04395 4.74805C3.08987 4.18599 3.18827 3.6689 3.43555 3.18359C3.81902 2.43109 4.43109 1.81902 5.18359 1.43555C5.6689 1.18827 6.18599 1.08987 6.74805 1.04395C7.28924 0.999729 7.95382 0.999988 8.75879 1H15.2412ZM11 13C10.4477 13 10 13.4477 10 14C10 14.0359 10.0012 14.0715 10.0049 14.1064C10.0603 15.1615 10.9312 16 12 16C13.0688 16 13.9387 15.1615 13.9941 14.1064C13.9978 14.0715 14 14.036 14 14C14 13.4477 13.5523 13 13 13H11ZM11 10C10.4477 10 10 10.4477 10 11C10 11.5523 10.4477 12 11 12H13C13.5523 12 14 11.5523 14 11C14 10.4477 13.5523 10 13 10H11ZM11 7C10.4477 7 10 7.44772 10 8C10 8.55229 10.4477 9 11 9H13C13.5523 9 14 8.55229 14 8C14 7.44772 13.5523 7 13 7H11ZM11 4C10.4477 4 10 4.44772 10 5C10 5.55229 10.4477 6 11 6H13C13.5523 6 14 5.55229 14 5C14 4.44772 13.5523 4 13 4H11Z"
        fill="#303233" />
</svg>
