<svg width="24" height="24" viewBox="0 0 24 24" fill="none" xmlns="http://www.w3.org/2000/svg">
    <path fill-rule="evenodd" clip-rule="evenodd"
        d="M22.0383 4.95496C21.6417 4.47366 21.0432 4.20492 20.42 4.22825C19.9186 4.24701 19.5131 4.50903 19.2321 4.71689C18.9396 4.93329 18.5945 5.24001 18.2011 5.58974C18.19 5.59969 18.1787 5.60967 18.1675 5.61969L13.1501 10.0795C12.9397 10.2666 12.7374 10.4464 12.5805 10.6117C12.4102 10.7913 12.2229 11.0244 12.1129 11.3374C11.9624 11.7663 11.9624 12.2337 12.1129 12.6626C12.2229 12.9756 12.4102 13.2088 12.5805 13.3883C12.7374 13.5537 12.9397 13.7335 13.1501 13.9205L18.2011 18.4102C18.5945 18.76 18.9396 19.0667 19.2321 19.2831C19.5131 19.491 19.9186 19.753 20.42 19.7718C21.0432 19.7951 21.6417 19.5264 22.0383 19.045C22.3574 18.6578 22.4309 18.1807 22.4622 17.8326C22.4949 17.4702 22.4948 17.0085 22.4948 16.4821L22.4948 7.56295C22.4948 7.54788 22.4948 7.53285 22.4948 7.51788C22.4948 6.9915 22.4949 6.52984 22.4622 6.16743C22.4309 5.81932 22.3574 5.34219 22.0383 4.95496ZM11.0383 4.95496C10.6417 4.47366 10.0432 4.20492 9.42 4.22825C8.91858 4.24701 8.5131 4.50903 8.23211 4.71689C7.93957 4.9333 7.59453 5.24003 7.20112 5.58976L2.15009 10.0796C1.93966 10.2666 1.73734 10.4464 1.58047 10.6117C1.41018 10.7913 1.22286 11.0244 1.11294 11.3374C0.962354 11.7663 0.962354 12.2337 1.11294 12.6626C1.22286 12.9756 1.41018 13.2088 1.58047 13.3883C1.73735 13.5536 1.93967 13.7334 2.15011 13.9205L7.20115 18.4103C7.59455 18.76 7.93958 19.0667 8.23211 19.2831C8.5131 19.491 8.91858 19.753 9.42 19.7718C10.0432 19.7951 10.6417 19.5264 11.0383 19.045C11.3574 18.6578 11.4309 18.1807 11.4622 17.8326C11.4949 17.4702 11.4948 17.0085 11.4948 16.4821V7.51787C11.4948 6.99149 11.4949 6.52984 11.4622 6.16743C11.4309 5.81932 11.3574 5.34219 11.0383 4.95496ZM20.4649 6.29337C20.4668 6.30963 20.4686 6.32737 20.4703 6.34665C20.4938 6.6082 20.4948 6.97803 20.4948 7.56295V16.4371C20.4948 17.022 20.4938 17.3918 20.4703 17.6534C20.4686 17.6726 20.4668 17.6904 20.4649 17.7066C20.4516 17.6972 20.4371 17.6868 20.4215 17.6752C20.2104 17.5191 19.9334 17.2741 19.4962 16.8855L14.5045 12.4484C14.2588 12.2301 14.1223 12.1076 14.0315 12.0118C14.0275 12.0077 14.0238 12.0037 14.0204 12C14.0238 11.9963 14.0275 11.9923 14.0315 11.9882C14.1223 11.8924 14.2588 11.7699 14.5045 11.5516L19.4962 7.11451C19.9334 6.7259 20.2104 6.48093 20.4215 6.32476C20.4371 6.31324 20.4516 6.30281 20.4649 6.29337ZM9.46493 6.29337C9.46675 6.30963 9.46856 6.32737 9.47029 6.34665C9.49382 6.6082 9.4948 6.97803 9.4948 7.56295V16.4371C9.4948 17.022 9.49382 17.3918 9.47029 17.6534C9.46856 17.6726 9.46675 17.6904 9.46493 17.7066C9.45156 17.6972 9.43711 17.6868 9.42154 17.6752C9.21043 17.5191 8.93336 17.2741 8.49618 16.8855L3.5045 12.4484C3.25882 12.2301 3.12231 12.1076 3.03147 12.0118C3.02753 12.0077 3.02385 12.0037 3.02039 12C3.02385 11.9963 3.02753 11.9923 3.03147 11.9882C3.12231 11.8924 3.25882 11.7699 3.5045 11.5516L8.49618 7.11451C8.93336 6.7259 9.21043 6.48093 9.42154 6.32476C9.43711 6.31324 9.45156 6.30281 9.46493 6.29337Z"
        fill="#303233" />
</svg>
