<svg width="16" height="16" viewBox="0 0 16 16" fill="none" xmlns="http://www.w3.org/2000/svg">
    <g clip-path="url(#clip0_53_5604)">
        <path fill-rule="evenodd" clip-rule="evenodd"
            d="M0.396447 0.396447C0.591709 0.201184 0.908291 0.201184 1.10355 0.396447L15.6036 14.8964C15.7988 15.0917 15.7988 15.4083 15.6036 15.6036C15.4083 15.7988 15.0917 15.7988 14.8964 15.6036L11.3012 12.0083C10.6496 12.5497 9.8725 12.9243 9.03728 13.0955C8.85915 13.1321 8.67981 13.159 8.5 13.1765V14.75H10.5C10.7761 14.75 11 14.9739 11 15.25C11 15.5261 10.7761 15.75 10.5 15.75H5.5C5.22386 15.75 5 15.5261 5 15.25C5 14.9739 5.22386 14.75 5.5 14.75H7.5V13.1766C6.99723 13.1277 6.50159 13.0052 6.02946 12.8104C5.07766 12.4178 4.26487 11.7498 3.69537 10.892C3.12621 10.0348 2.82598 9.02713 2.83313 7.99822V6.75C2.83313 6.47386 3.05699 6.25 3.33313 6.25C3.60928 6.25 3.83313 6.47386 3.83313 6.75V8.00366C3.82706 8.83395 4.06918 9.64713 4.52846 10.3389C4.98774 11.0306 5.64321 11.5693 6.4108 11.886C7.17838 12.2026 8.02305 12.2827 8.83646 12.1159C9.47959 11.9841 10.08 11.7027 10.5904 11.2975L9.4283 10.1354C9.1468 10.3314 8.82663 10.4682 8.48712 10.5357C8.00246 10.632 7.50013 10.5825 7.04359 10.3934C6.58704 10.2044 6.19676 9.88428 5.92203 9.47356C5.64729 9.06285 5.50043 8.57992 5.5 8.08579V6.20711L0.396447 1.10355C0.201184 0.908291 0.201184 0.591709 0.396447 0.396447ZM6.5 7.20711L8.70205 9.40916C8.57395 9.477 8.436 9.52629 8.29227 9.55484C8.00147 9.61261 7.70008 9.58291 7.42615 9.46948C7.15223 9.35606 6.91805 9.16401 6.75321 8.91757C6.58841 8.6712 6.5003 8.38151 6.5 8.0851V7.20711Z"
            fill="#303233" />
        <path
            d="M6.51726 0.737175C7.01643 0.36947 7.63441 0.200356 8.25125 0.262663C8.86808 0.32497 9.43977 0.614252 9.85531 1.07435C10.2707 1.53433 10.5005 2.13222 10.5 2.75202V6.25C10.5 6.52614 10.2761 6.75 10 6.75C9.72386 6.75 9.5 6.52614 9.5 6.25V2.75151C9.50019 2.55805 9.463 2.36814 9.39218 2.19158C9.32683 2.02865 9.23284 1.8771 9.11319 1.74461C8.86386 1.46855 8.52085 1.29498 8.15075 1.2576C7.97303 1.23965 7.79515 1.25371 7.62509 1.29762C7.44099 1.34514 7.26604 1.42762 7.11036 1.54231C6.83214 1.74726 6.63387 2.04146 6.54777 2.37446C6.47865 2.64181 6.20588 2.80251 5.93853 2.73338C5.67118 2.66425 5.51048 2.39149 5.57961 2.12414C5.72312 1.5691 6.05355 1.07877 6.51726 0.737175Z"
            fill="#303233" />
        <path
            d="M13.1665 6.75C13.1665 6.47386 12.9426 6.25 12.6665 6.25C12.3903 6.25 12.1665 6.47386 12.1665 6.75V7.99956C12.1663 8.22332 12.1481 8.44666 12.112 8.66743C12.0675 8.93996 12.2524 9.19697 12.5249 9.24147C12.7974 9.28597 13.0544 9.10112 13.0989 8.82859C13.1436 8.55484 13.1662 8.27746 13.1665 8V6.75Z"
            fill="#303233" />
    </g>
    <defs>
        <clipPath id="clip0_53_5604">
            <rect width="16" height="16" fill="white" />
        </clipPath>
    </defs>
</svg>
