<svg width="16" height="16" viewBox="0 0 16 16" fill="none" xmlns="http://www.w3.org/2000/svg">
    <path fill-rule="evenodd" clip-rule="evenodd"
        d="M4.5 1.75C2.98122 1.75 1.75 2.98122 1.75 4.5C1.75 6.01878 2.98122 7.25 4.5 7.25C6.01878 7.25 7.25 6.01878 7.25 4.5C7.25 2.98122 6.01878 1.75 4.5 1.75Z"
        fill="#303233" />
    <path fill-rule="evenodd" clip-rule="evenodd"
        d="M8.09999 5.79712C8.69647 4.93554 9.97009 4.93554 10.5666 5.79712L15.1351 12.3962C15.8239 13.391 15.1118 14.75 13.9019 14.75H1.90186L1.9075 14.7418C0.807736 14.6292 0.185559 13.3694 0.819876 12.4179L3.41849 8.52C4.01222 7.6294 5.32091 7.6294 5.91464 8.52L6.06195 8.74097L8.09999 5.79712Z"
        fill="#303233" />
</svg>
