<svg width="24" height="24" viewBox="0 0 24 24" fill="none" xmlns="http://www.w3.org/2000/svg">
    <path fill-rule="evenodd" clip-rule="evenodd"
        d="M6.35868 8.24291C4.85239 9.50007 3.79828 10.9774 3.26562 11.8208C3.23028 11.8768 3.20556 11.916 3.1849 11.95C3.17127 11.9724 3.16227 11.988 3.15625 11.9988C3.15625 11.9992 3.15625 11.9996 3.15625 12C3.15625 12.0004 3.15625 12.0008 3.15625 12.0012C3.16227 12.012 3.17127 12.0276 3.1849 12.05C3.20556 12.084 3.23028 12.1232 3.26562 12.1792C3.79828 13.0226 4.85239 14.4999 6.35868 15.7571C7.86262 17.0123 9.75707 18 12.0004 18C14.2437 18 16.1382 17.0123 17.6421 15.7571C19.1484 14.4999 20.2025 13.0226 20.7352 12.1792C20.7705 12.1232 20.7952 12.084 20.8159 12.05C20.8295 12.0276 20.8385 12.012 20.8446 12.0012C20.8446 12.0008 20.8446 12.0004 20.8446 12C20.8446 11.9996 20.8446 11.9992 20.8446 11.9988C20.8385 11.988 20.8295 11.9724 20.8159 11.95C20.7952 11.916 20.7705 11.8768 20.7352 11.8208C20.2025 10.9774 19.1484 9.50007 17.6421 8.24291C16.1382 6.9877 14.2437 6 12.0004 6C9.75707 6 7.86262 6.9877 6.35868 8.24291ZM5.07715 6.70743C6.80575 5.26472 9.13873 4 12.0004 4C14.8621 4 17.1951 5.26472 18.9237 6.70743C20.6499 8.14818 21.8334 9.81429 22.4262 10.7528C22.434 10.7653 22.4421 10.7779 22.4503 10.7908C22.5679 10.976 22.7206 11.2164 22.7978 11.5532C22.8601 11.8251 22.8601 12.1749 22.7978 12.4468C22.7206 12.7836 22.5679 13.024 22.4503 13.2092C22.4421 13.2221 22.434 13.2347 22.4262 13.2472C21.8334 14.1857 20.6499 15.8518 18.9237 17.2926C17.1951 18.7353 14.8621 20 12.0004 20C9.13873 20 6.80575 18.7353 5.07715 17.2926C3.3509 15.8518 2.16737 14.1857 1.57462 13.2472C1.56679 13.2348 1.55875 13.2221 1.55054 13.2092C1.43292 13.024 1.2802 12.7836 1.203 12.4468C1.14067 12.1749 1.14067 11.8251 1.203 11.5532C1.2802 11.2164 1.43292 10.976 1.55054 10.7908C1.55875 10.7779 1.56679 10.7652 1.57462 10.7528C2.16737 9.81429 3.3509 8.14818 5.07715 6.70743ZM12.0004 10C10.8958 10 10.0004 10.8954 10.0004 12C10.0004 13.1046 10.8958 14 12.0004 14C13.105 14 14.0004 13.1046 14.0004 12C14.0004 10.8954 13.105 10 12.0004 10ZM8.0004 12C8.0004 9.79086 9.79126 8 12.0004 8C14.2095 8 16.0004 9.79086 16.0004 12C16.0004 14.2091 14.2095 16 12.0004 16C9.79126 16 8.0004 14.2091 8.0004 12Z"
        fill="#303233" />
</svg>
