<svg width="16" height="16" viewBox="0 0 16 16" fill="none" xmlns="http://www.w3.org/2000/svg">
    <g clip-path="url(#clip0_53_8455)">
        <path fill-rule="evenodd" clip-rule="evenodd"
            d="M8 0.75C3.99594 0.75 0.75 3.99594 0.75 8C0.75 12.0041 3.99594 15.25 8 15.25C12.0041 15.25 15.25 12.0041 15.25 8C15.25 3.99594 12.0041 0.75 8 0.75ZM6.97765 5.42157C7.29711 5.68523 7.34236 6.15794 7.0787 6.47741C6.69005 6.94834 6.12638 7.25002 5.50026 7.25002C4.86658 7.25002 4.31977 6.94217 3.93067 6.48795C3.6612 6.17337 3.69776 5.69991 4.01233 5.43043C4.32691 5.16096 4.80037 5.19752 5.06984 5.51209C5.22741 5.69603 5.3806 5.75002 5.50026 5.75002C5.62747 5.75002 5.7838 5.68986 5.92181 5.52263C6.18546 5.20317 6.65818 5.15792 6.97765 5.42157ZM12.0787 6.47741C12.3424 6.15794 12.2971 5.68523 11.9776 5.42157C11.6582 5.15792 11.1855 5.20317 10.9218 5.52263C10.7838 5.68986 10.6275 5.75002 10.5003 5.75002C10.3806 5.75002 10.2274 5.69603 10.0698 5.51209C9.80037 5.19752 9.32691 5.16096 9.01233 5.43043C8.69776 5.69991 8.6612 6.17337 8.93067 6.48795C9.31977 6.94217 9.86658 7.25002 10.5003 7.25002C11.1264 7.25002 11.69 6.94834 12.0787 6.47741ZM11.0451 10.1513C11.3297 10.4522 11.3166 10.9269 11.0156 11.2115C10.7147 11.4962 10.24 11.483 9.95539 11.182C9.65692 10.8665 8.9597 10.2749 7.99992 10.2749C7.04076 10.2749 6.34381 10.8658 6.04497 11.1815C5.76024 11.4823 5.28555 11.4954 4.98471 11.2107C4.68387 10.926 4.6708 10.4513 4.95553 10.1504C5.35547 9.72785 6.42285 8.7749 7.99992 8.7749C9.57795 8.7749 10.6457 9.729 11.0451 10.1513Z"
            fill="#303233" />
    </g>
    <defs>
        <clipPath id="clip0_53_8455">
            <rect width="16" height="16" fill="white" />
        </clipPath>
    </defs>
</svg>
