<svg width="24" height="16" viewBox="0 0 24 16" fill="none" xmlns="http://www.w3.org/2000/svg">
    <path d="M3 5.49863V4.5H4.99726V11.5H3.893V5.49863H3Z" fill="#303233" />
    <path
        d="M13.3785 5.47159H10.1791V7.37213C10.3128 7.19386 10.5102 7.04423 10.7712 6.92326C11.0386 6.80229 11.3219 6.7418 11.6212 6.7418C12.156 6.7418 12.589 6.85641 12.9201 7.08562C13.2575 7.31483 13.4963 7.60453 13.6363 7.95471C13.7828 8.30489 13.856 8.67418 13.856 9.06256C13.856 9.53372 13.7637 9.95394 13.579 10.3232C13.4008 10.6861 13.1302 10.9727 12.7672 11.1828C12.4107 11.3929 11.9714 11.4979 11.4493 11.4979C10.7553 11.4979 10.1982 11.326 9.77795 10.9822C9.35773 10.6384 9.10624 10.1832 9.02347 9.61649H10.0836C10.1536 9.91574 10.3096 10.1545 10.5515 10.3328C10.7935 10.5047 11.0959 10.5906 11.4588 10.5906C11.9109 10.5906 12.2483 10.4538 12.4712 10.18C12.7004 9.90619 12.815 9.54327 12.815 9.09122C12.815 8.63279 12.7004 8.28261 12.4712 8.04067C12.242 7.79235 11.9045 7.6682 11.4588 7.6682C11.1469 7.6682 10.8826 7.74778 10.6661 7.90696C10.456 8.05977 10.3032 8.26988 10.2077 8.53729H9.17627V4.51654H13.3785V5.47159Z"
        fill="#303233" />
    <path
        d="M15.6464 6.64645C15.8417 6.45118 16.1583 6.45118 16.3536 6.64645L18 8.29289L19.6464 6.64645C19.8417 6.45118 20.1583 6.45118 20.3536 6.64645C20.5488 6.84171 20.5488 7.15829 20.3536 7.35355L18.7071 9L20.3536 10.6464C20.5488 10.8417 20.5488 11.1583 20.3536 11.3536C20.1583 11.5488 19.8417 11.5488 19.6464 11.3536L18 9.70711L16.3536 11.3536C16.1583 11.5488 15.8417 11.5488 15.6464 11.3536C15.4512 11.1583 15.4512 10.8417 15.6464 10.6464L17.2929 9L15.6464 7.35355C15.4512 7.15829 15.4512 6.84171 15.6464 6.64645Z"
        fill="#303233" />
    <path
        d="M7.5 11.5C7.77614 11.5 8 11.2761 8 11C8 10.7239 7.77614 10.5 7.5 10.5C7.22386 10.5 7 10.7239 7 11C7 11.2761 7.22386 11.5 7.5 11.5Z"
        fill="#303233" />
</svg>
