<svg width="24" height="24" viewBox="0 0 24 24" fill="none" xmlns="http://www.w3.org/2000/svg">
    <path fill-rule="evenodd" clip-rule="evenodd"
        d="M16 1C16.5523 1 17 1.44772 17 2V3H19C20.6569 3 22 4.34315 22 6V20C22 21.6569 20.6569 23 19 23H5C3.34315 23 2 21.6569 2 20V6C2 4.34315 3.34315 3 5 3H7V2C7 1.44772 7.44772 1 8 1C8.55228 1 9 1.44772 9 2V3H15V2C15 1.44772 15.4477 1 16 1ZM7 5V6C7 6.55228 7.44772 7 8 7C8.55228 7 9 6.55228 9 6V5H15V6C15 6.55228 15.4477 7 16 7C16.5523 7 17 6.55228 17 6V5H19C19.5523 5 20 5.44772 20 6V8C20 8.55228 19.5523 9 19 9H5C4.44772 9 4 8.55228 4 8V6C4 5.44772 4.44772 5 5 5H7ZM9 12C8.44772 12 8 12.4477 8 13V13.001C8 13.5533 8.44772 14.001 9 14.001C9.55228 14.001 10.001 13.5533 10.001 13.001V13C10.001 12.4477 9.55228 12 9 12ZM12 12C11.4477 12 11 12.4477 11 13V13.001C11 13.5533 11.4477 14.001 12 14.001C12.5523 14.001 13.001 13.5533 13.001 13.001V13C13.001 12.4477 12.5523 12 12 12ZM11 16C11 15.4477 11.4477 15 12 15C12.5523 15 13.001 15.4477 13.001 16C13.001 16.5523 12.5533 17.001 12.001 17.001C11.4487 17.001 11 16.5523 11 16ZM18 12C17.4477 12 17 12.4477 17 13V13.001C17 13.5533 17.4477 14.001 18 14.001C18.5523 14.001 19.001 13.5533 19.001 13.001V13C19.001 12.4477 18.5523 12 18 12ZM17 16C17 15.4477 17.4477 15 18 15C18.5523 15 19.001 15.4477 19.001 16C19.001 16.5523 18.5533 17.001 18.001 17.001C17.4487 17.001 17 16.5523 17 16ZM9 15C8.44772 15 8 15.4477 8 16C8 16.5523 8.44772 17.001 9 17.001C9.55228 17.001 10.001 16.5533 10.001 16.001C10.001 15.4487 9.55228 15 9 15ZM5 16C5 15.4477 5.44772 15 6 15C6.55228 15 7.001 15.4477 7.001 16C7.001 16.5523 6.55328 17.001 6.001 17.001C5.44872 17.001 5 16.5523 5 16ZM12 18C11.4477 18 11 18.4477 11 19C11 19.5523 11.4477 20.001 12 20.001C12.5523 20.001 13.001 19.5533 13.001 19.001C13.001 18.4487 12.5523 18 12 18ZM14 13C14 12.4477 14.4477 12 15 12H15.001C15.5533 12 16.001 12.4477 16.001 13V13.001C16.001 13.5533 15.5533 14.001 15.001 14.001H15C14.4477 14.001 14 13.5533 14 13.001V13ZM15 15C14.4477 15 14 15.4477 14 16C14 16.5523 14.4477 17.001 15 17.001H15.001C15.5533 17.001 16.001 16.5533 16.001 16.001C16.001 15.4487 15.5533 15 15.001 15H15ZM8 19C8 18.4477 8.44772 18 9 18C9.55228 18 10.001 18.4477 10.001 19C10.001 19.5523 9.55328 20.001 9.001 20.001C8.44872 20.001 8 19.5523 8 19ZM6 18C5.44772 18 5 18.4477 5 19C5 19.5523 5.44772 20.001 6 20.001C6.55228 20.001 7.001 19.5533 7.001 19.001C7.001 18.4487 6.55228 18 6 18Z"
        fill="#303233" />
</svg>
