<svg width="24" height="24" viewBox="0 0 24 24" fill="none" xmlns="http://www.w3.org/2000/svg">
    <path fill-rule="evenodd" clip-rule="evenodd"
        d="M15.0972 5.24999C15.7488 5.2498 16.1998 5.24967 16.6328 5.35361C17.0154 5.44548 17.3812 5.59699 17.7167 5.8026C18.0964 6.03526 18.4152 6.35427 18.8758 6.81513C18.8957 6.83501 18.9158 6.85515 18.9362 6.87556L21.2891 9.22848C21.6668 9.60616 21.9821 9.92141 22.2186 10.2C22.4653 10.4906 22.67 10.7902 22.787 11.1502C22.9664 11.7025 22.9664 12.2975 22.787 12.8498C22.67 13.2098 22.4653 13.5094 22.2186 13.8C21.9821 14.0786 21.6668 14.3938 21.2891 14.7715L18.9362 17.1244C18.9158 17.1449 18.8957 17.165 18.8758 17.1849C18.4152 17.6457 18.0964 17.9647 17.7167 18.1974C17.3812 18.403 17.0154 18.5545 16.6328 18.6464C16.1998 18.7503 15.7488 18.7502 15.0972 18.75C15.0691 18.75 15.0406 18.75 15.0118 18.75H6.76788C5.95505 18.75 5.29944 18.75 4.76853 18.7066C4.2219 18.662 3.74175 18.5676 3.29754 18.3413C2.59193 17.9818 2.01825 17.4081 1.65873 16.7025C1.43239 16.2582 1.33803 15.7781 1.29336 15.2315C1.24999 14.7006 1.24999 14.0449 1.25 13.2321V10.7679C1.24999 9.95506 1.24999 9.29944 1.29336 8.76853C1.33803 8.2219 1.43239 7.74176 1.65873 7.29754C2.01825 6.59193 2.59193 6.01825 3.29754 5.65873C3.74175 5.43239 4.2219 5.33803 4.76853 5.29337C5.29944 5.24999 5.95506 5.24999 6.7679 5.25L15.0118 5.25C15.0406 5.25 15.0691 5.24999 15.0972 5.24999Z"
        fill="#303233" />
</svg>
