<svg width="16" height="16" viewBox="0 0 16 16" fill="none" xmlns="http://www.w3.org/2000/svg">
    <path
        d="M0.75 4.00002C0.749991 2.75737 1.75735 1.75 3 1.75H6.79318C7.3122 1.75 7.80997 1.9562 8.17694 2.32324C8.45015 2.59649 8.82072 2.75 9.20712 2.75H13.0001C14.2427 2.75 15.2501 3.75736 15.2501 5V7C15.2501 7.41421 14.9142 7.75 14.5 7.75C14.0858 7.75 13.75 7.41421 13.75 7L13.7502 6.98477V5C13.7502 4.58579 13.4144 4.25 13.0002 4.25H3.00015C2.58594 4.25 2.25015 4.58579 2.25015 5V12C2.25015 12.4142 2.58594 12.75 3.00015 12.75L7.49829 12.75L7.5 12.75C7.91421 12.75 8.25 13.0858 8.25 13.5C8.25 13.9142 7.91421 14.25 7.5 14.25L3.00006 14.25C1.75742 14.25 0.750065 13.2427 0.750056 12L0.75 4.00002Z"
        fill="#303233" />
    <path fill-rule="evenodd" clip-rule="evenodd"
        d="M9.25 12C9.25 10.2051 10.7051 8.75 12.5 8.75C14.2949 8.75 15.75 10.2051 15.75 12C15.75 13.7949 14.2949 15.25 12.5 15.25C10.7051 15.25 9.25 13.7949 9.25 12ZM12.5 10.25C11.5335 10.25 10.75 11.0335 10.75 12C10.75 12.2063 10.7857 12.4043 10.8513 12.5881L13.0881 10.3513C12.9043 10.2857 12.7063 10.25 12.5 10.25ZM12.5 13.75C12.2937 13.75 12.0957 13.7143 11.912 13.6488L14.1488 11.412C14.2143 11.5957 14.25 11.7937 14.25 12C14.25 12.9665 13.4665 13.75 12.5 13.75Z"
        fill="#303233" />
</svg>
