<svg width="16" height="16" viewBox="0 0 16 16" fill="none" xmlns="http://www.w3.org/2000/svg">
    <g clip-path="url(#clip0_8727_9)">
        <g style="mix-blend-mode:multiply">
            <path
                d="M13.75 8C13.75 4.82436 11.1756 2.25 8 2.25C4.82436 2.25 2.25 4.82436 2.25 8C2.25 11.1756 4.82436 13.75 8 13.75C8.48215 13.75 8.94953 13.6912 9.39551 13.5801C9.79741 13.4799 10.2045 13.7241 10.3047 14.126C10.4048 14.5278 10.1605 14.9348 9.75879 15.0352C9.19503 15.1757 8.60549 15.25 8 15.25C3.99594 15.25 0.75 12.0041 0.75 8C0.75 3.99594 3.99594 0.75 8 0.75C12.0041 0.75 15.25 3.99594 15.25 8C15.25 8.60396 15.1759 9.19158 15.0361 9.75391L14.9727 9.99316C14.4604 11.7862 12.8423 13.2461 10.8154 13.2461C8.83259 13.246 7.25 11.6109 7.25 9.625V7.10254L5.82227 8.53027C5.52943 8.82311 5.05463 8.823 4.76172 8.53027C4.46883 8.23738 4.46883 7.76262 4.76172 7.46973L7.46973 4.76172L7.52637 4.70996C7.82095 4.46952 8.25562 4.48707 8.53027 4.76172L11.2383 7.46973L11.29 7.52637C11.5305 7.82095 11.5129 8.25562 11.2383 8.53027C10.9638 8.8046 10.5299 8.82196 10.2354 8.58203L10.1777 8.53027L8.75 7.10254V9.625C8.75 10.8101 9.68837 11.746 10.8154 11.7461C12.0823 11.7461 13.1759 10.8213 13.5303 9.58105C13.6733 9.07962 13.75 8.54939 13.75 8Z"
                fill="#303233" />
        </g>
    </g>
    <defs>
        <clipPath id="clip0_8727_9">
            <rect width="16" height="16" fill="white" />
        </clipPath>
    </defs>
</svg>
