<svg width="24" height="24" viewBox="0 0 24 24" fill="none" xmlns="http://www.w3.org/2000/svg">
    <path fill-rule="evenodd" clip-rule="evenodd"
        d="M6.57514 3.23332C10.0728 1.9217 13.9272 1.9217 17.4249 3.23332L18.9656 3.81109C20.0389 4.21359 20.75 5.23968 20.75 6.386V12C20.75 14.8673 19.1138 17.2553 17.3738 18.9929C15.6226 20.7419 13.6652 21.9346 12.8031 22.419C12.3005 22.7013 11.6995 22.7013 11.1969 22.419C10.3348 21.9346 8.37744 20.7419 6.62617 18.9929C4.88625 17.2553 3.25 14.8673 3.25 12V6.386C3.25 5.23968 3.96107 4.21359 5.03441 3.81109L6.57514 3.23332ZM9 7.25C9.41421 7.25 9.75 7.58579 9.75 8V14.5C9.75 14.9142 9.41421 15.25 9 15.25C8.58579 15.25 8.25 14.9142 8.25 14.5V8C8.25 7.58579 8.58579 7.25 9 7.25ZM15.75 8C15.75 7.58579 15.4142 7.25 15 7.25C14.5858 7.25 14.25 7.58579 14.25 8V14.5C14.25 14.9142 14.5858 15.25 15 15.25C15.4142 15.25 15.75 14.9142 15.75 14.5V8Z"
        fill="#303233" />
</svg>
