<svg width="16" height="16" viewBox="0 0 16 16" fill="none" xmlns="http://www.w3.org/2000/svg">
    <path
        d="M13 0.5C13.2761 0.5 13.5 0.723858 13.5 1V2.5H15C15.2761 2.5 15.5 2.72386 15.5 3C15.5 3.27614 15.2761 3.5 15 3.5H13.5V5C13.5 5.27614 13.2761 5.5 13 5.5C12.7239 5.5 12.5 5.27614 12.5 5V3.5H11C10.7239 3.5 10.5 3.27614 10.5 3C10.5 2.72386 10.7239 2.5 11 2.5H12.5V1C12.5 0.723858 12.7239 0.5 13 0.5Z"
        fill="#303233" />
    <path
        d="M4 6C4 4.89543 4.89543 4 6 4C7.10457 4 8 4.89543 8 6C8 7.10457 7.10457 8 6 8C4.89543 8 4 7.10457 4 6Z"
        fill="#303233" />
    <path
        d="M3.25 1C2.00736 1 1 2.00736 1 3.25V12.75C1 13.9926 2.00736 15 3.25 15H12.75C13.9926 15 15 13.9926 15 12.75V10.9142C15 10.5164 14.842 10.1349 14.5607 9.85355L11.5607 6.85355C10.9749 6.26777 10.0251 6.26777 9.43934 6.85355L2.52471 13.7682C2.20709 13.5415 2 13.1699 2 12.75V3.25C2 2.55964 2.55964 2 3.25 2H8C8.27614 2 8.5 1.77614 8.5 1.5C8.5 1.22386 8.27614 1 8 1H3.25Z"
        fill="#303233" />
</svg>
