<svg width="16" height="16" viewBox="0 0 16 16" fill="none" xmlns="http://www.w3.org/2000/svg">
    <path fill-rule="evenodd" clip-rule="evenodd"
        d="M8 2C6.34315 2 5 3.34315 5 5C5 6.65685 6.34315 8 8 8C9.65685 8 11 6.65685 11 5C11 3.34315 9.65685 2 8 2ZM6 5C6 3.89543 6.89543 3 8 3C9.10457 3 10 3.89543 10 5C10 6.10457 9.10457 7 8 7C6.89543 7 6 6.10457 6 5Z"
        fill="#303233" />
    <path
        d="M3.58971 13.5995C4.00661 11.5457 5.82321 10 7.99969 10C10.1762 10 11.9928 11.5457 12.4097 13.5995C12.4646 13.8701 12.7285 14.0449 12.9991 13.99C13.2698 13.9351 13.4446 13.6712 13.3897 13.4005C12.88 10.8899 10.6611 9 7.99969 9C5.33825 9 3.11934 10.8899 2.6097 13.4005C2.55477 13.6712 2.72962 13.9351 3.00024 13.99C3.27086 14.0449 3.53478 13.8701 3.58971 13.5995Z"
        fill="#303233" />
</svg>
