<svg width="24" height="24" viewBox="0 0 24 24" fill="none" xmlns="http://www.w3.org/2000/svg">
    <path fill-rule="evenodd" clip-rule="evenodd"
        d="M8.69972 12C8.62572 12.082 8.46272 12.26 8.29872 12.424L5.36672 15.356C4.93672 15.786 4.73272 16.01 4.57872 16.261C4.41472 16.529 4.29272 16.822 4.21972 17.128C4.15072 17.414 4.13672 17.717 4.13672 18.325V20.4C4.13672 21.205 4.19772 21.6 4.35472 21.908C4.54672 22.284 4.85272 22.59 5.22872 22.782C5.53672 22.939 5.93172 23 6.73672 23H17.5367C18.3417 23 18.7367 22.939 19.0447 22.782C19.4207 22.59 19.7267 22.284 19.9187 21.908C20.0757 21.6 20.1367 21.205 20.1367 20.4V18.325C20.1367 17.717 20.1227 17.414 20.0537 17.128C19.9807 16.822 19.8587 16.53 19.6947 16.261C19.5407 16.01 19.3367 15.786 18.9067 15.356L15.9757 12.424C15.8107 12.26 15.6477 12.082 15.5737 12C15.6477 11.918 15.8107 11.74 15.9747 11.576L18.9067 8.644C19.3367 8.214 19.5407 7.99 19.6947 7.739C19.8587 7.471 19.9807 7.178 20.0537 6.872C20.1227 6.586 20.1367 6.283 20.1367 5.675V3.6C20.1367 2.795 20.0757 2.4 19.9187 2.092C19.7267 1.716 19.4207 1.41 19.0447 1.218C18.7367 1.061 18.3417 1 17.5367 1H6.73672C5.93172 1 5.53672 1.061 5.22872 1.218C4.85272 1.41 4.54672 1.716 4.35472 2.092C4.19772 2.4 4.13672 2.795 4.13672 3.6V5.675C4.13672 6.283 4.15072 6.586 4.21972 6.872C4.29272 7.178 4.41472 7.471 4.57872 7.739C4.73272 7.99 4.93672 8.214 5.36672 8.644L8.29872 11.576C8.46272 11.74 8.62572 11.918 8.69972 12ZM18.1207 3.016C18.1267 3.126 18.1367 3.367 18.1367 3.6V5.675C18.1367 6.045 18.1507 6.231 18.1087 6.405C18.0847 6.507 18.0437 6.605 17.9897 6.694C17.8957 6.847 17.7537 6.968 17.4927 7.23L14.5607 10.162C13.9917 10.731 13.7557 11.054 13.6487 11.382C13.5187 11.784 13.5187 12.216 13.6487 12.618C13.7557 12.946 13.9917 13.269 14.5607 13.839L17.4927 16.77C17.7537 17.032 17.8957 17.153 17.9897 17.306C18.0437 17.395 18.0847 17.493 18.1087 17.595C18.1507 17.769 18.1367 17.955 18.1367 18.325V20.4C18.1367 20.633 18.1267 20.874 18.1207 20.984C18.0107 20.99 17.7697 21 17.5367 21H6.73672C6.50372 21 6.26272 20.99 6.15272 20.984C6.14672 20.874 6.13672 20.633 6.13672 20.4V18.325C6.13672 17.955 6.12272 17.769 6.16472 17.595C6.18872 17.493 6.22972 17.395 6.28372 17.306C6.37772 17.153 6.51872 17.032 6.78072 16.77L9.71272 13.839C10.2817 13.269 10.5177 12.946 10.6247 12.618C10.7547 12.216 10.7547 11.784 10.6247 11.382C10.5177 11.054 10.2817 10.731 9.71272 10.161C9.71272 10.162 6.78072 7.23 6.78072 7.23C6.51872 6.968 6.37772 6.847 6.28372 6.694C6.22972 6.605 6.18872 6.507 6.16472 6.405C6.12272 6.231 6.13672 6.045 6.13672 5.675V3.6C6.13672 3.367 6.14672 3.126 6.15272 3.016C6.26272 3.01 6.50372 3 6.73672 3H17.5367C17.7697 3 18.0107 3.01 18.1207 3.016Z"
        fill="#303233" />
</svg>
