<svg width="24" height="24" viewBox="0 0 24 24" fill="none" xmlns="http://www.w3.org/2000/svg">
    <path
        d="M10 12C10 10.8954 10.8954 10 12 10C13.1046 10 14 10.8954 14 12C14 13.1046 13.1046 14 12 14C10.8954 14 10 13.1046 10 12Z"
        fill="#303233" />
    <path fill-rule="evenodd" clip-rule="evenodd"
        d="M7.88534 19.121C8.14634 19.271 8.35334 19.501 8.47534 19.777L9.06034 21.092C9.31234 21.66 9.72434 22.142 10.2453 22.481C10.7663 22.82 11.3743 23 11.9963 23C12.6173 23 13.2263 22.82 13.7473 22.481C14.2683 22.142 14.6803 21.659 14.9323 21.091L15.5163 19.778C15.6383 19.505 15.8433 19.276 16.1033 19.126C16.3653 18.975 16.6673 18.911 16.9683 18.942L18.3973 19.094C19.0153 19.16 19.6393 19.045 20.1933 18.762C20.7473 18.48 21.2073 18.044 21.5173 17.506C21.8283 16.968 21.9763 16.351 21.9443 15.73C21.9113 15.11 21.6993 14.512 21.3333 14.009L20.4883 12.848C20.3113 12.603 20.2163 12.308 20.2183 12.005V12C20.2183 11.698 20.3133 11.404 20.4913 11.159L21.3383 9.996C21.7033 9.494 21.9153 8.896 21.9483 8.275C21.9813 7.655 21.8333 7.038 21.5223 6.5C21.2113 5.962 20.7513 5.525 20.1973 5.243C19.6443 4.961 19.0193 4.846 18.4013 4.911L16.9723 5.063C16.6723 5.095 16.3693 5.031 16.1083 4.88C15.8483 4.729 15.6433 4.499 15.5213 4.225L15.5193 4.22L14.9303 2.906C14.6803 2.341 14.2683 1.858 13.7473 1.519C13.2263 1.18 12.6173 1 11.9963 1C11.3743 1 10.7663 1.18 10.2453 1.519C9.72434 1.858 9.31234 2.34 9.06034 2.909L8.47534 4.223L8.47434 4.225C8.35334 4.499 8.14834 4.729 7.88834 4.88C7.62634 5.031 7.32434 5.095 7.02434 5.063L5.59034 4.911C4.97234 4.846 4.34834 4.961 3.79434 5.243C3.24034 5.525 2.78034 5.962 2.47034 6.5C2.15934 7.038 2.01134 7.655 2.04334 8.275C2.07634 8.896 2.28834 9.494 2.65434 9.996L3.50034 11.159C3.67834 11.404 3.77434 11.698 3.77334 12C3.77434 12.302 3.67834 12.596 3.50034 12.841L2.65434 14.004C2.28834 14.506 2.07634 15.104 2.04334 15.725C2.01134 16.345 2.15934 16.962 2.47034 17.5C2.78134 18.038 3.24134 18.475 3.79434 18.757C4.34834 19.038 4.97234 19.154 5.59034 19.089L7.01934 18.937C7.32034 18.905 7.62334 18.97 7.88534 19.121ZM12 8C9.79086 8 8 9.79086 8 12C8 14.2091 9.79086 16 12 16C14.2091 16 16 14.2091 16 12C16 9.79086 14.2091 8 12 8Z"
        fill="#303233" />
</svg>
