<svg width="16" height="16" viewBox="0 0 16 16" fill="none" xmlns="http://www.w3.org/2000/svg">
    <path fill-rule="evenodd" clip-rule="evenodd"
        d="M10.2306 0.75H5.76942C5.21789 0.74999 4.75893 0.749982 4.38428 0.780592C3.99397 0.812481 3.6296 0.881295 3.28565 1.05655C2.75645 1.32619 2.32619 1.75645 2.05655 2.28565C1.8813 2.6296 1.81248 2.99397 1.78059 3.38428C1.74998 3.75893 1.74999 4.21787 1.75 4.76941V11.2306C1.74999 11.7821 1.74998 12.2411 1.78059 12.6157C1.81248 13.006 1.8813 13.3704 2.05655 13.7143C2.32619 14.2436 2.75645 14.6738 3.28565 14.9435C3.6296 15.1187 3.99397 15.1875 4.38428 15.2194C4.75893 15.25 5.21787 15.25 5.7694 15.25H9.56802L8.40901 14.091C7.53033 13.2123 7.53033 11.7877 8.40901 10.909C9.25715 10.0609 10.6139 10.0314 11.4974 10.8206L12.909 9.40901C13.2847 9.03336 13.7601 8.8183 14.25 8.76385V4.7694C14.25 4.21787 14.25 3.75893 14.2194 3.38428C14.1875 2.99397 14.1187 2.6296 13.9435 2.28565C13.6738 1.75645 13.2436 1.32619 12.7143 1.05655C12.3704 0.881295 12.006 0.812481 11.6157 0.780592C11.2411 0.749982 10.7821 0.74999 10.2306 0.75Z"
        fill="#303233" />
    <path fill-rule="evenodd" clip-rule="evenodd"
        d="M15.0303 10.4697C15.3232 10.7626 15.3232 11.2374 15.0303 11.5303L12.0303 14.5303C11.7374 14.8232 11.2626 14.8232 10.9697 14.5303L9.46967 13.0303C9.17678 12.7374 9.17678 12.2626 9.46967 11.9697C9.76256 11.6768 10.2374 11.6768 10.5303 11.9697L11.5 12.9393L13.9697 10.4697C14.2626 10.1768 14.7374 10.1768 15.0303 10.4697Z"
        fill="#303233" />
</svg>
