<svg width="24" height="24" viewBox="0 0 24 24" fill="none" xmlns="http://www.w3.org/2000/svg">
    <path fill-rule="evenodd" clip-rule="evenodd"
        d="M17.5126 2.99927C13.9584 1.66642 10.0416 1.66642 6.48736 2.99927L4.94663 3.57704C3.77572 4.01613 3 5.13549 3 6.38603V12C3 14.9647 4.69041 17.413 6.44951 19.1699C8.22373 20.9418 10.2032 22.1474 11.0745 22.637C11.6531 22.962 12.3469 22.962 12.9255 22.637C13.7968 22.1474 15.7763 20.9418 17.5505 19.1699C19.3096 17.413 21 14.9647 21 12V6.38603C21 5.13549 20.2243 4.01613 19.0534 3.57704L17.5126 2.99927ZM15.7071 10.7071C16.0976 10.3166 16.0976 9.68342 15.7071 9.29289C15.3166 8.90237 14.6834 8.90237 14.2929 9.29289L11 12.5858L9.70711 11.2929C9.31658 10.9024 8.68342 10.9024 8.29289 11.2929C7.90237 11.6834 7.90237 12.3166 8.29289 12.7071L10.2929 14.7071C10.4804 14.8946 10.7348 15 11 15C11.2652 15 11.5196 14.8946 11.7071 14.7071L15.7071 10.7071Z"
        fill="#303233" />
</svg>
