<svg width="24" height="24" viewBox="0 0 24 24" fill="none" xmlns="http://www.w3.org/2000/svg">
    <path
        d="M20.25 12C20.25 14.1114 19.4445 16.2227 17.8336 17.8336C16.3682 19.2991 15.386 20.1533 14.75 20.6479L14.75 16C14.75 15.5858 14.4142 15.25 14 15.25C13.5858 15.25 13.25 15.5858 13.25 16L13.25 22C13.25 22.1989 13.329 22.3897 13.4697 22.5303C13.6103 22.671 13.8011 22.75 14 22.75H20C20.4142 22.75 20.75 22.4142 20.75 22C20.75 21.5858 20.4142 21.25 20 21.25H16.3814C17.022 20.7023 17.8441 19.9445 18.8943 18.8943C20.7981 16.9905 21.75 14.4952 21.75 12C21.75 11.5858 21.4142 11.25 21 11.25C20.5858 11.25 20.25 11.5858 20.25 12Z"
        fill="#303233" />
    <path
        d="M4.00002 1.25C3.58581 1.24999 3.25001 1.58576 3.25 1.99998C3.24999 2.41419 3.58576 2.74999 3.99998 2.75L7.61866 2.75012C6.97807 3.29783 6.15594 4.05568 5.10571 5.10591C1.2981 8.91352 1.2981 15.0869 5.10571 18.8945C6.45394 20.2427 8.10083 21.1145 9.83405 21.5078C10.238 21.5994 10.6398 21.3463 10.7314 20.9423C10.8231 20.5384 10.5699 20.1366 10.166 20.045C8.70061 19.7125 7.30868 18.9761 6.16637 17.8338C2.94454 14.612 2.94454 9.38839 6.16637 6.16657C7.63179 4.70114 8.61399 3.8469 9.25 3.35231V8C9.25 8.41421 9.58579 8.75 10 8.75C10.4142 8.75 10.75 8.41421 10.75 8V2.00019C10.75 1.58599 10.4142 1.25021 10 1.25019L4.00002 1.25Z"
        fill="#303233" />
    <path
        d="M19 1.25C19.4142 1.25 19.75 1.58579 19.75 2V4.25H22C22.4142 4.25 22.75 4.58579 22.75 5C22.75 5.41421 22.4142 5.75 22 5.75H19.75V8C19.75 8.41421 19.4142 8.75 19 8.75C18.5858 8.75 18.25 8.41421 18.25 8V5.75H16C15.5858 5.75 15.25 5.41421 15.25 5C15.25 4.58579 15.5858 4.25 16 4.25H18.25V2C18.25 1.58579 18.5858 1.25 19 1.25Z"
        fill="#303233" />
</svg>
