<svg width="16" height="16" viewBox="0 0 16 16" fill="none" xmlns="http://www.w3.org/2000/svg">
    <path fill-rule="evenodd" clip-rule="evenodd"
        d="M1.75 6.564C1.75 4.55783 3.26997 2.25 5.73889 2.25C6.71969 2.25 7.46481 2.60304 8 3.02251C8.53519 2.60304 9.28031 2.25 10.2611 2.25C12.73 2.25 14.25 4.55783 14.25 6.564C14.25 7.63139 13.8368 8.60723 13.2772 9.44143C12.7171 10.2765 11.9832 11.0107 11.27 11.6118C10.554 12.2153 9.83813 12.7018 9.29523 13.0377C9.02327 13.2059 8.79146 13.3384 8.6207 13.4306C8.53592 13.4764 8.46251 13.5142 8.40453 13.5422C8.37654 13.5558 8.34538 13.5703 8.31507 13.5831C8.30086 13.5891 8.27736 13.5987 8.24956 13.6081C8.23594 13.6127 8.21238 13.6204 8.183 13.6276C8.16436 13.6322 8.09241 13.65 8 13.65C7.90759 13.65 7.83621 13.6324 7.81758 13.6278C7.7882 13.6205 7.76406 13.6127 7.75044 13.6081C7.72264 13.5987 7.69914 13.5891 7.68493 13.5831C7.65462 13.5703 7.62346 13.5558 7.59547 13.5422C7.53749 13.5142 7.46408 13.4764 7.3793 13.4306C7.20855 13.3384 6.97673 13.2059 6.70477 13.0377C6.16187 12.7018 5.44602 12.2153 4.73 11.6118C4.01679 11.0107 3.28295 10.2765 2.72278 9.44143C2.1632 8.60723 1.75 7.63139 1.75 6.564Z"
        fill="#303233" />
</svg>
