<svg width="24" height="24" viewBox="0 0 24 24" fill="none" xmlns="http://www.w3.org/2000/svg">
    <g clip-path="url(#clip0_53_7269)">
        <path
            d="M12 0.5C11.2326 0.5 10.4823 0.575234 9.75618 0.718881C9.48529 0.772471 9.30913 1.03552 9.36272 1.30641C9.41631 1.5773 9.67936 1.75346 9.95025 1.69987C10.6128 1.5688 11.2981 1.5 12 1.5C12.7019 1.5 13.3872 1.5688 14.0497 1.69987C14.3206 1.75346 14.5837 1.5773 14.6373 1.30641C14.6909 1.03552 14.5147 0.772471 14.2438 0.71888C13.5177 0.575234 12.7674 0.5 12 0.5Z"
            fill="#303233" />
        <path
            d="M18.3899 2.4373C18.1605 2.28367 17.8499 2.34516 17.6963 2.57462C17.5427 2.80409 17.6041 3.11464 17.8336 3.26826C18.9789 4.03499 19.965 5.02113 20.7317 6.16639C20.8854 6.39585 21.1959 6.45733 21.4254 6.30371C21.6548 6.15009 21.7163 5.83953 21.5627 5.61007C20.7233 4.35619 19.6438 3.27674 18.3899 2.4373Z"
            fill="#303233" />
        <path
            d="M6.16639 3.26827C6.39585 3.11464 6.45733 2.80409 6.30371 2.57462C6.15009 2.34516 5.83953 2.28367 5.61007 2.4373C4.35619 3.27675 3.27674 4.35619 2.4373 5.61007C2.28367 5.83953 2.34516 6.15009 2.57462 6.30371C2.80409 6.45733 3.11464 6.39585 3.26826 6.16639C4.03499 5.02113 5.02113 4.03499 6.16639 3.26827Z"
            fill="#303233" />
        <path
            d="M1.69987 9.95025C1.75346 9.67936 1.5773 9.41632 1.30641 9.36272C1.03552 9.30913 0.772471 9.48529 0.71888 9.75618C0.575234 10.4823 0.5 11.2326 0.5 12C0.5 12.7674 0.575234 13.5177 0.718881 14.2438C0.772471 14.5147 1.03552 14.6909 1.30641 14.6373C1.5773 14.5837 1.75346 14.3206 1.69987 14.0497C1.5688 13.3872 1.5 12.7019 1.5 12C1.5 11.2981 1.5688 10.6128 1.69987 9.95025Z"
            fill="#303233" />
        <path
            d="M23.2811 9.75618C23.2275 9.48529 22.9645 9.30913 22.6936 9.36272C22.4227 9.41631 22.2465 9.67936 22.3001 9.95025C22.4312 10.6128 22.5 11.2981 22.5 12C22.5 12.7019 22.4312 13.3872 22.3001 14.0497C22.2465 14.3206 22.4227 14.5837 22.6936 14.6373C22.9645 14.6909 23.2275 14.5147 23.2811 14.2438C23.4248 13.5177 23.5 12.7674 23.5 12C23.5 11.2326 23.4248 10.4823 23.2811 9.75618Z"
            fill="#303233" />
        <path
            d="M3.26827 17.8336C3.11464 17.6041 2.80409 17.5427 2.57462 17.6963C2.34516 17.8499 2.28367 18.1605 2.4373 18.3899C3.27675 19.6438 4.35619 20.7233 5.61007 21.5627C5.83953 21.7163 6.15009 21.6548 6.30371 21.4254C6.45733 21.1959 6.39585 20.8854 6.16639 20.7317C5.02113 19.965 4.03499 18.9789 3.26827 17.8336Z"
            fill="#303233" />
        <path
            d="M21.5627 18.3899C21.7163 18.1605 21.6548 17.8499 21.4254 17.6963C21.1959 17.5427 20.8854 17.6041 20.7317 17.8336C19.965 18.9789 18.9789 19.965 17.8336 20.7317C17.6041 20.8854 17.5427 21.1959 17.6963 21.4254C17.8499 21.6548 18.1605 21.7163 18.3899 21.5627C19.6438 20.7233 20.7233 19.6438 21.5627 18.3899Z"
            fill="#303233" />
        <path
            d="M9.95025 22.3001C9.67936 22.2465 9.41632 22.4227 9.36272 22.6936C9.30913 22.9645 9.48529 23.2275 9.75618 23.2811C10.4823 23.4248 11.2326 23.5 12 23.5C12.7674 23.5 13.5177 23.4248 14.2438 23.2811C14.5147 23.2275 14.6909 22.9645 14.6373 22.6936C14.5837 22.4227 14.3206 22.2465 14.0497 22.3001C13.3872 22.4312 12.7019 22.5 12 22.5C11.2981 22.5 10.6128 22.4312 9.95025 22.3001Z"
            fill="#303233" />
        <path
            d="M9.01014 11.8821H11.3982V12.073C11.3982 12.5072 11.347 12.8915 11.2447 13.2258C11.1449 13.5352 10.9765 13.8247 10.7394 14.0942C10.2029 14.6981 9.52043 15 8.69198 15C7.8835 15 7.19105 14.708 6.61463 14.1241C6.03821 13.5377 5.75 12.8341 5.75 12.0131C5.75 11.1747 6.0432 10.4635 6.6296 9.8796C7.216 9.2932 7.92966 9 8.77059 9C9.22224 9 9.64395 9.09233 10.0357 9.27698C10.41 9.46163 10.7781 9.76107 11.1399 10.1753L10.5186 10.7704C10.0444 10.1391 9.46678 9.82346 8.78556 9.82346C8.1742 9.82346 7.66142 10.0343 7.24719 10.456C6.83297 10.8702 6.62586 11.3893 6.62586 12.0131C6.62586 12.6569 6.85668 13.1871 7.31831 13.6039C7.75 13.9906 8.21787 14.184 8.72193 14.184C9.15112 14.184 9.53665 14.0393 9.87851 13.7498C10.2204 13.4579 10.4113 13.1085 10.4512 12.7018H9.01014V11.8821Z"
            fill="#303233" />
        <path d="M13.3707 9.11229V14.8915H12.4986V9.11229H13.3707Z" fill="#303233" />
        <path
            d="M15.6315 9.932H17.6452V9.11229H14.7594V14.8915H15.6315V12.1404H17.5741V11.3206H15.6315V9.932Z"
            fill="#303233" />
    </g>
    <defs>
        <clipPath id="clip0_53_7269">
            <rect width="24" height="24" fill="white" />
        </clipPath>
    </defs>
</svg>
