<svg width="16" height="16" viewBox="0 0 16 16" fill="none" xmlns="http://www.w3.org/2000/svg">
    <path
        d="M5.00025 7.97341C4.73983 7.88157 4.60318 7.596 4.69502 7.33559C5.18465 5.94725 6.50045 5 7.99647 5C8.99684 5 9.92031 5.42365 10.5686 6.12582L10.6621 5.64465C10.7107 5.39444 10.9381 5.22435 11.186 5.24111L11.2483 5.24925C11.4985 5.29789 11.6686 5.52526 11.6518 5.77315L11.6437 5.83546L11.3064 7.57071C11.2578 7.82092 11.0304 7.99101 10.7825 7.97426L10.7202 7.96611L8.98493 7.62881C8.71387 7.57612 8.53684 7.31367 8.58953 7.04261C8.63817 6.79239 8.86554 6.62231 9.11343 6.63906L9.17574 6.6472L9.80056 6.76872C9.33937 6.28831 8.69417 5.99998 7.99647 5.99998C6.92779 5.99998 5.98773 6.67674 5.63807 7.66818C5.54623 7.92859 5.26067 8.06525 5.00025 7.97341Z"
        fill="#303233" />
    <path
        d="M11.2975 9.66442C11.3893 9.404 11.2527 9.11844 10.9923 9.02659C10.7318 8.93475 10.4463 9.07141 10.3544 9.33182C10.0048 10.3233 9.06471 11 7.99604 11C7.29832 11 6.6531 10.7117 6.19191 10.2312L6.81708 10.3528L6.87939 10.3609C7.12728 10.3777 7.35465 10.2076 7.40329 9.95738C7.45597 9.68632 7.27895 9.42387 7.00788 9.37118L5.27263 9.03388L5.21032 9.02574C4.96243 9.00898 4.73506 9.17907 4.68642 9.42928L4.34912 11.1645L4.34098 11.2268C4.32423 11.4747 4.49431 11.7021 4.74452 11.7507L4.80683 11.7589C5.05472 11.7756 5.28209 11.6056 5.33073 11.3553L5.42398 10.8743C6.07232 11.5764 6.99573 12 7.99604 12C9.49205 12 10.8079 11.0528 11.2975 9.66442Z"
        fill="#303233" />
    <path fill-rule="evenodd" clip-rule="evenodd"
        d="M1 4.00001C0.999992 2.89544 1.89543 2 3 2H6.79318C7.24589 2 7.68006 2.17986 8.00015 2.5C8.32024 2.82014 8.75441 3 9.20712 3H13.0001C14.1046 3 15.0001 3.89543 15.0001 5V12C15.0001 13.1046 14.1046 14 13.0001 14H3.00006C1.89549 14 1.00006 13.1046 1.00006 12L1 4.00001ZM2.00015 5C2.00015 4.44772 2.44787 4 3.00015 4H13.0002C13.5524 4 14.0002 4.44772 14.0002 5V12C14.0002 12.5523 13.5524 13 13.0002 13H3.00015C2.44787 13 2.00015 12.5523 2.00015 12V5Z"
        fill="#303233" />
</svg>
