<svg width="24" height="24" viewBox="0 0 24 24" fill="none" xmlns="http://www.w3.org/2000/svg">
    <g clip-path="url(#clip0_53_4621)">
        <path fill-rule="evenodd" clip-rule="evenodd"
            d="M12 0C10.067 0 8.5 1.567 8.5 3.5V3.5502L8.46452 3.51472C7.09769 2.14789 4.88161 2.14789 3.51477 3.51472C2.14794 4.88156 2.14794 7.09763 3.51477 8.46447L3.5503 8.5H3.5C1.567 8.5 0 10.067 0 12C0 13.933 1.567 15.5 3.5 15.5H3.5502L3.51463 15.5356C2.14779 16.9024 2.14779 19.1185 3.51463 20.4853C4.88146 21.8522 7.09754 21.8522 8.46438 20.4853L8.5 20.4497V20.5C8.5 22.433 10.067 24 12 24C13.933 24 15.5 22.433 15.5 20.5V20.4497L15.5356 20.4853C16.9024 21.8521 19.1185 21.8521 20.4853 20.4853C21.8522 19.1184 21.8522 16.9024 20.4853 15.5355L20.4498 15.5H20.5C22.433 15.5 24 13.933 24 12C24 10.067 22.433 8.5 20.5 8.5H20.4497L20.4852 8.46451C21.852 7.09767 21.852 4.8816 20.4852 3.51476C19.1184 2.14792 16.9023 2.14792 15.5354 3.51476L15.5 3.5502V3.5C15.5 1.567 13.933 0 12 0ZM14 5.0502V3.5C14 2.39543 13.1046 1.5 12 1.5C10.8954 1.5 10 2.39543 10 3.5V5.0502L11.2929 6.34315C11.5957 6.64588 11.8314 6.99027 12 7.35787C12.1686 6.99028 12.4043 6.64591 12.707 6.34319L14 5.0502ZM13.2016 9.09895C13.1168 8.49806 13.3055 7.866 13.7677 7.40385L14 7.17152V7.5C14 8.15361 13.6865 8.73399 13.2016 9.09895ZM12.4247 10.9745C12.5112 11.0849 12.6053 11.1913 12.707 11.2929C12.8087 11.3946 12.9151 11.4888 13.0255 11.5753C13.0087 11.7145 13 11.8563 13 12C13 12.1438 13.0087 12.2856 13.0255 12.4248C12.9152 12.5114 12.8088 12.6054 12.7072 12.7071C12.6055 12.8088 12.5114 12.9152 12.4248 13.0255C12.2856 13.0087 12.1438 13 12 13C11.8562 13 11.7144 13.0087 11.5751 13.0255C11.4886 12.9152 11.3945 12.8088 11.2928 12.7071C11.1912 12.6055 11.0848 12.5114 10.9745 12.4249C10.9913 12.2856 11 12.1438 11 12C11 11.8562 10.9913 11.7145 10.9745 11.5753C11.0849 11.4887 11.1913 11.3946 11.2929 11.2929C11.3946 11.1912 11.4887 11.0849 11.5753 10.9745C11.7145 10.9913 11.8562 11 12 11C12.1437 11 12.2855 10.9913 12.4247 10.9745ZM16.642 12C17.0096 11.8314 17.354 11.5957 17.6568 11.2929L18.9497 10H20.5C21.6046 10 22.5 10.8954 22.5 12C22.5 13.1046 21.6046 14 20.5 14H18.9498L17.6569 12.7071C17.3541 12.4043 17.0097 12.1686 16.642 12ZM16.8284 10L16.5961 10.2323C16.134 10.6944 15.5019 10.8831 14.9011 10.7984C15.266 10.3135 15.8464 10 16.5 10H16.8284ZM18.3284 8.5H16.5C16.0718 8.5 15.6616 8.57689 15.2824 8.71762C15.4231 8.3384 15.5 7.92818 15.5 7.5V5.67152L16.5961 4.57542C17.3771 3.79437 18.6435 3.79437 19.4245 4.57542C20.2056 5.35647 20.2056 6.6228 19.4245 7.40385L18.3284 8.5ZM4.57529 16.5962L5.67152 15.5H7.5C7.92818 15.5 8.3384 15.4231 8.71761 15.2824C8.57689 15.6616 8.5 16.0718 8.5 16.5V18.3284L7.40372 19.4247C6.62267 20.2057 5.35634 20.2057 4.57529 19.4247C3.79424 18.6436 3.79424 17.3773 4.57529 16.5962ZM10 20.5V18.9497L11.2928 17.6569C11.5956 17.3541 11.8313 17.0096 12 16.6419C12.1686 17.0096 12.4044 17.354 12.7072 17.6569L14 18.9497V20.5C14 21.6046 13.1046 22.5 12 22.5C10.8954 22.5 10 21.6046 10 20.5ZM10.2321 16.5962C10.6943 16.1341 10.883 15.5021 10.7982 14.9012C10.3135 15.2661 10 15.8465 10 16.5V16.8284L10.2321 16.5962ZM7.5 14C8.15355 14 8.73389 13.6865 9.09885 13.2017C8.49795 13.117 7.86588 13.3056 7.40372 13.7678L7.17152 14H7.5ZM6.34306 12.7071C6.64586 12.4043 6.99033 12.1686 7.35803 12C6.99039 11.8314 6.64596 11.5957 6.3432 11.2929L5.0503 10H3.5C2.39543 10 1.5 10.8954 1.5 12C1.5 13.1046 2.39543 14 3.5 14H5.0502L6.34306 12.7071ZM9.09889 10.7983C8.49802 10.8831 7.86599 10.6944 7.40386 10.2322L7.17162 10H7.5C8.15358 10 8.73393 10.3135 9.09889 10.7983ZM10 7.17152L10.2323 7.40381C10.6944 7.86596 10.8831 8.49802 10.7984 9.09892C10.3135 8.73396 10 8.15359 10 7.5V7.17152ZM8.5 5.67152V7.5C8.5 7.92818 8.57689 8.3384 8.71761 8.71762C8.3384 8.57689 7.92818 8.5 7.5 8.5H5.67162L4.57543 7.40381C3.79439 6.62276 3.79439 5.35643 4.57543 4.57538C5.35648 3.79433 6.62281 3.79433 7.40386 4.57538L8.5 5.67152ZM16.5962 19.4246L15.5 18.3284V16.5C15.5 16.0718 15.4231 15.6616 15.2824 15.2824C15.6616 15.4231 16.0718 15.5 16.5 15.5H18.3285L19.4247 16.5962C20.2057 17.3772 20.2057 18.6436 19.4247 19.4246C18.6436 20.2057 17.3773 20.2057 16.5962 19.4246ZM16.5962 13.7678C16.1341 13.3056 15.502 13.1169 14.9011 13.2017C15.2661 13.6865 15.8464 14 16.5 14H16.8285L16.5962 13.7678ZM14 16.5C14 15.8464 13.6865 15.2661 13.2017 14.9012C13.117 15.502 13.3057 16.1341 13.7678 16.5962L14 16.8284V16.5Z"
            fill="#303233" />
    </g>
    <defs>
        <clipPath id="clip0_53_4621">
            <rect width="24" height="24" fill="white" />
        </clipPath>
    </defs>
</svg>
