<svg width="16" height="16" viewBox="0 0 16 16" fill="none" xmlns="http://www.w3.org/2000/svg">
    <path fill-rule="evenodd" clip-rule="evenodd"
        d="M12.6456 2C12.4678 2 12.2916 2.03503 12.1273 2.1031C11.963 2.17116 11.8137 2.27092 11.6879 2.39669L2.93089 11.1537L2.21262 13.7874L4.84628 13.0691L13.6033 4.31208C13.7291 4.18631 13.8289 4.03701 13.8969 3.87269C13.965 3.70837 14 3.53225 14 3.35439C14 3.17652 13.965 3.00041 13.8969 2.83608C13.8289 2.67176 13.7291 2.52246 13.6033 2.39669C13.4776 2.27092 13.3282 2.17116 13.1639 2.1031C12.9996 2.03503 12.8235 2 12.6456 2ZM11.7446 1.17922C12.0303 1.0609 12.3364 1 12.6456 1C12.9548 1 13.261 1.0609 13.5466 1.17922C13.8323 1.29754 14.0918 1.47096 14.3104 1.68958C14.5291 1.90821 14.7025 2.16775 14.8208 2.4534C14.9391 2.73905 15 3.04521 15 3.35439C15 3.66357 14.9391 3.96972 14.8208 4.25537C14.7025 4.54102 14.5291 4.80056 14.3104 5.01919L5.4595 13.8701C5.39797 13.9316 5.32145 13.9761 5.2375 13.9989L1.63157 14.9824C1.45846 15.0296 1.27333 14.9804 1.14646 14.8536C1.01958 14.7267 0.970419 14.5415 1.01763 14.3684L2.00107 10.7625C2.02396 10.6786 2.06837 10.602 2.12989 10.5405L10.9808 1.68958C11.1994 1.47096 11.459 1.29754 11.7446 1.17922Z"
        fill="#303233" />
</svg>
