<svg width="24" height="24" viewBox="0 0 24 24" fill="none" xmlns="http://www.w3.org/2000/svg">
    <path
        d="M4 4.75C3.58579 4.75 3.25 5.08579 3.25 5.5C3.25 5.91421 3.58579 6.25 4 6.25H20C20.4142 6.25 20.75 5.91421 20.75 5.5C20.75 5.08579 20.4142 4.75 20 4.75H4Z"
        fill="#303233" />
    <path fill-rule="evenodd" clip-rule="evenodd"
        d="M3.25 11.5C3.25 9.98122 4.48122 8.75 6 8.75H18C19.5188 8.75 20.75 9.98122 20.75 11.5V12.5C20.75 14.0188 19.5188 15.25 18 15.25H6C4.48122 15.25 3.25 14.0188 3.25 12.5V11.5ZM6 10.25C5.30964 10.25 4.75 10.8096 4.75 11.5V12.5C4.75 13.1904 5.30964 13.75 6 13.75H18C18.6904 13.75 19.25 13.1904 19.25 12.5V11.5C19.25 10.8096 18.6904 10.25 18 10.25H6Z"
        fill="#303233" />
    <path
        d="M3.25 18.5C3.25 18.0858 3.58579 17.75 4 17.75H20C20.4142 17.75 20.75 18.0858 20.75 18.5C20.75 18.9142 20.4142 19.25 20 19.25H4C3.58579 19.25 3.25 18.9142 3.25 18.5Z"
        fill="#303233" />
</svg>
