<svg width="24" height="24" viewBox="0 0 24 24" fill="none" xmlns="http://www.w3.org/2000/svg">
    <path fill-rule="evenodd" clip-rule="evenodd"
        d="M19 1.25C16.9289 1.25 15.25 2.92893 15.25 5C15.25 7.07107 16.9289 8.75 19 8.75C21.0711 8.75 22.75 7.07107 22.75 5C22.75 2.92893 21.0711 1.25 19 1.25ZM16.75 5C16.75 3.75736 17.7574 2.75 19 2.75C20.2426 2.75 21.25 3.75736 21.25 5C21.25 6.24264 20.2426 7.25 19 7.25C17.7574 7.25 16.75 6.24264 16.75 5Z"
        fill="#303233" />
    <path
        d="M3.75001 12C3.75001 8.07654 7.35818 4.75 12 4.75C12.4142 4.75 12.75 4.41421 12.75 4C12.75 3.58579 12.4142 3.25 12 3.25C6.70072 3.25 2.25001 7.0869 2.25001 12C2.25001 13.3321 2.58189 14.5941 3.17275 15.7218C3.40973 16.1741 3.45929 16.6392 3.31878 17.014L2.29776 19.7367C2.20215 19.9916 2.25225 20.2784 2.42866 20.4859C2.60507 20.6933 2.88007 20.7888 3.1471 20.7354L7.23842 19.9172C7.49575 19.8657 7.78595 19.8986 8.08047 20.0147C9.2821 20.4883 10.6085 20.75 12 20.75C17.2993 20.75 21.75 16.9131 21.75 12C21.75 11.5858 21.4142 11.25 21 11.25C20.5858 11.25 20.25 11.5858 20.25 12C20.25 15.9235 16.6418 19.25 12 19.25C10.797 19.25 9.65715 19.0238 8.6305 18.6192C8.12027 18.418 7.53513 18.3281 6.94425 18.4463L4.17603 18.9999L4.72327 17.5406C5.05031 16.6685 4.88245 15.7528 4.50141 15.0256C4.01799 14.103 3.75001 13.0788 3.75001 12Z"
        fill="#303233" />
</svg>
