<svg width="24" height="24" viewBox="0 0 24 24" fill="none" xmlns="http://www.w3.org/2000/svg">
    <path fill-rule="evenodd" clip-rule="evenodd"
        d="M9.16155 1H14.8386C15.3658 0.999983 15.8206 0.999967 16.1951 1.03057C16.5905 1.06287 16.9837 1.13419 17.3621 1.32698C17.9266 1.6146 18.3855 2.07354 18.6731 2.63803C18.8659 3.01641 18.9372 3.40963 18.9695 3.80497C19.0001 4.17954 19.0001 4.6343 19.0001 5.16144V6.02714C19.0868 6.03193 19.1708 6.03757 19.2519 6.0442C19.814 6.09012 20.3307 6.18869 20.8161 6.43598C21.5687 6.81947 22.1806 7.43139 22.5641 8.18404C22.8114 8.66938 22.91 9.18608 22.9559 9.74818C23.0001 10.2894 23.0001 10.9537 23.0001 11.7587V14C23.0001 14.0465 23.0001 14.0924 23.0001 14.1376C23.0006 14.933 23.0009 15.5236 22.8638 16.0353C22.4939 17.4156 21.4157 18.4938 20.0354 18.8637C19.7279 18.9461 19.3919 18.9789 19.0001 18.9918C18.9998 19.4543 18.9971 19.8573 18.9695 20.195C18.9372 20.5904 18.8659 20.9836 18.6731 21.362C18.3855 21.9265 17.9266 22.3854 17.3621 22.673C16.9837 22.8658 16.5905 22.9371 16.1951 22.9694C15.8206 23 15.3658 23 14.8387 23H9.16153C8.63439 23 8.17964 23 7.80507 22.9694C7.40972 22.9371 7.0165 22.8658 6.63812 22.673C6.07364 22.3854 5.6147 21.9265 5.32708 21.362C5.13428 20.9836 5.06297 20.5904 5.03067 20.195C5.00307 19.8573 5.00037 19.4543 5.00012 18.9918C4.6083 18.9789 4.27229 18.9461 3.96482 18.8637C2.58445 18.4938 1.50626 17.4156 1.13639 16.0353C0.999297 15.5236 0.999617 14.933 1.00005 14.1376C1.00007 14.0924 1.0001 14.0465 1.0001 14L1.0001 11.7587C1.00008 10.9537 1.00007 10.2894 1.04429 9.74818C1.09022 9.18608 1.18878 8.66938 1.43607 8.18404C1.81956 7.43139 2.43149 6.81947 3.18413 6.43598C3.66947 6.18869 4.18617 6.09012 4.74827 6.0442C4.82942 6.03757 4.91335 6.03193 5.0001 6.02714L5.0001 5.16146C5.00008 4.63431 5.00006 4.17955 5.03067 3.80497C5.06297 3.40963 5.13428 3.01641 5.32708 2.63803C5.6147 2.07354 6.07364 1.6146 6.63812 1.32698C7.0165 1.13419 7.40972 1.06287 7.80507 1.03057C8.17964 0.999967 8.6344 0.999983 9.16155 1ZM7.0001 6H17.0001V5.2C17.0001 4.62345 16.9993 4.25117 16.9762 3.96784C16.954 3.69617 16.9163 3.59546 16.8911 3.54601C16.7952 3.35785 16.6422 3.20487 16.4541 3.109C16.4046 3.0838 16.3039 3.04612 16.0323 3.02393C15.7489 3.00078 15.3766 3 14.8001 3H9.2001C8.62354 3 8.25127 3.00078 7.96793 3.02393C7.69627 3.04612 7.59555 3.0838 7.54611 3.109C7.35794 3.20487 7.20496 3.35785 7.10909 3.54601C7.0839 3.59546 7.04622 3.69617 7.02402 3.96784C7.00087 4.25118 7.0001 4.62345 7.0001 5.2V6ZM7.0001 18.8C7.0001 19.3766 7.00087 19.7488 7.02402 20.0322C7.04622 20.3038 7.0839 20.4045 7.10909 20.454C7.20496 20.6422 7.35794 20.7951 7.54611 20.891C7.59555 20.9162 7.69627 20.9539 7.96793 20.9761C8.25127 20.9992 8.62354 21 9.2001 21H14.8001C15.3766 21 15.7489 20.9992 16.0323 20.9761C16.3039 20.9539 16.4046 20.9162 16.4541 20.891C16.6423 20.7951 16.7952 20.6422 16.8911 20.454C16.9163 20.4046 16.954 20.3038 16.9762 20.0322C16.9993 19.7488 17.0001 19.3766 17.0001 18.8V17.2C17.0001 16.6234 16.9993 16.2512 16.9762 15.9678C16.954 15.6962 16.9163 15.5955 16.8911 15.546C16.7952 15.3578 16.6423 15.2049 16.4541 15.109C16.4046 15.0838 16.3039 15.0461 16.0323 15.0239C15.7489 15.0008 15.3766 15 14.8001 15H9.2001C8.62354 15 8.25127 15.0008 7.96793 15.0239C7.69627 15.0461 7.59555 15.0838 7.54611 15.109C7.35794 15.2049 7.20496 15.3578 7.10909 15.546C7.0839 15.5955 7.04622 15.6962 7.02402 15.9678C7.00087 16.2512 7.0001 16.6234 7.0001 17.2V18.8ZM14.0001 10.5C14.0001 9.94772 14.4478 9.5 15.0001 9.5H18.0001C18.5524 9.5 19.0001 9.94772 19.0001 10.5C19.0001 11.0523 18.5524 11.5 18.0001 11.5H15.0001C14.4478 11.5 14.0001 11.0523 14.0001 10.5Z"
        fill="#303233" />
</svg>
