<svg width="16" height="16" viewBox="0 0 16 16" fill="none" xmlns="http://www.w3.org/2000/svg">
    <g clip-path="url(#clip0_53_6369)">
        <path
            d="M6.5 1C6.5 0.723858 6.27614 0.5 6 0.5C5.72386 0.5 5.5 0.723858 5.5 1V2.5C5.5 2.77614 5.72386 3 6 3C6.27614 3 6.5 2.77614 6.5 2.5V1Z"
            fill="#303233" />
        <path
            d="M2.35355 1.64645C2.15829 1.45118 1.84171 1.45118 1.64645 1.64645C1.45118 1.84171 1.45118 2.15829 1.64645 2.35355L2.64645 3.35355C2.84171 3.54882 3.15829 3.54882 3.35355 3.35355C3.54882 3.15829 3.54882 2.84171 3.35355 2.64645L2.35355 1.64645Z"
            fill="#303233" />
        <path
            d="M1 5.5C0.723858 5.5 0.5 5.72386 0.5 6C0.5 6.27614 0.723858 6.5 1 6.5H2.5C2.77614 6.5 3 6.27614 3 6C3 5.72386 2.77614 5.5 2.5 5.5H1Z"
            fill="#303233" />
        <path
            d="M13.5 9.49998C13.2239 9.49998 13 9.72383 13 9.99997C13 10.2761 13.2239 10.5 13.5 10.5L15 10.5C15.2761 10.5 15.5 10.2761 15.5 10C15.5 9.72386 15.2761 9.5 15 9.5L13.5 9.49998Z"
            fill="#303233" />
        <path
            d="M12.6464 13.3536L13.6464 14.3536C13.8417 14.5488 14.1583 14.5488 14.3536 14.3536C14.5488 14.1583 14.5488 13.8417 14.3536 13.6464L13.3536 12.6464C13.1583 12.4512 12.8417 12.4512 12.6464 12.6464C12.4512 12.8417 12.4512 13.1583 12.6464 13.3536Z"
            fill="#303233" />
        <path
            d="M10.5 13.5C10.5 13.2239 10.2761 13 10 13C9.72386 13 9.5 13.2239 9.5 13.5V15C9.5 15.2761 9.72386 15.5 10 15.5C10.2761 15.5 10.5 15.2761 10.5 15V13.5Z"
            fill="#303233" />
        <path
            d="M13.5681 2.43188C12.3256 1.18937 10.3111 1.18937 9.0686 2.43188L7.64645 3.85404C7.45119 4.0493 7.45119 4.36588 7.64645 4.56114C7.84171 4.7564 8.15829 4.7564 8.35355 4.56114L9.77571 3.13899C10.6277 2.287 12.009 2.287 12.861 3.13899C13.713 3.99097 13.713 5.37231 12.861 6.22429L11.4389 7.64645C11.2436 7.84171 11.2436 8.15829 11.4389 8.35355C11.6341 8.54882 11.9507 8.54882 12.146 8.35355L13.5681 6.9314C14.8106 5.68889 14.8106 3.67439 13.5681 2.43188Z"
            fill="#303233" />
        <path
            d="M4.56114 8.35355C4.7564 8.15829 4.7564 7.84171 4.56114 7.64645C4.36588 7.45118 4.0493 7.45118 3.85404 7.64645L2.43188 9.0686C1.18937 10.3111 1.18937 12.3256 2.43188 13.5681C3.67439 14.8106 5.68889 14.8106 6.9314 13.5681L8.35355 12.146C8.54882 11.9507 8.54882 11.6341 8.35355 11.4389C8.15829 11.2436 7.84171 11.2436 7.64645 11.4389L6.22429 12.861C5.37231 13.713 3.99097 13.713 3.13899 12.861C2.287 12.009 2.287 10.6277 3.13899 9.77571L4.56114 8.35355Z"
            fill="#303233" />
    </g>
    <defs>
        <clipPath id="clip0_53_6369">
            <rect width="16" height="16" fill="white" />
        </clipPath>
    </defs>
</svg>
