<svg width="24" height="24" viewBox="0 0 24 24" fill="none" xmlns="http://www.w3.org/2000/svg">
    <path fill-rule="evenodd" clip-rule="evenodd"
        d="M1.92492 8.74627C1.86215 8.74002 1.80166 8.72603 1.74441 8.70527C1.44691 8.5977 1.24373 8.30992 1.25015 7.98603V6C1.25015 5.27065 1.53988 4.57118 2.0556 4.05546C2.57133 3.53973 3.2708 3.25 4.00015 3.25H20.0001C20.7295 3.25 21.429 3.53973 21.9447 4.05546C22.4604 4.57118 22.7501 5.27065 22.7501 6V18C22.7501 18.7293 22.4604 19.4288 21.9447 19.9445C21.429 20.4603 20.7295 20.75 20.0001 20.75H14.0095C13.628 20.7552 13.2977 20.4699 13.2547 20.0829C12.9326 17.1868 11.6345 14.4865 9.57406 12.426C7.51541 10.3674 4.8181 9.06983 1.92492 8.74627Z"
        fill="#303233" />
    <path
        d="M1.25474 11.9671C1.30053 11.5554 1.67138 11.2588 2.08305 11.3046C4.28307 11.5493 6.33435 12.5353 7.89959 14.1006C9.46484 15.6658 10.4509 17.7171 10.6956 19.9171C10.7413 20.3288 10.4447 20.6996 10.0331 20.7454C9.62138 20.7912 9.25053 20.4946 9.20474 20.0829C8.9977 18.2213 8.16337 16.4857 6.83893 15.1612C5.5145 13.8368 3.7788 13.0024 1.91724 12.7954C1.50557 12.7496 1.20896 12.3788 1.25474 11.9671Z"
        fill="#303233" />
    <path
        d="M1.26527 15.9501C1.34805 15.5443 1.74416 15.2824 2.15002 15.3651C3.25505 15.5905 4.2694 16.1358 5.06686 16.9333C5.86432 17.7307 6.40966 18.7451 6.63502 19.8501C6.71779 20.256 6.45588 20.6521 6.05002 20.7349C5.64416 20.8176 5.24805 20.5557 5.16527 20.1499C4.9987 19.3331 4.59562 18.5834 4.0062 17.9939C3.41678 17.4045 2.66703 17.0014 1.85027 16.8349C1.44442 16.7521 1.1825 16.356 1.26527 15.9501Z"
        fill="#303233" />
    <path
        d="M2.00012 19.25C1.58591 19.25 1.25012 19.5858 1.25012 20C1.25012 20.4142 1.58591 20.75 2.00012 20.75H2.01012C2.42434 20.75 2.76012 20.4142 2.76012 20C2.76012 19.5858 2.42434 19.25 2.01012 19.25H2.00012Z"
        fill="#303233" />
</svg>
