<svg width="16" height="16" viewBox="0 0 16 16" fill="none" xmlns="http://www.w3.org/2000/svg">
    <path
        d="M13.5 10.5C13.5 10.2239 13.2761 10 13 10C12.7239 10 12.5 10.2239 12.5 10.5V12H11C10.7239 12 10.5 12.2239 10.5 12.5C10.5 12.7761 10.7239 13 11 13H12.5V14.5C12.5 14.7761 12.7239 15 13 15C13.2761 15 13.5 14.7761 13.5 14.5V13H15C15.2761 13 15.5 12.7761 15.5 12.5C15.5 12.2239 15.2761 12 15 12H13.5V10.5Z"
        fill="#303233" />
    <path fill-rule="evenodd" clip-rule="evenodd"
        d="M5.1786 0.5L9 0.5C9.92598 0.5 10.7337 1.00369 11.1652 1.74964C11.3035 1.98867 11.2218 2.29453 10.9828 2.4328C10.7438 2.57107 10.4379 2.48939 10.2996 2.25036C10.0395 1.80071 9.55458 1.5 9 1.5H5.2C4.6317 1.5 4.23554 1.50039 3.92712 1.52559C3.62454 1.55031 3.45069 1.5964 3.31901 1.66349C3.03677 1.8073 2.8073 2.03677 2.66349 2.31901C2.5964 2.45069 2.55031 2.62454 2.52559 2.92712C2.50039 3.23554 2.5 3.6317 2.5 4.2V10C2.5 10.5546 2.80071 11.0395 3.25036 11.2996C3.48939 11.4379 3.57107 11.7438 3.4328 11.9828C3.29453 12.2218 2.98867 12.3035 2.74964 12.1652C2.00369 11.7337 1.5 10.926 1.5 10L1.5 4.1786C1.5 3.6367 1.49999 3.19963 1.52891 2.84569C1.55868 2.48126 1.62159 2.16117 1.77248 1.86502C2.01217 1.39462 2.39462 1.01217 2.86502 0.772484C3.16117 0.62159 3.48126 0.558684 3.84569 0.528909C4.19963 0.499991 4.6367 0.499995 5.1786 0.5Z"
        fill="#303233" />
    <path fill-rule="evenodd" clip-rule="evenodd"
        d="M8.1786 3.5H10.8214C11.3633 3.5 11.8004 3.49999 12.1543 3.52891C12.5187 3.55868 12.8388 3.62159 13.135 3.77248C13.6054 4.01217 13.9878 4.39462 14.2275 4.86502C14.3784 5.16117 14.4413 5.48126 14.4711 5.84569C14.5 6.19963 14.5 6.6367 14.5 7.17858V8C14.5 8.27614 14.2761 8.5 14 8.5C13.7239 8.5 13.5 8.27614 13.5 8V7.2C13.5 6.6317 13.4996 6.23554 13.4744 5.92712C13.4497 5.62454 13.4036 5.45069 13.3365 5.31901C13.1927 5.03677 12.9632 4.8073 12.681 4.66349C12.5493 4.5964 12.3755 4.55031 12.0729 4.52559C11.7645 4.50039 11.3683 4.5 10.8 4.5H8.2C7.6317 4.5 7.23554 4.50039 6.92712 4.52559C6.62454 4.55031 6.45069 4.5964 6.31901 4.66349C6.03677 4.8073 5.8073 5.03677 5.66349 5.31901C5.5964 5.45069 5.55031 5.62454 5.52559 5.92712C5.50039 6.23554 5.5 6.6317 5.5 7.2V11.8C5.5 12.3683 5.50039 12.7645 5.52559 13.0729C5.55031 13.3755 5.5964 13.5493 5.66349 13.681C5.8073 13.9632 6.03677 14.1927 6.31901 14.3365C6.45069 14.4036 6.62454 14.4497 6.92712 14.4744C7.23554 14.4996 7.6317 14.5 8.2 14.5H9C9.27614 14.5 9.5 14.7239 9.5 15C9.5 15.2761 9.27614 15.5 9 15.5H8.17858C7.6367 15.5 7.19962 15.5 6.84569 15.4711C6.48126 15.4413 6.16117 15.3784 5.86502 15.2275C5.39462 14.9878 5.01217 14.6054 4.77248 14.135C4.62159 13.8388 4.55868 13.5187 4.52891 13.1543C4.49999 12.8004 4.49999 12.3633 4.5 11.8214V7.1786C4.49999 6.6367 4.49999 6.19963 4.52891 5.84569C4.55868 5.48126 4.62159 5.16117 4.77248 4.86502C5.01217 4.39462 5.39462 4.01217 5.86502 3.77248C6.16117 3.62159 6.48126 3.55868 6.84569 3.52891C7.19963 3.49999 7.6367 3.5 8.1786 3.5Z"
        fill="#303233" />
</svg>
