<svg width="24" height="24" viewBox="0 0 24 24" fill="none" xmlns="http://www.w3.org/2000/svg">
    <path fill-rule="evenodd" clip-rule="evenodd"
        d="M17.8385 2H17.8H6.2H6.16146H6.16142C5.63428 1.99998 5.17953 1.99997 4.80497 2.03057C4.40963 2.06287 4.01641 2.13419 3.63803 2.32698C3.07354 2.6146 2.6146 3.07354 2.32698 3.63803C2.13419 4.01641 2.06287 4.40963 2.03057 4.80497C1.99997 5.17954 1.99998 5.63429 2 6.16143V6.2V17.8V17.8386C1.99998 18.3657 1.99997 18.8205 2.03057 19.195C2.06287 19.5904 2.13419 19.9836 2.32698 20.362C2.6146 20.9265 3.07354 21.3854 3.63803 21.673C4.01641 21.8658 4.40963 21.9371 4.80497 21.9694C5.17954 22 5.6343 22 6.16143 22H6.2H10C10.5523 22 11 21.5523 11 21C11 20.4477 10.5523 20 10 20H6.2C5.62345 20 5.25117 19.9992 4.96784 19.9761C4.69617 19.9539 4.59545 19.9162 4.54601 19.891C4.35785 19.7951 4.20487 19.6422 4.10899 19.454C4.0838 19.4045 4.04612 19.3038 4.02393 19.0322C4.00078 18.7488 4 18.3766 4 17.8V6.2C4 5.62345 4.00078 5.25117 4.02393 4.96784C4.04612 4.69617 4.0838 4.59545 4.10899 4.54601C4.20487 4.35785 4.35785 4.20487 4.54601 4.10899C4.59545 4.0838 4.69617 4.04612 4.96784 4.02393C5.25117 4.00078 5.62345 4 6.2 4H17.8C18.3766 4 18.7488 4.00078 19.0322 4.02393C19.3038 4.04612 19.4045 4.0838 19.454 4.10899C19.6422 4.20487 19.7951 4.35785 19.891 4.54601C19.9162 4.59545 19.9539 4.69617 19.9761 4.96784C19.9992 5.25117 20 5.62345 20 6.2V10C20 10.5523 20.4477 11 21 11C21.5523 11 22 10.5523 22 10V6.2L22 6.16146V6.16143V6.16141C22 5.63428 22 5.17953 21.9694 4.80497C21.9371 4.40963 21.8658 4.01641 21.673 3.63803C21.3854 3.07354 20.9265 2.6146 20.362 2.32698C19.9836 2.13419 19.5904 2.06287 19.195 2.03057C18.8205 1.99997 18.3657 1.99998 17.8386 2H17.8385ZM12 6C11.4477 6 11 6.44772 11 7V9.58579L7.70711 6.2929C7.31658 5.90237 6.68342 5.90237 6.29289 6.2929C5.90237 6.68342 5.90237 7.31658 6.29289 7.70711L9.58579 11H7C6.44772 11 6 11.4477 6 12C6 12.5523 6.44772 13 7 13H12C12.2652 13 12.5196 12.8946 12.7071 12.7071C12.8946 12.5196 13 12.2652 13 12V7C13 6.44772 12.5523 6 12 6ZM17.8 13L17.8385 13C18.3657 13 18.8205 13 19.195 13.0306C19.5904 13.0629 19.9836 13.1342 20.362 13.327C20.9265 13.6146 21.3854 14.0735 21.673 14.638C21.8658 15.0164 21.9371 15.4096 21.9694 15.805C22 16.1795 22 16.6343 22 17.1614V17.1615L22 17.2V17.8L22 17.8385V17.8386C22 18.3657 22 18.8205 21.9694 19.195C21.9371 19.5904 21.8658 19.9836 21.673 20.362C21.3854 20.9265 20.9265 21.3854 20.362 21.673C19.9836 21.8658 19.5904 21.9371 19.195 21.9694C18.8205 22 18.3657 22 17.8386 22H17.8385H17.8H17.2H17.1615H17.1614C16.6342 22 16.1795 22 15.805 21.9694C15.4096 21.9371 15.0164 21.8658 14.638 21.673C14.0735 21.3854 13.6146 20.9265 13.327 20.362C13.1342 19.9836 13.0629 19.5904 13.0306 19.195C13 18.8205 13 18.3657 13 17.8386V17.8385V17.8V17.2V17.1615V17.1615C13 16.6343 13 16.1795 13.0306 15.805C13.0629 15.4096 13.1342 15.0164 13.327 14.638C13.6146 14.0735 14.0735 13.6146 14.638 13.327C15.0164 13.1342 15.4096 13.0629 15.805 13.0306C16.1795 13 16.6343 13 17.1615 13L17.2 13H17.8ZM19.454 15.109C19.4045 15.0838 19.3038 15.0461 19.0322 15.0239C18.7488 15.0008 18.3766 15 17.8 15H17.2C16.6234 15 16.2512 15.0008 15.9678 15.0239C15.6962 15.0461 15.5955 15.0838 15.546 15.109C15.3578 15.2049 15.2049 15.3578 15.109 15.546C15.0838 15.5955 15.0461 15.6962 15.0239 15.9678C15.0008 16.2512 15 16.6234 15 17.2V17.8C15 18.3766 15.0008 18.7488 15.0239 19.0322C15.0461 19.3038 15.0838 19.4045 15.109 19.454C15.2049 19.6422 15.3578 19.7951 15.546 19.891C15.5955 19.9162 15.6962 19.9539 15.9678 19.9761C16.2512 19.9992 16.6234 20 17.2 20H17.8C18.3766 20 18.7488 19.9992 19.0322 19.9761C19.3038 19.9539 19.4045 19.9162 19.454 19.891C19.6422 19.7951 19.7951 19.6422 19.891 19.454C19.9162 19.4045 19.9539 19.3038 19.9761 19.0322C19.9992 18.7488 20 18.3766 20 17.8V17.2C20 16.6234 19.9992 16.2512 19.9761 15.9678C19.9539 15.6962 19.9162 15.5955 19.891 15.546C19.7951 15.3578 19.6422 15.2049 19.454 15.109Z"
        fill="#303233" />
</svg>
