<svg width="16" height="16" viewBox="0 0 16 16" fill="none" xmlns="http://www.w3.org/2000/svg">
    <path
        d="M3.53557 4.62545C4.67103 3.4672 6.25108 2.75 8 2.75C9.74892 2.75 11.329 3.4672 12.4644 4.62545C12.7544 4.92124 13.2292 4.92596 13.525 4.63599C13.8208 4.34603 13.8255 3.87118 13.5356 3.57539C12.1296 2.14121 10.1682 1.25 8 1.25C5.83179 1.25 3.87037 2.14121 2.46443 3.57539C2.17446 3.87118 2.17918 4.34603 2.47497 4.63599C2.77076 4.92596 3.24561 4.92124 3.53557 4.62545Z"
        fill="#303233" />
    <path
        d="M5.42766 6.70102C6.0606 5.99384 6.97803 5.55056 7.99998 5.55056C9.02193 5.55056 9.93936 5.99384 10.5723 6.70102C10.8485 7.00967 11.3227 7.03593 11.6313 6.75969C11.94 6.48344 11.9662 6.0093 11.69 5.70065C10.7845 4.68899 9.46632 4.05056 7.99998 4.05056C6.53363 4.05056 5.21541 4.68899 4.30995 5.70065C4.03371 6.0093 4.05998 6.48344 4.36862 6.75969C4.67727 7.03593 5.15141 7.00967 5.42766 6.70102Z"
        fill="#303233" />
    <path fill-rule="evenodd" clip-rule="evenodd"
        d="M15.75 12.753V12.614C15.75 12.215 15.744 12.016 15.702 11.787C15.594 11.209 15.174 10.493 14.721 10.117C14.533 9.961 14.408 9.887 14.154 9.746C12.333 8.729 10.234 8.15 8 8.15C5.766 8.15 3.667 8.729 1.846 9.745C1.592 9.887 1.467 9.961 1.279 10.117C0.826 10.493 0.406 11.209 0.298 11.787C0.256 12.016 0.25 12.215 0.25 12.614V12.753C0.25 13.151 0.258 13.35 0.291 13.516C0.459 14.372 1.128 15.041 1.984 15.209C2.15 15.242 2.349 15.25 2.747 15.25H2.918C3.12 15.25 3.22 15.248 3.305 15.24C4.325 15.139 5.133 14.332 5.233 13.311C5.242 13.226 5.244 13.126 5.244 12.925V12.915C6.107 12.614 7.034 12.45 8 12.45C8.966 12.45 9.893 12.614 10.756 12.915V12.925C10.756 13.125 10.758 13.226 10.766 13.311C10.867 14.331 11.675 15.139 12.695 15.24C12.78 15.248 12.88 15.25 13.082 15.25H13.253C13.651 15.25 13.85 15.242 14.016 15.209C14.872 15.041 15.541 14.372 15.709 13.516C15.742 13.35 15.75 13.151 15.75 12.753ZM1.75 12.753V12.614C1.75 12.5724 1.74985 12.534 1.74972 12.4983C1.74898 12.3059 1.74854 12.1911 1.773 12.062C1.824 11.788 2.023 11.449 2.238 11.271C2.33757 11.1876 2.40978 11.1476 2.53258 11.0796C2.54668 11.0718 2.56145 11.0637 2.577 11.055C4.182 10.16 6.031 9.65 8 9.65C9.969 9.65 11.818 10.16 13.424 11.055C13.4406 11.0643 13.4563 11.073 13.4712 11.0813C13.5914 11.1483 13.6633 11.1883 13.762 11.271C13.977 11.449 14.176 11.788 14.227 12.062C14.2515 12.1911 14.251 12.3059 14.2503 12.4983C14.2501 12.534 14.25 12.5724 14.25 12.614V12.753C14.25 12.8141 14.2505 12.8675 14.2509 12.915C14.2522 13.0596 14.2531 13.1485 14.238 13.226C14.187 13.484 13.984 13.687 13.726 13.738C13.6485 13.7531 13.5596 13.7522 13.415 13.7509C13.3675 13.7505 13.314 13.75 13.253 13.75H13.082C13.0511 13.75 13.0241 13.7501 13.0001 13.7502C12.9269 13.7506 12.8819 13.7508 12.842 13.747C12.534 13.716 12.29 13.473 12.259 13.164C12.2552 13.1248 12.2554 13.0794 12.2558 13.0064C12.2559 12.9825 12.256 12.9556 12.256 12.925C12.256 12.849 12.255 12.811 12.252 12.768C12.212 12.261 11.856 11.758 11.391 11.553C11.3501 11.5349 11.3228 11.525 11.273 11.5069L11.265 11.504C10.243 11.145 9.144 10.95 8 10.95C6.856 10.95 5.757 11.145 4.735 11.504C4.68 11.524 4.653 11.534 4.609 11.553C4.144 11.758 3.787 12.262 3.748 12.768C3.745 12.811 3.744 12.849 3.744 12.925C3.744 12.9556 3.74412 12.9825 3.74423 13.0063C3.74456 13.0791 3.74477 13.1241 3.741 13.164C3.71 13.472 3.466 13.716 3.158 13.747C3.1181 13.7508 3.07309 13.7506 2.99995 13.7502C2.97593 13.7501 2.94889 13.75 2.918 13.75H2.747C2.68595 13.75 2.63248 13.7505 2.58501 13.7509C2.44042 13.7522 2.35154 13.7531 2.274 13.738C2.016 13.687 1.813 13.484 1.762 13.226C1.74694 13.1485 1.74776 13.0596 1.74908 12.915C1.74951 12.8675 1.75 12.8141 1.75 12.753Z"
        fill="#303233" />
</svg>
