<svg width="24" height="24" viewBox="0 0 24 24" fill="none" xmlns="http://www.w3.org/2000/svg">
    <path
        d="M5.63604 5.63603C6.02656 5.24551 6.02656 4.61234 5.63604 4.22182C5.24551 3.83129 4.61235 3.83129 4.22183 4.22182C-0.0739417 8.51759 -0.0739417 15.4824 4.22183 19.7782C4.61235 20.1687 5.24551 20.1687 5.63604 19.7782C6.02656 19.3876 6.02656 18.7545 5.63604 18.364C2.12132 14.8492 2.12132 9.15075 5.63604 5.63603Z"
        fill="#303233" />
    <path
        d="M19.7782 4.22186C19.3876 3.83134 18.7545 3.83134 18.364 4.22186C17.9734 4.61239 17.9734 5.24555 18.364 5.63608C21.8787 9.1508 21.8787 14.8493 18.364 18.364C17.9734 18.7545 17.9734 19.3877 18.364 19.7782C18.7545 20.1687 19.3876 20.1687 19.7782 19.7782C24.0739 15.4824 24.0739 8.51763 19.7782 4.22186Z"
        fill="#303233" />
    <path
        d="M8.46447 8.46442C8.85499 8.0739 8.85499 7.44073 8.46447 7.05021C8.07394 6.65969 7.44078 6.65969 7.05025 7.05021C4.31658 9.78388 4.31658 14.216 7.05025 16.9497C7.44078 17.3402 8.07394 17.3402 8.46447 16.9497C8.85499 16.5592 8.85499 15.926 8.46447 15.5355C6.51184 13.5829 6.51184 10.417 8.46447 8.46442Z"
        fill="#303233" />
    <path
        d="M16.9497 7.05024C16.5592 6.65972 15.9261 6.65972 15.5355 7.05024C15.145 7.44077 15.145 8.07393 15.5355 8.46446C17.4882 10.4171 17.4882 13.5829 15.5355 15.5355C15.145 15.926 15.145 16.5592 15.5355 16.9497C15.9261 17.3403 16.5592 17.3403 16.9497 16.9497C19.6834 14.2161 19.6834 9.78392 16.9497 7.05024Z"
        fill="#303233" />
    <path fill-rule="evenodd" clip-rule="evenodd"
        d="M11.6382 9.29289C11.5559 9.23986 11.4447 9.16825 11.3418 9.11472C11.2387 9.06103 10.9874 8.93777 10.661 8.96109C10.2993 8.98692 9.96668 9.16852 9.74938 9.45878C9.55322 9.72079 9.52105 9.99877 9.51043 10.1146C9.49985 10.23 9.49994 10.3623 9.50001 10.4602V13.5398C9.49994 13.6377 9.49985 13.77 9.51043 13.8854C9.52105 14.0012 9.55322 14.2792 9.74938 14.5412C9.96668 14.8315 10.2993 15.0131 10.661 15.0389C10.9874 15.0622 11.2387 14.939 11.3418 14.8853C11.4447 14.8318 11.5559 14.7601 11.6382 14.7071L14.0342 13.1669C14.105 13.1214 14.2065 13.0563 14.2913 12.9901C14.3835 12.9183 14.5744 12.7582 14.6891 12.4865C14.8206 12.1755 14.8206 11.8245 14.6891 11.5135C14.5744 11.2418 14.3835 11.0817 14.2913 11.0099C14.2065 10.9437 14.105 10.8786 14.0342 10.8331L11.6382 9.29289ZM12.1508 12L11.5 12.4183V11.5817L12.1508 12Z"
        fill="#303233" />
</svg>
