<svg width="16" height="16" viewBox="0 0 16 16" fill="none" xmlns="http://www.w3.org/2000/svg">
    <path fill-rule="evenodd" clip-rule="evenodd"
        d="M6.75 12.0049C6.75 13.5239 5.519 14.7549 4 14.7549C2.481 14.7549 1.25 13.5239 1.25 12.0049C1.25 10.4859 2.481 9.25494 4 9.25494C4.45 9.25494 4.875 9.36294 5.25 9.55494V4.66994C5.25 4.44994 5.25 4.24494 5.263 4.07094C5.277 3.88194 5.31 3.67694 5.403 3.46894C5.538 3.16794 5.756 2.91094 6.031 2.72794C6.221 2.60194 6.418 2.53594 6.602 2.49094C6.771 2.44994 6.973 2.41594 7.191 2.37994L7.214 2.37594L12.042 1.57094C12.338 1.52194 12.606 1.47694 12.83 1.45894C13.069 1.43994 13.337 1.44394 13.609 1.54494C13.993 1.68694 14.314 1.95994 14.518 2.31494C14.663 2.56694 14.71 2.83094 14.731 3.06894C14.75 3.29294 14.75 3.56494 14.75 3.86494V11.0049C14.75 12.5239 13.519 13.7549 12 13.7549C10.481 13.7549 9.25 12.5239 9.25 11.0049C9.25 9.48594 10.481 8.25494 12 8.25494C12.45 8.25494 12.875 8.36294 13.25 8.55494V3.89394C13.25 3.55494 13.249 3.34994 13.236 3.19894C13.228 3.10594 13.218 3.06694 13.214 3.05594C13.186 3.00994 13.143 2.97294 13.092 2.95294C13.081 2.95094 13.041 2.94694 12.948 2.95494C12.797 2.96694 12.594 2.99994 12.26 3.05494L7.46 3.85494C7.212 3.89694 7.066 3.92094 6.959 3.94794C6.894 3.96394 6.867 3.97494 6.86 3.97794L6.858 3.97994C6.822 4.00494 6.792 4.03894 6.774 4.07894L6.773 4.08094C6.771 4.08894 6.764 4.11694 6.759 4.18394C6.75 4.29394 6.75 4.44194 6.75 4.69394V12.0049Z"
        fill="#303233" />
</svg>
