<svg width="24" height="24" viewBox="0 0 24 24" fill="none" xmlns="http://www.w3.org/2000/svg">
    <path fill-rule="evenodd" clip-rule="evenodd"
        d="M9.53033 3.46967C9.82322 3.76256 9.82322 4.23744 9.53033 4.53033L5.81066 8.25H10.4339C12.0854 8.25 13.3708 8.24999 14.4019 8.33424C15.4488 8.41977 16.2993 8.59587 17.0644 8.98571C18.3345 9.63285 19.3671 10.6655 20.0143 11.9356C20.4041 12.7006 20.5802 13.5512 20.6658 14.5981C20.75 15.6292 20.75 16.9146 20.75 18.566V20C20.75 20.4142 20.4142 20.75 20 20.75C19.5858 20.75 19.25 20.4142 19.25 20V18.6C19.25 16.9075 19.2494 15.6832 19.1707 14.7203C19.0928 13.7662 18.9419 13.1349 18.6778 12.6166C18.1744 11.6287 17.3713 10.8256 16.3834 10.3222C15.8651 10.0581 15.2338 9.90721 14.2797 9.82925C13.3168 9.75058 12.0925 9.75 10.4 9.75H5.81066L9.53033 13.4697C9.82322 13.7626 9.82322 14.2374 9.53033 14.5303C9.23744 14.8232 8.76256 14.8232 8.46967 14.5303L3.46967 9.53033C3.17678 9.23744 3.17678 8.76256 3.46967 8.46967L8.46967 3.46967C8.76256 3.17678 9.23744 3.17678 9.53033 3.46967Z"
        fill="#303233" />
</svg>
