<svg width="16" height="16" viewBox="0 0 16 16" fill="none" xmlns="http://www.w3.org/2000/svg">
    <path
        d="M3 1C1.89543 1 0.999992 1.89544 1 3.00001L1.00006 11C1.00006 12.1046 1.89549 13 3.00006 13H4.5C4.77614 13 5 12.7761 5 12.5C5 12.2239 4.77614 12 4.5 12L3.00015 12C2.44787 12 2.00015 11.5523 2.00015 11V4C2.00015 3.44772 2.44787 3 3.00015 3H13.0002C13.5524 3 14.0002 3.44772 14.0002 4V11C14.0002 11.5523 13.5524 12 13.0002 12L11.5 12C11.2239 12 11 12.2239 11 12.5C11 12.7761 11.2239 13 11.5 13H13.0001C14.1046 13 15.0001 12.1046 15.0001 11V4C15.0001 2.89543 14.1046 2 13.0001 2H9.20712C8.75441 2 8.32024 1.82014 8.00015 1.5C7.68006 1.17986 7.24589 1 6.79318 1H3Z"
        fill="#303233" />
    <path
        d="M8 8C8.12796 8 8.25592 8.04882 8.35355 8.14645L10.3536 10.1464C10.5488 10.3417 10.5488 10.6583 10.3536 10.8536C10.1583 11.0488 9.84171 11.0488 9.64645 10.8536L8.5 9.70711V15C8.5 15.2761 8.27614 15.5 8 15.5C7.72386 15.5 7.5 15.2761 7.5 15V9.70711L6.35355 10.8536C6.15829 11.0488 5.84171 11.0488 5.64645 10.8536C5.45118 10.6583 5.45118 10.3417 5.64645 10.1464L7.64645 8.14645C7.74408 8.04882 7.87204 8 8 8Z"
        fill="#303233" />
</svg>
