<svg width="24" height="24" viewBox="0 0 24 24" fill="none" xmlns="http://www.w3.org/2000/svg">
    <path fill-rule="evenodd" clip-rule="evenodd"
        d="M11.4621 2.00131C11.8023 1.83906 12.1977 1.83906 12.538 2.00131C12.8223 2.13687 12.9853 2.3753 13.0782 2.52706C13.1735 2.68275 13.273 2.8844 13.3769 3.09498L15.5766 7.5513C15.5807 7.55964 15.5846 7.56746 15.5882 7.57484C15.5964 7.57604 15.605 7.5773 15.6142 7.57864L20.5346 8.29783C20.7668 8.33175 20.9893 8.36423 21.1667 8.4069C21.3397 8.4485 21.6167 8.53 21.8332 8.75861C22.0925 9.03224 22.2144 9.40826 22.1651 9.78195C22.1238 10.0942 21.9474 10.3227 21.8317 10.4579C21.7131 10.5965 21.552 10.7533 21.3839 10.9171L17.8248 14.3837C17.8181 14.3902 17.8118 14.3963 17.8059 14.402C17.8073 14.4101 17.8088 14.4188 17.8104 14.4279L18.6501 19.3243C18.6899 19.5558 18.7279 19.7775 18.7423 19.9595C18.7564 20.1369 18.7647 20.4256 18.6144 20.7025C18.4344 21.0338 18.1145 21.2662 17.7438 21.3349C17.434 21.3923 17.162 21.2951 16.9976 21.2269C16.829 21.1569 16.6299 21.0522 16.422 20.9429L12.0233 18.6296C12.0151 18.6253 12.0073 18.6212 12 18.6174C11.9927 18.6212 11.985 18.6253 11.9767 18.6296L7.57802 20.9429C7.37013 21.0522 7.17107 21.1569 7.00242 21.2269C6.83805 21.2951 6.56603 21.3923 6.25627 21.3349C5.88555 21.2662 5.56565 21.0338 5.38569 20.7025C5.23532 20.4256 5.24366 20.1369 5.25771 19.9595C5.27212 19.7775 5.31017 19.5558 5.3499 19.3243L6.18969 14.4279C6.19126 14.4188 6.19274 14.4101 6.19413 14.402C6.18822 14.3963 6.18196 14.3902 6.17529 14.3837L2.61621 10.9171C2.44804 10.7534 2.28698 10.5965 2.16834 10.4579C2.05267 10.3227 1.87622 10.0942 1.83499 9.78195C1.78564 9.40826 1.90756 9.03224 2.1668 8.75861C2.38338 8.53 2.66036 8.4485 2.83334 8.4069C3.01078 8.36423 3.23321 8.33175 3.46548 8.29783C3.47516 8.29641 3.48486 8.295 3.49458 8.29358L8.38585 7.57864C8.39505 7.5773 8.40368 7.57604 8.41182 7.57484C8.41547 7.56746 8.41933 7.55964 8.42345 7.5513L10.6231 3.09498C10.727 2.8844 10.8265 2.68275 10.9219 2.52706C11.0148 2.3753 11.1777 2.13687 11.4621 2.00131ZM12 3.69456C11.9859 3.72306 11.971 3.75325 11.9552 3.78527L9.76851 8.21524C9.7641 8.22417 9.75937 8.23389 9.75431 8.2443C9.70452 8.34667 9.62243 8.51544 9.49364 8.65406C9.38358 8.77251 9.25159 8.86849 9.10497 8.93667C8.9334 9.01646 8.74755 9.04252 8.63481 9.05832C8.62335 9.05993 8.61265 9.06143 8.60279 9.06287L3.71152 9.7778C3.6762 9.78297 3.6429 9.78785 3.61145 9.79249C3.63419 9.8147 3.6583 9.83819 3.68386 9.8631L7.22189 13.3091C7.22904 13.3161 7.23684 13.3236 7.2452 13.3317C7.32732 13.4107 7.46272 13.5411 7.55489 13.7066C7.63365 13.8481 7.68418 14.0035 7.70367 14.1642C7.72648 14.3523 7.69363 14.5374 7.6737 14.6496C7.67168 14.661 7.66979 14.6717 7.6681 14.6815L6.83329 19.5489C6.82725 19.5841 6.82157 19.6173 6.81623 19.6486C6.8444 19.6339 6.87423 19.6182 6.90584 19.6016L11.2786 17.302C11.2874 17.2974 11.297 17.2923 11.3072 17.2868C11.4078 17.2332 11.5736 17.1447 11.7595 17.1083C11.9183 17.0771 12.0817 17.0771 12.2406 17.1083C12.4265 17.1447 12.5923 17.2332 12.6929 17.2868C12.7031 17.2923 12.7126 17.2974 12.7215 17.302L17.0942 19.6016C17.1258 19.6182 17.1556 19.6339 17.1838 19.6486C17.1785 19.6173 17.1728 19.5841 17.1668 19.5489L16.3319 14.6815C16.3303 14.6717 16.3284 14.661 16.3263 14.6496C16.3064 14.5374 16.2736 14.3523 16.2964 14.1642C16.3159 14.0035 16.3664 13.8481 16.4452 13.7066C16.5373 13.5411 16.6727 13.4107 16.7548 13.3317C16.7632 13.3236 16.771 13.3161 16.7782 13.3091L20.3162 9.8631C20.3417 9.83819 20.3659 9.8147 20.3886 9.79249C20.3571 9.78785 20.3238 9.78297 20.2885 9.7778L15.3973 9.06287C15.3874 9.06143 15.3767 9.05993 15.3652 9.05832C15.2525 9.04252 15.0666 9.01646 14.8951 8.93667C14.7485 8.86849 14.6165 8.77251 14.5064 8.65406C14.3776 8.51544 14.2955 8.34667 14.2457 8.2443C14.2407 8.23389 14.2359 8.22417 14.2315 8.21524L12.0449 3.78527C12.0291 3.75325 12.0141 3.72306 12 3.69456Z"
        fill="#303233" />
</svg>
