<svg width="16" height="16" viewBox="0 0 16 16" fill="none" xmlns="http://www.w3.org/2000/svg">
    <path
        d="M2.5 1.75C2.08579 1.75 1.75 2.08579 1.75 2.5C1.75 2.91421 2.08579 3.25 2.5 3.25H13.5C13.9142 3.25 14.25 2.91421 14.25 2.5C14.25 2.08579 13.9142 1.75 13.5 1.75H2.5Z"
        fill="#303233" />
    <path
        d="M3.75 4.25C2.64543 4.25 1.75 5.14543 1.75 6.25C1.75 7.35457 2.64543 8.25 3.75 8.25H12.25C13.3546 8.25 14.25 7.35457 14.25 6.25C14.25 5.14543 13.3546 4.25 12.25 4.25H3.75Z"
        fill="#303233" />
    <path
        d="M1.75 10C1.75 9.58579 2.08579 9.25 2.5 9.25H13.5C13.9142 9.25 14.25 9.58579 14.25 10C14.25 10.4142 13.9142 10.75 13.5 10.75H2.5C2.08579 10.75 1.75 10.4142 1.75 10Z"
        fill="#303233" />
    <path
        d="M2.5 11.75C2.08579 11.75 1.75 12.0858 1.75 12.5C1.75 12.9142 2.08579 13.25 2.5 13.25H13.5C13.9142 13.25 14.25 12.9142 14.25 12.5C14.25 12.0858 13.9142 11.75 13.5 11.75H2.5Z"
        fill="#303233" />
</svg>
