<svg width="16" height="16" viewBox="0 0 16 16" fill="none" xmlns="http://www.w3.org/2000/svg">
    <path fill-rule="evenodd" clip-rule="evenodd"
        d="M5.73889 3.5C4.15613 3.5 3 5.03457 3 6.564C3 7.30389 3.28726 8.03907 3.76086 8.74509C4.23406 9.45052 4.87538 10.0996 5.53556 10.656C6.19386 11.2108 6.85737 11.6622 7.36244 11.9747C7.61464 12.1307 7.82518 12.2508 7.97313 12.3307C7.98237 12.3356 7.99133 12.3405 8 12.3451C8.00867 12.3405 8.01763 12.3356 8.02687 12.3307C8.17482 12.2508 8.38536 12.1307 8.63756 11.9747C9.14263 11.6622 9.80614 11.2108 10.4644 10.656C11.1246 10.0996 11.7659 9.45052 12.2391 8.74509C12.7127 8.03907 13 7.30389 13 6.564C13 5.03457 11.8439 3.5 10.2611 3.5C9.33937 3.5 8.74009 3.96031 8.38062 4.3823C8.28562 4.49382 8.1465 4.55806 8 4.55806C7.8535 4.55806 7.71438 4.49382 7.61938 4.3823C7.25991 3.96031 6.66063 3.5 5.73889 3.5ZM2 6.564C2 4.65318 3.4472 2.5 5.73889 2.5C6.75064 2.5 7.49244 2.90162 8 3.34711C8.50756 2.90162 9.24936 2.5 10.2611 2.5C12.5528 2.5 14 4.65318 14 6.564C14 7.56589 13.612 8.4936 13.0696 9.30216C12.5268 10.1113 11.8115 10.8285 11.1089 11.4207C10.4044 12.0144 9.69903 12.4939 9.16369 12.8251C8.89569 12.9909 8.66813 13.1209 8.50193 13.2106C8.41923 13.2553 8.34928 13.2913 8.29565 13.3172C8.2695 13.3299 8.24275 13.3423 8.21818 13.3526C8.20652 13.3575 8.18907 13.3646 8.16919 13.3714C8.15942 13.3747 8.14314 13.38 8.12308 13.3849L8.12275 13.385C8.10998 13.3881 8.06197 13.4 8 13.4C7.93803 13.4 7.89003 13.3881 7.87725 13.385L7.87692 13.3849C7.85686 13.38 7.84058 13.3747 7.83081 13.3714C7.81093 13.3646 7.79348 13.3575 7.78182 13.3526C7.75725 13.3423 7.7305 13.3299 7.70435 13.3172C7.65072 13.2913 7.58077 13.2553 7.49807 13.2106C7.33187 13.1209 7.10431 12.9909 6.83631 12.8251C6.30097 12.4939 5.59559 12.0144 4.89111 11.4207C4.18851 10.8285 3.47317 10.1113 2.93039 9.30216C2.38802 8.4936 2 7.56589 2 6.564Z"
        fill="#303233" />
</svg>
