<svg width="24" height="24" viewBox="0 0 24 24" fill="none" xmlns="http://www.w3.org/2000/svg">
    <path
        d="M9 10C9.55229 10 10 10.4477 10 11V13C10 13.5523 9.55229 14 9 14C8.44772 14 8 13.5523 8 13V11C8 10.4477 8.44772 10 9 10Z"
        fill="#303233" />
    <path fill-rule="evenodd" clip-rule="evenodd"
        d="M4.36392 4C3.97484 3.99998 3.62468 3.99996 3.33337 4.02376C3.02141 4.04925 2.68993 4.10694 2.36503 4.27248C1.89462 4.51217 1.51217 4.89462 1.27249 5.36502C1.10694 5.68993 1.04925 6.0214 1.02376 6.33337C0.999961 6.62467 0.99998 6.97478 1 7.36385L1 9.17071C1 9.59452 1.26717 9.97231 1.66676 10.1135C2.4449 10.3886 3 11.1307 3 12C3 12.8692 2.4449 13.6114 1.66676 13.8865C1.26717 14.0277 1 14.4055 1 14.8293L1 16.6361C0.99998 17.0252 0.999961 17.3753 1.02376 17.6666C1.04925 17.9786 1.10694 18.3101 1.27249 18.635C1.51217 19.1054 1.89462 19.4878 2.36503 19.7275C2.68993 19.8931 3.02141 19.9508 3.33337 19.9762C3.62467 20 3.97478 20 4.36383 20H19.6361C20.0251 20 20.3753 20 20.6666 19.9762C20.9786 19.9508 21.3101 19.8931 21.635 19.7275C22.1054 19.4878 22.4878 19.1054 22.7275 18.635C22.8931 18.3101 22.9508 17.9786 22.9762 17.6666C23 17.3753 23 17.0252 23 16.6361V14.8293C23 14.4055 22.7328 14.0277 22.3333 13.8865C21.5551 13.6114 21 12.8692 21 12C21 11.1307 21.5551 10.3886 22.3333 10.1135C22.7328 9.97231 23 9.59452 23 9.17071V7.36389C23 6.97482 23 6.62468 22.9762 6.33337C22.9508 6.0214 22.8931 5.68993 22.7275 5.36502C22.4878 4.89462 22.1054 4.51217 21.635 4.27248C21.3101 4.10694 20.9786 4.04925 20.6666 4.02376C20.3753 3.99996 20.0252 3.99998 19.6361 4L9.00181 4C9.00121 4 9.00061 4 9 4C8.9994 4 8.99879 4 8.99819 4L4.36392 4ZM8 6H4.4C3.96346 6 3.6962 6.00078 3.49624 6.01711C3.40309 6.02473 3.34673 6.03429 3.3125 6.04235C3.29622 6.04618 3.28621 6.04939 3.28079 6.05133C3.27559 6.05318 3.27301 6.0545 3.27301 6.0545C3.17893 6.10243 3.10244 6.17892 3.0545 6.273C3.0545 6.273 3.05319 6.27559 3.05133 6.28079C3.0494 6.2862 3.04618 6.29622 3.04235 6.3125C3.03429 6.34673 3.02473 6.40308 3.01712 6.49623C3.00078 6.6962 3 6.96346 3 7.4V8.53543C4.1948 9.22657 5 10.5183 5 12C5 13.4817 4.1948 14.7734 3 15.4646V16.6C3 17.0365 3.00078 17.3038 3.01712 17.5038C3.02473 17.5969 3.03429 17.6533 3.04235 17.6875C3.04618 17.7038 3.0494 17.7138 3.05133 17.7192C3.05319 17.7244 3.0545 17.727 3.0545 17.727C3.10244 17.8211 3.17893 17.8976 3.27301 17.9455C3.27301 17.9455 3.27559 17.9468 3.28079 17.9487C3.28621 17.9506 3.29622 17.9538 3.3125 17.9577C3.34673 17.9657 3.40309 17.9753 3.49624 17.9829C3.6962 17.9992 3.96346 18 4.4 18H8V17C8 16.4477 8.44772 16 9 16C9.55229 16 10 16.4477 10 17V18H19.6C20.0365 18 20.3038 17.9992 20.5038 17.9829C20.5969 17.9753 20.6533 17.9657 20.6875 17.9577C20.7038 17.9538 20.7138 17.9506 20.7192 17.9487C20.7244 17.9468 20.727 17.9455 20.727 17.9455C20.8211 17.8976 20.8976 17.8211 20.9455 17.727C20.9455 17.727 20.9468 17.7244 20.9487 17.7192C20.9506 17.7138 20.9538 17.7038 20.9577 17.6875C20.9657 17.6533 20.9753 17.5969 20.9829 17.5038C20.9992 17.3038 21 17.0365 21 16.6V15.4646C19.8052 14.7734 19 13.4817 19 12C19 10.5183 19.8052 9.22657 21 8.53543V7.4C21 6.96346 20.9992 6.6962 20.9829 6.49623C20.9753 6.40308 20.9657 6.34673 20.9577 6.3125C20.9538 6.29622 20.9506 6.2862 20.9487 6.28079L20.9466 6.27537L20.9455 6.27301C20.8976 6.17892 20.8211 6.10243 20.727 6.0545C20.727 6.0545 20.7244 6.05318 20.7192 6.05133C20.7138 6.04939 20.7038 6.04618 20.6875 6.04235C20.6533 6.03429 20.5969 6.02473 20.5038 6.01711C20.3038 6.00078 20.0365 6 19.6 6H10V7C10 7.55228 9.55229 8 9 8C8.44772 8 8 7.55228 8 7V6Z"
        fill="#303233" />
</svg>
