<svg width="24" height="24" viewBox="0 0 24 24" fill="none" xmlns="http://www.w3.org/2000/svg">
    <path fill-rule="evenodd" clip-rule="evenodd"
        d="M16 5.75C14.7574 5.75 13.75 6.75736 13.75 8C13.75 9.24264 14.7574 10.25 16 10.25C17.2426 10.25 18.25 9.24264 18.25 8C18.25 6.75736 17.2426 5.75 16 5.75ZM12.325 7.25C12.6725 5.53832 14.1858 4.25 16 4.25C17.8142 4.25 19.3275 5.53832 19.675 7.25H21C21.4142 7.25 21.75 7.58579 21.75 8C21.75 8.41421 21.4142 8.75 21 8.75H19.675C19.3275 10.4617 17.8142 11.75 16 11.75C14.1858 11.75 12.6725 10.4617 12.325 8.75L3 8.75C2.58579 8.75 2.25 8.41421 2.25 8C2.25 7.58579 2.58579 7.25 3 7.25L12.325 7.25ZM8 13.75C6.75736 13.75 5.75 14.7574 5.75 16C5.75 17.2426 6.75736 18.25 8 18.25C9.24264 18.25 10.25 17.2426 10.25 16C10.25 14.7574 9.24264 13.75 8 13.75ZM4.32501 15.25C4.67247 13.5383 6.18578 12.25 8 12.25C9.81422 12.25 11.3275 13.5383 11.675 15.25L21 15.25C21.4142 15.25 21.75 15.5858 21.75 16C21.75 16.4142 21.4142 16.75 21 16.75L11.675 16.75C11.3275 18.4617 9.81422 19.75 8 19.75C6.18578 19.75 4.67247 18.4617 4.32501 16.75H3C2.58579 16.75 2.25 16.4142 2.25 16C2.25 15.5858 2.58579 15.25 3 15.25H4.32501Z"
        fill="#303233" />
</svg>
