<svg width="16" height="16" viewBox="0 0 16 16" fill="none" xmlns="http://www.w3.org/2000/svg">
    <g clip-path="url(#clip0_4017_193)">
        <path fill-rule="evenodd" clip-rule="evenodd"
            d="M0.646447 0.646447C0.841709 0.451184 1.15829 0.451184 1.35355 0.646447L4.85343 4.14632C4.85351 4.1464 4.8536 4.14649 4.85368 4.14657L15.3536 14.6464C15.5488 14.8417 15.5488 15.1583 15.3536 15.3536C15.1583 15.5488 14.8417 15.5488 14.6464 15.3536L7.79289 8.5L4.5 8.5C4.22386 8.5 4 8.27614 4 8C4 7.72386 4.22386 7.5 4.5 7.5L6.79289 7.5L4.29949 5.00659C2.73612 5.10976 1.5 6.41053 1.5 8C1.5 9.65685 2.84315 11 4.5 11H5.9C6.17614 11 6.4 11.2239 6.4 11.5C6.4 11.7761 6.17614 12 5.9 12H4.5C2.29086 12 0.5 10.2091 0.5 8C0.5 6.1593 1.74332 4.60899 3.43596 4.14307L0.646447 1.35355C0.451184 1.15829 0.451184 0.841709 0.646447 0.646447ZM9.6 4.5C9.6 4.22386 9.82386 4 10.1 4H11.5C13.7091 4 15.5 5.79086 15.5 8C15.5 9.10615 15.0503 10.1082 14.325 10.8318C14.1296 11.0268 13.813 11.0265 13.6179 10.831C13.4229 10.6355 13.4233 10.3189 13.6188 10.1239C14.1637 9.58021 14.5 8.82985 14.5 8C14.5 6.34315 13.1569 5 11.5 5H10.1C9.82386 5 9.6 4.77614 9.6 4.5ZM10.993 8C10.993 7.72386 11.2169 7.5 11.493 7.5H11.5C11.7761 7.5 12 7.72386 12 8C12 8.27614 11.7761 8.5 11.5 8.5H11.493C11.2169 8.5 10.993 8.27614 10.993 8Z"
            fill="#303233" />
    </g>
    <defs>
        <clipPath id="clip0_4017_193">
            <rect width="16" height="16" fill="white" />
        </clipPath>
    </defs>
</svg>
