<svg width="16" height="16" viewBox="0 0 16 16" fill="none" xmlns="http://www.w3.org/2000/svg">
    <path
        d="M9.1084 4.66683C9.1084 4.36166 9.22792 4.06846 9.44141 3.85043L11.3838 1.90707C10.9423 1.81414 10.4847 1.80584 10.0361 1.88754C9.33618 2.01507 8.69156 2.3532 8.18848 2.85629C7.68541 3.35937 7.34726 4.00401 7.21973 4.70394C7.09231 5.40375 7.18135 6.12619 7.47461 6.77425C7.56018 6.96377 7.51913 7.18677 7.37207 7.33382L2.76562 11.9403C2.59425 12.1117 2.49805 12.3443 2.49805 12.5868C2.49807 12.8292 2.59422 13.0618 2.76562 13.2332C2.93704 13.4047 3.1697 13.5008 3.41211 13.5008L3.50293 13.4959C3.71202 13.4751 3.90868 13.3831 4.05859 13.2332L8.66504 8.62679L8.72363 8.57601C8.86735 8.47089 9.05879 8.44942 9.22461 8.52425C9.87266 8.81751 10.5951 8.90654 11.2949 8.77914L11.5547 8.72152C12.154 8.56458 12.7023 8.25067 13.1426 7.81039C13.6457 7.3073 13.9838 6.66268 14.1113 5.96273C14.1931 5.51373 14.184 5.05599 14.0908 4.6141L12.1523 6.55355L12.1494 6.55746C11.9313 6.77122 11.6374 6.89046 11.332 6.89046C11.0268 6.8904 10.7336 6.77104 10.5156 6.55746L9.44141 5.48324C9.22785 5.26523 9.10844 4.97202 9.1084 4.66683ZM10.1084 4.66683C10.1084 4.71038 10.1258 4.75193 10.1562 4.78304L11.2148 5.84261C11.2459 5.8731 11.2885 5.89041 11.332 5.89046C11.3757 5.89046 11.4181 5.87315 11.4492 5.84261L13.959 3.33285L14.0547 3.25863C14.1578 3.19661 14.2813 3.1731 14.4023 3.19515C14.5635 3.22469 14.6999 3.33106 14.7676 3.48031C15.1447 4.3137 15.2587 5.24248 15.0947 6.14242C14.9307 7.04231 14.4964 7.87062 13.8496 8.51742C13.2836 9.08339 12.5789 9.48748 11.8086 9.68929L11.4746 9.76254C10.6902 9.90546 9.88461 9.83591 9.13867 9.56625L4.76562 13.9403C4.45156 14.2543 4.03966 14.4475 3.60156 14.4911L3.41211 14.5008C2.90448 14.5008 2.41754 14.2992 2.05859 13.9403C1.69965 13.5813 1.49807 13.0944 1.49805 12.5868C1.49805 12.0791 1.69969 11.5922 2.05859 11.2332L6.43164 6.85921C6.16235 6.11363 6.09348 5.30824 6.23633 4.52425C6.4003 3.62436 6.83466 2.79606 7.48145 2.14925C8.12823 1.50246 8.95657 1.06813 9.85645 0.904137C10.7564 0.740167 11.6852 0.854159 12.5186 1.23129L12.6221 1.29379C12.7166 1.36837 12.7816 1.47633 12.8037 1.5975C12.833 1.75873 12.7818 1.92392 12.666 2.03988L10.1562 4.54964L10.1211 4.60336C10.1129 4.62328 10.1084 4.64488 10.1084 4.66683Z"
        fill="#303233" />
</svg>
