<svg width="16" height="16" viewBox="0 0 16 16" fill="none" xmlns="http://www.w3.org/2000/svg">
    <path
        d="M5.77853 1H10.2215C10.7808 0.999996 11.231 0.999992 11.5954 1.02976C11.9702 1.06039 12.298 1.125 12.6009 1.2793C13.083 1.52497 13.475 1.91698 13.7207 2.39915C13.875 2.70198 13.9396 3.02979 13.9702 3.40464C14 3.76899 14 4.21918 14 4.77851V10.1287L12.8107 8.93934C12.2249 8.35355 11.2751 8.35355 10.6893 8.93934L8.43934 11.1893C7.85355 11.7751 7.85355 12.7249 8.43934 13.3107C8.93011 13.8014 9.67635 13.881 10.25 13.5495V14.5C10.25 14.6753 10.2801 14.8436 10.3354 15L5.77851 15C5.21918 15 4.76899 15 4.40464 14.9702C4.02979 14.9396 3.70198 14.875 3.39915 14.7207C2.91698 14.475 2.52497 14.083 2.2793 13.6009C2.125 13.298 2.06039 12.9702 2.02976 12.5954C1.99999 12.231 2 11.7808 2 11.2215V4.77853C2 4.21919 1.99999 3.769 2.02976 3.40464C2.06039 3.02979 2.125 2.70198 2.2793 2.39915C2.52497 1.91698 2.91698 1.52497 3.39915 1.2793C3.70198 1.125 4.02979 1.06039 4.40464 1.02976C4.769 0.999992 5.21919 0.999996 5.77853 1Z"
        fill="#303233" />
    <path
        d="M12.25 11.2071V14.5C12.25 14.7761 12.0261 15 11.75 15C11.4739 15 11.25 14.7761 11.25 14.5V11.2071L9.85355 12.6036C9.65829 12.7988 9.34171 12.7988 9.14645 12.6036C8.95118 12.4083 8.95118 12.0917 9.14645 11.8964L11.3964 9.64645C11.5917 9.45118 11.9083 9.45118 12.1036 9.64645L14.3536 11.8964C14.5488 12.0917 14.5488 12.4083 14.3536 12.6036C14.1583 12.7988 13.8417 12.7988 13.6464 12.6036L12.25 11.2071Z"
        fill="#303233" />
</svg>
