<svg width="24" height="24" viewBox="0 0 24 24" fill="none" xmlns="http://www.w3.org/2000/svg">
    <path fill-rule="evenodd" clip-rule="evenodd"
        d="M14.25 5.5C14.25 3.70507 15.7051 2.25 17.5 2.25C19.2949 2.25 20.75 3.70507 20.75 5.5C20.75 7.29493 19.2949 8.75 17.5 8.75C16.5581 8.75 15.7097 8.34927 15.1161 7.709L9.56861 10.8445C9.68637 11.2085 9.75 11.5968 9.75 12C9.75 12.3572 9.70005 12.7028 9.60676 13.0301L14.0602 15.3458C14.9136 14.0814 16.3597 13.25 18 13.25C20.6234 13.25 22.75 15.3766 22.75 18C22.75 20.6234 20.6234 22.75 18 22.75C15.3766 22.75 13.25 20.6234 13.25 18C13.25 17.5521 13.312 17.1186 13.4279 16.7077L8.91401 14.3605C8.22648 15.2082 7.17651 15.75 6 15.75C3.92893 15.75 2.25 14.0711 2.25 12C2.25 9.92893 3.92893 8.25 6 8.25C7.12941 8.25 8.1422 8.74928 8.8297 9.53917L14.3773 6.40359C14.2944 6.11673 14.25 5.81355 14.25 5.5ZM17.5 3.75C16.5335 3.75 15.75 4.5335 15.75 5.5C15.75 6.4665 16.5335 7.25 17.5 7.25C18.4665 7.25 19.25 6.4665 19.25 5.5C19.25 4.5335 18.4665 3.75 17.5 3.75ZM6 9.75C4.75736 9.75 3.75 10.7574 3.75 12C3.75 13.2426 4.75736 14.25 6 14.25C7.24264 14.25 8.25 13.2426 8.25 12C8.25 10.7574 7.24264 9.75 6 9.75ZM14.75 18C14.75 16.2051 16.2051 14.75 18 14.75C19.7949 14.75 21.25 16.2051 21.25 18C21.25 19.7949 19.7949 21.25 18 21.25C16.2051 21.25 14.75 19.7949 14.75 18Z"
        fill="#303233" />
</svg>
