<svg width="24" height="24" viewBox="0 0 24 24" fill="none" xmlns="http://www.w3.org/2000/svg">
    <path
        d="M14.25 3C14.25 2.58579 14.5858 2.25 15 2.25H21C21.1017 2.25 21.1987 2.27024 21.2871 2.30691C21.3755 2.34351 21.4584 2.39776 21.5303 2.46967C21.6022 2.54158 21.6565 2.62445 21.6931 2.71291C21.7251 2.79009 21.7446 2.87376 21.749 2.96141C21.7497 2.97419 21.75 2.98706 21.75 3V9C21.75 9.41421 21.4142 9.75 21 9.75C20.5858 9.75 20.25 9.41421 20.25 9V4.81066L10.5303 14.5303C10.2374 14.8232 9.76256 14.8232 9.46967 14.5303C9.17678 14.2374 9.17678 13.7626 9.46967 13.4697L19.1893 3.75H15C14.5858 3.75 14.25 3.41421 14.25 3Z"
        fill="#303233" />
    <path
        d="M5 6.75C4.66848 6.75 4.35054 6.8817 4.11612 7.11612C3.8817 7.35054 3.75 7.66848 3.75 8V19C3.75 19.3315 3.8817 19.6495 4.11612 19.8839C4.35054 20.1183 4.66848 20.25 5 20.25H16C16.3315 20.25 16.6495 20.1183 16.8839 19.8839C17.1183 19.6495 17.25 19.3315 17.25 19V13C17.25 12.5858 17.5858 12.25 18 12.25C18.4142 12.25 18.75 12.5858 18.75 13V19C18.75 19.7293 18.4603 20.4288 17.9445 20.9445C17.4288 21.4603 16.7293 21.75 16 21.75H5C4.27065 21.75 3.57118 21.4603 3.05546 20.9445C2.53973 20.4288 2.25 19.7293 2.25 19V8C2.25 7.27065 2.53973 6.57118 3.05546 6.05546C3.57118 5.53973 4.27065 5.25 5 5.25H11C11.4142 5.25 11.75 5.58579 11.75 6C11.75 6.41421 11.4142 6.75 11 6.75H5Z"
        fill="#303233" />
</svg>
