<svg width="24" height="24" viewBox="0 0 24 24" fill="none" xmlns="http://www.w3.org/2000/svg">
    <path fill-rule="evenodd" clip-rule="evenodd"
        d="M13.7465 0.791645C14.0479 0.89654 14.25 1.18078 14.25 1.5V9.75H20C20.2876 9.75 20.5499 9.91447 20.6752 10.1734C20.8004 10.4323 20.7666 10.74 20.588 10.9655L11.088 22.9655C10.8899 23.2158 10.5551 23.3132 10.2536 23.2084C9.95206 23.1035 9.75001 22.8192 9.75001 22.5V14.25H4.00001C3.71239 14.25 3.45011 14.0855 3.32486 13.8266C3.19961 13.5677 3.23345 13.26 3.41197 13.0345L12.912 1.03447C13.1101 0.784188 13.445 0.68675 13.7465 0.791645ZM5.55033 12.75H10.5C10.9142 12.75 11.25 13.0858 11.25 13.5V20.3443L18.4497 11.25H13.5C13.0858 11.25 12.75 10.9142 12.75 10.5V3.65567L5.55033 12.75Z"
        fill="#303233" />
</svg>
