<svg width="16" height="16" viewBox="0 0 16 16" fill="none" xmlns="http://www.w3.org/2000/svg">
    <g clip-path="url(#clip0_53_8639)">
        <path
            d="M11.0451 10.0403C11.3297 9.73938 11.3166 9.26469 11.0156 8.98005C10.7147 8.6954 10.24 8.70859 9.95539 9.00951C9.65692 9.32504 8.9597 9.91666 7.99992 9.91666C7.04076 9.91666 6.34381 9.32581 6.04497 9.01005C5.76024 8.70921 5.28555 8.69615 4.98471 8.98087C4.68387 9.2656 4.6708 9.74029 4.95553 10.0411C5.35547 10.4637 6.42285 11.4167 7.99992 11.4167C9.57795 11.4167 10.6457 10.4626 11.0451 10.0403Z"
            fill="#303233" />
        <path
            d="M11.9774 5.42157C12.2969 5.68523 12.3421 6.15794 12.0785 6.47741C11.6898 6.94834 11.1261 7.25002 10.5 7.25002C9.86634 7.25002 9.31953 6.94217 8.93043 6.48795C8.66095 6.17337 8.69751 5.69991 9.01209 5.43043C9.32666 5.16096 9.80013 5.19752 10.0696 5.51209C10.2272 5.69603 10.3804 5.75002 10.5 5.75002C10.6272 5.75002 10.7836 5.68986 10.9216 5.52263C11.1852 5.20317 11.6579 5.15792 11.9774 5.42157Z"
            fill="#303233" />
        <path
            d="M7.07846 6.47741C7.34211 6.15794 7.29687 5.68523 6.9774 5.42157C6.65793 5.15792 6.18522 5.20317 5.92157 5.52263C5.78356 5.68986 5.62722 5.75002 5.50001 5.75002C5.38035 5.75002 5.22717 5.69603 5.0696 5.51209C4.80013 5.19752 4.32666 5.16096 4.01209 5.43043C3.69751 5.69991 3.66095 6.17337 3.93043 6.48795C4.31953 6.94217 4.86634 7.25002 5.50001 7.25002C6.12614 7.25002 6.6898 6.94834 7.07846 6.47741Z"
            fill="#303233" />
        <path fill-rule="evenodd" clip-rule="evenodd"
            d="M8 0.75C3.99594 0.75 0.75 3.99594 0.75 8C0.75 12.0041 3.99594 15.25 8 15.25C12.0041 15.25 15.25 12.0041 15.25 8C15.25 3.99594 12.0041 0.75 8 0.75ZM2.25 8C2.25 4.82436 4.82436 2.25 8 2.25C11.1756 2.25 13.75 4.82436 13.75 8C13.75 11.1756 11.1756 13.75 8 13.75C4.82436 13.75 2.25 11.1756 2.25 8Z"
            fill="#303233" />
    </g>
    <defs>
        <clipPath id="clip0_53_8639">
            <rect width="16" height="16" fill="white" />
        </clipPath>
    </defs>
</svg>
