<svg width="24" height="24" viewBox="0 0 24 24" fill="none" xmlns="http://www.w3.org/2000/svg">
    <path
        d="M9.25 13C9.25 12.5858 9.58579 12.25 10 12.25H14C14.4142 12.25 14.75 12.5858 14.75 13C14.75 13.4142 14.4142 13.75 14 13.75H10C9.58579 13.75 9.25 13.4142 9.25 13Z"
        fill="#303233" />
    <path fill-rule="evenodd" clip-rule="evenodd"
        d="M4 2.25C2.48122 2.25 1.25 3.48122 1.25 5C1.25 6.25878 2.09575 7.32002 3.25 7.64648L3.25 16.2321C3.24999 17.045 3.24999 17.7006 3.29336 18.2315C3.33803 18.7781 3.43239 19.2583 3.65873 19.7025C4.01825 20.4081 4.59193 20.9818 5.29754 21.3413C5.74175 21.5676 6.2219 21.662 6.76853 21.7066C7.29944 21.75 7.95505 21.75 8.76788 21.75H15.2321C16.045 21.75 16.7006 21.75 17.2315 21.7066C17.7781 21.662 18.2582 21.5676 18.7025 21.3413C19.4081 20.9818 19.9818 20.4081 20.3413 19.7025C20.5676 19.2583 20.662 18.7781 20.7066 18.2315C20.75 17.7006 20.75 17.045 20.75 16.2321V7.64648C21.9043 7.32002 22.75 6.25878 22.75 5C22.75 3.48122 21.5188 2.25 20 2.25H4ZM19.25 7.75H4.75V16.2C4.75 17.0525 4.75058 17.6467 4.78838 18.1093C4.82547 18.5632 4.8946 18.824 4.99524 19.0215C5.21095 19.4448 5.55516 19.7891 5.97852 20.0048C6.17604 20.1054 6.4368 20.1745 6.89068 20.2116C7.35331 20.2494 7.94755 20.25 8.8 20.25H15.2C16.0525 20.25 16.6467 20.2494 17.1093 20.2116C17.5632 20.1745 17.824 20.1054 18.0215 20.0048C18.4448 19.7891 18.789 19.4448 19.0048 19.0215C19.1054 18.824 19.1745 18.5632 19.2116 18.1093C19.2494 17.6467 19.25 17.0525 19.25 16.2V7.75ZM2.75 5C2.75 4.30964 3.30964 3.75 4 3.75H20C20.6904 3.75 21.25 4.30964 21.25 5C21.25 5.69036 20.6904 6.25 20 6.25H4C3.30964 6.25 2.75 5.69036 2.75 5Z"
        fill="#303233" />
</svg>
