<svg width="24" height="24" viewBox="0 0 24 24" fill="none" xmlns="http://www.w3.org/2000/svg">
    <path
        d="M7.25 13.25C7.94036 13.25 8.5 12.6904 8.5 12C8.5 11.3096 7.94036 10.75 7.25 10.75C6.55964 10.75 6 11.3096 6 12C6 12.6904 6.55964 13.25 7.25 13.25Z"
        fill="#303233" />
    <path
        d="M12 13.25C12.6904 13.25 13.25 12.6904 13.25 12C13.25 11.3096 12.6904 10.75 12 10.75C11.3096 10.75 10.75 11.3096 10.75 12C10.75 12.6904 11.3096 13.25 12 13.25Z"
        fill="#303233" />
    <path
        d="M18 12C18 12.6904 17.4404 13.25 16.75 13.25C16.0596 13.25 15.5 12.6904 15.5 12C15.5 11.3096 16.0596 10.75 16.75 10.75C17.4404 10.75 18 11.3096 18 12Z"
        fill="#303233" />
    <path fill-rule="evenodd" clip-rule="evenodd"
        d="M12 1.25C6.06294 1.25 1.25 6.06294 1.25 12C1.25 17.9371 6.06294 22.75 12 22.75C17.9371 22.75 22.75 17.9371 22.75 12C22.75 6.06294 17.9371 1.25 12 1.25ZM2.75 12C2.75 6.89137 6.89137 2.75 12 2.75C17.1086 2.75 21.25 6.89137 21.25 12C21.25 17.1086 17.1086 21.25 12 21.25C6.89137 21.25 2.75 17.1086 2.75 12Z"
        fill="#303233" />
</svg>
