<svg width="24" height="24" viewBox="0 0 24 24" fill="none" xmlns="http://www.w3.org/2000/svg">
    <path fill-rule="evenodd" clip-rule="evenodd"
        d="M3.85575 15.7353C3.13674 16.3393 2.57674 17.3993 2.20273 18.4773C1.70073 19.9243 1.50872 21.3673 1.50872 21.3673C1.46772 21.6763 1.57272 21.9873 1.79273 22.2073C2.01273 22.4273 2.32373 22.5323 2.63274 22.4913C2.63274 22.4913 4.07576 22.2993 5.52277 21.7973C6.60079 21.4233 7.6598 20.8633 8.26381 20.1453C9.30482 18.9133 9.27082 17.0223 8.11281 15.8783C8.10881 15.8743 8.10481 15.8713 8.09981 15.8673C7.5328 15.3253 6.78679 15.0133 6.00278 14.9883C5.21977 14.9643 4.45476 15.2303 3.85575 15.7353ZM10.5948 6.85628C10.0698 6.73028 9.31182 6.58228 8.51781 6.53528C7.4128 6.47028 6.25678 6.62728 5.44477 7.16828L5.44377 7.16928C4.71976 7.65328 4.14476 8.52728 3.75275 9.42828C3.23275 10.6203 3.01574 11.8213 3.01574 11.8213C2.96274 12.1133 3.04174 12.4133 3.23175 12.6413C3.42175 12.8683 3.70375 13.0003 3.99976 13.0003H8.58581L10.9998 15.4143V20.0003C10.9998 20.2963 11.1318 20.5783 11.3589 20.7683C11.5869 20.9583 11.8869 21.0373 12.1789 20.9843C12.1789 20.9843 13.3799 20.7673 14.5719 20.2473C15.4729 19.8553 16.3469 19.2803 16.8309 18.5563L16.8319 18.5553C17.3729 17.7433 17.5299 16.5873 17.4649 15.4823C17.4189 14.6943 17.2719 13.9413 17.1469 13.4173C22.228 9.69828 23 4.81828 23 2.00028C23 1.45028 22.556 1.00328 22.006 1.00028C19.638 0.985278 17.3059 1.57728 15.2309 2.71828C13.3899 3.73128 11.8049 5.14728 10.5948 6.85628Z"
        fill="#303233" />
</svg>
