<svg width="16" height="16" viewBox="0 0 16 16" fill="none" xmlns="http://www.w3.org/2000/svg">
    <path fill-rule="evenodd" clip-rule="evenodd"
        d="M10.2039 2.27905L9.23619 4.69843C9.24533 4.79773 9.25 4.89832 9.25 5C9.25 6.79493 7.79493 8.25 6 8.25C4.20507 8.25 2.75 6.79493 2.75 5C2.75 4.88753 2.75571 4.7764 2.76686 4.66687L1.81174 2.27905C1.69573 1.98904 1.77074 1.65904 1.99974 1.44803C2.22875 1.23702 2.56476 1.19002 2.84276 1.32903L4.09679 1.95604C4.2048 2.01004 4.3358 1.97904 4.4088 1.88204L5.40783 0.550007C5.54983 0.361003 5.77184 0.25 6.00784 0.25C6.24385 0.25 6.46585 0.361003 6.60786 0.550007L7.60688 1.88204C7.67988 1.97904 7.81089 2.01004 7.91889 1.95604L9.17292 1.32903C9.45093 1.19002 9.78694 1.23702 10.0159 1.44803C10.2449 1.65904 10.32 1.98904 10.2039 2.27905ZM6 6.75C6.88158 6.75 7.6109 6.09814 7.73226 5.25012H4.26774C4.3891 6.09814 5.11842 6.75 6 6.75Z"
        fill="#303233" />
    <path
        d="M1.83477 13.6492C2.22848 11.7096 3.9445 10.25 5.99974 10.25C8.05498 10.25 9.77099 11.7096 10.1647 13.6492C10.2471 14.0551 10.643 14.3174 11.0489 14.235C11.4549 14.1526 11.7171 13.7567 11.6347 13.3508C11.1019 10.7259 8.78241 8.75 5.99974 8.75C3.21706 8.75 0.897571 10.7259 0.364746 13.3508C0.282346 13.7567 0.544622 14.1526 0.950557 14.235C1.35649 14.3174 1.75237 14.0551 1.83477 13.6492Z"
        fill="#303233" />
    <path
        d="M10.5 6.75C10.0858 6.75 9.75 7.08579 9.75 7.5C9.75 7.91421 10.0858 8.25 10.5 8.25H14.5C14.9142 8.25 15.25 7.91421 15.25 7.5C15.25 7.08579 14.9142 6.75 14.5 6.75H10.5Z"
        fill="#303233" />
</svg>
