<svg width="24" height="24" viewBox="0 0 24 24" fill="none" xmlns="http://www.w3.org/2000/svg">
    <path fill-rule="evenodd" clip-rule="evenodd"
        d="M8.07192 2.20599C9.22283 1.42574 10.5894 1 12 1C13.8565 1 15.637 1.7375 16.9497 3.05025C18.2625 4.36301 19 6.14348 19 8C19 10.0145 19.259 11.5687 19.6075 12.7493C19.7639 13.279 19.4612 13.8351 18.9315 13.9915C18.4019 14.1479 17.8457 13.8452 17.6893 13.3155C17.2814 11.9337 17 10.1871 17 8C17 6.67392 16.4732 5.40215 15.5355 4.46447C14.5979 3.52678 13.3261 3 12 3C10.9925 3 10.0164 3.30406 9.19421 3.86143C8.73707 4.17134 8.11526 4.05199 7.80535 3.59485C7.49543 3.13772 7.61478 2.5159 8.07192 2.20599ZM2.29289 2.29289C2.68342 1.90237 3.31658 1.90237 3.70711 2.29289L6.92972 5.51551C6.95408 5.53757 6.97726 5.56077 6.9992 5.58498L21.7071 20.2929C22.0976 20.6834 22.0976 21.3166 21.7071 21.7071C21.3166 22.0976 20.6834 22.0976 20.2929 21.7071L16.5858 18H5.36414C4.78692 18 4.32278 18 3.98753 17.9869C3.81877 17.9804 3.6515 17.9695 3.50409 17.9477L3.49966 17.947C3.40373 17.9329 3.1163 17.8904 2.86601 17.7047C2.75576 17.623 2.57204 17.4758 2.43789 17.2343C2.30374 16.9928 2.27584 16.7591 2.26465 16.6223C2.24801 16.4187 2.29241 16.2515 2.31571 16.1733C2.3438 16.079 2.37975 15.9922 2.41187 15.9215C2.47624 15.7797 2.56317 15.6202 2.65859 15.4547C2.84901 15.1243 3.13148 14.6703 3.48878 14.0961L3.50062 14.0771C4.26799 12.8439 5 10.9127 5 8C5 7.51354 5.05064 7.03225 5.14901 6.56323L2.29289 3.70711C1.90237 3.31658 1.90237 2.68342 2.29289 2.29289ZM6.9956 8.40982C6.92971 11.4611 6.1317 13.6343 5.19871 15.1337C4.98586 15.4758 4.80822 15.7614 4.66308 15.9988C4.86966 16 5.10998 16 5.38885 16H14.5858L6.9956 8.40982ZM8.60444 20.3383C8.9699 19.9242 9.60184 19.8848 10.0159 20.2503C10.5454 20.7176 11.2385 21 12 21C12.7615 21 13.4546 20.7176 13.9841 20.2503C14.3982 19.8848 15.0301 19.9242 15.3956 20.3383C15.761 20.7523 15.7216 21.3843 15.3076 21.7497C14.4267 22.5272 13.2674 23 12 23C10.7326 23 9.57325 22.5272 8.69244 21.7497C8.27837 21.3843 8.23897 20.7523 8.60444 20.3383Z"
        fill="#303233" />
</svg>
