<svg width="24" height="24" viewBox="0 0 24 24" fill="none" xmlns="http://www.w3.org/2000/svg">
    <path fill-rule="evenodd" clip-rule="evenodd"
        d="M8.7587 1H15.2413C16.0463 0.999988 16.7106 0.999978 17.2518 1.04419C17.8139 1.09012 18.3306 1.18868 18.816 1.43598C19.5686 1.81947 20.1805 2.43139 20.564 3.18404C20.8113 3.66937 20.9099 4.18608 20.9558 4.74818C21 5.28936 21 5.95372 21 6.75868V11H23C23.5523 11 24 11.4477 24 12C24 12.5523 23.5523 13 23 13H1C0.447715 13 0 12.5523 0 12C0 11.4477 0.447715 11 1 11H3V6.75869C2.99999 5.95372 2.99998 5.28937 3.04419 4.74818C3.09012 4.18608 3.18868 3.66937 3.43597 3.18404C3.81947 2.43139 4.43139 1.81947 5.18404 1.43598C5.66937 1.18868 6.18608 1.09012 6.74817 1.04419C7.28936 0.999978 7.95375 0.999988 8.7587 1ZM5 11H19V6.8C19 5.94342 18.9992 5.36113 18.9624 4.91104C18.9266 4.47262 18.8617 4.24842 18.782 4.09202C18.5903 3.7157 18.2843 3.40973 17.908 3.21799C17.7516 3.1383 17.5274 3.07337 17.089 3.03755C16.6389 3.00078 16.0566 3 15.2 3H8.8C7.94342 3 7.36113 3.00078 6.91104 3.03755C6.47262 3.07337 6.24842 3.1383 6.09202 3.21799C5.7157 3.40974 5.40973 3.7157 5.21799 4.09202C5.1383 4.24842 5.07337 4.47262 5.03755 4.91104C5.00078 5.36113 5 5.94342 5 6.8V11Z"
        fill="#303233" />
    <path
        d="M20 19C20.5523 19 21 19.4477 21 20C21 21.6569 19.6568 23 18 23C17.4477 23 17 22.5523 17 22C17 21.4477 17.4477 21 18 21C18.5523 21 19 20.5523 19 20C19 19.4477 19.4477 19 20 19Z"
        fill="#303233" />
    <path
        d="M4 19C4.55228 19 5 19.4477 5 20C5 20.5523 5.44771 21 6 21C6.55228 21 7 21.4477 7 22C7 22.5523 6.55228 23 6 23C4.34315 23 3 21.6569 3 20C3 19.4477 3.44772 19 4 19Z"
        fill="#303233" />
    <path
        d="M5 15C5 14.4477 4.55228 14 4 14C3.44772 14 3 14.4477 3 15V16C3 16.5523 3.44772 17 4 17C4.55228 17 5 16.5523 5 16V15Z"
        fill="#303233" />
    <path
        d="M20 14C20.5523 14 21 14.4477 21 15V16C21 16.5523 20.5523 17 20 17C19.4477 17 19 16.5523 19 16V15C19 14.4477 19.4477 14 20 14Z"
        fill="#303233" />
    <path
        d="M10 21C9.44771 21 9 21.4477 9 22C9 22.5523 9.44771 23 10 23H14C14.5523 23 15 22.5523 15 22C15 21.4477 14.5523 21 14 21H10Z"
        fill="#303233" />
</svg>
