<svg width="16" height="16" viewBox="0 0 16 16" fill="none" xmlns="http://www.w3.org/2000/svg">
    <path
        d="M5.77853 1H10.2215C10.7808 0.999996 11.231 0.999992 11.5954 1.02976C11.9702 1.06039 12.298 1.125 12.6009 1.2793C13.083 1.52497 13.475 1.91698 13.7207 2.39915C13.875 2.70198 13.9396 3.02979 13.9702 3.40464C14 3.76899 14 4.21918 14 4.77851V7.9143C13.6814 7.72962 13.3302 7.60301 12.9636 7.54195C12.2663 7.42582 11.5468 7.55219 10.9306 7.90383C10.3135 8.25598 9.83437 8.81501 9.58963 9.49053C9.30743 10.2694 9.71008 11.1296 10.489 11.4118C10.6863 11.4833 10.8888 11.5108 11.0858 11.4994C10.978 11.8034 10.967 12.1443 11.0768 12.474C11.1432 12.6735 11.2476 12.8498 11.3791 12.9975C11.1403 13.2632 10.9949 13.6146 10.9949 14C10.9949 14.3769 11.134 14.7214 11.3635 14.9849C11.0444 15 10.6677 15 10.2215 15H5.77851C5.21918 15 4.76899 15 4.40464 14.9702C4.02979 14.9396 3.70198 14.875 3.39915 14.7207C2.91698 14.475 2.52497 14.083 2.2793 13.6009C2.125 13.298 2.06039 12.9702 2.02976 12.5954C1.99999 12.231 2 11.7808 2 11.2215V4.77853C2 4.21919 1.99999 3.769 2.02976 3.40464C2.06039 3.02979 2.125 2.70198 2.2793 2.39915C2.52497 1.91698 2.91698 1.52497 3.39915 1.2793C3.70198 1.125 4.02979 1.06039 4.40464 1.02976C4.769 0.999992 5.21919 0.999996 5.77853 1Z"
        fill="#303233" />
    <path
        d="M11.922 9.64092C12.1357 9.519 12.3886 9.47371 12.6352 9.51478C12.8818 9.55584 13.1024 9.67985 13.2596 9.86114C13.4165 10.0421 13.5005 10.2694 13.5001 10.5011C13.5001 10.7351 13.3178 10.9794 12.9729 11.2092C12.8157 11.3139 12.655 11.3945 12.5316 11.4494C12.4706 11.4764 12.4204 11.4965 12.3867 11.5093C12.3699 11.5157 12.3573 11.5203 12.3496 11.523L12.3416 11.5258C12.0799 11.6133 11.9386 11.8962 12.0258 12.158C12.113 12.42 12.3964 12.5615 12.6584 12.4743L12.6595 12.4739L12.6615 12.4733L12.667 12.4714L12.6844 12.4653C12.6987 12.4602 12.7183 12.4531 12.7425 12.4439C12.7908 12.4255 12.8578 12.3986 12.9375 12.3633C13.0953 12.2932 13.3095 12.1865 13.5273 12.0414C13.9324 11.7716 14.4999 11.2666 14.5001 10.5016C14.5008 10.0255 14.3278 9.56666 14.0152 9.20607C13.7028 8.84575 13.2716 8.60699 12.7995 8.52837C12.3275 8.44976 11.8414 8.53559 11.4264 8.77238C11.0112 9.00933 10.6923 9.38339 10.53 9.83117C10.436 10.0908 10.5702 10.3775 10.8298 10.4716C11.0894 10.5657 11.3762 10.4314 11.4702 10.1718C11.55 9.95176 11.7086 9.76268 11.922 9.64092Z"
        fill="#303233" />
    <path
        d="M12.4951 13.5C12.219 13.5 11.9951 13.7239 11.9951 14C11.9951 14.2761 12.219 14.5 12.4951 14.5H12.5001C12.7763 14.5 13.0001 14.2761 13.0001 14C13.0001 13.7239 12.7763 13.5 12.5001 13.5H12.4951Z"
        fill="#303233" />
</svg>
