<svg width="24" height="24" viewBox="0 0 24 24" fill="none" xmlns="http://www.w3.org/2000/svg">
    <path
        d="M16.25 18C16.25 17.5858 16.5858 17.25 17 17.25H23C23.4142 17.25 23.75 17.5858 23.75 18C23.75 18.4142 23.4142 18.75 23 18.75H17C16.5858 18.75 16.25 18.4142 16.25 18Z"
        fill="#303233" />
    <path
        d="M1.25 5C1.25 3.48122 2.48122 2.25 4 2.25H10.1716C10.6357 2.25 11.0808 2.43437 11.409 2.76256L12.2374 3.59099C12.6594 4.01295 13.2317 4.25 13.8284 4.25H20C21.5188 4.25 22.75 5.48122 22.75 7V15.75H17C15.7574 15.75 14.75 16.7574 14.75 18C14.75 19.2426 15.7574 20.25 17 20.25H22.4501C21.995 21.1404 21.0687 21.75 20 21.75H4C2.48122 21.75 1.25 20.5188 1.25 19V5Z"
        fill="#303233" />
</svg>
