<svg width="16" height="16" viewBox="0 0 16 16" fill="none" xmlns="http://www.w3.org/2000/svg">
    <g clip-path="url(#clip0_53_4558)">
        <path fill-rule="evenodd" clip-rule="evenodd"
            d="M1.10355 0.396447C0.908291 0.201184 0.591709 0.201184 0.396447 0.396447C0.201184 0.591709 0.201184 0.908291 0.396447 1.10355L4.89746 5.60457L4.89739 5.66215C4.89718 5.76007 4.89677 5.89111 4.89594 6.02399C4.89512 6.15723 4.89389 6.29079 4.89207 6.39433C4.89116 6.44641 4.89014 6.48855 4.88904 6.51837L4.88889 6.52234C4.88674 6.52838 4.8842 6.53427 4.88129 6.54C4.88019 6.54186 4.87618 6.54826 4.86599 6.56209C4.84833 6.58605 4.82384 6.61681 4.77926 6.67252L3.74419 7.96637C3.54039 8.2211 3.36624 8.43877 3.2454 8.62155C3.12677 8.80099 3.00029 9.03023 3 9.29876C2.99962 9.64898 3.15886 9.98029 3.43257 10.1988C3.64244 10.3663 3.90046 10.4107 4.11468 10.4302C4.3329 10.45 4.61164 10.45 4.93786 10.45H7.49759L7.49759 14.5C7.49759 14.7761 7.72145 15 7.99759 15C8.27374 15 8.49759 14.7761 8.49759 14.5L8.49759 10.45H9.74289L14.8964 15.6036C15.0917 15.7988 15.4083 15.7988 15.6036 15.6036C15.7988 15.4083 15.7988 15.0917 15.6036 14.8964L1.10355 0.396447ZM8.74289 9.45L5.88667 6.59378C5.88634 6.60008 5.88598 6.60626 5.88559 6.61224L5.88551 6.61355C5.88492 6.62302 5.88246 6.66251 5.87411 6.70319C5.85328 6.8047 5.81883 6.90292 5.77169 6.99519C5.7177 7.10087 5.64439 7.19221 5.57682 7.2764L5.56013 7.29722L4.53977 8.57267C4.31718 8.85091 4.17226 9.03285 4.07958 9.17304C4.02402 9.25707 4.00589 9.29975 4.0006 9.31345C4.00385 9.34951 4.02004 9.3832 4.04617 9.40826C4.06017 9.41269 4.10483 9.42519 4.20514 9.4343C4.37252 9.4495 4.60512 9.45 4.96144 9.45H8.74289Z"
            fill="#303233" />
        <path
            d="M10.3615 2C10.6284 2 10.7945 2.00049 10.9156 2.01148C10.9855 2.01783 11.0168 2.0262 11.0265 2.02924C11.0542 2.04964 11.074 2.07895 11.0827 2.11223C11.0819 2.12235 11.0781 2.1545 11.058 2.22177C11.0232 2.33832 10.962 2.49276 10.8629 2.74055L10.2023 4.39195C10.18 4.44764 10.1557 4.50809 10.1381 4.57248C10.1228 4.6288 10.1117 4.6862 10.1051 4.74419C10.0975 4.8105 10.0975 4.87562 10.0976 4.93562L10.0976 6.33519L10.0976 6.36187C10.0974 6.46982 10.0972 6.58695 10.1211 6.70319C10.1419 6.80469 10.1764 6.90292 10.2235 6.99519C10.2775 7.10087 10.3508 7.19221 10.4184 7.2764L10.4351 7.29722L11.4554 8.57267C11.5104 8.64141 11.5612 8.70488 11.6084 8.76435C11.7801 8.98063 12.0946 9.01677 12.3109 8.84508C12.5272 8.67338 12.5633 8.35887 12.3916 8.14259C12.343 8.08137 12.291 8.01638 12.2363 7.94797L11.2159 6.67252C11.1713 6.6168 11.1469 6.58605 11.1292 6.56209C11.1139 6.54137 11.1125 6.53732 11.114 6.54024C11.1079 6.5282 11.1034 6.51539 11.1007 6.50215C11.1013 6.50536 11.0999 6.50132 11.0989 6.4756C11.0977 6.44586 11.0976 6.40655 11.0976 6.33519V4.95029C11.0976 4.91075 11.0976 4.88919 11.098 4.87283C11.0983 4.8588 11.0988 4.85645 11.0986 4.85809C11.0994 4.85053 11.1009 4.84304 11.1029 4.8357C11.1024 4.83729 11.1029 4.83495 11.1078 4.82181C11.1136 4.80647 11.1215 4.78645 11.1362 4.74974L11.7992 3.0922C11.888 2.87026 11.9669 2.67311 12.0162 2.50772C12.0675 2.33612 12.1085 2.13295 12.0635 1.91603C12.0018 1.61931 11.8255 1.35893 11.5729 1.19148C11.3883 1.06907 11.1844 1.03176 11.006 1.01558C10.8341 0.999975 10.6218 0.999987 10.3828 1L5 1C4.72386 1 4.5 1.22386 4.5 1.5C4.5 1.77614 4.72386 2 5 2H10.3615Z"
            fill="#303233" />
    </g>
    <defs>
        <clipPath id="clip0_53_4558">
            <rect width="16" height="16" fill="white" />
        </clipPath>
    </defs>
</svg>
