<svg width="36" height="24" viewBox="0 0 36 24" fill="none" xmlns="http://www.w3.org/2000/svg">
    <path fill-rule="evenodd" clip-rule="evenodd"
        d="M4.03367 8.31898C3.47737 9.19829 3.19922 10.4141 3.19922 11.9663C3.19922 13.5276 3.47737 14.7524 4.03367 15.6406C4.59895 16.5289 5.5321 16.9731 6.83313 16.9731C8.13416 16.9731 9.06283 16.5289 9.61913 15.6406C10.1844 14.7524 10.467 13.5276 10.467 11.9663C10.467 10.4141 10.1844 9.19829 9.61913 8.31898C9.06283 7.43966 8.13416 7 6.83313 7C5.5321 7 4.59895 7.43966 4.03367 8.31898ZM8.47512 10.2974C8.56485 10.7461 8.60971 11.3024 8.60971 11.9663C8.60971 12.6483 8.56934 13.2225 8.48858 13.6891C8.40783 14.1467 8.23735 14.5191 7.97714 14.8062C7.71694 15.0843 7.3356 15.2234 6.83313 15.2234C6.33067 15.2234 5.94933 15.0843 5.68912 14.8062C5.42892 14.5191 5.25844 14.1467 5.17768 13.6891C5.09693 13.2225 5.05655 12.6483 5.05655 11.9663C5.05655 11.3024 5.09693 10.7461 5.17768 10.2974C5.26741 9.83984 5.43789 9.46747 5.68912 9.18035C5.94933 8.89322 6.33067 8.74966 6.83313 8.74966C7.3356 8.74966 7.71245 8.89322 7.96368 9.18035C8.22389 9.46747 8.39437 9.83984 8.47512 10.2974Z"
        fill="#303233" />
    <path
        d="M22.1844 8.71339H17.7683V11.044C17.9592 10.8077 18.2318 10.6169 18.5861 10.4716C18.9405 10.3171 19.3176 10.2399 19.7174 10.2399C20.4443 10.2399 21.0395 10.3989 21.5029 10.7169C21.9663 11.0349 22.3025 11.4438 22.5115 11.9435C22.7205 12.4342 22.825 12.9612 22.825 13.5245C22.825 14.5694 22.5251 15.4099 21.9254 16.0459C21.3348 16.682 20.4897 17 19.3903 17C18.3544 17 17.5276 16.741 16.9097 16.2231C16.2918 15.7052 15.942 15.0283 15.8602 14.1924H17.7138C17.7956 14.5558 17.9773 14.8466 18.259 15.0646C18.5498 15.2827 18.9178 15.3917 19.363 15.3917C19.8991 15.3917 20.3035 15.2236 20.5761 14.8874C20.8487 14.5513 20.9849 14.106 20.9849 13.5518C20.9849 12.9884 20.8441 12.5614 20.5624 12.2706C20.2898 11.9708 19.8855 11.8209 19.3494 11.8209C18.9678 11.8209 18.6497 11.9163 18.3953 12.1071C18.1409 12.2979 17.9592 12.5523 17.8501 12.8703H16.0238V7.03699H22.1844V8.71339Z"
        fill="#303233" />
    <path
        d="M26.7063 9.29289C26.3158 8.90237 25.6826 8.90237 25.2921 9.29289C24.9016 9.68342 24.9016 10.3166 25.2921 10.7071L27.585 13L25.2921 15.2929C24.9016 15.6834 24.9016 16.3166 25.2921 16.7071C25.6826 17.0976 26.3158 17.0976 26.7063 16.7071L28.9992 14.4142L31.2921 16.7071C31.6826 17.0976 32.3158 17.0976 32.7063 16.7071C33.0968 16.3166 33.0968 15.6834 32.7063 15.2929L30.4134 13L32.7063 10.7071C33.0968 10.3166 33.0968 9.68342 32.7063 9.29289C32.3158 8.90237 31.6826 8.90237 31.2921 9.29289L28.9992 11.5858L26.7063 9.29289Z"
        fill="#303233" />
    <path
        d="M12.9992 16.9999C13.5515 16.9999 13.9992 16.5522 13.9992 16C13.9992 15.4477 13.5515 15 12.9992 15C12.4469 15 11.9992 15.4477 11.9992 16C11.9992 16.5522 12.4469 16.9999 12.9992 16.9999Z"
        fill="#303233" />
</svg>
