<svg width="24" height="24" viewBox="0 0 24 24" fill="none" xmlns="http://www.w3.org/2000/svg">
    <path fill-rule="evenodd" clip-rule="evenodd"
        d="M3.25 12C3.25 10.4812 4.48122 9.25 6 9.25H18C19.5188 9.25 20.75 10.4812 20.75 12V20C20.75 21.5188 19.5188 22.75 18 22.75H6C4.48122 22.75 3.25 21.5188 3.25 20V12ZM11.7129 1.30691C11.6245 1.34351 11.5416 1.39776 11.4697 1.46967L7.46967 5.46967C7.17678 5.76256 7.17678 6.23744 7.46967 6.53033C7.76256 6.82322 8.23744 6.82322 8.53033 6.53033L11.25 3.81066V15C11.25 15.4142 11.5858 15.75 12 15.75C12.4142 15.75 12.75 15.4142 12.75 15V3.81066L15.4697 6.53033C15.7626 6.82322 16.2374 6.82322 16.5303 6.53033C16.8232 6.23744 16.8232 5.76256 16.5303 5.46967L12.5303 1.46967C12.3839 1.32322 12.1919 1.25 12 1.25C11.8983 1.25 11.8013 1.27024 11.7129 1.30691Z"
        fill="#303233" />
</svg>
