<svg width="24" height="24" viewBox="0 0 24 24" fill="none" xmlns="http://www.w3.org/2000/svg">
    <path
        d="M19.75 18C19.75 18.4142 19.4142 18.75 19 18.75C18.5858 18.75 18.25 18.4142 18.25 18C18.25 17.5858 18.5858 17.25 19 17.25C19.4142 17.25 19.75 17.5858 19.75 18Z"
        fill="#303233" />
    <path
        d="M14.5 17.25C14.0858 17.25 13.75 17.5858 13.75 18C13.75 18.4142 14.0858 18.75 14.5 18.75H16C16.4142 18.75 16.75 18.4142 16.75 18C16.75 17.5858 16.4142 17.25 16 17.25H14.5Z"
        fill="#303233" />
    <path fill-rule="evenodd" clip-rule="evenodd"
        d="M1.26894 17.6207C1.25642 17.7455 1.25 17.872 1.25 18C1.25 20.0711 2.92893 21.75 5 21.75H19C21.0711 21.75 22.75 20.0711 22.75 18C22.75 17.872 22.7436 17.7455 22.7311 17.6207C22.6922 17.1631 22.5969 16.5288 22.4738 15.8128C22.3073 14.8441 22.0772 13.6561 21.8213 12.3996C21.3092 9.88544 20.6897 7.07693 20.259 5.15826C19.8753 3.44926 18.3577 2.25 16.6135 2.25H7.38654C5.64231 2.25 4.12466 3.44926 3.74102 5.15826C3.31032 7.07693 2.69084 9.88544 2.17874 12.3996C1.92279 13.6561 1.69265 14.8441 1.52618 15.8128C1.40313 16.5288 1.30776 17.1631 1.26894 17.6207ZM5.2046 5.48681C5.43292 4.46972 6.33683 3.75 7.38654 3.75H16.6135C17.6632 3.75 18.5671 4.46972 18.7954 5.48681C19.2254 7.40225 19.8423 10.1994 20.3514 12.699C20.4925 13.3914 20.625 14.0595 20.7427 14.6787C20.222 14.4049 19.6291 14.25 19 14.25H5C4.37089 14.25 3.77796 14.4049 3.25728 14.6787C3.37505 14.0595 3.50751 13.3914 3.64856 12.699C4.15769 10.1994 4.77462 7.40225 5.2046 5.48681ZM21.2401 17.788C21.2467 17.8726 21.25 17.9435 21.25 18C21.25 19.2426 20.2426 20.25 19 20.25H5C3.75736 20.25 2.75 19.2426 2.75 18C2.75 17.9435 2.7533 17.8726 2.75986 17.788C2.86669 16.6448 3.82885 15.75 5 15.75H19C20.1711 15.75 21.1333 16.6448 21.2401 17.788Z"
        fill="#303233" />
</svg>
