<svg width="16" height="16" viewBox="0 0 16 16" fill="none" xmlns="http://www.w3.org/2000/svg">
    <path fill-rule="evenodd" clip-rule="evenodd"
        d="M7.998 6.906C9.175 5.682 10.406 4.65 12.016 4.65C14.161 4.65 15.25 6.317 15.25 8C15.25 9.683 14.16 11.35 12.016 11.35C10.406 11.35 9.175 10.318 7.998 9.094C6.807 10.315 5.498 11.35 3.735 11.35C1.785 11.35 0.75 9.701 0.75 8C0.75 6.299 1.785 4.65 3.735 4.65C5.498 4.65 6.807 5.686 7.998 6.906ZM6.978 8C6.068 7.031 5.103 6.15 3.735 6.15C2.704 6.15 2.25 7.101 2.25 8C2.25 8.9 2.704 9.85 3.735 9.85C5.103 9.85 6.068 8.969 6.978 8ZM12.016 6.15C11.357 6.15 10.803 6.424 10.289 6.811C9.845 7.146 9.432 7.562 9.022 8C9.432 8.438 9.845 8.855 10.289 9.189C10.803 9.576 11.357 9.85 12.016 9.85C13.184 9.85 13.75 8.917 13.75 8C13.75 7.083 13.184 6.15 12.016 6.15Z"
        fill="#303233" />
</svg>
