<svg width="16" height="16" viewBox="0 0 16 16" fill="none" xmlns="http://www.w3.org/2000/svg">
    <path fill-rule="evenodd" clip-rule="evenodd"
        d="M2.35355 1.64645C2.15829 1.45118 1.84171 1.45118 1.64645 1.64645C1.45118 1.84171 1.45118 2.15829 1.64645 2.35355L5.98165 6.68876L2.12989 10.5405C2.06837 10.602 2.02396 10.6786 2.00107 10.7625L1.01763 14.3684C0.970419 14.5415 1.01958 14.7267 1.14646 14.8536C1.27333 14.9804 1.45846 15.0296 1.63157 14.9824L5.2375 13.9989C5.32145 13.976 5.39797 13.9316 5.4595 13.8701L9.31125 10.0184L13.6464 14.3536C13.8417 14.5488 14.1583 14.5488 14.3536 14.3536C14.5488 14.1583 14.5488 13.8417 14.3536 13.6464L2.35355 1.64645Z"
        fill="#303233" />
    <path fill-rule="evenodd" clip-rule="evenodd"
        d="M10.9677 1.69183C11.8902 0.76939 13.3857 0.769391 14.3082 1.69183C15.2306 2.61427 15.2306 4.10984 14.3082 5.03228L11.4869 7.85354C11.2916 8.0488 10.975 8.0488 10.7798 7.85354L8.14645 5.2202C8.05268 5.12643 8 4.99925 8 4.86664C8 4.73404 8.05268 4.60686 8.14645 4.51309L10.9677 1.69183Z"
        fill="#303233" />
</svg>
