<svg width="16" height="16" viewBox="0 0 16 16" fill="none" xmlns="http://www.w3.org/2000/svg">
    <g clip-path="url(#clip0_53_9907)">
        <path
            d="M5.75 4.99535C6.16421 4.99535 6.5 5.33114 6.5 5.74535V8.43934L6.71967 8.21967C7.01256 7.92678 7.48744 7.92678 7.78033 8.21967C8.07322 8.51256 8.07322 8.98744 7.78033 9.28033L6.28033 10.7803C6.13754 10.9231 5.9515 10.9963 5.76437 10.9999C5.75479 11 5.74521 11 5.73563 10.9999C5.63997 10.9981 5.5487 10.9784 5.46502 10.944C5.37577 10.9074 5.29215 10.8528 5.21967 10.7803L3.71967 9.28033C3.42678 8.98744 3.42678 8.51256 3.71967 8.21967C4.01256 7.92678 4.48744 7.92678 4.78033 8.21967L5 8.43934V5.74535C5 5.33114 5.33579 4.99535 5.75 4.99535Z"
            fill="#303233" />
        <path
            d="M9.5 10.25V7.56066L9.71967 5.21967L9.72126 5.21808C9.7928 5.14696 9.87511 5.09324 9.96291 5.05691C10.0513 5.02024 10.1483 5 10.25 5C10.3517 5 10.4487 5.02024 10.5371 5.05691C10.6255 5.09351 10.7084 5.14776 10.7803 5.21967L12.2803 6.71967C12.5732 7.01256 12.5732 7.48744 12.2803 7.78033C11.9874 8.07322 11.5126 8.07322 11.2197 7.78033L11 7.56066V10.25C11 10.6642 10.6642 11 10.25 11C9.83579 11 9.5 10.6642 9.5 10.25Z"
            fill="#303233" />
        <path
            d="M9.5 7.56066L9.71967 5.21967L8.21967 6.71967C7.92678 7.01256 7.92678 7.48744 8.21967 7.78033C8.51256 8.07322 8.98744 8.07322 9.28033 7.78033L9.5 7.56066Z"
            fill="#303233" />
        <path fill-rule="evenodd" clip-rule="evenodd"
            d="M8 0.75C3.99594 0.75 0.75 3.99594 0.75 8C0.75 12.0041 3.99594 15.25 8 15.25C12.0041 15.25 15.25 12.0041 15.25 8C15.25 3.99594 12.0041 0.75 8 0.75ZM2.25 8C2.25 4.82436 4.82436 2.25 8 2.25C11.1756 2.25 13.75 4.82436 13.75 8C13.75 11.1756 11.1756 13.75 8 13.75C4.82436 13.75 2.25 11.1756 2.25 8Z"
            fill="#303233" />
    </g>
    <defs>
        <clipPath id="clip0_53_9907">
            <rect width="16" height="16" fill="white" />
        </clipPath>
    </defs>
</svg>
