<svg width="24" height="24" viewBox="0 0 24 24" fill="none" xmlns="http://www.w3.org/2000/svg">
    <path fill-rule="evenodd" clip-rule="evenodd"
        d="M2.25 6C2.25 3.92893 3.92893 2.25 6 2.25H12C12.4142 2.25 12.75 2.58579 12.75 3C12.75 3.41421 12.4142 3.75 12 3.75H6C4.75736 3.75 3.75 4.75736 3.75 6V18C3.75 18.8633 4.23622 19.6131 4.94975 19.9904C4.95623 19.9834 4.96287 19.9765 4.96967 19.9697L14.7626 10.1768C15.446 9.49336 16.554 9.49336 17.2374 10.1768L20.9445 13.8839C21.4603 14.3996 21.75 15.0991 21.75 15.8284V18C21.75 20.0711 20.0711 21.75 18 21.75H6C3.92893 21.75 2.25 20.0711 2.25 18V6ZM6.81066 20.25H18C19.2426 20.25 20.25 19.2426 20.25 18V15.8284C20.25 15.4969 20.1183 15.179 19.8839 14.9445L16.1768 11.2374C16.0791 11.1398 15.9209 11.1398 15.8232 11.2374L6.81066 20.25Z"
        fill="#303233" />
    <path fill-rule="evenodd" clip-rule="evenodd"
        d="M6.25 9C6.25 7.48122 7.48122 6.25 9 6.25C10.5188 6.25 11.75 7.48122 11.75 9C11.75 10.5188 10.5188 11.75 9 11.75C7.48122 11.75 6.25 10.5188 6.25 9ZM9 7.75C8.30964 7.75 7.75 8.30964 7.75 9C7.75 9.69036 8.30964 10.25 9 10.25C9.69036 10.25 10.25 9.69036 10.25 9C10.25 8.30964 9.69036 7.75 9 7.75Z"
        fill="#303233" />
    <path
        d="M22.75 5C22.75 4.58579 22.4142 4.25 22 4.25H16C15.5858 4.25 15.25 4.58579 15.25 5C15.25 5.41421 15.5858 5.75 16 5.75H22C22.4142 5.75 22.75 5.41421 22.75 5Z"
        fill="#303233" />
</svg>
