<svg width="24" height="24" viewBox="0 0 24 24" fill="none" xmlns="http://www.w3.org/2000/svg">
    <path fill-rule="evenodd" clip-rule="evenodd"
        d="M6.79734 2.25H18.2027C19.0292 2.24999 19.6958 2.24999 20.2354 2.29479C20.791 2.34093 21.2787 2.43844 21.7287 2.6722C22.4136 3.02798 22.972 3.58643 23.3278 4.27135C23.5616 4.72135 23.6591 5.20901 23.7052 5.76462C23.75 6.30417 23.75 6.97082 23.75 7.79734V16.2027C23.75 17.0292 23.75 17.6958 23.7052 18.2354C23.6591 18.791 23.5616 19.2787 23.3278 19.7287C22.972 20.4136 22.4136 20.972 21.7287 21.3278C21.2787 21.5616 20.791 21.6591 20.2354 21.7052C19.6958 21.75 19.0292 21.75 18.2027 21.75H6.79734C5.97082 21.75 5.30417 21.75 4.76462 21.7052C4.20901 21.6591 3.72135 21.5616 3.27135 21.3278C2.58643 20.972 2.02798 20.4136 1.6722 19.7287C1.43844 19.2787 1.34093 18.791 1.29479 18.2354C1.24999 17.6958 1.24999 17.0292 1.25 16.2027V7.79734C1.24999 6.97082 1.24999 6.30417 1.29479 5.76462C1.34093 5.20901 1.43844 4.72135 1.6722 4.27135C2.02798 3.58643 2.58643 3.02798 3.27135 2.6722C3.72135 2.43844 4.20901 2.34093 4.76462 2.29479C5.30417 2.24999 5.97082 2.24999 6.79734 2.25ZM4.88876 3.78965C4.42759 3.82795 4.16302 3.89932 3.96281 4.00332C3.55186 4.21679 3.21679 4.55186 3.00332 4.96281C2.89932 5.16302 2.82795 5.42759 2.78965 5.88876C2.7506 6.35892 2.75 6.96318 2.75 7.83V8.25H8.25V3.75H6.83C5.96318 3.75 5.35892 3.7506 4.88876 3.78965ZM2.75 9.75H8.25V14.25H2.75V9.75ZM9.75 9.75V14.25H15.25V9.75H9.75ZM16.75 9.75V14.25H22.25V9.75H16.75ZM15.25 15.75H9.75V20.25H15.25V15.75ZM16.75 20.25V15.75H22.25V16.17C22.25 17.0368 22.2494 17.6411 22.2104 18.1112C22.1721 18.5724 22.1007 18.837 21.9967 19.0372C21.7832 19.4481 21.4481 19.7832 21.0372 19.9967C20.837 20.1007 20.5724 20.1721 20.1112 20.2104C19.6411 20.2494 19.0368 20.25 18.17 20.25H16.75ZM16.75 8.25V3.75H18.17C19.0368 3.75 19.6411 3.7506 20.1112 3.78965C20.5724 3.82795 20.837 3.89932 21.0372 4.00332C21.4481 4.21679 21.7832 4.55186 21.9967 4.96281C22.1007 5.16302 22.1721 5.42759 22.2104 5.88876C22.2494 6.35892 22.25 6.96318 22.25 7.83V8.25H16.75ZM15.25 3.75V8.25H9.75V3.75H15.25ZM2.75 15.75H8.25V20.25H6.83C5.96318 20.25 5.35892 20.2494 4.88876 20.2104C4.42759 20.1721 4.16302 20.1007 3.96281 19.9967C3.55186 19.7832 3.21679 19.4481 3.00332 19.0372C2.89932 18.837 2.82795 18.5724 2.78965 18.1112C2.7506 17.6411 2.75 17.0368 2.75 16.17V15.75Z"
        fill="#303233" />
</svg>
