<svg width="24" height="24" viewBox="0 0 24 24" fill="none" xmlns="http://www.w3.org/2000/svg">
    <path fill-rule="evenodd" clip-rule="evenodd"
        d="M12.2321 4.25H6.7679C5.95507 4.24999 5.29944 4.24999 4.76853 4.29336C4.2219 4.33803 3.74175 4.43239 3.29754 4.65873C2.59193 5.01825 2.01825 5.59193 1.65873 6.29754C1.43239 6.74176 1.33803 7.2219 1.29336 7.76853C1.24999 8.29944 1.24999 8.95505 1.25 9.76789V14.2321C1.24999 15.0449 1.24999 15.7006 1.29336 16.2315C1.33803 16.7781 1.43239 17.2582 1.65873 17.7025C2.01825 18.4081 2.59193 18.9817 3.29754 19.3413C3.74175 19.5676 4.2219 19.662 4.76853 19.7066C5.29944 19.75 5.95505 19.75 6.76788 19.75H8.75V23C8.75 23.4142 9.08579 23.75 9.5 23.75C9.91421 23.75 10.25 23.4142 10.25 23V19.75H12.2321C13.045 19.75 13.7006 19.75 14.2315 19.7066C14.7781 19.662 15.2582 19.5676 15.7025 19.3413C16.4081 18.9817 16.9817 18.4081 17.3413 17.7025C17.5676 17.2582 17.662 16.7781 17.7066 16.2315C17.75 15.7006 17.75 15.045 17.75 14.2321V13.8107L20.1258 16.1865C20.3211 16.3818 20.5019 16.5626 20.6578 16.6931C20.8005 16.8126 21.0575 17.0119 21.4019 17.039C21.8008 17.0704 22.1906 16.909 22.4505 16.6047C22.6749 16.342 22.7157 16.0193 22.7321 15.8339C22.75 15.6314 22.75 15.3758 22.75 15.0996V8.90054C22.75 8.6243 22.75 8.36864 22.7321 8.16609C22.7157 7.98068 22.6749 7.65804 22.4505 7.3953C22.1906 7.09103 21.8008 6.92957 21.4019 6.96096C21.0575 6.98807 20.8005 7.18739 20.6578 7.30688C20.5019 7.43741 20.3212 7.61814 20.1259 7.81348L17.75 10.1893V9.76788C17.75 8.95505 17.75 8.29944 17.7066 7.76853C17.662 7.2219 17.5676 6.74176 17.3413 6.29754C16.9817 5.59193 16.4081 5.01825 15.7025 4.65873C15.2582 4.43239 14.7781 4.33803 14.2315 4.29336C13.7006 4.24999 13.0449 4.24999 12.2321 4.25ZM10.25 19.75V14.8107L11.9697 16.5303C12.2626 16.8232 12.7374 16.8232 13.0303 16.5303C13.3232 16.2374 13.3232 15.7626 13.0303 15.4697L10.0303 12.4697C9.73744 12.1768 9.26256 12.1768 8.96967 12.4697L5.96967 15.4697C5.67678 15.7626 5.67678 16.2374 5.96967 16.5303C6.26256 16.8232 6.73744 16.8232 7.03033 16.5303L8.75 14.8107V19.75H10.25Z"
        fill="#303233" />
</svg>
