<svg width="16" height="16" viewBox="0 0 16 16" fill="none" xmlns="http://www.w3.org/2000/svg">
    <g clip-path="url(#clip0_2874_382)">
        <path fill-rule="evenodd" clip-rule="evenodd"
            d="M5.75 8C5.75 6.75736 6.75736 5.75 8 5.75C9.24264 5.75 10.25 6.75736 10.25 8C10.25 9.24264 9.24264 10.25 8 10.25C6.75736 10.25 5.75 9.24264 5.75 8ZM8 7.25C7.58579 7.25 7.25 7.58579 7.25 8C7.25 8.41421 7.58579 8.75 8 8.75C8.41421 8.75 8.75 8.41421 8.75 8C8.75 7.58579 8.41421 7.25 8 7.25Z"
            fill="#303233" />
        <path fill-rule="evenodd" clip-rule="evenodd"
            d="M11.75 3.25V3C11.75 1.48122 10.5188 0.25 9 0.25H3C1.48122 0.25 0.25 1.48122 0.25 3V9C0.25 10.5188 1.48122 11.75 3 11.75H3.25V11.8499C3.24999 12.3751 3.24998 12.8134 3.27877 13.1717C3.3088 13.5454 3.3737 13.8964 3.54 14.2292C3.80618 14.7619 4.2381 15.1938 4.77081 15.46C5.10364 15.6263 5.45465 15.6912 5.82827 15.7212C6.18656 15.75 6.62491 15.75 7.15007 15.75H11.8499C12.3751 15.75 12.8134 15.75 13.1717 15.7212C13.5454 15.6912 13.8964 15.6263 14.2292 15.46C14.7619 15.1938 15.1938 14.7619 15.46 14.2292C15.6263 13.8964 15.6912 13.5454 15.7212 13.1717C15.747 12.8516 15.7497 12.4675 15.75 12.0147C15.7502 12.0051 15.7502 11.9956 15.75 11.986L15.75 7.15007C15.75 6.62491 15.75 6.18656 15.7212 5.82827C15.6912 5.45465 15.6263 5.10364 15.46 4.77081C15.1938 4.2381 14.7619 3.80618 14.2292 3.54C13.8964 3.3737 13.5454 3.3088 13.1717 3.27877C12.8134 3.24998 12.3751 3.24999 11.8499 3.25H11.75ZM1.75 9C1.75 9.69036 2.30964 10.25 3 10.25H3.25V7.15009C3.24999 6.62492 3.24998 6.18657 3.27877 5.82827C3.3088 5.45465 3.3737 5.10364 3.54 4.77081C3.80618 4.2381 4.2381 3.80618 4.77081 3.54C5.10364 3.3737 5.45465 3.3088 5.82827 3.27877C6.18657 3.24998 6.62492 3.24999 7.15009 3.25H10.25V3C10.25 2.30964 9.69036 1.75 9 1.75H3C2.30964 1.75 1.75 2.30964 1.75 3V9ZM14.25 10.1892V7.18C14.25 6.61722 14.2494 6.23948 14.226 5.94842C14.2033 5.6659 14.1628 5.53055 14.1182 5.44128C13.9972 5.19914 13.8009 5.00281 13.5587 4.88182C13.4695 4.83722 13.3341 4.79666 13.0516 4.77395C12.7605 4.75057 12.3828 4.75 11.82 4.75H7.18C6.61722 4.75 6.23948 4.75057 5.94842 4.77395C5.6659 4.79666 5.53055 4.83722 5.44128 4.88182C5.19914 5.00281 5.00281 5.19914 4.88182 5.44128C4.83722 5.53055 4.79666 5.6659 4.77395 5.94842C4.75057 6.23948 4.75 6.61722 4.75 7.18V11.82C4.75 12.3828 4.75057 12.7605 4.77395 13.0516C4.79666 13.3341 4.83722 13.4695 4.88182 13.5587C5.00281 13.8009 5.19914 13.9972 5.44128 14.1182C5.50466 14.1499 5.59127 14.1795 5.7373 14.2021L10.3569 9.58248C10.539 9.40041 10.7062 9.23315 10.8574 9.10479C11.0204 8.9664 11.2135 8.82971 11.4593 8.74984C11.8108 8.63563 12.1894 8.63563 12.5409 8.74984C12.7867 8.82971 12.9798 8.9664 13.1428 9.10479C13.294 9.23315 13.4612 9.40038 13.6433 9.58245L14.25 10.1892ZM7.81074 14.25H11.82C12.3828 14.25 12.7605 14.2494 13.0516 14.226C13.3341 14.2033 13.4695 14.1628 13.5587 14.1182C13.8009 13.9972 13.9972 13.8009 14.1182 13.5587C14.1628 13.4695 14.2033 13.3341 14.226 13.0516C14.2419 12.8543 14.2473 12.6172 14.2491 12.3096L12.6012 10.6617C12.3944 10.4549 12.2708 10.3322 12.172 10.2483C12.1118 10.1971 12.0823 10.1797 12.0741 10.1754C12.0259 10.1605 11.9743 10.1605 11.9261 10.1754C11.9179 10.1797 11.8885 10.1971 11.8282 10.2483C11.7294 10.3322 11.6058 10.4549 11.3991 10.6617L7.81074 14.25Z"
            fill="#303233" />
    </g>
    <defs>
        <clipPath id="clip0_2874_382">
            <rect width="16" height="16" fill="white" />
        </clipPath>
    </defs>
</svg>
