<svg width="16" height="16" viewBox="0 0 16 16" fill="none" xmlns="http://www.w3.org/2000/svg">
    <path
        d="M13.5 1C13.5 0.723858 13.2761 0.5 13 0.5C12.7239 0.5 12.5 0.723858 12.5 1V2.5H11C10.7239 2.5 10.5 2.72386 10.5 3C10.5 3.27614 10.7239 3.5 11 3.5H12.5V5C12.5 5.27614 12.7239 5.5 13 5.5C13.2761 5.5 13.5 5.27614 13.5 5V3.5H15C15.2761 3.5 15.5 3.27614 15.5 3C15.5 2.72386 15.2761 2.5 15 2.5H13.5V1Z"
        fill="#303233" />
    <path
        d="M8 2C4.68629 2 2 4.68629 2 8C2 11.3137 4.68629 14 8 14C11.3137 14 14 11.3137 14 8C14 7.84443 13.9941 7.69034 13.9825 7.53793C13.9615 7.26258 14.1678 7.02239 14.4431 7.00144C14.7185 6.98049 14.9587 7.18673 14.9796 7.46207C14.9931 7.6397 15 7.8191 15 8C15 11.866 11.866 15 8 15C4.13401 15 1 11.866 1 8C1 4.13401 4.13401 1 8 1C8.1809 1 8.3603 1.00687 8.53793 1.02039C8.81327 1.04133 9.01951 1.28152 8.99856 1.55687C8.97761 1.83222 8.73742 2.03845 8.46207 2.0175C8.30966 2.00591 8.15557 2 8 2Z"
        fill="#303233" />
    <path
        d="M9.24976 6C9.24976 5.58579 9.58332 5.25 9.99479 5.25H10.0047C10.4162 5.25 10.7498 5.58579 10.7498 6C10.7498 6.41421 10.4162 6.75 10.0047 6.75H9.99479C9.58332 6.75 9.24976 6.41421 9.24976 6Z"
        fill="#303233" />
    <path
        d="M10.8436 9.16166C11.0442 9.35143 11.053 9.66789 10.8632 9.8685C10.4806 10.273 9.47466 11.1667 7.99968 11.1667C6.52559 11.1667 5.51995 10.2741 5.13685 9.86928C4.94704 9.66872 4.95575 9.35226 5.15631 9.16245C5.35687 8.97263 5.67333 8.98134 5.86315 9.1819C6.17884 9.51546 6.93753 10.1667 7.99968 10.1667C9.0625 10.1667 9.82147 9.51463 10.1368 9.18131C10.3265 8.9807 10.643 8.9719 10.8436 9.16166Z"
        fill="#303233" />
    <path
        d="M5.99479 5.25C5.58332 5.25 5.24976 5.58579 5.24976 6C5.24976 6.41421 5.58332 6.75 5.99479 6.75H6.00472C6.41619 6.75 6.74976 6.41421 6.74976 6C6.74976 5.58579 6.41619 5.25 6.00472 5.25H5.99479Z"
        fill="#303233" />
</svg>
