<svg width="24" height="24" viewBox="0 0 24 24" fill="none" xmlns="http://www.w3.org/2000/svg">
    <path
        d="M13.4697 10.4697C13.7626 10.1769 14.2374 10.1769 14.5303 10.4697C14.8232 10.7626 14.8232 11.2374 14.5303 11.5303L9.03028 17.0303C8.75567 17.3048 8.32093 17.3223 8.02637 17.082L7.96973 17.0303L5.46973 14.5303L5.41797 14.4736C5.17774 14.1791 5.1952 13.7443 5.46973 13.4697C5.74431 13.1952 6.17906 13.1777 6.47364 13.418L6.53028 13.4697L8.5 15.4395L13.4697 10.4697Z"
        fill="#303233" />
    <path fill-rule="evenodd" clip-rule="evenodd"
        d="M18.7998 1.25C19.3475 1.25 19.8037 1.24898 20.1748 1.2793C20.5545 1.31033 20.9109 1.3781 21.2481 1.54981C21.7655 1.81346 22.1865 2.23451 22.4502 2.75196C22.6219 3.0891 22.6897 3.44547 22.7207 3.8252C22.751 4.19633 22.75 4.65253 22.75 5.2002V14.7998C22.75 15.3475 22.751 15.8037 22.7207 16.1748C22.6897 16.5545 22.6219 16.9109 22.4502 17.2481C22.1865 17.7655 21.7655 18.1865 21.2481 18.4502L21.1211 18.5098C20.8217 18.6382 20.5072 18.6935 20.1748 18.7207C19.8037 18.751 19.3475 18.75 18.7998 18.75H18.75V18.7998C18.75 19.3475 18.751 19.8037 18.7207 20.1748C18.6897 20.5545 18.6219 20.9109 18.4502 21.2481C18.1865 21.7655 17.7655 22.1865 17.2481 22.4502L17.1211 22.5098C16.8217 22.6382 16.5072 22.6935 16.1748 22.7207C15.8037 22.751 15.3475 22.75 14.7998 22.75H5.2002C4.65252 22.75 4.19633 22.751 3.8252 22.7207C3.44547 22.6897 3.0891 22.6219 2.75196 22.4502L2.5625 22.3438C2.13169 22.0795 1.78052 21.7008 1.54981 21.2481L1.49024 21.1211C1.36184 20.8217 1.30646 20.5072 1.2793 20.1748C1.24898 19.8037 1.25 19.3475 1.25 18.7998V9.2002C1.25 8.65253 1.24898 8.19633 1.2793 7.8252C1.30646 7.49281 1.36184 7.1783 1.49024 6.87891L1.54981 6.75196C1.81346 6.23451 2.23451 5.81346 2.75196 5.54981C3.0891 5.3781 3.44547 5.31033 3.8252 5.2793C4.19633 5.24898 4.65252 5.25 5.2002 5.25H5.25V5.2002C5.25 4.65253 5.24898 4.19633 5.2793 3.8252C5.30646 3.49281 5.36184 3.1783 5.49024 2.87891L5.54981 2.75196C5.81346 2.23451 6.23451 1.81346 6.75196 1.54981C7.0891 1.3781 7.44547 1.31033 7.8252 1.2793C8.19633 1.24898 8.65252 1.25 9.2002 1.25H18.7998ZM5.2002 6.75C4.62777 6.75 4.24315 6.75024 3.94727 6.77442C3.66027 6.79788 3.52316 6.84059 3.43262 6.88672C3.19751 7.00655 3.00655 7.19751 2.88672 7.43262L2.85254 7.51075C2.8202 7.601 2.79201 7.73203 2.77442 7.94727C2.75024 8.24315 2.75 8.62778 2.75 9.2002V18.7998C2.75 19.3722 2.75024 19.7569 2.77442 20.0527C2.79201 20.268 2.82021 20.399 2.85254 20.4893L2.88672 20.5674C2.99161 20.7732 3.15085 20.9453 3.34668 21.0654L3.43262 21.1133C3.52316 21.1594 3.66027 21.2021 3.94727 21.2256C4.24315 21.2498 4.62777 21.25 5.2002 21.25H14.7998C15.3722 21.25 15.7569 21.2498 16.0527 21.2256C16.268 21.208 16.399 21.1798 16.4893 21.1475L16.5674 21.1133C16.8025 20.9935 16.9935 20.8025 17.1133 20.5674C17.1594 20.4768 17.2021 20.3397 17.2256 20.0527C17.2498 19.7569 17.25 19.3722 17.25 18.7998V9.2002C17.25 8.62778 17.2498 8.24315 17.2256 7.94727C17.2021 7.66028 17.1594 7.52316 17.1133 7.43262C16.9935 7.19751 16.8025 7.00655 16.5674 6.88672C16.4768 6.84059 16.3397 6.79788 16.0527 6.77442C15.7569 6.75024 15.3722 6.75 14.7998 6.75H5.2002ZM9.2002 2.75C8.62777 2.75 8.24315 2.75024 7.94727 2.77442C7.66027 2.79788 7.52316 2.84059 7.43262 2.88672C7.19751 3.00655 7.00655 3.19751 6.88672 3.43262L6.85254 3.51075C6.8202 3.60099 6.79201 3.73203 6.77442 3.94727C6.75024 4.24315 6.75 4.62778 6.75 5.2002V5.25H14.7998C15.3475 5.25 15.8037 5.24898 16.1748 5.2793C16.5545 5.31033 16.9109 5.3781 17.2481 5.54981C17.7655 5.81346 18.1865 6.23451 18.4502 6.75196C18.6219 7.0891 18.6897 7.44547 18.7207 7.8252C18.751 8.19633 18.75 8.65253 18.75 9.2002V17.25H18.7998C19.3722 17.25 19.7569 17.2498 20.0527 17.2256C20.268 17.208 20.399 17.1798 20.4893 17.1475L20.5674 17.1133C20.8025 16.9935 20.9935 16.8025 21.1133 16.5674C21.1594 16.4768 21.2021 16.3397 21.2256 16.0527C21.2498 15.7569 21.25 15.3722 21.25 14.7998V5.2002C21.25 4.62778 21.2498 4.24315 21.2256 3.94727C21.2021 3.66028 21.1594 3.52316 21.1133 3.43262C20.9935 3.19751 20.8025 3.00655 20.5674 2.88672C20.4768 2.84059 20.3397 2.79788 20.0527 2.77442C19.7569 2.75024 19.3722 2.75 18.7998 2.75H9.2002Z"
        fill="#303233" />
</svg>
