<svg width="24" height="24" viewBox="0 0 24 24" fill="none" xmlns="http://www.w3.org/2000/svg">
    <path fill-rule="evenodd" clip-rule="evenodd"
        d="M6 9C6 7.34315 7.34315 6 9 6C10.6569 6 12 7.34315 12 9C12 10.6569 10.6569 12 9 12C7.34315 12 6 10.6569 6 9ZM9 8C8.44772 8 8 8.44772 8 9C8 9.55229 8.44772 10 9 10C9.55229 10 10 9.55229 10 9C10 8.44772 9.55229 8 9 8Z"
        fill="#303233" />
    <path fill-rule="evenodd" clip-rule="evenodd"
        d="M2 6C2 3.79086 3.79086 2 6 2H18C20.2091 2 22 3.79086 22 6V18C22 20.2091 20.2091 22 18 22H6C3.79086 22 2 20.2091 2 18V6ZM20 12.5858V6C20 4.89543 19.1046 4 18 4H6C4.89543 4 4 4.89543 4 6V18C4 18.7021 4.36182 19.3198 4.90918 19.6766L14.5858 10C15.3668 9.21895 16.6332 9.21895 17.4142 10L20 12.5858ZM7.41421 20L16 11.4142L20 15.4142V18C20 19.1046 19.1046 20 18 20H7.41421Z"
        fill="#303233" />
</svg>
