<svg width="16" height="16" viewBox="0 0 16 16" fill="none" xmlns="http://www.w3.org/2000/svg">
    <path
        d="M3.75 2C2.7835 2 2 2.7835 2 3.75C2 4.7165 2.7835 5.5 3.75 5.5H12.25C13.2165 5.5 14 4.7165 14 3.75C14 2.7835 13.2165 2 12.25 2H3.75Z"
        fill="#303233" />
    <path
        d="M2.5 7C2.22386 7 2 7.22386 2 7.5C2 7.77614 2.22386 8 2.5 8H7.5C7.77614 8 8 7.77614 8 7.5C8 7.22386 7.77614 7 7.5 7H2.5Z"
        fill="#303233" />
    <path
        d="M2 10C2 9.72386 2.22386 9.5 2.5 9.5H7.5C7.77614 9.5 8 9.72386 8 10C8 10.2761 7.77614 10.5 7.5 10.5H2.5C2.22386 10.5 2 10.2761 2 10Z"
        fill="#303233" />
    <path
        d="M2.5 12C2.22386 12 2 12.2239 2 12.5C2 12.7761 2.22386 13 2.5 13H7.5C7.77614 13 8 12.7761 8 12.5C8 12.2239 7.77614 12 7.5 12H2.5Z"
        fill="#303233" />
    <path
        d="M13 8.70711L14.6464 10.3536C14.8417 10.5488 15.1583 10.5488 15.3536 10.3536C15.5488 10.1583 15.5488 9.84171 15.3536 9.64645L12.8536 7.14645C12.6583 6.95118 12.3417 6.95118 12.1464 7.14645L9.64645 9.64645C9.45118 9.84171 9.45118 10.1583 9.64645 10.3536C9.84171 10.5488 10.1583 10.5488 10.3536 10.3536L12 8.70711V12.5C12 12.7761 12.2239 13 12.5 13C12.7761 13 13 12.7761 13 12.5V8.70711Z"
        fill="#303233" />
</svg>
