<svg width="16" height="16" viewBox="0 0 16 16" fill="none" xmlns="http://www.w3.org/2000/svg">
    <path fill-rule="evenodd" clip-rule="evenodd"
        d="M3 2C1.89543 2 0.999992 2.89544 1 4.00001L1.00006 12C1.00006 13.1046 1.89549 14 3.00006 14H13.0001C14.1046 14 15.0001 13.1046 15.0001 12V5C15.0001 3.89543 14.1046 3 13.0001 3H9.20712C8.75441 3 8.32024 2.82014 8.00015 2.5C7.68006 2.17986 7.24589 2 6.79318 2H3ZM8.00024 5.5C8.27639 5.5 8.50024 5.72386 8.50024 6V8H10.5002C10.7764 8 11.0002 8.22386 11.0002 8.5C11.0002 8.77614 10.7764 9 10.5002 9H8.50024V11C8.50024 11.2761 8.27639 11.5 8.00024 11.5C7.7241 11.5 7.50024 11.2761 7.50024 11V9H5.50024C5.2241 9 5.00024 8.77614 5.00024 8.5C5.00024 8.22386 5.2241 8 5.50024 8H7.50024V6C7.50024 5.72386 7.7241 5.5 8.00024 5.5Z"
        fill="#303233" />
</svg>
