<svg width="16" height="16" viewBox="0 0 16 16" fill="none" xmlns="http://www.w3.org/2000/svg">
    <path
        d="M3.00002 1.75C1.75737 1.75 0.750012 2.75737 0.750021 4.00002V6.5L0.750003 6.50349L0.75 6.50463C0.75 6.91884 1.08579 7.25463 1.5 7.25463C1.9142 7.25463 2.24998 6.91883 2.25 6.50463L2.25017 5C2.25017 4.58579 2.58596 4.25 3.00017 4.25H13.0002C13.4144 4.25 13.7502 4.58579 13.7502 5V12C13.7502 12.4142 13.4144 12.75 13.0002 12.75L8.50002 12.75L8.49862 12.75C8.08441 12.75 7.74862 13.0858 7.74862 13.5C7.74862 13.9142 8.08441 14.25 8.49862 14.25L13.0001 14.25C14.2427 14.25 15.2501 13.2426 15.2501 12V5C15.2501 3.75736 14.2427 2.75 13.0001 2.75H9.20714C8.82074 2.75 8.45017 2.59649 8.17696 2.32324C7.80999 1.9562 7.31222 1.75 6.7932 1.75H3.00002Z"
        fill="#303233" />
    <path
        d="M1.5 8.25H6C6.10169 8.25 6.19866 8.27024 6.28709 8.30691C6.37555 8.34351 6.45842 8.39776 6.53033 8.46967C6.60224 8.54158 6.65649 8.62445 6.69309 8.71291C6.72976 8.80134 6.75 8.89831 6.75 9V13.5C6.75 13.9142 6.41421 14.25 6 14.25C5.58579 14.25 5.25 13.9142 5.25 13.5V10.8107L2.03033 14.0303C1.73744 14.3232 1.26256 14.3232 0.96967 14.0303C0.676777 13.7374 0.676777 13.2626 0.96967 12.9697L4.18934 9.75H1.5C1.08579 9.75 0.75 9.41421 0.75 9C0.75 8.58579 1.08579 8.25 1.5 8.25Z"
        fill="#303233" />
</svg>
