<svg width="24" height="24" viewBox="0 0 24 24" fill="none" xmlns="http://www.w3.org/2000/svg">
    <path fill-rule="evenodd" clip-rule="evenodd"
        d="M12.0001 1C12.3344 1 12.6466 1.1671 12.8321 1.4453L14.0001 3.19722C14.1532 3.42699 14.4637 3.48908 14.6934 3.3359L16.4454 2.16795C16.7891 1.93878 17.2384 1.9446 17.5761 2.18258C17.9138 2.42057 18.0704 2.84173 17.9702 3.24254L16.9702 7.24254C16.9649 7.26392 16.9588 7.28499 16.9522 7.30574C16.9837 7.53264 17 7.76442 17 8C17 10.7614 14.7614 13 12 13C9.23858 13 7 10.7614 7 8C7 7.76434 7.0163 7.53248 7.04784 7.3055C7.04122 7.28483 7.03524 7.26384 7.02991 7.24254L6.02991 3.24254C5.92971 2.84173 6.0863 2.42057 6.42401 2.18258C6.76171 1.9446 7.211 1.93878 7.55475 2.16795L9.30668 3.3359C9.53644 3.48908 9.84688 3.42699 10.0001 3.19722L11.168 1.4453C11.3535 1.1671 11.6657 1 12.0001 1ZM9 8C9 9.65685 10.3431 11 12 11C13.6569 11 15 9.65685 15 8H9Z"
        fill="#303233" />
    <path
        d="M12.0002 16C8.73981 16 5.99776 18.2299 5.22063 21.2493C5.08297 21.7841 4.53779 22.1061 4.00294 21.9684C3.46808 21.8308 3.1461 21.2856 3.28376 20.7507C4.2828 16.8692 7.80515 14 12.0002 14C16.1952 14 19.7175 16.8692 20.7166 20.7507C20.8542 21.2856 20.5322 21.8308 19.9974 21.9684C19.4625 22.1061 18.9173 21.7841 18.7797 21.2493C18.0026 18.2299 15.2605 16 12.0002 16Z"
        fill="#303233" />
</svg>
