<svg width="24" height="24" viewBox="0 0 24 24" fill="none" xmlns="http://www.w3.org/2000/svg">
    <path fill-rule="evenodd" clip-rule="evenodd"
        d="M2 4C2 2.89543 2.89543 2 4 2H6C7.10457 2 8 2.89543 8 4V6C8 7.10457 7.10457 8 6 8H4C2.89543 8 2 7.10457 2 6V4ZM6 4H4V6H6V4Z"
        fill="#303233" />
    <path fill-rule="evenodd" clip-rule="evenodd"
        d="M9 4C9 2.89543 9.89543 2 11 2H13C14.1046 2 15 2.89543 15 4V6C15 7.10457 14.1046 8 13 8H11C9.89543 8 9 7.10457 9 6V4ZM13 4H11V6H13V4Z"
        fill="#303233" />
    <path fill-rule="evenodd" clip-rule="evenodd"
        d="M18 2C16.8954 2 16 2.89543 16 4V6C16 7.10457 16.8954 8 18 8H20C21.1046 8 22 7.10457 22 6V4C22 2.89543 21.1046 2 20 2H18ZM18 4H20V6H18V4Z"
        fill="#303233" />
    <path fill-rule="evenodd" clip-rule="evenodd"
        d="M2 11C2 9.89543 2.89543 9 4 9H6C7.10457 9 8 9.89543 8 11V13C8 14.1046 7.10457 15 6 15H4C2.89543 15 2 14.1046 2 13V11ZM6 11H4V13H6V11Z"
        fill="#303233" />
    <path fill-rule="evenodd" clip-rule="evenodd"
        d="M11 9C9.89543 9 9 9.89543 9 11V13C9 14.1046 9.89543 15 11 15H13C14.1046 15 15 14.1046 15 13V11C15 9.89543 14.1046 9 13 9H11ZM11 11H13V13H11V11Z"
        fill="#303233" />
    <path fill-rule="evenodd" clip-rule="evenodd"
        d="M16 11C16 9.89543 16.8954 9 18 9H20C21.1046 9 22 9.89543 22 11V13C22 14.1046 21.1046 15 20 15H18C16.8954 15 16 14.1046 16 13V11ZM20 11H18V13H20V11Z"
        fill="#303233" />
    <path fill-rule="evenodd" clip-rule="evenodd"
        d="M4 16C2.89543 16 2 16.8954 2 18V20C2 21.1046 2.89543 22 4 22H6C7.10457 22 8 21.1046 8 20V18C8 16.8954 7.10457 16 6 16H4ZM4 18H6V20H4V18Z"
        fill="#303233" />
    <path fill-rule="evenodd" clip-rule="evenodd"
        d="M9 18C9 16.8954 9.89543 16 11 16H13C14.1046 16 15 16.8954 15 18V20C15 21.1046 14.1046 22 13 22H11C9.89543 22 9 21.1046 9 20V18ZM13 18H11V20H13V18Z"
        fill="#303233" />
    <path fill-rule="evenodd" clip-rule="evenodd"
        d="M18 16C16.8954 16 16 16.8954 16 18V20C16 21.1046 16.8954 22 18 22H20C21.1046 22 22 21.1046 22 20V18C22 16.8954 21.1046 16 20 16H18ZM18 18H20V20H18V18Z"
        fill="#303233" />
</svg>
