<svg width="16" height="16" viewBox="0 0 16 16" fill="none" xmlns="http://www.w3.org/2000/svg">
    <g clip-path="url(#clip0_53_8508)">
        <path fill-rule="evenodd" clip-rule="evenodd"
            d="M8 0.75C3.99594 0.75 0.75 3.99594 0.75 8C0.75 12.0041 3.99594 15.25 8 15.25C12.0041 15.25 15.25 12.0041 15.25 8C15.25 3.99594 12.0041 0.75 8 0.75ZM5.99557 5C5.44573 5 5 5.44772 5 6C5 6.55228 5.44573 7 5.99557 7H6.00443C6.55427 7 7 6.55228 7 6C7 5.44772 6.55427 5 6.00443 5H5.99557ZM5.5 9.25C5.08579 9.25 4.75 9.58579 4.75 10C4.75 10.4142 5.08579 10.75 5.5 10.75H10.5C10.9142 10.75 11.25 10.4142 11.25 10C11.25 9.58579 10.9142 9.25 10.5 9.25H5.5ZM9 6C9 5.44772 9.44573 5 9.99557 5H10.0044C10.5543 5 11 5.44772 11 6C11 6.55228 10.5543 7 10.0044 7H9.99557C9.44573 7 9 6.55228 9 6Z"
            fill="#303233" />
    </g>
    <defs>
        <clipPath id="clip0_53_8508">
            <rect width="16" height="16" fill="white" />
        </clipPath>
    </defs>
</svg>
