<svg width="16" height="16" viewBox="0 0 16 16" fill="none" xmlns="http://www.w3.org/2000/svg">
    <g clip-path="url(#clip0_53_8561)">
        <path fill-rule="evenodd" clip-rule="evenodd"
            d="M8 0.75C3.99594 0.75 0.75 3.99594 0.75 8C0.75 12.0041 3.99594 15.25 8 15.25C12.0041 15.25 15.25 12.0041 15.25 8C15.25 3.99594 12.0041 0.75 8 0.75ZM5.99582 5C5.44598 5 5.00024 5.44772 5.00024 6C5.00024 6.55228 5.44598 7 5.99582 7H6.00467C6.55451 7 7.00024 6.55228 7.00024 6C7.00024 5.44772 6.55451 5 6.00467 5H5.99582ZM9.99582 5C9.44598 5 9.00024 5.44772 9.00024 6C9.00024 6.55228 9.44598 7 9.99582 7H10.0047C10.5545 7 11.0002 6.55228 11.0002 6C11.0002 5.44772 10.5545 5 10.0047 5H9.99582ZM3.25024 9C3.25024 8.58579 3.58603 8.25 4.00024 8.25H12.0002C12.4145 8.25 12.7502 8.58579 12.7502 9C12.7502 10.0191 12.1322 10.9648 11.2991 11.624C10.4491 12.2965 9.28631 12.75 8.00024 12.75C6.71418 12.75 5.55139 12.2965 4.70138 11.624C3.86831 10.9648 3.25024 10.0191 3.25024 9Z"
            fill="#303233" />
    </g>
    <defs>
        <clipPath id="clip0_53_8561">
            <rect width="16" height="16" fill="white" />
        </clipPath>
    </defs>
</svg>
