<svg width="24" height="24" viewBox="0 0 24 24" fill="none" xmlns="http://www.w3.org/2000/svg">
    <path
        d="M7.7679 2.25H8C8.41421 2.25 8.75 2.58579 8.75 3C8.75 3.41421 8.41421 3.75 8 3.75H7.8C6.94755 3.75 6.35331 3.75058 5.89068 3.78838C5.43681 3.82547 5.17604 3.8946 4.97852 3.99524C4.55516 4.21095 4.21095 4.55516 3.99524 4.97852C3.8946 5.17604 3.82547 5.43681 3.78838 5.89068C3.75058 6.35331 3.75 6.94755 3.75 7.8V8C3.75 8.41421 3.41421 8.75 3 8.75C2.58579 8.75 2.25 8.41421 2.25 8V7.7679C2.24999 6.95506 2.24999 6.29944 2.29336 5.76853C2.33803 5.2219 2.43239 4.74175 2.65873 4.29754C3.01825 3.59193 3.59193 3.01825 4.29754 2.65873C4.74175 2.43239 5.2219 2.33803 5.76853 2.29336C6.29944 2.24999 6.95506 2.24999 7.7679 2.25Z"
        fill="#303233" />
    <path
        d="M18.1093 3.78838C17.6467 3.75058 17.0525 3.75 16.2 3.75H16C15.5858 3.75 15.25 3.41421 15.25 3C15.25 2.58579 15.5858 2.25 16 2.25H16.2321C17.0449 2.24999 17.7006 2.24999 18.2315 2.29336C18.7781 2.33803 19.2582 2.43239 19.7025 2.65873C20.4081 3.01825 20.9817 3.59193 21.3413 4.29754C21.5676 4.74175 21.662 5.2219 21.7066 5.76853C21.75 6.29944 21.75 6.95505 21.75 7.76788V8C21.75 8.41421 21.4142 8.75 21 8.75C20.5858 8.75 20.25 8.41421 20.25 8V7.8C20.25 6.94755 20.2494 6.35331 20.2116 5.89068C20.1745 5.43681 20.1054 5.17604 20.0048 4.97852C19.789 4.55516 19.4448 4.21095 19.0215 3.99524C18.824 3.8946 18.5632 3.82547 18.1093 3.78838Z"
        fill="#303233" />
    <path
        d="M3 15.25C3.41421 15.25 3.75 15.5858 3.75 16V16.2C3.75 17.0525 3.75058 17.6467 3.78838 18.1093C3.82547 18.5632 3.8946 18.824 3.99524 19.0215C4.21095 19.4448 4.55516 19.789 4.97852 20.0048C5.17604 20.1054 5.43681 20.1745 5.89068 20.2116C6.35331 20.2494 6.94755 20.25 7.8 20.25H8C8.41421 20.25 8.75 20.5858 8.75 21C8.75 21.4142 8.41421 21.75 8 21.75H7.76788C6.95505 21.75 6.29944 21.75 5.76853 21.7066C5.2219 21.662 4.74175 21.5676 4.29754 21.3413C3.59193 20.9817 3.01825 20.4081 2.65873 19.7025C2.43239 19.2582 2.33803 18.7781 2.29336 18.2315C2.24999 17.7006 2.24999 17.045 2.25 16.2321V16C2.25 15.5858 2.58579 15.25 3 15.25Z"
        fill="#303233" />
    <path fill-rule="evenodd" clip-rule="evenodd"
        d="M18 15.25C16.4812 15.25 15.25 16.4812 15.25 18C15.25 19.5188 16.4812 20.75 18 20.75C19.5188 20.75 20.75 19.5188 20.75 18C20.75 16.4812 19.5188 15.25 18 15.25ZM16.75 18C16.75 17.3096 17.3096 16.75 18 16.75C18.6904 16.75 19.25 17.3096 19.25 18C19.25 18.6904 18.6904 19.25 18 19.25C17.3096 19.25 16.75 18.6904 16.75 18Z"
        fill="#303233" />
    <path fill-rule="evenodd" clip-rule="evenodd"
        d="M15.3711 12.25H20.6289C21.0243 12.25 21.3654 12.25 21.6463 12.2729C21.9428 12.2972 22.2377 12.3506 22.5215 12.4952C22.9448 12.711 23.2891 13.0552 23.5048 13.4785C23.6494 13.7623 23.7028 14.0572 23.7271 14.3537C23.75 14.6347 23.75 14.9757 23.75 15.3711V20.6289C23.75 21.0243 23.75 21.3653 23.7271 21.6463C23.7028 21.9428 23.6494 22.2377 23.5048 22.5215C23.2891 22.9448 22.9448 23.2891 22.5215 23.5048C22.2377 23.6494 21.9428 23.7028 21.6463 23.7271C21.3653 23.75 21.0243 23.75 20.6289 23.75H15.3711C14.9757 23.75 14.6347 23.75 14.3537 23.7271C14.0572 23.7028 13.7623 23.6494 13.4785 23.5048C13.0552 23.2891 12.711 22.9448 12.4952 22.5215C12.3506 22.2377 12.2972 21.9428 12.2729 21.6463C12.25 21.3654 12.25 21.0243 12.25 20.629V15.3711C12.25 14.9758 12.25 14.6346 12.2729 14.3537C12.2972 14.0572 12.3506 13.7623 12.4952 13.4785C12.711 13.0552 13.0552 12.711 13.4785 12.4952C13.7623 12.3506 14.0572 12.2972 14.3537 12.2729C14.6346 12.25 14.9758 12.25 15.3711 12.25ZM14.4759 13.7679C14.2721 13.7846 14.1966 13.8129 14.1595 13.8317C14.0184 13.9037 13.9037 14.0184 13.8317 14.1595C13.8129 14.1966 13.7846 14.2721 13.7679 14.4759C13.7506 14.6884 13.75 14.9676 13.75 15.4V20.6C13.75 21.0324 13.7506 21.3116 13.7679 21.5241C13.7846 21.7279 13.8129 21.8034 13.8317 21.8405C13.9037 21.9816 14.0184 22.0964 14.1595 22.1683C14.1966 22.1871 14.2721 22.2154 14.4759 22.2321C14.6884 22.2494 14.9676 22.25 15.4 22.25H20.6C21.0324 22.25 21.3116 22.2494 21.5241 22.2321C21.7279 22.2154 21.8034 22.1872 21.8405 22.1683C21.9816 22.0964 22.0964 21.9816 22.1683 21.8405C22.1872 21.8034 22.2154 21.7279 22.2321 21.5241C22.2494 21.3116 22.25 21.0324 22.25 20.6V15.4C22.25 14.9676 22.2494 14.6884 22.2321 14.4759C22.2154 14.2721 22.1871 14.1966 22.1683 14.1595C22.0964 14.0184 21.9816 13.9037 21.8405 13.8317C21.8034 13.8129 21.7279 13.7846 21.5241 13.7679C21.3116 13.7506 21.0324 13.75 20.6 13.75H15.4C14.9676 13.75 14.6884 13.7506 14.4759 13.7679Z"
        fill="#303233" />
</svg>
