<svg width="24" height="24" viewBox="0 0 24 24" fill="none" xmlns="http://www.w3.org/2000/svg">
    <g clip-path="url(#clip0_155_198)">
        <path fill-rule="evenodd" clip-rule="evenodd"
            d="M11.401 2.0827C11.8082 2.25947 12.0501 2.68354 11.9951 3.12404L11.1356 10L17.3305 10C17.5715 9.99995 17.8156 9.99991 18.0151 10.018C18.2037 10.035 18.5648 10.0802 18.8781 10.3333C19.2366 10.6231 19.4421 11.0616 19.4351 11.5226C19.429 11.9253 19.2325 12.2316 19.1249 12.3875C19.0111 12.5522 18.8548 12.7397 18.7005 12.9248L9.77101 23.6402C9.48682 23.9812 9.01181 24.0941 8.6046 23.9173C8.19738 23.7405 7.95545 23.3165 8.01051 22.876L8.87001 16L2.67502 16C2.43403 16 2.18993 16.0001 1.99051 15.982C1.8019 15.965 1.44073 15.9198 1.12752 15.6667C0.768943 15.3769 0.563532 14.9384 0.570483 14.4774C0.576555 14.0747 0.773063 13.7684 0.880689 13.6125C0.994493 13.4478 1.1508 13.2603 1.30512 13.0751C1.31276 13.066 1.3204 13.0568 1.32803 13.0477L10.2346 2.35982C10.5188 2.01878 10.9938 1.90593 11.401 2.0827ZM3.13783 14H10.0028C10.2896 14 10.5626 14.1232 10.7525 14.3382C10.9423 14.5532 11.0306 14.8394 10.9951 15.124L10.4181 19.7395L16.8678 12H10.0028C9.71596 12 9.44294 11.8768 9.25311 11.6618C9.06329 11.4468 8.97494 11.1606 9.01051 10.876L9.58745 6.26046L3.13783 14Z"
            fill="#303233" />
        <path fill-rule="evenodd" clip-rule="evenodd"
            d="M15.1348 7L14.9943 8.12403C14.9258 8.67205 14.426 9.06078 13.878 8.99228C13.33 8.92378 12.9413 8.42399 13.0098 7.87597L13.5427 3.61245C13.7293 2.11999 14.998 1 16.5021 1C18.0061 1 19.2748 2.11999 19.4614 3.61245L19.9943 7.87597C20.0628 8.42399 19.6741 8.92378 19.1261 8.99228C18.5781 9.06078 18.0783 8.67205 18.0098 8.12403L17.8693 7H15.1348ZM15.5273 3.86052C15.5887 3.36892 16.0066 3 16.5021 3C16.9975 3 17.4154 3.36892 17.4768 3.86052L17.6193 5H15.3848L15.5273 3.86052Z"
            fill="#303233" />
    </g>
    <defs>
        <clipPath id="clip0_155_198">
            <rect width="24" height="24" fill="white" />
        </clipPath>
    </defs>
</svg>
