<svg width="16" height="16" viewBox="0 0 16 16" fill="none" xmlns="http://www.w3.org/2000/svg">
    <g clip-path="url(#clip0_8799_16)">
        <path
            d="M9.22461 7.08203C9.41864 6.9539 9.68265 6.97573 9.85352 7.14648C10.0244 7.31735 10.0461 7.58131 9.91797 7.77539L9.85352 7.85352L6.35352 11.3535C6.18265 11.5243 5.91865 11.5461 5.72461 11.418L5.64648 11.3535L3.64648 9.35352L3.58203 9.27539C3.45397 9.08136 3.47574 8.81732 3.64648 8.64648C3.8173 8.47567 4.08133 8.45398 4.27539 8.58203L4.35352 8.64648L6 10.293L9.14648 7.14648L9.22461 7.08203Z"
            fill="#303233" />
        <path fill-rule="evenodd" clip-rule="evenodd"
            d="M11.7998 0.5C12.3516 0.5 12.7957 0.5 13.1543 0.529297C13.5186 0.559068 13.8387 0.621641 14.1348 0.772461C14.6052 1.01215 14.9879 1.39484 15.2275 1.86523C15.3784 2.16132 15.4409 2.48137 15.4707 2.8457C15.5 3.20429 15.5 3.6484 15.5 4.2002V9.75C15.5 10.4113 15.5056 10.8529 15.3926 11.2256C15.1502 12.0246 14.5246 12.6502 13.7256 12.8926L13.582 12.9297C13.404 12.9684 13.2078 12.9853 12.9795 12.9932C12.9764 13.0487 12.9749 13.1024 12.9707 13.1543C12.9409 13.5186 12.8784 13.8387 12.7275 14.1348C12.4879 14.6052 12.1052 14.9879 11.6348 15.2275L11.5225 15.2803C11.2579 15.3937 10.973 15.4447 10.6543 15.4707C10.2957 15.5 9.85161 15.5 9.2998 15.5H4.2002C3.64839 15.5 3.20429 15.5 2.8457 15.4707C2.48136 15.4409 2.16133 15.3784 1.86523 15.2275L1.69238 15.1309C1.30096 14.8907 0.982108 14.5462 0.772461 14.1348L0.719727 14.0225C0.60629 13.7579 0.55534 13.473 0.529297 13.1543C0.499999 12.7957 0.5 12.3516 0.5 11.7998V6.7002C0.5 6.14839 0.499999 5.70429 0.529297 5.3457C0.55534 5.02697 0.60629 4.74209 0.719727 4.47754L0.772461 4.36523C1.01214 3.89483 1.39483 3.51214 1.86523 3.27246C2.16133 3.12163 2.48136 3.05907 2.8457 3.0293C2.89728 3.02508 2.95068 3.02262 3.00586 3.01953C3.01372 2.79161 3.03165 2.59579 3.07031 2.41797L3.10742 2.27441C3.3498 1.47542 3.97541 0.849796 4.77441 0.607422C5.05397 0.522661 5.37231 0.504747 5.79297 0.500977L6.25 0.5H11.7998ZM4.2002 4C3.63189 4 3.23518 4.00019 2.92676 4.02539C2.62471 4.05009 2.45091 4.09613 2.31934 4.16309C2.03709 4.3069 1.8069 4.53709 1.66309 4.81934L1.61719 4.92676C1.57473 5.04536 1.54395 5.19984 1.52539 5.42676C1.50019 5.73518 1.5 6.13189 1.5 6.7002V11.7998C1.5 12.3681 1.50019 12.7648 1.52539 13.0732C1.54395 13.3002 1.57473 13.4546 1.61719 13.5732L1.66309 13.6807C1.78891 13.9276 1.98088 14.1342 2.21582 14.2783L2.31934 14.3369C2.45091 14.4039 2.62471 14.4499 2.92676 14.4746C3.23518 14.4998 3.63189 14.5 4.2002 14.5H9.2998C9.86811 14.5 10.2648 14.4998 10.5732 14.4746C10.8002 14.4561 10.9546 14.4253 11.0732 14.3828L11.1807 14.3369C11.4629 14.1931 11.6931 13.9629 11.8369 13.6807C11.9039 13.5491 11.9499 13.3753 11.9746 13.0732C11.9998 12.7648 12 12.3681 12 11.7998V6.7002C12 6.13189 11.9998 5.73518 11.9746 5.42676C11.9499 5.12471 11.9039 4.95091 11.8369 4.81934C11.6931 4.53709 11.4629 4.3069 11.1807 4.16309C11.0491 4.09613 10.8753 4.05009 10.5732 4.02539C10.2648 4.00019 9.86811 4 9.2998 4H4.2002ZM6.25 1.5L5.78223 1.50195C5.39151 1.50626 5.21069 1.5201 5.06445 1.56445C4.58511 1.70989 4.20989 2.08512 4.06445 2.56445L4.0293 2.72852C4.01899 2.80184 4.01315 2.88925 4.00879 3.00098C4.07111 3.00093 4.1349 3 4.2002 3H9.2998C9.85161 3 10.2957 3 10.6543 3.0293C11.0186 3.05907 11.3387 3.12163 11.6348 3.27246C12.1052 3.51214 12.4879 3.89483 12.7275 4.36523C12.8784 4.66133 12.9409 4.98136 12.9707 5.3457C13 5.70429 13 6.14839 13 6.7002V11.7998C13 11.8648 12.9981 11.9282 12.998 11.9902C13.1102 11.9859 13.198 11.981 13.2715 11.9707L13.4355 11.9355C13.9149 11.7901 14.2901 11.4149 14.4355 10.9355C14.4947 10.7405 14.5 10.4841 14.5 9.75V4.2002C14.5 3.63189 14.4998 3.23518 14.4746 2.92676C14.4499 2.62472 14.4039 2.45091 14.3369 2.31934C14.1931 2.0371 13.9629 1.8069 13.6807 1.66309C13.5491 1.59614 13.3753 1.55009 13.0732 1.52539C12.7648 1.50019 12.3681 1.5 11.7998 1.5H6.25Z"
            fill="#303233" />
    </g>
    <defs>
        <clipPath id="clip0_8799_16">
            <rect width="16" height="16" fill="white" />
        </clipPath>
    </defs>
</svg>
