<svg width="16" height="16" viewBox="0 0 16 16" fill="none" xmlns="http://www.w3.org/2000/svg">
    <path fill-rule="evenodd" clip-rule="evenodd"
        d="M9.14901 1.56222C9.17662 1.3421 9.05588 1.13011 8.85248 1.04156C8.64907 0.953004 8.41164 1.00907 8.26932 1.17926L6.71995 3.03212C6.55385 3.23075 6.56688 3.52333 6.74996 3.70642L7.92016 4.87661C8.05516 5.01161 8.25527 5.05795 8.43588 4.99602C8.61648 4.9341 8.74606 4.77473 8.76982 4.58528L9.14901 1.56222Z"
        fill="#303233" />
    <path fill-rule="evenodd" clip-rule="evenodd"
        d="M13.6931 6.3828C13.5261 6.24831 13.3302 6.22165 13.2127 6.21105C13.0898 6.19996 12.9371 6.19998 12.7765 6.2L10.4507 6.2C10.2484 6.2 10.0661 6.32182 9.98871 6.50866C9.91132 6.69549 9.9541 6.91055 10.0971 7.05355L11.9597 8.91617C12.059 9.0154 12.1953 9.06837 12.3355 9.06213C12.4757 9.05589 12.6068 8.99102 12.6968 8.88336L13.5539 7.85847C13.6566 7.73563 13.7545 7.61857 13.8247 7.51727C13.8918 7.42046 13.9973 7.25256 14.0006 7.03746C14.0044 6.78324 13.8907 6.54192 13.6931 6.3828Z"
        fill="#303233" />
    <path fill-rule="evenodd" clip-rule="evenodd"
        d="M1.64645 1.64645C1.84171 1.45118 2.15829 1.45118 2.35355 1.64645L14.3536 13.6464C14.5488 13.8417 14.5488 14.1583 14.3536 14.3536C14.1583 14.5488 13.8417 14.5488 13.6464 14.3536L10.6378 11.3449L7.73133 14.8207C7.58902 14.9909 7.35158 15.047 7.14818 14.9584C6.94477 14.8699 6.82404 14.6579 6.85165 14.4378L7.43337 9.8L3.22415 9.8C3.06362 9.80002 2.91082 9.80004 2.78795 9.78895C2.67047 9.77835 2.47453 9.75169 2.30753 9.6172C2.10994 9.45808 1.99625 9.21675 2.00009 8.96254C2.00335 8.74744 2.10883 8.57954 2.17592 8.48273C2.24614 8.38142 2.34402 8.26439 2.44677 8.14154L4.71815 5.42525L1.64645 2.35355C1.45118 2.15829 1.45118 1.84171 1.64645 1.64645Z"
        fill="#303233" />
</svg>
