<svg width="16" height="16" viewBox="0 0 16 16" fill="none" xmlns="http://www.w3.org/2000/svg">
    <g clip-path="url(#clip0_53_4265)">
        <path fill-rule="evenodd" clip-rule="evenodd"
            d="M6.81967 0.96967C7.11256 0.676777 7.58744 0.676777 7.88033 0.96967L9.83033 2.91967C10.1232 3.21256 10.1232 3.68744 9.83033 3.98033L7.88033 5.93033C7.58744 6.22322 7.11256 6.22322 6.81967 5.93033C6.52678 5.63744 6.52678 5.16256 6.81967 4.86967L7.48934 4.2H6.05C3.95132 4.2 2.25 5.90132 2.25 8C2.25 9.51474 3.13625 10.824 4.42182 11.4347C4.79596 11.6124 4.95518 12.0598 4.77745 12.434C4.59971 12.8081 4.15232 12.9673 3.77818 12.7896C1.98932 11.9398 0.75 10.1154 0.75 8C0.75 5.07289 3.12289 2.7 6.05 2.7H7.48934L6.81967 2.03033C6.52678 1.73744 6.52678 1.26256 6.81967 0.96967ZM11.2226 3.56604C11.4003 3.1919 11.8477 3.03268 12.2218 3.21041C14.0107 4.06021 15.25 5.88463 15.25 8C15.25 10.9271 12.8771 13.3 9.95 13.3H8.51066L9.18033 13.9697C9.47322 14.2626 9.47322 14.7374 9.18033 15.0303C8.88744 15.3232 8.41256 15.3232 8.11967 15.0303L6.16967 13.0803C5.87678 12.7874 5.87678 12.3126 6.16967 12.0197L8.11967 10.0697C8.41256 9.77678 8.88744 9.77678 9.18033 10.0697C9.47322 10.3626 9.47322 10.8374 9.18033 11.1303L8.51066 11.8H9.95C12.0487 11.8 13.75 10.0987 13.75 8C13.75 6.48526 12.8638 5.17601 11.5782 4.56531C11.204 4.38757 11.0448 3.94018 11.2226 3.56604Z"
            fill="#303233" />
    </g>
    <defs>
        <clipPath id="clip0_53_4265">
            <rect width="16" height="16" fill="white" />
        </clipPath>
    </defs>
</svg>
