<svg width="16" height="16" viewBox="0 0 16 16" fill="none" xmlns="http://www.w3.org/2000/svg">
    <g clip-path="url(#clip0_53_4358)">
        <path fill-rule="evenodd" clip-rule="evenodd"
            d="M15.25 2.5C15.25 1.5335 14.4665 0.75 13.5 0.75H11.5C10.5335 0.75 9.75 1.5335 9.75 2.5V4.5C9.75 5.4665 10.5335 6.25 11.5 6.25H13.5C14.4665 6.25 15.25 5.4665 15.25 4.5V2.5ZM13.5 2.25C13.6381 2.25 13.75 2.36193 13.75 2.5V4.5C13.75 4.63807 13.6381 4.75 13.5 4.75H11.5C11.3619 4.75 11.25 4.63807 11.25 4.5V2.5C11.25 2.36193 11.3619 2.25 11.5 2.25H13.5Z"
            fill="#303233" />
        <path
            d="M2 7.25C2.41421 7.25 2.75 7.58579 2.75 8C2.75 8.41421 2.41421 8.75 2 8.75H1.5C1.08579 8.75 0.75 8.41421 0.75 8C0.75 7.58579 1.08579 7.25 1.5 7.25H2Z"
            fill="#303233" />
        <path
            d="M14.5 7.25C14.9142 7.25 15.25 7.58579 15.25 8C15.25 8.41421 14.9142 8.75 14.5 8.75H14C13.5858 8.75 13.25 8.41421 13.25 8C13.25 7.58579 13.5858 7.25 14 7.25H14.5Z"
            fill="#303233" />
        <path
            d="M10.5 10.5C10.9142 10.5 11.25 10.8358 11.25 11.25C11.25 11.6642 10.9142 12 10.5 12H10.499C10.0848 12 9.749 11.6642 9.749 11.25C9.749 10.8358 10.0848 10.5 10.499 10.5H10.5Z"
            fill="#303233" />
        <path
            d="M8 13.25C7.58579 13.25 7.25 13.5858 7.25 14V14.5C7.25 14.9142 7.58579 15.25 8 15.25C8.41421 15.25 8.75 14.9142 8.75 14.5V14C8.75 13.5858 8.41421 13.25 8 13.25Z"
            fill="#303233" />
        <path fill-rule="evenodd" clip-rule="evenodd"
            d="M4.5 0.75C5.4665 0.75 6.25 1.5335 6.25 2.5V4.5C6.25 5.4665 5.4665 6.25 4.5 6.25H2.5C1.5335 6.25 0.75 5.4665 0.75 4.5V2.5C0.75 1.5335 1.5335 0.75 2.5 0.75H4.5ZM4.75 2.5C4.75 2.36193 4.63807 2.25 4.5 2.25H2.5C2.36193 2.25 2.25 2.36193 2.25 2.5V4.5C2.25 4.63807 2.36193 4.75 2.5 4.75H4.5C4.63807 4.75 4.75 4.63807 4.75 4.5V2.5Z"
            fill="#303233" />
        <path fill-rule="evenodd" clip-rule="evenodd"
            d="M6.25 11.5C6.25 10.5335 5.4665 9.75 4.5 9.75H2.5C1.5335 9.75 0.75 10.5335 0.75 11.5V13.5C0.75 14.4665 1.5335 15.25 2.5 15.25H4.5C5.4665 15.25 6.25 14.4665 6.25 13.5V11.5ZM4.5 11.25C4.63807 11.25 4.75 11.3619 4.75 11.5V13.5C4.75 13.6381 4.63807 13.75 4.5 13.75H2.5C2.36193 13.75 2.25 13.6381 2.25 13.5V11.5C2.25 11.3619 2.36193 11.25 2.5 11.25H4.5Z"
            fill="#303233" />
        <path
            d="M7.25 1.5C7.25 1.08579 7.58579 0.75 8 0.75C8.41421 0.75 8.75 1.08579 8.75 1.5V5.5C8.75 5.91421 8.41421 6.25 8 6.25C7.58579 6.25 7.25 5.91421 7.25 5.5V1.5Z"
            fill="#303233" />
        <path
            d="M11.5 7.25C11.9142 7.25 12.25 7.58579 12.25 8C12.25 8.41421 11.9142 8.75 11.5 8.75H9C8.86193 8.75 8.75 8.86193 8.75 9V11.5C8.75 11.9142 8.41421 12.25 8 12.25C7.58579 12.25 7.25 11.9142 7.25 11.5L7.25 9C7.25 8.0335 8.0335 7.25 9 7.25H11.5Z"
            fill="#303233" />
        <path
            d="M5.5 7.25C5.91421 7.25 6.25 7.58579 6.25 8C6.25 8.41421 5.91421 8.75 5.5 8.75H4.5C4.08579 8.75 3.75 8.41421 3.75 8C3.75 7.58579 4.08579 7.25 4.5 7.25H5.5Z"
            fill="#303233" />
        <path
            d="M14.5 10.5833C14.9142 10.5833 15.25 10.9191 15.25 11.3333C15.25 11.7475 14.9142 12.0833 14.5 12.0833H13.3333C12.9191 12.0833 12.5833 11.7475 12.5833 11.3333C12.5833 10.9191 12.9191 10.5833 13.3333 10.5833H14.5Z"
            fill="#303233" />
        <path
            d="M14.5 13.75C14.9142 13.75 15.25 14.0858 15.25 14.5C15.25 14.9142 14.9142 15.25 14.5 15.25H10.5C10.0858 15.25 9.75 14.9142 9.75 14.5C9.75 14.0858 10.0858 13.75 10.5 13.75H14.5Z"
            fill="#303233" />
    </g>
    <defs>
        <clipPath id="clip0_53_4358">
            <rect width="16" height="16" fill="white" />
        </clipPath>
    </defs>
</svg>
