<svg width="24" height="24" viewBox="0 0 24 24" fill="none" xmlns="http://www.w3.org/2000/svg">
    <path fill-rule="evenodd" clip-rule="evenodd"
        d="M6.7679 3.25L17.2321 3.25C18.0449 3.24999 18.7006 3.24999 19.2315 3.29336C19.7781 3.33803 20.2582 3.43239 20.7025 3.65873C21.4081 4.01825 21.9817 4.59193 22.3413 5.29754C22.5676 5.74176 22.662 6.2219 22.7066 6.76853C22.75 7.29944 22.75 7.95505 22.75 8.76788L22.75 15.2321C22.75 16.045 22.75 16.7006 22.7066 17.2315C22.662 17.7781 22.5676 18.2582 22.3413 18.7025C21.9817 19.4081 21.4081 19.9817 20.7025 20.3413C20.2582 20.5676 19.7781 20.662 19.2315 20.7066C18.7006 20.75 18.045 20.75 17.2321 20.75L6.76788 20.75C5.95505 20.75 5.29944 20.75 4.76853 20.7066C4.2219 20.662 3.74175 20.5676 3.29754 20.3413C2.59193 19.9817 2.01825 19.4081 1.65873 18.7025C1.43239 18.2582 1.33803 17.7781 1.29336 17.2315C1.24999 16.7006 1.24999 16.0449 1.25 15.2321L1.25 8.76789V8.76788C1.24999 7.95505 1.24999 7.29944 1.29336 6.76853C1.33803 6.2219 1.43239 5.74175 1.65873 5.29754C2.01825 4.59193 2.59193 4.01825 3.29754 3.65873C3.74175 3.43239 4.2219 3.33803 4.76853 3.29336C5.29944 3.24999 5.95506 3.24999 6.76789 3.25H6.7679ZM9.16957 7.25H10C10.4142 7.25 10.75 7.58579 10.75 8C10.75 8.41421 10.4142 8.75 10 8.75L9.2 8.75C8.62757 8.75 8.24336 8.75058 7.94748 8.77476C7.66036 8.79822 7.52307 8.8401 7.43251 8.88624C7.19731 9.00608 7.00608 9.19731 6.88624 9.43251C6.8401 9.52307 6.79822 9.66036 6.77476 9.94748C6.75058 10.2434 6.75 10.6276 6.75 11.2L6.75 12.8C6.75 13.3724 6.75058 13.7566 6.77476 14.0525C6.79822 14.3396 6.8401 14.4769 6.88624 14.5675C7.00608 14.8027 7.19731 14.9939 7.43251 15.1138C7.52307 15.1599 7.66036 15.2018 7.94748 15.2252C8.24336 15.2494 8.62757 15.25 9.2 15.25H10C10.4142 15.25 10.75 15.5858 10.75 16C10.75 16.4142 10.4142 16.75 10 16.75H9.16955H9.16951C8.63538 16.75 8.18955 16.75 7.82533 16.7203C7.44545 16.6892 7.08879 16.6221 6.75153 16.4503C6.23408 16.1866 5.81338 15.7659 5.54973 15.2485C5.37789 14.9112 5.31078 14.5546 5.27974 14.1747C5.24998 13.8104 5.24999 13.3646 5.25 12.8304V12.8304L5.25 11.1696V11.1696C5.24999 10.6354 5.24998 10.1896 5.27974 9.82533C5.31078 9.44545 5.37789 9.08879 5.54973 8.75153C5.81338 8.23408 6.23408 7.81338 6.75153 7.54973C7.08879 7.37789 7.44545 7.31078 7.82533 7.27974C8.18956 7.24998 8.63541 7.24999 9.16956 7.25H9.16957ZM17.1696 7.25H18C18.4142 7.25 18.75 7.58579 18.75 8C18.75 8.41421 18.4142 8.75 18 8.75H17.2C16.6276 8.75 16.2434 8.75058 15.9475 8.77476C15.6604 8.79822 15.5231 8.8401 15.4325 8.88624C15.1973 9.00608 15.0061 9.19731 14.8862 9.43251C14.8401 9.52307 14.7982 9.66036 14.7748 9.94748C14.7506 10.2434 14.75 10.6276 14.75 11.2V12.8C14.75 13.3724 14.7506 13.7566 14.7748 14.0525C14.7982 14.3396 14.8401 14.4769 14.8862 14.5675C15.0061 14.8027 15.1973 14.9939 15.4325 15.1138C15.5231 15.1599 15.6604 15.2018 15.9475 15.2252C16.2434 15.2494 16.6276 15.25 17.2 15.25L18 15.25C18.4142 15.25 18.75 15.5858 18.75 16C18.75 16.4142 18.4142 16.75 18 16.75L17.1695 16.75H17.1695C16.6354 16.75 16.1896 16.75 15.8253 16.7203C15.4454 16.6892 15.0888 16.6221 14.7515 16.4503C14.2341 16.1866 13.8134 15.7659 13.5497 15.2485C13.3779 14.9112 13.3108 14.5546 13.2797 14.1747C13.25 13.8104 13.25 13.3646 13.25 12.8304V11.1696C13.25 10.6354 13.25 10.1896 13.2797 9.82533C13.3108 9.44545 13.3779 9.08879 13.5497 8.75153C13.8134 8.23408 14.2341 7.81338 14.7515 7.54973C15.0888 7.37789 15.4454 7.31078 15.8253 7.27974C16.1896 7.24998 16.6354 7.24999 17.1696 7.25H17.1696Z"
        fill="#303233" />
</svg>
