<svg width="24" height="24" viewBox="0 0 24 24" fill="none" xmlns="http://www.w3.org/2000/svg">
    <path fill-rule="evenodd" clip-rule="evenodd"
        d="M10.2929 1.29289C10.6834 0.902369 11.3166 0.902369 11.7071 1.29289L14.7071 4.29289C15.0976 4.68342 15.0976 5.31658 14.7071 5.70711L11.7071 8.70711C11.3166 9.09763 10.6834 9.09763 10.2929 8.70711C9.90237 8.31658 9.90237 7.68342 10.2929 7.29289L11.5858 6H9C5.68629 6 3 8.68629 3 12C3 14.392 4.39967 16.459 6.42909 17.4231C6.92795 17.6601 7.14024 18.2566 6.90326 18.7555C6.66628 19.2543 6.06977 19.4666 5.57091 19.2296C2.87043 17.9468 1 15.1928 1 12C1 7.58172 4.58172 4 9 4H11.5858L10.2929 2.70711C9.90237 2.31658 9.90237 1.68342 10.2929 1.29289ZM17.0967 5.24454C17.3337 4.74568 17.9302 4.53339 18.4291 4.77037C21.1296 6.05323 23 8.80719 23 12C23 16.4183 19.4183 20 15 20H12.4142L13.7071 21.2929C14.0976 21.6834 14.0976 22.3166 13.7071 22.7071C13.3166 23.0976 12.6834 23.0976 12.2929 22.7071L9.29289 19.7071C8.90237 19.3166 8.90237 18.6834 9.29289 18.2929L12.2929 15.2929C12.6834 14.9024 13.3166 14.9024 13.7071 15.2929C14.0976 15.6834 14.0976 16.3166 13.7071 16.7071L12.4142 18H15C18.3137 18 21 15.3137 21 12C21 9.60802 19.6003 7.54096 17.5709 6.57689C17.0721 6.33991 16.8598 5.7434 17.0967 5.24454Z"
        fill="#303233" />
</svg>
