<svg width="24" height="24" viewBox="0 0 24 24" fill="none" xmlns="http://www.w3.org/2000/svg">
    <g clip-path="url(#clip0_53_3995)">
        <path
            d="M12 15.25C13.7949 15.25 15.25 13.7949 15.25 12C15.25 10.2051 13.7949 8.75 12 8.75C10.2051 8.75 8.75 10.2051 8.75 12C8.75 13.7949 10.2051 15.25 12 15.25Z"
            stroke="#303233" stroke-width="1.5" stroke-linecap="round" stroke-linejoin="round" />
        <path
            d="M19.5682 15.0682C19.432 15.3767 19.3914 15.7188 19.4516 16.0506C19.5117 16.3824 19.6699 16.6885 19.9057 16.9295L19.967 16.9909C20.1572 17.1809 20.3081 17.4065 20.411 17.6548C20.514 17.9031 20.5669 18.1693 20.5669 18.4381C20.5669 18.7069 20.514 18.973 20.411 19.2214C20.3081 19.4697 20.1572 19.6953 19.967 19.8852C19.7771 20.0754 19.5515 20.2263 19.3032 20.3292C19.0549 20.4321 18.7887 20.4851 18.5199 20.4851C18.2511 20.4851 17.9849 20.4321 17.7366 20.3292C17.4883 20.2263 17.2627 20.0754 17.0727 19.8852L17.0114 19.8239C16.7703 19.5881 16.4642 19.4299 16.1324 19.3698C15.8007 19.3096 15.4585 19.3502 15.15 19.4864C14.8475 19.616 14.5895 19.8313 14.4078 20.1057C14.2261 20.38 14.1286 20.7016 14.1273 21.0307V21.2045C14.1273 21.747 13.9118 22.2673 13.5282 22.6509C13.1446 23.0345 12.6243 23.25 12.0818 23.25C11.5393 23.25 11.0191 23.0345 10.6355 22.6509C10.2519 22.2673 10.0364 21.747 10.0364 21.2045V21.1125C10.0284 20.774 9.91887 20.4457 9.72189 20.1703C9.5249 19.8948 9.24962 19.6851 8.93182 19.5682C8.62335 19.432 8.28117 19.3914 7.9494 19.4516C7.61763 19.5117 7.31149 19.6699 7.07045 19.9057L7.00909 19.967C6.81912 20.1572 6.59353 20.3081 6.34522 20.411C6.0969 20.514 5.83074 20.5669 5.56193 20.5669C5.29313 20.5669 5.02696 20.514 4.77864 20.411C4.53033 20.3081 4.30474 20.1572 4.11477 19.967C3.92459 19.7771 3.77372 19.5515 3.67079 19.3032C3.56785 19.0549 3.51487 18.7887 3.51487 18.5199C3.51487 18.2511 3.56785 17.9849 3.67079 17.7366C3.77372 17.4883 3.92459 17.2627 4.11477 17.0727L4.17614 17.0114C4.41191 16.7703 4.57008 16.4642 4.63023 16.1324C4.69039 15.8007 4.64978 15.4585 4.51364 15.15C4.38399 14.8475 4.16873 14.5895 3.89434 14.4078C3.61995 14.2261 3.29842 14.1286 2.96932 14.1273H2.79545C2.25297 14.1273 1.7327 13.9118 1.3491 13.5282C0.965503 13.1446 0.75 12.6243 0.75 12.0818C0.75 11.5393 0.965503 11.0191 1.3491 10.6355C1.7327 10.2519 2.25297 10.0364 2.79545 10.0364H2.8875C3.22602 10.0284 3.55432 9.91887 3.82974 9.72189C4.10515 9.5249 4.31494 9.24962 4.43182 8.93182C4.56796 8.62335 4.60857 8.28117 4.54841 7.9494C4.48826 7.61763 4.33009 7.31149 4.09432 7.07045L4.03295 7.00909C3.84278 6.81912 3.6919 6.59353 3.58897 6.34522C3.48603 6.0969 3.43305 5.83074 3.43305 5.56193C3.43305 5.29313 3.48603 5.02696 3.58897 4.77864C3.6919 4.53033 3.84278 4.30474 4.03295 4.11477C4.22292 3.92459 4.44851 3.77372 4.69683 3.67079C4.94514 3.56785 5.21131 3.51487 5.48011 3.51487C5.74892 3.51487 6.01509 3.56785 6.2634 3.67079C6.51171 3.77372 6.7373 3.92459 6.92727 4.11477L6.98864 4.17614C7.22967 4.41191 7.53581 4.57008 7.86758 4.63023C8.19935 4.69039 8.54153 4.64978 8.85 4.51364H8.93182C9.23431 4.38399 9.49229 4.16873 9.674 3.89434C9.85572 3.61995 9.95323 3.29842 9.95455 2.96932V2.79545C9.95455 2.25297 10.17 1.7327 10.5536 1.3491C10.9372 0.965503 11.4575 0.75 12 0.75C12.5425 0.75 13.0628 0.965503 13.4464 1.3491C13.83 1.7327 14.0455 2.25297 14.0455 2.79545V2.8875C14.0468 3.2166 14.1443 3.53813 14.326 3.81252C14.5077 4.08691 14.7657 4.30217 15.0682 4.43182C15.3767 4.56796 15.7188 4.60857 16.0506 4.54841C16.3824 4.48826 16.6885 4.33009 16.9295 4.09432L16.9909 4.03295C17.1809 3.84278 17.4065 3.6919 17.6548 3.58897C17.9031 3.48603 18.1693 3.43305 18.4381 3.43305C18.7069 3.43305 18.973 3.48603 19.2214 3.58897C19.4697 3.6919 19.6953 3.84278 19.8852 4.03295C20.0754 4.22292 20.2263 4.44851 20.3292 4.69683C20.4321 4.94514 20.4851 5.21131 20.4851 5.48011C20.4851 5.74892 20.4321 6.01509 20.3292 6.2634C20.2263 6.51171 20.0754 6.7373 19.8852 6.92727L19.8239 6.98864C19.5881 7.22967 19.4299 7.53581 19.3698 7.86758C19.3096 8.19935 19.3502 8.54153 19.4864 8.85V8.93182C19.616 9.23431 19.8313 9.49229 20.1057 9.674C20.38 9.85572 20.7016 9.95323 21.0307 9.95455H21.2045C21.747 9.95455 22.2673 10.17 22.6509 10.5536C23.0345 10.9372 23.25 11.4575 23.25 12C23.25 12.5425 23.0345 13.0628 22.6509 13.4464C22.2673 13.83 21.747 14.0455 21.2045 14.0455H21.1125C20.7834 14.0468 20.4619 14.1443 20.1875 14.326C19.9131 14.5077 19.6978 14.7657 19.5682 15.0682Z"
            stroke="#303233" stroke-width="1.5" stroke-linecap="round" stroke-linejoin="round" />
    </g>
    <defs>
        <clipPath id="clip0_53_3995">
            <rect width="24" height="24" fill="white" />
        </clipPath>
    </defs>
</svg>
