<svg width="16" height="16" viewBox="0 0 16 16" fill="none" xmlns="http://www.w3.org/2000/svg">
    <path
        d="M3.93414 3.93032C4.22703 3.63743 4.22703 3.16256 3.93414 2.86966C3.64124 2.57677 3.16637 2.57677 2.87348 2.86966C0.0421748 5.70096 0.0421748 10.2914 2.87348 13.1227C3.16637 13.4156 3.64124 13.4156 3.93414 13.1227C4.22703 12.8298 4.22703 12.3549 3.93414 12.0621C1.68862 9.81654 1.68862 6.17584 3.93414 3.93032Z"
        fill="#303233" />
    <path
        d="M13.1265 2.86969C12.8336 2.5768 12.3588 2.5768 12.0659 2.86969C11.773 3.16259 11.773 3.63746 12.0659 3.93035C14.3114 6.17587 14.3114 9.81657 12.0659 12.0621C11.773 12.355 11.773 12.8298 12.0659 13.1227C12.3588 13.4156 12.8336 13.4156 13.1265 13.1227C15.9578 10.2914 15.9578 5.70099 13.1265 2.86969Z"
        fill="#303233" />
    <path
        d="M5.77261 5.76878C6.06551 5.47589 6.06551 5.00101 5.77261 4.70812C5.47972 4.41523 5.00485 4.41523 4.71195 4.70812C2.89602 6.52406 2.89602 9.46827 4.71195 11.2842C5.00485 11.5771 5.47972 11.5771 5.77261 11.2842C6.06551 10.9913 6.06551 10.5164 5.77261 10.2236C4.54246 8.9934 4.54246 6.99893 5.77261 5.76878Z"
        fill="#303233" />
    <path
        d="M11.288 4.70814C10.9952 4.41525 10.5203 4.41525 10.2274 4.70814C9.93449 5.00103 9.93449 5.47591 10.2274 5.7688C11.4575 6.99895 11.4575 8.99342 10.2274 10.2236C9.93449 10.5165 9.93449 10.9913 10.2274 11.2842C10.5203 11.5771 10.9952 11.5771 11.288 11.2842C13.104 9.4683 13.104 6.52408 11.288 4.70814Z"
        fill="#303233" />
    <path
        d="M8.00476 6.36834C7.92008 6.31385 7.81841 6.24843 7.72638 6.20052C7.63388 6.15238 7.434 6.05628 7.17877 6.07451C6.88944 6.09517 6.62334 6.24045 6.4495 6.47265C6.29614 6.67749 6.2689 6.8976 6.25938 7.00143C6.24991 7.10475 6.24996 7.22565 6.25001 7.32634V8.90174C6.24996 9.00244 6.24991 9.12334 6.25938 9.22666C6.2689 9.3305 6.29614 9.55061 6.4495 9.75544C6.62334 9.98765 6.88944 10.1329 7.17877 10.1536C7.434 10.1718 7.63388 10.0757 7.72638 10.0276C7.81841 9.97967 7.92007 9.91425 8.00475 9.85976L9.231 9.07146C9.30378 9.02473 9.39567 8.96573 9.4709 8.90705C9.55186 8.84392 9.70233 8.71591 9.79218 8.50327C9.89732 8.25444 9.89732 7.97366 9.79218 7.72483C9.70233 7.51219 9.55186 7.38418 9.4709 7.32104C9.39567 7.26237 9.30378 7.20337 9.231 7.15664L8.00476 6.36834Z"
        fill="#303233" />
</svg>
