<svg width="24" height="24" viewBox="0 0 24 24" fill="none" xmlns="http://www.w3.org/2000/svg">
    <path
        d="M16.7071 9.70711C17.0976 9.31658 17.0976 8.68342 16.7071 8.29289C16.3166 7.90237 15.6834 7.90237 15.2929 8.29289L10.5 13.0858L8.70711 11.2929C8.31658 10.9024 7.68342 10.9024 7.29289 11.2929C6.90237 11.6834 6.90237 12.3166 7.29289 12.7071L9.79289 15.2071C10.1834 15.5976 10.8166 15.5976 11.2071 15.2071L16.7071 9.70711Z"
        fill="#303233" />
    <path fill-rule="evenodd" clip-rule="evenodd"
        d="M12 1C5.92487 1 1 5.92487 1 12C1 18.0751 5.92487 23 12 23C18.0751 23 23 18.0751 23 12C23 5.92487 18.0751 1 12 1ZM3 12C3 7.02944 7.02944 3 12 3C16.9706 3 21 7.02944 21 12C21 16.9706 16.9706 21 12 21C7.02944 21 3 16.9706 3 12Z"
        fill="#303233" />
</svg>
