<svg width="16" height="16" viewBox="0 0 16 16" fill="none" xmlns="http://www.w3.org/2000/svg">
    <path fill-rule="evenodd" clip-rule="evenodd"
        d="M12.298 3.26002C12.381 3.46102 12.541 3.62002 12.741 3.70302L13.876 4.17302C14.322 4.35802 14.676 4.71302 14.861 5.15902C15.046 5.60502 15.046 6.10702 14.861 6.55302L14.392 7.68602C14.308 7.88802 14.308 8.11401 14.392 8.31501L14.861 9.44902C14.953 9.67102 15 9.90602 15 10.146C15 10.385 14.953 10.621 14.861 10.843C14.77 11.063 14.636 11.265 14.467 11.434L14.465 11.436C14.296 11.604 14.095 11.738 13.875 11.829L12.742 12.299H12.74C12.539 12.382 12.38 12.542 12.297 12.742L11.827 13.876C11.642 14.323 11.288 14.677 10.841 14.862C10.395 15.047 9.894 15.047 9.448 14.862L8.314 14.393C8.113 14.31 7.888 14.31 7.687 14.393L7.685 14.394L6.551 14.863C6.105 15.048 5.604 15.047 5.158 14.862C4.712 14.677 4.358 14.324 4.173 13.877L3.703 12.742C3.62 12.542 3.46 12.381 3.259 12.298L2.125 11.828C1.679 11.643 1.324 11.289 1.139 10.843C0.955 10.397 0.954 9.89502 1.139 9.45002L1.608 8.31602C1.691 8.11502 1.691 7.88902 1.608 7.68702L1.139 6.55302C1.047 6.33202 1 6.09502 1 5.85502C1 5.61702 1.047 5.37902 1.139 5.15802C1.23 4.93802 1.364 4.73602 1.533 4.56702L1.535 4.56502C1.704 4.39702 1.905 4.26302 2.125 4.17202L3.258 3.70302C3.459 3.62002 3.619 3.46002 3.703 3.25902L4.172 2.12602C4.357 1.67902 4.712 1.32502 5.158 1.14002C5.604 0.954019 6.106 0.954019 6.552 1.14002L7.685 1.60902C7.886 1.69202 8.112 1.69202 8.313 1.60902L8.314 1.60802L9.449 1.14002C9.895 0.955019 10.396 0.955019 10.842 1.14002C11.288 1.32502 11.643 1.68002 11.828 2.12502L12.298 3.26002ZM11.374 3.64302L10.904 2.50902C10.821 2.30802 10.661 2.14702 10.46 2.06402C10.258 1.98102 10.032 1.98102 9.831 2.06402L8.698 2.53102C8.251 2.71802 7.75 2.71802 7.303 2.53302L6.169 2.06402C5.968 1.98002 5.742 1.98002 5.541 2.06402C5.34 2.14702 5.18 2.30702 5.096 2.50802L4.626 3.64302C4.441 4.08802 4.086 4.44202 3.641 4.62702L2.507 5.09602C2.407 5.13702 2.317 5.19801 2.24 5.27401C2.164 5.35001 2.104 5.44102 2.063 5.54002C2.021 5.64002 2 5.74702 2 5.85502C2 5.96302 2.021 6.07003 2.063 6.17003L2.532 7.30502C2.717 7.75102 2.717 8.25203 2.532 8.69803L2.063 9.83201C1.98 10.033 1.98 10.259 2.063 10.459C2.147 10.661 2.306 10.821 2.508 10.904L3.642 11.374C4.088 11.559 4.442 11.914 4.627 12.36L5.097 13.495C5.18 13.696 5.34 13.855 5.541 13.938C5.742 14.021 5.968 14.022 6.169 13.939L7.302 13.471C7.748 13.284 8.25 13.284 8.696 13.469L9.83 13.938C10.031 14.021 10.257 14.021 10.459 13.938C10.66 13.855 10.82 13.695 10.903 13.494L11.373 12.36C11.558 11.913 11.914 11.558 12.359 11.375L13.493 10.905C13.592 10.864 13.683 10.803 13.76 10.727C13.836 10.651 13.896 10.56 13.937 10.461C13.978 10.361 14 10.254 14 10.146C14 10.038 13.978 9.93102 13.937 9.83102L13.469 8.69902C13.283 8.25202 13.283 7.75001 13.468 7.30401L13.937 6.17102C14.021 5.96902 14.021 5.74301 13.938 5.54101C13.854 5.34101 13.694 5.18001 13.493 5.09701L12.359 4.62702C11.913 4.44202 11.559 4.08902 11.374 3.64302ZM10.246 5.04702C10.442 4.85202 10.758 4.85202 10.954 5.04702C11.149 5.24302 11.149 5.55902 10.954 5.75502L5.754 10.955C5.558 11.15 5.242 11.15 5.046 10.955C4.851 10.759 4.851 10.443 5.046 10.247L10.246 5.04702ZM6.875 6.05102C6.875 6.50502 6.506 6.87602 6.05 6.87602C5.594 6.87602 5.225 6.50502 5.225 6.05102C5.225 5.59702 5.594 5.22603 6.05 5.22603C6.506 5.22603 6.875 5.59702 6.875 6.05102ZM10.775 9.95102C10.775 10.405 10.406 10.776 9.95 10.776C9.494 10.776 9.125 10.405 9.125 9.95102C9.125 9.49701 9.494 9.12602 9.95 9.12602C10.406 9.12602 10.775 9.49701 10.775 9.95102Z"
        fill="#303233" />
</svg>
