<svg width="16" height="16" viewBox="0 0 16 16" fill="none" xmlns="http://www.w3.org/2000/svg">
    <path
        d="M11.5728 1.36773C11.7758 1.32711 11.9075 1.12955 11.8669 0.926469C11.8263 0.723384 11.6288 0.591677 11.4257 0.632293L11.4207 0.633293C11.2176 0.673909 11.0859 0.871468 11.1265 1.07455C11.1671 1.27764 11.3647 1.40935 11.5678 1.36873L11.5728 1.36773Z"
        fill="#303233" />
    <path
        d="M15.2652 0.734835C15.1187 0.588388 14.8813 0.588388 14.7348 0.734835L12.2348 3.23483C12.0884 3.38128 12.0884 3.61872 12.2348 3.76517C12.3813 3.91161 12.6187 3.91161 12.7652 3.76517L15.2652 1.26517C15.4116 1.11872 15.4116 0.881282 15.2652 0.734835Z"
        fill="#303233" />
    <path
        d="M15.2652 4.23483C15.4116 4.38128 15.4116 4.61872 15.2652 4.76516L12.7652 7.26517C12.6187 7.41161 12.3813 7.41161 12.2348 7.26517C12.0884 7.11872 12.0884 6.88128 12.2348 6.73483L14.7348 4.23483C14.8813 4.08839 15.1187 4.08839 15.2652 4.23483Z"
        fill="#303233" />
    <path
        d="M4.26517 8.76517C4.41161 8.61872 4.41161 8.38128 4.26517 8.23484C4.11872 8.08839 3.88128 8.08839 3.73483 8.23484L0.734835 11.2348C0.588388 11.3813 0.588388 11.6187 0.734835 11.7652C0.881282 11.9116 1.11872 11.9116 1.26517 11.7652L4.26517 8.76517Z"
        fill="#303233" />
    <path
        d="M15.3728 11.4265C15.4134 11.6296 15.2817 11.8271 15.0786 11.8677L15.0736 11.8687C14.8705 11.9093 14.673 11.7776 14.6324 11.5746C14.5917 11.3715 14.7234 11.1739 14.9265 11.1333L14.9315 11.1323C15.1346 11.0917 15.3322 11.2234 15.3728 11.4265Z"
        fill="#303233" />
    <path
        d="M13.7652 9.76517L15.2652 8.26516C15.4116 8.11872 15.4116 7.88128 15.2652 7.73484C15.1187 7.58839 14.8813 7.58839 14.7348 7.73484L13.2348 9.23483C13.0884 9.38128 13.0884 9.61872 13.2348 9.76517C13.3813 9.91161 13.6187 9.91161 13.7652 9.76517Z"
        fill="#303233" />
    <path
        d="M3.76517 5.23484C3.91161 5.38128 3.91161 5.61872 3.76517 5.76516L1.26517 8.26517C1.11872 8.41161 0.881282 8.41161 0.734835 8.26517C0.588388 8.11872 0.588388 7.88128 0.734835 7.73483L3.23483 5.23484C3.38128 5.08839 3.61872 5.08839 3.76517 5.23484Z"
        fill="#303233" />
    <path
        d="M4.76516 1.26517C4.91161 1.11872 4.91161 0.881282 4.76516 0.734835C4.61872 0.588388 4.38128 0.588388 4.23483 0.734835L0.734835 4.23483C0.588388 4.38128 0.588388 4.61872 0.734835 4.76516C0.881282 4.91161 1.11872 4.91161 1.26517 4.76516L4.76516 1.26517Z"
        fill="#303233" />
    <path
        d="M1 0.625C1.20711 0.625 1.375 0.792893 1.375 1C1.375 1.20711 1.20711 1.376 1 1.376C0.792893 1.376 0.625 1.20811 0.625 1.001C0.625 0.793893 0.792893 0.625 1 0.625Z"
        fill="#303233" />
    <path
        d="M5 5C5 3.34315 6.34315 2 8 2C9.65685 2 11 3.34315 11 5C11 6.65685 9.65685 8 8 8C6.34315 8 5 6.65685 5 5Z"
        fill="#303233" />
    <path
        d="M2.60961 13.4005C3.11925 10.8899 5.33816 9 7.9996 9C10.661 9 12.8799 10.8899 13.3896 13.4005C13.4194 13.5476 13.3817 13.7003 13.2867 13.8164C13.1917 13.9326 13.0496 14 12.8996 14H3.09961C2.94957 14 2.80745 13.9326 2.71249 13.8164C2.61753 13.7003 2.57976 13.5476 2.60961 13.4005Z"
        fill="#303233" />
</svg>
