<svg width="16" height="16" viewBox="0 0 16 16" fill="none" xmlns="http://www.w3.org/2000/svg">
    <path fill-rule="evenodd" clip-rule="evenodd"
        d="M1 4.5C1 3.67157 1.67157 3 2.5 3H9.5C10.3284 3 11 3.67157 11 4.5V5.69098L14.2764 4.05279C14.4314 3.97529 14.6155 3.98357 14.7629 4.07468C14.9103 4.16578 15 4.32671 15 4.5V11.5C15 11.6733 14.9103 11.8342 14.7629 11.9253C14.6155 12.0164 14.4314 12.0247 14.2764 11.9472L11 10.309V11.5C11 12.3284 10.3284 13 9.5 13H2.5C1.67157 13 1 12.3284 1 11.5V4.5ZM4 7.5C3.72386 7.5 3.5 7.72386 3.5 8C3.5 8.27614 3.72386 8.5 4 8.5H8C8.27614 8.5 8.5 8.27614 8.5 8C8.5 7.72386 8.27614 7.5 8 7.5H4Z"
        fill="#303233" />
</svg>
