<svg width="24" height="24" viewBox="0 0 24 24" fill="none" xmlns="http://www.w3.org/2000/svg">
    <path fill-rule="evenodd" clip-rule="evenodd"
        d="M12 1C5.92487 1 1 5.92487 1 12C1 18.0751 5.92487 23 12 23C18.0751 23 23 18.0751 23 12C23 5.92487 18.0751 1 12 1ZM19.9722 7.8195C18.9906 5.95132 17.3715 4.47046 15.4041 3.66603L8.80132 6.96739C8.61665 7.05973 8.5 7.24847 8.5 7.45493C8.5 7.75598 8.74404 8.00002 9.04508 8.00002H13.5C14.0523 8.00002 14.5 8.44773 14.5 9.00002C14.5 9.5523 14.0523 10 13.5 10H8.5C8.22386 10 8 10.2239 8 10.5V13.9189C8 14.1341 8.13771 14.3252 8.34189 14.3932L10.3162 15.0513C10.6719 15.1699 10.9314 15.4774 10.9884 15.848L11.6434 20.1058C11.735 20.7008 12.3277 21.0807 12.9065 20.9153L13.3519 20.788C13.6294 20.7088 13.8591 20.5134 13.982 20.2523L16.9967 13.8461C17.1762 13.4645 17.0971 13.0114 16.7989 12.7132L15.2929 11.2071C14.9885 10.9028 14.9131 10.4378 15.1056 10.0528C15.2981 9.66782 15.7153 9.4492 16.1414 9.51007L18.2144 9.80621C18.6405 9.86708 19.0577 9.64846 19.2502 9.26347L19.9722 7.8195Z"
        fill="#303233" />
</svg>
