<svg width="24" height="24" viewBox="0 0 24 24" fill="none" xmlns="http://www.w3.org/2000/svg">
    <path fill-rule="evenodd" clip-rule="evenodd"
        d="M12 1C12.5523 1 13 1.44772 13 2C13 2.55228 12.5523 3 12 3C9.59229 3 7.45391 3.32656 5.95215 3.82715C5.19606 4.07918 4.65634 4.35796 4.32617 4.61816C4.16419 4.74586 4.07758 4.84984 4.03516 4.91895C4.01518 4.95153 4.00637 4.97318 4.00293 4.98438C4.00025 4.99316 4 5 4 5C4 5 4.00005 5.00618 4.00293 5.01562C4.00637 5.02682 4.01518 5.04847 4.03516 5.08105C4.07758 5.15016 4.16419 5.25414 4.32617 5.38184C4.65634 5.64204 5.19606 5.92082 5.95215 6.17285C7.45391 6.67344 9.59229 7 12 7C12.5523 7 13 7.44772 13 8C13 8.55228 12.5523 9 12 9C9.43715 9 7.07494 8.65551 5.31934 8.07031C4.84631 7.91262 4.40113 7.73149 4 7.52637V12C4 12 4.00005 12.0062 4.00293 12.0156C4.00637 12.0268 4.01518 12.0485 4.03516 12.0811C4.0776 12.1502 4.16401 12.255 4.32617 12.3828C4.65636 12.643 5.19621 12.9209 5.95215 13.1729C7.45391 13.6734 9.59229 14 12 14C14.4077 14 16.5461 13.6734 18.0479 13.1729C18.8038 12.9209 19.3436 12.643 19.6738 12.3828C19.836 12.255 19.9224 12.1502 19.9648 12.0811C19.9848 12.0485 19.9936 12.0268 19.9971 12.0156C20 12.006 20 12 20 12C20 11.4477 20.4477 11 21 11C21.5523 11 22 11.4477 22 12V19C22 19.8518 21.4814 20.5044 20.9121 20.9531C20.3315 21.4107 19.5531 21.7795 18.6807 22.0703C16.9251 22.6555 14.5629 23 12 23C9.43715 23 7.07494 22.6555 5.31934 22.0703C4.4469 21.7795 3.66849 21.4107 3.08789 20.9531C2.51859 20.5044 2 19.8518 2 19V5C2 4.14818 2.51859 3.4956 3.08789 3.04688C3.66849 2.58931 4.4469 2.22053 5.31934 1.92969C7.07494 1.34449 9.43715 1 12 1ZM20 14.5264C19.5989 14.7315 19.1537 14.9126 18.6807 15.0703C16.9251 15.6555 14.5629 16 12 16C9.43715 16 7.07494 15.6555 5.31934 15.0703C4.84631 14.9126 4.40113 14.7315 4 14.5264V19C4 19 4.00005 19.0062 4.00293 19.0156C4.00637 19.0268 4.01518 19.0485 4.03516 19.0811C4.0776 19.1502 4.16401 19.255 4.32617 19.3828C4.65636 19.643 5.19621 19.9209 5.95215 20.1729C7.45391 20.6734 9.59229 21 12 21C14.4077 21 16.5461 20.6734 18.0479 20.1729C18.8038 19.9209 19.3436 19.643 19.6738 19.3828C19.836 19.255 19.9224 19.1502 19.9648 19.0811C19.9848 19.0485 19.9936 19.0268 19.9971 19.0156C20.0001 19.0055 20 19 20 19V14.5264Z"
        fill="#303233" />
    <path fill-rule="evenodd" clip-rule="evenodd"
        d="M19 0C21.7614 0 24 2.23858 24 5C24 7.76142 21.7614 10 19 10C16.2387 9.99991 14 7.76137 14 5C14 2.23863 16.2387 9.38033e-05 19 0ZM19 6.75C18.5859 6.75009 18.25 7.08584 18.25 7.5V7.50977C18.25 7.92392 18.5859 8.25967 19 8.25977C19.4142 8.25977 19.75 7.92398 19.75 7.50977V7.5C19.75 7.08579 19.4142 6.75 19 6.75ZM19 1.75C18.5859 1.75009 18.25 2.08584 18.25 2.5V5C18.25 5.41416 18.5859 5.74991 19 5.75C19.4142 5.75 19.75 5.41421 19.75 5V2.5C19.75 2.08579 19.4142 1.75 19 1.75Z"
        fill="#303233" />
</svg>
