<svg width="16" height="16" viewBox="0 0 16 16" fill="none" xmlns="http://www.w3.org/2000/svg">
    <path
        d="M14 1.25H10C9.58579 1.25 9.25 1.58579 9.25 2C9.25 2.41421 9.58579 2.75 10 2.75H12.1892L5.96967 8.96951C5.67678 9.2624 5.67678 9.73727 5.96967 10.0302C6.26256 10.3231 6.73744 10.3231 7.03033 10.0302L13.25 3.8105V6C13.25 6.41421 13.5858 6.75 14 6.75C14.4142 6.75 14.75 6.41421 14.75 6V2C14.75 1.58579 14.4142 1.25 14 1.25Z"
        fill="#303233" />
    <path
        d="M2.75 5.5C2.75 5.08579 3.08579 4.75 3.5 4.75H7.5C7.91421 4.75 8.25 4.41421 8.25 4C8.25 3.58579 7.91421 3.25 7.5 3.25H3.5C2.25736 3.25 1.25 4.25736 1.25 5.5V12.5C1.25 13.7426 2.25736 14.75 3.5 14.75H10.5C11.7426 14.75 12.75 13.7426 12.75 12.5V8.5C12.75 8.08579 12.4142 7.75 12 7.75C11.5858 7.75 11.25 8.08579 11.25 8.5V12.5C11.25 12.9142 10.9142 13.25 10.5 13.25H3.5C3.08579 13.25 2.75 12.9142 2.75 12.5V5.5Z"
        fill="#303233" />
</svg>
