<svg width="24" height="24" viewBox="0 0 24 24" fill="none" xmlns="http://www.w3.org/2000/svg">
    <path
        d="M7.29289 11.2929C7.68342 10.9024 8.31658 10.9024 8.70711 11.2929L11 13.5858V8C11 7.44772 11.4477 7 12 7C12.5523 7 13 7.44772 13 8V13.5858L15.2929 11.2929C15.6834 10.9024 16.3166 10.9024 16.7071 11.2929C17.0976 11.6834 17.0976 12.3166 16.7071 12.7071L12.7078 16.7064C12.7054 16.7088 12.703 16.7112 12.7005 16.7136C12.5208 16.8901 12.2746 16.9992 12.003 17L12 17L11.997 17C11.8625 16.9996 11.7343 16.9727 11.6172 16.9241C11.502 16.8764 11.3938 16.8063 11.2995 16.7136C11.297 16.7112 11.2946 16.7088 11.2922 16.7064L7.29289 12.7071C6.90237 12.3166 6.90237 11.6834 7.29289 11.2929Z"
        fill="#303233" />
    <path fill-rule="evenodd" clip-rule="evenodd"
        d="M1 12C1 5.92487 5.92487 1 12 1C18.0751 1 23 5.92487 23 12C23 18.0751 18.0751 23 12 23C5.92487 23 1 18.0751 1 12ZM12 3C7.02944 3 3 7.02944 3 12C3 16.9706 7.02944 21 12 21C16.9706 21 21 16.9706 21 12C21 7.02944 16.9706 3 12 3Z"
        fill="#303233" />
</svg>
