<svg width="16" height="16" viewBox="0 0 16 16" fill="none" xmlns="http://www.w3.org/2000/svg">
    <g clip-path="url(#clip0_873_104)">
        <path fill-rule="evenodd" clip-rule="evenodd"
            d="M12.059 2.02901L12.529 3.16401C12.587 3.30301 12.698 3.41401 12.838 3.47201L13.971 3.94101C14.479 4.15201 14.882 4.55501 15.092 5.06201C15.303 5.57 15.303 6.14001 15.092 6.64801L14.623 7.78101C14.565 7.92101 14.565 8.07801 14.623 8.21801L15.092 9.35201C15.196 9.60301 15.25 9.873 15.25 10.145C15.25 10.417 15.196 10.686 15.092 10.938C14.988 11.189 14.835 11.418 14.643 11.61C14.45 11.802 14.222 11.955 13.971 12.059L12.837 12.529C12.697 12.587 12.586 12.698 12.528 12.837L12.058 13.971C11.848 14.479 11.444 14.882 10.937 15.092C10.43 15.302 9.859 15.302 9.352 15.092L8.218 14.623C8.079 14.565 7.922 14.565 7.783 14.623L7.781 14.624L6.647 15.093C6.14 15.303 5.57 15.302 5.063 15.092C4.555 14.882 4.152 14.48 3.942 13.972L3.472 12.837C3.414 12.697 3.303 12.586 3.163 12.528L2.029 12.058C1.522 11.848 1.119 11.445 0.909 10.938C0.698 10.43 0.698 9.86001 0.908 9.35301L1.377 8.22001C1.435 8.08001 1.435 7.92201 1.377 7.78201L0.908 6.64701C0.804 6.39601 0.75 6.126 0.75 5.854C0.75 5.58201 0.804 5.31301 0.908 5.06101C1.012 4.81001 1.164 4.58101 1.357 4.38901C1.549 4.19701 1.778 4.04401 2.029 3.94001L3.163 3.47001C3.303 3.41301 3.414 3.30201 3.472 3.16201L3.942 2.02901C4.152 1.52101 4.555 1.11801 5.062 0.908006C5.57 0.697006 6.14 0.697006 6.648 0.908006L7.781 1.37701C7.921 1.43501 8.079 1.43401 8.218 1.37601L9.353 0.908006C9.861 0.698006 10.431 0.698005 10.938 0.909005C11.445 1.11901 11.849 1.52201 12.059 2.02901ZM11.144 3.73901L10.673 2.60301C10.615 2.46301 10.504 2.35201 10.364 2.29401C10.224 2.23601 10.066 2.23701 9.926 2.29401L8.792 2.76201C8.285 2.97301 7.715 2.97301 7.207 2.76301L6.074 2.29401C5.934 2.23601 5.776 2.23601 5.636 2.29401C5.497 2.35101 5.385 2.46301 5.327 2.60301L4.857 3.73801C4.646 4.24401 4.243 4.64701 3.737 4.85601L2.603 5.326C2.534 5.355 2.47 5.39701 2.417 5.45001C2.364 5.50301 2.322 5.56601 2.293 5.63501C2.265 5.70501 2.25 5.77901 2.25 5.854C2.25 5.929 2.265 6.00401 2.294 6.07301L2.762 7.20801C2.973 7.71501 2.973 8.28501 2.763 8.79301L2.294 9.92601C2.236 10.066 2.236 10.223 2.294 10.363C2.352 10.503 2.463 10.614 2.603 10.672L3.738 11.142C4.245 11.353 4.648 11.756 4.858 12.263L5.328 13.398C5.386 13.538 5.497 13.648 5.637 13.706C5.776 13.764 5.933 13.765 6.073 13.707L7.206 13.239C7.713 13.027 8.284 13.027 8.792 13.237L9.926 13.706C10.066 13.764 10.223 13.764 10.363 13.706C10.503 13.648 10.614 13.537 10.672 13.397L11.142 12.263C11.353 11.755 11.756 11.352 12.263 11.143L13.397 10.673C13.466 10.644 13.529 10.602 13.582 10.549C13.635 10.496 13.678 10.433 13.706 10.364C13.735 10.295 13.75 10.22 13.75 10.145C13.75 10.07 13.735 9.99501 13.706 9.92601L13.238 8.79401C13.027 8.28601 13.027 7.71501 13.237 7.20701L13.706 6.07401C13.764 5.93401 13.764 5.77601 13.706 5.63601C13.649 5.49601 13.537 5.38501 13.397 5.32701L12.263 4.85701C11.757 4.64701 11.354 4.24501 11.144 3.73901ZM10.07 4.87001C10.362 4.57701 10.838 4.57701 11.13 4.87001C11.423 5.16201 11.423 5.63801 11.13 5.93001L5.93 11.13C5.638 11.423 5.162 11.423 4.87 11.13C4.577 10.838 4.577 10.362 4.87 10.07L10.07 4.87001ZM7.125 6.05001C7.125 6.64401 6.644 7.12501 6.05 7.12501C5.456 7.12501 4.975 6.64401 4.975 6.05001C4.975 5.45601 5.456 4.97501 6.05 4.97501C6.644 4.97501 7.125 5.45601 7.125 6.05001ZM11.025 9.95001C11.025 10.544 10.544 11.025 9.95 11.025C9.356 11.025 8.875 10.544 8.875 9.95001C8.875 9.35601 9.356 8.87501 9.95 8.87501C10.544 8.87501 11.025 9.35601 11.025 9.95001Z"
            fill="#303233" />
    </g>
    <defs>
        <clipPath id="clip0_873_104">
            <rect width="16" height="16" fill="white" />
        </clipPath>
    </defs>
</svg>
