<svg width="16" height="16" viewBox="0 0 16 16" fill="none" xmlns="http://www.w3.org/2000/svg">
    <g clip-path="url(#clip0_53_6459)">
        <path fill-rule="evenodd" clip-rule="evenodd"
            d="M5.08348 5.83333C5.08348 3.02589 7.35937 0.75 10.1668 0.75C12.9743 0.75 15.2501 3.02589 15.2501 5.83333C15.2501 8.64078 12.9743 10.9167 10.1668 10.9167C9.93564 10.9167 9.70769 10.9012 9.48402 10.8711C9.3213 10.8492 9.22022 10.8358 9.14674 10.8287C9.13915 10.828 9.13238 10.8273 9.12636 10.8268C9.08854 10.8614 9.03841 10.9113 8.94874 11.001L7.80826 12.1414C7.6676 12.2821 7.47684 12.3611 7.27793 12.3611H6.58348V13.0556C6.58348 13.4698 6.24769 13.8056 5.83348 13.8056H5.13904V14.5C5.13904 14.9142 4.80325 15.25 4.38904 15.25L2.63212 15.25C2.45036 15.25 2.27179 15.25 2.12027 15.2377C1.95346 15.224 1.75459 15.1917 1.55399 15.0895C1.27698 14.9484 1.05176 14.7232 0.91061 14.4462C0.808401 14.2456 0.776107 14.0467 0.762478 13.8799C0.750099 13.7284 0.750122 13.5498 0.750145 13.368L0.750147 12.0898C0.750147 12.0778 0.750113 12.0654 0.750077 12.0527C0.749691 11.9161 0.749195 11.74 0.790825 11.5666C0.82689 11.4164 0.886374 11.2728 0.967094 11.141C1.06027 10.989 1.18513 10.8648 1.28204 10.7685C1.29104 10.7595 1.2998 10.7508 1.30827 10.7423L4.99919 7.05141C5.08887 6.96173 5.13872 6.91161 5.1733 6.87379C5.1728 6.86777 5.1722 6.86099 5.17146 6.85341C5.16437 6.77993 5.15091 6.67884 5.12903 6.51612C5.09896 6.29245 5.08348 6.0645 5.08348 5.83333ZM5.08348 12.3056H4.38904C3.97482 12.3056 3.63904 12.6413 3.63904 13.0556V13.75H2.6557C2.45292 13.75 2.33831 13.7495 2.25643 13.7437C2.25067 13.6618 2.25015 13.5472 2.25015 13.3444V12.0898C2.25015 12.0017 2.2503 11.9554 2.25155 11.9224C2.27401 11.8981 2.30669 11.8652 2.36893 11.803L6.05985 8.11207C6.07218 8.09974 6.08492 8.08708 6.09798 8.07411C6.22773 7.94524 6.38918 7.78488 6.49154 7.60174C6.58743 7.43019 6.636 7.28646 6.66383 7.0919C6.68431 6.94875 6.67425 6.80998 6.66452 6.70926C6.65439 6.60433 6.63699 6.47491 6.61743 6.32944L6.61566 6.31626C6.59447 6.15866 6.58348 5.99748 6.58348 5.83333C6.58348 3.85431 8.18779 2.25 10.1668 2.25C12.1458 2.25 13.7501 3.85431 13.7501 5.83333C13.7501 7.81235 12.1458 9.41667 10.1668 9.41667C10.0027 9.41667 9.84149 9.40568 9.68389 9.38449L9.67068 9.38272C9.52523 9.36316 9.39581 9.34575 9.29089 9.33562C9.19017 9.3259 9.05139 9.31584 8.90825 9.33632C8.71369 9.36415 8.56996 9.41271 8.3984 9.50861C8.21527 9.61097 8.05491 9.77242 7.92604 9.90216C7.91307 9.91522 7.90041 9.92797 7.88808 9.9403L6.96727 10.8611H5.83348C5.41927 10.8611 5.08348 11.1969 5.08348 11.6111V12.3056Z"
            fill="#303233" />
        <path
            d="M9.41714 5.83334C9.41714 5.41913 9.75293 5.08334 10.1671 5.08334H10.1744C10.5886 5.08334 10.9244 5.41913 10.9244 5.83334C10.9244 6.24756 10.5886 6.58334 10.1744 6.58334H10.1671C9.75293 6.58334 9.41714 6.24756 9.41714 5.83334Z"
            fill="#303233" />
    </g>
    <defs>
        <clipPath id="clip0_53_6459">
            <rect width="16" height="16" fill="white" />
        </clipPath>
    </defs>
</svg>
