<svg width="16" height="16" viewBox="0 0 16 16" fill="none" xmlns="http://www.w3.org/2000/svg">
    <path
        d="M10.3214 1H5.6786C5.13671 0.999995 4.69963 0.999991 4.34569 1.02891C3.98126 1.05868 3.66117 1.12159 3.36502 1.27248C2.89462 1.51217 2.51217 1.89462 2.27248 2.36502C2.12159 2.66117 2.05868 2.98126 2.02891 3.34569C1.99999 3.69963 2 4.1367 2 4.6786V11.3214C2 11.8633 1.99999 12.3004 2.02891 12.6543C2.05868 13.0187 2.12159 13.3388 2.27248 13.635C2.51217 14.1054 2.89462 14.4878 3.36502 14.7275C3.66117 14.8784 3.98126 14.9413 4.34569 14.9711C4.69961 15 5.13667 15 5.67853 15H9C9.27614 15 9.5 14.7761 9.5 14.5C9.5 14.2239 9.27614 14 9 14H5.7C5.1317 14 4.73554 13.9996 4.42712 13.9744C4.12454 13.9497 3.95069 13.9036 3.81901 13.8365C3.53677 13.6927 3.3073 13.4632 3.16349 13.181C3.0964 13.0493 3.05031 12.8755 3.02559 12.5729C3.00039 12.2645 3 11.8683 3 11.3V4.7C3 4.1317 3.00039 3.73554 3.02559 3.42712C3.05031 3.12454 3.0964 2.95069 3.16349 2.81901C3.3073 2.53677 3.53677 2.3073 3.81901 2.16349C3.95069 2.0964 4.12454 2.05031 4.42712 2.02559C4.73554 2.00039 5.1317 2 5.7 2H10.3C10.8683 2 11.2645 2.00039 11.5729 2.02559C11.8755 2.05031 12.0493 2.0964 12.181 2.16349C12.4632 2.3073 12.6927 2.53677 12.8365 2.81901C12.9036 2.95069 12.9497 3.12454 12.9744 3.42712C12.9996 3.73554 13 4.1317 13 4.7V9C13 9.27614 13.2239 9.5 13.5 9.5C13.7761 9.5 14 9.27614 14 9V4.67858C14 4.13672 14 3.69961 13.9711 3.34569C13.9413 2.98126 13.8784 2.66117 13.7275 2.36502C13.4878 1.89462 13.1054 1.51217 12.635 1.27248C12.3388 1.12159 12.0187 1.05868 11.6543 1.02891C11.3004 0.999991 10.8633 0.999995 10.3214 1Z"
        fill="#303233" />
    <path
        d="M10.5 11.5C10.2239 11.5 10 11.7239 10 12C10 12.2761 10.2239 12.5 10.5 12.5H14.5C14.7761 12.5 15 12.2761 15 12C15 11.7239 14.7761 11.5 14.5 11.5H10.5Z"
        fill="#303233" />
</svg>
