<svg width="16" height="16" viewBox="0 0 16 16" fill="none" xmlns="http://www.w3.org/2000/svg">
    <path
        d="M5.77853 1H10.2215C10.7808 0.999996 11.231 0.999992 11.5954 1.02976C11.9702 1.06039 12.298 1.125 12.6009 1.2793C13.083 1.52497 13.475 1.91698 13.7207 2.39915C13.875 2.70198 13.9396 3.02979 13.9702 3.40464C14 3.76899 14 4.21918 14 4.77851V8.74973C13.3733 8.27896 12.5942 8 11.75 8C9.67893 8 8 9.67893 8 11.75C8 13.1392 8.75543 14.352 9.87791 15H5.77851C5.21918 15 4.76899 15 4.40464 14.9702C4.02979 14.9396 3.70198 14.875 3.39915 14.7207C2.91698 14.475 2.52497 14.083 2.2793 13.6009C2.125 13.298 2.06039 12.9702 2.02976 12.5954C1.99999 12.231 2 11.7808 2 11.2215V4.77853C2 4.21919 1.99999 3.769 2.02976 3.40464C2.06039 3.02979 2.125 2.70198 2.2793 2.39915C2.52497 1.91698 2.91698 1.52497 3.39915 1.2793C3.70198 1.125 4.02979 1.06039 4.40464 1.02976C4.769 0.999992 5.21919 0.999996 5.77853 1Z"
        fill="#303233" />
    <path fill-rule="evenodd" clip-rule="evenodd"
        d="M11.75 14.5C12.3287 14.5 12.8657 14.3212 13.3088 14.0159L14.1464 14.8536C14.3417 15.0488 14.6583 15.0488 14.8536 14.8536C15.0488 14.6583 15.0488 14.3417 14.8536 14.1464L14.0159 13.3088C14.3212 12.8657 14.5 12.3287 14.5 11.75C14.5 10.2312 13.2688 9 11.75 9C10.2312 9 9 10.2312 9 11.75C9 13.2688 10.2312 14.5 11.75 14.5ZM11.75 13.5C12.7165 13.5 13.5 12.7165 13.5 11.75C13.5 10.7835 12.7165 10 11.75 10C10.7835 10 10 10.7835 10 11.75C10 12.7165 10.7835 13.5 11.75 13.5Z"
        fill="#303233" />
</svg>
