<svg width="16" height="16" viewBox="0 0 16 16" fill="none" xmlns="http://www.w3.org/2000/svg">
    <path
        d="M5.34509 1.518C6.1303 1.01989 7.0516 0.75 7.99997 0.75C9.28443 0.75 10.5206 1.24524 11.4353 2.1335C12.3509 3.02248 12.8694 4.23298 12.8694 5.5C12.8694 6.72021 13.0698 7.67453 13.3455 8.41241C13.4904 8.80042 13.2934 9.2325 12.9054 9.37748C12.5174 9.52246 12.0853 9.32544 11.9403 8.93742C11.598 8.02108 11.3694 6.88788 11.3694 5.5C11.3694 4.64529 11.02 3.82096 10.3904 3.20965C9.76008 2.59761 8.90061 2.25 7.99997 2.25C7.33575 2.25 6.6932 2.43916 6.1486 2.78464C5.79882 3.00652 5.33541 2.90284 5.11352 2.55307C4.89164 2.2033 4.99532 1.73988 5.34509 1.518Z"
        fill="#303233" />
    <path fill-rule="evenodd" clip-rule="evenodd"
        d="M1.46967 2.53033L3.27822 4.33888C3.18095 4.71525 3.13052 5.10503 3.13052 5.5C3.13052 7.42248 2.63338 8.69155 2.11598 9.49895L2.1069 9.51311C1.86246 9.89456 1.66779 10.1983 1.5363 10.4199C1.47041 10.5309 1.4089 10.6402 1.36277 10.7389C1.33975 10.7881 1.31308 10.8504 1.29197 10.9192C1.27468 10.9756 1.2398 11.1017 1.25286 11.2568C1.261 11.3534 1.28186 11.5263 1.38406 11.7049C1.48525 11.8818 1.62239 11.9874 1.6995 12.043C1.88273 12.1749 2.09016 12.2046 2.1565 12.2141L2.16072 12.2147C2.26423 12.2296 2.38088 12.2369 2.49718 12.2413C2.72815 12.25 3.04743 12.25 3.44289 12.25H11.1893L13.4697 14.5303C13.7626 14.8232 14.2374 14.8232 14.5303 14.5303C14.8232 14.2374 14.8232 13.7626 14.5303 13.4697L2.53033 1.46967C2.23744 1.17678 1.76256 1.17678 1.46967 1.46967C1.17678 1.76256 1.17678 2.23744 1.46967 2.53033ZM3.37891 10.3083C4.03756 9.28045 4.59716 7.78744 4.62908 5.68974L9.68934 10.75H3.46093C3.32682 10.75 3.20582 10.75 3.09675 10.7497C3.17821 10.6215 3.27199 10.4751 3.37891 10.3083Z"
        fill="#303233" />
    <path
        d="M6.49412 13.6858C6.1825 13.4129 5.70867 13.4443 5.43578 13.7559C5.16289 14.0675 5.19429 14.5413 5.5059 14.8142C6.17093 15.3966 7.04521 15.75 8.00001 15.75C8.95481 15.75 9.82909 15.3966 10.4941 14.8142C10.8057 14.5413 10.8371 14.0675 10.5642 13.7559C10.2914 13.4443 9.81752 13.4129 9.5059 13.6858C9.1049 14.0369 8.57887 14.25 8.00001 14.25C7.42115 14.25 6.89512 14.0369 6.49412 13.6858Z"
        fill="#303233" />
</svg>
