<svg width="16" height="16" viewBox="0 0 16 16" fill="none" xmlns="http://www.w3.org/2000/svg">
    <path
        d="M5.76942 0.75H10.2306C10.7821 0.749991 11.2411 0.749983 11.6157 0.780592C12.006 0.812481 12.3704 0.881296 12.7143 1.05655C13.2436 1.32619 13.6738 1.75645 13.9435 2.28565C14.1187 2.6296 14.1875 2.99397 14.2194 3.38428C14.25 3.75893 14.25 4.21787 14.25 4.7694V7.19537C13.8875 7.00324 13.4947 6.87004 13.087 6.80214C12.2207 6.65786 11.3263 6.81463 10.5591 7.25243C9.79054 7.69097 9.19131 8.38873 8.88469 9.23505C8.4614 10.4034 9.06537 11.6936 10.2337 12.1169L10.253 12.1238C10.2639 12.3192 10.3006 12.5164 10.3654 12.711C10.3982 12.8095 10.4371 12.9041 10.4816 12.9947C10.3303 13.2973 10.2451 13.6387 10.2451 14C10.2451 14.4623 10.3846 14.8921 10.6237 15.2495C10.4983 15.25 10.3673 15.25 10.2306 15.25H5.7694C5.21787 15.25 4.75893 15.25 4.38428 15.2194C3.99397 15.1875 3.6296 15.1187 3.28565 14.9435C2.75645 14.6738 2.32619 14.2436 2.05655 13.7143C1.8813 13.3704 1.81248 13.006 1.78059 12.6157C1.74998 12.2411 1.74999 11.7821 1.75 11.2306V4.76941C1.74999 4.21788 1.74998 3.75892 1.78059 3.38428C1.81248 2.99397 1.8813 2.6296 2.05655 2.28565C2.32619 1.75645 2.75645 1.32619 3.28565 1.05655C3.6296 0.881296 3.99397 0.812481 4.38428 0.780592C4.75892 0.749983 5.2179 0.749991 5.76942 0.75Z"
        fill="#303233" />
    <path
        d="M11.705 10.2566C11.766 10.0886 11.888 9.94762 12.046 9.85763C12.211 9.76363 12.405 9.72963 12.594 9.76063C12.78 9.79163 12.949 9.88462 13.071 10.0246C13.186 10.1576 13.25 10.3256 13.25 10.4996C13.25 10.6686 13.114 10.7826 12.992 10.8836C12.668 11.1536 12.263 11.2876 12.263 11.2876C11.87 11.4186 11.658 11.8436 11.788 12.2366C11.919 12.6296 12.344 12.8416 12.737 12.7116C12.737 12.7116 13.412 12.4856 13.952 12.0366C14.407 11.6576 14.75 11.1326 14.75 10.5016C14.751 9.96762 14.558 9.45063 14.204 9.04163C13.856 8.64064 13.373 8.37064 12.84 8.28164C12.311 8.19364 11.766 8.29064 11.302 8.55464C10.832 8.82364 10.476 9.24563 10.295 9.74563C10.154 10.1346 10.355 10.5656 10.745 10.7066C11.134 10.8476 11.564 10.6456 11.705 10.2566Z"
        fill="#303233" />
    <path
        d="M11.7451 14C11.7451 13.5858 12.0809 13.25 12.4951 13.25H12.5001C12.9143 13.25 13.2501 13.5858 13.2501 14C13.2501 14.4142 12.9143 14.75 12.5001 14.75H12.4951C12.0809 14.75 11.7451 14.4142 11.7451 14Z"
        fill="#303233" />
</svg>
