<svg width="16" height="16" viewBox="0 0 16 16" fill="none" xmlns="http://www.w3.org/2000/svg">
    <path fill-rule="evenodd" clip-rule="evenodd"
        d="M9.16862 0.528821C9.36806 0.599641 9.50131 0.788357 9.50131 0.999997V6.5L13.5 6.49999C13.6929 6.49999 13.8686 6.61095 13.9515 6.78513C14.0344 6.95931 14.0097 7.16563 13.888 7.31533L7.38673 15.3153C7.25326 15.4796 7.03083 15.542 6.83139 15.4712C6.63195 15.4004 6.4987 15.2116 6.4987 15V9.5H2.50001C2.30711 9.5 2.13142 9.38904 2.04853 9.21486C1.96563 9.04068 1.99033 8.83436 2.11198 8.68466L8.61328 0.684662C8.74676 0.520419 8.96918 0.458001 9.16862 0.528821ZM3.55062 8.5H6.9987C7.27485 8.5 7.4987 8.72385 7.4987 9V13.5919L12.4494 7.49999L9.00131 7.5C8.8687 7.5 8.74152 7.44732 8.64775 7.35355C8.55399 7.25978 8.50131 7.1326 8.50131 7V2.40807L3.55062 8.5Z"
        fill="#303233" />
</svg>
