<svg width="16" height="16" viewBox="0 0 16 16" fill="none" xmlns="http://www.w3.org/2000/svg">
    <path fill-rule="evenodd" clip-rule="evenodd"
        d="M10.2306 0.75H5.76942C5.21789 0.74999 4.75893 0.749982 4.38428 0.780592C3.99397 0.812481 3.6296 0.881295 3.28565 1.05655C2.75645 1.32619 2.32619 1.75645 2.05655 2.28565C1.8813 2.6296 1.81248 2.99397 1.78059 3.38428C1.74998 3.75893 1.74999 4.21787 1.75 4.76941V11.2306C1.74999 11.7821 1.74998 12.2411 1.78059 12.6157C1.81248 13.006 1.8813 13.3704 2.05655 13.7143C2.32619 14.2436 2.75645 14.6738 3.28565 14.9435C3.6296 15.1187 3.99397 15.1875 4.38428 15.2194C4.75893 15.25 5.21787 15.25 5.7694 15.25H9.76124C8.83705 14.4704 8.25 13.3038 8.25 12V9.5C8.25 8.25767 9.25686 7.2505 10.4991 7.25C10.9889 6.07552 12.148 5.25 13.5 5.25C13.7581 5.25 14.0092 5.28009 14.25 5.33697V4.7694C14.25 4.21787 14.25 3.75893 14.2194 3.38428C14.1875 2.99397 14.1187 2.6296 13.9435 2.28565C13.6738 1.75645 13.2436 1.32619 12.7143 1.05655C12.3704 0.881295 12.006 0.812481 11.6157 0.780592C11.2411 0.749982 10.7821 0.74999 10.2306 0.75Z"
        fill="#303233" />
    <path fill-rule="evenodd" clip-rule="evenodd"
        d="M13.5 8.25C13.3619 8.25 13.25 8.36193 13.25 8.5V12C13.25 12.4142 12.9142 12.75 12.5 12.75C12.0858 12.75 11.75 12.4142 11.75 12V8.5C11.75 7.5335 12.5335 6.75 13.5 6.75C14.4665 6.75 15.25 7.5335 15.25 8.5V12C15.25 13.5188 14.0188 14.75 12.5 14.75C10.9812 14.75 9.75 13.5188 9.75 12V9.5C9.75 9.08579 10.0858 8.75 10.5 8.75C10.9142 8.75 11.25 9.08579 11.25 9.5V12C11.25 12.6904 11.8096 13.25 12.5 13.25C13.1904 13.25 13.75 12.6904 13.75 12V8.5C13.75 8.36193 13.6381 8.25 13.5 8.25Z"
        fill="#303233" />
</svg>
