<svg width="16" height="16" viewBox="0 0 16 16" fill="none" xmlns="http://www.w3.org/2000/svg">
    <path
        d="M3.75736 3.75355C3.95262 3.55829 3.95262 3.2417 3.75736 3.04644C3.5621 2.85118 3.24551 2.85118 3.05025 3.04644C0.316583 5.78011 0.316583 10.2123 3.05025 12.9459C3.24551 13.1412 3.5621 13.1412 3.75736 12.9459C3.95262 12.7507 3.95262 12.4341 3.75736 12.2388C1.41421 9.89568 1.41421 6.09669 3.75736 3.75355Z"
        fill="#303233" />
    <path
        d="M12.9497 3.04647C12.7545 2.85121 12.4379 2.85121 12.2426 3.04647C12.0474 3.24173 12.0474 3.55831 12.2426 3.75358C14.5858 6.09672 14.5858 9.89571 12.2426 12.2389C12.0474 12.4341 12.0474 12.7507 12.2426 12.946C12.4379 13.1412 12.7545 13.1412 12.9497 12.946C15.6834 10.2123 15.6834 5.78014 12.9497 3.04647Z"
        fill="#303233" />
    <path
        d="M5.59584 5.592C5.7911 5.39674 5.7911 5.08016 5.59584 4.8849C5.40057 4.68963 5.08399 4.68963 4.88873 4.8849C3.17042 6.6032 3.17042 9.38913 4.88873 11.1074C5.08399 11.3027 5.40057 11.3027 5.59584 11.1074C5.7911 10.9122 5.7911 10.5956 5.59584 10.4003C4.26805 9.07255 4.26805 6.91979 5.59584 5.592Z"
        fill="#303233" />
    <path
        d="M11.1113 4.88492C10.916 4.68966 10.5994 4.68966 10.4042 4.88492C10.2089 5.08018 10.2089 5.39676 10.4042 5.59202C11.7319 6.91981 11.7319 9.07257 10.4042 10.4004C10.2089 10.5956 10.2089 10.9122 10.4042 11.1075C10.5994 11.3027 10.916 11.3027 11.1113 11.1075C12.8296 9.38915 12.8296 6.60323 11.1113 4.88492Z"
        fill="#303233" />
    <path fill-rule="evenodd" clip-rule="evenodd"
        d="M7.87255 6.58057C7.78469 6.52406 7.69231 6.46464 7.61095 6.42229C7.5291 6.37969 7.38056 6.31073 7.19657 6.32387C6.97958 6.33937 6.78 6.44833 6.64962 6.62248C6.53907 6.77014 6.51675 6.93238 6.50833 7.02426C6.49995 7.11561 6.49998 7.22544 6.5 7.32991V8.89819C6.49998 9.00266 6.49995 9.1125 6.50833 9.20384C6.51675 9.29573 6.53907 9.45796 6.64962 9.60562C6.78 9.77977 6.97958 9.88873 7.19657 9.90423C7.38056 9.91737 7.5291 9.84842 7.61095 9.80581C7.69231 9.76347 7.78469 9.70405 7.87255 9.64754L9.09333 8.86275C9.16886 8.81423 9.2514 8.7612 9.31715 8.70992C9.38689 8.65553 9.49697 8.55959 9.56188 8.40597C9.64074 8.21934 9.64074 8.00876 9.56188 7.82214C9.49697 7.66851 9.38689 7.57257 9.31715 7.51818C9.2514 7.4669 9.16886 7.41388 9.09333 7.36535L7.87255 6.58057ZM7.50001 8.69822V7.52988L8.40871 8.11405L7.50001 8.69822Z"
        fill="#303233" />
</svg>
