<svg width="16" height="16" viewBox="0 0 16 16" fill="none" xmlns="http://www.w3.org/2000/svg">
    <path fill-rule="evenodd" clip-rule="evenodd"
        d="M4.67047 2.75H8.32953C8.86445 2.74999 9.30937 2.74998 9.6725 2.77859C10.0503 2.80836 10.4039 2.87256 10.7387 3.03706C11.2538 3.29015 11.6777 3.69657 11.9451 4.20263C12.1206 4.53462 12.1887 4.88552 12.2201 5.25571C12.2434 5.53135 12.2486 5.85465 12.2497 6.22717L13.1763 5.32779C13.2888 5.21855 13.4062 5.10456 13.5106 5.01976C13.6032 4.94449 13.8181 4.77609 14.1193 4.75307C14.4453 4.72818 14.7701 4.85537 14.9912 5.10661C15.1972 5.3407 15.2272 5.62038 15.2379 5.73765C15.2501 5.87099 15.25 6.03369 15.25 6.18744V9.81255C15.25 9.9663 15.2501 10.129 15.2379 10.2623C15.2272 10.3796 15.1972 10.6593 14.9912 10.8934C14.7701 11.1446 14.4453 11.2718 14.1193 11.2469C13.8181 11.2239 13.6032 11.0555 13.5106 10.9802C13.4062 10.8954 13.2888 10.7814 13.1763 10.6722L12.2497 9.77282C12.2486 10.1453 12.2434 10.4687 12.2201 10.7443C12.1887 11.1145 12.1206 11.4654 11.9451 11.7974C11.6777 12.3034 11.2538 12.7098 10.7387 12.9629C10.5482 13.0565 10.3517 13.1177 10.1469 13.1587C9.74071 13.2398 9.34566 12.9763 9.26453 12.5701C9.1834 12.1639 9.44691 11.7688 9.8531 11.6877C9.95497 11.6674 10.0239 11.6429 10.0772 11.6167C10.3148 11.5 10.5028 11.3163 10.6189 11.0966C10.6615 11.016 10.7023 10.8906 10.7254 10.6176C10.7494 10.3351 10.75 9.96717 10.75 9.41429V8.00119C10.75 8.00079 10.75 8.00039 10.75 7.99999C10.75 7.9996 10.75 7.9992 10.75 7.9988V6.58572C10.75 6.03284 10.7494 5.66494 10.7254 5.38235C10.7023 5.10936 10.6615 4.98397 10.6189 4.90341C10.5028 4.6837 10.3148 4.50005 10.0772 4.38334C9.98424 4.33764 9.84391 4.29675 9.55469 4.27396C9.25748 4.25054 8.87199 4.25 8.3 4.25H4.7C4.12801 4.25 3.74252 4.25054 3.44531 4.27396C3.15609 4.29675 3.01576 4.33764 2.92275 4.38334C2.68522 4.50005 2.4972 4.6837 2.38111 4.90341C2.33854 4.98396 2.2977 5.10936 2.27457 5.38235C2.25063 5.66494 2.25 6.03284 2.25 6.58572V9.41429C2.25 9.96717 2.25063 10.3351 2.27457 10.6176C2.2977 10.8906 2.33854 11.016 2.38111 11.0966C2.4972 11.3163 2.68522 11.5 2.92275 11.6167C2.97615 11.6429 3.04503 11.6674 3.1469 11.6877C3.55309 11.7688 3.8166 12.1639 3.73548 12.5701C3.65435 12.9763 3.2593 13.2398 2.85311 13.1587C2.64829 13.1177 2.45179 13.0565 2.26129 12.9629C1.74618 12.7098 1.32227 12.3034 1.05487 11.7974C0.879448 11.4654 0.811293 11.1145 0.779928 10.7443C0.749979 10.3908 0.749989 9.95898 0.75 9.44549V6.55454C0.749989 6.04105 0.749979 5.60917 0.779928 5.25571C0.811293 4.88552 0.879448 4.53462 1.05487 4.20263C1.32227 3.69657 1.74618 3.29015 2.26129 3.03706C2.5961 2.87256 2.94971 2.80836 3.3275 2.77859C3.69063 2.74998 4.13555 2.74999 4.67047 2.75ZM12.5768 7.99999L13.75 6.86134V9.13865L12.5768 7.99999Z"
        fill="#303233" />
    <path
        d="M6.21291 7.55691C6.12445 7.59351 6.04158 7.64776 5.96967 7.71967L3.96967 9.71967C3.67678 10.0126 3.67678 10.4874 3.96967 10.7803C4.26256 11.0732 4.73744 11.0732 5.03033 10.7803L5.75 10.0607V14.75C5.75 15.1642 6.08579 15.5 6.5 15.5C6.91421 15.5 7.25 15.1642 7.25 14.75V10.0607L7.96967 10.7803C8.26256 11.0732 8.73744 11.0732 9.03033 10.7803C9.32322 10.4874 9.32322 10.0126 9.03033 9.71967L7.03033 7.71967C6.88509 7.57443 6.69511 7.50121 6.50476 7.50002L6.5 7.5L6.49522 7.50002C6.39527 7.50064 6.29996 7.52081 6.21291 7.55691Z"
        fill="#303233" />
</svg>
