<svg width="24" height="24" viewBox="0 0 24 24" fill="none" xmlns="http://www.w3.org/2000/svg">
    <path
        d="M3.5 2.25C2.25736 2.25 1.25 3.25736 1.25 4.5C1.25 5.74264 2.25736 6.75 3.5 6.75H20.5C21.7426 6.75 22.75 5.74264 22.75 4.5C22.75 3.25736 21.7426 2.25 20.5 2.25H3.5Z"
        fill="#303233" />
    <path fill-rule="evenodd" clip-rule="evenodd"
        d="M3.46967 8.46967C3.61032 8.32902 3.80109 8.25 4 8.25H20C20.4142 8.25 20.75 8.58579 20.75 9V16.2321C20.75 17.045 20.75 17.7006 20.7066 18.2315C20.662 18.7781 20.5676 19.2583 20.3413 19.7025C19.9817 20.4081 19.4081 20.9818 18.7025 21.3413C18.2582 21.5676 17.7781 21.662 17.2315 21.7066C16.7006 21.75 16.045 21.75 15.2321 21.75H8.76788C7.95505 21.75 7.29944 21.75 6.76853 21.7066C6.2219 21.662 5.74175 21.5676 5.29754 21.3413C4.59193 20.9818 4.01825 20.4081 3.65873 19.7025C3.43239 19.2583 3.33803 18.7781 3.29336 18.2315C3.24999 17.7006 3.24999 17.045 3.25 16.2321V9C3.25 8.80109 3.32902 8.61032 3.46967 8.46967ZM11.4697 10.4697C11.7626 10.1768 12.2374 10.1768 12.5303 10.4697L15.5303 13.4697C15.8232 13.7626 15.8232 14.2374 15.5303 14.5303C15.2374 14.8232 14.7626 14.8232 14.4697 14.5303L12.75 12.8107V17C12.75 17.4142 12.4142 17.75 12 17.75C11.5858 17.75 11.25 17.4142 11.25 17V12.8107L9.53033 14.5303C9.23744 14.8232 8.76256 14.8232 8.46967 14.5303C8.17678 14.2374 8.17678 13.7626 8.46967 13.4697L11.4697 10.4697Z"
        fill="#303233" />
</svg>
