<svg width="16" height="16" viewBox="0 0 16 16" fill="none" xmlns="http://www.w3.org/2000/svg">
    <g clip-path="url(#clip0_53_5597)">
        <path
            d="M6.36899 0.535892C6.91807 0.131417 7.59785 -0.0546086 8.27637 0.013929C8.95489 0.0824664 9.58374 0.400677 10.0408 0.906787C10.4978 1.41271 10.7505 2.07031 10.75 2.75202V6.25C10.75 6.66422 10.4142 7 10 7C9.58579 7 9.25 6.66422 9.25 6.25V2.75202C9.25031 2.44203 9.13543 2.14223 8.92766 1.91218C8.71988 1.68213 8.43404 1.53749 8.12562 1.50633C7.81721 1.47518 7.50821 1.55974 7.25863 1.74359C7.02678 1.91438 6.86156 2.15955 6.78981 2.43704C6.68612 2.83807 6.27697 3.07911 5.87595 2.97542C5.47492 2.87173 5.23388 2.46258 5.33757 2.06156C5.49543 1.45101 5.8589 0.911646 6.36899 0.535892Z"
            fill="#303233" />
        <path fill-rule="evenodd" clip-rule="evenodd"
            d="M0.21967 1.28033L5.25 6.31066L5.25 8.08601C5.25048 8.62956 5.41202 9.16077 5.71423 9.61256C6.01644 10.0644 6.44575 10.4165 6.94795 10.6244C7.45015 10.8323 8.0027 10.8868 8.53583 10.7809C8.83966 10.7205 9.12942 10.6096 9.39364 10.4543L10.2081 11.2688C9.78092 11.5605 9.29798 11.7661 8.78625 11.871C8.02165 12.0278 7.22765 11.9525 6.50613 11.6549C5.7846 11.3572 5.16845 10.8508 4.73673 10.2006C4.30501 9.55035 4.07742 8.78596 4.08313 8.00548V6.75C4.08313 6.33579 3.74735 6 3.33313 6C2.91892 6 2.58313 6.33579 2.58313 6.75V7.99736C2.57581 9.07576 2.89056 10.1318 3.48709 11.0303C4.08416 11.9295 4.93628 12.6299 5.93413 13.0415C6.35825 13.2165 6.80048 13.3359 7.25 13.3987V14.5H5.5C5.08579 14.5 4.75 14.8358 4.75 15.25C4.75 15.6642 5.08579 16 5.5 16H10.5C10.9142 16 11.25 15.6642 11.25 15.25C11.25 14.8358 10.9142 14.5 10.5 14.5H8.75V13.3986C8.86284 13.3828 8.9754 13.3634 9.08749 13.3404C9.88797 13.1763 10.6375 12.834 11.2822 12.3429L14.7197 15.7803C15.0126 16.0732 15.4874 16.0732 15.7803 15.7803C16.0732 15.4874 16.0732 15.0126 15.7803 14.7197L1.28033 0.21967C0.987437 -0.0732233 0.512563 -0.0732233 0.21967 0.21967C-0.0732233 0.512563 -0.0732233 0.987437 0.21967 1.28033ZM6.75 8.08499V7.81066L8.24807 9.30873L8.24356 9.30963C8.00123 9.35777 7.75007 9.33302 7.52179 9.2385C7.29352 9.14398 7.09838 8.98394 6.96101 8.77858C6.8237 8.5733 6.75028 8.33195 6.75 8.08499Z"
            fill="#303233" />
        <path
            d="M13.4165 6.75C13.4165 6.33579 13.0807 6 12.6665 6C12.2523 6 11.9165 6.33579 11.9165 6.75V7.99934C11.9163 8.20968 11.8992 8.41962 11.8653 8.62714C11.7985 9.03594 12.0758 9.42145 12.4846 9.4882C12.8934 9.55496 13.2789 9.27768 13.3457 8.86888C13.3925 8.58188 13.4162 8.29088 13.4165 8V6.75Z"
            fill="#303233" />
    </g>
    <defs>
        <clipPath id="clip0_53_5597">
            <rect width="16" height="16" fill="white" />
        </clipPath>
    </defs>
</svg>
