<svg width="16" height="16" viewBox="0 0 16 16" fill="none" xmlns="http://www.w3.org/2000/svg">
    <path fill-rule="evenodd" clip-rule="evenodd"
        d="M11.2362 4.69843L12.2039 2.27905C12.32 1.98904 12.2449 1.65904 12.0159 1.44803C11.7869 1.23702 11.4509 1.19002 11.1729 1.32903L9.91889 1.95604C9.81089 2.01004 9.67988 1.97904 9.60688 1.88204L8.60786 0.550007C8.46585 0.361003 8.24385 0.25 8.00784 0.25C7.77184 0.25 7.54983 0.361003 7.40783 0.550007L6.4088 1.88204C6.3358 1.97904 6.2048 2.01004 6.09679 1.95604L4.84276 1.32903C4.56476 1.19002 4.22875 1.23702 3.99974 1.44803C3.77074 1.65904 3.69573 1.98904 3.81174 2.27905L4.76686 4.66687C4.75571 4.7764 4.75 4.88753 4.75 5C4.75 6.79493 6.20507 8.25 8 8.25C9.79493 8.25 11.25 6.79493 11.25 5C11.25 4.89832 11.2453 4.79773 11.2362 4.69843ZM6.26774 5.25012H9.73226C9.6109 6.09814 8.88158 6.75 8 6.75C7.11842 6.75 6.3891 6.09814 6.26774 5.25012Z"
        fill="#303233" />
    <path
        d="M7.99974 10.25C5.9445 10.25 4.22848 11.7096 3.83477 13.6492C3.75237 14.0551 3.35649 14.3174 2.95056 14.235C2.54462 14.1526 2.28235 13.7567 2.36475 13.3508C2.89757 10.7259 5.21706 8.75 7.99974 8.75C10.7824 8.75 13.1019 10.7259 13.6347 13.3508C13.7171 13.7567 13.4549 14.1526 13.0489 14.235C12.643 14.3174 12.2471 14.0551 12.1647 13.6492C11.771 11.7096 10.055 10.25 7.99974 10.25Z"
        fill="#303233" />
</svg>
