<svg width="16" height="16" viewBox="0 0 16 16" fill="none" xmlns="http://www.w3.org/2000/svg">
    <path
        d="M11.4832 3.83526C10.5036 2.85502 9.15212 2.25 7.65789 2.25C4.6712 2.25 2.25 4.6712 2.25 7.65789C2.25 10.2306 4.04725 12.3853 6.45544 12.9318C6.85938 13.0235 7.11254 13.4252 7.02088 13.8292C6.92922 14.2331 6.52745 14.4863 6.12351 14.3946C3.0471 13.6965 0.75 10.9464 0.75 7.65789C0.75 3.84277 3.84277 0.75 7.65789 0.75C9.56611 0.75 11.2948 1.52471 12.5442 2.77497C12.9429 3.17397 13.3668 3.65774 13.75 4.11864V2.18421C13.75 1.77 14.0858 1.43421 14.5 1.43421C14.9142 1.43421 15.25 1.77 15.25 2.18421V6.28947C15.25 6.70369 14.9142 7.03947 14.5 7.03947H10.3947C9.98052 7.03947 9.64474 6.70369 9.64474 6.28947C9.64474 5.87526 9.98052 5.53947 10.3947 5.53947H12.9737C12.5165 4.96986 11.9684 4.32078 11.4832 3.83526Z"
        fill="#303233" />
    <path
        d="M12.2122 9.92544H14.65V9H11.2492V12.2202H12.2574C12.3175 12.0447 12.4179 11.9042 12.5583 11.7989C12.6988 11.6936 12.8743 11.6409 13.085 11.6409C13.3809 11.6409 13.6041 11.7237 13.7546 11.8892C13.9101 12.0497 13.9879 12.2855 13.9879 12.5964C13.9879 12.9024 13.9126 13.1482 13.7621 13.3338C13.6117 13.5194 13.3885 13.6122 13.0925 13.6122C12.8467 13.6122 12.6436 13.552 12.4831 13.4316C12.3276 13.3112 12.2273 13.1507 12.1821 12.9501H11.1589C11.204 13.4115 11.3971 13.7852 11.7382 14.0711C12.0793 14.357 12.5357 14.5 13.1076 14.5C13.7145 14.5 14.181 14.3244 14.507 13.9733C14.8381 13.6222 15.0036 13.1582 15.0036 12.5814C15.0036 12.2704 14.9459 11.9795 14.8305 11.7086C14.7152 11.4327 14.5296 11.207 14.2738 11.0315C14.018 10.8559 13.6894 10.7681 13.2881 10.7681C13.0674 10.7681 12.8593 10.8108 12.6637 10.896C12.468 10.9763 12.3175 11.0816 12.2122 11.212V9.92544Z"
        fill="#303233" />
    <path d="M8.10938 9.01505V9.98564H8.8392V14.5H9.92264V9.01505H8.10938Z" fill="#303233" />
</svg>
