<svg width="24" height="24" viewBox="0 0 24 24" fill="none" xmlns="http://www.w3.org/2000/svg">
    <path fill-rule="evenodd" clip-rule="evenodd"
        d="M13.2986 1.31202C13.604 1.4446 13.7855 1.76265 13.7442 2.09302L13.1445 6.89073C13.0931 7.30175 12.7182 7.59329 12.3072 7.54192C11.8962 7.49054 11.6047 7.1157 11.656 6.70468L11.9385 4.44534L11.1489 5.39278C10.8837 5.71099 10.4108 5.75398 10.0926 5.48881C9.77441 5.22364 9.73141 4.75072 9.99659 4.43251L12.4238 1.51986C12.6369 1.26408 12.9932 1.17944 13.2986 1.31202ZM2.46967 2.46967C2.76256 2.17677 3.23744 2.17677 3.53033 2.46967L8.52493 7.46426C8.52899 7.46824 8.533 7.47225 8.53696 7.47629L16.525 15.4643C16.529 15.4683 16.533 15.4722 16.5369 15.4763L21.5303 20.4697C21.8232 20.7626 21.8232 21.2374 21.5303 21.5303C21.2374 21.8232 20.7626 21.8232 20.4697 21.5303L16.0504 17.1111L11.5762 22.4801C11.363 22.7359 11.0068 22.8205 10.7014 22.688C10.3959 22.5554 10.2145 22.2373 10.2558 21.907L11.1504 14.75L4.67816 14.75C4.43165 14.75 4.19802 14.7501 4.01026 14.7331C3.83045 14.7168 3.53396 14.6759 3.28186 14.4722C2.98305 14.2308 2.81187 13.8653 2.81766 13.4811C2.82255 13.1571 2.981 12.9032 3.0836 12.7546C3.19074 12.5995 3.34032 12.42 3.49815 12.2307L6.98536 8.04602L2.46967 3.53033C2.17678 3.23743 2.17678 2.76256 2.46967 2.46967ZM8.0504 9.11106L4.66962 13.168C4.64555 13.1969 4.62284 13.2242 4.6014 13.2499C4.63494 13.25 4.67043 13.25 4.70803 13.25H12C12.0766 13.25 12.1518 13.2617 12.2234 13.284L8.0504 9.11106ZM12.716 13.7766C12.7475 13.8777 12.7576 13.9855 12.7442 14.093L12.0615 19.5547L14.9854 16.046L12.716 13.7766ZM19.3986 10.7501C19.3651 10.75 19.3296 10.75 19.292 10.75H15.65C15.2358 10.75 14.9 10.4142 14.9 10C14.9 9.58578 15.2358 9.25 15.65 9.25L19.3219 9.24999C19.5684 9.24997 19.802 9.24994 19.9897 9.26694C20.1695 9.28322 20.466 9.32404 20.7181 9.52776C21.017 9.76923 21.1881 10.1347 21.1823 10.5188C21.1775 10.8429 21.019 11.0968 20.9164 11.2454C20.8093 11.4005 20.6597 11.5799 20.5019 11.7693L19.1264 13.4198C18.8612 13.738 18.3883 13.781 18.0701 13.5159C17.7519 13.2507 17.7089 12.7778 17.9741 12.4596L19.3304 10.832C19.3545 10.8031 19.3772 10.7758 19.3986 10.7501Z"
        fill="#303233" />
</svg>
