<svg width="16" height="16" viewBox="0 0 16 16" fill="none" xmlns="http://www.w3.org/2000/svg">
    <g clip-path="url(#clip0_110_702)">
        <path fill-rule="evenodd" clip-rule="evenodd"
            d="M8.75 1C8.75 0.585786 8.41421 0.25 8 0.25C7.58579 0.25 7.25 0.585786 7.25 1V1.79454C4.39773 2.13565 2.13565 4.39773 1.79454 7.25H1C0.585786 7.25 0.25 7.58579 0.25 8C0.25 8.41421 0.585786 8.75 1 8.75H1.79454C2.13565 11.6023 4.39773 13.8644 7.25 14.2055V15C7.25 15.4142 7.58579 15.75 8 15.75C8.41421 15.75 8.75 15.4142 8.75 15V14.2055C11.6023 13.8644 13.8644 11.6023 14.2055 8.75H15C15.4142 8.75 15.75 8.41421 15.75 8C15.75 7.58579 15.4142 7.25 15 7.25H14.2055C13.8644 4.39773 11.6023 2.13565 8.75 1.79454V1ZM7.25 3.30888V4C7.25 4.41421 7.58579 4.75 8 4.75C8.41421 4.75 8.75 4.41421 8.75 4V3.30888C10.7727 3.62971 12.3703 5.22731 12.6911 7.25H12C11.5858 7.25 11.25 7.58579 11.25 8C11.25 8.41421 11.5858 8.75 12 8.75H12.6911C12.3703 10.7727 10.7727 12.3703 8.75 12.6911V12C8.75 11.5858 8.41421 11.25 8 11.25C7.58579 11.25 7.25 11.5858 7.25 12V12.6911C5.22731 12.3703 3.62971 10.7727 3.30888 8.75H4C4.41421 8.75 4.75 8.41421 4.75 8C4.75 7.58579 4.41421 7.25 4 7.25H3.30888C3.62971 5.22731 5.22731 3.62971 7.25 3.30888Z"
            fill="#303233" />
    </g>
    <defs>
        <clipPath id="clip0_110_702">
            <rect width="16" height="16" fill="white" />
        </clipPath>
    </defs>
</svg>
