<svg width="16" height="16" viewBox="0 0 16 16" fill="none" xmlns="http://www.w3.org/2000/svg">
    <g clip-path="url(#clip0_53_9723)">
        <path fill-rule="evenodd" clip-rule="evenodd"
            d="M6.25 1C6.25 0.585786 5.91421 0.25 5.5 0.25C5.08579 0.25 4.75 0.585786 4.75 1V1.75H2.94444C1.79014 1.75 0.75 2.62735 0.75 3.83333V13.1667C0.75 14.3727 1.79014 15.25 2.94444 15.25H13.0556C14.2099 15.25 15.25 14.3727 15.25 13.1667V3.83333C15.25 2.62735 14.2099 1.75 13.0556 1.75H11.25V1C11.25 0.585786 10.9142 0.25 10.5 0.25C10.0858 0.25 9.75 0.585786 9.75 1V1.75H6.25V1ZM9.75 4V3.25H6.25V4C6.25 4.41421 5.91421 4.75 5.5 4.75C5.08579 4.75 4.75 4.41421 4.75 4V3.25H2.94444C2.50326 3.25 2.25 3.56656 2.25 3.83333V5.75H13.75V3.83333C13.75 3.56656 13.4967 3.25 13.0556 3.25H11.25V4C11.25 4.41421 10.9142 4.75 10.5 4.75C10.0858 4.75 9.75 4.41421 9.75 4ZM13.75 7.25H2.25V13.1667C2.25 13.4334 2.50326 13.75 2.94444 13.75H13.0556C13.4967 13.75 13.75 13.4334 13.75 13.1667V7.25Z"
            fill="#303233" />
    </g>
    <defs>
        <clipPath id="clip0_53_9723">
            <rect width="16" height="16" fill="white" />
        </clipPath>
    </defs>
</svg>
