<svg width="24" height="24" viewBox="0 0 24 24" fill="none" xmlns="http://www.w3.org/2000/svg">
    <path fill-rule="evenodd" clip-rule="evenodd"
        d="M13.3971 1.0827C13.8043 1.25947 14.0462 1.68354 13.9912 2.12404L13.1317 9L19.3266 9C19.5676 8.99995 19.8117 8.99991 20.0112 9.01796C20.1998 9.03504 20.5609 9.08021 20.8742 9.33332C21.2327 9.62308 21.4381 10.0616 21.4312 10.5226C21.4251 10.9253 21.2286 11.2316 21.121 11.3875C21.0072 11.5522 20.8509 11.7397 20.6966 11.9248L11.7671 22.6402C11.4829 22.9812 11.0079 23.0941 10.6007 22.9173C10.1935 22.7405 9.95155 22.3165 10.0066 21.876L10.8661 15L4.67111 15C4.43012 15 4.18603 15.0001 3.9866 14.982C3.79799 14.965 3.43683 14.9198 3.12361 14.6667C2.76504 14.3769 2.55963 13.9384 2.56658 13.4774C2.57265 13.0747 2.76916 12.7684 2.87678 12.6125C2.99059 12.4478 3.1469 12.2603 3.30122 12.0751C3.30886 12.066 3.31649 12.0568 3.32412 12.0477L12.2307 1.35982C12.5149 1.01878 12.9899 0.90593 13.3971 1.0827ZM5.13393 13H11.9989C12.2857 13 12.5587 13.1232 12.7486 13.3382C12.9384 13.5532 13.0267 13.8394 12.9912 14.124L12.4142 18.7395L18.8638 11H11.9989C11.7121 11 11.439 10.8768 11.2492 10.6618C11.0594 10.4468 10.971 10.1606 11.0066 9.87597L11.5835 5.26046L5.13393 13Z"
        fill="#303233" />
</svg>
