<svg width="24" height="24" viewBox="0 0 24 24" fill="none" xmlns="http://www.w3.org/2000/svg">
    <path
        d="M8.7679 1.25H15.2321C16.0449 1.24999 16.7006 1.24999 17.2315 1.29336C17.7781 1.33803 18.2582 1.43239 18.7025 1.65873C19.4081 2.01825 19.9817 2.59193 20.3413 3.29754C20.5676 3.74176 20.662 4.2219 20.7066 4.76853C20.75 5.29944 20.75 5.95505 20.75 6.76788V12.949C19.9331 12.5033 18.9961 12.25 18 12.25C14.8244 12.25 12.25 14.8244 12.25 18C12.25 19.9733 13.244 21.7144 14.7587 22.75H8.76788C7.95505 22.75 7.29944 22.75 6.76853 22.7066C6.2219 22.662 5.74176 22.5676 5.29754 22.3413C4.59193 21.9817 4.01825 21.4081 3.65873 20.7025C3.43239 20.2582 3.33803 19.7781 3.29336 19.2315C3.24999 18.7006 3.24999 18.0449 3.25 17.2321V6.76789C3.24999 5.95505 3.24999 5.29944 3.29336 4.76853C3.33803 4.2219 3.43239 3.74176 3.65873 3.29754C4.01825 2.59193 4.59193 2.01825 5.29754 1.65873C5.74176 1.43239 6.2219 1.33803 6.76853 1.29336C7.29944 1.24999 7.95506 1.24999 8.7679 1.25Z"
        fill="#303233" />
    <path fill-rule="evenodd" clip-rule="evenodd"
        d="M18 13.75C15.6528 13.75 13.75 15.6528 13.75 18C13.75 20.3472 15.6528 22.25 18 22.25C18.9027 22.25 19.7397 21.9686 20.428 21.4886L21.4697 22.5303C21.7626 22.8232 22.2374 22.8232 22.5303 22.5303C22.8232 22.2374 22.8232 21.7626 22.5303 21.4697L21.4886 20.428C21.9686 19.7397 22.25 18.9027 22.25 18C22.25 15.6528 20.3472 13.75 18 13.75ZM15.25 18C15.25 16.4812 16.4812 15.25 18 15.25C19.5188 15.25 20.75 16.4812 20.75 18C20.75 19.5188 19.5188 20.75 18 20.75C16.4812 20.75 15.25 19.5188 15.25 18Z"
        fill="#303233" />
</svg>
