<svg width="16" height="16" viewBox="0 0 16 16" fill="none" xmlns="http://www.w3.org/2000/svg">
    <path fill-rule="evenodd" clip-rule="evenodd"
        d="M9.25228 0.293239C9.55144 0.399469 9.75131 0.682543 9.75131 1V6.25L13.5 6.25C13.7894 6.25 14.0529 6.41644 14.1772 6.67771C14.3016 6.93897 14.2645 7.24846 14.082 7.473L7.58075 15.473C7.38053 15.7194 7.0469 15.813 6.74774 15.7068C6.44858 15.6005 6.24871 15.3175 6.24871 15V9.75H2.50001C2.21066 9.75 1.94713 9.58356 1.82279 9.3223C1.69845 9.06103 1.73549 8.75155 1.91797 8.527L8.41927 0.527001C8.61948 0.280636 8.95312 0.187009 9.25228 0.293239ZM4.07593 8.25H6.99871C7.41292 8.25 7.74871 8.58579 7.74871 9V12.8879L11.9241 7.75L9.00131 7.75C8.8024 7.75 8.61163 7.67098 8.47098 7.53033C8.33033 7.38968 8.25131 7.19891 8.25131 7V3.11211L4.07593 8.25Z"
        fill="#303233" />
</svg>
