<svg width="16" height="16" viewBox="0 0 16 16" fill="none" xmlns="http://www.w3.org/2000/svg">
    <path
        d="M9.00195 1.99996C9.00195 1.81586 9.15119 1.66663 9.33529 1.66663C9.51938 1.66663 9.66962 1.81586 9.66962 1.99996C9.66962 2.18405 9.52038 2.33329 9.33629 2.33329C9.15219 2.33329 9.00195 2.18405 9.00195 1.99996Z"
        fill="#303233" />
    <path
        d="M3.33398 3.99998C3.33398 3.63179 3.63246 3.33331 4.00065 3.33331C4.36884 3.33331 4.66832 3.63179 4.66832 3.99998C4.66832 4.36817 4.36984 4.66665 4.00165 4.66665C3.63346 4.66665 3.33398 4.36817 3.33398 3.99998Z"
        fill="#303233" />
    <path
        d="M6.66797 5.66663C6.11568 5.66663 5.66797 6.11434 5.66797 6.66663C5.66797 7.21891 6.11568 7.66663 6.66797 7.66663C7.22025 7.66663 7.66897 7.21891 7.66897 6.66663C7.66897 6.11434 7.22025 5.66663 6.66797 5.66663Z"
        fill="#303233" />
    <path
        d="M9.33594 5.66663C8.78365 5.66663 8.33594 6.11434 8.33594 6.66663C8.33594 7.21891 8.78365 7.66663 9.33594 7.66663C9.88822 7.66663 10.3369 7.21891 10.3369 6.66663C10.3369 6.11434 9.88822 5.66663 9.33594 5.66663Z"
        fill="#303233" />
    <path
        d="M5.66797 9.33331C5.66797 8.78103 6.11568 8.33331 6.66797 8.33331C7.22025 8.33331 7.66897 8.78103 7.66897 9.33331C7.66897 9.8856 7.22125 10.3333 6.66897 10.3333C6.11668 10.3333 5.66797 9.8856 5.66797 9.33331Z"
        fill="#303233" />
    <path
        d="M4.00065 6C3.63246 6 3.33398 6.29848 3.33398 6.66667C3.33398 7.03486 3.63246 7.33333 4.00065 7.33333C4.36884 7.33333 4.66832 7.03486 4.66832 6.66667C4.66832 6.29848 4.36884 6 4.00065 6Z"
        fill="#303233" />
    <path
        d="M3.33398 9.33335C3.33398 8.96516 3.63246 8.66669 4.00065 8.66669C4.36884 8.66669 4.66832 8.96516 4.66832 9.33335C4.66832 9.70154 4.36984 10 4.00165 10C3.63346 10 3.33398 9.70154 3.33398 9.33335Z"
        fill="#303233" />
    <path
        d="M12.0007 6C11.6325 6 11.334 6.29848 11.334 6.66667C11.334 7.03486 11.6325 7.33333 12.0007 7.33333C12.3688 7.33333 12.6683 7.03486 12.6683 6.66667C12.6683 6.29848 12.3688 6 12.0007 6Z"
        fill="#303233" />
    <path
        d="M12.0007 3.33331C11.6325 3.33331 11.334 3.63179 11.334 3.99998C11.334 4.36817 11.6325 4.66665 12.0007 4.66665C12.3688 4.66665 12.6683 4.36817 12.6683 3.99998C12.6683 3.63179 12.3688 3.33331 12.0007 3.33331Z"
        fill="#303233" />
    <path
        d="M11.334 9.33335C11.334 8.96516 11.6325 8.66669 12.0007 8.66669C12.3688 8.66669 12.6683 8.96516 12.6683 9.33335C12.6683 9.70154 12.3698 10 12.0017 10C11.6335 10 11.334 9.70154 11.334 9.33335Z"
        fill="#303233" />
    <path
        d="M4.00065 11.3333C3.63246 11.3333 3.33398 11.6318 3.33398 12C3.33398 12.3682 3.63246 12.6666 4.00065 12.6666C4.36884 12.6666 4.66832 12.3682 4.66832 12C4.66832 11.6318 4.36884 11.3333 4.00065 11.3333Z"
        fill="#303233" />
    <path
        d="M8.66797 12C8.66797 11.6318 8.96645 11.3333 9.33464 11.3333C9.70283 11.3333 10.0023 11.6318 10.0023 12C10.0023 12.3682 9.70382 12.6666 9.33564 12.6666C8.96745 12.6666 8.66797 12.3682 8.66797 12Z"
        fill="#303233" />
    <path
        d="M6.66667 11.3333C6.29848 11.3333 6 11.6318 6 12C6 12.3682 6.29848 12.6666 6.66667 12.6666C7.03486 12.6666 7.33433 12.3682 7.33433 12C7.33433 11.6318 7.03486 11.3333 6.66667 11.3333Z"
        fill="#303233" />
    <path
        d="M8.66797 3.99998C8.66797 3.63179 8.96645 3.33331 9.33464 3.33331C9.70283 3.33331 10.0023 3.63179 10.0023 3.99998C10.0023 4.36817 9.70382 4.66665 9.33564 4.66665C8.96745 4.66665 8.66797 4.36817 8.66797 3.99998Z"
        fill="#303233" />
    <path
        d="M6.66667 3.33331C6.29848 3.33331 6 3.63179 6 3.99998C6 4.36817 6.29848 4.66665 6.66667 4.66665C7.03486 4.66665 7.33433 4.36817 7.33433 3.99998C7.33433 3.63179 7.03486 3.33331 6.66667 3.33331Z"
        fill="#303233" />
    <path
        d="M6.66732 1.66663C6.48322 1.66663 6.33398 1.81586 6.33398 1.99996C6.33398 2.18405 6.48322 2.33329 6.66732 2.33329C6.85141 2.33329 7.00165 2.18405 7.00165 1.99996C7.00165 1.81586 6.85141 1.66663 6.66732 1.66663Z"
        fill="#303233" />
    <path
        d="M1.66797 6.66665C1.66797 6.48255 1.81721 6.33331 2.0013 6.33331C2.1854 6.33331 2.33564 6.48255 2.33564 6.66665C2.33564 6.85074 2.1864 6.99998 2.0023 6.99998C1.81821 6.99998 1.66797 6.85074 1.66797 6.66665Z"
        fill="#303233" />
    <path
        d="M2.0013 9C1.81721 9 1.66797 9.14924 1.66797 9.33333C1.66797 9.51743 1.81721 9.66667 2.0013 9.66667C2.1854 9.66667 2.33564 9.51743 2.33564 9.33333C2.33564 9.14924 2.1854 9 2.0013 9Z"
        fill="#303233" />
    <path
        d="M13.668 6.66665C13.668 6.48255 13.8172 6.33331 14.0013 6.33331H14.0023C14.1864 6.33331 14.3356 6.48255 14.3356 6.66665C14.3356 6.85074 14.1864 6.99998 14.0023 6.99998H14.0013C13.8172 6.99998 13.668 6.85074 13.668 6.66665Z"
        fill="#303233" />
    <path
        d="M14.0013 9C13.8172 9 13.668 9.14924 13.668 9.33333C13.668 9.51743 13.8172 9.66667 14.0013 9.66667H14.0023C14.1864 9.66667 14.3356 9.51743 14.3356 9.33333C14.3356 9.14924 14.1864 9 14.0023 9H14.0013Z"
        fill="#303233" />
    <path
        d="M9.00195 14C9.00195 13.8159 9.15119 13.6666 9.33529 13.6666C9.51938 13.6666 9.66962 13.8159 9.66962 14C9.66962 14.1841 9.52038 14.3333 9.33629 14.3333C9.15219 14.3333 9.00195 14.1841 9.00195 14Z"
        fill="#303233" />
    <path
        d="M6.66732 13.6666C6.48322 13.6666 6.33398 13.8159 6.33398 14C6.33398 14.1841 6.48322 14.3333 6.66732 14.3333C6.85141 14.3333 7.00165 14.1841 7.00165 14C7.00165 13.8159 6.85141 13.6666 6.66732 13.6666Z"
        fill="#303233" />
    <path
        d="M11.334 12C11.334 11.6318 11.6325 11.3333 12.0007 11.3333C12.3688 11.3333 12.6683 11.6318 12.6683 12C12.6683 12.3682 12.3698 12.6666 12.0017 12.6666C11.6335 12.6666 11.334 12.3682 11.334 12Z"
        fill="#303233" />
    <path
        d="M9.33594 8.33331C8.78365 8.33331 8.33594 8.78103 8.33594 9.33331C8.33594 9.8856 8.78365 10.3333 9.33594 10.3333C9.88822 10.3333 10.3369 9.8856 10.3369 9.33331C10.3369 8.78103 9.88822 8.33331 9.33594 8.33331Z"
        fill="#303233" />
</svg>
