<svg width="24" height="24" viewBox="0 0 24 24" fill="none" xmlns="http://www.w3.org/2000/svg">
    <path
        d="M4 1C2.34315 1 1 2.34315 1 4V18C1 19.6569 2.34315 21 4 21H7C7.55228 21 8 20.5523 8 20C8 19.4477 7.55228 19 7 19H4C3.44772 19 3 18.5523 3 18V6C3 5.44772 3.44772 5 4 5H20C20.5523 5 21 5.44772 21 6V18C21 18.5523 20.5523 19 20 19H17C16.4477 19 16 19.4477 16 20C16 20.5523 16.4477 21 17 21H20C21.6569 21 23 19.6569 23 18V6C23 4.34315 21.6569 3 20 3H13.8284C13.298 3 12.7893 2.78929 12.4142 2.41421L11.5858 1.58579C11.2107 1.21071 10.702 1 10.1716 1H4Z"
        fill="#303233" />
    <path
        d="M12.7071 12.2929C12.6112 12.197 12.5007 12.1247 12.3828 12.0759C12.2657 12.0273 12.1375 12.0004 12.003 12L12 12L11.997 12C11.7254 12.0008 11.4792 12.1099 11.2995 12.2864L11.2922 12.2936L8.29289 15.2929C7.90237 15.6834 7.90237 16.3166 8.29289 16.7071C8.68342 17.0976 9.31658 17.0976 9.70711 16.7071L11 15.4142V23C11 23.5523 11.4477 24 12 24C12.5523 24 13 23.5523 13 23V15.4142L14.2929 16.7071C14.6834 17.0976 15.3166 17.0976 15.7071 16.7071C16.0976 16.3166 16.0976 15.6834 15.7071 15.2929L12.7071 12.2929Z"
        fill="#303233" />
</svg>
