<svg width="24" height="24" viewBox="0 0 24 24" fill="none" xmlns="http://www.w3.org/2000/svg">
    <path fill-rule="evenodd" clip-rule="evenodd"
        d="M2.62807 5.29145C1.52875 3.99151 2.45276 2 4.15521 2H19.8446C21.5471 2 22.4711 3.99151 21.3717 5.29145L14.9999 12.8261V20.191C14.9999 21.3061 13.8264 22.0313 12.8291 21.5326L9.82909 20.0326C9.32091 19.7785 8.99991 19.2591 8.99991 18.691V12.8261L2.62807 5.29145ZM19.8446 4H4.15521L10.6453 11.6745C10.8743 11.9453 10.9999 12.2884 10.9999 12.6431V18.382L12.9999 19.382V12.6431C12.9999 12.2884 13.1256 11.9453 13.3546 11.6745L19.8446 4L20.6082 4.64573L19.8446 4Z"
        fill="#303233" />
</svg>
