<svg width="16" height="16" viewBox="0 0 16 16" fill="none" xmlns="http://www.w3.org/2000/svg">
    <g clip-path="url(#clip0_53_10060)">
        <path
            d="M7.46967 6.03033C7.17678 5.73744 7.17678 5.26256 7.46967 4.96967C7.76256 4.67678 8.23744 4.67678 8.53033 4.96967L11.0303 7.46967C11.1022 7.54158 11.1565 7.62445 11.1931 7.71291C11.2298 7.80134 11.25 7.89831 11.25 8C11.25 8.19194 11.1768 8.38388 11.0303 8.53033L8.53033 11.0303C8.23744 11.3232 7.76256 11.3232 7.46967 11.0303C7.17678 10.7374 7.17678 10.2626 7.46967 9.96967L8.68934 8.75H5.5C5.08579 8.75 4.75 8.41421 4.75 8C4.75 7.58579 5.08579 7.25 5.5 7.25H8.68934L7.46967 6.03033Z"
            fill="#303233" />
        <path fill-rule="evenodd" clip-rule="evenodd"
            d="M8 0.75C3.99594 0.75 0.75 3.99594 0.75 8C0.75 12.0041 3.99594 15.25 8 15.25C12.0041 15.25 15.25 12.0041 15.25 8C15.25 3.99594 12.0041 0.75 8 0.75ZM2.25 8C2.25 4.82436 4.82436 2.25 8 2.25C11.1756 2.25 13.75 4.82436 13.75 8C13.75 11.1756 11.1756 13.75 8 13.75C4.82436 13.75 2.25 11.1756 2.25 8Z"
            fill="#303233" />
    </g>
    <defs>
        <clipPath id="clip0_53_10060">
            <rect width="16" height="16" fill="white" />
        </clipPath>
    </defs>
</svg>
