<svg width="24" height="24" viewBox="0 0 24 24" fill="none" xmlns="http://www.w3.org/2000/svg">
    <path
        d="M12 12C13.5105 12 14.9608 12.2576 16.3094 12.7313C16.3542 12.747 16.3767 12.7549 16.412 12.7705C16.7326 12.9118 16.9788 13.2591 17.0058 13.6084C17.0088 13.647 17.0088 13.6811 17.0088 13.7494C17.0088 13.9821 17.0088 14.0985 17.0185 14.1965C17.1122 15.1457 17.8631 15.8966 18.8123 15.9903C18.9103 16 19.0267 16 19.2594 16H19.5044C19.965 16 20.1952 16 20.3868 15.9622C21.1829 15.8053 21.8053 15.1829 21.9622 14.3868C22 14.1952 22 13.965 22 13.5044V13.3062C22 12.831 22 12.5933 21.9493 12.3209C21.8358 11.7119 21.3933 10.9583 20.9166 10.5624C20.7035 10.3854 20.5589 10.3048 20.2698 10.1435C17.822 8.77806 15.0019 8 12 8C8.99812 8 6.17797 8.77806 3.73021 10.1435C3.4411 10.3048 3.29654 10.3854 3.0834 10.5624C2.60675 10.9583 2.16421 11.7119 2.05074 12.3209C2 12.5933 2 12.831 2 13.3062V13.5044C2 13.965 2 14.1952 2.03776 14.3868C2.19469 15.1829 2.81709 15.8053 3.61321 15.9622C3.80476 16 4.03504 16 4.4956 16H4.74057C4.97332 16 5.0897 16 5.18773 15.9903C6.13689 15.8966 6.8878 15.1457 6.98152 14.1965C6.9912 14.0985 6.9912 13.9821 6.9912 13.7494C6.9912 13.6811 6.9912 13.647 6.99418 13.6084C7.02122 13.2591 7.2674 12.9118 7.58798 12.7705C7.62334 12.7549 7.64576 12.747 7.69059 12.7313C9.03919 12.2576 10.4895 12 12 12Z"
        fill="#303233" />
</svg>
