<svg width="16" height="16" viewBox="0 0 16 16" fill="none" xmlns="http://www.w3.org/2000/svg">
    <path
        d="M5.76942 0.75H10.2306C10.7821 0.749991 11.2411 0.749983 11.6157 0.780592C12.006 0.812481 12.3704 0.881296 12.7143 1.05655C13.2436 1.32619 13.6738 1.75645 13.9435 2.28565C14.1187 2.6296 14.1875 2.99397 14.2194 3.38428C14.25 3.75893 14.25 4.21787 14.25 4.7694V8.58567C13.8375 8.07592 13.2068 7.75 12.5 7.75C11.3376 7.75 10.3811 8.63145 10.2624 9.7624C9.13145 9.88109 8.25 10.8376 8.25 12C8.25 13.1624 9.13145 14.1189 10.2624 14.2376C10.3014 14.6093 10.431 14.9541 10.6286 15.2495C10.5017 15.25 10.369 15.25 10.2306 15.25H5.7694C5.21787 15.25 4.75893 15.25 4.38428 15.2194C3.99397 15.1875 3.6296 15.1187 3.28565 14.9435C2.75645 14.6738 2.32619 14.2436 2.05655 13.7143C1.8813 13.3704 1.81248 13.006 1.78059 12.6157C1.74998 12.2411 1.74999 11.7821 1.75 11.2306V4.76942C1.74999 4.2179 1.74998 3.75892 1.78059 3.38428C1.81248 2.99397 1.8813 2.6296 2.05655 2.28565C2.32619 1.75645 2.75645 1.32619 3.28565 1.05655C3.6296 0.881296 3.99397 0.812481 4.38428 0.780592C4.75892 0.749983 5.2179 0.749991 5.76942 0.75Z"
        fill="#303233" />
    <path
        d="M13.25 10C13.25 9.58579 12.9142 9.25 12.5 9.25C12.0858 9.25 11.75 9.58579 11.75 10V11.25H10.5C10.0858 11.25 9.75 11.5858 9.75 12C9.75 12.4142 10.0858 12.75 10.5 12.75H11.75V14C11.75 14.4142 12.0858 14.75 12.5 14.75C12.9142 14.75 13.25 14.4142 13.25 14V12.75H14.5C14.9142 12.75 15.25 12.4142 15.25 12C15.25 11.5858 14.9142 11.25 14.5 11.25H13.25V10Z"
        fill="#303233" />
</svg>
