<svg width="24" height="24" viewBox="0 0 24 24" fill="none" xmlns="http://www.w3.org/2000/svg">
    <path fill-rule="evenodd" clip-rule="evenodd"
        d="M6 1C4.34315 1 3 2.34315 3 4V20C3 21.6569 4.34315 23 6 23H18C19.6569 23 21 21.6569 21 20V6.32843C21 5.79799 20.7893 5.28929 20.4142 4.91421L17.0858 1.58579C16.7107 1.21071 16.202 1 15.6716 1H6ZM5 20V4.00001C5 3.44772 5.44772 3.00001 6 3.00001H13.5C13.7761 3.00001 14 3.22386 14 3.50001V7.00001C14 7.55229 14.4477 8.00001 15 8.00001H18.5C18.7761 8.00001 19 8.22386 19 8.50001V20C19 20.5523 18.5523 21 18 21H6C5.44772 21 5 20.5523 5 20ZM16 3.60356C16 3.38083 16.2693 3.26929 16.4268 3.42678L18.5732 5.57323C18.7307 5.73072 18.6192 6.00001 18.3964 6.00001H16.25C16.1119 6.00001 16 5.88808 16 5.75001V3.60356Z"
        fill="#303233" />
</svg>
