<svg width="16" height="16" viewBox="0 0 16 16" fill="none" xmlns="http://www.w3.org/2000/svg">
    <path
        d="M1 4.00001C0.999992 2.89544 1.89543 2 3 2H6.79318C7.24589 2 7.68006 2.17986 8.00015 2.5C8.32024 2.82014 8.75441 3 9.20712 3H13.0001C14.1046 3 15.0001 3.89543 15.0001 5V9.5H11.5C10.6716 9.5 10 10.1716 10 11C10 11.8284 10.6716 12.5 11.5 12.5H14.9371C14.715 13.3626 13.932 14 13.0001 14H3.00006C1.89549 14 1.00006 13.1046 1.00006 12L1 4.00001Z"
        fill="#303233" />
    <path
        d="M11 11C11 10.7239 11.2239 10.5 11.5 10.5H15.5C15.7761 10.5 16 10.7239 16 11C16 11.2761 15.7761 11.5 15.5 11.5H11.5C11.2239 11.5 11 11.2761 11 11Z"
        fill="#303233" />
</svg>
