<svg width="16" height="16" viewBox="0 0 16 16" fill="none" xmlns="http://www.w3.org/2000/svg">
    <path fill-rule="evenodd" clip-rule="evenodd"
        d="M5.77853 1H10.2215H10.2215C10.7808 0.999996 11.231 0.999992 11.5954 1.02976C11.9702 1.06039 12.298 1.125 12.6009 1.2793C13.083 1.52497 13.475 1.91698 13.7207 2.39915C13.875 2.70198 13.9396 3.02979 13.9702 3.40464C14 3.76899 14 4.21918 14 4.77851V10C14 9.17157 13.3284 8.5 12.5 8.5C11.6716 8.5 11 9.17157 11 10V10.5H10.5C9.67157 10.5 9 11.1716 9 12C9 12.8284 9.67157 13.5 10.5 13.5H11V14C11 14.3768 11.1389 14.7212 11.3684 14.9847C11.0483 15 10.67 15 10.2215 15H5.77851C5.21918 15 4.76899 15 4.40464 14.9702C4.02979 14.9396 3.70198 14.875 3.39915 14.7207C2.91698 14.475 2.52497 14.083 2.2793 13.6009C2.125 13.298 2.06039 12.9702 2.02976 12.5954C1.99999 12.231 2 11.7808 2 11.2215V4.77853C2 4.21919 1.99999 3.769 2.02976 3.40464C2.06039 3.02979 2.125 2.70198 2.2793 2.39915C2.52497 1.91698 2.91698 1.52497 3.39915 1.2793C3.70198 1.125 4.02979 1.06039 4.40464 1.02976C4.769 0.999992 5.21918 0.999996 5.77852 1H5.77852H5.77853ZM13 10C13 9.72386 12.7761 9.5 12.5 9.5C12.2239 9.5 12 9.72386 12 10V11.5H10.5C10.2239 11.5 10 11.7239 10 12C10 12.2761 10.2239 12.5 10.5 12.5H12V14C12 14.2761 12.2239 14.5 12.5 14.5C12.7761 14.5 13 14.2761 13 14V12.5H14.5C14.7761 12.5 15 12.2761 15 12C15 11.7239 14.7761 11.5 14.5 11.5H13V10Z"
        fill="#303233" />
</svg>
