<svg width="16" height="16" viewBox="0 0 16 16" fill="none" xmlns="http://www.w3.org/2000/svg">
    <g clip-path="url(#clip0_53_2178)">
        <path
            d="M10.6967 5.303C10.9896 5.59589 10.9896 6.07077 10.6967 6.36366L9.06034 8L10.6967 9.63633C10.9896 9.92922 10.9896 10.4041 10.6967 10.697C10.4038 10.9899 9.9289 10.9899 9.63601 10.697L7.99967 9.06066L6.36334 10.697C6.07044 10.9899 5.59557 10.9899 5.30268 10.697C5.00978 10.4041 5.00978 9.92922 5.30268 9.63633L6.93901 8L5.30268 6.36366C5.00978 6.07077 5.00978 5.59589 5.30268 5.303C5.59557 5.01011 6.07044 5.01011 6.36334 5.303L7.99967 6.93933L9.63601 5.303C9.9289 5.01011 10.4038 5.01011 10.6967 5.303Z"
            fill="#303233" />
        <path fill-rule="evenodd" clip-rule="evenodd"
            d="M2.94444 0.75C1.73249 0.75 0.75 1.73249 0.75 2.94444V13.0556C0.75 14.2675 1.73249 15.25 2.94444 15.25H13.0556C14.2675 15.25 15.25 14.2675 15.25 13.0556V2.94444C15.25 1.73249 14.2675 0.75 13.0556 0.75H2.94444ZM2.25 2.94444C2.25 2.56091 2.56091 2.25 2.94444 2.25H13.0556C13.4391 2.25 13.75 2.56091 13.75 2.94444V13.0556C13.75 13.4391 13.4391 13.75 13.0556 13.75H2.94444C2.56091 13.75 2.25 13.4391 2.25 13.0556V2.94444Z"
            fill="#303233" />
    </g>
    <defs>
        <clipPath id="clip0_53_2178">
            <rect width="16" height="16" fill="white" />
        </clipPath>
    </defs>
</svg>
