<svg width="24" height="24" viewBox="0 0 24 24" fill="none" xmlns="http://www.w3.org/2000/svg">
    <path
        d="M11 7C11.5523 7 12 7.44772 12 8V10H14C14.5523 10 15 10.4477 15 11C15 11.5523 14.5523 12 14 12H12V14C12 14.5523 11.5523 15 11 15C10.4477 15 10 14.5523 10 14V12H8C7.44772 12 7 11.5523 7 11C7 10.4477 7.44772 10 8 10H10V8C10 7.44772 10.4477 7 11 7Z"
        fill="#303233" />
    <path fill-rule="evenodd" clip-rule="evenodd"
        d="M16.6179 18.0317C15.0782 19.2635 13.1251 20 11 20C6.02944 20 2 15.9706 2 11C2 6.02944 6.02944 2 11 2C15.9706 2 20 6.02944 20 11C20 13.1249 19.2636 15.0778 18.0321 16.6175L21.7075 20.2929C22.098 20.6834 22.098 21.3166 21.7075 21.7071C21.317 22.0976 20.6838 22.0976 20.2933 21.7071L16.6179 18.0317ZM4 11C4 7.13401 7.13401 4 11 4C14.866 4 18 7.13401 18 11C18 12.8865 17.2537 14.5988 16.0403 15.8576C16.0066 15.8836 15.9742 15.912 15.9433 15.9429C15.9124 15.9738 15.8839 16.0062 15.8579 16.0399C14.5991 17.2536 12.8867 18 11 18C7.13401 18 4 14.866 4 11Z"
        fill="#303233" />
</svg>
