<svg width="16" height="16" viewBox="0 0 16 16" fill="none" xmlns="http://www.w3.org/2000/svg">
    <path fill-rule="evenodd" clip-rule="evenodd"
        d="M8 1C4.13401 1 1 4.13401 1 8C1 11.866 4.13401 15 8 15C11.866 15 15 11.866 15 8C15 4.13401 11.866 1 8 1ZM2 8C2 4.68629 4.68629 2 8 2C8.24395 2 8.48449 2.01456 8.72081 2.04285L5.40607 3.70022C4.89644 3.95504 4.57451 4.47593 4.57451 5.04572C4.57451 5.35074 4.66529 5.63455 4.82131 5.87162C4.47306 6.1463 4.24951 6.57206 4.24951 7.05002V9.22926C4.24951 9.87491 4.66266 10.4481 5.27517 10.6523L6.26772 10.9831L6.81908 13.6694C6.83519 13.7478 6.85719 13.8237 6.88453 13.8965C4.10383 13.3737 2 10.9325 2 8ZM10.5198 13.4468C12.5747 12.4946 14 10.4138 14 8C14 7.50479 13.94 7.0236 13.8269 6.56329L13.6441 6.92896C13.3553 7.50644 12.7294 7.83437 12.0903 7.74306L12.0137 7.73213L12.0811 7.79949C12.5284 8.24676 12.647 8.92653 12.3777 9.49885L10.5198 13.4468ZM13.35 5.28101C12.6891 3.98327 11.57 2.958 10.2057 2.41843L5.85328 4.59465C5.68243 4.68008 5.57451 4.8547 5.57451 5.04572C5.57451 5.32424 5.8003 5.55002 6.07882 5.55002H8.97451C9.25065 5.55002 9.47451 5.77388 9.47451 6.05002C9.47451 6.32616 9.25065 6.55002 8.97451 6.55002H5.74951C5.47337 6.55002 5.24951 6.77388 5.24951 7.05002V9.22926C5.24951 9.44448 5.38723 9.63555 5.5914 9.7036L6.85763 10.1257C7.02699 10.1821 7.15341 10.3246 7.1893 10.4995L7.79866 13.4683C7.8522 13.7292 8.10081 13.9023 8.36406 13.862L9.02218 13.7613C9.1868 13.7362 9.32808 13.6307 9.39899 13.48L11.4728 9.07305C11.5626 8.88228 11.5231 8.65569 11.374 8.5066L10.246 7.37857C10.0938 7.22639 10.0561 6.99391 10.1523 6.80141C10.2485 6.60892 10.4572 6.49961 10.6702 6.53005L12.2317 6.75312C12.4448 6.78355 12.6534 6.67424 12.7496 6.48175L13.35 5.28101Z"
        fill="#303233" />
</svg>
