<svg width="16" height="16" viewBox="0 0 16 16" fill="none" xmlns="http://www.w3.org/2000/svg">
    <path
        d="M11.5973 1.49027C11.8681 1.43611 12.0437 1.1727 11.9895 0.901918C11.9354 0.631138 11.672 0.455529 11.4012 0.509684L11.3962 0.510684C11.1254 0.564838 10.9498 0.82825 11.0039 1.09903C11.0581 1.36981 11.3215 1.54542 11.5923 1.49127L11.5973 1.49027Z"
        fill="#303233" />
    <path
        d="M15.3536 0.646447C15.1583 0.451184 14.8417 0.451184 14.6464 0.646447L12.1464 3.14645C11.9512 3.34171 11.9512 3.65829 12.1464 3.85355C12.3417 4.04882 12.6583 4.04882 12.8536 3.85355L15.3536 1.35355C15.5488 1.15829 15.5488 0.841709 15.3536 0.646447Z"
        fill="#303233" />
    <path
        d="M15.3536 4.14645C15.5488 4.34171 15.5488 4.65829 15.3536 4.85355L12.8536 7.35355C12.6583 7.54882 12.3417 7.54882 12.1464 7.35355C11.9512 7.15829 11.9512 6.84171 12.1464 6.64645L14.6464 4.14645C14.8417 3.95118 15.1583 3.95118 15.3536 4.14645Z"
        fill="#303233" />
    <path
        d="M4.35355 8.85355C4.54882 8.65829 4.54882 8.34171 4.35355 8.14645C4.15829 7.95118 3.84171 7.95118 3.64645 8.14645L0.646447 11.1464C0.451184 11.3417 0.451184 11.6583 0.646447 11.8536C0.841709 12.0488 1.15829 12.0488 1.35355 11.8536L4.35355 8.85355Z"
        fill="#303233" />
    <path
        d="M15.4954 11.4019C15.5495 11.6727 15.3739 11.9361 15.1032 11.9903L15.0982 11.9913C14.8274 12.0454 14.564 11.8698 14.5098 11.599C14.4557 11.3282 14.6313 11.0648 14.902 11.0107L14.907 11.0097C15.1778 10.9555 15.4412 11.1311 15.4954 11.4019Z"
        fill="#303233" />
    <path
        d="M15.3536 8.35355C15.5488 8.15829 15.5488 7.84171 15.3536 7.64645C15.1583 7.45118 14.8417 7.45118 14.6464 7.64645L13.1464 9.14645C12.9512 9.34171 12.9512 9.65829 13.1464 9.85355C13.3417 10.0488 13.6583 10.0488 13.8536 9.85355L15.3536 8.35355Z"
        fill="#303233" />
    <path
        d="M3.85355 5.14645C4.04882 5.34171 4.04882 5.65829 3.85355 5.85355L1.35355 8.35355C1.15829 8.54882 0.841709 8.54882 0.646447 8.35355C0.451184 8.15829 0.451184 7.84171 0.646447 7.64645L3.14645 5.14645C3.34171 4.95118 3.65829 4.95118 3.85355 5.14645Z"
        fill="#303233" />
    <path
        d="M4.85355 1.35355C5.04882 1.15829 5.04882 0.841709 4.85355 0.646447C4.65829 0.451184 4.34171 0.451184 4.14645 0.646447L0.646447 4.14645C0.451184 4.34171 0.451184 4.65829 0.646447 4.85355C0.841709 5.04882 1.15829 5.04882 1.35355 4.85355L4.85355 1.35355Z"
        fill="#303233" />
    <path
        d="M1 0.5C1.27614 0.5 1.5 0.723858 1.5 1C1.5 1.27614 1.27614 1.501 1 1.501C0.723858 1.501 0.5 1.27714 0.5 1.001C0.5 0.724858 0.723858 0.5 1 0.5Z"
        fill="#303233" />
    <path fill-rule="evenodd" clip-rule="evenodd"
        d="M4.75 5C4.75 3.20507 6.20507 1.75 8 1.75C9.79493 1.75 11.25 3.20507 11.25 5C11.25 6.79493 9.79493 8.25 8 8.25C6.20507 8.25 4.75 6.79493 4.75 5ZM8 3.25C7.0335 3.25 6.25 4.0335 6.25 5C6.25 5.9665 7.0335 6.75 8 6.75C8.9665 6.75 9.75 5.9665 9.75 5C9.75 4.0335 8.9665 3.25 8 3.25Z"
        fill="#303233" />
    <path
        d="M7.99974 10.25C5.9445 10.25 4.22848 11.7096 3.83477 13.6492C3.75237 14.0551 3.35649 14.3174 2.95056 14.235C2.54462 14.1526 2.28235 13.7567 2.36475 13.3508C2.89757 10.7259 5.21706 8.75 7.99974 8.75C10.7824 8.75 13.1019 10.7259 13.6347 13.3508C13.7171 13.7567 13.4549 14.1526 13.0489 14.235C12.643 14.3174 12.2471 14.0551 12.1647 13.6492C11.771 11.7096 10.055 10.25 7.99974 10.25Z"
        fill="#303233" />
</svg>
