<svg width="16" height="16" viewBox="0 0 16 16" fill="none" xmlns="http://www.w3.org/2000/svg">
    <g clip-path="url(#clip0_53_5510)">
        <path fill-rule="evenodd" clip-rule="evenodd"
            d="M2.94444 0.75C1.73249 0.75 0.75 1.73249 0.75 2.94444V13.0556C0.75 14.2675 1.73249 15.25 2.94444 15.25H13.0556C14.2675 15.25 15.25 14.2675 15.25 13.0556V2.94444C15.25 1.73249 14.2675 0.75 13.0556 0.75H2.94444ZM5 7.24998C4.58579 7.24998 4.25 7.58577 4.25 7.99998C4.25 8.4142 4.58579 8.74998 5 8.74998H11C11.4142 8.74998 11.75 8.4142 11.75 7.99998C11.75 7.58577 11.4142 7.24998 11 7.24998H5Z"
            fill="#303233" />
    </g>
    <defs>
        <clipPath id="clip0_53_5510">
            <rect width="16" height="16" fill="white" />
        </clipPath>
    </defs>
</svg>
