<svg width="16" height="16" viewBox="0 0 16 16" fill="none" xmlns="http://www.w3.org/2000/svg">
    <g clip-path="url(#clip0_53_10004)">
        <path fill-rule="evenodd" clip-rule="evenodd"
            d="M15.25 8C15.25 12.0041 12.0041 15.25 8 15.25C3.99594 15.25 0.75 12.0041 0.75 8C0.75 3.99594 3.99594 0.75 8 0.75C12.0041 0.75 15.25 3.99594 15.25 8ZM7.46967 4.96967C7.54158 4.89776 7.62445 4.84351 7.71291 4.80691C7.79996 4.77081 7.89527 4.75064 7.99523 4.75001L8 4.75L8.00476 4.75001C8.19511 4.75122 8.38509 4.82443 8.53033 4.96967L11.0303 7.46967C11.3232 7.76256 11.3232 8.23744 11.0303 8.53033C10.7374 8.82322 10.2626 8.82322 9.96967 8.53033L8.75 7.31066V10.5C8.75 10.9142 8.41421 11.25 8 11.25C7.58579 11.25 7.25 10.9142 7.25 10.5V7.31066L6.03033 8.53033C5.73744 8.82322 5.26256 8.82322 4.96967 8.53033C4.67678 8.23744 4.67678 7.76256 4.96967 7.46967L7.46967 4.96967Z"
            fill="#303233" />
    </g>
    <defs>
        <clipPath id="clip0_53_10004">
            <rect width="16" height="16" fill="white" />
        </clipPath>
    </defs>
</svg>
