<svg width="24" height="24" viewBox="0 0 24 24" fill="none" xmlns="http://www.w3.org/2000/svg">
    <path
        d="M18 1.87868C17.1722 1.87868 16.3783 2.20753 15.7929 2.79289L3.29291 15.2929C3.16476 15.4211 3.07384 15.5816 3.02988 15.7575L2.02988 19.7575C1.94468 20.0982 2.04453 20.4587 2.29291 20.7071C2.54129 20.9555 2.90178 21.0553 3.24256 20.9701L7.24256 19.9701C7.41839 19.9262 7.57897 19.8353 7.70713 19.7071L20.2071 7.2071C20.497 6.91726 20.7269 6.57317 20.8837 6.19448C21.0406 5.81578 21.1213 5.4099 21.1213 5C21.1213 4.5901 21.0406 4.18422 20.8837 3.80552C20.7269 3.42682 20.497 3.08273 20.2071 2.79289C19.9173 2.50305 19.5732 2.27313 19.1945 2.11627C18.8158 1.95941 18.4099 1.87868 18 1.87868Z"
        fill="#303233" />
    <path
        d="M12 19C11.4477 19 11 19.4477 11 20C11 20.5523 11.4477 21 12 21H21C21.5523 21 22 20.5523 22 20C22 19.4477 21.5523 19 21 19H12Z"
        fill="#303233" />
</svg>
