<svg width="16" height="16" viewBox="0 0 16 16" fill="none" xmlns="http://www.w3.org/2000/svg">
    <path fill-rule="evenodd" clip-rule="evenodd"
        d="M6.5 4.25C7.74264 4.25 8.75 5.25736 8.75 6.5C8.75 7.74264 7.74264 8.75 6.5 8.75C5.25736 8.75 4.25 7.74264 4.25 6.5C4.25 5.25736 5.25736 4.25 6.5 4.25Z"
        fill="#303233" />
    <path fill-rule="evenodd" clip-rule="evenodd"
        d="M10.2305 0.750001C10.7818 0.74999 11.2407 0.749706 11.6152 0.780274C12.0054 0.812153 12.37 0.881521 12.7139 1.05664C13.2431 1.32629 13.6737 1.75693 13.9434 2.28613C14.1185 2.62998 14.1878 2.99459 14.2197 3.38477C14.2503 3.75932 14.25 4.21825 14.25 4.76953V11.2305C14.25 11.7818 14.2503 12.2407 14.2197 12.6152C14.1878 13.0054 14.1185 13.37 13.9434 13.7139C13.6737 14.2431 13.2431 14.6737 12.7139 14.9434C12.37 15.1185 12.0054 15.1878 11.6152 15.2197C11.2407 15.2503 10.7818 15.25 10.2305 15.25H5.76953C5.21825 15.25 4.75932 15.2503 4.38477 15.2197C3.99459 15.1878 3.62998 15.1185 3.28613 14.9434C2.75693 14.6737 2.32629 14.2431 2.05664 13.7139C1.88152 13.37 1.81215 13.0054 1.78027 12.6152C1.74971 12.2407 1.74999 11.7818 1.75 11.2305V4.76953C1.74999 4.21824 1.74971 3.75932 1.78027 3.38477C1.81215 2.99459 1.88152 2.62998 2.05664 2.28613C2.32629 1.75693 2.75693 1.32629 3.28613 1.05664C3.62998 0.88152 3.99459 0.812153 4.38477 0.780274C4.75932 0.749706 5.21824 0.74999 5.76953 0.750001H10.2305ZM5.79981 2.25C5.21026 2.25 4.81305 2.2504 4.50684 2.27539C4.20962 2.29968 4.06404 2.3431 3.9668 2.39258C3.71984 2.51841 3.51841 2.71984 3.39258 2.9668C3.3431 3.06404 3.29968 3.20962 3.27539 3.50684C3.2504 3.81305 3.25 4.21025 3.25 4.79981V11.2002C3.25 11.7897 3.2504 12.187 3.27539 12.4932C3.29968 12.7904 3.3431 12.936 3.39258 13.0332C3.44872 13.1434 3.52107 13.2438 3.60449 13.333L8.83789 8.10059C9.02714 7.91134 9.20111 7.73719 9.35742 7.60449C9.52034 7.46622 9.7134 7.32985 9.95899 7.25C10.3105 7.1358 10.6895 7.1358 11.041 7.25C11.2866 7.32985 11.4797 7.46622 11.6426 7.60449C11.7989 7.73719 11.9729 7.91134 12.1621 8.10059L12.75 8.68848V4.79981C12.75 4.21025 12.7496 3.81305 12.7246 3.50684C12.7003 3.20961 12.6569 3.06404 12.6074 2.9668C12.4816 2.71984 12.2802 2.51841 12.0332 2.39258C11.936 2.3431 11.7904 2.29968 11.4932 2.27539C11.187 2.2504 10.7897 2.25 10.2002 2.25H5.79981Z"
        fill="#303233" />
</svg>
