<svg width="24" height="24" viewBox="0 0 24 24" fill="none" xmlns="http://www.w3.org/2000/svg">
    <path fill-rule="evenodd" clip-rule="evenodd"
        d="M5.16146 6H18.8385C19.3657 5.99998 19.8205 5.99997 20.195 6.03057C20.5904 6.06287 20.9836 6.13419 21.362 6.32698C21.9265 6.6146 22.3854 7.07354 22.673 7.63803C22.8658 8.01641 22.9371 8.40963 22.9694 8.80497C23 9.17954 23 9.63429 23 10.1614V13.8386C23 14.3657 23 14.8205 22.9694 15.195C22.9371 15.5904 22.8658 15.9836 22.673 16.362C22.3854 16.9265 21.9265 17.3854 21.362 17.673C20.9836 17.8658 20.5904 17.9371 20.195 17.9694C19.8205 18 19.3657 18 18.8385 18H5.16148C4.63432 18 4.17955 18 3.80497 17.9694C3.40963 17.9371 3.01641 17.8658 2.63803 17.673C2.07354 17.3854 1.6146 16.9265 1.32698 16.362C1.13419 15.9836 1.06287 15.5904 1.03057 15.195C0.999967 14.8205 0.999983 14.3657 1 13.8385V10.1615C0.999983 9.63431 0.999967 9.17954 1.03057 8.80497C1.06287 8.40963 1.13419 8.01641 1.32698 7.63803C1.6146 7.07354 2.07354 6.6146 2.63803 6.32698C3.01641 6.13419 3.40963 6.06287 3.80497 6.03057C4.17955 5.99997 4.63431 5.99998 5.16146 6ZM3.96784 8.02393C3.69617 8.04612 3.59546 8.0838 3.54601 8.10899C3.35785 8.20487 3.20487 8.35785 3.109 8.54601C3.0838 8.59545 3.04612 8.69617 3.02393 8.96784C3.00078 9.25117 3 9.62345 3 10.2V13.8C3 14.3766 3.00078 14.7488 3.02393 15.0322C3.04612 15.3038 3.0838 15.4045 3.109 15.454C3.20487 15.6422 3.35785 15.7951 3.54601 15.891C3.59546 15.9162 3.69617 15.9539 3.96784 15.9761C4.25118 15.9992 4.62345 16 5.2 16H18.8C19.3766 16 19.7488 15.9992 20.0322 15.9761C20.3038 15.9539 20.4045 15.9162 20.454 15.891C20.6422 15.7951 20.7951 15.6422 20.891 15.454C20.9162 15.4045 20.9539 15.3038 20.9761 15.0322C20.9992 14.7488 21 14.3766 21 13.8V10.2C21 9.62345 20.9992 9.25117 20.9761 8.96784C20.9539 8.69617 20.9162 8.59545 20.891 8.54601C20.7951 8.35785 20.6422 8.20487 20.454 8.10899C20.4045 8.0838 20.3038 8.04612 20.0322 8.02393C19.7488 8.00078 19.3766 8 18.8 8H5.2C4.62345 8 4.25117 8.00078 3.96784 8.02393ZM5.75 12C5.75 11.3096 6.30965 10.75 7 10.75C7.69036 10.75 8.25 11.3096 8.25 12C8.25 12.6904 7.69036 13.25 7 13.25C6.30965 13.25 5.75 12.6904 5.75 12ZM10.75 12C10.75 11.3096 11.3096 10.75 12 10.75C12.6904 10.75 13.25 11.3096 13.25 12C13.25 12.6904 12.6904 13.25 12 13.25C11.3096 13.25 10.75 12.6904 10.75 12ZM15.75 12C15.75 11.3096 16.3096 10.75 17 10.75C17.6904 10.75 18.25 11.3096 18.25 12C18.25 12.6904 17.6904 13.25 17 13.25C16.3096 13.25 15.75 12.6904 15.75 12Z"
        fill="#303233" />
</svg>
