<svg width="24" height="24" viewBox="0 0 24 24" fill="none" xmlns="http://www.w3.org/2000/svg">
    <path fill-rule="evenodd" clip-rule="evenodd"
        d="M15.2321 1.25H8.7679C7.95506 1.24999 7.29944 1.24999 6.76853 1.29336C6.2219 1.33803 5.74175 1.43239 5.29754 1.65873C4.59193 2.01825 4.01825 2.59193 3.65873 3.29754C3.43239 3.74175 3.33803 4.2219 3.29336 4.76853C3.24999 5.29944 3.24999 5.95505 3.25 6.76789V17.2321C3.24999 18.0449 3.24999 18.7006 3.29336 19.2315C3.33803 19.7781 3.43239 20.2582 3.65873 20.7025C4.01825 21.4081 4.59193 21.9817 5.29754 22.3413C5.74175 22.5676 6.2219 22.662 6.76853 22.7066C7.29944 22.75 7.95505 22.75 8.76788 22.75H15.2321C15.416 22.75 15.5918 22.75 15.76 22.7495C13.9809 21.909 12.75 20.0982 12.75 18V14C12.75 12.7574 13.7574 11.75 15 11.75C15.2812 11.75 15.5503 11.8016 15.7984 11.8958C16.0874 10.112 17.6346 8.75 19.5 8.75C19.9383 8.75 20.359 8.82519 20.75 8.96338V6.76788C20.75 5.95505 20.75 5.29944 20.7066 4.76853C20.662 4.2219 20.5676 3.74175 20.3413 3.29754C19.9817 2.59193 19.4081 2.01825 18.7025 1.65873C18.2582 1.43239 17.7781 1.33803 17.2315 1.29336C16.7006 1.24999 16.0449 1.24999 15.2321 1.25Z"
        fill="#303233" />
    <path fill-rule="evenodd" clip-rule="evenodd"
        d="M19.5 11.75C19.0858 11.75 18.75 12.0858 18.75 12.5V18C18.75 18.4142 18.4142 18.75 18 18.75C17.5858 18.75 17.25 18.4142 17.25 18V12.5C17.25 11.2574 18.2574 10.25 19.5 10.25C20.7426 10.25 21.75 11.2574 21.75 12.5V18C21.75 20.0711 20.0711 21.75 18 21.75C15.9289 21.75 14.25 20.0711 14.25 18V14C14.25 13.5858 14.5858 13.25 15 13.25C15.4142 13.25 15.75 13.5858 15.75 14V18C15.75 19.2426 16.7574 20.25 18 20.25C19.2426 20.25 20.25 19.2426 20.25 18V12.5C20.25 12.0858 19.9142 11.75 19.5 11.75Z"
        fill="#303233" />
</svg>
