<svg width="24" height="24" viewBox="0 0 24 24" fill="none" xmlns="http://www.w3.org/2000/svg">
    <path fill-rule="evenodd" clip-rule="evenodd"
        d="M13 2C13 1.44772 12.5523 1 12 1C11.4477 1 11 1.44772 11 2V3H10C7.23858 3 5 5.23858 5 8C5 10.7614 7.23858 13 10 13H11V19H6C5.44772 19 5 19.4477 5 20C5 20.5523 5.44772 21 6 21H11V22C11 22.5523 11.4477 23 12 23C12.5523 23 13 22.5523 13 22V21H15C17.7614 21 20 18.7614 20 16C20 13.2386 17.7614 11 15 11H13V5H18C18.5523 5 19 4.55228 19 4C19 3.44772 18.5523 3 18 3H13V2ZM11 5H10C8.34315 5 7 6.34315 7 8C7 9.65685 8.34315 11 10 11H11V5ZM13 13V19H15C16.6569 19 18 17.6569 18 16C18 14.3431 16.6569 13 15 13H13Z"
        fill="#303233" />
</svg>
