<svg width="16" height="16" viewBox="0 0 16 16" fill="none" xmlns="http://www.w3.org/2000/svg">
    <g clip-path="url(#clip0_7445_9)">
        <path fill-rule="evenodd" clip-rule="evenodd"
            d="M6.66667 1.5C6.57462 1.5 6.5 1.57462 6.5 1.66667V4.33333C6.5 4.42538 6.57462 4.5 6.66667 4.5H9.33333C9.42538 4.5 9.5 4.42538 9.5 4.33333V1.66667C9.5 1.57462 9.42538 1.5 9.33333 1.5H6.66667ZM8.5 5.5H9.33333C9.97767 5.5 10.5 4.97766 10.5 4.33333V1.66667C10.5 1.02234 9.97767 0.5 9.33333 0.5H6.66667C6.02233 0.5 5.5 1.02233 5.5 1.66667V4.33333C5.5 4.97767 6.02233 5.5 6.66667 5.5H7.5V7.5H1C0.723858 7.5 0.5 7.72386 0.5 8C0.5 8.27614 0.723858 8.5 1 8.5H3.5V10.5H2.66667C2.02233 10.5 1.5 11.0223 1.5 11.6667V14.3333C1.5 14.9777 2.02234 15.5 2.66667 15.5H5.33333C5.97767 15.5 6.5 14.9777 6.5 14.3333V11.6667C6.5 11.0223 5.97767 10.5 5.33333 10.5H4.5V8.5H11.5V10.5H10.6667C10.0223 10.5 9.5 11.0223 9.5 11.6667V14.3333C9.5 14.9777 10.0223 15.5 10.6667 15.5H13.3333C13.9777 15.5 14.5 14.9777 14.5 14.3333V11.6667C14.5 11.0223 13.9777 10.5 13.3333 10.5H12.5V8.5H15C15.2761 8.5 15.5 8.27614 15.5 8C15.5 7.72386 15.2761 7.5 15 7.5H8.5V5.5ZM10.6667 11.5C10.5746 11.5 10.5 11.5746 10.5 11.6667V14.3333C10.5 14.4254 10.5746 14.5 10.6667 14.5H13.3333C13.4254 14.5 13.5 14.4254 13.5 14.3333V11.6667C13.5 11.5746 13.4254 11.5 13.3333 11.5H10.6667ZM2.66667 11.5C2.57462 11.5 2.5 11.5746 2.5 11.6667V14.3333C2.5 14.4254 2.57462 14.5 2.66667 14.5H5.33333C5.42538 14.5 5.5 14.4254 5.5 14.3333V11.6667C5.5 11.5746 5.42538 11.5 5.33333 11.5H2.66667Z"
            fill="#303233" />
    </g>
    <defs>
        <clipPath id="clip0_7445_9">
            <rect width="16" height="16" fill="white" />
        </clipPath>
    </defs>
</svg>
