<svg width="24" height="24" viewBox="0 0 24 24" fill="none" xmlns="http://www.w3.org/2000/svg">
    <path fill-rule="evenodd" clip-rule="evenodd"
        d="M5.16146 0.999999H12.8385C13.3657 0.999981 13.8205 0.999966 14.195 1.03057C14.5904 1.06287 14.9836 1.13419 15.362 1.32698C15.9265 1.6146 16.3854 2.07354 16.673 2.63803C16.8658 3.01641 16.9371 3.40963 16.9694 3.80497C17 4.17955 17 4.63432 17 5.16148V7L18.8385 7C19.3657 6.99998 19.8205 6.99997 20.195 7.03057C20.5904 7.06287 20.9836 7.13419 21.362 7.32698C21.9265 7.6146 22.3854 8.07354 22.673 8.63803C22.8658 9.01641 22.9371 9.40963 22.9694 9.80497C23 10.1795 23 10.6343 23 11.1614V18.8386C23 19.3657 23 19.8205 22.9694 20.195C22.9371 20.5904 22.8658 20.9836 22.673 21.362C22.3854 21.9265 21.9265 22.3854 21.362 22.673C20.9836 22.8658 20.5904 22.9371 20.195 22.9694C19.8205 23 19.3657 23 18.8386 23H11.1614C10.6343 23 10.1795 23 9.80497 22.9694C9.40963 22.9371 9.01641 22.8658 8.63803 22.673C8.07355 22.3854 7.6146 21.9265 7.32698 21.362C7.13419 20.9836 7.06287 20.5904 7.03057 20.195C6.99997 19.8205 6.99998 19.3657 7 18.8385L7 17H5.16148C4.63432 17 4.17955 17 3.80497 16.9694C3.40963 16.9371 3.01641 16.8658 2.63803 16.673C2.07354 16.3854 1.6146 15.9265 1.32698 15.362C1.13419 14.9836 1.06287 14.5904 1.03057 14.195C0.999967 13.8205 0.999983 13.3657 1 12.8385V5.16146C0.999983 4.63431 0.999967 4.17954 1.03057 3.80497C1.06287 3.40963 1.13419 3.01641 1.32698 2.63803C1.6146 2.07354 2.07354 1.6146 2.63803 1.32698C3.01641 1.13419 3.40963 1.06287 3.80497 1.03057C4.17955 0.999966 4.63431 0.999981 5.16146 0.999999ZM9 18.8C9 19.3766 9.00078 19.7488 9.02393 20.0322C9.04612 20.3038 9.0838 20.4045 9.109 20.454C9.20487 20.6422 9.35785 20.7951 9.54601 20.891C9.59546 20.9162 9.69617 20.9539 9.96784 20.9761C10.2512 20.9992 10.6234 21 11.2 21H18.8C19.3766 21 19.7488 20.9992 20.0322 20.9761C20.3038 20.9539 20.4045 20.9162 20.454 20.891C20.6422 20.7951 20.7951 20.6422 20.891 20.454C20.9162 20.4045 20.9539 20.3038 20.9761 20.0322C20.9992 19.7488 21 19.3766 21 18.8V11.2C21 10.6234 20.9992 10.2512 20.9761 9.96784C20.9539 9.69617 20.9162 9.59545 20.891 9.54601C20.7951 9.35785 20.6422 9.20487 20.454 9.10899C20.4046 9.0838 20.3038 9.04612 20.0322 9.02393C19.7488 9.00078 19.3766 9 18.8 9H11.2C10.6234 9 10.2512 9.00078 9.96784 9.02393C9.69617 9.04612 9.59546 9.0838 9.54601 9.10899C9.35785 9.20487 9.20487 9.35785 9.109 9.54601C9.0838 9.59545 9.04612 9.69617 9.02393 9.96784C9.00078 10.2512 9 10.6234 9 11.2V18.8ZM15 7L11.1615 7C10.6343 6.99998 10.1795 6.99997 9.80497 7.03057C9.40963 7.06287 9.01641 7.13419 8.63803 7.32698C8.07354 7.6146 7.6146 8.07354 7.32698 8.63803C7.13419 9.01641 7.06287 9.40963 7.03057 9.80497C6.99997 10.1795 6.99998 10.6343 7 11.1615L7 15H5.2C4.62345 15 4.25118 14.9992 3.96784 14.9761C3.69617 14.9539 3.59546 14.9162 3.54601 14.891C3.35785 14.7951 3.20487 14.6422 3.109 14.454C3.0838 14.4045 3.04612 14.3038 3.02393 14.0322C3.00078 13.7488 3 13.3766 3 12.8V5.2C3 4.62345 3.00078 4.25117 3.02393 3.96784C3.04612 3.69617 3.0838 3.59545 3.109 3.54601C3.20487 3.35785 3.35785 3.20487 3.54601 3.10899C3.59546 3.0838 3.69617 3.04612 3.96784 3.02393C4.25117 3.00078 4.62345 3 5.2 3H12.8C13.3766 3 13.7488 3.00078 14.0322 3.02393C14.3038 3.04612 14.4045 3.0838 14.454 3.10899C14.6422 3.20487 14.7951 3.35785 14.891 3.54601C14.9162 3.59545 14.9539 3.69617 14.9761 3.96784C14.9992 4.25117 15 4.62345 15 5.2V7Z"
        fill="#303233" />
</svg>
