<svg width="24" height="24" viewBox="0 0 24 24" fill="none" xmlns="http://www.w3.org/2000/svg">
    <path
        d="M2.70711 1.29289C2.31658 0.902369 1.68342 0.902369 1.29289 1.29289C0.902369 1.68342 0.902369 2.31658 1.29289 2.70711L10.5856 11.9998L7.79261 14.7931C7.40224 15.1838 7.40249 15.817 7.79317 16.2073C8.18385 16.5977 8.81702 16.5974 9.20739 16.2068L11.9998 13.414L21.2929 22.7071C21.6834 23.0976 22.3166 23.0976 22.7071 22.7071C23.0976 22.3166 23.0976 21.6834 22.7071 21.2929L2.70711 1.29289Z"
        fill="#303233" />
    <path
        d="M20.4857 3.51468C18.1426 1.17154 14.3436 1.17154 12.0005 3.51468C11.9938 3.52138 11.9872 3.52817 11.9806 3.53506L10.7731 4.81327C10.3938 5.21473 10.4118 5.84764 10.8133 6.22691C11.2147 6.60618 11.8476 6.58819 12.2269 6.18673L13.4242 4.91941C14.987 3.36681 17.5126 3.36997 19.0715 4.9289C20.6304 6.4878 20.6336 9.01328 19.0811 10.5761L17.8135 11.7729C17.4119 12.152 17.3937 12.7849 17.7729 13.1865C18.152 13.5881 18.7849 13.6063 19.1865 13.2271L20.4651 12.02C20.4721 12.0134 20.479 12.0067 20.4857 12C22.8289 9.65682 22.8289 5.85783 20.4857 3.51468Z"
        fill="#303233" />
    <path
        d="M16.2074 9.20683C16.5978 8.81615 16.5975 8.18298 16.2068 7.79261C15.8161 7.40224 15.183 7.40249 14.7926 7.79317L14.2931 8.29312C13.9027 8.6838 13.9029 9.31696 14.2936 9.70733C14.6843 10.0977 15.3175 10.0974 15.7078 9.70677L16.2074 9.20683Z"
        fill="#303233" />
    <path
        d="M6.18672 12.2269C6.58819 11.8477 6.60619 11.2147 6.22692 10.8133C5.84765 10.4118 5.21474 10.3938 4.81328 10.7731L3.53555 11.9802C3.52867 11.9867 3.52187 11.9933 3.51517 12C1.17203 14.3431 1.17203 18.1421 3.51517 20.4852C5.85832 22.8284 9.65731 22.8284 12.0005 20.4852C12.0072 20.4785 12.0139 20.4716 12.0205 20.4646L13.2271 19.1865C13.6063 18.7849 13.5881 18.152 13.1865 17.7729C12.7849 17.3937 12.152 17.4119 11.7729 17.8135L10.5766 19.0806C9.01376 20.6331 6.48828 20.6299 4.92939 19.071C3.37046 17.5121 3.36729 14.9866 4.91989 13.4237L6.18672 12.2269Z"
        fill="#303233" />
</svg>
