<svg width="16" height="16" viewBox="0 0 16 16" fill="none" xmlns="http://www.w3.org/2000/svg">
    <path fill-rule="evenodd" clip-rule="evenodd"
        d="M7.85 1.25451C7.94676 1.4262 7.93364 1.63871 7.8165 1.7972C7.16639 2.67671 6.85356 3.76035 6.93489 4.85102C7.01623 5.94169 7.48633 6.96694 8.25969 7.7403C9.03305 8.51367 10.0583 8.98377 11.149 9.0651C12.2396 9.14643 13.3233 8.8336 14.2028 8.1835C14.3613 8.06635 14.5738 8.05323 14.7455 8.14999C14.9172 8.24676 15.016 8.43535 14.9979 8.63159C14.8753 9.95814 14.3774 11.2223 13.5626 12.2763C12.7477 13.3302 11.6496 14.1303 10.3966 14.5828C9.14361 15.0354 7.78766 15.1218 6.48739 14.8319C5.18712 14.5419 3.99631 13.8877 3.0543 12.9457C2.11229 12.0037 1.45805 10.8129 1.16812 9.5126C0.878186 8.21233 0.964566 6.85638 1.41715 5.60341C1.86973 4.35044 2.66979 3.25228 3.72372 2.43742C4.77765 1.62256 6.04185 1.1247 7.3684 1.00211C7.56465 0.983979 7.75324 1.08281 7.85 1.25451ZM6.43215 2.18407C5.67476 2.39054 4.96176 2.74424 4.33539 3.22853C3.43172 3.92722 2.74573 4.86881 2.35767 5.94314C1.96962 7.01746 1.89555 8.18009 2.14415 9.29497C2.39274 10.4099 2.95371 11.4309 3.76141 12.2386C4.56911 13.0463 5.59014 13.6073 6.70502 13.8558C7.81991 14.1044 8.98253 14.0304 10.0569 13.6423C11.1312 13.2543 12.0728 12.5683 12.7715 11.6646C13.2558 11.0382 13.6094 10.3252 13.8159 9.56784C12.9644 9.95977 12.0217 10.133 11.0746 10.0623C9.74509 9.96319 8.49531 9.39014 7.55258 8.44741C6.60986 7.50469 6.03681 6.25491 5.93766 4.92539C5.86704 3.97832 6.04022 3.0356 6.43215 2.18407Z"
        fill="#303233" />
</svg>
