<svg width="16" height="16" viewBox="0 0 16 16" fill="none" xmlns="http://www.w3.org/2000/svg">
    <g clip-path="url(#clip0_53_6473)">
        <path fill-rule="evenodd" clip-rule="evenodd"
            d="M10.1668 0.75C7.35937 0.75 5.08348 3.02589 5.08348 5.83333C5.08348 6.0645 5.09896 6.29245 5.12903 6.51612C5.15091 6.67884 5.16437 6.77993 5.17146 6.85341L5.1733 6.87379C5.13872 6.91161 5.08887 6.96173 4.99919 7.05141L1.30827 10.7423L1.28204 10.7685C1.18513 10.8648 1.06027 10.989 0.967094 11.141C0.886374 11.2728 0.82689 11.4164 0.790825 11.5666C0.749195 11.74 0.749691 11.9161 0.750077 12.0527L0.750147 12.0898L0.750145 13.368C0.750122 13.5498 0.750099 13.7284 0.762478 13.8799C0.776107 14.0467 0.808401 14.2456 0.91061 14.4462C1.05176 14.7232 1.27698 14.9484 1.55399 15.0895C1.75459 15.1917 1.95346 15.224 2.12027 15.2377C2.27178 15.25 2.45034 15.25 2.63211 15.25L4.38904 15.25C4.80325 15.25 5.13904 14.9142 5.13904 14.5V13.8056H5.83348C6.24769 13.8056 6.58348 13.4698 6.58348 13.0556V12.3611H7.27793C7.47684 12.3611 7.6676 12.2821 7.80826 12.1414L8.94874 11.001C9.03841 10.9113 9.08854 10.8614 9.12636 10.8268L9.14674 10.8287C9.22022 10.8358 9.32131 10.8492 9.48402 10.8711C9.70769 10.9012 9.93564 10.9167 10.1668 10.9167C12.9743 10.9167 15.2501 8.64078 15.2501 5.83333C15.2501 3.02589 12.9743 0.75 10.1668 0.75ZM10.167 5.08334C9.75278 5.08334 9.41699 5.41913 9.41699 5.83334C9.41699 6.24756 9.75278 6.58334 10.167 6.58334H10.1742C10.5884 6.58334 10.9242 6.24756 10.9242 5.83334C10.9242 5.41913 10.5884 5.08334 10.1742 5.08334H10.167Z"
            fill="#303233" />
    </g>
    <defs>
        <clipPath id="clip0_53_6473">
            <rect width="16" height="16" fill="white" />
        </clipPath>
    </defs>
</svg>
