<svg width="16" height="16" viewBox="0 0 16 16" fill="none" xmlns="http://www.w3.org/2000/svg">
    <path
        d="M11.3214 2H4.6786C4.1367 2 3.69963 1.99999 3.34569 2.02891C2.98126 2.05868 2.66117 2.12159 2.36502 2.27248C1.89462 2.51217 1.51217 2.89462 1.27248 3.36502C1.12159 3.66117 1.05868 3.98126 1.02891 4.34569C0.999991 4.69963 0.999995 5.1367 1 5.67859V8.3214C0.999995 8.86329 0.999991 9.30037 1.02891 9.65431C1.05868 10.0187 1.12159 10.3388 1.27248 10.635C1.51217 11.1054 1.89462 11.4878 2.36502 11.7275C2.66117 11.8784 2.98126 11.9413 3.34569 11.9711C3.69961 12 4.13667 12 4.67853 12H11.3214C11.8633 12 12.3004 12 12.6543 11.9711C13.0187 11.9413 13.3388 11.8784 13.635 11.7275C14.1054 11.4878 14.4878 11.1054 14.7275 10.635C14.8784 10.3388 14.9413 10.0187 14.9711 9.65431C15 9.30039 15 8.86333 15 8.32147V5.67858C15 5.13672 15 4.69961 14.9711 4.34569C14.9413 3.98126 14.8784 3.66117 14.7275 3.36502C14.4878 2.89462 14.1054 2.51217 13.635 2.27248C13.3388 2.12159 13.0187 2.05868 12.6543 2.02891C12.3004 1.99999 11.8633 2 11.3214 2Z"
        fill="#303233" />
    <path
        d="M5.23458 14.6916C6.06941 14.2483 7.0077 14 8.0001 14C8.9925 14 9.93079 14.2483 10.7656 14.6916C11.0095 14.8211 11.3122 14.7284 11.4417 14.4845C11.5712 14.2406 11.4785 13.9379 11.2346 13.8084C10.2608 13.2914 9.16212 13 8.0001 13C6.83808 13 5.73938 13.2914 4.76562 13.8084C4.52173 13.9379 4.42899 14.2406 4.55849 14.4845C4.68799 14.7284 4.99069 14.8211 5.23458 14.6916Z"
        fill="#303233" />
</svg>
