<svg width="16" height="16" viewBox="0 0 16 16" fill="none" xmlns="http://www.w3.org/2000/svg">
    <path fill-rule="evenodd" clip-rule="evenodd"
        d="M6.93586 2.75H9.06414C9.64467 2.74999 10.1255 2.74998 10.5175 2.78201C10.9251 2.81532 11.3024 2.88697 11.6575 3.0679C12.2063 3.34753 12.6525 3.79372 12.9321 4.34253C13.113 4.69762 13.1847 5.07485 13.218 5.48253C13.25 5.87455 13.25 6.35535 13.25 6.93589V9.06411C13.25 9.64465 13.25 10.1255 13.218 10.5175C13.1847 10.9251 13.113 11.3024 12.9321 11.6575C12.6525 12.2063 12.2063 12.6525 11.6575 12.9321C11.3024 13.113 10.9251 13.1847 10.5175 13.218C10.1255 13.25 9.64465 13.25 9.06411 13.25H6.93589C6.35535 13.25 5.87455 13.25 5.48253 13.218C5.07485 13.1847 4.69762 13.113 4.34253 12.9321C3.79372 12.6525 3.34753 12.2063 3.0679 11.6575C2.88697 11.3024 2.81532 10.9251 2.78201 10.5175C2.74998 10.1255 2.74999 9.64467 2.75 9.06414V6.93586C2.74999 6.35533 2.74998 5.87454 2.78201 5.48253C2.81532 5.07485 2.88697 4.69762 3.0679 4.34253C3.34753 3.79372 3.79372 3.34753 4.34253 3.0679C4.69762 2.88697 5.07485 2.81532 5.48253 2.78201C5.87454 2.74998 6.35533 2.74999 6.93586 2.75Z"
        fill="#303233" />
</svg>
