<svg width="16" height="16" viewBox="0 0 16 16" fill="none" xmlns="http://www.w3.org/2000/svg">
    <path fill-rule="evenodd" clip-rule="evenodd"
        d="M1.85355 1.14645C1.65829 0.951184 1.34171 0.951184 1.14645 1.14645C0.951184 1.34171 0.951184 1.65829 1.14645 1.85355L3.86243 4.56954C3.08939 5.38905 2.58964 6.47069 2.51092 7.66702C1.34007 8.07583 0.5 9.18935 0.5 10.5C0.5 12.1569 1.84315 13.5 3.5 13.5H11.5C11.8921 13.5 12.2717 13.4434 12.6307 13.3378L14.1464 14.8536C14.3417 15.0488 14.6583 15.0488 14.8536 14.8536C15.0488 14.6583 15.0488 14.3417 14.8536 14.1464L1.85355 1.14645Z"
        fill="#303233" />
    <path
        d="M14.3081 11.3522C14.3477 11.3922 14.3948 11.4261 14.4486 11.4516C14.6981 11.5701 14.9963 11.464 15.1148 11.2145C15.362 10.6943 15.5 10.1126 15.5 9.5C15.5 7.4051 13.8896 5.68638 11.8392 5.51419C10.9772 4.01274 9.3573 3 7.5 3C7.37874 3 7.2584 3.00433 7.13915 3.01284C6.86371 3.03252 6.65636 3.27175 6.67604 3.54719C6.68604 3.68727 6.75283 3.80973 6.85228 3.89368C8.9586 6 13.9559 11 14.3081 11.3522Z"
        fill="#303233" />
</svg>
