<svg width="16" height="16" viewBox="0 0 16 16" fill="none" xmlns="http://www.w3.org/2000/svg">
    <g clip-path="url(#clip0_53_7126)">
        <path fill-rule="evenodd" clip-rule="evenodd"
            d="M3.08301 0.75H3.11002H4.89001H4.91702C5.17802 0.75 5.41903 0.749991 5.62003 0.765991C5.83603 0.783991 6.07301 0.825991 6.30701 0.946991C6.62601 1.11299 6.88701 1.37299 7.05301 1.69299C7.17401 1.92599 7.215 2.163 7.233 2.38C7.25 2.581 7.25 2.82101 7.25 3.08301V4.91599C7.25 5.17799 7.25 5.41899 7.233 5.61899C7.215 5.83599 7.17401 6.073 7.05301 6.306C6.88701 6.626 6.62601 6.88701 6.30701 7.05301C6.07301 7.17401 5.83603 7.215 5.62003 7.233C5.41903 7.25 5.17802 7.25 4.91702 7.25H3.08301C2.82101 7.25 2.581 7.25 2.38 7.233C2.163 7.215 1.92702 7.17401 1.69302 7.05301C1.37402 6.88701 1.11302 6.626 0.947021 6.306C0.826021 6.073 0.785029 5.83599 0.767029 5.61899C0.750029 5.41899 0.75 5.17799 0.75 4.91599V4.88998V3.10999V3.08301C0.75 2.82101 0.750029 2.581 0.767029 2.38C0.785029 2.163 0.826021 1.92599 0.947021 1.69299C1.11302 1.37299 1.37402 1.11299 1.69302 0.946991C1.92702 0.825991 2.163 0.783991 2.38 0.765991C2.581 0.749991 2.82101 0.75 3.08301 0.75ZM2.28003 5.61801L2.28101 5.62C2.30401 5.66199 2.33803 5.69599 2.37903 5.71899L2.38101 5.72C2.39001 5.723 2.42403 5.73201 2.50403 5.73801C2.63503 5.74901 2.81302 5.75 3.11002 5.75H4.89001C5.18701 5.75 5.364 5.74901 5.496 5.73801C5.576 5.73201 5.61002 5.723 5.61902 5.72L5.621 5.71899C5.662 5.69599 5.69602 5.66199 5.71902 5.62L5.72 5.61801C5.723 5.60901 5.73201 5.575 5.73801 5.495C5.74901 5.364 5.75 5.18698 5.75 4.88998V3.10999C5.75 2.81199 5.74901 2.635 5.73801 2.504C5.73201 2.424 5.723 2.39001 5.72 2.38101L5.71902 2.379C5.69602 2.337 5.662 2.30301 5.621 2.28101L5.61902 2.28C5.61002 2.277 5.576 2.26799 5.496 2.26099C5.364 2.24999 5.18701 2.25 4.89001 2.25H3.11002C2.81302 2.25 2.63503 2.24999 2.50403 2.26099C2.42403 2.26799 2.39001 2.277 2.38101 2.28L2.37903 2.28101C2.33803 2.30301 2.30401 2.337 2.28101 2.379L2.28003 2.38101C2.27703 2.39001 2.26802 2.424 2.26102 2.504C2.25102 2.635 2.25 2.81199 2.25 3.10999V4.88998C2.25 5.18698 2.25102 5.364 2.26102 5.495C2.26802 5.575 2.27703 5.60901 2.28003 5.61801ZM11.083 0.75H11.11H12.89H12.917C13.178 0.75 13.419 0.749991 13.62 0.765991C13.836 0.783991 14.073 0.825991 14.307 0.946991C14.626 1.11299 14.887 1.37299 15.053 1.69299C15.174 1.92599 15.215 2.163 15.233 2.38C15.25 2.581 15.25 2.82101 15.25 3.08301V4.91599C15.25 5.17799 15.25 5.41899 15.233 5.61899C15.215 5.83599 15.174 6.073 15.053 6.306C14.887 6.626 14.626 6.88701 14.307 7.05301C14.073 7.17401 13.836 7.215 13.62 7.233C13.419 7.25 13.178 7.25 12.917 7.25H11.083C10.821 7.25 10.581 7.25 10.38 7.233C10.163 7.215 9.92702 7.17401 9.69302 7.05301C9.37402 6.88701 9.11302 6.626 8.94702 6.306C8.82602 6.073 8.78503 5.83599 8.76703 5.61899C8.75003 5.41899 8.75 5.17799 8.75 4.91599V3.08301C8.75 2.82101 8.75003 2.581 8.76703 2.38C8.78503 2.163 8.82602 1.92599 8.94702 1.69299C9.11302 1.37299 9.37402 1.11299 9.69302 0.946991C9.92702 0.825991 10.163 0.783991 10.38 0.765991C10.581 0.749991 10.821 0.75 11.083 0.75ZM10.28 5.61801L10.281 5.62C10.304 5.66199 10.338 5.69599 10.379 5.71899L10.381 5.72C10.39 5.723 10.424 5.73201 10.504 5.73801C10.635 5.74901 10.813 5.75 11.11 5.75H12.89C13.187 5.75 13.364 5.74901 13.496 5.73801C13.576 5.73201 13.61 5.723 13.619 5.72L13.621 5.71899C13.662 5.69599 13.696 5.66199 13.719 5.62L13.72 5.61801C13.723 5.60901 13.732 5.575 13.738 5.495C13.749 5.364 13.75 5.18698 13.75 4.88998V3.10999C13.75 2.81199 13.749 2.635 13.738 2.504C13.732 2.424 13.723 2.39001 13.72 2.38101L13.719 2.379C13.696 2.337 13.662 2.30301 13.621 2.28101L13.619 2.28C13.61 2.277 13.576 2.26799 13.496 2.26099C13.364 2.24999 13.187 2.25 12.89 2.25H11.11C10.813 2.25 10.635 2.24999 10.504 2.26099C10.424 2.26799 10.39 2.277 10.381 2.28L10.379 2.28101C10.338 2.30301 10.304 2.337 10.281 2.379L10.28 2.38101C10.277 2.39001 10.268 2.424 10.261 2.504C10.251 2.635 10.25 2.81199 10.25 3.10999V4.88998C10.25 5.18698 10.251 5.364 10.261 5.495C10.268 5.575 10.277 5.60901 10.28 5.61801ZM3.08301 8.75H4.91702C5.17802 8.75 5.41903 8.74999 5.62003 8.76599C5.83603 8.78399 6.07301 8.82599 6.30701 8.94699C6.62601 9.11299 6.88701 9.37299 7.05301 9.69299C7.17401 9.92599 7.215 10.163 7.233 10.38C7.25 10.581 7.25 10.821 7.25 11.083V12.916C7.25 13.178 7.25 13.419 7.233 13.619C7.215 13.836 7.17401 14.073 7.05301 14.306C6.88701 14.626 6.62601 14.887 6.30701 15.053C6.07301 15.174 5.83603 15.215 5.62003 15.233C5.41903 15.25 5.17802 15.25 4.91702 15.25H3.08301C2.82101 15.25 2.581 15.25 2.38 15.233C2.163 15.215 1.92702 15.174 1.69302 15.053C1.37402 14.887 1.11302 14.626 0.947021 14.306C0.826021 14.073 0.785029 13.836 0.767029 13.619C0.750029 13.419 0.75 13.178 0.75 12.916V12.89V11.11V11.083C0.75 10.821 0.750029 10.581 0.767029 10.38C0.785029 10.163 0.826021 9.92599 0.947021 9.69299C1.11302 9.37299 1.37402 9.11299 1.69302 8.94699C1.92702 8.82599 2.163 8.78399 2.38 8.76599C2.581 8.74999 2.82101 8.75 3.08301 8.75ZM2.28003 13.618L2.28101 13.62C2.30401 13.662 2.33803 13.696 2.37903 13.719L2.38101 13.72C2.39001 13.723 2.42403 13.732 2.50403 13.738C2.63503 13.749 2.81302 13.75 3.11002 13.75H4.89001C5.18701 13.75 5.364 13.749 5.496 13.738C5.576 13.732 5.61002 13.723 5.61902 13.72L5.621 13.719C5.662 13.696 5.69602 13.662 5.71902 13.62L5.72 13.618C5.723 13.609 5.73201 13.575 5.73801 13.495C5.74901 13.364 5.75 13.187 5.75 12.89V11.11C5.75 10.812 5.74901 10.635 5.73801 10.504C5.73201 10.424 5.723 10.39 5.72 10.381L5.71902 10.379C5.69602 10.338 5.662 10.303 5.621 10.281L5.61902 10.28C5.61002 10.277 5.576 10.268 5.496 10.261C5.364 10.25 5.18701 10.25 4.89001 10.25H3.11002C2.81302 10.25 2.63503 10.25 2.50403 10.261C2.42403 10.268 2.39001 10.277 2.38101 10.28L2.37903 10.281C2.33803 10.303 2.30401 10.338 2.28101 10.379L2.28003 10.381C2.27703 10.39 2.26802 10.424 2.26102 10.504C2.25102 10.635 2.25 10.812 2.25 11.11V12.89C2.25 13.187 2.25102 13.364 2.26102 13.495C2.26802 13.575 2.27703 13.609 2.28003 13.618ZM11.083 8.75H12.917C13.178 8.75 13.419 8.74999 13.62 8.76599C13.836 8.78399 14.073 8.82599 14.307 8.94699C14.626 9.11299 14.887 9.37299 15.053 9.69299C15.174 9.92599 15.215 10.163 15.233 10.38C15.25 10.581 15.25 10.821 15.25 11.083V12.916C15.25 13.178 15.25 13.419 15.233 13.619C15.215 13.836 15.174 14.073 15.053 14.306C14.887 14.626 14.626 14.887 14.307 15.053C14.073 15.174 13.836 15.215 13.62 15.233C13.419 15.25 13.178 15.25 12.917 15.25H11.083C10.821 15.25 10.581 15.25 10.38 15.233C10.163 15.215 9.92702 15.174 9.69302 15.053C9.37402 14.887 9.11302 14.626 8.94702 14.306C8.82602 14.073 8.78503 13.836 8.76703 13.619C8.75003 13.419 8.75 13.178 8.75 12.916V11.083C8.75 10.821 8.75003 10.581 8.76703 10.38C8.78503 10.163 8.82602 9.92599 8.94702 9.69299C9.11302 9.37299 9.37402 9.11299 9.69302 8.94699C9.92702 8.82599 10.163 8.78399 10.38 8.76599C10.581 8.74999 10.821 8.75 11.083 8.75ZM10.28 13.618L10.281 13.62C10.304 13.662 10.338 13.696 10.379 13.719L10.381 13.72C10.39 13.723 10.424 13.732 10.504 13.738C10.635 13.749 10.813 13.75 11.11 13.75H12.89C13.187 13.75 13.364 13.749 13.496 13.738C13.576 13.732 13.61 13.723 13.619 13.72L13.621 13.719C13.662 13.696 13.696 13.662 13.719 13.62L13.72 13.618C13.723 13.609 13.732 13.575 13.738 13.495C13.749 13.364 13.75 13.187 13.75 12.89V11.11C13.75 10.812 13.749 10.635 13.738 10.504C13.732 10.424 13.723 10.39 13.72 10.381L13.719 10.379C13.696 10.338 13.662 10.303 13.621 10.281L13.619 10.28C13.61 10.277 13.576 10.268 13.496 10.261C13.364 10.25 13.187 10.25 12.89 10.25H11.11C10.813 10.25 10.635 10.25 10.504 10.261C10.424 10.268 10.39 10.277 10.381 10.28L10.379 10.281C10.338 10.303 10.304 10.338 10.281 10.379L10.28 10.381C10.277 10.39 10.268 10.424 10.261 10.504C10.251 10.635 10.25 10.812 10.25 11.11V12.89C10.25 13.187 10.251 13.364 10.261 13.495C10.268 13.575 10.277 13.609 10.28 13.618Z"
            fill="#303233" />
    </g>
    <defs>
        <clipPath id="clip0_53_7126">
            <rect width="16" height="16" fill="white" />
        </clipPath>
    </defs>
</svg>
