<svg width="16" height="16" viewBox="0 0 16 16" fill="none" xmlns="http://www.w3.org/2000/svg">
    <path fill-rule="evenodd" clip-rule="evenodd"
        d="M7.99732 4.25C5.41501 4.25 3.06471 5.23604 1.29968 6.85346C0.99429 7.1333 0.519868 7.1126 0.240024 6.80721C-0.0398199 6.50182 -0.0191146 6.0274 0.286271 5.74756C2.31706 3.88662 5.02532 2.75 7.99732 2.75C10.9693 2.75 13.6776 3.88662 15.7084 5.74756C16.0138 6.0274 16.0345 6.50182 15.7546 6.80721C15.4748 7.1126 15.0004 7.1333 14.695 6.85346C12.9299 5.23604 10.5796 4.25 7.99732 4.25ZM7.99739 7.58333C6.32955 7.58333 4.80817 8.20257 3.64778 9.22476C3.33697 9.49856 2.86304 9.46855 2.58924 9.15774C2.31544 8.84692 2.34545 8.373 2.65626 8.0992C4.08004 6.84498 5.95068 6.08333 7.99739 6.08333C10.0441 6.08333 11.9147 6.84498 13.3385 8.0992C13.6493 8.373 13.6793 8.84692 13.4055 9.15774C13.1317 9.46855 12.6578 9.49856 12.347 9.22476C11.1866 8.20257 9.66522 7.58333 7.99739 7.58333ZM7.99732 10.9167C7.22938 10.9167 6.52548 11.1821 5.9694 11.6268C5.64591 11.8855 5.17395 11.833 4.91525 11.5095C4.65655 11.186 4.70907 10.714 5.03256 10.4553C5.84496 9.80563 6.87675 9.41667 7.99732 9.41667C9.10115 9.41667 10.1189 9.79411 10.9256 10.4265C11.2516 10.682 11.3088 11.1534 11.0532 11.4794C10.7977 11.8054 10.3263 11.8625 10.0003 11.607C9.44818 11.1743 8.75388 10.9167 7.99732 10.9167ZM7.2474 13.5C7.2474 13.0858 7.58319 12.75 7.9974 12.75H8.00407C8.41828 12.75 8.75407 13.0858 8.75407 13.5C8.75407 13.9142 8.41828 14.25 8.00407 14.25H7.9974C7.58319 14.25 7.2474 13.9142 7.2474 13.5Z"
        fill="#303233" />
</svg>
