<svg width="24" height="24" viewBox="0 0 24 24" fill="none" xmlns="http://www.w3.org/2000/svg">
    <path
        d="M5.45926 5.45929C5.75216 5.16639 5.75216 4.69152 5.45926 4.39863C5.16637 4.10573 4.6915 4.10573 4.3986 4.39863C0.200466 8.59676 0.200466 15.4033 4.3986 19.6014C4.6915 19.8943 5.16637 19.8943 5.45926 19.6014C5.75216 19.3085 5.75216 18.8337 5.45926 18.5408C1.84691 14.9284 1.84691 9.07163 5.45926 5.45929Z"
        fill="#303233" />
    <path
        d="M19.6014 4.39867C19.3085 4.10578 18.8336 4.10578 18.5407 4.39867C18.2478 4.69156 18.2478 5.16644 18.5407 5.45933C22.1531 9.07168 22.1531 14.9285 18.5407 18.5408C18.2478 18.8337 18.2478 19.3086 18.5407 19.6015C18.8336 19.8944 19.3085 19.8944 19.6014 19.6015C23.7995 15.4033 23.7995 8.59681 19.6014 4.39867Z"
        fill="#303233" />
    <path
        d="M8.28769 8.28768C8.58058 7.99478 8.58058 7.51991 8.28769 7.22702C7.9948 6.93412 7.51992 6.93412 7.22703 7.22702C4.59099 9.86306 4.59099 14.1369 7.22703 16.773C7.51992 17.0659 7.9948 17.0659 8.28769 16.773C8.58058 16.4801 8.58058 16.0052 8.28769 15.7123C6.23744 13.662 6.23744 10.3379 8.28769 8.28768Z"
        fill="#303233" />
    <path
        d="M16.773 7.22705C16.4801 6.93416 16.0052 6.93416 15.7123 7.22705C15.4194 7.51995 15.4194 7.99482 15.7123 8.28771C17.7626 10.338 17.7626 13.6621 15.7123 15.7123C15.4194 16.0052 15.4194 16.4801 15.7123 16.773C16.0052 17.0659 16.4801 17.0659 16.773 16.773C19.409 14.137 19.409 9.86309 16.773 7.22705Z"
        fill="#303233" />
    <path
        d="M11.5048 9.5043C11.4201 9.44981 11.3184 9.38438 11.2264 9.33648C11.1339 9.28834 10.934 9.19223 10.6788 9.21046C10.3894 9.23113 10.1233 9.3764 9.9495 9.60861C9.79614 9.81345 9.7689 10.0336 9.75938 10.1374C9.74991 10.2407 9.74996 10.3616 9.75001 10.4623V13.5377C9.74996 13.6384 9.74991 13.7593 9.75938 13.8626C9.7689 13.9665 9.79614 14.1866 9.9495 14.3914C10.1233 14.6236 10.3894 14.7689 10.6788 14.7895C10.934 14.8078 11.1339 14.7117 11.2264 14.6635C11.3184 14.6156 11.4201 14.5502 11.5047 14.4957L13.8977 12.9574C13.9704 12.9107 14.0623 12.8517 14.1376 12.793C14.2185 12.7299 14.369 12.6019 14.4588 12.3892C14.564 12.1404 14.564 11.8596 14.4588 11.6108C14.369 11.3981 14.2185 11.2701 14.1376 11.207C14.0623 11.1483 13.9705 11.0893 13.8977 11.0426L11.5048 9.5043Z"
        fill="#303233" />
</svg>
