<svg width="16" height="16" viewBox="0 0 16 16" fill="none" xmlns="http://www.w3.org/2000/svg">
    <path fill-rule="evenodd" clip-rule="evenodd"
        d="M3 5C3 3.34315 4.34315 2 6 2C7.65685 2 9 3.34315 9 5C9 6.65685 7.65685 8 6 8C4.34315 8 3 6.65685 3 5ZM6 3C4.89543 3 4 3.89543 4 5C4 6.10457 4.89543 7 6 7C7.10457 7 8 6.10457 8 5C8 3.89543 7.10457 3 6 3Z"
        fill="#303233" />
    <path
        d="M5.99969 10C3.82321 10 2.00661 11.5457 1.58971 13.5995C1.53478 13.8701 1.27086 14.0449 1.00024 13.99C0.729618 13.9351 0.554767 13.6712 0.609701 13.4005C1.11934 10.8899 3.33825 9 5.99969 9C8.66112 9 10.88 10.8899 11.3897 13.4005C11.4446 13.6712 11.2698 13.9351 10.9991 13.99C10.7285 14.0449 10.4646 13.8701 10.4097 13.5995C9.99276 11.5457 8.17617 10 5.99969 10Z"
        fill="#303233" />
    <path
        d="M12.6464 5.64645L10.6464 7.64645C10.4512 7.84171 10.4512 8.15829 10.6464 8.35355L12.6464 10.3536C12.8417 10.5488 13.1583 10.5488 13.3536 10.3536C13.5488 10.1583 13.5488 9.84171 13.3536 9.64645L12.2071 8.5H15C15.2761 8.5 15.5 8.27614 15.5 8C15.5 7.72386 15.2761 7.5 15 7.5H12.2071L13.3536 6.35355C13.5488 6.15829 13.5488 5.84171 13.3536 5.64645C13.1583 5.45118 12.8417 5.45118 12.6464 5.64645Z"
        fill="#303233" />
</svg>
