<svg width="16" height="16" viewBox="0 0 16 16" fill="none" xmlns="http://www.w3.org/2000/svg">
    <path fill-rule="evenodd" clip-rule="evenodd"
        d="M2.61111 1.88998C2.61112 1.61384 2.83498 1.38999 3.11113 1.39L6.77779 1.39012C7.05393 1.39013 7.27778 1.61398 7.27778 1.89012V5.55667C7.27778 5.83281 7.05392 6.05667 6.77778 6.05667C6.50164 6.05667 6.27778 5.83281 6.27778 5.55667V2.80213C5.89 3.10979 5.30906 3.6211 4.46447 4.4657C2.51184 6.41832 2.51184 9.58414 4.46447 11.5368C5.15683 12.2291 6.00036 12.6753 6.88841 12.8768C7.15771 12.9379 7.32649 13.2058 7.26538 13.4751C7.20428 13.7444 6.93644 13.9132 6.66714 13.8521C5.60051 13.61 4.587 13.0735 3.75736 12.2439C1.41421 9.90073 1.41421 6.10174 3.75736 3.75859C4.35411 3.16184 4.83082 2.71906 5.21027 2.39007L3.11109 2.39C2.83495 2.38999 2.6111 2.16613 2.61111 1.88998ZM8.73462 2.52726C8.79572 2.25796 9.06356 2.08919 9.33286 2.15029C10.3995 2.3923 11.413 2.92883 12.2426 3.75847C14.5858 6.10162 14.5858 9.9006 12.2426 12.2438C11.6459 12.8405 11.1692 13.2832 10.7898 13.6122H12.8889C13.165 13.6122 13.3889 13.8361 13.3889 14.1122C13.3889 14.3884 13.165 14.6122 12.8889 14.6122H9.22222C9.08961 14.6122 8.96244 14.5595 8.86867 14.4658C8.7749 14.372 8.72222 14.2448 8.72222 14.1122L8.72222 10.4456C8.72222 10.1694 8.94608 9.94555 9.22222 9.94555C9.49836 9.94555 9.72222 10.1694 9.72222 10.4456L9.72222 13.2002C10.11 12.8926 10.6909 12.3812 11.5355 11.5366C13.4882 9.58402 13.4882 6.4182 11.5355 4.46558C10.8432 3.77322 9.99963 3.32699 9.11159 3.1255C8.84229 3.0644 8.67351 2.79656 8.73462 2.52726Z"
        fill="#303233" />
</svg>
