<svg width="24" height="24" viewBox="0 0 24 24" fill="none" xmlns="http://www.w3.org/2000/svg">
    <path fill-rule="evenodd" clip-rule="evenodd"
        d="M7 6C6.44772 6 6 6.44772 6 7C6 7.55228 6.44772 8 7 8C7.55228 8 8 7.55228 8 7C8 6.44772 7.55228 6 7 6ZM4 7C4 5.34315 5.34315 4 7 4C8.65685 4 10 5.34315 10 7C10 8.65685 8.65685 10 7 10C5.34315 10 4 8.65685 4 7ZM19.7071 4.29289C20.0976 4.68342 20.0976 5.31658 19.7071 5.70711L5.70711 19.7071C5.31658 20.0976 4.68342 20.0976 4.29289 19.7071C3.90237 19.3166 3.90237 18.6834 4.29289 18.2929L18.2929 4.29289C18.6834 3.90237 19.3166 3.90237 19.7071 4.29289ZM17 16C16.4477 16 16 16.4477 16 17C16 17.5523 16.4477 18 17 18C17.5523 18 18 17.5523 18 17C18 16.4477 17.5523 16 17 16ZM14 17C14 15.3431 15.3431 14 17 14C18.6569 14 20 15.3431 20 17C20 18.6569 18.6569 20 17 20C15.3431 20 14 18.6569 14 17Z"
        fill="#303233" />
</svg>
