<svg width="16" height="16" viewBox="0 0 16 16" fill="none" xmlns="http://www.w3.org/2000/svg">
    <path
        d="M7.64645 1.14645C7.84171 0.951184 8.15829 0.951184 8.35355 1.14645L10.8536 3.64645C11.0488 3.84171 11.0488 4.15829 10.8536 4.35355C10.6583 4.54882 10.3417 4.54882 10.1464 4.35355L8.5 2.70711V10C8.5 10.2761 8.27614 10.5 8 10.5C7.72386 10.5 7.5 10.2761 7.5 10V2.70711L5.85355 4.35355C5.65829 4.54882 5.34171 4.54882 5.14645 4.35355C4.95118 4.15829 4.95118 3.84171 5.14645 3.64645L7.64645 1.14645Z"
        fill="#303233" />
    <path
        d="M3 8C3 7.44772 3.44772 7 4 7H4.33366C4.6098 7 4.83366 6.77614 4.83366 6.5C4.83366 6.22386 4.6098 6 4.33366 6H4C2.89543 6 2 6.89543 2 8V13C2 14.1046 2.89543 15 4 15H12C13.1046 15 14 14.1046 14 13V8C14 6.89543 13.1046 6 12 6H11.667C11.3908 6 11.167 6.22386 11.167 6.5C11.167 6.77614 11.3908 7 11.667 7H12C12.5523 7 13 7.44772 13 8V13C13 13.5523 12.5523 14 12 14H4C3.44772 14 3 13.5523 3 13V8Z"
        fill="#303233" />
</svg>
