<svg width="24" height="24" viewBox="0 0 24 24" fill="none" xmlns="http://www.w3.org/2000/svg">
    <path
        d="M4.25 8C4.25 5.37665 6.37665 3.25 9 3.25C11.6234 3.25 13.75 5.37665 13.75 8C13.75 10.6234 11.6234 12.75 9 12.75C6.37665 12.75 4.25 10.6234 4.25 8Z"
        fill="#303233" />
    <path
        d="M0.525632 20.8131C1.49693 17.0393 4.92175 14.25 8.99992 14.25C13.0781 14.25 16.5029 17.0393 17.4742 20.8131C17.532 21.0376 17.4827 21.2763 17.3406 21.4595C17.1986 21.6428 16.9798 21.75 16.7479 21.75H1.25196C1.0201 21.75 0.801267 21.6428 0.659209 21.4595C0.517151 21.2763 0.467838 21.0376 0.525632 20.8131Z"
        fill="#303233" />
    <path
        d="M20.5303 8.46967C20.2374 8.17678 19.7626 8.17678 19.4697 8.46967L16.4697 11.4697C16.1768 11.7626 16.1768 12.2374 16.4697 12.5303C16.7626 12.8232 17.2374 12.8232 17.5303 12.5303L19.25 10.8107V15C19.25 15.4142 19.5858 15.75 20 15.75C20.4142 15.75 20.75 15.4142 20.75 15V10.8107L22.4697 12.5303C22.7626 12.8232 23.2374 12.8232 23.5303 12.5303C23.8232 12.2374 23.8232 11.7626 23.5303 11.4697L20.5303 8.46967Z"
        fill="#303233" />
</svg>
