<svg width="16" height="16" viewBox="0 0 16 16" fill="none" xmlns="http://www.w3.org/2000/svg">
    <path
        d="M2.50476 10.0905C3.11429 9.58254 3.6 9.16032 3.9619 8.82381C4.32381 8.48095 4.6254 8.1254 4.86667 7.75714C5.10794 7.38889 5.22857 7.02698 5.22857 6.67143C5.22857 6.34762 5.15238 6.09365 5 5.90952C4.84762 5.7254 4.6127 5.63333 4.29524 5.63333C3.97778 5.63333 3.73333 5.74127 3.5619 5.95714C3.39048 6.16667 3.30159 6.45556 3.29524 6.82381H2C2.0254 6.0619 2.25079 5.48413 2.67619 5.09048C3.10794 4.69683 3.65397 4.5 4.31429 4.5C5.03809 4.5 5.59365 4.69365 5.98095 5.08095C6.36825 5.46191 6.5619 5.96667 6.5619 6.59524C6.5619 7.09048 6.42857 7.56349 6.1619 8.01429C5.89524 8.46508 5.59048 8.85873 5.24762 9.19524C4.90476 9.5254 4.45714 9.9254 3.90476 10.3952H6.71428V11.5H2.00952V10.5095L2.50476 10.0905Z"
        fill="#303233" />
    <path
        d="M9.53033 6.21967C9.23744 5.92678 8.76256 5.92678 8.46967 6.21967C8.17678 6.51256 8.17678 6.98744 8.46967 7.28033L9.93934 8.75L8.46967 10.2197C8.17678 10.5126 8.17678 10.9874 8.46967 11.2803C8.76256 11.5732 9.23744 11.5732 9.53033 11.2803L11 9.81066L12.4697 11.2803C12.7626 11.5732 13.2374 11.5732 13.5303 11.2803C13.8232 10.9874 13.8232 10.5126 13.5303 10.2197L12.0607 8.75L13.5303 7.28033C13.8232 6.98744 13.8232 6.51256 13.5303 6.21967C13.2374 5.92678 12.7626 5.92678 12.4697 6.21967L11 7.68934L9.53033 6.21967Z"
        fill="#303233" />
</svg>
