<svg width="24" height="24" viewBox="0 0 24 24" fill="none" xmlns="http://www.w3.org/2000/svg">
    <path fill-rule="evenodd" clip-rule="evenodd"
        d="M15.2324 1.25C16.0451 1.24999 16.7006 1.2496 17.2314 1.29297C17.7781 1.33763 18.2579 1.43286 18.7021 1.65918C19.4078 2.01871 19.9813 2.59224 20.3408 3.29785C20.5671 3.74205 20.6624 4.22195 20.707 4.76856C20.7504 5.29939 20.75 5.95491 20.75 6.76758V17.2324C20.75 18.0451 20.7504 18.7006 20.707 19.2314C20.6624 19.7781 20.5671 20.2579 20.3408 20.7021C19.9813 21.4078 19.4078 21.9813 18.7021 22.3408C18.2579 22.5671 17.7781 22.6624 17.2314 22.707C16.7006 22.7504 16.0451 22.75 15.2324 22.75H8.76758C7.95491 22.75 7.29939 22.7504 6.76856 22.707C6.22195 22.6624 5.74205 22.5671 5.29785 22.3408C4.59224 21.9813 4.01871 21.4078 3.65918 20.7021C3.43286 20.2579 3.33763 19.7781 3.29297 19.2314C3.2496 18.7006 3.24999 18.0451 3.25 17.2324V6.76758C3.24999 5.95491 3.2496 5.29939 3.29297 4.76856C3.33763 4.22195 3.43286 3.74205 3.65918 3.29785C4.01871 2.59224 4.59224 2.01871 5.29785 1.65918C5.74205 1.43286 6.22195 1.33763 6.76856 1.29297C7.29939 1.2496 7.95491 1.24999 8.76758 1.25H15.2324ZM11 13.25C10.5858 13.25 10.25 13.5858 10.25 14C10.25 14.9665 11.0335 15.75 12 15.75C12.9665 15.75 13.75 14.9665 13.75 14C13.75 13.5858 13.4142 13.25 13 13.25H11ZM11 10.25C10.5858 10.25 10.25 10.5858 10.25 11C10.25 11.4142 10.5858 11.75 11 11.75H13C13.4142 11.75 13.75 11.4142 13.75 11C13.75 10.5858 13.4142 10.25 13 10.25H11ZM11 7.25C10.5858 7.25 10.25 7.58579 10.25 8C10.25 8.41421 10.5858 8.75 11 8.75H13C13.4142 8.75 13.75 8.41421 13.75 8C13.75 7.58579 13.4142 7.25 13 7.25H11ZM11 4.25C10.5858 4.25 10.25 4.58579 10.25 5C10.25 5.41421 10.5858 5.75 11 5.75H13C13.4142 5.75 13.75 5.41421 13.75 5C13.75 4.58579 13.4142 4.25 13 4.25H11Z"
        fill="#303233" />
</svg>
