<svg width="24" height="24" viewBox="0 0 24 24" fill="none" xmlns="http://www.w3.org/2000/svg">
    <path fill-rule="evenodd" clip-rule="evenodd"
        d="M10 7.25C11.5188 7.25 12.75 8.48122 12.75 10C12.75 11.5188 11.5188 12.75 10 12.75C8.48122 12.75 7.25 11.5188 7.25 10C7.25 8.48122 8.48122 7.25 10 7.25Z"
        fill="#303233" />
    <path fill-rule="evenodd" clip-rule="evenodd"
        d="M15.2324 1.25C16.0451 1.24999 16.7006 1.2496 17.2314 1.29297C17.7781 1.33763 18.2579 1.43286 18.7021 1.65918C19.4078 2.01871 19.9813 2.59224 20.3408 3.29785C20.5671 3.74205 20.6624 4.22195 20.707 4.76856C20.7504 5.29939 20.75 5.95491 20.75 6.76758V17.2324C20.75 18.0451 20.7504 18.7006 20.707 19.2314C20.6624 19.7781 20.5671 20.2579 20.3408 20.7021C19.9813 21.4078 19.4078 21.9813 18.7021 22.3408C18.2579 22.5671 17.7781 22.6624 17.2314 22.707C16.7006 22.7504 16.0451 22.75 15.2324 22.75H8.76758C7.95491 22.75 7.29939 22.7504 6.76856 22.707C6.22195 22.6624 5.74205 22.5671 5.29785 22.3408C4.59224 21.9813 4.01871 21.4078 3.65918 20.7021C3.43286 20.2579 3.33763 19.7781 3.29297 19.2314C3.2496 18.7006 3.24999 18.0451 3.25 17.2324V6.76758C3.24999 5.95491 3.2496 5.29939 3.29297 4.76856C3.33763 4.22195 3.43286 3.74205 3.65918 3.29785C4.01871 2.59224 4.59224 2.01871 5.29785 1.65918C5.74205 1.43286 6.22195 1.33763 6.76856 1.29297C7.29939 1.2496 7.95491 1.24999 8.76758 1.25H15.2324ZM8.79981 2.75C7.94746 2.75 7.35322 2.75029 6.89063 2.78809C6.4368 2.82517 6.17602 2.89449 5.97852 2.99512C5.55515 3.21083 5.21083 3.55515 4.99512 3.97852C4.89449 4.17602 4.82517 4.4368 4.78809 4.89063C4.75029 5.35322 4.75 5.94746 4.75 6.79981V17.2002C4.75 18.0525 4.75029 18.6468 4.78809 19.1094C4.82517 19.5632 4.89449 19.824 4.99512 20.0215C5.0963 20.2201 5.22724 20.3999 5.37988 20.5586L14.3379 11.6006C14.5271 11.4113 14.7011 11.2372 14.8574 11.1045C15.0203 10.9662 15.2134 10.8298 15.459 10.75C15.8105 10.6358 16.1895 10.6358 16.541 10.75C16.7866 10.8298 16.9797 10.9662 17.1426 11.1045C17.2989 11.2372 17.4729 11.4113 17.6621 11.6006L19.25 13.1885V6.79981C19.25 5.94746 19.2497 5.35322 19.2119 4.89063C19.1748 4.4368 19.1055 4.17602 19.0049 3.97852C18.7892 3.55515 18.4448 3.21083 18.0215 2.99512C17.824 2.89449 17.5632 2.82517 17.1094 2.78809C16.6468 2.75029 16.0525 2.75 15.2002 2.75H8.79981Z"
        fill="#303233" />
</svg>
