<svg width="24" height="24" viewBox="0 0 24 24" fill="none" xmlns="http://www.w3.org/2000/svg">
    <path fill-rule="evenodd" clip-rule="evenodd"
        d="M10.4697 1.06967C10.7626 0.776775 11.2374 0.776775 11.5303 1.06967L13.5303 3.06967C13.8232 3.36256 13.8232 3.83744 13.5303 4.13033L11.5303 6.13033C11.2374 6.42322 10.7626 6.42322 10.4697 6.13033C10.1768 5.83744 10.1768 5.36256 10.4697 5.06967L11.2539 4.28545C7.32373 4.66087 4.25 7.97148 4.25 12C4.25 14.5757 5.50573 16.858 7.44164 18.2684C7.77642 18.5123 7.85009 18.9815 7.60618 19.3162C7.36227 19.651 6.89314 19.7247 6.55836 19.4808C4.2516 17.8002 2.75 15.0754 2.75 12C2.75 7.18484 6.42921 3.22901 11.1297 2.7904L10.4697 2.13033C10.1768 1.83744 10.1768 1.36256 10.4697 1.06967ZM16.3938 4.68376C16.6377 4.34897 17.1069 4.27531 17.4416 4.51922C19.7484 6.19984 21.25 8.9246 21.25 12C21.25 16.8152 17.5708 20.771 12.8703 21.2096L13.5303 21.8697C13.8232 22.1626 13.8232 22.6374 13.5303 22.9303C13.2374 23.2232 12.7626 23.2232 12.4697 22.9303L10.4697 20.9303C10.1768 20.6374 10.1768 20.1626 10.4697 19.8697L12.4697 17.8697C12.7626 17.5768 13.2374 17.5768 13.5303 17.8697C13.8232 18.1626 13.8232 18.6374 13.5303 18.9303L12.7461 19.7145C16.6763 19.3391 19.75 16.0285 19.75 12C19.75 9.42432 18.4943 7.14202 16.5584 5.73158C16.2236 5.48766 16.1499 5.01854 16.3938 4.68376Z"
        fill="#303233" />
</svg>
