<svg width="16" height="16" viewBox="0 0 16 16" fill="none" xmlns="http://www.w3.org/2000/svg">
    <g clip-path="url(#clip0_8252_49)">
        <path fill-rule="evenodd" clip-rule="evenodd"
            d="M2.29847 7.25H4.69074C4.8426 5.55945 5.39429 3.93467 6.29304 2.5076C4.18154 3.16311 2.59121 5.00271 2.29847 7.25ZM8 2.67261C6.99515 4.00572 6.37164 5.58843 6.19778 7.25H9.80222C9.62836 5.58843 9.00485 4.00572 8 2.67261ZM11.3093 8.75H14.5C14.9142 8.75 15.25 8.41421 15.25 8C15.25 3.99594 12.0041 0.75 8 0.75C3.99594 0.75 0.75 3.99594 0.75 8C0.75 12.0041 3.99594 15.25 8 15.25C8.21069 15.25 8.41166 15.1614 8.55376 15.0058C10.1363 13.2732 11.1005 11.0738 11.3093 8.75ZM9.80222 8.75C9.62836 10.4116 9.00485 11.9943 8 13.3274C6.99515 11.9943 6.37164 10.4116 6.19778 8.75H9.80222ZM4.69074 8.75H2.29847C2.59121 10.9973 4.18153 12.8369 6.29304 13.4924C5.39429 12.0653 4.8426 10.4405 4.69074 8.75ZM11.3093 7.25C11.1574 5.55945 10.6057 3.93467 9.70695 2.5076C11.8185 3.16311 13.4088 5.00271 13.7015 7.25H11.3093Z"
            fill="#303233" />
        <path fill-rule="evenodd" clip-rule="evenodd"
            d="M12.9356 15.6355L12.7724 15.2686C12.7143 15.1376 12.6161 15.0285 12.4921 14.9569C12.3679 14.8853 12.2243 14.8548 12.0818 14.8697L11.6826 14.9122C11.5638 14.9247 11.444 14.9025 11.3375 14.8483C11.2311 14.7941 11.1426 14.7102 11.0828 14.6068C11.0231 14.5033 10.9946 14.3848 11.0009 14.2655C11.0071 14.1462 11.0479 14.0313 11.1182 13.9347L11.3545 13.61C11.4388 13.4941 11.4842 13.3545 11.4841 13.2112C11.4842 13.0679 11.4388 12.9282 11.3545 12.8123L11.1182 12.4876C11.0479 12.391 11.0071 12.2761 11.0009 12.1568C10.9946 12.0375 11.0231 11.919 11.0828 11.8156C11.1425 11.7121 11.231 11.6281 11.3375 11.5739C11.4439 11.5197 11.5638 11.4975 11.6826 11.5101L12.083 11.5526C12.2255 11.5676 12.3692 11.537 12.4933 11.4654C12.6169 11.3936 12.7146 11.2845 12.7724 11.1538L12.9356 10.7869C12.9841 10.6777 13.0632 10.5849 13.1634 10.5197C13.2636 10.4546 13.3805 10.42 13.5 10.42C13.6195 10.42 13.7364 10.4546 13.8366 10.5197C13.9368 10.5849 14.0159 10.6777 14.0644 10.7869L14.2288 11.1538C14.2866 11.2845 14.3843 11.3936 14.5079 11.4654C14.6321 11.537 14.7757 11.5676 14.9182 11.5526L15.3174 11.5101C15.4362 11.4975 15.5561 11.5197 15.6625 11.5739C15.769 11.6281 15.8575 11.7121 15.9172 11.8156C15.9769 11.919 16.0054 12.0375 15.9991 12.1568C15.9929 12.2761 15.9521 12.391 15.8818 12.4876L15.6455 12.8123C15.5612 12.9282 15.5158 13.0679 15.5159 13.2112C15.5151 13.3549 15.5601 13.4951 15.6442 13.6115L15.8806 13.9363C15.9509 14.0328 15.9916 14.1477 15.9979 14.267C16.0042 14.3863 15.9757 14.5049 15.9159 14.6083C15.8562 14.7118 15.7678 14.7957 15.6613 14.85C15.5548 14.9042 15.4349 14.9264 15.3161 14.9138L14.917 14.8713C14.7745 14.8563 14.6308 14.8868 14.5067 14.9584C14.3833 15.0299 14.2856 15.1384 14.2276 15.2686L14.0644 15.6355C14.0159 15.7447 13.9368 15.8375 13.8366 15.9026C13.7364 15.9677 13.6195 16.0024 13.5 16.0023C13.3805 16.0024 13.2636 15.9677 13.1634 15.9026C13.0632 15.8375 12.9841 15.7447 12.9356 15.6355ZM13.5028 14.1416C14.0166 14.1416 14.4332 13.725 14.4332 13.2112C14.4332 12.6973 14.0166 12.2808 13.5028 12.2808C12.9889 12.2808 12.5724 12.6973 12.5724 13.2112C12.5724 13.725 12.9889 14.1416 13.5028 14.1416Z"
            fill="#303233" />
    </g>
    <defs>
        <clipPath id="clip0_8252_49">
            <rect width="16" height="16" fill="white" />
        </clipPath>
    </defs>
</svg>
