<svg width="24" height="24" viewBox="0 0 24 24" fill="none" xmlns="http://www.w3.org/2000/svg">
    <path fill-rule="evenodd" clip-rule="evenodd"
        d="M5.63604 4.22182C6.02656 4.61234 6.02656 5.24551 5.63604 5.63603C2.12132 9.15075 2.12132 14.8492 5.63604 18.364C6.02656 18.7545 6.02656 19.3876 5.63604 19.7782C5.24551 20.1687 4.61235 20.1687 4.22183 19.7782C-0.0739417 15.4824 -0.0739417 8.51759 4.22183 4.22182C4.61235 3.83129 5.24551 3.83129 5.63604 4.22182ZM18.364 4.22186C18.7545 3.83134 19.3876 3.83134 19.7782 4.22186C24.0739 8.51763 24.0739 15.4824 19.7782 19.7782C19.3876 20.1687 18.7545 20.1687 18.364 19.7782C17.9734 19.3877 17.9734 18.7545 18.364 18.364C21.8787 14.8493 21.8787 9.1508 18.364 5.63608C17.9734 5.24555 17.9734 4.61239 18.364 4.22186ZM8.46447 7.05021C8.85499 7.44073 8.85499 8.0739 8.46447 8.46442C6.51184 10.417 6.51184 13.5829 8.46447 15.5355C8.85499 15.926 8.85499 16.5592 8.46447 16.9497C8.07394 17.3402 7.44078 17.3402 7.05025 16.9497C4.31658 14.216 4.31658 9.78388 7.05025 7.05021C7.44078 6.65969 8.07394 6.65969 8.46447 7.05021ZM15.5355 7.05024C15.9261 6.65972 16.5592 6.65972 16.9497 7.05024C19.6834 9.78392 19.6834 14.2161 16.9497 16.9497C16.5592 17.3403 15.9261 17.3403 15.5355 16.9497C15.145 16.5592 15.145 15.926 15.5355 15.5355C17.4882 13.5829 17.4882 10.4171 15.5355 8.46446C15.145 8.07393 15.145 7.44077 15.5355 7.05024ZM9 12C9 10.3431 10.3431 8.99999 12 8.99999C13.6569 8.99999 15 10.3431 15 12C15 13.6568 13.6569 15 12 15C10.3431 15 9 13.6568 9 12Z"
        fill="#303233" />
</svg>
