<svg width="24" height="24" viewBox="0 0 24 24" fill="none" xmlns="http://www.w3.org/2000/svg">
    <path fill-rule="evenodd" clip-rule="evenodd"
        d="M8.05608 5.4844L13.9207 10.1761C14.1718 10.3769 14.3978 10.5577 14.57 10.7227C14.7522 10.8971 14.9382 11.1121 15.0434 11.4008C15.1845 11.7878 15.1845 12.2122 15.0434 12.5992C14.9382 12.8879 14.7522 13.1029 14.57 13.2773C14.3978 13.4423 14.1718 13.623 13.9207 13.8239L8.05607 18.5156C7.65702 18.8349 7.31711 19.1068 7.03185 19.2948C6.75157 19.4795 6.39651 19.6735 5.98224 19.6693C5.46309 19.664 4.97307 19.4285 4.64465 19.0264C4.38257 18.7055 4.31221 18.3071 4.28136 17.9729C4.24997 17.6327 4.24998 17.1974 4.25 16.6863V7.31369C4.24998 6.80264 4.24997 6.36732 4.28136 6.02712C4.31221 5.69287 4.38257 5.29446 4.64465 4.9736C4.97307 4.5715 5.46309 4.33598 5.98224 4.33072C6.39651 4.32651 6.75157 4.52045 7.03185 4.70517C7.31711 4.89318 7.65703 5.16513 8.05608 5.4844Z"
        fill="#303233" />
    <path fill-rule="evenodd" clip-rule="evenodd"
        d="M19 4.25C19.4142 4.25 19.75 4.58579 19.75 5V19C19.75 19.4142 19.4142 19.75 19 19.75C18.5858 19.75 18.25 19.4142 18.25 19V5C18.25 4.58579 18.5858 4.25 19 4.25Z"
        fill="#303233" />
</svg>
