<svg width="16" height="16" viewBox="0 0 16 16" fill="none" xmlns="http://www.w3.org/2000/svg">
    <path fill-rule="evenodd" clip-rule="evenodd"
        d="M4.9096 1H3.0904C2.8224 0.999992 2.59118 0.999984 2.40085 1.01579C2.19991 1.03248 2.00017 1.06934 1.80854 1.16888C1.53457 1.31119 1.31119 1.53457 1.16888 1.80854C1.06934 2.00017 1.03248 2.19991 1.01579 2.40085C0.999984 2.59118 0.999992 2.82238 1 3.09038V4.9096C0.999992 5.17761 0.999984 5.40882 1.01579 5.59915C1.03248 5.80009 1.06934 5.99983 1.16888 6.19146C1.31119 6.46543 1.53457 6.68881 1.80854 6.83112C2.00017 6.93067 2.19991 6.96753 2.40085 6.98421C2.59118 7.00002 2.82238 7.00001 3.09039 7H4.90961C5.17762 7.00001 5.40882 7.00002 5.59915 6.98421C5.80009 6.96753 5.99983 6.93067 6.19146 6.83112C6.46543 6.68881 6.68881 6.46543 6.83112 6.19146C6.93067 5.99983 6.96753 5.80009 6.98421 5.59915C7.00002 5.40882 7.00001 5.17762 7 4.90961V3.09039C7.00001 2.82238 7.00002 2.59118 6.98421 2.40085C6.96753 2.19991 6.93067 2.00017 6.83112 1.80854C6.68881 1.53457 6.46543 1.31119 6.19146 1.16888C5.99983 1.06934 5.80009 1.03248 5.59915 1.01579C5.40882 0.999984 5.17761 0.999992 4.9096 1ZM2.26951 2.05629C2.29462 2.04325 2.34563 2.02382 2.48361 2.01236C2.62758 2.0004 2.81686 2 3.11 2H4.89C5.18314 2 5.37242 2.0004 5.51639 2.01236C5.65438 2.02382 5.70538 2.04325 5.73049 2.05629C5.82181 2.10373 5.89627 2.17819 5.94371 2.26951C5.95675 2.29462 5.97618 2.34563 5.98764 2.48361C5.9996 2.62758 6 2.81686 6 3.11V4.89C6 5.18314 5.9996 5.37242 5.98764 5.51639C5.97618 5.65438 5.95675 5.70538 5.94371 5.73049C5.89627 5.82181 5.82181 5.89627 5.73049 5.94371C5.70538 5.95675 5.65438 5.97618 5.51639 5.98764C5.37242 5.9996 5.18314 6 4.89 6H3.11C2.81686 6 2.62758 5.9996 2.48361 5.98764C2.34563 5.97618 2.29462 5.95675 2.26951 5.94371C2.17819 5.89627 2.10373 5.82181 2.05629 5.73049C2.04325 5.70538 2.02382 5.65438 2.01236 5.51639C2.0004 5.37242 2 5.18314 2 4.89V3.11C2 2.81686 2.0004 2.62758 2.01236 2.48361C2.02382 2.34563 2.04325 2.29462 2.05629 2.26951C2.10373 2.17819 2.17819 2.10373 2.26951 2.05629Z"
        fill="#303233" />
    <path fill-rule="evenodd" clip-rule="evenodd"
        d="M12.9096 1H11.0904C10.8224 0.999992 10.5912 0.999984 10.4009 1.01579C10.1999 1.03248 10.0002 1.06934 9.80854 1.16888C9.53457 1.31119 9.31119 1.53457 9.16888 1.80854C9.06933 2.00017 9.03248 2.19991 9.01579 2.40085C8.99998 2.59117 8.99999 2.82235 9 3.09034V4.9096C8.99999 5.17759 8.99998 5.40883 9.01579 5.59915C9.03248 5.80009 9.06933 5.99983 9.16888 6.19146C9.31119 6.46543 9.53457 6.68881 9.80854 6.83112C10.0002 6.93067 10.1999 6.96753 10.4009 6.98421C10.5912 7.00002 10.8224 7.00001 11.0904 7H12.9096C13.1776 7.00001 13.4088 7.00002 13.5992 6.98421C13.8001 6.96753 13.9998 6.93067 14.1915 6.83112C14.4654 6.68881 14.6888 6.46543 14.8311 6.19146C14.9307 5.99983 14.9675 5.80009 14.9842 5.59915C15 5.40883 15 5.17765 15 4.90967V3.09039C15 2.82241 15 2.59117 14.9842 2.40085C14.9675 2.19991 14.9307 2.00017 14.8311 1.80854C14.6888 1.53457 14.4654 1.31119 14.1915 1.16888C13.9998 1.06934 13.8001 1.03248 13.5992 1.01579C13.4088 0.999984 13.1776 0.999992 12.9096 1ZM10.2695 2.05629C10.2946 2.04325 10.3456 2.02382 10.4836 2.01236C10.6276 2.0004 10.8169 2 11.11 2H12.89C13.1831 2 13.3724 2.0004 13.5164 2.01236C13.6544 2.02382 13.7054 2.04325 13.7305 2.05629C13.8218 2.10373 13.8963 2.17819 13.9437 2.26951C13.9567 2.29462 13.9762 2.34563 13.9876 2.48361C13.9996 2.62758 14 2.81686 14 3.11V4.89C14 5.18314 13.9996 5.37242 13.9876 5.51639C13.9762 5.65438 13.9567 5.70538 13.9437 5.73049C13.8963 5.82181 13.8218 5.89627 13.7305 5.94371C13.7054 5.95675 13.6544 5.97618 13.5164 5.98764C13.3724 5.9996 13.1831 6 12.89 6H11.11C10.8169 6 10.6276 5.9996 10.4836 5.98764C10.3456 5.97618 10.2946 5.95675 10.2695 5.94371C10.1782 5.89627 10.1037 5.82181 10.0563 5.73049C10.0433 5.70538 10.0238 5.65438 10.0124 5.51639C10.0004 5.37242 10 5.18314 10 4.89V3.11C10 2.81686 10.0004 2.62758 10.0124 2.48361C10.0238 2.34563 10.0433 2.29462 10.0563 2.26951C10.1037 2.17819 10.1782 2.10373 10.2695 2.05629Z"
        fill="#303233" />
    <path fill-rule="evenodd" clip-rule="evenodd"
        d="M3.0904 9H4.9096C5.17759 8.99999 5.40883 8.99998 5.59915 9.01579C5.80009 9.03248 5.99983 9.06933 6.19146 9.16888C6.46543 9.31119 6.68881 9.53457 6.83112 9.80854C6.93067 10.0002 6.96753 10.1999 6.98421 10.4009C7.00002 10.5912 7.00001 10.8224 7 11.0904V12.9096C7.00001 13.1776 7.00002 13.4088 6.98421 13.5992C6.96753 13.8001 6.93067 13.9998 6.83112 14.1915C6.68881 14.4654 6.46543 14.6888 6.19146 14.8311C5.99983 14.9307 5.80009 14.9675 5.59915 14.9842C5.40883 15 5.17764 15 4.90965 15H3.09039C2.8224 15 2.59117 15 2.40085 14.9842C2.19991 14.9675 2.00017 14.9307 1.80854 14.8311C1.53457 14.6888 1.31119 14.4654 1.16888 14.1915C1.06934 13.9998 1.03248 13.8001 1.01579 13.5992C0.999984 13.4088 0.999992 13.1776 1 12.9096V11.0904C0.999992 10.8224 0.999984 10.5912 1.01579 10.4009C1.03248 10.1999 1.06934 10.0002 1.16888 9.80854C1.31119 9.53457 1.53457 9.31119 1.80854 9.16888C2.00017 9.06933 2.19991 9.03248 2.40085 9.01579C2.59117 8.99998 2.82241 8.99999 3.0904 9ZM2.48361 10.0124C2.34563 10.0238 2.29462 10.0433 2.26951 10.0563C2.17819 10.1037 2.10373 10.1782 2.05629 10.2695C2.04325 10.2946 2.02382 10.3456 2.01236 10.4836C2.0004 10.6276 2 10.8169 2 11.11V12.89C2 13.1831 2.0004 13.3724 2.01236 13.5164C2.02382 13.6544 2.04325 13.7054 2.05629 13.7305C2.10373 13.8218 2.17819 13.8963 2.26951 13.9437C2.29462 13.9567 2.34563 13.9762 2.48361 13.9876C2.62758 13.9996 2.81686 14 3.11 14H4.89C5.18314 14 5.37242 13.9996 5.51639 13.9876C5.65438 13.9762 5.70538 13.9567 5.73049 13.9437C5.82181 13.8963 5.89627 13.8218 5.94371 13.7305C5.95675 13.7054 5.97618 13.6544 5.98764 13.5164C5.9996 13.3724 6 13.1831 6 12.89V11.11C6 10.8169 5.9996 10.6276 5.98764 10.4836C5.97618 10.3456 5.95675 10.2946 5.94371 10.2695C5.89627 10.1782 5.82181 10.1037 5.73049 10.0563C5.70538 10.0433 5.65438 10.0238 5.51639 10.0124C5.37242 10.0004 5.18314 10 4.89 10H3.11C2.81686 10 2.62758 10.0004 2.48361 10.0124Z"
        fill="#303233" />
    <path fill-rule="evenodd" clip-rule="evenodd"
        d="M12.9096 9H11.0904C10.8224 8.99999 10.5912 8.99998 10.4009 9.01579C10.1999 9.03248 10.0002 9.06933 9.80854 9.16888C9.53457 9.31119 9.31119 9.53457 9.16888 9.80854C9.06933 10.0002 9.03248 10.1999 9.01579 10.4009C8.99998 10.5912 8.99999 10.8224 9 11.0904V12.9096C8.99999 13.1776 8.99998 13.4088 9.01579 13.5992C9.03248 13.8001 9.06933 13.9998 9.16888 14.1915C9.31119 14.4654 9.53457 14.6888 9.80854 14.8311C10.0002 14.9307 10.1999 14.9675 10.4009 14.9842C10.5912 15 10.8224 15 11.0904 15H12.9096C13.1776 15 13.4088 15 13.5992 14.9842C13.8001 14.9675 13.9998 14.9307 14.1915 14.8311C14.4654 14.6888 14.6888 14.4654 14.8311 14.1915C14.9307 13.9998 14.9675 13.8001 14.9842 13.5992C15 13.4088 15 13.1776 15 12.9096V11.0904C15 10.8224 15 10.5912 14.9842 10.4009C14.9675 10.1999 14.9307 10.0002 14.8311 9.80854C14.6888 9.53457 14.4654 9.31119 14.1915 9.16888C13.9998 9.06933 13.8001 9.03248 13.5992 9.01579C13.4088 8.99998 13.1776 8.99999 12.9096 9ZM10.2695 10.0563C10.2946 10.0433 10.3456 10.0238 10.4836 10.0124C10.6276 10.0004 10.8169 10 11.11 10H12.89C13.1831 10 13.3724 10.0004 13.5164 10.0124C13.6544 10.0238 13.7054 10.0433 13.7305 10.0563C13.8218 10.1037 13.8963 10.1782 13.9437 10.2695C13.9567 10.2946 13.9762 10.3456 13.9876 10.4836C13.9996 10.6276 14 10.8169 14 11.11V12.89C14 13.1831 13.9996 13.3724 13.9876 13.5164C13.9762 13.6544 13.9567 13.7054 13.9437 13.7305C13.8963 13.8218 13.8218 13.8963 13.7305 13.9437C13.7054 13.9567 13.6544 13.9762 13.5164 13.9876C13.3724 13.9996 13.1831 14 12.89 14H11.11C10.8169 14 10.6276 13.9996 10.4836 13.9876C10.3456 13.9762 10.2946 13.9567 10.2695 13.9437C10.1782 13.8963 10.1037 13.8218 10.0563 13.7305C10.0433 13.7054 10.0238 13.6544 10.0124 13.5164C10.0004 13.3724 10 13.1831 10 12.89V11.11C10 10.8169 10.0004 10.6276 10.0124 10.4836C10.0238 10.3456 10.0433 10.2946 10.0563 10.2695C10.1037 10.1782 10.1782 10.1037 10.2695 10.0563Z"
        fill="#303233" />
</svg>
