<svg width="16" height="16" viewBox="0 0 16 16" fill="none" xmlns="http://www.w3.org/2000/svg">
    <g clip-path="url(#clip0_53_9516)">
        <path fill-rule="evenodd" clip-rule="evenodd"
            d="M1.35355 0.646447C1.15829 0.451184 0.841709 0.451184 0.646447 0.646447C0.451184 0.841709 0.451184 1.15829 0.646447 1.35355L14.6464 15.3536C14.8417 15.5488 15.1583 15.5488 15.3536 15.3536C15.5488 15.1583 15.5488 14.8417 15.3536 14.6464L14.3683 13.6612C14.5092 13.5028 14.6301 13.3261 14.7275 13.135C14.8784 12.8388 14.9413 12.5187 14.9711 12.1543C15 11.8004 15 11.3633 15 10.8215V5.17858C15 4.63672 15 4.19961 14.9711 3.84569C14.9413 3.48126 14.8784 3.16117 14.7275 2.86502C14.4878 2.39462 14.1054 2.01217 13.635 1.77248C13.3388 1.62159 13.0187 1.55868 12.6543 1.52891C12.3004 1.49999 11.8633 1.5 11.3214 1.5L4.6786 1.5C4.1367 1.5 3.69963 1.49999 3.34569 1.52891C3.01277 1.55611 2.71685 1.61096 2.44239 1.73528L1.35355 0.646447ZM6.26173 5.55463L6.98402 6.27691C7.28177 6.10096 7.6291 6 8 6C9.10457 6 10 6.89543 10 8C10 8.3709 9.89904 8.71823 9.72309 9.01598L10.4454 9.73827C10.7946 9.24786 11 8.64791 11 8C11 6.34315 9.65685 5 8 5C7.35208 5 6.75214 5.2054 6.26173 5.55463Z"
            fill="#303233" />
        <path
            d="M12.3667 14.4881L8.77706 10.8984C8.52922 10.9647 8.26874 11 8 11C6.34314 11 5 9.65685 5 8C5 7.73126 5.03534 7.47078 5.10161 7.22294L1.12618 3.2475C1.07509 3.43444 1.04633 3.63248 1.02891 3.84569C0.999991 4.19963 0.999995 4.6367 1 5.17859V10.8214C0.999995 11.3633 0.999991 11.8004 1.02891 12.1543C1.05868 12.5187 1.12159 12.8388 1.27248 13.135C1.51217 13.6054 1.89462 13.9878 2.36502 14.2275C2.66117 14.3784 2.98126 14.4413 3.34569 14.4711C3.69961 14.5 4.13667 14.5 4.67853 14.5L11.3214 14.5C11.725 14.5 12.0705 14.5 12.3667 14.4881Z"
            fill="#303233" />
    </g>
    <defs>
        <clipPath id="clip0_53_9516">
            <rect width="16" height="16" fill="white" />
        </clipPath>
    </defs>
</svg>
