<svg width="24" height="24" viewBox="0 0 24 24" fill="none" xmlns="http://www.w3.org/2000/svg">
    <path fill-rule="evenodd" clip-rule="evenodd"
        d="M12 1C5.92487 1 1 5.92487 1 12C1 18.0751 5.92487 23 12 23C18.0751 23 23 18.0751 23 12C23 5.92487 18.0751 1 12 1ZM8.99254 7.5C8.16823 7.5 7.5 8.17157 7.5 9C7.5 9.82843 8.16823 10.5 8.99254 10.5H9.00746C9.83177 10.5 10.5 9.82843 10.5 9C10.5 8.17157 9.83177 7.5 9.00746 7.5H8.99254ZM14.9925 7.5C14.1682 7.5 13.5 8.17157 13.5 9C13.5 9.82843 14.1682 10.5 14.9925 10.5H15.0075C15.8318 10.5 16.5 9.82843 16.5 9C16.5 8.17157 15.8318 7.5 15.0075 7.5H14.9925ZM5 13C5 12.4477 5.44772 12 6 12H18C18.5523 12 19 12.4477 19 13C19 14.5538 18.1456 16.0583 16.9105 17.1441C15.6602 18.2433 13.9298 19 12 19C10.0702 19 8.33985 18.2433 7.08949 17.1441C5.8544 16.0583 5 14.5538 5 13Z"
        fill="#303233" />
</svg>
