<svg width="16" height="16" viewBox="0 0 16 16" fill="none" xmlns="http://www.w3.org/2000/svg">
    <path
        d="M2.8 1C1.80589 1 1 1.80589 1 2.8V4C1 4.27614 1.22386 4.5 1.5 4.5C1.77614 4.5 2 4.27614 2 4L2 2.8C2 2.35817 2.35817 2 2.8 2H4C4.27614 2 4.5 1.77614 4.5 1.5C4.5 1.22386 4.27614 1 4 1H2.8Z"
        fill="#303233" />
    <path
        d="M6.5 1C6.22386 1 6 1.22386 6 1.5C6 1.77614 6.22386 2 6.5 2H9.5C9.77614 2 10 1.77614 10 1.5C10 1.22386 9.77614 1 9.5 1H6.5Z"
        fill="#303233" />
    <path
        d="M12 1C11.7239 1 11.5 1.22386 11.5 1.5C11.5 1.77614 11.7239 2 12 2H13.2C13.6418 2 14 2.35817 14 2.8V4C14 4.27614 14.2239 4.5 14.5 4.5C14.7761 4.5 15 4.27614 15 4V2.8C15 1.80589 14.1941 1 13.2 1H12Z"
        fill="#303233" />
    <path
        d="M2 6.5C2 6.22386 1.77614 6 1.5 6C1.22386 6 1 6.22386 1 6.5V9.5C1 9.77614 1.22386 10 1.5 10C1.77614 10 2 9.77614 2 9.5V6.5Z"
        fill="#303233" />
    <path
        d="M15 6.5C15 6.22386 14.7761 6 14.5 6C14.2239 6 14 6.22386 14 6.5V9.5C14 9.77614 14.2239 10 14.5 10C14.7761 10 15 9.77614 15 9.5V6.5Z"
        fill="#303233" />
    <path
        d="M2 12C2 11.7239 1.77614 11.5 1.5 11.5C1.22386 11.5 1 11.7239 1 12V13.2C1 14.1941 1.80589 15 2.8 15H4C4.27614 15 4.5 14.7761 4.5 14.5C4.5 14.2239 4.27614 14 4 14H2.8C2.35817 14 2 13.6418 2 13.2L2 12Z"
        fill="#303233" />
    <path
        d="M15 12C15 11.7239 14.7761 11.5 14.5 11.5C14.2239 11.5 14 11.7239 14 12V13.2C14 13.6418 13.6418 14 13.2 14H12C11.7239 14 11.5 14.2239 11.5 14.5C11.5 14.7761 11.7239 15 12 15H13.2C14.1941 15 15 14.1941 15 13.2V12Z"
        fill="#303233" />
    <path
        d="M6.5 14C6.22386 14 6 14.2239 6 14.5C6 14.7761 6.22386 15 6.5 15H9.5C9.77614 15 10 14.7761 10 14.5C10 14.2239 9.77614 14 9.5 14H6.5Z"
        fill="#303233" />
    <path
        d="M3.5 3C3.22386 3 3 3.22386 3 3.5V12.5C3 12.7761 3.22386 13 3.5 13H12.5C12.7761 13 13 12.7761 13 12.5V3.5C13 3.22386 12.7761 3 12.5 3H3.5Z"
        fill="#303233" />
</svg>
