<svg width="16" height="16" viewBox="0 0 16 16" fill="none" xmlns="http://www.w3.org/2000/svg">
    <path fill-rule="evenodd" clip-rule="evenodd"
        d="M5.5 0.5C5.77614 0.5 6 0.723858 6 1V2H10V1C10 0.723858 10.2239 0.5 10.5 0.5C10.7761 0.5 11 0.723858 11 1V2H13.0556C14.091 2 15 2.78388 15 3.83333V13.1667C15 14.2161 14.091 15 13.0556 15H2.94444C1.90899 15 1 14.2161 1 13.1667V3.83333C1 2.78388 1.90899 2 2.94444 2H5V1C5 0.723858 5.22386 0.5 5.5 0.5ZM10 3V4C10 4.27614 10.2239 4.5 10.5 4.5C10.7761 4.5 11 4.27614 11 4V3H13.0556C13.6156 3 14 3.41002 14 3.83333V5.16667C14 5.58998 13.6156 6 13.0556 6H2.94444C2.38441 6 2 5.58998 2 5.16667V3.83333C2 3.41002 2.38441 3 2.94444 3H5V4C5 4.27614 5.22386 4.5 5.5 4.5C5.77614 4.5 6 4.27614 6 4V3H10ZM6.75 8C6.47386 8 6.25 8.22386 6.25 8.5C6.25 8.77614 6.47486 9.001 6.751 9.001C7.02714 9.001 7.251 8.77614 7.251 8.5C7.251 8.22386 7.02614 8 6.75 8ZM11.75 8C11.4739 8 11.25 8.22386 11.25 8.5C11.25 8.77614 11.4749 9.001 11.751 9.001C12.0271 9.001 12.251 8.77614 12.251 8.5C12.251 8.22386 12.0261 8 11.75 8ZM8.75 8.5C8.75 8.22386 8.97386 8 9.25 8C9.52614 8 9.751 8.22386 9.751 8.5C9.751 8.77614 9.52714 9.001 9.251 9.001C8.97486 9.001 8.75 8.77614 8.75 8.5ZM4.25 12C3.97386 12 3.75 12.2239 3.75 12.5C3.75 12.7761 3.97486 13.001 4.251 13.001C4.52714 13.001 4.751 12.7761 4.751 12.5C4.751 12.2239 4.52614 12 4.25 12ZM6.25 12.5C6.25 12.2239 6.47386 12 6.75 12C7.02614 12 7.251 12.2239 7.251 12.5C7.251 12.7761 7.02714 13.001 6.751 13.001C6.47486 13.001 6.25 12.7761 6.25 12.5ZM9.25 12C8.97386 12 8.75 12.2239 8.75 12.5C8.75 12.7761 8.97486 13.001 9.251 13.001C9.52714 13.001 9.751 12.7761 9.751 12.5C9.751 12.2239 9.52614 12 9.25 12ZM3.75 10.5C3.75 10.2239 3.97386 10 4.25 10C4.52614 10 4.751 10.2239 4.751 10.5C4.751 10.7761 4.52714 11.001 4.251 11.001C3.97486 11.001 3.75 10.7761 3.75 10.5ZM6.75 10C6.47386 10 6.25 10.2239 6.25 10.5C6.25 10.7761 6.47486 11.001 6.751 11.001C7.02714 11.001 7.251 10.7761 7.251 10.5C7.251 10.2239 7.02614 10 6.75 10ZM11.25 10.5C11.25 10.2239 11.4739 10 11.75 10C12.0261 10 12.251 10.2239 12.251 10.5C12.251 10.7761 12.0271 11.001 11.751 11.001C11.4749 11.001 11.25 10.7761 11.25 10.5ZM9.25 10C8.97386 10 8.75 10.2239 8.75 10.5C8.75 10.7761 8.97486 11.001 9.251 11.001C9.52714 11.001 9.751 10.7761 9.751 10.5C9.751 10.2239 9.52614 10 9.25 10Z"
        fill="#303233" />
</svg>
