<svg width="16" height="16" viewBox="0 0 16 16" fill="none" xmlns="http://www.w3.org/2000/svg">
    <path fill-rule="evenodd" clip-rule="evenodd"
        d="M6.75 12.0049C6.75 13.5239 5.519 14.7549 4 14.7549C2.481 14.7549 1.25 13.5239 1.25 12.0049C1.25 10.4859 2.481 9.25492 4 9.25492C4.45 9.25492 4.875 9.36293 5.25 9.55492V4.66992C5.25 4.44992 5.25 4.24492 5.263 4.07092C5.277 3.88192 5.31 3.67692 5.403 3.46892C5.538 3.16792 5.756 2.91092 6.031 2.72792C6.221 2.60192 6.418 2.53592 6.602 2.49092C6.771 2.44992 6.973 2.41592 7.191 2.37992L7.214 2.37592L12.042 1.57092C12.338 1.52192 12.606 1.47692 12.83 1.45892C13.069 1.43992 13.337 1.44392 13.609 1.54492C13.993 1.68692 14.314 1.95992 14.518 2.31492C14.663 2.56692 14.71 2.83092 14.731 3.06892C14.75 3.29292 14.75 3.56492 14.75 3.86492V11.0049C14.75 12.5239 13.519 13.7549 12 13.7549C10.481 13.7549 9.25 12.5239 9.25 11.0049C9.25 9.48592 10.481 8.25492 12 8.25492C12.45 8.25492 12.875 8.36293 13.25 8.55492V3.89392C13.25 3.55492 13.249 3.34992 13.236 3.19892C13.228 3.10592 13.218 3.06692 13.214 3.05592C13.186 3.00992 13.143 2.97292 13.092 2.95292C13.081 2.95092 13.041 2.94692 12.948 2.95492C12.797 2.96692 12.594 2.99992 12.26 3.05492L7.46 3.85492C7.212 3.89692 7.066 3.92092 6.959 3.94792C6.894 3.96392 6.867 3.97492 6.86 3.97792L6.858 3.97992C6.822 4.00492 6.792 4.03892 6.774 4.07892L6.773 4.08092C6.771 4.08892 6.764 4.11692 6.759 4.18392C6.75 4.29392 6.75 4.44192 6.75 4.69392V12.0049ZM5.25 12.0049C5.25 11.3149 4.69 10.7549 4 10.7549C3.31 10.7549 2.75 11.3149 2.75 12.0049C2.75 12.6949 3.31 13.2549 4 13.2549C4.69 13.2549 5.25 12.6949 5.25 12.0049ZM13.25 11.0049C13.25 10.3149 12.69 9.75492 12 9.75492C11.31 9.75492 10.75 10.3149 10.75 11.0049C10.75 11.6949 11.31 12.2549 12 12.2549C12.69 12.2549 13.25 11.6949 13.25 11.0049Z"
        fill="#303233" />
</svg>
