<svg width="24" height="24" viewBox="0 0 24 24" fill="none" xmlns="http://www.w3.org/2000/svg">
    <path fill-rule="evenodd" clip-rule="evenodd"
        d="M4.98542 2.25C3.47469 2.25 2.25 3.47469 2.25 4.98542V19.0146C2.25 20.5253 3.47469 21.75 4.98542 21.75H19.0146C20.5253 21.75 21.75 20.5253 21.75 19.0146V4.98542C21.75 3.47469 20.5253 2.25 19.0146 2.25H4.98542ZM8 11.25C7.58579 11.25 7.25 11.5858 7.25 12C7.25 12.4142 7.58579 12.75 8 12.75H16C16.4142 12.75 16.75 12.4142 16.75 12C16.75 11.5858 16.4142 11.25 16 11.25H8Z"
        fill="#303233" />
</svg>
