<svg width="24" height="16" viewBox="0 0 24 16" fill="none" xmlns="http://www.w3.org/2000/svg">
    <path fill-rule="evenodd" clip-rule="evenodd"
        d="M2.3357 5.42578C1.94523 6.04296 1.75 6.89631 1.75 7.98583C1.75 9.08165 1.94523 9.9413 2.3357 10.5648C2.73246 11.1883 3.38743 11.5 4.30061 11.5C5.21379 11.5 5.86561 11.1883 6.25607 10.5648C6.65283 9.9413 6.85122 9.08165 6.85122 7.98583C6.85122 6.89631 6.65283 6.04296 6.25607 5.42578C5.86561 4.80859 5.21379 4.5 4.30061 4.5C3.38743 4.5 2.73246 4.80859 2.3357 5.42578ZM5.4531 6.81444C5.51608 7.12933 5.54757 7.51979 5.54757 7.98583C5.54757 8.46446 5.51923 8.86752 5.46255 9.19501C5.40587 9.51619 5.28621 9.77755 5.10358 9.97908C4.92094 10.1743 4.65328 10.2719 4.30061 10.2719C3.94793 10.2719 3.68027 10.1743 3.49764 9.97908C3.315 9.77755 3.19534 9.51619 3.13866 9.19501C3.08198 8.86752 3.05364 8.46446 3.05364 7.98583C3.05364 7.51979 3.08198 7.12933 3.13866 6.81444C3.20164 6.49325 3.3213 6.23189 3.49764 6.03036C3.68027 5.82884 3.94793 5.72807 4.30061 5.72807C4.65328 5.72807 4.91779 5.82884 5.09413 6.03036C5.27677 6.23189 5.39642 6.49325 5.4531 6.81444Z"
        fill="#303233" />
    <path
        d="M11.5381 5.69941H14.6292V4.52594H10.3169V8.60924H11.5954C11.6717 8.38663 11.7989 8.20854 11.977 8.07497C12.1551 7.94141 12.3777 7.87462 12.6448 7.87462C13.0201 7.87462 13.3031 7.97957 13.4939 8.18946C13.6911 8.39299 13.7897 8.69192 13.7897 9.08626C13.7897 9.47423 13.6943 9.78589 13.5034 10.0212C13.3126 10.2565 13.0296 10.3742 12.6543 10.3742C12.3427 10.3742 12.0851 10.2979 11.8816 10.1452C11.6844 9.9926 11.5572 9.78907 11.5 9.53466H10.2025C10.2597 10.1198 10.5046 10.5936 10.9371 10.9562C11.3696 11.3187 11.9484 11.5 12.6734 11.5C13.443 11.5 14.0345 11.2774 14.4479 10.8322C14.8677 10.3869 15.0776 9.79861 15.0776 9.06718C15.0776 8.67284 15.0045 8.30394 14.8582 7.96049C14.7119 7.61067 14.4766 7.32446 14.1522 7.10185C13.8278 6.87924 13.4112 6.76794 12.9024 6.76794C12.6225 6.76794 12.3586 6.822 12.1105 6.93012C11.8625 7.03189 11.6717 7.16545 11.5381 7.33082V5.69941Z"
        fill="#303233" />
    <path
        d="M16.4697 6.21967C16.7626 5.92678 17.2374 5.92678 17.5303 6.21967L19 7.68934L20.4697 6.21967C20.7626 5.92678 21.2374 5.92678 21.5303 6.21967C21.8232 6.51256 21.8232 6.98744 21.5303 7.28033L20.0607 8.75L21.5303 10.2197C21.8232 10.5126 21.8232 10.9874 21.5303 11.2803C21.2374 11.5732 20.7626 11.5732 20.4697 11.2803L19 9.81066L17.5303 11.2803C17.2374 11.5732 16.7626 11.5732 16.4697 11.2803C16.1768 10.9874 16.1768 10.5126 16.4697 10.2197L17.9393 8.75L16.4697 7.28033C16.1768 6.98744 16.1768 6.51256 16.4697 6.21967Z"
        fill="#303233" />
    <path
        d="M8.5 11.5C8.91421 11.5 9.25 11.1642 9.25 10.75C9.25 10.3358 8.91421 10 8.5 10C8.08579 10 7.75 10.3358 7.75 10.75C7.75 11.1642 8.08579 11.5 8.5 11.5Z"
        fill="#303233" />
</svg>
