<svg width="24" height="24" viewBox="0 0 24 24" fill="none" xmlns="http://www.w3.org/2000/svg">
    <path fill-rule="evenodd" clip-rule="evenodd"
        d="M8 6.25C6.48122 6.25 5.25 7.48122 5.25 9C5.25 10.5188 6.48122 11.75 8 11.75C9.51878 11.75 10.75 10.5188 10.75 9C10.75 7.48122 9.51878 6.25 8 6.25Z"
        fill="#303233" />
    <path fill-rule="evenodd" clip-rule="evenodd"
        d="M5 2.25C2.92893 2.25 1.25 3.92893 1.25 6V18C1.25 20.0711 2.92893 21.75 5 21.75H19C21.0711 21.75 22.75 20.0711 22.75 18V6C22.75 3.92893 21.0711 2.25 19 2.25H5ZM21.25 14.1893V6C21.25 4.75736 20.2426 3.75 19 3.75H5C3.75736 3.75 2.75 4.75736 2.75 6V18C2.75 18.0613 2.75245 18.122 2.75726 18.1821L6.76256 14.1767C7.44598 13.4933 8.55402 13.4933 9.23744 14.1767L11 15.9393L15.7626 11.1767C16.446 10.4933 17.554 10.4933 18.2374 11.1767L21.25 14.1893Z"
        fill="#303233" />
</svg>
