<svg width="16" height="16" viewBox="0 0 16 16" fill="none" xmlns="http://www.w3.org/2000/svg">
    <path fill-rule="evenodd" clip-rule="evenodd"
        d="M8.50075 10.45V14.5C8.50075 14.776 8.27664 15 8.0005 15C7.72436 15 7.50025 14.776 7.50025 14.5V10.45H4.96198C4.51276 10.45 4.1976 10.447 3.97649 10.414C3.73137 10.377 3.56028 10.301 3.43322 10.199C3.15908 9.98 3 9.649 3 9.299C3 9.135 3.04702 8.954 3.17209 8.74C3.28414 8.546 3.47824 8.299 3.75938 7.948L4.77989 6.673C4.83292 6.607 4.86293 6.577 4.88194 6.54C4.88794 6.528 4.89295 6.515 4.89595 6.502C4.90395 6.462 4.89895 6.42 4.89895 6.335V4.95C4.89895 4.904 4.89995 4.881 4.89795 4.858C4.89695 4.851 4.89495 4.843 4.89295 4.836C4.88694 4.814 4.87694 4.793 4.85993 4.75L4.2046 3.112C3.95548 2.489 3.88044 2.166 3.93247 1.916C3.9935 1.619 4.17058 1.359 4.42271 1.191C4.63582 1.05 4.96398 1 5.63532 1H10.3647C11.036 1 11.3642 1.05 11.5773 1.191C11.8304 1.359 12.0065 1.619 12.0675 1.916C12.1196 2.166 12.0445 2.489 11.7954 3.112L11.1401 4.75C11.1231 4.793 11.1131 4.814 11.107 4.836C11.105 4.843 11.103 4.851 11.103 4.858C11.1 4.881 11.102 4.904 11.102 4.95V6.335C11.102 6.419 11.096 6.462 11.105 6.502C11.107 6.515 11.1121 6.528 11.1181 6.54C11.1371 6.577 11.1671 6.607 11.2201 6.673L12.2406 7.948C12.5218 8.299 12.7159 8.546 12.8289 8.74C12.953 8.954 13 9.135 13 9.299C13.001 9.649 12.8409 9.98 12.5678 10.199C12.4397 10.301 12.2686 10.377 12.0235 10.414C11.8024 10.447 11.4872 10.45 11.038 10.45H8.50075ZM11.038 9.45C11.3652 9.45 11.6103 9.451 11.7944 9.434C11.8534 9.429 11.9325 9.412 11.9555 9.407C11.9795 9.383 11.9945 9.351 11.9985 9.316C11.9885 9.295 11.9525 9.223 11.9205 9.173C11.8184 9.019 11.6643 8.828 11.4592 8.573L10.4387 7.297C10.3227 7.152 10.2686 7.076 10.2276 6.995C10.1796 6.903 10.1456 6.805 10.1246 6.703C10.1066 6.614 10.1015 6.521 10.1015 6.335V4.95C10.1015 4.847 10.1025 4.795 10.1086 4.744C10.1156 4.686 10.1266 4.629 10.1416 4.572C10.1556 4.523 10.1726 4.474 10.2116 4.378L10.8669 2.741C10.939 2.559 10.998 2.414 11.039 2.294C11.065 2.216 11.098 2.167 11.088 2.119C11.08 2.081 11.057 2.047 11.024 2.025C10.984 1.998 10.926 2.011 10.8439 2.006C10.7169 2 10.5608 2 10.3647 2H5.63532C5.43922 2 5.28314 2 5.15608 2.006C5.07404 2.011 5.01601 1.998 4.97599 2.025C4.94297 2.047 4.91996 2.081 4.91196 2.12C4.90195 2.167 4.93497 2.216 4.96098 2.294C5.002 2.414 5.06103 2.559 5.13307 2.741L5.78839 4.378C5.82741 4.474 5.84542 4.523 5.85843 4.572C5.87344 4.629 5.88444 4.686 5.89144 4.744C5.89745 4.795 5.89945 4.847 5.89945 4.95V6.335C5.89945 6.521 5.89345 6.614 5.87544 6.703C5.85443 6.805 5.82041 6.903 5.77339 6.995C5.73136 7.076 5.67734 7.152 5.56128 7.297L4.54077 8.573C4.33667 8.828 4.18259 9.019 4.08054 9.173C4.04752 9.223 4.01151 9.295 4.0015 9.316C4.0045 9.35 4.02051 9.382 4.04552 9.407C4.06753 9.412 4.14657 9.429 4.2056 9.434C4.39069 9.451 4.63582 9.45 4.96198 9.45H11.038Z"
        fill="#303233" />
</svg>
