<svg width="16" height="16" viewBox="0 0 16 16" fill="none" xmlns="http://www.w3.org/2000/svg">
    <path
        d="M6 6.25C6 6.66421 5.66421 7 5.25 7C4.83579 7 4.5 6.66421 4.5 6.25C4.5 5.83579 4.83579 5.5 5.25 5.5C5.66421 5.5 6 5.83579 6 6.25Z"
        fill="#303233" />
    <path
        d="M5.75 11C6.16421 11 6.5 10.6642 6.5 10.25C6.5 9.83579 6.16421 9.5 5.75 9.5C5.33579 9.5 5 9.83579 5 10.25C5 10.6642 5.33579 11 5.75 11Z"
        fill="#303233" />
    <path
        d="M9 7.75C9 8.16421 8.66421 8.5 8.25 8.5C7.83579 8.5 7.5 8.16421 7.5 7.75C7.5 7.33579 7.83579 7 8.25 7C8.66421 7 9 7.33579 9 7.75Z"
        fill="#303233" />
    <path
        d="M9.75 11.5C10.1642 11.5 10.5 11.1642 10.5 10.75C10.5 10.3358 10.1642 10 9.75 10C9.33579 10 9 10.3358 9 10.75C9 11.1642 9.33579 11.5 9.75 11.5Z"
        fill="#303233" />
    <path fill-rule="evenodd" clip-rule="evenodd"
        d="M1 8C1 4.13401 4.13401 1 8 1C8.02598 1 8.05193 1.00014 8.07785 1.00042C8.22893 1.00207 8.37115 1.07194 8.46479 1.19051C8.55843 1.30908 8.59343 1.46363 8.56001 1.61097C8.52081 1.78387 8.5 1.96421 8.5 2.15002C8.5 3.48926 9.58562 4.57493 10.9248 4.57502C11.201 4.57504 11.4248 4.79889 11.4248 5.07502C11.4248 6.41431 12.5105 7.50002 13.8498 7.50002C14.0357 7.50002 14.2161 7.4792 14.389 7.43997C14.5363 7.40655 14.6909 7.44154 14.8095 7.53518C14.928 7.62881 14.9979 7.77104 14.9996 7.92212C14.9999 7.94806 15 7.97401 15 8C15 11.866 11.866 15 8 15C4.13401 15 1 11.866 1 8ZM7.50242 2.02034C4.4215 2.27326 2 4.85385 2 8C2 11.3137 4.68629 14 8 14C11.1462 14 13.7267 11.5785 13.9797 8.4976C13.9366 8.49921 13.8933 8.50002 13.8498 8.50002C12.1171 8.50002 10.6849 7.2133 10.4565 5.54325C8.7866 5.31485 7.5 3.88268 7.5 2.15002C7.5 2.10662 7.50081 2.06338 7.50242 2.02034Z"
        fill="#303233" />
</svg>
