<svg width="16" height="16" viewBox="0 0 16 16" fill="none" xmlns="http://www.w3.org/2000/svg">
    <path
        d="M2.5 2C1.67157 2 1 2.67157 1 3.5V10.5C1 11.3284 1.67157 12 2.5 12H3.5C3.77614 12 4 11.7761 4 11.5C4 11.2239 3.77614 11 3.5 11H2.5C2.22386 11 2 10.7761 2 10.5V3.5C2 3.22386 2.22386 3 2.5 3H13.5C13.7761 3 14 3.22386 14 3.5V10.5C14 10.7761 13.7761 11 13.5 11H12.5C12.2239 11 12 11.2239 12 11.5C12 11.7761 12.2239 12 12.5 12H13.5C14.3284 12 15 11.3284 15 10.5V3.5C15 2.67157 14.3284 2 13.5 2H2.5Z"
        fill="#303233" />
    <path
        d="M8.38806 9.1847C8.29311 9.06785 8.15056 9 8 9C7.84943 9 7.70689 9.06785 7.61194 9.1847L4.36194 13.1847C4.24031 13.3344 4.21563 13.5407 4.29853 13.7149C4.38143 13.8891 4.55711 14 4.75 14H11.25C11.4429 14 11.6186 13.8891 11.7015 13.7149C11.7844 13.5407 11.7597 13.3344 11.6381 13.1847L8.38806 9.1847Z"
        fill="#303233" />
</svg>
