<svg width="24" height="24" viewBox="0 0 24 24" fill="none" xmlns="http://www.w3.org/2000/svg">
    <path fill-rule="evenodd" clip-rule="evenodd"
        d="M5.55157 3.55528C4.83032 3.54987 4.34793 3.7416 4.04452 4.04501C3.74111 4.34842 3.54939 4.83081 3.5548 5.55206C3.56023 6.27702 3.76749 7.18107 4.19298 8.2144C4.51532 8.99722 4.95445 9.83379 5.50044 10.6957C6.21724 9.76487 7.03262 8.83531 7.93365 7.93428C8.83473 7.03319 9.76435 6.21778 10.6953 5.50094C9.83331 4.95495 8.99674 4.51581 8.21391 4.19347C7.18058 3.76798 6.27653 3.56072 5.55157 3.55528ZM11.9996 4.56109C10.8965 3.82052 9.80968 3.22837 8.78503 2.80645C7.64303 2.33621 6.54259 2.06267 5.56282 2.05533C4.57934 2.04795 3.65676 2.31145 2.98386 2.98435C2.31096 3.65725 2.04746 4.57983 2.05484 5.56331C2.06219 6.54308 2.33572 7.64351 2.80596 8.78552C3.22787 9.81016 3.82002 10.897 4.56057 12.0001C3.82004 13.1031 3.22791 14.19 2.806 15.2146C2.33576 16.3566 2.06223 17.457 2.05488 18.4368C2.0475 19.4203 2.311 20.3429 2.9839 21.0158C3.6568 21.6887 4.57938 21.9522 5.56286 21.9448C6.54263 21.9374 7.64307 21.6639 8.78507 21.1936C9.80971 20.7717 10.8966 20.1796 11.9996 19.439C13.1026 20.1795 14.1894 20.7716 15.2139 21.1935C16.3559 21.6637 17.4564 21.9372 18.4361 21.9446C19.4196 21.952 20.3422 21.6885 21.0151 21.0156C21.688 20.3427 21.9515 19.4201 21.9441 18.4366C21.9368 17.4568 21.6632 16.3564 21.193 15.2144C20.7711 14.1898 20.179 13.1031 19.4385 12.0001C20.179 10.8971 20.7711 9.81028 21.193 8.7857C21.6633 7.64369 21.9368 6.54326 21.9441 5.56349C21.9515 4.58001 21.688 3.65743 21.0151 2.98453C20.3422 2.31163 19.4196 2.04813 18.4362 2.05551C17.4564 2.06286 16.356 2.33639 15.2139 2.80663C14.1894 3.22851 13.1026 3.8206 11.9996 4.56109ZM11.9996 6.39585C10.9985 7.13523 9.98278 8.00646 8.99431 8.99494C8.00589 9.98335 7.1347 10.999 6.39535 12.0001C7.13469 13.0012 8.00587 14.0168 8.99427 15.0052C9.98275 15.9936 10.9985 16.8649 11.9996 17.6043C13.0007 16.8649 14.0163 15.9937 15.0047 15.0053C15.9932 14.0169 16.8644 13.0012 17.6038 12.0001C16.8644 10.9989 15.9932 9.98323 15.0047 8.99476C14.0163 8.00636 13.0007 7.1352 11.9996 6.39585ZM18.4987 10.6957C17.7818 9.76479 16.9664 8.83518 16.0653 7.9341C15.1643 7.0331 14.2348 6.21775 13.304 5.50096C14.1658 4.95504 15.0023 4.51596 15.7851 4.19365C16.8184 3.76816 17.7225 3.5609 18.4474 3.55546C19.1687 3.55005 19.6511 3.74178 19.9545 4.04519C20.2579 4.3486 20.4496 4.83099 20.4442 5.55224C20.4387 6.2772 20.2315 7.18125 19.806 8.21458C19.4837 8.99734 19.0446 9.83384 18.4987 10.6957ZM18.4987 13.3045C17.7818 14.2353 16.9664 15.1649 16.0654 16.066C15.1644 16.967 14.2348 17.7824 13.304 18.4992C14.1658 19.0451 15.0023 19.4841 15.785 19.8065C16.8184 20.2319 17.7224 20.4392 18.4474 20.4446C19.1686 20.45 19.651 20.2583 19.9544 19.9549C20.2578 19.6515 20.4496 19.1691 20.4441 18.4479C20.4387 17.7229 20.2315 16.8189 19.806 15.7855C19.4837 15.0028 19.0446 14.1663 18.4987 13.3045ZM10.6953 18.4992C9.76433 17.7823 8.8347 16.9669 7.93361 16.0658C7.0326 15.1648 6.21724 14.2353 5.50045 13.3044C4.95447 14.1664 4.51535 15.0029 4.19302 15.7857C3.76753 16.819 3.56027 17.7231 3.55484 18.448C3.54943 19.1693 3.74115 19.6517 4.04456 19.9551C4.34797 20.2585 4.83036 20.4502 5.55161 20.4448C6.27657 20.4394 7.18062 20.2321 8.21395 19.8066C8.99677 19.4843 9.83332 19.0452 10.6953 18.4992ZM10.7495 12.0001C10.7495 11.3098 11.3092 10.7501 11.9995 10.7501C12.6899 10.7501 13.2495 11.3098 13.2495 12.0001C13.2495 12.6905 12.6899 13.2501 11.9995 13.2501C11.3092 13.2501 10.7495 12.6905 10.7495 12.0001Z"
        fill="#303233" />
</svg>
