<svg width="16" height="16" viewBox="0 0 16 16" fill="none" xmlns="http://www.w3.org/2000/svg">
    <g clip-path="url(#clip0_2529_88)">
        <path fill-rule="evenodd" clip-rule="evenodd"
            d="M1.53033 0.46967C1.23744 0.176777 0.762563 0.176777 0.46967 0.46967C0.176777 0.762563 0.176777 1.23744 0.46967 1.53033L3.52127 4.58193L2.54377 4.58193C2.37703 4.58191 2.21001 4.58188 2.06773 4.59351C1.91018 4.60638 1.71817 4.63716 1.52352 4.73634C1.25695 4.87216 1.04023 5.08888 0.904412 5.35545C0.80523 5.5501 0.77445 5.74211 0.761578 5.89966C0.749953 6.04194 0.749978 6.20895 0.750002 6.3757V9.6215C0.749978 9.78825 0.749953 9.95526 0.761578 10.0975C0.77445 10.2551 0.80523 10.4471 0.904412 10.6418C1.04023 10.9083 1.25695 11.125 1.52352 11.2609C1.71817 11.36 1.91018 11.3908 2.06773 11.4037C2.21001 11.4153 2.37702 11.4153 2.54378 11.4153L3.72484 11.4153C3.76658 11.4153 3.79857 11.4153 3.82626 11.4155L3.85573 11.4159L3.87687 11.4365C3.89662 11.4559 3.91925 11.4785 3.94876 11.508L6.07804 13.6373C6.20426 13.7636 6.33196 13.8913 6.44471 13.9857C6.54407 14.0689 6.76786 14.2492 7.08167 14.2739C7.42738 14.3011 7.76523 14.1611 7.99044 13.8974C8.19488 13.6581 8.22565 13.3724 8.23709 13.2433C8.25007 13.0968 8.25004 12.9162 8.25001 12.7377L8.25 9.31066L14.4697 15.5303C14.7626 15.8232 15.2374 15.8232 15.5303 15.5303C15.8232 15.2374 15.8232 14.7626 15.5303 14.4697L8.0318 6.97114C8.03082 6.97016 8.02984 6.96918 8.02886 6.9682L5.28183 4.22117C5.28179 4.22113 5.28187 4.22121 5.28183 4.22117C5.28085 4.22019 5.27976 4.21909 5.27878 4.21812L1.53033 0.46967ZM4.73829 5.79895C4.70428 5.825 4.6684 5.85009 4.63073 5.87317C4.50398 5.95085 4.36579 6.00809 4.22124 6.04279C4.05402 6.08294 3.88445 6.0824 3.75929 6.08201L3.72484 6.08193H2.56667C2.41823 6.08193 2.32255 6.08226 2.25299 6.08491C2.25033 6.15447 2.25 6.25016 2.25 6.3986V9.5986C2.25 9.74704 2.25033 9.84272 2.25299 9.91228C2.32255 9.91494 2.41823 9.91527 2.56667 9.91527H3.72484L3.75928 9.91519C3.88445 9.9148 4.05402 9.91426 4.22124 9.95441C4.3658 9.98911 4.50399 10.0464 4.63073 10.124C4.77737 10.2139 4.89689 10.3342 4.98512 10.423L5.00942 10.4474L6.75 12.1879V7.81066L4.73829 5.79895Z"
            fill="#303233" />
        <path
            d="M6.74945 4V3.7068C6.4853 3.80055 6.17911 3.74173 5.96772 3.53033C5.67482 3.23744 5.67482 2.76257 5.96772 2.46967L6.0775 2.35988C6.20371 2.23363 6.33141 2.10589 6.44415 2.0115C6.54352 1.92831 6.7673 1.74804 7.08112 1.72335C7.42683 1.69614 7.76467 1.83608 7.98989 2.09977C8.19433 2.33914 8.2251 2.62485 8.23654 2.75393C8.24952 2.90039 8.24948 3.081 8.24945 3.25952L8.24945 4C8.24945 4.41422 7.91366 4.75 7.49945 4.75C7.08524 4.75 6.74945 4.41422 6.74945 4Z"
            fill="#303233" />
        <path
            d="M13.6697 3.06352C13.4287 2.72668 12.9602 2.64903 12.6233 2.89009C12.2865 3.13115 12.2088 3.59963 12.4499 3.93647C13.2681 5.07974 13.7501 6.482 13.7501 8C13.7501 8.81449 13.6114 9.59476 13.3571 10.3192C13.2199 10.71 13.4255 11.1381 13.8163 11.2753C14.2072 11.4125 14.6352 11.2069 14.7724 10.816C15.082 9.93405 15.2501 8.98592 15.2501 8C15.2501 6.15924 14.6644 4.45342 13.6697 3.06352Z"
            fill="#303233" />
        <path
            d="M11.1163 5.001C10.8801 4.66069 10.4128 4.57624 10.0725 4.81238C9.73219 5.04852 9.64774 5.51583 9.88388 5.85614C10.2759 6.42112 10.5171 7.09922 10.5489 7.83349C10.5668 8.24732 10.9168 8.56827 11.3306 8.55036C11.7444 8.53245 12.0654 8.18246 12.0475 7.76864C12.0031 6.74292 11.6652 5.79216 11.1163 5.001Z"
            fill="#303233" />
    </g>
    <defs>
        <clipPath id="clip0_2529_88">
            <rect width="16" height="16" fill="white" />
        </clipPath>
    </defs>
</svg>
