<svg width="16" height="16" viewBox="0 0 16 16" fill="none" xmlns="http://www.w3.org/2000/svg">
    <path
        d="M5.30843 5.901C5.79474 6.91388 6.45768 7.86319 7.29725 8.70276C8.13681 9.54232 9.08612 10.2053 10.099 10.6916C10.1861 10.7334 10.2297 10.7543 10.2848 10.7704C10.4807 10.8275 10.7212 10.7865 10.8871 10.6677C10.9338 10.6342 10.9738 10.5943 11.0536 10.5144C11.2979 10.2702 11.42 10.148 11.5429 10.0682C12.006 9.76703 12.6031 9.76703 13.0663 10.0682C13.1891 10.148 13.3113 10.2702 13.5556 10.5144L13.6917 10.6506C14.063 11.0219 14.2487 11.2076 14.3496 11.407C14.5501 11.8036 14.5501 12.2719 14.3496 12.6685C14.2487 12.8679 14.063 13.0535 13.6917 13.4248L13.5816 13.535C13.2115 13.9051 13.0265 14.0901 12.7749 14.2314C12.4958 14.3882 12.0622 14.5009 11.7421 14.5C11.4535 14.4991 11.2563 14.4432 10.8619 14.3312C8.74245 13.7296 6.74246 12.5946 5.07393 10.9261C3.4054 9.25754 2.27035 7.25755 1.66877 5.13806C1.55683 4.74367 1.50086 4.54647 1.50001 4.25794C1.49905 3.93777 1.6118 3.50422 1.76861 3.22508C1.90992 2.97352 2.09495 2.78849 2.46501 2.41843L2.57515 2.30829C2.94648 1.93696 3.13214 1.75129 3.33155 1.65044C3.72811 1.44985 4.19644 1.44985 4.59301 1.65044C4.79241 1.75129 4.97807 1.93696 5.3494 2.30829L5.48556 2.44445C5.72984 2.68872 5.85198 2.81086 5.93183 2.93368C6.23297 3.39685 6.23297 3.99397 5.93183 4.45714C5.85198 4.57996 5.72984 4.7021 5.48556 4.94638C5.40569 5.02625 5.36575 5.06618 5.33232 5.11287C5.21353 5.27876 5.17252 5.51931 5.22962 5.71519C5.24569 5.77032 5.2666 5.81388 5.30843 5.901Z"
        fill="#303233" />
</svg>
