<svg width="24" height="24" viewBox="0 0 24 24" fill="none" xmlns="http://www.w3.org/2000/svg">
    <path
        d="M1.25 4C1.25 2.48122 2.48122 1.25 4 1.25H10.1716C10.6357 1.25 11.0808 1.43437 11.409 1.76256L12.2374 2.59099C12.6594 3.01295 13.2317 3.25 13.8284 3.25H20C21.5188 3.25 22.75 4.48122 22.75 6V18C22.75 19.5188 21.5188 20.75 20 20.75H17C16.5858 20.75 16.25 20.4142 16.25 20C16.25 19.5858 16.5858 19.25 17 19.25H20C20.6904 19.25 21.25 18.6904 21.25 18V6C21.25 5.30964 20.6904 4.75 20 4.75H4C3.30964 4.75 2.75 5.30964 2.75 6V18C2.75 18.6904 3.30964 19.25 4 19.25H7C7.41421 19.25 7.75 19.5858 7.75 20C7.75 20.4142 7.41421 20.75 7 20.75H4C2.48122 20.75 1.25 19.5188 1.25 18V4Z"
        fill="#303233" />
    <path
        d="M12.5303 12.4697C12.2374 12.1768 11.7626 12.1768 11.4697 12.4697L8.46967 15.4697C8.17678 15.7626 8.17678 16.2374 8.46967 16.5303C8.76256 16.8232 9.23744 16.8232 9.53033 16.5303L11.25 14.8107V23C11.25 23.4142 11.5858 23.75 12 23.75C12.4142 23.75 12.75 23.4142 12.75 23V14.8107L14.4697 16.5303C14.7626 16.8232 15.2374 16.8232 15.5303 16.5303C15.8232 16.2374 15.8232 15.7626 15.5303 15.4697L12.5303 12.4697Z"
        fill="#303233" />
</svg>
