<svg width="16" height="16" viewBox="0 0 16 16" fill="none" xmlns="http://www.w3.org/2000/svg">
    <path
        d="M9.98439 2.15296C10.0689 1.74746 9.80862 1.35024 9.40312 1.26576C8.99761 1.18128 8.6004 1.44153 8.51592 1.84703L6.01592 13.847C5.93144 14.2525 6.19168 14.6498 6.59719 14.7342C7.00269 14.8187 7.39991 14.5585 7.48439 14.153L9.98439 2.15296Z"
        fill="#303233" />
    <path
        d="M5.28033 5.28033C5.57322 4.98744 5.57322 4.51256 5.28033 4.21967C4.98744 3.92678 4.51256 3.92678 4.21967 4.21967L0.96967 7.46967C0.829018 7.61032 0.75 7.80109 0.75 8C0.75 8.19891 0.829018 8.38968 0.96967 8.53033L4.21967 11.7803C4.51256 12.0732 4.98744 12.0732 5.28033 11.7803C5.57322 11.4874 5.57322 11.0126 5.28033 10.7197L2.56066 8L5.28033 5.28033Z"
        fill="#303233" />
    <path
        d="M11.7803 4.21967C11.4874 3.92678 11.0126 3.92678 10.7197 4.21967C10.4268 4.51256 10.4268 4.98744 10.7197 5.28033L13.4393 8L10.7197 10.7197C10.4268 11.0126 10.4268 11.4874 10.7197 11.7803C11.0126 12.0732 11.4874 12.0732 11.7803 11.7803L15.0303 8.53033C15.171 8.38968 15.25 8.19891 15.25 8C15.25 7.80109 15.171 7.61032 15.0303 7.46967L11.7803 4.21967Z"
        fill="#303233" />
</svg>
