<svg width="24" height="24" viewBox="0 0 24 24" fill="none" xmlns="http://www.w3.org/2000/svg">
    <path fill-rule="evenodd" clip-rule="evenodd"
        d="M18.102 2.873C18.102 2.873 18.826 4.618 18.826 4.619C18.931 4.871 19.131 5.071 19.384 5.176L21.128 5.898C21.871 6.206 22.461 6.796 22.769 7.539C23.077 8.282 23.077 9.117 22.769 9.86L22.047 11.605C21.942 11.857 21.942 12.141 22.047 12.394L22.048 12.396L22.769 14.139C22.921 14.507 23 14.901 23 15.3C23 15.698 22.921 16.093 22.769 16.461C22.616 16.829 22.393 17.163 22.111 17.445C21.829 17.727 21.495 17.95 21.127 18.102L19.382 18.825C19.129 18.93 18.928 19.13 18.823 19.383L18.101 21.128C17.793 21.871 17.203 22.461 16.46 22.769C15.717 23.077 14.882 23.077 14.139 22.769L12.395 22.047C12.142 21.942 11.858 21.943 11.605 22.047L9.859 22.77C9.116 23.077 8.282 23.077 7.54 22.769C6.797 22.462 6.207 21.872 5.899 21.13L5.176 19.383C5.071 19.13 4.87 18.929 4.617 18.824L2.873 18.101C2.13 17.793 1.54 17.203 1.232 16.461C0.924 15.718 0.924 14.883 1.231 14.14L1.953 12.397C2.058 12.144 2.058 11.859 1.953 11.607L1.952 11.605L1.231 9.86C1.079 9.492 1 9.097 1 8.699C1 8.3 1.078 7.906 1.231 7.538C1.383 7.17 1.607 6.835 1.889 6.554C2.17 6.272 2.505 6.048 2.873 5.896L4.617 5.174C4.87 5.069 5.071 4.869 5.176 4.616L5.898 2.872C6.206 2.129 6.796 1.539 7.54 1.231C8.283 0.923 9.118 0.923 9.861 1.231L11.604 1.953C11.857 2.057 12.141 2.057 12.394 1.952L12.396 1.951L14.14 1.232C14.883 0.924 15.718 0.924 16.461 1.232C17.204 1.54 17.794 2.13 18.102 2.873ZM16.979 5.385C16.978 5.385 16.254 3.638 16.254 3.638C16.15 3.386 15.949 3.185 15.696 3.08C15.443 2.975 15.158 2.975 14.905 3.08L13.16 3.8C12.418 4.108 11.583 4.108 10.84 3.801L9.095 3.079C8.842 2.974 8.558 2.974 8.305 3.079C8.052 3.183 7.851 3.384 7.746 3.637L7.023 5.383C6.714 6.125 6.124 6.715 5.382 7.022L3.638 7.744C3.513 7.796 3.399 7.872 3.303 7.968C3.207 8.064 3.131 8.178 3.079 8.303C3.027 8.428 3 8.563 3 8.698C3 8.834 3.027 8.969 3.079 9.094L3.8 10.84C4.108 11.583 4.109 12.418 3.802 13.161L3.079 14.905C2.975 15.158 2.975 15.442 3.08 15.695C3.184 15.948 3.385 16.148 3.638 16.253L5.384 16.976C6.126 17.285 6.717 17.876 7.024 18.618L7.746 20.363C7.851 20.616 8.052 20.817 8.305 20.921C8.558 21.026 8.842 21.026 9.095 20.922L10.839 20.2C11.581 19.892 12.416 19.892 13.16 20.199L14.904 20.921C15.157 21.026 15.441 21.026 15.694 20.921C15.947 20.816 16.148 20.615 16.253 20.362L16.976 18.617C17.284 17.874 17.875 17.284 18.618 16.977L20.362 16.255C20.487 16.203 20.601 16.127 20.697 16.031C20.793 15.935 20.869 15.821 20.921 15.695C20.973 15.57 21 15.436 21 15.3C21 15.164 20.973 15.03 20.921 14.904L20.2 13.163C19.891 12.419 19.891 11.583 20.199 10.839L20.921 9.095C21.026 8.842 21.026 8.558 20.921 8.305C20.817 8.052 20.616 7.851 20.363 7.746L18.617 7.023C17.876 6.715 17.286 6.126 16.979 5.385ZM10.5 9C10.5 9.828 9.828 10.5 9 10.5C8.172 10.5 7.5 9.828 7.5 9C7.5 8.172 8.172 7.5 9 7.5C9.828 7.5 10.5 8.172 10.5 9ZM15.293 7.293C15.683 6.903 16.317 6.903 16.707 7.293C17.097 7.683 17.097 8.317 16.707 8.707L8.707 16.707C8.317 17.097 7.683 17.097 7.293 16.707C6.903 16.317 6.903 15.683 7.293 15.293L15.293 7.293ZM16.5 15C16.5 15.828 15.828 16.5 15 16.5C14.172 16.5 13.5 15.828 13.5 15C13.5 14.172 14.172 13.5 15 13.5C15.828 13.5 16.5 14.172 16.5 15Z"
        fill="#303233" />
</svg>
