<svg width="24" height="24" viewBox="0 0 24 24" fill="none" xmlns="http://www.w3.org/2000/svg">
    <path fill-rule="evenodd" clip-rule="evenodd"
        d="M4 8C4 5.23858 6.23858 3 9 3C11.7614 3 14 5.23858 14 8C14 10.7614 11.7614 13 9 13C6.23858 13 4 10.7614 4 8ZM9 5C7.34315 5 6 6.34315 6 8C6 9.65685 7.34315 11 9 11C10.6569 11 12 9.65685 12 8C12 6.34315 10.6569 5 9 5Z"
        fill="#303233" />
    <path
        d="M16 12C16 11.4477 16.4477 11 17 11H23C23.5523 11 24 11.4477 24 12C24 12.5523 23.5523 13 23 13H17C16.4477 13 16 12.5523 16 12Z"
        fill="#303233" />
    <path
        d="M2.22063 21.2493C2.99776 18.2299 5.73981 16 9.00016 16C12.2605 16 15.0026 18.2299 15.7797 21.2493C15.9173 21.7841 16.4625 22.1061 16.9974 21.9684C17.5322 21.8308 17.8542 21.2856 17.7166 20.7507C16.7175 16.8692 13.1952 14 9.00016 14C4.80515 14 1.2828 16.8692 0.283758 20.7507C0.146096 21.2856 0.468083 21.8308 1.00294 21.9684C1.53779 22.1061 2.08297 21.7841 2.22063 21.2493Z"
        fill="#303233" />
</svg>
