<svg width="24" height="24" viewBox="0 0 24 24" fill="none" xmlns="http://www.w3.org/2000/svg">
    <path fill-rule="evenodd" clip-rule="evenodd"
        d="M8.7679 1.25H15.2321C16.0449 1.24999 16.7006 1.24999 17.2315 1.29336C17.7781 1.33803 18.2582 1.43239 18.7025 1.65873C19.4081 2.01825 19.9818 2.59193 20.3413 3.29754C20.5676 3.74175 20.662 4.2219 20.7066 4.76853C20.75 5.29944 20.75 5.95505 20.75 6.76788V10.5C20.75 10.9142 20.4142 11.25 20 11.25C19.5858 11.25 19.25 10.9142 19.25 10.5V6.8C19.25 5.94755 19.2494 5.35331 19.2116 4.89068C19.1745 4.4368 19.1054 4.17604 19.0048 3.97852C18.7891 3.55516 18.4448 3.21095 18.0215 2.99524C17.824 2.8946 17.5632 2.82547 17.1093 2.78838C16.6467 2.75058 16.0525 2.75 15.2 2.75H8.8C7.94755 2.75 7.35331 2.75058 6.89068 2.78838C6.4368 2.82547 6.17604 2.8946 5.97852 2.99524C5.55516 3.21095 5.21095 3.55516 4.99524 3.97852C4.8946 4.17604 4.82547 4.4368 4.78838 4.89068C4.75058 5.35331 4.75 5.94755 4.75 6.8V17.2C4.75 18.0525 4.75058 18.6467 4.78838 19.1093C4.82547 19.5632 4.8946 19.824 4.99524 20.0215C5.21095 20.4448 5.55516 20.789 5.97852 21.0048C6.17604 21.1054 6.4368 21.1745 6.89068 21.2116C7.35331 21.2494 7.94755 21.25 8.8 21.25H11.5C11.9142 21.25 12.25 21.5858 12.25 22C12.25 22.4142 11.9142 22.75 11.5 22.75H8.76788C7.95505 22.75 7.29944 22.75 6.76853 22.7066C6.2219 22.662 5.74175 22.5676 5.29754 22.3413C4.59193 21.9817 4.01825 21.4081 3.65873 20.7025C3.43239 20.2582 3.33803 19.7781 3.29336 19.2315C3.24999 18.7006 3.24999 18.0449 3.25 17.2321V6.7679C3.24999 5.95506 3.24999 5.29944 3.29336 4.76853C3.33803 4.2219 3.43239 3.74175 3.65873 3.29754C4.01825 2.59193 4.59193 2.01825 5.29754 1.65873C5.74175 1.43239 6.2219 1.33803 6.76853 1.29336C7.29944 1.24999 7.95506 1.24999 8.7679 1.25ZM18 15.25C16.4812 15.25 15.25 16.4812 15.25 18C15.25 19.5188 16.4812 20.75 18 20.75C19.5188 20.75 20.75 19.5188 20.75 18C20.75 16.4812 19.5188 15.25 18 15.25ZM13.75 18C13.75 15.6528 15.6528 13.75 18 13.75C20.3472 13.75 22.25 15.6528 22.25 18C22.25 18.9027 21.9686 19.7397 21.4886 20.428L22.5303 21.4697C22.8232 21.7626 22.8232 22.2374 22.5303 22.5303C22.2374 22.8232 21.7626 22.8232 21.4697 22.5303L20.428 21.4886C19.7397 21.9686 18.9027 22.25 18 22.25C15.6528 22.25 13.75 20.3472 13.75 18Z"
        fill="#303233" />
</svg>
