<svg width="24" height="24" viewBox="0 0 24 24" fill="none" xmlns="http://www.w3.org/2000/svg">
    <path fill-rule="evenodd" clip-rule="evenodd"
        d="M23 13.504V13.306C23 12.742 22.993 12.461 22.932 12.138C22.781 11.326 22.191 10.321 21.555 9.793C21.292 9.574 21.115 9.47 20.757 9.27C18.165 7.824 15.179 7 12 7C8.821 7 5.835 7.824 3.243 9.27C2.885 9.47 2.709 9.574 2.445 9.793C1.809 10.321 1.219 11.326 1.068 12.138C1.007 12.461 1 12.742 1 13.306V13.504C1 14.066 1.011 14.347 1.057 14.58C1.292 15.774 2.226 16.708 3.42 16.943C3.653 16.989 3.934 17 4.496 17H4.741C5.024 17 5.166 16.997 5.286 16.985C6.71 16.845 7.836 15.719 7.977 14.295C7.988 14.175 7.991 14.033 7.991 13.749C7.991 13.7372 7.99086 13.7278 7.99073 13.7196C7.99053 13.7063 7.99038 13.6965 7.991 13.686C8.00108 13.6814 8.0078 13.6794 8.01886 13.676L8.022 13.675C9.267 13.238 10.606 13 12 13C13.394 13 14.733 13.237 15.978 13.675L15.9807 13.6758C15.992 13.6793 15.9987 13.6814 16.008 13.686C16.0094 13.6983 16.0093 13.7101 16.0091 13.727C16.0091 13.7335 16.009 13.7407 16.009 13.749C16.009 14.033 16.012 14.175 16.023 14.295C16.164 15.719 17.29 16.845 18.714 16.985C18.834 16.997 18.976 17 19.259 17H19.504C20.066 17 20.346 16.989 20.58 16.943C21.774 16.708 22.708 15.774 22.943 14.58C22.989 14.347 23 14.066 23 13.504ZM3 13.504V13.306C3 13.2537 2.99987 13.205 2.99975 13.1592C2.99898 12.8663 2.99854 12.696 3.034 12.504C3.109 12.098 3.405 11.596 3.722 11.332C3.8676 11.2114 3.97251 11.1531 4.15006 11.0543C4.17127 11.0425 4.19352 11.0301 4.217 11.017C6.521 9.732 9.175 9 12 9C14.825 9 17.479 9.732 19.783 11.017C19.8065 11.0301 19.8287 11.0425 19.8499 11.0543C20.0275 11.1531 20.1324 11.2114 20.278 11.332C20.595 11.596 20.891 12.098 20.966 12.504C21.0015 12.696 21.001 12.8663 21.0002 13.1592C21.0001 13.205 21 13.2537 21 13.306V13.504C21 13.5883 21.0006 13.6627 21.0011 13.7292C21.0029 13.9466 21.004 14.0789 20.981 14.193C20.903 14.591 20.591 14.903 20.193 14.981C20.0789 15.004 19.9466 15.0029 19.7292 15.0011C19.6627 15.0006 19.5883 15 19.504 15C19.487 14.999 19.47 15 19.451 15H19.259C19.2161 15 19.1782 15.0002 19.1444 15.0003C19.0357 15.0008 18.969 15.0011 18.911 14.995C18.436 14.948 18.061 14.573 18.014 14.098C18.0079 14.04 18.0082 13.9734 18.0087 13.8643C18.0088 13.8303 18.009 13.7922 18.009 13.749C18.009 13.644 18.007 13.591 18.003 13.531C17.949 12.833 17.457 12.138 16.816 11.856C16.756 11.829 16.717 11.815 16.641 11.788C15.189 11.278 13.627 11 12 11C10.373 11 8.812 11.278 7.359 11.788C7.283 11.815 7.245 11.829 7.185 11.855C6.544 12.138 6.051 12.833 5.997 13.531C5.993 13.591 5.991 13.644 5.991 13.749C5.991 13.7922 5.99117 13.8303 5.99132 13.8643C5.9918 13.9734 5.9921 14.04 5.986 14.098C5.939 14.573 5.564 14.948 5.089 14.995C5.03103 15.0011 4.96434 15.0008 4.85564 15.0003C4.82183 15.0002 4.78395 15 4.741 15H4.496C4.41171 15 4.33728 15.0006 4.27082 15.0011C4.05341 15.0029 3.92111 15.004 3.807 14.981C3.409 14.903 3.097 14.591 3.019 14.193C2.99602 14.0789 2.9971 13.9466 2.99886 13.7292C2.9994 13.6627 3 13.5883 3 13.504Z"
        fill="#303233" />
</svg>
