<svg width="24" height="24" viewBox="0 0 24 24" fill="none" xmlns="http://www.w3.org/2000/svg">
    <g clip-path="url(#clip0_53_5590)">
        <path fill-rule="evenodd" clip-rule="evenodd"
            d="M0.46975 1.52975L8.25488 9.31488V12.0009C8.25588 12.7409 8.47588 13.4639 8.88688 14.0799C9.29888 14.6949 9.88288 15.1739 10.5669 15.4569C11.2509 15.7409 12.0039 15.8149 12.7299 15.6709C13.2078 15.5754 13.6602 15.3885 14.0627 15.1227L15.8579 16.9179C15.0983 17.5142 14.2079 17.9282 13.2547 18.1238C12.8534 18.2061 12.4471 18.2483 12.0415 18.251C12.0278 18.2502 12.0139 18.2499 12 18.2499C11.9861 18.2499 11.9722 18.2502 11.9584 18.251C11.1587 18.2457 10.3633 18.087 9.61668 17.7788C8.46467 17.3038 7.48168 16.4958 6.79268 15.4578C6.10368 14.4208 5.74067 13.2008 5.74967 11.9548V9.99985C5.74967 9.58585 5.41367 9.24985 4.99967 9.24985C4.58567 9.24985 4.24967 9.58585 4.24967 9.99985V11.9488C4.23967 13.4918 4.68967 15.0018 5.54367 16.2878C6.39768 17.5748 7.61668 18.5768 9.04468 19.1658C9.75245 19.458 10.4959 19.6416 11.25 19.7147V22.2499H8C7.586 22.2499 7.25 22.5859 7.25 22.9999C7.25 23.4139 7.586 23.7499 8 23.7499H16C16.414 23.7499 16.75 23.4139 16.75 22.9999C16.75 22.5859 16.414 22.2499 16 22.2499H12.75V19.7143C13.0197 19.6881 13.2886 19.6476 13.5557 19.5928C14.7972 19.3389 15.953 18.785 16.9249 17.9849L22.4697 23.5298C22.7617 23.8228 23.2378 23.8228 23.5298 23.5298C23.8228 23.2378 23.8228 22.7617 23.5298 22.4697L1.52975 0.46975C1.23775 0.17675 0.76175 0.17675 0.46975 0.46975C0.17675 0.76175 0.17675 1.23775 0.46975 1.52975ZM9.74488 11.9988V10.8049L12.9718 14.0318C12.804 14.1128 12.6244 14.1721 12.4389 14.2089C12.0019 14.2959 11.5489 14.2509 11.1369 14.0809C10.7259 13.9099 10.3729 13.6219 10.1259 13.2509C9.87788 12.8809 9.74488 12.4448 9.74488 11.9988Z"
            fill="#303233" />
        <path
            d="M15.7449 9.33985V3.99985C15.7459 3.07185 15.4019 2.17585 14.7789 1.48685C14.1569 0.79785 13.2999 0.36385 12.3759 0.27085C11.4519 0.17785 10.5269 0.43085 9.77888 0.98185C9.03088 1.53285 8.51488 2.34185 8.32988 3.25185C8.24788 3.65485 8.50888 4.04785 8.91188 4.12985C9.31488 4.21185 9.70788 3.95085 9.78988 3.54785C9.90088 2.99985 10.2119 2.51285 10.6629 2.18085C11.1129 1.84985 11.6699 1.69685 12.2269 1.75285C12.7829 1.80985 13.2989 2.07085 13.6739 2.48585C14.0479 2.90085 14.2559 3.43985 14.2549 3.99885V9.33985C14.2549 9.75085 14.5889 10.0849 14.9999 10.0849C15.4109 10.0849 15.7449 9.75085 15.7449 9.33985Z"
            fill="#303233" />
        <path
            d="M18.2497 11.9488V9.99985C18.2497 9.58585 18.5857 9.24985 18.9997 9.24985C19.4137 9.24985 19.7497 9.58585 19.7497 9.99985V11.9508C19.7497 12.4068 19.7087 12.8628 19.6277 13.3118C19.5547 13.7198 19.1647 13.9908 18.7577 13.9178C18.3497 13.8448 18.0787 13.4548 18.1517 13.0478C18.2167 12.6848 18.2497 12.3178 18.2497 11.9488Z"
            fill="#303233" />
    </g>
    <defs>
        <clipPath id="clip0_53_5590">
            <rect width="24" height="24" fill="white" />
        </clipPath>
    </defs>
</svg>
