<svg width="24" height="24" viewBox="0 0 24 24" fill="none" xmlns="http://www.w3.org/2000/svg">
    <path fill-rule="evenodd" clip-rule="evenodd"
        d="M5.16957 1.25H12.8304C13.3646 1.24999 13.8104 1.24998 14.1747 1.27974C14.5546 1.31078 14.9112 1.37789 15.2485 1.54973C15.7659 1.81338 16.1866 2.23408 16.4503 2.75153C16.6221 3.08879 16.6892 3.44545 16.7203 3.82533C16.75 4.18956 16.75 4.6354 16.75 5.16955V7.25H18.8304C19.3646 7.24999 19.8104 7.24998 20.1747 7.27974C20.5546 7.31078 20.9112 7.37789 21.2485 7.54973C21.7659 7.81339 22.1866 8.23408 22.4503 8.75153C22.6221 9.08879 22.6892 9.44545 22.7203 9.82533C22.75 10.1896 22.75 10.6354 22.75 11.1695V18.8305C22.75 19.3646 22.75 19.8104 22.7203 20.1747C22.6892 20.5546 22.6221 20.9112 22.4503 21.2485C22.1866 21.7659 21.7659 22.1866 21.2485 22.4503C20.9112 22.6221 20.5546 22.6892 20.1747 22.7203C19.8104 22.75 19.3646 22.75 18.8305 22.75H11.1695C10.6354 22.75 10.1896 22.75 9.82533 22.7203C9.44545 22.6892 9.08879 22.6221 8.75153 22.4503C8.23408 22.1866 7.81339 21.7659 7.54973 21.2485C7.37789 20.9112 7.31078 20.5546 7.27974 20.1747C7.24998 19.8104 7.24999 19.3646 7.25 18.8304V16.75H5.16955C4.6354 16.75 4.18956 16.75 3.82533 16.7203C3.44545 16.6892 3.08879 16.6221 2.75153 16.4503C2.23408 16.1866 1.81338 15.7659 1.54973 15.2485C1.37789 14.9112 1.31078 14.5546 1.27974 14.1747C1.24998 13.8104 1.24999 13.3646 1.25 12.8304V5.16957C1.24999 4.63541 1.24998 4.18956 1.27974 3.82533C1.31078 3.44545 1.37789 3.08879 1.54973 2.75153C1.81338 2.23408 2.23408 1.81338 2.75153 1.54973C3.08879 1.37789 3.44545 1.31078 3.82533 1.27974C4.18956 1.24998 4.63541 1.24999 5.16957 1.25ZM8.75 18.8C8.75 19.3724 8.75058 19.7566 8.77476 20.0525C8.79822 20.3396 8.8401 20.4769 8.88624 20.5675C9.00608 20.8027 9.19731 20.9939 9.43251 21.1138C9.52307 21.1599 9.66035 21.2018 9.94748 21.2252C10.2434 21.2494 10.6276 21.25 11.2 21.25H18.8C19.3724 21.25 19.7566 21.2494 20.0525 21.2252C20.3396 21.2018 20.4769 21.1599 20.5675 21.1138C20.8027 20.9939 20.9939 20.8027 21.1138 20.5675C21.1599 20.4769 21.2018 20.3396 21.2252 20.0525C21.2494 19.7566 21.25 19.3724 21.25 18.8V11.2C21.25 10.6276 21.2494 10.2434 21.2252 9.94748C21.2018 9.66035 21.1599 9.52307 21.1138 9.43251C20.9939 9.19731 20.8027 9.00608 20.5675 8.88624C20.4769 8.8401 20.3396 8.79822 20.0525 8.77476C19.7566 8.75058 19.3724 8.75 18.8 8.75H11.2C10.6276 8.75 10.2434 8.75058 9.94748 8.77476C9.66035 8.79822 9.52307 8.8401 9.43251 8.88624C9.19731 9.00608 9.00608 9.19731 8.88624 9.43251C8.8401 9.52307 8.79822 9.66035 8.77476 9.94748C8.75058 10.2434 8.75 10.6276 8.75 11.2V18.8ZM15.25 7.25H11.1696C10.6354 7.24999 10.1896 7.24998 9.82533 7.27974C9.44545 7.31078 9.08879 7.37789 8.75153 7.54973C8.23408 7.81339 7.81339 8.23408 7.54973 8.75153C7.37789 9.08879 7.31078 9.44545 7.27974 9.82533C7.24998 10.1896 7.24999 10.6354 7.25 11.1696V15.25H5.2C4.62757 15.25 4.24336 15.2494 3.94748 15.2252C3.66036 15.2018 3.52307 15.1599 3.43251 15.1138C3.19731 14.9939 3.00608 14.8027 2.88624 14.5675C2.8401 14.4769 2.79822 14.3396 2.77476 14.0525C2.75058 13.7566 2.75 13.3724 2.75 12.8V5.2C2.75 4.62757 2.75058 4.24336 2.77476 3.94748C2.79822 3.66036 2.8401 3.52307 2.88624 3.43251C3.00608 3.19731 3.19731 3.00608 3.43251 2.88624C3.52307 2.8401 3.66036 2.79822 3.94748 2.77476C4.24336 2.75058 4.62757 2.75 5.2 2.75H12.8C13.3724 2.75 13.7566 2.75058 14.0525 2.77476C14.3396 2.79822 14.4769 2.8401 14.5675 2.88624C14.8027 3.00608 14.9939 3.19731 15.1138 3.43251C15.1599 3.52307 15.2018 3.66036 15.2252 3.94748C15.2494 4.24336 15.25 4.62757 15.25 5.2V7.25Z"
        fill="#303233" />
</svg>
