<svg width="24" height="24" viewBox="0 0 24 24" fill="none" xmlns="http://www.w3.org/2000/svg">
    <path fill-rule="evenodd" clip-rule="evenodd"
        d="M10.1696 2.25H13.8304C14.3646 2.24999 14.8104 2.24998 15.1747 2.27974C15.5546 2.31078 15.9112 2.37789 16.2485 2.54973C16.7659 2.81338 17.1866 3.23408 17.4503 3.75153C17.6221 4.08879 17.6892 4.44545 17.7203 4.82533C17.75 5.18956 17.75 5.6354 17.75 6.16955V10.25L19.4262 10.25C19.6837 10.25 19.9202 10.25 20.1179 10.2661C20.331 10.2835 20.5642 10.3234 20.7945 10.4407C21.1238 10.6085 21.3915 10.8762 21.5593 11.2055C21.6766 11.4358 21.7165 11.669 21.7339 11.8821C21.75 12.0798 21.75 12.3163 21.75 12.5738V20.25H22C22.4142 20.25 22.75 20.5858 22.75 21C22.75 21.4142 22.4142 21.75 22 21.75H2C1.58579 21.75 1.25 21.4142 1.25 21C1.25 20.5858 1.58579 20.25 2 20.25H2.25L2.25 12.5738C2.24998 12.3163 2.24996 12.0798 2.26612 11.8821C2.28353 11.669 2.32339 11.4358 2.44074 11.2055C2.60852 10.8762 2.87623 10.6085 3.20552 10.4407C3.43582 10.3234 3.669 10.2835 3.88213 10.2661C4.07982 10.25 4.3163 10.25 4.57379 10.25L6.25 10.25V6.16957C6.24999 5.63542 6.24998 5.18957 6.27974 4.82533C6.31078 4.44545 6.37789 4.08879 6.54973 3.75153C6.81338 3.23408 7.23408 2.81338 7.75153 2.54973C8.08879 2.37789 8.44545 2.31078 8.82533 2.27974C9.18956 2.24998 9.63541 2.24999 10.1696 2.25ZM6.25 11.75H4.6C4.3076 11.75 4.1334 11.7506 4.00428 11.7611C3.92547 11.7676 3.89235 11.7761 3.88346 11.7788C3.83882 11.8023 3.80234 11.8388 3.77882 11.8835C3.77607 11.8923 3.76757 11.9255 3.76113 12.0043C3.75058 12.1334 3.75 12.3076 3.75 12.6V20.25H6.25V11.75ZM7.75 20.25V6.2C7.75 5.62757 7.75058 5.24336 7.77476 4.94748C7.79822 4.66036 7.8401 4.52307 7.88624 4.43251C8.00608 4.19731 8.19731 4.00608 8.43251 3.88624C8.52307 3.8401 8.66035 3.79822 8.94748 3.77476C9.24336 3.75058 9.62757 3.75 10.2 3.75H13.8C14.3724 3.75 14.7566 3.75058 15.0525 3.77476C15.3396 3.79822 15.4769 3.8401 15.5675 3.88624C15.8027 4.00608 15.9939 4.19731 16.1138 4.43251C16.1599 4.52307 16.2018 4.66036 16.2252 4.94748C16.2494 5.24336 16.25 5.62757 16.25 6.2V20.25H7.75ZM17.75 20.25H20.25V12.6C20.25 12.3076 20.2494 12.1334 20.2389 12.0043C20.2324 11.9255 20.2239 11.8924 20.2212 11.8835C20.1977 11.8388 20.1612 11.8023 20.1165 11.7788C20.1077 11.7761 20.0745 11.7676 19.9957 11.7611C19.8666 11.7506 19.6924 11.75 19.4 11.75H17.75V20.25ZM20.1191 11.7797C20.1191 11.7797 20.1186 11.7796 20.1176 11.7792L20.1191 11.7797ZM20.2203 11.8809C20.2203 11.8808 20.2205 11.8813 20.2208 11.8824L20.2203 11.8809ZM3.77918 11.8824C3.77952 11.8813 3.77972 11.8808 3.77973 11.8809L3.77918 11.8824ZM3.88088 11.7797C3.88084 11.7797 3.88131 11.7795 3.88236 11.7792L3.88088 11.7797ZM10.25 7C10.25 6.58579 10.5858 6.25 11 6.25H13C13.4142 6.25 13.75 6.58579 13.75 7C13.75 7.41421 13.4142 7.75 13 7.75H11C10.5858 7.75 10.25 7.41421 10.25 7ZM10.25 11C10.25 10.5858 10.5858 10.25 11 10.25H13C13.4142 10.25 13.75 10.5858 13.75 11C13.75 11.4142 13.4142 11.75 13 11.75H11C10.5858 11.75 10.25 11.4142 10.25 11ZM10.25 15C10.25 14.5858 10.5858 14.25 11 14.25H13C13.4142 14.25 13.75 14.5858 13.75 15C13.75 15.4142 13.4142 15.75 13 15.75H11C10.5858 15.75 10.25 15.4142 10.25 15Z"
        fill="#303233" />
</svg>
