<svg width="16" height="16" viewBox="0 0 16 16" fill="none" xmlns="http://www.w3.org/2000/svg">
    <path fill-rule="evenodd" clip-rule="evenodd"
        d="M8 2C4.68629 2 2 4.68629 2 8C2 11.3137 4.68629 14 8 14C11.3137 14 14 11.3137 14 8C14 4.68629 11.3137 2 8 2ZM1 8C1 4.13401 4.13401 1 8 1C11.866 1 15 4.13401 15 8C15 11.866 11.866 15 8 15C4.13401 15 1 11.866 1 8Z"
        fill="#303233" />
    <path fill-rule="evenodd" clip-rule="evenodd"
        d="M6.78405 5.5C6.78936 5.5 6.79468 5.5 6.8 5.5H9.2C9.20532 5.5 9.21064 5.5 9.21595 5.5C9.34214 5.49998 9.46504 5.49997 9.56911 5.50847C9.68341 5.51781 9.81828 5.53984 9.95399 5.60899C10.1422 5.70487 10.2951 5.85785 10.391 6.04601C10.4602 6.18172 10.4822 6.31659 10.4915 6.43089C10.5 6.53496 10.5 6.65785 10.5 6.78404V9.21596C10.5 9.34215 10.5 9.46504 10.4915 9.56911C10.4822 9.68341 10.4602 9.81828 10.391 9.95399C10.2951 10.1422 10.1422 10.2951 9.95399 10.391C9.81828 10.4602 9.68341 10.4822 9.56911 10.4915C9.46504 10.5 9.34215 10.5 9.21596 10.5H6.78404C6.65785 10.5 6.53496 10.5 6.43089 10.4915C6.31659 10.4822 6.18172 10.4602 6.04601 10.391C5.85785 10.2951 5.70487 10.1422 5.60899 9.95399C5.53984 9.81828 5.51781 9.68341 5.50847 9.56911C5.49997 9.46504 5.49998 9.34214 5.5 9.21595C5.5 9.21064 5.5 9.20532 5.5 9.2V6.8C5.5 6.79468 5.5 6.78936 5.5 6.78405C5.49998 6.65786 5.49997 6.53496 5.50847 6.43089C5.51781 6.31659 5.53984 6.18172 5.60899 6.04601C5.70487 5.85785 5.85785 5.70487 6.04601 5.60899C6.18172 5.53984 6.31659 5.51781 6.43089 5.50847C6.53496 5.49997 6.65786 5.49998 6.78405 5.5Z"
        fill="#303233" />
</svg>
