<svg width="24" height="24" viewBox="0 0 24 24" fill="none" xmlns="http://www.w3.org/2000/svg">
    <path
        d="M18 5.75C17.5858 5.75 17.25 6.08579 17.25 6.5C17.25 6.91421 17.5858 7.25 18 7.25H18.01C18.4242 7.25 18.76 6.91421 18.76 6.5C18.76 6.08579 18.4242 5.75 18.01 5.75H18Z"
        fill="#303233" />
    <path fill-rule="evenodd" clip-rule="evenodd"
        d="M5 1.75C2.92893 1.75 1.25 3.42893 1.25 5.5V7.5C1.25 9.57107 2.92893 11.25 5 11.25H19C21.0711 11.25 22.75 9.57107 22.75 7.5V5.5C22.75 3.42893 21.0711 1.75 19 1.75H5ZM2.75 5.5C2.75 4.25736 3.75736 3.25 5 3.25H19C20.2426 3.25 21.25 4.25736 21.25 5.5V7.5C21.25 8.74264 20.2426 9.75 19 9.75H5C3.75736 9.75 2.75 8.74264 2.75 7.5V5.5Z"
        fill="#303233" />
    <path
        d="M18 16.75C17.5858 16.75 17.25 17.0858 17.25 17.5C17.25 17.9142 17.5858 18.25 18 18.25H18.01C18.4242 18.25 18.76 17.9142 18.76 17.5C18.76 17.0858 18.4242 16.75 18.01 16.75H18Z"
        fill="#303233" />
    <path fill-rule="evenodd" clip-rule="evenodd"
        d="M1.25 16.5C1.25 14.4289 2.92893 12.75 5 12.75H19C21.0711 12.75 22.75 14.4289 22.75 16.5V18.5C22.75 20.5711 21.0711 22.25 19 22.25H5C2.92893 22.25 1.25 20.5711 1.25 18.5V16.5ZM5 14.25C3.75736 14.25 2.75 15.2574 2.75 16.5V18.5C2.75 19.7426 3.75736 20.75 5 20.75H19C20.2426 20.75 21.25 19.7426 21.25 18.5V16.5C21.25 15.2574 20.2426 14.25 19 14.25H5Z"
        fill="#303233" />
</svg>
