<svg width="24" height="24" viewBox="0 0 24 24" fill="none" xmlns="http://www.w3.org/2000/svg">
    <path
        d="M16.5303 9.53033C16.8232 9.23744 16.8232 8.76256 16.5303 8.46967C16.2374 8.17678 15.7626 8.17678 15.4697 8.46967L10.5 13.4393L8.53033 11.4697C8.23744 11.1768 7.76256 11.1768 7.46967 11.4697C7.17678 11.7626 7.17678 12.2374 7.46967 12.5303L9.96967 15.0303C10.2626 15.3232 10.7374 15.3232 11.0303 15.0303L16.5303 9.53033Z"
        fill="#303233" />
    <path fill-rule="evenodd" clip-rule="evenodd"
        d="M12 3.25C17.407 3.25 21.75 7.19299 21.75 12C21.75 16.806 17.408 20.749 12.001 20.75C10.657 20.754 9.32503 20.503 8.07803 20.012C7.81203 19.907 7.52303 19.86 7.24203 19.916L3.14704 20.735C2.88004 20.789 2.60504 20.693 2.42904 20.486C2.25204 20.278 2.20204 19.992 2.29804 19.737L3.31904 17.013C3.47804 16.59 3.38304 16.123 3.17304 15.722C2.58104 14.591 2.25004 13.33 2.25004 12C2.25004 7.19299 6.59303 3.25 12 3.25ZM12 19.25C16.533 19.25 20.25 16.03 20.25 12C20.25 7.96999 16.533 4.75 12 4.75C7.46703 4.75 3.75004 7.96999 3.75004 12C3.75004 13.081 4.02004 14.106 4.50204 15.026C4.91003 15.804 5.03203 16.717 4.72304 17.54L4.17604 19L6.94803 18.445C7.51103 18.333 8.09303 18.406 8.62803 18.616C9.69902 19.038 10.842 19.254 11.997 19.25H12Z"
        fill="#303233" />
</svg>
