<svg width="24" height="24" viewBox="0 0 24 24" fill="none" xmlns="http://www.w3.org/2000/svg">
    <path fill-rule="evenodd" clip-rule="evenodd"
        d="M10 7C10 4.23858 12.2386 2 15 2C17.7614 2 20 4.23858 20 7C20 9.76142 17.7614 12 15 12C12.2386 12 10 9.76142 10 7Z"
        fill="#303233" />
    <path fill-rule="evenodd" clip-rule="evenodd"
        d="M5.5 5C5.90606 5 6.2718 5.24554 6.42555 5.62137L10.9256 16.6214C11.0517 16.9298 11.016 17.2807 10.8303 17.5574C10.6445 17.834 10.3332 18 10 18H1C0.666797 18 0.35548 17.834 0.169754 17.5574C-0.0159727 17.2807 -0.0517057 16.9298 0.0744574 16.6214L4.57446 5.62137C4.7282 5.24554 5.09395 5 5.5 5Z"
        fill="#303233" />
    <path fill-rule="evenodd" clip-rule="evenodd"
        d="M14 14C13.4477 14 13 14.4477 13 15V21C13 21.5523 13.4477 22 14 22H22C22.5523 22 23 21.5523 23 21V15C23 14.4477 22.5523 14 22 14H14Z"
        fill="#303233" />
</svg>
