<svg width="24" height="24" viewBox="0 0 24 24" fill="none" xmlns="http://www.w3.org/2000/svg">
    <path
        d="M12.2929 11.2929C12.6834 10.9024 13.3166 10.9024 13.7071 11.2929L16.7071 14.2929C17.0976 14.6834 17.0976 15.3166 16.7071 15.7071L13.7071 18.7071C13.3166 19.0976 12.6834 19.0976 12.2929 18.7071C11.9024 18.3166 11.9024 17.6834 12.2929 17.2929L13.5858 16H8C7.44772 16 7 15.5523 7 15C7 14.4477 7.44772 14 8 14H13.5858L12.2929 12.7071C11.9024 12.3166 11.9024 11.6834 12.2929 11.2929Z"
        fill="#303233" />
    <path fill-rule="evenodd" clip-rule="evenodd"
        d="M16 1C16.5523 1 17 1.44772 17 2V3H19C20.6569 3 22 4.34315 22 6V20C22 21.6569 20.6569 23 19 23H5C3.34315 23 2 21.6569 2 20V6C2 4.34315 3.34315 3 5 3H7V2C7 1.44772 7.44772 1 8 1C8.55228 1 9 1.44772 9 2V3H15V2C15 1.44772 15.4477 1 16 1ZM20 6V7H4V6C4 5.44772 4.44772 5 5 5H7C7 5.55228 7.44772 6 8 6C8.55228 6 9 5.55228 9 5H15C15 5.55228 15.4477 6 16 6C16.5523 6 17 5.55228 17 5H19C19.5523 5 20 5.44772 20 6ZM4 20V9H20V20C20 20.5523 19.5523 21 19 21H5C4.44772 21 4 20.5523 4 20Z"
        fill="#303233" />
</svg>
