<svg width="24" height="24" viewBox="0 0 24 24" fill="none" xmlns="http://www.w3.org/2000/svg">
    <path fill-rule="evenodd" clip-rule="evenodd"
        d="M9.70711 3.29289C10.0976 3.68342 10.0976 4.31658 9.70711 4.70711L6.41421 8H10.4444C12.087 7.99999 13.3809 7.99999 14.4222 8.08507C15.4846 8.17186 16.3717 8.35217 17.1779 8.76295C18.4951 9.43407 19.5659 10.5049 20.237 11.8221C20.6478 12.6283 20.8281 13.5154 20.9149 14.5778C21 15.6191 21 16.913 21 18.5556V20C21 20.5523 20.5523 21 20 21C19.4477 21 19 20.5523 19 20V18.6C19 16.9033 18.9992 15.691 18.9216 14.7406C18.8449 13.802 18.6982 13.2073 18.455 12.73C17.9757 11.7892 17.2108 11.0243 16.27 10.545C15.7927 10.3018 15.198 10.1551 14.2594 10.0784C13.309 10.0008 12.0967 10 10.4 10H6.41421L9.70711 13.2929C10.0976 13.6834 10.0976 14.3166 9.70711 14.7071C9.31658 15.0976 8.68342 15.0976 8.29289 14.7071L3.29289 9.70711C2.90237 9.31658 2.90237 8.68342 3.29289 8.29289L8.29289 3.29289C8.68342 2.90237 9.31658 2.90237 9.70711 3.29289Z"
        fill="#303233" />
</svg>
