<svg width="24" height="24" viewBox="0 0 24 24" fill="none" xmlns="http://www.w3.org/2000/svg">
    <path fill-rule="evenodd" clip-rule="evenodd"
        d="M15.0102 1C15.5625 1 16.0102 1.44772 16.0102 2V3.5C16.0102 4.05228 15.5625 4.5 15.0102 4.5C14.4579 4.5 14.0102 4.05228 14.0102 3.5V2C14.0102 1.44772 14.4579 1 15.0102 1ZM9.24243 3.29289C9.63296 2.90237 10.2661 2.90237 10.6566 3.29289L11.7173 4.35355C12.1078 4.74408 12.1078 5.37724 11.7173 5.76777C11.3268 6.15829 10.6936 6.15829 10.3031 5.76777L9.24243 4.70711C8.85191 4.31658 8.85191 3.68342 9.24243 3.29289ZM20.7173 3.29289C21.1078 3.68342 21.1078 4.31658 20.7173 4.70711L19.6566 5.76777C19.2661 6.15829 18.633 6.15829 18.2424 5.76777C17.8519 5.37724 17.8519 4.74408 18.2424 4.35355L19.3031 3.29289C19.6936 2.90237 20.3268 2.90237 20.7173 3.29289ZM12.8818 7.0121C13.2835 6.88158 13.7162 6.88158 14.1179 7.0121C14.4076 7.10624 14.6295 7.2658 14.8043 7.41424C14.9636 7.54941 15.1373 7.72324 15.3158 7.90173L16.0981 8.68406C16.2766 8.86251 16.4504 9.03629 16.5856 9.19551C16.734 9.37036 16.8936 9.59225 16.9877 9.88197C17.1183 10.2837 17.1183 10.7163 16.9877 11.118C16.8936 11.4078 16.734 11.6296 16.5856 11.8045C16.4504 11.9637 16.2766 12.1375 16.0981 12.3159L13.7077 14.7064L13.707 14.7071L13.7062 14.7078L6.81579 21.5983C6.63734 21.7768 6.46356 21.9506 6.30434 22.0858C6.12949 22.2342 5.9076 22.3938 5.61788 22.4879C5.2162 22.6184 4.7835 22.6184 4.38181 22.4879C4.0921 22.3938 3.87021 22.2342 3.69536 22.0858C3.53614 21.9506 3.36236 21.7768 3.18391 21.5983L3.16137 21.5757L2.42411 20.8385L2.40155 20.8159C2.22307 20.6375 2.04925 20.4637 1.91409 20.3045C1.76566 20.1296 1.60608 19.9078 1.51195 19.618C1.38143 19.2163 1.38143 18.7837 1.51195 18.382C1.60608 18.0922 1.76565 17.8704 1.91409 17.6955C2.04925 17.5363 2.22308 17.3625 2.40156 17.1841L9.29239 10.2932L11.6839 7.9017C11.8624 7.72322 12.0361 7.5494 12.1954 7.41424C12.3702 7.26581 12.5921 7.10624 12.8818 7.0121ZM9.99985 12.4142L3.83833 18.5757C3.62865 18.7854 3.51447 18.9007 3.43877 18.9899C3.43575 18.9934 3.43292 18.9968 3.43026 19C3.43292 19.0032 3.43575 19.0066 3.43877 19.0101C3.51447 19.0993 3.62865 19.2146 3.83833 19.4243L4.57559 20.1615C4.78526 20.3712 4.90054 20.4854 4.98971 20.5611C4.99326 20.5641 4.99665 20.5669 4.99985 20.5696C5.00306 20.5669 5.00643 20.5641 5.00998 20.5611C5.09916 20.4854 5.21444 20.3712 5.42411 20.1615L11.5856 14L9.99985 12.4142ZM12.9998 12.5858L11.4141 11L13.0756 9.33848C13.2853 9.1288 13.4005 9.01462 13.4897 8.93892C13.4933 8.9359 13.4966 8.93307 13.4998 8.9304C13.5031 8.93307 13.5064 8.9359 13.51 8.93892C13.5992 9.01462 13.7144 9.1288 13.9241 9.33848L14.6614 10.0757C14.871 10.2854 14.9852 10.4007 15.0609 10.4899C15.0639 10.4934 15.0668 10.4968 15.0694 10.5C15.0668 10.5032 15.0639 10.5066 15.0609 10.5101C14.9852 10.5993 14.871 10.7146 14.6614 10.9243L12.9998 12.5858ZM19.5102 9C19.5102 8.44772 19.9579 8 20.5102 8H22.0102C22.5625 8 23.0102 8.44772 23.0102 9C23.0102 9.55228 22.5625 10 22.0102 10H20.5102C19.9579 10 19.5102 9.55228 19.5102 9ZM18.2424 12.2929C18.633 11.9024 19.2661 11.9024 19.6566 12.2929L20.7173 13.3536C21.1078 13.7441 21.1078 14.3772 20.7173 14.7678C20.3268 15.1583 19.6936 15.1583 19.3031 14.7678L18.2424 13.7071C17.8519 13.3166 17.8519 12.6834 18.2424 12.2929Z"
        fill="#303233" />
</svg>
