<svg width="24" height="24" viewBox="0 0 24 24" fill="none" xmlns="http://www.w3.org/2000/svg">
    <path
        d="M5.5 8.75C5.5 5.57436 8.07436 3 11.25 3C13.59 3 15.6057 4.3979 16.5034 6.40835C16.6665 6.77355 17.0315 7.00646 17.4314 7.00051C17.4543 7.00017 17.4771 7 17.5 7C19.9853 7 22 9.01472 22 11.5C22 13.9853 19.9853 16 17.5 16C16.9477 16 16.5 16.4477 16.5 17C16.5 17.5523 16.9477 18 17.5 18C21.0898 18 24 15.0899 24 11.5C24 8.0941 21.3805 5.30003 18.0462 5.02263C16.7293 2.62648 14.1806 1 11.25 1C7.14669 1 3.78819 4.18892 3.51759 8.22365C1.47969 8.85556 0 10.7544 0 13C0 15.7614 2.23858 18 5 18H6.5C7.05228 18 7.5 17.5523 7.5 17C7.5 16.4477 7.05228 16 6.5 16H5C3.34315 16 2 14.6569 2 13C2 11.4694 3.14711 10.2052 4.62803 10.0227C5.14472 9.95905 5.52612 9.5096 5.50488 8.98943C5.50164 8.91008 5.5 8.83026 5.5 8.75Z"
        fill="#303233" />
    <path
        d="M12 12C12.5523 12 13 12.4477 13 13V20.5858L14.2929 19.2929C14.6834 18.9024 15.3166 18.9024 15.7071 19.2929C16.0976 19.6834 16.0976 20.3166 15.7071 20.7071L12.7071 23.7071C12.3166 24.0976 11.6834 24.0976 11.2929 23.7071L8.29289 20.7071C7.90237 20.3166 7.90237 19.6834 8.29289 19.2929C8.68342 18.9024 9.31658 18.9024 9.70711 19.2929L11 20.5858V13C11 12.4477 11.4477 12 12 12Z"
        fill="#303233" />
</svg>
