<svg width="16" height="16" viewBox="0 0 16 16" fill="none" xmlns="http://www.w3.org/2000/svg">
    <path
        d="M6.5 8C6.5 7.17157 7.17157 6.5 8 6.5C8.82843 6.5 9.5 7.17157 9.5 8C9.5 8.82843 8.82843 9.5 8 9.5C7.17157 9.5 6.5 8.82843 6.5 8Z"
        fill="#303233" />
    <path fill-rule="evenodd" clip-rule="evenodd"
        d="M12.3054 10.3403C12.2706 10.1487 12.2941 9.95095 12.3727 9.77273C12.4476 9.59795 12.572 9.4489 12.7305 9.34391C12.8891 9.23892 13.0749 9.18258 13.265 9.18182H13.3182C13.6316 9.18182 13.9322 9.0573 14.1539 8.83567C14.3755 8.61404 14.5 8.31344 14.5 8C14.5 7.68656 14.3755 7.38596 14.1539 7.16433C13.9322 6.94269 13.6316 6.81818 13.3182 6.81818H13.2177C13.0276 6.81742 12.8418 6.76108 12.6833 6.65609C12.5247 6.5511 12.4004 6.40205 12.3255 6.22727V6.18C12.2468 6.00177 12.2233 5.80407 12.2581 5.61238C12.2928 5.42069 12.3842 5.24381 12.5205 5.10455L12.5559 5.06909C12.6658 4.95933 12.753 4.82899 12.8124 4.68552C12.8719 4.54205 12.9025 4.38826 12.9025 4.23295C12.9025 4.07765 12.8719 3.92386 12.8124 3.78039C12.753 3.63692 12.6658 3.50658 12.5559 3.39682C12.4461 3.28694 12.3158 3.19977 12.1723 3.14029C12.0289 3.08082 11.8751 3.05021 11.7198 3.05021C11.5645 3.05021 11.4107 3.08082 11.2672 3.14029C11.1237 3.19977 10.9934 3.28694 10.8836 3.39682L10.8482 3.43227C10.7089 3.5685 10.532 3.65988 10.3403 3.69464C10.1487 3.7294 9.95095 3.70593 9.77273 3.62727C9.59795 3.55237 9.4489 3.42799 9.34391 3.26946C9.23892 3.11092 9.18258 2.92515 9.18182 2.735V2.68182C9.18182 2.36838 9.0573 2.06778 8.83567 1.84615C8.61404 1.62451 8.31344 1.5 8 1.5C7.68656 1.5 7.38596 1.62451 7.16433 1.84615C6.94269 2.06778 6.81818 2.36838 6.81818 2.68182V2.78227C6.81742 2.97242 6.76108 3.15819 6.65609 3.31673C6.5511 3.47526 6.40205 3.59964 6.22727 3.67455H6.18C6.00177 3.7532 5.80407 3.77667 5.61238 3.74191C5.42069 3.70715 5.24381 3.61577 5.10455 3.47955L5.06909 3.44409C4.95933 3.33421 4.82899 3.24704 4.68552 3.18757C4.54205 3.12809 4.38826 3.09748 4.23295 3.09748C4.07765 3.09748 3.92386 3.12809 3.78039 3.18757C3.63692 3.24704 3.50658 3.33421 3.39682 3.44409C3.28694 3.55385 3.19977 3.68419 3.14029 3.82766C3.08082 3.97113 3.05021 4.12492 3.05021 4.28023C3.05021 4.43554 3.08082 4.58932 3.14029 4.73279C3.19977 4.87626 3.28694 5.0066 3.39682 5.11636L3.43227 5.15182C3.5685 5.29108 3.65988 5.46796 3.69464 5.65965C3.7294 5.85134 3.70593 6.04905 3.62727 6.22727C3.55974 6.41089 3.43853 6.56994 3.2794 6.68376C3.12028 6.79757 2.93059 6.86088 2.735 6.86545H2.68182C2.36838 6.86545 2.06778 6.98997 1.84615 7.2116C1.62451 7.43323 1.5 7.73383 1.5 8.04727C1.5 8.36071 1.62451 8.66131 1.84615 8.88294C2.06778 9.10458 2.36838 9.22909 2.68182 9.22909H2.78227C2.97242 9.22985 3.15819 9.28619 3.31673 9.39118C3.47526 9.49617 3.59964 9.64523 3.67455 9.82C3.7532 9.99823 3.77667 10.1959 3.74191 10.3876C3.70715 10.5793 3.61577 10.7562 3.47955 10.8955L3.44409 10.9309C3.33421 11.0407 3.24704 11.171 3.18757 11.3145C3.12809 11.4579 3.09748 11.6117 3.09748 11.767C3.09748 11.9224 3.12809 12.0761 3.18757 12.2196C3.24704 12.3631 3.33421 12.4934 3.44409 12.6032C3.55385 12.7131 3.68419 12.8002 3.82766 12.8597C3.97113 12.9192 4.12492 12.9498 4.28023 12.9498C4.43554 12.9498 4.58932 12.9192 4.73279 12.8597C4.87626 12.8002 5.0066 12.7131 5.11636 12.6032L5.15182 12.5677C5.29108 12.4315 5.46796 12.3401 5.65965 12.3054C5.85134 12.2706 6.04905 12.2941 6.22727 12.3727C6.41089 12.4403 6.56994 12.5615 6.68376 12.7206C6.79757 12.8797 6.86088 13.0694 6.86545 13.265V13.3182C6.86545 13.6316 6.98997 13.9322 7.2116 14.1539C7.43323 14.3755 7.73383 14.5 8.04727 14.5C8.36071 14.5 8.66131 14.3755 8.88294 14.1539C9.10458 13.9322 9.22909 13.6316 9.22909 13.3182V13.2177C9.22985 13.0276 9.28619 12.8418 9.39118 12.6833C9.49617 12.5247 9.64523 12.4004 9.82 12.3255C9.99823 12.2468 10.1959 12.2233 10.3876 12.2581C10.5793 12.2928 10.7562 12.3842 10.8955 12.5205L10.9309 12.5559C11.0407 12.6658 11.171 12.753 11.3145 12.8124C11.4579 12.8719 11.6117 12.9025 11.767 12.9025C11.9224 12.9025 12.0761 12.8719 12.2196 12.8124C12.3631 12.753 12.4934 12.6658 12.6032 12.5559C12.7131 12.4461 12.8002 12.3158 12.8597 12.1723C12.9192 12.0289 12.9498 11.8751 12.9498 11.7198C12.9498 11.5645 12.9192 11.4107 12.8597 11.2672C12.8002 11.1237 12.7131 10.9934 12.6032 10.8836L12.5677 10.8482C12.4315 10.7089 12.3401 10.532 12.3054 10.3403ZM8 5.5C6.61929 5.5 5.5 6.61929 5.5 8C5.5 9.38071 6.61929 10.5 8 10.5C9.38071 10.5 10.5 9.38071 10.5 8C10.5 6.61929 9.38071 5.5 8 5.5Z"
        fill="#303233" />
</svg>
