<svg width="16" height="16" viewBox="0 0 16 16" fill="none" xmlns="http://www.w3.org/2000/svg">
    <path
        d="M4.9096 1H3.0904C2.8224 0.999992 2.59118 0.999984 2.40085 1.01579C2.19991 1.03248 2.00017 1.06934 1.80854 1.16888C1.53457 1.31119 1.31119 1.53457 1.16888 1.80854C1.06934 2.00017 1.03248 2.19991 1.01579 2.40085C0.999984 2.59118 0.999992 2.82238 1 3.09038V4.9096C0.999992 5.17761 0.999984 5.40882 1.01579 5.59915C1.03248 5.80009 1.06934 5.99983 1.16888 6.19146C1.31119 6.46543 1.53457 6.68881 1.80854 6.83112C2.00017 6.93067 2.19991 6.96753 2.40085 6.98421C2.59118 7.00002 2.82238 7.00001 3.09039 7H4.90961C5.17762 7.00001 5.40882 7.00002 5.59915 6.98421C5.80009 6.96753 5.99983 6.93067 6.19146 6.83112C6.46543 6.68881 6.68881 6.46543 6.83112 6.19146C6.93067 5.99983 6.96753 5.80009 6.98421 5.59915C7.00002 5.40882 7.00001 5.17762 7 4.90961V3.09039C7.00001 2.82238 7.00002 2.59118 6.98421 2.40085C6.96753 2.19991 6.93067 2.00017 6.83112 1.80854C6.68881 1.53457 6.46543 1.31119 6.19146 1.16888C5.99983 1.06934 5.80009 1.03248 5.59915 1.01579C5.40882 0.999984 5.17761 0.999992 4.9096 1Z"
        fill="#303233" />
    <path
        d="M12.9096 1H11.0904C10.8224 0.999992 10.5912 0.999984 10.4009 1.01579C10.1999 1.03248 10.0002 1.06934 9.80854 1.16888C9.53457 1.31119 9.31119 1.53457 9.16888 1.80854C9.06933 2.00017 9.03248 2.19991 9.01579 2.40085C8.99998 2.59117 8.99999 2.82235 9 3.09034V4.9096C8.99999 5.17759 8.99998 5.40883 9.01579 5.59915C9.03248 5.80009 9.06933 5.99983 9.16888 6.19146C9.31119 6.46543 9.53457 6.68881 9.80854 6.83112C10.0002 6.93067 10.1999 6.96753 10.4009 6.98421C10.5912 7.00002 10.8224 7.00001 11.0904 7H12.9096C13.1776 7.00001 13.4088 7.00002 13.5992 6.98421C13.8001 6.96753 13.9998 6.93067 14.1915 6.83112C14.4654 6.68881 14.6888 6.46543 14.8311 6.19146C14.9307 5.99983 14.9675 5.80009 14.9842 5.59915C15 5.40883 15 5.17765 15 4.90967V3.09039C15 2.82241 15 2.59117 14.9842 2.40085C14.9675 2.19991 14.9307 2.00017 14.8311 1.80854C14.6888 1.53457 14.4654 1.31119 14.1915 1.16888C13.9998 1.06934 13.8001 1.03248 13.5992 1.01579C13.4088 0.999984 13.1776 0.999992 12.9096 1Z"
        fill="#303233" />
    <path
        d="M3.0904 9H4.9096C5.17759 8.99999 5.40883 8.99998 5.59915 9.01579C5.80009 9.03248 5.99983 9.06933 6.19146 9.16888C6.46543 9.31119 6.68881 9.53457 6.83112 9.80854C6.93067 10.0002 6.96753 10.1999 6.98421 10.4009C7.00002 10.5912 7.00001 10.8224 7 11.0904V12.9096C7.00001 13.1776 7.00002 13.4088 6.98421 13.5992C6.96753 13.8001 6.93067 13.9998 6.83112 14.1915C6.68881 14.4654 6.46543 14.6888 6.19146 14.8311C5.99983 14.9307 5.80009 14.9675 5.59915 14.9842C5.40883 15 5.17764 15 4.90965 15H3.09039C2.8224 15 2.59117 15 2.40085 14.9842C2.19991 14.9675 2.00017 14.9307 1.80854 14.8311C1.53457 14.6888 1.31119 14.4654 1.16888 14.1915C1.06934 13.9998 1.03248 13.8001 1.01579 13.5992C0.999984 13.4088 0.999992 13.1776 1 12.9096V11.0904C0.999992 10.8224 0.999984 10.5912 1.01579 10.4009C1.03248 10.1999 1.06934 10.0002 1.16888 9.80854C1.31119 9.53457 1.53457 9.31119 1.80854 9.16888C2.00017 9.06933 2.19991 9.03248 2.40085 9.01579C2.59117 8.99998 2.82241 8.99999 3.0904 9Z"
        fill="#303233" />
    <path
        d="M12.9096 9H11.0904C10.8224 8.99999 10.5912 8.99998 10.4009 9.01579C10.1999 9.03248 10.0002 9.06933 9.80854 9.16888C9.53457 9.31119 9.31119 9.53457 9.16888 9.80854C9.06933 10.0002 9.03248 10.1999 9.01579 10.4009C8.99998 10.5912 8.99999 10.8224 9 11.0904V12.9096C8.99999 13.1776 8.99998 13.4088 9.01579 13.5992C9.03248 13.8001 9.06933 13.9998 9.16888 14.1915C9.31119 14.4654 9.53457 14.6888 9.80854 14.8311C10.0002 14.9307 10.1999 14.9675 10.4009 14.9842C10.5912 15 10.8224 15 11.0904 15H12.9096C13.1776 15 13.4088 15 13.5992 14.9842C13.8001 14.9675 13.9998 14.9307 14.1915 14.8311C14.4654 14.6888 14.6888 14.4654 14.8311 14.1915C14.9307 13.9998 14.9675 13.8001 14.9842 13.5992C15 13.4088 15 13.1776 15 12.9096V11.0904C15 10.8224 15 10.5912 14.9842 10.4009C14.9675 10.1999 14.9307 10.0002 14.8311 9.80854C14.6888 9.53457 14.4654 9.31119 14.1915 9.16888C13.9998 9.06933 13.8001 9.03248 13.5992 9.01579C13.4088 8.99998 13.1776 8.99999 12.9096 9Z"
        fill="#303233" />
</svg>
