<svg width="16" height="16" viewBox="0 0 16 16" fill="none" xmlns="http://www.w3.org/2000/svg">
    <g clip-path="url(#clip0_53_4708)">
        <path fill-rule="evenodd" clip-rule="evenodd"
            d="M15.0303 2.03033C15.3232 1.73744 15.3232 1.26256 15.0303 0.96967C14.7374 0.676777 14.2626 0.676777 13.9697 0.96967L6.76715 8.17219L4.54417 10.3952C4.54398 10.3954 4.54435 10.395 4.54417 10.3952C4.54398 10.3954 4.54323 10.3961 4.54304 10.3963L0.96967 13.9697C0.676777 14.2626 0.676777 14.7374 0.96967 15.0303C1.26256 15.3232 1.73744 15.3232 2.03033 15.0303L5.08779 11.9729C6.73297 13.4542 8.64397 14.4813 10.6572 15.0527L10.6983 15.0644C11.0597 15.1671 11.347 15.2488 11.7398 15.25C12.1894 15.2513 12.7503 15.1055 13.1422 14.8853C13.4854 14.6925 13.7395 14.4382 14.0626 14.1146L14.291 13.8864C14.593 13.5853 14.862 13.317 15.0188 13.007C15.3271 12.3976 15.3271 11.6779 15.0188 11.0685C14.862 10.7585 14.593 10.4902 14.291 10.1891L14.0406 9.93872C13.8422 9.73997 13.6661 9.56352 13.4751 9.43939C12.7634 8.97662 11.8458 8.97662 11.134 9.43939C10.9431 9.56352 10.767 9.73995 10.5687 9.93869L10.5233 9.98411L10.4737 10.0335L10.4697 10.0375L10.4236 10.0155C9.70093 9.66848 9.01276 9.22419 8.37857 8.68209L15.0303 2.03033ZM7.31511 9.74555L6.15008 10.9106C7.60796 12.2071 9.29306 13.1063 11.0667 13.6097C11.4745 13.7255 11.5748 13.7495 11.7443 13.75C11.935 13.7506 12.2413 13.6709 12.4076 13.5775C12.5503 13.4973 12.6582 13.3977 13.0512 13.0047L13.1614 12.8945C13.5744 12.4815 13.6472 12.3954 13.6803 12.3299C13.7732 12.1462 13.7732 11.9292 13.6803 11.7455C13.6472 11.6801 13.5744 11.5939 13.1614 11.1809L13.0252 11.0448C12.7539 10.7734 12.6978 10.7231 12.6575 10.697C12.4429 10.5574 12.1663 10.5574 11.9517 10.697C11.9114 10.7231 11.8553 10.7734 11.584 11.0448L11.5674 11.0613C11.5051 11.1239 11.4228 11.2066 11.3238 11.2775C10.9707 11.5303 10.4918 11.6119 10.0749 11.4904C9.95858 11.4565 9.86272 11.4103 9.79125 11.3758L9.77438 11.3677C8.90165 10.9487 8.07332 10.4077 7.31511 9.74555Z"
            fill="#303233" />
        <path
            d="M3.67006 2.3197C3.85379 2.22677 4.07077 2.22677 4.2545 2.3197C4.3199 2.35278 4.40606 2.4256 4.81907 2.83862L4.95523 2.97478C5.22658 3.24613 5.27685 3.30221 5.30305 3.3425C5.44257 3.55709 5.44257 3.83374 5.30304 4.04833C5.27685 4.08861 5.22659 4.14469 4.95523 4.41605L4.93867 4.43256C4.87612 4.49486 4.79343 4.57722 4.72253 4.67623C4.46972 5.02929 4.38806 5.50819 4.50959 5.92509C4.5435 6.04142 4.58973 6.13727 4.6242 6.20874L4.63232 6.22562C4.73665 6.44291 4.84855 6.65748 4.96801 6.86893C5.17177 7.22956 5.62929 7.35674 5.98993 7.15299C6.35056 6.94923 6.47774 6.49171 6.27399 6.13107C6.17098 5.94875 6.0745 5.76374 5.98454 5.57639L5.96254 5.5303L5.96646 5.52632L6.01589 5.47671L6.0613 5.43135C6.26004 5.23299 6.43648 5.05689 6.56061 4.86596C7.02338 4.1542 7.02338 3.23662 6.56061 2.52486C6.43647 2.33393 6.26004 2.15783 6.06129 1.95946L5.81092 1.70902C5.5098 1.40704 5.2415 1.13796 4.93152 0.981175C4.32211 0.672942 3.60244 0.672942 2.99304 0.981175C2.68305 1.13796 2.41475 1.40703 2.11363 1.70901L1.88537 1.93737C1.56184 2.26053 1.30749 2.51458 1.11471 2.85776C0.894526 3.24973 0.748671 3.81059 0.750009 4.26017C0.751177 4.65297 0.832858 4.94031 0.935582 5.30169L0.947273 5.34284C1.32954 6.68967 1.91586 7.99113 2.70622 9.19818C2.93312 9.54471 3.39799 9.64169 3.74452 9.41478C4.09106 9.18788 4.18804 8.72301 3.96113 8.37648C3.25542 7.29871 2.7318 6.13656 2.39028 4.93327C2.27455 4.52553 2.25051 4.42519 2.25 4.25571C2.24943 4.06495 2.32907 3.75871 2.4225 3.5924C2.50266 3.4497 2.60233 3.34176 2.99534 2.94876L3.10548 2.83862C3.5185 2.4256 3.60465 2.35278 3.67006 2.3197Z"
            fill="#303233" />
    </g>
    <defs>
        <clipPath id="clip0_53_4708">
            <rect width="16" height="16" fill="white" />
        </clipPath>
    </defs>
</svg>
