<svg width="24" height="24" viewBox="0 0 24 24" fill="none" xmlns="http://www.w3.org/2000/svg">
    <path fill-rule="evenodd" clip-rule="evenodd"
        d="M17.2867 3.73644C17.0357 3.84966 16.7006 4.03175 16.2033 4.30286C14.5308 5.21455 12.2229 6.25 10.25 6.25H6.8C5.94755 6.25 5.35331 6.25058 4.89068 6.28838C4.4368 6.32546 4.17604 6.39459 3.97852 6.49523C3.55516 6.71095 3.21095 7.05515 2.99523 7.47852C2.89459 7.67604 2.82546 7.9368 2.78838 8.39068C2.75058 8.85331 2.75 9.44755 2.75 10.3L2.75 11.5C2.75 11.9762 2.75041 12.2958 2.76729 12.5433C2.78372 12.784 2.81319 12.9012 2.84515 12.9784C2.97202 13.2846 3.21536 13.528 3.52165 13.6548C3.5988 13.6868 3.71602 13.7163 3.95674 13.7327C4.20421 13.7496 4.5238 13.75 5 13.75C5.41422 13.75 5.75 14.0858 5.75 14.5V18.75C5.75 19 5.75091 19.0706 5.75602 19.1225C5.81447 19.716 6.28401 20.1855 6.87748 20.244C6.92935 20.2491 6.99999 20.25 7.25 20.25C7.50002 20.25 7.57065 20.2491 7.62252 20.244C8.216 20.1855 8.68553 19.716 8.74398 19.1225C8.74909 19.0706 8.75 19 8.75 18.75V14.5C8.75 14.0858 9.08579 13.75 9.5 13.75H10.25C12.2229 13.75 14.5308 14.7854 16.2033 15.6971C16.7006 15.9682 17.0357 16.1503 17.2867 16.2636C17.4596 16.3416 17.537 16.3595 17.5547 16.3639C17.6177 16.3533 17.6508 16.3332 17.6905 16.282C17.6953 16.265 17.7153 16.1944 17.729 16.0218C17.7494 15.7649 17.75 15.409 17.75 14.8737V5.12628C17.75 4.59098 17.7494 4.23507 17.729 3.97824C17.7153 3.80562 17.6953 3.73499 17.6905 3.71796C17.6508 3.66675 17.6177 3.6467 17.5547 3.63606C17.537 3.6405 17.4596 3.65839 17.2867 3.73644ZM16.6697 2.36917C16.9598 2.23831 17.3294 2.09674 17.7128 2.14369C18.2165 2.20539 18.628 2.44974 18.9233 2.86252C19.1446 3.1719 19.1997 3.54921 19.2243 3.85943C19.25 4.18306 19.25 4.59944 19.25 5.0944V14.9056C19.25 15.4006 19.25 15.8169 19.2243 16.1406C19.1997 16.4508 19.1446 16.8281 18.9233 17.1375C18.628 17.5503 18.2165 17.7946 17.7128 17.8563C17.3294 17.9033 16.9598 17.7617 16.6697 17.6308C16.3608 17.4915 15.9756 17.2815 15.5126 17.029L15.4853 17.0142C13.8237 16.1083 11.81 15.25 10.25 15.25V18.75C10.25 18.7624 10.25 18.7746 10.25 18.7866C10.2501 18.9829 10.2501 19.1342 10.2368 19.2695C10.1082 20.5752 9.07519 21.6082 7.76955 21.7368C7.63416 21.7501 7.48292 21.7501 7.28662 21.75C7.27459 21.75 7.26238 21.75 7.25 21.75C7.23762 21.75 7.22542 21.75 7.21339 21.75C7.01708 21.7501 6.86585 21.7501 6.73046 21.7368C5.42482 21.6082 4.39184 20.5752 4.26325 19.2695C4.24991 19.1342 4.24995 18.9829 4.25 18.7866C4.25 18.7746 4.25 18.7624 4.25 18.75V15.2455C4.10742 15.2425 3.97577 15.2375 3.85464 15.2292C3.53754 15.2076 3.23801 15.1609 2.94762 15.0407C2.2738 14.7616 1.73844 14.2262 1.45933 13.5524C1.33905 13.262 1.29241 12.9625 1.27077 12.6454C1.24999 12.3408 1.24999 11.9697 1.25 11.5253L1.25 10.2679C1.24999 9.45506 1.24999 8.79944 1.29336 8.26853C1.33802 7.72189 1.43238 7.24175 1.65872 6.79753C2.01825 6.09193 2.59193 5.51825 3.29753 5.15872C3.74175 4.93238 4.22189 4.83802 4.76853 4.79336C5.29944 4.74998 5.95506 4.74999 6.7679 4.75L10.25 4.75C11.8099 4.75 13.8236 3.89167 15.4853 2.98584L15.5127 2.97093C15.9757 2.71853 16.3609 2.50854 16.6697 2.36917ZM22 7.25C22.4142 7.25 22.75 7.58579 22.75 8V12C22.75 12.4142 22.4142 12.75 22 12.75C21.5858 12.75 21.25 12.4142 21.25 12V8C21.25 7.58579 21.5858 7.25 22 7.25Z"
        fill="#303233" />
</svg>
