<svg width="16" height="16" viewBox="0 0 16 16" fill="none" xmlns="http://www.w3.org/2000/svg">
    <path fill-rule="evenodd" clip-rule="evenodd"
        d="M6.78058 0.807208C7.49948 0.254205 8.50052 0.254206 9.21942 0.807208L14.2194 4.65336C14.7116 5.03195 15 5.61767 15 6.23861V13C15 14.1046 14.1046 15 13 15H3C1.89543 15 1 14.1046 1 13V6.23861C1 5.61767 1.28841 5.03195 1.78058 4.65336L6.78058 0.807208ZM8.60971 1.59983C8.25026 1.32333 7.74974 1.32333 7.39029 1.59983L2.39029 5.44599C2.1442 5.63528 2 5.92814 2 6.23861V13C2 13.5523 2.44772 14 3 14H13C13.5523 14 14 13.5523 14 13V6.23861C14 5.92814 13.8558 5.63528 13.6097 5.44599L8.60971 1.59983Z"
        fill="#303233" />
</svg>
