<svg width="16" height="16" viewBox="0 0 16 16" fill="none" xmlns="http://www.w3.org/2000/svg">
    <path fill-rule="evenodd" clip-rule="evenodd"
        d="M12.6846 4.48304C13.3287 3.83899 14.3729 3.83898 15.0169 4.48302C15.661 5.12708 15.661 6.17133 15.0169 6.8154L10.8194 11.0129C10.8148 11.0175 10.8102 11.0221 10.8055 11.0268C10.7487 11.0837 10.6871 11.1455 10.6153 11.1982C10.5526 11.2442 10.4853 11.2838 10.4146 11.3163C10.3337 11.3534 10.2498 11.3773 10.1725 11.3993C10.1661 11.4011 10.1598 11.4029 10.1535 11.4047L8.13736 11.9807C7.96276 12.0306 7.77485 11.9819 7.64645 11.8535C7.51805 11.7251 7.46935 11.5372 7.51924 11.3626L8.09528 9.34647C8.09707 9.34019 8.09887 9.33387 8.10068 9.32749C8.12268 9.25018 8.14654 9.16627 8.1837 9.08535C8.21617 9.01462 8.25574 8.94737 8.3018 8.88464C8.35449 8.81286 8.41625 8.75124 8.47316 8.69447C8.47784 8.68979 8.4825 8.68515 8.48712 8.68053L12.6846 4.48304ZM14.3098 5.19014C14.0563 4.93662 13.6453 4.93662 13.3917 5.19015L9.19422 9.38764C9.15672 9.42514 9.13624 9.4457 9.12114 9.46173C9.11059 9.47294 9.10754 9.47685 9.1075 9.47693C9.10725 9.47728 9.10749 9.47695 9.1075 9.47693C9.10149 9.48512 9.09672 9.49338 9.09248 9.50261C9.09344 9.50053 9.09182 9.50329 9.08608 9.52133C9.07939 9.54231 9.07137 9.5702 9.0568 9.62119L8.72801 10.772L9.87878 10.4432C9.92977 10.4286 9.95766 10.4206 9.97864 10.4139C9.99668 10.4081 9.99944 10.4065 9.99736 10.4075C10.0066 10.4032 10.0154 10.3981 10.0236 10.3921C10.0217 10.3934 10.0245 10.3918 10.0382 10.3788C10.0543 10.3637 10.0748 10.3432 10.1123 10.3057L14.3098 6.10828C14.5634 5.85475 14.5634 5.44368 14.3098 5.19014Z"
        fill="#303233" />
    <path fill-rule="evenodd" clip-rule="evenodd"
        d="M4.59866 1H8.52134C9.04928 0.999995 9.47587 0.999991 9.82147 1.02823C10.1776 1.05732 10.4915 1.11887 10.7823 1.26703C11.2433 1.50192 11.6181 1.87673 11.853 2.33772C11.9783 2.58377 11.8805 2.88486 11.6345 3.01022C11.3884 3.13559 11.0873 3.03776 10.962 2.79171C10.8229 2.51888 10.6011 2.29706 10.3283 2.15804C10.202 2.09367 10.0343 2.04895 9.74004 2.02491C9.43996 2.00039 9.0543 2 8.5 2H4.62C4.0657 2 3.68004 2.00039 3.37996 2.02491C3.08571 2.04895 2.91804 2.09367 2.79171 2.15804C2.51888 2.29706 2.29706 2.51888 2.15804 2.79171C2.09367 2.91804 2.04895 3.08571 2.02491 3.37996C2.00039 3.68004 2 4.0657 2 4.62V11.38C2 11.9343 2.00039 12.32 2.02491 12.62C2.04895 12.9143 2.09367 13.082 2.15804 13.2083C2.29706 13.4811 2.51888 13.7029 2.79171 13.842C2.91804 13.9063 3.08571 13.9511 3.37996 13.9751C3.68004 13.9996 4.0657 14 4.62 14H8.5C9.0543 14 9.43996 13.9996 9.74004 13.9751C10.0343 13.9511 10.202 13.9063 10.3283 13.842C10.6011 13.7029 10.8229 13.4811 10.962 13.2083C11.0873 12.9622 11.3884 12.8644 11.6345 12.9898C11.8805 13.1151 11.9783 13.4162 11.853 13.6623C11.6181 14.1233 11.2433 14.4981 10.7823 14.733C10.4915 14.8811 10.1776 14.9427 9.82147 14.9718C9.47587 15 9.04929 15 8.52136 15H4.59864C4.07071 15 3.64413 15 3.29853 14.9718C2.94244 14.9427 2.62852 14.8811 2.33772 14.733C1.87673 14.4981 1.50192 14.1233 1.26703 13.6623C1.11887 13.3715 1.05732 13.0576 1.02823 12.7015C0.999991 12.3559 0.999995 11.9293 1 11.4013V4.59866C0.999995 4.07072 0.999991 3.64413 1.02823 3.29853C1.05732 2.94244 1.11887 2.62852 1.26703 2.33772C1.50192 1.87673 1.87673 1.50192 2.33772 1.26703C2.62852 1.11887 2.94244 1.05732 3.29853 1.02823C3.64413 0.999991 4.07072 0.999995 4.59866 1ZM3.5 4.5C3.5 4.22386 3.72386 4 4 4H9C9.27614 4 9.5 4.22386 9.5 4.5C9.5 4.77614 9.27614 5 9 5H4C3.72386 5 3.5 4.77614 3.5 4.5ZM3.5 8C3.5 7.72386 3.72386 7.5 4 7.5H6C6.27614 7.5 6.5 7.72386 6.5 8C6.5 8.27614 6.27614 8.5 6 8.5H4C3.72386 8.5 3.5 8.27614 3.5 8ZM3.5 11.5C3.5 11.2239 3.72386 11 4 11H5.5C5.77614 11 6 11.2239 6 11.5C6 11.7761 5.77614 12 5.5 12H4C3.72386 12 3.5 11.7761 3.5 11.5Z"
        fill="#303233" />
</svg>
