<svg width="16" height="16" viewBox="0 0 16 16" fill="none" xmlns="http://www.w3.org/2000/svg">
    <path
        d="M2.5 1.75C1.5335 1.75 0.75 2.5335 0.75 3.5C0.75 4.4665 1.5335 5.25 2.5 5.25H13.5C14.4665 5.25 15.25 4.4665 15.25 3.5C15.25 2.5335 14.4665 1.75 13.5 1.75H2.5Z"
        fill="#303233" />
    <path fill-rule="evenodd" clip-rule="evenodd"
        d="M2.25 6.5C2.25 6.08579 2.58579 5.75 3 5.75H13C13.4142 5.75 13.75 6.08579 13.75 6.5V10.8305C13.75 11.3646 13.75 11.8105 13.7203 12.1747C13.6892 12.5546 13.6221 12.9112 13.4503 13.2485C13.1866 13.7659 12.7659 14.1866 12.2485 14.4503C11.9112 14.6221 11.5546 14.6892 11.1747 14.7203C10.8105 14.75 10.3646 14.75 9.83049 14.75H6.16955C5.63542 14.75 5.18955 14.75 4.82533 14.7203C4.44545 14.6892 4.08879 14.6221 3.75153 14.4503C3.23408 14.1866 2.81338 13.7659 2.54973 13.2485C2.37789 12.9112 2.31078 12.5546 2.27974 12.1747C2.24998 11.8104 2.24999 11.3646 2.25 10.8304V6.5ZM5.75 8.5C5.75 8.08579 6.08579 7.75 6.5 7.75H9.5C9.91421 7.75 10.25 8.08579 10.25 8.5C10.25 8.91421 9.91421 9.25 9.5 9.25H6.5C6.08579 9.25 5.75 8.91421 5.75 8.5Z"
        fill="#303233" />
</svg>
