<svg width="16" height="16" viewBox="0 0 16 16" fill="none" xmlns="http://www.w3.org/2000/svg">
    <path fill-rule="evenodd" clip-rule="evenodd"
        d="M11.8119 1.44123C9.35419 0.519591 6.64581 0.519591 4.18812 1.44123L3.12886 1.83845C2.29947 2.14947 1.75 2.94235 1.75 3.82815V7.68777C1.75 9.75032 2.9257 11.4487 4.13987 12.6613C5.36539 13.8852 6.73179 14.7173 7.33308 15.0552C7.74988 15.2893 8.25012 15.2893 8.66692 15.0552C9.26822 14.7173 10.6346 13.8852 11.8601 12.6613C13.0743 11.4487 14.25 9.75032 14.25 7.68777V3.82815C14.25 2.94235 13.7005 2.14947 12.8711 1.83845L11.8119 1.44123ZM7.25 5C7.25 4.58579 6.91421 4.25 6.5 4.25C6.08579 4.25 5.75 4.58579 5.75 5V9.5C5.75 9.91421 6.08579 10.25 6.5 10.25H9.5C9.91421 10.25 10.25 9.91421 10.25 9.5C10.25 9.08579 9.91421 8.75 9.5 8.75H7.25V5Z"
        fill="#303233" />
</svg>
