<svg width="24" height="24" viewBox="0 0 24 24" fill="none" xmlns="http://www.w3.org/2000/svg">
    <path fill-rule="evenodd" clip-rule="evenodd"
        d="M8.20514 5.28348C8.21687 5.29287 8.22865 5.30229 8.24046 5.31174L14.0822 9.98511C14.3286 10.1822 14.5625 10.3693 14.743 10.5422C14.9366 10.7276 15.1541 10.9742 15.2783 11.3152C15.4395 11.7575 15.4395 12.2425 15.2783 12.6848C15.1541 13.0258 14.9366 13.2724 14.743 13.4578C14.5625 13.6307 14.3286 13.8178 14.0822 14.0149L8.20511 18.7165C7.81231 19.0308 7.4645 19.3091 7.16942 19.5036C6.8811 19.6936 6.47265 19.9243 5.97971 19.9193C5.38639 19.9133 4.82637 19.6441 4.45102 19.1845C4.13918 18.8028 4.06416 18.3397 4.03242 17.9959C3.99995 17.6439 3.99997 17.1985 4 16.6954L4 7.34981C4 7.33468 4 7.3196 4 7.30457C3.99997 6.80151 3.99995 6.35606 4.03242 6.00415C4.06416 5.6603 4.13918 5.19725 4.45102 4.81545C4.82637 4.35591 5.38639 4.08675 5.97971 4.08073C6.47265 4.07573 6.8811 4.3064 7.16942 4.49643C7.46451 4.69091 7.81233 4.9692 8.20514 5.28348Z"
        fill="#303233" />
    <path fill-rule="evenodd" clip-rule="evenodd"
        d="M19 4C19.5523 4 20 4.44772 20 5V19C20 19.5523 19.5523 20 19 20C18.4477 20 18 19.5523 18 19V5C18 4.44772 18.4477 4 19 4Z"
        fill="#303233" />
</svg>
