<svg width="24" height="24" viewBox="0 0 24 24" fill="none" xmlns="http://www.w3.org/2000/svg">
    <path fill-rule="evenodd" clip-rule="evenodd"
        d="M11.9979 6C8.09199 6 4.53672 7.49161 1.86702 9.93803C1.45983 10.3112 0.827272 10.2835 0.454147 9.87636C0.0810214 9.46918 0.108629 8.83662 0.515809 8.4635C3.53985 5.69237 7.5724 4 11.9979 4C16.4235 4 20.456 5.69237 23.4801 8.4635C23.8872 8.83662 23.9149 9.46918 23.5417 9.87636C23.1686 10.2835 22.536 10.3112 22.1289 9.93803C19.4592 7.49161 15.9039 6 11.9979 6ZM11.998 11C9.4647 11 7.15353 11.9407 5.391 13.4933C4.97658 13.8584 4.34468 13.8184 3.97961 13.404C3.61454 12.9896 3.65455 12.3577 4.06897 11.9926C6.18269 10.1306 8.95955 9 11.998 9C15.0365 9 17.8134 10.1306 19.9271 11.9926C20.3415 12.3577 20.3815 12.9896 20.0164 13.404C19.6514 13.8184 19.0195 13.8584 18.6051 13.4933C16.8425 11.9407 14.5314 11 11.998 11ZM11.9979 16C10.8166 16 9.73346 16.4084 8.87798 17.0926C8.44666 17.4375 7.81738 17.3675 7.47245 16.9361C7.12751 16.5048 7.19754 15.8755 7.62886 15.5306C8.8261 14.5732 10.3465 14 11.9979 14C13.6247 14 15.1244 14.5562 16.3133 15.4881C16.748 15.8288 16.8241 16.4574 16.4834 16.892C16.1427 17.3267 15.5141 17.4028 15.0795 17.0621C14.2301 16.3964 13.1617 16 11.9979 16ZM10.9981 20C10.9981 19.4477 11.4458 19 11.9981 19H12.0081C12.5603 19 13.0081 19.4477 13.0081 20C13.0081 20.5523 12.5603 21 12.0081 21H11.9981C11.4458 21 10.9981 20.5523 10.9981 20Z"
        fill="#303233" />
</svg>
