<svg width="16" height="16" viewBox="0 0 16 16" fill="none" xmlns="http://www.w3.org/2000/svg">
    <path fill-rule="evenodd" clip-rule="evenodd"
        d="M10.8304 1.25H5.16957C4.63542 1.24999 4.18956 1.24998 3.82533 1.27974C3.44545 1.31078 3.08879 1.37789 2.75153 1.54973C2.23408 1.81339 1.81339 2.23408 1.54973 2.75153C1.37789 3.08879 1.31078 3.44545 1.27974 3.82533C1.24998 4.18956 1.24999 4.6354 1.25 5.16955V10.8304C1.24999 11.3646 1.24998 11.8104 1.27974 12.1747C1.31078 12.5546 1.37789 12.9112 1.54973 13.2485C1.81339 13.7659 2.23408 14.1866 2.75153 14.4503C3.08879 14.6221 3.44545 14.6892 3.82533 14.7203C4.18955 14.75 4.63538 14.75 5.16951 14.75H10.8305C11.3646 14.75 11.8105 14.75 12.1747 14.7203C12.5546 14.6892 12.9112 14.6221 13.2485 14.4503C13.7659 14.1866 14.1866 13.7659 14.4503 13.2485C14.6221 12.9112 14.6892 12.5546 14.7203 12.1747C14.75 11.8105 14.75 11.3646 14.75 10.8305V5.16955C14.75 4.63542 14.75 4.18955 14.7203 3.82533C14.6892 3.44545 14.6221 3.08879 14.4503 2.75153C14.1866 2.23408 13.7659 1.81339 13.2485 1.54973C12.9112 1.37789 12.5546 1.31078 12.1747 1.27974C11.8104 1.24998 11.3646 1.24999 10.8304 1.25ZM11.5303 6.53033C11.8232 6.23744 11.8232 5.76256 11.5303 5.46967C11.2374 5.17678 10.7626 5.17678 10.4697 5.46967L7 8.93934L5.53033 7.46967C5.23744 7.17678 4.76256 7.17678 4.46967 7.46967C4.17678 7.76256 4.17678 8.23744 4.46967 8.53033L6.46967 10.5303C6.76256 10.8232 7.23744 10.8232 7.53033 10.5303L11.5303 6.53033Z"
        fill="#303233" />
</svg>
