<svg width="16" height="16" viewBox="0 0 16 16" fill="none" xmlns="http://www.w3.org/2000/svg">
    <path
        d="M6.67452 1.99999C7.18695 1.99999 7.36365 2.00305 7.52454 2.0407C7.67872 2.07678 7.82572 2.1362 7.96017 2.21651C8.09982 2.29993 8.22559 2.4181 8.58826 2.7716L13.651 7.70632C13.8487 7.89907 14.1653 7.89501 14.3581 7.69727C14.5508 7.49952 14.5467 7.18296 14.349 6.99022L9.2461 2.01634C8.9389 1.71673 8.7261 1.5092 8.47297 1.358C8.24954 1.22454 8.00635 1.12643 7.75239 1.067C7.46512 0.99978 7.16587 0.999861 6.73066 0.999979L4 0.999989C3.72386 0.999989 3.5 1.22385 3.5 1.49999C3.5 1.77613 3.72386 1.99999 4 1.99999H6.67452Z"
        fill="#303233" />
    <path fill-rule="evenodd" clip-rule="evenodd"
        d="M5.34445 3.49998L4.07901 3.49999C3.72884 3.49998 3.43607 3.49998 3.1968 3.51953C2.9471 3.53993 2.71196 3.58409 2.4894 3.69749C2.14845 3.87121 1.87124 4.14842 1.69752 4.48937C1.58412 4.71193 1.53996 4.94707 1.51956 5.19677C1.50001 5.43604 1.50001 5.72881 1.50002 6.07898L1.50001 7.34441C1.49988 7.77125 1.4998 8.06803 1.56821 8.35302C1.62867 8.60484 1.72839 8.84559 1.86371 9.06641C2.01684 9.3163 2.22676 9.5261 2.52868 9.82783L6.44 13.7391C6.73923 14.0384 6.98518 14.2843 7.20164 14.4681C7.4261 14.6586 7.65156 14.8115 7.91908 14.8985C8.33571 15.0338 8.78451 15.0338 9.20114 14.8985C9.46866 14.8115 9.69412 14.6586 9.91858 14.4681C10.135 14.2843 10.3809 14.0384 10.6802 13.7392L11.7392 12.6802C12.0384 12.3809 12.2844 12.135 12.4681 11.9185C12.6587 11.6941 12.8116 11.4686 12.8985 11.2011C13.0339 10.7845 13.0339 10.3357 12.8985 9.91905C12.8116 9.65153 12.6587 9.42607 12.4681 9.2016C12.2844 8.98514 12.0384 8.73921 11.7391 8.43994L7.82786 4.52864C7.52612 4.22673 7.31633 4.01681 7.06644 3.86368C6.84562 3.72836 6.60488 3.62864 6.35305 3.56818C6.06807 3.49976 5.77129 3.49985 5.34445 3.49998ZM5.28779 4.49999C5.79295 4.49999 5.96404 4.5032 6.1196 4.54055C6.26939 4.57651 6.41259 4.63583 6.54394 4.71632C6.68035 4.79991 6.8036 4.91862 7.1608 5.27582L11.0174 9.13238C11.3349 9.44996 11.5516 9.66716 11.7058 9.84878C11.8562 10.0259 11.9176 10.1361 11.9474 10.2281C12.0175 10.4439 12.0175 10.6763 11.9474 10.8921C11.9176 10.9841 11.8562 11.0942 11.7058 11.2714C11.5516 11.453 11.3349 11.6702 11.0174 11.9878L9.98781 13.0173C9.67023 13.3349 9.45303 13.5516 9.2714 13.7057C9.09424 13.8561 8.98409 13.9175 8.89212 13.9474C8.67633 14.0175 8.44388 14.0175 8.22809 13.9474C8.13613 13.9175 8.02597 13.8561 7.84881 13.7057C7.66719 13.5516 7.44999 13.3349 7.13241 13.0173L3.27585 9.16077C2.91865 8.80357 2.79994 8.68032 2.71635 8.54391C2.63586 8.41256 2.57655 8.26936 2.54058 8.11957C2.50324 7.964 2.50002 7.79292 2.50002 7.28776V6.09922C2.50002 5.72357 2.50041 5.4719 2.51624 5.2782C2.53159 5.09034 2.55893 5.00145 2.58853 4.94336C2.66638 4.79057 2.7906 4.66635 2.94339 4.5885C3.00149 4.5589 3.09037 4.53155 3.27824 4.51621C3.47193 4.50038 3.7236 4.49999 4.09925 4.49999H5.28779Z"
        fill="#303233" />
</svg>
