<svg width="16" height="16" viewBox="0 0 16 16" fill="none" xmlns="http://www.w3.org/2000/svg">
    <path
        d="M2.75 5C2.75 3.20507 4.20507 1.75 6 1.75C7.79493 1.75 9.25 3.20507 9.25 5C9.25 6.79493 7.79493 8.25 6 8.25C4.20507 8.25 2.75 6.79493 2.75 5Z"
        fill="#303233" />
    <path
        d="M0.364606 13.3508C0.897431 10.7259 3.21692 8.75 5.9996 8.75C8.78227 8.75 11.1018 10.7259 11.6346 13.3508C11.6794 13.5714 11.6227 13.8004 11.4803 13.9747C11.3378 14.1489 11.1247 14.25 10.8996 14.25H1.09962C0.874544 14.25 0.66137 14.1489 0.518927 13.9747C0.376484 13.8004 0.319832 13.5714 0.364606 13.3508Z"
        fill="#303233" />
    <path
        d="M10.2197 5.21967C10.5126 4.92678 10.9874 4.92678 11.2803 5.21967L12.5 6.43934L13.7197 5.21967C14.0126 4.92678 14.4874 4.92678 14.7803 5.21967C15.0732 5.51256 15.0732 5.98744 14.7803 6.28033L13.5607 7.5L14.7803 8.71967C15.0732 9.01256 15.0732 9.48744 14.7803 9.78033C14.4874 10.0732 14.0126 10.0732 13.7197 9.78033L12.5 8.56066L11.2803 9.78033C10.9874 10.0732 10.5126 10.0732 10.2197 9.78033C9.92678 9.48744 9.92678 9.01256 10.2197 8.71967L11.4393 7.5L10.2197 6.28033C9.92678 5.98744 9.92678 5.51256 10.2197 5.21967Z"
        fill="#303233" />
</svg>
