<svg width="16" height="16" viewBox="0 0 16 16" fill="none" xmlns="http://www.w3.org/2000/svg">
    <path
        d="M2.75 5C2.75 3.20507 4.20507 1.75 6 1.75C7.79493 1.75 9.25 3.20507 9.25 5C9.25 6.79493 7.79493 8.25 6 8.25C4.20507 8.25 2.75 6.79493 2.75 5Z"
        fill="#303233" />
    <path
        d="M0.364606 13.3508C0.897431 10.7259 3.21692 8.75 5.9996 8.75C8.78227 8.75 11.1018 10.7259 11.6346 13.3508C11.6794 13.5714 11.6227 13.8004 11.4803 13.9747C11.3378 14.1489 11.1247 14.25 10.8996 14.25H1.09962C0.874544 14.25 0.66137 14.1489 0.518927 13.9747C0.376484 13.8004 0.319832 13.5714 0.364606 13.3508Z"
        fill="#303233" />
    <path
        d="M13.5303 10.5303L15.5303 8.53033C15.8232 8.23744 15.8232 7.76256 15.5303 7.46967L13.5303 5.46967C13.2374 5.17678 12.7626 5.17678 12.4697 5.46967C12.1768 5.76256 12.1768 6.23744 12.4697 6.53033L13.1893 7.25H11C10.5858 7.25 10.25 7.58579 10.25 8C10.25 8.41421 10.5858 8.75 11 8.75H13.1893L12.4697 9.46967C12.1768 9.76256 12.1768 10.2374 12.4697 10.5303C12.7626 10.8232 13.2374 10.8232 13.5303 10.5303Z"
        fill="#303233" />
</svg>
