<svg width="16" height="16" viewBox="0 0 16 16" fill="none" xmlns="http://www.w3.org/2000/svg">
    <g clip-path="url(#clip0_53_2196)">
        <path fill-rule="evenodd" clip-rule="evenodd"
            d="M2.94444 0.75C1.73249 0.75 0.75 1.73249 0.75 2.94444V13.0556C0.75 14.2675 1.73249 15.25 2.94444 15.25H13.0556C14.2675 15.25 15.25 14.2675 15.25 13.0556V2.94444C15.25 1.73249 14.2675 0.75 13.0556 0.75H2.94444ZM10.6967 5.30298C10.9896 5.59588 10.9896 6.07075 10.6967 6.36364L9.06034 7.99998L10.6967 9.63632C10.9896 9.92921 10.9896 10.4041 10.6967 10.697C10.4038 10.9899 9.9289 10.9899 9.63601 10.697L7.99967 9.06064L6.36334 10.697C6.07044 10.9899 5.59557 10.9899 5.30268 10.697C5.00978 10.4041 5.00978 9.92921 5.30268 9.63632L6.93901 7.99998L5.30268 6.36364C5.00978 6.07075 5.00978 5.59588 5.30268 5.30298C5.59557 5.01009 6.07044 5.01009 6.36334 5.30298L7.99967 6.93932L9.63601 5.30298C9.9289 5.01009 10.4038 5.01009 10.6967 5.30298Z"
            fill="#303233" />
    </g>
    <defs>
        <clipPath id="clip0_53_2196">
            <rect width="16" height="16" fill="white" />
        </clipPath>
    </defs>
</svg>
