<svg width="24" height="24" viewBox="0 0 24 24" fill="none" xmlns="http://www.w3.org/2000/svg">
    <path
        d="M11 4C10.4477 4 10 4.44772 10 5C10 5.55229 10.4477 6 11 6H13C13.5523 6 14 5.55229 14 5C14 4.44772 13.5523 4 13 4H11Z"
        fill="#303233" />
    <path
        d="M11 7C10.4477 7 10 7.44772 10 8C10 8.55229 10.4477 9 11 9H13C13.5523 9 14 8.55229 14 8C14 7.44772 13.5523 7 13 7H11Z"
        fill="#303233" />
    <path
        d="M10 11C10 10.4477 10.4477 10 11 10H13C13.5523 10 14 10.4477 14 11C14 11.5523 13.5523 12 13 12H11C10.4477 12 10 11.5523 10 11Z"
        fill="#303233" />
    <path
        d="M11 13C10.4477 13 10 13.4477 10 14C10 15.1046 10.8954 16 12 16C13.1046 16 14 15.1046 14 14C14 13.4477 13.5523 13 13 13H11Z"
        fill="#303233" />
    <path fill-rule="evenodd" clip-rule="evenodd"
        d="M15.2413 1H8.7587C7.95374 0.999988 7.28937 0.999978 6.74818 1.04419C6.18608 1.09012 5.66937 1.18868 5.18404 1.43598C4.43139 1.81947 3.81947 2.43139 3.43598 3.18404C3.18868 3.66937 3.09012 4.18608 3.04419 4.74818C2.99998 5.28937 2.99999 5.95372 3 6.75869V17.2413C2.99999 18.0463 2.99998 18.7106 3.04419 19.2518C3.09012 19.8139 3.18868 20.3306 3.43598 20.816C3.81947 21.5686 4.43139 22.1805 5.18404 22.564C5.66937 22.8113 6.18608 22.9099 6.74818 22.9558C7.28936 23 7.95372 23 8.75868 23H15.2413C16.0463 23 16.7106 23 17.2518 22.9558C17.8139 22.9099 18.3306 22.8113 18.816 22.564C19.5686 22.1805 20.1805 21.5686 20.564 20.816C20.8113 20.3306 20.9099 19.8139 20.9558 19.2518C21 18.7106 21 18.0463 21 17.2413V6.75868C21 5.95372 21 5.28936 20.9558 4.74818C20.9099 4.18608 20.8113 3.66937 20.564 3.18404C20.1805 2.43139 19.5686 1.81947 18.816 1.43598C18.3306 1.18868 17.8139 1.09012 17.2518 1.04419C16.7106 0.999978 16.0463 0.999988 15.2413 1ZM6.09202 3.21799C6.24842 3.1383 6.47262 3.07337 6.91104 3.03755C7.36113 3.00078 7.94342 3 8.8 3H15.2C16.0566 3 16.6389 3.00078 17.089 3.03755C17.5274 3.07337 17.7516 3.1383 17.908 3.21799C18.2843 3.40973 18.5903 3.7157 18.782 4.09202C18.8617 4.24842 18.9266 4.47262 18.9624 4.91104C18.9992 5.36113 19 5.94342 19 6.8V17.2C19 18.0566 18.9992 18.6389 18.9624 19.089C18.9266 19.5274 18.8617 19.7516 18.782 19.908C18.5903 20.2843 18.2843 20.5903 17.908 20.782C17.7516 20.8617 17.5274 20.9266 17.089 20.9624C16.6389 20.9992 16.0566 21 15.2 21H8.8C7.94342 21 7.36113 20.9992 6.91104 20.9624C6.47262 20.9266 6.24842 20.8617 6.09202 20.782C5.7157 20.5903 5.40974 20.2843 5.21799 19.908C5.1383 19.7516 5.07337 19.5274 5.03755 19.089C5.00078 18.6389 5 18.0566 5 17.2V6.8C5 5.94342 5.00078 5.36113 5.03755 4.91104C5.07337 4.47262 5.1383 4.24842 5.21799 4.09202C5.40973 3.7157 5.7157 3.40973 6.09202 3.21799Z"
        fill="#303233" />
</svg>
