<svg width="16" height="16" viewBox="0 0 16 16" fill="none" xmlns="http://www.w3.org/2000/svg">
    <path
        d="M14.3542 1.64647C14.5494 1.84175 14.5494 2.15833 14.3541 2.35358L10.7072 6H13.5C13.7761 6 14 6.22386 14 6.5C14 6.77614 13.7761 7 13.5 7H9.5C9.22386 7 9 6.77614 9 6.5V2.5C9 2.22386 9.22386 2 9.5 2C9.77614 2 10 2.22386 10 2.5V5.29301L13.6471 1.64642C13.8423 1.45117 14.1589 1.4512 14.3542 1.64647Z"
        fill="#303233" />
    <path
        d="M2.5 9C2.22386 9 2 9.22386 2 9.5C2 9.77614 2.22386 10 2.5 10H5.29289L1.64645 13.6465C1.45118 13.8417 1.45118 14.1583 1.64645 14.3536C1.84171 14.5488 2.15829 14.5488 2.35355 14.3536L6 10.7071V13.5C6 13.7761 6.22386 14 6.5 14C6.77614 14 7 13.7761 7 13.5V9.5C7 9.22386 6.77614 9 6.5 9H2.5Z"
        fill="#303233" />
</svg>
