<svg width="24" height="24" viewBox="0 0 24 24" fill="none" xmlns="http://www.w3.org/2000/svg">
    <path
        d="M21 1C21 0.447715 20.5523 0 20 0C19.4477 0 19 0.447715 19 1V3H17C16.4477 3 16 3.44772 16 4C16 4.55228 16.4477 5 17 5H19V7C19 7.55228 19.4477 8 20 8C20.5523 8 21 7.55228 21 7V5H23C23.5523 5 24 4.55228 24 4C24 3.44772 23.5523 3 23 3H21V1Z"
        fill="#303233" />
    <path fill-rule="evenodd" clip-rule="evenodd"
        d="M12 1C13.1587 1 14.2755 1.17915 15.3243 1.51125C14.5254 2.05023 14 2.96376 14 4C14 5.65685 15.3431 7 17 7C17 8.65685 18.3431 10 20 10C21.0362 10 21.9498 9.47462 22.4888 8.67569C22.8209 9.7245 23 10.8413 23 12C23 18.0751 18.0751 23 12 23C5.92487 23 1 18.0751 1 12C1 5.92487 5.92487 1 12 1ZM8.99254 7.5C8.16823 7.5 7.5 8.17157 7.5 9C7.5 9.82843 8.16823 10.5 8.99254 10.5H9.00746C9.83177 10.5 10.5 9.82843 10.5 9C10.5 8.17157 9.83177 7.5 9.00746 7.5H8.99254ZM7.40006 13.2C7.84049 12.8697 8.46474 12.9576 8.79692 13.3958L8.80156 13.4018C8.80751 13.4093 8.81883 13.4234 8.83537 13.4431C8.86852 13.4826 8.92225 13.5442 8.99548 13.6206C9.14278 13.7743 9.36413 13.9828 9.65073 14.1913C10.2278 14.6109 11.0256 15 12.0001 15C12.9745 15 13.7723 14.6109 14.3494 14.1913C14.636 13.9828 14.8573 13.7743 15.0046 13.6206C15.0779 13.5442 15.1316 13.4826 15.1647 13.4431C15.1813 13.4234 15.1926 13.4093 15.1986 13.4018L15.2032 13.3958C15.5354 12.9576 16.1596 12.8697 16.6001 13.2C17.0419 13.5314 17.1314 14.1582 16.8001 14.6L16.7979 14.6029L16.7952 14.6065L16.7879 14.6159L16.7666 14.6432C16.7494 14.6649 16.7261 14.6938 16.6967 14.7288C16.6381 14.7987 16.5551 14.8933 16.4486 15.0044C16.2365 15.2257 15.9266 15.5172 15.5257 15.8087C14.7278 16.3891 13.5256 17 12.0001 17C10.4745 17 9.27233 16.3891 8.47439 15.8087C8.07349 15.5172 7.76358 15.2257 7.55151 15.0044C7.44506 14.8933 7.36207 14.7987 7.30342 14.7288C7.27407 14.6938 7.25071 14.6649 7.23347 14.6432L7.21217 14.6159L7.20496 14.6065L7.20222 14.6029L7.20107 14.6013L7.20006 14.6C6.86869 14.1582 6.95823 13.5314 7.40006 13.2ZM13.5 9C13.5 8.17157 14.1682 7.5 14.9925 7.5H15.0075C15.8318 7.5 16.5 8.17157 16.5 9C16.5 9.82843 15.8318 10.5 15.0075 10.5H14.9925C14.1682 10.5 13.5 9.82843 13.5 9Z"
        fill="#303233" />
</svg>
