<svg width="24" height="24" viewBox="0 0 24 24" fill="none" xmlns="http://www.w3.org/2000/svg">
    <path
        d="M21.25 12C21.25 9.10051 18.8995 6.75 16 6.75H8C5.10051 6.75 2.75 9.10051 2.75 12C2.75 14.8995 5.10051 17.25 8 17.25H16C18.8995 17.25 21.25 14.8995 21.25 12ZM10.25 12C10.25 10.7574 9.24264 9.75 8 9.75C6.75736 9.75 5.75 10.7574 5.75 12C5.75 13.2426 6.75736 14.25 8 14.25C9.24264 14.25 10.25 13.2426 10.25 12ZM11.75 12C11.75 14.0711 10.0711 15.75 8 15.75C5.92893 15.75 4.25 14.0711 4.25 12C4.25 9.92893 5.92893 8.25 8 8.25C10.0711 8.25 11.75 9.92893 11.75 12ZM22.75 12C22.75 15.7279 19.7279 18.75 16 18.75H8C4.27208 18.75 1.25 15.7279 1.25 12C1.25 8.27208 4.27208 5.25 8 5.25H16C19.7279 5.25 22.75 8.27208 22.75 12Z"
        fill="#303233" />
</svg>
