<svg width="16" height="16" viewBox="0 0 16 16" fill="none" xmlns="http://www.w3.org/2000/svg">
    <path fill-rule="evenodd" clip-rule="evenodd"
        d="M4.25024 4.03376C4.25692 4.03588 4.31063 4.05154 4.44325 4.1427C4.6071 4.25532 4.81807 4.42922 5.1339 4.69047L8.48968 7.46641C8.68502 7.62799 8.80673 7.72924 8.89092 7.81196C8.97204 7.89168 8.97838 7.91696 8.97643 7.91178C8.99787 7.96864 8.99787 8.03137 8.97643 8.08823C8.97431 8.09275 8.95879 8.12135 8.89092 8.18804C8.80673 8.27077 8.68502 8.37201 8.48968 8.5336L5.1339 11.3095C4.81807 11.5708 4.6071 11.7447 4.44325 11.8573C4.31063 11.9485 4.25692 11.9641 4.25024 11.9662C4.17557 11.9663 4.10475 11.933 4.05721 11.8754C4.05459 11.8689 4.03242 11.8175 4.01813 11.6573C4.00048 11.4592 4 11.1858 4 10.7759V5.22407C4 4.81419 4.00048 4.54079 4.01813 4.34275C4.03242 4.18246 4.05459 4.13109 4.05721 4.12459C4.10475 4.06701 4.17557 4.03368 4.25024 4.03376ZM4.27981 3.03411C3.88644 3.02473 3.51161 3.20112 3.2681 3.51021C3.09235 3.7333 3.04375 4.01092 3.02208 4.25396C2.99998 4.50188 2.99999 4.82047 3 5.20024V10.7998C2.99999 11.1795 2.99998 11.4981 3.02208 11.746C3.04375 11.9891 3.09235 12.2667 3.2681 12.4898C3.51161 12.7989 3.88644 12.9753 4.27981 12.9659C4.56374 12.9591 4.80863 12.8196 5.00971 12.6814C5.21483 12.5404 5.46031 12.3373 5.75293 12.0953L9.14229 9.29154C9.3178 9.14638 9.47332 9.01775 9.59182 8.9013C9.71681 8.77847 9.83986 8.63262 9.91209 8.44113C10.0193 8.15682 10.0193 7.84318 9.91209 7.55888C9.83986 7.36738 9.71681 7.22153 9.59182 7.09871C9.47331 6.98225 9.31779 6.85361 9.14227 6.70844L5.75292 3.90474C5.4603 3.66267 5.21483 3.4596 5.00971 3.31861C4.80863 3.18039 4.56374 3.04088 4.27981 3.03411Z"
        fill="#303233" />
    <path fill-rule="evenodd" clip-rule="evenodd"
        d="M12.4993 3C12.2231 3 11.9993 3.22386 11.9993 3.5V12.5006C11.9993 12.7768 12.2231 13.0006 12.4993 13.0006C12.7754 13.0006 12.9993 12.7768 12.9993 12.5006V3.5C12.9993 3.22386 12.7754 3 12.4993 3Z"
        fill="#303233" />
</svg>
