<svg width="24" height="24" viewBox="0 0 24 24" fill="none" xmlns="http://www.w3.org/2000/svg">
    <path fill-rule="evenodd" clip-rule="evenodd"
        d="M4.58301 2.25H4.61002H8.41699C8.67899 2.25 8.91899 2.25 9.12 2.267C9.337 2.285 9.57401 2.32599 9.80701 2.44699C10.126 2.61299 10.387 2.87399 10.553 3.19299C10.674 3.42699 10.715 3.66397 10.733 3.87997C10.75 4.08097 10.75 4.32198 10.75 4.58298V8.41699C10.75 8.67899 10.75 8.91899 10.733 9.12C10.715 9.337 10.674 9.57298 10.553 9.80698C10.387 10.126 10.126 10.387 9.80701 10.553C9.57401 10.674 9.337 10.715 9.12 10.733C8.91899 10.75 8.67899 10.75 8.41699 10.75H4.58301C4.32201 10.75 4.081 10.75 3.88 10.733C3.664 10.715 3.42699 10.674 3.19299 10.553C2.87399 10.387 2.61299 10.126 2.44699 9.80698C2.32599 9.57298 2.285 9.337 2.267 9.12C2.25 8.91899 2.25 8.67899 2.25 8.41699V4.60999V4.58298C2.25 4.32198 2.25 4.08097 2.267 3.87997C2.285 3.66397 2.32599 3.42699 2.44699 3.19299C2.61299 2.87399 2.87399 2.61299 3.19299 2.44699C3.42699 2.32599 3.664 2.285 3.88 2.267C4.081 2.25 4.32201 2.25 4.58301 2.25ZM3.78 9.11899L3.78101 9.121C3.80401 9.162 3.838 9.19599 3.879 9.21899L3.88101 9.22C3.89001 9.223 3.924 9.23198 4.004 9.23898C4.136 9.24898 4.31302 9.25 4.61002 9.25H8.39001C8.68701 9.25 8.865 9.24898 8.996 9.23898C9.076 9.23198 9.11002 9.223 9.11902 9.22L9.121 9.21899C9.162 9.19599 9.19599 9.162 9.21899 9.121L9.22 9.11899C9.223 9.10999 9.23201 9.076 9.23901 8.996C9.25001 8.864 9.25 8.68698 9.25 8.38998V4.60999C9.25 4.31299 9.25001 4.136 9.23901 4.004C9.23201 3.924 9.223 3.88998 9.22 3.88098L9.21899 3.879C9.19599 3.838 9.162 3.80398 9.121 3.78098L9.11902 3.78C9.11002 3.777 9.076 3.76799 8.996 3.76199C8.865 3.75099 8.68701 3.75 8.39001 3.75H4.61002C4.31302 3.75 4.136 3.75099 4.004 3.76199C3.924 3.76799 3.89001 3.777 3.88101 3.78L3.879 3.78098C3.838 3.80398 3.80401 3.838 3.78101 3.879L3.78 3.88098C3.777 3.88998 3.76799 3.924 3.76199 4.004C3.75099 4.136 3.75 4.31299 3.75 4.60999V8.38998C3.75 8.68698 3.75099 8.864 3.76199 8.996C3.76799 9.076 3.777 9.10999 3.78 9.11899ZM15.583 2.25H15.61H19.417C19.679 2.25 19.919 2.25 20.12 2.267C20.337 2.285 20.574 2.32599 20.807 2.44699C21.126 2.61299 21.387 2.87399 21.553 3.19299C21.674 3.42699 21.716 3.66397 21.734 3.87997C21.75 4.08097 21.75 4.32198 21.75 4.58298V8.41699C21.75 8.67899 21.75 8.91899 21.734 9.12C21.716 9.337 21.674 9.57298 21.553 9.80698C21.387 10.126 21.126 10.387 20.807 10.553C20.574 10.674 20.337 10.715 20.12 10.733C19.919 10.75 19.679 10.75 19.417 10.75H15.583C15.322 10.75 15.081 10.75 14.88 10.733C14.664 10.715 14.427 10.674 14.193 10.553C13.874 10.387 13.613 10.126 13.447 9.80698C13.326 9.57298 13.285 9.337 13.267 9.12C13.25 8.91899 13.25 8.67899 13.25 8.41699V4.58298C13.25 4.32198 13.25 4.08097 13.267 3.87997C13.285 3.66397 13.326 3.42699 13.447 3.19299C13.613 2.87399 13.874 2.61299 14.193 2.44699C14.427 2.32599 14.664 2.285 14.88 2.267C15.081 2.25 15.322 2.25 15.583 2.25ZM14.78 9.11899L14.781 9.121C14.804 9.162 14.838 9.19599 14.879 9.21899L14.881 9.22C14.89 9.223 14.924 9.23198 15.004 9.23898C15.136 9.24898 15.313 9.25 15.61 9.25H19.39C19.687 9.25 19.865 9.24898 19.996 9.23898C20.076 9.23198 20.11 9.223 20.119 9.22L20.121 9.21899C20.162 9.19599 20.196 9.162 20.219 9.121L20.22 9.11899C20.223 9.10999 20.232 9.076 20.239 8.996C20.25 8.864 20.25 8.68698 20.25 8.38998V4.60999C20.25 4.31299 20.25 4.136 20.239 4.004C20.232 3.924 20.223 3.88998 20.22 3.88098L20.219 3.879C20.196 3.838 20.162 3.80398 20.121 3.78098L20.119 3.78C20.11 3.777 20.076 3.76799 19.996 3.76199C19.865 3.75099 19.687 3.75 19.39 3.75H15.61C15.313 3.75 15.136 3.75099 15.004 3.76199C14.924 3.76799 14.89 3.777 14.881 3.78L14.879 3.78098C14.838 3.80398 14.804 3.838 14.781 3.879L14.78 3.88098C14.777 3.88998 14.768 3.924 14.762 4.004C14.751 4.136 14.75 4.31299 14.75 4.60999V8.38998C14.75 8.68698 14.751 8.864 14.762 8.996C14.768 9.076 14.777 9.10999 14.78 9.11899ZM15.583 13.25H19.417C19.679 13.25 19.919 13.25 20.12 13.267C20.337 13.285 20.574 13.326 20.807 13.447C21.126 13.613 21.387 13.874 21.553 14.193C21.674 14.427 21.716 14.664 21.734 14.88C21.75 15.081 21.75 15.322 21.75 15.583V19.417C21.75 19.679 21.75 19.919 21.734 20.12C21.716 20.337 21.674 20.573 21.553 20.807C21.387 21.126 21.126 21.387 20.807 21.553C20.574 21.674 20.337 21.715 20.12 21.733C19.919 21.75 19.679 21.75 19.417 21.75H15.583C15.322 21.75 15.081 21.75 14.88 21.733C14.664 21.715 14.427 21.674 14.193 21.553C13.874 21.387 13.613 21.126 13.447 20.807C13.326 20.573 13.285 20.337 13.267 20.12C13.25 19.919 13.25 19.679 13.25 19.417V15.583C13.25 15.322 13.25 15.081 13.267 14.88C13.285 14.664 13.326 14.427 13.447 14.193C13.613 13.874 13.874 13.613 14.193 13.447C14.427 13.326 14.664 13.285 14.88 13.267C15.081 13.25 15.322 13.25 15.583 13.25ZM14.78 20.119L14.781 20.121C14.804 20.162 14.838 20.196 14.879 20.219L14.881 20.22C14.89 20.223 14.924 20.232 15.004 20.239C15.136 20.249 15.313 20.25 15.61 20.25H19.39C19.687 20.25 19.865 20.249 19.996 20.239C20.076 20.232 20.11 20.223 20.119 20.22L20.121 20.219C20.162 20.196 20.196 20.162 20.219 20.121L20.22 20.119C20.223 20.11 20.232 20.076 20.239 19.996C20.25 19.865 20.25 19.687 20.25 19.39V15.61C20.25 15.313 20.25 15.136 20.239 15.004C20.232 14.924 20.223 14.89 20.22 14.881L20.219 14.879C20.196 14.838 20.162 14.804 20.121 14.781L20.119 14.78C20.11 14.777 20.076 14.768 19.996 14.762C19.865 14.751 19.687 14.75 19.39 14.75H15.61C15.313 14.75 15.136 14.751 15.004 14.762C14.924 14.768 14.89 14.777 14.881 14.78L14.879 14.781C14.838 14.804 14.804 14.838 14.781 14.879L14.78 14.881C14.777 14.89 14.768 14.924 14.762 15.004C14.751 15.136 14.75 15.313 14.75 15.61V19.39C14.75 19.687 14.751 19.865 14.762 19.996C14.768 20.076 14.777 20.11 14.78 20.119ZM4.58301 13.25H8.41699C8.67899 13.25 8.91899 13.25 9.12 13.267C9.337 13.285 9.57401 13.326 9.80701 13.447C10.126 13.613 10.387 13.874 10.553 14.193C10.674 14.427 10.715 14.664 10.733 14.88C10.75 15.081 10.75 15.322 10.75 15.583V19.417C10.75 19.679 10.75 19.919 10.733 20.12C10.715 20.337 10.674 20.573 10.553 20.807C10.387 21.126 10.126 21.387 9.80701 21.553C9.57401 21.674 9.337 21.715 9.12 21.733C8.91899 21.75 8.67899 21.75 8.41699 21.75H4.58301C4.32201 21.75 4.081 21.75 3.88 21.733C3.664 21.715 3.42699 21.674 3.19299 21.553C2.87399 21.387 2.61299 21.126 2.44699 20.807C2.32599 20.573 2.285 20.337 2.267 20.12C2.25 19.919 2.25 19.679 2.25 19.417V15.61V15.583C2.25 15.322 2.25 15.081 2.267 14.88C2.285 14.664 2.32599 14.427 2.44699 14.193C2.61299 13.874 2.87399 13.613 3.19299 13.447C3.42699 13.326 3.664 13.285 3.88 13.267C4.081 13.25 4.32201 13.25 4.58301 13.25ZM3.78 20.119L3.78101 20.121C3.80401 20.162 3.838 20.196 3.879 20.219L3.88101 20.22C3.89001 20.223 3.924 20.232 4.004 20.239C4.136 20.249 4.31302 20.25 4.61002 20.25H8.39001C8.68701 20.25 8.865 20.249 8.996 20.239C9.076 20.232 9.11002 20.223 9.11902 20.22L9.121 20.219C9.162 20.196 9.19599 20.162 9.21899 20.121L9.22 20.119C9.223 20.11 9.23201 20.076 9.23901 19.996C9.25001 19.865 9.25 19.687 9.25 19.39V15.61C9.25 15.313 9.25001 15.136 9.23901 15.004C9.23201 14.924 9.223 14.89 9.22 14.881L9.21899 14.879C9.19599 14.838 9.162 14.804 9.121 14.781L9.11902 14.78C9.11002 14.777 9.076 14.768 8.996 14.762C8.865 14.751 8.68701 14.75 8.39001 14.75H4.61002C4.31302 14.75 4.136 14.751 4.004 14.762C3.924 14.768 3.89001 14.777 3.88101 14.78L3.879 14.781C3.838 14.804 3.80401 14.838 3.78101 14.879L3.78 14.881C3.777 14.89 3.76799 14.924 3.76199 15.004C3.75099 15.136 3.75 15.313 3.75 15.61V19.39C3.75 19.687 3.75099 19.865 3.76199 19.996C3.76799 20.076 3.777 20.11 3.78 20.119Z"
        fill="#303233" />
</svg>
