<svg width="24" height="24" viewBox="0 0 24 24" fill="none" xmlns="http://www.w3.org/2000/svg">
    <path
        d="M14.25 4C14.25 3.58579 14.5858 3.25 15 3.25H20C20.4142 3.25 20.75 3.58579 20.75 4V9C20.75 9.41421 20.4142 9.75 20 9.75C19.5858 9.75 19.25 9.41421 19.25 9V5.81066L5.53033 19.5303C5.23744 19.8232 4.76256 19.8232 4.46967 19.5303C4.17678 19.2374 4.17678 18.7626 4.46967 18.4697L18.1893 4.75H15C14.5858 4.75 14.25 4.41421 14.25 4Z"
        fill="#303233" />
    <path
        d="M20.75 15C20.75 14.5858 20.4142 14.25 20 14.25C19.5858 14.25 19.25 14.5858 19.25 15V18.1893L15.5303 14.4697C15.2374 14.1768 14.7626 14.1768 14.4697 14.4697C14.1768 14.7626 14.1768 15.2374 14.4697 15.5303L18.1893 19.25H15C14.5858 19.25 14.25 19.5858 14.25 20C14.25 20.4142 14.5858 20.75 15 20.75H20C20.4142 20.75 20.75 20.4142 20.75 20V15Z"
        fill="#303233" />
    <path
        d="M5.53033 4.46967C5.23744 4.17678 4.76256 4.17678 4.46967 4.46967C4.17678 4.76256 4.17678 5.23744 4.46967 5.53033L8.46967 9.53033C8.76256 9.82322 9.23744 9.82322 9.53033 9.53033C9.82322 9.23744 9.82322 8.76256 9.53033 8.46967L5.53033 4.46967Z"
        fill="#303233" />
</svg>
