<svg width="24" height="24" viewBox="0 0 24 24" fill="none" xmlns="http://www.w3.org/2000/svg">
    <path
        d="M4 2C2.34315 2 1 3.34315 1 5V19C1 20.6569 2.34315 22 4 22H20C21.6569 22 23 20.6569 23 19V14H15.4142L16.7071 15.2929C17.0976 15.6834 17.0976 16.3166 16.7071 16.7071C16.3166 17.0976 15.6834 17.0976 15.2929 16.7071L12.2929 13.7071C11.9024 13.3166 11.9024 12.6834 12.2929 12.2929L15.2929 9.29289C15.6834 8.90237 16.3166 8.90237 16.7071 9.29289C17.0976 9.68342 17.0976 10.3166 16.7071 10.7071L15.4142 12H23V7C23 5.34315 21.6569 4 20 4H13.8284C13.298 4 12.7893 3.78929 12.4142 3.41421L11.5858 2.58579C11.2107 2.21071 10.702 2 10.1716 2H4Z"
        fill="#303233" />
</svg>
