<svg width="16" height="16" viewBox="0 0 16 16" fill="none" xmlns="http://www.w3.org/2000/svg">
    <path
        d="M0.75 4.00002C0.749991 2.75737 1.75735 1.75 3 1.75H6.79318C7.3122 1.75 7.80997 1.9562 8.17694 2.32324C8.45015 2.59649 8.82072 2.75 9.20712 2.75H13.0001C14.2427 2.75 15.2501 3.75736 15.2501 5L15.25 5.5C15.25 5.91421 14.9142 6.25 14.5 6.25C14.0858 6.25 13.75 5.91421 13.75 5.5V5L13.7501 4.98932C13.7444 4.58003 13.4108 4.25 13.0002 4.25H3.00015C2.58594 4.25 2.25015 4.58579 2.25015 5V12C2.25015 12.4142 2.58594 12.75 3.00015 12.75H13.0002C13.4108 12.75 13.7444 12.42 13.7501 12.0107L13.75 12V11.5C13.75 11.0858 14.0858 10.75 14.5 10.75C14.9142 10.75 15.25 11.0858 15.25 11.5V12C15.25 13.2426 14.2427 14.25 13.0001 14.25H3.00006C1.75742 14.25 0.750065 13.2427 0.750056 12L0.75 4.00002Z"
        fill="#303233" />
    <path
        d="M11.4697 7.03033C11.1768 6.73744 11.1768 6.26256 11.4697 5.96967C11.7626 5.67678 12.2374 5.67678 12.5303 5.96967L14.5303 7.96967C14.8232 8.26256 14.8232 8.73744 14.5303 9.03033L12.5303 11.0303C12.2374 11.3232 11.7626 11.3232 11.4697 11.0303C11.1768 10.7374 11.1768 10.2626 11.4697 9.96967L12.1893 9.25H7.5C7.08579 9.25 6.75 8.91421 6.75 8.5C6.75 8.08579 7.08579 7.75 7.5 7.75H12.1893L11.4697 7.03033Z"
        fill="#303233" />
</svg>
