<svg width="24" height="24" viewBox="0 0 24 24" fill="none" xmlns="http://www.w3.org/2000/svg">
    <path fill-rule="evenodd" clip-rule="evenodd"
        d="M4.25 8C4.25 5.37665 6.37665 3.25 9 3.25C11.6234 3.25 13.75 5.37665 13.75 8C13.75 10.6234 11.6234 12.75 9 12.75C6.37665 12.75 4.25 10.6234 4.25 8ZM9 4.75C7.20507 4.75 5.75 6.20507 5.75 8C5.75 9.79493 7.20507 11.25 9 11.25C10.7949 11.25 12.25 9.79493 12.25 8C12.25 6.20507 10.7949 4.75 9 4.75Z"
        fill="#303233" />
    <path
        d="M16.1871 3.39969C15.786 3.29644 15.3771 3.53793 15.2739 3.93907C15.1706 4.34021 15.4121 4.7491 15.8132 4.85234C17.2151 5.21317 18.2502 6.48666 18.2502 8C18.2502 9.51334 17.2151 10.7868 15.8132 11.1477C15.4121 11.2509 15.1706 11.6598 15.2739 12.0609C15.3771 12.4621 15.786 12.7036 16.1871 12.6003C18.2357 12.073 19.7502 10.2143 19.7502 8C19.7502 5.78566 18.2357 3.92695 16.1871 3.39969Z"
        fill="#303233" />
    <path
        d="M17.1871 14.5257C16.786 14.4225 16.3771 14.664 16.2739 15.0651C16.1706 15.4662 16.4121 15.8751 16.8132 15.9784C19.3598 16.6338 21.3663 18.6404 22.0217 21.1869C22.125 21.5881 22.5339 21.8296 22.935 21.7263C23.3361 21.6231 23.5776 21.2142 23.4744 20.8131C22.6827 17.7372 20.2629 15.3174 17.1871 14.5257Z"
        fill="#303233" />
    <path
        d="M1.97846 21.1869C2.78333 18.0598 5.62292 15.75 9.0001 15.75C12.3773 15.75 15.2169 18.0598 16.0217 21.1869C16.125 21.5881 16.5339 21.8296 16.935 21.7263C17.3361 21.6231 17.5776 21.2142 17.4744 20.8131C16.5031 17.0393 13.0783 14.25 9.0001 14.25C4.92192 14.25 1.49711 17.0393 0.525807 20.8131C0.42256 21.2142 0.664051 21.6231 1.06519 21.7263C1.46633 21.8296 1.87522 21.5881 1.97846 21.1869Z"
        fill="#303233" />
</svg>
