<svg width="24" height="24" viewBox="0 0 24 24" fill="none" xmlns="http://www.w3.org/2000/svg">
    <path fill-rule="evenodd" clip-rule="evenodd"
        d="M5 2.25C4.27065 2.25 3.57118 2.53973 3.05546 3.05546C2.53973 3.57118 2.25 4.27065 2.25 5V21C2.25 21.3033 2.43273 21.5768 2.71299 21.6929C2.99324 21.809 3.31583 21.7448 3.53033 21.5303L7.31066 17.75H19C19.7293 17.75 20.4288 17.4603 20.9445 16.9445C21.4603 16.4288 21.75 15.7293 21.75 15V5C21.75 4.27065 21.4603 3.57118 20.9445 3.05546C20.4288 2.53973 19.7293 2.25 19 2.25H5ZM12.75 6C12.75 5.58579 12.4142 5.25 12 5.25C11.5858 5.25 11.25 5.58579 11.25 6V10C11.25 10.4142 11.5858 10.75 12 10.75C12.4142 10.75 12.75 10.4142 12.75 10V6ZM12.75 14C12.75 13.5858 12.4142 13.25 12 13.25C11.5858 13.25 11.25 13.5858 11.25 14V14.01C11.25 14.4242 11.5858 14.76 12 14.76C12.4142 14.76 12.75 14.4242 12.75 14.01V14Z"
        fill="#303233" />
</svg>
