<svg width="24" height="24" viewBox="0 0 24 24" fill="none" xmlns="http://www.w3.org/2000/svg">
    <path
        d="M18.7071 1.29289C18.3166 0.902369 17.6834 0.902369 17.2929 1.29289L13.2929 5.29289C12.9024 5.68342 12.9024 6.31658 13.2929 6.70711C13.6834 7.09763 14.3166 7.09763 14.7071 6.70711L17 4.41421V10C17 10.5523 17.4477 11 18 11C18.5523 11 19 10.5523 19 10V4.41421L21.2929 6.70711C21.6834 7.09763 22.3166 7.09763 22.7071 6.70711C23.0976 6.31658 23.0976 5.68342 22.7071 5.29289L18.7071 1.29289Z"
        fill="#303233" />
    <path
        d="M10.9803 4.00051C11.0895 4.54189 10.7391 5.06929 10.1977 5.17848C6.56568 5.91106 4 8.75563 4 12C4 12.7383 4.13053 13.4498 4.37347 14.1187C4.47199 14.3901 4.58919 14.6542 4.723 14.91C5.164 15.751 5.291 16.739 4.958 17.628L4.568 18.667L6.899 18.2C7.51 18.078 8.14 18.156 8.719 18.384C9.75868 18.7931 10.8681 19.0031 11.9895 19C11.993 19 11.9965 19 12 19C12.0804 19 12.1605 18.999 12.2403 18.9969C13.4124 18.9666 14.5248 18.715 15.5222 18.2869C17.6242 17.3816 19.1838 15.6977 19.7559 13.7219C19.9095 13.1914 20.4641 12.8858 20.9946 13.0394C21.5251 13.1931 21.8306 13.7476 21.677 14.2781C20.9474 16.7979 19.0599 18.8483 16.5932 19.9963C15.2209 20.6368 13.6608 20.9997 12.002 21C10.625 21.005 9.263 20.747 7.986 20.245C7.765 20.157 7.525 20.115 7.291 20.162L3.196 20.981C2.84 21.052 2.473 20.924 2.238 20.648C2.003 20.371 1.936 19.989 2.064 19.649L3.085 16.926C3.219 16.569 3.129 16.176 2.952 15.838C2.88431 15.7088 2.81994 15.578 2.75897 15.4456C2.75387 15.4353 2.74892 15.4249 2.74413 15.4144C2.26514 14.3626 2 13.209 2 12C2 7.62981 5.41836 4.1022 9.80228 3.21796C10.3437 3.10877 10.8711 3.45912 10.9803 4.00051Z"
        fill="#303233" />
</svg>
