<svg width="24" height="24" viewBox="0 0 24 24" fill="none" xmlns="http://www.w3.org/2000/svg">
    <path
        d="M9 8C9.55229 8 10 8.44772 10 9V15C10 15.5523 9.55229 16 9 16C8.44772 16 8 15.5523 8 15V9C8 8.44772 8.44772 8 9 8Z"
        fill="#303233" />
    <path
        d="M16 9C16 8.44772 15.5523 8 15 8C14.4477 8 14 8.44772 14 9V15C14 15.5523 14.4477 16 15 16C15.5523 16 16 15.5523 16 15V9Z"
        fill="#303233" />
    <path fill-rule="evenodd" clip-rule="evenodd"
        d="M1 12C1 5.92487 5.92487 1 12 1C18.0751 1 23 5.92487 23 12C23 18.0751 18.0751 23 12 23C5.92487 23 1 18.0751 1 12ZM12 3C7.02944 3 3 7.02944 3 12C3 16.9706 7.02944 21 12 21C16.9706 21 21 16.9706 21 12C21 7.02944 16.9706 3 12 3Z"
        fill="#303233" />
</svg>
