<svg width="16" height="16" viewBox="0 0 16 16" fill="none" xmlns="http://www.w3.org/2000/svg">
    <g clip-path="url(#clip0_53_9052)">
        <path fill-rule="evenodd" clip-rule="evenodd"
            d="M8.75 7.75C8.75 7.33579 8.41421 7 8 7C7.58579 7 7.25 7.33579 7.25 7.75V13.4393L6.53033 12.7197C6.23744 12.4268 5.76256 12.4268 5.46967 12.7197C5.17678 13.0126 5.17678 13.4874 5.46967 13.7803L7.46967 15.7803C7.76256 16.0732 8.23744 16.0732 8.53033 15.7803L10.5303 13.7803C10.8232 13.4874 10.8232 13.0126 10.5303 12.7197C10.2374 12.4268 9.76256 12.4268 9.46967 12.7197L8.75 13.4393V7.75ZM11.5781 11.7493C11.5673 11.7498 11.5564 11.75 11.5454 11.75L3.54549 11.75C1.72887 11.75 0.25 10.2834 0.25 8.46667C0.25 7.01702 1.19139 5.79071 2.49476 5.35398C2.70958 2.77296 4.88165 0.75 7.52277 0.75C9.40696 0.75 11.0503 1.77892 11.9166 3.30343C14.0656 3.51183 15.75 5.31568 15.75 7.51667C15.75 9.83195 13.8861 11.7077 11.5781 11.7493Z"
            fill="#303233" />
    </g>
    <defs>
        <clipPath id="clip0_53_9052">
            <rect width="16" height="16" fill="white" />
        </clipPath>
    </defs>
</svg>
