<svg width="24" height="24" viewBox="0 0 24 24" fill="none" xmlns="http://www.w3.org/2000/svg">
    <path fill-rule="evenodd" clip-rule="evenodd"
        d="M8 6.25C6.48122 6.25 5.25 7.48122 5.25 9C5.25 10.5188 6.48122 11.75 8 11.75C9.51878 11.75 10.75 10.5188 10.75 9C10.75 7.48122 9.51878 6.25 8 6.25ZM6.75 9C6.75 8.30964 7.30964 7.75 8 7.75C8.69036 7.75 9.25 8.30964 9.25 9C9.25 9.69036 8.69036 10.25 8 10.25C7.30964 10.25 6.75 9.69036 6.75 9Z"
        fill="#303233" />
    <path fill-rule="evenodd" clip-rule="evenodd"
        d="M5 2.25C2.92893 2.25 1.25 3.92893 1.25 6V18C1.25 20.0711 2.92893 21.75 5 21.75H19C21.0711 21.75 22.75 20.0711 22.75 18V6C22.75 3.92893 21.0711 2.25 19 2.25H5ZM21.25 14.1893V6C21.25 4.75736 20.2426 3.75 19 3.75H5C3.75736 3.75 2.75 4.75736 2.75 6V18C2.75 18.0613 2.75245 18.122 2.75726 18.1821L6.76256 14.1768C7.44598 13.4934 8.55402 13.4934 9.23744 14.1768L11 15.9393L15.7626 11.1768C16.446 10.4934 17.554 10.4934 18.2374 11.1768L21.25 14.1893ZM3.43963 19.621C3.84415 20.0105 4.39411 20.25 5 20.25H6.79271C6.82881 20.1476 6.8878 20.0515 6.96967 19.9697L9.93934 17L8.17678 15.2374C8.07915 15.1398 7.92085 15.1398 7.82322 15.2374L3.43963 19.621ZM8.81066 20.25L16.8232 12.2374C16.9209 12.1398 17.0791 12.1398 17.1768 12.2374L21.25 16.3107V18C21.25 19.2426 20.2426 20.25 19 20.25H8.81066Z"
        fill="#303233" />
</svg>
