<svg width="24" height="24" viewBox="0 0 24 24" fill="none" xmlns="http://www.w3.org/2000/svg">
    <path fill-rule="evenodd" clip-rule="evenodd"
        d="M9 0.999969C9.55228 0.999969 10 1.44768 10 1.99997V3.99997C10 4.55225 9.55228 4.99997 9 4.99997C8.44772 4.99997 8 4.55225 8 3.99997V1.99997C8 1.44768 8.44772 0.999969 9 0.999969ZM13.4142 3.51469C15.3668 1.56207 18.5327 1.56207 20.4853 3.51469C22.4379 5.46731 22.4379 8.63313 20.4853 10.5858L18.364 12.7071C17.9734 13.0976 17.3403 13.0976 16.9497 12.7071C16.5592 12.3166 16.5592 11.6834 16.9497 11.2929L19.0711 9.17154C20.2426 7.99997 20.2426 6.10047 19.0711 4.9289C17.8995 3.75733 16 3.75733 14.8284 4.9289L12.7071 7.05022C12.3166 7.44075 11.6834 7.44075 11.2929 7.05022C10.9024 6.6597 10.9024 6.02653 11.2929 5.63601L13.4142 3.51469ZM2.79289 2.79286C3.18342 2.40234 3.81658 2.40234 4.20711 2.79286L5.62132 4.20708C6.01184 4.5976 6.01184 5.23077 5.62132 5.62129C5.2308 6.01181 4.59763 6.01181 4.20711 5.62129L2.79289 4.20708C2.40237 3.81655 2.40237 3.18339 2.79289 2.79286ZM1 8.99997C1 8.44768 1.44772 7.99997 2 7.99997H4C4.55228 7.99997 5 8.44768 5 8.99997C5 9.55225 4.55228 9.99997 4 9.99997H2C1.44772 9.99997 1 9.55225 1 8.99997ZM7.05025 11.2929C7.44078 11.6834 7.44078 12.3166 7.05025 12.7071L4.92893 14.8284C3.75736 16 3.75736 17.8995 4.92893 19.071C6.1005 20.2426 8 20.2426 9.17157 19.071L11.2929 16.9497C11.6834 16.5592 12.3166 16.5592 12.7071 16.9497C13.0976 17.3402 13.0976 17.9734 12.7071 18.3639L10.5858 20.4853C8.63317 22.4379 5.46734 22.4379 3.51472 20.4853C1.5621 18.5326 1.5621 15.3668 3.51472 13.4142L5.63604 11.2929C6.02656 10.9023 6.65973 10.9023 7.05025 11.2929ZM19 15C19 14.4477 19.4477 14 20 14H22C22.5523 14 23 14.4477 23 15C23 15.5523 22.5523 16 22 16H20C19.4477 16 19 15.5523 19 15ZM18.3787 18.3786C18.7692 17.9881 19.4024 17.9881 19.7929 18.3786L21.2071 19.7929C21.5976 20.1834 21.5976 20.8166 21.2071 21.2071C20.8166 21.5976 20.1834 21.5976 19.7929 21.2071L18.3787 19.7929C17.9882 19.4023 17.9882 18.7692 18.3787 18.3786ZM15 19C15.5523 19 16 19.4477 16 20V22C16 22.5523 15.5523 23 15 23C14.4477 23 14 22.5523 14 22V20C14 19.4477 14.4477 19 15 19Z"
        fill="#303233" />
</svg>
