<svg width="24" height="24" viewBox="0 0 24 24" fill="none" xmlns="http://www.w3.org/2000/svg">
    <path fill-rule="evenodd" clip-rule="evenodd"
        d="M6 2.25C3.92893 2.25 2.25 3.92893 2.25 6V18C2.25 20.0711 3.92893 21.75 6 21.75H18C20.0711 21.75 21.75 20.0711 21.75 18V6C21.75 3.92893 20.0711 2.25 18 2.25H6ZM3.75 6C3.75 4.75736 4.75736 3.75 6 3.75H18C19.2426 3.75 20.25 4.75736 20.25 6V18C20.25 18.7055 19.9253 19.3352 19.4172 19.7477C18.4523 16.566 15.4964 14.25 11.9995 14.25C8.5029 14.25 5.54711 16.5657 4.58208 19.7471C4.07439 19.3345 3.75 18.7052 3.75 18V6ZM5.99784 20.25C5.99856 20.25 5.99928 20.25 6 20.25H18C18.0004 20.25 18.0008 20.25 18.0012 20.25C17.2444 17.65 14.8438 15.75 11.9995 15.75C9.15523 15.75 6.75468 17.65 5.99784 20.25ZM9.74953 9C9.74953 7.75736 10.7569 6.75 11.9995 6.75C13.2422 6.75 14.2495 7.75736 14.2495 9C14.2495 10.2426 13.2422 11.25 11.9995 11.25C10.7569 11.25 9.74953 10.2426 9.74953 9ZM11.9995 5.25C9.92846 5.25 8.24953 6.92893 8.24953 9C8.24953 11.0711 9.92846 12.75 11.9995 12.75C14.0706 12.75 15.7495 11.0711 15.7495 9C15.7495 6.92893 14.0706 5.25 11.9995 5.25Z"
        fill="#303233" />
</svg>
