<svg width="16" height="16" viewBox="0 0 16 16" fill="none" xmlns="http://www.w3.org/2000/svg">
    <path
        d="M6.68793 7.3967L2.93089 11.1537L2.21262 13.7874L4.84628 13.0691L8.60332 9.31209L9.31043 10.0192L5.4595 13.8701C5.39797 13.9317 5.32145 13.9761 5.2375 13.999L1.63157 14.9824C1.45846 15.0296 1.27333 14.9804 1.14646 14.8536C1.01958 14.7267 0.970419 14.5416 1.01763 14.3684L2.00107 10.7625C2.02396 10.6786 2.06837 10.602 2.12989 10.5405L5.98082 6.68959L6.68793 7.3967Z"
        fill="#303233" />
    <path
        d="M2.35355 1.64645C2.15829 1.45118 1.84171 1.45118 1.64645 1.64645C1.45118 1.84171 1.45118 2.15829 1.64645 2.35355L13.6464 14.3536C13.8417 14.5488 14.1583 14.5488 14.3536 14.3536C14.5488 14.1583 14.5488 13.8417 14.3536 13.6464L2.35355 1.64645Z"
        fill="#303233" />
    <path fill-rule="evenodd" clip-rule="evenodd"
        d="M10.9677 1.69183C11.8902 0.76939 13.3857 0.769391 14.3082 1.69183C15.2306 2.61427 15.2306 4.10984 14.3082 5.03228L11.4869 7.85354C11.2916 8.0488 10.975 8.0488 10.7798 7.85354C10.5845 7.65828 10.5845 7.34169 10.7798 7.14643L13.6011 4.32517C14.133 3.79326 14.133 2.93085 13.6011 2.39894C13.0691 1.86702 12.2067 1.86702 11.6748 2.39894L8.85355 5.2202C8.65829 5.41546 8.34171 5.41546 8.14645 5.2202C7.95118 5.02493 7.95118 4.70835 8.14645 4.51309L10.9677 1.69183Z"
        fill="#303233" />
</svg>
