<svg width="24" height="24" viewBox="0 0 24 24" fill="none" xmlns="http://www.w3.org/2000/svg">
    <path
        d="M8 14.25C7.58579 14.25 7.25 14.5858 7.25 15C7.25 15.4142 7.58579 15.75 8 15.75H16C16.4142 15.75 16.75 15.4142 16.75 15C16.75 14.5858 16.4142 14.25 16 14.25H8Z"
        fill="#303233" />
    <path
        d="M13.75 9C13.75 8.30964 14.3059 7.75 14.9917 7.75H15.0083C15.6941 7.75 16.25 8.30964 16.25 9C16.25 9.69036 15.6941 10.25 15.0083 10.25H14.9917C14.3059 10.25 13.75 9.69036 13.75 9Z"
        fill="#303233" />
    <path
        d="M8.99172 7.75C8.30594 7.75 7.75 8.30964 7.75 9C7.75 9.69036 8.30594 10.25 8.99172 10.25H9.00828C9.69406 10.25 10.25 9.69036 10.25 9C10.25 8.30964 9.69406 7.75 9.00828 7.75H8.99172Z"
        fill="#303233" />
    <path fill-rule="evenodd" clip-rule="evenodd"
        d="M12 1.25C6.06294 1.25 1.25 6.06294 1.25 12C1.25 17.9371 6.06294 22.75 12 22.75C17.9371 22.75 22.75 17.9371 22.75 12C22.75 6.06294 17.9371 1.25 12 1.25ZM2.75 12C2.75 6.89137 6.89137 2.75 12 2.75C17.1086 2.75 21.25 6.89137 21.25 12C21.25 17.1086 17.1086 21.25 12 21.25C6.89137 21.25 2.75 17.1086 2.75 12Z"
        fill="#303233" />
</svg>
